<svg width="118" height="274" viewBox="0 0 118 274" fill="none" xmlns="http://www.w3.org/2000/svg">
<path d="M14.6584 17.3578C31.6584 -5.14224 49.658 0.35759 63.6582 4.35773C75.1582 7.6435 82.6582 26.3578 81.1582 33.8578C79.6582 41.3578 78.6582 50.8578 81.1582 60.8578C83.6582 70.8578 89.6582 84.8578 89.6582 92.8578C89.6582 100.858 90.6582 115.358 91.6582 122.858C92.6582 130.358 104.158 164.858 105.658 175.858C107.158 186.858 113.658 211.858 116.658 227.858C119.658 243.858 112.158 264.358 94.6582 271.358C77.1582 278.358 64.1582 264.358 60.6582 260.858C57.1582 257.358 27.6582 193.858 21.1582 179.858C14.6582 165.858 6.15842 120.858 3.15842 95.8578C0.15842 70.8578 -2.34158 39.8578 14.6584 17.3578Z" fill="#D2D28A" fill-opacity="0.4"/>
</svg>
