<svg width="345" height="162" viewBox="0 0 345 162" fill="none" xmlns="http://www.w3.org/2000/svg">
<g clip-path="url(#clip0_848_126806)">
<path d="M240.635 42.4238L237.659 47.1626L240.635 48.9291L243.597 44.4006L240.635 42.4238Z" fill="#C19F9C" fill-opacity="0.8"/>
<path d="M178.977 5.52384L178.78 0H175.215L175.411 5.72012L178.977 5.52384Z" fill="#C19F9C" fill-opacity="0.8"/>
<path d="M172.5 14.4296L167.152 12.8594L165.973 16.2101L171.517 17.9907L172.5 14.4296Z" fill="#C19F9C" fill-opacity="0.8"/>
<path d="M9.69968 58.7998L7.91699 64.1274L11.2859 65.3191L13.0686 59.9915L9.69968 58.7998Z" fill="#C19F9C" fill-opacity="0.8"/>
<path d="M169.538 84.0058L172.107 88.9408L175.279 87.3706L172.71 82.4355L169.538 84.0058Z" fill="#C19F9C" fill-opacity="0.8"/>
<path d="M162.996 84.6087L165.579 89.5437L168.737 87.9594L166.168 83.0244L162.996 84.6087Z" fill="#C19F9C" fill-opacity="0.8"/>
<path d="M171.018 111.347L174.569 111.543L174.976 106.02L171.411 105.823L171.018 111.347Z" fill="#C19F9C" fill-opacity="0.8"/>
<path d="M11.8887 65.9077L15.047 67.0853L17.0262 61.954L13.6714 60.7764L11.8887 65.9077Z" fill="#C19F9C" fill-opacity="0.8"/>
<path d="M12.8715 41.8354L10.8923 36.5078L7.52344 37.8818L9.50265 43.013L12.8715 41.8354Z" fill="#C19F9C" fill-opacity="0.8"/>
<path d="M148.14 42.1523H142.596V45.6994H148.14V42.1523Z" fill="#C19F9C" fill-opacity="0.8"/>
<path d="M147.944 47.0879H142.399V50.6349H147.944V47.0879Z" fill="#C19F9C" fill-opacity="0.8"/>
<path d="M164.824 93.3867H159.083V96.9338H164.824V93.3867Z" fill="#C19F9C" fill-opacity="0.8"/>
<path d="M164.221 99.1074H158.479V102.458H164.221V99.1074Z" fill="#C19F9C" fill-opacity="0.8"/>
<path d="M96.252 93.4699L101.404 95.643L102.793 92.4885L97.6416 90.1191L96.252 93.4699Z" fill="#C19F9C" fill-opacity="0.8"/>
<path d="M103.775 87.5539L98.6377 85.3809L97.248 88.5353L102.4 90.9047L103.775 87.5539Z" fill="#C19F9C" fill-opacity="0.8"/>
<path d="M112.802 78.666L109.237 78.4697L108.647 83.9936L112.213 84.1899L112.802 78.666Z" fill="#C19F9C" fill-opacity="0.8"/>
<path d="M113.603 84.9887L116.971 85.3812L117.561 79.6611L113.996 79.4648L113.603 84.9887Z" fill="#C19F9C" fill-opacity="0.8"/>
<path d="M176.562 109.762L179.916 110.155L180.52 104.631L176.955 104.238L176.562 109.762Z" fill="#C19F9C" fill-opacity="0.8"/>
<path d="M172.5 8.90616L166.955 7.13965L165.973 10.6867L171.321 12.2569L172.5 8.90616Z" fill="#C19F9C" fill-opacity="0.8"/>
<path d="M180.563 5.72012L184.129 5.52384V0H180.563V5.72012Z" fill="#C19F9C" fill-opacity="0.8"/>
<path d="M175.674 27.0454L178.439 29.2185L182.004 24.8723L179.239 22.6992L175.674 27.0454Z" fill="#C19F9C" fill-opacity="0.8"/>
<path d="M174.284 25.6706L177.849 21.3244L175.084 18.9551L171.519 23.3012L174.284 25.6706Z" fill="#C19F9C" fill-opacity="0.8"/>
<path d="M246.18 45.7754L243.204 50.5141L246.18 52.4909L249.142 47.7522L246.18 45.7754Z" fill="#C19F9C" fill-opacity="0.8"/>
<path d="M229.139 52.6868L223.791 50.9062L222.809 54.4533L228.157 56.0375L229.139 52.6868Z" fill="#C19F9C" fill-opacity="0.8"/>
<path d="M228.253 45.4052L227.262 48.7529L232.606 50.3309L233.597 46.9832L228.253 45.4052Z" fill="#C19F9C" fill-opacity="0.8"/>
<path d="M8.91351 44.5971L6.9343 39.2695L3.56543 40.6435L5.54464 45.7748L8.91351 44.5971Z" fill="#C19F9C" fill-opacity="0.8"/>
<path d="M5.93763 49.8538L0.393034 49.251L0 52.812L5.54459 53.2046L5.93763 49.8538Z" fill="#C19F9C" fill-opacity="0.8"/>
<path d="M0.882812 57.6128L6.42741 58.0054L6.82044 54.6406L1.07933 54.0518L0.882812 57.6128Z" fill="#C19F9C" fill-opacity="0.8"/>
<path d="M159.894 38.8774L157.522 33.7461L154.35 35.3163L156.736 40.4476L159.894 38.8774Z" fill="#C19F9C" fill-opacity="0.8"/>
<path d="M154.35 39.4663L151.978 34.5312L148.806 35.9052L151.192 41.0365L154.35 39.4663Z" fill="#C19F9C" fill-opacity="0.8"/>
<path d="M153.096 51.5762L151.103 56.9037L154.471 58.0954L156.451 52.7679L153.096 51.5762Z" fill="#C19F9C" fill-opacity="0.8"/>
<path d="M160.816 55.3333L157.447 54.1416L155.468 59.2729L158.837 60.6609L160.816 55.3333Z" fill="#C19F9C" fill-opacity="0.8"/>
<path d="M107.259 96.0361L103.693 100.186L106.276 102.541L110.038 98.2092L107.259 96.0361Z" fill="#C19F9C" fill-opacity="0.8"/>
<path d="M107.259 105.107L109.842 107.28L113.603 103.144L110.824 100.774L107.259 105.107Z" fill="#C19F9C" fill-opacity="0.8"/>
<path d="M232.824 61.7268L230.241 59.3574L226.479 63.7036L229.259 65.8767L232.824 61.7268Z" fill="#C19F9C" fill-opacity="0.8"/>
<path d="M228.655 68.6382L231.238 71.0075L235 66.8576L232.417 64.4883L228.655 68.6382Z" fill="#C19F9C" fill-opacity="0.8"/>
<path d="M254.24 106.059H248.695V109.606H254.24V106.059Z" fill="#C19F9C" fill-opacity="0.8"/>
<path d="M254.044 110.992H248.499V114.539H254.044V110.992Z" fill="#C19F9C" fill-opacity="0.8"/>
<path d="M266.243 102.945L263.871 97.8135L260.502 99.3837L262.874 104.515L266.243 102.945Z" fill="#C19F9C" fill-opacity="0.8"/>
<path d="M260.502 103.534L258.129 98.5986L254.957 99.9726L257.329 105.104L260.502 103.534Z" fill="#C19F9C" fill-opacity="0.8"/>
<path d="M259.277 115.333L257.298 120.661L260.667 121.852L262.646 116.721L259.277 115.333Z" fill="#C19F9C" fill-opacity="0.8"/>
<path d="M261.846 123.03L265.018 124.418L266.997 119.09L263.839 117.898L261.846 123.03Z" fill="#C19F9C" fill-opacity="0.8"/>
<path d="M325.04 83.0264L320.885 86.7697L323.257 89.3353L327.426 85.592L325.04 83.0264Z" fill="#C19F9C" fill-opacity="0.8"/>
<path d="M306.82 86.72L309.403 91.8373L312.561 90.267L309.993 85.332L306.82 86.72Z" fill="#C19F9C" fill-opacity="0.8"/>
<path d="M310.989 82.9628L313.558 87.8978L316.73 86.3136L314.148 81.3926L310.989 82.9628Z" fill="#C19F9C" fill-opacity="0.8"/>
<path d="M326.822 93.2888L330.991 89.5315L328.605 86.9658L324.45 90.7232L326.822 93.2888Z" fill="#C19F9C" fill-opacity="0.8"/>
<path d="M305.599 101.277L305.795 104.824L311.34 104.432L311.143 100.885L305.599 101.277Z" fill="#C19F9C" fill-opacity="0.8"/>
<path d="M305.599 95.7539L305.795 99.3009L311.34 98.9084L311.143 95.5576L305.599 95.7539Z" fill="#C19F9C" fill-opacity="0.8"/>
<path d="M323.654 148.597L328.806 150.756L330.196 147.602L325.044 145.232L323.654 148.597Z" fill="#C19F9C" fill-opacity="0.8"/>
<path d="M324.65 143.662L329.802 146.032L331.192 142.667L326.04 140.508L324.65 143.662Z" fill="#C19F9C" fill-opacity="0.8"/>
<path d="M339.855 133.399L336.29 133.203L335.883 138.727L339.252 138.923L339.855 133.399Z" fill="#C19F9C" fill-opacity="0.8"/>
<path d="M341.035 134.185L340.642 139.708L344.207 140.101L344.6 134.381L341.035 134.185Z" fill="#C19F9C" fill-opacity="0.8"/>
<path d="M334.297 151.106L330.731 155.242L333.511 157.612L337.076 153.266L334.297 151.106Z" fill="#C19F9C" fill-opacity="0.8"/>
<path d="M334.297 160.177L337.076 162.35L340.642 158.2L337.862 155.831L334.297 160.177Z" fill="#C19F9C" fill-opacity="0.8"/>
</g>
<defs>
<clipPath id="clip0_848_126806">
<rect width="345" height="162" fill="white"/>
</clipPath>
</defs>
</svg>
