<svg width="15" height="16" viewBox="0 0 15 16" fill="none" xmlns="http://www.w3.org/2000/svg">
<g clip-path="url(#clip0_962_29149)">
<path d="M0.0996094 10.1299L7.40961 15.6799L14.8996 5.71992L7.58961 0.169922L0.0996094 10.1299Z" fill="#CA871E"/>
<path d="M7.40935 15.7698C7.40935 15.7698 7.36935 15.7698 7.34935 15.7498L0.0393514 10.2098C0.0393514 10.2098 -0.0106486 10.1098 0.0193514 10.0698L7.50935 0.109824C7.50935 0.109824 7.54935 0.0698242 7.57935 0.0698242C7.60935 0.0698242 7.62935 0.0698242 7.64935 0.0898242L14.9594 5.63982C14.9594 5.63982 15.0094 5.73982 14.9794 5.77982L7.48935 15.7398C7.48935 15.7398 7.44935 15.7798 7.41935 15.7798C7.41935 15.7798 7.41935 15.7798 7.40935 15.7798V15.7698ZM0.239351 10.1098L7.38935 15.5398L14.7594 5.73982L7.60935 0.309824L0.239351 10.1098Z" fill="#CBCBCB"/>
<path d="M2.03912 11.7101C2.03912 11.7101 1.99912 11.7101 1.98912 11.6901L0.049117 10.1901C0.049117 10.1901 -0.000882951 10.1101 0.029117 10.0701L0.739117 9.10006C0.739117 9.10006 0.779117 9.07006 0.799117 9.06006C0.819117 9.06006 0.849117 9.06006 0.869117 9.08006L2.89912 10.5801C2.89912 10.5801 2.92912 10.6201 2.92912 10.6401C2.92912 10.6601 2.92912 10.6901 2.90912 10.7101L2.11912 11.6801C2.11912 11.6801 2.07912 11.7101 2.04912 11.7101H2.03912ZM0.219117 10.1101L2.01912 11.5001L2.69912 10.6701L0.819117 9.28006L0.219117 10.1101Z" fill="#CBCBCB"/>
<path d="M2.82875 10.74C2.82875 10.74 2.78875 10.74 2.77875 10.72L0.74875 9.22C0.74875 9.22 0.71875 9.19 0.71875 9.16C0.71875 9.14 0.71875 9.11 0.73875 9.09L1.52875 8.03C1.52875 8.03 1.56875 8 1.58875 8C1.61875 8 1.63875 8 1.65875 8.02L3.59875 9.52C3.59875 9.52 3.63875 9.6 3.61875 9.64L2.90875 10.7C2.90875 10.7 2.87875 10.73 2.84875 10.74C2.84875 10.74 2.84875 10.74 2.83875 10.74H2.82875ZM0.92875 9.14L2.80875 10.53L3.41875 9.62L1.61875 8.23L0.92875 9.15V9.14Z" fill="#CBCBCB"/>
<path d="M3.53912 9.69004C3.53912 9.69004 3.49912 9.69004 3.48912 9.67004L1.54912 8.17004C1.54912 8.17004 1.49912 8.09004 1.52912 8.05004L2.23912 7.08004C2.23912 7.08004 2.27912 7.05004 2.29912 7.04004C2.31912 7.04004 2.34912 7.04004 2.36912 7.06004L4.39912 8.56004C4.39912 8.56004 4.42912 8.60004 4.42912 8.62004C4.42912 8.64004 4.42912 8.67004 4.40912 8.69004L3.61912 9.66004C3.61912 9.66004 3.57912 9.69004 3.54912 9.69004H3.53912ZM1.71912 8.09004L3.51912 9.48004L4.19912 8.65004L2.31912 7.26004L1.71912 8.09004Z" fill="#CBCBCB"/>
<path d="M4.32875 8.71977C4.32875 8.71977 4.28875 8.71977 4.27875 8.69977L2.24875 7.19977C2.24875 7.19977 2.21875 7.15977 2.21875 7.13977C2.21875 7.11977 2.21875 7.08977 2.23875 7.06977L3.02875 6.09977C3.02875 6.09977 3.10875 6.05977 3.14875 6.08977L5.17875 7.58977C5.17875 7.58977 5.20875 7.62977 5.20875 7.64977C5.20875 7.66977 5.20875 7.69977 5.18875 7.71977L4.39875 8.68977C4.39875 8.68977 4.35875 8.71977 4.32875 8.71977ZM2.42875 7.11977L4.30875 8.50977L4.98875 7.67977L3.10875 6.28977L2.42875 7.11977Z" fill="#CBCBCB"/>
<path d="M6.61977 5.71977C6.61977 5.71977 6.57977 5.71977 6.56977 5.69977L4.53977 4.19977C4.53977 4.19977 4.50977 4.15977 4.50977 4.13977C4.50977 4.11977 4.50977 4.08977 4.52977 4.06977L5.31977 3.09977C5.31977 3.09977 5.39977 3.05977 5.43977 3.08977L7.37977 4.58977C7.37977 4.58977 7.42977 4.66977 7.39977 4.70977L6.68977 5.67977C6.68977 5.67977 6.64977 5.70977 6.62977 5.71977C6.62977 5.71977 6.62977 5.71977 6.61977 5.71977ZM4.71977 4.11977L6.59977 5.50977L7.19977 4.67977L5.39977 3.28977L4.71977 4.11977Z" fill="#CBCBCB"/>
<path d="M7.31841 4.74961C7.31841 4.74961 7.27841 4.74961 7.26841 4.72961L5.32841 3.22961C5.32841 3.22961 5.27841 3.14961 5.30841 3.10961L6.00841 2.13961C6.00841 2.13961 6.04841 2.10961 6.06841 2.09961C6.08841 2.09961 6.11841 2.09961 6.13841 2.11961L8.16841 3.61961C8.16841 3.61961 8.19841 3.65961 8.19841 3.67961C8.19841 3.69961 8.19841 3.72961 8.17841 3.74961L7.38841 4.71961C7.38841 4.71961 7.34841 4.74961 7.31841 4.74961ZM5.49841 3.14961L7.29841 4.53961L7.97841 3.70961L6.09841 2.31961L5.49841 3.14961Z" fill="#CBCBCB"/>
<path d="M8.11977 3.78004C8.11977 3.78004 8.07977 3.78004 8.06977 3.76004L6.03977 2.26004C6.03977 2.26004 6.00977 2.23004 6.00977 2.20004C6.00977 2.18004 6.00977 2.15004 6.02977 2.13004L6.81977 1.07004C6.81977 1.07004 6.85977 1.04004 6.87977 1.04004C6.90977 1.04004 6.92977 1.04004 6.94977 1.06004L8.88977 2.56004C8.88977 2.56004 8.92977 2.64004 8.90977 2.68004L8.19977 3.74004C8.19977 3.74004 8.16977 3.77004 8.13977 3.78004C8.13977 3.78004 8.12977 3.78004 8.11977 3.78004ZM6.21977 2.18004L8.09977 3.57004L8.70977 2.66004L6.90977 1.27004L6.21977 2.18004Z" fill="#CBCBCB"/>
<path d="M8.81841 2.72959C8.81841 2.72959 8.77841 2.72959 8.76841 2.70959L6.82841 1.20959C6.82841 1.20959 6.77841 1.12959 6.80841 1.08959L7.51841 0.11959C7.51841 0.11959 7.55841 0.0895898 7.57841 0.0795898C7.59841 0.0795898 7.62841 0.0795898 7.64841 0.0995898L9.67841 1.59959C9.67841 1.59959 9.70841 1.63959 9.70841 1.65959C9.70841 1.67959 9.70841 1.70959 9.68841 1.72959L8.89841 2.69959C8.89841 2.69959 8.85841 2.72959 8.82841 2.72959H8.81841ZM6.99841 1.12959L8.79841 2.51959L9.47841 1.68959L7.60841 0.28959L7.00841 1.11959L6.99841 1.12959Z" fill="#CBCBCB"/>
<path d="M7.40841 15.76C7.40841 15.76 7.36841 15.76 7.35841 15.74L5.32841 14.24C5.32841 14.24 5.27841 14.16 5.30841 14.12L6.01841 13.06C6.01841 13.06 6.04841 13.03 6.07841 13.02C6.09841 13.02 6.12841 13.02 6.14841 13.04L8.17841 14.54C8.17841 14.54 8.22841 14.62 8.19841 14.66L7.48841 15.72C7.48841 15.72 7.45841 15.75 7.42841 15.76C7.42841 15.76 7.42841 15.76 7.41841 15.76H7.40841ZM5.49841 14.15L7.37841 15.54L7.98841 14.63L6.10841 13.24L5.49841 14.15Z" fill="#CBCBCB"/>
<path d="M8.11977 14.71C8.11977 14.71 8.07977 14.71 8.06977 14.69L6.03977 13.19C6.03977 13.19 6.00977 13.15 6.00977 13.13C6.00977 13.11 6.00977 13.08 6.02977 13.06L6.81977 12.09C6.81977 12.09 6.89977 12.05 6.93977 12.08L8.96977 13.58C8.96977 13.58 8.99977 13.62 8.99977 13.64C8.99977 13.66 8.99976 13.69 8.97976 13.71L8.18976 14.68C8.18976 14.68 8.14977 14.71 8.11977 14.71ZM6.21977 13.11L8.09977 14.5L8.77977 13.67L6.89977 12.28L6.21977 13.11Z" fill="#CBCBCB"/>
<path d="M8.90883 13.7398C8.90883 13.7398 8.86883 13.7398 8.85883 13.7198L6.82883 12.2198C6.82883 12.2198 6.79883 12.1798 6.79883 12.1598C6.79883 12.1398 6.79883 12.1098 6.81883 12.0898L7.60883 11.1198C7.60883 11.1198 7.68883 11.0798 7.72883 11.1098L9.66883 12.6098C9.66883 12.6098 9.71883 12.6898 9.68883 12.7298L8.97883 13.6998C8.97883 13.6998 8.93883 13.7298 8.91883 13.7398C8.91883 13.7398 8.91883 13.7398 8.90883 13.7398ZM7.00883 12.1398L8.88883 13.5298L9.48883 12.6998L7.68883 11.3098L7.00883 12.1398Z" fill="#CBCBCB"/>
<path d="M9.60935 12.7698C9.60935 12.7698 9.56935 12.7698 9.55935 12.7498L7.61935 11.2498C7.61935 11.2498 7.57935 11.1698 7.59935 11.1298L8.30935 10.0698C8.30935 10.0698 8.34935 10.0398 8.36935 10.0298C8.38935 10.0298 8.41935 10.0298 8.43935 10.0498L10.4694 11.6398C10.4694 11.6398 10.4994 11.6798 10.4994 11.6998C10.4994 11.7198 10.4993 11.7498 10.4793 11.7698L9.68935 12.7398C9.68935 12.7398 9.64935 12.7698 9.61935 12.7698H9.60935ZM7.78935 11.1598L9.59935 12.5598L10.2793 11.7298L8.39935 10.2598L7.78935 11.1698V11.1598Z" fill="#CBCBCB"/>
<path d="M10.4088 11.8C10.4088 11.8 10.3688 11.8 10.3588 11.78L8.32883 10.19C8.32883 10.19 8.29883 10.15 8.29883 10.13C8.29883 10.11 8.29883 10.08 8.31883 10.06L9.10883 9.09C9.10883 9.09 9.18883 9.05 9.22883 9.08L11.1688 10.58C11.1688 10.58 11.2088 10.66 11.1888 10.7L10.4788 11.76C10.4788 11.76 10.4388 11.79 10.4188 11.8C10.4188 11.8 10.4188 11.8 10.4088 11.8ZM8.50883 10.11L10.3888 11.58L10.9988 10.67L9.19883 9.27L8.51883 10.1L8.50883 10.11Z" fill="#CBCBCB"/>
<path d="M11.1094 10.7398C11.1094 10.7398 11.0694 10.7398 11.0594 10.7198L9.11943 9.21984C9.11943 9.21984 9.06943 9.13984 9.09943 9.09984L9.80943 8.12984C9.80943 8.12984 9.84943 8.09984 9.86943 8.08984C9.88943 8.08984 9.91943 8.08984 9.93943 8.10984L11.9694 9.60984C11.9694 9.60984 11.9994 9.64984 11.9994 9.66984C11.9994 9.68984 11.9994 9.71984 11.9794 9.73984L11.1894 10.7098C11.1894 10.7098 11.1494 10.7398 11.1194 10.7398H11.1094ZM9.28943 9.13984L11.0894 10.5298L11.7694 9.69984L9.88943 8.30984L9.28943 9.13984Z" fill="#CBCBCB"/>
<path d="M11.8991 9.77006C11.8991 9.77006 11.8591 9.77006 11.8491 9.75006L9.81906 8.25006C9.81906 8.25006 9.78906 8.21006 9.78906 8.19006C9.78906 8.17006 9.78906 8.14006 9.80906 8.12006L10.5991 7.15006C10.5991 7.15006 10.6791 7.11006 10.7191 7.14006L12.6591 8.64006C12.6591 8.64006 12.7091 8.72006 12.6791 8.76006L11.9691 9.73006C11.9691 9.73006 11.9291 9.76006 11.9091 9.77006C11.9091 9.77006 11.9091 9.77006 11.8991 9.77006ZM9.99906 8.17006L11.8791 9.56006L12.4791 8.73006L10.6791 7.34006L9.99906 8.17006Z" fill="#CBCBCB"/>
<path d="M12.6093 8.80006C12.6093 8.80006 12.5694 8.80006 12.5594 8.78006L10.6193 7.28006C10.6193 7.28006 10.5794 7.20006 10.5994 7.16006L11.3094 6.10006C11.3094 6.10006 11.3393 6.07006 11.3693 6.06006C11.3993 6.06006 11.4193 6.06006 11.4393 6.08006L13.4693 7.58006C13.4693 7.58006 13.4993 7.61006 13.4993 7.64006C13.4993 7.66006 13.4993 7.69006 13.4793 7.71006L12.6893 8.77006C12.6893 8.77006 12.6493 8.80006 12.6293 8.80006C12.6293 8.80006 12.6293 8.80006 12.6193 8.80006H12.6093ZM10.7893 7.19006L12.5893 8.58006L13.2793 7.66006L11.3993 6.27006L10.7893 7.18006V7.19006Z" fill="#CBCBCB"/>
<path d="M13.3991 7.75004C13.3991 7.75004 13.3591 7.75004 13.3491 7.73004L11.3191 6.23004C11.3191 6.23004 11.2891 6.19004 11.2891 6.17004C11.2891 6.15004 11.2891 6.12004 11.3091 6.10004L12.0991 5.13004C12.0991 5.13004 12.1791 5.09004 12.2191 5.12004L14.2491 6.62004C14.2491 6.62004 14.2791 6.66004 14.2791 6.68004C14.2791 6.70004 14.2791 6.73004 14.2591 6.75004L13.4691 7.72004C13.4691 7.72004 13.4291 7.75004 13.3991 7.75004ZM11.4991 6.15004L13.3791 7.54004L14.0591 6.71004L12.1791 5.32004L11.4991 6.15004Z" fill="#CBCBCB"/>
<path d="M14.1998 6.77983C14.1998 6.77983 14.1598 6.77983 14.1498 6.75983L12.1198 5.25983C12.1198 5.25983 12.0898 5.21983 12.0898 5.19983C12.0898 5.17983 12.0898 5.14983 12.1098 5.12983L12.8998 4.15983C12.8998 4.15983 12.9798 4.11983 13.0198 4.14983L14.9598 5.64983C14.9598 5.64983 15.0098 5.72983 14.9798 5.76983L14.2798 6.73983C14.2798 6.73983 14.2398 6.76983 14.2198 6.77983C14.2198 6.77983 14.2198 6.77983 14.2098 6.77983H14.1998ZM12.2998 5.17983L14.1798 6.56983L14.7798 5.73983L12.9798 4.34983L12.2998 5.17983Z" fill="#CBCBCB"/>
<path d="M5.11977 7.74977C5.11977 7.74977 5.07977 7.74977 5.06977 7.72977L3.03977 6.22977C3.03977 6.22977 3.00977 6.19977 3.00977 6.16977C3.00977 6.14977 3.00977 6.11977 3.02977 6.09977L3.81977 5.03977C3.81977 5.03977 3.85977 5.00977 3.87977 5.00977C3.90977 5.00977 3.92977 5.00977 3.94977 5.02977L5.88977 6.61977C5.88977 6.61977 5.92977 6.69977 5.90977 6.73977L5.19977 7.70977C5.19977 7.70977 5.15977 7.73977 5.13977 7.74977C5.13977 7.74977 5.13977 7.74977 5.12977 7.74977H5.11977ZM3.21977 6.14977L5.09977 7.53977L5.69977 6.70977L3.89977 5.22977L3.21977 6.13977V6.14977Z" fill="#CBCBCB"/>
<path d="M5.83029 6.78004C5.83029 6.78004 5.79029 6.78004 5.77029 6.76004L3.83029 5.17004C3.83029 5.17004 3.79029 5.09004 3.81029 5.05004L4.52029 4.08004C4.52029 4.08004 4.56029 4.05004 4.58029 4.04004C4.60029 4.04004 4.63029 4.04004 4.65029 4.06004L6.68029 5.56004C6.68029 5.56004 6.71029 5.59004 6.71029 5.62004C6.71029 5.64004 6.71029 5.67004 6.69029 5.69004L5.90029 6.75004C5.90029 6.75004 5.86029 6.78004 5.84029 6.78004C5.84029 6.78004 5.84029 6.78004 5.83029 6.78004ZM4.01029 5.09004L5.81029 6.57004L6.49029 5.66004L4.61029 4.27004L4.01029 5.10004V5.09004Z" fill="#CBCBCB"/>
</g>
<defs>
<clipPath id="clip0_962_29149">
<rect width="15" height="15.7" fill="white" transform="translate(0 0.0698242)"/>
</clipPath>
</defs>
</svg>
