<svg width="74" height="167" viewBox="0 0 74 167" fill="none" xmlns="http://www.w3.org/2000/svg">
<g clip-path="url(#clip0_848_90062)">
<path d="M11.1996 58.677C11.5599 51.1125 4.11592 28.0451 0.588867 17.9144L11.9149 8.30808L14.7154 0.97092L36.6709 9.37225C40.6411 15.1222 49.1898 41.3246 51.2726 50.5724C55.5501 67.0069 62.0788 87.0434 66.3563 95.5983C70.6338 104.153 73.3353 107.08 73.7856 114.509C74.2358 121.938 70.1835 130.944 63.4296 137.472C58.0265 142.695 54.4244 158.86 53.2988 166.289C50.8224 165.088 45.1491 162.372 42.2675 161.111C38.6654 159.535 32.5869 140.399 29.2099 135.446C25.833 130.493 23.5817 123.514 23.3566 118.336C23.1315 113.158 10.7493 68.1325 11.1996 58.677Z" fill="#FFFF94" fill-opacity="0.4"/>
</g>
<defs>
<clipPath id="clip0_848_90062">
<rect width="73.2307" height="165.318" fill="white" transform="translate(0.588867 0.970703)"/>
</clipPath>
</defs>
</svg>
