<svg width="55" height="119" viewBox="0 0 55 119" fill="none" xmlns="http://www.w3.org/2000/svg">
<g clip-path="url(#clip0_962_28866)">
<path d="M42.1109 49.1802H8.63086L10.0409 55.1702L11.8009 62.6502H47.4809L44.3109 55.1702L42.1109 49.1802Z" fill="#CCCC66"/>
<path d="M11.8008 62.6602L14.6208 76.3102H53.2108L47.4808 62.6602H11.8008Z" fill="#CCCC66"/>
<path d="M48.9691 97.7202H20.7891L22.7291 100.89L24.6691 104.24L29.0691 111.73L31.0991 115.16L39.0291 118.77L43.2591 104.06L48.9691 97.7202Z" fill="#CCCC66"/>
<path d="M54.6291 78.4801L53.2091 76.3101H14.6191L18.3191 93.6701H50.9791L53.3891 88.8201L54.6291 78.4801Z" fill="#CCCC66"/>
<path d="M18.3203 93.6699L20.5303 97.2799L20.6503 97.4899L20.7903 97.7199H48.9703L50.9803 93.6699H18.3203Z" fill="#CCCC66"/>
<path d="M4.4 23.2801L4.52 23.7001L4.58 23.8901L4.76 24.6801V24.6901L7.4 35.9601L8.19 39.2201L8.63 49.1801H42.11L39.25 39.1801L38.45 35.9201L35.5 24.9701L0 12.3501L4.4 23.2801Z" fill="#CCCC66"/>
<path d="M9.88 0L6.88 7.02L0 12.35L35.5 24.97C34.75 19.75 26.74 8.21 23.57 3.8L9.88 0Z" fill="#CCCC66"/>
<path d="M22.4698 39.9301L21.2798 39.8001L21.3898 38.8401L22.5798 38.9701L22.4698 39.9301ZM22.6898 37.9801L21.4998 37.8501L21.6298 36.6601L22.8198 36.7901L22.6898 37.9801ZM22.9298 35.7901L21.7398 35.6601L21.7998 35.1501L21.6598 34.7701L22.7898 34.3701L23.0198 35.0101L22.9298 35.8001V35.7901ZM21.3198 33.8201L20.9098 32.6901L22.0398 32.2801L22.4498 33.4101L21.3198 33.8201ZM20.5798 31.7501L20.1698 30.6201L21.2998 30.2201L21.7098 31.3501L20.5798 31.7501ZM19.8398 29.6801L19.4298 28.5501L20.5598 28.1501L20.9698 29.2801L19.8398 29.6801ZM19.0998 27.6101L18.6898 26.4801L19.8198 26.0701L20.2298 27.2001L19.0998 27.6101ZM18.3598 25.5401L17.9498 24.4101L19.0798 24.0001L19.4898 25.1301L18.3598 25.5401ZM17.6198 23.4701L17.2098 22.3401L18.3398 21.9301L18.7498 23.0601L17.6198 23.4701ZM16.8798 21.4001L16.4698 20.2701L17.5998 19.8701L18.0098 21.0001L16.8798 21.4001ZM16.1398 19.3301L15.7298 18.2001L16.8598 17.8001L17.2698 18.9301L16.1398 19.3301ZM15.3998 17.2601L14.9898 16.1301L16.1198 15.7201L16.5298 16.8501L15.3998 17.2601ZM14.6598 15.1901L14.2498 14.0601L15.3798 13.6501L15.7898 14.7801L14.6598 15.1901ZM13.9198 13.1201L13.5298 12.0301L14.0598 11.8401L14.4898 11.3701L14.6198 11.4901L15.0598 12.7101L13.9298 13.1201H13.9198ZM12.9198 11.5401L12.0498 10.7101L12.8798 9.84006L13.7498 10.6701L12.9198 11.5401ZM11.3298 10.0301L10.4598 9.20006L11.2898 8.33006L12.1598 9.16006L11.3298 10.0301ZM9.72976 8.52006L8.85977 7.69006L9.68976 6.82006L10.5598 7.65006L9.72976 8.52006ZM8.12977 7.01006L7.25977 6.18006L8.08977 5.31006L8.95977 6.14006L8.12977 7.01006Z" fill="#A1A14D"/>
<path d="M28.8106 44.7902L28.1406 43.8002C28.4706 43.5802 28.7806 43.3502 29.0606 43.1202L29.8206 44.0502C29.5106 44.3002 29.1806 44.5502 28.8106 44.7902ZM30.6006 43.3502L29.7606 42.4902C30.0306 42.2202 30.2906 41.9502 30.5206 41.6602L31.4606 42.4102C31.2006 42.7302 30.9106 43.0502 30.6006 43.3502ZM32.0806 41.5402L31.0606 40.9102C31.2606 40.5902 31.4306 40.2602 31.5706 39.9302L32.6706 40.4002C32.5006 40.7902 32.3006 41.1702 32.0706 41.5402H32.0806ZM33.0306 39.3802L31.8706 39.0602C31.9706 38.7102 32.0406 38.3502 32.0806 37.9802L33.2706 38.1102C33.2206 38.5402 33.1406 38.9702 33.0306 39.3802ZM32.1306 37.0502V36.3302C32.1306 36.2402 32.1206 36.1502 32.0806 35.9702L33.2606 35.7302C33.3106 35.9502 33.3306 36.1302 33.3306 36.2902V36.9902L32.1406 37.0502H32.1306ZM31.8306 35.0702C31.7206 34.7302 31.5906 34.3502 31.4406 33.9602L32.5606 33.5402C32.7106 33.9502 32.8506 34.3402 32.9706 34.7002L31.8306 35.0702ZM31.0906 33.0402C30.9406 32.6602 30.7906 32.2902 30.6406 31.9402L31.7506 31.4802C31.9006 31.8402 32.0506 32.2202 32.2106 32.6002L31.0906 33.0402ZM30.2506 31.0202C29.9706 30.3702 29.7706 29.9302 29.7706 29.9202L30.8606 29.4302C30.8606 29.4302 31.0606 29.8802 31.3506 30.5402L30.2506 31.0102V31.0202Z" fill="#A1A14D"/>
<path d="M41.979 108.34L40.779 108.22C40.809 107.88 40.859 107.47 40.919 107L42.109 107.16C42.049 107.61 42.009 108.01 41.969 108.33L41.979 108.34ZM42.249 106.18L41.059 106.01C41.109 105.63 41.179 105.23 41.239 104.81L42.429 105C42.369 105.41 42.309 105.81 42.249 106.18ZM42.579 104.01L41.389 103.82L41.589 102.63L42.769 102.83L42.579 104.01ZM42.939 101.84L41.759 101.64L41.969 100.45L43.149 100.66L42.939 101.84ZM43.319 99.6799L42.139 99.4699L42.359 98.2899L43.539 98.5099L43.319 99.6899V99.6799ZM43.719 97.5199L42.539 97.2999C42.619 96.8699 42.699 96.4699 42.769 96.1099L43.949 96.3499C43.879 96.6999 43.799 97.0999 43.719 97.5199ZM44.149 95.3699L42.979 95.1099C43.029 94.8799 43.069 94.6999 43.109 94.5699C43.159 94.3799 43.209 94.1799 43.249 93.9599L44.429 94.1899C44.379 94.4399 44.329 94.6699 44.269 94.8899C44.239 94.9999 44.199 95.1699 44.149 95.3799V95.3699ZM44.589 93.1699L43.399 92.9899L43.579 91.7999L44.769 91.9899L44.589 93.1699ZM44.939 91.0099L43.759 90.7999C43.829 90.4199 43.909 90.0299 43.999 89.5999L45.169 89.8499C45.079 90.2599 45.009 90.6399 44.939 91.0099ZM45.389 88.8899L44.219 88.5999C44.309 88.2199 44.419 87.8299 44.529 87.4199L45.679 87.7499C45.569 88.1499 45.469 88.5299 45.379 88.8899H45.389ZM45.969 86.8099L44.829 86.4499L44.879 86.2899C44.979 85.9699 45.079 85.6399 45.169 85.3199L46.329 85.6399C46.239 85.9799 46.139 86.3199 46.029 86.6499L45.979 86.8099H45.969ZM46.569 84.6499L45.399 84.3699C45.489 83.9799 45.579 83.5999 45.659 83.2199L46.839 83.4599C46.759 83.8499 46.669 84.2499 46.569 84.6499ZM47.029 82.4599L45.849 82.2499C45.919 81.8499 45.979 81.4599 46.039 81.0799L47.229 81.2599C47.169 81.6499 47.109 82.0499 47.029 82.4599ZM47.369 80.2499L46.179 80.0999C46.229 79.6799 46.279 79.2899 46.309 78.9199L47.499 79.0399C47.459 79.4099 47.419 79.8199 47.359 80.2499H47.369ZM47.599 78.0299L46.399 77.9299C46.439 77.3999 46.469 76.9999 46.479 76.7799H47.079L47.679 76.8399C47.669 77.0699 47.639 77.4799 47.599 78.0299ZM46.479 75.7999C46.469 75.4499 46.449 75.0499 46.429 74.6099L47.629 74.5399C47.659 74.9799 47.669 75.3999 47.689 75.7599L46.489 75.7999H46.479ZM46.359 73.6299C46.329 73.2299 46.289 72.8299 46.259 72.4499L47.449 72.3299C47.489 72.7199 47.529 73.1299 47.559 73.5399L46.359 73.6299ZM46.139 71.4799C46.049 70.8499 45.969 70.5599 45.919 70.4299L47.039 70.0099C47.139 70.2799 47.239 70.7099 47.319 71.3099L46.129 71.4799H46.139ZM45.479 69.6499C45.279 69.3099 45.079 68.9699 44.869 68.6399L45.889 67.9999C46.099 68.3399 46.309 68.6899 46.519 69.0399L45.479 69.6499ZM44.339 67.8099C44.119 67.4699 43.899 67.1499 43.679 66.8299L44.669 66.1499C44.899 66.4799 45.119 66.8099 45.349 67.1599L44.349 67.8199L44.339 67.8099ZM43.099 66.0199C42.859 65.6899 42.629 65.3699 42.399 65.0599L43.359 64.3399C43.599 64.6499 43.839 64.9799 44.079 65.3199L43.109 66.0199H43.099ZM41.789 64.2699C41.529 63.9399 41.289 63.6199 41.059 63.3299L41.999 62.5799C42.229 62.8699 42.479 63.1899 42.749 63.5299L41.799 64.2599L41.789 64.2699ZM40.439 62.5499C40.139 62.1699 39.879 61.8399 39.689 61.5899L40.649 60.8699C40.839 61.1199 41.079 61.4299 41.379 61.7999L40.439 62.5499ZM39.109 60.6299C38.959 60.3099 38.789 59.9299 38.619 59.4899L39.729 59.0399C39.889 59.4499 40.049 59.8099 40.189 60.1099L39.109 60.6299ZM38.249 58.5499C38.109 58.1799 37.969 57.7999 37.839 57.4099L38.969 57.0099C39.109 57.3899 39.239 57.7699 39.379 58.1299L38.259 58.5499H38.249ZM37.499 56.4599L37.109 55.3199L38.249 54.9399L38.629 56.0699L37.499 56.4599ZM36.799 54.3599L36.429 53.2099L37.569 52.8399L37.939 53.9799L36.799 54.3499V54.3599ZM36.119 52.2899C36.019 52.0099 35.869 51.6399 35.679 51.1899L36.789 50.7299C36.979 51.1899 37.139 51.5799 37.249 51.8699L36.129 52.2899H36.119ZM35.289 50.2799L34.809 49.1799L35.909 48.6999L36.389 49.8099L35.289 50.2899V50.2799ZM34.409 48.2599L33.919 47.1599L35.019 46.6699L35.509 47.7699L34.409 48.2499V48.2599ZM33.519 46.2499L33.029 45.1599L34.119 44.6699L34.609 45.7699L33.509 46.2599L33.519 46.2499ZM32.619 44.2399L32.119 43.1499L33.209 42.6499L33.709 43.7499L32.619 44.2399ZM31.709 42.2299L31.209 41.1299L32.299 40.6299L32.799 41.7299L31.709 42.2299Z" fill="#A1A14D"/>
<path d="M22.0299 99.9002L21.4199 98.8702C21.8099 98.6402 22.1299 98.4402 22.3899 98.2502L23.0899 99.2302C22.8099 99.4302 22.4699 99.6502 22.0399 99.9002H22.0299ZM23.9299 98.5202L23.0699 97.6802C23.2999 97.4502 23.4299 97.2402 23.5799 97.0002L23.6999 96.8102L24.6999 97.4702L24.5899 97.6502C24.4199 97.9202 24.2399 98.2102 23.9199 98.5302L23.9299 98.5202ZM25.2599 96.6102L24.2299 95.9902C24.3999 95.7002 24.6099 95.3502 24.8499 94.9602L25.8799 95.5702C25.6499 95.9602 25.4299 96.3202 25.2599 96.6102ZM26.3999 94.7102L25.3699 94.1002C25.5699 93.7602 25.7799 93.4102 25.9899 93.0602L27.0199 93.6802C26.8099 94.0302 26.5999 94.3702 26.4099 94.7102H26.3999ZM27.5299 92.8302L26.5099 92.2002C26.7299 91.8402 26.9499 91.4902 27.1599 91.1702L28.1699 91.8202C27.9699 92.1302 27.7499 92.4702 27.5399 92.8302H27.5299ZM28.6999 91.0102L27.7199 90.3202C27.8899 90.0802 28.0499 89.8702 28.1699 89.7302C28.2799 89.6102 28.3699 89.4902 28.4599 89.3802L29.4399 90.0702C29.3299 90.2202 29.2199 90.3602 29.0699 90.5202C28.9599 90.6402 28.8399 90.8102 28.6899 91.0102H28.6999ZM29.9399 88.9802L28.7799 88.6702C28.8499 88.4002 28.9199 88.0502 28.9799 87.5702L30.1699 87.7302C30.0999 88.2602 30.0299 88.6602 29.9399 88.9802ZM30.2899 86.7202L29.0999 86.6002C29.1399 86.2502 29.1699 85.8602 29.2199 85.4202L30.4199 85.5302C30.3799 85.9802 30.3399 86.3802 30.2999 86.7302L30.2899 86.7202ZM30.4999 84.5202L29.2999 84.4102L29.4099 83.2202L30.6099 83.3302L30.4999 84.5302V84.5202ZM30.6999 82.3302L29.4999 82.2202L29.5999 81.1202L30.7999 81.1402L30.6899 82.3302H30.6999ZM30.8799 80.1202L29.6799 80.0502C29.6999 79.6602 29.7199 79.2702 29.7199 78.8802L30.9199 78.9002C30.9199 79.3102 30.8999 79.7102 30.8699 80.1202H30.8799ZM29.7299 77.8902C29.7299 77.4902 29.7099 77.1002 29.6899 76.7102L30.8899 76.6502C30.9099 77.0502 30.9199 77.4602 30.9299 77.8702L29.7299 77.8902ZM29.6299 75.7302C29.5999 75.3302 29.5599 74.9402 29.5199 74.5502L30.7099 74.4202C30.7499 74.8202 30.7899 75.2202 30.8199 75.6302L29.6199 75.7202L29.6299 75.7302ZM29.3999 73.5802C29.3499 73.1802 29.2899 72.7902 29.2199 72.4102L30.3999 72.2102C30.4599 72.6002 30.5299 73.0002 30.5799 73.4102L29.3899 73.5702L29.3999 73.5802ZM29.0499 71.4402C28.9699 71.0402 28.8899 70.6502 28.8099 70.2802L29.9799 70.0202C30.0599 70.4002 30.1499 70.8002 30.2299 71.2102L29.0499 71.4302V71.4402ZM28.5899 69.3202C28.4899 68.9002 28.3899 68.5202 28.2899 68.1802L29.4499 67.8602C29.5499 68.2202 29.6499 68.6102 29.7599 69.0402L28.5899 69.3202ZM28.0199 67.2302C27.8099 66.5302 27.6599 66.1302 27.6599 66.1202L28.7799 65.7002C28.7799 65.7002 28.9399 66.1202 29.1699 66.8802L28.0199 67.2302Z" fill="#A1A14D"/>
<path d="M42.02 106.53C41.77 106.21 41.52 105.9 41.27 105.58L42.22 104.84C42.46 105.15 42.71 105.46 42.96 105.78L42.02 106.53ZM40.66 104.78C40.41 104.45 40.17 104.13 39.94 103.82L40.9 103.11C41.13 103.43 41.37 103.74 41.62 104.07L40.66 104.79V104.78ZM39.34 103C39.1 102.67 38.87 102.34 38.64 102.01L39.63 101.32C39.85 101.64 40.08 101.96 40.32 102.29L39.35 102.99L39.34 103ZM38.07 101.18C37.84 100.84 37.62 100.5 37.4 100.17L38.41 99.5199C38.62 99.8499 38.84 100.18 39.07 100.51L38.07 101.18ZM36.86 99.3199C36.64 98.9699 36.43 98.6299 36.23 98.2899L37.26 97.6699C37.46 97.9999 37.67 98.3399 37.88 98.6799L36.86 99.3099V99.3199ZM35.72 97.4199C35.52 97.0599 35.32 96.7099 35.13 96.3599L36.18 95.7799C36.37 96.1199 36.56 96.4699 36.76 96.8199L35.72 97.4199ZM34.65 95.4699C34.46 95.1099 34.28 94.7499 34.1 94.3899L35.18 93.8599C35.35 94.2099 35.53 94.5599 35.71 94.9199L34.64 95.4699H34.65ZM33.67 93.4699C33.5 93.0999 33.33 92.7299 33.17 92.3599L34.27 91.8799C34.42 92.2399 34.59 92.5899 34.76 92.9599L33.67 93.4599V93.4699ZM32.78 91.4299C32.62 91.0499 32.48 90.6699 32.33 90.2999L33.45 89.8799C33.59 90.2399 33.73 90.6099 33.88 90.9799L32.77 91.4399L32.78 91.4299ZM31.99 89.3499C31.85 88.9599 31.72 88.5799 31.6 88.1999L32.74 87.8299C32.86 88.1999 32.99 88.5699 33.12 88.9499L31.99 89.3499ZM31.3 87.2299C31.18 86.8399 31.07 86.4499 30.97 86.0599L32.13 85.7399C32.23 86.1199 32.34 86.4999 32.46 86.8799L31.31 87.2199L31.3 87.2299ZM30.71 85.0899C30.61 84.6899 30.51 84.2999 30.42 83.9199L31.59 83.6399C31.68 84.0199 31.77 84.4099 31.87 84.7999L30.71 85.0899ZM30.2 82.9299C30.11 82.5299 30.03 82.1399 29.95 81.7499L31.12 81.5099C31.2 81.8999 31.28 82.2799 31.37 82.6799L30.2 82.9399V82.9299ZM29.74 80.7699L29.5 79.5999L30.68 79.3599L30.92 80.5399L29.74 80.7799V80.7699Z" fill="#A1A14D"/>
<path d="M20.5299 51.9702C20.4599 51.9702 20.3899 51.9202 20.3799 51.8402C20.3699 51.7602 20.4199 51.6802 20.4999 51.6702L22.0199 51.4302L20.9199 44.7702L19.4799 45.0102C19.3999 45.0102 19.3199 44.9702 19.3099 44.8902V44.8702C19.3099 44.8002 19.3599 44.7302 19.4399 44.7202L20.8799 44.4802L19.8699 37.8102L18.3399 37.9702C18.2599 37.9702 18.1799 37.9202 18.1699 37.8402C18.1699 37.7602 18.2199 37.6802 18.2999 37.6702L19.9699 37.4902C20.0499 37.4902 20.1199 37.5402 20.1299 37.6202L21.1899 44.5802L22.3399 51.5402C22.3399 51.5402 22.3399 51.6202 22.3099 51.6502C22.2899 51.6802 22.2499 51.7002 22.2099 51.7102L20.5399 51.9702H20.5199H20.5299Z" fill="#858585"/>
<path d="M22.8188 55.76C22.8188 55.76 22.7588 55.76 22.7288 55.73C22.6988 55.71 22.6788 55.67 22.6688 55.63L21.5288 48.67L20.4688 41.62C20.4688 41.62 20.4688 41.54 20.4988 41.51C20.5188 41.48 20.5588 41.46 20.5988 41.45L22.2688 41.27C22.3488 41.27 22.4188 41.32 22.4288 41.4L23.4888 48.36L24.5487 55.32C24.5587 55.4 24.5088 55.48 24.4288 55.49L22.8388 55.76H22.8188ZM21.8488 48.77L22.9488 55.43L24.2388 55.21L23.2288 48.55L21.8488 48.77ZM20.7888 41.73L21.7987 48.47L23.1788 48.25L22.1688 41.58L20.7888 41.72V41.73Z" fill="#858585"/>
<path d="M23.7902 51.27C23.7902 51.27 23.7302 51.27 23.7002 51.24C23.6702 51.22 23.6502 51.18 23.6402 51.14L22.4902 44.09C22.4902 44.09 22.4902 44.01 22.5202 43.97C22.5502 43.94 22.5802 43.92 22.6202 43.91L24.2902 43.73C24.3702 43.73 24.4402 43.78 24.4502 43.86L25.5102 50.82C25.5202 50.9 25.4702 50.98 25.3902 50.99L23.8002 51.25H23.7802L23.7902 51.27ZM22.8202 44.2L23.9202 50.94L25.2102 50.72L24.2002 44.05L22.8302 44.19L22.8202 44.2Z" fill="#858585"/>
<path d="M24.8402 58.2202C24.8402 58.2202 24.7802 58.2102 24.7502 58.1902C24.7202 58.1702 24.7002 58.1302 24.6902 58.0902L23.6302 51.1302C23.6202 51.0502 23.6702 50.9702 23.7502 50.9602L25.3402 50.7002C25.3402 50.7002 25.4202 50.7002 25.4502 50.7302C25.4802 50.7502 25.5002 50.7902 25.5102 50.8302L26.6502 57.7902C26.6502 57.7902 26.6502 57.8702 26.6202 57.9002C26.6002 57.9302 26.5602 57.9502 26.5202 57.9602L24.8502 58.2202H24.8302H24.8402ZM23.9502 51.2302L24.9602 57.8902L26.3402 57.6702L25.2402 51.0102L23.9502 51.2202V51.2302Z" fill="#858585"/>
<path d="M26.7797 59.8999C26.7797 59.8999 26.7197 59.8899 26.6897 59.8699C26.6597 59.8499 26.6397 59.8099 26.6297 59.7699L25.5697 52.8099L24.4297 45.8499C24.4297 45.8499 24.4297 45.7699 24.4597 45.7399C24.4797 45.7099 24.5197 45.6899 24.5597 45.6799L26.2297 45.4199C26.2297 45.4199 26.3097 45.4199 26.3397 45.4499C26.3697 45.4699 26.3897 45.5099 26.3997 45.5499L27.4597 52.5099L28.6097 59.4699C28.6097 59.4699 28.6097 59.5499 28.5797 59.5799C28.5597 59.6099 28.5197 59.6299 28.4797 59.6399L26.8097 59.9099H26.7897L26.7797 59.8999ZM25.8897 52.9099L26.8997 59.5799L28.2797 59.3599L27.1797 52.6999L25.8897 52.9199V52.9099ZM24.7497 45.9499L25.8497 52.6099L27.1397 52.3899L26.1297 45.7299L24.7497 45.9499Z" fill="#858585"/>
<path d="M28.0205 87.0301H23.8805C23.8005 87.0301 23.7305 86.9601 23.7305 86.8801V75.2501C23.7305 75.1701 23.8005 75.1001 23.8805 75.1001H28.0205C28.1005 75.1001 28.1705 75.1701 28.1705 75.2501V86.8801C28.1705 86.9601 28.1005 87.0301 28.0205 87.0301ZM24.0305 86.7301H27.8705V75.4001H24.0305V86.7301Z" fill="#858585"/>
<path d="M28.0196 86.4201H24.4996C24.4196 86.4201 24.3496 86.3501 24.3496 86.2701V75.9601C24.3496 75.8801 24.4196 75.8101 24.4996 75.8101H28.0196C28.0996 75.8101 28.1696 75.8801 28.1696 75.9601V86.2701C28.1696 86.3501 28.0996 86.4201 28.0196 86.4201ZM24.6496 86.1201H27.8696V76.1101H24.6496V86.1201Z" fill="#858585"/>
<path d="M26.87 85.0103H26.69C26.69 85.0103 26.64 85.0103 26.62 84.9903L26.48 84.9203H26.34C26.34 84.9203 26.26 84.9003 26.24 84.8803L26.15 84.7903C26.15 84.7903 26.13 84.7603 26.12 84.7503L26.04 84.5903L25.97 84.5203C25.97 84.5203 25.95 84.5003 25.94 84.4803L25.86 84.3303L25.79 84.2603C25.79 84.2603 25.75 84.1903 25.75 84.1503V83.9703C25.75 83.9703 25.75 83.9203 25.77 83.9003L25.84 83.7603V83.6203C25.84 83.6203 25.86 83.5403 25.88 83.5103L25.95 83.4403L26.03 83.2903C26.03 83.2903 26.07 83.2403 26.1 83.2203L26.26 83.1403L26.33 83.0703C26.33 83.0703 26.4 83.0303 26.44 83.0303H27.06C27.06 83.0303 27.11 83.0303 27.13 83.0503L27.31 83.1403C27.31 83.1403 27.34 83.1603 27.35 83.1703L27.44 83.2603C27.44 83.2603 27.46 83.2803 27.47 83.3003L27.55 83.4503L27.62 83.5203C27.62 83.5203 27.64 83.5503 27.65 83.5603L27.74 83.7403C27.74 83.7403 27.76 83.7803 27.76 83.8103V84.2503C27.76 84.2503 27.76 84.3003 27.74 84.3203L27.65 84.5003C27.65 84.5003 27.63 84.5303 27.62 84.5403L27.55 84.6103L27.47 84.7703C27.47 84.7703 27.43 84.8203 27.4 84.8403L27.22 84.9303C27.22 84.9303 27.18 84.9503 27.15 84.9503H27.04L27 84.9903C27 84.9903 26.93 85.0303 26.89 85.0303L26.87 85.0103ZM26.73 84.7103H26.81L26.85 84.6703C26.85 84.6703 26.92 84.6303 26.96 84.6303H27.1L27.2 84.5803L27.27 84.4503C27.27 84.4503 27.29 84.4203 27.3 84.4103L27.37 84.3403L27.43 84.2203V83.8503L27.37 83.7303L27.3 83.6603C27.3 83.6603 27.28 83.6303 27.27 83.6203L27.19 83.4703L27.14 83.4203L27.02 83.3603H26.5L26.46 83.4003C26.46 83.4003 26.43 83.4203 26.42 83.4303L26.29 83.5003L26.22 83.6303C26.22 83.6303 26.2 83.6603 26.19 83.6703L26.15 83.7103V83.8303C26.15 83.8303 26.15 83.8803 26.13 83.9003L26.06 84.0403V84.1203L26.1 84.1603C26.1 84.1603 26.12 84.1903 26.13 84.2003L26.21 84.3503L26.28 84.4203C26.28 84.4203 26.3 84.4403 26.31 84.4603L26.41 84.6403H26.52C26.52 84.6403 26.57 84.6403 26.59 84.6603L26.73 84.7303V84.7103Z" fill="#858585"/>
<path d="M26.96 79.1H26.52C26.52 79.1 26.47 79.1 26.45 79.08L26.31 79.01H26.26C26.2 79.01 26.15 78.98 26.13 78.93L26.05 78.77L25.98 78.7C25.98 78.7 25.96 78.68 25.95 78.66L25.77 78.31C25.77 78.31 25.75 78.27 25.75 78.24V78.15C25.75 78.15 25.75 78.1 25.77 78.08L25.84 77.94V77.8C25.84 77.8 25.86 77.72 25.88 77.69L25.95 77.62L26.03 77.47C26.03 77.47 26.07 77.42 26.1 77.4L26.26 77.32L26.33 77.25C26.33 77.25 26.4 77.21 26.44 77.21H27.06C27.06 77.21 27.11 77.21 27.13 77.23L27.31 77.32C27.31 77.32 27.34 77.34 27.35 77.35L27.44 77.44C27.44 77.44 27.46 77.46 27.47 77.48L27.55 77.63L27.62 77.7C27.62 77.7 27.64 77.73 27.65 77.74L27.74 77.92C27.74 77.92 27.76 77.96 27.76 77.99V78.43C27.76 78.43 27.76 78.48 27.74 78.5L27.65 78.68C27.65 78.68 27.63 78.71 27.62 78.72L27.55 78.79L27.47 78.95C27.44 79 27.39 79.03 27.34 79.03H27.2L27.05 79.1C27.05 79.1 27.01 79.12 26.98 79.12L26.96 79.1ZM26.56 78.8H26.93L27.08 78.73C27.08 78.73 27.12 78.71 27.15 78.71H27.23L27.28 78.62C27.28 78.62 27.3 78.59 27.31 78.58L27.38 78.51L27.44 78.39V78.02L27.38 77.9L27.31 77.83C27.31 77.83 27.29 77.8 27.28 77.79L27.2 77.64L27.15 77.59L27.03 77.53H26.51L26.47 77.57C26.47 77.57 26.44 77.59 26.43 77.6L26.3 77.67L26.23 77.8C26.23 77.8 26.21 77.83 26.2 77.84L26.16 77.88V78C26.16 78 26.16 78.05 26.14 78.07L26.07 78.23L26.22 78.53L26.29 78.6C26.29 78.6 26.31 78.62 26.32 78.64L26.37 78.73C26.37 78.73 26.41 78.73 26.43 78.75L26.57 78.82L26.56 78.8Z" fill="#858585"/>
<path d="M33.5604 106.68C33.5604 106.68 33.5304 106.68 33.5204 106.68C33.4804 106.68 33.4504 106.64 33.4304 106.61L27.6204 96.48C27.6204 96.48 27.5904 96.4 27.6104 96.37C27.6204 96.33 27.6504 96.3 27.6804 96.28L31.2904 94.25C31.3604 94.21 31.4504 94.23 31.4904 94.31L37.3104 104.35C37.3504 104.42 37.3304 104.51 37.2604 104.56L33.6504 106.68C33.6504 106.68 33.6004 106.7 33.5704 106.7L33.5604 106.68ZM27.9504 96.45L33.6104 106.32L36.9604 104.36L31.2904 94.57L27.9404 96.45H27.9504Z" fill="#858585"/>
<path d="M33.8293 105.71C33.7793 105.71 33.7293 105.68 33.6993 105.63L28.4993 96.7303C28.4993 96.7303 28.4693 96.6503 28.4893 96.6203C28.4893 96.5803 28.5293 96.5503 28.5593 96.5303L31.6393 94.7703C31.6393 94.7703 31.7193 94.7403 31.7493 94.7603C31.7893 94.7703 31.8193 94.8003 31.8393 94.8303L36.9493 103.82C36.9493 103.82 36.9693 103.9 36.9593 103.93C36.9493 103.97 36.9193 104 36.8893 104.02L33.8893 105.69C33.8893 105.69 33.8393 105.71 33.8193 105.71H33.8293ZM28.8393 96.7203L33.8893 105.36L36.6293 103.83L31.6693 95.1103L28.8493 96.7203H28.8393Z" fill="#858585"/>
<path d="M34.8899 103.51H34.3599C34.3599 103.51 34.2799 103.49 34.2499 103.47L34.1799 103.4L34.0299 103.32C34.0299 103.32 33.9799 103.28 33.9599 103.25L33.8799 103.09L33.8099 103.02C33.8099 103.02 33.7899 102.99 33.7799 102.98L33.6899 102.8C33.6899 102.8 33.6699 102.76 33.6699 102.73V102.29C33.6699 102.29 33.6699 102.24 33.6899 102.22L33.7799 102.04C33.7799 102.04 33.7999 102.01 33.8099 102L33.8799 101.93L33.9599 101.78C33.9599 101.78 33.9999 101.73 34.0299 101.71L34.2099 101.62C34.2099 101.62 34.2499 101.6 34.2799 101.6H34.3299L34.4799 101.53C34.4799 101.53 34.5199 101.51 34.5499 101.51H34.8999C34.8999 101.51 34.9799 101.53 35.0099 101.55L35.0799 101.62L35.2299 101.7C35.2299 101.7 35.2599 101.72 35.2699 101.73L35.4499 101.91C35.4499 101.91 35.4699 101.93 35.4799 101.95L35.6599 102.3C35.6599 102.3 35.6799 102.34 35.6799 102.37V102.63C35.6799 102.63 35.6799 102.68 35.6599 102.7L35.4799 103.05C35.4799 103.05 35.4599 103.08 35.4499 103.09L35.2699 103.27C35.2699 103.27 35.2499 103.29 35.2299 103.3L35.0799 103.38L35.0099 103.45C35.0099 103.45 34.9399 103.49 34.8999 103.49L34.8899 103.51ZM34.4199 103.21H34.8199L34.8599 103.17C34.8599 103.17 34.8899 103.15 34.8999 103.14L35.0499 103.06L35.1899 102.92L35.3399 102.62V102.43L35.1899 102.13L35.0499 101.99L34.8999 101.91C34.8999 101.91 34.8699 101.89 34.8599 101.88L34.8199 101.84H34.5699L34.4199 101.91C34.4199 101.91 34.3799 101.93 34.3499 101.93H34.2999L34.1999 101.98L34.1299 102.11C34.1299 102.11 34.1099 102.14 34.0999 102.15L34.0299 102.22L33.9699 102.34V102.71L34.0299 102.83L34.0999 102.9C34.0999 102.9 34.1199 102.93 34.1299 102.94L34.1999 103.07L34.3299 103.14C34.3299 103.14 34.3599 103.16 34.3699 103.17L34.4099 103.21H34.4199Z" fill="#858585"/>
<path d="M31.89 98.4902H31.62C31.62 98.4902 31.57 98.4902 31.55 98.4702L31.41 98.4002H31.27C31.27 98.4002 31.19 98.3802 31.16 98.3602L31.07 98.2702C31.07 98.2702 31.05 98.2402 31.04 98.2302L30.96 98.0702L30.89 98.0002C30.89 98.0002 30.87 97.9802 30.86 97.9602L30.77 97.7802C30.77 97.7802 30.75 97.7402 30.75 97.7102V97.2702C30.75 97.2702 30.75 97.2202 30.77 97.2002L30.86 97.0202C30.86 97.0202 30.88 96.9902 30.89 96.9802L30.96 96.9102L31.04 96.7602C31.04 96.7602 31.06 96.7302 31.07 96.7202L31.16 96.6302C31.16 96.6302 31.19 96.6102 31.2 96.6002L31.38 96.5102C31.38 96.5102 31.42 96.4902 31.45 96.4902H31.89C31.89 96.4902 31.94 96.4902 31.96 96.5102L32.31 96.6902C32.31 96.6902 32.34 96.7102 32.35 96.7202L32.53 96.9002C32.53 96.9002 32.55 96.9202 32.56 96.9402L32.65 97.1202C32.65 97.1202 32.67 97.1602 32.67 97.1902V97.3002L32.71 97.3402C32.71 97.3402 32.77 97.4602 32.74 97.5102L32.67 97.6502V97.7902C32.67 97.7902 32.65 97.8702 32.63 97.9002L32.56 97.9702L32.48 98.1202C32.48 98.1202 32.46 98.1502 32.45 98.1602L32.36 98.2502C32.36 98.2502 32.33 98.2702 32.32 98.2802L31.97 98.4602C31.97 98.4602 31.93 98.4802 31.9 98.4802L31.89 98.4902ZM31.66 98.1902H31.86L32.16 98.0402L32.21 97.9902L32.29 97.8302C32.29 97.8302 32.31 97.8002 32.32 97.7902L32.36 97.7502V97.6402C32.36 97.6402 32.36 97.5902 32.38 97.5702L32.42 97.4902H32.41C32.41 97.4902 32.37 97.4102 32.37 97.3702V97.2302L32.31 97.1102L32.17 96.9702L31.87 96.8202H31.5L31.38 96.8802L31.33 96.9302L31.25 97.0802C31.25 97.0802 31.23 97.1102 31.22 97.1202L31.15 97.1902L31.09 97.3102V97.6802L31.15 97.8002L31.22 97.8702C31.22 97.8702 31.24 97.9002 31.25 97.9102L31.35 98.0902H31.46C31.46 98.0902 31.51 98.0902 31.53 98.1102L31.67 98.1802L31.66 98.1902Z" fill="#858585"/>
<path d="M28.7197 42.5399H24.5797C24.4997 42.5399 24.4297 42.4699 24.4297 42.3899V36.5699C24.4297 36.4899 24.4997 36.4199 24.5797 36.4199H28.7197C28.7997 36.4199 28.8697 36.4899 28.8697 36.5699V42.3899C28.8697 42.4699 28.7997 42.5399 28.7197 42.5399ZM24.7297 42.2399H28.5697V36.7299H24.7297V42.2399Z" fill="#858585"/>
<path d="M28.7188 41.9301H25.1988C25.1188 41.9301 25.0488 41.8601 25.0488 41.7801V37.2901C25.0488 37.2101 25.1188 37.1401 25.1988 37.1401H28.7188C28.7988 37.1401 28.8688 37.2101 28.8688 37.2901V41.7801C28.8688 41.8601 28.7988 41.9301 28.7188 41.9301ZM25.3488 41.6301H28.5688V37.4401H25.3488V41.6301Z" fill="#858585"/>
<path d="M27.5695 40.5203H27.3895C27.3895 40.5203 27.3395 40.5203 27.3195 40.5003L27.1795 40.4303H27.1295C27.1295 40.4303 27.0795 40.4303 27.0595 40.4103L26.8795 40.3203C26.8795 40.3203 26.8295 40.2803 26.8095 40.2503L26.7295 40.1003L26.6595 40.0303C26.6595 40.0303 26.6395 40.0003 26.6295 39.9903L26.5495 39.8403L26.4795 39.7703C26.4795 39.7703 26.4395 39.7003 26.4395 39.6603V39.4803C26.4395 39.4803 26.4395 39.4303 26.4595 39.4103L26.5295 39.2703V39.1303C26.5295 39.1303 26.5495 39.0503 26.5695 39.0203L26.6395 38.9503L26.7195 38.8003C26.7195 38.8003 26.7595 38.7503 26.7895 38.7303L26.9695 38.6403C26.9695 38.6403 27.0095 38.6203 27.0395 38.6203H27.0895L27.2295 38.5503C27.2295 38.5503 27.2695 38.5303 27.2995 38.5303H27.6495C27.6495 38.5303 27.7295 38.5503 27.7595 38.5703L27.7995 38.6103H27.9095C27.9095 38.6103 27.9895 38.6303 28.0095 38.6503L28.2795 38.9103C28.2795 38.9103 28.3195 38.9803 28.3195 39.0203V39.0703L28.3895 39.2203C28.3895 39.2203 28.4095 39.2603 28.4095 39.2903V39.7303C28.4095 39.7303 28.4095 39.7803 28.3895 39.8003L28.2995 39.9803C28.2995 39.9803 28.2795 40.0103 28.2695 40.0203L28.1995 40.0903L28.1195 40.2403C28.1195 40.2403 28.0795 40.2903 28.0495 40.3103L27.8695 40.4003C27.8695 40.4003 27.8295 40.4203 27.7995 40.4203H27.7495L27.6095 40.4903C27.6095 40.4903 27.5695 40.5103 27.5395 40.5103L27.5695 40.5203ZM27.4295 40.2203H27.5295L27.6695 40.1503C27.6695 40.1503 27.7095 40.1303 27.7395 40.1303H27.7895L27.8895 40.0803L27.9495 39.9503C27.9495 39.9503 27.9695 39.9203 27.9795 39.9103L28.0495 39.8403L28.1095 39.7203V39.3503L28.0395 39.2003C28.0395 39.2003 28.0195 39.1603 28.0195 39.1303V39.1003L27.8395 38.9203H27.7295C27.7295 38.9203 27.6495 38.9003 27.6195 38.8803L27.5795 38.8403H27.3295L27.1895 38.9103C27.1895 38.9103 27.1495 38.9303 27.1195 38.9303H27.0695L26.9695 38.9803L26.8995 39.1103C26.8995 39.1103 26.8795 39.1403 26.8695 39.1503L26.8295 39.1903V39.3003C26.8295 39.3003 26.8295 39.3503 26.8095 39.3703L26.7395 39.5103V39.5903L26.7795 39.6303C26.7795 39.6303 26.7995 39.6603 26.8095 39.6703L26.8895 39.8203L26.9595 39.8903C26.9595 39.8903 26.9795 39.9203 26.9895 39.9303L27.0595 40.0603L27.1595 40.1103H27.2095C27.2095 40.1103 27.2595 40.1103 27.2795 40.1303L27.4195 40.2003L27.4295 40.2203Z" fill="#858585"/>
<path d="M21.7605 68.4403C21.6905 68.4403 21.6205 68.3903 21.6105 68.3103L20.7305 62.5803C20.7305 62.5803 20.7305 62.5003 20.7605 62.4703C20.7805 62.4403 20.8205 62.4203 20.8605 62.4103L25.0005 61.7903C25.0905 61.7803 25.1605 61.8303 25.1705 61.9203L26.0505 67.6503C26.0505 67.6503 26.0505 67.7303 26.0205 67.7603C26.0005 67.7903 25.9605 67.8103 25.9205 67.8203L21.7805 68.4403H21.7605ZM21.0505 62.6903L21.8905 68.1203L25.7305 67.5503L24.8905 62.1203L21.0505 62.6903Z" fill="#858585"/>
<path d="M22.3795 67.7399C22.3095 67.7399 22.2395 67.6899 22.2295 67.6099L21.5195 63.1199C21.5195 63.1199 21.5195 63.0399 21.5495 63.0099C21.5795 62.9799 21.6095 62.9599 21.6495 62.9499L25.0895 62.4199C25.1695 62.4199 25.2495 62.4599 25.2595 62.5399L25.9695 67.0299C25.9695 67.0299 25.9695 67.1099 25.9395 67.1399C25.9095 67.1699 25.8795 67.1899 25.8395 67.1999L22.3995 67.7299C22.3995 67.7299 22.3895 67.7299 22.3795 67.7299V67.7399ZM21.8495 63.2199L22.5095 67.4199L25.6495 66.9399L24.9895 62.7399L21.8495 63.2199Z" fill="#858585"/>
<path d="M24.3992 65.98H23.9592C23.9592 65.98 23.9092 65.98 23.8892 65.96L23.7092 65.87C23.7092 65.87 23.6792 65.85 23.6692 65.84L23.3192 65.49C23.3192 65.49 23.2792 65.42 23.2792 65.38V65.27L23.2392 65.23C23.2392 65.23 23.1992 65.16 23.1992 65.12V64.94C23.1992 64.94 23.1992 64.89 23.2192 64.87L23.2892 64.73V64.59C23.2892 64.59 23.3092 64.51 23.3292 64.48L23.4192 64.39C23.4192 64.39 23.4392 64.37 23.4592 64.36L23.5892 64.29L23.6592 64.16C23.6892 64.11 23.7392 64.08 23.7892 64.08H23.8992L23.9392 64.04C23.9392 64.04 24.0092 64 24.0492 64H24.3992C24.3992 64 24.4492 64 24.4692 64.02L24.6492 64.11C24.6492 64.11 24.6792 64.13 24.6892 64.14L24.7592 64.21L24.9092 64.29C24.9092 64.29 24.9392 64.31 24.9492 64.32L25.0392 64.41C25.0392 64.41 25.0592 64.44 25.0692 64.45L25.1592 64.63C25.1592 64.63 25.1792 64.67 25.1792 64.7V65.32C25.1792 65.32 25.1792 65.37 25.1592 65.39L25.0692 65.57C25.0692 65.57 25.0492 65.6 25.0392 65.61L24.9492 65.7C24.9492 65.7 24.9292 65.72 24.9092 65.73L24.7592 65.81L24.6892 65.88C24.6892 65.88 24.6592 65.9 24.6492 65.91L24.4692 66C24.4692 66 24.4292 66.02 24.3992 66.02V65.98ZM23.9892 65.68H24.3592L24.4792 65.62L24.5492 65.55C24.5492 65.55 24.5792 65.53 24.5892 65.52L24.7392 65.44L24.7892 65.39L24.8492 65.27V64.73L24.7892 64.61L24.7392 64.56L24.5892 64.48C24.5892 64.48 24.5592 64.46 24.5492 64.45L24.4792 64.38L24.3592 64.32H24.1092L24.0692 64.36C24.0692 64.36 23.9992 64.4 23.9592 64.4H23.8792L23.8292 64.49C23.8292 64.49 23.7892 64.54 23.7592 64.56L23.5792 64.66V64.78C23.5792 64.78 23.5792 64.83 23.5592 64.85L23.4892 64.99V65.07L23.5292 65.11C23.5292 65.11 23.5692 65.18 23.5692 65.22V65.33L23.8592 65.62L23.9792 65.68H23.9892Z" fill="#858585"/>
<path d="M29.9502 35.7601H25.8102C25.7302 35.7601 25.6602 35.6901 25.6602 35.6101V23.9801C25.6602 23.9001 25.7302 23.8301 25.8102 23.8301H29.9502C30.0302 23.8301 30.1002 23.9001 30.1002 23.9801V35.6101C30.1002 35.6901 30.0302 35.7601 29.9502 35.7601ZM25.9602 35.4601H29.8002V24.1301H25.9602V35.4601Z" fill="#858585"/>
<path d="M29.9494 35.0602H26.5094C26.4294 35.0602 26.3594 34.9902 26.3594 34.9102V24.6002C26.3594 24.5202 26.4294 24.4502 26.5094 24.4502H29.9494C30.0294 24.4502 30.0994 24.5202 30.0994 24.6002V34.9102C30.0994 34.9902 30.0294 35.0602 29.9494 35.0602ZM26.6594 34.7602H29.7994V24.7502H26.6594V34.7602Z" fill="#858585"/>
<path d="M28.9795 33.6401H28.4495C28.4495 33.6401 28.3695 33.6201 28.3395 33.6001L28.2695 33.5301L28.1195 33.4501C28.1195 33.4501 28.0895 33.4301 28.0795 33.4201L27.9895 33.3301C27.9895 33.3301 27.9695 33.3001 27.9595 33.2901L27.8795 33.1301L27.8095 33.0601C27.8095 33.0601 27.7695 32.9901 27.7695 32.9501V32.3301C27.7695 32.3301 27.7695 32.2801 27.7895 32.2601L27.8795 32.0801C27.8795 32.0801 27.9195 32.0301 27.9495 32.0101L28.0995 31.9301L28.1695 31.8601C28.1695 31.8601 28.1895 31.8401 28.2095 31.8301L28.3595 31.7501L28.4295 31.6801C28.4295 31.6801 28.4995 31.6401 28.5395 31.6401H28.8895C28.8895 31.6401 28.9395 31.6401 28.9595 31.6601L29.1395 31.7501C29.1395 31.7501 29.1695 31.7701 29.1795 31.7801L29.2495 31.8501L29.4095 31.9301C29.4095 31.9301 29.4395 31.9501 29.4495 31.9601L29.5395 32.0501C29.5395 32.0501 29.5595 32.0801 29.5695 32.0901L29.6595 32.2701C29.6595 32.2701 29.6795 32.3101 29.6795 32.3401V32.9601C29.6795 32.9601 29.6595 33.0401 29.6395 33.0701L29.5695 33.1401L29.4895 33.3001C29.4895 33.3001 29.4695 33.3301 29.4595 33.3401L29.3695 33.4301C29.3695 33.4301 29.3395 33.4501 29.3295 33.4601L29.1695 33.5401L29.0995 33.6101C29.0995 33.6101 29.0295 33.6501 28.9895 33.6501L28.9795 33.6401ZM28.5095 33.3401H28.9095L28.9495 33.3001C28.9495 33.3001 28.9795 33.2801 28.9895 33.2701L29.1495 33.1901L29.1995 33.1401L29.2795 32.9801C29.2795 32.9801 29.2995 32.9501 29.3095 32.9401L29.3495 32.9001V32.3801L29.2895 32.2601L29.2395 32.2101L29.0795 32.1301C29.0795 32.1301 29.0495 32.1101 29.0395 32.1001L28.9695 32.0301L28.8495 31.9701H28.5995L28.5595 32.0101C28.5595 32.0101 28.5395 32.0301 28.5195 32.0401L28.3695 32.1201L28.2995 32.1901C28.2995 32.1901 28.2795 32.2101 28.2595 32.2201L28.1295 32.2901L28.0795 32.3901V32.9101L28.1195 32.9501C28.1195 32.9501 28.1395 32.9801 28.1495 32.9901L28.2295 33.1501L28.2795 33.2001L28.4295 33.2801C28.4295 33.2801 28.4595 33.3001 28.4695 33.3101L28.5095 33.3501V33.3401Z" fill="#858585"/>
<path d="M28.9795 27.8301H28.4495C28.4495 27.8301 28.3695 27.8101 28.3395 27.7901L28.2695 27.7201L28.1195 27.6401C28.1195 27.6401 28.0895 27.6201 28.0795 27.6101L27.9895 27.5201C27.9895 27.5201 27.9695 27.4901 27.9595 27.4801L27.8795 27.3201L27.8095 27.2501C27.8095 27.2501 27.7695 27.1801 27.7695 27.1401V26.5201C27.7695 26.5201 27.7695 26.4701 27.7895 26.4501L27.8795 26.2701C27.8795 26.2701 27.9195 26.2201 27.9495 26.2001L28.0995 26.1201L28.1695 26.0501C28.1695 26.0501 28.1895 26.0301 28.2095 26.0201L28.3595 25.9401L28.4295 25.8701C28.4295 25.8701 28.4995 25.8301 28.5395 25.8301H28.8895C28.8895 25.8301 28.9395 25.8301 28.9595 25.8501L29.1395 25.9401C29.1395 25.9401 29.1695 25.9601 29.1795 25.9701L29.2495 26.0401L29.4095 26.1201C29.4095 26.1201 29.4395 26.1401 29.4495 26.1501L29.5395 26.2401C29.5395 26.2401 29.5595 26.2701 29.5695 26.2801L29.6595 26.4601C29.6595 26.4601 29.6795 26.5001 29.6795 26.5301V27.1501C29.6795 27.1501 29.6595 27.2301 29.6395 27.2601L29.5695 27.3301L29.4895 27.4901C29.4895 27.4901 29.4695 27.5201 29.4595 27.5301L29.3695 27.6201C29.3695 27.6201 29.3395 27.6401 29.3295 27.6501L29.1695 27.7301L29.0995 27.8001C29.0995 27.8001 29.0295 27.8401 28.9895 27.8401L28.9795 27.8301ZM28.5095 27.5301H28.9095L28.9495 27.4901C28.9495 27.4901 28.9795 27.4701 28.9895 27.4601L29.1495 27.3801L29.1995 27.3301L29.2795 27.1701C29.2795 27.1701 29.2995 27.1401 29.3095 27.1301L29.3495 27.0901V26.5701L29.2895 26.4501L29.2395 26.4001L29.0795 26.3201C29.0795 26.3201 29.0495 26.3001 29.0395 26.2901L28.9695 26.2201L28.8495 26.1601H28.5995L28.5595 26.2001C28.5595 26.2001 28.5395 26.2201 28.5195 26.2301L28.3695 26.3101L28.2995 26.3801C28.2995 26.3801 28.2795 26.4001 28.2595 26.4101L28.1295 26.4801L28.0795 26.5801V27.1001L28.1195 27.1401C28.1195 27.1401 28.1395 27.1701 28.1495 27.1801L28.2295 27.3401L28.2795 27.3901L28.4295 27.4701C28.4295 27.4701 28.4595 27.4901 28.4695 27.5001L28.5095 27.5401V27.5301Z" fill="#858585"/>
<path d="M42.5503 89.4998C42.5503 89.4998 42.5203 89.4998 42.5103 89.4998L36.8703 87.9998C36.7903 87.9798 36.7403 87.8998 36.7603 87.8198L38.1703 82.1798C38.1703 82.1798 38.2103 82.1098 38.2403 82.0898C38.2703 82.0698 38.3203 82.0598 38.3503 82.0698L43.9903 83.5698C44.0703 83.5898 44.1203 83.6698 44.1003 83.7498L42.6903 89.3898C42.6903 89.3898 42.6503 89.4598 42.6203 89.4798C42.6003 89.4898 42.5703 89.4998 42.5403 89.4998H42.5503ZM37.0903 87.7498L42.4403 89.1698L43.7803 83.8198L38.4303 82.3998L37.0903 87.7498Z" fill="#858585"/>
<path d="M42.6391 88.7901C42.6391 88.7901 42.6191 88.7901 42.5991 88.7901L37.6691 87.5601C37.5891 87.5401 37.5391 87.4601 37.5591 87.3801L38.6191 82.9801C38.6191 82.9801 38.6491 82.9101 38.6891 82.8901C38.7191 82.8701 38.7691 82.8601 38.8091 82.8701L43.8291 84.1901C43.8291 84.1901 43.8991 84.2301 43.9191 84.2601C43.9391 84.2901 43.9491 84.3401 43.9291 84.3701L42.7891 88.6901C42.7691 88.7601 42.7091 88.8001 42.6491 88.8001L42.6391 88.7901ZM37.8891 87.3001L42.5391 88.4601L43.6091 84.4301L38.8791 83.1901L37.8891 87.3001Z" fill="#858585"/>
<path d="M40.6102 86.77H40.2602C40.2602 86.77 40.1802 86.75 40.1502 86.73L40.1102 86.69H40.0002C39.9402 86.69 39.8902 86.66 39.8702 86.61L39.8002 86.48L39.6702 86.41C39.6702 86.41 39.6402 86.39 39.6302 86.38L39.5402 86.29C39.5402 86.29 39.5002 86.22 39.5002 86.18V86.04L39.4302 85.89C39.4302 85.89 39.4102 85.85 39.4102 85.82V85.64C39.4102 85.64 39.4302 85.56 39.4502 85.53L39.4902 85.49V85.38C39.4902 85.38 39.4902 85.33 39.5102 85.31L39.6002 85.13C39.6002 85.13 39.6402 85.08 39.6702 85.06L39.8202 84.98L39.8902 84.91C39.8902 84.91 39.9202 84.89 39.9302 84.88L40.1102 84.79C40.1102 84.79 40.1502 84.77 40.1802 84.77H40.6202C40.6202 84.77 40.6702 84.77 40.6902 84.79L40.8702 84.88C40.8702 84.88 40.9002 84.9 40.9102 84.91L40.9802 84.98L41.1302 85.06C41.1302 85.06 41.1602 85.08 41.1702 85.09L41.2602 85.18C41.2602 85.18 41.2802 85.2 41.2902 85.22L41.3802 85.4C41.3802 85.4 41.4002 85.44 41.4002 85.47V86.09C41.4002 86.09 41.4002 86.14 41.3802 86.16L41.2902 86.34C41.2902 86.34 41.2702 86.37 41.2602 86.38L41.1702 86.47C41.1702 86.47 41.1402 86.49 41.1302 86.5L40.9802 86.58L40.9102 86.65C40.9102 86.65 40.8802 86.67 40.8702 86.68L40.6902 86.77C40.6902 86.77 40.6502 86.79 40.6202 86.79L40.6102 86.77ZM40.3202 86.47H40.5702L40.6902 86.41L40.7602 86.34C40.7602 86.34 40.7902 86.32 40.8002 86.31L40.9502 86.23L41.0002 86.18L41.0602 86.06V85.51L41.0002 85.39L40.9502 85.34L40.8002 85.26C40.8002 85.26 40.7702 85.24 40.7602 85.23L40.6902 85.16L40.5702 85.1H40.2002L40.0802 85.16L40.0102 85.23C40.0102 85.23 39.9802 85.25 39.9702 85.26L39.8402 85.32L39.7902 85.42V85.56C39.7902 85.56 39.7702 85.64 39.7502 85.67L39.7102 85.71V85.79L39.7802 85.94C39.7802 85.94 39.8002 85.98 39.8002 86.01V86.12L39.8302 86.15L39.9802 86.23C39.9802 86.23 40.0302 86.27 40.0502 86.3L40.1002 86.39H40.1802C40.1802 86.39 40.2602 86.41 40.2902 86.43L40.3302 86.47H40.3202Z" fill="#858585"/>
<path d="M44.9287 80.7802L39.1187 80.6002C39.0387 80.6002 38.9688 80.5302 38.9688 80.4402L39.1488 74.6302C39.1488 74.6302 39.1687 74.5502 39.1987 74.5302C39.2287 74.5002 39.2688 74.4902 39.3088 74.4902L45.1187 74.6702C45.1987 74.6702 45.2687 74.7402 45.2687 74.8302L45.0887 80.6402C45.0887 80.6402 45.0687 80.7202 45.0387 80.7402C45.0087 80.7702 44.9787 80.7802 44.9387 80.7802H44.9287ZM39.2687 80.3102L44.7787 80.4802L44.9487 74.9702L39.4387 74.8002L39.2687 80.3102Z" fill="#858585"/>
<path d="M44.9299 80.0701L39.8199 79.8901C39.7399 79.8901 39.6699 79.8201 39.6699 79.7401L39.7599 75.2501C39.7599 75.2501 39.7799 75.1701 39.8099 75.1401C39.8399 75.1101 39.8799 75.1001 39.9199 75.1001L45.1199 75.2801C45.1199 75.2801 45.1999 75.3001 45.2199 75.3301C45.2499 75.3601 45.2599 75.4001 45.2599 75.4401L45.0799 79.9301C45.0799 80.0101 45.0099 80.0701 44.9299 80.0701ZM39.9699 79.6001L44.7799 79.7701L44.9399 75.5801L40.0499 75.4101L39.9699 79.6001Z" fill="#858585"/>
<path d="M42.2902 78.5801H41.8502C41.8502 78.5801 41.8002 78.5801 41.7802 78.5601L41.6002 78.4701C41.6002 78.4701 41.5702 78.4501 41.5602 78.4401L41.3802 78.2601C41.3802 78.2601 41.3602 78.2401 41.3502 78.2201L41.1802 77.8701C41.1802 77.8701 41.1602 77.8301 41.1602 77.8001V77.1801C41.1602 77.1801 41.1802 77.1001 41.2002 77.0701L41.2902 76.9801C41.2902 76.9801 41.3202 76.9601 41.3302 76.9501L41.4902 76.8701L41.5602 76.8001C41.5602 76.8001 41.5802 76.7801 41.6002 76.7701L41.7502 76.6901L41.8202 76.6201C41.8202 76.6201 41.8902 76.5801 41.9302 76.5801H42.2802C42.2802 76.5801 42.3302 76.5801 42.3502 76.6001L42.5302 76.6901C42.5302 76.6901 42.5602 76.7101 42.5702 76.7201L42.6402 76.7901L42.7902 76.8701C42.7902 76.8701 42.8202 76.8901 42.8302 76.9001L42.9202 76.9901C42.9202 76.9901 42.9402 77.0201 42.9502 77.0301L43.0402 77.2101C43.0402 77.2101 43.0602 77.2501 43.0602 77.2801V77.9001C43.0602 77.9001 43.0602 77.9501 43.0402 77.9701L42.9502 78.1501C42.9502 78.1501 42.9302 78.1801 42.9202 78.1901L42.7402 78.3701C42.7402 78.3701 42.7102 78.3901 42.7002 78.4001L42.3502 78.5801C42.3502 78.5801 42.3102 78.6001 42.2802 78.6001L42.2902 78.5801ZM41.8902 78.2801H42.2602L42.5602 78.1301L42.7002 77.9901L42.7602 77.8701V77.3201L42.7002 77.2001L42.6502 77.1501L42.5002 77.0701C42.5002 77.0701 42.4702 77.0501 42.4602 77.0401L42.3902 76.9701L42.2702 76.9101H42.0202L41.9802 76.9501C41.9802 76.9501 41.9602 76.9701 41.9402 76.9801L41.7902 77.0601L41.7202 77.1301C41.7202 77.1301 41.7002 77.1501 41.6802 77.1601L41.5002 77.2601V77.7801L41.6502 78.0801L41.7902 78.2201L41.9102 78.2801H41.8902Z" fill="#858585"/>
<path d="M37.8787 73.1099C37.8187 73.1099 37.7587 73.0699 37.7387 73.0099L35.8887 67.4599C35.8887 67.4599 35.8887 67.3799 35.8887 67.3399C35.9087 67.2999 35.9387 67.2799 35.9787 67.2699L41.5287 65.5099C41.6087 65.4799 41.6887 65.5299 41.7187 65.5999L43.5687 71.1499C43.5687 71.1499 43.5687 71.2299 43.5687 71.2699C43.5487 71.3099 43.5187 71.3299 43.4787 71.3399L37.9287 73.0999C37.9287 73.0999 37.8987 73.0999 37.8887 73.0999L37.8787 73.1099ZM36.2187 67.5099L37.9687 72.7799L43.2287 71.1099L41.4787 65.8399L36.2187 67.5099Z" fill="#858585"/>
<path d="M38.229 72.3201C38.229 72.3201 38.179 72.3201 38.159 72.3001C38.119 72.2801 38.099 72.2501 38.079 72.2101L36.759 67.8901C36.739 67.8101 36.779 67.7301 36.859 67.7001L41.699 66.1101C41.779 66.0901 41.859 66.1301 41.889 66.2001L43.299 70.4301C43.329 70.5101 43.279 70.5901 43.209 70.6201L38.279 72.2901C38.279 72.2901 38.249 72.2901 38.229 72.2901V72.3201ZM37.099 67.9501L38.329 71.9801L42.979 70.4001L41.659 66.4501L37.099 67.9401V67.9501Z" fill="#858585"/>
<path d="M39.909 70.2903H39.559C39.559 70.2903 39.479 70.2703 39.449 70.2503L39.409 70.2103H39.299C39.239 70.2103 39.189 70.1803 39.169 70.1303L39.099 70.0003L38.969 69.9303C38.969 69.9303 38.939 69.9103 38.929 69.9003L38.839 69.8103C38.839 69.8103 38.799 69.7403 38.799 69.7003V69.5603L38.729 69.4203C38.729 69.4203 38.709 69.3803 38.709 69.3503V69.1703C38.709 69.1703 38.729 69.0903 38.749 69.0603L38.819 68.9903L38.989 68.6603C38.989 68.6603 39.009 68.6303 39.019 68.6203L39.199 68.4403C39.199 68.4403 39.229 68.4203 39.239 68.4103L39.419 68.3203C39.419 68.3203 39.459 68.3003 39.489 68.3003H39.929C39.929 68.3003 39.979 68.3003 39.999 68.3203L40.179 68.4103C40.179 68.4103 40.209 68.4303 40.219 68.4403L40.289 68.5103L40.439 68.5903C40.439 68.5903 40.469 68.6103 40.479 68.6203L40.569 68.7103C40.569 68.7103 40.589 68.7403 40.599 68.7503L40.689 68.9303C40.689 68.9303 40.709 68.9703 40.709 69.0003V69.6203C40.709 69.6203 40.709 69.6703 40.689 69.6903L40.599 69.8703C40.599 69.8703 40.579 69.9003 40.569 69.9103L40.479 70.0003C40.479 70.0003 40.459 70.0203 40.439 70.0303L40.289 70.1103L40.219 70.1803C40.219 70.1803 40.189 70.2003 40.179 70.2103L39.999 70.3003C39.999 70.3003 39.959 70.3203 39.929 70.3203L39.909 70.2903ZM39.619 69.9903H39.869L39.989 69.9303L40.059 69.8603C40.059 69.8603 40.089 69.8403 40.099 69.8303L40.249 69.7503L40.299 69.7003L40.359 69.5803V69.0303L40.299 68.9103L40.249 68.8603L40.099 68.7803C40.099 68.7803 40.069 68.7603 40.059 68.7503L39.989 68.6803L39.869 68.6203H39.499L39.379 68.6803L39.239 68.8203L39.069 69.1503C39.069 69.1503 39.049 69.1803 39.039 69.1903L38.999 69.2303V69.3103L39.069 69.4503C39.069 69.4503 39.089 69.4903 39.089 69.5203V69.6303L39.119 69.6603L39.269 69.7403C39.269 69.7403 39.319 69.7803 39.339 69.8103L39.389 69.9003H39.469C39.469 69.9003 39.549 69.9203 39.579 69.9403L39.619 69.9803V69.9903Z" fill="#858585"/>
<path d="M33.9195 65.2702C33.8595 65.2702 33.7995 65.2302 33.7795 65.1602L32.0195 59.6102C32.0195 59.6102 32.0195 59.5302 32.0195 59.4902C32.0395 59.4502 32.0695 59.4302 32.1095 59.4202L37.6595 57.6602C37.7395 57.6302 37.8195 57.6802 37.8495 57.7602L39.6095 63.3102C39.6395 63.3902 39.5895 63.4702 39.5095 63.5002L33.9595 65.2602C33.9595 65.2602 33.9295 65.2602 33.9195 65.2602V65.2702ZM32.3495 59.6702L34.0195 64.9302L39.2795 63.2602L37.6095 58.0002L32.3495 59.6702Z" fill="#858585"/>
<path d="M34.3596 64.39C34.2996 64.39 34.2396 64.35 34.2196 64.28L32.8996 60.05C32.8796 59.97 32.9196 59.89 32.9996 59.86L37.9296 58.27C37.9296 58.27 38.0096 58.27 38.0496 58.27C38.0896 58.29 38.1096 58.32 38.1196 58.36L39.4396 62.68C39.4396 62.68 39.4396 62.76 39.4296 62.79C39.4096 62.83 39.3796 62.85 39.3396 62.86L34.4096 64.36C34.4096 64.36 34.3796 64.36 34.3696 64.36L34.3596 64.39ZM33.2296 60.11L34.4596 64.06L39.1096 62.65L37.8796 58.62L33.2296 60.11Z" fill="#858585"/>
<path d="M35.8605 62.4502H35.6805C35.6805 62.4502 35.6305 62.4502 35.6105 62.4302L35.4305 62.3402C35.4305 62.3402 35.4005 62.3202 35.3905 62.3102L35.3205 62.2402L35.1705 62.1602C35.1705 62.1602 35.1405 62.1402 35.1305 62.1302L35.0405 62.0402C35.0405 62.0402 35.0205 62.0202 35.0105 62.0002L34.9205 61.8202C34.9205 61.8202 34.9005 61.7802 34.9005 61.7502V61.7002L34.8305 61.5602C34.8305 61.5602 34.8105 61.5202 34.8105 61.4902V61.3102C34.8105 61.3102 34.8105 61.2602 34.8305 61.2402L34.9005 61.1002V61.0502C34.9005 61.0502 34.9205 60.9702 34.9405 60.9402L35.2905 60.5902C35.2905 60.5902 35.3105 60.5702 35.3305 60.5602L35.5105 60.4702C35.5105 60.4702 35.5505 60.4502 35.5805 60.4502H36.0205C36.0205 60.4502 36.0705 60.4502 36.0905 60.4702L36.2705 60.5602C36.2705 60.5602 36.3005 60.5802 36.3105 60.5902L36.3805 60.6602L36.5305 60.7402C36.5305 60.7402 36.5605 60.7602 36.5705 60.7702L36.6605 60.8602C36.6605 60.8602 36.6805 60.8902 36.6905 60.9002L36.7805 61.0802C36.7805 61.0802 36.8005 61.1202 36.8005 61.1502V61.5902C36.8005 61.5902 36.8005 61.6402 36.7805 61.6602L36.7105 61.8002V61.9402C36.7105 62.0002 36.6805 62.0502 36.6305 62.0702L36.4705 62.1502L36.4005 62.2202C36.4005 62.2202 36.3805 62.2402 36.3605 62.2502L36.1805 62.3402C36.1805 62.3402 36.1405 62.3602 36.1105 62.3602H36.0605L35.9205 62.4302C35.9205 62.4302 35.8805 62.4502 35.8505 62.4502H35.8605ZM35.7205 62.1502H35.8305L35.9705 62.0802C35.9705 62.0802 36.0105 62.0602 36.0405 62.0602H36.0905L36.2105 62.0002L36.2805 61.9302C36.2805 61.9302 36.3005 61.9102 36.3205 61.9002L36.4105 61.8502V61.7702C36.4105 61.7702 36.4105 61.7202 36.4305 61.7002L36.5005 61.5602V61.1902L36.4405 61.0702L36.3905 61.0202L36.2405 60.9402C36.2405 60.9402 36.2105 60.9202 36.2005 60.9102L36.1305 60.8402L36.0105 60.7802H35.6405L35.5205 60.8402L35.2305 61.1602C35.2305 61.1602 35.2305 61.2102 35.2105 61.2302L35.1405 61.3702V61.4802L35.2105 61.6202C35.2105 61.6202 35.2305 61.6602 35.2305 61.6902V61.7402L35.2905 61.8602L35.3405 61.9102L35.4905 61.9902C35.4905 61.9902 35.5205 62.0102 35.5305 62.0202L35.6005 62.0902L35.7205 62.1502Z" fill="#858585"/>
<path d="M18.2896 59.5503C18.2196 59.5503 18.1496 59.5003 18.1396 59.4203L16.9896 52.4603L15.9296 45.5103C15.9296 45.5103 15.9296 45.5003 15.9296 45.4903L14.8796 38.4603C14.8796 38.4603 14.8796 38.4503 14.8796 38.4403L13.8196 31.5003C13.8096 31.4203 13.8596 31.3403 13.9396 31.3303L17.1996 30.8003C17.1996 30.8003 17.2796 30.8003 17.3096 30.8303C17.3396 30.8503 17.3596 30.8903 17.3696 30.9303L18.4296 37.8903L19.5696 44.9203C19.5696 44.9203 19.5696 44.9303 19.5696 44.9403L21.6796 58.8603C21.6896 58.9403 21.6396 59.0203 21.5596 59.0303L18.2996 59.5603H18.2796L18.2896 59.5503ZM17.3196 52.5703L18.4196 59.2303L21.3796 58.7503L20.3396 51.9403L19.2896 45.0003C19.2896 45.0003 19.2896 45.0003 19.2896 44.9903L18.1496 37.9403L17.1096 31.1303L14.1496 31.6103L15.1596 38.2703L17.6596 37.8603C17.7496 37.8603 17.8196 37.9003 17.8296 37.9803C17.8396 38.0603 17.7896 38.1403 17.7096 38.1503L15.2096 38.5603L16.2196 45.3103L19.1096 44.8503C19.1896 44.8503 19.2696 44.8903 19.2796 44.9703C19.2896 45.0503 19.2396 45.1303 19.1596 45.1403H19.1396L16.2596 45.6003L17.2696 52.2603L19.9396 51.8403C20.0196 51.8403 20.0996 51.8803 20.1096 51.9603C20.1196 52.0403 20.0696 52.1203 19.9896 52.1303L17.3296 52.5503L17.3196 52.5703Z" fill="#858585"/>
</g>
<defs>
<clipPath id="clip0_962_28866">
<rect width="54.63" height="118.77" fill="white"/>
</clipPath>
</defs>
</svg>
