<svg width="149" height="304" viewBox="0 0 149 304" fill="none" xmlns="http://www.w3.org/2000/svg">
<path d="M19 82.5C19 77.7 6.66667 31.5 0.5 9C29 6.16667 72 0.764095 79.5 0C71.5 0.815034 66.568 5.00791 64 11C59.5 21.5 68 37 83 38C98 39 97 51 100.5 66.5C108.5 99 132 161 140.5 175.5C149 190 155.5 217 132 236.5C113.2 252.1 103.167 288 100.5 304C97.8333 303 91.4 300.5 87 298.5C81.5 296 74 282 62.5 262.5C51 243 45.5 232.5 45 227C44.5 221.5 21 120.5 19 112.5C17 104.5 19 88.5 19 82.5Z" fill="#CCCC66" fill-opacity="0.6"/>
</svg>
