<svg width="74" height="105" viewBox="0 0 74 105" fill="none" xmlns="http://www.w3.org/2000/svg">
<g clip-path="url(#clip0_855_32262)">
<path fill-rule="evenodd" clip-rule="evenodd" d="M51.7707 11.3765L41.3666 13.8213L38.9218 2.56978L49.6871 0L52.2569 11.2515L51.7707 11.3765ZM57.5215 35.977H57.5076L28.0176 62.5361L12.4878 45.2838L0 31.2125L14.3196 43.6848L0 31.1986L0.236142 30.9902L0.125017 30.9624L1.76412 29.6567V29.6706L14.3213 43.6863L45.6449 15.5437L45.0337 12.9739L51.7707 11.3765L52.4931 14.4464L52.8681 14.0713L57.8827 35.4908L57.5215 35.977ZM57.5215 35.977L73.5514 105L21.7807 85.0529L19.6971 90.3175L19.447 90.2064L19.4331 90.2758L17.8357 89.6785L17.8635 89.5813L18.683 89.8869L17.6273 89.4563L28.0315 62.5361L57.5215 35.977Z" fill="#FFAE37" fill-opacity="0.4"/>
</g>
<defs>
<clipPath id="clip0_855_32262">
<rect width="73.5514" height="105" fill="white"/>
</clipPath>
</defs>
</svg>
