<svg width="60" height="76" viewBox="0 0 60 76" fill="none" xmlns="http://www.w3.org/2000/svg">
<g clip-path="url(#clip0_961_28566)">
<path d="M25.2903 9.20998C25.1803 9.08998 24.8703 8.79998 24.4703 8.54998L25.1103 7.52998C25.6003 7.83998 25.9803 8.18998 26.1503 8.36998L25.2903 9.20998ZM23.7203 8.20998C23.5203 8.15998 23.3303 8.12998 23.1503 8.15998C23.0003 8.17998 22.8503 8.18998 22.7103 8.18998L22.6703 6.98998C22.7903 6.98998 22.9103 6.97998 23.0303 6.95998C23.3603 6.92998 23.7003 6.95998 24.0403 7.04998L23.7303 8.20998H23.7203ZM21.6203 8.13998C20.8603 8.04998 20.3403 7.86998 20.3203 7.85998L20.7203 6.72998C20.7203 6.72998 21.1403 6.87998 21.7603 6.94998L21.6203 8.13998Z" fill="#CA871E"/>
<path d="M54.61 74.6298L56.33 75.2999L59.36 69.7698L58.66 58.9898L52.25 39.2198L50.61 24.6398L44.21 4.88984L38.82 0.0898438L37.75 0.339844L38.37 2.82984L41.99 6.23984L48.15 25.1498L49.79 39.7198L56.2 59.4998L56.8 69.3998L54.61 74.6298Z" fill="#CA871E"/>
<path d="M56.2007 59.4998L49.7907 39.7698L48.1507 25.1498L41.9907 6.23984L38.3707 2.82984L37.7507 0.339844L29.6407 2.27984L31.3307 10.2498L32.6407 10.0698L10.5307 29.9398L1.4507 19.8098L0.220703 20.9498L9.2107 31.0798L20.4007 43.5098L12.9107 62.8898L14.4007 63.4998L15.9007 59.7198L54.6107 74.6298L56.8007 69.3998L56.2007 59.4998Z" fill="#CA871E"/>
<path d="M20.9757 4.92747L16.252 3.35059L14.6751 8.07434L19.3988 9.65122L20.9757 4.92747Z" fill="#CA871E"/>
<path d="M20.6798 20.7896L20.5098 14.1696L30.2998 5.38965L31.3298 10.2496L32.6398 10.0696L20.6798 20.7896Z" fill="#CA871E"/>
<path d="M14.3998 59.3199H14.3098C14.1898 59.3199 14.0898 59.2199 14.0898 59.0999C14.0898 58.9799 14.1898 58.8799 14.3098 58.8799H14.3998C14.5198 58.8799 14.6198 58.9799 14.6198 59.0999C14.6198 59.2199 14.5198 59.3199 14.3998 59.3199Z" fill="#CBCBCB"/>
<path d="M9.20992 31.3002C9.14992 31.3002 9.09992 31.2802 9.04992 31.2402C8.95992 31.1502 8.95992 31.0202 9.04992 30.9302L9.13992 30.8402C9.22992 30.7602 9.36992 30.7502 9.44992 30.8402C9.53992 30.9302 9.53992 31.0602 9.44992 31.1502L9.35992 31.2402C9.35992 31.2402 9.25992 31.3002 9.19992 31.3002H9.20992Z" fill="#CBCBCB"/>
<path d="M29.3796 15.3999C29.3796 15.3999 29.3296 15.3999 29.3096 15.3699C29.2796 15.3299 29.2796 15.2799 29.3096 15.2499L35.9896 9.25992C35.9896 9.25992 36.0796 9.22992 36.1096 9.25992C36.1396 9.29992 36.1396 9.34992 36.1096 9.37992L29.4296 15.3699C29.4296 15.3699 29.3896 15.3899 29.3696 15.3899L29.3796 15.3999Z" fill="#CBCBCB"/>
<path d="M25.8093 20.8801C25.8093 20.8801 25.7593 20.8801 25.7393 20.8501C25.7093 20.8101 25.7093 20.7601 25.7393 20.7301L39.3193 8.59008L32.6493 10.1601C32.6493 10.1601 32.5493 10.1401 32.5393 10.0901C32.5293 10.0401 32.5593 10.0001 32.6093 9.98008L39.6193 8.33008C39.6193 8.33008 39.6993 8.33008 39.7193 8.37008C39.7393 8.41008 39.7293 8.45008 39.6993 8.48008L25.8693 20.8501C25.8693 20.8501 25.8293 20.8701 25.8093 20.8701V20.8801Z" fill="#CBCBCB"/>
<path d="M20.571 16.4599C20.571 16.4599 20.521 16.4599 20.501 16.4299C20.471 16.3899 20.471 16.3399 20.501 16.3099L30.641 7.21988C30.641 7.21988 30.731 7.18988 30.761 7.21988C30.791 7.25988 30.791 7.30988 30.761 7.33988L20.631 16.4199C20.631 16.4199 20.591 16.4399 20.571 16.4399V16.4599Z" fill="#CBCBCB"/>
<path d="M20.6296 18.65C20.6296 18.65 20.5796 18.65 20.5596 18.62C20.5296 18.58 20.5296 18.53 20.5596 18.5L31.0296 9.11001C31.0296 9.11001 31.1196 9.08001 31.1496 9.11001C31.1796 9.15001 31.1796 9.20001 31.1496 9.23001L20.6796 18.62C20.6796 18.62 20.6396 18.64 20.6196 18.64L20.6296 18.65Z" fill="#CBCBCB"/>
<path d="M37.401 28.2599C37.401 28.2599 37.351 28.2599 37.331 28.2299C37.301 28.1899 37.301 28.1399 37.331 28.1099L41.561 24.3199L42.841 23.2899L39.961 10.3099L26.871 21.9899C26.871 21.9899 26.781 22.0199 26.751 21.9899C26.721 21.9599 26.721 21.8999 26.751 21.8699L39.951 10.0899C39.951 10.0899 40.011 10.0599 40.041 10.0699C40.071 10.0699 40.091 10.0999 40.101 10.1299L43.021 23.3099C43.021 23.3099 43.021 23.3799 42.991 23.3999L41.671 24.4599L37.441 28.2399C37.441 28.2399 37.401 28.2599 37.381 28.2599H37.401Z" fill="#CBCBCB"/>
<path d="M27.9792 23.3301C27.9792 23.3301 27.9292 23.3301 27.9092 23.3001C27.8792 23.2601 27.8792 23.2101 27.9092 23.1801L33.7692 17.9401C33.7692 17.9401 33.8592 17.9101 33.8892 17.9401C33.9192 17.9801 33.9192 18.0301 33.8892 18.0601L28.0292 23.3001C28.0292 23.3001 27.9892 23.3201 27.9692 23.3201L27.9792 23.3301Z" fill="#CBCBCB"/>
<path d="M29.1198 24.5602C29.1198 24.5602 29.0698 24.5602 29.0498 24.5302C29.0198 24.4902 29.0198 24.4402 29.0498 24.4102L34.1998 19.7902C34.1998 19.7902 34.2898 19.7602 34.3198 19.7902C34.3498 19.8302 34.3498 19.8802 34.3198 19.9102L29.1698 24.5302C29.1698 24.5302 29.1298 24.5502 29.1098 24.5502L29.1198 24.5602Z" fill="#CBCBCB"/>
<path d="M30.1804 25.8002C30.1804 25.8002 30.1304 25.8002 30.1104 25.7702C30.0804 25.7302 30.0804 25.6802 30.1104 25.6502L34.6204 21.5802C34.6204 21.5802 34.7104 21.5502 34.7404 21.5802C34.7704 21.6202 34.7704 21.6702 34.7404 21.7002L30.2304 25.7702C30.2304 25.7702 30.1904 25.7902 30.1704 25.7902L30.1804 25.8002Z" fill="#CBCBCB"/>
<path d="M31.3308 27.0301C31.3308 27.0301 31.2808 27.0301 31.2608 27.0001C31.2308 26.9601 31.2308 26.9101 31.2608 26.8801L35.0608 23.4401C35.0608 23.4401 35.1508 23.4101 35.1808 23.4401C35.2108 23.4801 35.2108 23.5301 35.1808 23.5601L31.3808 27.0001C31.3808 27.0001 31.3408 27.0201 31.3208 27.0201L31.3308 27.0301Z" fill="#CBCBCB"/>
<path d="M32.3796 28.27C32.3796 28.27 32.3296 28.27 32.3096 28.24C32.2796 28.2 32.2796 28.15 32.3096 28.12L35.4896 25.3C35.4896 25.3 35.5796 25.27 35.6096 25.3C35.6396 25.34 35.6396 25.39 35.6096 25.42L32.4296 28.24C32.4296 28.24 32.3896 28.26 32.3696 28.26L32.3796 28.27Z" fill="#CBCBCB"/>
<path d="M33.5593 29.5899C33.5593 29.5899 33.5093 29.5899 33.4893 29.5599C33.4593 29.5199 33.4593 29.4699 33.4893 29.4399L35.9593 27.2399C35.9593 27.2399 36.0493 27.2099 36.0793 27.2399C36.1093 27.2799 36.1093 27.3299 36.0793 27.3599L33.6093 29.5599C33.6093 29.5599 33.5693 29.5799 33.5493 29.5799L33.5593 29.5899Z" fill="#CBCBCB"/>
<path d="M40.6603 25.4498C40.6603 25.4498 40.5803 25.4198 40.5703 25.3798C40.5603 25.3298 40.5903 25.2898 40.6403 25.2698L41.7803 25.0098C41.7803 25.0098 41.8703 25.0298 41.8903 25.0798C41.9003 25.1298 41.8703 25.1698 41.8203 25.1898L40.6803 25.4498C40.6803 25.4498 40.6703 25.4498 40.6603 25.4498Z" fill="#CBCBCB"/>
<path d="M38.1896 27.6499C38.1896 27.6499 38.1096 27.6199 38.0996 27.5799C38.0996 27.5299 38.1196 27.4899 38.1696 27.4799L42.1296 26.6899C42.1296 26.6899 42.2196 26.7099 42.2296 26.7599C42.2296 26.8099 42.2096 26.8499 42.1596 26.8599L38.1996 27.6499C38.1996 27.6499 38.1896 27.6499 38.1796 27.6499H38.1896Z" fill="#CBCBCB"/>
<path d="M35.6407 29.94C35.6407 29.94 35.5607 29.91 35.5507 29.87C35.5407 29.82 35.5707 29.78 35.6207 29.77L42.4907 28.27C42.4907 28.27 42.5807 28.29 42.5907 28.34C42.6007 28.39 42.5707 28.43 42.5207 28.44L35.6507 29.94C35.6507 29.94 35.6407 29.94 35.6307 29.94H35.6407Z" fill="#CBCBCB"/>
<path d="M33.6095 32.0501C33.6095 32.0501 33.5295 32.0201 33.5195 31.9801C33.5095 31.9301 33.5395 31.8901 33.5895 31.8801L42.9295 29.8501C42.9295 29.8501 43.0195 29.8701 43.0295 29.9201C43.0395 29.9701 43.0095 30.0101 42.9595 30.0201L33.6195 32.0501C33.6195 32.0501 33.6095 32.0501 33.5995 32.0501H33.6095Z" fill="#CBCBCB"/>
<path d="M33.8693 33.7298C33.8693 33.7298 33.7893 33.6998 33.7793 33.6598C33.7693 33.6098 33.7993 33.5698 33.8493 33.5598L43.2793 31.5298C43.2793 31.5298 43.3693 31.5498 43.3793 31.5998C43.3893 31.6498 43.3593 31.6898 43.3093 31.6998L33.8793 33.7298C33.8793 33.7298 33.8693 33.7298 33.8593 33.7298H33.8693Z" fill="#CBCBCB"/>
<path d="M34.1407 35.4001C34.1407 35.4001 34.0607 35.3701 34.0507 35.3301C34.0407 35.2801 34.0707 35.2401 34.1207 35.2301L43.6307 33.1201C43.6807 33.1101 43.7207 33.1401 43.7407 33.1901C43.7607 33.2401 43.7207 33.2801 43.6707 33.2901L34.1607 35.4001C34.1607 35.4001 34.1507 35.4001 34.1407 35.4001Z" fill="#CBCBCB"/>
<path d="M34.4005 36.99C34.4005 36.99 34.3205 36.96 34.3105 36.92C34.3105 36.87 34.3305 36.83 34.3805 36.82L43.9805 34.79C44.0305 34.78 44.0705 34.81 44.0805 34.86C44.0905 34.91 44.0605 34.95 44.0105 34.96L34.4105 36.99C34.4105 36.99 34.4005 36.99 34.3905 36.99H34.4005Z" fill="#CBCBCB"/>
<path d="M34.67 38.6599C34.67 38.6599 34.59 38.6299 34.58 38.5899C34.57 38.5399 34.6 38.4999 34.65 38.4899L44.43 36.3799C44.43 36.3799 44.52 36.3999 44.53 36.4499C44.54 36.4999 44.51 36.5399 44.46 36.5499L34.68 38.6599C34.68 38.6599 34.67 38.6599 34.66 38.6599H34.67Z" fill="#CBCBCB"/>
<path d="M34.9298 40.3299C34.9298 40.3299 34.8498 40.2999 34.8398 40.2599C34.8298 40.2099 34.8598 40.1699 34.9098 40.1599L44.7798 37.9599C44.8298 37.9499 44.8798 37.9799 44.8898 38.0299C44.8998 38.0799 44.8698 38.1199 44.8198 38.1299L34.9498 40.3299C34.9498 40.3299 34.9398 40.3299 34.9298 40.3299Z" fill="#CBCBCB"/>
<path d="M35.2794 41.9201C35.2794 41.9201 35.1994 41.8901 35.1894 41.8501C35.1794 41.8001 35.2094 41.7601 35.2594 41.7501L45.1294 39.6401C45.1294 39.6401 45.2194 39.6601 45.2294 39.7101C45.2394 39.7601 45.2094 39.8001 45.1594 39.8101L35.2894 41.9201C35.2894 41.9201 35.2794 41.9201 35.2694 41.9201H35.2794Z" fill="#CBCBCB"/>
<path d="M35.5509 43.5902C35.5509 43.5902 35.4709 43.5602 35.4609 43.5202C35.4509 43.4702 35.4809 43.4302 35.5309 43.4202L45.5709 41.2202C45.5709 41.2202 45.6609 41.2402 45.6709 41.2902C45.6809 41.3402 45.6509 41.3802 45.6009 41.3902L35.5609 43.5902C35.5609 43.5902 35.5509 43.5902 35.5409 43.5902H35.5509Z" fill="#CBCBCB"/>
<path d="M35.8107 45.2699C35.8107 45.2699 35.7307 45.2399 35.7207 45.1999C35.7107 45.1499 35.7407 45.1099 35.7907 45.0999L45.9207 42.8999C45.9207 42.8999 46.0107 42.9199 46.0207 42.9699C46.0307 43.0199 46.0007 43.0599 45.9507 43.0699L35.8207 45.2699C35.8207 45.2699 35.8107 45.2699 35.8007 45.2699H35.8107Z" fill="#CBCBCB"/>
<path d="M36.0802 46.85C36.0802 46.85 36.0002 46.82 35.9902 46.78C35.9802 46.73 36.0102 46.69 36.0602 46.68L46.2802 44.48C46.2802 44.48 46.3702 44.5 46.3802 44.55C46.3902 44.6 46.3602 44.64 46.3102 44.65L36.0902 46.85C36.0902 46.85 36.0802 46.85 36.0702 46.85H36.0802Z" fill="#CBCBCB"/>
<path d="M36.34 48.5298C36.34 48.5298 36.26 48.4998 36.25 48.4598C36.24 48.4098 36.27 48.3698 36.32 48.3598L46.63 46.0698C46.68 46.0598 46.72 46.0898 46.74 46.1398C46.76 46.1898 46.72 46.2298 46.67 46.2398L36.36 48.5298C36.36 48.5298 36.35 48.5298 36.34 48.5298Z" fill="#CBCBCB"/>
<path d="M37.131 50.03C37.131 50.03 37.051 50 37.041 49.96C37.041 49.91 37.061 49.87 37.111 49.86L47.071 47.75C47.131 47.74 47.161 47.77 47.171 47.82C47.171 47.87 47.151 47.91 47.101 47.92L37.141 50.03C37.141 50.03 37.131 50.03 37.121 50.03H37.131Z" fill="#CBCBCB"/>
<path d="M39.9493 51.17C39.9493 51.17 39.8693 51.14 39.8593 51.1C39.8493 51.05 39.8793 51.01 39.9293 51L47.4193 49.33C47.4693 49.32 47.5193 49.35 47.5293 49.4C47.5393 49.45 47.5093 49.49 47.4593 49.5L39.9693 51.17C39.9693 51.17 39.9593 51.17 39.9493 51.17Z" fill="#CBCBCB"/>
<path d="M42.7697 52.23C42.7697 52.23 42.6897 52.2 42.6797 52.16C42.6797 52.11 42.6997 52.07 42.7497 52.06L47.7697 51C47.8197 50.99 47.8597 51.02 47.8697 51.07C47.8797 51.12 47.8497 51.16 47.7997 51.17L42.7797 52.23C42.7797 52.23 42.7697 52.23 42.7597 52.23H42.7697Z" fill="#CBCBCB"/>
<path d="M45.59 53.3698C45.59 53.3698 45.51 53.3398 45.5 53.2998C45.49 53.2498 45.52 53.2098 45.57 53.1898L48.21 52.5698C48.21 52.5698 48.3 52.5898 48.32 52.6398C48.33 52.6898 48.3 52.7298 48.25 52.7498L45.61 53.3698C45.61 53.3698 45.6 53.3698 45.59 53.3698Z" fill="#CBCBCB"/>
<path d="M48.4101 54.4299C48.4101 54.4299 48.3501 54.4099 48.3301 54.3799C48.3101 54.3399 48.3301 54.2799 48.3701 54.2599L48.5501 54.1699C48.5501 54.1699 48.6501 54.1699 48.6701 54.2099C48.6901 54.2499 48.6701 54.3099 48.6301 54.3299L48.4501 54.4199C48.4501 54.4199 48.4201 54.4199 48.4101 54.4199V54.4299Z" fill="#CBCBCB"/>
<path d="M48.671 54.9602C48.671 54.9602 48.651 54.9602 48.641 54.9602L38.161 50.7302C38.161 50.7302 38.091 50.6602 38.111 50.6202C38.131 50.5702 38.181 50.5502 38.231 50.5702L48.711 54.8002C48.711 54.8002 48.781 54.8702 48.761 54.9102C48.751 54.9402 48.711 54.9702 48.681 54.9702L48.671 54.9602Z" fill="#CBCBCB"/>
<path d="M49.1999 56.9802C49.1999 56.9802 49.1799 56.9802 49.1699 56.9802L37.5399 52.3102C37.5399 52.3102 37.4699 52.2402 37.4899 52.2002C37.5099 52.1502 37.5599 52.1302 37.6099 52.1502L49.2399 56.8202C49.2399 56.8202 49.3099 56.8902 49.2899 56.9302C49.2799 56.9602 49.2399 56.9902 49.2099 56.9902L49.1999 56.9802Z" fill="#CBCBCB"/>
<path d="M49.6408 58.9202C49.6408 58.9202 49.6208 58.9202 49.6108 58.9202L36.9208 53.8102C36.9208 53.8102 36.8508 53.7402 36.8708 53.7002C36.8908 53.6502 36.9408 53.6302 36.9908 53.6502L49.6808 58.7602C49.6808 58.7602 49.7508 58.8302 49.7308 58.8702C49.7208 58.9002 49.6808 58.9302 49.6508 58.9302L49.6408 58.9202Z" fill="#CBCBCB"/>
<path d="M50.0795 60.8598C50.0795 60.8598 50.0595 60.8598 50.0495 60.8598L36.3095 55.3998C36.3095 55.3998 36.2395 55.3298 36.2595 55.2898C36.2795 55.2498 36.3295 55.2198 36.3695 55.2398L50.1095 60.6998C50.1095 60.6998 50.1795 60.7698 50.1595 60.8098C50.1495 60.8398 50.1095 60.8698 50.0795 60.8698V60.8598Z" fill="#CBCBCB"/>
<path d="M50.5203 62.8901C50.5203 62.8901 50.5003 62.8901 50.4903 62.8901L35.6903 56.9901C35.6903 56.9901 35.6203 56.9201 35.6403 56.8801C35.6603 56.8401 35.7103 56.8101 35.7503 56.8301L50.5503 62.7301C50.5503 62.7301 50.6203 62.8001 50.6003 62.8401C50.5903 62.8701 50.5503 62.9001 50.5203 62.9001V62.8901Z" fill="#CBCBCB"/>
<path d="M51.0492 64.8301C51.0492 64.8301 51.0292 64.8301 51.0192 64.8301L35.0692 58.4901C35.0692 58.4901 34.9992 58.4201 35.0192 58.3801C35.0392 58.3401 35.0892 58.3101 35.1292 58.3301L51.0792 64.6701C51.0792 64.6701 51.1492 64.7401 51.1292 64.7801C51.1192 64.8101 51.0792 64.8401 51.0492 64.8401V64.8301Z" fill="#CBCBCB"/>
<path d="M51.4899 66.8502C51.4899 66.8502 51.4699 66.8502 51.4599 66.8502L34.5399 60.0702C34.5399 60.0702 34.4699 60.0002 34.4899 59.9602C34.5099 59.9202 34.5599 59.8902 34.6099 59.9102L51.5299 66.6902C51.5299 66.6902 51.5999 66.7602 51.5799 66.8002C51.5699 66.8302 51.5299 66.8602 51.4999 66.8602L51.4899 66.8502Z" fill="#CBCBCB"/>
<path d="M51.9305 68.7899C51.9305 68.7899 51.9105 68.7899 51.9005 68.7899L33.9305 61.6499C33.9305 61.6499 33.8605 61.5799 33.8805 61.5399C33.9005 61.4999 33.9505 61.4799 33.9905 61.4899L51.9605 68.6298C51.9605 68.6298 52.0305 68.6998 52.0105 68.7398C52.0005 68.7698 51.9605 68.7999 51.9305 68.7999V68.7899Z" fill="#CBCBCB"/>
<path d="M52.3695 70.8201C52.3695 70.8201 52.3495 70.8201 52.3395 70.8201L33.3095 63.1501C33.3095 63.1501 33.2395 63.0801 33.2595 63.0401C33.2795 62.9901 33.3295 62.9701 33.3795 62.9901L52.4095 70.6601C52.4095 70.6601 52.4795 70.7301 52.4595 70.7701C52.4495 70.8001 52.4095 70.8301 52.3795 70.8301L52.3695 70.8201Z" fill="#CBCBCB"/>
<path d="M52.811 72.75C52.811 72.75 52.791 72.75 52.781 72.75L38.161 66.85C38.161 66.85 38.091 66.78 38.111 66.74C38.131 66.7 38.181 66.67 38.231 66.69L52.851 72.59C52.851 72.59 52.921 72.66 52.901 72.7C52.891 72.73 52.851 72.76 52.821 72.76L52.811 72.75Z" fill="#CBCBCB"/>
<path d="M23.5708 19.2801C23.5708 19.2801 23.5308 19.2801 23.5108 19.2501C23.4808 19.2201 23.4808 19.1601 23.5108 19.1301L23.9508 18.6901C23.9508 18.6901 24.0408 18.6601 24.0708 18.6901C24.1008 18.7201 24.1008 18.7801 24.0708 18.8101L23.6308 19.2501C23.6308 19.2501 23.5908 19.2801 23.5708 19.2801Z" fill="#CBCBCB"/>
<path d="M23.7407 21.3899C23.7407 21.3899 23.6907 21.3899 23.6807 21.3599C23.6507 21.3199 23.6507 21.2699 23.6807 21.2399L25.0007 20.0099C25.0007 20.0099 25.0907 19.9799 25.1207 20.0099C25.1507 20.0499 25.1507 20.0999 25.1207 20.1299L23.8007 21.3599C23.8007 21.3599 23.7607 21.3799 23.7407 21.3799V21.3899Z" fill="#CBCBCB"/>
<path d="M23.9206 23.4199C23.9206 23.4199 23.8706 23.4199 23.8506 23.3899C23.8206 23.3499 23.8206 23.2999 23.8506 23.2699L26.1406 21.2399C26.1406 21.2399 26.2306 21.2099 26.2606 21.2399C26.2906 21.2799 26.2906 21.3299 26.2606 21.3599L23.9706 23.3899C23.9706 23.3899 23.9306 23.4099 23.9106 23.4099L23.9206 23.4199Z" fill="#CBCBCB"/>
<path d="M24.0105 25.5299C24.0105 25.5299 23.9605 25.5299 23.9405 25.4999C23.9105 25.4599 23.9105 25.4099 23.9405 25.3799L27.2005 22.4699C27.2005 22.4699 27.2905 22.4399 27.3205 22.4699C27.3505 22.5099 27.3505 22.5599 27.3205 22.5899L24.0605 25.4999C24.0605 25.4999 24.0205 25.5199 24.0005 25.5199L24.0105 25.5299Z" fill="#CBCBCB"/>
<path d="M24.1804 27.6501C24.1804 27.6501 24.1304 27.6501 24.1104 27.6201C24.0804 27.5801 24.0804 27.5301 24.1104 27.5001L28.3404 23.7101C28.3404 23.7101 28.4304 23.6801 28.4604 23.7101C28.4904 23.7401 28.4904 23.8001 28.4604 23.8301L24.2304 27.6201C24.2304 27.6201 24.1904 27.6401 24.1704 27.6401L24.1804 27.6501Z" fill="#CBCBCB"/>
<path d="M25.1491 29.0599C25.1491 29.0599 25.0991 29.0599 25.0791 29.0299C25.0491 28.9899 25.0491 28.9399 25.0791 28.9099L29.4891 24.9499C29.4891 24.9499 29.5791 24.9199 29.6091 24.9499C29.6391 24.9899 29.6391 25.0399 29.6091 25.0699L25.1991 29.0299C25.1991 29.0299 25.1591 29.0499 25.1391 29.0499L25.1491 29.0599Z" fill="#CBCBCB"/>
<path d="M27.1804 29.4098C27.1804 29.4098 27.1304 29.4098 27.1104 29.3798C27.0804 29.3398 27.0804 29.2898 27.1104 29.2598L30.5504 26.1798C30.5504 26.1798 30.6404 26.1498 30.6704 26.1798C30.7004 26.2098 30.7004 26.2698 30.6704 26.2998L27.2304 29.3798C27.2304 29.3798 27.1904 29.3998 27.1704 29.3998L27.1804 29.4098Z" fill="#CBCBCB"/>
<path d="M29.2895 29.8498C29.2895 29.8498 29.2395 29.8498 29.2295 29.8198C29.1995 29.7798 29.1995 29.7298 29.2295 29.6998L31.6995 27.4098C31.6995 27.4098 31.7895 27.3798 31.8195 27.4098C31.8495 27.4398 31.8495 27.4998 31.8195 27.5298L29.3495 29.8198C29.3495 29.8198 29.3095 29.8398 29.2895 29.8398V29.8498Z" fill="#CBCBCB"/>
<path d="M31.3208 30.1998C31.3208 30.1998 31.2708 30.1998 31.2608 30.1698C31.2308 30.1298 31.2308 30.0798 31.2608 30.0498L32.7608 28.6398C32.7608 28.6398 32.8508 28.6098 32.8808 28.6398C32.9108 28.6798 32.9108 28.7298 32.8808 28.7598L31.3808 30.1698C31.3808 30.1698 31.3408 30.1898 31.3208 30.1898V30.1998Z" fill="#CBCBCB"/>
<path d="M33.3503 30.56C33.3503 30.56 33.3003 30.55 33.2803 30.53C33.2503 30.49 33.2503 30.44 33.2803 30.41L33.9003 29.88C33.9003 29.88 33.9903 29.85 34.0203 29.88C34.0503 29.92 34.0503 29.97 34.0203 30L33.4003 30.53C33.4003 30.53 33.3603 30.55 33.3403 30.55L33.3503 30.56Z" fill="#CBCBCB"/>
<path d="M38.1899 50.7298H38.0099C38.0099 50.7298 37.9199 50.6898 37.9199 50.6398C37.9199 50.5898 37.9599 50.5498 38.0099 50.5498H38.1899C38.1899 50.5498 38.2799 50.5898 38.2799 50.6398C38.2799 50.6898 38.2399 50.7298 38.1899 50.7298Z" fill="#CBCBCB"/>
<path d="M37.5694 52.3199C37.5694 52.3199 37.5494 52.3199 37.5294 52.3199L36.7394 51.97C36.7394 51.97 36.6794 51.8999 36.6994 51.8499C36.7194 51.7999 36.7694 51.79 36.8194 51.81L37.6094 52.1599C37.6094 52.1599 37.6694 52.2299 37.6494 52.2799C37.6394 52.3099 37.5994 52.33 37.5694 52.33V52.3199Z" fill="#CBCBCB"/>
<path d="M36.9605 53.8101C36.9605 53.8101 36.9405 53.8101 36.9305 53.8101L35.4305 53.2801C35.4305 53.2801 35.3605 53.2101 35.3805 53.1701C35.4005 53.1301 35.4505 53.1001 35.4905 53.1201L36.9905 53.6501C36.9905 53.6501 37.0605 53.7201 37.0405 53.7601C37.0305 53.8001 36.9905 53.8201 36.9605 53.8201V53.8101Z" fill="#CBCBCB"/>
<path d="M36.3401 55.4002C36.3401 55.4002 36.3201 55.4002 36.3101 55.4002L34.2001 54.5202C34.2001 54.5202 34.1301 54.4502 34.1501 54.4102C34.1701 54.3602 34.2201 54.3402 34.2701 54.3602L36.3801 55.2402C36.3801 55.2402 36.4501 55.3102 36.4301 55.3502C36.4201 55.3802 36.3801 55.4002 36.3501 55.4002H36.3401Z" fill="#CBCBCB"/>
<path d="M35.72 56.9799C35.72 56.9799 35.7 56.9799 35.69 56.9799L32.87 55.8299C32.87 55.8299 32.8 55.7599 32.82 55.7199C32.84 55.6799 32.89 55.6499 32.93 55.6699L35.75 56.8199C35.75 56.8199 35.82 56.8899 35.8 56.9299C35.79 56.9599 35.75 56.9799 35.72 56.9799Z" fill="#CBCBCB"/>
<path d="M35.1092 58.48C35.1092 58.48 35.0892 58.48 35.0792 58.48L31.8192 57.16C31.8192 57.16 31.7492 57.09 31.7692 57.05C31.7892 57.01 31.8392 56.98 31.8892 57L35.1492 58.32C35.1492 58.32 35.2192 58.39 35.1992 58.43C35.1892 58.46 35.1492 58.48 35.1192 58.48H35.1092Z" fill="#CBCBCB"/>
<path d="M34.581 60.0701C34.581 60.0701 34.561 60.0701 34.551 60.0701L31.911 59.0101C31.911 59.0101 31.841 58.9401 31.861 58.9001C31.881 58.8601 31.931 58.8301 31.971 58.8501L34.611 59.9101C34.611 59.9101 34.681 59.9801 34.661 60.0201C34.651 60.0501 34.611 60.0801 34.581 60.0801V60.0701Z" fill="#CBCBCB"/>
<path d="M33.9591 61.6502C33.9591 61.6502 33.9391 61.6502 33.9291 61.6502L31.9891 60.8602C31.9891 60.8602 31.9191 60.7902 31.9391 60.7502C31.9591 60.7102 32.0091 60.6802 32.0491 60.7002L33.9891 61.4902C33.9891 61.4902 34.0591 61.5602 34.0391 61.6002C34.0291 61.6302 33.9891 61.6502 33.9591 61.6502Z" fill="#CBCBCB"/>
<path d="M33.3391 63.15C33.3391 63.15 33.3191 63.15 33.3091 63.15L31.9891 62.62C31.9891 62.62 31.9191 62.55 31.9391 62.51C31.9591 62.47 32.0091 62.44 32.0591 62.46L33.3791 62.99C33.3791 62.99 33.4491 63.06 33.4291 63.1C33.4191 63.13 33.3791 63.16 33.3491 63.16L33.3391 63.15Z" fill="#CBCBCB"/>
<path d="M32.7309 64.7401C32.7309 64.7401 32.7109 64.7401 32.7009 64.7401L32.0809 64.4801C32.0809 64.4801 32.0109 64.4101 32.0309 64.3601C32.0509 64.3201 32.1009 64.2901 32.1509 64.3101L32.7709 64.5701C32.7709 64.5701 32.8409 64.6401 32.8209 64.6901C32.8109 64.7201 32.7709 64.7401 32.7409 64.7401H32.7309Z" fill="#CBCBCB"/>
<path d="M36.601 49.86C36.601 49.86 36.551 49.85 36.531 49.83L29.171 41.94L20.411 43.6C20.351 43.61 20.301 43.57 20.291 43.52C20.291 43.47 20.321 43.41 20.371 43.4L29.181 41.73C29.181 41.73 29.251 41.73 29.271 41.76L36.671 49.69C36.671 49.69 36.711 49.79 36.671 49.83C36.651 49.85 36.631 49.86 36.601 49.86Z" fill="#CBCBCB"/>
<path d="M29.1992 41.9299C29.1992 41.9299 29.1692 41.9299 29.1592 41.9299C29.1092 41.9099 29.0892 41.8499 29.1092 41.7999L33.4292 31.6699C33.4492 31.6199 33.5092 31.5899 33.5592 31.6199C33.6092 31.6399 33.6292 31.6999 33.6092 31.7499L29.2892 41.8799C29.2892 41.8799 29.2392 41.9399 29.1992 41.9399V41.9299Z" fill="#CBCBCB"/>
<path d="M14.3192 59.1998C14.3192 59.1998 14.2992 59.1998 14.2792 59.1998C14.2292 59.1798 14.1992 59.1198 14.2192 59.0698L20.2992 43.4798C20.3192 43.4298 20.3792 43.3998 20.4292 43.4198C20.4792 43.4398 20.5092 43.4998 20.4892 43.5498L14.4092 59.1398C14.4092 59.1398 14.3592 59.1998 14.3192 59.1998Z" fill="#CBCBCB"/>
<path d="M20.3905 43.61C20.3905 43.61 20.3405 43.6 20.3205 43.58L9.13052 31.16C9.13052 31.16 9.10052 31.06 9.13052 31.02C9.17052 30.98 9.23052 30.99 9.27052 31.02L20.4605 43.44C20.4605 43.44 20.4905 43.54 20.4605 43.58C20.4405 43.6 20.4205 43.61 20.3905 43.61Z" fill="#CBCBCB"/>
<path d="M38.1004 50.9201C38.1004 50.9201 38.0704 50.9201 38.0604 50.9201C38.0104 50.9001 37.9804 50.8401 38.0004 50.7901L38.1804 50.3501C38.2004 50.3001 38.2604 50.2801 38.3104 50.2901C38.3604 50.3101 38.3904 50.3701 38.3704 50.4201L38.1904 50.8601C38.1904 50.8601 38.1404 50.9201 38.1004 50.9201Z" fill="#CBCBCB"/>
<path d="M22.3292 44.3101H22.3092L21.9592 44.2201L20.3592 43.6001C20.3092 43.5801 20.2792 43.5201 20.2992 43.4701C20.3192 43.4201 20.3792 43.3901 20.4292 43.4101L22.0192 44.0301L22.3592 44.1101C22.4092 44.1201 22.4492 44.1801 22.4292 44.2301C22.4192 44.2801 22.3792 44.3101 22.3292 44.3101Z" fill="#CBCBCB"/>
<path d="M34.9301 49.25C34.9301 49.25 34.9001 49.25 34.8901 49.25L33.3901 48.63C33.3401 48.61 33.3101 48.55 33.3401 48.5C33.3601 48.45 33.4201 48.42 33.4701 48.45L34.9701 49.07C35.0201 49.09 35.0501 49.15 35.0201 49.2C35.0001 49.24 34.9701 49.26 34.9301 49.26V49.25Z" fill="#CBCBCB"/>
<path d="M33.4302 48.6302C33.4302 48.6302 33.4102 48.6302 33.3902 48.6302L23.4302 44.8402L22.2802 44.3102C22.2802 44.3102 22.2102 44.2302 22.2302 44.1802C22.2502 44.1302 22.3102 44.1102 22.3602 44.1302L23.5002 44.6602L33.4502 48.4502C33.5002 48.4702 33.5302 48.5302 33.5102 48.5802C33.4902 48.6202 33.4602 48.6402 33.4202 48.6402L33.4302 48.6302Z" fill="#CBCBCB"/>
<path d="M15.9008 59.8198C15.9008 59.8198 15.8708 59.8198 15.8608 59.8198L14.3608 59.1998C14.3108 59.1798 14.2808 59.1198 14.3108 59.0698C14.3308 59.0198 14.3908 58.9898 14.4408 59.0198L15.9408 59.6398C15.9908 59.6598 16.0208 59.7198 15.9908 59.7698C15.9708 59.8098 15.9408 59.8298 15.9008 59.8298V59.8198Z" fill="#CBCBCB"/>
<path d="M9.29005 31.2602C9.22005 31.2602 9.14005 31.2302 9.09005 31.1702C9.00005 31.0602 9.01005 30.8902 9.12005 30.8002L10.35 29.7402C10.46 29.6402 10.63 29.6602 10.72 29.7702C10.81 29.8802 10.8 30.0502 10.69 30.1402L9.46005 31.2002C9.46005 31.2002 9.35005 31.2602 9.29005 31.2602Z" fill="#CBCBCB"/>
<path d="M34.5797 30.7399C34.5797 30.7399 34.5297 30.7299 34.4997 30.7099L25.2497 20.3099C25.2497 20.3099 25.2197 20.2099 25.2497 20.1699C25.2897 20.1299 25.3497 20.1399 25.3897 20.1699L34.6397 30.5699C34.6397 30.5699 34.6697 30.6699 34.6397 30.7099C34.6197 30.7299 34.5997 30.7399 34.5697 30.7399H34.5797Z" fill="#CBCBCB"/>
<path d="M34.67 30.83C34.67 30.83 34.62 30.83 34.6 30.8L34.51 30.71C34.51 30.71 34.47 30.61 34.51 30.57C34.55 30.53 34.61 30.53 34.65 30.57L34.74 30.66C34.74 30.66 34.78 30.76 34.74 30.8C34.72 30.82 34.7 30.83 34.67 30.83Z" fill="#CBCBCB"/>
<path d="M20.3896 43.61C20.3896 43.61 20.3696 43.61 20.3596 43.61C20.3096 43.6 20.2796 43.54 20.2896 43.49L24.1296 28.92L9.20961 31.19C9.14961 31.19 9.09961 31.16 9.09961 31.11C9.09961 31.06 9.12961 31 9.17961 31L24.2496 28.71C24.2496 28.71 24.3196 28.71 24.3396 28.74C24.3596 28.76 24.3696 28.8 24.3596 28.83L20.4796 43.54C20.4796 43.54 20.4296 43.61 20.3796 43.61H20.3896Z" fill="#CBCBCB"/>
<path d="M32.1992 66.0698C32.1992 66.0698 32.1792 66.0698 32.1592 66.0698L15.8592 59.8198C15.8092 59.7998 15.7792 59.7398 15.7992 59.6898C15.8192 59.6398 15.8792 59.6098 15.9292 59.6298L32.2292 65.8798C32.2792 65.8998 32.3092 65.9598 32.2892 66.0098C32.2692 66.0498 32.2392 66.0698 32.1992 66.0698Z" fill="#CBCBCB"/>
<path d="M25.331 20.3499C25.331 20.3499 25.281 20.3499 25.261 20.3199L24.551 19.6099C24.551 19.6099 24.511 19.5099 24.551 19.4699C24.591 19.4299 24.651 19.4299 24.691 19.4699L25.401 20.1799C25.401 20.1799 25.441 20.2799 25.401 20.3199C25.381 20.3399 25.361 20.3499 25.331 20.3499Z" fill="#CBCBCB"/>
<path d="M34.6706 30.8299H34.4906C34.4306 30.8299 34.3906 30.7899 34.3906 30.7299C34.3906 30.6699 34.4306 30.6299 34.4906 30.6299H34.6706C34.7306 30.6299 34.7706 30.6699 34.7706 30.7299C34.7706 30.7899 34.7306 30.8299 34.6706 30.8299Z" fill="#CBCBCB"/>
<path d="M33.2595 30.5698C33.2595 30.5698 33.2495 30.5698 33.2395 30.5698L24.2495 28.8998C24.1995 28.8998 24.1595 28.8398 24.1695 28.7798C24.1795 28.7298 24.2195 28.6898 24.2895 28.6998L33.2795 30.3698C33.3295 30.3698 33.3695 30.4298 33.3595 30.4898C33.3595 30.5398 33.3095 30.5698 33.2595 30.5698Z" fill="#CBCBCB"/>
<path d="M37.8408 50.7402C37.8408 50.7402 37.7708 50.7202 37.7508 50.6902C37.7208 50.6402 37.7408 50.5802 37.7808 50.5502L38.2208 50.2902C38.2208 50.2902 38.3308 50.2802 38.3608 50.3202C38.3908 50.3702 38.3708 50.4302 38.3308 50.4602L37.8908 50.7202C37.8908 50.7202 37.8608 50.7302 37.8408 50.7302V50.7402Z" fill="#CBCBCB"/>
<path d="M33.1707 63.6899C33.1707 63.6899 33.1507 63.6899 33.1307 63.6899C33.0807 63.6699 33.0507 63.6099 33.0707 63.5599L38.0007 50.7899C38.0207 50.7399 38.0807 50.7099 38.1307 50.7299C38.1807 50.7499 38.2107 50.8099 38.1907 50.8599L33.2607 63.6299C33.2607 63.6299 33.2107 63.6899 33.1707 63.6899Z" fill="#CBCBCB"/>
<path d="M33.5195 31.8C33.5195 31.8 33.4595 31.79 33.4395 31.76C33.3995 31.72 33.4095 31.66 33.4495 31.62L34.5895 30.65C34.5895 30.65 34.6995 30.62 34.7295 30.66C34.7695 30.7 34.7595 30.76 34.7195 30.8L33.5795 31.77C33.5795 31.77 33.5395 31.79 33.5195 31.79V31.8Z" fill="#CBCBCB"/>
<path d="M36.5997 49.8601C36.5997 49.8601 36.5797 49.8601 36.5697 49.8601L34.8997 49.2401C34.8497 49.2201 34.8197 49.1601 34.8397 49.1101C34.8597 49.0601 34.9197 49.0301 34.9697 49.0501L36.4797 49.6101L33.4297 31.7201C33.4297 31.6701 33.4597 31.6101 33.5097 31.6001C33.5597 31.6001 33.6197 31.6301 33.6297 31.6801L36.7097 49.7401C36.7097 49.7401 36.7097 49.8101 36.6697 49.8301C36.6497 49.8501 36.6297 49.8501 36.6097 49.8501L36.5997 49.8601Z" fill="#CBCBCB"/>
<path d="M20.3894 43.61C20.3894 43.61 20.3394 43.6 20.3194 43.58C20.2794 43.54 20.2894 43.48 20.3194 43.44L33.4494 31.63C33.4494 31.63 33.5494 31.6 33.5894 31.63C33.6294 31.67 33.6194 31.73 33.5894 31.77L20.4594 43.58C20.4594 43.58 20.4194 43.61 20.3894 43.61Z" fill="#CBCBCB"/>
<path d="M24.2708 28.8898C24.2208 28.8898 24.1708 28.8498 24.1708 28.7998L23.5508 19.6398C23.5508 19.5798 23.5908 19.5398 23.6408 19.5298C23.6908 19.5298 23.7408 19.5698 23.7408 19.6198L24.3608 28.7798C24.3608 28.8398 24.3208 28.8798 24.2708 28.8898Z" fill="#CBCBCB"/>
<path d="M34.4897 30.8301C34.4897 30.8301 34.4797 30.8301 34.4697 30.8301L33.2397 30.5701C33.1897 30.5601 33.1497 30.5101 33.1597 30.4501C33.1697 30.3901 33.2197 30.3601 33.2797 30.3701L34.5097 30.6301C34.5597 30.6401 34.5997 30.6901 34.5897 30.7501C34.5897 30.8001 34.5397 30.8301 34.4897 30.8301Z" fill="#CBCBCB"/>
<path d="M23.6491 19.7298C23.6491 19.7298 23.5591 19.6898 23.5491 19.6398L23.3691 18.4098C23.3691 18.3598 23.3991 18.2998 23.4491 18.2998C23.4991 18.2998 23.5591 18.3298 23.5591 18.3798L23.7391 19.6098C23.7391 19.6598 23.7091 19.7198 23.6591 19.7198C23.6591 19.7198 23.6591 19.7198 23.6491 19.7198V19.7298Z" fill="#CBCBCB"/>
<path d="M38.2799 50.4798C38.2799 50.4798 38.2599 50.4798 38.2499 50.4798L36.5799 49.8598C36.5299 49.8398 36.4999 49.7798 36.5199 49.7298C36.5399 49.6798 36.5999 49.6498 36.6499 49.6698L38.3199 50.2898C38.3699 50.3098 38.3999 50.3698 38.3799 50.4198C38.3699 50.4598 38.3299 50.4898 38.2899 50.4898L38.2799 50.4798Z" fill="#CBCBCB"/>
<path d="M32.1996 66.0701C32.1996 66.0701 32.1696 66.0701 32.1596 66.0701C32.1096 66.0501 32.0796 65.9901 32.1096 65.9401L33.0796 63.5601C33.0996 63.5101 33.1596 63.4901 33.2096 63.5001C33.2596 63.5201 33.2896 63.5801 33.2596 63.6301L32.2896 66.0101C32.2896 66.0101 32.2396 66.0701 32.1996 66.0701Z" fill="#CBCBCB"/>
<path d="M24.6204 19.64C24.6204 19.64 24.5704 19.63 24.5504 19.61L23.4904 18.46C23.4904 18.46 23.4504 18.36 23.4904 18.32C23.5304 18.28 23.5904 18.28 23.6304 18.32L24.6904 19.47C24.6904 19.47 24.7304 19.57 24.6904 19.61C24.6704 19.63 24.6504 19.64 24.6204 19.64Z" fill="#CBCBCB"/>
<path d="M33.701 30.6598C33.701 30.6598 33.691 30.6598 33.681 30.6598L32.271 30.3998C32.221 30.3998 32.181 30.3398 32.191 30.2798C32.201 30.2298 32.251 30.1898 32.311 30.1998L33.721 30.4598C33.771 30.4598 33.811 30.5198 33.801 30.5798C33.801 30.6298 33.751 30.6598 33.701 30.6598Z" fill="#CBCBCB"/>
<path d="M34.5805 30.7399C34.5805 30.7399 34.5205 30.7299 34.5005 30.7099L33.8805 29.9999C33.8805 29.9999 33.8505 29.8999 33.8805 29.8599C33.9205 29.8199 33.9805 29.8299 34.0205 29.8599L34.6405 30.5699C34.6405 30.5699 34.6705 30.6699 34.6405 30.7099C34.6205 30.7299 34.6005 30.7299 34.5705 30.7299L34.5805 30.7399Z" fill="#CBCBCB"/>
<path d="M14.3207 59.2C14.3207 59.2 14.2307 59.16 14.2207 59.11C14.2207 59.05 14.2507 59.01 14.3107 59L31.8107 56.8L38.2207 50.3C38.2207 50.3 38.3207 50.26 38.3607 50.3C38.4007 50.34 38.4007 50.4 38.3607 50.44L31.9307 56.96C31.9307 56.96 31.8907 56.99 31.8707 56.99L14.3407 59.19C14.3407 59.19 14.3407 59.19 14.3307 59.19L14.3207 59.2Z" fill="#CBCBCB"/>
<path d="M32.1994 66.0698C32.1494 66.0698 32.0994 66.0298 32.0994 65.9698L31.7494 56.9298L20.3194 43.5698C20.3194 43.5698 20.2894 43.4698 20.3294 43.4298C20.3694 43.3898 20.4394 43.3998 20.4694 43.4398L31.9194 56.8298C31.9194 56.8298 31.9394 56.8698 31.9394 56.8898L32.2894 65.9598C32.2894 66.0198 32.2494 66.0598 32.1894 66.0598L32.1994 66.0698Z" fill="#CBCBCB"/>
<path d="M26.7407 19.1002C26.7407 19.1002 26.7007 19.1002 26.6807 19.0702C26.6507 19.0402 26.6507 18.9802 26.6807 18.9502L26.8607 18.7702C26.8607 18.7702 26.9507 18.7302 26.9807 18.7702C27.0107 18.8102 27.0107 18.8602 26.9807 18.8902L26.8007 19.0702C26.8007 19.0702 26.7607 19.1002 26.7407 19.1002Z" fill="#CBCBCB"/>
<path d="M26.1196 19.63C26.1196 19.63 26.0796 19.63 26.0596 19.6C26.0296 19.57 26.0296 19.51 26.0596 19.48L26.2396 19.3C26.2396 19.3 26.3296 19.26 26.3596 19.3C26.3896 19.34 26.3896 19.39 26.3596 19.42L26.1796 19.6C26.1796 19.6 26.1396 19.63 26.1196 19.63Z" fill="#CBCBCB"/>
<path d="M25.5005 20.1602C25.5005 20.1602 25.4605 20.1602 25.4405 20.1302C25.4105 20.1002 25.4105 20.0402 25.4405 20.0102L25.6205 19.8302C25.6205 19.8302 25.7105 19.8002 25.7405 19.8302C25.7705 19.8602 25.7705 19.9202 25.7405 19.9502L25.5605 20.1302C25.5605 20.1302 25.5205 20.1602 25.5005 20.1602Z" fill="#CBCBCB"/>
<path d="M49.4709 72.7501C49.4709 72.7501 49.4509 72.7501 49.4409 72.7501L47.5009 72.0401L45.6509 71.2501L42.7509 70.1901C42.7509 70.1901 42.6809 70.1201 42.7009 70.0801C42.7209 70.0301 42.7709 70.0101 42.8109 70.0301L45.7209 71.0901L47.5709 71.8801L49.5009 72.5801C49.5009 72.5801 49.5709 72.6501 49.5509 72.6901C49.5409 72.7301 49.5009 72.7501 49.4709 72.7501Z" fill="#CBCBCB"/>
<path d="M12.9106 62.98C12.9106 62.98 12.8906 62.98 12.8806 62.98C12.8406 62.96 12.8106 62.91 12.8306 62.87L14.3306 59.08C14.3306 59.08 14.4006 59.01 14.4406 59.03C14.4806 59.05 14.5106 59.1 14.4906 59.14L12.9906 62.93C12.9906 62.93 12.9406 62.99 12.9106 62.99V62.98Z" fill="#CBCBCB"/>
<path d="M14.4 63.5899C14.4 63.5899 14.38 63.5899 14.37 63.5899L12.87 62.9699C12.87 62.9699 12.8 62.8999 12.82 62.8499C12.84 62.8099 12.89 62.7899 12.93 62.7999L14.43 63.4199C14.43 63.4199 14.5 63.4899 14.48 63.5399C14.47 63.5699 14.43 63.5899 14.4 63.5899Z" fill="#CBCBCB"/>
<path d="M13.52 65.8798C13.52 65.8798 13.5 65.8798 13.49 65.8798C13.45 65.8598 13.42 65.8098 13.44 65.7698L15.82 59.6898C15.82 59.6898 15.89 59.6198 15.93 59.6398C15.97 59.6598 16 59.7098 15.98 59.7498L13.6 65.8298C13.6 65.8298 13.55 65.8898 13.52 65.8898V65.8798Z" fill="#CBCBCB"/>
<path d="M23.5706 18.4901H23.4806C23.4806 18.4901 23.3906 18.4501 23.3906 18.4001C23.3906 18.3501 23.4306 18.3101 23.4806 18.3101H23.5706C23.5706 18.3101 23.6606 18.3501 23.6606 18.4001C23.6606 18.4501 23.6206 18.4901 23.5706 18.4901Z" fill="#CBCBCB"/>
<path d="M23.5696 18.49C23.5696 18.49 23.5296 18.49 23.5096 18.46L23.4196 18.37C23.4196 18.37 23.3896 18.28 23.4196 18.25C23.4496 18.22 23.5096 18.21 23.5396 18.25L23.6296 18.34C23.6296 18.34 23.6596 18.43 23.6296 18.46C23.6096 18.48 23.5896 18.49 23.5696 18.49Z" fill="#CBCBCB"/>
<path d="M37.3991 28.3498C37.3991 28.3498 37.3491 28.3498 37.3291 28.3198C37.2991 28.2798 37.2991 28.2298 37.3291 28.1998L41.5591 24.4098C41.5591 24.4098 41.6491 24.3798 41.6791 24.4098C41.7091 24.4498 41.7091 24.4998 41.6791 24.5298L37.4491 28.3198C37.4491 28.3198 37.4091 28.3398 37.3891 28.3398L37.3991 28.3498Z" fill="#CBCBCB"/>
<path d="M48.5908 54.5202C48.5908 54.5202 48.5708 54.5202 48.5608 54.5202L42.9208 52.3202C42.9208 52.3202 42.8508 52.2502 42.8708 52.2102C42.8908 52.1702 42.9408 52.1402 42.9808 52.1602L48.6208 54.3602C48.6208 54.3602 48.6908 54.4302 48.6708 54.4702C48.6608 54.5002 48.6208 54.5302 48.5908 54.5302V54.5202Z" fill="#CBCBCB"/>
<path d="M28.9402 15.7502C28.9402 15.7502 28.8902 15.7402 28.8702 15.7202L27.8102 14.4902C27.8102 14.4902 27.7802 14.4002 27.8102 14.3702C27.8502 14.3402 27.9002 14.3402 27.9302 14.3702L28.9902 15.6002C28.9902 15.6002 29.0202 15.6902 28.9902 15.7202C28.9702 15.7302 28.9502 15.7402 28.9302 15.7402L28.9402 15.7502Z" fill="#CBCBCB"/>
<path d="M25.6799 19.9802C25.6799 19.9802 25.6299 19.9702 25.6099 19.9502L24.9899 19.2402C24.9899 19.2402 24.9599 19.1502 24.9899 19.1202C25.0299 19.0902 25.0799 19.0902 25.1099 19.1202L25.7299 19.8302C25.7299 19.8302 25.7599 19.9202 25.7299 19.9502C25.7099 19.9602 25.6899 19.9702 25.6699 19.9702L25.6799 19.9802Z" fill="#CBCBCB"/>
<path d="M25.4994 20.16C25.4994 20.16 25.4594 20.16 25.4394 20.13L24.7994 19.49L24.6894 19.6C24.6894 19.6 24.5994 19.64 24.5694 19.6C24.5394 19.56 24.5394 19.51 24.5694 19.48L24.7494 19.3C24.7494 19.3 24.8394 19.26 24.8694 19.3L25.5794 20.01C25.5794 20.01 25.6094 20.1 25.5794 20.13C25.5594 20.15 25.5394 20.16 25.5194 20.16H25.4994Z" fill="#CBCBCB"/>
<path d="M24.8003 19.4602C24.8003 19.4602 24.7403 19.4502 24.7303 19.4202C24.7003 19.3802 24.7103 19.3202 24.7503 19.3002L25.0103 19.1202C25.0103 19.1202 25.1103 19.1002 25.1303 19.1402C25.1603 19.1802 25.1503 19.2402 25.1103 19.2602L24.8503 19.4402C24.8503 19.4402 24.8203 19.4502 24.8003 19.4502V19.4602Z" fill="#CBCBCB"/>
<path d="M25.9396 19.8102C25.9396 19.8102 25.8996 19.8102 25.8796 19.7802L25.1696 19.0702C25.1696 19.0702 25.1396 18.9802 25.1696 18.9502C25.1996 18.9202 25.2596 18.9102 25.2896 18.9502L25.9996 19.6602C25.9996 19.6602 26.0296 19.7502 25.9996 19.7802C25.9796 19.8002 25.9596 19.8102 25.9396 19.8102Z" fill="#CBCBCB"/>
<path d="M26.3005 19.4599C26.3005 19.4599 26.2505 19.4499 26.2305 19.4299L25.6105 18.6399C25.6105 18.6399 25.5905 18.5499 25.6305 18.5199C25.6705 18.4899 25.7205 18.4999 25.7505 18.5399L26.3705 19.3299C26.3705 19.3299 26.3905 19.4199 26.3505 19.4499C26.3305 19.4599 26.3105 19.4699 26.3005 19.4699V19.4599Z" fill="#CBCBCB"/>
<path d="M26.1198 19.6302C26.1198 19.6302 26.0698 19.6302 26.0498 19.6002L25.4198 18.8902L25.3098 19.0602C25.3098 19.0602 25.2298 19.1102 25.1898 19.0802C25.1498 19.0502 25.1398 19.0002 25.1698 18.9602L25.3498 18.7002C25.3498 18.7002 25.3898 18.6602 25.4198 18.6602C25.4498 18.6602 25.4698 18.6602 25.4898 18.6902L26.1998 19.4802C26.1998 19.4802 26.2298 19.5702 26.1998 19.6002C26.1798 19.6102 26.1598 19.6202 26.1398 19.6202L26.1198 19.6302Z" fill="#CBCBCB"/>
<path d="M25.4195 18.8401C25.4195 18.8401 25.3595 18.8301 25.3495 18.8001C25.3195 18.7601 25.3295 18.7001 25.3695 18.6801L25.6295 18.5001C25.6295 18.5001 25.7295 18.4801 25.7495 18.5201C25.7795 18.5601 25.7695 18.6201 25.7295 18.6401L25.4695 18.8201C25.4695 18.8201 25.4395 18.8301 25.4195 18.8301V18.8401Z" fill="#CBCBCB"/>
<path d="M26.5609 19.2799C26.5609 19.2799 26.5109 19.2799 26.4909 19.2499L25.7809 18.4599C25.7809 18.4599 25.7509 18.3699 25.7809 18.3399C25.8209 18.3099 25.8709 18.3099 25.9009 18.3399L26.6109 19.1299C26.6109 19.1299 26.6409 19.2199 26.6109 19.2499C26.5909 19.2599 26.5709 19.2699 26.5509 19.2699L26.5609 19.2799Z" fill="#CBCBCB"/>
<path d="M26.9098 18.9301C26.9098 18.9301 26.8598 18.9201 26.8398 18.9001L26.2198 18.1101C26.2198 18.1101 26.1998 18.0201 26.2398 17.9901C26.2798 17.9601 26.3298 17.9701 26.3598 18.0101L26.9798 18.8001C26.9798 18.8001 26.9998 18.8901 26.9598 18.9201C26.9398 18.9301 26.9198 18.9401 26.9098 18.9401V18.9301Z" fill="#CBCBCB"/>
<path d="M26.5598 19.2799C26.5598 19.2799 26.5198 19.2799 26.4998 19.2499C26.4698 19.2199 26.4698 19.1599 26.4998 19.1299L26.6198 19.0099L26.0298 18.3499L25.9198 18.4599C25.9198 18.4599 25.8298 18.4999 25.7998 18.4599C25.7698 18.4199 25.7698 18.3699 25.7998 18.3399L25.9798 18.1599C25.9798 18.1599 26.0198 18.1399 26.0498 18.1299C26.0698 18.1299 26.0998 18.1399 26.1098 18.1599L26.8198 18.9499C26.8198 18.9499 26.8498 19.0399 26.8198 19.0699L26.6398 19.2499C26.6398 19.2499 26.5998 19.2799 26.5798 19.2799H26.5598Z" fill="#CBCBCB"/>
<path d="M26.0308 18.3098C26.0308 18.3098 25.9708 18.2998 25.9608 18.2698C25.9308 18.2298 25.9408 18.1698 25.9808 18.1498L26.2408 17.9698C26.2408 17.9698 26.3408 17.9498 26.3608 17.9898C26.3908 18.0298 26.3808 18.0898 26.3408 18.1098L26.0808 18.2898C26.0808 18.2898 26.0508 18.2998 26.0308 18.2998V18.3098Z" fill="#CBCBCB"/>
<path d="M27.1798 18.6601C27.1798 18.6601 27.1398 18.6601 27.1198 18.6301L26.4098 17.9301C26.4098 17.9301 26.3798 17.8401 26.4098 17.8101C26.4398 17.7801 26.4998 17.7701 26.5298 17.8101L27.2398 18.5101C27.2398 18.5101 27.2698 18.6001 27.2398 18.6301C27.2198 18.6501 27.1998 18.6601 27.1798 18.6601Z" fill="#CBCBCB"/>
<path d="M27.5295 18.3102C27.5295 18.3102 27.4795 18.3002 27.4595 18.2802L26.8395 17.5702C26.8395 17.5702 26.8095 17.4802 26.8395 17.4502C26.8795 17.4202 26.9295 17.4202 26.9595 17.4502L27.5795 18.1602C27.5795 18.1602 27.6095 18.2502 27.5795 18.2802C27.5595 18.2902 27.5395 18.3002 27.5195 18.3002L27.5295 18.3102Z" fill="#CBCBCB"/>
<path d="M27.1809 18.66C27.1809 18.66 27.1409 18.66 27.1209 18.63C27.0909 18.6 27.0909 18.54 27.1209 18.51L27.2309 18.4L26.6509 17.82L26.5409 17.93C26.5409 17.93 26.4509 17.96 26.4209 17.93C26.3909 17.9 26.3909 17.84 26.4209 17.81L26.6009 17.63C26.6009 17.63 26.6909 17.6 26.7209 17.63L27.4309 18.34C27.4309 18.34 27.4609 18.43 27.4309 18.46L27.2509 18.64C27.2509 18.64 27.2109 18.67 27.1909 18.67L27.1809 18.66Z" fill="#CBCBCB"/>
<path d="M26.6499 17.7801C26.6499 17.7801 26.5899 17.7701 26.5799 17.7401C26.5499 17.7001 26.5599 17.6401 26.5999 17.6201L26.8599 17.4401C26.8599 17.4401 26.9599 17.4201 26.9799 17.4601C27.0099 17.5001 26.9999 17.5601 26.9599 17.5801L26.6999 17.7601C26.6999 17.7601 26.6699 17.7701 26.6499 17.7701V17.7801Z" fill="#CBCBCB"/>
<path d="M27.3501 18.4898C27.3501 18.4898 27.3101 18.4898 27.2901 18.4598C27.2601 18.4298 27.2601 18.3698 27.2901 18.3398L27.4701 18.1598C27.4701 18.1598 27.5601 18.1298 27.5901 18.1598C27.6201 18.1898 27.6201 18.2498 27.5901 18.2798L27.4101 18.4598C27.4101 18.4598 27.3701 18.4898 27.3501 18.4898Z" fill="#CBCBCB"/>
<path d="M27.8009 18.13C27.8009 18.13 27.7609 18.13 27.7409 18.1L27.0309 17.39C27.0309 17.39 27.0009 17.3 27.0309 17.27C27.0609 17.24 27.1209 17.23 27.1509 17.27L27.8609 17.98C27.8609 17.98 27.8909 18.07 27.8609 18.1C27.8409 18.12 27.8209 18.13 27.8009 18.13Z" fill="#CBCBCB"/>
<path d="M28.1506 17.78C28.1506 17.78 28.1006 17.77 28.0806 17.75L27.4606 17.04C27.4606 17.04 27.4306 16.95 27.4606 16.92C27.5006 16.89 27.5506 16.89 27.5806 16.92L28.2006 17.63C28.2006 17.63 28.2306 17.72 28.2006 17.75C28.1806 17.76 28.1606 17.77 28.1406 17.77L28.1506 17.78Z" fill="#CBCBCB"/>
<path d="M27.8001 18.1298C27.8001 18.1298 27.7601 18.1298 27.7401 18.0998C27.7101 18.0698 27.7101 18.0098 27.7401 17.9798L27.8501 17.8698L27.2701 17.2898L27.1601 17.3998C27.1601 17.3998 27.0701 17.4298 27.0401 17.3998C27.0101 17.3698 27.0101 17.3098 27.0401 17.2798L27.2201 17.0998C27.2201 17.0998 27.3101 17.0698 27.3401 17.0998L28.0501 17.8098C28.0501 17.8098 28.0801 17.8998 28.0501 17.9298L27.8701 18.1098C27.8701 18.1098 27.8301 18.1398 27.8101 18.1398L27.8001 18.1298Z" fill="#CBCBCB"/>
<path d="M27.271 17.2498C27.271 17.2498 27.211 17.2398 27.201 17.2098C27.171 17.1698 27.181 17.1098 27.221 17.0898L27.481 16.9098C27.481 16.9098 27.581 16.8898 27.601 16.9298C27.631 16.9698 27.621 17.0298 27.581 17.0498L27.321 17.2298C27.321 17.2298 27.291 17.2398 27.271 17.2398V17.2498Z" fill="#CBCBCB"/>
<path d="M27.9692 17.96C27.9692 17.96 27.9292 17.96 27.9092 17.93C27.8792 17.9 27.8792 17.84 27.9092 17.81L28.0892 17.63C28.0892 17.63 28.1792 17.6 28.2092 17.63C28.2392 17.66 28.2392 17.72 28.2092 17.75L28.0292 17.93C28.0292 17.93 27.9892 17.96 27.9692 17.96Z" fill="#CBCBCB"/>
<path d="M28.4105 17.6002C28.4105 17.6002 28.3605 17.6002 28.3405 17.5702L27.6305 16.7802C27.6305 16.7802 27.6005 16.6902 27.6305 16.6602C27.6705 16.6302 27.7205 16.6302 27.7505 16.6602L28.4605 17.4502C28.4605 17.4502 28.4905 17.5402 28.4605 17.5702C28.4405 17.5802 28.4205 17.5902 28.4005 17.5902L28.4105 17.6002Z" fill="#CBCBCB"/>
<path d="M28.7595 17.2499C28.7595 17.2499 28.7095 17.2399 28.6895 17.2199L28.0695 16.4299C28.0695 16.4299 28.0495 16.3399 28.0895 16.3099C28.1295 16.2799 28.1795 16.2899 28.2095 16.3299L28.8295 17.1199C28.8295 17.1199 28.8495 17.2099 28.8095 17.2399C28.7895 17.2499 28.7695 17.2599 28.7595 17.2599V17.2499Z" fill="#CBCBCB"/>
<path d="M28.4107 17.5998C28.4107 17.5998 28.3707 17.5998 28.3507 17.5698C28.3207 17.5398 28.3207 17.4798 28.3507 17.4498L28.4707 17.3298L27.9507 16.6598L27.7507 16.7898C27.7507 16.7898 27.6507 16.8098 27.6307 16.7698C27.6007 16.7298 27.6107 16.6698 27.6507 16.6498L27.9107 16.4698C27.9107 16.4698 28.0007 16.4498 28.0307 16.4898L28.6507 17.2798C28.6507 17.2798 28.6707 17.3598 28.6507 17.3998L28.4707 17.5798C28.4707 17.5798 28.4307 17.6098 28.4107 17.6098V17.5998Z" fill="#CBCBCB"/>
<path d="M27.9692 16.6398C27.9692 16.6398 27.9292 16.6398 27.9092 16.6098C27.8792 16.5798 27.8792 16.5198 27.9092 16.4898L28.0892 16.3098C28.0892 16.3098 28.1792 16.2698 28.2092 16.3098C28.2392 16.3498 28.2392 16.3998 28.2092 16.4298L28.0292 16.6098C28.0292 16.6098 27.9892 16.6398 27.9692 16.6398Z" fill="#CBCBCB"/>
<path d="M28.5903 17.4298C28.5903 17.4298 28.5503 17.4298 28.5303 17.3998C28.5003 17.3698 28.5003 17.3098 28.5303 17.2798L28.7103 17.0998C28.7103 17.0998 28.8003 17.0698 28.8303 17.0998C28.8603 17.1298 28.8603 17.1898 28.8303 17.2198L28.6503 17.3998C28.6503 17.3998 28.6103 17.4298 28.5903 17.4298Z" fill="#CBCBCB"/>
<path d="M29.0294 16.9899C29.0294 16.9899 28.9894 16.9899 28.9694 16.9599L28.2594 16.2499C28.2594 16.2499 28.2294 16.1599 28.2594 16.1299C28.2894 16.0999 28.3494 16.0899 28.3794 16.1299L29.0894 16.8399C29.0894 16.8399 29.1194 16.9299 29.0894 16.9599C29.0694 16.9799 29.0494 16.9899 29.0294 16.9899Z" fill="#CBCBCB"/>
<path d="M29.3811 16.6401C29.3811 16.6401 29.3311 16.6301 29.3111 16.6101L28.6911 15.9101C28.6911 15.9101 28.6611 15.8201 28.6911 15.7901C28.7311 15.7601 28.7811 15.7601 28.8111 15.7901L29.4311 16.4901C29.4311 16.4901 29.4611 16.5801 29.4311 16.6101C29.4111 16.6201 29.3911 16.6301 29.3711 16.6301L29.3811 16.6401Z" fill="#CBCBCB"/>
<path d="M29.2001 16.8101C29.2001 16.8101 29.1501 16.8001 29.1301 16.7801L28.5601 16.1301L28.3601 16.2601C28.3601 16.2601 28.2601 16.2801 28.2401 16.2401C28.2101 16.2001 28.2201 16.1401 28.2601 16.1201L28.5201 15.9401C28.5201 15.9401 28.6101 15.9201 28.6401 15.9601L29.2601 16.6601C29.2601 16.6601 29.2901 16.7501 29.2601 16.7801C29.2401 16.7901 29.2201 16.8001 29.2001 16.8001V16.8101Z" fill="#CBCBCB"/>
<path d="M28.5903 16.1099C28.5903 16.1099 28.5503 16.1099 28.5303 16.0799C28.5003 16.0499 28.5003 15.9899 28.5303 15.9599L28.7103 15.7799C28.7103 15.7799 28.8003 15.7499 28.8303 15.7799C28.8603 15.8099 28.8603 15.8699 28.8303 15.8999L28.6503 16.0799C28.6503 16.0799 28.6103 16.1099 28.5903 16.1099Z" fill="#CBCBCB"/>
<path d="M29.1997 16.8102C29.1997 16.8102 29.1597 16.8102 29.1397 16.7802C29.1097 16.7502 29.1097 16.6902 29.1397 16.6602L29.3197 16.4802C29.3197 16.4802 29.4097 16.4402 29.4397 16.4802C29.4697 16.5202 29.4697 16.5702 29.4397 16.6002L29.2597 16.7802C29.2597 16.7802 29.2197 16.8102 29.1997 16.8102Z" fill="#CBCBCB"/>
<path d="M29.6408 16.4601C29.6408 16.4601 29.6008 16.4601 29.5808 16.4301L28.8708 15.7201C28.8708 15.7201 28.8408 15.6301 28.8708 15.6001C28.9008 15.5701 28.9608 15.5601 28.9908 15.6001L29.7008 16.3101C29.7008 16.3101 29.7308 16.4001 29.7008 16.4301C29.6808 16.4501 29.6608 16.4601 29.6408 16.4601Z" fill="#CBCBCB"/>
<path d="M30.0002 16.11C30.0002 16.11 29.9502 16.1 29.9302 16.08L29.3102 15.37C29.3102 15.37 29.2802 15.28 29.3102 15.25C29.3502 15.22 29.4002 15.22 29.4302 15.25L30.0502 15.96C30.0502 15.96 30.0802 16.05 30.0502 16.08C30.0302 16.09 30.0102 16.1 29.9902 16.1L30.0002 16.11Z" fill="#CBCBCB"/>
<path d="M29.641 16.46C29.641 16.46 29.601 16.46 29.581 16.43C29.551 16.4 29.551 16.34 29.581 16.31L29.701 16.19L29.191 15.61L28.991 15.74C28.991 15.74 28.891 15.76 28.871 15.72C28.841 15.68 28.851 15.62 28.891 15.6L29.151 15.42C29.151 15.42 29.241 15.4 29.271 15.44L29.891 16.15C29.891 16.15 29.921 16.24 29.891 16.27L29.711 16.45C29.711 16.45 29.671 16.48 29.651 16.48L29.641 16.46Z" fill="#CBCBCB"/>
<path d="M29.1997 15.5802C29.1997 15.5802 29.1597 15.5802 29.1397 15.5502C29.1097 15.5202 29.1097 15.4602 29.1397 15.4302L29.3197 15.2502C29.3197 15.2502 29.4097 15.2102 29.4397 15.2502C29.4697 15.2902 29.4697 15.3402 29.4397 15.3702L29.2597 15.5502C29.2597 15.5502 29.2197 15.5802 29.1997 15.5802Z" fill="#CBCBCB"/>
<path d="M29.8208 16.2799C29.8208 16.2799 29.7808 16.2799 29.7608 16.2499C29.7308 16.2199 29.7308 16.1599 29.7608 16.1299L29.9408 15.9499C29.9408 15.9499 30.0308 15.9199 30.0608 15.9499C30.0908 15.9799 30.0908 16.0399 30.0608 16.0699L29.8808 16.2499C29.8808 16.2499 29.8408 16.2799 29.8208 16.2799Z" fill="#CBCBCB"/>
<path d="M36.4408 29.1899C36.4408 29.1899 36.3608 29.1599 36.3508 29.1199L33.3008 16.0899C33.3008 16.0899 33.3208 15.9999 33.3708 15.9799C33.4208 15.9599 33.4608 15.9999 33.4808 16.0499L36.5308 29.0799C36.5308 29.0799 36.5108 29.1699 36.4608 29.1899C36.4608 29.1899 36.4508 29.1899 36.4408 29.1899Z" fill="#CBCBCB"/>
<path d="M41.1004 51.6101C41.1004 51.6101 41.0204 51.5801 41.0104 51.5401L35.9004 29.5201C35.9004 29.5201 35.9204 29.4301 35.9704 29.4101C36.0104 29.4001 36.0604 29.4301 36.0804 29.4801L41.1904 51.5001C41.1904 51.5001 41.1704 51.5901 41.1204 51.6101C41.1204 51.6101 41.1104 51.6101 41.1004 51.6101Z" fill="#CBCBCB"/>
<path d="M45.6798 71.2602C45.6798 71.2602 45.5998 71.2302 45.5898 71.1902L41.0098 51.7202C41.0098 51.7202 41.0298 51.6302 41.0798 51.6102C41.1298 51.5902 41.1698 51.6302 41.1898 51.6802L45.7698 71.1502C45.7698 71.1502 45.7498 71.2402 45.6998 71.2602C45.6998 71.2602 45.6898 71.2602 45.6798 71.2602Z" fill="#CBCBCB"/>
<path d="M47.5292 72.05C47.5292 72.05 47.4492 72.02 47.4392 71.98L42.9492 52.42C42.9492 52.42 42.9692 52.33 43.0192 52.31C43.0692 52.3 43.1092 52.33 43.1292 52.38L47.6192 71.94C47.6192 71.94 47.5992 72.03 47.5492 72.05C47.5492 72.05 47.5392 72.05 47.5292 72.05Z" fill="#CBCBCB"/>
<path d="M42.9505 52.3201C42.9505 52.3201 42.8705 52.2901 42.8605 52.2501L37.3105 28.2901C37.3105 28.2901 37.3305 28.2001 37.3805 28.1801C37.4305 28.1701 37.4705 28.2001 37.4905 28.2501L43.0405 52.2101C43.0405 52.2101 43.0205 52.3001 42.9705 52.3201C42.9705 52.3201 42.9605 52.3201 42.9505 52.3201Z" fill="#CBCBCB"/>
<path d="M51.3209 73.4602C51.3209 73.4602 51.2409 73.4302 51.2309 73.3902L40.1309 25.6402C40.1309 25.6402 40.1509 25.5502 40.2009 25.5302C40.2409 25.5202 40.2909 25.5502 40.3109 25.6002L51.4109 73.3502C51.4109 73.3502 51.3909 73.4402 51.3409 73.4602C51.3409 73.4602 51.3309 73.4602 51.3209 73.4602Z" fill="#CBCBCB"/>
<path d="M53.171 74.16C53.171 74.16 53.091 74.13 53.081 74.09L41.541 24.4C41.541 24.4 41.561 24.31 41.611 24.29C41.651 24.28 41.701 24.31 41.721 24.36L53.261 74.05C53.261 74.05 53.241 74.14 53.191 74.16C53.191 74.16 53.181 74.16 53.171 74.16Z" fill="#CBCBCB"/>
<path d="M36.6607 13.2501C36.6607 13.2501 36.5807 13.2201 36.5707 13.1801L35.9707 9.35009C35.9707 9.35009 36.0007 9.26009 36.0407 9.25009C36.1007 9.24009 36.1307 9.28009 36.1407 9.32009L36.7407 13.1501C36.7407 13.1501 36.7107 13.2401 36.6707 13.2501C36.6707 13.2501 36.6707 13.2501 36.6607 13.2501Z" fill="#CBCBCB"/>
<path d="M35.3302 14.4301C35.3302 14.4301 35.2502 14.4001 35.2402 14.3601L34.4902 9.66006C34.4902 9.66006 34.5202 9.57006 34.5602 9.56006C34.6102 9.56006 34.6502 9.58006 34.6602 9.63006L35.4102 14.3301C35.4102 14.3301 35.3802 14.4201 35.3402 14.4301C35.3402 14.4301 35.3402 14.4301 35.3302 14.4301Z" fill="#CBCBCB"/>
<path d="M38.1811 11.8899C38.1811 11.8899 38.1011 11.8599 38.0911 11.8199L37.6211 8.97988C37.6211 8.97988 37.6411 8.88988 37.6911 8.87988C37.7411 8.87988 37.7811 8.89988 37.7911 8.94988L38.2611 11.7899C38.2611 11.7899 38.2411 11.8799 38.1911 11.8899C38.1911 11.8899 38.1911 11.8899 38.1811 11.8899Z" fill="#CBCBCB"/>
<path d="M49.4707 72.7502C49.4707 72.7502 49.3907 72.7202 49.3807 72.6802L44.8007 52.9502L38.7207 26.8702C38.7207 26.8702 38.7407 26.7802 38.7907 26.7602C38.8307 26.7502 38.8807 26.7802 38.9007 26.8302L44.9807 52.9102L49.5607 72.6402C49.5607 72.6402 49.5407 72.7302 49.4907 72.7502C49.4907 72.7502 49.4807 72.7502 49.4707 72.7502Z" fill="#CBCBCB"/>
<path d="M34.5808 30.7298C34.5808 30.7298 34.5308 30.7198 34.5108 30.6998C34.4808 30.6598 34.4808 30.6098 34.5108 30.5798L35.9208 29.3498C35.9208 29.3498 36.0108 29.3198 36.0408 29.3498C36.0708 29.3898 36.0708 29.4398 36.0408 29.4698L34.6308 30.6998C34.6308 30.6998 34.5908 30.7198 34.5708 30.7198L34.5808 30.7298Z" fill="#CBCBCB"/>
<path d="M34.6704 30.8201C34.6704 30.8201 34.6204 30.8201 34.6104 30.7901C34.5804 30.7501 34.5804 30.7001 34.6104 30.6701L35.9304 29.4401C35.9304 29.4401 36.0204 29.4101 36.0504 29.4401C36.0804 29.4801 36.0804 29.5301 36.0504 29.5601L34.7304 30.7901C34.7304 30.7901 34.6904 30.8101 34.6704 30.8101V30.8201Z" fill="#CBCBCB"/>
<path d="M20.681 21.0098C20.681 21.0098 20.621 21.0098 20.591 20.9898C20.511 20.9598 20.461 20.8798 20.461 20.7898L20.291 14.1698C20.291 14.1098 20.311 14.0398 20.361 13.9998L30.151 5.21977C30.211 5.16977 30.291 5.14977 30.361 5.16977C30.431 5.18977 30.491 5.25977 30.511 5.32977L31.491 9.98977L32.601 9.83977C32.691 9.83977 32.791 9.87977 32.831 9.96977C32.871 10.0598 32.851 10.1598 32.781 10.2298L20.821 20.9498C20.821 20.9498 20.731 21.0098 20.671 21.0098H20.681ZM20.731 14.2598L20.891 20.3098L31.961 10.3898L31.351 10.4698C31.241 10.4798 31.131 10.4098 31.111 10.2998L30.161 5.80977L20.731 14.2698V14.2598Z" fill="#CBCBCB"/>
<path d="M28.3208 16.28C28.3208 16.28 28.2708 16.28 28.2608 16.25L27.2008 15.1C27.2008 15.1 27.1708 15.01 27.2008 14.98C27.2408 14.95 27.2908 14.95 27.3208 14.98L28.3808 16.13C28.3808 16.13 28.4108 16.22 28.3808 16.25C28.3608 16.27 28.3408 16.27 28.3208 16.27V16.28Z" fill="#CBCBCB"/>
<path d="M28.1499 17.7801C28.1499 17.7801 28.0899 17.7701 28.0799 17.7401C28.0499 17.7001 28.0599 17.6401 28.0999 17.6201L28.3599 17.4401C28.3599 17.4401 28.4599 17.4201 28.4799 17.4601C28.5099 17.5001 28.4999 17.5601 28.4599 17.5801L28.1999 17.7601C28.1999 17.7601 28.1699 17.7701 28.1499 17.7701V17.7801Z" fill="#CBCBCB"/>
<path d="M27.7095 16.8098C27.7095 16.8098 27.6595 16.8098 27.6495 16.7798L26.5895 15.6298C26.5895 15.6298 26.5595 15.5398 26.5895 15.5098C26.6295 15.4798 26.6795 15.4798 26.7095 15.5098L27.7695 16.6598C27.7695 16.6598 27.7995 16.7498 27.7695 16.7798C27.7495 16.7998 27.7295 16.7998 27.7095 16.7998V16.8098Z" fill="#CBCBCB"/>
<path d="M27.0906 17.4298C27.0906 17.4298 27.0406 17.4198 27.0206 17.3998L25.9606 16.1698C25.9606 16.1698 25.9306 16.0798 25.9606 16.0498C26.0006 16.0198 26.0506 16.0198 26.0806 16.0498L27.1406 17.2798C27.1406 17.2798 27.1706 17.3698 27.1406 17.3998C27.1206 17.4098 27.1006 17.4198 27.0806 17.4198L27.0906 17.4298Z" fill="#CBCBCB"/>
<path d="M26.4693 17.9602C26.4693 17.9602 26.4193 17.9602 26.4093 17.9302L25.3493 16.7802C25.3493 16.7802 25.3193 16.6902 25.3493 16.6602C25.3893 16.6302 25.4393 16.6302 25.4693 16.6602L26.5293 17.8102C26.5293 17.8102 26.5593 17.9002 26.5293 17.9302C26.5093 17.9502 26.4893 17.9502 26.4693 17.9502V17.9602Z" fill="#CBCBCB"/>
<path d="M25.8599 18.49C25.8599 18.49 25.8099 18.49 25.7999 18.46L24.7399 17.31C24.7399 17.31 24.7099 17.22 24.7399 17.19C24.7699 17.16 24.8299 17.16 24.8599 17.19L25.9199 18.34C25.9199 18.34 25.9499 18.43 25.9199 18.46C25.8999 18.48 25.8799 18.48 25.8599 18.48V18.49Z" fill="#CBCBCB"/>
<path d="M25.241 19.0998C25.241 19.0998 25.191 19.0898 25.171 19.0698L24.111 17.8398C24.111 17.8398 24.081 17.7498 24.111 17.7198C24.151 17.6898 24.201 17.6898 24.231 17.7198L25.291 18.9498C25.291 18.9498 25.321 19.0398 25.291 19.0698C25.271 19.0798 25.251 19.0898 25.231 19.0898L25.241 19.0998Z" fill="#CBCBCB"/>
<path d="M35.9909 29.4998C35.9909 29.4998 35.9409 29.4898 35.9209 29.4698C35.8909 29.4298 35.8909 29.3798 35.9209 29.3498L37.3309 28.1198C37.3309 28.1198 37.4209 28.0898 37.4509 28.1198C37.4809 28.1598 37.4809 28.2098 37.4509 28.2398L36.0409 29.4698C36.0409 29.4698 36.0009 29.4898 35.9809 29.4898L35.9909 29.4998Z" fill="#CBCBCB"/>
<path d="M35.9909 29.5901C35.9909 29.5901 35.9409 29.5801 35.9209 29.5601C35.8909 29.5201 35.8909 29.4701 35.9209 29.4401L37.3309 28.2101C37.3309 28.2101 37.4209 28.1801 37.4509 28.2101C37.4809 28.2501 37.4809 28.3001 37.4509 28.3301L36.0409 29.5601C36.0409 29.5601 36.0009 29.5801 35.9809 29.5801L35.9909 29.5901Z" fill="#CBCBCB"/>
<path d="M42.9509 52.3198C42.9509 52.3198 42.9309 52.3198 42.9209 52.3198L41.0709 51.6098L38.2509 50.4598C38.2509 50.4598 38.1809 50.3898 38.2009 50.3498C38.2209 50.3098 38.2709 50.2798 38.3109 50.2998L41.1309 51.4498L42.9809 52.1498C42.9809 52.1498 43.0509 52.2198 43.0309 52.2598C43.0209 52.2998 42.9809 52.3198 42.9509 52.3198Z" fill="#CBCBCB"/>
<path d="M48.671 54.69C48.671 54.69 48.651 54.69 48.641 54.69L38.161 50.64C38.161 50.64 38.091 50.57 38.111 50.53C38.131 50.49 38.181 50.46 38.221 50.48L48.701 54.53C48.701 54.53 48.771 54.6 48.751 54.64C48.741 54.67 48.701 54.7 48.671 54.7V54.69Z" fill="#CBCBCB"/>
<path d="M29.3804 16.6399C29.3804 16.6399 29.3204 16.6299 29.3104 16.5999C29.2804 16.5599 29.2904 16.4999 29.3304 16.4799L29.5904 16.2999C29.5904 16.2999 29.6904 16.2799 29.7104 16.3199C29.7404 16.3599 29.7304 16.4199 29.6904 16.4399L29.4304 16.6199C29.4304 16.6199 29.4004 16.6299 29.3804 16.6299V16.6399Z" fill="#CBCBCB"/>
<path d="M28.7602 17.25C28.7602 17.25 28.7202 17.25 28.7002 17.22C28.6702 17.19 28.6702 17.13 28.7002 17.1L28.9602 16.84C28.9602 16.84 29.0502 16.8 29.0802 16.84C29.1102 16.88 29.1102 16.93 29.0802 16.96L28.8202 17.22C28.8202 17.22 28.7802 17.25 28.7602 17.25Z" fill="#CBCBCB"/>
<path d="M27.5308 18.3098C27.5308 18.3098 27.4708 18.2998 27.4608 18.2698C27.4308 18.2298 27.4408 18.1698 27.4808 18.1498L27.7408 17.9698C27.7408 17.9698 27.8408 17.9498 27.8608 17.9898C27.8908 18.0298 27.8808 18.0898 27.8408 18.1098L27.5808 18.2898C27.5808 18.2898 27.5508 18.2998 27.5308 18.2998V18.3098Z" fill="#CBCBCB"/>
<path d="M26.9106 18.9302C26.9106 18.9302 26.8706 18.9302 26.8506 18.9002C26.8206 18.8702 26.8206 18.8102 26.8506 18.7802L27.1106 18.5202C27.1106 18.5202 27.2006 18.4902 27.2306 18.5202C27.2606 18.5502 27.2606 18.6102 27.2306 18.6402L26.9706 18.9002C26.9706 18.9002 26.9306 18.9302 26.9106 18.9302Z" fill="#CBCBCB"/>
<path d="M26.3003 19.4602C26.3003 19.4602 26.2403 19.4502 26.2303 19.4202C26.2003 19.3802 26.2103 19.3202 26.2503 19.3002L26.5103 19.1202C26.5103 19.1202 26.6103 19.1002 26.6303 19.1402C26.6603 19.1802 26.6503 19.2402 26.6103 19.2602L26.3503 19.4402C26.3503 19.4402 26.3203 19.4502 26.3003 19.4502V19.4602Z" fill="#CBCBCB"/>
<path d="M25.6792 19.9798C25.6792 19.9798 25.6192 19.9698 25.6092 19.9398C25.5792 19.8998 25.5892 19.8398 25.6292 19.8198L25.8892 19.6398C25.8892 19.6398 25.9892 19.6198 26.0092 19.6598C26.0392 19.6998 26.0292 19.7598 25.9892 19.7798L25.7292 19.9598C25.7292 19.9598 25.6992 19.9698 25.6792 19.9698V19.9798Z" fill="#CBCBCB"/>
<path d="M25.9399 19.8101C25.9399 19.8101 25.8999 19.8101 25.8799 19.7801C25.8499 19.7501 25.8499 19.6901 25.8799 19.6601L26.0599 19.4801C26.0599 19.4801 26.1499 19.4501 26.1799 19.4801C26.2099 19.5101 26.2099 19.5701 26.1799 19.6001L25.9999 19.7801C25.9999 19.7801 25.9599 19.8101 25.9399 19.8101Z" fill="#CBCBCB"/>
<path d="M25.3305 20.34C25.3305 20.34 25.2905 20.34 25.2705 20.31C25.2405 20.28 25.2405 20.22 25.2705 20.19L25.4505 20.01C25.4505 20.01 25.5405 19.97 25.5705 20.01C25.6005 20.05 25.6005 20.1 25.5705 20.13L25.3905 20.31C25.3905 20.31 25.3505 20.34 25.3305 20.34Z" fill="#CBCBCB"/>
<path d="M29.0298 16.9899C29.0298 16.9899 28.9898 16.9899 28.9698 16.9599C28.9398 16.9299 28.9398 16.8699 28.9698 16.8399L29.1498 16.6599C29.1498 16.6599 29.2398 16.6199 29.2698 16.6599C29.2998 16.6999 29.2998 16.7499 29.2698 16.7799L29.0898 16.9599C29.0898 16.9599 29.0498 16.9899 29.0298 16.9899Z" fill="#CBCBCB"/>
<path d="M13.52 65.8798C13.52 65.8798 13.5 65.8798 13.49 65.8798C13.45 65.8598 13.42 65.8098 13.44 65.7698L15.82 59.6898C15.82 59.6898 15.89 59.6198 15.93 59.6398C15.97 59.6598 16 59.7098 15.98 59.7498L13.6 65.8298C13.6 65.8298 13.55 65.8898 13.52 65.8898V65.8798Z" fill="#CBCBCB"/>
<path d="M37.2192 28.5299C37.2192 28.5299 37.1792 28.5299 37.1592 28.4999C37.1292 28.4699 37.1292 28.4099 37.1592 28.3799L37.3392 28.1999C37.3392 28.1999 37.4292 28.1699 37.4592 28.1999C37.4892 28.2299 37.4892 28.2899 37.4592 28.3199L37.2792 28.4999C37.2792 28.4999 37.2392 28.5299 37.2192 28.5299Z" fill="#CBCBCB"/>
<path d="M35.1899 64.3902C35.1899 64.3902 35.1599 64.3902 35.1499 64.3902L34.9699 64.3002C34.9699 64.3002 34.9099 64.2302 34.9299 64.1802C34.9499 64.1402 35.0099 64.1202 35.0499 64.1402L35.2299 64.2302C35.2299 64.2302 35.2899 64.3002 35.2699 64.3502C35.2499 64.3802 35.2199 64.4002 35.1899 64.4002V64.3902Z" fill="#CBCBCB"/>
<path d="M34.49 64.1199C34.49 64.1199 34.46 64.1199 34.44 64.1099L34.18 63.9299C34.18 63.9299 34.13 63.8499 34.16 63.8099C34.19 63.7699 34.24 63.7599 34.28 63.7899L34.54 63.9699C34.54 63.9699 34.59 64.0499 34.56 64.0899C34.54 64.1199 34.52 64.1299 34.49 64.1299V64.1199Z" fill="#CBCBCB"/>
<path d="M33.7006 63.7698C33.7006 63.7698 33.6806 63.7698 33.6706 63.7698L33.4106 63.6798C33.4106 63.6798 33.3406 63.6098 33.3506 63.5698C33.3606 63.5198 33.4106 63.4998 33.4606 63.5098L33.7206 63.5998C33.7206 63.5998 33.7906 63.6698 33.7806 63.7098C33.7706 63.7498 33.7306 63.7698 33.7006 63.7698Z" fill="#CBCBCB"/>
<path d="M32.1997 66.06C32.1997 66.06 32.1597 66.06 32.1397 66.03C32.1097 66 32.1097 65.94 32.1397 65.91L32.2297 65.82C32.2297 65.82 32.3197 65.78 32.3497 65.82C32.3797 65.86 32.3797 65.91 32.3497 65.94L32.2597 66.03C32.2597 66.03 32.2197 66.06 32.1997 66.06Z" fill="#CBCBCB"/>
<path d="M37.6606 68.0901C37.6606 68.0901 37.6406 68.0901 37.6306 68.0901C37.5906 68.0701 37.5606 68.0201 37.5806 67.9701L38.2006 66.4701C38.2006 66.4701 38.2706 66.4001 38.3106 66.4201C38.3506 66.4401 38.3806 66.4901 38.3606 66.5401L37.7406 68.0401C37.7406 68.0401 37.6906 68.0901 37.6606 68.0901Z" fill="#CBCBCB"/>
<path d="M32.8201 64.4699C32.8201 64.4699 32.8001 64.4699 32.7901 64.4699C32.7401 64.4499 32.7201 64.3999 32.7401 64.3599L33.0901 63.4799C33.0901 63.4799 33.1601 63.4099 33.2001 63.4299C33.2501 63.4499 33.2701 63.4999 33.2501 63.5399L32.9001 64.4199C32.9001 64.4199 32.8501 64.4799 32.8201 64.4799V64.4699Z" fill="#CBCBCB"/>
<path d="M33.3494 64.74C33.3494 64.74 33.3294 64.74 33.3194 64.74C33.2694 64.72 33.2494 64.67 33.2694 64.63L33.6194 63.66C33.6194 63.66 33.6894 63.59 33.7294 63.61C33.7794 63.63 33.7994 63.68 33.7794 63.72L33.4294 64.69C33.4294 64.69 33.3794 64.75 33.3494 64.75V64.74Z" fill="#CBCBCB"/>
<path d="M33.0801 64.6502C33.0801 64.6502 33.0501 64.6502 33.0301 64.6402L32.7601 64.4602C32.7601 64.4602 32.7101 64.3802 32.7401 64.3402C32.7701 64.3002 32.8201 64.2902 32.8601 64.3202L33.0301 64.4302L33.3401 63.5702C33.3401 63.5702 33.4101 63.5002 33.4501 63.5202C33.5001 63.5402 33.5201 63.5902 33.5001 63.6302L33.1501 64.6002C33.1501 64.6002 33.1201 64.6502 33.0901 64.6502C33.0901 64.6502 33.0701 64.6502 33.0601 64.6502H33.0801Z" fill="#CBCBCB"/>
<path d="M33.351 64.74C33.351 64.74 33.331 64.74 33.321 64.74L33.061 64.65C33.061 64.65 32.991 64.59 33.001 64.54C33.021 64.49 33.061 64.47 33.111 64.48L33.371 64.57C33.371 64.57 33.441 64.63 33.431 64.68C33.421 64.72 33.381 64.74 33.351 64.74Z" fill="#CBCBCB"/>
<path d="M33.6091 64.8299C33.6091 64.8299 33.5892 64.8299 33.5792 64.8299C33.5292 64.8099 33.5091 64.7599 33.5291 64.7199L33.8792 63.7499C33.8792 63.7499 33.9492 63.6799 33.9892 63.6999C34.0392 63.7199 34.0592 63.7699 34.0392 63.8099L33.6891 64.7799C33.6891 64.7799 33.6391 64.8399 33.6091 64.8399V64.8299Z" fill="#CBCBCB"/>
<path d="M34.1404 65.0001C34.1404 65.0001 34.1204 65.0001 34.1104 65.0001C34.0604 64.9801 34.0404 64.9301 34.0604 64.8901L34.4104 64.0101C34.4104 64.0101 34.4804 63.9401 34.5204 63.9601C34.5704 63.9801 34.5904 64.0301 34.5704 64.0701L34.2204 64.9501C34.2204 64.9501 34.1704 65.0101 34.1404 65.0101V65.0001Z" fill="#CBCBCB"/>
<path d="M33.8707 64.9102C33.8707 64.9102 33.8507 64.9102 33.8407 64.9102L33.5707 64.8202C33.5707 64.8202 33.5007 64.7602 33.5107 64.7102C33.5307 64.6602 33.5707 64.6402 33.6207 64.6502L33.8007 64.7102L34.1207 63.8202C34.1207 63.8202 34.1907 63.7502 34.2307 63.7702C34.2807 63.7902 34.3007 63.8402 34.2807 63.8802L33.9307 64.8502C33.9307 64.8502 33.8807 64.9102 33.8507 64.9102H33.8707Z" fill="#CBCBCB"/>
<path d="M34.14 64.9998C34.14 64.9998 34.12 64.9998 34.11 64.9998L33.85 64.9098C33.85 64.9098 33.78 64.8498 33.79 64.7998C33.81 64.7498 33.85 64.7298 33.9 64.7398L34.16 64.8298C34.16 64.8298 34.23 64.8898 34.22 64.9398C34.21 64.9798 34.17 64.9998 34.14 64.9998Z" fill="#CBCBCB"/>
<path d="M34.4002 65.09C34.4002 65.09 34.3802 65.09 34.3702 65.09C34.3202 65.07 34.3002 65.02 34.3202 64.98L34.6702 64.1C34.6702 64.1 34.7402 64.03 34.7802 64.05C34.8302 64.07 34.8502 64.12 34.8302 64.16L34.4802 65.04C34.4802 65.04 34.4302 65.1 34.4002 65.1V65.09Z" fill="#CBCBCB"/>
<path d="M34.8396 65.3499C34.8396 65.3499 34.8196 65.3499 34.8096 65.3499C34.7596 65.3299 34.7396 65.2799 34.7596 65.2399L35.1096 64.2699C35.1096 64.2699 35.1796 64.1999 35.2196 64.2199C35.2696 64.2399 35.2896 64.2899 35.2696 64.3299L34.9196 65.2999C34.9196 65.2999 34.8696 65.3599 34.8396 65.3599V65.3499Z" fill="#CBCBCB"/>
<path d="M34.5805 65.1801C34.5805 65.1801 34.5505 65.1801 34.5405 65.1801L34.3605 65.0901C34.3605 65.0901 34.3005 65.0201 34.3205 64.9701C34.3405 64.9301 34.4005 64.9101 34.4405 64.9301L34.5405 64.9801L34.9005 64.2701L34.7305 64.2101C34.7305 64.2101 34.6605 64.1401 34.6805 64.1001C34.6905 64.0501 34.7405 64.0301 34.7905 64.0401L35.0505 64.1301C35.0505 64.1301 35.0905 64.1601 35.1005 64.1801C35.1105 64.2001 35.1005 64.2301 35.1005 64.2501L34.6605 65.1301C34.6605 65.1301 34.6105 65.1801 34.5805 65.1801Z" fill="#CBCBCB"/>
<path d="M34.8396 65.3499C34.8396 65.3499 34.8096 65.3499 34.7896 65.3399L34.5296 65.1599C34.5296 65.1599 34.4796 65.0799 34.5096 65.0399C34.5396 64.9999 34.5896 64.9899 34.6296 65.0199L34.8896 65.1999C34.8896 65.1999 34.9396 65.2799 34.9096 65.3199C34.8896 65.3499 34.8696 65.3599 34.8396 65.3599V65.3499Z" fill="#CBCBCB"/>
<path d="M35.1093 65.4402C35.1093 65.4402 35.0893 65.4402 35.0693 65.4402C35.0293 65.4202 35.0093 65.3702 35.0293 65.3202L35.4693 64.3502C35.4693 64.3502 35.5393 64.2902 35.5893 64.3102C35.6293 64.3302 35.6493 64.3802 35.6293 64.4302L35.1893 65.4002C35.1893 65.4002 35.1393 65.4502 35.1093 65.4502V65.4402Z" fill="#CBCBCB"/>
<path d="M35.6404 65.6199C35.6404 65.6199 35.6204 65.6199 35.6104 65.6199C35.5604 65.5999 35.5404 65.5499 35.5604 65.5099L35.9104 64.5399C35.9104 64.5399 35.9804 64.4699 36.0204 64.4899C36.0704 64.5099 36.0904 64.5599 36.0704 64.5999L35.7204 65.5699C35.7204 65.5699 35.6704 65.6299 35.6404 65.6299V65.6199Z" fill="#CBCBCB"/>
<path d="M35.3709 65.5301C35.3709 65.5301 35.3509 65.5301 35.3409 65.5301L35.0809 65.4401C35.0809 65.4401 35.0109 65.3701 35.0309 65.3301C35.0409 65.2801 35.0909 65.2601 35.1409 65.2701L35.3209 65.3301L35.6209 64.5201L35.5109 64.4701C35.5109 64.4701 35.4509 64.4001 35.4709 64.3501C35.4909 64.3101 35.5509 64.2901 35.5909 64.3101L35.7709 64.4001C35.7709 64.4001 35.8309 64.4701 35.8109 64.5101L35.4609 65.4801C35.4609 65.4801 35.4109 65.5401 35.3809 65.5401L35.3709 65.5301Z" fill="#CBCBCB"/>
<path d="M35.64 65.6199C35.64 65.6199 35.62 65.6199 35.61 65.6199L35.35 65.5299C35.35 65.5299 35.28 65.4599 35.29 65.4199C35.3 65.3699 35.35 65.3499 35.4 65.3599L35.66 65.4499C35.66 65.4499 35.73 65.5199 35.72 65.5599C35.71 65.5999 35.67 65.6199 35.64 65.6199Z" fill="#CBCBCB"/>
<path d="M35.9897 64.6502C35.9897 64.6502 35.9696 64.6502 35.9596 64.6502L35.6997 64.5602C35.6997 64.5602 35.6296 64.4902 35.6396 64.4502C35.6496 64.4002 35.6997 64.3802 35.7497 64.3902L36.0096 64.4802C36.0096 64.4802 36.0796 64.5502 36.0696 64.5902C36.0596 64.6302 36.0197 64.6502 35.9897 64.6502Z" fill="#CBCBCB"/>
<path d="M35.9002 65.7101C35.9002 65.7101 35.8802 65.7101 35.8702 65.7101C35.8202 65.6901 35.8002 65.6401 35.8202 65.6001L36.1702 64.7201C36.1702 64.7201 36.2402 64.6501 36.2802 64.6701C36.3302 64.6901 36.3502 64.7401 36.3302 64.7801L35.9802 65.6601C35.9802 65.6601 35.9302 65.7201 35.9002 65.7201V65.7101Z" fill="#CBCBCB"/>
<path d="M36.4295 65.88C36.4295 65.88 36.4095 65.88 36.3995 65.88C36.3495 65.86 36.3295 65.81 36.3495 65.77L36.6995 64.89C36.6995 64.89 36.7695 64.82 36.8095 64.84C36.8595 64.86 36.8795 64.91 36.8595 64.95L36.5095 65.83C36.5095 65.83 36.4595 65.89 36.4295 65.89V65.88Z" fill="#CBCBCB"/>
<path d="M36.16 65.7902C36.16 65.7902 36.14 65.7902 36.13 65.7902L35.87 65.7002C35.87 65.7002 35.8 65.6302 35.82 65.5902C35.83 65.5402 35.88 65.5202 35.93 65.5302L36.12 65.5902L36.41 64.8702L36.23 64.8102C36.23 64.8102 36.16 64.7402 36.18 64.7002C36.19 64.6502 36.24 64.6302 36.29 64.6402L36.55 64.7302C36.55 64.7302 36.59 64.7502 36.6 64.7802C36.6 64.8002 36.61 64.8302 36.6 64.8502L36.25 65.7302C36.25 65.7302 36.2 65.7902 36.17 65.7902H36.16Z" fill="#CBCBCB"/>
<path d="M36.4311 65.8802C36.4311 65.8802 36.4111 65.8802 36.4011 65.8802L36.1411 65.7902C36.1411 65.7902 36.0711 65.7202 36.0811 65.6802C36.0911 65.6302 36.1411 65.6102 36.1911 65.6202L36.4511 65.7102C36.4511 65.7102 36.5211 65.7802 36.5111 65.8202C36.5011 65.8602 36.4611 65.8802 36.4311 65.8802Z" fill="#CBCBCB"/>
<path d="M36.7807 64.9998C36.7807 64.9998 36.7607 64.9998 36.7507 64.9998L36.4907 64.9098C36.4907 64.9098 36.4207 64.8398 36.4307 64.7998C36.4407 64.7498 36.4907 64.7298 36.5407 64.7398L36.8007 64.8298C36.8007 64.8298 36.8707 64.8998 36.8607 64.9398C36.8507 64.9798 36.8107 64.9998 36.7807 64.9998Z" fill="#CBCBCB"/>
<path d="M36.6892 66.0599C36.6892 66.0599 36.6692 66.0599 36.6592 66.0599C36.6092 66.0399 36.5892 65.9899 36.6092 65.9499L36.9592 64.9799C36.9592 64.9799 37.0292 64.9099 37.0692 64.9299C37.1192 64.9499 37.1392 64.9999 37.1192 65.0399L36.7692 66.0099C36.7692 66.0099 36.7192 66.0699 36.6892 66.0699V66.0599Z" fill="#CBCBCB"/>
<path d="M37.2205 66.24C37.2205 66.24 37.2005 66.24 37.1905 66.24C37.1405 66.22 37.1205 66.17 37.1405 66.13L37.4905 65.16C37.4905 65.16 37.5605 65.09 37.6005 65.11C37.6505 65.13 37.6705 65.18 37.6505 65.22L37.3005 66.19C37.3005 66.19 37.2505 66.25 37.2205 66.25V66.24Z" fill="#CBCBCB"/>
<path d="M36.9604 66.15C36.9604 66.15 36.9404 66.15 36.9304 66.15L36.6704 66.06C36.6704 66.06 36.6004 66 36.6104 65.95C36.6304 65.9 36.6804 65.88 36.7204 65.89L36.9004 65.95L37.1904 65.15L37.0104 65.09C37.0104 65.09 36.9404 65.02 36.9504 64.98C36.9604 64.93 37.0104 64.91 37.0604 64.92L37.3204 65.01C37.3204 65.01 37.3604 65.03 37.3704 65.06C37.3804 65.08 37.3804 65.11 37.3704 65.13L37.0204 66.1C37.0204 66.1 36.9704 66.16 36.9404 66.16L36.9604 66.15Z" fill="#CBCBCB"/>
<path d="M37.2201 66.24C37.2201 66.24 37.2001 66.24 37.1901 66.24L36.9301 66.15C36.9301 66.15 36.8601 66.08 36.8701 66.04C36.8801 65.99 36.9301 65.97 36.9801 65.98L37.2401 66.07C37.2401 66.07 37.3101 66.14 37.3001 66.18C37.2901 66.22 37.2501 66.24 37.2201 66.24Z" fill="#CBCBCB"/>
<path d="M37.5697 65.2698C37.5697 65.2698 37.5497 65.2698 37.5397 65.2698L37.2797 65.1798C37.2797 65.1798 37.2097 65.1098 37.2197 65.0698C37.2297 65.0198 37.2797 64.9998 37.3297 65.0098L37.5897 65.0998C37.5897 65.0998 37.6597 65.1698 37.6497 65.2098C37.6397 65.2498 37.5997 65.2698 37.5697 65.2698Z" fill="#CBCBCB"/>
<path d="M37.49 66.3201C37.49 66.3201 37.47 66.3201 37.46 66.3201C37.41 66.3001 37.39 66.2501 37.41 66.2101L37.76 65.2401C37.76 65.2401 37.83 65.1701 37.87 65.1901C37.92 65.2101 37.94 65.2601 37.92 65.3001L37.57 66.2701C37.57 66.2701 37.52 66.3301 37.49 66.3301V66.3201Z" fill="#CBCBCB"/>
<path d="M38.0193 66.5001C38.0193 66.5001 37.9993 66.5001 37.9893 66.5001C37.9393 66.4801 37.9193 66.4301 37.9393 66.3901L38.2893 65.5101C38.2893 65.5101 38.3593 65.4401 38.3993 65.4601C38.4493 65.4801 38.4693 65.5301 38.4493 65.5701L38.0993 66.4501C38.0993 66.4501 38.0493 66.5101 38.0193 66.5101V66.5001Z" fill="#CBCBCB"/>
<path d="M37.7494 66.4102C37.7494 66.4102 37.7294 66.4102 37.7194 66.4102L37.4594 66.3202C37.4594 66.3202 37.3894 66.2602 37.3994 66.2102C37.4094 66.1602 37.4694 66.1402 37.5094 66.1502L37.6894 66.2102L38.0094 65.3202C38.0094 65.3202 38.0794 65.2502 38.1194 65.2702C38.1694 65.2902 38.1894 65.3402 38.1694 65.3802L37.8194 66.3502C37.8194 66.3502 37.7694 66.4102 37.7394 66.4102H37.7494Z" fill="#CBCBCB"/>
<path d="M38.0092 66.4998C38.0092 66.4998 37.9892 66.4998 37.9792 66.4998L37.7192 66.4098C37.7192 66.4098 37.6492 66.3398 37.6592 66.2998C37.6692 66.2498 37.7192 66.2298 37.7692 66.2398L38.0292 66.3298C38.0292 66.3298 38.0992 66.3998 38.0892 66.4398C38.0792 66.4798 38.0392 66.4998 38.0092 66.4998Z" fill="#CBCBCB"/>
<path d="M38.3708 65.6199C38.3708 65.6199 38.3408 65.6199 38.3208 65.6099L38.0608 65.4299C38.0608 65.4299 38.0108 65.3499 38.0408 65.3099C38.0708 65.2699 38.1208 65.2599 38.1608 65.2899L38.4208 65.4699C38.4208 65.4699 38.4708 65.5499 38.4408 65.5899C38.4208 65.6199 38.4008 65.6299 38.3708 65.6299V65.6199Z" fill="#CBCBCB"/>
<path d="M38.281 66.59C38.281 66.59 38.261 66.59 38.251 66.59C38.201 66.57 38.181 66.52 38.201 66.48L38.551 65.6C38.551 65.6 38.621 65.53 38.661 65.55C38.711 65.57 38.731 65.62 38.711 65.66L38.361 66.54C38.361 66.54 38.311 66.6 38.281 66.6V66.59Z" fill="#CBCBCB"/>
<path d="M38.7205 66.8499C38.7205 66.8499 38.7005 66.8499 38.6905 66.8499C38.6405 66.8299 38.6205 66.7799 38.6405 66.7399L38.9905 65.7699C38.9905 65.7699 39.0605 65.6999 39.1005 65.7199C39.1505 65.7399 39.1705 65.7899 39.1505 65.8299L38.8005 66.7999C38.8005 66.7999 38.7505 66.8599 38.7205 66.8599V66.8499Z" fill="#CBCBCB"/>
<path d="M38.5404 66.6798C38.5404 66.6798 38.5204 66.6798 38.5104 66.6798L38.2504 66.5898C38.2504 66.5898 38.1804 66.5298 38.1904 66.4798C38.2104 66.4298 38.2604 66.4098 38.3004 66.4198L38.4904 66.4798L38.7804 65.7598L38.6104 65.6998C38.6104 65.6998 38.5404 65.6298 38.5504 65.5898C38.5604 65.5398 38.6104 65.5198 38.6604 65.5298L38.9204 65.6198C38.9204 65.6198 38.9604 65.6398 38.9704 65.6698C38.9704 65.6898 38.9804 65.7198 38.9704 65.7398L38.6204 66.6198C38.6204 66.6198 38.5704 66.6798 38.5404 66.6798Z" fill="#CBCBCB"/>
<path d="M38.7201 66.8501C38.7201 66.8501 38.6801 66.8501 38.6601 66.8201L38.4801 66.6401C38.4801 66.6401 38.4501 66.5501 38.4801 66.5201C38.5101 66.4901 38.5701 66.4901 38.6001 66.5201L38.7801 66.7001C38.7801 66.7001 38.8101 66.7901 38.7801 66.8201C38.7601 66.8401 38.7401 66.8501 38.7201 66.8501Z" fill="#CBCBCB"/>
<path d="M39.0707 65.8799C39.0707 65.8799 39.0407 65.8799 39.0307 65.8799L38.8507 65.7899C38.8507 65.7899 38.7907 65.7199 38.8107 65.6699C38.8307 65.6299 38.8907 65.6099 38.9307 65.6299L39.1107 65.7199C39.1107 65.7199 39.1707 65.7899 39.1507 65.8399C39.1307 65.8699 39.1007 65.8899 39.0707 65.8899V65.8799Z" fill="#CBCBCB"/>
<path d="M45.6808 71.2602C45.6808 71.2602 45.6608 71.2602 45.6508 71.2602L32.1708 66.0602C32.1708 66.0602 32.1008 65.9902 32.1208 65.9502C32.1408 65.9002 32.1908 65.8802 32.2308 65.9002L45.7108 71.1002C45.7108 71.1002 45.7808 71.1702 45.7608 71.2102C45.7508 71.2402 45.7108 71.2702 45.6808 71.2702V71.2602Z" fill="#CBCBCB"/>
<path d="M36.8696 67.8201C36.8696 67.8201 36.8496 67.8201 36.8396 67.8201C36.7996 67.8001 36.7696 67.7501 36.7896 67.7001L37.4096 66.2001C37.4096 66.2001 37.4796 66.1301 37.5196 66.1501C37.5596 66.1701 37.5896 66.2201 37.5696 66.2701L36.9496 67.7701C36.9496 67.7701 36.8996 67.8201 36.8696 67.8201Z" fill="#CBCBCB"/>
<path d="M37.0502 65.0901C37.0502 65.0901 37.0302 65.0901 37.0202 65.0901L36.7602 65.0001C36.7602 65.0001 36.6902 64.9401 36.7002 64.8901C36.7202 64.8401 36.7602 64.8201 36.8102 64.8301L37.0702 64.9201C37.0702 64.9201 37.1402 64.9801 37.1302 65.0301C37.1202 65.0701 37.0802 65.0901 37.0502 65.0901Z" fill="#CBCBCB"/>
<path d="M36.1606 67.4701C36.1606 67.4701 36.1406 67.4701 36.1306 67.4701C36.0906 67.4501 36.0606 67.4001 36.0806 67.3601L36.6106 65.9501C36.6106 65.9501 36.6806 65.8801 36.7206 65.9001C36.7606 65.9201 36.7906 65.9701 36.7706 66.0101L36.2406 67.4201C36.2406 67.4201 36.1906 67.4801 36.1606 67.4801V67.4701Z" fill="#CBCBCB"/>
<path d="M35.3709 67.2002C35.3709 67.2002 35.3509 67.2002 35.3409 67.2002C35.2909 67.1802 35.2709 67.1302 35.2909 67.0902L35.8209 65.5902C35.8209 65.5902 35.8909 65.5202 35.9309 65.5402C35.9809 65.5602 36.0009 65.6102 35.9809 65.6502L35.4509 67.1502C35.4509 67.1502 35.4009 67.2102 35.3709 67.2102V67.2002Z" fill="#CBCBCB"/>
<path d="M34.5805 66.85C34.5805 66.85 34.5605 66.85 34.5505 66.85C34.5105 66.83 34.4805 66.78 34.5005 66.74L35.0305 65.33C35.0305 65.33 35.1005 65.26 35.1405 65.28C35.1805 65.3 35.2105 65.35 35.1905 65.39L34.6605 66.8C34.6605 66.8 34.6105 66.86 34.5805 66.86V66.85Z" fill="#CBCBCB"/>
<path d="M33.7895 66.5901C33.7895 66.5901 33.7695 66.5901 33.7595 66.5901C33.7195 66.5701 33.6895 66.5201 33.7095 66.4701L34.3295 64.9701C34.3295 64.9701 34.3995 64.9001 34.4395 64.9201C34.4795 64.9401 34.5095 64.9901 34.4895 65.0401L33.8695 66.5401C33.8695 66.5401 33.8195 66.5901 33.7895 66.5901Z" fill="#CBCBCB"/>
<path d="M32.9909 66.2398C32.9909 66.2398 32.9709 66.2398 32.9509 66.2398C32.9109 66.2198 32.8809 66.1698 32.9009 66.1198L33.5209 64.7098C33.5209 64.7098 33.5909 64.6498 33.6409 64.6598C33.6809 64.6798 33.7109 64.7298 33.6909 64.7798L33.0709 66.1898C33.0709 66.1898 33.0209 66.2398 32.9909 66.2398Z" fill="#CBCBCB"/>
<path d="M35.3709 67.2C35.3709 67.2 35.3509 67.2 35.3309 67.2L34.5409 66.85L33.7509 66.59C33.7509 66.59 33.6809 66.52 33.7009 66.48C33.7109 66.43 33.7609 66.41 33.8109 66.42L34.6009 66.69L35.4009 67.04C35.4009 67.04 35.4609 67.11 35.4409 67.16C35.4309 67.19 35.3909 67.21 35.3609 67.21L35.3709 67.2Z" fill="#CBCBCB"/>
<path d="M38.6303 65.7098C38.6303 65.7098 38.6103 65.7098 38.6003 65.7098L38.3403 65.6198C38.3403 65.6198 38.2703 65.5498 38.2803 65.5098C38.2903 65.4598 38.3403 65.4398 38.3903 65.4498L38.6503 65.5398C38.6503 65.5398 38.7203 65.6098 38.7103 65.6498C38.7003 65.6898 38.6603 65.7098 38.6303 65.7098Z" fill="#CBCBCB"/>
<path d="M37.8393 65.3499C37.8393 65.3499 37.8193 65.3499 37.8093 65.3499L37.5493 65.2599C37.5493 65.2599 37.4793 65.1999 37.4893 65.1499C37.5093 65.0999 37.5493 65.0799 37.5993 65.0899L37.8593 65.1799C37.8593 65.1799 37.9293 65.2399 37.9193 65.2899C37.9093 65.3299 37.8693 65.3499 37.8393 65.3499Z" fill="#CBCBCB"/>
<path d="M36.2497 64.8299C36.2497 64.8299 36.2197 64.8299 36.1997 64.8199L35.9397 64.6399C35.9397 64.6399 35.8897 64.5599 35.9197 64.5199C35.9497 64.4799 35.9997 64.4699 36.0397 64.4999L36.2997 64.6799C36.2997 64.6799 36.3497 64.7599 36.3197 64.7999C36.2997 64.8299 36.2797 64.8399 36.2497 64.8399V64.8299Z" fill="#CBCBCB"/>
<path d="M35.5504 64.4699C35.5504 64.4699 35.5404 64.4699 35.5304 64.4699L35.1804 64.3799C35.1804 64.3799 35.1004 64.3199 35.1204 64.2699C35.1304 64.2199 35.1704 64.1899 35.2304 64.2099L35.5804 64.2999C35.5804 64.2999 35.6604 64.3599 35.6404 64.4099C35.6404 64.4499 35.5904 64.4799 35.5604 64.4799L35.5504 64.4699Z" fill="#CBCBCB"/>
<path d="M36.1603 67.4701C36.1603 67.4701 36.1403 67.4701 36.1303 67.4701L35.3403 67.2101C35.3403 67.2101 35.2703 67.1401 35.2803 67.1001C35.2903 67.0501 35.3403 67.0301 35.3903 67.0401L36.1803 67.3001C36.1803 67.3001 36.2503 67.3701 36.2403 67.4101C36.2303 67.4501 36.1903 67.4701 36.1603 67.4701Z" fill="#CBCBCB"/>
<path d="M33.7906 66.5902C33.7906 66.5902 33.7706 66.5902 33.7506 66.5902L32.9606 66.2402L32.2606 65.9802C32.2606 65.9802 32.1906 65.9102 32.2106 65.8702C32.2306 65.8202 32.2806 65.8002 32.3206 65.8202L33.0306 66.0902L33.8306 66.4402C33.8306 66.4402 33.8906 66.5102 33.8706 66.5602C33.8606 66.5902 33.8206 66.6102 33.7906 66.6102V66.5902Z" fill="#CBCBCB"/>
<path d="M34.7494 64.2098C34.7494 64.2098 34.7294 64.2098 34.7194 64.2098L34.4594 64.1198C34.4594 64.1198 34.3894 64.0498 34.3994 64.0098C34.4094 63.9598 34.4594 63.9398 34.5094 63.9498L34.7694 64.0398C34.7694 64.0398 34.8394 64.1098 34.8294 64.1498C34.8194 64.1898 34.7794 64.2098 34.7494 64.2098Z" fill="#CBCBCB"/>
<path d="M36.8703 67.8201C36.8703 67.8201 36.8403 67.8201 36.8303 67.8201L36.1203 67.4701C36.1203 67.4701 36.0603 67.4001 36.0803 67.3501C36.1003 67.3101 36.1603 67.2901 36.2003 67.3101L36.9103 67.6601C36.9103 67.6601 36.9703 67.7301 36.9503 67.7801C36.9303 67.8101 36.9003 67.8301 36.8703 67.8301V67.8201Z" fill="#CBCBCB"/>
<path d="M33.9604 63.8602C33.9604 63.8602 33.9404 63.8602 33.9304 63.8602L33.6704 63.7702C33.6704 63.7702 33.6004 63.7002 33.6104 63.6602C33.6204 63.6102 33.6704 63.5902 33.7204 63.6002L33.9804 63.6902C33.9804 63.6902 34.0504 63.7602 34.0404 63.8002C34.0304 63.8402 33.9904 63.8602 33.9604 63.8602Z" fill="#CBCBCB"/>
<path d="M45.6807 71.1702C45.6807 71.1702 45.6607 71.1702 45.6507 71.1702L37.6307 68.0902L36.8407 67.8302C36.8407 67.8302 36.7707 67.7602 36.7907 67.7202C36.8007 67.6702 36.8507 67.6502 36.9007 67.6602L37.6907 67.9302L45.7107 71.0102C45.7107 71.0102 45.7807 71.0802 45.7607 71.1202C45.7507 71.1502 45.7107 71.1802 45.6807 71.1802V71.1702Z" fill="#CBCBCB"/>
<path d="M34.2299 63.9402C34.2299 63.9402 34.2099 63.9402 34.1999 63.9402L33.9399 63.8502C33.9399 63.8502 33.8699 63.7802 33.8799 63.7402C33.8899 63.6902 33.9399 63.6702 33.9899 63.6802L34.2499 63.7702C34.2499 63.7702 34.3199 63.8402 34.3099 63.8802C34.2999 63.9202 34.2599 63.9402 34.2299 63.9402Z" fill="#CBCBCB"/>
<path d="M33.4311 63.68C33.4311 63.68 33.4111 63.68 33.4011 63.68L33.1411 63.59C33.1411 63.59 33.0711 63.52 33.0811 63.48C33.0911 63.43 33.1411 63.41 33.1911 63.42L33.4511 63.51C33.4511 63.51 33.5211 63.58 33.5111 63.62C33.5011 63.66 33.4611 63.68 33.4311 63.68Z" fill="#CBCBCB"/>
<path d="M38.101 65.4402C38.101 65.4402 38.081 65.4402 38.071 65.4402L37.811 65.3502C37.811 65.3502 37.741 65.2802 37.751 65.2402C37.761 65.1902 37.811 65.1702 37.861 65.1802L38.121 65.2702C38.121 65.2702 38.191 65.3402 38.181 65.3802C38.171 65.4202 38.131 65.4402 38.101 65.4402Z" fill="#CBCBCB"/>
<path d="M32.2908 65.9702C32.2908 65.9702 32.2708 65.9702 32.2608 65.9702C32.2108 65.9502 32.1908 65.9002 32.2108 65.8602L32.7408 64.3602C32.7408 64.3602 32.8108 64.2902 32.8508 64.3102C32.9008 64.3302 32.9208 64.3802 32.9008 64.4202L32.3708 65.9202C32.3708 65.9202 32.3208 65.9802 32.2908 65.9802V65.9702Z" fill="#CBCBCB"/>
<path d="M38.4493 68.35C38.4493 68.35 38.4293 68.35 38.4193 68.35L37.6293 68.09C37.6293 68.09 37.5593 68.02 37.5693 67.98C37.5793 67.93 37.6293 67.91 37.6793 67.92L38.4693 68.18C38.4693 68.18 38.5393 68.25 38.5293 68.29C38.5193 68.33 38.4793 68.35 38.4493 68.35Z" fill="#CBCBCB"/>
<path d="M15.9008 59.8C15.9008 59.8 15.8808 59.8 15.8708 59.8C15.8308 59.78 15.8008 59.73 15.8208 59.69L21.9008 44.1C21.9008 44.1 21.9708 44.03 22.0108 44.05C22.0508 44.07 22.0808 44.12 22.0608 44.16L15.9808 59.75C15.9808 59.75 15.9308 59.81 15.9008 59.81V59.8Z" fill="#CBCBCB"/>
<path d="M21.9806 44.2099C21.9806 44.2099 21.9006 44.1799 21.8906 44.1399L21.5406 42.3999L10.4606 29.9999C10.4606 29.9999 10.4306 29.9099 10.4606 29.8799C10.5006 29.8499 10.5506 29.8499 10.5806 29.8799L21.6806 42.2999C21.6806 42.2999 21.7006 42.3299 21.7006 42.3399L22.0506 44.0999C22.0506 44.0999 22.0306 44.1899 21.9806 44.1999C21.9806 44.1999 21.9706 44.1999 21.9606 44.1999L21.9806 44.2099Z" fill="#CBCBCB"/>
<path d="M31.3302 10.3401C31.3302 10.3401 31.3002 10.3401 31.2802 10.3301C31.2402 10.3001 31.2302 10.2501 31.2502 10.2101L37.6802 0.290093C37.6802 0.290093 37.7602 0.240093 37.8002 0.260093C37.8402 0.290093 37.8502 0.340093 37.8302 0.380093L31.4102 10.2901C31.4102 10.2901 31.3602 10.3301 31.3402 10.3301L31.3302 10.3401Z" fill="#CBCBCB"/>
<path d="M39.6492 8.50989C39.6492 8.50989 39.6192 8.50989 39.5992 8.49989L29.5992 2.34989C29.5992 2.34989 29.5492 2.26989 29.5692 2.22989C29.5992 2.18989 29.6492 2.17989 29.6892 2.19989L39.5092 8.23989L37.6592 0.359889C37.6592 0.359889 37.6792 0.269889 37.7292 0.249889C37.7792 0.229889 37.8192 0.269889 37.8392 0.319889L39.7392 8.40989C39.7392 8.40989 39.7392 8.47989 39.7092 8.49989C39.6892 8.50989 39.6792 8.51989 39.6592 8.51989L39.6492 8.50989Z" fill="#CBCBCB"/>
<path d="M19.401 9.86978C19.401 9.86978 19.351 9.86978 19.331 9.85978L14.611 8.27978C14.551 8.25978 14.511 8.21978 14.481 8.16978C14.451 8.11978 14.451 8.05978 14.471 7.99978L16.051 3.27978C16.091 3.15978 16.221 3.09978 16.331 3.13978L21.051 4.71978C21.111 4.73978 21.151 4.77978 21.181 4.82978C21.211 4.87978 21.211 4.93978 21.191 4.99978L19.611 9.71978C19.581 9.80978 19.491 9.86978 19.401 9.86978ZM14.951 7.92978L19.261 9.36978L20.701 5.05978L16.391 3.61978L14.951 7.92978Z" fill="#CBCBCB"/>
<path d="M56.3299 75.39C56.3299 75.39 56.3099 75.39 56.2999 75.39L54.5799 74.72C54.5799 74.72 54.5399 74.69 54.5299 74.67C54.5299 74.65 54.5299 74.62 54.5299 74.6L56.7099 69.39L56.1099 59.52L49.6999 39.74L48.0599 25.15L41.9199 6.28L38.3099 2.88C38.3099 2.88 38.2899 2.85 38.2899 2.84L37.6699 0.35C37.6699 0.35 37.6699 0.3 37.6699 0.28C37.6799 0.26 37.6999 0.25 37.7199 0.24L38.7899 0C38.7899 0 38.8499 0 38.8699 0.02L44.2699 4.83C44.2699 4.83 44.2899 4.85 44.2999 4.87L50.6999 24.61L52.3399 39.21L58.7499 58.96L59.4499 69.76C59.4499 69.76 59.4499 69.79 59.4399 69.81L56.4099 75.34C56.4099 75.34 56.3599 75.39 56.3299 75.39ZM54.7199 74.59L56.2899 75.2L59.2699 69.76L58.5799 59.01L52.1699 39.26L50.5299 24.66L44.1399 4.96L38.7899 0.18L37.8599 0.4L38.4499 2.78L42.0599 6.18C42.0599 6.18 42.0799 6.2 42.0799 6.22L48.2399 25.13L49.8799 39.72L56.2899 59.49C56.2899 59.49 56.2899 59.5 56.2899 59.51L56.8899 69.41C56.8899 69.41 56.8899 69.44 56.8899 69.45L54.7299 74.59H54.7199Z" fill="#CBCBCB"/>
<path d="M55.4597 75.0698C55.4597 75.0698 55.4297 75.0698 55.4197 75.0598C55.3797 75.0398 55.3597 74.9798 55.3897 74.9398L58.4497 69.6398L57.7897 59.1898L51.3697 39.4298L49.7297 24.8298L43.4297 5.3998L37.6897 0.399801C37.6897 0.399801 37.6497 0.309801 37.6897 0.279801C37.7297 0.249801 37.7797 0.239801 37.8097 0.279801L43.5697 5.2798C43.5697 5.2798 43.5897 5.2998 43.5997 5.3198L49.9097 24.7898L51.5497 39.3898L57.9597 59.1398C57.9597 59.1398 57.9597 59.1498 57.9597 59.1598L58.6197 69.6498C58.6197 69.6498 58.6197 69.6798 58.6097 69.6998L55.5297 75.0298C55.5297 75.0298 55.4797 75.0698 55.4497 75.0698H55.4597Z" fill="#CBCBCB"/>
<path d="M54.6107 74.72C54.6107 74.72 54.5807 74.72 54.5707 74.71C54.5307 74.69 54.5107 74.63 54.5407 74.59L57.5407 69.5L56.9207 59.37L50.5007 39.61L48.8607 25.01L42.6607 5.88998L38.0607 1.87998C38.0607 1.87998 38.0207 1.78998 38.0607 1.75998C38.0907 1.71998 38.1507 1.71998 38.1807 1.75998L42.7907 5.78998C42.7907 5.78998 42.8107 5.80998 42.8207 5.82998L49.0307 24.99L50.6707 39.59L57.0807 59.34C57.0807 59.34 57.0807 59.35 57.0807 59.36L57.7007 69.53C57.7007 69.53 57.7007 69.57 57.6907 69.58L54.6807 74.69C54.6807 74.69 54.6307 74.73 54.6007 74.73L54.6107 74.72Z" fill="#CBCBCB"/>
<path d="M54.6101 74.8502C54.6101 74.8502 54.5601 74.8502 54.5301 74.8302L16.0301 59.9902L14.6101 63.5802C14.5901 63.6302 14.5501 63.6802 14.4901 63.7002C14.4401 63.7202 14.3801 63.7202 14.3201 63.7002L12.8201 63.0802C12.7101 63.0302 12.6601 62.9102 12.7001 62.8002L20.1401 43.5402L9.0401 31.2202L0.0601048 21.1002C-0.0198952 21.0102 -0.00989516 20.8702 0.0801048 20.7902L1.3101 19.6402C1.3101 19.6402 1.4101 19.5802 1.4701 19.5802C1.5301 19.5802 1.5801 19.6102 1.6201 19.6502L10.5501 29.6202L31.9601 10.3902L31.3501 10.4702C31.2401 10.4802 31.1301 10.4102 31.1101 10.3002L29.4301 2.33021C29.4001 2.21021 29.4801 2.10021 29.5901 2.07021L37.7001 0.12021C37.8201 0.0902103 37.9401 0.16021 37.9601 0.28021L38.5601 2.70021L42.1401 6.07021C42.1401 6.07021 42.1901 6.13021 42.2001 6.16021L48.3601 25.0702L50.0101 39.7402L56.4101 59.4302C56.4101 59.4302 56.4101 59.4702 56.4201 59.4802L57.0201 69.3802C57.0201 69.3802 57.0201 69.4502 57.0001 69.4802L54.8101 74.7102C54.7701 74.7902 54.6901 74.8502 54.6101 74.8502ZM15.9001 59.5002C15.9001 59.5002 15.9501 59.5002 15.9801 59.5202L54.4901 74.3602L56.5801 69.3802L55.9901 59.5602L49.5901 39.8502L47.9401 25.1802L41.8101 6.37021L38.2301 2.99021C38.2301 2.99021 38.1801 2.92021 38.1701 2.88021L37.6101 0.60021L29.9301 2.44021L31.5201 10.0002L32.6301 9.85021C32.7201 9.85021 32.8201 9.89021 32.8601 9.98021C32.9001 10.0702 32.8801 10.1702 32.8101 10.2402L10.6701 30.1002C10.6701 30.1002 10.5701 30.1502 10.5101 30.1602C10.4501 30.1602 10.4001 30.1302 10.3601 30.0902L1.4401 20.1202L0.530105 20.9702L9.3701 30.9402L20.5601 43.3602C20.6201 43.4202 20.6301 43.5102 20.6001 43.5902L13.1901 62.7702L14.2801 63.2202L15.7001 59.6402C15.7301 59.5502 15.8201 59.5002 15.9101 59.5002H15.9001Z" fill="#CBCBCB"/>
<path d="M39.6492 10.5802C39.6492 10.5802 39.5692 10.5502 39.5592 10.5102L39.1992 8.53018C39.1992 8.53018 39.2192 8.44018 39.2692 8.43018C39.3192 8.43018 39.3592 8.45018 39.3692 8.50018L39.7292 10.4802C39.7292 10.4802 39.7092 10.5702 39.6592 10.5802C39.6592 10.5802 39.6492 10.5802 39.6392 10.5802H39.6492Z" fill="#CBCBCB"/>
</g>
<defs>
<clipPath id="clip0_961_28566">
<rect width="59.44" height="75.39" fill="white"/>
</clipPath>
</defs>
</svg>
