<svg width="62" height="54" viewBox="0 0 62 54" fill="none" xmlns="http://www.w3.org/2000/svg">
<g clip-path="url(#clip0_962_29052)">
<path d="M8.64961 11.3801L0.0996094 22.6501L18.3396 36.4801L26.8796 25.2101L35.4296 13.9301L17.1896 0.100098L8.63961 11.3801H8.64961Z" fill="#E9832F"/>
<path d="M52.87 42.4801L61.42 31.2901L43.18 17.3701L26 39.9201L44.24 53.7501L52.87 42.4801Z" fill="#E9832F"/>
<path d="M44.2399 53.8401C44.2399 53.8401 44.1999 53.8401 44.1899 53.8201L42.5999 52.5901C42.5999 52.5901 42.5499 52.5101 42.5799 52.4701L45.0499 49.1201C45.0499 49.1201 45.0899 49.0901 45.1099 49.0801C45.1299 49.0801 45.1599 49.0801 45.1799 49.1001L46.8499 50.4201C46.8499 50.4201 46.8899 50.5101 46.8599 50.5401L44.3099 53.8001C44.3099 53.8001 44.2699 53.8301 44.2399 53.8301V53.8401ZM42.7799 52.5001L44.2299 53.6301L46.6799 50.5101L45.1499 49.3001L42.7899 52.5101L42.7799 52.5001Z" fill="#CBCBCB"/>
<path d="M42.65 52.6099C42.65 52.6099 42.61 52.6099 42.6 52.5899L40.93 51.3599C40.93 51.3599 40.88 51.2799 40.91 51.2399L43.38 47.8899C43.38 47.8899 43.46 47.8399 43.5 47.8699L45.17 49.0999C45.17 49.0999 45.22 49.1799 45.19 49.2199L42.72 52.5699C42.72 52.5699 42.68 52.6099 42.65 52.6099ZM41.1 51.2699L42.63 52.3999L44.99 49.1899L43.46 48.0599L41.1 51.2699Z" fill="#CBCBCB"/>
<path d="M40.9787 51.3699C40.9787 51.3699 40.9387 51.3699 40.9287 51.3499L39.2587 50.1199C39.2587 50.1199 39.2287 50.0799 39.2188 50.0599C39.2188 50.0399 39.2188 50.0099 39.2388 49.9899L41.7887 46.6399C41.7887 46.6399 41.8287 46.6099 41.8487 46.6099C41.8787 46.6099 41.8987 46.6099 41.9187 46.6299L43.5087 47.8599C43.5087 47.8599 43.5587 47.9399 43.5287 47.9799L41.0588 51.3299C41.0588 51.3299 41.0188 51.3699 40.9888 51.3699H40.9787ZM39.4287 50.0299L40.9587 51.1599L43.3187 47.9499L41.8687 46.8199L39.4187 50.0299H39.4287Z" fill="#CBCBCB"/>
<path d="M39.2997 50.1401C39.2997 50.1401 39.2598 50.1401 39.2498 50.1201L37.5798 48.8001C37.5798 48.8001 37.5398 48.7101 37.5698 48.6801L40.1197 45.4201C40.1197 45.4201 40.1998 45.3801 40.2398 45.4001L41.9098 46.6301C41.9098 46.6301 41.9398 46.6701 41.9498 46.6901C41.9498 46.7101 41.9498 46.7401 41.9298 46.7601L39.3798 50.1101C39.3798 50.1101 39.3398 50.1401 39.3198 50.1401C39.3198 50.1401 39.3198 50.1401 39.3098 50.1401H39.2997ZM37.7498 48.7201L39.2898 49.9301L41.7398 46.7201L40.2097 45.5901L37.7597 48.7101L37.7498 48.7201Z" fill="#CBCBCB"/>
<path d="M37.6291 48.8201C37.6291 48.8201 37.5891 48.8201 37.5791 48.8001L35.9091 47.5701C35.9091 47.5701 35.8791 47.5301 35.8691 47.5101C35.8691 47.4901 35.8691 47.4601 35.8891 47.4401L38.4391 44.0901C38.4391 44.0901 38.4791 44.0601 38.4991 44.0601C38.5191 44.0601 38.5491 44.0601 38.5691 44.0801L40.2391 45.4001C40.2391 45.4001 40.2791 45.4901 40.2491 45.5201L37.6991 48.7801C37.6991 48.7801 37.6591 48.8101 37.6291 48.8101V48.8201ZM36.0791 47.4801L37.6091 48.6101L40.0591 45.4901L38.5191 44.2801L36.0691 47.4901L36.0791 47.4801Z" fill="#CBCBCB"/>
<path d="M35.9586 47.5802C35.9586 47.5802 35.9186 47.5802 35.9086 47.5602L34.3186 46.3302C34.3186 46.3302 34.2686 46.2502 34.2986 46.2102L36.7686 42.8602C36.7686 42.8602 36.8486 42.8102 36.8886 42.8402L38.5587 44.0702C38.5587 44.0702 38.5886 44.1102 38.5986 44.1302C38.5986 44.1502 38.5987 44.1802 38.5787 44.2002L36.0286 47.5502C36.0286 47.5502 35.9887 47.5802 35.9687 47.5802C35.9687 47.5802 35.9686 47.5802 35.9586 47.5802ZM34.4986 46.2402L35.9486 47.3702L38.3987 44.1602L36.8686 43.0302L34.5086 46.2402H34.4986Z" fill="#CBCBCB"/>
<path d="M34.3686 46.3501C34.3686 46.3501 34.3286 46.3501 34.3186 46.3301L32.6486 45.0101C32.6486 45.0101 32.6086 44.9301 32.6286 44.8901L35.0986 41.6301C35.0986 41.6301 35.1786 41.5901 35.2186 41.6101L36.8886 42.8401C36.8886 42.8401 36.9186 42.8801 36.9286 42.9001C36.9286 42.9201 36.9286 42.9501 36.9086 42.9701L34.4386 46.3201C34.4386 46.3201 34.3986 46.3501 34.3786 46.3601C34.3786 46.3601 34.3786 46.3601 34.3686 46.3601V46.3501ZM32.8186 44.9301L34.3586 46.1401L36.7186 42.9301L35.1886 41.8001L32.8286 44.9201L32.8186 44.9301Z" fill="#CBCBCB"/>
<path d="M32.6995 45.0299C32.6995 45.0299 32.6595 45.0299 32.6495 45.0099L30.9795 43.7799C30.9795 43.7799 30.9495 43.7399 30.9395 43.7199C30.9395 43.6999 30.9395 43.6699 30.9595 43.6499L33.4295 40.3899C33.4295 40.3899 33.5095 40.3499 33.5495 40.3699L35.2195 41.5999C35.2195 41.5999 35.2495 41.6399 35.2595 41.6599C35.2595 41.6799 35.2595 41.7099 35.2395 41.7299L32.7695 44.9899C32.7695 44.9899 32.7295 45.0299 32.6995 45.0299ZM31.1495 43.6899L32.6795 44.8199L35.0395 41.6999L33.5095 40.5699L31.1495 43.6899Z" fill="#CBCBCB"/>
<path d="M31.0198 43.8C31.0198 43.8 30.9798 43.8 30.9698 43.78L29.2998 42.55C29.2998 42.55 29.2698 42.51 29.2598 42.49C29.2598 42.47 29.2598 42.44 29.2798 42.42L31.8298 39.07C31.8298 39.07 31.8698 39.04 31.8898 39.04C31.9098 39.04 31.9398 39.04 31.9598 39.06L33.5498 40.38C33.5498 40.38 33.5898 40.46 33.5598 40.5L31.0898 43.76C31.0898 43.76 31.0498 43.8 31.0198 43.8ZM29.4698 42.46L30.9998 43.59L33.3598 40.47L31.9098 39.26L29.4598 42.46H29.4698Z" fill="#CBCBCB"/>
<path d="M29.3498 42.5598C29.3498 42.5598 29.3098 42.5598 29.2998 42.5398L27.6298 41.3098C27.6298 41.3098 27.5998 41.2698 27.5898 41.2498C27.5898 41.2298 27.5898 41.1998 27.6098 41.1798L30.1598 37.8298C30.1598 37.8298 30.2398 37.7898 30.2798 37.8098L31.9498 39.0398C31.9498 39.0398 31.9798 39.0798 31.9898 39.0998C31.9898 39.1198 31.9898 39.1498 31.9698 39.1698L29.4198 42.5198C29.4198 42.5198 29.3798 42.5498 29.3498 42.5498V42.5598ZM27.7998 41.2198L29.3298 42.3498L31.7798 39.1398L30.2498 38.0098L27.7998 41.2198Z" fill="#CBCBCB"/>
<path d="M27.6787 41.3301C27.6787 41.3301 27.6387 41.3301 27.6287 41.3101L25.9587 39.9901C25.9587 39.9901 25.9187 39.9001 25.9487 39.8701L28.5087 36.6101C28.5087 36.6101 28.5887 36.5701 28.6287 36.5901L30.2987 37.8201C30.2987 37.8201 30.3287 37.8601 30.3387 37.8801C30.3387 37.9001 30.3387 37.9301 30.3187 37.9501L27.7687 41.3001C27.7687 41.3001 27.7287 41.3301 27.7087 41.3301C27.7087 41.3301 27.7087 41.3301 27.6987 41.3301H27.6787ZM26.1287 39.9101L27.6687 41.1201L30.1187 37.9101L28.5887 36.7801L26.1387 39.9001L26.1287 39.9101Z" fill="#CBCBCB"/>
<path d="M50.3186 45.9099C50.3186 45.9099 50.2786 45.9099 50.2686 45.8899L48.5986 44.6599C48.5986 44.6599 48.5686 44.6199 48.5586 44.5999C48.5586 44.5799 48.5586 44.5499 48.5786 44.5299L51.1386 41.1799C51.1386 41.1799 51.2186 41.1399 51.2586 41.1599L52.9286 42.3899C52.9286 42.3899 52.9586 42.4299 52.9686 42.4499C52.9686 42.4699 52.9686 42.4999 52.9486 42.5199L50.3886 45.8699C50.3886 45.8699 50.3486 45.8999 50.3186 45.8999V45.9099ZM48.7686 44.5699L50.2986 45.6999L52.7486 42.4899L51.2186 41.3599L48.7686 44.5699Z" fill="#CBCBCB"/>
<path d="M48.6389 44.6799C48.6389 44.6799 48.5989 44.6799 48.5889 44.6599L46.9189 43.4299C46.9189 43.4299 46.8889 43.3899 46.8789 43.3699C46.8789 43.3499 46.8789 43.3199 46.8989 43.2999L49.4589 39.9499C49.4589 39.9499 49.5389 39.9099 49.5789 39.9299L51.2489 41.1599C51.2489 41.1599 51.2789 41.1999 51.2889 41.2199C51.2889 41.2399 51.2889 41.2699 51.2689 41.2899L48.7089 44.6399C48.7089 44.6399 48.6689 44.6699 48.6389 44.6699V44.6799ZM47.0889 43.3399L48.6189 44.4699L51.0689 41.2599L49.5389 40.1299L47.0889 43.3399Z" fill="#CBCBCB"/>
<path d="M46.97 43.4399C46.97 43.4399 46.93 43.4399 46.91 43.4199L45.32 42.0999C45.32 42.0999 45.28 42.0199 45.31 41.9799L47.78 38.7199C47.78 38.7199 47.86 38.6799 47.9 38.6999L49.57 39.9299C49.57 39.9299 49.6 39.9699 49.61 39.9899C49.61 40.0099 49.61 40.0399 49.59 40.0599L47.03 43.4099C47.03 43.4099 46.99 43.4399 46.97 43.4399ZM45.51 42.0199L46.96 43.2299L49.41 40.0199L47.88 38.8899L45.52 42.0099L45.51 42.0199Z" fill="#CBCBCB"/>
<path d="M45.3785 42.1199C45.3785 42.1199 45.3385 42.1199 45.3285 42.0999L43.6585 40.8699C43.6585 40.8699 43.6085 40.7899 43.6385 40.7499L46.1085 37.3999C46.1085 37.3999 46.1485 37.3699 46.1685 37.3599C46.1885 37.3599 46.2185 37.3599 46.2385 37.3799L47.9085 38.6999C47.9085 38.6999 47.9485 38.7799 47.9285 38.8199L45.4585 42.0799C45.4585 42.0799 45.4185 42.1199 45.3885 42.1199H45.3785ZM43.8285 40.7799L45.3585 41.9099L47.7185 38.7899L46.1785 37.5799L43.8185 40.7799H43.8285Z" fill="#CBCBCB"/>
<path d="M43.7086 40.8902C43.7086 40.8902 43.6686 40.8902 43.6586 40.8702L41.9886 39.6402C41.9886 39.6402 41.9386 39.5602 41.9686 39.5202L44.4386 36.1702C44.4386 36.1702 44.5186 36.1202 44.5586 36.1502L46.2286 37.3802C46.2286 37.3802 46.2586 37.4202 46.2686 37.4402C46.2686 37.4602 46.2686 37.4902 46.2486 37.5102L43.7786 40.8602C43.7786 40.8602 43.7386 40.9002 43.7086 40.9002V40.8902ZM42.1586 39.5502L43.6886 40.6802L46.0486 37.4702L44.5186 36.3402L42.1586 39.5502Z" fill="#CBCBCB"/>
<path d="M42.0302 39.6601C42.0302 39.6601 41.9902 39.6601 41.9802 39.6401L40.3102 38.3201C40.3102 38.3201 40.2702 38.2301 40.3002 38.2001L42.8602 34.9401C42.8602 34.9401 42.9402 34.8901 42.9802 34.9301L44.5702 36.1601C44.5702 36.1601 44.6202 36.2401 44.5902 36.2801L42.1202 39.6301C42.1202 39.6301 42.0802 39.6601 42.0602 39.6701C42.0602 39.6701 42.0602 39.6701 42.0502 39.6701L42.0302 39.6601ZM40.4802 38.2401L42.0102 39.4501L44.3702 36.2401L42.9202 35.1101L40.4702 38.2301L40.4802 38.2401Z" fill="#CBCBCB"/>
<path d="M40.3596 38.3298C40.3596 38.3298 40.3196 38.3298 40.3096 38.3098L38.6396 37.0798C38.6396 37.0798 38.6096 37.0398 38.5996 37.0198C38.5996 36.9998 38.5996 36.9698 38.6196 36.9498L41.1696 33.5998C41.1696 33.5998 41.2096 33.5698 41.2296 33.5698C41.2496 33.5698 41.2796 33.5698 41.2996 33.5898L42.9696 34.9098C42.9696 34.9098 43.0096 34.9998 42.9796 35.0298L40.4196 38.2898C40.4196 38.2898 40.3796 38.3198 40.3496 38.3198L40.3596 38.3298ZM38.8096 36.9898L40.3396 38.1198L42.7896 34.9998L41.2496 33.7898L38.7996 36.9998L38.8096 36.9898Z" fill="#CBCBCB"/>
<path d="M38.6897 37.0998C38.6897 37.0998 38.6497 37.0998 38.6397 37.0798L36.9697 35.8498C36.9697 35.8498 36.9397 35.8098 36.9297 35.7898C36.9297 35.7698 36.9297 35.7398 36.9497 35.7198L39.5097 32.3698C39.5097 32.3698 39.5897 32.3298 39.6297 32.3498L41.2997 33.5798C41.2997 33.5798 41.3297 33.6198 41.3397 33.6398C41.3397 33.6598 41.3397 33.6898 41.3197 33.7098L38.7597 37.0598C38.7597 37.0598 38.7197 37.0898 38.6897 37.0898V37.0998ZM37.1397 35.7598L38.6697 36.8898L41.1197 33.6798L39.5897 32.5498L37.1397 35.7598Z" fill="#CBCBCB"/>
<path d="M37.0094 35.8702C37.0094 35.8702 36.9694 35.8702 36.9594 35.8502L35.3694 34.6202C35.3694 34.6202 35.3194 34.5402 35.3494 34.5002L37.8194 31.1502C37.8194 31.1502 37.8994 31.1002 37.9394 31.1302L39.6094 32.3602C39.6094 32.3602 39.6394 32.4002 39.6494 32.4202C39.6494 32.4402 39.6494 32.4702 39.6294 32.4902L37.0694 35.8402C37.0694 35.8402 37.0294 35.8702 37.0094 35.8702C37.0094 35.8702 37.0094 35.8702 36.9994 35.8702H37.0094ZM35.5494 34.5302L36.9994 35.6602L39.4494 32.4502L37.9194 31.3202L35.5594 34.5302H35.5494Z" fill="#CBCBCB"/>
<path d="M35.4292 34.6299C35.4292 34.6299 35.3892 34.6299 35.3792 34.6099L33.7092 33.2899C33.7092 33.2899 33.6692 33.2099 33.6892 33.1699L36.1592 29.9099C36.1592 29.9099 36.2392 29.8699 36.2792 29.8899L37.9492 31.1199C37.9492 31.1199 37.9792 31.1599 37.9892 31.1799C37.9892 31.1999 37.9892 31.2299 37.9692 31.2499L35.4992 34.5999C35.4992 34.5999 35.4592 34.6299 35.4392 34.6399C35.4392 34.6399 35.4392 34.6399 35.4292 34.6399V34.6299ZM33.8792 33.2099L35.4192 34.4199L37.7792 31.2099L36.2492 30.0799L33.8892 33.1999L33.8792 33.2099Z" fill="#CBCBCB"/>
<path d="M33.7502 33.3098C33.7502 33.3098 33.7102 33.3098 33.7002 33.2898L32.0302 32.0598C32.0302 32.0598 32.0002 32.0198 31.9902 31.9998C31.9902 31.9798 31.9902 31.9498 32.0102 31.9298L34.5602 28.5798C34.5602 28.5798 34.6002 28.5498 34.6202 28.5498C34.6402 28.5498 34.6702 28.5498 34.6902 28.5698L36.2802 29.8898C36.2802 29.8898 36.3202 29.9698 36.2902 30.0098L33.8202 33.2698C33.8202 33.2698 33.7802 33.3098 33.7502 33.3098ZM32.2002 31.9698L33.7302 33.0998L36.0902 29.9798L34.6402 28.7698L32.1902 31.9798L32.2002 31.9698Z" fill="#CBCBCB"/>
<path d="M7.84984 16.04C7.84984 16.04 7.80984 16.04 7.79984 16.02L6.12984 14.79C6.12984 14.79 6.09984 14.75 6.08984 14.73C6.08984 14.71 6.08984 14.68 6.10984 14.66L8.57984 11.31C8.57984 11.31 8.61984 11.28 8.63984 11.27C8.65984 11.27 8.68984 11.27 8.70984 11.29L10.3798 12.61C10.3798 12.61 10.4198 12.69 10.3998 12.73L7.92984 15.99C7.92984 15.99 7.88984 16.03 7.85984 16.03L7.84984 16.04ZM6.29984 14.7L7.82984 15.83L10.1898 12.71L8.64984 11.5L6.28984 14.7H6.29984Z" fill="#CBCBCB"/>
<path d="M9.5288 17.3701C9.5288 17.3701 9.4888 17.3701 9.4788 17.3501L7.8088 16.0301C7.8088 16.0301 7.7688 15.9501 7.7888 15.9101L10.2588 12.6501C10.2588 12.6501 10.3388 12.6101 10.3788 12.6301L12.0488 13.8601C12.0488 13.8601 12.0788 13.9001 12.0888 13.9201C12.0888 13.9401 12.0888 13.9701 12.0688 13.9901L9.5988 17.3401C9.5988 17.3401 9.5588 17.3701 9.5388 17.3801C9.5388 17.3801 9.5388 17.3801 9.5288 17.3801V17.3701ZM7.9788 15.9501L9.5188 17.1601L11.8788 13.9501L10.3488 12.8201L7.9888 15.9401L7.9788 15.9501Z" fill="#CBCBCB"/>
<path d="M11.109 18.6002C11.109 18.6002 11.069 18.6002 11.059 18.5802L9.46904 17.3502C9.46904 17.3502 9.41904 17.2702 9.44904 17.2302L11.919 13.8802C11.919 13.8802 11.999 13.8302 12.039 13.8602L13.709 15.0902C13.709 15.0902 13.739 15.1302 13.749 15.1502C13.749 15.1702 13.749 15.2002 13.729 15.2202L11.179 18.5702C11.179 18.5702 11.139 18.6002 11.119 18.6002C11.119 18.6002 11.119 18.6002 11.109 18.6002ZM9.64904 17.2602L11.099 18.3902L13.549 15.1802L12.019 14.0502L9.65904 17.2602H9.64904Z" fill="#CBCBCB"/>
<path d="M12.7893 19.8298C12.7893 19.8298 12.7493 19.8298 12.7393 19.8098L11.0693 18.5798C11.0693 18.5798 11.0393 18.5398 11.0293 18.5198C11.0293 18.4998 11.0293 18.4698 11.0493 18.4498L13.5993 15.0998C13.5993 15.0998 13.6793 15.0598 13.7193 15.0798L15.3893 16.3098C15.3893 16.3098 15.4193 16.3498 15.4293 16.3698C15.4293 16.3898 15.4293 16.4198 15.4093 16.4398L12.8593 19.7898C12.8593 19.7898 12.8193 19.8198 12.7893 19.8198V19.8298ZM11.2393 18.4898L12.7693 19.6198L15.2193 16.4098L13.6893 15.2798L11.2393 18.4898Z" fill="#CBCBCB"/>
<path d="M14.4592 21.0701C14.4592 21.0701 14.4192 21.0701 14.4092 21.0501L12.7392 19.8201C12.7392 19.8201 12.7092 19.7801 12.6992 19.7601C12.6992 19.7401 12.6992 19.7101 12.7192 19.6901L15.2692 16.3401C15.2692 16.3401 15.3092 16.3101 15.3292 16.3101C15.3492 16.3101 15.3792 16.3101 15.3992 16.3301L17.0692 17.6501C17.0692 17.6501 17.1092 17.7301 17.0792 17.7701L14.5292 21.0301C14.5292 21.0301 14.4892 21.0601 14.4592 21.0601V21.0701ZM12.9092 19.7301L14.4392 20.8601L16.8892 17.7401L15.3492 16.5301L12.8992 19.7401L12.9092 19.7301Z" fill="#CBCBCB"/>
<path d="M16.1298 22.39C16.1298 22.39 16.0898 22.39 16.0798 22.37L14.4098 21.05C14.4098 21.05 14.3698 20.96 14.3998 20.93L16.9498 17.67C16.9498 17.67 17.0398 17.62 17.0698 17.66L18.6598 18.89C18.6598 18.89 18.7098 18.97 18.6798 19.01L16.2098 22.36C16.2098 22.36 16.1698 22.39 16.1498 22.4C16.1498 22.4 16.1498 22.4 16.1398 22.4L16.1298 22.39ZM14.5798 20.97L16.1098 22.18L18.4698 18.97L17.0198 17.84L14.5698 20.96L14.5798 20.97Z" fill="#CBCBCB"/>
<path d="M17.8101 23.6202C17.8101 23.6202 17.7701 23.6202 17.7601 23.6002L16.0901 22.3702C16.0901 22.3702 16.0401 22.2902 16.0701 22.2502L18.5401 18.9002C18.5401 18.9002 18.6201 18.8502 18.6601 18.8802L20.3301 20.1102C20.3301 20.1102 20.3601 20.1502 20.3701 20.1702C20.3701 20.1902 20.3701 20.2202 20.3501 20.2402L17.8801 23.5902C17.8801 23.5902 17.8401 23.6202 17.8201 23.6302C17.8201 23.6302 17.8201 23.6302 17.8101 23.6302V23.6202ZM16.2601 22.2802L17.7901 23.4102L20.1501 20.2002L18.6201 19.0702L16.2601 22.2802Z" fill="#CBCBCB"/>
<path d="M19.3903 24.8599C19.3903 24.8599 19.3503 24.8599 19.3403 24.8399L17.7503 23.6099C17.7503 23.6099 17.7003 23.5299 17.7303 23.4899L20.2003 20.1399C20.2003 20.1399 20.2803 20.0899 20.3203 20.1199L21.9903 21.3499C21.9903 21.3499 22.0203 21.3899 22.0303 21.4099C22.0303 21.4299 22.0303 21.4599 22.0103 21.4799L19.4603 24.8299C19.4603 24.8299 19.4203 24.8599 19.4003 24.8599C19.4003 24.8599 19.4003 24.8599 19.3903 24.8599ZM17.9303 23.5199L19.3803 24.6499L21.8303 21.4399L20.3003 20.3099L17.9403 23.5199H17.9303Z" fill="#CBCBCB"/>
<path d="M21.0686 26.0901C21.0686 26.0901 21.0286 26.0901 21.0186 26.0701L19.3486 24.8401C19.3486 24.8401 19.3186 24.8001 19.3086 24.7801C19.3086 24.7601 19.3086 24.7301 19.3286 24.7101L21.8786 21.3601C21.8786 21.3601 21.9186 21.3301 21.9386 21.3301C21.9586 21.3301 21.9886 21.3301 22.0086 21.3501L23.6786 22.6701C23.6786 22.6701 23.7186 22.7501 23.6886 22.7901L21.1386 26.0501C21.1386 26.0501 21.0986 26.0801 21.0686 26.0801V26.0901ZM19.5186 24.7501L21.0486 25.8801L23.4986 22.7601L21.9586 21.5501L19.5086 24.7601L19.5186 24.7501Z" fill="#CBCBCB"/>
<path d="M22.7392 27.4102C22.7392 27.4102 22.6992 27.4102 22.6892 27.3902L21.0192 26.0702C21.0192 26.0702 20.9792 25.9802 21.0092 25.9502L23.5592 22.6902C23.5592 22.6902 23.6392 22.6502 23.6792 22.6702L25.3492 23.9002C25.3492 23.9002 25.3792 23.9401 25.3892 23.9601C25.3892 23.9801 25.3892 24.0102 25.3692 24.0302L22.8192 27.3801C22.8192 27.3801 22.7792 27.4102 22.7592 27.4102C22.7592 27.4102 22.7592 27.4102 22.7492 27.4102H22.7392ZM21.1892 25.9902L22.7292 27.2002L25.1792 23.9902L23.6492 22.8602L21.1992 25.9802L21.1892 25.9902Z" fill="#CBCBCB"/>
<path d="M24.4202 28.6399C24.4202 28.6399 24.3802 28.6399 24.3702 28.6199L22.7002 27.3899C22.7002 27.3899 22.6702 27.3499 22.6602 27.3299C22.6602 27.3099 22.6602 27.2799 22.6802 27.2599L25.2302 23.9099C25.2302 23.9099 25.2702 23.8799 25.2902 23.8799C25.3102 23.8799 25.3402 23.8799 25.3602 23.8999L26.9502 25.1299C26.9502 25.1299 27.0002 25.2099 26.9702 25.2499L24.5002 28.5999C24.5002 28.5999 24.4602 28.6399 24.4302 28.6399H24.4202ZM22.8702 27.2999L24.4002 28.4299L26.7602 25.2199L25.3102 24.0899L22.8602 27.2999H22.8702Z" fill="#CBCBCB"/>
<path d="M1.7685 24.0601C1.7685 24.0601 1.7285 24.0601 1.7185 24.0401L0.0485008 22.7201C0.0485008 22.7201 0.00850078 22.6301 0.0385008 22.6001L2.5885 19.3401C2.5885 19.3401 2.6685 19.3001 2.7085 19.3201L4.3785 20.5501C4.3785 20.5501 4.4085 20.5901 4.4185 20.6101C4.4185 20.6301 4.4185 20.6601 4.3985 20.6801L1.8485 24.0301C1.8485 24.0301 1.8085 24.0601 1.7885 24.0601C1.7885 24.0601 1.7885 24.0601 1.7785 24.0601H1.7685ZM0.218501 22.6401L1.7585 23.8501L4.2085 20.6401L2.6785 19.5101L0.218501 22.6401Z" fill="#CBCBCB"/>
<path d="M3.44945 25.3C3.44945 25.3 3.40945 25.3 3.39945 25.28L1.72945 24.05C1.72945 24.05 1.69945 24.01 1.68945 23.99C1.68945 23.97 1.68945 23.94 1.70945 23.92L4.25945 20.57C4.25945 20.57 4.33945 20.53 4.37945 20.55L6.04945 21.78C6.04945 21.78 6.07945 21.82 6.08945 21.84C6.08945 21.86 6.08945 21.89 6.06945 21.91L3.50945 25.26C3.50945 25.26 3.46945 25.29 3.43945 25.29L3.44945 25.3ZM1.89945 23.96L3.42945 25.09L5.87945 21.88L4.34945 20.75L1.89945 23.96Z" fill="#CBCBCB"/>
<path d="M5.11937 26.53C5.11937 26.53 5.07938 26.53 5.06938 26.51L3.39938 25.28C3.39938 25.28 3.36937 25.24 3.35938 25.22C3.35938 25.2 3.35938 25.17 3.37938 25.15L5.92937 21.8C5.92937 21.8 5.96937 21.77 5.98937 21.77C6.01937 21.77 6.03938 21.77 6.05938 21.79L7.64937 23.02C7.64937 23.02 7.69938 23.1 7.66938 23.14L5.19937 26.49C5.19937 26.49 5.15937 26.52 5.13937 26.53C5.13937 26.53 5.13938 26.53 5.12938 26.53H5.11937ZM3.56938 25.19L5.09938 26.32L7.45938 23.11L6.00938 21.99L3.55938 25.2L3.56938 25.19Z" fill="#CBCBCB"/>
<path d="M6.79841 27.76C6.79841 27.76 6.75841 27.76 6.74841 27.74L5.07841 26.51C5.07841 26.51 5.02841 26.43 5.05841 26.39L7.52841 23.04C7.52841 23.04 7.56841 23.01 7.58841 23C7.60841 23 7.63841 23 7.65841 23.02L9.32841 24.34C9.32841 24.34 9.36841 24.42 9.34841 24.46L6.87841 27.72C6.87841 27.72 6.83841 27.76 6.80841 27.76H6.79841ZM5.24841 26.42L6.77841 27.55L9.13841 24.43L7.59841 23.22L5.23841 26.42H5.24841Z" fill="#CBCBCB"/>
<path d="M8.47021 29.0801C8.47021 29.0801 8.43021 29.0801 8.42021 29.0601L6.75021 27.7401C6.75021 27.7401 6.71021 27.6601 6.73021 27.6201L9.20021 24.3601C9.20021 24.3601 9.28021 24.3201 9.32021 24.3401L10.9902 25.5701C10.9902 25.5701 11.0402 25.6501 11.0102 25.6901L8.54021 29.0401C8.54021 29.0401 8.50021 29.0701 8.48021 29.0801C8.48021 29.0801 8.48021 29.0801 8.47021 29.0801ZM6.92021 27.6601L8.46021 28.8701L10.8202 25.6701L9.29021 24.5401L6.93021 27.6601H6.92021Z" fill="#CBCBCB"/>
<path d="M10.0602 30.3199C10.0602 30.3199 10.0202 30.3199 10.0102 30.2999L8.42021 29.0699C8.42021 29.0699 8.37021 28.9899 8.40021 28.9499L10.8702 25.5999C10.8702 25.5999 10.9502 25.5499 10.9902 25.5799L12.6602 26.8099C12.6602 26.8099 12.6902 26.8499 12.7002 26.8699C12.7002 26.8899 12.7002 26.9199 12.6802 26.9399L10.1302 30.2899C10.1302 30.2899 10.0902 30.3199 10.0702 30.3199C10.0702 30.3199 10.0702 30.3199 10.0602 30.3199ZM8.60021 28.9799L10.0502 30.1099L12.5002 26.8999L10.9702 25.7699L8.61021 28.9799H8.60021Z" fill="#CBCBCB"/>
<path d="M11.7287 31.55C11.7287 31.55 11.6888 31.55 11.6788 31.53L10.0087 30.3C10.0087 30.3 9.97875 30.26 9.96875 30.24C9.96875 30.22 9.96875 30.19 9.98875 30.17L12.5387 26.82C12.5387 26.82 12.5788 26.79 12.5988 26.79C12.6188 26.79 12.6487 26.79 12.6687 26.81L14.3387 28.13C14.3387 28.13 14.3788 28.22 14.3488 28.25L11.7987 31.51C11.7987 31.51 11.7587 31.54 11.7287 31.54V31.55ZM10.1788 30.21L11.7087 31.34L14.1587 28.22L12.6187 27.01L10.1687 30.22L10.1788 30.21Z" fill="#CBCBCB"/>
<path d="M13.3987 32.7799C13.3987 32.7799 13.3587 32.7799 13.3487 32.7599L11.6787 31.5299C11.6787 31.5299 11.6487 31.4899 11.6387 31.4699C11.6387 31.4499 11.6387 31.4199 11.6587 31.3999L14.2087 28.1399C14.2087 28.1399 14.2887 28.0999 14.3287 28.1199L15.9987 29.3499C15.9987 29.3499 16.0287 29.3899 16.0387 29.4099C16.0387 29.4299 16.0387 29.4599 16.0187 29.4799L13.4587 32.7399C13.4587 32.7399 13.4187 32.7699 13.3887 32.7699L13.3987 32.7799ZM11.8487 31.4399L13.3787 32.5699L15.8287 29.4499L14.2987 28.3199L11.8487 31.4399Z" fill="#CBCBCB"/>
<path d="M15.079 34.1098C15.079 34.1098 15.039 34.1098 15.029 34.0898L13.359 32.7698C13.359 32.7698 13.319 32.6798 13.349 32.6498L15.899 29.3898C15.899 29.3898 15.979 29.3498 16.019 29.3798L17.609 30.6098C17.609 30.6098 17.659 30.6898 17.629 30.7298L15.159 34.0798C15.159 34.0798 15.119 34.1098 15.099 34.1198C15.099 34.1198 15.099 34.1198 15.089 34.1198L15.079 34.1098ZM13.529 32.6898L15.059 33.8998L17.419 30.6898L15.969 29.5598L13.519 32.6798L13.529 32.6898Z" fill="#CBCBCB"/>
<path d="M16.7502 35.3398C16.7502 35.3398 16.7102 35.3398 16.7002 35.3198L15.0302 34.0898C15.0302 34.0898 15.0002 34.0498 14.9902 34.0298C14.9902 34.0098 14.9902 33.9798 15.0102 33.9598L17.4802 30.6098C17.4802 30.6098 17.5202 30.5798 17.5402 30.5698C17.5602 30.5698 17.5902 30.5698 17.6102 30.5898L19.2802 31.8198C19.2802 31.8198 19.3302 31.8998 19.3002 31.9398L16.8302 35.2898C16.8302 35.2898 16.7902 35.3298 16.7602 35.3298L16.7502 35.3398ZM15.2002 33.9998L16.7302 35.1298L19.0902 31.9198L17.5602 30.7898L15.2002 33.9998Z" fill="#CBCBCB"/>
<path d="M18.3395 36.5701C18.3395 36.5701 18.2995 36.5701 18.2895 36.5501L16.6995 35.3201C16.6995 35.3201 16.6495 35.2401 16.6795 35.2001L19.1495 31.8501C19.1495 31.8501 19.1895 31.8201 19.2095 31.8101C19.2295 31.8101 19.2595 31.8101 19.2795 31.8301L20.9495 33.1501C20.9495 33.1501 20.9895 33.2401 20.9595 33.2701L18.4095 36.5301C18.4095 36.5301 18.3695 36.5601 18.3395 36.5601V36.5701ZM16.8795 35.2301L18.3295 36.3601L20.7795 33.2401L19.2495 32.0301L16.8895 35.2401L16.8795 35.2301Z" fill="#CBCBCB"/>
<path d="M16.3987 4.76977C16.3987 4.76977 16.3587 4.76977 16.3487 4.74977L14.6787 3.51977C14.6787 3.51977 14.6487 3.47977 14.6387 3.45977C14.6387 3.43977 14.6387 3.40977 14.6587 3.38977L17.1187 0.0497656C17.1187 0.0497656 17.1587 0.0197656 17.1787 0.00976562C17.2087 0.00976562 17.2287 0.00976562 17.2487 0.0297656L18.9187 1.34977C18.9187 1.34977 18.9587 1.42977 18.9387 1.46977L16.4687 4.72977C16.4687 4.72977 16.4287 4.76977 16.3987 4.76977ZM14.8487 3.42977L16.3787 4.55977L18.7387 1.43977L17.1987 0.229766L14.8387 3.43977L14.8487 3.42977Z" fill="#CBCBCB"/>
<path d="M18.0686 6.00007C18.0686 6.00007 18.0286 6.00007 18.0186 5.98007L16.3486 4.75007C16.3486 4.75007 16.3186 4.71007 16.3086 4.69007C16.3086 4.67007 16.3086 4.64007 16.3286 4.62007L18.7986 1.36007C18.7986 1.36007 18.8786 1.32007 18.9186 1.34007L20.5886 2.57007C20.5886 2.57007 20.6186 2.61007 20.6286 2.63007C20.6286 2.65007 20.6286 2.68007 20.6086 2.70007L18.1386 5.96007C18.1386 5.96007 18.0986 6.00007 18.0686 6.00007ZM16.5186 4.66007L18.0486 5.79007L20.4086 2.67007L18.8786 1.54007L16.5186 4.66007Z" fill="#CBCBCB"/>
<path d="M19.6594 7.31982C19.6594 7.31982 19.6194 7.31982 19.5994 7.29982L18.0094 5.97982C18.0094 5.97982 17.9694 5.89982 17.9994 5.85982L20.4694 2.59982C20.4694 2.59982 20.5494 2.55982 20.5894 2.57982L22.2594 3.80982C22.2594 3.80982 22.2894 3.84982 22.2994 3.86982C22.2994 3.88982 22.2994 3.91982 22.2794 3.93982L19.7194 7.28982C19.7194 7.28982 19.6794 7.31982 19.6594 7.31982ZM18.1994 5.89982L19.6494 7.10982L22.0994 3.90982L20.5694 2.77982L18.2094 5.89982H18.1994Z" fill="#CBCBCB"/>
<path d="M21.3303 8.5598C21.3303 8.5598 21.2903 8.5598 21.2803 8.5398L19.6103 7.3098C19.6103 7.3098 19.5803 7.2698 19.5703 7.2498C19.5703 7.2298 19.5703 7.1998 19.5903 7.1798L22.1403 3.8298C22.1403 3.8298 22.2203 3.7898 22.2603 3.8098L23.9303 5.0398C23.9303 5.0398 23.9603 5.0798 23.9703 5.0998C23.9703 5.1198 23.9703 5.1498 23.9503 5.1698L21.3903 8.5198C21.3903 8.5198 21.3503 8.5498 21.3203 8.5498L21.3303 8.5598ZM19.7803 7.2198L21.3103 8.3498L23.7603 5.1398L22.2303 4.0098L19.7803 7.2198Z" fill="#CBCBCB"/>
<path d="M23.01 9.78978C23.01 9.78978 22.97 9.78979 22.96 9.76979L21.29 8.53978C21.29 8.53978 21.26 8.49978 21.25 8.47978C21.25 8.45978 21.25 8.42978 21.27 8.40978L23.83 5.05978C23.83 5.05978 23.87 5.02979 23.89 5.02979C23.91 5.02979 23.94 5.02979 23.96 5.04979L25.63 6.36978C25.63 6.36978 25.67 6.45978 25.64 6.48978L23.08 9.74978C23.08 9.74978 23.04 9.77978 23.01 9.77978V9.78978ZM21.46 8.44978L22.99 9.57978L25.44 6.45978L23.9 5.24978L21.45 8.45978L21.46 8.44978Z" fill="#CBCBCB"/>
<path d="M24.6787 11.1098C24.6787 11.1098 24.6387 11.1098 24.6287 11.0898L22.9587 9.76977C22.9587 9.76977 22.9187 9.67977 22.9487 9.64977L25.5087 6.38977C25.5087 6.38977 25.5987 6.33977 25.6287 6.37977L27.2187 7.60977C27.2187 7.60977 27.2687 7.68977 27.2387 7.72977L24.7687 11.0798C24.7687 11.0798 24.7287 11.1098 24.7087 11.1198C24.7087 11.1198 24.7087 11.1198 24.6987 11.1198L24.6787 11.1098ZM23.1287 9.68977L24.6587 10.8998L27.0187 7.68977L25.5687 6.55977L23.1187 9.67977L23.1287 9.68977Z" fill="#CBCBCB"/>
<path d="M26.3492 12.3502C26.3492 12.3502 26.3092 12.3502 26.2992 12.3302L24.6292 11.1002C24.6292 11.1002 24.5792 11.0202 24.6092 10.9802L27.0792 7.63017C27.0792 7.63017 27.1592 7.58017 27.1992 7.61017L28.8692 8.84017C28.8692 8.84017 28.8992 8.88017 28.9092 8.90017C28.9092 8.92017 28.9092 8.95017 28.8892 8.97017L26.4192 12.3202C26.4192 12.3202 26.3792 12.3602 26.3492 12.3602V12.3502ZM24.7992 11.0102L26.3292 12.1402L28.6892 8.93017L27.1592 7.80017L24.7992 11.0102Z" fill="#CBCBCB"/>
<path d="M27.9391 13.5802C27.9391 13.5802 27.8991 13.5802 27.8891 13.5602L26.2991 12.3302C26.2991 12.3302 26.2491 12.2502 26.2791 12.2102L28.7491 8.86015C28.7491 8.86015 28.8291 8.81015 28.8691 8.84015L30.5391 10.0702C30.5391 10.0702 30.5691 10.1102 30.5791 10.1302C30.5791 10.1502 30.5791 10.1802 30.5591 10.2002L27.9991 13.5502C27.9991 13.5502 27.9591 13.5802 27.9391 13.5802C27.9391 13.5802 27.9391 13.5802 27.9291 13.5802H27.9391ZM26.4791 12.2402L27.9291 13.3602L30.3791 10.1502L28.8491 9.02015L26.4891 12.2302L26.4791 12.2402Z" fill="#CBCBCB"/>
<path d="M29.6096 14.8098C29.6096 14.8098 29.5696 14.8098 29.5596 14.7898L27.8896 13.5598C27.8896 13.5598 27.8596 13.5198 27.8496 13.4998C27.8496 13.4798 27.8496 13.4498 27.8696 13.4298L30.4296 10.0798C30.4296 10.0798 30.4696 10.0498 30.4896 10.0498C30.5096 10.0498 30.5396 10.0498 30.5596 10.0698L32.2296 11.3898C32.2296 11.3898 32.2696 11.4798 32.2396 11.5098L29.6796 14.7698C29.6796 14.7698 29.6396 14.7998 29.6096 14.7998V14.8098ZM28.0596 13.4698L29.5896 14.5998L32.0396 11.4798L30.4996 10.2698L28.0496 13.4798L28.0596 13.4698Z" fill="#CBCBCB"/>
<path d="M31.29 16.1299C31.29 16.1299 31.25 16.1299 31.24 16.1099L29.57 14.7899C29.57 14.7899 29.53 14.6999 29.56 14.6699L32.12 11.4099C32.12 11.4099 32.2 11.3699 32.24 11.3899L33.91 12.6199C33.91 12.6199 33.94 12.6599 33.95 12.6799C33.95 12.6999 33.95 12.7299 33.93 12.7499L31.37 16.0999C31.37 16.0999 31.33 16.1299 31.31 16.1299C31.31 16.1299 31.31 16.1299 31.3 16.1299H31.29ZM29.74 14.7099L31.28 15.9199L33.73 12.7099L32.2 11.5799L29.75 14.6999L29.74 14.7099Z" fill="#CBCBCB"/>
<path d="M32.9592 17.3699C32.9592 17.3699 32.9192 17.3699 32.9092 17.3499L31.2392 16.1199C31.2392 16.1199 31.2092 16.0799 31.1992 16.0599C31.1992 16.0399 31.1992 16.0099 31.2192 15.9899L33.7792 12.6399C33.7792 12.6399 33.8192 12.6099 33.8392 12.6099C33.8592 12.6099 33.8892 12.6099 33.9092 12.6299L35.4992 13.8599C35.4992 13.8599 35.5492 13.9399 35.5192 13.9799L33.0492 17.3299C33.0492 17.3299 33.0092 17.3699 32.9792 17.3699H32.9592ZM31.4092 16.0299L32.9392 17.1599L35.2992 13.9499L33.8492 12.8299L31.3992 16.0399L31.4092 16.0299Z" fill="#CBCBCB"/>
<path d="M10.3193 12.79C10.3193 12.79 10.2793 12.79 10.2693 12.77L8.59928 11.45C8.59928 11.45 8.55928 11.36 8.58928 11.33L11.1393 8.07003C11.1393 8.07003 11.2193 8.03003 11.2593 8.05003L12.9293 9.28003C12.9293 9.28003 12.9593 9.32003 12.9693 9.34003C12.9693 9.36003 12.9693 9.39003 12.9493 9.41003L10.3993 12.76C10.3993 12.76 10.3593 12.79 10.3393 12.79C10.3393 12.79 10.3393 12.79 10.3293 12.79H10.3193ZM8.76928 11.37L10.3093 12.58L12.7593 9.37003L11.2293 8.24003L8.77928 11.36L8.76928 11.37Z" fill="#CBCBCB"/>
<path d="M11.9885 14.0198C11.9885 14.0198 11.9485 14.0198 11.9385 13.9998L10.2685 12.7698C10.2685 12.7698 10.2385 12.7298 10.2285 12.7098C10.2285 12.6898 10.2285 12.6598 10.2485 12.6398L12.7985 9.28976C12.7985 9.28976 12.8785 9.24976 12.9185 9.26976L14.5885 10.4998C14.5885 10.4998 14.6185 10.5398 14.6285 10.5598C14.6285 10.5798 14.6285 10.6098 14.6085 10.6298L12.0585 13.9798C12.0585 13.9798 12.0185 14.0098 11.9885 14.0098V14.0198ZM10.4385 12.6798L11.9685 13.8098L14.4185 10.5998L12.8885 9.46976L10.4385 12.6798Z" fill="#CBCBCB"/>
<path d="M13.6702 15.2502C13.6702 15.2502 13.6302 15.2502 13.6202 15.2302L11.9502 14.0002C11.9502 14.0002 11.9202 13.9602 11.9102 13.9402C11.9102 13.9202 11.9102 13.8902 11.9302 13.8702L14.4802 10.5202C14.4802 10.5202 14.5202 10.4902 14.5402 10.4902C14.5702 10.4902 14.5902 10.4902 14.6102 10.5102L16.2002 11.7402C16.2002 11.7402 16.2502 11.8202 16.2202 11.8602L13.7502 15.2102C13.7502 15.2102 13.7102 15.2402 13.6902 15.2502C13.6902 15.2502 13.6902 15.2502 13.6802 15.2502H13.6702ZM12.1202 13.9102L13.6502 15.0402L16.0102 11.8302L14.5602 10.7102L12.1102 13.9202L12.1202 13.9102Z" fill="#CBCBCB"/>
<path d="M15.3394 16.49C15.3394 16.49 15.2994 16.49 15.2894 16.47L13.6194 15.24C13.6194 15.24 13.5694 15.16 13.5994 15.12L16.0694 11.77C16.0694 11.77 16.1094 11.74 16.1294 11.73C16.1494 11.73 16.1794 11.73 16.1994 11.75L17.8694 13.07C17.8694 13.07 17.9094 13.15 17.8894 13.19L15.4194 16.45C15.4194 16.45 15.3794 16.49 15.3494 16.49H15.3394ZM13.7894 15.15L15.3194 16.28L17.6794 13.16L16.1394 11.95L13.7794 15.15H13.7894Z" fill="#CBCBCB"/>
<path d="M17.019 17.8101C17.019 17.8101 16.979 17.8101 16.969 17.7901L15.299 16.4701C15.299 16.4701 15.259 16.3901 15.279 16.3501L17.749 13.0901C17.749 13.0901 17.829 13.0501 17.869 13.0701L19.539 14.3001C19.539 14.3001 19.569 14.3401 19.579 14.3601C19.579 14.3801 19.579 14.4101 19.559 14.4301L17.089 17.7801C17.089 17.7801 17.049 17.8101 17.029 17.8201C17.029 17.8201 17.029 17.8201 17.019 17.8201V17.8101ZM15.469 16.3901L17.009 17.6001L19.369 14.3901L17.839 13.2601L15.479 16.3801L15.469 16.3901Z" fill="#CBCBCB"/>
<path d="M18.5993 19.0401C18.5993 19.0401 18.5593 19.0401 18.5493 19.0201L16.9593 17.7901C16.9593 17.7901 16.9093 17.7101 16.9393 17.6701L19.4093 14.3201C19.4093 14.3201 19.4893 14.2701 19.5293 14.3001L21.1993 15.5301C21.1993 15.5301 21.2293 15.5701 21.2393 15.5901C21.2393 15.6101 21.2393 15.6401 21.2193 15.6601L18.6693 19.0101C18.6693 19.0101 18.6293 19.0401 18.6093 19.0401C18.6093 19.0401 18.6093 19.0401 18.5993 19.0401ZM17.1393 17.7001L18.5893 18.8301L21.0393 15.6201L19.5093 14.4901L17.1493 17.7001H17.1393Z" fill="#CBCBCB"/>
<path d="M20.2795 20.2698C20.2795 20.2698 20.2395 20.2698 20.2295 20.2498L18.5595 19.0198C18.5595 19.0198 18.5295 18.9798 18.5195 18.9598C18.5195 18.9398 18.5195 18.9098 18.5395 18.8898L21.0895 15.5398C21.0895 15.5398 21.1295 15.5098 21.1495 15.5098C21.1695 15.5098 21.1995 15.5098 21.2195 15.5298L22.8895 16.8498C22.8895 16.8498 22.9295 16.9298 22.8995 16.9698L20.3495 20.2298C20.3495 20.2298 20.3095 20.2598 20.2795 20.2598V20.2698ZM18.7295 18.9298L20.2595 20.0598L22.7095 16.9398L21.1695 15.7298L18.7195 18.9398L18.7295 18.9298Z" fill="#CBCBCB"/>
<path d="M21.9495 21.5098C21.9495 21.5098 21.9095 21.5098 21.8995 21.4898L20.2295 20.2598C20.2295 20.2598 20.1995 20.2198 20.1895 20.1998C20.1895 20.1798 20.1895 20.1498 20.2095 20.1298L22.7595 16.8698C22.7595 16.8698 22.8395 16.8298 22.8795 16.8498L24.5495 18.0798C24.5495 18.0798 24.5795 18.1198 24.5895 18.1398C24.5895 18.1598 24.5895 18.1898 24.5695 18.2098L22.0195 21.4698C22.0195 21.4698 21.9795 21.4998 21.9495 21.4998V21.5098ZM20.3995 20.1698L21.9295 21.2998L24.3795 18.1798L22.8495 17.0498L20.3995 20.1698Z" fill="#CBCBCB"/>
<path d="M23.6201 22.83C23.6201 22.83 23.5801 22.83 23.5701 22.81L21.9001 21.49C21.9001 21.49 21.8601 21.4 21.8901 21.37L24.4401 18.11C24.4401 18.11 24.5201 18.07 24.5601 18.1L26.1501 19.33C26.1501 19.33 26.2001 19.41 26.1701 19.45L23.7001 22.8C23.7001 22.8 23.6601 22.83 23.6401 22.84C23.6401 22.84 23.6401 22.84 23.6301 22.84L23.6201 22.83ZM22.0701 21.41L23.6001 22.62L25.9601 19.41L24.5101 18.28L22.0601 21.4L22.0701 21.41Z" fill="#CBCBCB"/>
<path d="M25.2984 24.0601C25.2984 24.0601 25.2584 24.0601 25.2484 24.0401L23.5784 22.8101C23.5784 22.8101 23.5284 22.7301 23.5584 22.6901L26.0284 19.3401C26.0284 19.3401 26.1084 19.2901 26.1484 19.3201L27.8184 20.5501C27.8184 20.5501 27.8684 20.6301 27.8384 20.6701L25.3684 24.0201C25.3684 24.0201 25.3284 24.0601 25.2984 24.0601ZM23.7484 22.7201L25.2784 23.8501L27.6384 20.6401L26.1084 19.5101L23.7484 22.7201Z" fill="#CBCBCB"/>
<path d="M26.8786 25.3C26.8786 25.3 26.8386 25.3 26.8286 25.28L25.2386 24.05C25.2386 24.05 25.1886 23.97 25.2186 23.93L27.6886 20.58C27.6886 20.58 27.7286 20.55 27.7486 20.54C27.7686 20.54 27.7986 20.54 27.8186 20.56L29.4886 21.88C29.4886 21.88 29.5286 21.97 29.4986 22L26.9486 25.26C26.9486 25.26 26.9086 25.29 26.8786 25.29V25.3ZM25.4186 23.96L26.8686 25.09L29.3186 21.97L27.7886 20.76L25.4286 23.97L25.4186 23.96Z" fill="#CBCBCB"/>
<path d="M52.8694 42.5601C52.8694 42.5601 52.8294 42.5601 52.8194 42.5401L51.1494 41.3101C51.1494 41.3101 51.1194 41.2701 51.1094 41.2501C51.1094 41.2301 51.1094 41.2001 51.1294 41.1801L53.5994 37.9201C53.5994 37.9201 53.6794 37.8801 53.7194 37.9001L55.3894 39.1301C55.3894 39.1301 55.4194 39.1701 55.4294 39.1901C55.4294 39.2101 55.4294 39.2401 55.4094 39.2601L52.9394 42.5201C52.9394 42.5201 52.8994 42.5601 52.8694 42.5601ZM51.3194 41.2201L52.8494 42.3501L55.2094 39.2301L53.6794 38.1001L51.3194 41.2201Z" fill="#CBCBCB"/>
<path d="M51.1995 41.3301C51.1995 41.3301 51.1595 41.3301 51.1495 41.3101L49.4795 40.0801C49.4795 40.0801 49.4495 40.0401 49.4395 40.0201C49.4395 40.0001 49.4395 39.9701 49.4595 39.9501L51.9295 36.6001C51.9295 36.6001 51.9695 36.5701 51.9895 36.5601C52.0095 36.5601 52.0395 36.5601 52.0595 36.5801L53.7295 37.9001C53.7295 37.9001 53.7695 37.9801 53.7495 38.0201L51.2795 41.2801C51.2795 41.2801 51.2395 41.3201 51.2095 41.3201L51.1995 41.3301ZM49.6495 39.9901L51.1795 41.1201L53.5395 38.0001L51.9995 36.7901L49.6395 39.9901H49.6495Z" fill="#CBCBCB"/>
<path d="M49.5198 40.0998C49.5198 40.0998 49.4798 40.0998 49.4698 40.0798L47.7998 38.8498C47.7998 38.8498 47.7698 38.8098 47.7598 38.7898C47.7598 38.7698 47.7598 38.7398 47.7798 38.7198L50.3398 35.3698C50.3398 35.3698 50.3798 35.3398 50.3998 35.3398C50.4298 35.3398 50.4498 35.3398 50.4698 35.3598L52.0598 36.5898C52.0598 36.5898 52.1098 36.6698 52.0798 36.7098L49.6098 40.0598C49.6098 40.0598 49.5698 40.0998 49.5398 40.0998H49.5198ZM47.9698 38.7598L49.4998 39.8898L51.8598 36.6798L50.4098 35.5598L47.9598 38.7698L47.9698 38.7598Z" fill="#CBCBCB"/>
<path d="M47.8486 38.8599C47.8486 38.8599 47.8086 38.8599 47.7986 38.8399L46.1286 37.5199C46.1286 37.5199 46.0886 37.4299 46.1186 37.3999L48.6786 34.1399C48.6786 34.1399 48.7586 34.0999 48.7986 34.1199L50.4686 35.3499C50.4686 35.3499 50.4986 35.3899 50.5086 35.4099C50.5086 35.4299 50.5086 35.4599 50.4886 35.4799L47.9286 38.8299C47.9286 38.8299 47.8886 38.8599 47.8686 38.8599C47.8686 38.8599 47.8686 38.8599 47.8586 38.8599H47.8486ZM46.2986 37.4399L47.8386 38.6499L50.2886 35.4399L48.7586 34.3099L46.3086 37.4299L46.2986 37.4399Z" fill="#CBCBCB"/>
<path d="M46.1799 37.5398C46.1799 37.5398 46.1399 37.5398 46.1299 37.5198L44.4599 36.2898C44.4599 36.2898 44.4299 36.2498 44.4199 36.2298C44.4199 36.2098 44.4199 36.1798 44.4399 36.1598L46.9999 32.8098C46.9999 32.8098 47.0399 32.7798 47.0599 32.7798C47.0799 32.7798 47.1099 32.7798 47.1299 32.7998L48.7999 34.1198C48.7999 34.1198 48.8399 34.2098 48.8099 34.2398L46.2499 37.4998C46.2499 37.4998 46.2099 37.5298 46.1799 37.5298V37.5398ZM44.6299 36.1998L46.1599 37.3298L48.6099 34.2098L47.0699 32.9998L44.6199 36.2098L44.6299 36.1998Z" fill="#CBCBCB"/>
<path d="M44.4997 36.3101C44.4997 36.3101 44.4597 36.3101 44.4497 36.2901L42.8597 35.0601C42.8597 35.0601 42.8097 34.9801 42.8397 34.9401L45.3097 31.5901C45.3097 31.5901 45.3897 31.5401 45.4297 31.5701L47.0997 32.8001C47.0997 32.8001 47.1297 32.8401 47.1397 32.8601C47.1397 32.8801 47.1397 32.9101 47.1197 32.9301L44.5597 36.2801C44.5597 36.2801 44.5197 36.3101 44.4997 36.3101C44.4997 36.3101 44.4997 36.3101 44.4897 36.3101H44.4997ZM43.0397 34.9701L44.4897 36.1001L46.9397 32.8901L45.4097 31.7601L43.0497 34.9701H43.0397Z" fill="#CBCBCB"/>
<path d="M42.9194 35.0801C42.9194 35.0801 42.8794 35.0801 42.8694 35.0601L41.1994 33.7401C41.1994 33.7401 41.1594 33.6601 41.1794 33.6201L43.6494 30.3601C43.6494 30.3601 43.7294 30.3201 43.7694 30.3401L45.4394 31.5701C45.4394 31.5701 45.4694 31.6101 45.4794 31.6301C45.4794 31.6501 45.4794 31.6801 45.4594 31.7001L42.9894 35.0501C42.9894 35.0501 42.9494 35.0801 42.9294 35.0901C42.9294 35.0901 42.9294 35.0901 42.9194 35.0901V35.0801ZM41.3694 33.6601L42.9094 34.8701L45.2694 31.6601L43.7394 30.5301L41.3794 33.6501L41.3694 33.6601Z" fill="#CBCBCB"/>
<path d="M41.2385 33.75C41.2385 33.75 41.1985 33.75 41.1885 33.73L39.5185 32.5C39.5185 32.5 39.4885 32.46 39.4785 32.44C39.4785 32.42 39.4785 32.39 39.4985 32.37L42.0585 29.11C42.0585 29.11 42.1385 29.07 42.1785 29.1L43.7685 30.33C43.7685 30.33 43.8185 30.41 43.7885 30.45L41.3185 33.71C41.3185 33.71 41.2785 33.75 41.2485 33.75H41.2385ZM39.6885 32.41L41.2185 33.54L43.5785 30.42L42.1285 29.29L39.6785 32.41H39.6885Z" fill="#CBCBCB"/>
<path d="M39.5686 32.5198C39.5686 32.5198 39.5286 32.5198 39.5186 32.4998L37.8486 31.2698C37.8486 31.2698 37.8186 31.2298 37.8086 31.2098C37.8086 31.1898 37.8086 31.1598 37.8286 31.1398L40.3886 27.7898C40.3886 27.7898 40.4286 27.7598 40.4486 27.7598C40.4686 27.7598 40.4986 27.7598 40.5186 27.7798L42.1886 29.0998C42.1886 29.0998 42.2286 29.1898 42.1986 29.2198L39.6386 32.4798C39.6386 32.4798 39.5986 32.5098 39.5686 32.5098V32.5198ZM38.0186 31.1798L39.5486 32.3098L41.9986 29.1898L40.4586 27.9798L38.0086 31.1898L38.0186 31.1798Z" fill="#CBCBCB"/>
<path d="M37.8889 31.2898C37.8889 31.2898 37.8489 31.2898 37.8389 31.2698L36.1689 30.0398C36.1689 30.0398 36.1389 29.9998 36.1289 29.9798C36.1289 29.9598 36.1289 29.9298 36.1489 29.9098L38.6989 26.5598C38.6989 26.5598 38.7789 26.5198 38.8189 26.5398L40.4889 27.7698C40.4889 27.7698 40.5189 27.8098 40.5289 27.8298C40.5289 27.8498 40.5289 27.8798 40.5089 27.8998L37.9489 31.2498C37.9489 31.2498 37.9089 31.2798 37.8789 31.2798L37.8889 31.2898ZM36.3389 29.9498L37.8689 31.0798L40.3189 27.8698L38.7889 26.7398L36.3389 29.9498Z" fill="#CBCBCB"/>
<path d="M36.22 30.0498C36.22 30.0498 36.18 30.0498 36.16 30.0298L34.57 28.7098C34.57 28.7098 34.53 28.6298 34.56 28.5898L37.03 25.3298C37.03 25.3298 37.11 25.2898 37.15 25.3098L38.82 26.5398C38.82 26.5398 38.85 26.5798 38.86 26.5998C38.86 26.6198 38.86 26.6498 38.84 26.6698L36.28 30.0198C36.28 30.0198 36.24 30.0498 36.22 30.0498ZM34.76 28.6298L36.21 29.8398L38.66 26.6398L37.13 25.5098L34.77 28.6298H34.76Z" fill="#CBCBCB"/>
<path d="M58.8596 34.6301C58.8596 34.6301 58.8196 34.6301 58.8096 34.6101L57.1396 33.3801C57.1396 33.3801 57.1096 33.3401 57.0996 33.3201C57.0996 33.3001 57.0996 33.2701 57.1196 33.2501L59.6696 29.9001C59.6696 29.9001 59.7096 29.8701 59.7296 29.8701C59.7496 29.8701 59.7796 29.8701 59.7996 29.8901L61.4696 31.2101C61.4696 31.2101 61.5096 31.2901 61.4796 31.3301L58.9296 34.5901C58.9296 34.5901 58.8896 34.6201 58.8596 34.6201V34.6301ZM57.3096 33.2901L58.8396 34.4201L61.2896 31.3001L59.7496 30.0901L57.2996 33.3001L57.3096 33.2901Z" fill="#CBCBCB"/>
<path d="M57.1897 33.4001C57.1897 33.4001 57.1497 33.4001 57.1397 33.3801L55.4697 32.1501C55.4697 32.1501 55.4397 32.1101 55.4297 32.0901C55.4297 32.0701 55.4297 32.0401 55.4497 32.0201L57.9997 28.6701C57.9997 28.6701 58.0797 28.6301 58.1197 28.6501L59.7897 29.8801C59.7897 29.8801 59.8197 29.9201 59.8297 29.9401C59.8297 29.9601 59.8297 29.9901 59.8097 30.0101L57.2597 33.3601C57.2597 33.3601 57.2197 33.3901 57.1897 33.3901V33.4001ZM55.6397 32.0601L57.1697 33.1901L59.6197 29.9801L58.0897 28.8501L55.6397 32.0601Z" fill="#CBCBCB"/>
<path d="M55.509 32.1699C55.509 32.1699 55.469 32.1699 55.449 32.1499L53.859 30.8299C53.859 30.8299 53.819 30.7499 53.849 30.7099L56.319 27.4499C56.319 27.4499 56.399 27.4099 56.439 27.4299L58.109 28.6599C58.109 28.6599 58.1391 28.6999 58.1491 28.7199C58.1491 28.7399 58.149 28.7699 58.129 28.7899L55.5791 32.1399C55.5791 32.1399 55.539 32.1699 55.519 32.1699H55.509ZM54.049 30.7499L55.499 31.9599L57.949 28.7499L56.419 27.6199L54.0591 30.7399L54.049 30.7499Z" fill="#CBCBCB"/>
<path d="M53.9299 30.8501C53.9299 30.8501 53.8899 30.8501 53.8799 30.8301L52.2099 29.6001C52.2099 29.6001 52.1799 29.5601 52.1699 29.5401C52.1699 29.5201 52.1699 29.4901 52.1899 29.4701L54.6599 26.1201C54.6599 26.1201 54.6999 26.0901 54.7199 26.0801C54.7399 26.0801 54.7699 26.0801 54.7899 26.1001L56.4599 27.4201C56.4599 27.4201 56.4999 27.5001 56.4799 27.5401L54.0099 30.8001C54.0099 30.8001 53.9699 30.8401 53.9399 30.8401L53.9299 30.8501ZM52.3799 29.5101L53.9099 30.6401L56.2699 27.5201L54.7299 26.3101L52.3699 29.5201L52.3799 29.5101Z" fill="#CBCBCB"/>
<path d="M52.2502 29.6101C52.2502 29.6101 52.2102 29.6101 52.2002 29.5901L50.5302 28.3601C50.5302 28.3601 50.5002 28.3201 50.4902 28.3001C50.4902 28.2801 50.4902 28.2501 50.5102 28.2301L53.0602 24.8801C53.0602 24.8801 53.1002 24.8501 53.1202 24.8501C53.1502 24.8501 53.1702 24.8501 53.1902 24.8701L54.7802 26.1001C54.7802 26.1001 54.8302 26.1801 54.8002 26.2201L52.3302 29.5701C52.3302 29.5701 52.2902 29.6101 52.2602 29.6101H52.2502ZM50.7002 28.2701L52.2302 29.4001L54.5902 26.1901L53.1402 25.0601L50.6902 28.2701H50.7002Z" fill="#CBCBCB"/>
<path d="M50.5791 28.3799C50.5791 28.3799 50.539 28.3799 50.529 28.3599L48.859 27.0399C48.859 27.0399 48.819 26.9599 48.849 26.9199L51.3991 23.6599C51.3991 23.6599 51.479 23.6199 51.519 23.6399L53.189 24.8699C53.189 24.8699 53.219 24.9099 53.229 24.9299C53.229 24.9499 53.229 24.9799 53.209 24.9999L50.659 28.3499C50.659 28.3499 50.619 28.3799 50.599 28.3799C50.599 28.3799 50.599 28.3799 50.589 28.3799H50.5791ZM49.029 26.9599L50.569 28.1699L53.019 24.9599L51.4891 23.8299L49.039 26.9499L49.029 26.9599Z" fill="#CBCBCB"/>
<path d="M48.9084 27.0601C48.9084 27.0601 48.8684 27.0601 48.8584 27.0401L47.1884 25.8101C47.1884 25.8101 47.1584 25.7701 47.1484 25.7501C47.1484 25.7301 47.1484 25.7001 47.1684 25.6801L49.7184 22.4201C49.7184 22.4201 49.7984 22.3801 49.8384 22.4001L51.5084 23.6301C51.5084 23.6301 51.5384 23.6701 51.5484 23.6901C51.5484 23.7101 51.5484 23.7401 51.5284 23.7601L48.9784 27.0201C48.9784 27.0201 48.9384 27.0501 48.9084 27.0501V27.0601ZM47.3584 25.7201L48.8884 26.8501L51.3384 23.7301L49.8084 22.6001L47.3584 25.7201Z" fill="#CBCBCB"/>
<path d="M47.2301 25.8201C47.2301 25.8201 47.1901 25.8201 47.1801 25.8001L45.5901 24.5701C45.5901 24.5701 45.5401 24.4901 45.5701 24.4501L48.0401 21.1001C48.0401 21.1001 48.0801 21.0701 48.1001 21.0601C48.1301 21.0601 48.1501 21.0601 48.1701 21.0801L49.8401 22.4001C49.8401 22.4001 49.8801 22.4901 49.8501 22.5201L47.3001 25.7801C47.3001 25.7801 47.2601 25.8101 47.2301 25.8101V25.8201ZM45.7701 24.4801L47.2201 25.6101L49.6701 22.4901L48.1401 21.2801L45.7801 24.4901L45.7701 24.4801Z" fill="#CBCBCB"/>
<path d="M45.6487 24.5898C45.6487 24.5898 45.6087 24.5898 45.5987 24.5698L43.9287 23.3398C43.9287 23.3398 43.8987 23.2998 43.8887 23.2798C43.8887 23.2598 43.8887 23.2298 43.9087 23.2098L46.3787 19.8598C46.3787 19.8598 46.4187 19.8298 46.4387 19.8198C46.4587 19.8198 46.4887 19.8198 46.5087 19.8398L48.1787 21.0698C48.1787 21.0698 48.2287 21.1498 48.1987 21.1898L45.7287 24.5398C45.7287 24.5398 45.6887 24.5798 45.6587 24.5798L45.6487 24.5898ZM44.0987 23.2498L45.6287 24.3798L47.9887 21.1698L46.4587 20.0398L44.0987 23.2498Z" fill="#CBCBCB"/>
<path d="M43.9702 23.3599C43.9702 23.3599 43.9302 23.3599 43.9202 23.3399L42.2502 22.0199C42.2502 22.0199 42.2102 21.9399 42.2302 21.8999L44.7002 18.6399C44.7002 18.6399 44.7802 18.5999 44.8202 18.6199L46.4902 19.8499C46.4902 19.8499 46.5402 19.9299 46.5102 19.9699L44.0402 23.3199C44.0402 23.3199 44.0002 23.3499 43.9802 23.3599C43.9802 23.3599 43.9802 23.3599 43.9702 23.3599ZM42.4202 21.9399L43.9602 23.1499L46.3202 19.9499L44.7902 18.8199L42.4302 21.9399H42.4202Z" fill="#CBCBCB"/>
<path d="M42.2991 22.0398C42.2991 22.0398 42.2591 22.0398 42.2491 22.0198L40.5791 20.7898C40.5791 20.7898 40.5491 20.7498 40.5391 20.7298C40.5391 20.7098 40.5391 20.6798 40.5591 20.6598L43.1091 17.3098C43.1091 17.3098 43.1491 17.2798 43.1691 17.2798C43.1891 17.2798 43.2191 17.2798 43.2391 17.2998L44.8291 18.6198C44.8291 18.6198 44.8691 18.6998 44.8391 18.7398L42.3691 21.9998C42.3691 21.9998 42.3291 22.0398 42.2991 22.0398ZM40.7491 20.6998L42.2791 21.8298L44.6391 18.7098L43.1891 17.4998L40.7391 20.6998H40.7491Z" fill="#CBCBCB"/>
<path d="M44.2384 53.8499C44.2384 53.8499 44.1984 53.8499 44.1784 53.8299L25.9384 39.9999C25.9384 39.9999 25.8984 39.9599 25.8984 39.9299C25.8984 39.8999 25.8984 39.8799 25.9184 39.8599L34.5484 28.5799C34.5484 28.5799 34.6384 28.5299 34.6884 28.5599L52.9284 42.3899C52.9284 42.3899 52.9684 42.4299 52.9684 42.4599C52.9684 42.4899 52.9684 42.5099 52.9484 42.5299L44.3184 53.8099C44.3184 53.8099 44.2684 53.8499 44.2384 53.8499ZM26.1484 39.8999L44.2284 53.6099L52.7384 42.4899L34.6584 28.7799L26.1484 39.8999Z" fill="#CBCBCB"/>
<path d="M18.3394 36.5798C18.3394 36.5798 18.2994 36.5798 18.2794 36.5598L0.0393514 22.7298C0.0393514 22.7298 -0.0106486 22.6298 0.0193514 22.5898L8.56935 11.3198C8.56935 11.3198 8.60935 11.2798 8.63935 11.2798C8.66935 11.2798 8.68935 11.2798 8.70935 11.2998L26.9494 25.1298C26.9494 25.1298 26.9994 25.2298 26.9694 25.2698L18.4194 36.5498C18.4194 36.5498 18.3794 36.5898 18.3494 36.5898C18.3494 36.5898 18.3494 36.5898 18.3394 36.5898V36.5798ZM0.239351 22.6298L18.3194 36.3398L26.7494 25.2198L8.66935 11.5198L0.239351 22.6298Z" fill="#CBCBCB"/>
<path d="M26.8801 25.31C26.8801 25.31 26.8401 25.31 26.8201 25.29L8.59013 11.46C8.59013 11.46 8.54013 11.36 8.57013 11.32L17.1101 0.04C17.1101 0.04 17.1501 0 17.1801 0C17.2101 0 17.2301 0 17.2501 0.02L35.4901 13.85C35.4901 13.85 35.5401 13.95 35.5101 13.99L26.9601 25.27C26.9601 25.27 26.9201 25.31 26.8901 25.31C26.8901 25.31 26.8901 25.31 26.8801 25.31ZM8.79013 11.36L26.8701 25.07L35.3001 13.95L17.2101 0.24L8.79013 11.36Z" fill="#CBCBCB"/>
<path d="M52.8686 42.5698C52.8686 42.5698 52.8287 42.5698 52.8087 42.5498L34.5686 28.7198C34.5686 28.7198 34.5186 28.6198 34.5486 28.5798L43.0986 17.2998C43.0986 17.2998 43.1386 17.2598 43.1686 17.2598C43.1986 17.2598 43.2187 17.2598 43.2387 17.2798L61.4786 31.1998C61.4786 31.1998 61.5187 31.2398 61.5187 31.2698C61.5187 31.2998 61.5186 31.3198 61.4986 31.3398L52.9487 42.5298C52.9487 42.5298 52.8986 42.5698 52.8686 42.5698ZM34.7686 28.6198L52.8486 42.3298L61.2687 31.2998L43.1886 17.4998L34.7586 28.6198H34.7686Z" fill="#CBCBCB"/>
</g>
<defs>
<clipPath id="clip0_962_29052">
<rect width="61.52" height="53.85" fill="white"/>
</clipPath>
</defs>
</svg>
