<svg width="279" height="626" viewBox="0 0 279 626" fill="none" xmlns="http://www.w3.org/2000/svg">
<path d="M136.238 47.7874C139.472 9.87848 176.151 -2.48518 194.844 0.401464C237.282 6.95501 247.892 53.8367 234.251 76.0176C223.09 94.1654 233.746 168.774 236.777 183.393C239.808 198.012 266.585 329.584 273.153 358.823C279.721 388.061 284.773 423.853 265.069 456.115C245.366 488.378 163.015 545.343 131.691 565.507C106.633 581.638 101.378 612.557 101.883 626C88.5794 616.422 58.4347 594.544 44.2885 583.655C34.6894 536.269 60.4555 484.346 83.1904 463.173C92.7895 471.743 113.504 464.181 122.092 461.661C140.28 455.611 139.775 433.431 140.28 427.381C140.785 421.332 132.197 395.622 131.691 386.044C131.186 376.466 114.514 312.949 112.493 302.362C110.472 291.776 112.998 281.694 108.957 271.612C104.915 261.53 100.873 243.886 100.873 236.324C100.873 228.763 107.946 209.102 89.253 198.012C70.5599 186.922 62.4764 191.963 44.7937 201.037C31.0972 208.065 23.5577 231.098 21.258 242.774C21.3563 243.863 21.2512 244.128 21.0485 243.886C21.1127 243.528 21.1825 243.157 21.258 242.774C20.9482 239.339 18.6158 227.713 10.944 198.012C-1.6865 149.113 -5.22303 137.015 18.017 120.379C41.2571 103.744 69.0442 132.982 81.6746 141.552C94.3051 150.122 135.543 150.121 143.311 112.817C151.395 74.001 132.885 87.1079 136.238 47.7874Z" fill="#CCCC66" fill-opacity="0.7"/>
</svg>
