<svg width="121" height="75" viewBox="0 0 121 75" fill="none" xmlns="http://www.w3.org/2000/svg">
<g clip-path="url(#clip0_962_28918)">
<path d="M62.3016 42.1098L62.2416 42.0498L61.3416 41.1398H61.3316L52.5216 31.4498L50.6716 29.7798H18.4316L21.7816 31.4498L30.8516 40.3498L31.2116 40.7898L31.6416 41.3198L62.3016 42.1098Z" fill="#CCCC66"/>
<path d="M82.9206 63.8698L83.0106 61.1398L75.6106 53.3898L75.5306 53.3098L74.9906 52.7698L62.3006 42.1098L31.6406 41.3198L41.6006 52.7698L41.7706 53.1598L41.8606 53.3898L45.4806 61.1398L46.7106 63.8698L46.8906 64.6598L47.5906 67.9198L48.1206 70.6498H72.7906L79.2206 67.9198L82.9206 64.6598V63.8698Z" fill="#CCCC66"/>
<path d="M49.0011 71.9799L50.6711 74.4399L69.7011 71.9799L72.7911 70.6499H48.1211L49.0011 71.9799Z" fill="#CCCC66"/>
<path d="M44.5109 21.5L41.3409 17.18L36.3109 10.4L33.8509 7.14L29.7509 1.51L23.6609 0H10.4109L4.69094 6.34L0.460938 21.06L1.43094 21.5L18.4309 29.78H50.6709L44.5109 21.5Z" fill="#CCCC66"/>
<path d="M61.6716 73.37C61.6116 73.36 61.4416 73.31 61.1616 73.22L61.3016 72.79H61.8216L61.6716 73.37ZM60.1716 72.82C59.8416 72.67 59.4616 72.48 59.0516 72.24L59.6516 71.2C60.0216 71.41 60.3616 71.59 60.6716 71.73L60.1716 72.82ZM62.4216 72.79H61.3016L61.5416 72.08C61.7716 72.16 61.9216 72.19 61.9616 72.2L62.4316 72.79H62.4216ZM58.1716 71.69C57.8516 71.47 57.5116 71.22 57.1716 70.94L57.9316 70.01C58.2516 70.27 58.5516 70.5 58.8516 70.7L58.1716 71.69ZM56.3816 70.26C56.0916 69.99 55.8016 69.7 55.5016 69.38L56.3816 68.56C56.6516 68.85 56.9316 69.13 57.2016 69.38L56.3816 70.26ZM54.8216 68.6C54.5716 68.29 54.3216 67.96 54.0716 67.61L55.0516 66.92C55.2816 67.25 55.5216 67.55 55.7516 67.84L54.8216 68.6ZM53.4916 66.77C53.2616 66.43 53.0516 66.08 52.8416 65.73L53.8716 65.12C54.0716 65.45 54.2816 65.78 54.4916 66.12L53.4916 66.78V66.77ZM52.3316 64.84C52.1316 64.47 51.9516 64.11 51.7716 63.74L52.8516 63.22C53.0216 63.57 53.1916 63.92 53.3816 64.26L52.3216 64.83L52.3316 64.84ZM51.3516 62.8C51.1916 62.41 51.0416 62.03 50.9116 61.64L52.0416 61.25C52.1616 61.61 52.3016 61.97 52.4516 62.34L51.3416 62.8H51.3516ZM50.6116 60.65C50.5016 60.24 50.4016 59.84 50.3216 59.44L51.5016 59.21C51.5716 59.58 51.6616 59.96 51.7616 60.33L50.6016 60.65H50.6116ZM50.1616 58.41C50.1116 57.99 50.0816 57.57 50.0716 57.16L51.2716 57.13C51.2816 57.51 51.3116 57.89 51.3616 58.27L50.1716 58.42L50.1616 58.41ZM51.2816 56.18L50.0816 56.11C50.1016 55.69 50.1516 55.27 50.2116 54.86L51.4016 55.05C51.3416 55.43 51.3016 55.8 51.2816 56.18ZM51.6016 54.12L50.4416 53.83C50.5316 53.46 50.6516 53.1 50.7816 52.74L50.8216 52.63L51.9516 53.04L51.9116 53.14C51.7916 53.47 51.6916 53.8 51.6116 54.13L51.6016 54.12ZM52.2716 52.06L51.1216 51.71C51.2416 51.32 51.3416 50.95 51.4316 50.59L52.6016 50.87C52.5116 51.25 52.4016 51.65 52.2716 52.06ZM52.8116 49.85L51.6316 49.65C51.7016 49.26 51.7416 48.88 51.7716 48.52L52.9716 48.61C52.9416 49.01 52.8916 49.43 52.8116 49.86V49.85ZM51.8016 47.56C51.8016 47.18 51.7816 46.8 51.7416 46.42L52.9416 46.3C52.9816 46.72 53.0016 47.13 53.0016 47.55H51.8016V47.56ZM51.6216 45.47C51.5616 45.09 51.4916 44.71 51.4116 44.31L52.5916 44.07C52.6716 44.48 52.7516 44.88 52.8116 45.27L51.6216 45.46V45.47ZM51.2016 43.35L50.9416 42.2L52.1016 41.91L52.3716 43.1L51.2016 43.36V43.35ZM50.6316 41.38C50.4816 41.07 50.2916 40.76 50.0616 40.44L51.0316 39.73C51.3016 40.1 51.5316 40.48 51.7116 40.84L50.6316 41.37V41.38ZM49.4716 39.72C49.2216 39.45 48.9616 39.18 48.6716 38.91L49.4816 38.03C49.8016 38.32 50.1016 38.62 50.3716 38.92L49.4816 39.72H49.4716ZM47.9316 38.28C47.6416 38.04 47.3316 37.8 47.0116 37.57L47.7116 36.6C48.0516 36.84 48.3816 37.1 48.6916 37.35L47.9316 38.28ZM46.2016 37.02C45.8816 36.81 45.5416 36.6 45.2016 36.4L45.8116 35.37C46.1716 35.58 46.5116 35.8 46.8516 36.02L46.1916 37.02H46.2016ZM44.3516 35.92C44.0116 35.73 43.6616 35.55 43.3016 35.38L43.8316 34.31C44.2016 34.49 44.5616 34.68 44.9116 34.87L44.3416 35.92H44.3516ZM42.4216 34.96C42.0616 34.8 41.7016 34.64 41.3416 34.49L41.8016 33.38C42.1716 33.53 42.5516 33.7 42.9216 33.87L42.4216 34.96ZM40.4316 34.13C40.0616 33.99 39.6916 33.86 39.3216 33.74L39.6916 32.6C40.0716 32.72 40.4616 32.86 40.8516 33.01L40.4316 34.13ZM38.3816 33.45L37.2316 33.11L37.5816 31.96L38.7216 32.3L38.3816 33.45ZM36.2616 32.81C35.8716 32.69 35.4916 32.57 35.1116 32.45L35.4816 31.31C35.8516 31.43 36.2316 31.55 36.6216 31.67L36.2616 32.81ZM34.1616 32.13C33.7716 32 33.3916 31.87 33.0216 31.74L33.4116 30.61C33.7816 30.74 34.1616 30.87 34.5416 30.99L34.1616 32.13ZM32.0716 31.4C31.6916 31.26 31.3116 31.12 30.9416 30.98L31.3616 29.86C31.7316 30 32.1016 30.13 32.4816 30.27L32.0716 31.4ZM30.0016 30.62C29.6216 30.47 29.2516 30.32 28.8816 30.17L29.3316 29.06C29.6916 29.21 30.0616 29.35 30.4316 29.5L29.9916 30.62H30.0016ZM27.9516 29.79C27.5716 29.63 27.2016 29.47 26.8416 29.31L27.3316 28.21C27.6916 28.37 28.0516 28.53 28.4216 28.69L27.9516 29.79ZM25.9216 28.89C25.5516 28.72 25.1816 28.54 24.8316 28.37L25.3616 27.29C25.7116 27.46 26.0716 27.63 26.4316 27.8L25.9216 28.89ZM23.9316 27.91C23.5616 27.72 23.2116 27.53 22.8616 27.34L23.4416 26.29C23.7816 26.48 24.1316 26.66 24.4816 26.84L23.9316 27.91ZM21.9816 26.85C21.6216 26.64 21.2716 26.44 20.9416 26.23L21.5616 25.21C21.8916 25.41 22.2316 25.61 22.5816 25.81L21.9816 26.85ZM20.0816 25.69C19.7316 25.47 19.4016 25.24 19.0716 25.02L19.7516 24.03C20.0716 24.25 20.4016 24.47 20.7416 24.68L20.0916 25.69H20.0816ZM18.2416 24.44C17.9116 24.2 17.5816 23.96 17.2616 23.71L17.9916 22.76C18.3016 23 18.6116 23.23 18.9416 23.47L18.2416 24.44ZM16.4716 23.08C16.1516 22.82 15.8416 22.56 15.5416 22.3L16.3216 21.39C16.6216 21.64 16.9216 21.9 17.2316 22.15L16.4716 23.08ZM14.7816 21.63C14.4816 21.36 14.1816 21.08 13.8916 20.8L14.7216 19.93C15.0016 20.2 15.2916 20.47 15.5816 20.73L14.7816 21.62V21.63ZM13.1716 20.09C12.8916 19.8 12.6116 19.51 12.3316 19.22L13.2016 18.4C13.4716 18.69 13.7416 18.97 14.0216 19.25L13.1716 20.09ZM11.6416 18.48C11.3716 18.18 11.1016 17.88 10.8316 17.57L11.7316 16.78C11.9916 17.08 12.2516 17.37 12.5216 17.67L11.6316 18.48H11.6416ZM10.1816 16.81C9.92164 16.5 9.66164 16.2 9.40164 15.88L10.3316 15.12C10.5816 15.43 10.8416 15.73 11.0916 16.03L10.1816 16.81ZM8.77164 15.11C8.52164 14.8 8.27164 14.49 8.02164 14.17L8.96164 13.42C9.21164 13.73 9.46164 14.04 9.71164 14.35L8.78164 15.11H8.77164ZM7.39164 13.39L6.65164 12.45L7.59164 11.71L8.33164 12.65L7.39164 13.39ZM6.03164 11.66L5.29164 10.72L6.23164 9.98L6.97164 10.92L6.03164 11.66ZM4.67164 9.93L3.93164 9L4.87164 8.25L5.62164 9.19L4.68164 9.93H4.67164Z" fill="#A1A14D"/>
<path d="M37.9813 32.1901L37.7313 31.0201L38.9012 30.7701L39.1512 31.9401L37.9813 32.1901ZM37.5312 30.0401L37.2812 28.8701L38.4513 28.6201L38.7013 29.7901L37.5312 30.0401ZM37.0812 27.8901L36.8312 26.7201L38.0013 26.4701L38.2513 27.6401L37.0812 27.8901ZM36.6312 25.7401L36.3812 24.5701L37.5513 24.3201L37.8013 25.4901L36.6312 25.7401ZM36.1813 23.5901L35.9313 22.4201L37.1012 22.1701L37.3512 23.3401L36.1813 23.5901ZM35.7313 21.4401L35.4813 20.2701L36.6512 20.0201L36.9012 21.1901L35.7313 21.4401ZM35.2812 19.2901L35.0312 18.1201L36.2013 17.8701L36.4513 19.0401L35.2812 19.2901ZM34.8312 17.1401L34.5812 15.9701L35.7513 15.7201L36.0013 16.8901L34.8312 17.1401ZM34.3812 14.9901L34.1312 13.8201L35.3013 13.5701L35.5513 14.7401L34.3812 14.9901ZM33.9313 12.8401L33.6813 11.6701L34.8512 11.4201L35.1012 12.5901L33.9313 12.8401ZM33.4813 10.6901L33.2313 9.52012L34.4012 9.27012L34.6512 10.4401L33.4813 10.6901ZM33.0312 8.54012L32.7812 7.37012L33.9513 7.12012L34.2013 8.29012L33.0312 8.54012Z" fill="#A1A14D"/>
<path d="M91.7914 70.1899L78.4414 66.0499L79.3314 63.1899L92.1514 67.1599L120.791 65.1499L121.001 68.1399L91.7914 70.1899Z" fill="#CCCC66"/>
<path d="M99.7419 66.6901L99.0508 69.6094L116.479 73.7356L117.17 70.8164L99.7419 66.6901Z" fill="#CCCC66"/>
<path d="M99.9057 63.69L90.3457 67.1299L91.3614 69.9527L100.921 66.5128L99.9057 63.69Z" fill="#CCCC66"/>
<path d="M53.4411 48.3C53.4411 48.3 53.3511 48.28 53.3211 48.24C53.2711 48.18 53.2811 48.08 53.3411 48.03L54.3111 47.24C54.3711 47.19 54.4711 47.2 54.5211 47.26C54.5711 47.32 54.5611 47.42 54.5011 47.47L53.5311 48.26C53.5311 48.26 53.4711 48.29 53.4411 48.29V48.3Z" fill="#858585"/>
<path d="M53.0797 50.6802C53.0797 50.6802 52.9897 50.6602 52.9597 50.6202C52.9097 50.5602 52.9197 50.4602 52.9797 50.4102L55.5297 48.3802C55.5897 48.3302 55.6897 48.3402 55.7397 48.4002C55.7897 48.4602 55.7797 48.5602 55.7197 48.6102L53.1697 50.6402C53.1697 50.6402 53.1097 50.6702 53.0797 50.6702V50.6802Z" fill="#858585"/>
<path d="M52.6403 53.1502C52.6403 53.1502 52.5503 53.1302 52.5203 53.0902C52.4703 53.0302 52.4803 52.9302 52.5403 52.8802L56.7703 49.4402C56.8403 49.3902 56.9303 49.4002 56.9803 49.4602C57.0303 49.5202 57.0203 49.6202 56.9603 49.6702L52.7303 53.1102C52.7303 53.1102 52.6703 53.1402 52.6403 53.1402V53.1502Z" fill="#858585"/>
<path d="M52.2907 55.5204C52.2907 55.5204 52.2007 55.5004 52.1707 55.4604C52.1207 55.4004 52.1307 55.3004 52.1907 55.2504L58.0107 50.5804C58.0707 50.5304 58.1707 50.5404 58.2207 50.6004C58.2707 50.6604 58.2607 50.7604 58.2007 50.8104L52.3807 55.4804C52.3807 55.4804 52.3207 55.5104 52.2907 55.5104V55.5204Z" fill="#858585"/>
<path d="M52.5505 57.5503C52.5505 57.5503 52.4605 57.5303 52.4305 57.4903C52.3805 57.4303 52.3905 57.3303 52.4505 57.2803L59.3205 51.7303C59.3905 51.6803 59.4804 51.6903 59.5304 51.7503C59.5804 51.8103 59.5704 51.9103 59.5104 51.9603L52.6405 57.5103C52.6405 57.5103 52.5805 57.5403 52.5505 57.5403V57.5503Z" fill="#858585"/>
<path d="M52.9899 59.3099C52.9899 59.3099 52.8999 59.2899 52.8699 59.2499C52.8199 59.1899 52.8299 59.0899 52.8899 59.0399L60.5599 52.8699C60.6199 52.8199 60.7199 52.8299 60.7699 52.8899C60.8199 52.9499 60.8099 53.0499 60.7499 53.0999L53.0799 59.2699C53.0799 59.2699 53.0199 59.2999 52.9899 59.2999V59.3099Z" fill="#858585"/>
<path d="M53.4411 61.0699C53.4411 61.0699 53.3511 61.0499 53.3211 61.0099C53.2711 60.9499 53.2811 60.8499 53.3411 60.7999L57.9211 57.0999C57.9911 57.0499 58.0811 57.0599 58.1311 57.1199C58.1811 57.1799 58.1711 57.2799 58.1111 57.3299L53.5311 61.0299C53.5311 61.0299 53.4711 61.0599 53.4411 61.0599V61.0699Z" fill="#858585"/>
<path d="M53.8798 62.8401C53.8798 62.8401 53.7898 62.8201 53.7598 62.7801C53.7098 62.7101 53.7198 62.6201 53.7898 62.5701L55.0198 61.6001C55.0798 61.5501 55.1798 61.5601 55.2298 61.6301C55.2798 61.7001 55.2698 61.7901 55.1998 61.8401L53.9698 62.8101C53.9698 62.8101 53.9098 62.8401 53.8798 62.8401Z" fill="#858585"/>
<path d="M54.0505 63.4502H54.0305C53.9705 63.4502 53.9205 63.4002 53.9105 63.3402L52.0605 56.2002C52.0605 56.2002 52.0605 56.1602 52.0605 56.1402L53.4705 46.6202C53.4705 46.5702 53.5205 46.5202 53.5705 46.5002C53.6205 46.4802 53.6805 46.5002 53.7205 46.5302L60.8605 52.9602C60.9105 53.0102 60.9305 53.0902 60.8805 53.1502L54.1805 63.3702C54.1805 63.3702 54.1005 63.4402 54.0605 63.4402L54.0505 63.4502ZM52.3505 56.1602L54.1105 62.9402L60.5505 53.1102L53.7205 46.9502L52.3605 56.1602H52.3505Z" fill="#858585"/>
<path d="M59.1598 56.4903C59.1598 56.4903 59.0698 56.4703 59.0398 56.4403C58.9898 56.3803 58.9998 56.2803 59.0598 56.2303L60.5598 55.0003C60.6198 54.9503 60.7198 54.9603 60.7698 55.0203C60.8198 55.0803 60.8098 55.1803 60.7498 55.2303L59.2498 56.4603C59.2498 56.4603 59.1898 56.4903 59.1498 56.4903H59.1598Z" fill="#858585"/>
<path d="M57.0505 60.3699C57.0505 60.3699 56.9605 60.3499 56.9305 60.3099C56.8805 60.2499 56.8905 60.1499 56.9505 60.0999L61.1805 56.6599C61.2505 56.6099 61.3405 56.6199 61.3905 56.6799C61.4405 56.7399 61.4305 56.8399 61.3705 56.8899L57.1405 60.3299C57.1405 60.3299 57.0805 60.3599 57.0505 60.3599V60.3699Z" fill="#858585"/>
<path d="M57.5797 61.9504C57.5797 61.9504 57.4897 61.9304 57.4597 61.8904C57.4097 61.8304 57.4197 61.7304 57.4797 61.6804L61.7097 58.3304C61.7697 58.2804 61.8697 58.2904 61.9197 58.3504C61.9697 58.4104 61.9597 58.5104 61.8997 58.5604L57.6697 61.9104C57.6697 61.9104 57.6097 61.9404 57.5797 61.9404V61.9504Z" fill="#858585"/>
<path d="M58.1911 63.6302C58.1911 63.6302 58.1011 63.6102 58.0711 63.5702C58.0211 63.5102 58.0311 63.4102 58.0911 63.3602L62.3211 59.9202C62.3911 59.8702 62.4811 59.8802 62.5311 59.9402C62.5811 60.0002 62.5711 60.1002 62.5111 60.1502L58.2811 63.5902C58.2811 63.5902 58.2211 63.6202 58.1911 63.6202V63.6302Z" fill="#858585"/>
<path d="M58.1911 65.8299C58.1911 65.8299 58.1011 65.8099 58.0711 65.7699C58.0211 65.7099 58.0311 65.6099 58.0911 65.5599L62.9411 61.5999C63.0011 61.5499 63.1011 61.5599 63.1511 61.6199C63.2011 61.6799 63.1911 61.7799 63.1311 61.8299L58.2811 65.7899C58.2811 65.7899 58.2211 65.8199 58.1911 65.8199V65.8299Z" fill="#858585"/>
<path d="M58.9899 67.33C58.9899 67.33 58.8999 67.31 58.8699 67.27C58.8199 67.21 58.8299 67.11 58.8899 67.06L63.3799 63.45C63.4399 63.4 63.5399 63.41 63.5899 63.47C63.6399 63.53 63.6299 63.63 63.5699 63.68L59.0799 67.29C59.0799 67.29 59.0199 67.32 58.9899 67.32V67.33Z" fill="#858585"/>
<path d="M61.2809 67.5903C61.2809 67.5903 61.1909 67.5703 61.1609 67.5303C61.1109 67.4703 61.1209 67.3703 61.1809 67.3203L63.6509 65.2903C63.7109 65.2403 63.8109 65.2503 63.8609 65.3103C63.9109 65.3703 63.9009 65.4703 63.8409 65.5203L61.3709 67.5503C61.3709 67.5503 61.3109 67.5803 61.2809 67.5803V67.5903Z" fill="#858585"/>
<path d="M63.6512 67.7702C63.6512 67.7702 63.5613 67.7502 63.5313 67.7102C63.4813 67.6402 63.4912 67.5502 63.5612 67.5002L63.9113 67.2402C63.9813 67.1902 64.0713 67.2002 64.1213 67.2702C64.1713 67.3402 64.1613 67.4302 64.0913 67.4802L63.7412 67.7402C63.7412 67.7402 63.6812 67.7702 63.6512 67.7702Z" fill="#858585"/>
<path d="M64.0913 67.8603C64.0913 67.8603 64.0913 67.8603 64.0713 67.8603L58.0812 67.2403C58.0012 67.2403 57.9413 67.1603 57.9513 67.0803L58.2113 63.8503L56.7212 59.9203C56.7212 59.9203 56.7113 59.8303 56.7313 59.7903L60.2513 54.3303C60.2513 54.3303 60.3313 54.2603 60.3913 54.2603C60.4513 54.2603 60.4912 54.3003 60.5112 54.3603L63.4212 62.2903L64.2212 67.6903C64.2212 67.6903 64.2213 67.7803 64.1813 67.8103C64.1513 67.8403 64.1113 67.8603 64.0713 67.8603H64.0913ZM58.2612 66.9603L63.9113 67.5403L63.1512 62.3603L60.3613 54.7403L57.0413 59.8903L58.5112 63.7803C58.5112 63.7803 58.5212 63.8203 58.5112 63.8403L58.2612 66.9503V66.9603Z" fill="#858585"/>
<path d="M66.0309 61.6002C66.0309 61.6002 65.9409 61.5802 65.9109 61.5402C65.8609 61.4802 65.8709 61.3802 65.9309 61.3302L68.6609 59.1302C68.7209 59.0802 68.8209 59.0902 68.8709 59.1502C68.9209 59.2102 68.9109 59.3102 68.8509 59.3602L66.1209 61.5602C66.1209 61.5602 66.0609 61.5902 66.0309 61.5902V61.6002Z" fill="#858585"/>
<path d="M65.2399 64.3302C65.2399 64.3302 65.1499 64.3102 65.1199 64.2702C65.0699 64.2102 65.0799 64.1102 65.1399 64.0602L69.3699 60.7102C69.4299 60.6602 69.5299 60.6702 69.5799 60.7302C69.6299 60.7902 69.6199 60.8902 69.5599 60.9402L65.3299 64.2902C65.3299 64.2902 65.2699 64.3202 65.2399 64.3202V64.3302Z" fill="#858585"/>
<path d="M66.7399 65.3001C66.7399 65.3001 66.6499 65.2801 66.6199 65.2401C66.5699 65.1701 66.5799 65.0801 66.6399 65.0301L70.0799 62.3001C70.1499 62.2501 70.2399 62.2601 70.2899 62.3201C70.3399 62.3901 70.3299 62.4801 70.2699 62.5301L66.8299 65.2601C66.8299 65.2601 66.7699 65.2901 66.7399 65.2901V65.3001Z" fill="#858585"/>
<path d="M67.9716 66.4501C67.9716 66.4501 67.8816 66.4301 67.8516 66.3901C67.8016 66.3201 67.8116 66.2301 67.8816 66.1801L70.7916 63.8901C70.8516 63.8401 70.9516 63.8501 71.0016 63.9201C71.0516 63.9901 71.0416 64.0801 70.9716 64.1301L68.0616 66.4201C68.0616 66.4201 68.0016 66.4501 67.9716 66.4501Z" fill="#858585"/>
<path d="M68.4997 66.9803C68.4997 66.9803 68.4197 66.9703 68.3997 66.9403L65.7997 64.4203L63.9097 64.2503C63.8497 64.2503 63.8097 64.2103 63.7897 64.1603C63.7697 64.1103 63.7797 64.0503 63.8097 64.0103L65.8897 61.5903V60.4103C65.8897 60.3503 65.9297 60.2903 65.9797 60.2703L68.7997 59.1203C68.8797 59.0903 68.9597 59.1203 68.9897 59.2003L71.3697 64.6603C71.3997 64.7203 71.3697 64.8003 71.3197 64.8403L68.5897 66.9503C68.5897 66.9503 68.5297 66.9803 68.4997 66.9803ZM64.2197 63.9803L65.8697 64.1303C65.8697 64.1303 65.9397 64.1503 65.9597 64.1703L68.5097 66.6303L71.0497 64.6703L68.7797 59.4503L66.1897 60.5003V61.6303C66.1897 61.6303 66.1797 61.7003 66.1497 61.7303L64.2197 63.9803Z" fill="#858585"/>
<path d="M60.2207 51.2899C60.1707 51.2899 60.1207 51.2599 60.0907 51.2199C60.0507 51.1499 60.0707 51.0599 60.1407 51.0099L60.5807 50.7499C60.6507 50.7099 60.7407 50.7299 60.7907 50.7999C60.8307 50.8699 60.8107 50.9599 60.7407 51.0099L60.3007 51.2699C60.3007 51.2699 60.2507 51.2899 60.2207 51.2899Z" fill="#858585"/>
<path d="M61.4508 52.44C61.4508 52.44 61.3608 52.42 61.3308 52.38C61.2808 52.32 61.2908 52.22 61.3508 52.17L63.1108 50.76C63.1708 50.71 63.2708 50.72 63.3208 50.78C63.3708 50.84 63.3608 50.94 63.3008 50.99L61.5408 52.4C61.5408 52.4 61.4808 52.43 61.4508 52.43V52.44Z" fill="#858585"/>
<path d="M62.6911 53.5903C62.6911 53.5903 62.6011 53.5703 62.5711 53.5303C62.5211 53.4703 62.5311 53.3703 62.5911 53.3203L65.7611 50.7703C65.8211 50.7203 65.9211 50.7303 65.9711 50.7903C66.0211 50.8503 66.0111 50.9503 65.9511 51.0003L62.7811 53.5503C62.7811 53.5503 62.7211 53.5803 62.6911 53.5803V53.5903Z" fill="#858585"/>
<path d="M63.9215 54.7301C63.9215 54.7301 63.8315 54.7101 63.8015 54.6701C63.7515 54.6101 63.7615 54.5101 63.8215 54.4601L67.4315 51.5501C67.4915 51.5001 67.5915 51.5101 67.6415 51.5701C67.6915 51.6301 67.6815 51.7301 67.6215 51.7801L64.0115 54.6901C64.0115 54.6901 63.9515 54.7201 63.9215 54.7201V54.7301Z" fill="#858585"/>
<path d="M64.6208 56.3202C64.6208 56.3202 64.5308 56.3002 64.5008 56.2602C64.4508 56.2002 64.4608 56.1002 64.5208 56.0502L68.4808 52.8802C68.5408 52.8302 68.6408 52.8402 68.6908 52.9002C68.7408 52.9602 68.7308 53.0602 68.6708 53.1102L64.7108 56.2802C64.7108 56.2802 64.6508 56.3102 64.6208 56.3102V56.3202Z" fill="#858585"/>
<path d="M65.2399 57.9899C65.2399 57.9899 65.1499 57.9699 65.1199 57.9299C65.0699 57.8699 65.0799 57.7699 65.1399 57.7199L69.2799 54.3699C69.3499 54.3199 69.4399 54.3299 69.4899 54.3899C69.5399 54.4499 69.5299 54.5499 69.4699 54.5999L65.3299 57.9499C65.3299 57.9499 65.2699 57.9799 65.2399 57.9799V57.9899Z" fill="#858585"/>
<path d="M65.7712 59.66C65.7712 59.66 65.6812 59.64 65.6512 59.6C65.6012 59.54 65.6112 59.44 65.6712 59.39L69.6312 56.22C69.6912 56.17 69.7912 56.18 69.8412 56.24C69.8912 56.3 69.8812 56.4 69.8212 56.45L65.8612 59.62C65.8612 59.62 65.8012 59.65 65.7712 59.65V59.66Z" fill="#858585"/>
<path d="M69.3807 58.9603C69.3807 58.9603 69.3007 58.9403 69.2707 58.9103C69.2207 58.8503 69.2207 58.7503 69.2807 58.7003L69.9907 58.0803C70.0507 58.0303 70.1507 58.0303 70.2007 58.0903C70.2507 58.1503 70.2507 58.2503 70.1907 58.3003L69.4807 58.9203C69.4807 58.9203 69.4207 58.9603 69.3807 58.9603Z" fill="#858585"/>
<path d="M65.9508 60.1001C65.8908 60.1001 65.8308 60.0601 65.8108 60.0001L63.9708 54.8401L59.6808 50.9001C59.6808 50.9001 59.6208 50.7901 59.6408 50.7301C59.6608 50.6701 59.7208 50.6401 59.7808 50.6401L66.9208 50.7301C66.9208 50.7301 67.0108 50.7501 67.0308 50.7901L69.4108 53.7001C69.4108 53.7001 69.4408 53.7401 69.4408 53.7701L70.3208 58.5301C70.3308 58.6001 70.2908 58.6801 70.2208 58.7001L65.9908 60.1101C65.9908 60.1101 65.9608 60.1101 65.9408 60.1101L65.9508 60.1001ZM60.1708 50.9401L64.2008 54.6401C64.2008 54.6401 64.2308 54.6801 64.2408 54.7001L66.0408 59.7601L70.0108 58.4401L69.1608 53.8501L66.8508 51.0301L60.1808 50.9501L60.1708 50.9401Z" fill="#858585"/>
<path d="M16.6999 9.54C16.6999 9.54 16.6199 9.52 16.5899 9.49C16.5299 9.43 16.5299 9.34 16.5899 9.28L20.2899 5.67C20.3499 5.61 20.4399 5.61 20.4999 5.67C20.5599 5.73 20.5599 5.82 20.4999 5.88L16.7999 9.49C16.7999 9.49 16.7299 9.53 16.6999 9.53V9.54Z" fill="#858585"/>
<path d="M17.5808 9.8901C17.5808 9.8901 17.5008 9.8801 17.4708 9.8501C17.4108 9.7901 17.4108 9.7001 17.4708 9.6401L22.8408 4.2701C22.9008 4.2101 22.9908 4.2101 23.0508 4.2701C23.1108 4.3301 23.1108 4.4201 23.0508 4.4801L17.6808 9.8501C17.6808 9.8501 17.6108 9.8901 17.5708 9.8901H17.5808Z" fill="#858585"/>
<path d="M18.4597 10.1501C18.4597 10.1501 18.3797 10.1401 18.3497 10.1101C18.2897 10.0501 18.2897 9.96006 18.3497 9.90006L23.0197 5.23006C23.0797 5.17006 23.1697 5.17006 23.2297 5.23006C23.2897 5.29006 23.2897 5.38006 23.2297 5.44006L18.5597 10.1101C18.5597 10.1101 18.4897 10.1501 18.4497 10.1501H18.4597Z" fill="#858585"/>
<path d="M19.3405 10.51C19.3405 10.51 19.2605 10.5 19.2305 10.47C19.1705 10.41 19.1705 10.32 19.2305 10.26L23.2805 6.21004C23.3405 6.15004 23.4305 6.15004 23.4905 6.21004C23.5505 6.27004 23.5505 6.36004 23.4905 6.42004L19.4405 10.47C19.4405 10.47 19.3705 10.51 19.3305 10.51H19.3405Z" fill="#858585"/>
<path d="M20.2212 10.86C20.2212 10.86 20.1412 10.85 20.1212 10.82C20.0612 10.76 20.0612 10.67 20.1212 10.61L23.4712 7.17C23.5312 7.11 23.6212 7.11 23.6812 7.17C23.7412 7.23 23.7412 7.32 23.6812 7.38L20.3312 10.82C20.3312 10.82 20.2612 10.87 20.2212 10.87V10.86Z" fill="#858585"/>
<path d="M21.1003 11.1201C21.1003 11.1201 21.0203 11.1101 20.9903 11.0801C20.9303 11.0201 20.9303 10.9301 20.9903 10.8701L23.6303 8.23006C23.6903 8.17006 23.7803 8.17006 23.8403 8.23006C23.9003 8.29006 23.9003 8.38006 23.8403 8.44006L21.2003 11.0801C21.2003 11.0801 21.1303 11.1201 21.0903 11.1201H21.1003Z" fill="#858585"/>
<path d="M21.9011 11.47C21.9011 11.47 21.8211 11.46 21.7911 11.43C21.7311 11.37 21.7311 11.28 21.7911 11.22L23.8211 9.19002C23.8811 9.13002 23.9711 9.13002 24.0311 9.19002C24.0911 9.25002 24.0911 9.34002 24.0311 9.40002L22.0011 11.43C22.0011 11.43 21.9311 11.47 21.8911 11.47H21.9011Z" fill="#858585"/>
<path d="M22.7802 11.74C22.7802 11.74 22.7002 11.72 22.6702 11.69C22.6102 11.63 22.6202 11.53 22.6702 11.48L24.0802 10.16C24.1402 10.1 24.2402 10.11 24.2902 10.16C24.3502 10.22 24.3402 10.32 24.2902 10.37L22.8802 11.69C22.8802 11.69 22.8102 11.73 22.7802 11.73V11.74Z" fill="#858585"/>
<path d="M23.6609 12.09C23.6609 12.09 23.5809 12.08 23.5509 12.05C23.4909 11.99 23.4909 11.9 23.5509 11.84L24.2609 11.13C24.3209 11.07 24.4109 11.07 24.4709 11.13C24.5309 11.19 24.5309 11.28 24.4709 11.34L23.7609 12.05C23.7609 12.05 23.6909 12.09 23.6509 12.09H23.6609Z" fill="#858585"/>
<path d="M16.6103 9.54035C16.6103 9.54035 16.5303 9.53035 16.5003 9.50035L16.2403 9.24035C16.1803 9.18035 16.1803 9.09035 16.2403 9.03035C16.3003 8.97035 16.3903 8.97035 16.4503 9.03035L16.7103 9.29035C16.7703 9.35035 16.7703 9.44035 16.7103 9.50035C16.6803 9.53035 16.6403 9.54035 16.6003 9.54035H16.6103Z" fill="#858585"/>
<path d="M18.4615 10.1503C18.4615 10.1503 18.3815 10.1403 18.3515 10.1103L16.9415 8.70031C16.8815 8.64031 16.8815 8.55031 16.9415 8.49031C17.0015 8.43031 17.0915 8.43031 17.1515 8.49031L18.5615 9.90031C18.6215 9.96031 18.6215 10.0503 18.5615 10.1103C18.5315 10.1403 18.4915 10.1503 18.4515 10.1503H18.4615Z" fill="#858585"/>
<path d="M20.2209 10.86C20.2209 10.86 20.1409 10.84 20.1109 10.81L17.5509 8.17004C17.4909 8.11004 17.4909 8.02004 17.5509 7.96004C17.6109 7.90004 17.7009 7.90004 17.7609 7.96004L20.3209 10.6C20.3809 10.66 20.3809 10.75 20.3209 10.81C20.2909 10.84 20.2509 10.85 20.2209 10.85V10.86Z" fill="#858585"/>
<path d="M22.07 11.4703C22.07 11.4703 21.99 11.4603 21.96 11.4303L18.17 7.64025C18.11 7.58025 18.11 7.49025 18.17 7.43025C18.23 7.37025 18.32 7.37025 18.38 7.43025L22.17 11.2203C22.23 11.2803 22.23 11.3703 22.17 11.4303C22.14 11.4603 22.1 11.4703 22.06 11.4703H22.07Z" fill="#858585"/>
<path d="M23.9211 12.1802C23.9211 12.1802 23.8411 12.1702 23.8111 12.1402L18.7911 7.12023C18.7311 7.06023 18.7311 6.97023 18.7911 6.91023C18.8511 6.85023 18.9411 6.85023 19.0011 6.91023L24.0211 11.9302C24.0811 11.9902 24.0811 12.0802 24.0211 12.1402C23.9911 12.1702 23.9511 12.1802 23.9111 12.1802H23.9211Z" fill="#858585"/>
<path d="M24.3603 11.39C24.3603 11.39 24.2803 11.38 24.2503 11.35L19.4903 6.58996C19.4303 6.52996 19.4303 6.43996 19.4903 6.37996C19.5503 6.31996 19.6403 6.31996 19.7003 6.37996L24.4603 11.14C24.5203 11.2 24.5203 11.29 24.4603 11.35C24.4303 11.38 24.3903 11.39 24.3503 11.39H24.3603Z" fill="#858585"/>
<path d="M24.1014 9.98018C24.1014 9.98018 24.0214 9.97018 23.9914 9.94018L20.1114 6.06018C20.0514 6.00018 20.0514 5.91018 20.1114 5.85018C20.1714 5.79018 20.2614 5.79018 20.3214 5.85018L24.2014 9.73018C24.2614 9.79018 24.2614 9.88018 24.2014 9.94018C24.1714 9.97018 24.1314 9.98018 24.0914 9.98018H24.1014Z" fill="#858585"/>
<path d="M23.7505 8.4799C23.7505 8.4799 23.6705 8.4699 23.6405 8.4399L20.7305 5.5299C20.6705 5.4699 20.6705 5.3799 20.7305 5.3199C20.7905 5.2599 20.8805 5.2599 20.9405 5.3199L23.8505 8.2299C23.9105 8.2899 23.9105 8.3799 23.8505 8.4399C23.8205 8.4699 23.7805 8.4799 23.7405 8.4799H23.7505Z" fill="#858585"/>
<path d="M23.4797 6.98012C23.4797 6.98012 23.4097 6.97012 23.3797 6.94012L21.3497 5.00012C21.2897 4.94012 21.2897 4.85012 21.3497 4.79012C21.4097 4.73012 21.4997 4.73012 21.5597 4.79012L23.5897 6.73012C23.6497 6.79012 23.6497 6.88012 23.5897 6.94012C23.5597 6.97012 23.5197 6.99012 23.4797 6.99012V6.98012Z" fill="#858585"/>
<path d="M23.1311 5.47999C23.1311 5.47999 23.0511 5.45999 23.0211 5.42999L22.0511 4.36999C21.9911 4.30999 22.0011 4.20999 22.0511 4.15999C22.1111 4.09999 22.2111 4.10999 22.2611 4.15999L23.2311 5.21999C23.2911 5.27999 23.2811 5.37999 23.2311 5.42999C23.2011 5.45999 23.1611 5.46999 23.1311 5.46999V5.47999Z" fill="#858585"/>
<path d="M24.5409 12.3601C24.5409 12.3601 24.5109 12.3601 24.4909 12.3601L16.2109 9.45012C16.1609 9.43012 16.1209 9.39012 16.1109 9.34012C16.1009 9.29012 16.1109 9.23012 16.1609 9.20012L22.6809 3.65012C22.7109 3.63012 22.7409 3.62012 22.7609 3.62012C22.7609 3.62012 22.7609 3.62012 22.7709 3.62012C22.7709 3.62012 22.8409 3.64012 22.8609 3.66012L22.9509 3.75012C23.0109 3.81012 23.0109 3.90012 22.9509 3.96012L24.6609 12.1901C24.6709 12.2401 24.6609 12.3001 24.6109 12.3301C24.5809 12.3501 24.5509 12.3701 24.5109 12.3701L24.5409 12.3601ZM16.5509 9.25012L24.3309 11.9801L22.6709 4.03012L16.5409 9.25012H16.5509Z" fill="#858585"/>
<path d="M12.5603 16.14C12.5603 16.14 12.4903 16.13 12.4703 16.11C12.4103 16.06 12.3903 15.96 12.4503 15.9L12.8003 15.46C12.8503 15.4 12.9503 15.38 13.0103 15.44C13.0703 15.5 13.0903 15.59 13.0303 15.65L12.6803 16.09C12.6803 16.09 12.6103 16.15 12.5603 16.15V16.14Z" fill="#858585"/>
<path d="M13.0007 16.8504C13.0007 16.8504 12.9207 16.8404 12.8907 16.8104C12.8307 16.7504 12.8307 16.6604 12.8907 16.6004L14.2107 15.2804C14.2707 15.2204 14.3607 15.2204 14.4207 15.2804C14.4807 15.3404 14.4807 15.4304 14.4207 15.4904L13.1007 16.8104C13.1007 16.8104 13.0307 16.8504 12.9907 16.8504H13.0007Z" fill="#858585"/>
<path d="M13.53 17.5501C13.53 17.5501 13.45 17.5401 13.42 17.5101C13.36 17.4501 13.36 17.3601 13.42 17.3001L15.45 15.2701C15.51 15.2101 15.6 15.2101 15.66 15.2701C15.72 15.3301 15.72 15.4201 15.66 15.4801L13.63 17.5101C13.63 17.5101 13.56 17.5501 13.52 17.5501H13.53Z" fill="#858585"/>
<path d="M13.9714 18.1699C13.9714 18.1699 13.8914 18.1499 13.8614 18.1199C13.8014 18.0599 13.8014 17.9599 13.8614 17.9099L16.5014 15.3599C16.5614 15.2999 16.6514 15.2999 16.7114 15.3599C16.7714 15.4199 16.7714 15.5199 16.7114 15.5699L14.0714 18.1199C14.0714 18.1199 14.0014 18.1599 13.9714 18.1599V18.1699Z" fill="#858585"/>
<path d="M14.5007 18.8701C14.5007 18.8701 14.4207 18.8601 14.3907 18.8301C14.3307 18.7701 14.3307 18.6801 14.3907 18.6201L17.4707 15.5401C17.5307 15.4801 17.6207 15.4801 17.6807 15.5401C17.7407 15.6001 17.7407 15.6901 17.6807 15.7501L14.6007 18.8301C14.6007 18.8301 14.5307 18.8701 14.4907 18.8701H14.5007Z" fill="#858585"/>
<path d="M15.1101 19.4899C15.1101 19.4899 15.0301 19.4799 15.0001 19.4499C14.9401 19.3899 14.9401 19.2999 15.0001 19.2399L18.4401 15.7999C18.5001 15.7399 18.5901 15.7399 18.6501 15.7999C18.7101 15.8599 18.7101 15.9499 18.6501 16.0099L15.2101 19.4499C15.2101 19.4499 15.1401 19.4899 15.1001 19.4899H15.1101Z" fill="#858585"/>
<path d="M15.6413 20.1099C15.6413 20.1099 15.5613 20.0999 15.5313 20.0699C15.4713 20.0099 15.4713 19.9199 15.5313 19.8599L19.3213 16.0699C19.3813 16.0099 19.4713 16.0099 19.5313 16.0699C19.5913 16.1299 19.5913 16.2199 19.5313 16.2799L15.7413 20.0699C15.7413 20.0699 15.6713 20.1099 15.6313 20.1099H15.6413Z" fill="#858585"/>
<path d="M16.2605 20.6403C16.2605 20.6403 16.1805 20.6303 16.1505 20.6003C16.0905 20.5403 16.0905 20.4503 16.1505 20.3903L20.1105 16.4303C20.1705 16.3703 20.2605 16.3703 20.3205 16.4303C20.3805 16.4903 20.3805 16.5803 20.3205 16.6403L16.3605 20.6003C16.3605 20.6003 16.2905 20.6403 16.2505 20.6403H16.2605Z" fill="#858585"/>
<path d="M16.8716 21.2499C16.8716 21.2499 16.7916 21.2399 16.7716 21.2099C16.7116 21.1499 16.7116 21.0599 16.7716 20.9999L20.8216 16.8599C20.8816 16.7999 20.9816 16.7999 21.0316 16.8599C21.0916 16.9199 21.0916 17.0099 21.0316 17.0699L16.9816 21.2099C16.9816 21.2099 16.9116 21.2599 16.8716 21.2599V21.2499Z" fill="#858585"/>
<path d="M17.4909 21.7802C17.4909 21.7802 17.4109 21.7702 17.3809 21.7402C17.3209 21.6802 17.3209 21.5902 17.3809 21.5302L21.5209 17.3902C21.5809 17.3302 21.6709 17.3302 21.7309 17.3902C21.7909 17.4502 21.7909 17.5402 21.7309 17.6002L17.5909 21.7402C17.5909 21.7402 17.5209 21.7802 17.4809 21.7802H17.4909Z" fill="#858585"/>
<path d="M18.1999 22.2202C18.1999 22.2202 18.1199 22.2002 18.0899 22.1702C18.0299 22.1102 18.0299 22.0202 18.0899 21.9602L22.2299 17.9102C22.2899 17.8502 22.3799 17.8502 22.4399 17.9102C22.4999 17.9702 22.4999 18.0602 22.4399 18.1202L18.2999 22.1702C18.2999 22.1702 18.2299 22.2102 18.1999 22.2102V22.2202Z" fill="#858585"/>
<path d="M18.8113 22.75C18.8113 22.75 18.7312 22.73 18.7012 22.7C18.6412 22.64 18.6412 22.55 18.7012 22.49L22.8412 18.44C22.9012 18.38 22.9913 18.38 23.0513 18.44C23.1113 18.5 23.1113 18.59 23.0513 18.65L18.9113 22.7C18.9113 22.7 18.8413 22.74 18.8113 22.74V22.75Z" fill="#858585"/>
<path d="M19.5202 23.2801C19.5202 23.2801 19.4402 23.2701 19.4102 23.2401C19.3502 23.1801 19.3502 23.0901 19.4102 23.0301L23.4602 18.9801C23.5202 18.9201 23.6102 18.9201 23.6702 18.9801C23.7302 19.0401 23.7302 19.1301 23.6702 19.1901L19.6202 23.2401C19.6202 23.2401 19.5502 23.2801 19.5102 23.2801H19.5202Z" fill="#858585"/>
<path d="M20.2214 23.7202C20.2214 23.7202 20.1414 23.7002 20.1114 23.6702C20.0514 23.6102 20.0514 23.5202 20.1114 23.4602L24.0714 19.5802C24.1314 19.5202 24.2214 19.5202 24.2814 19.5802C24.3414 19.6402 24.3414 19.7302 24.2814 19.7902L20.3214 23.6702C20.3214 23.6702 20.2514 23.7102 20.2214 23.7102V23.7202Z" fill="#858585"/>
<path d="M20.9304 24.2502C20.9304 24.2502 20.8504 24.2402 20.8204 24.2102C20.7604 24.1502 20.7604 24.0602 20.8204 24.0002L24.7004 20.1202C24.7604 20.0602 24.8504 20.0602 24.9104 20.1202C24.9704 20.1802 24.9704 20.2702 24.9104 20.3302L21.0304 24.2102C21.0304 24.2102 20.9604 24.2502 20.9204 24.2502H20.9304Z" fill="#858585"/>
<path d="M21.6316 24.6903C21.6316 24.6903 21.5516 24.6803 21.5216 24.6503C21.4616 24.5903 21.4616 24.5003 21.5216 24.4403L25.2216 20.7403C25.2816 20.6803 25.3716 20.6803 25.4316 20.7403C25.4916 20.8003 25.4916 20.8903 25.4316 20.9503L21.7316 24.6503C21.7316 24.6503 21.6616 24.6903 21.6216 24.6903H21.6316Z" fill="#858585"/>
<path d="M22.4206 25.1299C22.4206 25.1299 22.3406 25.1199 22.3106 25.0899C22.2506 25.0299 22.2506 24.9399 22.3106 24.8799L25.8306 21.3599C25.8906 21.2999 25.9806 21.2999 26.0406 21.3599C26.1006 21.4199 26.1006 21.5099 26.0406 21.5699L22.5206 25.0899C22.5206 25.0899 22.4506 25.1299 22.4106 25.1299H22.4206Z" fill="#858585"/>
<path d="M23.1313 25.5703C23.1313 25.5703 23.0513 25.5603 23.0313 25.5303C22.9713 25.4703 22.9713 25.3803 23.0313 25.3203L26.2913 21.9703C26.3513 21.9103 26.4413 21.9103 26.5013 21.9703C26.5613 22.0303 26.5613 22.1203 26.5013 22.1803L23.2413 25.5303C23.2413 25.5303 23.1713 25.5803 23.1313 25.5803V25.5703Z" fill="#858585"/>
<path d="M23.9206 25.9203C23.9206 25.9203 23.8406 25.9103 23.8106 25.8803C23.7506 25.8203 23.7506 25.7303 23.8106 25.6703L26.7206 22.7603C26.7806 22.7003 26.8706 22.7003 26.9306 22.7603C26.9906 22.8203 26.9906 22.9103 26.9306 22.9703L24.0206 25.8803C24.0206 25.8803 23.9506 25.9203 23.9106 25.9203H23.9206Z" fill="#858585"/>
<path d="M24.7114 26.3601C24.7114 26.3601 24.6314 26.3501 24.6114 26.3201C24.5514 26.2601 24.5514 26.1701 24.6114 26.1101L27.0814 23.5601C27.1414 23.5001 27.2314 23.5001 27.2914 23.5601C27.3514 23.6201 27.3514 23.7101 27.2914 23.7701L24.8214 26.3201C24.8214 26.3201 24.7514 26.3701 24.7114 26.3701V26.3601Z" fill="#858585"/>
<path d="M25.5102 26.72C25.5102 26.72 25.4402 26.71 25.4102 26.68C25.3502 26.62 25.3502 26.53 25.4102 26.47L27.3502 24.44C27.4102 24.38 27.5002 24.38 27.5602 24.44C27.6202 24.5 27.6202 24.59 27.5602 24.65L25.6202 26.68C25.6202 26.68 25.5502 26.73 25.5102 26.73V26.72Z" fill="#858585"/>
<path d="M26.3015 27.0701C26.3015 27.0701 26.2215 27.0601 26.1915 27.0301C26.1315 26.9701 26.1315 26.8801 26.1915 26.8201L27.5115 25.5001C27.5715 25.4401 27.6615 25.4401 27.7215 25.5001C27.7815 25.5601 27.7815 25.6501 27.7215 25.7101L26.4015 27.0301C26.4015 27.0301 26.3315 27.0701 26.2915 27.0701H26.3015Z" fill="#858585"/>
<path d="M27.1804 27.4202C27.1804 27.4202 27.1004 27.4102 27.0704 27.3802C27.0104 27.3202 27.0104 27.2302 27.0704 27.1702L27.6004 26.6402C27.6604 26.5802 27.7504 26.5802 27.8104 26.6402C27.8704 26.7002 27.8704 26.7902 27.8104 26.8502L27.2804 27.3802C27.2804 27.3802 27.2104 27.4202 27.1704 27.4202H27.1804Z" fill="#858585"/>
<path d="M20.2214 23.8101C20.2214 23.8101 20.1414 23.8001 20.1114 23.7701L12.3614 16.0201C12.3014 15.9601 12.3014 15.8701 12.3614 15.8101C12.4214 15.7501 12.5114 15.7501 12.5714 15.8101L20.3214 23.5601C20.3814 23.6201 20.3814 23.7101 20.3214 23.7701C20.2914 23.8001 20.2514 23.8101 20.2114 23.8101H20.2214Z" fill="#858585"/>
<path d="M23.2203 25.5703C23.2203 25.5703 23.1403 25.5603 23.1103 25.5303L13.2403 15.6603C13.1803 15.6003 13.1803 15.5103 13.2403 15.4503C13.3003 15.3903 13.3903 15.3903 13.4503 15.4503L23.3203 25.3203C23.3803 25.3803 23.3803 25.4703 23.3203 25.5303C23.2903 25.5603 23.2503 25.5703 23.2103 25.5703H23.2203Z" fill="#858585"/>
<path d="M25.601 26.7201C25.601 26.7201 25.521 26.7101 25.491 26.6801L14.211 15.4801C14.151 15.4201 14.151 15.3301 14.211 15.2701C14.271 15.2101 14.361 15.2101 14.421 15.2701L25.701 26.4601C25.761 26.5201 25.761 26.6101 25.701 26.6701C25.671 26.7001 25.631 26.7101 25.591 26.7101L25.601 26.7201Z" fill="#858585"/>
<path d="M27.5312 27.5101C27.5312 27.5101 27.4512 27.5001 27.4212 27.4701L15.4512 15.4801C15.3912 15.4201 15.3912 15.3301 15.4512 15.2701C15.5112 15.2101 15.6013 15.2101 15.6613 15.2701L27.6413 27.2501C27.7013 27.3101 27.7013 27.4001 27.6413 27.4601C27.6113 27.4901 27.5712 27.5001 27.5312 27.5001V27.5101Z" fill="#858585"/>
<path d="M27.7098 26.5402C27.7098 26.5402 27.6298 26.5302 27.5998 26.5002L16.6798 15.5802C16.6198 15.5202 16.6198 15.4302 16.6798 15.3702C16.7398 15.3102 16.8298 15.3102 16.8898 15.3702L27.8098 26.2902C27.8698 26.3502 27.8698 26.4402 27.8098 26.5002C27.7798 26.5302 27.7398 26.5402 27.6998 26.5402H27.7098Z" fill="#858585"/>
<path d="M27.62 25.2203C27.62 25.2203 27.54 25.2103 27.51 25.1803L18.17 15.9303C18.11 15.8703 18.11 15.7803 18.17 15.7203C18.23 15.6603 18.32 15.6603 18.38 15.7203L27.72 24.9703C27.78 25.0303 27.78 25.1203 27.72 25.1803C27.69 25.2103 27.65 25.2203 27.61 25.2203H27.62Z" fill="#858585"/>
<path d="M27.0912 23.5403C27.0912 23.5403 27.0113 23.5303 26.9813 23.5003L20.2012 16.7203C20.1412 16.6603 20.1412 16.5703 20.2012 16.5103C20.2612 16.4503 20.3513 16.4503 20.4113 16.5103L27.1912 23.2903C27.2512 23.3503 27.2512 23.4403 27.1912 23.5003C27.1612 23.5303 27.1213 23.5403 27.0813 23.5403H27.0912Z" fill="#858585"/>
<path d="M27.6213 27.6C27.6213 27.6 27.5813 27.6 27.5613 27.59L25.0912 26.53L22.7013 25.29L20.4013 23.96L18.2712 22.36L16.5013 20.95L14.9113 19.45L13.4912 17.67L12.2513 15.81C12.2513 15.81 12.2212 15.72 12.2412 15.67C12.2612 15.62 12.3013 15.59 12.3513 15.58L14.1112 15.23H15.9012L17.6912 15.49L19.3913 16.02L20.9113 16.82L22.4212 17.8L25.6112 20.81L26.5112 21.97L27.1413 23.23L27.6712 24.56C27.6712 24.56 27.6712 24.58 27.6712 24.6L27.8512 26.01L27.7612 27.45C27.7612 27.45 27.7312 27.54 27.6912 27.57C27.6712 27.58 27.6412 27.59 27.6112 27.59L27.6213 27.6ZM12.6313 15.83L13.7412 17.49L15.1413 19.24L16.7113 20.72L18.4613 22.12L20.5713 23.7L22.8512 25.01L25.2213 26.24L27.4813 27.21L27.5613 26.01L27.3913 24.65L26.8713 23.35L26.2612 22.13L25.3913 21.01L22.2313 18.03L20.7513 17.08L19.2612 16.29L17.6112 15.77L15.8713 15.51H14.1313L12.6213 15.82L12.6313 15.83Z" fill="#858585"/>
<path d="M37.5808 34.6399C37.5808 34.6399 37.5008 34.6299 37.4708 34.5999C37.4108 34.5399 37.4108 34.4499 37.4708 34.3899L37.5608 34.2999C37.6208 34.2399 37.7108 34.2399 37.7708 34.2999C37.8308 34.3599 37.8308 34.4499 37.7708 34.5099L37.6808 34.5999C37.6808 34.5999 37.6108 34.6399 37.5708 34.6399H37.5808Z" fill="#858585"/>
<path d="M37.7499 35.6099C37.7499 35.6099 37.6699 35.5899 37.6399 35.5599C37.5899 35.4999 37.5899 35.3999 37.6499 35.3499L38.4399 34.6399C38.4999 34.5799 38.5999 34.5899 38.6499 34.6499C38.6999 34.7099 38.6999 34.8099 38.6399 34.8599L37.8499 35.5699C37.8499 35.5699 37.7899 35.6099 37.7499 35.6099Z" fill="#858585"/>
<path d="M37.9302 36.67C37.9302 36.67 37.8602 36.66 37.8302 36.63C37.7702 36.57 37.7702 36.48 37.8302 36.42L39.2402 34.92C39.3002 34.86 39.3902 34.86 39.4502 34.92C39.5102 34.98 39.5102 35.07 39.4502 35.13L38.0402 36.63C38.0402 36.63 37.9702 36.68 37.9302 36.68V36.67Z" fill="#858585"/>
<path d="M38.1098 37.7304C38.1098 37.7304 38.0298 37.7204 38.0098 37.6904C37.9498 37.6304 37.9498 37.5404 38.0098 37.4804L40.1198 35.2804C40.1798 35.2204 40.2698 35.2204 40.3298 35.2804C40.3898 35.3404 40.3898 35.4304 40.3298 35.4904L38.2198 37.6904C38.2198 37.6904 38.1498 37.7404 38.1098 37.7404V37.7304Z" fill="#858585"/>
<path d="M38.1902 38.7001C38.1902 38.7001 38.1102 38.6901 38.0802 38.6601C38.0202 38.6001 38.0202 38.5101 38.0802 38.4501L40.9902 35.5401C41.0502 35.4801 41.1402 35.4801 41.2002 35.5401C41.2602 35.6001 41.2602 35.6901 41.2002 35.7501L38.2902 38.6601C38.2902 38.6601 38.2202 38.7001 38.1802 38.7001H38.1902Z" fill="#858585"/>
<path d="M38.3698 39.7502C38.3698 39.7502 38.2898 39.7402 38.2598 39.7102C38.1998 39.6502 38.1998 39.5602 38.2598 39.5002L41.8698 35.8902C41.9298 35.8302 42.0198 35.8302 42.0798 35.8902C42.1398 35.9502 42.1398 36.0402 42.0798 36.1002L38.4698 39.7102C38.4698 39.7102 38.3998 39.7502 38.3598 39.7502H38.3698Z" fill="#858585"/>
<path d="M38.5515 40.7201C38.5515 40.7201 38.4715 40.7001 38.4415 40.6701C38.3815 40.6101 38.3815 40.5201 38.4415 40.4601L42.7615 36.2301C42.8215 36.1701 42.9115 36.1701 42.9715 36.2301C43.0315 36.2901 43.0315 36.3801 42.9715 36.4401L38.6515 40.6701C38.6515 40.6701 38.5815 40.7101 38.5515 40.7101V40.7201Z" fill="#858585"/>
<path d="M38.7214 41.7803C38.7214 41.7803 38.6414 41.7703 38.6114 41.7403C38.5514 41.6803 38.5514 41.5903 38.6114 41.5303L43.5414 36.5103C43.6014 36.4503 43.6914 36.4503 43.7514 36.5103C43.8114 36.5703 43.8114 36.6603 43.7514 36.7203L38.8214 41.7403C38.8214 41.7403 38.7514 41.7803 38.7114 41.7803H38.7214Z" fill="#858585"/>
<path d="M38.9011 42.7499C38.9011 42.7499 38.8211 42.7399 38.7911 42.7099C38.7311 42.6499 38.7311 42.5599 38.7911 42.4999L44.4311 36.8599C44.4911 36.7999 44.5811 36.7999 44.6411 36.8599C44.7011 36.9199 44.7011 37.0099 44.6411 37.0699L39.0011 42.7099C39.0011 42.7099 38.9311 42.7499 38.8911 42.7499H38.9011Z" fill="#858585"/>
<path d="M43.7409 39.05C43.7409 39.05 43.6609 39.04 43.6309 39.01C43.5709 38.95 43.5709 38.86 43.6309 38.8L45.3009 37.13C45.3609 37.07 45.4509 37.07 45.5109 37.13C45.5709 37.19 45.5709 37.28 45.5109 37.34L43.8409 39.01C43.8409 39.01 43.7709 39.05 43.7309 39.05H43.7409Z" fill="#858585"/>
<path d="M39.2502 42.8401C39.2502 42.8401 39.1602 42.8201 39.1302 42.7901L38.6902 42.2601C38.6402 42.2001 38.6502 42.1001 38.7102 42.0501C38.7702 42.0001 38.8702 42.0101 38.9202 42.0701L39.3602 42.6001C39.4102 42.6601 39.4002 42.7601 39.3402 42.8101C39.3102 42.8301 39.2802 42.8501 39.2402 42.8501L39.2502 42.8401Z" fill="#858585"/>
<path d="M39.9615 42.31C39.9615 42.31 39.8815 42.3 39.8515 42.27L38.4415 40.86C38.3815 40.8 38.3815 40.71 38.4415 40.65C38.5015 40.59 38.5915 40.59 38.6515 40.65L40.0615 42.06C40.1215 42.12 40.1215 42.21 40.0615 42.27C40.0315 42.3 39.9915 42.31 39.9515 42.31H39.9615Z" fill="#858585"/>
<path d="M40.5698 41.6903C40.5698 41.6903 40.4898 41.6803 40.4598 41.6503L38.2598 39.4503C38.1998 39.3903 38.1998 39.3003 38.2598 39.2403C38.3198 39.1803 38.4098 39.1803 38.4698 39.2403L40.6698 41.4403C40.7298 41.5003 40.7298 41.5903 40.6698 41.6503C40.6398 41.6803 40.5998 41.6903 40.5598 41.6903H40.5698Z" fill="#858585"/>
<path d="M41.1898 41.1602C41.1898 41.1602 41.1098 41.1502 41.0898 41.1202L38.0098 38.1202C37.9498 38.0602 37.9498 37.9702 38.0098 37.9102C38.0698 37.8502 38.1598 37.8502 38.2198 37.9102L41.2998 40.9102C41.3598 40.9702 41.3598 41.0602 41.2998 41.1202C41.2698 41.1502 41.2298 41.1702 41.1898 41.1702V41.1602Z" fill="#858585"/>
<path d="M41.8104 40.6403C41.8104 40.6403 41.7304 40.6303 41.7004 40.6003L37.8204 36.7203C37.7604 36.6603 37.7604 36.5703 37.8204 36.5103C37.8804 36.4503 37.9704 36.4503 38.0304 36.5103L41.9104 40.3903C41.9704 40.4503 41.9704 40.5403 41.9104 40.6003C41.8804 40.6303 41.8404 40.6403 41.8004 40.6403H41.8104Z" fill="#858585"/>
<path d="M42.5106 40.1102C42.5106 40.1102 42.4306 40.1002 42.4006 40.0702L37.5606 35.3102C37.5006 35.2502 37.5006 35.1602 37.5606 35.1002C37.6206 35.0402 37.7106 35.0402 37.7706 35.1002L42.6106 39.8602C42.6706 39.9202 42.6706 40.0102 42.6106 40.0702C42.5806 40.1002 42.5406 40.1102 42.5006 40.1102H42.5106Z" fill="#858585"/>
<path d="M43.1298 39.5799C43.1298 39.5799 43.0498 39.5699 43.0198 39.5399L38.2598 34.7799C38.1998 34.7199 38.1998 34.6299 38.2598 34.5699C38.3198 34.5099 38.4098 34.5099 38.4698 34.5699L43.2298 39.3299C43.2898 39.3899 43.2898 39.4799 43.2298 39.5399C43.1998 39.5699 43.1598 39.5799 43.1198 39.5799H43.1298Z" fill="#858585"/>
<path d="M43.7414 39.0504C43.7414 39.0504 43.6614 39.0404 43.6314 39.0104L40.1114 35.4904C40.0514 35.4304 40.0514 35.3404 40.1114 35.2804C40.1714 35.2204 40.2614 35.2204 40.3214 35.2804L43.8414 38.8004C43.9014 38.8604 43.9014 38.9504 43.8414 39.0104C43.8114 39.0404 43.7714 39.0504 43.7314 39.0504H43.7414Z" fill="#858585"/>
<path d="M44.361 38.52C44.361 38.52 44.281 38.5 44.251 38.47L41.961 36.09C41.901 36.03 41.901 35.93 41.961 35.88C42.021 35.82 42.121 35.82 42.171 35.88L44.461 38.26C44.521 38.32 44.521 38.42 44.461 38.47C44.431 38.5 44.391 38.51 44.361 38.51V38.52Z" fill="#858585"/>
<path d="M45.0706 37.9902C45.0706 37.9902 44.9906 37.9802 44.9606 37.9502L43.8106 36.8102C43.7506 36.7502 43.7506 36.6602 43.8106 36.6002C43.8706 36.5402 43.9606 36.5402 44.0206 36.6002L45.1706 37.7402C45.2306 37.8002 45.2306 37.8902 45.1706 37.9502C45.1406 37.9802 45.1006 37.9902 45.0606 37.9902H45.0706Z" fill="#858585"/>
<path d="M38.8997 43.1002C38.8997 43.1002 38.8597 43.1002 38.8497 43.1002C38.7997 43.0802 38.7597 43.0402 38.7497 42.9802L37.4297 34.4302C37.4297 34.3802 37.4397 34.3302 37.4797 34.2902C37.5197 34.2602 37.5797 34.2502 37.6297 34.2702L45.6497 37.1802C45.6997 37.2002 45.7397 37.2402 45.7497 37.2902C45.7497 37.3402 45.7497 37.4002 45.6997 37.4302L39.0097 43.0702C39.0097 43.0702 38.9497 43.1102 38.9097 43.1102L38.8997 43.1002ZM37.7697 34.6302L39.0097 42.6602L45.2997 37.3602L37.7697 34.6302Z" fill="#858585"/>
<path d="M45.1509 45.9204C45.1509 45.9204 45.0809 45.9104 45.0509 45.8804C44.9909 45.8204 44.9909 45.7304 45.0509 45.6704L46.1109 44.5304C46.1709 44.4704 46.2609 44.4704 46.3209 44.5304C46.3809 44.5904 46.3809 44.6804 46.3209 44.7404L45.2609 45.8804C45.2609 45.8804 45.1909 45.9304 45.1509 45.9304V45.9204Z" fill="#858585"/>
<path d="M45.8601 46.3603C45.8601 46.3603 45.7801 46.3503 45.7501 46.3203C45.6901 46.2603 45.6901 46.1703 45.7501 46.1103L49.1001 42.7603C49.1601 42.7003 49.2501 42.7003 49.3101 42.7603C49.3701 42.8203 49.3701 42.9103 49.3101 42.9703L45.9601 46.3203C45.9601 46.3203 45.8901 46.3603 45.8501 46.3603H45.8601Z" fill="#858585"/>
<path d="M46.6511 46.8001C46.6511 46.8001 46.5711 46.7901 46.5411 46.7601C46.4811 46.7001 46.4811 46.6101 46.5411 46.5501L49.3611 43.7301C49.4211 43.6701 49.5111 43.6701 49.5711 43.7301C49.6311 43.7901 49.6311 43.8801 49.5711 43.9401L46.7511 46.7601C46.7511 46.7601 46.6811 46.8001 46.6411 46.8001H46.6511Z" fill="#858585"/>
<path d="M47.3601 47.24C47.3601 47.24 47.2801 47.23 47.2501 47.2C47.1901 47.14 47.1901 47.05 47.2501 46.99L49.3601 44.88C49.4201 44.82 49.5101 44.82 49.5701 44.88C49.6301 44.94 49.6301 45.03 49.5701 45.09L47.4601 47.2C47.4601 47.2 47.3901 47.24 47.3501 47.24H47.3601Z" fill="#858585"/>
<path d="M48.1509 47.6801C48.1509 47.6801 48.0809 47.6701 48.0509 47.6401C47.9909 47.5801 47.9909 47.4901 48.0509 47.4301L49.3709 46.0201C49.4309 45.9601 49.5209 45.9601 49.5809 46.0201C49.6409 46.0801 49.6409 46.1701 49.5809 46.2301L48.2609 47.6401C48.2609 47.6401 48.1909 47.6901 48.1509 47.6901V47.6801Z" fill="#858585"/>
<path d="M48.8514 48.0404C48.8514 48.0404 48.7714 48.0204 48.7414 47.9904C48.6914 47.9304 48.6914 47.8304 48.7514 47.7804L49.4614 47.1604C49.5214 47.1104 49.6214 47.1104 49.6714 47.1704C49.7214 47.2304 49.7214 47.3304 49.6614 47.3804L48.9514 48.0004C48.9514 48.0004 48.8914 48.0404 48.8514 48.0404Z" fill="#858585"/>
<path d="M47.001 47.0699C47.001 47.0699 46.921 47.0499 46.891 47.0199L45.221 45.2599C45.161 45.1999 45.171 45.0999 45.221 45.0499C45.281 44.9899 45.381 44.9899 45.431 45.0499L47.101 46.8099C47.161 46.8699 47.151 46.9699 47.101 47.0199C47.071 47.0499 47.031 47.0599 47.001 47.0599V47.0699Z" fill="#858585"/>
<path d="M49.5598 48.3899C49.5598 48.3899 49.4798 48.3699 49.4498 48.3399L46.0098 44.8199C45.9498 44.7599 45.9498 44.6699 46.0098 44.6099C46.0698 44.5499 46.1598 44.5499 46.2198 44.6099L49.6598 48.1299C49.7198 48.1899 49.7198 48.2799 49.6598 48.3399C49.6298 48.3699 49.5898 48.3799 49.5598 48.3799V48.3899Z" fill="#858585"/>
<path d="M49.5608 47.15C49.5608 47.15 49.4808 47.14 49.4508 47.11L46.7208 44.38C46.6608 44.32 46.6608 44.23 46.7208 44.17C46.7808 44.11 46.8708 44.11 46.9308 44.17L49.6608 46.9C49.7208 46.96 49.7208 47.05 49.6608 47.11C49.6308 47.14 49.5908 47.15 49.5508 47.15H49.5608Z" fill="#858585"/>
<path d="M49.47 45.9201C49.47 45.9201 49.39 45.9101 49.36 45.8801L47.42 43.9401C47.36 43.8801 47.36 43.7901 47.42 43.7301C47.48 43.6701 47.57 43.6701 47.63 43.7301L49.57 45.6701C49.63 45.7301 49.63 45.8201 49.57 45.8801C49.54 45.9101 49.5 45.9201 49.46 45.9201H49.47Z" fill="#858585"/>
<path d="M49.471 44.7804C49.471 44.7804 49.391 44.7604 49.361 44.7304L48.221 43.5004C48.161 43.4404 48.171 43.3404 48.221 43.2904C48.281 43.2304 48.371 43.2404 48.431 43.2904L49.571 44.5204C49.631 44.5804 49.621 44.6804 49.571 44.7304C49.541 44.7604 49.501 44.7704 49.471 44.7704V44.7804Z" fill="#858585"/>
<path d="M49.47 43.5402C49.47 43.5402 49.39 43.5302 49.36 43.5002L48.92 43.0602C48.86 43.0002 48.86 42.9102 48.92 42.8502C48.98 42.7902 49.07 42.7902 49.13 42.8502L49.57 43.2902C49.63 43.3502 49.63 43.4402 49.57 43.5002C49.54 43.5302 49.5 43.5402 49.46 43.5402H49.47Z" fill="#858585"/>
<path d="M49.5603 48.4801C49.5603 48.4801 49.5103 48.48 49.4903 48.46L44.6503 45.7301C44.6503 45.7301 44.5703 45.65 44.5703 45.6C44.5703 45.55 44.6003 45.5001 44.6403 45.4701L49.3103 42.6501C49.3103 42.6501 49.4103 42.6201 49.4603 42.6501C49.5103 42.6801 49.5403 42.72 49.5403 42.78L49.7203 48.3301C49.7203 48.3801 49.6903 48.44 49.6503 48.46C49.6303 48.47 49.6003 48.4801 49.5703 48.4801H49.5603ZM45.0103 45.5901L49.4003 48.0601L49.2403 43.03L45.0103 45.5801V45.5901Z" fill="#858585"/>
<path d="M31.8306 31.1503L31.0906 30.7803H31.9106L31.8306 31.1503ZM31.9306 30.4103L31.1506 30.3803C31.1506 30.3803 31.0906 30.3803 31.0606 30.3803L30.3406 30.3503C30.3406 30.1003 30.3506 29.8603 30.3606 29.6203C30.3606 29.6103 30.3606 29.5903 30.3606 29.5803H31.1606V29.1803L30.3606 29.2003C30.3606 28.9403 30.3406 28.6903 30.3306 28.4303L31.9306 28.3303C31.9506 28.6003 31.9606 28.8803 31.9706 29.1603H31.8606C31.9306 29.2803 31.9806 29.4303 31.9806 29.5803C31.9806 29.8503 31.9806 30.1303 31.9606 30.4103H31.9306ZM30.2806 28.0503C30.2606 27.7903 30.2306 27.5403 30.2006 27.2903L31.7906 27.0803C31.8306 27.3503 31.8606 27.6303 31.8806 27.9103L30.2906 28.0503H30.2806ZM30.1406 26.9103C30.1006 26.6603 30.0606 26.4103 30.0006 26.1603L31.5706 25.8403C31.6206 26.1103 31.6706 26.3803 31.7206 26.6603L30.1406 26.9103ZM29.9306 25.7903C29.8706 25.5403 29.8106 25.2903 29.7406 25.0503L31.2806 24.6203C31.3506 24.8803 31.4206 25.1503 31.4906 25.4303L29.9306 25.7903ZM29.6306 24.6803C29.5606 24.4303 29.4806 24.1903 29.3906 23.9603L30.9006 23.4203C30.9906 23.6803 31.0806 23.9503 31.1606 24.2203L29.6306 24.6803ZM29.2606 23.6003C29.1706 23.3603 29.0706 23.1303 28.9706 22.9003L30.4306 22.2503C30.5406 22.5003 30.6506 22.7603 30.7506 23.0303L29.2606 23.6103V23.6003ZM28.8106 22.5503C28.7006 22.3203 28.5906 22.0903 28.4706 21.8703L29.8806 21.1103C30.0106 21.3503 30.1406 21.6003 30.2606 21.8603L28.8106 22.5503ZM28.2806 21.5403C28.1506 21.3203 28.0206 21.1003 27.8906 20.8903L29.2406 20.0303C29.3906 20.2603 29.5306 20.5003 29.6706 20.7503L28.2806 21.5403ZM27.6806 20.5703C27.5406 20.3603 27.3906 20.1503 27.2406 19.9503L28.5206 18.9903C28.6906 19.2103 28.8506 19.4403 29.0106 19.6803L27.6806 20.5703ZM27.0106 19.6503C26.8506 19.4503 26.6906 19.2503 26.5206 19.0703L27.7206 18.0103C27.9006 18.2203 28.0806 18.4303 28.2606 18.6503L27.0106 19.6503ZM26.2706 18.7803C26.0906 18.5903 25.9206 18.4103 25.7406 18.2403L26.8506 17.0903C27.0506 17.2803 27.2406 17.4803 27.4406 17.6903L26.2606 18.7803H26.2706ZM25.4706 17.9803C25.2806 17.8003 25.0906 17.6403 24.9006 17.4903L25.9006 16.2403C26.1106 16.4103 26.3306 16.5903 26.5506 16.7903L25.4706 17.9703V17.9803ZM24.6006 17.2603C24.3706 17.0903 24.1806 16.9503 23.9906 16.8203L24.8806 15.4903C25.0906 15.6303 25.3006 15.7803 25.5106 15.9403L25.0806 16.6203L24.5906 17.2603H24.6006ZM23.6706 16.6103C23.4506 16.4703 23.2406 16.3403 23.0206 16.2103L23.8206 14.8303C24.0606 14.9703 24.3006 15.1103 24.5406 15.2703L23.6706 16.6203V16.6103ZM22.6906 16.0303C22.4706 15.9103 22.2406 15.7903 22.0106 15.6803L22.7106 14.2403C22.9606 14.3603 23.2106 14.4903 23.4606 14.6203L22.6906 16.0203V16.0303ZM21.6706 15.5203C21.4406 15.4103 21.2006 15.3103 20.9706 15.2203L21.5706 13.7403C21.8306 13.8403 22.0806 13.9503 22.3406 14.0703L21.6706 15.5203ZM20.6206 15.0803C20.3806 14.9903 20.1406 14.9003 19.9006 14.8303L20.4006 13.3103C20.6606 13.4003 20.9206 13.4903 21.1906 13.5903L20.6306 15.0903L20.6206 15.0803ZM19.5406 14.7103C19.2906 14.6303 19.0506 14.5703 18.8006 14.5003L19.2106 12.9503C19.4806 13.0203 19.7406 13.0903 20.0106 13.1803L19.5506 14.7103H19.5406ZM18.4306 14.4103C18.1806 14.3503 17.9306 14.3003 17.6706 14.2503L17.9806 12.6803C18.2506 12.7303 18.5206 12.7903 18.7906 12.8603L18.4206 14.4203L18.4306 14.4103ZM8.43062 14.3003L8.14062 12.7303C8.40062 12.6803 8.67062 12.6403 8.95062 12.5903L9.20062 14.1703C8.94062 14.2103 8.68062 14.2503 8.43062 14.3003ZM17.3006 14.1803C17.0506 14.1303 16.7906 14.0903 16.5406 14.0603L16.7606 12.4803C17.0306 12.5203 17.3006 12.5603 17.5806 12.6103L17.3006 14.1903V14.1803ZM9.58063 14.1203L9.36062 12.5403C9.63062 12.5003 9.90063 12.4703 10.1806 12.4403L10.3606 14.0303C10.1006 14.0603 9.84063 14.0903 9.59063 14.1303L9.58063 14.1203ZM16.1606 14.0103C15.9006 13.9803 15.6406 13.9503 15.3906 13.9303L15.5306 12.3403C15.8006 12.3603 16.0806 12.3903 16.3506 12.4203L16.1606 14.0103ZM10.7406 13.9803L10.5806 12.3903C10.8506 12.3603 11.1206 12.3403 11.4006 12.3203L11.5106 13.9203C11.2506 13.9403 10.9906 13.9603 10.7406 13.9903V13.9803ZM15.0006 13.9003C14.7406 13.8803 14.4806 13.8703 14.2306 13.8603L14.2806 12.2603C14.5506 12.2603 14.8306 12.2803 15.1106 12.3003L15.0006 13.9003ZM11.9006 13.9003L11.8106 12.3003C12.0806 12.2903 12.3606 12.2703 12.6306 12.2703L12.6706 13.8703C12.4106 13.8703 12.1506 13.8903 11.8906 13.9003H11.9006ZM13.8406 13.8603H13.3806H13.0706L13.0506 12.2603H13.3806H13.8706L13.8406 13.8603Z" fill="#858585"/>
<path d="M57.9812 49.2601C57.9812 49.2601 57.9812 49.0401 57.9612 48.6701L59.5612 48.5901C59.5812 48.9901 59.5812 49.2301 59.5812 49.2301L57.9812 49.2601ZM57.9412 48.2801C57.9312 48.0501 57.9112 47.7901 57.8912 47.4901L59.4912 47.3701C59.5112 47.6701 59.5312 47.9501 59.5412 48.1801L57.9412 48.2701V48.2801ZM57.8612 47.1001C57.8412 46.8501 57.8112 46.5901 57.7812 46.3201L59.3712 46.1501C59.4012 46.4301 59.4312 46.7101 59.4512 46.9601L57.8612 47.1001ZM57.7412 45.9301C57.7112 45.6801 57.6812 45.4201 57.6412 45.1501L59.2312 44.9401C59.2712 45.2201 59.3012 45.4901 59.3312 45.7501L57.7412 45.9301ZM57.5912 44.7601C57.5512 44.5101 57.5112 44.2501 57.4712 43.9801L59.0512 43.7201C59.0912 43.9901 59.1412 44.2601 59.1712 44.5201L57.5912 44.7501V44.7601ZM57.4012 43.5901C57.3612 43.3401 57.3112 43.0801 57.2612 42.8301L58.8312 42.5101C58.8812 42.7801 58.9412 43.0501 58.9812 43.3201L57.4012 43.5901ZM57.1812 42.4401C57.1312 42.1901 57.0712 41.9401 57.0112 41.6901L58.5612 41.3001C58.6312 41.5701 58.6912 41.8401 58.7512 42.1101L57.1912 42.4401H57.1812ZM56.9112 41.3101C56.8412 41.0601 56.7712 40.8101 56.7012 40.5701L58.2312 40.1001C58.3112 40.3601 58.3912 40.6301 58.4612 40.9001L56.9212 41.3101H56.9112Z" fill="#858585"/>
<path d="M67.9701 69.9401L69.1601 68.8701L69.2401 68.9701L67.9701 69.9401ZM67.6701 69.5801C67.5101 69.3901 67.3401 69.2001 67.1601 69.0201L68.3101 67.9101C68.5001 68.1101 68.6901 68.3201 68.8801 68.5401L67.6701 69.5801ZM66.9001 68.7501C66.7101 68.5701 66.5301 68.3901 66.3401 68.2301L67.4101 67.0401C67.6101 67.2201 67.8201 67.4101 68.0201 67.6101L66.9001 68.7501ZM66.0601 67.9801C65.8601 67.8101 65.6601 67.6501 65.4701 67.4901L66.4501 66.2301C66.6601 66.3901 66.8801 66.5701 67.1001 66.7601L66.0601 67.9801ZM65.1601 67.2601C64.9301 67.0901 64.7201 66.9401 64.5301 66.8101L65.4401 65.4901C65.6501 65.6301 65.8701 65.7901 66.1101 65.9701L65.1501 67.2501L65.1601 67.2601ZM64.2201 66.6001C63.8401 66.3501 63.5901 66.2101 63.5801 66.2001L64.3701 64.8101C64.3701 64.8101 64.6501 64.9701 65.0901 65.2601L64.2101 66.6001H64.2201Z" fill="#858585"/>
</g>
<defs>
<clipPath id="clip0_962_28918">
<rect width="120.54" height="74.44" fill="white" transform="translate(0.460938)"/>
</clipPath>
</defs>
</svg>
