<svg width="110" height="229" viewBox="0 0 110 229" fill="none" xmlns="http://www.w3.org/2000/svg">
<g clip-path="url(#clip0_962_28850)">
<path d="M106.07 116.99L105.45 113.47L101.31 94L99.81 87.04L99.46 85.37L99.2 84.05L98.85 82.73V82.55L98.32 80L97.44 75.24V75.06L97.26 74L97 72.85L96.82 71.7L96.7 71.03L96.65 70.73L96.47 69.85L96.38 69.06L96.26 68.71L96.2 68.53V68.27V68.18L94.97 61.31L93.56 53.47L93.12 51.18L92.94 50.3L92.85 49.83L92.77 49.42L92.59 48.27L92.33 46.95L92.15 45.81V45.37L92.33 43.7L92.51 41.76L92.6 39.82L92.78 37.71L92.96 35.6L93.14 33.4L93.32 31.29L93.41 30.67L93.5 29.26L93.59 27.32L94.12 14.72L92.8 11.11L91.13 6.09L81.49 0.53L80.61 0L66.17 0.53L60.62 6.08L55.6 11.1L55.69 14.71L56.13 27.31L57.19 29.25L57.63 30.66L57.79 31.21L57.81 31.27L58.25 33.38L58.34 35.58L58.08 37.69L57.46 39.8L57.02 41.74L56.14 43.68L55.08 45.35L54.95 45.51L54.72 45.79L53.84 46.93L52.25 48.25L50.58 49.4L48.73 50.28L45.38 49.4L42.47 48.96L41.85 48.87L38.87 48.56L38.42 48.51L36.04 46.92L33.4 45.16L31.2 43.57H31.11L28.82 42.34H28.73L26.35 41.37H26.26L23.79 40.75H23.7L21.15 40.4H18.42L15.95 40.75H15.86L13.39 41.37H13.3L10.92 42.34H10.83L8.54 43.57H8.45L6.34 45.16L4.4 46.92L2.99 48.51H2.98L2.73 48.86L2.64 48.95L2.29 49.39L2.16 49.61L1.76 50.27L1.14 51.15L0 53.48V61.32L0.44 68.19V68.28L0.53 68.72V69.6L0.62 70.74L0.71 72.15L0.8 73.38L0.97 73.67L1.06 73.82L1.85 75.76L2.82 77.79L3.96 80.26L5.11 82.81L6.26 85.36L6.44 85.8L9.52 89.15L11.28 91.09L13.92 94L15.07 95.23L15.25 94.11L15.87 92.17L16.22 91.55L16.84 90.32L17.63 89.17L17.98 88.64L18.51 88.2L19.39 87.23H19.48L19.13 86.61L18.87 86.08L18.25 85.02V84.93L17.99 84.31L17.81 83.87V83.69L17.46 82.9L17.28 82.46L15.52 77.79L14.82 75.41L13.76 71.71L12.88 68.63L12.79 68.19L12.35 64.67L12.17 63.7L12.08 62.91L11.81 62.12L11.46 61.42L11.55 61.24L12.69 57.89L13.66 55.25L14.01 54.37L16.04 52.52L17.36 51.37L21.06 50.49L24.5 49.87L24.76 49.78L27.23 49.87L27.85 50.49L28.73 51.37L29.87 52.51L31.54 54.36L32.42 55.24L33.21 57.88L34.71 61.23L34.8 61.41L35.07 62.12L35.33 62.91L35.59 63.7L35.94 64.67L36.82 68.19L36.91 68.63L37.44 71.71L37.79 75.41L37.88 77.79L38.06 82.46V82.9L37.97 83.69V83.87V83.96L37.88 84.23L37.79 84.58V84.67L37.7 84.85V84.94L37.52 85.47V85.56L39.28 86.62L40.25 87.24H40.34L41.22 88.21L41.57 88.65L42.01 89.18L42.54 90.33L42.98 91.56L43.25 92.18L43.95 94.12L44.57 95.79L44.66 96.05L46.24 95.79L47.83 95.35L49.33 94.65H50.83L51.01 95.35L51.1 95.79L51.19 96.05V96.14L51.37 96.76L51.63 98.17L51.89 99.84L51.98 100.19L52.24 102.13L52.59 103.98L52.85 105.65L52.94 106.62L53.47 110.5L53.82 113.41L54.08 117.11L54.61 120.81L55.05 122.4L55.22 123.28L55.48 124.42L56.71 127.86L56.8 127.95L57.06 128.57L57.85 130.33L58.29 131.3L54.15 132.09H54.06L51.33 132.71L52.39 135.79L52.65 137.02L53.09 138.96L53.18 140.11L53.53 142.22V143.37V145.48L53.44 146.8V146.98L53.35 148.74L53.26 149.09V149.44L52.73 152L52.47 152.97V153.23L52.29 153.67L51.94 155.17H51.85L51.15 156.93L50.09 158.52L48.86 159.93L47.27 161.16L45.86 161.87L45.6 162.05L44.1 162.58L43.75 162.67L42.08 162.94H41.91H39.97L39.11 162.78L34.91 166.71L27.85 176.31L26.93 178.69L25.52 183.36L24.29 188.03L23.41 192.88L23.06 196.05L22.79 197.72L22.52 202.56V212.5L22.77 212.13V212.34H22.87L25.6 214.45L28.59 216.65L31.76 219.03L35.02 221.5L38.37 224.05L41.63 226.52L44.89 228.99L44.27 226.52L44 224.05L44.09 221.5L44.53 219.03L45.32 216.65L46.47 214.45L47.88 212.34L49.55 210.49L51.49 208.9L53.6 207.58L53.69 207.49L53.78 207.4L59.51 202.55L65.24 197.7L67.09 196.03L70.79 192.86L76.25 188.01L81.62 183.34L86.91 178.67L92.02 174.09H92.11L97.31 169.68L102.33 165.28L104.27 163.69L104.71 162.28L105.24 160.87L105.94 158.76L108.58 151.1L109.2 140.09L109.38 136.83L106.03 117.01L106.07 116.99ZM49.34 94.63L50.05 94.1L50.67 93.66L50.76 94.1L50.85 94.63H49.35H49.34Z" fill="#CCCC66"/>
<path d="M52.0998 134.32L51.8398 133.15L53.0098 132.89L53.2698 134.06L52.0998 134.32ZM54.2498 133.85L53.9898 132.68L55.1598 132.42L55.4198 133.59L54.2498 133.85ZM56.3998 133.38L56.1398 132.21L57.3098 131.95L57.5698 133.12L56.3998 133.38ZM58.5498 132.91L58.2898 131.74L59.4598 131.48L59.7198 132.65L58.5498 132.91ZM60.6998 132.44L60.4398 131.27L61.6098 131.01L61.8698 132.18L60.6998 132.44ZM62.8498 131.97L62.5898 130.8L63.7598 130.54L64.0198 131.71L62.8498 131.97ZM64.9998 131.5L64.7398 130.33L65.9098 130.07L66.1698 131.24L64.9998 131.5ZM67.1498 131.03L66.8898 129.86L68.0598 129.6L68.3198 130.77L67.1498 131.03ZM69.5298 130.24L68.6498 129.42L69.4798 128.54L70.3598 129.36L69.5298 130.24ZM71.0498 128.62L70.1698 127.8L70.9998 126.92L71.8798 127.74L71.0598 128.62H71.0498ZM72.5598 127.01L71.6798 126.19L72.4998 125.31L73.3798 126.13L72.5598 127.01ZM74.0698 125.4L73.1898 124.58L74.0198 123.7L74.8898 124.52L74.0698 125.39V125.4ZM75.5798 123.8L74.6998 122.98L75.5298 122.1L76.3998 122.92L75.5798 123.8ZM77.0898 122.19L76.2098 121.37L77.0198 120.52L77.9098 121.32L77.0898 122.19ZM78.5998 120.59L77.7298 119.76L78.5598 118.89L79.4298 119.72L78.5998 120.59ZM80.1198 118.99L79.2498 118.16L80.0798 117.29L80.9498 118.12L80.1198 118.99ZM81.6398 117.4L80.7698 116.57L81.5998 115.7L82.4698 116.53L81.6398 117.4ZM83.1698 115.81L82.3098 114.98L83.1498 114.11L84.0098 114.95L83.1698 115.81ZM84.7098 114.24L83.8598 113.39C84.2298 113.01 84.4898 112.77 84.5998 112.69L84.8198 112.52L85.5298 113.49L85.3298 113.64C85.2398 113.71 85.0198 113.92 84.7098 114.24ZM86.3398 112.92L85.6498 111.94C85.9398 111.74 86.2698 111.5 86.6398 111.25L87.3198 112.24C86.9498 112.49 86.6198 112.72 86.3398 112.92ZM88.1498 111.67L87.4698 110.68C87.7898 110.46 88.1198 110.24 88.4698 110.01L89.1398 111.01C88.7898 111.24 88.4598 111.47 88.1498 111.68V111.67ZM89.9698 110.45L89.3098 109.45C89.6398 109.23 89.9798 109.01 90.3198 108.79L90.9698 109.8C90.6298 110.02 90.2998 110.24 89.9698 110.46V110.45ZM91.8098 109.25L91.1598 108.24C91.4998 108.02 91.8398 107.81 92.1798 107.59L92.8198 108.6C92.4798 108.81 92.1398 109.03 91.8098 109.24V109.25ZM93.6598 108.08L93.0298 107.06C93.3698 106.85 93.7198 106.63 94.0598 106.43L94.6798 107.46C94.3398 107.67 93.9998 107.88 93.6598 108.09V108.08ZM95.5298 106.94L94.9198 105.91C95.2798 105.7 95.6298 105.49 95.9698 105.3L96.5598 106.34C96.2298 106.53 95.8798 106.73 95.5298 106.94ZM97.4198 105.86L96.8498 104.81C97.1698 104.63 97.4798 104.47 97.7798 104.32L97.9398 104.24L98.4598 105.32L98.3198 105.39C98.0298 105.54 97.7298 105.69 97.4198 105.86ZM99.3398 104.93L98.8898 103.82C99.2698 103.67 99.6698 103.53 100.06 103.4L100.42 104.54C100.05 104.66 99.6898 104.78 99.3298 104.93H99.3398ZM101.35 104.29L101.07 103.12C101.47 103.02 101.88 102.94 102.29 102.87L102.49 104.05C102.11 104.11 101.73 104.19 101.36 104.28L101.35 104.29Z" fill="#A1A14D"/>
<path d="M93.5796 172.35C93.1296 172.28 92.7296 172.21 92.3596 172.14L92.6096 170.97C92.9496 171.04 93.3296 171.11 93.7496 171.17L93.5796 172.36V172.35ZM91.3496 171.88C90.9196 171.75 90.5196 171.61 90.1496 171.43L90.6496 170.34C90.9696 170.49 91.3196 170.61 91.6896 170.73L91.3496 171.88ZM89.2096 170.93C89.0496 170.83 88.8896 170.73 88.7296 170.63C88.5596 170.52 88.3796 170.41 88.1896 170.3L88.7996 169.27C88.9996 169.39 89.1796 169.5 89.3596 169.62C89.5096 169.71 89.6596 169.81 89.8196 169.9L89.1996 170.93H89.2096ZM87.3596 169.86L87.1796 169.78C86.9796 169.69 86.6796 169.56 86.2896 169.4L86.7496 168.29C87.1496 168.46 87.4596 168.59 87.6696 168.68L87.8796 168.78L87.3696 169.87L87.3596 169.86ZM85.3596 169.03C85.0296 168.9 84.6496 168.76 84.2496 168.61L84.6596 167.48C85.0796 167.63 85.4496 167.77 85.7996 167.91L85.3696 169.03H85.3596ZM83.3196 168.28C82.9596 168.16 82.5896 168.03 82.1896 167.91L82.5596 166.77C82.9596 166.9 83.3496 167.03 83.7096 167.15L83.3196 168.28ZM81.2496 167.61C80.8796 167.5 80.4996 167.39 80.1096 167.28L80.4296 166.13C80.8296 166.24 81.2196 166.36 81.5996 166.47L81.2496 167.62V167.61ZM79.1496 167.01C78.7796 166.91 78.3896 166.81 77.9996 166.71L78.2896 165.55C78.6896 165.65 79.0796 165.75 79.4596 165.85L79.1496 167.01ZM77.0296 166.48C76.6496 166.39 76.2596 166.31 75.8696 166.22L76.1296 165.05C76.5296 165.14 76.9196 165.23 77.3096 165.32L77.0396 166.49L77.0296 166.48ZM74.8996 166.02C74.5196 165.94 74.1296 165.87 73.7296 165.8L73.9496 164.62C74.3496 164.69 74.7496 164.77 75.1396 164.85L74.9096 166.03L74.8996 166.02ZM50.0596 165.68L49.8496 164.5C50.1896 164.44 50.5196 164.38 50.8596 164.33L51.0496 165.52C50.7196 165.57 50.3896 165.63 50.0596 165.69V165.68ZM72.7496 165.63C72.3596 165.56 71.9696 165.5 71.5696 165.44L71.7496 164.25C72.1496 164.31 72.5496 164.37 72.9496 164.44L72.7496 165.62V165.63ZM52.0196 165.36L51.8496 164.17C52.2496 164.11 52.6496 164.06 53.0496 164.01L53.1996 165.2C52.8096 165.25 52.4096 165.3 52.0196 165.36ZM70.5896 165.3C70.1996 165.25 69.8096 165.2 69.4096 165.15L69.5496 163.96C69.9496 164.01 70.3496 164.06 70.7496 164.11L70.5896 165.3ZM54.1796 165.09L54.0496 163.9C54.4596 163.86 54.8596 163.82 55.2596 163.78L55.3696 164.98C54.9796 165.02 54.5796 165.06 54.1896 165.1L54.1796 165.09ZM68.4196 165.05C68.0296 165.01 67.6296 164.97 67.2296 164.94L67.3296 163.74C67.7396 163.78 68.1396 163.81 68.5296 163.85L68.4096 165.04L68.4196 165.05ZM56.3396 164.89L56.2496 163.69C56.6596 163.66 57.0596 163.63 57.4596 163.61L57.5296 164.81C57.1396 164.83 56.7396 164.86 56.3396 164.89ZM66.2396 164.86C65.8496 164.83 65.4496 164.81 65.0496 164.79L65.1096 163.59C65.5196 163.61 65.9196 163.64 66.3196 163.67L66.2296 164.87L66.2396 164.86ZM58.5196 164.75L58.4696 163.55C58.8796 163.53 59.2796 163.52 59.6796 163.51L59.7096 164.71C59.3196 164.72 58.9196 164.73 58.5196 164.75ZM64.0696 164.74C63.6796 164.72 63.2796 164.71 62.8796 164.7L62.9096 163.5C63.3196 163.5 63.7196 163.52 64.1196 163.54L64.0696 164.74ZM60.6996 164.69V163.49H61.4696H61.8996V164.69H61.4796H60.7096H60.6996Z" fill="#A1A14D"/>
<path d="M44.8485 168.35C44.6685 168.35 44.4885 168.35 44.2985 168.33L44.3885 167.13C44.7785 167.16 45.1385 167.15 45.4685 167.11L45.6085 168.3C45.3685 168.33 45.1085 168.34 44.8485 168.34V168.35ZM43.2285 168.18L43.0885 168.15C42.7385 168.07 42.3785 167.98 42.0285 167.89L42.3485 166.73C42.6785 166.82 43.0085 166.91 43.3385 166.98L43.4785 167.01L43.2385 168.19L43.2285 168.18ZM46.6885 168.09L46.3485 166.94C46.6885 166.84 47.0185 166.71 47.3485 166.53L47.8985 167.59C47.4885 167.8 47.0985 167.96 46.6885 168.09ZM41.0585 167.61L40.8485 167.55C40.5285 167.46 40.2185 167.36 39.9085 167.27L40.2385 166.12C40.5485 166.21 40.8685 166.3 41.1985 166.4L41.3985 166.46L41.0585 167.61ZM36.1685 167.27L35.4785 166.29C35.8685 166.01 36.3185 165.83 36.8185 165.74L37.0285 166.92C36.6985 166.98 36.4185 167.1 36.1685 167.27ZM48.8185 167.06L48.1585 166.05C48.4485 165.86 48.7385 165.65 49.0285 165.45L49.8385 166.34L49.7285 166.42C49.4285 166.64 49.1285 166.85 48.8185 167.05V167.06ZM38.9785 167.04C38.5685 166.95 38.2085 166.9 37.8885 166.88L37.9585 165.68C38.3485 165.7 38.7585 165.76 39.2385 165.87L38.9785 167.04ZM50.6285 165.4L49.5785 164.82C49.7185 164.56 49.8285 164.24 49.8985 163.87L51.0785 164.08C50.9885 164.57 50.8385 165.02 50.6285 165.39V165.4ZM51.1785 163L49.9785 162.97C49.9785 162.52 49.9485 162.17 49.9185 161.86L51.1085 161.72C51.1585 162.12 51.1785 162.51 51.1785 162.88V163.01V163ZM49.8085 161.07L49.7685 160.92H49.7485C49.6885 160.65 49.5485 160.36 49.3485 160.09L50.3085 159.37C50.6185 159.78 50.8285 160.23 50.9185 160.68V160.8H50.3485L49.7985 161.07H49.8085Z" fill="#A1A14D"/>
<path d="M26.2588 214.31L25.7188 213.24L26.1588 213.03L26.6788 214.11L26.2588 214.31ZM27.5888 213.66L27.0487 212.59C27.4087 212.41 27.7588 212.23 28.0988 212.05L28.6588 213.11C28.3088 213.3 27.9488 213.48 27.5788 213.67L27.5888 213.66ZM29.5588 212.62L28.9688 211.58C29.3187 211.38 29.6688 211.18 29.9988 210.99L30.6088 212.02C30.2688 212.22 29.9188 212.42 29.5588 212.63V212.62ZM31.4788 211.48L30.8388 210.46C31.1788 210.25 31.5088 210.03 31.8288 209.82L32.4988 210.81C32.1688 211.03 31.8288 211.25 31.4788 211.48ZM33.3388 210.24L32.6388 209.27C32.9688 209.03 33.2788 208.8 33.5788 208.57L34.3188 209.52C34.0088 209.76 33.6788 210.01 33.3388 210.25V210.24ZM35.1088 208.87L34.3388 207.95C34.6488 207.69 34.9388 207.43 35.2188 207.18L36.0287 208.06C35.7387 208.33 35.4288 208.6 35.1088 208.87ZM36.7688 207.35L35.9187 206.5C36.1987 206.21 36.4688 205.93 36.7188 205.65L37.6187 206.45C37.3587 206.75 37.0787 207.05 36.7787 207.35H36.7688ZM38.2787 205.66L37.3388 204.91C37.5888 204.6 37.8187 204.29 38.0287 203.98L39.0188 204.66C38.7888 204.99 38.5487 205.32 38.2787 205.66ZM39.5788 203.79L38.5487 203.17C38.7587 202.82 38.9387 202.49 39.0987 202.16L40.1687 202.7C39.9887 203.05 39.7888 203.42 39.5688 203.79H39.5788ZM40.6088 201.75L39.4988 201.29C39.6488 200.91 39.7788 200.55 39.8888 200.21L41.0287 200.58C40.9087 200.95 40.7687 201.34 40.5987 201.75H40.6088ZM41.3188 199.58L40.1588 199.29C40.2588 198.87 40.3388 198.49 40.4088 198.15L41.5888 198.38C41.5188 198.74 41.4388 199.15 41.3288 199.58H41.3188ZM41.7688 197.38L40.5888 197.18C40.6488 196.84 40.6888 196.47 40.6988 196.06L41.8988 196.11C41.8788 196.56 41.8388 196.99 41.7688 197.38ZM40.7087 195.1C40.6987 194.73 40.6688 194.34 40.6288 193.94L41.8288 193.82C41.8688 194.25 41.8988 194.66 41.9088 195.06L40.7087 195.09V195.1ZM40.5188 192.98C40.4688 192.6 40.3988 192.21 40.3288 191.82L41.5087 191.6C41.5887 192.01 41.6487 192.42 41.7087 192.81L40.5188 192.98ZM40.1288 190.86C40.0388 190.48 39.9487 190.1 39.8487 189.72L41.0087 189.41C41.1187 189.81 41.2087 190.2 41.2987 190.6L40.1288 190.86ZM39.5888 188.77C39.4788 188.39 39.3588 188.02 39.2388 187.64L40.3788 187.26C40.5088 187.65 40.6288 188.04 40.7488 188.42L39.5987 188.76L39.5888 188.77ZM38.9088 186.72C38.7788 186.35 38.6288 185.98 38.4888 185.62L39.5987 185.17C39.7487 185.55 39.8988 185.93 40.0388 186.31L38.9088 186.72ZM38.0987 184.68C37.9487 184.29 37.8087 183.9 37.6887 183.52L38.8288 183.15C38.9488 183.51 39.0788 183.88 39.2188 184.25L38.0987 184.68ZM37.3988 182.53C37.2888 182.12 37.1987 181.72 37.1187 181.32L38.2987 181.09C38.3687 181.46 38.4588 181.84 38.5588 182.22L37.3988 182.53ZM36.9488 180.3C36.8888 179.88 36.8488 179.47 36.8188 179.07L38.0188 178.99C38.0488 179.37 38.0888 179.75 38.1388 180.14L36.9488 180.3ZM36.7787 178.04V177.85C36.7787 177.49 36.7788 177.14 36.8088 176.79L38.0087 176.86C37.9887 177.18 37.9788 177.51 37.9788 177.85V178.02L36.7787 178.04ZM38.0987 175.91L36.9088 175.77C36.9588 175.35 37.0287 174.94 37.0987 174.54L38.2787 174.77C38.2087 175.14 38.1487 175.52 38.0987 175.91ZM38.4888 173.83L37.3288 173.53L37.4387 173.11C37.5087 172.84 37.5988 172.58 37.6988 172.32L38.8188 172.75C38.7288 172.97 38.6588 173.2 38.5888 173.43L38.4788 173.83H38.4888ZM39.2087 171.9L38.1388 171.35C38.3288 170.97 38.5488 170.61 38.7688 170.26L39.7787 170.91C39.5787 171.22 39.3787 171.55 39.2087 171.9ZM40.3288 170.13L39.3687 169.41C39.6287 169.06 39.8988 168.73 40.1588 168.44L41.0588 169.23C40.8188 169.5 40.5788 169.8 40.3288 170.13ZM41.7087 168.52L40.8487 167.68C41.3887 167.13 41.7688 166.81 41.7688 166.81L42.5388 167.73C42.5388 167.73 42.1887 168.03 41.7087 168.52Z" fill="#A1A14D"/>
<path d="M75.08 40.2502H74.76L74.78 39.0502H75.08C75.37 39.0502 75.66 39.0502 75.94 39.0302L76 40.2302C75.7 40.2402 75.39 40.2502 75.08 40.2502ZM73.74 40.2102C73.32 40.1902 72.91 40.1502 72.51 40.1002L72.65 38.9102C73.03 38.9502 73.41 38.9902 73.81 39.0102L73.74 40.2102ZM77.03 40.1602L76.91 38.9702C77.3 38.9302 77.69 38.8802 78.06 38.8202L78.26 40.0002C77.86 40.0702 77.45 40.1202 77.04 40.1602H77.03ZM71.49 39.9602C71.08 39.8902 70.67 39.8102 70.28 39.7202L70.54 38.5502C70.91 38.6302 71.29 38.7102 71.68 38.7702L71.48 39.9502L71.49 39.9602ZM79.27 39.8002L79.01 38.6302C79.39 38.5402 79.77 38.4502 80.13 38.3402L80.47 39.4902C80.08 39.6002 79.68 39.7102 79.27 39.8002ZM69.28 39.4702C68.87 39.3602 68.48 39.2302 68.1 39.1002L68.5 37.9702C68.86 38.1002 69.23 38.2102 69.61 38.3202L69.29 39.4702H69.28ZM81.45 39.1802L81.05 38.0502C81.42 37.9202 81.78 37.7802 82.13 37.6302L82.6 38.7402C82.22 38.9002 81.84 39.0502 81.45 39.1902V39.1802ZM67.14 38.7402C66.75 38.5802 66.37 38.4102 66.01 38.2402L66.53 37.1602C66.87 37.3202 67.23 37.4802 67.59 37.6302L67.13 38.7402H67.14ZM83.54 38.3102L83.02 37.2302C83.37 37.0602 83.72 36.8802 84.05 36.6902L84.63 37.7402C84.27 37.9402 83.91 38.1302 83.53 38.3102H83.54ZM65.09 37.7602C64.72 37.5502 64.37 37.3402 64.03 37.1202L64.68 36.1102C65 36.3102 65.33 36.5102 65.68 36.7102L65.1 37.7602H65.09ZM85.52 37.2202L84.89 36.2002C85.23 35.9902 85.55 35.7802 85.87 35.5602L86.56 36.5402C86.23 36.7702 85.89 37.0002 85.53 37.2202H85.52ZM63.18 36.5402C62.83 36.2902 62.51 36.0402 62.2 35.7902L62.96 34.8602C63.25 35.1002 63.56 35.3402 63.88 35.5702L63.18 36.5402ZM87.38 35.9302L86.65 34.9802C86.97 34.7402 87.27 34.4902 87.56 34.2502L88.34 35.1602C88.04 35.4202 87.72 35.6802 87.38 35.9302ZM61.42 35.1002C61.1 34.8102 60.81 34.5202 60.53 34.2402L61.39 33.4102C61.65 33.6802 61.92 33.9502 62.22 34.2202L61.41 35.1102L61.42 35.1002ZM89.11 34.4702L88.3 33.5902C88.6 33.3102 88.88 33.0402 89.14 32.7702L90 33.6102C89.72 33.8902 89.43 34.1802 89.12 34.4702H89.11ZM59.84 33.4702C59.54 33.1202 59.28 32.8002 59.06 32.5002L60.02 31.7802C60.23 32.0602 60.47 32.3602 60.75 32.6802L59.84 33.4702ZM90.7 32.8702L89.81 32.0602C90.09 31.7502 90.35 31.4502 90.58 31.1702L91.51 31.9302C91.27 32.2202 91.01 32.5302 90.71 32.8602L90.7 32.8702ZM58.46 31.6602C58.15 31.1902 58 30.9002 58 30.9002L59.06 30.3502C59.06 30.3502 59.2 30.6102 59.45 31.0002L58.45 31.6602H58.46ZM92.14 31.1302L91.18 30.4102C91.61 29.8402 91.83 29.4802 91.84 29.4702L92.86 30.1002C92.86 30.1002 92.62 30.5002 92.14 31.1402V31.1302Z" fill="#A1A14D"/>
<path d="M75.4998 63.4703L74.9898 62.3803C75.2898 62.2403 75.5998 62.0503 75.9198 61.8203L76.6198 62.7903C76.2398 63.0603 75.8598 63.2903 75.4898 63.4603L75.4998 63.4703ZM74.0398 63.2703L73.0198 62.6403L73.6498 61.6203L74.6798 62.2503L74.0498 63.2703H74.0398ZM77.4498 62.1303L76.6498 61.2403C76.9198 60.9903 77.1998 60.7203 77.4698 60.4303L78.3498 61.2503C78.0598 61.5703 77.7598 61.8603 77.4598 62.1303H77.4498ZM72.1698 62.1103L71.1498 61.4703L71.7898 60.4503L72.8098 61.0903L72.1798 62.1103H72.1698ZM70.2998 60.9403L69.2798 60.3003L69.9198 59.2803L70.9398 59.9203L70.2998 60.9403ZM79.0298 60.4803L78.1098 59.7103C78.3598 59.4203 78.5998 59.1103 78.8398 58.7903L79.7998 59.5103C79.5498 59.8403 79.2898 60.1703 79.0398 60.4803H79.0298ZM68.4298 59.7603L67.4098 59.1103L68.0598 58.1003L69.0698 58.7503L68.4298 59.7603ZM80.3998 58.6803L79.4198 57.9903C79.6398 57.6703 79.8698 57.3403 80.0798 57.0103L81.0798 57.6703C80.8598 58.0103 80.6298 58.3503 80.3998 58.6803ZM66.5698 58.5603C66.2098 58.3203 65.8698 58.1003 65.5598 57.8903L66.2298 56.8903C66.5298 57.0903 66.8698 57.3103 67.2298 57.5503L66.5698 58.5603ZM64.7198 57.3203C64.4298 57.1103 64.2098 56.9503 64.0798 56.8403C63.9798 56.7603 63.8598 56.6303 63.7098 56.4603L64.5898 55.6503C64.7098 55.7803 64.7998 55.8703 64.8698 55.9403C64.9698 56.0303 65.1598 56.1703 65.4098 56.3503L64.7198 57.3303V57.3203ZM81.6298 56.8103L80.6098 56.1803C80.8198 55.8403 81.0198 55.5003 81.2198 55.1603L82.2598 55.7703C82.0498 56.1203 81.8498 56.4703 81.6298 56.8103ZM63.0298 55.6903C62.7898 55.4103 62.5298 55.1003 62.2498 54.7603L63.1798 54.0003C63.4498 54.3303 63.7098 54.6403 63.9398 54.9203L63.0298 55.7003V55.6903ZM82.7598 54.8903L81.7098 54.3003C81.9098 53.9503 82.0998 53.6003 82.2798 53.2603L83.3398 53.8303C83.1498 54.1803 82.9598 54.5403 82.7598 54.8903ZM61.6198 53.9803C61.3698 53.6803 61.1198 53.3603 60.8598 53.0403L61.7998 52.2903C62.0498 52.6103 62.3098 52.9203 62.5498 53.2203L61.6198 53.9803ZM83.8198 52.9303L82.7498 52.3803C82.9398 52.0103 83.1198 51.6603 83.2898 51.3103L84.3598 51.8503C84.1898 52.2003 83.9998 52.5603 83.8098 52.9303H83.8198ZM60.2398 52.2503L59.4898 51.3003L60.4398 50.5603L61.1798 51.5003L60.2398 52.2503ZM84.8098 50.9403L83.7298 50.4203C83.9198 50.0303 84.0898 49.6703 84.2398 49.3403L85.3298 49.8403C85.1698 50.1803 84.9998 50.5403 84.8098 50.9403ZM58.8698 50.5103L58.1298 49.5603L59.0798 48.8203L59.8198 49.7703L58.8698 50.5103ZM85.7398 48.9203L84.6398 48.4303C84.9398 47.7503 85.1098 47.3403 85.1098 47.3403L85.6598 47.5703H86.2598L86.2198 47.8003C86.2198 47.8003 86.0498 48.2203 85.7298 48.9203H85.7398ZM57.5098 48.7703L56.7698 47.8203L57.7198 47.0903L58.4598 48.0403L57.5098 48.7703ZM56.2298 46.8003L55.7598 45.7003L56.8598 45.2303L57.3298 46.3303L56.2298 46.8003ZM85.0498 46.5803L85.0198 45.3803L86.2198 45.3503L86.2498 46.5503L85.0498 46.5803ZM84.9998 44.3803L84.9698 43.1803L86.1698 43.1503L86.1998 44.3503L84.9998 44.3803ZM84.9498 42.1803L84.9198 40.9803L86.1198 40.9503L86.1498 42.1503L84.9498 42.1803ZM84.8998 39.9803L84.8698 38.7803L86.0698 38.7503L86.0998 39.9503L84.8998 39.9803ZM84.8498 37.7803L84.8198 36.5803L86.0198 36.5503L86.0498 37.7503L84.8498 37.7803Z" fill="#A1A14D"/>
<path d="M71.0802 165.31L70.6602 164.19L70.9302 164.09L71.3502 165.21L71.0802 165.31ZM72.2902 164.85L71.8702 163.73L72.9902 163.31L73.4102 164.43L72.2902 164.85ZM74.3502 164.07L73.9302 162.95L75.0502 162.53L75.4702 163.65L74.3502 164.07ZM76.4102 163.29L75.9902 162.17L77.1102 161.75L77.5302 162.87L76.4102 163.29ZM78.4702 162.51L78.0502 161.39L79.1702 160.97L79.5901 162.09L78.4702 162.51ZM80.5302 161.73L80.1102 160.61L81.2302 160.19L81.6502 161.31L80.5302 161.73ZM82.5901 160.95L82.1702 159.83L83.2902 159.41L83.7102 160.53L82.5901 160.95ZM84.6502 160.17L84.2302 159.05L85.3502 158.63L85.7701 159.75L84.6502 160.17ZM86.7102 159.39L86.4002 158.56H86.3302L86.3502 158.44L86.2802 158.27L86.3902 158.23L86.4802 157.81L87.6502 158.06L87.4202 159.12L86.7001 159.39H86.7102ZM87.8801 157.08L86.7102 156.83L86.9602 155.65L88.1301 155.9L87.8801 157.08ZM88.3401 154.92L87.1702 154.67L87.4202 153.49L88.5901 153.74L88.3401 154.92ZM88.7902 152.76L87.6102 152.52L87.8502 151.34L89.0302 151.58L88.7902 152.76ZM89.2302 150.59L88.0502 150.36C88.1402 149.89 88.2202 149.48 88.2602 149.2L89.4501 149.39C89.4001 149.69 89.3302 150.1 89.2302 150.6V150.59ZM89.5201 148.3H88.3202V147.95C88.3202 147.7 88.3202 147.41 88.3202 147.1L89.5201 147.08C89.5201 147.4 89.5201 147.69 89.5201 147.95V148.3ZM88.3002 146.1L88.2701 144.9L89.4702 144.87L89.5002 146.08L88.3002 146.11V146.1ZM88.2502 143.9L88.2102 142.7L89.4102 142.66L89.4501 143.86L88.2502 143.89V143.9ZM88.1802 141.7L88.1402 140.5L89.3401 140.46L89.3801 141.63L88.1802 141.7ZM88.1102 139.5L88.0702 138.3L89.2701 138.26L89.3102 139.46L88.1102 139.5ZM88.0302 137.3L87.9802 136.1L89.1802 136.05L89.2302 137.25L88.0302 137.29V137.3ZM87.9402 135.1L87.8902 133.92L89.0901 133.84L89.1402 135.06L87.9402 135.11V135.1ZM87.8002 132.94C87.7602 132.59 87.7202 132.19 87.6702 131.75L88.8602 131.61C88.9102 132.06 88.9602 132.46 88.9902 132.82L87.8002 132.94ZM87.5502 130.76L87.4002 129.57L88.5901 129.42L88.7402 130.62L87.5502 130.76ZM87.2802 128.58L87.1202 127.39L88.3102 127.23L88.4702 128.42L87.2802 128.58ZM86.9902 126.39L86.8302 125.2L88.0201 125.04L88.1802 126.23L86.9902 126.39ZM86.6902 124.21L86.5302 123.02L87.7202 122.86L87.8801 124.05L86.6902 124.21ZM86.3902 122.02L86.2202 120.83L87.4102 120.66L87.5802 121.85L86.3902 122.01V122.02ZM86.0901 119.84L85.9202 118.65L87.1102 118.48L87.2802 119.67L86.0901 119.84ZM85.7802 117.66L85.6102 116.47L86.8002 116.3L86.9702 117.49L85.7802 117.66ZM85.4702 115.48L85.3002 114.29L86.4902 114.12L86.6602 115.31L85.4702 115.48ZM85.1602 113.3L85.0901 112.84L84.8902 112.23L86.0302 111.86L86.2602 112.57L86.3502 113.12L85.1602 113.29V113.3ZM84.5802 111.28L84.2102 110.14L85.3502 109.77L85.7202 110.91L84.5802 111.28ZM83.9102 109.18L83.5402 108.04L84.6802 107.67L85.0502 108.81L83.9102 109.18ZM83.2402 107.09L82.8702 105.95L84.0102 105.58L84.3801 106.72L83.2402 107.09ZM82.5702 104.99L82.2001 103.85L83.3401 103.48L83.7102 104.62L82.5702 104.99ZM81.9002 102.89L81.5302 101.75L82.6702 101.38L83.0402 102.52L81.9002 102.89ZM81.2302 100.79L80.8602 99.65L82.0002 99.28L82.3702 100.42L81.2302 100.79ZM80.5602 98.69L80.1902 97.55L81.3302 97.18L81.7001 98.32L80.5602 98.69ZM79.8902 96.59L79.5201 95.45L80.6602 95.08L81.0302 96.22L79.8902 96.59ZM79.2202 94.49L78.8502 93.35L79.9902 92.98L80.3602 94.12L79.2202 94.49ZM78.5502 92.39L78.1802 91.25L79.3202 90.88L79.6902 92.02L78.5502 92.39ZM77.8801 90.3L77.5102 89.16L78.6502 88.79L79.0201 89.93L77.8801 90.3ZM77.2102 88.2L76.8401 87.06L77.9802 86.69L78.3502 87.83L77.2102 88.2ZM76.5402 86.1L76.1702 84.96L77.3102 84.59L77.6802 85.73L76.5402 86.1ZM75.8702 84.01L75.5002 82.87L76.6402 82.5L77.0102 83.64L75.8702 84.01ZM75.2001 81.91L74.8302 80.77L75.9702 80.4L76.3401 81.54L75.2001 81.91ZM74.5302 79.82L74.4602 79.53V78.45L75.6502 78.44L75.6702 79.46V79.52H75.4902L74.5402 79.83L74.5302 79.82ZM74.4402 77.45V76.25L75.6301 76.24V77.44L74.4402 77.45ZM74.4202 75.25V74.05L75.6102 74.04V75.24L74.4202 75.25ZM74.4002 73.05V71.85L75.5901 71.84V73.04L74.4002 73.05ZM74.3801 70.85V69.65L75.5702 69.64V70.84L74.3801 70.85ZM74.3602 68.65V67.45L75.5502 67.44V68.64L74.3602 68.65ZM74.3401 66.45V65.25L75.5302 65.24V66.44L74.3401 66.45ZM74.3202 64.25V63.05L75.5102 63.04V64.24L74.3202 64.25Z" fill="#A1A14D"/>
<path d="M51.1695 160.78L50.2695 159.99C50.4595 159.77 50.7095 159.47 50.9795 159.1L51.9595 159.8C51.6595 160.22 51.3795 160.55 51.1695 160.79V160.78ZM52.5295 158.91L51.4995 158.3C51.6995 157.97 51.8695 157.64 52.0195 157.3L53.1195 157.79C52.9495 158.17 52.7495 158.55 52.5395 158.92L52.5295 158.91ZM53.4895 156.78L52.3395 156.42C52.4495 156.06 52.5395 155.7 52.5895 155.34L53.7795 155.51C53.7195 155.93 53.6195 156.35 53.4895 156.77V156.78ZM52.6495 154.44C52.6495 154.08 52.6095 153.72 52.5395 153.36L53.7195 153.12C53.8095 153.55 53.8495 153.99 53.8595 154.43H52.6595L52.6495 154.44Z" fill="#A1A14D"/>
<path d="M54.9599 80.3104L54.6699 79.1504L55.8399 78.8604L56.1299 80.0204L54.9599 80.3104ZM74.9599 80.1404L74.0799 79.9804L74.2899 78.8004L75.1699 78.9604L74.9599 80.1404ZM73.0899 79.8104L71.9099 79.6004L72.1199 78.4204L73.2999 78.6304L73.0899 79.8104ZM57.0899 79.7804L56.7999 78.6204L57.9599 78.3304L58.2499 79.4904L57.0899 79.7804ZM70.9199 79.4204L69.7399 79.2104L69.9499 78.0304L71.1299 78.2404L70.9199 79.4204ZM59.2299 79.2504L58.9399 78.0904L60.1099 77.8004L60.3999 78.9604L59.2299 79.2504ZM68.7599 79.0404L67.5799 78.8304L67.7899 77.6504L68.9699 77.8604L68.7599 79.0404ZM61.3699 78.7204L61.0799 77.5604L62.2399 77.2704L62.5299 78.4304L61.3699 78.7204ZM66.5999 78.6504L65.4199 78.4404L65.6299 77.2604L66.8099 77.4704L66.5999 78.6504ZM64.4299 78.2604L63.7199 78.1304L63.4999 78.1804L63.2099 77.0204L63.6799 76.9004L64.6399 77.0704L64.4299 78.2504V78.2604Z" fill="#A1A14D"/>
<path d="M15.3993 53.1403L15.2293 52.9703L16.0893 52.1303L16.2593 52.3003L15.3993 53.1403ZM14.5293 52.2603L13.6893 51.4003L14.5493 50.5603L15.3893 51.4203L14.5293 52.2603ZM12.9893 50.6903L12.1493 49.8303L13.0093 48.9903L13.8493 49.8503L12.9893 50.6903ZM11.4493 49.1203L10.6093 48.2603L11.4693 47.4203L12.3093 48.2803L11.4493 49.1203ZM9.9093 47.5503L9.0693 46.6903L9.9293 45.8503L10.7693 46.7103L9.9093 47.5503ZM8.3693 45.9803L7.5293 45.1203L8.3893 44.2803L9.2293 45.1403L8.3693 45.9803Z" fill="#A1A14D"/>
<path d="M44.7292 96.3701L44.4292 95.2101C44.7792 95.1201 45.1492 95.0101 45.5292 94.8801L45.9192 96.0101C45.4992 96.1501 45.0992 96.2701 44.7192 96.3701H44.7292ZM46.8992 95.6401L46.4292 94.5301C46.7692 94.3901 47.1192 94.2201 47.4692 94.0401L48.0292 95.1001C47.6492 95.3001 47.2692 95.4801 46.8992 95.6301V95.6401ZM48.9392 94.5901L48.3092 93.5701C48.6292 93.3701 48.9392 93.1601 49.2492 92.9201L49.9692 93.8801C49.6292 94.1401 49.2792 94.3801 48.9392 94.5901ZM50.7792 93.2101L49.9792 92.3101C50.2592 92.0601 50.5292 91.8001 50.7992 91.5101L51.6792 92.3301C51.3892 92.6501 51.0892 92.9401 50.7792 93.2101ZM52.3592 91.5401L51.4192 90.7901C51.6492 90.5001 51.8792 90.1901 52.0892 89.8601L53.0892 90.5201C52.8492 90.8801 52.6092 91.2201 52.3592 91.5301V91.5401ZM53.6392 89.6301L52.5892 89.0401C52.6492 88.9301 52.7092 88.8201 52.7692 88.7001C52.8792 88.4801 52.9892 88.2601 53.0792 88.0301L54.1892 88.4801C54.0792 88.7501 53.9592 89.0101 53.8292 89.2501C53.7692 89.3701 53.6992 89.5001 53.6292 89.6201L53.6392 89.6301ZM54.5492 87.5001L53.4092 87.1401C53.5192 86.7801 53.6192 86.4101 53.6992 86.0301L54.8692 86.2901C54.7792 86.7101 54.6692 87.1101 54.5492 87.5001ZM55.0692 85.2801L53.8892 85.0801C53.9492 84.7001 54.0092 84.3201 54.0492 83.9201L55.2392 84.0501C55.1892 84.4601 55.1392 84.8701 55.0692 85.2701V85.2801ZM55.3292 83.0401L54.1292 82.9501C54.1592 82.5601 54.1792 82.1701 54.1892 81.7701L55.3892 81.8101C55.3792 82.2201 55.3492 82.6301 55.3192 83.0301L55.3292 83.0401ZM55.4192 80.8001H54.2192V80.4501C54.2192 80.1701 54.2192 79.8901 54.2192 79.6101L55.4192 79.5801C55.4192 79.8701 55.4192 80.1601 55.4192 80.4501V80.8001ZM54.1792 78.6201C54.1592 78.2201 54.1392 77.8301 54.1192 77.4401L55.3192 77.3601C55.3492 77.7601 55.3692 78.1601 55.3792 78.5701L54.1792 78.6201ZM54.0492 76.4501C54.0192 76.0501 53.9792 75.6501 53.9392 75.2601L55.1292 75.1401C55.1692 75.5301 55.2092 75.9401 55.2392 76.3501L54.0392 76.4501H54.0492ZM53.8292 74.2801C53.7792 73.8701 53.7292 73.4801 53.6792 73.1001L54.8692 72.9401C54.9192 73.3201 54.9692 73.7301 55.0192 74.1401L53.8292 74.2801ZM53.5392 72.1201C53.4792 71.6901 53.4092 71.3001 53.3592 70.9401L54.5392 70.7401C54.5992 71.1001 54.6592 71.5001 54.7292 71.9401L53.5392 72.1201ZM53.1792 69.9701C53.0792 69.4401 53.0092 69.0801 52.9792 68.9401L54.1192 68.5401L54.1492 68.6801C54.1792 68.8301 54.2592 69.2001 54.3592 69.7501L53.1792 69.9701ZM52.7092 67.8701C52.6192 67.5401 52.5092 67.1601 52.3892 66.7301L53.5392 66.3901C53.6692 66.8301 53.7792 67.2301 53.8692 67.5601L52.7092 67.8701ZM52.0892 65.7801C51.9792 65.4201 51.8492 65.0501 51.7192 64.6501L52.8492 64.2601C52.9892 64.6701 53.1092 65.0501 53.2292 65.4101L52.0892 65.7701V65.7801ZM51.3892 63.7201C51.2592 63.3601 51.1192 62.9901 50.9692 62.6101L52.0892 62.1801C52.2392 62.5701 52.3792 62.9501 52.5192 63.3201L51.3892 63.7301V63.7201ZM50.6092 61.6901C50.4592 61.3301 50.3092 60.9701 50.1492 60.6001L51.2492 60.1201C51.4192 60.5001 51.5692 60.8701 51.7292 61.2401L50.6192 61.7001L50.6092 61.6901ZM49.7392 59.6901C49.5692 59.3401 49.3992 58.9801 49.2292 58.6201L50.2992 58.0901C50.4792 58.4601 50.6592 58.8201 50.8292 59.1901L49.7392 59.7001V59.6901ZM48.7792 57.7501C48.5992 57.4001 48.4092 57.0601 48.2092 56.7101L49.2492 56.1201C49.4492 56.4801 49.6492 56.8301 49.8392 57.1901L48.7792 57.7501ZM47.7092 55.8701C47.5092 55.5401 47.2992 55.2001 47.0792 54.8701L48.0792 54.2101C48.2992 54.5501 48.5192 54.9001 48.7292 55.2401L47.6992 55.8601L47.7092 55.8701ZM46.5292 54.0701C46.2992 53.7501 46.0692 53.4301 45.8292 53.1301L46.7792 52.3901C47.0292 52.7101 47.2792 53.0401 47.5092 53.3801L46.5292 54.0801V54.0701ZM45.2092 52.3701C44.9592 52.0701 44.6992 51.7801 44.4292 51.5001L45.2992 50.6801C45.5792 50.9801 45.8592 51.2801 46.1192 51.6001L45.1992 52.3801L45.2092 52.3701ZM43.7492 50.8101C43.5692 50.6401 43.3792 50.4701 43.1992 50.3001L43.9892 49.3901C44.1892 49.5701 44.3892 49.7501 44.5892 49.9301L43.7592 50.8001L43.7492 50.8101Z" fill="#A1A14D"/>
<path d="M32.4089 54.3902L31.6289 53.4802L32.5389 52.7002L33.3189 53.6102L32.4089 54.3902ZM34.0789 52.9602L33.2989 52.0502L34.2089 51.2702L34.9889 52.1802L34.0789 52.9602ZM35.7489 51.5302L34.9689 50.6202L35.8789 49.8402L36.6589 50.7502L35.7489 51.5302ZM37.4189 50.1002L36.6389 49.1902L37.5489 48.4102L38.3289 49.3202L37.4189 50.1002Z" fill="#A1A14D"/>
</g>
<defs>
<clipPath id="clip0_962_28850">
<rect width="109.42" height="228.97" fill="white"/>
</clipPath>
</defs>
</svg>
