<svg width="111" height="102" viewBox="0 0 111 102" fill="none" xmlns="http://www.w3.org/2000/svg">
<g clip-path="url(#clip0_848_91396)">
<path d="M8.67871 4.27545C4.19314 7.2011 1.56168 22.8493 0.806641 30.3077C22.3128 37.6894 30.9859 47.5497 41.835 58.6426C52.6841 69.7355 62.0704 85.8262 62.6799 91.5555C63.1674 96.1389 65.0772 99.9666 65.9711 101.307C81.6962 99.8447 95.5928 96.5534 104.126 93.384C112.659 90.2146 111.562 86.3138 108.88 83.5101C106.198 80.7064 92.4234 67.6632 82.7933 59.7397C73.1632 51.8162 48.1738 19.5128 45.7358 16.4653C43.2978 13.4178 38.6656 4.27545 30.9859 1.47169C23.3063 -1.33207 14.2857 0.618394 8.67871 4.27545Z" fill="#FFFF94" fill-opacity="0.4"/>
</g>
<defs>
<clipPath id="clip0_848_91396">
<rect width="110.018" height="101.168" fill="white" transform="translate(0.806641 0.139648)"/>
</clipPath>
</defs>
</svg>
