<svg width="152" height="317" viewBox="0 0 152 317" fill="none" xmlns="http://www.w3.org/2000/svg">
<g clip-path="url(#clip0_848_123212)">
<path d="M4.31269 103.051C6.74203 114.487 17.1797 127.024 22.0949 131.863C22.0949 126.293 26.1599 122.888 28.1924 121.883C25.783 117.97 20.4511 106.757 18.3992 93.2024C15.8343 76.2586 23.8399 70.8179 30.291 69.4966C36.7421 68.1753 41.6387 68.7971 48.012 79.8339C53.1107 88.6633 54.3821 110.161 54.3804 119.806C59.9162 122 62.1729 127.986 62.6093 130.704C67.6464 130.046 72.1474 126.697 73.7683 125.105L75.5762 127.349C74.664 128.696 73.0334 130.147 72.3321 130.704C73.7076 134.615 76.5101 145.791 76.7164 159.202C76.9227 172.613 80.9098 180.827 82.8775 183.258L94.5454 180.753L95.7976 184.339L74.6815 189.291C78.0396 198.796 75.4783 215.871 71.6649 222.018C68.6141 226.936 60.2408 228.507 56.4355 228.678C23.6686 264.608 34.9283 297.248 38.2176 299.778C40.8491 301.802 55.5921 312.092 62.6346 316.984C62.5081 300.537 67.1891 293.832 72.1231 288.645C77.0571 283.458 102.739 267.644 126.524 247.402C150.308 227.16 151.067 212.484 151.7 203.502C152.332 194.519 144.868 163.65 143.729 156.186C142.591 148.722 128.295 81.9228 127.409 71.6752C126.524 61.4277 125.798 46.7407 130.193 35.619C132.33 28.5833 132.485 23.4476 128.943 15.7303C125.4 8.01304 120.451 2.47279 106.408 0.828125C90.5797 0.828048 83.7785 10.5719 81.7914 18.4815C77.7411 34.6053 84.3949 35.7457 85.154 45.6137C85.913 55.4817 81.6116 64.3376 76.045 67.88C70.4784 71.4224 57.4181 70.4915 54.1583 67.88C48.3956 63.2635 40.1153 59.277 37.4585 58.7709C34.8018 58.2649 23.0361 55.7346 12.0296 62.4401C-4.41707 72.4346 1.27601 88.7548 4.31269 103.051Z" fill="#FFFF94" fill-opacity="0.4"/>
</g>
<defs>
<clipPath id="clip0_848_123212">
<rect width="150.893" height="316.353" fill="white" transform="translate(0.844727 0.631836)"/>
</clipPath>
</defs>
</svg>
