<svg width="28" height="25" viewBox="0 0 28 25" fill="none" xmlns="http://www.w3.org/2000/svg">
<path d="M15.9682 2.67023C9.66822 1.30023 3.44822 5.30023 2.08822 11.6102C1.48822 14.3902 1.92822 17.1602 3.15822 19.4902L8.33822 16.8502C7.69822 15.6602 7.45822 14.2502 7.76822 12.8302C8.45822 9.67023 11.5782 7.66023 14.7382 8.35023C17.8982 9.04023 19.9082 12.1502 19.2182 15.3202C18.9182 16.7302 18.1282 17.9002 17.0682 18.7202L20.6682 23.2902C22.7482 21.6702 24.2982 19.3402 24.8982 16.5602C26.2682 10.2602 22.2582 4.04023 15.9682 2.68023V2.67023Z" fill="#E9832F"/>
<mask id="mask0_962_29610" style="mask-type:luminance" maskUnits="userSpaceOnUse" x="1" y="2" width="25" height="22">
<path d="M15.9682 2.67023C9.66822 1.30023 3.44822 5.30023 2.08822 11.6102C1.48822 14.3902 1.92822 17.1602 3.15822 19.4902L8.33822 16.8502C7.69822 15.6602 7.45822 14.2502 7.76822 12.8302C8.45822 9.67023 11.5782 7.66023 14.7382 8.35023C17.8982 9.04023 19.9082 12.1502 19.2182 15.3202C18.9182 16.7302 18.1282 17.9002 17.0682 18.7202L20.6682 23.2902C22.7482 21.6702 24.2982 19.3402 24.8982 16.5602C26.2682 10.2602 22.2582 4.04023 15.9682 2.68023V2.67023Z" fill="white"/>
</mask>
<g mask="url(#mask0_962_29610)">
<path d="M3.35836 0.149902L0.568359 24.3999L0.598359 24.4099L3.38836 0.159902L3.35836 0.149902Z" fill="#CBCBCB"/>
<path d="M3.80758 0.149902L1.01758 24.3999H1.04758L3.83758 0.149902H3.80758Z" fill="#CBCBCB"/>
<path d="M4.25875 0.149902L1.46875 24.3999H1.49875L4.28875 0.149902H4.25875Z" fill="#CBCBCB"/>
<path d="M4.70797 0.140137L1.91797 24.3901L1.94797 24.4001L4.73797 0.150137L4.70797 0.140137Z" fill="#CBCBCB"/>
<path d="M5.15914 0.140137L2.36914 24.3901H2.39914L5.18914 0.150137L5.15914 0.140137Z" fill="#CBCBCB"/>
<path d="M5.60836 0.140137L2.81836 24.3901H2.84836L5.63836 0.140137H5.60836Z" fill="#CBCBCB"/>
<path d="M6.05758 0.140137L3.26758 24.3801L3.29758 24.3901L6.08758 0.140137H6.05758Z" fill="#CBCBCB"/>
<path d="M6.50898 0.129883L3.70898 24.3799L3.73898 24.3899L6.53898 0.139883L6.50898 0.129883Z" fill="#CBCBCB"/>
<path d="M6.9582 0.129883L4.1582 24.3799H4.1882L6.9882 0.129883H6.9582Z" fill="#CBCBCB"/>
<path d="M7.40742 0.129883L4.60742 24.3799H4.63742L7.43742 0.129883H7.40742Z" fill="#CBCBCB"/>
<path d="M7.85859 0.120117L5.05859 24.3701L5.08859 24.3801L7.88859 0.130117L7.85859 0.120117Z" fill="#CBCBCB"/>
<path d="M8.29781 0.120117L5.50781 24.3701H5.53781L8.32781 0.120117H8.29781Z" fill="#CBCBCB"/>
<path d="M8.74898 0.120117L5.95898 24.3701H5.98898L8.77898 0.120117H8.74898Z" fill="#CBCBCB"/>
<path d="M9.1982 0.120117L6.4082 24.3601L6.4382 24.3701L9.2282 0.120117H9.1982Z" fill="#CBCBCB"/>
<path d="M9.64742 0.109863L6.85742 24.3599L6.88742 24.3699L9.67742 0.119863L9.64742 0.109863Z" fill="#CBCBCB"/>
<path d="M10.0986 0.109863L7.30859 24.3599H7.33859L10.1286 0.109863H10.0986Z" fill="#CBCBCB"/>
<path d="M10.5478 0.109863L7.75781 24.3599H7.78781L10.5778 0.109863H10.5478Z" fill="#CBCBCB"/>
<path d="M10.999 0.100098L8.20898 24.3501L8.23898 24.3601L11.029 0.110098L10.999 0.100098Z" fill="#CBCBCB"/>
<path d="M11.4482 0.100098L8.6582 24.3501H8.6882L11.4782 0.100098H11.4482Z" fill="#CBCBCB"/>
<path d="M11.8974 0.100098L9.10742 24.3501H9.13742L11.9274 0.100098H11.8974Z" fill="#CBCBCB"/>
<path d="M12.3486 0.100098L9.55859 24.3401L9.58859 24.3501L12.3786 0.100098H12.3486Z" fill="#CBCBCB"/>
<path d="M12.798 0.0898438L9.99805 24.3398L10.028 24.3498L12.828 0.0998437L12.798 0.0898438Z" fill="#CBCBCB"/>
<path d="M13.2492 0.0898438L10.4492 24.3398H10.4792L13.2792 0.0898438H13.2492Z" fill="#CBCBCB"/>
<path d="M13.6984 0.0898438L10.8984 24.3398H10.9284L13.7284 0.0898438H13.6984Z" fill="#CBCBCB"/>
<path d="M14.1477 0.0800781L11.3477 24.3301L11.3777 24.3401L14.1777 0.0900781L14.1477 0.0800781Z" fill="#CBCBCB"/>
<path d="M14.5888 0.0800781L11.7988 24.3301H11.8288L14.6188 0.0800781H14.5888Z" fill="#CBCBCB"/>
<path d="M15.038 0.0800781L12.248 24.3301H12.278L15.068 0.0800781H15.038Z" fill="#CBCBCB"/>
<path d="M15.4892 0.0800781L12.6992 24.3201L12.7292 24.3301L15.5192 0.0800781H15.4892Z" fill="#CBCBCB"/>
<path d="M15.9384 0.0698242L13.1484 24.3198L13.1784 24.3298L15.9684 0.0798242L15.9384 0.0698242Z" fill="#CBCBCB"/>
<path d="M16.3877 0.0698242L13.5977 24.3198H13.6277L16.4177 0.0698242H16.3877Z" fill="#CBCBCB"/>
<path d="M16.8388 0.0698242L14.0488 24.3198H14.0788L16.8688 0.0698242H16.8388Z" fill="#CBCBCB"/>
<path d="M17.288 0.0600586L14.498 24.3101L14.528 24.3201L17.318 0.0700586L17.288 0.0600586Z" fill="#CBCBCB"/>
<path d="M17.7392 0.0600586L14.9492 24.3101H14.9792L17.7692 0.0600586H17.7392Z" fill="#CBCBCB"/>
<path d="M18.1884 0.0600586L15.3984 24.3101H15.4284L18.2184 0.0600586H18.1884Z" fill="#CBCBCB"/>
<path d="M18.6377 0.0498047L15.8477 24.2998L15.8777 24.3098L18.6677 0.0598047L18.6377 0.0498047Z" fill="#CBCBCB"/>
<path d="M19.0891 0.0498047L16.2891 24.2998H16.3191L19.1191 0.0598047L19.0891 0.0498047Z" fill="#CBCBCB"/>
<path d="M19.5383 0.0498047L16.7383 24.2998H16.7683L19.5683 0.0498047H19.5383Z" fill="#CBCBCB"/>
<path d="M19.9875 0.0498047L17.1875 24.2898L17.2175 24.2998L20.0175 0.0498047H19.9875Z" fill="#CBCBCB"/>
<path d="M20.4387 0.0400391L17.6387 24.29L17.6687 24.3L20.4687 0.0500391L20.4387 0.0400391Z" fill="#CBCBCB"/>
<path d="M20.8779 0.0400391L18.0879 24.29H18.1179L20.9079 0.0400391H20.8779Z" fill="#CBCBCB"/>
<path d="M21.3291 0.0400391L18.5391 24.29H18.5691L21.3591 0.0400391H21.3291Z" fill="#CBCBCB"/>
<path d="M21.7783 0.0297852L18.9883 24.2798L19.0183 24.2898L21.8083 0.0397852L21.7783 0.0297852Z" fill="#CBCBCB"/>
<path d="M22.2275 0.0297852L19.4375 24.2798H19.4675L22.2575 0.0397852L22.2275 0.0297852Z" fill="#CBCBCB"/>
<path d="M22.6787 0.0297852L19.8887 24.2798H19.9187L22.7087 0.0297852H22.6787Z" fill="#CBCBCB"/>
<path d="M23.1279 0.0297852L20.3379 24.2698L20.3679 24.2798L23.1579 0.0297852H23.1279Z" fill="#CBCBCB"/>
<path d="M23.5791 0.0200195L20.7891 24.27L20.8191 24.28L23.6091 0.0300195L23.5791 0.0200195Z" fill="#CBCBCB"/>
<path d="M24.0283 0.0200195L21.2383 24.27H21.2683L24.0583 0.0200195H24.0283Z" fill="#CBCBCB"/>
<path d="M24.4775 0.0200195L21.6875 24.27H21.7175L24.5075 0.0200195H24.4775Z" fill="#CBCBCB"/>
<path d="M24.9287 0.00976562L22.1387 24.2598L22.1687 24.2698L24.9587 0.0197656L24.9287 0.00976562Z" fill="#CBCBCB"/>
<path d="M25.3781 0.00976562L22.5781 24.2598H22.6081L25.4081 0.0197656L25.3781 0.00976562Z" fill="#CBCBCB"/>
<path d="M25.8293 0L23.0293 24.26H23.0593L25.8593 0.01L25.8293 0Z" fill="#CBCBCB"/>
<path d="M26.2785 0L23.4785 24.25L23.5085 24.26L26.3085 0H26.2785Z" fill="#CBCBCB"/>
<path d="M26.7277 0L23.9277 24.25L23.9577 24.26L26.7577 0H26.7277Z" fill="#CBCBCB"/>
<path d="M27.1689 0L24.3789 24.25H24.4089L27.1989 0H27.1689Z" fill="#CBCBCB"/>
</g>
</svg>
