<svg width="25" height="32" viewBox="0 0 25 32" fill="none" xmlns="http://www.w3.org/2000/svg">
<g clip-path="url(#clip0_962_29173)">
<path d="M18.9791 28.0702L4.79906 24.8902L2.32906 25.6902L0.0390625 25.1602L3.82906 8.16016L22.4991 12.3002L18.9791 28.0702Z" fill="#E9832F"/>
<path d="M7.8782 17.1899C7.8782 17.1899 7.8782 17.1899 7.8682 17.1899L6.1982 16.8399C6.1982 16.8399 6.1582 16.8099 6.1582 16.7799C6.1582 16.7499 6.1782 16.7299 6.2182 16.7399L7.8882 17.0899C7.8882 17.0899 7.9282 17.1199 7.9282 17.1499C7.9282 17.1699 7.8982 17.1899 7.8782 17.1899Z" fill="#CBCBCB"/>
<path d="M10.1691 17.72C10.1691 17.72 10.1691 17.72 10.1591 17.72L8.65914 17.37C8.65914 17.37 8.61914 17.34 8.61914 17.31C8.61914 17.28 8.65914 17.27 8.67914 17.27L10.1791 17.62C10.1791 17.62 10.2191 17.65 10.2191 17.68C10.2191 17.7 10.1891 17.72 10.1691 17.72Z" fill="#CBCBCB"/>
<path d="M12.4582 18.2498C12.4582 18.2498 12.4582 18.2498 12.4482 18.2498L10.9482 17.8998C10.9482 17.8998 10.9082 17.8698 10.9082 17.8398C10.9082 17.8098 10.9382 17.7998 10.9682 17.7998L12.4682 18.1498C12.4682 18.1498 12.5082 18.1798 12.5082 18.2098C12.5082 18.2298 12.4782 18.2498 12.4582 18.2498Z" fill="#CBCBCB"/>
<path d="M14.749 18.6898L13.249 18.4298C13.249 18.4298 13.209 18.3998 13.209 18.3698C13.209 18.3398 13.239 18.3197 13.269 18.3297L14.769 18.5897C14.769 18.5897 14.809 18.6197 14.809 18.6497C14.809 18.6697 14.779 18.6898 14.759 18.6898H14.749Z" fill="#CBCBCB"/>
<path d="M18.5383 20.0997C18.5383 20.0997 18.5183 20.0997 18.5083 20.0997L17.1983 19.2197L15.5283 18.8697C15.5283 18.8697 15.4883 18.8397 15.4883 18.8097C15.4883 18.7797 15.5083 18.7597 15.5483 18.7697L17.2183 19.1197C17.2183 19.1197 17.2283 19.1197 17.2383 19.1197L18.5583 19.9997C18.5583 19.9997 18.5883 20.0497 18.5683 20.0697C18.5683 20.0797 18.5383 20.0897 18.5283 20.0897L18.5383 20.0997Z" fill="#CBCBCB"/>
<path d="M19.5991 23.0097C19.5991 23.0097 19.5491 22.9897 19.5491 22.9697L19.3691 21.4697C19.3691 21.4697 19.3891 21.4197 19.4091 21.4097C19.4391 21.4097 19.4591 21.4297 19.4691 21.4497L19.6491 22.9497C19.6491 22.9497 19.6291 22.9997 19.6091 23.0097H19.5991Z" fill="#CBCBCB"/>
<path d="M18.3575 25.6499C18.3575 25.6499 18.3375 25.6499 18.3275 25.6499C18.3075 25.6299 18.2975 25.5999 18.3175 25.5799L19.1975 24.3499C19.1975 24.3499 19.2475 24.3199 19.2675 24.3399C19.2875 24.3599 19.2975 24.3899 19.2775 24.4099L18.3975 25.6399C18.3975 25.6399 18.3675 25.6599 18.3575 25.6599V25.6499Z" fill="#CBCBCB"/>
<path d="M15.6282 26.6201C15.6282 26.6201 15.6282 26.6201 15.6182 26.6201L13.9482 26.2701C13.9482 26.2701 13.9082 26.2401 13.9082 26.2101C13.9082 26.1801 13.9282 26.1601 13.9682 26.1701L15.6382 26.5201L17.2182 26.3401C17.2182 26.3401 17.2682 26.3601 17.2682 26.3801C17.2682 26.4101 17.2482 26.4301 17.2282 26.4401L15.6382 26.6201H15.6282Z" fill="#CBCBCB"/>
<path d="M13.1689 26.0897L11.6689 25.8297C11.6689 25.8297 11.6289 25.7997 11.6289 25.7697C11.6289 25.7397 11.6589 25.7197 11.6889 25.7297L13.1889 25.9897C13.1889 25.9897 13.2289 26.0197 13.2289 26.0497C13.2289 26.0697 13.1989 26.0897 13.1789 26.0897H13.1689Z" fill="#CBCBCB"/>
<path d="M10.8781 25.6497C10.8781 25.6497 10.8781 25.6497 10.8681 25.6497L9.36812 25.2997C9.36812 25.2997 9.32812 25.2697 9.32812 25.2397C9.32812 25.2097 9.35813 25.1997 9.38813 25.1997L10.8881 25.5497C10.8881 25.5497 10.9281 25.5797 10.9281 25.6097C10.9281 25.6297 10.8981 25.6497 10.8781 25.6497Z" fill="#CBCBCB"/>
<path d="M8.58906 25.1199C8.58906 25.1199 8.58906 25.1199 8.57906 25.1199L7.07906 24.7699C7.07906 24.7699 7.03906 24.7399 7.03906 24.7099C7.03906 24.6799 7.07906 24.6699 7.09906 24.6699L8.59906 25.0199C8.59906 25.0199 8.63906 25.0499 8.63906 25.0799C8.63906 25.0999 8.60906 25.1199 8.58906 25.1199Z" fill="#CBCBCB"/>
<path d="M6.28813 24.6798C6.28813 24.6798 6.28812 24.6798 6.27812 24.6798L4.60813 24.2398C4.60813 24.2398 4.58812 24.2298 4.57812 24.2198C4.57812 24.2098 4.57812 24.1898 4.57812 24.1798L4.83813 23.2098C4.83813 23.2098 4.86813 23.1598 4.89813 23.1698C4.92813 23.1698 4.93813 23.1998 4.93813 23.2298L4.68813 24.1498L6.30813 24.5798C6.30813 24.5798 6.34812 24.6198 6.34812 24.6398C6.34812 24.6598 6.31813 24.6798 6.29813 24.6798H6.28813Z" fill="#CBCBCB"/>
<path d="M5.05758 22.4797C5.02758 22.4797 5.01758 22.4497 5.01758 22.4197L5.27758 20.9197C5.27758 20.9197 5.30758 20.8697 5.33758 20.8797C5.36758 20.8797 5.37758 20.9097 5.37758 20.9397L5.11758 22.4397C5.11758 22.4397 5.08758 22.4797 5.06758 22.4797H5.05758Z" fill="#CBCBCB"/>
<path d="M5.49922 20.1898C5.49922 20.1898 5.49922 20.1898 5.48922 20.1898C5.45922 20.1898 5.44922 20.1598 5.44922 20.1298L5.79922 18.6298C5.79922 18.6298 5.83922 18.5898 5.85922 18.5898C5.88922 18.5898 5.89922 18.6198 5.89922 18.6498L5.54922 20.1498C5.54922 20.1498 5.51922 20.1898 5.49922 20.1898Z" fill="#CBCBCB"/>
<path d="M6.02765 17.8997C6.02765 17.8997 5.97765 17.8697 5.98765 17.8397L6.16765 16.7797C6.16765 16.7797 6.19765 16.7397 6.21765 16.7397C6.21765 16.7397 6.26765 16.7697 6.25765 16.7997L6.07765 17.8597C6.07765 17.8597 6.04765 17.8997 6.02765 17.8997Z" fill="#CBCBCB"/>
<path d="M7.52852 21.5999C7.52852 21.5999 7.52852 21.5999 7.51852 21.5999C7.48852 21.5999 7.47852 21.5699 7.47852 21.5399L7.73852 20.3999C7.73852 20.3999 7.77852 20.3599 7.79852 20.3599C7.82852 20.3599 7.83852 20.3899 7.83852 20.4199L7.57852 21.5599C7.57852 21.5599 7.54852 21.5999 7.52852 21.5999Z" fill="#CBCBCB"/>
<path d="M8.66914 21.8596C8.66914 21.8596 8.66914 21.8596 8.65914 21.8596C8.62914 21.8596 8.61914 21.8296 8.61914 21.7996L8.87914 20.6596C8.87914 20.6596 8.91914 20.6196 8.93914 20.6196C8.96914 20.6196 8.97914 20.6496 8.97914 20.6796L8.71914 21.8196C8.71914 21.8196 8.68914 21.8596 8.66914 21.8596Z" fill="#CBCBCB"/>
<path d="M8.05835 21.07L6.99835 20.89C6.99835 20.89 6.94835 20.86 6.95835 20.83C6.95835 20.81 6.98835 20.79 7.00835 20.79L8.06835 20.97C8.06835 20.97 8.11835 21 8.10835 21.03C8.10835 21.05 8.07835 21.07 8.05835 21.07Z" fill="#CBCBCB"/>
<path d="M10.3488 21.5999C10.3488 21.5999 10.3488 21.5999 10.3388 21.5999L8.83883 21.2499C8.83883 21.2499 8.79883 21.2199 8.79883 21.1899C8.79883 21.1599 8.83883 21.1499 8.85883 21.1499L10.3588 21.4999C10.3588 21.4999 10.3988 21.5299 10.3988 21.5599C10.3988 21.5799 10.3688 21.5999 10.3488 21.5999Z" fill="#CBCBCB"/>
<path d="M12.6379 22.1199C12.6379 22.1199 12.6379 22.1199 12.6279 22.1199L11.1279 21.7699C11.1279 21.7699 11.0879 21.7399 11.0879 21.7099C11.0879 21.6799 11.1279 21.6699 11.1479 21.6699L12.6479 22.0199C12.6479 22.0199 12.6879 22.0499 12.6879 22.0799C12.6879 22.0999 12.6579 22.1199 12.6379 22.1199Z" fill="#CBCBCB"/>
<path d="M14.9289 22.6497C14.9289 22.6497 14.9289 22.6497 14.9189 22.6497L13.4189 22.2997C13.4189 22.2997 13.3789 22.2697 13.3789 22.2397C13.3789 22.2097 13.4189 22.1997 13.4389 22.1997L14.9389 22.5497C14.9389 22.5497 14.9789 22.5797 14.9789 22.6097C14.9789 22.6297 14.9489 22.6497 14.9289 22.6497Z" fill="#CBCBCB"/>
<path d="M16.7791 23.01L15.7191 22.83C15.7191 22.83 15.6691 22.8 15.6791 22.77C15.6791 22.75 15.7091 22.73 15.7291 22.73L16.7891 22.91C16.7891 22.91 16.8391 22.94 16.8291 22.97C16.8291 22.99 16.7991 23.01 16.7791 23.01Z" fill="#CBCBCB"/>
<path d="M7.96742 21.6798C7.96742 21.6798 7.96742 21.6798 7.95742 21.6798L6.89742 21.4198C6.89742 21.4198 6.85742 21.3898 6.85742 21.3598C6.85742 21.3298 6.89742 21.3198 6.91742 21.3198L7.97742 21.5798C7.97742 21.5798 8.01742 21.6098 8.01742 21.6398C8.01742 21.6598 7.98742 21.6798 7.96742 21.6798Z" fill="#CBCBCB"/>
<path d="M10.2591 22.2098C10.2591 22.2098 10.2591 22.2098 10.2491 22.2098L8.65914 21.8598C8.65914 21.8598 8.61914 21.8298 8.61914 21.7998C8.61914 21.7698 8.64914 21.7598 8.67914 21.7598L10.2691 22.1098C10.2691 22.1098 10.3091 22.1398 10.3091 22.1698C10.3091 22.1898 10.2791 22.2098 10.2591 22.2098Z" fill="#CBCBCB"/>
<path d="M12.5493 22.65L10.9593 22.39C10.9593 22.39 10.9093 22.36 10.9193 22.33C10.9193 22.31 10.9493 22.29 10.9693 22.29L12.5593 22.55C12.5593 22.55 12.6093 22.58 12.5993 22.61C12.5993 22.63 12.5693 22.65 12.5493 22.65Z" fill="#CBCBCB"/>
<path d="M14.8392 23.18C14.8392 23.18 14.8392 23.18 14.8292 23.18L13.2392 22.83C13.2392 22.83 13.1992 22.8 13.1992 22.77C13.1992 22.74 13.2292 22.73 13.2592 22.73L14.8492 23.08C14.8492 23.08 14.8892 23.11 14.8892 23.14C14.8892 23.16 14.8592 23.18 14.8392 23.18Z" fill="#CBCBCB"/>
<path d="M16.5983 23.6198C16.5983 23.6198 16.5983 23.6198 16.5883 23.6198L15.5283 23.3598C15.5283 23.3598 15.4883 23.3298 15.4883 23.2998C15.4883 23.2698 15.5183 23.2598 15.5483 23.2598L16.6083 23.5198C16.6083 23.5198 16.6483 23.5498 16.6483 23.5798C16.6483 23.5998 16.6183 23.6198 16.5983 23.6198Z" fill="#CBCBCB"/>
<path d="M8.22914 20.5397C8.22914 20.5397 8.22914 20.5397 8.21914 20.5397L7.15914 20.2797C7.15914 20.2797 7.11914 20.2497 7.11914 20.2197C7.11914 20.1897 7.15914 20.1797 7.17914 20.1797L8.23914 20.4397C8.23914 20.4397 8.27914 20.4697 8.27914 20.4997C8.27914 20.5197 8.24914 20.5397 8.22914 20.5397Z" fill="#CBCBCB"/>
<path d="M10.5189 21.0698C10.5189 21.0698 10.5189 21.0698 10.5089 21.0698L8.91891 20.7198C8.91891 20.7198 8.87891 20.6898 8.87891 20.6598C8.87891 20.6298 8.90891 20.6098 8.93891 20.6198L10.5289 20.9698C10.5289 20.9698 10.5689 20.9998 10.5689 21.0298C10.5689 21.0498 10.5389 21.0698 10.5189 21.0698Z" fill="#CBCBCB"/>
<path d="M12.808 21.5999C12.808 21.5999 12.808 21.5999 12.798 21.5999L11.208 21.2499C11.208 21.2499 11.168 21.2199 11.168 21.1899C11.168 21.1599 11.198 21.1499 11.228 21.1499L12.818 21.4999C12.818 21.4999 12.858 21.5299 12.858 21.5599C12.858 21.5799 12.828 21.5999 12.808 21.5999Z" fill="#CBCBCB"/>
<path d="M15.099 22.0398C15.099 22.0398 15.099 22.0398 15.089 22.0398L13.499 21.6898C13.499 21.6898 13.459 21.6598 13.459 21.6298C13.459 21.5998 13.489 21.5898 13.519 21.5898L15.109 21.9398C15.109 21.9398 15.149 21.9698 15.149 21.9998C15.149 22.0198 15.119 22.0398 15.099 22.0398Z" fill="#CBCBCB"/>
<path d="M16.8678 22.4796C16.8678 22.4796 16.8678 22.4796 16.8578 22.4796L15.7978 22.2196C15.7978 22.2196 15.7578 22.1896 15.7578 22.1596C15.7578 22.1296 15.7978 22.1196 15.8178 22.1196L16.8778 22.3796C16.8778 22.3796 16.9178 22.4096 16.9178 22.4396C16.9178 22.4596 16.8878 22.4796 16.8678 22.4796Z" fill="#CBCBCB"/>
<path d="M16.0676 23.4497C16.0676 23.4497 16.0676 23.4497 16.0576 23.4497C16.0276 23.4497 16.0176 23.4197 16.0176 23.3897L16.2776 22.2397C16.2776 22.2397 16.3176 22.1997 16.3376 22.1997C16.3676 22.1997 16.3776 22.2297 16.3776 22.2597L16.1176 23.4097C16.1176 23.4097 16.0876 23.4497 16.0676 23.4497Z" fill="#CBCBCB"/>
<path d="M13.7785 23.0098C13.7785 23.0098 13.7785 23.0098 13.7685 23.0098C13.7385 23.0098 13.7285 22.9798 13.7285 22.9498L13.9885 21.7998C13.9885 21.7998 14.0285 21.7598 14.0485 21.7598C14.0785 21.7598 14.0885 21.7898 14.0885 21.8198L13.8285 22.9698C13.8285 22.9698 13.7985 23.0098 13.7785 23.0098Z" fill="#CBCBCB"/>
<path d="M15.718 23.4497C15.718 23.4497 15.718 23.4497 15.708 23.4497C15.678 23.4497 15.668 23.4197 15.668 23.3897L15.928 22.2397C15.928 22.2397 15.968 22.1997 15.988 22.1997C16.018 22.1997 16.028 22.2297 16.028 22.2597L15.768 23.4097C15.768 23.4097 15.738 23.4497 15.718 23.4497Z" fill="#CBCBCB"/>
<path d="M8.13898 21.6799C8.13898 21.6799 8.08898 21.6499 8.09898 21.6199L8.27898 20.4799C8.27898 20.4799 8.30898 20.4399 8.33898 20.4399C8.36898 20.4399 8.38898 20.4699 8.37898 20.4999L8.19898 21.6399C8.19898 21.6399 8.16898 21.6799 8.14898 21.6799H8.13898Z" fill="#CBCBCB"/>
<path d="M7.8782 17.1899C7.8782 17.1899 7.8782 17.1899 7.8682 17.1899L6.1982 16.8399C6.1982 16.8399 6.1582 16.8099 6.1582 16.7799C6.1582 16.7499 6.1782 16.7299 6.2182 16.7399L7.8882 17.0899C7.8882 17.0899 7.9282 17.1199 7.9282 17.1499C7.9282 17.1699 7.8982 17.1899 7.8782 17.1899Z" fill="#CBCBCB"/>
<path d="M10.1691 17.72C10.1691 17.72 10.1691 17.72 10.1591 17.72L8.65914 17.37C8.65914 17.37 8.61914 17.34 8.61914 17.31C8.61914 17.28 8.65914 17.27 8.67914 17.27L10.1791 17.62C10.1791 17.62 10.2191 17.65 10.2191 17.68C10.2191 17.7 10.1891 17.72 10.1691 17.72Z" fill="#CBCBCB"/>
<path d="M12.4582 18.2498C12.4582 18.2498 12.4582 18.2498 12.4482 18.2498L10.9482 17.8998C10.9482 17.8998 10.9082 17.8698 10.9082 17.8398C10.9082 17.8098 10.9382 17.7998 10.9682 17.7998L12.4682 18.1498C12.4682 18.1498 12.5082 18.1798 12.5082 18.2098C12.5082 18.2298 12.4782 18.2498 12.4582 18.2498Z" fill="#CBCBCB"/>
<path d="M14.749 18.6898L13.249 18.4298C13.249 18.4298 13.209 18.3998 13.209 18.3698C13.209 18.3398 13.239 18.3197 13.269 18.3297L14.769 18.5897C14.769 18.5897 14.809 18.6197 14.809 18.6497C14.809 18.6697 14.779 18.6898 14.759 18.6898H14.749Z" fill="#CBCBCB"/>
<path d="M18.5383 20.0997C18.5383 20.0997 18.5183 20.0997 18.5083 20.0997L17.1983 19.2197L15.5283 18.8697C15.5283 18.8697 15.4883 18.8397 15.4883 18.8097C15.4883 18.7797 15.5083 18.7597 15.5483 18.7697L17.2183 19.1197C17.2183 19.1197 17.2283 19.1197 17.2383 19.1197L18.5583 19.9997C18.5583 19.9997 18.5883 20.0497 18.5683 20.0697C18.5683 20.0797 18.5383 20.0897 18.5283 20.0897L18.5383 20.0997Z" fill="#CBCBCB"/>
<path d="M19.5991 23.0097C19.5991 23.0097 19.5491 22.9897 19.5491 22.9697L19.3691 21.4697C19.3691 21.4697 19.3891 21.4197 19.4091 21.4097C19.4391 21.4097 19.4591 21.4297 19.4691 21.4497L19.6491 22.9497C19.6491 22.9497 19.6291 22.9997 19.6091 23.0097H19.5991Z" fill="#CBCBCB"/>
<path d="M18.3575 25.6499C18.3575 25.6499 18.3375 25.6499 18.3275 25.6499C18.3075 25.6299 18.2975 25.5999 18.3175 25.5799L19.1975 24.3499C19.1975 24.3499 19.2475 24.3199 19.2675 24.3399C19.2875 24.3599 19.2975 24.3899 19.2775 24.4099L18.3975 25.6399C18.3975 25.6399 18.3675 25.6599 18.3575 25.6599V25.6499Z" fill="#CBCBCB"/>
<path d="M15.6282 26.6201C15.6282 26.6201 15.6282 26.6201 15.6182 26.6201L13.9482 26.2701C13.9482 26.2701 13.9082 26.2401 13.9082 26.2101C13.9082 26.1801 13.9282 26.1601 13.9682 26.1701L15.6382 26.5201L17.2182 26.3401C17.2182 26.3401 17.2682 26.3601 17.2682 26.3801C17.2682 26.4101 17.2482 26.4301 17.2282 26.4401L15.6382 26.6201H15.6282Z" fill="#CBCBCB"/>
<path d="M13.1689 26.0897L11.6689 25.8297C11.6689 25.8297 11.6289 25.7997 11.6289 25.7697C11.6289 25.7397 11.6589 25.7197 11.6889 25.7297L13.1889 25.9897C13.1889 25.9897 13.2289 26.0197 13.2289 26.0497C13.2289 26.0697 13.1989 26.0897 13.1789 26.0897H13.1689Z" fill="#CBCBCB"/>
<path d="M10.8781 25.6497C10.8781 25.6497 10.8781 25.6497 10.8681 25.6497L9.36812 25.2997C9.36812 25.2997 9.32812 25.2697 9.32812 25.2397C9.32812 25.2097 9.35813 25.1997 9.38813 25.1997L10.8881 25.5497C10.8881 25.5497 10.9281 25.5797 10.9281 25.6097C10.9281 25.6297 10.8981 25.6497 10.8781 25.6497Z" fill="#CBCBCB"/>
<path d="M8.58906 25.1199C8.58906 25.1199 8.58906 25.1199 8.57906 25.1199L7.07906 24.7699C7.07906 24.7699 7.03906 24.7399 7.03906 24.7099C7.03906 24.6799 7.07906 24.6699 7.09906 24.6699L8.59906 25.0199C8.59906 25.0199 8.63906 25.0499 8.63906 25.0799C8.63906 25.0999 8.60906 25.1199 8.58906 25.1199Z" fill="#CBCBCB"/>
<path d="M6.28836 24.6796C6.28836 24.6796 6.28836 24.6796 6.27836 24.6796L4.60836 24.2396C4.60836 24.2396 4.56836 24.1996 4.56836 24.1796C4.56836 24.1496 4.60836 24.1396 4.62836 24.1396L6.29836 24.5796C6.29836 24.5796 6.33836 24.6196 6.33836 24.6396C6.33836 24.6596 6.30836 24.6796 6.28836 24.6796Z" fill="#CBCBCB"/>
<path d="M16.2491 16.8397C16.2491 16.8397 16.2291 16.8397 16.2191 16.8397L14.8091 15.8697C14.8091 15.8697 14.7891 15.8497 14.7891 15.8397C14.7891 15.8297 14.7891 15.8097 14.7891 15.7997L16.0191 14.1297C16.0191 14.1297 16.0591 14.0997 16.0891 14.1197L17.4991 15.0897C17.4991 15.0897 17.5191 15.1097 17.5191 15.1197C17.5191 15.1297 17.5191 15.1497 17.5191 15.1597L16.2891 16.8297C16.2891 16.8297 16.2691 16.8497 16.2491 16.8497V16.8397ZM14.9091 15.8097L16.2391 16.7197L17.4091 15.1297L16.0791 14.2197L14.9091 15.8097Z" fill="#CBCBCB"/>
<path d="M14.658 15.6896C14.658 15.6896 14.658 15.6896 14.648 15.6896L12.888 15.2496C12.888 15.2496 12.868 15.2396 12.858 15.2296C12.848 15.2196 12.858 15.1996 12.858 15.1896L13.388 13.1596C13.388 13.1596 13.418 13.1196 13.448 13.1196L15.118 13.4696C15.118 13.4696 15.158 13.4996 15.158 13.5296L14.718 15.6496C14.718 15.6496 14.708 15.6796 14.698 15.6796C14.698 15.6796 14.678 15.6796 14.668 15.6796L14.658 15.6896ZM12.958 15.1596L14.618 15.5796L15.038 13.5696L13.458 13.2396L12.958 15.1696V15.1596Z" fill="#CBCBCB"/>
<path d="M12.9893 15.2499C12.9893 15.2499 12.9893 15.2499 12.9793 15.2499L11.3093 14.8999C11.3093 14.8999 11.2893 14.8899 11.2793 14.8799C11.2793 14.8699 11.2793 14.8499 11.2793 14.8399L11.7193 12.8099C11.7193 12.8099 11.7393 12.7599 11.7793 12.7699L13.4493 13.1199C13.4493 13.1199 13.4693 13.1299 13.4793 13.1399C13.4793 13.1499 13.4793 13.1699 13.4793 13.1799L13.0393 15.2099C13.0393 15.2099 13.0093 15.2499 12.9893 15.2499ZM11.3793 14.8099L12.9593 15.1399L13.3793 13.2099L11.7993 12.8799L11.3793 14.8099Z" fill="#CBCBCB"/>
<path d="M18.0987 15.6898C18.0987 15.6898 18.0987 15.6898 18.0887 15.6898L16.4187 15.3398C16.4187 15.3398 16.3987 15.3298 16.3887 15.3198C16.3887 15.3098 16.3887 15.2898 16.3887 15.2798L16.8287 13.2498C16.8287 13.2498 16.8587 13.1998 16.8887 13.2098L18.5587 13.5598C18.5587 13.5598 18.5787 13.5698 18.5887 13.5798C18.5887 13.5898 18.5887 13.6098 18.5887 13.6198L18.1487 15.6498C18.1487 15.6498 18.1187 15.6898 18.0987 15.6898ZM16.4887 15.2498L18.0687 15.5798L18.4887 13.6498L16.9087 13.3198L16.4887 15.2498Z" fill="#CBCBCB"/>
<path d="M16.429 15.34C16.429 15.34 16.429 15.34 16.419 15.34L14.749 14.99C14.749 14.99 14.709 14.96 14.709 14.93L15.149 12.82C15.149 12.82 15.159 12.79 15.169 12.79C15.179 12.79 15.199 12.79 15.209 12.79L16.879 13.23C16.879 13.23 16.919 13.26 16.919 13.29L16.479 15.32C16.479 15.32 16.449 15.36 16.429 15.36V15.34ZM14.819 14.9L16.399 15.23L16.819 13.3L15.239 12.88L14.819 14.89V14.9Z" fill="#CBCBCB"/>
<path d="M21.008 15.6099C21.008 15.6099 20.988 15.6099 20.978 15.6099L19.218 14.3799C19.218 14.3799 19.188 14.3299 19.208 14.3099L20.178 12.8999C20.178 12.8999 20.198 12.8799 20.208 12.8799C20.218 12.8799 20.238 12.8799 20.248 12.8799L22.008 14.1099C22.008 14.1099 22.038 14.1599 22.018 14.1799L21.048 15.5899C21.048 15.5899 21.028 15.6099 21.018 15.6099H21.008ZM19.318 14.3099L20.998 15.4899L21.908 14.1599L20.228 12.9799L19.318 14.3099Z" fill="#CBCBCB"/>
<path d="M21.2684 12.1698C21.2684 12.1698 21.2384 12.1698 21.2284 12.1498L20.2584 10.7398C20.2584 10.7398 20.2484 10.7198 20.2584 10.6998C20.2584 10.6898 20.2684 10.6798 20.2784 10.6698L22.0384 9.52979C22.0384 9.52979 22.0884 9.52979 22.1084 9.53979L23.0784 10.9498C23.0784 10.9498 23.0884 10.9698 23.0784 10.9898C23.0784 10.9998 23.0684 11.0098 23.0584 11.0198L21.2984 12.1598C21.2984 12.1598 21.2784 12.1598 21.2684 12.1598V12.1698ZM20.3684 10.7198L21.2784 12.0498L22.9584 10.9598L22.0484 9.62979L20.3684 10.7198Z" fill="#CBCBCB"/>
<path d="M19.9483 10.23C19.9483 10.23 19.9483 10.23 19.9383 10.23L18.2683 9.88C18.2683 9.88 18.2483 9.87 18.2383 9.86C18.2383 9.85 18.2383 9.83 18.2383 9.82L18.7683 7.79C18.7683 7.79 18.7983 7.75 18.8283 7.75L20.4983 8.1C20.4983 8.1 20.5183 8.11 20.5283 8.12C20.5283 8.13 20.5283 8.15 20.5283 8.16L19.9983 10.19C19.9983 10.19 19.9683 10.23 19.9483 10.23ZM18.3383 9.79L19.9183 10.12L20.4183 8.19L18.8383 7.86L18.3383 9.79Z" fill="#CBCBCB"/>
<path d="M18.2784 9.88008C18.2784 9.88008 18.2784 9.88008 18.2684 9.88008L16.5984 9.53008C16.5984 9.53008 16.5784 9.52008 16.5684 9.51008C16.5684 9.50008 16.5684 9.48008 16.5684 9.47008L17.0984 7.36008C17.0984 7.36008 17.1084 7.34008 17.1184 7.33008C17.1284 7.33008 17.1384 7.33008 17.1584 7.33008L18.8284 7.77008C18.8284 7.77008 18.8684 7.81008 18.8684 7.83008L18.3384 9.86008C18.3384 9.86008 18.3084 9.90008 18.2884 9.90008L18.2784 9.88008ZM16.6684 9.44008L18.2484 9.77008L18.7484 7.84008L17.1684 7.43008L16.6684 9.44008Z" fill="#CBCBCB"/>
<path d="M16.6892 9.52996C16.6892 9.52996 16.6892 9.52996 16.6792 9.52996L14.9192 9.08996C14.9192 9.08996 14.8992 9.07996 14.8892 9.06996C14.8792 9.05996 14.8892 9.03996 14.8892 9.02996L15.4192 6.99996C15.4192 6.99996 15.4492 6.95996 15.4792 6.95996L17.1492 7.30996C17.1492 7.30996 17.1892 7.33996 17.1892 7.36996L16.7492 9.48996C16.7492 9.48996 16.7392 9.51996 16.7292 9.51996C16.7292 9.51996 16.7092 9.51996 16.6992 9.51996L16.6892 9.52996ZM14.9892 8.99996L16.6492 9.41996L17.0692 7.40996L15.4892 7.07996L14.9892 9.00996V8.99996Z" fill="#CBCBCB"/>
<path d="M15.0185 9.08986L13.2585 8.73986C13.2585 8.73986 13.2285 8.72986 13.2285 8.71986C13.2285 8.70986 13.2285 8.68986 13.2285 8.67986L13.7585 6.64986C13.7585 6.64986 13.7885 6.60986 13.8185 6.60986L15.4885 6.95986C15.4885 6.95986 15.5085 6.96986 15.5185 6.97986C15.5185 6.98986 15.5185 7.00986 15.5185 7.01986L15.0785 9.04986C15.0785 9.04986 15.0485 9.08986 15.0285 9.08986H15.0185ZM13.3185 8.64986L14.9785 8.97986L15.3985 7.04986L13.8185 6.71986L13.3185 8.64986Z" fill="#CBCBCB"/>
<path d="M13.3389 8.73C13.3389 8.73 13.3389 8.73 13.3289 8.73L11.6589 8.38C11.6589 8.38 11.6389 8.37 11.6289 8.36C11.6289 8.35 11.6289 8.33 11.6289 8.32L12.0689 6.29C12.0689 6.29 12.0989 6.25 12.1189 6.25C12.1189 6.25 12.1189 6.25 12.1289 6.25L13.7989 6.6C13.7989 6.6 13.8189 6.61 13.8289 6.62C13.8289 6.63 13.8289 6.65 13.8289 6.66L13.3889 8.69C13.3889 8.69 13.3589 8.73 13.3389 8.73ZM11.7289 8.29L13.3089 8.62L13.7289 6.69L12.1489 6.36L11.7289 8.29Z" fill="#CBCBCB"/>
<path d="M11.6692 8.38008C11.6692 8.38008 11.6692 8.38008 11.6592 8.38008L9.98922 8.03008C9.98922 8.03008 9.94922 8.00008 9.94922 7.97008L10.3892 5.86008C10.3892 5.86008 10.3992 5.83008 10.4092 5.83008C10.4192 5.83008 10.4392 5.83008 10.4492 5.83008L12.1192 6.27008C12.1192 6.27008 12.1592 6.30008 12.1592 6.33008L11.7192 8.36008C11.7192 8.36008 11.6892 8.40008 11.6692 8.40008V8.38008ZM10.0592 7.94008L11.6392 8.27008L12.0592 6.34008L10.4792 5.93008L10.0592 7.94008Z" fill="#CBCBCB"/>
<path d="M20.1282 9.52998C20.1282 9.52998 20.1282 9.52998 20.1182 9.52998L18.4482 9.17998C18.4482 9.17998 18.4082 9.14998 18.4082 9.11998L18.8482 7.00998C18.8482 7.00998 18.8582 6.97998 18.8682 6.97998C18.8782 6.97998 18.8982 6.97998 18.9082 6.97998L20.5782 7.41998C20.5782 7.41998 20.6182 7.44998 20.6182 7.47998L20.1782 9.50998C20.1782 9.50998 20.1482 9.54998 20.1282 9.54998V9.52998ZM18.5182 9.08998L20.0982 9.41998L20.5182 7.48998L18.9382 7.06998L18.5182 9.07998V9.08998Z" fill="#CBCBCB"/>
<path d="M18.4485 9.1701C18.4485 9.1701 18.4485 9.1701 18.4385 9.1701L16.7685 8.7301C16.7685 8.7301 16.7285 8.7001 16.7285 8.6701L17.1685 6.6401C17.1685 6.6401 17.1985 6.6001 17.2185 6.6001C17.2185 6.6001 17.2185 6.6001 17.2285 6.6001L18.8985 6.9501C18.8985 6.9501 18.9385 6.9801 18.9385 7.0101L18.4985 9.1201C18.4985 9.1201 18.4885 9.1501 18.4785 9.1501C18.4785 9.1501 18.4585 9.1501 18.4485 9.1501V9.1701ZM16.8285 8.6401L18.4085 9.0501L18.8285 7.0401L17.2485 6.7101L16.8285 8.6401Z" fill="#CBCBCB"/>
<path d="M16.7784 8.73C16.7784 8.73 16.7784 8.73 16.7684 8.73L15.0984 8.38C15.0984 8.38 15.0784 8.37 15.0684 8.36C15.0684 8.35 15.0684 8.33 15.0684 8.32L15.5084 6.29C15.5084 6.29 15.5384 6.25 15.5584 6.25C15.5584 6.25 15.5584 6.25 15.5684 6.25L17.2384 6.6C17.2384 6.6 17.2584 6.61 17.2684 6.62C17.2684 6.63 17.2684 6.65 17.2684 6.66L16.8284 8.69C16.8284 8.69 16.7984 8.73 16.7784 8.73ZM15.1684 8.29L16.7484 8.62L17.1684 6.69L15.5884 6.36L15.1684 8.29Z" fill="#CBCBCB"/>
<path d="M15.0987 8.3799C15.0987 8.3799 15.0987 8.3799 15.0887 8.3799L13.4187 8.0299C13.4187 8.0299 13.3987 8.0199 13.3887 8.0099C13.3887 7.9999 13.3887 7.9799 13.3887 7.9699L13.8287 5.9399C13.8287 5.9399 13.8587 5.8999 13.8787 5.8999C13.8787 5.8999 13.8787 5.8999 13.8887 5.8999L15.5587 6.2499C15.5587 6.2499 15.5787 6.2599 15.5887 6.2699C15.5887 6.2799 15.5887 6.2999 15.5887 6.3099L15.1487 8.3399C15.1487 8.3399 15.1187 8.3799 15.0987 8.3799ZM13.4887 7.9399L15.0687 8.2699L15.4887 6.3399L13.9087 6.0099L13.4887 7.9399Z" fill="#CBCBCB"/>
<path d="M13.4288 8.02966C13.4288 8.02966 13.4287 8.02966 13.4187 8.02966L11.7487 7.67966C11.7487 7.67966 11.7287 7.66966 11.7188 7.65966C11.7188 7.64966 11.7188 7.62966 11.7188 7.61966L12.1587 5.58966C12.1587 5.58966 12.1888 5.53966 12.2188 5.54966L13.9787 5.89966C13.9787 5.89966 14.0087 5.90966 14.0087 5.91966C14.0087 5.92966 14.0087 5.94966 14.0087 5.95966L13.4787 7.98966C13.4787 7.98966 13.4488 8.02966 13.4288 8.02966ZM11.8187 7.58966L13.3987 7.91966L13.8987 5.98966L12.2387 5.65966L11.8187 7.58966Z" fill="#CBCBCB"/>
<path d="M11.7588 7.67988C11.7588 7.67988 11.7588 7.67988 11.7488 7.67988L10.0788 7.32988C10.0788 7.32988 10.0588 7.31988 10.0488 7.30988C10.0488 7.29988 10.0488 7.27988 10.0488 7.26988L10.5788 5.15988C10.5788 5.15988 10.5888 5.13988 10.5988 5.12988C10.6088 5.12988 10.6288 5.12988 10.6388 5.12988L12.3088 5.56988C12.3088 5.56988 12.3488 5.60988 12.3488 5.62988L11.8188 7.65988C11.8188 7.65988 11.7888 7.69988 11.7688 7.69988L11.7588 7.67988ZM10.1488 7.23988L11.7288 7.56988L12.2288 5.63988L10.6488 5.22988L10.1488 7.23988Z" fill="#CBCBCB"/>
<path d="M10.2577 6.61997C10.2577 6.61997 10.2577 6.61997 10.2477 6.61997L8.21773 6.17997C8.21773 6.17997 8.17773 6.14997 8.17773 6.11997L8.52773 4.44997C8.52773 4.44997 8.53773 4.42997 8.54773 4.41997C8.55773 4.41997 8.56773 4.40997 8.58773 4.41997L10.6177 4.85997C10.6177 4.85997 10.6577 4.88997 10.6577 4.91997L10.3077 6.58997C10.3077 6.58997 10.2977 6.60997 10.2877 6.61997C10.2877 6.61997 10.2677 6.61997 10.2577 6.61997ZM8.28773 6.08997L10.2177 6.50997L10.5477 4.92997L8.61773 4.50997L8.28773 6.08997Z" fill="#CBCBCB"/>
<path d="M21.2688 4.41996C21.2688 4.41996 21.2688 4.41996 21.2588 4.41996L19.5888 3.97996C19.5888 3.97996 19.5488 3.94996 19.5488 3.91996L19.9888 1.88996C19.9888 1.88996 20.0188 1.83996 20.0488 1.84996L21.7188 2.19996C21.7188 2.19996 21.7588 2.22996 21.7588 2.25996L21.3188 4.37996C21.3188 4.37996 21.3088 4.40996 21.2988 4.40996C21.2988 4.40996 21.2788 4.40996 21.2688 4.40996V4.41996ZM19.6488 3.88996L21.2288 4.30996L21.6488 2.29996L20.0688 1.96996L19.6488 3.89996V3.88996Z" fill="#CBCBCB"/>
<path d="M19.5987 3.97986C19.5987 3.97986 19.5987 3.97986 19.5887 3.97986L17.9187 3.62986C17.9187 3.62986 17.8987 3.61986 17.8887 3.60986C17.8887 3.59986 17.8887 3.57986 17.8887 3.56986L18.3287 1.53986C18.3287 1.53986 18.3587 1.48986 18.3887 1.49986L20.0587 1.84986C20.0587 1.84986 20.0787 1.85986 20.0887 1.86986C20.0887 1.87986 20.0887 1.89986 20.0887 1.90986L19.6487 3.93986C19.6487 3.93986 19.6187 3.97986 19.5987 3.97986ZM17.9887 3.53986L19.5687 3.86986L19.9887 1.93986L18.4087 1.60986L17.9887 3.53986Z" fill="#CBCBCB"/>
<path d="M17.919 3.61965C17.919 3.61965 17.919 3.61965 17.909 3.61965L16.239 3.26965C16.239 3.26965 16.219 3.25965 16.209 3.24965C16.209 3.23965 16.209 3.21965 16.209 3.20965L16.649 1.17965C16.649 1.17965 16.679 1.13965 16.709 1.13965L18.379 1.48965C18.379 1.48965 18.399 1.49965 18.409 1.50965C18.409 1.51965 18.409 1.53965 18.409 1.54965L17.969 3.57965C17.969 3.57965 17.939 3.61965 17.919 3.61965ZM16.309 3.17965L17.889 3.50965L18.309 1.57965L16.729 1.24965L16.309 3.17965Z" fill="#CBCBCB"/>
<path d="M16.2493 3.26973C16.2493 3.26973 16.2493 3.26973 16.2393 3.26973L14.5693 2.91973C14.5693 2.91973 14.5293 2.88973 14.5293 2.85973L14.9693 0.749727C14.9693 0.749727 14.9793 0.719727 14.9893 0.719727C14.9993 0.719727 15.0193 0.719727 15.0293 0.719727L16.6993 1.15973C16.6993 1.15973 16.7393 1.18973 16.7393 1.21973L16.2993 3.24973C16.2993 3.24973 16.2693 3.28973 16.2493 3.28973V3.26973ZM14.6393 2.82973L16.2193 3.15973L16.6393 1.22973L15.0593 0.819727L14.6393 2.82973Z" fill="#CBCBCB"/>
<path d="M14.5774 2.91968C14.5774 2.91968 14.5774 2.91968 14.5674 2.91968L12.8974 2.56968C12.8974 2.56968 12.8574 2.53968 12.8574 2.50968L13.2974 0.399679C13.2974 0.399679 13.3074 0.379679 13.3174 0.369679C13.3274 0.369679 13.3374 0.359679 13.3574 0.369679L15.0274 0.719679C15.0274 0.719679 15.0674 0.749679 15.0674 0.779679L14.6274 2.89968C14.6274 2.89968 14.6174 2.91968 14.6074 2.92968C14.6074 2.92968 14.5874 2.92968 14.5774 2.92968V2.91968ZM12.9674 2.47968L14.5374 2.80968L14.9574 0.789679L13.3774 0.459679L12.9574 2.46968L12.9674 2.47968Z" fill="#CBCBCB"/>
<path d="M12.8977 2.56986C12.8977 2.56986 12.8977 2.56986 12.8877 2.56986L11.2177 2.12986C11.2177 2.12986 11.1777 2.09986 11.1777 2.06986L11.6177 0.0398575C11.6177 0.0398575 11.6477 -0.0101425 11.6777 -0.00014253L13.4377 0.349857C13.4377 0.349857 13.4677 0.359857 13.4677 0.369857C13.4677 0.379857 13.4677 0.399857 13.4677 0.409857L12.9377 2.52986C12.9377 2.52986 12.9277 2.54986 12.9177 2.55986C12.9177 2.55986 12.8977 2.55986 12.8877 2.55986L12.8977 2.56986ZM11.2877 2.03986L12.8677 2.45986L13.3677 0.449857L11.7077 0.119857L11.2877 2.04986V2.03986Z" fill="#CBCBCB"/>
<path d="M23.9081 6.62008C23.9081 6.62008 23.9081 6.62008 23.8981 6.62008L21.8681 6.09008C21.8681 6.09008 21.8281 6.06008 21.8281 6.03008L22.1781 4.36008C22.1781 4.36008 22.1881 4.34008 22.1981 4.33008C22.2081 4.33008 22.2281 4.33008 22.2381 4.33008L24.2681 4.86008C24.2681 4.86008 24.3081 4.89008 24.3081 4.92008L23.9581 6.59008C23.9581 6.59008 23.9481 6.61008 23.9381 6.62008C23.9381 6.62008 23.9181 6.62008 23.9081 6.62008ZM21.9381 6.00008L23.8681 6.50008L24.1981 4.92008L22.2681 4.42008L21.9381 6.00008Z" fill="#CBCBCB"/>
<path d="M18.8475 13.67C18.7275 13.67 18.5975 13.66 18.4775 13.63C18.4475 13.63 18.4375 13.6 18.4375 13.57C18.4375 13.54 18.4675 13.53 18.4975 13.53C18.9075 13.62 19.3275 13.55 19.6875 13.32C20.0475 13.09 20.2875 12.74 20.3775 12.33C20.3775 12.3 20.4075 12.29 20.4375 12.29C20.4675 12.29 20.4775 12.32 20.4775 12.35C20.3775 12.79 20.1175 13.16 19.7375 13.4C19.4675 13.57 19.1575 13.66 18.8375 13.66L18.8475 13.67Z" fill="#CBCBCB"/>
<path d="M20.4775 12.43C20.4475 12.43 20.4375 12.4 20.4375 12.37L20.5275 11.93C20.5275 11.93 20.5575 11.88 20.5875 11.89C20.6175 11.89 20.6275 11.92 20.6275 11.95L20.5375 12.39C20.5375 12.39 20.5075 12.43 20.4875 12.43H20.4775Z" fill="#CBCBCB"/>
<path d="M20.5283 11.9497C20.5283 11.9497 20.5283 11.9497 20.5183 11.9497C20.4883 11.9497 20.4783 11.9197 20.4783 11.8897C20.6683 11.0397 20.1283 10.1897 19.2783 10.0097C19.2483 10.0097 19.2383 9.97967 19.2383 9.94967C19.2383 9.91967 19.2683 9.90967 19.2983 9.90967C20.1983 10.1097 20.7783 11.0097 20.5783 11.9097C20.5783 11.9297 20.5483 11.9497 20.5283 11.9497Z" fill="#CBCBCB"/>
<path d="M19.3284 10.0598C19.3284 10.0598 19.3284 10.0598 19.3184 10.0598L9.35836 7.85977C9.35836 7.85977 9.31836 7.82977 9.31836 7.79977C9.31836 7.76977 9.34836 7.75977 9.37836 7.75977L19.3384 9.95977C19.3384 9.95977 19.3784 9.98977 19.3784 10.0198C19.3784 10.0398 19.3484 10.0598 19.3284 10.0598Z" fill="#CBCBCB"/>
<path d="M9.33924 7.74C8.82924 7.64 8.41924 7.28 8.25924 6.79C8.09924 6.3 8.21924 5.76 8.56924 5.38C8.91924 5 9.44924 4.85 9.94924 4.98C9.97924 4.98 9.98924 5.01 9.98924 5.04C9.98924 5.07 9.95924 5.08 9.92924 5.08C9.46924 4.96 8.96924 5.11 8.63924 5.46C8.30924 5.81 8.19924 6.31 8.34924 6.77C8.49924 7.23 8.87924 7.56 9.35924 7.65C9.38924 7.65 9.39924 7.68 9.39924 7.71C9.39924 7.73 9.36924 7.75 9.34924 7.75L9.33924 7.74Z" fill="#CBCBCB"/>
<path d="M19.9474 7.32002C19.9474 7.32002 19.9474 7.32002 19.9374 7.32002L9.89742 5.12002C9.89742 5.12002 9.85742 5.09002 9.85742 5.06002C9.85742 5.03002 9.88742 5.02002 9.91742 5.02002L19.9574 7.22002C19.9574 7.22002 19.9974 7.25002 19.9974 7.28002C19.9974 7.30002 19.9674 7.32002 19.9474 7.32002Z" fill="#CBCBCB"/>
<path d="M20.2574 7.40984C20.1374 7.40984 20.0174 7.39984 19.8974 7.36984C19.8674 7.36984 19.8574 7.33984 19.8574 7.30984C19.8574 7.27984 19.8874 7.26984 19.9174 7.26984C20.3274 7.35984 20.7474 7.28984 21.1074 7.05984C21.4674 6.82984 21.7074 6.47984 21.7974 6.06984C21.8874 5.65984 21.8174 5.23984 21.5874 4.87984C21.3574 4.51984 21.0074 4.27984 20.5974 4.18984C20.5674 4.18984 20.5574 4.15984 20.5574 4.12984C20.5574 4.09984 20.5874 4.08984 20.6174 4.08984C21.0574 4.18984 21.4274 4.44984 21.6674 4.82984C21.9074 5.20984 21.9874 5.65984 21.8874 6.09984C21.7174 6.87984 21.0174 7.41984 20.2474 7.41984L20.2574 7.40984Z" fill="#CBCBCB"/>
<path d="M20.6489 4.2401C20.6489 4.2401 20.6489 4.2401 20.6389 4.2401L10.4189 1.9501C10.4189 1.9501 10.3789 1.9201 10.3789 1.8901C10.3789 1.8601 10.4189 1.8501 10.4389 1.8501L20.6589 4.1401C20.6589 4.1401 20.6989 4.1701 20.6989 4.2001C20.6989 4.2201 20.6689 4.2401 20.6489 4.2401Z" fill="#CBCBCB"/>
<path d="M18.5374 13.6697C18.5374 13.6697 18.5374 13.6697 18.5274 13.6697L6.89742 11.0297C6.89742 11.0297 6.85742 10.9997 6.85742 10.9697C6.85742 10.9397 6.89742 10.9297 6.91742 10.9297L18.5474 13.5697C18.5474 13.5697 18.5874 13.5997 18.5874 13.6297C18.5874 13.6497 18.5574 13.6697 18.5374 13.6697Z" fill="#CBCBCB"/>
<path d="M6.25916 13.7297C5.74916 13.6297 5.33916 13.2697 5.17916 12.7797C5.01916 12.2897 5.13916 11.7497 5.48916 11.3697C5.83916 10.9897 6.36916 10.8397 6.86916 10.9697C6.89916 10.9697 6.90916 10.9997 6.90916 11.0297C6.90916 11.0597 6.87916 11.0697 6.84916 11.0697C6.38916 10.9497 5.88916 11.0997 5.55916 11.4497C5.22916 11.7997 5.11916 12.2997 5.26916 12.7597C5.41916 13.2197 5.79916 13.5497 6.27916 13.6397C6.30916 13.6397 6.31916 13.6697 6.31916 13.6997C6.31916 13.7197 6.28916 13.7397 6.26916 13.7397L6.25916 13.7297Z" fill="#CBCBCB"/>
<path d="M14.2183 15.6097C14.2183 15.6097 14.2183 15.6097 14.2083 15.6097L6.27828 13.7597C6.27828 13.7597 6.23828 13.7297 6.23828 13.6997C6.23828 13.6697 6.27828 13.6597 6.29828 13.6597L14.2283 15.5097C14.2283 15.5097 14.2683 15.5397 14.2683 15.5697C14.2683 15.5897 14.2383 15.6097 14.2183 15.6097Z" fill="#CBCBCB"/>
<path d="M15.5087 17.4096C15.5087 17.4096 15.5087 17.4096 15.4987 17.4096C15.4687 17.4096 15.4587 17.3796 15.4587 17.3496C15.5487 16.9396 15.4787 16.5196 15.2487 16.1596C15.0187 15.7996 14.6687 15.5596 14.2587 15.4696C14.2287 15.4696 14.2188 15.4396 14.2188 15.4096C14.2188 15.3796 14.2487 15.3696 14.2787 15.3696C14.7187 15.4696 15.0887 15.7296 15.3287 16.1096C15.5687 16.4896 15.6487 16.9396 15.5487 17.3796C15.5487 17.3996 15.5187 17.4196 15.4987 17.4196L15.5087 17.4096Z" fill="#CBCBCB"/>
<path d="M15.2777 18.5101C15.2777 18.5101 15.2277 18.4801 15.2377 18.4501L15.4177 17.3901C15.4177 17.3901 15.4477 17.3501 15.4677 17.3501C15.4677 17.3501 15.5177 17.3801 15.5077 17.4101L15.3277 18.4701C15.3277 18.4701 15.2977 18.5101 15.2777 18.5101Z" fill="#CBCBCB"/>
<path d="M13.648 19.7496C13.528 19.7496 13.408 19.7396 13.288 19.7096C13.258 19.7096 13.248 19.6796 13.248 19.6496C13.248 19.6196 13.278 19.5996 13.308 19.6096C14.148 19.7996 15.008 19.2596 15.188 18.4096C15.188 18.3796 15.218 18.3696 15.248 18.3696C15.278 18.3696 15.288 18.3996 15.288 18.4296C15.118 19.2096 14.418 19.7496 13.648 19.7496Z" fill="#CBCBCB"/>
<path d="M21.3584 31.82C21.3584 31.82 21.3584 31.82 21.3484 31.82L13.8584 30.15C13.8584 30.15 13.8184 30.12 13.8184 30.09C13.8184 30.06 13.8484 30.05 13.8784 30.05L21.3184 31.71L24.6484 17.01L17.2584 15.36L16.3884 19.01C16.3884 19.01 16.3584 19.05 16.3284 19.05C16.2984 19.05 16.2884 19.02 16.2884 18.99L17.1684 15.29C17.1684 15.29 17.1984 15.25 17.2284 15.25L24.7184 16.92C24.7184 16.92 24.7384 16.93 24.7484 16.94C24.7484 16.95 24.7484 16.96 24.7484 16.98L21.3984 31.78C21.3984 31.78 21.3684 31.82 21.3484 31.82H21.3584Z" fill="#CBCBCB"/>
<path d="M15.6299 26.79C15.6299 26.79 15.5999 26.79 15.5799 26.79L4.56987 24.41C4.44987 24.38 4.37987 24.27 4.39987 24.15C4.42987 24.03 4.54987 23.95 4.65987 23.98L15.6699 26.36C15.7899 26.39 15.8599 26.5 15.8399 26.62C15.8199 26.72 15.7299 26.79 15.6299 26.79Z" fill="#CBCBCB"/>
<path d="M15.6801 26.79C15.6801 26.79 15.6101 26.79 15.5701 26.79C15.4501 26.79 15.3501 26.69 15.3601 26.56C15.3601 26.44 15.4501 26.34 15.5901 26.35C17.3001 26.4 18.8501 25.2 19.2201 23.5C19.5901 21.8 18.7001 20.08 17.1001 19.41C16.9901 19.36 16.9401 19.23 16.9801 19.12C17.0301 19.01 17.1501 18.96 17.2701 19C19.0601 19.76 20.0601 21.69 19.6501 23.59C19.2501 25.46 17.5901 26.78 15.6901 26.78L15.6801 26.79Z" fill="#CBCBCB"/>
<path d="M17.1689 19.4301C17.1689 19.4301 17.1389 19.4301 17.1189 19.4301L6.10894 17.0501C5.98894 17.0201 5.91894 16.9101 5.93894 16.7901C5.96894 16.6701 6.07894 16.5901 6.19894 16.6201L17.2089 19.0001C17.3289 19.0301 17.3989 19.1401 17.3789 19.2601C17.3589 19.3601 17.2689 19.4301 17.1689 19.4301Z" fill="#CBCBCB"/>
<path d="M18.9789 28.2799C18.9789 28.2799 18.9489 28.2799 18.9289 28.2799L9.05886 26.0799C8.93886 26.0499 8.86886 25.9399 8.88886 25.8199C8.91886 25.6999 9.03886 25.6199 9.14886 25.6499L18.7989 27.7999L22.2289 12.4599L3.77886 8.36992C3.65886 8.33992 3.58886 8.22992 3.60886 8.10992C3.63886 7.98992 3.74886 7.90992 3.86886 7.93992L22.5489 12.0799C22.6089 12.0899 22.6589 12.1299 22.6889 12.1799C22.7189 12.2299 22.7289 12.2899 22.7189 12.3499L19.1989 28.1199C19.1889 28.1799 19.1489 28.2299 19.0989 28.2599C19.0589 28.2799 19.0189 28.2899 18.9789 28.2899V28.2799Z" fill="#CBCBCB"/>
</g>
<defs>
<clipPath id="clip0_962_29173">
<rect width="24.72" height="31.82" fill="white" transform="translate(0.0390625)"/>
</clipPath>
</defs>
</svg>
