<svg width="337" height="161" viewBox="0 0 337 161" fill="none" xmlns="http://www.w3.org/2000/svg">
<g clip-path="url(#clip0_848_126629)">
<path d="M176.587 36.08L176.783 33.1074L170.844 32.9102V35.8828L176.587 36.08Z" fill="#FFAE37" fill-opacity="0.4"/>
<path d="M176.783 33.1073V30.1347L171.04 29.9375L170.844 32.9101L176.783 33.1073Z" fill="#FFAE37" fill-opacity="0.4"/>
<path d="M176.783 30.1347L176.98 27.1621L171.04 26.9648V29.9375L176.783 30.1347Z" fill="#FFAE37" fill-opacity="0.4"/>
<path d="M176.98 27.1621V24.3867L171.237 24.1895L171.04 26.9648L176.98 27.1621Z" fill="#FFAE37" fill-opacity="0.4"/>
<path d="M176.979 24.3866L177.176 21.414L171.236 21.2168V24.1894L176.979 24.3866Z" fill="#FFAE37" fill-opacity="0.4"/>
<path d="M177.176 21.414V18.4414L171.433 18.2441L171.236 21.2168L177.176 21.414Z" fill="#FFAE37" fill-opacity="0.4"/>
<path d="M11.9268 57.167L10.9439 54.3916L5.39746 56.378L6.38038 59.1534L11.9268 57.167Z" fill="#FFAE37" fill-opacity="0.4"/>
<path d="M10.9438 54.3916L9.94685 51.6162L4.40039 53.6026L5.39735 56.378L10.9438 54.3916Z" fill="#FFAE37" fill-opacity="0.4"/>
<path d="M9.94637 51.6162L8.96345 48.8408L3.41699 50.8273L4.39991 53.6026L9.94637 51.6162Z" fill="#FFAE37" fill-opacity="0.4"/>
<path d="M8.96334 48.8408L7.96638 46.0654L2.41992 48.0519L3.41688 50.8272L8.96334 48.8408Z" fill="#FFAE37" fill-opacity="0.4"/>
<path d="M7.96688 46.0654L6.98396 43.29L1.4375 45.2765L2.42042 48.0518L7.96688 46.0654Z" fill="#FFAE37" fill-opacity="0.4"/>
<path d="M6.98385 43.29L5.98689 40.5146L0.44043 42.6983L1.43739 45.2765L6.98385 43.29Z" fill="#FFAE37" fill-opacity="0.4"/>
<path d="M175 86.6425L175.196 83.6699L169.257 83.4727V86.4453L175 86.6425Z" fill="#FFAE37" fill-opacity="0.4"/>
<path d="M175.196 83.6699V80.6973H169.257V83.4726L175.196 83.6699Z" fill="#FFAE37" fill-opacity="0.4"/>
<path d="M175.196 80.6972V77.9218L169.453 77.7246L169.257 80.6972H175.196Z" fill="#FFAE37" fill-opacity="0.4"/>
<path d="M175.196 77.9218L175.393 74.9492L169.453 74.752V77.7246L175.196 77.9218Z" fill="#FFAE37" fill-opacity="0.4"/>
<path d="M175.393 74.9491V71.9765L169.65 71.7793L169.453 74.7519L175.393 74.9491Z" fill="#FFAE37" fill-opacity="0.4"/>
<path d="M175.393 71.9765L175.604 69.0039L169.65 68.8066V71.7792L175.393 71.9765Z" fill="#FFAE37" fill-opacity="0.4"/>
<path d="M66.4503 82.7684L68.6408 80.782L64.2738 76.626L62.2939 78.7956L66.4503 82.7684Z" fill="#FFAE37" fill-opacity="0.4"/>
<path d="M68.6404 80.7821L70.6203 78.5984L66.4499 74.4424L64.2734 76.6261L68.6404 80.7821Z" fill="#FFAE37" fill-opacity="0.4"/>
<path d="M70.6206 78.5985L72.6004 76.4289L68.4301 72.4561L66.4502 74.4425L70.6206 78.5985Z" fill="#FFAE37" fill-opacity="0.4"/>
<path d="M72.6001 76.429L74.5799 74.4426L70.4236 70.2725L68.4297 72.4561L72.6001 76.429Z" fill="#FFAE37" fill-opacity="0.4"/>
<path d="M74.5802 74.4423L76.7566 72.2586L72.6003 68.2998L70.4238 70.2722L74.5802 74.4423Z" fill="#FFAE37" fill-opacity="0.4"/>
<path d="M76.7569 72.2587L78.7368 70.075L74.5805 66.1162L72.6006 68.2999L76.7569 72.2587Z" fill="#FFAE37" fill-opacity="0.4"/>
<path d="M175.8 61.2695L175.997 58.2969H170.043V61.0723L175.8 61.2695Z" fill="#FFAE37" fill-opacity="0.4"/>
<path d="M175.997 58.2968V55.5215L170.254 55.3242L170.043 58.2968H175.997Z" fill="#FFAE37" fill-opacity="0.4"/>
<path d="M175.997 55.5218L176.194 52.5492L170.254 52.3379V55.3246L175.997 55.5218Z" fill="#FFAE37" fill-opacity="0.4"/>
<path d="M176.194 52.5492V49.5625L170.45 49.3652L170.254 52.3378L176.194 52.5492Z" fill="#FFAE37" fill-opacity="0.4"/>
<path d="M176.193 49.5625V46.5898H170.45V49.3652L176.193 49.5625Z" fill="#FFAE37" fill-opacity="0.4"/>
<path d="M176.193 46.5898L176.39 43.8144L170.45 43.6172V46.5898H176.193Z" fill="#FFAE37" fill-opacity="0.4"/>
<path d="M218.923 86.6425L221.1 84.6701L216.943 80.5L214.753 82.6837L218.923 86.6425Z" fill="#FFAE37" fill-opacity="0.4"/>
<path d="M221.101 84.6702L223.081 82.6838L218.924 78.5137L216.944 80.5001L221.101 84.6702Z" fill="#FFAE37" fill-opacity="0.4"/>
<path d="M223.08 82.6834L225.257 80.4998L221.1 76.3438L218.924 78.5133L223.08 82.6834Z" fill="#FFAE37" fill-opacity="0.4"/>
<path d="M225.257 80.4999L227.237 78.5134L223.08 74.3574L221.101 76.3439L225.257 80.4999Z" fill="#FFAE37" fill-opacity="0.4"/>
<path d="M227.236 78.5135L229.216 76.3439L225.257 72.1738L223.08 74.3575L227.236 78.5135Z" fill="#FFAE37" fill-opacity="0.4"/>
<path d="M229.217 76.344L231.407 74.3576L227.237 70.1875L225.257 72.1739L229.217 76.344Z" fill="#FFAE37" fill-opacity="0.4"/>
<path d="M259.484 118.857H253.741V121.83H259.484V118.857Z" fill="#FFAE37" fill-opacity="0.4"/>
<path d="M259.484 115.885H253.741V118.857H259.484V115.885Z" fill="#FFAE37" fill-opacity="0.4"/>
<path d="M259.484 115.885V113.109L253.741 112.912V115.885H259.484Z" fill="#FFAE37" fill-opacity="0.4"/>
<path d="M259.484 113.109V110.137H253.741V112.912L259.484 113.109Z" fill="#FFAE37" fill-opacity="0.4"/>
<path d="M259.484 110.137L259.681 107.164H253.741V110.137H259.484Z" fill="#FFAE37" fill-opacity="0.4"/>
<path d="M259.681 104.191H253.741V107.164H259.681V104.191Z" fill="#FFAE37" fill-opacity="0.4"/>
<path d="M298.764 126.498L300.744 124.314L296.377 120.355L294.397 122.539L298.764 126.498Z" fill="#FFAE37" fill-opacity="0.4"/>
<path d="M300.744 124.314L302.724 122.145L298.357 118.172L296.377 120.356L300.744 124.314Z" fill="#FFAE37" fill-opacity="0.4"/>
<path d="M302.724 122.145L304.704 119.961L300.351 115.988L298.357 118.172L302.724 122.145Z" fill="#FFAE37" fill-opacity="0.4"/>
<path d="M304.704 119.961L306.684 117.777L302.331 113.818L300.352 115.988L304.704 119.961Z" fill="#FFAE37" fill-opacity="0.4"/>
<path d="M306.684 117.777L308.664 115.594L304.311 111.635L302.331 113.818L306.684 117.777Z" fill="#FFAE37" fill-opacity="0.4"/>
<path d="M308.663 115.594L310.643 113.41L306.29 109.451L304.311 111.635L308.663 115.594Z" fill="#FFAE37" fill-opacity="0.4"/>
<path d="M334.613 161L335.02 158.027L329.263 157.238L328.87 160.211L334.613 161Z" fill="#FFAE37" fill-opacity="0.4"/>
<path d="M335.02 158.027L335.413 155.055L329.67 154.463L329.263 157.238L335.02 158.027Z" fill="#FFAE37" fill-opacity="0.4"/>
<path d="M335.413 155.055L335.806 152.279L330.063 151.49L329.67 154.463L335.413 155.055Z" fill="#FFAE37" fill-opacity="0.4"/>
<path d="M335.807 152.279L336.2 149.307L330.457 148.518L330.063 151.49L335.807 152.279Z" fill="#FFAE37" fill-opacity="0.4"/>
<path d="M336.2 149.307L336.593 146.334L330.654 145.729L330.457 148.518L336.2 149.307Z" fill="#FFAE37" fill-opacity="0.4"/>
<path d="M336.593 146.334L337 143.559L331.046 142.756L330.653 145.728L336.593 146.334Z" fill="#FFAE37" fill-opacity="0.4"/>
<path d="M74.0753 0.283203L60.2021 14.5546L81.4051 34.9824L95.0676 20.7111L74.0753 0.283203Z" fill="#FFAE37" fill-opacity="0.4"/>
<path d="M56.2423 18.7246L42.3691 32.996L63.5721 53.4239L77.2346 39.1525L56.2423 18.7246Z" fill="#FFAE37" fill-opacity="0.4"/>
</g>
<defs>
<clipPath id="clip0_848_126629">
<rect width="337" height="161" fill="white"/>
</clipPath>
</defs>
</svg>
