<svg width="23" height="32" viewBox="0 0 23 32" fill="none" xmlns="http://www.w3.org/2000/svg">
<g clip-path="url(#clip0_962_29271)">
<path d="M8.2793 1.61H11.3593L9.5993 1L8.2793 1.61Z" fill="#E9832F"/>
<path d="M7.83984 1.78986H11.4498L8.27984 1.60986L7.83984 1.78986ZM8.27984 1.60986L11.4498 1.78986L11.3598 1.60986H8.27984Z" fill="#E9832F"/>
<path d="M7.84055 1.79004L12.2405 3.38004H7.31055L7.84055 1.79004ZM11.4505 1.79004H7.84055L12.2405 3.38004L11.4505 1.79004Z" fill="#E9832F"/>
<path d="M7.2307 3.63988H12.1607L7.3107 3.37988L7.2207 3.63988H7.2307ZM7.3207 3.37988L12.1707 3.63988L12.2607 3.37988H7.3107H7.3207Z" fill="#E9832F"/>
<path d="M7.22078 3.64014L11.5408 5.14014H4.05078L7.22078 3.64014ZM12.0708 3.64014H7.22078L11.5408 5.14014L12.0708 3.64014Z" fill="#E9832F"/>
<path d="M4.04984 5.14014L12.4198 7.08014H0.0898438L4.04984 5.14014ZM11.5398 5.14014H4.04984L12.4198 7.08014L11.5398 5.14014Z" fill="#E9832F"/>
<path d="M14.0996 10.5998H15.5096L15.2396 10.0698L14.0996 10.5998Z" fill="#E9832F"/>
<path d="M0.0898438 7.08008L13.8298 10.0701H1.49984L0.0898438 7.08008ZM12.4198 7.08008H0.0898438L13.8298 10.0701L12.4198 7.08008Z" fill="#E9832F"/>
<path d="M1.76023 10.5998H14.1002L1.50023 10.0698L1.77023 10.5998H1.76023ZM1.49023 10.0698L14.0902 10.5998L13.8302 10.0698H1.50023H1.49023Z" fill="#E9832F"/>
<path d="M16.3008 12.1798H17.2708L16.6508 12.0098L16.3008 12.1798Z" fill="#E9832F"/>
<path d="M1.75977 10.6001L16.2098 12.0101H2.37977L1.75977 10.6001ZM15.4998 10.6001H1.75977L16.2098 12.0101L15.5098 10.6001H15.4998Z" fill="#E9832F"/>
<path d="M2.55891 12.18H16.2989L2.37891 12L2.55891 12.18ZM2.37891 12L16.2989 12.18L16.2089 12H2.37891Z" fill="#E9832F"/>
<path d="M3.00055 13.1502H20.0905L2.56055 12.1802L3.00055 13.1502ZM2.56055 12.1802L20.0905 13.1502L17.2705 12.1802H2.56055Z" fill="#E9832F"/>
<path d="M3.00023 13.1499L21.1502 15.3499H4.05023L2.99023 13.1499H3.00023ZM20.0902 13.1499H3.00023L21.1502 15.3499L20.0902 13.1499Z" fill="#E9832F"/>
<path d="M2.91039 15.9701H21.4104L4.05039 15.3501L2.90039 15.9701H2.91039ZM4.06039 15.3501L21.4204 15.9701L21.1604 15.3501H4.05039H4.06039Z" fill="#E9832F"/>
<path d="M3.17039 16.4102H21.6704L2.91039 15.9702L3.18039 16.4102H3.17039ZM2.90039 15.9702L21.6604 16.4102L21.4004 15.9702H2.91039H2.90039Z" fill="#E9832F"/>
<path d="M3.16992 16.4102L20.4399 19.7602H4.75992L3.16992 16.4102ZM21.6699 16.4102H3.16992L20.4399 19.7602L21.6699 16.4102Z" fill="#E9832F"/>
<path d="M4.66992 19.8498H20.4399L4.75992 19.7598L4.66992 19.8498ZM4.75992 19.7598L20.4399 19.8498V19.7598H4.75992Z" fill="#E9832F"/>
<path d="M4.40063 20.0301H19.9906L4.66062 19.8501L4.39062 20.0301H4.40063ZM4.67063 19.8501L20.0006 20.0301L20.4406 19.8501H4.67063Z" fill="#E9832F"/>
<path d="M4.05078 20.3798H20.1808L4.41078 20.0298L4.06078 20.3798H4.05078ZM4.40078 20.0298L20.1708 20.3798L20.0808 20.0298H4.41078H4.40078Z" fill="#E9832F"/>
<path d="M3.7893 20.7299H20.4393L4.0493 20.3799L3.7793 20.7299H3.7893ZM4.0593 20.3799L20.4493 20.7299L20.1893 20.3799H4.0493H4.0593Z" fill="#E9832F"/>
<path d="M3.60961 21.17H20.6096L3.77961 20.73L3.59961 21.17H3.60961ZM3.78961 20.73L20.6196 21.17L20.4496 20.73H3.78961Z" fill="#E9832F"/>
<path d="M3.43969 21.6099H20.7897L3.60969 21.1699L3.42969 21.6099H3.43969ZM3.61969 21.1699L20.7997 21.6099L20.6197 21.1699H3.60969H3.61969Z" fill="#E9832F"/>
<path d="M3.43945 22.1399H21.0595L3.43945 21.6099V22.1399ZM3.43945 21.6099L21.0595 22.1399L20.7995 21.6099H3.43945Z" fill="#E9832F"/>
<path d="M3.51969 22.4901H20.4397L3.43969 22.1401L3.52969 22.4901H3.51969ZM3.42969 22.1401L20.4297 22.4901L21.0497 22.1401H3.43969H3.42969Z" fill="#E9832F"/>
<path d="M3.51953 22.5802H20.5295L3.52953 22.4902V22.5802H3.51953ZM3.51953 22.4902L20.5195 22.5802L20.4295 22.4902H3.51953Z" fill="#E9832F"/>
<path d="M3.69953 23.0201H20.6995L3.51953 22.5801L3.69953 23.0201ZM3.51953 22.5801L20.6995 23.0201L20.5295 22.5801H3.51953Z" fill="#E9832F"/>
<path d="M3.96922 23.37H20.8792L3.69922 23.02L3.96922 23.37ZM3.69922 23.02L20.8792 23.37L20.6992 23.02H3.69922Z" fill="#E9832F"/>
<path d="M4.2307 23.7299H21.0607L3.9707 23.3799L4.2307 23.7299ZM3.9707 23.3799L21.0607 23.7299L20.8807 23.3799H3.9707Z" fill="#E9832F"/>
<path d="M4.58047 23.99H21.2305L4.23047 23.73L4.58047 23.99ZM4.23047 23.73L21.2305 23.99L21.0505 23.73H4.23047Z" fill="#E9832F"/>
<path d="M4.93008 24.1702H21.2301L4.58008 23.9902L4.93008 24.1702ZM4.58008 23.9902L21.2301 24.1702V23.9902H4.58008Z" fill="#E9832F"/>
<path d="M6.86914 24.2502H21.3191L6.86914 24.1602V24.2502ZM6.86914 24.1602L21.3191 24.2502L21.2291 24.1602H6.86914Z" fill="#E9832F"/>
<path d="M5.01969 24.2502H6.68969L4.92969 24.1602L5.01969 24.2502ZM4.92969 24.1602L6.68969 24.2502L6.86969 24.1602H4.92969Z" fill="#E9832F"/>
<path d="M5.36953 24.34H6.42953L5.01953 24.25L5.36953 24.34ZM5.01953 24.25L6.42953 24.34L6.68953 24.25H5.01953Z" fill="#E9832F"/>
<path d="M5.45914 24.3398H5.36914H5.45914L5.89914 24.4298L6.25914 24.3398H5.45914Z" fill="#E9832F"/>
<path d="M6.86914 24.25L22.1091 26.01H7.74914L6.86914 24.25ZM21.3191 24.25H6.86914L22.1091 26.01L21.3191 24.25Z" fill="#E9832F"/>
<path d="M7.84 26.28H21.58L7.75 26.02L7.84 26.28ZM7.75 26.02L21.58 26.28L22.11 26.02H7.75Z" fill="#E9832F"/>
<path d="M8.10984 26.7198H21.8498L7.83984 26.2798L8.09984 26.7198H8.10984ZM7.84984 26.2798L21.8598 26.7198L21.5998 26.2798H7.83984H7.84984Z" fill="#E9832F"/>
<path d="M8.45898 27.5098L8.71898 28.0398L9.86898 27.5098H8.45898Z" fill="#E9832F"/>
<path d="M8.45938 27.5102H20.1794L8.10938 26.7202L8.45938 27.5102ZM8.10938 26.7202L20.1794 27.5102L21.8494 26.7202H8.10938Z" fill="#E9832F"/>
<path d="M10.1294 28.0398H19.0294L9.86938 27.5098L10.1394 28.0398H10.1294ZM9.85938 27.5098L19.0194 28.0398L20.1694 27.5098H9.86938H9.85938Z" fill="#E9832F"/>
<path d="M10.2189 28.3098H18.5889L11.8089 31.5698L10.2189 28.3098ZM10.1289 28.0498L10.2189 28.3098H18.5889L10.1289 28.0498Z" fill="#E9832F"/>
<path d="M10.1289 28.04L18.5889 28.31L19.0289 28.04H10.1289Z" fill="#E9832F"/>
<path d="M8.2793 1.61H11.3593L9.5993 1L8.2793 1.61Z" fill="#E9832F"/>
<path d="M7.83984 1.78986H11.4498L8.27984 1.60986L7.83984 1.78986ZM8.27984 1.60986L11.4498 1.78986L11.3598 1.60986H8.27984Z" fill="#E9832F"/>
<path d="M7.84055 1.79004L12.2405 3.38004H7.31055L7.84055 1.79004ZM11.4505 1.79004H7.84055L12.2405 3.38004L11.4505 1.79004Z" fill="#E9832F"/>
<path d="M7.2307 3.63988H12.1607L7.3107 3.37988L7.2207 3.63988H7.2307ZM7.3207 3.37988L12.1707 3.63988L12.2607 3.37988H7.3107H7.3207Z" fill="#E9832F"/>
<path d="M7.22078 3.64014L11.5408 5.14014H4.05078L7.22078 3.64014ZM12.0708 3.64014H7.22078L11.5408 5.14014L12.0708 3.64014Z" fill="#E9832F"/>
<path d="M4.04984 5.14014L12.4198 7.08014H0.0898438L4.04984 5.14014ZM11.5398 5.14014H4.04984L12.4198 7.08014L11.5398 5.14014Z" fill="#E9832F"/>
<path d="M14.0996 10.5998H15.5096L15.2396 10.0698L14.0996 10.5998Z" fill="#E9832F"/>
<path d="M0.0898438 7.08008L13.8298 10.0701H1.49984L0.0898438 7.08008ZM12.4198 7.08008H0.0898438L13.8298 10.0701L12.4198 7.08008Z" fill="#E9832F"/>
<path d="M1.76023 10.5998H14.1002L1.50023 10.0698L1.77023 10.5998H1.76023ZM1.49023 10.0698L14.0902 10.5998L13.8302 10.0698H1.50023H1.49023Z" fill="#E9832F"/>
<path d="M16.3008 12.1798H17.2708L16.6508 12.0098L16.3008 12.1798Z" fill="#E9832F"/>
<path d="M1.75977 10.6001L16.2098 12.0101H2.37977L1.75977 10.6001ZM15.4998 10.6001H1.75977L16.2098 12.0101L15.5098 10.6001H15.4998Z" fill="#E9832F"/>
<path d="M2.55891 12.18H16.2989L2.37891 12L2.55891 12.18ZM2.37891 12L16.2989 12.18L16.2089 12H2.37891Z" fill="#E9832F"/>
<path d="M3.00055 13.1502H20.0905L2.56055 12.1802L3.00055 13.1502ZM2.56055 12.1802L20.0905 13.1502L17.2705 12.1802H2.56055Z" fill="#E9832F"/>
<path d="M3.00023 13.1499L21.1502 15.3499H4.05023L2.99023 13.1499H3.00023ZM20.0902 13.1499H3.00023L21.1502 15.3499L20.0902 13.1499Z" fill="#E9832F"/>
<path d="M2.91039 15.9701H21.4104L4.05039 15.3501L2.90039 15.9701H2.91039ZM4.06039 15.3501L21.4204 15.9701L21.1604 15.3501H4.05039H4.06039Z" fill="#E9832F"/>
<path d="M3.17008 16.4102H21.6701L2.91008 15.9702L3.18008 16.4102H3.17008ZM2.83008 16.0502L21.6701 16.4102L21.4001 16.0502H2.83008Z" fill="#E9832F"/>
<path d="M3.16992 16.4102L20.4399 19.7602H4.75992L3.16992 16.4102ZM21.6699 16.4102H3.16992L20.4399 19.7602L21.6699 16.4102Z" fill="#E9832F"/>
<path d="M4.66992 19.8498H20.4399L4.75992 19.7598L4.66992 19.8498ZM4.75992 19.7598L20.4399 19.8498V19.7598H4.75992Z" fill="#E9832F"/>
<path d="M4.40063 20.0301H19.9906L4.66062 19.8501L4.39062 20.0301H4.40063ZM4.67063 19.8501L20.0006 20.0301L20.4406 19.8501H4.67063Z" fill="#E9832F"/>
<path d="M4.05078 20.3798H20.1808L4.41078 20.0298L4.06078 20.3798H4.05078ZM4.40078 20.0298L20.1708 20.3798L20.0808 20.0298H4.41078H4.40078Z" fill="#E9832F"/>
<path d="M3.7893 20.7299H20.4393L4.0493 20.3799L3.7793 20.7299H3.7893ZM4.0593 20.3799L20.4493 20.7299L20.1893 20.3799H4.0493H4.0593Z" fill="#E9832F"/>
<path d="M3.60961 21.17H20.6096L3.77961 20.73L3.59961 21.17H3.60961ZM3.78961 20.73L20.6196 21.17L20.4496 20.73H3.78961Z" fill="#E9832F"/>
<path d="M3.43969 21.6099H20.7897L3.60969 21.1699L3.42969 21.6099H3.43969ZM3.61969 21.1699L20.7997 21.6099L20.6197 21.1699H3.60969H3.61969Z" fill="#E9832F"/>
<path d="M3.43945 22.1399H21.0595L3.43945 21.6099V22.1399ZM3.43945 21.6099L21.0595 22.1399L20.7995 21.6099H3.43945Z" fill="#E9832F"/>
<path d="M3.51969 22.4901H20.4397L3.43969 22.1401L3.52969 22.4901H3.51969ZM3.42969 22.1401L20.4297 22.4901L21.0497 22.1401H3.43969H3.42969Z" fill="#E9832F"/>
<path d="M3.51953 22.5802H20.5295L3.52953 22.4902V22.5802H3.51953ZM3.51953 22.4902L20.5195 22.5802L20.4295 22.4902H3.51953Z" fill="#E9832F"/>
<path d="M3.69953 23.0201H20.6995L3.51953 22.5801L3.69953 23.0201ZM3.51953 22.5801L20.6995 23.0201L20.5295 22.5801H3.51953Z" fill="#E9832F"/>
<path d="M3.96922 23.37H20.8792L3.69922 23.02L3.96922 23.37ZM3.69922 23.02L20.8792 23.37L20.6992 23.02H3.69922Z" fill="#E9832F"/>
<path d="M4.2307 23.7299H21.0607L3.9707 23.3799L4.2307 23.7299ZM3.9707 23.3799L21.0607 23.7299L20.8807 23.3799H3.9707Z" fill="#E9832F"/>
<path d="M4.58047 23.99H21.2305L4.23047 23.73L4.58047 23.99ZM4.23047 23.73L21.2305 23.99L21.0505 23.73H4.23047Z" fill="#E9832F"/>
<path d="M4.93008 24.1702H21.2301L4.58008 23.9902L4.93008 24.1702ZM4.58008 23.9902L21.2301 24.1702V23.9902H4.58008Z" fill="#E9832F"/>
<path d="M6.86914 24.2502H21.3191L6.86914 24.1602V24.2502ZM6.86914 24.1602L21.3191 24.2502L21.2291 24.1602H6.86914Z" fill="#E9832F"/>
<path d="M5.01969 24.2502H6.68969L4.92969 24.1602L5.01969 24.2502ZM4.92969 24.1602L6.68969 24.2502L6.86969 24.1602H4.92969Z" fill="#E9832F"/>
<path d="M5.36953 24.34H6.42953L5.01953 24.25L5.36953 24.34ZM5.01953 24.25L6.42953 24.34L6.68953 24.25H5.01953Z" fill="#E9832F"/>
<path d="M5.45914 24.3398H5.36914H5.45914L5.89914 24.4298L6.25914 24.3398H5.45914Z" fill="#E9832F"/>
<path d="M6.86914 24.25L22.1091 26.01H7.74914L6.86914 24.25ZM21.3191 24.25H6.86914L22.1091 26.01L21.3191 24.25Z" fill="#E9832F"/>
<path d="M7.84 26.28H21.58L7.75 26.02L7.84 26.28ZM7.75 26.02L21.58 26.28L22.11 26.02H7.75Z" fill="#E9832F"/>
<path d="M8.10984 26.7198H21.8498L7.83984 26.2798L8.09984 26.7198H8.10984ZM7.84984 26.2798L21.8598 26.7198L21.5998 26.2798H7.83984H7.84984Z" fill="#E9832F"/>
<path d="M8.45898 27.5098L8.71898 28.0398L9.86898 27.5098H8.45898Z" fill="#E9832F"/>
<path d="M8.45938 27.5102H20.1794L8.10938 26.7202L8.45938 27.5102ZM8.10938 26.7202L20.1794 27.5102L21.8494 26.7202H8.10938Z" fill="#E9832F"/>
<path d="M10.1294 28.0398H19.0294L9.86938 27.5098L10.1394 28.0398H10.1294ZM9.85938 27.5098L19.0194 28.0398L20.1694 27.5098H9.86938H9.85938Z" fill="#E9832F"/>
<path d="M10.2189 28.3098H18.5889L11.8089 31.5698L10.2189 28.3098ZM10.1289 28.0498L10.2189 28.3098H18.5889L10.1289 28.0498Z" fill="#E9832F"/>
<path d="M10.1289 28.04L18.5889 28.31L19.0289 28.04H10.1289Z" fill="#E9832F"/>
<path d="M11.7993 31.6602C11.7993 31.6602 11.7793 31.6602 11.7693 31.6602C11.7493 31.6602 11.7293 31.6402 11.7193 31.6202L9.8193 27.6502L8.7493 28.1402C8.7493 28.1402 8.6493 28.1402 8.6293 28.1002L6.7793 24.2202C6.7793 24.2202 6.7793 24.1202 6.8193 24.1002C6.8693 24.0802 6.9193 24.1002 6.9393 24.1402L8.7493 27.9402L9.8193 27.4502C9.8193 27.4502 9.9193 27.4502 9.9393 27.4902L11.8393 31.4602L18.5493 28.2402L21.7193 26.7002L21.5093 26.3402C21.5093 26.3402 21.4893 26.2902 21.5093 26.2702C21.5293 26.2502 21.5293 26.2302 21.5593 26.2202L22.0093 25.9902L20.3693 22.5402C20.3693 22.5402 20.3693 22.4502 20.4093 22.4302L20.9493 22.1202L19.9293 20.0802C19.9293 20.0802 19.9193 20.0302 19.9293 20.0102C19.9393 19.9902 19.9593 19.9702 19.9793 19.9602L20.3793 19.8002L21.5893 16.4402L20.0393 13.2502L16.6693 12.1302L16.3493 12.2902C16.3493 12.2902 16.2993 12.3002 16.2793 12.2902C16.2593 12.2902 16.2393 12.2702 16.2293 12.2502L15.2093 10.2102L14.1393 10.7002C14.1393 10.7002 14.0393 10.7002 14.0193 10.6602L11.4593 5.20016C11.4593 5.20016 11.4493 5.15016 11.4593 5.13016L12.1493 3.40016L11.2993 1.71016L9.5993 1.12016L7.9093 1.88016L7.2993 3.69016C7.2993 3.69016 7.2393 3.76016 7.1893 3.74016C7.1393 3.73016 7.1193 3.68016 7.1393 3.63016L7.7593 1.78016C7.7593 1.78016 7.7793 1.74016 7.8093 1.73016L9.5693 0.910156C9.5693 0.910156 9.6093 0.910156 9.6393 0.910156L11.3993 1.53016C11.3993 1.53016 11.4393 1.55016 11.4493 1.57016L12.3293 3.33016C12.3293 3.33016 12.3393 3.38016 12.3293 3.40016L11.6393 5.13016L14.1393 10.4802L15.1993 9.99016C15.1993 9.99016 15.2893 9.99016 15.3193 10.0302L16.3393 12.0702L16.6093 11.9302C16.6093 11.9302 16.6493 11.9202 16.6793 11.9302L20.1093 13.0802C20.1093 13.0802 20.1493 13.1002 20.1593 13.1202L21.7493 16.3802C21.7493 16.3802 21.7593 16.4302 21.7493 16.4502L20.5193 19.8902C20.5193 19.8902 20.4893 19.9302 20.4693 19.9402L20.1193 20.0802L21.1393 22.1102C21.1393 22.1102 21.1393 22.2002 21.0993 22.2302L20.5493 22.5402L22.1893 25.9902C22.1893 25.9902 22.1893 26.0902 22.1493 26.1102L21.7093 26.3302L21.9293 26.6902C21.9293 26.6902 21.9493 26.7402 21.9293 26.7602C21.9293 26.7802 21.9093 26.8002 21.8793 26.8102L18.6193 28.4002L11.8393 31.6602C11.8393 31.6602 11.8093 31.6602 11.7993 31.6602Z" fill="#CBCBCB"/>
<path d="M5.8593 24.4302C4.9193 24.4302 4.0293 23.9002 3.5993 23.0002C3.0193 21.7802 3.4893 20.3402 4.6793 19.7002C4.7193 19.6802 4.7693 19.7002 4.7993 19.7402C4.8193 19.7802 4.7993 19.8402 4.7593 19.8602C3.6493 20.4502 3.2093 21.7902 3.7493 22.9302C4.2893 24.0702 5.6193 24.5602 6.7693 24.0702C6.8093 24.0502 6.8693 24.0702 6.8893 24.1202C6.9093 24.1602 6.8893 24.2202 6.8393 24.2402C6.5193 24.3802 6.1893 24.4402 5.8593 24.4402V24.4302Z" fill="#CBCBCB"/>
<path d="M4.76 19.8501C4.76 19.8501 4.7 19.8301 4.68 19.8001L2.83 16.0101C2.83 16.0101 2.83 15.9201 2.87 15.8901L3.94 15.3101L0 7.11006C0 7.11006 0 7.01006 0.04 6.99006L7.19 3.56006C7.19 3.56006 7.29 3.56006 7.31 3.60006C7.33 3.64006 7.31 3.70006 7.27 3.72006L0.21 7.12006L4.14 15.3201C4.14 15.3201 4.14 15.4101 4.1 15.4401L3.03 16.0201L4.84 19.7301C4.84 19.7301 4.84 19.8301 4.8 19.8501C4.79 19.8501 4.77 19.8501 4.76 19.8501Z" fill="#CBCBCB"/>
<path d="M8.71977 28.1299C8.71977 28.1299 8.69977 28.1299 8.68977 28.1299C8.63977 28.1099 8.61977 28.0599 8.63977 28.0199L10.5698 22.5899L8.30977 17.9899L2.87977 16.0599C2.87977 16.0599 2.80977 15.9899 2.82977 15.9499C2.84977 15.9099 2.89977 15.8799 2.93977 15.8999L8.39977 17.8399C8.39977 17.8399 8.43977 17.8599 8.44977 17.8799L10.7398 22.5499C10.7398 22.5499 10.7498 22.5999 10.7398 22.6199L8.79977 28.0799C8.79977 28.0799 8.74977 28.1399 8.71977 28.1399V28.1299Z" fill="#CBCBCB"/>
<path d="M21.0591 22.2302C21.0591 22.2302 21.0391 22.2302 21.0291 22.2302L15.5691 20.2902C15.5691 20.2902 15.5291 20.2702 15.5191 20.2502L13.2291 15.5802C13.2291 15.5802 13.2191 15.5302 13.2291 15.5102L15.1691 10.0502C15.1691 10.0502 15.2391 9.98018 15.2791 10.0002C15.3291 10.0202 15.3491 10.0702 15.3291 10.1102L13.4091 15.5402L15.6691 20.1402L21.0991 22.0702C21.0991 22.0702 21.1691 22.1402 21.1491 22.1802C21.1391 22.2202 21.0991 22.2402 21.0691 22.2402L21.0591 22.2302Z" fill="#CBCBCB"/>
<path d="M7.13977 24.9599C7.13977 24.9599 7.11977 24.9599 7.10977 24.9599C7.06977 24.9399 7.03977 24.8899 7.05977 24.8499L8.60977 20.7099L4.37977 19.2399C4.37977 19.2399 4.30977 19.1699 4.32977 19.1299C4.34977 19.0799 4.39977 19.0599 4.43977 19.0799L8.75977 20.5799C8.75977 20.5799 8.79977 20.5999 8.80977 20.6299C8.80977 20.6499 8.81977 20.6799 8.80977 20.6999L7.21977 24.9299C7.21977 24.9299 7.16977 24.9899 7.13977 24.9899V24.9599Z" fill="#CBCBCB"/>
<path d="M20.1696 20.3803C20.1696 20.3803 20.1496 20.3803 20.1396 20.3803L15.7396 18.8003C15.7396 18.8003 15.6996 18.7803 15.6896 18.7603L14.5396 16.3803C14.5396 16.3803 14.5296 16.3303 14.5396 16.3103L16.1296 11.9003C16.1296 11.9003 16.1896 11.8303 16.2396 11.8503C16.2796 11.8703 16.3096 11.9203 16.2896 11.9603L14.7196 16.3303L15.8296 18.6403L20.1996 20.2103C20.1996 20.2103 20.2696 20.2803 20.2496 20.3203C20.2396 20.3603 20.1996 20.3803 20.1696 20.3803Z" fill="#CBCBCB"/>
<path d="M8.3691 18.0002C8.3691 18.0002 8.3091 17.9802 8.2891 17.9502C8.2691 17.9102 8.2891 17.8502 8.3291 17.8302L13.2591 15.4502C13.2591 15.4502 13.3591 15.4502 13.3791 15.4902C13.3991 15.5302 13.3791 15.5902 13.3391 15.6102L8.4091 17.9902C8.4091 17.9902 8.3791 17.9902 8.3691 17.9902V18.0002Z" fill="#CBCBCB"/>
<path d="M10.6601 22.6701C10.6601 22.6701 10.6001 22.6501 10.5801 22.6201C10.5601 22.5801 10.5801 22.5201 10.6201 22.5001L15.5501 20.1201C15.5501 20.1201 15.6501 20.1201 15.6701 20.1601C15.6901 20.2001 15.6701 20.2601 15.6301 20.2801L10.7001 22.6601C10.7001 22.6601 10.6701 22.6601 10.6601 22.6601V22.6701Z" fill="#CBCBCB"/>
<path d="M4.05074 15.45C4.05074 15.45 3.99074 15.43 3.97074 15.4C3.95074 15.36 3.97074 15.3 4.01074 15.28L14.0507 10.52C14.0507 10.52 14.1507 10.52 14.1707 10.56C14.1907 10.6 14.1707 10.66 14.1307 10.68L4.09074 15.44C4.09074 15.44 4.06074 15.44 4.05074 15.44V15.45Z" fill="#CBCBCB"/>
<path d="M9.8691 27.6002C9.8691 27.6002 9.8091 27.5802 9.7891 27.5502C9.7691 27.5102 9.7891 27.4502 9.8291 27.4302L20.3991 22.4102C20.3991 22.4102 20.4991 22.4102 20.5191 22.4502C20.5391 22.4902 20.5191 22.5502 20.4791 22.5702L9.9091 27.5902C9.9091 27.5902 9.8791 27.5902 9.8691 27.5902V27.6002Z" fill="#CBCBCB"/>
<path d="M5.73042 22.1401C5.73042 22.1401 5.67042 22.1201 5.65042 22.0901C5.63042 22.0501 5.65042 21.9901 5.69042 21.9701L8.69042 20.5601C8.69042 20.5601 8.79042 20.5601 8.81042 20.6001C8.83042 20.6401 8.81042 20.7001 8.77042 20.7201L5.77042 22.1301C5.77042 22.1301 5.75042 22.1301 5.73042 22.1301V22.1401Z" fill="#CBCBCB"/>
<path d="M15.8608 18.7904C15.8608 18.7904 15.8008 18.7704 15.7808 18.7404C15.7608 18.7004 15.7808 18.6404 15.8208 18.6204L17.9908 17.5804L18.3208 16.5904L17.9108 15.6004L16.8408 15.2704L14.6708 16.3104C14.6708 16.3104 14.5708 16.3104 14.5508 16.2704C14.5308 16.2304 14.5508 16.1704 14.5908 16.1504L16.7908 15.0904C16.7908 15.0904 16.8308 15.0804 16.8508 15.0904L18.0008 15.4404C18.0008 15.4404 18.0408 15.4704 18.0508 15.4904L18.4908 16.5504C18.4908 16.5504 18.4908 16.5904 18.4908 16.6104L18.1408 17.6704C18.1408 17.6704 18.1208 17.7104 18.1008 17.7204L15.9008 18.7804C15.9008 18.7804 15.8708 18.7804 15.8608 18.7804V18.7904Z" fill="#CBCBCB"/>
<path d="M9.87039 6.11035C9.87039 6.11035 9.85039 6.11035 9.84039 6.11035L7.99039 5.40035C7.99039 5.40035 7.95039 5.38035 7.94039 5.36035L7.15039 3.69035C7.15039 3.69035 7.15039 3.59035 7.19039 3.57035C7.24039 3.55035 7.29039 3.57035 7.31039 3.61035L8.09039 5.25035L9.87039 5.93035L11.5104 5.07035C11.5104 5.07035 11.6104 5.07035 11.6304 5.11035C11.6504 5.15035 11.6304 5.21035 11.5904 5.23035L9.92039 6.11035C9.92039 6.11035 9.89039 6.11035 9.88039 6.11035H9.87039Z" fill="#CBCBCB"/>
<path d="M11.7993 31.6602C11.7993 31.6602 11.7793 31.6602 11.7693 31.6602C11.7493 31.6602 11.7293 31.6402 11.7193 31.6202L9.8193 27.6502L8.7493 28.1402C8.7493 28.1402 8.6493 28.1402 8.6293 28.1002L6.7793 24.2202C6.7793 24.2202 6.7793 24.1202 6.8193 24.1002C6.8693 24.0802 6.9193 24.1002 6.9393 24.1402L8.7493 27.9402L9.8193 27.4502C9.8193 27.4502 9.9193 27.4502 9.9393 27.4902L11.8393 31.4602L18.5493 28.2402L21.7193 26.7002L21.5093 26.3402C21.5093 26.3402 21.4893 26.2902 21.5093 26.2702C21.5293 26.2502 21.5293 26.2302 21.5593 26.2202L22.0093 25.9902L20.3693 22.5402C20.3693 22.5402 20.3693 22.4502 20.4093 22.4302L20.9493 22.1202L19.9293 20.0802C19.9293 20.0802 19.9193 20.0302 19.9293 20.0102C19.9393 19.9902 19.9593 19.9702 19.9793 19.9602L20.3793 19.8002L21.5893 16.4402L20.0393 13.2502L16.6693 12.1302L16.3493 12.2902C16.3493 12.2902 16.2993 12.3002 16.2793 12.2902C16.2593 12.2902 16.2393 12.2702 16.2293 12.2502L15.2093 10.2102L14.1393 10.7002C14.1393 10.7002 14.0393 10.7002 14.0193 10.6602L11.4593 5.20016C11.4593 5.20016 11.4493 5.15016 11.4593 5.13016L12.1493 3.40016L11.2993 1.71016L9.5993 1.12016L7.9093 1.88016L7.2993 3.69016C7.2993 3.69016 7.2393 3.76016 7.1893 3.74016C7.1393 3.73016 7.1193 3.68016 7.1393 3.63016L7.7593 1.78016C7.7593 1.78016 7.7793 1.74016 7.8093 1.73016L9.5693 0.910156C9.5693 0.910156 9.6093 0.910156 9.6393 0.910156L11.3993 1.53016C11.3993 1.53016 11.4393 1.55016 11.4493 1.57016L12.3293 3.33016C12.3293 3.33016 12.3393 3.38016 12.3293 3.40016L11.6393 5.13016L14.1393 10.4802L15.1993 9.99016C15.1993 9.99016 15.2893 9.99016 15.3193 10.0302L16.3393 12.0702L16.6093 11.9302C16.6093 11.9302 16.6493 11.9202 16.6793 11.9302L20.1093 13.0802C20.1093 13.0802 20.1493 13.1002 20.1593 13.1202L21.7493 16.3802C21.7493 16.3802 21.7593 16.4302 21.7493 16.4502L20.5193 19.8902C20.5193 19.8902 20.4893 19.9302 20.4693 19.9402L20.1193 20.0802L21.1393 22.1102C21.1393 22.1102 21.1393 22.2002 21.0993 22.2302L20.5493 22.5402L22.1893 25.9902C22.1893 25.9902 22.1893 26.0902 22.1493 26.1102L21.7093 26.3302L21.9293 26.6902C21.9293 26.6902 21.9493 26.7402 21.9293 26.7602C21.9293 26.7802 21.9093 26.8002 21.8793 26.8102L18.6193 28.4002L11.8393 31.6602C11.8393 31.6602 11.8093 31.6602 11.7993 31.6602Z" fill="#CBCBCB"/>
<path d="M5.8593 24.4302C4.9193 24.4302 4.0293 23.9002 3.5993 23.0002C3.0193 21.7802 3.4893 20.3402 4.6793 19.7002C4.7193 19.6802 4.7693 19.7002 4.7993 19.7402C4.8193 19.7802 4.7993 19.8402 4.7593 19.8602C3.6493 20.4502 3.2093 21.7902 3.7493 22.9302C4.2893 24.0702 5.6193 24.5602 6.7693 24.0702C6.8093 24.0502 6.8693 24.0702 6.8893 24.1202C6.9093 24.1602 6.8893 24.2202 6.8393 24.2402C6.5193 24.3802 6.1893 24.4402 5.8593 24.4402V24.4302Z" fill="#CBCBCB"/>
<path d="M4.76 19.8501C4.76 19.8501 4.7 19.8301 4.68 19.8001L2.83 16.0101C2.83 16.0101 2.83 15.9201 2.87 15.8901L3.94 15.3101L0 7.11006C0 7.11006 0 7.01006 0.04 6.99006L7.19 3.56006C7.19 3.56006 7.29 3.56006 7.31 3.60006C7.33 3.64006 7.31 3.70006 7.27 3.72006L0.21 7.12006L4.14 15.3201C4.14 15.3201 4.14 15.4101 4.1 15.4401L3.03 16.0201L4.84 19.7301C4.84 19.7301 4.84 19.8301 4.8 19.8501C4.79 19.8501 4.77 19.8501 4.76 19.8501Z" fill="#CBCBCB"/>
<path d="M8.71977 28.1299C8.71977 28.1299 8.69977 28.1299 8.68977 28.1299C8.63977 28.1099 8.61977 28.0599 8.63977 28.0199L10.5698 22.5899L8.30977 17.9899L2.87977 16.0599C2.87977 16.0599 2.80977 15.9899 2.82977 15.9499C2.84977 15.9099 2.89977 15.8799 2.93977 15.8999L8.39977 17.8399C8.39977 17.8399 8.43977 17.8599 8.44977 17.8799L10.7398 22.5499C10.7398 22.5499 10.7498 22.5999 10.7398 22.6199L8.79977 28.0799C8.79977 28.0799 8.74977 28.1399 8.71977 28.1399V28.1299Z" fill="#CBCBCB"/>
<path d="M21.0591 22.2302C21.0591 22.2302 21.0391 22.2302 21.0291 22.2302L15.5691 20.2902C15.5691 20.2902 15.5291 20.2702 15.5191 20.2502L13.2291 15.5802C13.2291 15.5802 13.2191 15.5302 13.2291 15.5102L15.1691 10.0502C15.1691 10.0502 15.2391 9.98018 15.2791 10.0002C15.3291 10.0202 15.3491 10.0702 15.3291 10.1102L13.4091 15.5402L15.6691 20.1402L21.0991 22.0702C21.0991 22.0702 21.1691 22.1402 21.1491 22.1802C21.1391 22.2202 21.0991 22.2402 21.0691 22.2402L21.0591 22.2302Z" fill="#CBCBCB"/>
<path d="M7.13977 24.9599C7.13977 24.9599 7.11977 24.9599 7.10977 24.9599C7.06977 24.9399 7.03977 24.8899 7.05977 24.8499L8.60977 20.7099L4.37977 19.2399C4.37977 19.2399 4.30977 19.1699 4.32977 19.1299C4.34977 19.0799 4.39977 19.0599 4.43977 19.0799L8.75977 20.5799C8.75977 20.5799 8.79977 20.5999 8.80977 20.6299C8.80977 20.6499 8.81977 20.6799 8.80977 20.6999L7.21977 24.9299C7.21977 24.9299 7.16977 24.9899 7.13977 24.9899V24.9599Z" fill="#CBCBCB"/>
<path d="M20.1696 20.3803C20.1696 20.3803 20.1496 20.3803 20.1396 20.3803L15.7396 18.8003C15.7396 18.8003 15.6996 18.7803 15.6896 18.7603L14.5396 16.3803C14.5396 16.3803 14.5296 16.3303 14.5396 16.3103L16.1296 11.9003C16.1296 11.9003 16.1896 11.8303 16.2396 11.8503C16.2796 11.8703 16.3096 11.9203 16.2896 11.9603L14.7196 16.3303L15.8296 18.6403L20.1996 20.2103C20.1996 20.2103 20.2696 20.2803 20.2496 20.3203C20.2396 20.3603 20.1996 20.3803 20.1696 20.3803Z" fill="#CBCBCB"/>
<path d="M8.3691 18.0002C8.3691 18.0002 8.3091 17.9802 8.2891 17.9502C8.2691 17.9102 8.2891 17.8502 8.3291 17.8302L13.2591 15.4502C13.2591 15.4502 13.3591 15.4502 13.3791 15.4902C13.3991 15.5302 13.3791 15.5902 13.3391 15.6102L8.4091 17.9902C8.4091 17.9902 8.3791 17.9902 8.3691 17.9902V18.0002Z" fill="#CBCBCB"/>
<path d="M10.6601 22.6701C10.6601 22.6701 10.6001 22.6501 10.5801 22.6201C10.5601 22.5801 10.5801 22.5201 10.6201 22.5001L15.5501 20.1201C15.5501 20.1201 15.6501 20.1201 15.6701 20.1601C15.6901 20.2001 15.6701 20.2601 15.6301 20.2801L10.7001 22.6601C10.7001 22.6601 10.6701 22.6601 10.6601 22.6601V22.6701Z" fill="#CBCBCB"/>
<path d="M4.05074 15.45C4.05074 15.45 3.99074 15.43 3.97074 15.4C3.95074 15.36 3.97074 15.3 4.01074 15.28L14.0507 10.52C14.0507 10.52 14.1507 10.52 14.1707 10.56C14.1907 10.6 14.1707 10.66 14.1307 10.68L4.09074 15.44C4.09074 15.44 4.06074 15.44 4.05074 15.44V15.45Z" fill="#CBCBCB"/>
<path d="M9.8691 27.6002C9.8691 27.6002 9.8091 27.5802 9.7891 27.5502C9.7691 27.5102 9.7891 27.4502 9.8291 27.4302L20.3991 22.4102C20.3991 22.4102 20.4991 22.4102 20.5191 22.4502C20.5391 22.4902 20.5191 22.5502 20.4791 22.5702L9.9091 27.5902C9.9091 27.5902 9.8791 27.5902 9.8691 27.5902V27.6002Z" fill="#CBCBCB"/>
<path d="M5.73042 22.1401C5.73042 22.1401 5.67042 22.1201 5.65042 22.0901C5.63042 22.0501 5.65042 21.9901 5.69042 21.9701L8.69042 20.5601C8.69042 20.5601 8.79042 20.5601 8.81042 20.6001C8.83042 20.6401 8.81042 20.7001 8.77042 20.7201L5.77042 22.1301C5.77042 22.1301 5.75042 22.1301 5.73042 22.1301V22.1401Z" fill="#CBCBCB"/>
<path d="M15.8608 18.7904C15.8608 18.7904 15.8008 18.7704 15.7808 18.7404C15.7608 18.7004 15.7808 18.6404 15.8208 18.6204L17.9908 17.5804L18.3208 16.5904L17.9108 15.6004L16.8408 15.2704L14.6708 16.3104C14.6708 16.3104 14.5708 16.3104 14.5508 16.2704C14.5308 16.2304 14.5508 16.1704 14.5908 16.1504L16.7908 15.0904C16.7908 15.0904 16.8308 15.0804 16.8508 15.0904L18.0008 15.4404C18.0008 15.4404 18.0408 15.4704 18.0508 15.4904L18.4908 16.5504C18.4908 16.5504 18.4908 16.5904 18.4908 16.6104L18.1408 17.6704C18.1408 17.6704 18.1208 17.7104 18.1008 17.7204L15.9008 18.7804C15.9008 18.7804 15.8708 18.7804 15.8608 18.7804V18.7904Z" fill="#CBCBCB"/>
<path d="M20.1696 20.3803C20.1696 20.3803 20.1496 20.3803 20.1396 20.3803L15.7396 18.8003C15.7396 18.8003 15.6996 18.7803 15.6896 18.7603L14.5396 16.3803C14.5396 16.3803 14.5296 16.3303 14.5396 16.3103L16.1296 11.9003C16.1296 11.9003 16.1896 11.8303 16.2396 11.8503C16.2796 11.8703 16.3096 11.9203 16.2896 11.9603L14.7196 16.3303L15.8296 18.6403L20.1996 20.2103C20.1996 20.2103 20.2696 20.2803 20.2496 20.3203C20.2396 20.3603 20.1996 20.3803 20.1696 20.3803Z" fill="#CBCBCB"/>
<path d="M4.05074 15.45C4.05074 15.45 3.99074 15.43 3.97074 15.4C3.95074 15.36 3.97074 15.3 4.01074 15.28L14.0507 10.52C14.0507 10.52 14.1507 10.52 14.1707 10.56C14.1907 10.6 14.1707 10.66 14.1307 10.68L4.09074 15.44C4.09074 15.44 4.06074 15.44 4.05074 15.44V15.45Z" fill="#CBCBCB"/>
<path d="M9.8691 27.6002C9.8691 27.6002 9.8091 27.5802 9.7891 27.5502C9.7691 27.5102 9.7891 27.4502 9.8291 27.4302L20.3991 22.4102C20.3991 22.4102 20.4991 22.4102 20.5191 22.4502C20.5391 22.4902 20.5191 22.5502 20.4791 22.5702L9.9091 27.5902C9.9091 27.5902 9.8791 27.5902 9.8691 27.5902V27.6002Z" fill="#CBCBCB"/>
<path d="M15.8608 18.7904C15.8608 18.7904 15.8008 18.7704 15.7808 18.7404C15.7608 18.7004 15.7808 18.6404 15.8208 18.6204L17.9908 17.5804L18.3208 16.5904L17.9108 15.6004L16.8408 15.2704L14.6708 16.3104C14.6708 16.3104 14.5708 16.3104 14.5508 16.2704C14.5308 16.2304 14.5508 16.1704 14.5908 16.1504L16.7908 15.0904C16.7908 15.0904 16.8308 15.0804 16.8508 15.0904L18.0008 15.4404C18.0008 15.4404 18.0408 15.4704 18.0508 15.4904L18.4908 16.5504C18.4908 16.5504 18.4908 16.5904 18.4908 16.6104L18.1408 17.6704C18.1408 17.6704 18.1208 17.7104 18.1008 17.7204L15.9008 18.7804C15.9008 18.7804 15.8708 18.7804 15.8608 18.7804V18.7904Z" fill="#CBCBCB"/>
</g>
<defs>
<clipPath id="clip0_962_29271">
<rect width="22.2" height="30.75" fill="white" transform="translate(0 0.910156)"/>
</clipPath>
</defs>
</svg>
