<svg width="31" height="44" viewBox="0 0 31 44" fill="none" xmlns="http://www.w3.org/2000/svg">
<g clip-path="url(#clip0_848_85856)">
<path d="M11.6035 0.875461H15.8709L13.4265 0L11.6035 0.875461Z" fill="#FFAE37" fill-opacity="0.4"/>
<path d="M10.9961 1.11549H15.9817L11.6038 0.861328L10.9961 1.11549ZM11.6038 0.861328L15.9817 1.11549L15.8574 0.861328H11.6038Z" fill="#FFAE37" fill-opacity="0.4"/>
<path d="M10.9956 1.11523L17.0722 3.36037H10.2637L10.9956 1.11523ZM15.9812 1.11523H10.9956L17.0722 3.36037L15.9812 1.11523Z" fill="#FFAE37" fill-opacity="0.4"/>
<path d="M10.1544 3.72748H16.963L10.2649 3.36035L10.1406 3.72748H10.1544ZM10.2787 3.36035L16.9768 3.72748L17.1011 3.36035H10.2649H10.2787Z" fill="#FFAE37" fill-opacity="0.4"/>
<path d="M10.1416 3.72754L16.1077 5.84559H5.76367L10.1416 3.72754ZM16.8396 3.72754H10.1554L16.1215 5.84559L16.8534 3.72754H16.8396Z" fill="#FFAE37" fill-opacity="0.4"/>
<path d="M5.7619 5.84473L17.3212 8.58407H0.292969L5.7619 5.84473ZM16.1059 5.84473H5.7619L17.3212 8.58407L16.1059 5.84473Z" fill="#FFAE37" fill-opacity="0.4"/>
<path d="M19.6426 13.556H21.5898L21.217 12.8076L19.6426 13.556Z" fill="#FFAE37" fill-opacity="0.4"/>
<path d="M0.292969 8.58594L19.2685 12.8079H2.24024L0.292969 8.58594ZM17.3212 8.58594H0.292969L19.2685 12.8079L17.3212 8.58594Z" fill="#FFAE37" fill-opacity="0.4"/>
<path d="M2.6014 13.556H19.6435L2.24233 12.8076L2.61521 13.556H2.6014ZM2.22852 12.8076L19.6297 13.556L19.2706 12.8076H2.24233H2.22852Z" fill="#FFAE37" fill-opacity="0.4"/>
<path d="M22.6797 15.8001H24.0193L23.1631 15.5459L22.6797 15.8001Z" fill="#FFAE37" fill-opacity="0.4"/>
<path d="M2.59961 13.5557L22.5557 15.5466H3.45586L2.59961 13.5557ZM21.5751 13.5557H2.59961L22.5557 15.5466L21.589 13.5557H21.5751Z" fill="#FFAE37" fill-opacity="0.4"/>
<path d="M3.70367 15.8001H22.6792L3.45508 15.5459L3.70367 15.8001ZM3.45508 15.5459L22.6792 15.8001L22.5549 15.5459H3.45508Z" fill="#FFAE37" fill-opacity="0.4"/>
<path d="M4.31274 17.1705H27.9148L3.70508 15.8008L4.31274 17.1705ZM3.70508 15.8008L27.9148 17.1705L24.0202 15.8008H3.70508Z" fill="#FFAE37" fill-opacity="0.4"/>
<path d="M4.31264 17.1699L29.3786 20.2764H5.76273L4.29883 17.1699H4.31264ZM27.9147 17.1699H4.31264L29.3786 20.2764L27.9147 17.1699Z" fill="#FFAE37" fill-opacity="0.4"/>
<path d="M4.18764 21.1528H29.7369L5.76203 20.2773L4.17383 21.1528H4.18764ZM5.77584 20.2773L29.7507 21.1528L29.3917 20.2773H5.76203H5.77584Z" fill="#FFAE37" fill-opacity="0.4"/>
<path d="M4.54671 21.7736H30.096L4.18764 21.1523L4.56052 21.7736H4.54671ZM4.17383 21.1523L30.0822 21.7736L29.7231 21.1523H4.18764H4.17383Z" fill="#FFAE37" fill-opacity="0.4"/>
<path d="M4.54688 21.7734L28.3975 26.5038H6.74273L4.54688 21.7734ZM30.0962 21.7734H4.54688L28.3975 26.5038L30.0962 21.7734Z" fill="#FFAE37" fill-opacity="0.4"/>
<path d="M6.61914 26.6173H28.3982L6.74343 26.4902L6.61914 26.6173ZM6.74343 26.4902L28.3982 26.6173V26.4902H6.74343Z" fill="#FFAE37" fill-opacity="0.4"/>
<path d="M6.2599 26.8704H27.7904L6.61898 26.6162L6.24609 26.8704H6.2599ZM6.63279 26.6162L27.8042 26.8704L28.4118 26.6162H6.61898H6.63279Z" fill="#FFAE37" fill-opacity="0.4"/>
<path d="M5.76367 27.3653H28.0399L6.26085 26.8711L5.77748 27.3653H5.76367ZM6.24704 26.8711L28.0261 27.3653L27.9018 26.8711H6.26085H6.24704Z" fill="#FFAE37" fill-opacity="0.4"/>
<path d="M5.40444 27.8594H28.3988L5.76351 27.3652L5.39062 27.8594H5.40444ZM5.77732 27.3652L28.4126 27.8594L28.0535 27.3652H5.76351H5.77732Z" fill="#FFAE37" fill-opacity="0.4"/>
<path d="M5.1543 28.4816H28.6458L5.40288 27.8604L5.1543 28.4816ZM5.40288 27.8604L28.6458 28.4816L28.4111 27.8604H5.40288Z" fill="#FFAE37" fill-opacity="0.4"/>
<path d="M4.92201 29.1018H28.8831L5.15679 28.4805L4.9082 29.1018H4.92201ZM5.1706 28.4805L28.8969 29.1018L28.6483 28.4805H5.15679H5.1706Z" fill="#FFAE37" fill-opacity="0.4"/>
<path d="M4.91797 29.8509H29.2519L4.91797 29.1025V29.8509ZM4.91797 29.1025L29.2519 29.8509L28.8929 29.1025H4.91797Z" fill="#FFAE37" fill-opacity="0.4"/>
<path d="M5.04226 30.3594H28.3957L4.91797 29.8652L5.04226 30.3594ZM4.91797 29.8652L28.3957 30.3594L29.2519 29.8652H4.91797Z" fill="#FFAE37" fill-opacity="0.4"/>
<path d="M5.04688 30.4718H28.5246L5.04688 30.3447V30.4718ZM5.04688 30.3447L28.5246 30.4718L28.4003 30.3447H5.04688Z" fill="#FFAE37" fill-opacity="0.4"/>
<path d="M5.27788 31.094H28.7556L5.0293 30.4727L5.27788 31.094ZM5.0293 30.4727L28.7556 31.094L28.5208 30.4727H5.04311H5.0293Z" fill="#FFAE37" fill-opacity="0.4"/>
<path d="M5.65218 31.6016H29.0056L5.2793 31.1074L5.65218 31.6016ZM5.2793 31.1074L29.0056 31.6016L28.757 31.1074H5.2793Z" fill="#FFAE37" fill-opacity="0.4"/>
<path d="M6.01141 32.0948H29.2544L5.65234 31.6006L6.01141 32.0948ZM5.65234 31.6006L29.2544 32.0948L29.0058 31.6006H5.65234Z" fill="#FFAE37" fill-opacity="0.4"/>
<path d="M6.49313 32.4638H29.4875L6.00977 32.0967L6.49313 32.4638ZM6.00977 32.0967L29.4875 32.4638L29.2389 32.0967H6.00977Z" fill="#FFAE37" fill-opacity="0.4"/>
<path d="M6.99327 32.7171H29.4905L6.49609 32.4629L6.97946 32.7171H6.99327ZM6.5099 32.4629L29.5043 32.7171V32.4629H6.49609H6.5099Z" fill="#FFAE37" fill-opacity="0.4"/>
<path d="M9.6582 32.8429H29.6143L9.6582 32.7158V32.8429ZM9.6582 32.7158L29.6143 32.8429L29.49 32.7158H9.6582Z" fill="#FFAE37" fill-opacity="0.4"/>
<path d="M7.10281 32.8429H9.40915L6.97852 32.7158L7.10281 32.8429ZM6.97852 32.7158L9.40915 32.8429L9.65774 32.7158H6.97852Z" fill="#FFAE37" fill-opacity="0.4"/>
<path d="M7.60055 32.9708H9.06446L7.11719 32.8438L7.60055 32.9708ZM7.11719 32.8438L9.06446 32.9708L9.42353 32.8438H7.11719Z" fill="#FFAE37" fill-opacity="0.4"/>
<path d="M7.71009 32.9707H7.59961H7.71009L8.31775 33.0837L8.81493 32.9707H7.71009Z" fill="#FFAE37" fill-opacity="0.4"/>
<path d="M9.6582 32.8438L30.7053 35.3289H10.8735L9.6582 32.8438ZM29.6143 32.8438H9.6582L30.7053 35.3289L29.6143 32.8438Z" fill="#FFAE37" fill-opacity="0.4"/>
<path d="M10.9993 35.6953H29.9748L10.875 35.3281L10.9993 35.6953ZM10.875 35.3281L29.9748 35.6953L30.7068 35.3281H10.875Z" fill="#FFAE37" fill-opacity="0.4"/>
<path d="M11.369 36.3176H30.3445L10.9961 35.6963L11.3552 36.3176H11.369ZM11.0099 35.6963L30.3583 36.3176L29.9992 35.6963H10.9961H11.0099Z" fill="#FFAE37" fill-opacity="0.4"/>
<path d="M11.8535 37.4463L12.2126 38.1947L13.8008 37.4463H11.8535Z" fill="#FFAE37" fill-opacity="0.4"/>
<path d="M11.8525 37.4485H28.0383L11.3691 36.333L11.8525 37.4485ZM11.3691 36.333L28.0383 37.4485L30.3447 36.333H11.3691Z" fill="#FFAE37" fill-opacity="0.4"/>
<path d="M14.16 38.1947H26.4513L13.8009 37.4463L14.1738 38.1947H14.16ZM13.7871 37.4463L26.4375 38.1947L28.0257 37.4463H13.8009H13.7871Z" fill="#FFAE37" fill-opacity="0.4"/>
<path d="M14.2845 38.5624H25.8438L16.4803 43.1657L14.2845 38.5624ZM14.1602 38.1953L14.2845 38.5624H25.8438L14.1602 38.1953Z" fill="#FFAE37" fill-opacity="0.4"/>
<path d="M14.1602 38.1953L25.8438 38.5624L26.4514 38.1953H14.1602Z" fill="#FFAE37" fill-opacity="0.4"/>
<path d="M11.6035 0.875461H15.8709L13.4265 0L11.6035 0.875461Z" fill="#FFAE37" fill-opacity="0.4"/>
<path d="M10.9961 1.11549H15.9817L11.6038 0.861328L10.9961 1.11549ZM11.6038 0.861328L15.9817 1.11549L15.8574 0.861328H11.6038Z" fill="#FFAE37" fill-opacity="0.4"/>
<path d="M10.9956 1.11523L17.0722 3.36037H10.2637L10.9956 1.11523ZM15.9812 1.11523H10.9956L17.0722 3.36037L15.9812 1.11523Z" fill="#FFAE37" fill-opacity="0.4"/>
<path d="M10.1544 3.72748H16.963L10.2649 3.36035L10.1406 3.72748H10.1544ZM10.2787 3.36035L16.9768 3.72748L17.1011 3.36035H10.2649H10.2787Z" fill="#FFAE37" fill-opacity="0.4"/>
<path d="M10.1416 3.72754L16.1077 5.84559H5.76367L10.1416 3.72754ZM16.8396 3.72754H10.1554L16.1215 5.84559L16.8534 3.72754H16.8396Z" fill="#FFAE37" fill-opacity="0.4"/>
<path d="M5.7619 5.84473L17.3212 8.58407H0.292969L5.7619 5.84473ZM16.1059 5.84473H5.7619L17.3212 8.58407L16.1059 5.84473Z" fill="#FFAE37" fill-opacity="0.4"/>
<path d="M19.6426 13.556H21.5898L21.217 12.8076L19.6426 13.556Z" fill="#FFAE37" fill-opacity="0.4"/>
<path d="M0.292969 8.58594L19.2685 12.8079H2.24024L0.292969 8.58594ZM17.3212 8.58594H0.292969L19.2685 12.8079L17.3212 8.58594Z" fill="#FFAE37" fill-opacity="0.4"/>
<path d="M2.6014 13.556H19.6435L2.24233 12.8076L2.61521 13.556H2.6014ZM2.22852 12.8076L19.6297 13.556L19.2706 12.8076H2.24233H2.22852Z" fill="#FFAE37" fill-opacity="0.4"/>
<path d="M22.6797 15.8001H24.0193L23.1631 15.5459L22.6797 15.8001Z" fill="#FFAE37" fill-opacity="0.4"/>
<path d="M2.59961 13.5557L22.5557 15.5466H3.45586L2.59961 13.5557ZM21.5751 13.5557H2.59961L22.5557 15.5466L21.589 13.5557H21.5751Z" fill="#FFAE37" fill-opacity="0.4"/>
<path d="M3.70367 15.8001H22.6792L3.45508 15.5459L3.70367 15.8001ZM3.45508 15.5459L22.6792 15.8001L22.5549 15.5459H3.45508Z" fill="#FFAE37" fill-opacity="0.4"/>
<path d="M4.31274 17.1705H27.9148L3.70508 15.8008L4.31274 17.1705ZM3.70508 15.8008L27.9148 17.1705L24.0202 15.8008H3.70508Z" fill="#FFAE37" fill-opacity="0.4"/>
<path d="M4.31264 17.1699L29.3786 20.2764H5.76273L4.29883 17.1699H4.31264ZM27.9147 17.1699H4.31264L29.3786 20.2764L27.9147 17.1699Z" fill="#FFAE37" fill-opacity="0.4"/>
<path d="M4.18764 21.1528H29.7369L5.76203 20.2773L4.17383 21.1528H4.18764ZM5.77584 20.2773L29.7507 21.1528L29.3917 20.2773H5.76203H5.77584Z" fill="#FFAE37" fill-opacity="0.4"/>
<path d="M4.54755 21.7741H30.0968L4.18848 21.1528L4.56136 21.7741H4.54755ZM4.18848 21.1528L30.0968 21.7741L29.7327 21.125L4.18848 21.1528Z" fill="#FFAE37" fill-opacity="0.4"/>
<path d="M4.54688 21.7734L28.3975 26.5038H6.74273L4.54688 21.7734ZM30.0962 21.7734H4.54688L28.3975 26.5038L30.0962 21.7734Z" fill="#FFAE37" fill-opacity="0.4"/>
<path d="M6.61914 26.6173H28.3982L6.74343 26.4902L6.61914 26.6173ZM6.74343 26.4902L28.3982 26.6173V26.4902H6.74343Z" fill="#FFAE37" fill-opacity="0.4"/>
<path d="M6.2599 26.8704H27.7904L6.61898 26.6162L6.24609 26.8704H6.2599ZM6.63279 26.6162L27.8042 26.8704L28.4118 26.6162H6.61898H6.63279Z" fill="#FFAE37" fill-opacity="0.4"/>
<path d="M5.76367 27.3653H28.0399L6.26085 26.8711L5.77748 27.3653H5.76367ZM6.24704 26.8711L28.0261 27.3653L27.9018 26.8711H6.26085H6.24704Z" fill="#FFAE37" fill-opacity="0.4"/>
<path d="M5.40444 27.8594H28.3988L5.76351 27.3652L5.39062 27.8594H5.40444ZM5.77732 27.3652L28.4126 27.8594L28.0535 27.3652H5.76351H5.77732Z" fill="#FFAE37" fill-opacity="0.4"/>
<path d="M5.1543 28.4816H28.6458L5.40288 27.8604L5.1543 28.4816ZM5.40288 27.8604L28.6458 28.4816L28.4111 27.8604H5.40288Z" fill="#FFAE37" fill-opacity="0.4"/>
<path d="M4.92201 29.1018H28.8831L5.15679 28.4805L4.9082 29.1018H4.92201ZM5.1706 28.4805L28.8969 29.1018L28.6483 28.4805H5.15679H5.1706Z" fill="#FFAE37" fill-opacity="0.4"/>
<path d="M4.91797 29.8509H29.2519L4.91797 29.1025V29.8509ZM4.91797 29.1025L29.2519 29.8509L28.8929 29.1025H4.91797Z" fill="#FFAE37" fill-opacity="0.4"/>
<path d="M5.04226 30.3594H28.3957L4.91797 29.8652L5.04226 30.3594ZM4.91797 29.8652L28.3957 30.3594L29.2519 29.8652H4.91797Z" fill="#FFAE37" fill-opacity="0.4"/>
<path d="M5.04688 30.4718H28.5246L5.04688 30.3447V30.4718ZM5.04688 30.3447L28.5246 30.4718L28.4003 30.3447H5.04688Z" fill="#FFAE37" fill-opacity="0.4"/>
<path d="M5.27788 31.094H28.7556L5.0293 30.4727L5.27788 31.094ZM5.0293 30.4727L28.7556 31.094L28.5208 30.4727H5.04311H5.0293Z" fill="#FFAE37" fill-opacity="0.4"/>
<path d="M5.65218 31.6016H29.0056L5.2793 31.1074L5.65218 31.6016ZM5.2793 31.1074L29.0056 31.6016L28.757 31.1074H5.2793Z" fill="#FFAE37" fill-opacity="0.4"/>
<path d="M6.01141 32.0948H29.2544L5.65234 31.6006L6.01141 32.0948ZM5.65234 31.6006L29.2544 32.0948L29.0058 31.6006H5.65234Z" fill="#FFAE37" fill-opacity="0.4"/>
<path d="M6.49313 32.4638H29.4875L6.00977 32.0967L6.49313 32.4638ZM6.00977 32.0967L29.4875 32.4638L29.2389 32.0967H6.00977Z" fill="#FFAE37" fill-opacity="0.4"/>
<path d="M6.99327 32.7171H29.4905L6.49609 32.4629L6.97946 32.7171H6.99327ZM6.5099 32.4629L29.5043 32.7171V32.4629H6.49609H6.5099Z" fill="#FFAE37" fill-opacity="0.4"/>
<path d="M9.6582 32.8429H29.6143L9.6582 32.7158V32.8429ZM9.6582 32.7158L29.6143 32.8429L29.49 32.7158H9.6582Z" fill="#FFAE37" fill-opacity="0.4"/>
<path d="M7.10281 32.8429H9.40915L6.97852 32.7158L7.10281 32.8429ZM6.97852 32.7158L9.40915 32.8429L9.65774 32.7158H6.97852Z" fill="#FFAE37" fill-opacity="0.4"/>
<path d="M7.60055 32.9708H9.06446L7.11719 32.8438L7.60055 32.9708ZM7.11719 32.8438L9.06446 32.9708L9.42353 32.8438H7.11719Z" fill="#FFAE37" fill-opacity="0.4"/>
<path d="M7.71009 32.9707H7.59961H7.71009L8.31775 33.0837L8.81493 32.9707H7.71009Z" fill="#FFAE37" fill-opacity="0.4"/>
<path d="M9.6582 32.8438L30.7053 35.3289H10.8735L9.6582 32.8438ZM29.6143 32.8438H9.6582L30.7053 35.3289L29.6143 32.8438Z" fill="#FFAE37" fill-opacity="0.4"/>
<path d="M10.9993 35.6953H29.9748L10.875 35.3281L10.9993 35.6953ZM10.875 35.3281L29.9748 35.6953L30.7068 35.3281H10.875Z" fill="#FFAE37" fill-opacity="0.4"/>
<path d="M11.369 36.3176H30.3445L10.9961 35.6963L11.3552 36.3176H11.369ZM11.0099 35.6963L30.3583 36.3176L29.9992 35.6963H10.9961H11.0099Z" fill="#FFAE37" fill-opacity="0.4"/>
<path d="M11.8535 37.4463L12.2126 38.1947L13.8008 37.4463H11.8535Z" fill="#FFAE37" fill-opacity="0.4"/>
<path d="M11.8525 37.4485H28.0383L11.3691 36.333L11.8525 37.4485ZM11.3691 36.333L28.0383 37.4485L30.3447 36.333H11.3691Z" fill="#FFAE37" fill-opacity="0.4"/>
<path d="M14.16 38.1947H26.4513L13.8009 37.4463L14.1738 38.1947H14.16ZM13.7871 37.4463L26.4375 38.1947L28.0257 37.4463H13.8009H13.7871Z" fill="#FFAE37" fill-opacity="0.4"/>
<path d="M14.2845 38.5624H25.8438L16.4803 43.1657L14.2845 38.5624ZM14.1602 38.1953L14.2845 38.5624H25.8438L14.1602 38.1953Z" fill="#FFAE37" fill-opacity="0.4"/>
<path d="M14.1602 38.1953L25.8438 38.5624L26.4514 38.1953H14.1602Z" fill="#FFAE37" fill-opacity="0.4"/>
</g>
<defs>
<clipPath id="clip0_848_85856">
<rect width="31" height="44" fill="white"/>
</clipPath>
</defs>
</svg>
