<svg width="63" height="90" viewBox="0 0 63 90" fill="none" xmlns="http://www.w3.org/2000/svg">
<path d="M21.1777 8.25L0.677734 17.75L12.1777 40.25L8.17773 42.25L13.6777 51.75C11.6777 52.9167 8.27773 56.45 10.6777 61.25C13.0777 66.05 18.0111 66.25 20.1777 65.75L25.1777 76.25L28.1777 74.75L33.6777 85.75L38.1777 83.75L41.1777 89.75L52.6777 84.25L49.6777 78.75L61.6777 72.75L60.6777 70.75L62.1777 69.75L57.1777 60.25L59.6777 58.75L57.1777 54.25L60.6777 43.25L56.6777 34.25L45.1777 30.25L42.6777 25.75L39.1777 27.25L32.1777 12.75L34.6777 11.25L35.6777 6.25L33.1777 1.75L27.6777 0.25L22.6777 2.75L21.1777 8.25Z" fill="#CA871E" fill-opacity="0.6"/>
</svg>
