<svg width="248" height="476" viewBox="0 0 248 476" fill="none" xmlns="http://www.w3.org/2000/svg">
<path d="M58.8027 35.5C90.8027 39.5 136.803 13.8333 155.803 0.5C160.636 6.16667 172.603 19.9 181.803 29.5C193.303 41.5 197.303 35.5 206.803 49C214.303 62.5 220.303 81.5 221.803 89C229.713 90.4833 234.202 94.411 242.036 101.267L242.303 101.5C250.303 108.5 248.803 114.5 244.303 118.5C239.803 122.5 207.303 140.5 188.303 153C169.303 165.5 142.303 194 135.803 226.5C129.303 259 156.803 304 165.803 319.5C174.803 335 171.303 341 168.303 345.5C165.303 350 147.803 364 115.303 389C89.3027 409 75.8027 455 72.3027 475.5C68.1361 442 59.3027 372.4 57.3027 362C54.8027 349 52.8027 340 54.3027 328.5C55.8027 317 61.8027 243 64.3027 202.5C66.8027 162 55.3027 146 40.8027 135.5C29.2027 127.1 8.9694 114.333 0.302734 109C11.1361 94.5 38.0027 59.5 58.8027 35.5Z" fill="#EDEE99" fill-opacity="0.4"/>
</svg>
