<svg width="126" height="220" viewBox="0 0 126 220" fill="none" xmlns="http://www.w3.org/2000/svg">
<g clip-path="url(#clip0_848_120038)">
<path d="M0.381836 36.2832L28.0898 0.890625C40.4482 9.87032 66.5544 28.3041 72.1118 30.2018C79.0586 32.5738 85.6363 31.6192 91.8758 30.5424C98.1152 29.4655 103.911 26.8051 111.893 27.2485C119.874 27.6919 126.792 35.4856 125.802 38.5813C125.009 41.0579 122.087 42.7503 120.725 43.2869C100.54 53.9362 85.9285 66.1953 79.8609 73.8728C73.7932 81.5502 70.6975 87.1225 68.5924 98.7625C66.4873 110.402 73.1741 124.395 78.4987 132.568C83.8234 140.741 86.0523 146.437 86.5477 149.904C87.043 153.371 86.7953 155.105 84.1949 157.705C81.5945 160.306 63.763 173.679 53.4852 182.967C45.2629 190.396 39.2448 210.663 37.2635 219.868L27.6048 151.762C27.9763 146.313 29.0412 132.593 30.3291 121.299C31.9388 107.183 33.4607 85.207 32.72 72.9852C31.9792 60.7633 27.072 55.3005 23.2758 51.6895C20.2389 48.8007 6.74777 40.215 0.381836 36.2832Z" fill="#CCCC66" />
</g>
<defs>
<clipPath id="clip0_848_120038">
<rect width="125.515" height="218.977" fill="white" transform="translate(0.381836 0.890625)"/>
</clipPath>
</defs>
</svg>
