<svg width="128" height="153" viewBox="0 0 128 153" fill="none" xmlns="http://www.w3.org/2000/svg">
<g clip-path="url(#clip0_848_118331)">
<path d="M49.001 2.93862L0.69043 2.31459C5.05309 12.1671 18.9473 27.5909 33.0965 41.4832C47.2456 55.3755 52.9817 78.7063 54.129 86.6095C55.0468 92.932 62.7544 114.568 66.4935 124.595L106.266 152.904C100.275 125.116 117.442 99.1097 127.875 85.4108C127.095 84.6963 125.952 82.2547 125.477 81.1231L122.752 75.4825L121.199 76.1637L118.637 70.7138C117.766 71.0953 115.34 70.9591 114.196 68.7791C113.28 67.0352 114.85 65.2004 115.749 64.501L113.209 58.9376L114.663 58.2103L106.975 41.4832L109.26 32.0288L103.442 30.5743L99.8061 31.4054L96.897 30.5743L101.988 6.88622L98.871 0.0292969L49.001 2.93862Z" fill="#FFFF94" fill-opacity="0.4"/>
</g>
<defs>
<clipPath id="clip0_848_118331">
<rect width="127.184" height="152.737" fill="white" transform="translate(0.69043 0.0292969)"/>
</clipPath>
</defs>
</svg>
