<svg width="258" height="414" viewBox="0 0 258 414" fill="none" xmlns="http://www.w3.org/2000/svg">
<path d="M82.5 7L0 2.5C4.5 15 13 31.5 18 38C23 44.5 64 91.5 87.5 133C111 174.5 133.5 237 132.5 256C131.7 271.2 123.167 358.667 119 400.5L159.5 414C159.167 403.5 164.6 375.4 189 347C219.5 311.5 211.5 313.5 211.5 296C205.9 231.6 239.833 186.833 257.5 172.5C255.833 170.333 252.1 165.2 250.5 162C248.9 158.8 245.833 153 244.5 150.5L241.5 152L236.5 141C234.5 141.833 229.9 142.3 227.5 137.5C225.1 132.7 228.167 129.167 230 128L225 117L228.5 115.5C223.833 105.833 213.9 84.2 211.5 75C209.1 65.8 201.833 21.1667 198.5 0L82.5 7Z" fill="#CCCC66" fill-opacity="0.6"/>
</svg>
