<svg width="38" height="65" viewBox="0 0 38 65" fill="none" xmlns="http://www.w3.org/2000/svg">
<g clip-path="url(#clip0_962_28830)">
<path d="M36.8209 6.95978L36.7609 6.83979L36.7409 6.77979H7.05094L7.02094 6.83979L6.96094 6.95978H36.8209Z" fill="#CCCC66"/>
<path d="M27.9292 0H13.9192L11.4492 1.15H29.6892L27.9292 0Z" fill="#CCCC66"/>
<path d="M36.7408 6.7799L33.8308 3.7899L29.6908 1.1499H11.4508L9.43078 3.7899L7.05078 6.7799H36.7408Z" fill="#CCCC66"/>
<path d="M36.9107 19.82L37.8807 12.33L36.8207 6.95996H6.9607L3.6107 12.33L2.4707 19.82H36.9107Z" fill="#CCCC66"/>
<path d="M36.9095 20.0898V19.8198H2.46945V20.0898L1.93945 35.5898H31.7195L36.9095 20.0898Z" fill="#CCCC66"/>
<path d="M31.7196 35.5898H1.93961L1.84961 40.0798H30.7496L31.7196 35.5898Z" fill="#CCCC66"/>
<path d="M28.7196 49.3301L30.7496 40.0801H1.84961L2.54961 49.3301H28.7196Z" fill="#CCCC66"/>
<path d="M28.7198 49.3398H2.54977L1.75977 53.2098H27.8398L28.7198 49.3398Z" fill="#CCCC66"/>
<path d="M24.56 59.3799H0.62L0 62.5499L0.04 64.7499L18.68 63.9899L24.56 59.3799Z" fill="#CCCC66"/>
<path d="M27.8391 53.21H1.75914L0.789141 58.32L0.619141 59.38H24.5591L27.2491 56.32L27.8391 53.21Z" fill="#CCCC66"/>
<path d="M19.7798 22.5498C22.9664 22.5498 25.5498 19.9664 25.5498 16.7798C25.5498 13.5931 22.9664 11.0098 19.7798 11.0098C16.5931 11.0098 14.0098 13.5931 14.0098 16.7798C14.0098 19.9664 16.5931 22.5498 19.7798 22.5498Z" fill="#A1A14D"/>
<path d="M2.92086 26.6904L2.63086 25.5204L3.21086 25.3804L3.51086 26.5404L2.92086 26.6904Z" fill="#A1A14D"/>
<path d="M4.50141 26.2702L4.19141 25.1102C4.54141 25.0202 4.94141 24.9102 5.37141 24.7902L5.69141 25.9502C5.25141 26.0702 4.85141 26.1802 4.50141 26.2802V26.2702ZM6.69141 25.6602L6.36141 24.5102C6.74141 24.4002 7.13141 24.2902 7.54141 24.1702L7.88141 25.3202C7.47141 25.4402 7.07141 25.5602 6.69141 25.6702V25.6602ZM8.87141 25.0102L8.52141 23.8602C8.90141 23.7402 9.29141 23.6202 9.69141 23.4902L10.0614 24.6302C9.66141 24.7602 9.26141 24.8802 8.88141 25.0002L8.87141 25.0102ZM11.0414 24.3202L10.6614 23.1802C11.0414 23.0502 11.4314 22.9202 11.8214 22.7902L12.2114 23.9202C11.8214 24.0602 11.4314 24.1902 11.0414 24.3202ZM13.1914 23.5802L12.7814 22.4502C13.1614 22.3102 13.5514 22.1702 13.9214 22.0202L14.3514 23.1402C13.9714 23.2902 13.5814 23.4302 13.1814 23.5702L13.1914 23.5802ZM15.3214 22.7602L14.8714 21.6502C15.2514 21.4902 15.6314 21.3402 15.9914 21.1802L16.4814 22.2802C16.1114 22.4502 15.7214 22.6102 15.3314 22.7702L15.3214 22.7602ZM17.4214 21.8302L16.9014 20.7502C17.2814 20.5702 17.6314 20.3802 17.9714 20.2002L18.5514 21.2502C18.2014 21.4402 17.8214 21.6402 17.4314 21.8302H17.4214Z" fill="#A1A14D"/>
<path d="M19.4508 20.7102L19.3008 20.4802H19.0308C19.0308 20.3102 19.0208 20.1602 19.0208 20.0502L18.8008 19.7202C18.9608 19.6102 19.1208 19.5002 19.2608 19.4002L20.2408 18.6602V19.8902C20.2408 19.8902 20.2208 20.1102 20.2408 20.4502L19.8408 20.4702C19.7208 20.5602 19.6008 20.6402 19.4708 20.7302L19.4508 20.7102Z" fill="#A1A14D"/>
<path d="M17.3111 62.5304L16.6511 61.5604L17.6411 60.8904L18.3011 61.8604L17.3111 62.5304ZM16.1011 60.3904L16.0811 59.2104L17.2811 59.1904L17.3011 60.3704L16.1011 60.3904ZM16.0711 58.2304L16.0511 57.0504L17.2511 57.0304L17.2711 58.2104L16.0711 58.2304ZM16.0411 56.0804L16.0211 54.9004H17.2211L17.2411 56.0604L16.0411 56.0804ZM16.0111 53.9204V52.7404L17.2011 52.7304V53.8904L16.0111 53.9204ZM15.9911 51.7604V50.5804H17.1811V51.7504L15.9911 51.7604ZM15.9711 49.6004V48.4204H17.1711V49.5304L16.5711 49.6004H15.9711ZM15.9711 47.4504C15.9711 47.0304 15.9511 46.6604 15.9311 46.3104L17.1311 46.2404C17.1511 46.6104 17.1711 47.0104 17.1811 47.4404H15.9811L15.9711 47.4504ZM15.8711 45.3204V45.0004C15.8711 44.6904 15.8711 44.3804 15.9211 44.0604L17.1111 44.2204C17.0711 44.4804 17.0611 44.7404 17.0611 45.0004V45.2904L15.8711 45.3204ZM17.3011 43.3104L16.1311 43.0404L16.4011 41.9004L17.5711 42.1704L17.3011 43.3104ZM17.7911 41.2104L16.6211 40.9404L16.8811 39.8004L18.0511 40.0704L17.7911 41.2204V41.2104ZM18.2711 39.1004L17.1011 38.8404L17.3511 37.7004L18.5211 37.9504L18.2711 39.1004ZM18.7211 36.9804L17.5411 36.7404C17.6211 36.3304 17.7011 35.9504 17.7611 35.6004L18.9411 35.8104C18.8811 36.1704 18.8011 36.5604 18.7111 36.9804H18.7211ZM19.1111 34.8504L17.9311 34.6404C17.9911 34.2804 18.1011 33.8704 18.2411 33.4304L19.3811 33.7904C19.2611 34.1904 19.1711 34.5404 19.1111 34.8504ZM19.6911 32.9004L18.5711 32.4804C18.7111 32.1104 18.8611 31.7304 19.0211 31.3704L20.1211 31.8504C19.9711 32.2004 19.8211 32.5604 19.6911 32.9104V32.9004ZM20.5111 30.9604L19.4211 30.4604C19.6011 30.0804 19.7711 29.7204 19.9311 29.3904L21.0111 29.9104C20.8511 30.2304 20.6811 30.5904 20.5111 30.9604ZM21.4411 29.0304L20.3611 28.5004C20.5011 28.2104 20.6111 27.9804 20.6611 27.8404C20.6611 27.8104 20.6911 27.7504 20.6911 27.6404L21.8911 27.6904C21.8911 27.9204 21.8411 28.1104 21.7711 28.2904C21.7111 28.4404 21.5911 28.7004 21.4311 29.0304H21.4411ZM20.5911 26.8404C20.5111 26.5104 20.4011 26.1504 20.2711 25.7704L21.4111 25.3804C21.5511 25.8004 21.6711 26.1904 21.7611 26.5604L20.5911 26.8404ZM19.9511 24.8604C19.8311 24.5304 19.7111 24.2104 19.6111 23.9104L19.5511 23.7404L20.6911 23.3604L20.7411 23.5004C20.8511 23.8104 20.9611 24.1204 21.0711 24.4304L19.9511 24.8604ZM19.2811 22.7304C19.1911 22.3104 19.1311 21.8904 19.0911 21.5104L20.2811 21.3804C20.3211 21.7204 20.3711 22.1004 20.4511 22.4804L19.2711 22.7204L19.2811 22.7304Z" fill="#A1A14D"/>
<path d="M18.8324 62.6361L17.8379 63.3076L18.1737 63.8049L19.1682 63.1333L18.8324 62.6361Z" fill="#A1A14D"/>
<path d="M8.77008 64.3298L8.33008 63.2098L9.45008 62.7698L9.89008 63.8898L8.77008 64.3298ZM10.8201 63.5198L10.3801 62.3998L11.5001 61.9598L11.9401 63.0798L10.8201 63.5198ZM12.8701 62.7098L12.4301 61.5898L13.5501 61.1498L13.9901 62.2698L12.8701 62.7098ZM14.9201 61.8998L14.4801 60.7798L15.6001 60.3398L16.0401 61.4598L14.9201 61.8998Z" fill="#A1A14D"/>
</g>
<defs>
<clipPath id="clip0_962_28830">
<rect width="37.88" height="64.75" fill="white"/>
</clipPath>
</defs>
</svg>
