<svg width="42" height="80" viewBox="0 0 42 80" fill="none" xmlns="http://www.w3.org/2000/svg">
<g clip-path="url(#clip0_962_29391)">
<path d="M29.3682 23.9698L31.9082 23.7898L31.7082 21.2798L29.1582 21.5398L29.3682 23.9698Z" fill="#E9832F"/>
<path d="M29.3682 23.9698L31.9082 23.7898L31.7082 21.2798L29.1582 21.5398L29.3682 23.9698Z" fill="#E9832F"/>
<path d="M33.2191 29.9997V29.9097L29.8691 30.0897L29.9591 32.5597L30.0391 35.1097L33.3891 34.9397L33.2991 32.4697L33.2191 29.9997Z" fill="#E9832F"/>
<path d="M10.4884 43.4797L12.0684 45.3297L14.6284 43.2197L13.0384 41.2797L12.0384 42.1397L13.0384 41.2797L11.4584 39.4297L8.89844 41.5397L10.4884 43.4797Z" fill="#E9832F"/>
<path d="M31.0091 41.6296L28.1891 39.8696L26.8691 41.9796L29.7791 43.7496L31.0091 41.6296Z" fill="#E9832F"/>
<path d="M29.5192 37.7495L28.1992 39.8695L31.0092 41.6295L32.3392 39.4295L29.5192 37.7495Z" fill="#E9832F"/>
<path d="M24.7584 45.4194L19.8184 46.1194L20.3484 49.3794L25.2884 48.6794L24.7584 45.4194Z" fill="#E9832F"/>
<path d="M3.32812 6.82973L5.58812 7.68973L6.53813 5.42973L4.18813 4.46973L3.32812 6.82973Z" fill="#E9832F"/>
<path d="M29.5898 13.7896L27.3098 14.6696L26.2598 12.3796L28.5398 11.3496L29.5898 13.7896Z" fill="#E9832F"/>
<path d="M29.5898 13.7896L27.3098 14.6696L26.2598 12.3796L28.5398 11.3496L29.5898 13.7896Z" fill="#E9832F"/>
<path d="M29.3682 23.9698L31.9082 23.7898L31.7082 21.2798L29.1582 21.5398L29.3682 23.9698Z" fill="#E9832F"/>
<path d="M29.3682 23.9698L31.9082 23.7898L31.7082 21.2798L29.1582 21.5398L29.3682 23.9698Z" fill="#E9832F"/>
<path d="M29.9591 32.5595L33.2991 32.4695L33.2191 29.9995L29.8691 30.0895L29.9591 32.5595Z" fill="#E9832F"/>
<path d="M29.9591 32.5595L33.2991 32.4695L33.2191 29.9995L29.8691 30.0895L29.9591 32.5595Z" fill="#E9832F"/>
<path d="M33.389 34.9397L30.039 35.1097L29.959 32.5597L33.299 32.4697L33.389 34.9397Z" fill="#E9832F"/>
<path d="M33.389 34.9397L30.039 35.1097L29.959 32.5597L33.299 32.4697L33.389 34.9397Z" fill="#E9832F"/>
<path d="M8.44859 32.4697L5.30859 33.6297L6.17859 35.9297L7.07859 38.3297L10.1986 37.0897L9.32859 34.7797L8.44859 32.4697Z" fill="#E9832F"/>
<path d="M6.17859 35.9297L9.32859 34.7797L8.44859 32.4697L5.30859 33.6197L6.17859 35.9297Z" fill="#E9832F"/>
<path d="M6.17859 35.9297L9.32859 34.7797L8.44859 32.4697L5.30859 33.6197L6.17859 35.9297Z" fill="#E9832F"/>
<path d="M10.1997 37.0898L7.07969 38.3298L6.17969 35.9298L9.31969 34.7798L10.1997 37.0898Z" fill="#E9832F"/>
<path d="M10.1997 37.0898L7.07969 38.3298L6.17969 35.9298L9.31969 34.7798L10.1997 37.0898Z" fill="#E9832F"/>
<path d="M12.0683 45.3298L14.6283 43.2198L13.0383 41.2798L10.4883 43.4798L12.0683 45.3298Z" fill="#E9832F"/>
<path d="M12.0683 45.3298L14.6283 43.2198L13.0383 41.2798L10.4883 43.4798L12.0683 45.3298Z" fill="#E9832F"/>
<path d="M13.0384 41.2797L10.4884 43.4797L8.89844 41.5397L11.4584 39.4297L13.0384 41.2797Z" fill="#E9832F"/>
<path d="M13.0384 41.2797L10.4884 43.4797L8.89844 41.5397L11.4584 39.4297L13.0384 41.2797Z" fill="#E9832F"/>
<path d="M29.7791 43.7496L26.8691 41.9796L28.1891 39.8696L31.0091 41.6296L29.7791 43.7496Z" fill="#E9832F"/>
<path d="M29.7791 43.7496L26.8691 41.9796L28.1891 39.8696L31.0091 41.6296L29.7791 43.7496Z" fill="#E9832F"/>
<path d="M28.1895 39.8695L31.0095 41.6295L32.3395 39.4295L29.5195 37.7495L28.1895 39.8695Z" fill="#E9832F"/>
<path d="M28.1895 39.8695L31.0095 41.6295L32.3395 39.4295L29.5195 37.7495L28.1895 39.8695Z" fill="#E9832F"/>
<path d="M19.8281 46.1194L20.3481 49.3794L25.2881 48.6794L24.7581 45.4194L19.8281 46.1194Z" fill="#E9832F"/>
<path d="M19.8281 46.1194L20.3481 49.3794L25.2881 48.6794L24.7581 45.4194L19.8281 46.1194Z" fill="#E9832F"/>
<path d="M3.32812 6.82973L5.58812 7.68973L6.53813 5.42973L4.18813 4.46973L3.32812 6.82973Z" fill="#E9832F"/>
<path d="M11.0497 2.86961L13.4497 2.53961L13.1997 0.0996094L10.6797 0.389609L11.0497 2.86961Z" fill="#E9832F"/>
<path d="M11.0497 2.86961L13.4497 2.53961L13.1997 0.0996094L10.6797 0.389609L11.0497 2.86961Z" fill="#E9832F"/>
<path d="M1.50898 15.1296L3.93898 15.1096L3.99898 12.6496L1.45898 12.6196L1.50898 15.1296Z" fill="#E9832F"/>
<path d="M1.50898 15.1296L3.93898 15.1096L3.99898 12.6496L1.45898 12.6196L1.50898 15.1296Z" fill="#E9832F"/>
<path d="M3.50875 25.7494L5.81875 25.0094L5.14875 22.6494L2.71875 23.3694L3.50875 25.7494Z" fill="#E9832F"/>
<path d="M3.50875 25.7494L5.81875 25.0094L5.14875 22.6494L2.71875 23.3694L3.50875 25.7494Z" fill="#E9832F"/>
<path d="M3.69941 12.1496C3.59941 12.1496 3.49941 12.0896 3.46941 11.9896C2.79941 10.1896 0.919414 8.67957 0.899414 8.65957C0.789414 8.56957 0.769414 8.41957 0.859414 8.30957C0.949414 8.19957 1.09941 8.17957 1.20941 8.26957C1.28941 8.32957 3.21941 9.87957 3.92941 11.8096C3.97941 11.9396 3.90941 12.0796 3.77941 12.1296C3.74941 12.1396 3.71941 12.1496 3.68941 12.1496H3.69941Z" fill="#E9832F"/>
<path d="M5.32879 10.0494C2.97879 10.0494 1.53879 8.06944 1.47879 7.98944C1.39879 7.87944 1.42879 7.71944 1.53879 7.63944C1.64879 7.55944 1.80879 7.58944 1.88879 7.69944C1.89879 7.71944 3.37879 9.73944 5.66879 9.53944C5.79879 9.52944 5.92879 9.62944 5.93879 9.76944C5.94879 9.90944 5.84879 10.0294 5.70879 10.0394C5.57879 10.0494 5.44879 10.0594 5.32879 10.0594V10.0494Z" fill="#E9832F"/>
<path d="M1.36988 19.6495C1.28988 19.6495 1.20988 19.6095 1.15988 19.5395C1.07988 19.4295 1.10988 19.2695 1.22988 19.1895C1.24988 19.1795 3.26988 17.7895 3.45988 15.7395C3.46988 15.5995 3.59988 15.4995 3.72988 15.5095C3.86988 15.5195 3.96988 15.6395 3.95988 15.7795C3.75988 18.0595 1.60988 19.5395 1.51988 19.5995C1.47988 19.6295 1.42988 19.6395 1.37988 19.6395L1.36988 19.6495Z" fill="#E9832F"/>
<path d="M6.1701 21.8996C6.0801 21.8996 6.0001 21.8596 5.9501 21.7696C4.6401 19.4896 1.7601 20.1096 1.7301 20.1196C1.5901 20.1496 1.4601 20.0696 1.4301 19.9296C1.4001 19.7996 1.4801 19.6596 1.6201 19.6296C1.6501 19.6296 4.8901 18.9196 6.3801 21.5196C6.4501 21.6396 6.4101 21.7896 6.2901 21.8596C6.2501 21.8796 6.2101 21.8896 6.1701 21.8896V21.8996Z" fill="#E9832F"/>
<path d="M4.09996 29.7693C3.98996 29.7693 3.88996 29.6993 3.85996 29.5893C3.81996 29.4593 3.89996 29.3193 4.02996 29.2793C4.13996 29.2493 6.67996 28.5093 7.32996 25.5693C7.35996 25.4393 7.48996 25.3493 7.62996 25.3793C7.75996 25.4093 7.84996 25.5393 7.81996 25.6793C7.10996 28.9193 4.28996 29.7393 4.16996 29.7693C4.14996 29.7693 4.12996 29.7693 4.09996 29.7693Z" fill="#E9832F"/>
<path d="M4.27984 30.2895C4.18984 30.2895 4.10984 30.2395 4.05984 30.1595C3.98984 30.0395 4.02984 29.8895 4.14984 29.8195C4.26984 29.7495 7.17984 28.1395 9.80984 29.2795C9.93984 29.3395 9.98984 29.4795 9.93984 29.6095C9.87984 29.7395 9.73984 29.7995 9.60984 29.7395C7.20984 28.6995 4.41984 30.2395 4.39984 30.2595C4.35984 30.2795 4.31984 30.2895 4.27984 30.2895Z" fill="#E9832F"/>
<path d="M13.8685 32.9394C13.7585 32.9394 13.6585 32.8694 13.6285 32.7594C13.2485 31.4594 10.8885 30.5094 10.8685 30.4994C10.7385 30.4494 10.6785 30.2994 10.7285 30.1794C10.7785 30.0594 10.9285 29.9894 11.0485 30.0394C11.1385 30.0794 12.9985 30.8294 13.8085 32.0094C14.1285 31.0294 14.8985 29.1994 16.2985 28.5894C16.4285 28.5394 16.5685 28.5894 16.6285 28.7194C16.6885 28.8494 16.6285 28.9894 16.4985 29.0494C14.8285 29.7794 14.1185 32.7194 14.1185 32.7494C14.0885 32.8594 13.9985 32.9394 13.8785 32.9394H13.8685Z" fill="#E9832F"/>
<path d="M17.139 28.4397C17.029 28.4397 16.929 28.3697 16.899 28.2597C16.859 28.1297 16.939 27.9897 17.079 27.9497C17.119 27.9397 18.139 27.6597 18.979 27.7697C19.119 27.7897 19.209 27.9097 19.199 28.0497C19.179 28.1897 19.059 28.2897 18.919 28.2697C18.179 28.1797 17.219 28.4397 17.209 28.4397C17.189 28.4397 17.169 28.4397 17.139 28.4397Z" fill="#E9832F"/>
<path d="M23.2103 30.6493C23.1203 30.6493 23.0403 30.6093 22.9903 30.5293C22.1103 29.0193 20.0403 28.4493 20.0203 28.4393C19.8903 28.3993 19.8103 28.2693 19.8403 28.1293C19.8803 27.9993 20.0103 27.9193 20.1503 27.9493C20.2203 27.9693 21.6303 28.3593 22.7003 29.3693C22.6503 28.8693 22.6803 28.2593 22.9303 27.6393C23.3303 26.6393 24.2003 25.8693 25.5003 25.3393C25.6303 25.2893 25.7703 25.3493 25.8303 25.4793C25.8803 25.6093 25.8203 25.7493 25.6903 25.8093C24.5203 26.2793 23.7503 26.9593 23.4003 27.8293C22.9003 29.0693 23.4303 30.2893 23.4403 30.2993C23.4903 30.4193 23.4403 30.5593 23.3303 30.6193C23.2903 30.6393 23.2503 30.6493 23.2203 30.6493H23.2103Z" fill="#E9832F"/>
<path d="M15.0288 25.3994C14.9288 25.3994 14.8388 25.3394 14.7988 25.2394C14.6388 24.8394 14.5488 24.4194 14.5488 23.9794C14.5488 22.3994 15.6688 21.0294 17.2088 20.7094C17.3488 20.6794 17.4788 20.7694 17.5088 20.8994C17.5388 21.0394 17.4488 21.1694 17.3188 21.1994C16.0088 21.4694 15.0588 22.6394 15.0588 23.9794C15.0588 24.3494 15.1288 24.7094 15.2688 25.0494C15.3188 25.1794 15.2688 25.3194 15.1288 25.3794C15.0988 25.3894 15.0688 25.3994 15.0388 25.3994H15.0288Z" fill="#E9832F"/>
<path d="M16.4397 26.9696C16.4397 26.9696 16.3597 26.9696 16.3197 26.9396C15.9997 26.7696 15.7097 26.5496 15.4697 26.2896C15.3697 26.1896 15.3797 26.0296 15.4697 25.9396C15.5697 25.8496 15.7297 25.8496 15.8197 25.9396C16.0297 26.1596 16.2797 26.3496 16.5497 26.4896C16.6697 26.5496 16.7197 26.7096 16.6497 26.8296C16.6097 26.9096 16.5197 26.9596 16.4297 26.9596L16.4397 26.9696Z" fill="#E9832F"/>
<path d="M17.8887 27.3293C17.7487 27.3293 17.6387 27.2193 17.6387 27.0793C17.6387 26.9393 17.7487 26.8293 17.8887 26.8293C19.4487 26.8293 20.7287 25.5593 20.7287 23.9893C20.7287 23.8493 20.8387 23.7393 20.9787 23.7393C21.1187 23.7393 21.2287 23.8493 21.2287 23.9893C21.2287 25.8293 19.7287 27.3293 17.8887 27.3293Z" fill="#E9832F"/>
<path d="M20.1582 22.1495C20.0882 22.1495 20.0282 22.1195 19.9782 22.0695C19.6082 21.6695 19.1282 21.3795 18.6082 21.2495C18.4782 21.2195 18.3982 21.0795 18.4282 20.9495C18.4582 20.8195 18.5982 20.7395 18.7282 20.7695C19.3482 20.9295 19.9082 21.2695 20.3382 21.7395C20.4282 21.8395 20.4282 21.9995 20.3282 22.0895C20.2782 22.1295 20.2182 22.1595 20.1582 22.1595V22.1495Z" fill="#E9832F"/>
<path d="M8.62992 27.3797C8.52992 27.3797 8.43992 27.3197 8.39992 27.2197C8.24992 26.8397 8.16992 26.4497 8.16992 26.0397C8.16992 24.5597 9.21992 23.2697 10.6699 22.9697C10.8099 22.9397 10.9399 23.0297 10.9699 23.1597C10.9999 23.2997 10.9099 23.4297 10.7799 23.4597C9.55992 23.7097 8.67992 24.7897 8.67992 26.0397C8.67992 26.3797 8.74992 26.7197 8.86992 27.0297C8.91992 27.1597 8.86992 27.2997 8.72992 27.3597C8.69992 27.3697 8.66992 27.3797 8.63992 27.3797H8.62992Z" fill="#E9832F"/>
<path d="M9.95028 28.8397C9.95028 28.8397 9.87028 28.8397 9.83028 28.8097C9.53028 28.6497 9.26028 28.4497 9.03028 28.1997C8.93028 28.0997 8.94028 27.9397 9.03028 27.8497C9.13028 27.7597 9.29028 27.7597 9.38028 27.8497C9.58028 28.0597 9.80028 28.2297 10.0503 28.3597C10.1703 28.4197 10.2203 28.5797 10.1503 28.6997C10.1103 28.7797 10.0203 28.8297 9.93028 28.8297L9.95028 28.8397Z" fill="#E9832F"/>
<path d="M11.3008 29.1798C11.1608 29.1798 11.0508 29.0698 11.0508 28.9298C11.0508 28.7898 11.1608 28.6798 11.3008 28.6798C12.7508 28.6798 13.9308 27.4998 13.9308 26.0498C13.9308 25.9098 14.0408 25.7998 14.1808 25.7998C14.3208 25.7998 14.4308 25.9098 14.4308 26.0498C14.4308 27.7798 13.0208 29.1798 11.3008 29.1798Z" fill="#E9832F"/>
<path d="M13.4293 24.3395C13.3593 24.3395 13.2993 24.3095 13.2493 24.2595C12.8993 23.8895 12.4593 23.6195 11.9793 23.4895C11.8493 23.4595 11.7693 23.3195 11.7993 23.1795C11.8293 23.0495 11.9693 22.9695 12.1093 22.9995C12.6893 23.1495 13.2193 23.4695 13.6293 23.9095C13.7193 24.0095 13.7193 24.1695 13.6193 24.2595C13.5693 24.2995 13.5093 24.3295 13.4493 24.3295L13.4293 24.3395Z" fill="#E9832F"/>
<path d="M24.2787 25.2993C23.8987 25.2993 23.5287 25.2293 23.1687 25.0993C21.7787 24.5793 20.9487 23.1393 21.1787 21.6693C21.1987 21.5293 21.3287 21.4393 21.4687 21.4593C21.6087 21.4793 21.6987 21.6093 21.6787 21.7493C21.4787 22.9793 22.1787 24.1893 23.3487 24.6293C23.6687 24.7493 24.0087 24.8093 24.3487 24.7993C24.4887 24.7993 24.5987 24.9093 24.5987 25.0393C24.5987 25.1793 24.4887 25.2893 24.3587 25.2993C24.3287 25.2993 24.3087 25.2993 24.2787 25.2993Z" fill="#E9832F"/>
<path d="M25.3995 25.0693C25.2995 25.0693 25.2095 25.0093 25.1695 24.9193C25.1195 24.7893 25.1695 24.6493 25.2995 24.5893C25.5595 24.4793 25.7995 24.3293 26.0195 24.1393C26.1195 24.0493 26.2795 24.0593 26.3695 24.1593C26.4595 24.2593 26.4495 24.4193 26.3495 24.5093C26.0895 24.7293 25.8095 24.9093 25.4995 25.0393C25.4695 25.0493 25.4395 25.0593 25.3995 25.0593V25.0693Z" fill="#E9832F"/>
<path d="M26.9791 23.4393C26.9791 23.4393 26.9191 23.4393 26.8891 23.4193C26.7591 23.3693 26.6991 23.2293 26.7391 23.0993C27.2491 21.7393 26.5691 20.2193 25.2091 19.7093C25.0791 19.6593 25.0191 19.5193 25.0591 19.3893C25.1091 19.2593 25.2491 19.1993 25.3791 19.2393C26.9991 19.8493 27.8091 21.6593 27.1991 23.2793C27.1591 23.3793 27.0691 23.4393 26.9691 23.4393H26.9791Z" fill="#E9832F"/>
<path d="M21.9288 20.7495C21.8788 20.7495 21.8288 20.7395 21.7888 20.6995C21.6788 20.6195 21.6488 20.4595 21.7288 20.3495C22.0788 19.8595 22.5588 19.4795 23.1188 19.2495C23.2488 19.1995 23.3888 19.2595 23.4488 19.3895C23.5088 19.5195 23.4388 19.6595 23.3088 19.7195C22.8388 19.9095 22.4288 20.2295 22.1388 20.6395C22.0888 20.7095 22.0088 20.7495 21.9388 20.7495H21.9288Z" fill="#E9832F"/>
<path d="M22.349 18.9893C21.969 18.9893 21.599 18.9193 21.239 18.7893C19.849 18.2693 19.019 16.8293 19.249 15.3593C19.269 15.2193 19.399 15.1293 19.539 15.1493C19.679 15.1693 19.769 15.2993 19.749 15.4393C19.549 16.6693 20.249 17.8793 21.419 18.3193C21.739 18.4393 22.069 18.4893 22.419 18.4893C22.569 18.5093 22.669 18.5993 22.679 18.7293C22.679 18.8693 22.569 18.9793 22.439 18.9893C22.409 18.9893 22.389 18.9893 22.359 18.9893H22.349Z" fill="#E9832F"/>
<path d="M23.4698 18.7593C23.3698 18.7593 23.2798 18.6993 23.2398 18.6093C23.1898 18.4793 23.2398 18.3393 23.3698 18.2793C23.6298 18.1693 23.8798 18.0193 24.0898 17.8293C24.1898 17.7393 24.3498 17.7493 24.4398 17.8493C24.5298 17.9493 24.5198 18.1093 24.4198 18.1993C24.1698 18.4193 23.8798 18.5993 23.5698 18.7393C23.5398 18.7493 23.5098 18.7593 23.4698 18.7593Z" fill="#E9832F"/>
<path d="M25.0397 17.1195C25.0397 17.1195 24.9797 17.1195 24.9497 17.0995C24.8197 17.0495 24.7597 16.9095 24.7997 16.7795C25.0497 16.1195 25.0297 15.4095 24.7397 14.7695C24.4497 14.1295 23.9297 13.6395 23.2697 13.3895C23.1397 13.3395 23.0797 13.1995 23.1197 13.0695C23.1697 12.9395 23.3097 12.8795 23.4397 12.9195C24.2197 13.2195 24.8397 13.7995 25.1897 14.5595C25.5297 15.3195 25.5597 16.1695 25.2697 16.9595C25.2297 17.0595 25.1397 17.1195 25.0397 17.1195Z" fill="#E9832F"/>
<path d="M19.9893 14.4394C19.9393 14.4394 19.8893 14.4294 19.8493 14.3894C19.7393 14.3094 19.7093 14.1494 19.7893 14.0394C20.1393 13.5494 20.6193 13.1694 21.1793 12.9394C21.3093 12.8894 21.4493 12.9494 21.5093 13.0794C21.5593 13.2094 21.4993 13.3494 21.3693 13.4094C20.8993 13.5994 20.4893 13.9194 20.1993 14.3294C20.1493 14.3994 20.0693 14.4394 19.9993 14.4394H19.9893Z" fill="#E9832F"/>
<path d="M15.3285 20.7296C15.3285 20.7296 15.2985 20.7296 15.2785 20.7296C14.8785 20.6596 14.4985 20.4996 14.1585 20.2796C12.9085 19.4796 12.3985 17.8896 12.9385 16.5096C12.9885 16.3796 13.1385 16.3196 13.2585 16.3696C13.3885 16.4196 13.4485 16.5596 13.3985 16.6896C12.9485 17.8496 13.3785 19.1796 14.4285 19.8496C14.7185 20.0396 15.0385 20.1596 15.3685 20.2296C15.5085 20.2596 15.5985 20.3896 15.5685 20.5196C15.5485 20.6396 15.4385 20.7196 15.3185 20.7196L15.3285 20.7296Z" fill="#E9832F"/>
<path d="M16.3983 20.7192C16.2783 20.7192 16.1783 20.6392 16.1483 20.5192C16.1183 20.3792 16.2083 20.2492 16.3483 20.2292C16.6283 20.1792 16.8983 20.0792 17.1483 19.9392C17.2683 19.8692 17.4183 19.9192 17.4883 20.0392C17.5583 20.1592 17.5083 20.3092 17.3883 20.3792C17.0883 20.5492 16.7783 20.6592 16.4383 20.7192C16.4183 20.7192 16.4083 20.7192 16.3883 20.7192H16.3983Z" fill="#E9832F"/>
<path d="M18.2885 19.4492C18.2885 19.4492 18.1985 19.4392 18.1485 19.4092C18.0285 19.3392 17.9985 19.1792 18.0785 19.0592C18.4585 18.4692 18.5885 17.7692 18.4385 17.0792C18.2885 16.3892 17.8785 15.7992 17.2885 15.4192C17.1685 15.3492 17.1385 15.1892 17.2185 15.0692C17.2885 14.9492 17.4485 14.9192 17.5685 14.9992C18.2685 15.4492 18.7585 16.1492 18.9285 16.9692C19.1085 17.7892 18.9485 18.6292 18.4985 19.3292C18.4485 19.3992 18.3685 19.4392 18.2885 19.4392V19.4492Z" fill="#E9832F"/>
<path d="M13.9084 15.7694C13.8384 15.7694 13.7784 15.7394 13.7284 15.6894C13.6384 15.5894 13.6384 15.4294 13.7384 15.3394C14.1784 14.9294 14.7284 14.6594 15.3284 14.5594C15.4584 14.5394 15.5984 14.6294 15.6184 14.7594C15.6384 14.8894 15.5484 15.0294 15.4184 15.0494C14.9184 15.1394 14.4584 15.3594 14.0884 15.7094C14.0384 15.7494 13.9784 15.7794 13.9184 15.7794L13.9084 15.7694Z" fill="#E9832F"/>
<path d="M7.07896 21.6695C6.99896 21.6695 6.92896 21.6295 6.87896 21.5695C6.63896 21.2395 6.46896 20.8695 6.37896 20.4695C6.02896 19.0295 6.74896 17.5295 8.08896 16.8995C8.20896 16.8395 8.35896 16.8995 8.41896 17.0195C8.47896 17.1395 8.41896 17.2895 8.29896 17.3495C7.16896 17.8795 6.56896 19.1395 6.85896 20.3495C6.93896 20.6795 7.07896 20.9895 7.27896 21.2695C7.35896 21.3795 7.33896 21.5395 7.21896 21.6195C7.17896 21.6495 7.11896 21.6695 7.06896 21.6695H7.07896Z" fill="#E9832F"/>
<path d="M8.69816 22.7797C8.69816 22.7797 8.65816 22.7797 8.63816 22.7797C8.30816 22.6997 7.99816 22.5597 7.71816 22.3797C7.59816 22.3097 7.56816 22.1497 7.64816 22.0297C7.72816 21.9097 7.87816 21.8797 7.99816 21.9597C8.23816 22.1197 8.49817 22.2297 8.77817 22.2997C8.90817 22.3297 8.98816 22.4697 8.95816 22.5997C8.92816 22.7097 8.82816 22.7897 8.71816 22.7897L8.69816 22.7797Z" fill="#E9832F"/>
<path d="M10.0998 22.7898C9.98981 22.7898 9.87981 22.7098 9.85981 22.5998C9.82981 22.4698 9.90981 22.3298 10.0398 22.2998C10.7198 22.1298 11.2998 21.7098 11.6698 21.1098C12.0398 20.5098 12.1498 19.7998 11.9798 19.1198C11.9498 18.9898 12.0298 18.8498 12.1598 18.8198C12.2998 18.7898 12.4298 18.8698 12.4598 18.9998C12.6598 19.8098 12.5198 20.6498 12.0898 21.3698C11.6498 22.0798 10.9698 22.5898 10.1498 22.7798C10.1298 22.7798 10.1098 22.7798 10.0898 22.7798L10.0998 22.7898Z" fill="#E9832F"/>
<path d="M11.0288 17.5896C11.0288 17.5896 10.9288 17.5796 10.8888 17.5496C10.4688 17.2696 9.97875 17.1096 9.46875 17.0996C9.32875 17.0996 9.21875 16.9796 9.21875 16.8496C9.21875 16.7096 9.33875 16.6096 9.46875 16.5996C10.0688 16.6096 10.6487 16.7896 11.1587 17.1296C11.2687 17.2096 11.3088 17.3596 11.2288 17.4796C11.1788 17.5496 11.0988 17.5896 11.0188 17.5896H11.0288Z" fill="#E9832F"/>
<path d="M4.79973 14.6196C4.69973 14.6196 4.60973 14.5596 4.56973 14.4696C4.40973 14.0996 4.31973 13.6996 4.30973 13.2896C4.26973 11.8096 5.28973 10.4896 6.72973 10.1596C6.86973 10.1296 6.99973 10.2096 7.02973 10.3496C7.05973 10.4796 6.97973 10.6196 6.83973 10.6496C5.62973 10.9296 4.76973 12.0396 4.79973 13.2796C4.79973 13.6196 4.87973 13.9596 5.01973 14.2696C5.07973 14.3996 5.01973 14.5396 4.88973 14.5996C4.85973 14.6096 4.81973 14.6196 4.78973 14.6196H4.79973Z" fill="#E9832F"/>
<path d="M6.1593 16.0494C6.1593 16.0494 6.0793 16.0494 6.0493 16.0194C5.7493 15.8694 5.4693 15.6694 5.2293 15.4294C5.1293 15.3294 5.1293 15.1694 5.2293 15.0794C5.3293 14.9794 5.4893 14.9794 5.5793 15.0794C5.7793 15.2794 6.0093 15.4494 6.2693 15.5794C6.3893 15.6394 6.4393 15.7894 6.3793 15.9094C6.3393 15.9994 6.2493 16.0494 6.1593 16.0494Z" fill="#E9832F"/>
<path d="M7.51953 16.3496C7.37953 16.3496 7.26953 16.2396 7.26953 16.1096C7.26953 15.9696 7.37953 15.8596 7.50953 15.8496C8.95953 15.8096 10.1095 14.5996 10.0795 13.1496C10.0795 13.0096 10.1895 12.8996 10.3195 12.8896C10.4595 12.8896 10.5695 12.9996 10.5695 13.1296C10.6095 14.8596 9.23953 16.2996 7.51953 16.3396V16.3496Z" fill="#E9832F"/>
<path d="M9.50954 11.4596C9.43954 11.4596 9.37954 11.4296 9.32954 11.3796C8.97954 11.0096 8.52954 10.7596 8.03954 10.6496C7.90954 10.6196 7.81954 10.4796 7.84954 10.3496C7.87954 10.2196 8.01954 10.1296 8.14954 10.1596C8.73954 10.2996 9.26954 10.5996 9.68954 11.0296C9.78954 11.1296 9.77954 11.2896 9.68954 11.3796C9.63954 11.4296 9.57954 11.4496 9.51954 11.4496L9.50954 11.4596Z" fill="#E9832F"/>
<path d="M11.3887 12.0097C11.2787 12.0097 11.1688 11.9297 11.1488 11.8197C11.0588 11.4197 11.0387 11.0197 11.0987 10.6197C11.3287 9.15968 12.5687 8.03968 14.0387 7.96968C14.1987 7.93968 14.2987 8.06968 14.2987 8.20968C14.2987 8.34968 14.1987 8.46968 14.0587 8.46968C12.8187 8.52968 11.7787 9.46968 11.5887 10.6997C11.5387 11.0397 11.5487 11.3797 11.6287 11.7097C11.6587 11.8397 11.5788 11.9797 11.4388 12.0097C11.4188 12.0097 11.3987 12.0097 11.3787 12.0097H11.3887Z" fill="#E9832F"/>
<path d="M12.4694 13.6596C12.4194 13.6596 12.3694 13.6396 12.3194 13.6096C12.0494 13.4096 11.8094 13.1596 11.6194 12.8796C11.5394 12.7696 11.5694 12.6096 11.6794 12.5296C11.7894 12.4496 11.9494 12.4796 12.0294 12.5896C12.1894 12.8296 12.3894 13.0296 12.6194 13.1996C12.7294 13.2796 12.7494 13.4396 12.6694 13.5496C12.6194 13.6196 12.5494 13.6496 12.4694 13.6496V13.6596Z" fill="#E9832F"/>
<path d="M14.2086 14.2296C14.0486 14.2296 13.8886 14.2196 13.7186 14.1896C13.5786 14.1696 13.4886 14.0396 13.5086 13.8996C13.5286 13.7596 13.6586 13.6696 13.7986 13.6896C14.4886 13.7996 15.1886 13.6296 15.7586 13.2096C16.3286 12.7896 16.6986 12.1796 16.8086 11.4896C16.8286 11.3496 16.9586 11.2596 17.0986 11.2796C17.2386 11.2996 17.3286 11.4296 17.3086 11.5696C17.1786 12.3996 16.7386 13.1196 16.0586 13.6196C15.5186 14.0196 14.8786 14.2196 14.2186 14.2196L14.2086 14.2296Z" fill="#E9832F"/>
<path d="M16.5893 9.73964C16.5093 9.73964 16.4293 9.69964 16.3793 9.62964C16.0993 9.20964 15.6993 8.87964 15.2393 8.67964C15.1093 8.62964 15.0493 8.47964 15.1093 8.34964C15.1593 8.21964 15.3093 8.15964 15.4393 8.21964C15.9893 8.45964 16.4593 8.84964 16.7993 9.34964C16.8793 9.45964 16.8493 9.61964 16.7293 9.69964C16.6893 9.72964 16.6393 9.73964 16.5893 9.73964Z" fill="#E9832F"/>
<path d="M7.14007 9.58956C7.04007 9.58956 6.95007 9.52956 6.91007 9.43956C6.85007 9.30956 6.91007 9.16956 7.04007 9.10956C9.58007 7.97956 8.69007 3.70956 8.68007 3.66956C8.65007 3.53956 8.74007 3.39956 8.87007 3.36956C9.01007 3.33956 9.14007 3.42956 9.17007 3.55956C9.21007 3.74956 10.1501 8.27956 7.25007 9.55956C7.22007 9.56956 7.18007 9.57956 7.15007 9.57956L7.14007 9.58956Z" fill="#E9832F"/>
<path d="M12.8203 7.95953C12.0103 7.95953 11.3103 7.69953 10.7503 7.17953C9.40031 5.92953 9.32031 3.62953 9.32031 3.52953C9.32031 3.38953 9.42031 3.27953 9.56031 3.26953C9.69031 3.26953 9.81031 3.36953 9.82031 3.50953C9.82031 3.52953 9.90031 5.69953 11.0903 6.80953C11.5903 7.26953 12.2203 7.48953 12.9603 7.45953C13.1103 7.45953 13.2103 7.55953 13.2203 7.69953C13.2203 7.83953 13.1203 7.94953 12.9803 7.95953C12.9203 7.95953 12.8703 7.95953 12.8103 7.95953H12.8203Z" fill="#E9832F"/>
<path d="M13.9092 7.61953C13.8092 7.61953 13.7192 7.55953 13.6792 7.46953C13.6292 7.33953 13.6792 7.19953 13.8092 7.13953C15.8192 6.29953 15.3492 2.71953 15.3392 2.67953C15.3192 2.53953 15.4192 2.41953 15.5492 2.39953C15.6792 2.37953 15.8092 2.47953 15.8292 2.60953C15.8492 2.76953 16.3592 6.60953 13.9992 7.59953C13.9692 7.60953 13.9392 7.61953 13.8992 7.61953H13.9092Z" fill="#E9832F"/>
<path d="M18.7686 10.6597C18.7686 10.6597 18.6786 10.6497 18.6386 10.6197C14.3886 8.08973 16.3086 2.94973 16.3286 2.89973C16.3786 2.76973 16.5186 2.70973 16.6486 2.75973C16.7786 2.80973 16.8386 2.94973 16.7886 3.07973C16.7086 3.26973 14.9986 7.86973 18.8886 10.1897C19.0086 10.2597 19.0486 10.4097 18.9786 10.5297C18.9286 10.6097 18.8486 10.6497 18.7686 10.6497V10.6597Z" fill="#E9832F"/>
<path d="M20.9398 11.3296C20.1598 11.3296 19.6298 11.1696 19.6198 11.1696C19.4898 11.1296 19.4098 10.9896 19.4498 10.8596C19.4898 10.7296 19.6298 10.6496 19.7598 10.6896C19.8998 10.7296 23.2498 11.7096 25.3798 8.1596C25.4498 8.0396 25.5998 7.9996 25.7198 8.0696C25.8398 8.1396 25.8798 8.2896 25.8098 8.4096C24.3398 10.8696 22.2698 11.3196 20.9398 11.3196V11.3296Z" fill="#E9832F"/>
<path d="M25.5998 14.5194C25.4998 14.5194 25.4098 14.4594 25.3698 14.3594C23.8798 10.6494 25.8298 8.7094 25.9098 8.6294C26.0098 8.5294 26.1698 8.5394 26.2598 8.6294C26.3598 8.7294 26.3498 8.88941 26.2598 8.97941C26.1898 9.04941 24.4798 10.7794 25.8398 14.1594C25.8898 14.2894 25.8298 14.4294 25.6998 14.4894C25.6698 14.4994 25.6398 14.5094 25.6098 14.5094L25.5998 14.5194Z" fill="#E9832F"/>
<path d="M30.0989 16.9694C27.3989 16.9694 26.0589 15.3993 25.9989 15.3293C25.9089 15.2193 25.9289 15.0694 26.0289 14.9794C26.1289 14.8894 26.2889 14.9093 26.3789 15.0093C26.4389 15.0793 27.9389 16.8194 31.0189 16.4094C31.1489 16.3794 31.2789 16.4893 31.2989 16.6193C31.3189 16.7493 31.2189 16.8794 31.0889 16.8994C30.7389 16.9494 30.4089 16.9694 30.0889 16.9694H30.0989Z" fill="#E9832F"/>
<path d="M28.2786 22.1896C28.1486 22.1896 28.0286 22.0796 28.0286 21.9496C27.8686 17.6896 31.4586 16.9696 31.4886 16.9696C31.6186 16.9396 31.7586 17.0296 31.7786 17.1696C31.8086 17.3096 31.7186 17.4396 31.5786 17.4596C31.4486 17.4796 28.3786 18.1096 28.5186 21.9296C28.5186 22.0696 28.4186 22.1796 28.2786 22.1896Z" fill="#E9832F"/>
<path d="M30.8387 27.6093C30.8387 27.6093 30.7687 27.6093 30.7287 27.5893C27.9787 26.2893 28.1587 23.0793 28.1587 23.0493C28.1587 22.9093 28.2887 22.8193 28.4287 22.8193C28.5687 22.8193 28.6687 22.9493 28.6587 23.0893C28.6587 23.2093 28.5087 25.9993 30.9487 27.1393C31.0687 27.1993 31.1287 27.3493 31.0687 27.4693C31.0287 27.5593 30.9387 27.6093 30.8387 27.6093Z" fill="#E9832F"/>
<path d="M30.1287 27.9994C30.0587 27.9994 29.9887 27.9694 29.9387 27.9094C27.8187 25.3594 26.8987 25.6594 26.8887 25.6594C26.7687 25.7194 26.6187 25.6694 26.5587 25.5494C26.4987 25.4294 26.5587 25.2694 26.6787 25.2094C26.7987 25.1494 27.9287 24.6994 30.3287 27.5894C30.4187 27.6994 30.3987 27.8494 30.2987 27.9394C30.2487 27.9794 30.1987 27.9994 30.1387 27.9994H30.1287Z" fill="#E9832F"/>
<path d="M35.5996 65.6794L36.4796 70.6194L39.8196 69.9994L38.9396 65.1494L35.5996 65.6794Z" fill="#E9832F"/>
<path d="M40.6194 74.3994L37.3594 75.1094L38.3294 79.9494L41.5894 79.3394L40.6194 74.3994Z" fill="#E9832F"/>
<path d="M17.539 56.1696L10.659 54.5796L9.95898 57.8396L16.829 59.3396L17.539 56.1696Z" fill="#E9832F"/>
<path d="M34.8895 60.8396L38.1495 60.3996L37.4495 55.3696L34.1895 55.8996L34.8895 60.8396Z" fill="#E9832F"/>
<path d="M31.8881 62.6895L28.6381 61.9795L27.5781 66.8295L30.8381 67.6195L31.8881 62.6895Z" fill="#E9832F"/>
<path d="M29.4294 73.6098L26.2594 72.8198L25.1094 77.7498L28.3694 78.4598L29.4294 73.6098Z" fill="#E9832F"/>
<path d="M26.3391 58.1095L21.4991 56.9595L20.7891 60.2195L25.6391 61.3695L26.3391 58.1095Z" fill="#E9832F"/>
<path d="M29.3674 24.0197C29.3674 24.0197 29.3174 23.9997 29.3174 23.9697L29.1074 21.5397C29.1074 21.5397 29.1274 21.4897 29.1474 21.4897L31.6974 21.2197C31.6974 21.2197 31.7274 21.2197 31.7374 21.2297C31.7374 21.2297 31.7574 21.2497 31.7574 21.2597L31.9574 23.7697C31.9574 23.7697 31.9574 23.7997 31.9474 23.8097C31.9474 23.8197 31.9274 23.8297 31.9174 23.8297L29.3774 24.0097L29.3674 24.0197ZM29.2074 21.5897L29.4074 23.9197L31.8474 23.7497L31.6574 21.3397L29.2074 21.5997V21.5897Z" fill="#CBCBCB"/>
<path d="M29.3674 24.0197C29.3674 24.0197 29.3174 23.9997 29.3174 23.9697L29.1074 21.5397C29.1074 21.5397 29.1274 21.4897 29.1474 21.4897L31.6974 21.2197C31.6974 21.2197 31.7274 21.2197 31.7374 21.2297C31.7374 21.2297 31.7574 21.2497 31.7574 21.2597L31.9574 23.7697C31.9574 23.7697 31.9574 23.7997 31.9474 23.8097C31.9474 23.8197 31.9274 23.8297 31.9174 23.8297L29.3774 24.0097L29.3674 24.0197ZM29.2074 21.5897L29.4074 23.9197L31.8474 23.7497L31.6574 21.3397L29.2074 21.5997V21.5897Z" fill="#CBCBCB"/>
<path d="M30.0386 35.1596C30.0386 35.1596 30.0186 35.1596 30.0086 35.1496C30.0086 35.1496 29.9886 35.1296 29.9886 35.1096L29.8986 32.5596L29.8086 30.0996C29.8086 30.0696 29.8286 30.0496 29.8586 30.0496L33.2086 29.8696C33.2086 29.8696 33.2386 29.8696 33.2486 29.8796C33.2486 29.8796 33.2686 29.8996 33.2686 29.9196V30.0096L33.4486 34.9396C33.4486 34.9396 33.4286 34.9896 33.3986 34.9896L30.0486 35.1696L30.0386 35.1596ZM29.9986 32.5596L30.0886 35.0496L33.3386 34.8796L33.1686 29.9996V29.9596L29.9186 30.1296L30.0086 32.5496L29.9986 32.5596Z" fill="#CBCBCB"/>
<path d="M12.068 45.38C12.068 45.38 12.038 45.38 12.028 45.36L10.448 43.52L8.85796 41.58C8.85796 41.58 8.84796 41.53 8.85796 41.51L11.408 39.4C11.408 39.4 11.458 39.38 11.478 39.4L13.068 41.25L14.648 43.18C14.648 43.18 14.668 43.2 14.668 43.22C14.668 43.24 14.668 43.26 14.648 43.26L12.098 45.37C12.098 45.37 12.078 45.38 12.068 45.38ZM10.518 43.44L12.068 45.25L14.548 43.2L13.028 41.34L12.068 42.17C12.068 42.17 12.018 42.18 11.998 42.17C11.998 42.17 11.988 42.15 11.988 42.14C11.988 42.13 11.988 42.11 12.008 42.1L12.968 41.27L11.448 39.49L8.96796 41.54L10.518 43.43V43.44Z" fill="#CBCBCB"/>
<path d="M29.7784 43.7896C29.7784 43.7896 29.7584 43.7896 29.7484 43.7896L26.8384 42.0296C26.8384 42.0296 26.8184 42.0096 26.8184 41.9996C26.8184 41.9896 26.8184 41.9696 26.8184 41.9596L28.1384 39.8496C28.1384 39.8496 28.1584 39.8296 28.1684 39.8296C28.1784 39.8296 28.1984 39.8296 28.2084 39.8296L31.0284 41.5896C31.0284 41.5896 31.0584 41.6296 31.0484 41.6596L29.8184 43.7696C29.8184 43.7696 29.7984 43.7896 29.7884 43.7896C29.7884 43.7896 29.7884 43.7896 29.7784 43.7896ZM26.9384 41.9596L29.7584 43.6696L30.9384 41.6396L28.1984 39.9296L26.9284 41.9596H26.9384Z" fill="#CBCBCB"/>
<path d="M31.0087 41.6798C31.0087 41.6798 30.9887 41.6798 30.9787 41.6798L28.1587 39.9198C28.1587 39.9198 28.1387 39.8998 28.1387 39.8898C28.1387 39.8798 28.1387 39.8598 28.1387 39.8498L29.4587 37.7398C29.4587 37.7398 29.4987 37.7098 29.5287 37.7198L32.3487 39.3898C32.3487 39.3898 32.3687 39.4098 32.3687 39.4198C32.3687 39.4298 32.3687 39.4498 32.3687 39.4598L31.0487 41.6598C31.0487 41.6598 31.0287 41.6798 31.0187 41.6798C31.0187 41.6798 31.0187 41.6798 31.0087 41.6798ZM28.2587 39.8498L30.9887 41.5598L32.2587 39.4398L29.5287 37.8198L28.2587 39.8498Z" fill="#CBCBCB"/>
<path d="M20.3476 49.4299C20.3476 49.4299 20.3076 49.4099 20.2976 49.3899L19.7676 46.1299C19.7676 46.1299 19.7676 46.0999 19.7676 46.0899C19.7676 46.0799 19.7876 46.0699 19.7976 46.0699L24.7276 45.3599C24.7276 45.3599 24.7776 45.3799 24.7876 45.3999L25.3176 48.6599C25.3176 48.6599 25.3176 48.6899 25.3176 48.6999C25.3176 48.7099 25.2976 48.7199 25.2876 48.7199L20.3576 49.4199L20.3476 49.4299ZM19.8776 46.1599L20.3876 49.3199L25.2176 48.6299L24.7076 45.4699L19.8776 46.1599Z" fill="#CBCBCB"/>
<path d="M5.58723 7.73994C5.58723 7.73994 5.57723 7.73994 5.56723 7.73994L3.29723 6.87994C3.29723 6.87994 3.25723 6.83994 3.26723 6.81994L4.13723 4.46994C4.13723 4.46994 4.14723 4.44994 4.16723 4.43994C4.17723 4.43994 4.19723 4.43994 4.20723 4.43994L6.55723 5.38994C6.55723 5.38994 6.57723 5.39994 6.58723 5.41994C6.58723 5.42994 6.58723 5.44994 6.58723 5.45994L5.63723 7.71994C5.63723 7.71994 5.60723 7.74994 5.58723 7.74994V7.73994ZM3.38723 6.79994L5.55723 7.62994L6.46723 5.45994L4.20723 4.54994L3.37723 6.80994L3.38723 6.79994Z" fill="#CBCBCB"/>
<path d="M27.309 14.72C27.309 14.72 27.269 14.71 27.269 14.69L26.209 12.4C26.209 12.4 26.209 12.37 26.209 12.36C26.209 12.35 26.219 12.34 26.239 12.33L28.519 11.29C28.519 11.29 28.549 11.29 28.559 11.29C28.569 11.29 28.579 11.3 28.589 11.32L29.639 13.77C29.639 13.77 29.639 13.8 29.639 13.81C29.639 13.82 29.619 13.83 29.609 13.84L27.329 14.72C27.329 14.72 27.319 14.72 27.309 14.72ZM26.319 12.4L27.339 14.6L29.529 13.76L28.519 11.41L26.329 12.41L26.319 12.4Z" fill="#CBCBCB"/>
<path d="M27.309 14.72C27.309 14.72 27.269 14.71 27.269 14.69L26.209 12.4C26.209 12.4 26.209 12.37 26.209 12.36C26.209 12.35 26.219 12.34 26.239 12.33L28.519 11.29C28.519 11.29 28.549 11.29 28.559 11.29C28.569 11.29 28.579 11.3 28.589 11.32L29.639 13.77C29.639 13.77 29.639 13.8 29.639 13.81C29.639 13.82 29.619 13.83 29.609 13.84L27.329 14.72C27.329 14.72 27.319 14.72 27.309 14.72ZM26.319 12.4L27.339 14.6L29.529 13.76L28.519 11.41L26.329 12.41L26.319 12.4Z" fill="#CBCBCB"/>
<path d="M29.3674 24.0197C29.3674 24.0197 29.3174 23.9997 29.3174 23.9697L29.1074 21.5397C29.1074 21.5397 29.1274 21.4897 29.1474 21.4897L31.6974 21.2197C31.6974 21.2197 31.7274 21.2197 31.7374 21.2297C31.7374 21.2297 31.7574 21.2497 31.7574 21.2597L31.9574 23.7697C31.9574 23.7697 31.9574 23.7997 31.9474 23.8097C31.9474 23.8197 31.9274 23.8297 31.9174 23.8297L29.3774 24.0097L29.3674 24.0197ZM29.2074 21.5897L29.4074 23.9197L31.8474 23.7497L31.6574 21.3397L29.2074 21.5997V21.5897Z" fill="#CBCBCB"/>
<path d="M29.3674 24.0197C29.3674 24.0197 29.3174 23.9997 29.3174 23.9697L29.1074 21.5397C29.1074 21.5397 29.1274 21.4897 29.1474 21.4897L31.6974 21.2197C31.6974 21.2197 31.7274 21.2197 31.7374 21.2297C31.7374 21.2297 31.7574 21.2497 31.7574 21.2597L31.9574 23.7697C31.9574 23.7697 31.9574 23.7997 31.9474 23.8097C31.9474 23.8197 31.9274 23.8297 31.9174 23.8297L29.3774 24.0097L29.3674 24.0197ZM29.2074 21.5897L29.4074 23.9197L31.8474 23.7497L31.6574 21.3397L29.2074 21.5997V21.5897Z" fill="#CBCBCB"/>
<path d="M29.9584 32.6099C29.9584 32.6099 29.9084 32.5899 29.9084 32.5599L29.8184 30.0899C29.8184 30.0899 29.8184 30.0599 29.8284 30.0499C29.8284 30.0499 29.8484 30.0299 29.8684 30.0299L33.2184 29.9399C33.2184 29.9399 33.2684 29.9599 33.2684 29.9899L33.3584 32.4599C33.3584 32.4599 33.3584 32.4899 33.3484 32.4999C33.3484 32.4999 33.3284 32.5199 33.3084 32.5199L29.9584 32.6099ZM29.9184 30.1399L29.9984 32.5099L33.2484 32.4299L33.1684 30.0599L29.9184 30.1399Z" fill="#CBCBCB"/>
<path d="M29.9584 32.6099C29.9584 32.6099 29.9084 32.5899 29.9084 32.5599L29.8184 30.0899C29.8184 30.0899 29.8184 30.0599 29.8284 30.0499C29.8284 30.0499 29.8484 30.0299 29.8684 30.0299L33.2184 29.9399C33.2184 29.9399 33.2684 29.9599 33.2684 29.9899L33.3584 32.4599C33.3584 32.4599 33.3584 32.4899 33.3484 32.4999C33.3484 32.4999 33.3284 32.5199 33.3084 32.5199L29.9584 32.6099ZM29.9184 30.1399L29.9984 32.5099L33.2484 32.4299L33.1684 30.0599L29.9184 30.1399Z" fill="#CBCBCB"/>
<path d="M30.0384 35.1597C30.0384 35.1597 30.0184 35.1597 30.0084 35.1497C30.0084 35.1497 29.9884 35.1297 29.9884 35.1097L29.8984 32.5597C29.8984 32.5597 29.8984 32.5297 29.9084 32.5197C29.9084 32.5197 29.9284 32.4997 29.9484 32.4997L33.2984 32.4097C33.2984 32.4097 33.3484 32.4297 33.3484 32.4597L33.4384 34.9297C33.4384 34.9297 33.4184 34.9797 33.3884 34.9797L30.0384 35.1597ZM29.9984 32.5997L30.0784 35.0497L33.3284 34.8797L33.2484 32.5097L29.9984 32.5897V32.5997Z" fill="#CBCBCB"/>
<path d="M30.0384 35.1597C30.0384 35.1597 30.0184 35.1597 30.0084 35.1497C30.0084 35.1497 29.9884 35.1297 29.9884 35.1097L29.8984 32.5597C29.8984 32.5597 29.8984 32.5297 29.9084 32.5197C29.9084 32.5197 29.9284 32.4997 29.9484 32.4997L33.2984 32.4097C33.2984 32.4097 33.3484 32.4297 33.3484 32.4597L33.4384 34.9297C33.4384 34.9297 33.4184 34.9797 33.3884 34.9797L30.0384 35.1597ZM29.9984 32.5997L30.0784 35.0497L33.3284 34.8797L33.2484 32.5097L29.9984 32.5897V32.5997Z" fill="#CBCBCB"/>
<path d="M7.07781 38.3797C7.07781 38.3797 7.06781 38.3797 7.05781 38.3797C7.04781 38.3797 7.03781 38.3597 7.02781 38.3497L5.25781 33.6497C5.25781 33.6497 5.25781 33.6497 5.25781 33.6397C5.25781 33.6197 5.25781 33.5897 5.28781 33.5797L8.42781 32.4297C8.42781 32.4297 8.43781 32.4297 8.44781 32.4297C8.44781 32.4297 8.48781 32.4397 8.48781 32.4597L10.2278 37.0797C10.2278 37.0797 10.2278 37.1297 10.1978 37.1397L7.07781 38.3797C7.07781 38.3797 7.06781 38.3797 7.05781 38.3797H7.07781ZM5.36781 33.6597L7.10781 38.2697L10.1278 37.0697L8.41781 32.5397L5.36781 33.6597Z" fill="#CBCBCB"/>
<path d="M6.17781 35.9799C6.17781 35.9799 6.13781 35.9699 6.12781 35.9499L5.25781 33.6399C5.25781 33.6399 5.25781 33.6099 5.25781 33.5999C5.25781 33.5899 5.27781 33.5799 5.28781 33.5699L8.42781 32.4199C8.42781 32.4199 8.47781 32.4199 8.48781 32.4499L9.35781 34.7599C9.35781 34.7599 9.35781 34.7899 9.35781 34.7999C9.35781 34.8099 9.33781 34.8199 9.32781 34.8299L6.18781 35.9799C6.18781 35.9799 6.17781 35.9799 6.16781 35.9799H6.17781ZM5.36781 33.6499L6.20781 35.8699L9.25781 34.7499L8.41781 32.5299L5.36781 33.6499Z" fill="#CBCBCB"/>
<path d="M6.17781 35.9799C6.17781 35.9799 6.13781 35.9699 6.12781 35.9499L5.25781 33.6399C5.25781 33.6399 5.25781 33.6099 5.25781 33.5999C5.25781 33.5899 5.27781 33.5799 5.28781 33.5699L8.42781 32.4199C8.42781 32.4199 8.47781 32.4199 8.48781 32.4499L9.35781 34.7599C9.35781 34.7599 9.35781 34.7899 9.35781 34.7999C9.35781 34.8099 9.33781 34.8199 9.32781 34.8299L6.18781 35.9799C6.18781 35.9799 6.17781 35.9799 6.16781 35.9799H6.17781ZM5.36781 33.6499L6.20781 35.8699L9.25781 34.7499L8.41781 32.5299L5.36781 33.6499Z" fill="#CBCBCB"/>
<path d="M7.07891 38.3797C7.07891 38.3797 7.06891 38.3797 7.05891 38.3797C7.04891 38.3797 7.03891 38.3597 7.02891 38.3497L6.12891 35.9597C6.12891 35.9597 6.12891 35.9297 6.12891 35.9197C6.12891 35.9097 6.14891 35.8997 6.15891 35.8897L9.29891 34.7397C9.29891 34.7397 9.34891 34.7397 9.35891 34.7697L10.2289 37.0797C10.2289 37.0797 10.2289 37.1297 10.1989 37.1397L7.07891 38.3797C7.07891 38.3797 7.06891 38.3797 7.05891 38.3797H7.07891ZM6.24891 35.9697L7.10891 38.2697L10.1289 37.0697L9.28891 34.8497L6.23891 35.9697H6.24891Z" fill="#CBCBCB"/>
<path d="M7.07891 38.3797C7.07891 38.3797 7.06891 38.3797 7.05891 38.3797C7.04891 38.3797 7.03891 38.3597 7.02891 38.3497L6.12891 35.9597C6.12891 35.9597 6.12891 35.9297 6.12891 35.9197C6.12891 35.9097 6.14891 35.8997 6.15891 35.8897L9.29891 34.7397C9.29891 34.7397 9.34891 34.7397 9.35891 34.7697L10.2289 37.0797C10.2289 37.0797 10.2289 37.1297 10.1989 37.1397L7.07891 38.3797C7.07891 38.3797 7.06891 38.3797 7.05891 38.3797H7.07891ZM6.24891 35.9697L7.10891 38.2697L10.1289 37.0697L9.28891 34.8497L6.23891 35.9697H6.24891Z" fill="#CBCBCB"/>
<path d="M12.0686 45.38C12.0686 45.38 12.0386 45.38 12.0286 45.36L10.4386 43.51C10.4386 43.51 10.4186 43.46 10.4386 43.44L12.9986 41.24C12.9986 41.24 13.0186 41.23 13.0386 41.23C13.0486 41.23 13.0686 41.23 13.0786 41.25L14.6686 43.19C14.6686 43.19 14.6786 43.24 14.6686 43.26L12.1086 45.37C12.1086 45.37 12.0886 45.38 12.0786 45.38H12.0686ZM10.5486 43.49L12.0686 45.26L14.5486 43.21L13.0286 41.35L10.5486 43.49Z" fill="#CBCBCB"/>
<path d="M12.0686 45.38C12.0686 45.38 12.0386 45.38 12.0286 45.36L10.4386 43.51C10.4386 43.51 10.4186 43.46 10.4386 43.44L12.9986 41.24C12.9986 41.24 13.0186 41.23 13.0386 41.23C13.0486 41.23 13.0686 41.23 13.0786 41.25L14.6686 43.19C14.6686 43.19 14.6786 43.24 14.6686 43.26L12.1086 45.37C12.1086 45.37 12.0886 45.38 12.0786 45.38H12.0686ZM10.5486 43.49L12.0686 45.26L14.5486 43.21L13.0286 41.35L10.5486 43.49Z" fill="#CBCBCB"/>
<path d="M10.488 43.5297C10.488 43.5297 10.458 43.5297 10.448 43.5097L8.85796 41.5697C8.85796 41.5697 8.84796 41.5197 8.85796 41.4997L11.418 39.3897C11.418 39.3897 11.468 39.3697 11.488 39.3897L13.078 41.2397C13.078 41.2397 13.098 41.2897 13.078 41.3097L10.518 43.5097C10.518 43.5097 10.498 43.5197 10.488 43.5197V43.5297ZM8.96796 41.5497L10.488 43.4097L12.968 41.2697L11.448 39.4997L8.96796 41.5497Z" fill="#CBCBCB"/>
<path d="M10.488 43.5297C10.488 43.5297 10.458 43.5297 10.448 43.5097L8.85796 41.5697C8.85796 41.5697 8.84796 41.5197 8.85796 41.4997L11.418 39.3897C11.418 39.3897 11.468 39.3697 11.488 39.3897L13.078 41.2397C13.078 41.2397 13.098 41.2897 13.078 41.3097L10.518 43.5097C10.518 43.5097 10.498 43.5197 10.488 43.5197V43.5297ZM8.96796 41.5497L10.488 43.4097L12.968 41.2697L11.448 39.4997L8.96796 41.5497Z" fill="#CBCBCB"/>
<path d="M29.7784 43.7897C29.7784 43.7897 29.7584 43.7897 29.7484 43.7897L26.8384 42.0297C26.8384 42.0297 26.8184 42.0097 26.8184 41.9997C26.8184 41.9897 26.8184 41.9697 26.8184 41.9597L28.1384 39.8497C28.1384 39.8497 28.1784 39.8197 28.2084 39.8297L31.0284 41.5897C31.0284 41.5897 31.0584 41.6297 31.0484 41.6597L29.8184 43.7697C29.8184 43.7697 29.7984 43.7897 29.7884 43.7897C29.7884 43.7897 29.7884 43.7897 29.7784 43.7897ZM26.9384 41.9597L29.7584 43.6697L30.9384 41.6397L28.1984 39.9297L26.9284 41.9597H26.9384Z" fill="#CBCBCB"/>
<path d="M29.7784 43.7897C29.7784 43.7897 29.7584 43.7897 29.7484 43.7897L26.8384 42.0297C26.8384 42.0297 26.8184 42.0097 26.8184 41.9997C26.8184 41.9897 26.8184 41.9697 26.8184 41.9597L28.1384 39.8497C28.1384 39.8497 28.1784 39.8197 28.2084 39.8297L31.0284 41.5897C31.0284 41.5897 31.0584 41.6297 31.0484 41.6597L29.8184 43.7697C29.8184 43.7697 29.7984 43.7897 29.7884 43.7897C29.7884 43.7897 29.7884 43.7897 29.7784 43.7897ZM26.9384 41.9597L29.7584 43.6697L30.9384 41.6397L28.1984 39.9297L26.9284 41.9597H26.9384Z" fill="#CBCBCB"/>
<path d="M31.0087 41.6798C31.0087 41.6798 30.9887 41.6798 30.9787 41.6798L28.1587 39.9198C28.1587 39.9198 28.1387 39.8998 28.1387 39.8898C28.1387 39.8798 28.1387 39.8598 28.1387 39.8498L29.4587 37.7398C29.4587 37.7398 29.4987 37.7098 29.5287 37.7198L32.3487 39.3898C32.3487 39.3898 32.3687 39.4098 32.3687 39.4198C32.3687 39.4298 32.3687 39.4498 32.3687 39.4598L31.0487 41.6598C31.0487 41.6598 31.0287 41.6798 31.0187 41.6798C31.0187 41.6798 31.0187 41.6798 31.0087 41.6798ZM28.2587 39.8498L30.9887 41.5598L32.2587 39.4398L29.5187 37.8198L28.2487 39.8498H28.2587Z" fill="#CBCBCB"/>
<path d="M31.0087 41.6798C31.0087 41.6798 30.9887 41.6798 30.9787 41.6798L28.1587 39.9198C28.1587 39.9198 28.1387 39.8998 28.1387 39.8898C28.1387 39.8798 28.1387 39.8598 28.1387 39.8498L29.4587 37.7398C29.4587 37.7398 29.4987 37.7098 29.5287 37.7198L32.3487 39.3898C32.3487 39.3898 32.3687 39.4098 32.3687 39.4198C32.3687 39.4298 32.3687 39.4498 32.3687 39.4598L31.0487 41.6598C31.0487 41.6598 31.0287 41.6798 31.0187 41.6798C31.0187 41.6798 31.0187 41.6798 31.0087 41.6798ZM28.2587 39.8498L30.9887 41.5598L32.2587 39.4398L29.5187 37.8198L28.2487 39.8498H28.2587Z" fill="#CBCBCB"/>
<path d="M20.3476 49.4299C20.3476 49.4299 20.3076 49.4099 20.2976 49.3899L19.7676 46.1299C19.7676 46.1299 19.7676 46.0999 19.7676 46.0899C19.7676 46.0799 19.7876 46.0699 19.7976 46.0699L24.7276 45.3599C24.7276 45.3599 24.7776 45.3799 24.7876 45.3999L25.3176 48.6599C25.3176 48.6599 25.3176 48.6899 25.3176 48.6999C25.3176 48.7099 25.2976 48.7199 25.2876 48.7199L20.3576 49.4299H20.3476ZM19.8776 46.1599L20.3876 49.3199L25.2176 48.6299L24.7076 45.4699L19.8776 46.1599Z" fill="#CBCBCB"/>
<path d="M20.3476 49.4299C20.3476 49.4299 20.3076 49.4099 20.2976 49.3899L19.7676 46.1299C19.7676 46.1299 19.7676 46.0999 19.7676 46.0899C19.7676 46.0799 19.7876 46.0699 19.7976 46.0699L24.7276 45.3599C24.7276 45.3599 24.7776 45.3799 24.7876 45.3999L25.3176 48.6599C25.3176 48.6599 25.3176 48.6899 25.3176 48.6999C25.3176 48.7099 25.2976 48.7199 25.2876 48.7199L20.3576 49.4299H20.3476ZM19.8776 46.1599L20.3876 49.3199L25.2176 48.6299L24.7076 45.4699L19.8776 46.1599Z" fill="#CBCBCB"/>
<path d="M5.58723 7.73994C5.58723 7.73994 5.57723 7.73994 5.56723 7.73994L3.29723 6.87994C3.29723 6.87994 3.25723 6.83994 3.26723 6.81994L4.13723 4.46994C4.13723 4.46994 4.14723 4.44994 4.16723 4.43994C4.17723 4.43994 4.19723 4.43994 4.20723 4.43994L6.55723 5.38994C6.55723 5.38994 6.57723 5.39994 6.58723 5.41994C6.58723 5.42994 6.58723 5.44994 6.58723 5.45994L5.63723 7.71994C5.63723 7.71994 5.60723 7.74994 5.58723 7.74994V7.73994ZM3.38723 6.79994L5.55723 7.62994L6.46723 5.45994L4.20723 4.54994L3.37723 6.80994L3.38723 6.79994Z" fill="#CBCBCB"/>
<path d="M11.0489 2.9198C11.0489 2.9198 10.9989 2.8998 10.9989 2.8798L10.6289 0.399805C10.6289 0.399805 10.6289 0.369805 10.6289 0.359805C10.6289 0.349805 10.6489 0.339805 10.6589 0.339805L13.1789 0.0498047C13.1789 0.0498047 13.2089 0.0498047 13.2189 0.0598047C13.2289 0.0598047 13.2389 0.0798047 13.2389 0.0898047L13.4889 2.5298C13.4889 2.5298 13.4689 2.5798 13.4489 2.5798L11.0489 2.9098V2.9198ZM10.7389 0.429805L11.0889 2.8098L13.3989 2.4998L13.1589 0.159805L10.7389 0.439805V0.429805Z" fill="#CBCBCB"/>
<path d="M11.0489 2.9198C11.0489 2.9198 10.9989 2.8998 10.9989 2.8798L10.6289 0.399805C10.6289 0.399805 10.6289 0.369805 10.6289 0.359805C10.6289 0.349805 10.6489 0.339805 10.6589 0.339805L13.1789 0.0498047C13.1789 0.0498047 13.2089 0.0498047 13.2189 0.0598047C13.2289 0.0598047 13.2389 0.0798047 13.2389 0.0898047L13.4889 2.5298C13.4889 2.5298 13.4689 2.5798 13.4489 2.5798L11.0489 2.9098V2.9198ZM10.7389 0.429805L11.0889 2.8098L13.3989 2.4998L13.1589 0.159805L10.7389 0.439805V0.429805Z" fill="#CBCBCB"/>
<path d="M1.5082 15.1798C1.5082 15.1798 1.4582 15.1598 1.4582 15.1298L1.4082 12.6198C1.4082 12.6198 1.4082 12.5898 1.4182 12.5798C1.4182 12.5798 1.4382 12.5698 1.4582 12.5698L3.9982 12.5998C3.9982 12.5998 4.0282 12.5998 4.0382 12.6198C4.0382 12.6198 4.0482 12.6398 4.0482 12.6598L3.9882 15.1098C3.9882 15.1098 3.9682 15.1598 3.9382 15.1598L1.5182 15.1798H1.5082ZM1.5082 12.6698L1.5582 15.0798L3.8882 15.0598L3.9482 12.7098L1.5182 12.6798L1.5082 12.6698Z" fill="#CBCBCB"/>
<path d="M1.5082 15.1798C1.5082 15.1798 1.4582 15.1598 1.4582 15.1298L1.4082 12.6198C1.4082 12.6198 1.4082 12.5898 1.4182 12.5798C1.4182 12.5798 1.4382 12.5698 1.4582 12.5698L3.9982 12.5998C3.9982 12.5998 4.0282 12.5998 4.0382 12.6198C4.0382 12.6198 4.0482 12.6398 4.0482 12.6598L3.9882 15.1098C3.9882 15.1098 3.9682 15.1598 3.9382 15.1598L1.5182 15.1798H1.5082ZM1.5082 12.6698L1.5582 15.0798L3.8882 15.0598L3.9482 12.7098L1.5182 12.6798L1.5082 12.6698Z" fill="#CBCBCB"/>
<path d="M3.5082 25.7996C3.5082 25.7996 3.4682 25.7896 3.4582 25.7696L2.6582 23.3896C2.6582 23.3896 2.6582 23.3596 2.6582 23.3496C2.6582 23.3396 2.6782 23.3296 2.6882 23.3296L5.1182 22.5996C5.1182 22.5996 5.1482 22.5996 5.1582 22.5996C5.1682 22.5996 5.1782 22.6196 5.1782 22.6296L5.8482 24.9896C5.8482 24.9896 5.8482 25.0396 5.8182 25.0496L3.5082 25.7896C3.5082 25.7896 3.4982 25.7896 3.4882 25.7896L3.5082 25.7996ZM2.7782 23.4096L3.5382 25.6896L5.7482 24.9796L5.0982 22.7196L2.7682 23.4196L2.7782 23.4096Z" fill="#CBCBCB"/>
<path d="M3.5082 25.7996C3.5082 25.7996 3.4682 25.7896 3.4582 25.7696L2.6582 23.3896C2.6582 23.3896 2.6582 23.3596 2.6582 23.3496C2.6582 23.3396 2.6782 23.3296 2.6882 23.3296L5.1182 22.5996C5.1182 22.5996 5.1482 22.5996 5.1582 22.5996C5.1682 22.5996 5.1782 22.6196 5.1782 22.6296L5.8482 24.9896C5.8482 24.9896 5.8482 25.0396 5.8182 25.0496L3.5082 25.7896C3.5082 25.7896 3.4982 25.7896 3.4882 25.7896L3.5082 25.7996ZM2.7782 23.4096L3.5382 25.6896L5.7482 24.9796L5.0982 22.7196L2.7682 23.4196L2.7782 23.4096Z" fill="#CBCBCB"/>
<path d="M3.6991 12.2C3.5791 12.2 3.4591 12.12 3.4191 12C2.7791 10.25 0.949102 8.75998 0.869102 8.68998C0.739102 8.58998 0.719102 8.39998 0.819102 8.26998C0.919102 8.13998 1.1091 8.11998 1.2391 8.21998C1.4491 8.38998 3.2791 9.88998 3.9791 11.79C4.0391 11.95 3.9591 12.12 3.7991 12.18C3.7691 12.19 3.7291 12.2 3.6991 12.2ZM1.0591 8.25998C0.999102 8.25998 0.939102 8.28998 0.899102 8.33998C0.829102 8.42998 0.849102 8.54998 0.929102 8.61998C1.0091 8.67998 2.8491 10.19 3.5091 11.97C3.5491 12.07 3.6591 12.12 3.7691 12.09C3.8691 12.05 3.9291 11.94 3.8891 11.83C3.1991 9.95998 1.3891 8.46998 1.1791 8.30998C1.1391 8.27998 1.0991 8.26998 1.0591 8.26998V8.25998Z" fill="#CBCBCB"/>
<path d="M5.32891 10.0999C2.93891 10.0999 1.49891 8.0999 1.43891 8.0199C1.33891 7.8899 1.37891 7.6999 1.50891 7.5999C1.63891 7.4999 1.82891 7.5299 1.92891 7.6699C1.93891 7.6899 3.26891 9.4999 5.35891 9.4999C5.45891 9.4999 5.55891 9.4999 5.66891 9.4899C5.66891 9.4899 5.67891 9.4899 5.68891 9.4899C5.83891 9.4899 5.97891 9.6099 5.98891 9.7599C5.98891 9.8399 5.96891 9.9199 5.91891 9.9799C5.86891 10.0399 5.79891 10.0799 5.71891 10.0899C5.58891 10.0999 5.45891 10.1099 5.33891 10.1099L5.32891 10.0999ZM1.67891 7.6399C1.67891 7.6399 1.59891 7.6499 1.55891 7.6799C1.46891 7.7399 1.44891 7.8699 1.50891 7.9599C1.56891 8.0399 2.97891 9.9999 5.31891 9.9999C5.44891 9.9999 5.56891 9.9999 5.69891 9.9799C5.74891 9.9799 5.79891 9.9499 5.83891 9.9099C5.87891 9.8699 5.88891 9.8199 5.88891 9.7599C5.88891 9.6599 5.78891 9.5799 5.68891 9.5799C5.68891 9.5799 5.67891 9.5799 5.66891 9.5799C5.55891 9.5799 5.45891 9.5899 5.35891 9.5899C3.23891 9.5899 1.85891 7.7399 1.84891 7.7199C1.80891 7.6699 1.74891 7.6399 1.68891 7.6399H1.67891Z" fill="#CBCBCB"/>
<path d="M1.36895 19.7C1.26895 19.7 1.17895 19.65 1.11895 19.57C1.07895 19.5 1.05895 19.42 1.06895 19.34C1.07895 19.26 1.12895 19.19 1.19895 19.15C1.27895 19.09 3.22895 17.71 3.40895 15.74C3.40895 15.66 3.45895 15.58 3.51895 15.53C3.57895 15.48 3.65895 15.46 3.72895 15.46C3.88895 15.48 4.01895 15.62 3.99895 15.79C3.78895 18.1 1.61895 19.58 1.52895 19.64C1.47895 19.67 1.41895 19.69 1.35895 19.69L1.36895 19.7ZM3.69895 15.57C3.69895 15.57 3.61895 15.59 3.57895 15.61C3.53895 15.65 3.50895 15.7 3.49895 15.75C3.31895 17.73 1.46895 19.08 1.24895 19.23C1.19895 19.26 1.16895 19.31 1.15895 19.36C1.15895 19.41 1.15895 19.47 1.18895 19.51C1.24895 19.6 1.37895 19.62 1.46895 19.56C1.55895 19.5 3.68895 18.05 3.88895 15.78C3.88895 15.67 3.81895 15.57 3.70895 15.56C3.70895 15.56 3.69895 15.56 3.68895 15.56L3.69895 15.57Z" fill="#CBCBCB"/>
<path d="M6.16871 21.9499C6.05871 21.9499 5.95871 21.8899 5.90871 21.7999C4.61871 19.5399 1.76871 20.1699 1.74871 20.1699C1.57871 20.2099 1.42871 20.1099 1.38871 19.9399C1.36871 19.8599 1.38871 19.7799 1.42871 19.7099C1.46871 19.6399 1.53871 19.5899 1.61871 19.5799C1.64871 19.5799 4.91871 18.8399 6.43871 21.4899C6.47871 21.5599 6.48871 21.6399 6.46871 21.7199C6.44871 21.7999 6.39871 21.8599 6.32871 21.8999C6.28871 21.9299 6.22871 21.9399 6.17871 21.9399L6.16871 21.9499ZM2.64871 19.9899C2.86871 19.9899 3.10871 19.9999 3.36871 20.0399C4.18871 20.1599 5.30871 20.5499 5.98871 21.7499C6.03871 21.8399 6.16871 21.8799 6.25871 21.8199C6.35871 21.7699 6.38871 21.6399 6.33871 21.5499C4.85871 18.9699 1.65871 19.6799 1.62871 19.6799C1.57871 19.6899 1.52871 19.7199 1.49871 19.7699C1.46871 19.8199 1.45871 19.8699 1.46871 19.9199C1.48871 20.0299 1.59871 20.0899 1.70871 20.0699C1.70871 20.0699 2.08871 19.9899 2.63871 19.9899H2.64871Z" fill="#CBCBCB"/>
<path d="M4.09829 29.8198C3.96829 29.8198 3.84829 29.7298 3.80829 29.5998C3.76829 29.4398 3.85829 29.2698 4.01829 29.2298C4.12829 29.1998 6.63829 28.4698 7.27829 25.5498C7.31829 25.3898 7.47829 25.2798 7.63829 25.3198C7.79829 25.3598 7.89829 25.5198 7.86829 25.6798C7.14829 28.9398 4.29829 29.7698 4.17829 29.8098C4.14829 29.8098 4.12829 29.8198 4.09829 29.8198ZM7.56829 25.4198C7.47829 25.4198 7.39829 25.4798 7.36829 25.5798C6.71829 28.5498 4.14829 29.2998 4.03829 29.3298C3.92829 29.3598 3.86829 29.4698 3.89829 29.5798C3.92829 29.6798 4.02829 29.7498 4.14829 29.7198C4.26829 29.6898 7.05829 28.8698 7.76829 25.6698C7.78829 25.5598 7.72829 25.4598 7.61829 25.4298C7.60829 25.4298 7.58829 25.4298 7.57829 25.4298L7.56829 25.4198Z" fill="#CBCBCB"/>
<path d="M4.27865 30.3398C4.16865 30.3398 4.06865 30.2798 4.01865 30.1898C3.93865 30.0498 3.98865 29.8598 4.12865 29.7798C4.24865 29.7098 7.19865 28.0898 9.82865 29.2398C9.89865 29.2698 9.95865 29.3298 9.98865 29.4098C10.0186 29.4898 10.0186 29.5698 9.98865 29.6398C9.95865 29.7098 9.89865 29.7698 9.81865 29.7998C9.73865 29.8298 9.65865 29.8298 9.58865 29.7998C7.19865 28.7598 4.44865 30.2998 4.41865 30.3098C4.36865 30.3398 4.31865 30.3498 4.26865 30.3498L4.27865 30.3398ZM7.75865 28.9198C5.87865 28.9198 4.26865 29.8098 4.17865 29.8598C4.07865 29.9098 4.04865 30.0398 4.09865 30.1298C4.14865 30.2198 4.27865 30.2598 4.36865 30.2098C4.39865 30.1898 7.18865 28.6298 9.62865 29.6898C9.67865 29.7098 9.72865 29.7098 9.77865 29.6898C9.82865 29.6698 9.86865 29.6298 9.88865 29.5798C9.92865 29.4798 9.88865 29.3598 9.78865 29.3198C9.11865 29.0298 8.41865 28.9198 7.75865 28.9198Z" fill="#CBCBCB"/>
<path d="M13.8687 32.9898C13.7387 32.9898 13.6187 32.8998 13.5787 32.7698C13.2087 31.5198 10.9487 30.5798 10.8487 30.5398C10.7687 30.5098 10.7187 30.4498 10.6787 30.3798C10.6387 30.3098 10.6487 30.2198 10.6787 30.1498C10.7387 29.9998 10.9187 29.9198 11.0687 29.9798C11.1487 30.0098 12.9487 30.7398 13.7887 31.8898C14.1387 30.8498 14.9087 29.1298 16.2687 28.5398C16.4187 28.4698 16.5987 28.5398 16.6587 28.6998C16.6887 28.7698 16.6887 28.8498 16.6587 28.9298C16.6287 29.0098 16.5687 29.0598 16.4987 29.0998C14.8487 29.8198 14.1487 32.7398 14.1487 32.7698C14.1187 32.8998 13.9987 32.9998 13.8687 32.9998V32.9898ZM10.9587 30.0698C10.8787 30.0698 10.7987 30.1198 10.7687 30.1998C10.7487 30.2498 10.7487 30.2998 10.7687 30.3498C10.7887 30.3998 10.8287 30.4398 10.8787 30.4598C11.1287 30.5598 13.2987 31.4798 13.6687 32.7498C13.6987 32.8298 13.7687 32.8898 13.8587 32.8898C13.9487 32.8898 14.0287 32.8198 14.0487 32.7298C14.0487 32.6998 14.7687 29.7298 16.4587 28.9898C16.5087 28.9698 16.5487 28.9298 16.5687 28.8798C16.5887 28.8298 16.5887 28.7798 16.5687 28.7298C16.5287 28.6298 16.4087 28.5798 16.3087 28.6298C14.9387 29.2298 14.1787 31.0098 13.8487 32.0198C13.8487 32.0398 13.8287 32.0498 13.8087 32.0498C13.7887 32.0498 13.7687 32.0498 13.7587 32.0298C12.9587 30.8598 11.1087 30.1098 11.0287 30.0798C11.0087 30.0798 10.9787 30.0698 10.9587 30.0698Z" fill="#CBCBCB"/>
<path d="M17.1398 28.49C17.0098 28.49 16.8898 28.4 16.8498 28.27C16.8298 28.19 16.8398 28.11 16.8798 28.04C16.9198 27.97 16.9798 27.92 17.0598 27.9C17.0998 27.89 18.1198 27.61 18.9798 27.71C19.0598 27.71 19.1298 27.76 19.1798 27.82C19.2298 27.88 19.2498 27.96 19.2398 28.04C19.2398 28.12 19.1898 28.19 19.1298 28.24C19.0698 28.29 18.9898 28.31 18.9098 28.3C18.1898 28.21 17.2298 28.47 17.2198 28.47C17.1898 28.47 17.1698 28.48 17.1398 28.48V28.49ZM18.5598 27.79C17.8298 27.79 17.1198 27.99 17.0798 28C17.0298 28.01 16.9898 28.05 16.9598 28.09C16.9298 28.14 16.9298 28.19 16.9398 28.24C16.9698 28.34 17.0798 28.41 17.1898 28.38C17.1898 28.38 18.1598 28.12 18.9198 28.21C18.9698 28.22 19.0298 28.21 19.0698 28.17C19.1098 28.14 19.1398 28.09 19.1498 28.03C19.1598 27.92 19.0898 27.82 18.9798 27.81C18.8498 27.79 18.7098 27.79 18.5698 27.79H18.5598Z" fill="#CBCBCB"/>
<path d="M23.2085 30.7001C23.0985 30.7001 22.9985 30.6401 22.9485 30.5501C22.0785 29.0701 20.0285 28.4901 20.0085 28.4901C19.8485 28.4501 19.7585 28.2801 19.7985 28.1201C19.8385 27.9701 19.9985 27.8801 20.1685 27.9101C20.3185 27.9501 21.6185 28.3301 22.6485 29.2501C22.6085 28.6801 22.6885 28.1301 22.8885 27.6201C23.2985 26.6101 24.1685 25.8201 25.4885 25.2901C25.5585 25.2601 25.6485 25.2601 25.7185 25.2901C25.7885 25.3201 25.8485 25.3801 25.8785 25.4501C25.9085 25.5201 25.9085 25.6101 25.8785 25.6801C25.8485 25.7501 25.7885 25.8101 25.7185 25.8401C24.5585 26.3101 23.7985 26.9801 23.4485 27.8301C22.9685 29.0201 23.4685 30.2101 23.4885 30.2601C23.5585 30.4101 23.4885 30.5801 23.3485 30.6501C23.3085 30.6701 23.2585 30.6801 23.2085 30.6801V30.7001ZM20.0985 28.0001C20.0085 28.0001 19.9285 28.0601 19.8985 28.1501C19.8685 28.2601 19.9385 28.3701 20.0385 28.4001C20.0585 28.4001 22.1485 28.9901 23.0385 30.5101C23.0885 30.6001 23.1985 30.6401 23.2985 30.5901C23.3885 30.5401 23.4285 30.4301 23.3885 30.3301C23.3685 30.2801 22.8485 29.0501 23.3485 27.8201C23.7085 26.9401 24.4885 26.2501 25.6685 25.7801C25.7185 25.7601 25.7585 25.7201 25.7785 25.6701C25.7985 25.6201 25.7985 25.5701 25.7785 25.5201C25.7585 25.4701 25.7185 25.4301 25.6685 25.4101C25.6185 25.3901 25.5685 25.3901 25.5185 25.4101C24.2285 25.9301 23.3685 26.7001 22.9785 27.6801C22.7685 28.2101 22.6885 28.7801 22.7485 29.3901C22.7485 29.4101 22.7485 29.4301 22.7185 29.4401C22.6985 29.4401 22.6785 29.4401 22.6585 29.4401C21.6285 28.4701 20.2785 28.0701 20.1285 28.0301C20.1085 28.0301 20.0985 28.0301 20.0785 28.0301L20.0985 28.0001Z" fill="#CBCBCB"/>
<path d="M15.03 25.4497C14.91 25.4497 14.8 25.3797 14.75 25.2597C14.58 24.8497 14.5 24.4197 14.5 23.9797C14.5 22.3797 15.64 20.9797 17.2 20.6597C17.27 20.6397 17.36 20.6597 17.42 20.6997C17.49 20.7397 17.53 20.8097 17.55 20.8897C17.58 21.0497 17.48 21.2097 17.32 21.2497C16.03 21.5097 15.1 22.6597 15.1 23.9797C15.1 24.3397 15.17 24.6997 15.31 25.0297C15.34 25.0997 15.34 25.1897 15.31 25.2597C15.28 25.3297 15.22 25.3897 15.15 25.4197C15.11 25.4397 15.08 25.4397 15.04 25.4397L15.03 25.4497ZM17.27 20.7597C17.27 20.7597 17.24 20.7597 17.23 20.7597C15.71 21.0697 14.61 22.4297 14.61 23.9797C14.61 24.4097 14.69 24.8197 14.85 25.2197C14.89 25.3197 15.01 25.3697 15.11 25.3297C15.21 25.2897 15.26 25.1697 15.22 25.0697C15.08 24.7197 15.01 24.3597 15.01 23.9797C15.01 22.6097 15.98 21.4297 17.31 21.1497C17.42 21.1297 17.49 21.0197 17.47 20.9097C17.46 20.8597 17.43 20.8097 17.38 20.7797C17.35 20.7597 17.31 20.7497 17.27 20.7497V20.7597Z" fill="#CBCBCB"/>
<path d="M16.4396 27.0199C16.4396 27.0199 16.3396 27.0099 16.2996 26.9899C15.9696 26.8199 15.6796 26.5899 15.4296 26.3299C15.3696 26.2699 15.3496 26.1999 15.3496 26.1199C15.3496 26.0399 15.3896 25.9599 15.4396 25.9099C15.5596 25.7999 15.7496 25.7999 15.8596 25.9199C16.0696 26.1399 16.3096 26.3199 16.5696 26.4599C16.6396 26.4999 16.6896 26.5599 16.7196 26.6399C16.7396 26.7199 16.7396 26.7999 16.6996 26.8699C16.6496 26.9699 16.5496 27.0299 16.4396 27.0299V27.0199ZM15.6496 25.9199C15.6496 25.9199 15.5496 25.9399 15.5096 25.9699C15.4696 26.0099 15.4496 26.0599 15.4496 26.1099C15.4496 26.1599 15.4696 26.2099 15.5096 26.2499C15.7496 26.5099 16.0396 26.7199 16.3496 26.8899C16.4496 26.9399 16.5696 26.8999 16.6196 26.8099C16.6696 26.7099 16.6296 26.5899 16.5396 26.5399C16.2596 26.3899 16.0096 26.1999 15.7996 25.9799C15.7596 25.9399 15.7096 25.9199 15.6496 25.9199Z" fill="#CBCBCB"/>
<path d="M17.8898 27.3799C17.7198 27.3799 17.5898 27.2499 17.5898 27.0799C17.5898 26.9099 17.7198 26.7799 17.8898 26.7799C19.4298 26.7799 20.6798 25.5299 20.6798 23.9899C20.6798 23.8199 20.8098 23.6899 20.9798 23.6899C21.1498 23.6899 21.2798 23.8199 21.2798 23.9899C21.2798 25.8599 19.7598 27.3799 17.8898 27.3799ZM20.9798 23.7899C20.8698 23.7899 20.7798 23.8799 20.7798 23.9899C20.7798 25.5799 19.4898 26.8799 17.8898 26.8799C17.7798 26.8799 17.6898 26.9699 17.6898 27.0799C17.6898 27.1899 17.7798 27.2799 17.8898 27.2799C19.6998 27.2799 21.1798 25.8099 21.1798 23.9899C21.1798 23.8799 21.0898 23.7899 20.9798 23.7899Z" fill="#CBCBCB"/>
<path d="M20.1591 22.1997C20.0791 22.1997 19.9991 22.1597 19.9391 22.0997C19.5791 21.6997 19.1091 21.4197 18.5891 21.2897C18.5091 21.2697 18.4491 21.2197 18.4091 21.1497C18.3691 21.0797 18.3591 20.9997 18.3791 20.9197C18.3991 20.8397 18.4491 20.7797 18.5191 20.7397C18.5891 20.6997 18.6691 20.6897 18.7491 20.7097C19.3791 20.8697 19.9391 21.2097 20.3891 21.6897C20.4991 21.8097 20.4891 21.9997 20.3691 22.1097C20.3091 22.1597 20.2391 22.1897 20.1691 22.1897L20.1591 22.1997ZM18.6591 20.7997C18.6591 20.7997 18.5891 20.7997 18.5591 20.8297C18.5191 20.8597 18.4791 20.8997 18.4691 20.9497C18.4591 20.9997 18.4691 21.0497 18.4891 21.0997C18.5191 21.1497 18.5591 21.1797 18.6091 21.1897C19.1491 21.3297 19.6291 21.6197 20.0091 22.0297C20.0791 22.1097 20.2091 22.1097 20.2891 22.0397C20.3691 21.9697 20.3791 21.8397 20.2991 21.7597C19.8691 21.2897 19.3191 20.9597 18.7091 20.7997C18.6891 20.7997 18.6791 20.7997 18.6591 20.7997Z" fill="#CBCBCB"/>
<path d="M8.62937 27.4299C8.50937 27.4299 8.39938 27.3599 8.34938 27.2399C8.18938 26.8599 8.10938 26.4499 8.10938 26.0399C8.10938 24.5399 9.17938 23.2199 10.6494 22.9199C10.6694 22.9199 10.6894 22.9199 10.7094 22.9199C10.8494 22.9199 10.9694 23.0199 10.9994 23.1599C11.0294 23.3199 10.9294 23.4799 10.7694 23.5199C9.56938 23.7599 8.70937 24.8299 8.70937 26.0499C8.70937 26.3899 8.76938 26.7199 8.89938 27.0299C8.95938 27.1799 8.88937 27.3599 8.72937 27.4199C8.69937 27.4299 8.65938 27.4399 8.61938 27.4399L8.62937 27.4299ZM10.7194 23.0199C10.7194 23.0199 10.6894 23.0199 10.6794 23.0199C9.24938 23.3099 8.21938 24.5799 8.21938 26.0399C8.21938 26.4399 8.29938 26.8299 8.44938 27.1999C8.47938 27.2799 8.54938 27.3199 8.63938 27.3199C8.66938 27.3199 8.68937 27.3199 8.70937 27.3099C8.80937 27.2699 8.85938 27.1499 8.81938 27.0499C8.68938 26.7299 8.61938 26.3899 8.61938 26.0399C8.61938 24.7699 9.51938 23.6699 10.7594 23.4099C10.8694 23.3899 10.9394 23.2799 10.9194 23.1699C10.8994 23.0799 10.8194 23.0099 10.7194 23.0099V23.0199Z" fill="#CBCBCB"/>
<path d="M9.94992 28.89C9.94992 28.89 9.84992 28.88 9.80992 28.85C9.50992 28.69 9.22992 28.48 8.99992 28.23C8.93992 28.17 8.91992 28.1 8.91992 28.02C8.91992 27.94 8.95992 27.87 9.00992 27.81C9.06992 27.76 9.13992 27.73 9.21992 27.73C9.29992 27.73 9.36992 27.77 9.42992 27.82C9.61992 28.02 9.83992 28.19 10.0899 28.32C10.1599 28.36 10.2099 28.42 10.2399 28.5C10.2599 28.58 10.2599 28.66 10.2199 28.73C10.1699 28.83 10.0699 28.89 9.95992 28.89H9.94992ZM9.20992 27.83C9.15992 27.83 9.10992 27.85 9.06992 27.88C9.02992 27.92 9.00992 27.97 9.00992 28.02C9.00992 28.07 9.02992 28.13 9.06992 28.16C9.29992 28.4 9.56992 28.6 9.85992 28.76C9.95992 28.81 10.0799 28.76 10.1299 28.68C10.1599 28.63 10.1599 28.58 10.1399 28.53C10.1199 28.48 10.0899 28.44 10.0399 28.41C9.77992 28.27 9.54992 28.1 9.34992 27.89C9.30992 27.85 9.25992 27.83 9.20992 27.83Z" fill="#CBCBCB"/>
<path d="M11.3 29.23C11.13 29.23 11 29.1 11 28.93C11 28.76 11.13 28.63 11.3 28.63C12.72 28.63 13.88 27.47 13.88 26.05C13.88 25.88 14.01 25.75 14.18 25.75C14.35 25.75 14.48 25.88 14.48 26.05C14.48 27.8 13.05 29.23 11.3 29.23ZM14.18 25.85C14.07 25.85 13.98 25.94 13.98 26.05C13.98 27.53 12.78 28.73 11.3 28.73C11.19 28.73 11.1 28.82 11.1 28.93C11.1 29.04 11.19 29.13 11.3 29.13C13 29.13 14.38 27.75 14.38 26.05C14.38 25.94 14.29 25.85 14.18 25.85Z" fill="#CBCBCB"/>
<path d="M13.4302 24.3901C13.3502 24.3901 13.2702 24.3601 13.2102 24.2901C12.8702 23.9201 12.4402 23.6601 11.9602 23.5401C11.8802 23.5201 11.8202 23.4701 11.7802 23.4001C11.7402 23.3301 11.7302 23.2501 11.7502 23.1701C11.7902 23.0101 11.9502 22.9201 12.1202 22.9501C12.7102 23.1001 13.2402 23.4201 13.6602 23.8801C13.7702 24.0001 13.7602 24.1901 13.6402 24.3001C13.5802 24.3501 13.5102 24.3801 13.4402 24.3801L13.4302 24.3901ZM12.0302 23.0501C11.9402 23.0501 11.8602 23.1101 11.8402 23.2001C11.8302 23.2501 11.8402 23.3101 11.8602 23.3501C11.8802 23.3901 11.9302 23.4301 11.9802 23.4401C12.4802 23.5701 12.9302 23.8401 13.2802 24.2201C13.3502 24.3001 13.4902 24.3001 13.5602 24.2301C13.6002 24.1901 13.6202 24.1501 13.6202 24.0901C13.6202 24.0301 13.6002 23.9901 13.5702 23.9501C13.1702 23.5101 12.6502 23.2001 12.0802 23.0501C12.0602 23.0501 12.0502 23.0501 12.0302 23.0501Z" fill="#CBCBCB"/>
<path d="M24.28 25.3496C23.9 25.3496 23.52 25.2796 23.16 25.1396C21.75 24.6096 20.9 23.1396 21.14 21.6596C21.17 21.4996 21.32 21.3896 21.48 21.4096C21.64 21.4396 21.76 21.5896 21.73 21.7496C21.54 22.9496 22.23 24.1396 23.37 24.5696C23.66 24.6796 23.98 24.7396 24.29 24.7396H24.34C24.51 24.7396 24.64 24.8696 24.65 25.0296C24.65 25.1096 24.62 25.1896 24.57 25.2396C24.51 25.2996 24.44 25.3296 24.36 25.3296C24.33 25.3296 24.31 25.3296 24.28 25.3296V25.3496ZM21.44 21.5096C21.34 21.5096 21.25 21.5796 21.24 21.6796C21.01 23.1196 21.83 24.5396 23.19 25.0496C23.54 25.1796 23.91 25.2496 24.28 25.2496C24.28 25.2496 24.33 25.2496 24.36 25.2496C24.41 25.2496 24.46 25.2296 24.5 25.1896C24.54 25.1496 24.56 25.0996 24.55 25.0496C24.55 24.9396 24.46 24.8496 24.35 24.8496C24.33 24.8496 24.31 24.8496 24.29 24.8496C23.96 24.8496 23.63 24.7896 23.33 24.6796C22.14 24.2296 21.43 22.9996 21.63 21.7496C21.65 21.6396 21.57 21.5396 21.46 21.5196C21.46 21.5196 21.44 21.5196 21.43 21.5196L21.44 21.5096Z" fill="#CBCBCB"/>
<path d="M25.4005 25.1199C25.2805 25.1199 25.1705 25.0499 25.1205 24.9399C25.0605 24.7899 25.1205 24.6099 25.2805 24.5499C25.5405 24.4399 25.7805 24.2899 25.9805 24.1099C26.1105 23.9999 26.3005 24.0199 26.4005 24.1399C26.4505 24.1999 26.4805 24.2799 26.4705 24.3599C26.4705 24.4399 26.4305 24.5099 26.3705 24.5699C26.1105 24.7999 25.8205 24.9799 25.5005 25.1099C25.4605 25.1299 25.4205 25.1299 25.3805 25.1299L25.4005 25.1199ZM26.1905 24.1299C26.1905 24.1299 26.1005 24.1499 26.0605 24.1799C25.8405 24.3699 25.6005 24.5199 25.3305 24.6399C25.2305 24.6799 25.1805 24.7999 25.2205 24.8999C25.2605 24.9999 25.3805 25.0499 25.4805 25.0099C25.7805 24.8799 26.0705 24.6999 26.3205 24.4799C26.4005 24.4099 26.4105 24.2799 26.3405 24.1999C26.3005 24.1599 26.2405 24.1299 26.1905 24.1299Z" fill="#CBCBCB"/>
<path d="M26.9803 23.4897C26.9803 23.4897 26.9103 23.4897 26.8703 23.4697C26.7103 23.4097 26.6403 23.2397 26.7003 23.0797C27.2003 21.7497 26.5303 20.2497 25.2003 19.7497C25.1203 19.7197 25.0703 19.6697 25.0303 19.5897C25.0003 19.5197 24.9903 19.4397 25.0303 19.3597C25.0903 19.1997 25.2603 19.1297 25.4203 19.1897C27.0603 19.8097 27.8903 21.6497 27.2703 23.2897C27.2303 23.4097 27.1103 23.4797 26.9903 23.4797L26.9803 23.4897ZM25.3003 19.2697C25.2203 19.2697 25.1403 19.3197 25.1103 19.3997C25.0903 19.4497 25.0903 19.4997 25.1103 19.5497C25.1303 19.5997 25.1703 19.6397 25.2203 19.6497C26.6003 20.1697 27.3003 21.7297 26.7803 23.1097C26.7403 23.2097 26.7903 23.3297 26.9003 23.3697C27.0003 23.4097 27.1203 23.3497 27.1603 23.2497C27.7603 21.6597 26.9603 19.8797 25.3703 19.2797C25.3503 19.2797 25.3203 19.2697 25.3003 19.2697Z" fill="#CBCBCB"/>
<path d="M21.9302 20.7995C21.8702 20.7995 21.8102 20.7795 21.7602 20.7495C21.6902 20.6995 21.6502 20.6295 21.6402 20.5595C21.6302 20.4895 21.6402 20.3995 21.6902 20.3395C22.0402 19.8395 22.5302 19.4595 23.1002 19.2295C23.1702 19.1995 23.2502 19.1995 23.3302 19.2295C23.4002 19.2595 23.4602 19.3195 23.4902 19.3995C23.5502 19.5495 23.4802 19.7295 23.3202 19.7895C22.8602 19.9795 22.4602 20.2895 22.1802 20.6895C22.1202 20.7695 22.0302 20.8195 21.9302 20.8195V20.7995ZM23.2102 19.2895C23.2102 19.2895 23.1602 19.2895 23.1402 19.2995C22.5902 19.5195 22.1102 19.8995 21.7702 20.3795C21.7402 20.4195 21.7302 20.4795 21.7402 20.5295C21.7502 20.5795 21.7802 20.6295 21.8202 20.6595C21.9102 20.7195 22.0402 20.6995 22.1002 20.6095C22.4002 20.1895 22.8102 19.8595 23.2902 19.6695C23.3402 19.6495 23.3802 19.6095 23.4002 19.5595C23.4202 19.5095 23.4202 19.4595 23.4002 19.4095C23.3802 19.3595 23.3402 19.3195 23.2902 19.2995C23.2602 19.2895 23.2402 19.2795 23.2102 19.2795V19.2895Z" fill="#CBCBCB"/>
<path d="M22.3483 19.0402C21.9683 19.0402 21.5883 18.9702 21.2283 18.8302C19.8183 18.3002 18.9683 16.8302 19.2083 15.3502C19.2183 15.2702 19.2683 15.1902 19.3383 15.1502C19.3983 15.1102 19.4783 15.0902 19.5583 15.1002C19.6383 15.1102 19.7083 15.1602 19.7483 15.2202C19.7983 15.2802 19.8183 15.3602 19.7983 15.4402C19.6083 16.6502 20.2983 17.8302 21.4383 18.2602C21.7483 18.3802 22.0583 18.4302 22.4183 18.4302C22.6083 18.4602 22.7183 18.5702 22.7283 18.7202C22.7283 18.8002 22.6983 18.8802 22.6483 18.9302C22.5983 18.9902 22.5183 19.0202 22.4383 19.0202C22.4083 19.0202 22.3883 19.0202 22.3583 19.0202L22.3483 19.0402ZM19.4983 15.2002C19.4983 15.2002 19.4283 15.2102 19.3883 15.2302C19.3483 15.2602 19.3083 15.3102 19.3083 15.3702C19.0783 16.8102 19.8983 18.2302 21.2583 18.7402C21.6083 18.8702 21.9783 18.9402 22.3483 18.9402C22.3483 18.9402 22.3983 18.9402 22.4283 18.9402C22.4783 18.9402 22.5283 18.9202 22.5683 18.8802C22.6083 18.8402 22.6283 18.7902 22.6283 18.7402C22.6283 18.6002 22.4883 18.5602 22.4183 18.5402H22.3783C22.0383 18.5402 21.7183 18.4802 21.4083 18.3702C20.2183 17.9202 19.5083 16.6902 19.7083 15.4402C19.7083 15.3902 19.7083 15.3402 19.6783 15.2902C19.6483 15.2502 19.5983 15.2202 19.5483 15.2102C19.5383 15.2102 19.5183 15.2102 19.5083 15.2102L19.4983 15.2002Z" fill="#CBCBCB"/>
<path d="M23.4688 18.8102C23.3488 18.8102 23.2388 18.7402 23.1888 18.6302C23.1288 18.4802 23.1888 18.3002 23.3488 18.2402C23.6088 18.1302 23.8488 17.9802 24.0588 17.8002C24.1088 17.7502 24.1788 17.7202 24.2588 17.7202C24.2588 17.7202 24.2688 17.7202 24.2788 17.7202C24.3588 17.7202 24.4288 17.7602 24.4888 17.8202C24.5988 17.9402 24.5888 18.1302 24.4588 18.2402C24.1988 18.4702 23.9088 18.6502 23.5888 18.7802C23.5488 18.8002 23.5088 18.8002 23.4688 18.8002V18.8102ZM24.2588 17.8202C24.2588 17.8202 24.1688 17.8402 24.1288 17.8702C23.9088 18.0602 23.6688 18.2202 23.3988 18.3302C23.2988 18.3702 23.2488 18.4902 23.2888 18.5902C23.3288 18.6902 23.4488 18.7402 23.5488 18.7002C23.8588 18.5702 24.1388 18.3902 24.3888 18.1702C24.4688 18.1002 24.4788 17.9702 24.4088 17.8902C24.3688 17.8502 24.3288 17.8302 24.2688 17.8202H24.2588Z" fill="#CBCBCB"/>
<path d="M25.0389 17.1701C25.0389 17.1701 24.9689 17.1701 24.9289 17.1501C24.8489 17.1201 24.7989 17.0701 24.7589 16.9901C24.7289 16.9201 24.7189 16.8401 24.7589 16.7601C24.9989 16.1101 24.9789 15.4101 24.6989 14.7801C24.4189 14.1501 23.9089 13.6701 23.2589 13.4301C23.1789 13.4001 23.1289 13.3501 23.0889 13.2701C23.0589 13.2001 23.0489 13.1201 23.0889 13.0401C23.1489 12.8901 23.3189 12.8101 23.4789 12.8701C24.2689 13.1701 24.9089 13.7601 25.2589 14.5401C25.6089 15.3201 25.6389 16.1801 25.3389 16.9701C25.2989 17.0901 25.1789 17.1601 25.0589 17.1601L25.0389 17.1701ZM23.3589 12.9501C23.2789 12.9501 23.1989 13.0001 23.1689 13.0801C23.1489 13.1301 23.1489 13.1801 23.1689 13.2301C23.1889 13.2801 23.2289 13.3201 23.2789 13.3301C23.9489 13.5801 24.4789 14.0801 24.7789 14.7401C25.0689 15.3901 25.0989 16.1201 24.8389 16.7901C24.8189 16.8401 24.8189 16.8901 24.8389 16.9401C24.8589 16.9901 24.8989 17.0301 24.9489 17.0401C25.0689 17.0801 25.1689 17.0201 25.2089 16.9201C25.4989 16.1501 25.4689 15.3101 25.1389 14.5601C24.7989 13.8101 24.1889 13.2401 23.4189 12.9401C23.3989 12.9401 23.3689 12.9301 23.3489 12.9301L23.3589 12.9501Z" fill="#CBCBCB"/>
<path d="M19.9875 14.4899C19.9275 14.4899 19.8675 14.4699 19.8175 14.4299C19.6875 14.3399 19.6475 14.1499 19.7475 14.0099C20.0975 13.5099 20.5875 13.1299 21.1575 12.8999C21.2275 12.8699 21.3175 12.8699 21.3875 12.8999C21.4575 12.9299 21.5175 12.9899 21.5475 13.0599C21.5775 13.1299 21.5775 13.2199 21.5475 13.2899C21.5175 13.3599 21.4575 13.4199 21.3875 13.4499C20.9275 13.6399 20.5275 13.9499 20.2475 14.3499C20.1875 14.4299 20.0975 14.4799 19.9975 14.4799L19.9875 14.4899ZM21.2675 12.9799C21.2675 12.9799 21.2175 12.9799 21.1975 12.9899C20.6475 13.2099 20.1775 13.5899 19.8275 14.0699C19.7675 14.1599 19.7875 14.2899 19.8775 14.3499C19.9575 14.4099 20.0975 14.3899 20.1575 14.2999C20.4575 13.8799 20.8675 13.5499 21.3475 13.3599C21.3975 13.3399 21.4375 13.2999 21.4575 13.2499C21.4775 13.1999 21.4775 13.1499 21.4575 13.0999C21.4375 13.0499 21.3975 13.0099 21.3475 12.9899C21.3175 12.9799 21.2975 12.9699 21.2675 12.9699V12.9799Z" fill="#CBCBCB"/>
<path d="M15.3301 20.7796C15.3301 20.7796 15.2901 20.7796 15.2701 20.7796C14.8601 20.6996 14.4801 20.5496 14.1301 20.3296C12.8701 19.5096 12.3401 17.9096 12.8901 16.4996C12.9201 16.4196 12.9801 16.3696 13.0501 16.3296C13.1201 16.2996 13.2001 16.2996 13.2801 16.3296C13.3501 16.3596 13.4101 16.4096 13.4501 16.4896C13.4901 16.5696 13.4801 16.6496 13.4501 16.7196C13.0101 17.8596 13.4301 19.1596 14.4601 19.8296C14.7501 20.0096 15.0501 20.1396 15.3801 20.1996C15.4601 20.2096 15.5301 20.2596 15.5701 20.3196C15.6101 20.3896 15.6301 20.4696 15.6201 20.5396C15.5901 20.6796 15.4701 20.7896 15.3301 20.7896V20.7796ZM13.1701 16.3996C13.1701 16.3996 13.1201 16.3996 13.0901 16.4196C13.0401 16.4396 13.0001 16.4796 12.9801 16.5296C12.4501 17.8896 12.9601 19.4496 14.1801 20.2396C14.5201 20.4596 14.8901 20.6096 15.2801 20.6796C15.3901 20.6996 15.4901 20.6296 15.5101 20.5196C15.5101 20.4696 15.5101 20.4096 15.4801 20.3696C15.4501 20.3296 15.4001 20.2996 15.3501 20.2896C15.0101 20.2296 14.6901 20.0996 14.3901 19.9096C13.3201 19.2196 12.8801 17.8696 13.3401 16.6796C13.3801 16.5796 13.3301 16.4596 13.2301 16.4196C13.2101 16.4196 13.1801 16.4096 13.1601 16.4096L13.1701 16.3996Z" fill="#CBCBCB"/>
<path d="M16.4004 20.7697C16.2604 20.7697 16.1304 20.6697 16.1104 20.5297C16.0804 20.3697 16.1904 20.2097 16.3504 20.1797C16.6204 20.1297 16.8904 20.0297 17.1304 19.8997C17.2804 19.8197 17.4604 19.8697 17.5404 20.0197C17.6204 20.1597 17.5704 20.3497 17.4204 20.4297C17.1204 20.5997 16.8004 20.7097 16.4604 20.7797C16.4404 20.7797 16.4204 20.7797 16.4004 20.7797V20.7697ZM17.2704 19.9497C17.2704 19.9497 17.2004 19.9497 17.1704 19.9797C16.9204 20.1197 16.6404 20.2197 16.3604 20.2697C16.2504 20.2897 16.1804 20.3897 16.2004 20.4997C16.2204 20.6097 16.3304 20.6697 16.4304 20.6597C16.7604 20.5997 17.0704 20.4797 17.3604 20.3197C17.4604 20.2697 17.4904 20.1397 17.4404 20.0497C17.4004 19.9797 17.3404 19.9497 17.2704 19.9497Z" fill="#CBCBCB"/>
<path d="M18.2909 19.4999C18.2309 19.4999 18.1809 19.4799 18.1309 19.4499C17.9909 19.3599 17.9509 19.1699 18.0409 19.0299C18.4109 18.4499 18.5409 17.7599 18.3909 17.0899C18.2409 16.4199 17.8509 15.8399 17.2709 15.4599C17.1309 15.3699 17.0909 15.1799 17.1809 15.0399C17.2209 14.9699 17.2909 14.9299 17.3709 14.9099C17.4509 14.8999 17.5309 14.9099 17.5909 14.9499C18.3009 15.4099 18.8009 16.1199 18.9809 16.9499C19.1609 17.7799 19.0009 18.6299 18.5409 19.3499C18.4809 19.4399 18.3909 19.4899 18.2909 19.4899V19.4999ZM17.4309 15.0099C17.4309 15.0099 17.4009 15.0099 17.3909 15.0099C17.3409 15.0199 17.2909 15.0499 17.2609 15.0999C17.2009 15.1899 17.2309 15.3199 17.3209 15.3799C17.9209 15.7699 18.3409 16.3699 18.4909 17.0699C18.6409 17.7699 18.5109 18.4899 18.1209 19.0899C18.0609 19.1799 18.0909 19.3099 18.1809 19.3699C18.2709 19.4199 18.4009 19.3999 18.4609 19.3099C18.9109 18.6199 19.0609 17.7899 18.8809 16.9899C18.7109 16.1899 18.2309 15.4999 17.5409 15.0499C17.5109 15.0299 17.4709 15.0199 17.4309 15.0199V15.0099Z" fill="#CBCBCB"/>
<path d="M13.9099 15.8198C13.8299 15.8198 13.7499 15.7798 13.6899 15.7198C13.5799 15.5998 13.5899 15.4098 13.7099 15.2998C14.1599 14.8898 14.7199 14.6098 15.3199 14.5098C15.3399 14.5098 15.3499 14.5098 15.3699 14.5098C15.5099 14.5098 15.6399 14.6098 15.6699 14.7598C15.6799 14.8398 15.6699 14.9198 15.6199 14.9798C15.5699 15.0398 15.4999 15.0898 15.4299 15.0998C14.9399 15.1898 14.4899 15.4098 14.1199 15.7398C14.0599 15.7898 13.9899 15.8198 13.9199 15.8198H13.9099ZM15.3699 14.5998C15.3699 14.5998 15.3499 14.5998 15.3399 14.5998C14.7599 14.6998 14.2099 14.9698 13.7799 15.3698C13.6999 15.4398 13.6899 15.5698 13.7699 15.6498C13.8399 15.7298 13.9699 15.7298 14.0499 15.6598C14.4299 15.3098 14.8999 15.0798 15.4099 14.9898C15.5199 14.9698 15.5899 14.8698 15.5699 14.7598C15.5499 14.6598 15.4699 14.5898 15.3699 14.5898V14.5998Z" fill="#CBCBCB"/>
<path d="M7.07928 21.72C6.97928 21.72 6.88928 21.67 6.83928 21.6C6.59928 21.27 6.42928 20.89 6.32928 20.49C5.97928 19.03 6.70928 17.5 8.06928 16.86C8.21928 16.79 8.39928 16.86 8.46928 17C8.53928 17.15 8.46928 17.33 8.32928 17.4C7.22928 17.92 6.62928 19.16 6.91928 20.34C6.99928 20.67 7.13928 20.97 7.32928 21.24C7.37928 21.31 7.39928 21.39 7.37928 21.46C7.36928 21.54 7.31928 21.61 7.25928 21.65C7.20928 21.69 7.14928 21.71 7.08928 21.71L7.07928 21.72ZM8.18928 16.93C8.18928 16.93 8.12928 16.93 8.10928 16.95C6.78928 17.57 6.07928 19.05 6.41928 20.46C6.50928 20.85 6.67928 21.21 6.90928 21.54C6.96928 21.63 7.09928 21.65 7.18928 21.59C7.22928 21.56 7.25928 21.51 7.26928 21.46C7.27928 21.41 7.26928 21.35 7.22928 21.31C7.02928 21.03 6.87928 20.71 6.79928 20.37C6.49928 19.14 7.11928 17.85 8.26928 17.31C8.36928 17.26 8.40928 17.14 8.36928 17.04C8.32928 16.97 8.25928 16.92 8.18928 16.92V16.93Z" fill="#CBCBCB"/>
<path d="M8.70839 22.8299C8.70839 22.8299 8.65839 22.8299 8.63839 22.8299C8.30839 22.7399 7.98839 22.6099 7.69839 22.4199C7.62839 22.3799 7.58839 22.3099 7.56839 22.2299C7.54839 22.1499 7.56839 22.0699 7.60839 21.9999C7.69839 21.8599 7.87839 21.8199 8.02839 21.9099C8.26839 22.0599 8.51839 22.1699 8.78839 22.2399C8.86839 22.2599 8.92839 22.3099 8.96839 22.3799C9.00839 22.4499 9.01839 22.5299 8.99839 22.6099C8.95839 22.7399 8.84839 22.8399 8.70839 22.8399V22.8299ZM7.85839 21.9599C7.78839 21.9599 7.72839 21.9899 7.68839 22.0499C7.62839 22.1399 7.65839 22.2699 7.74839 22.3299C8.02839 22.5099 8.32839 22.6499 8.65839 22.7299C8.76839 22.7699 8.87839 22.6899 8.89839 22.5899C8.92839 22.4799 8.85839 22.3799 8.75839 22.3499C8.47839 22.2799 8.21839 22.1599 7.96839 21.9999C7.93839 21.9799 7.89839 21.9699 7.85839 21.9699V21.9599Z" fill="#CBCBCB"/>
<path d="M10.0996 22.8398C9.9596 22.8398 9.8396 22.7498 9.8096 22.6098C9.7696 22.4498 9.8696 22.2898 10.0296 22.2498C10.6996 22.0898 11.2696 21.6698 11.6296 21.0898C11.9896 20.4998 12.0996 19.8098 11.9396 19.1398C11.8996 18.9798 11.9996 18.8198 12.1596 18.7798C12.3196 18.7398 12.4796 18.8398 12.5196 18.9998C12.7196 19.8298 12.5796 20.6798 12.1396 21.4098C11.6996 22.1398 10.9996 22.6498 10.1696 22.8398C10.1496 22.8398 10.1196 22.8398 10.0996 22.8398ZM12.2296 18.8598C12.2296 18.8598 12.1996 18.8598 12.1796 18.8598C12.0696 18.8898 12.0096 18.9898 12.0296 19.0998C12.1996 19.7998 12.0796 20.5198 11.7096 21.1298C11.3396 21.7398 10.7496 22.1698 10.0496 22.3398C9.9396 22.3698 9.8796 22.4698 9.8996 22.5798C9.9296 22.6898 10.0396 22.7498 10.1396 22.7298C10.9396 22.5398 11.6196 22.0398 12.0496 21.3398C12.4796 20.6398 12.6096 19.8098 12.4196 19.0098C12.3996 18.9198 12.3196 18.8598 12.2196 18.8598H12.2296Z" fill="#CBCBCB"/>
<path d="M11.0302 17.6398C10.9702 17.6398 10.9102 17.6198 10.8602 17.5898C10.4402 17.3098 9.96023 17.1598 9.47023 17.1498C9.30023 17.1498 9.17023 17.0098 9.18023 16.8398C9.18023 16.6798 9.31023 16.5598 9.48023 16.5498C10.1002 16.5498 10.6902 16.7498 11.2002 17.0898C11.3402 17.1798 11.3702 17.3698 11.2802 17.5098C11.2202 17.5898 11.1302 17.6398 11.0302 17.6398ZM9.48023 16.6498C9.37023 16.6498 9.28023 16.7398 9.28023 16.8498C9.28023 16.9598 9.37023 17.0498 9.48023 17.0498C9.99023 17.0498 10.4902 17.2198 10.9202 17.4998C11.0102 17.5598 11.1402 17.5398 11.2002 17.4398C11.2602 17.3498 11.2402 17.2198 11.1402 17.1598C10.6402 16.8298 10.0702 16.6498 9.48023 16.6398V16.6498Z" fill="#CBCBCB"/>
<path d="M4.79893 14.6701C4.67893 14.6701 4.56893 14.6001 4.51893 14.4901C4.34893 14.1101 4.26893 13.7101 4.25893 13.3001C4.21893 11.7901 5.25893 10.4601 6.71893 10.1201C6.88893 10.0801 7.03893 10.1801 7.07893 10.3501C7.11893 10.5101 7.01893 10.6701 6.85893 10.7101C5.66893 10.9801 4.82893 12.0701 4.85893 13.2901C4.85893 13.6301 4.93893 13.9501 5.06893 14.2601C5.09893 14.3301 5.09893 14.4201 5.06893 14.4901C5.03893 14.5601 4.97893 14.6201 4.90893 14.6501C4.86893 14.6701 4.82893 14.6801 4.78893 14.6801L4.79893 14.6701ZM6.78893 10.2101C6.78893 10.2101 6.75893 10.2101 6.73893 10.2101C5.31893 10.5401 4.31893 11.8301 4.34893 13.2901C4.35893 13.6901 4.44893 14.0801 4.60893 14.4501C4.64893 14.5501 4.77893 14.6001 4.86893 14.5501C4.91893 14.5301 4.95893 14.4901 4.97893 14.4401C4.99893 14.3901 4.99893 14.3401 4.97893 14.2901C4.83893 13.9701 4.76893 13.6301 4.75893 13.2801C4.72893 12.0101 5.59893 10.8801 6.83893 10.6001C6.94893 10.5801 7.00893 10.4701 6.98893 10.3601C6.96893 10.2701 6.88893 10.2001 6.79893 10.2001L6.78893 10.2101Z" fill="#CBCBCB"/>
<path d="M6.15938 16.1002C6.15938 16.1002 6.06937 16.0902 6.02937 16.0702C5.71937 15.9202 5.44937 15.7202 5.19937 15.4702C5.07937 15.3502 5.07937 15.1602 5.19937 15.0502C5.31937 14.9402 5.50938 14.9302 5.61938 15.0502C5.81938 15.2502 6.03938 15.4102 6.28938 15.5402C6.35938 15.5802 6.40937 15.6402 6.43937 15.7102C6.46937 15.7902 6.45937 15.8702 6.41937 15.9402C6.36937 16.0402 6.25937 16.1102 6.14937 16.1102L6.15938 16.1002ZM5.40938 15.0602C5.35938 15.0602 5.30938 15.0802 5.26938 15.1202C5.18938 15.2002 5.18938 15.3302 5.26938 15.4002C5.50938 15.6402 5.77937 15.8302 6.06937 15.9802C6.16937 16.0302 6.28937 15.9802 6.33937 15.8902C6.38937 15.7902 6.33937 15.6702 6.24937 15.6202C5.98937 15.4902 5.74937 15.3202 5.54937 15.1202C5.50937 15.0802 5.45938 15.0602 5.40938 15.0602Z" fill="#CBCBCB"/>
<path d="M7.51875 16.4004C7.35875 16.4004 7.21875 16.2704 7.21875 16.1104C7.21875 16.0304 7.24875 15.9504 7.29875 15.9004C7.35875 15.8404 7.42875 15.8104 7.50875 15.8104C8.19875 15.7904 8.83875 15.5104 9.31875 15.0104C9.79875 14.5104 10.0488 13.8604 10.0288 13.1704C10.0288 13.0004 10.1588 12.8704 10.3188 12.8604C10.4888 12.8604 10.6187 12.9904 10.6287 13.1504C10.6487 14.0004 10.3387 14.8104 9.74875 15.4204C9.15875 16.0404 8.36875 16.3904 7.51875 16.4104V16.4004ZM10.3287 12.9504C10.2187 12.9504 10.1287 13.0504 10.1287 13.1604C10.1487 13.8704 9.88875 14.5604 9.38875 15.0804C8.89875 15.6004 8.22875 15.9004 7.50875 15.9104C7.45875 15.9104 7.40875 15.9304 7.36875 15.9704C7.32875 16.0104 7.30875 16.0604 7.31875 16.1104C7.31875 16.2204 7.40875 16.3104 7.51875 16.3104C8.33875 16.2904 9.10875 15.9504 9.67875 15.3504C10.2488 14.7504 10.5488 13.9704 10.5288 13.1504C10.5288 13.0404 10.4387 12.9504 10.3287 12.9504Z" fill="#CBCBCB"/>
<path d="M9.5091 11.5101C9.4291 11.5101 9.3491 11.4801 9.2891 11.4201C8.9391 11.0601 8.4991 10.8101 8.0191 10.7001C7.9391 10.6801 7.8791 10.6301 7.8291 10.5701C7.7891 10.5001 7.7691 10.4201 7.7891 10.3401C7.8291 10.1801 7.9791 10.0801 8.1491 10.1201C8.7491 10.2601 9.2891 10.5701 9.7091 11.0101C9.8291 11.1301 9.8191 11.3201 9.7091 11.4301C9.6591 11.4801 9.5791 11.5101 9.4991 11.5101H9.5091ZM8.0991 10.2101C8.0091 10.2101 7.9191 10.2701 7.8991 10.3601C7.8891 10.4101 7.8991 10.4601 7.9291 10.5101C7.9591 10.5601 7.9991 10.5901 8.0491 10.6001C8.5491 10.7201 9.0091 10.9801 9.3691 11.3501C9.4391 11.4301 9.5791 11.4301 9.6491 11.3501C9.7291 11.2701 9.7291 11.1501 9.6491 11.0701C9.2391 10.6401 8.7091 10.3501 8.1391 10.2101C8.1291 10.2101 8.1091 10.2101 8.0991 10.2101Z" fill="#CBCBCB"/>
<path d="M11.3899 12.06C11.2499 12.06 11.1299 11.97 11.0999 11.83C11.0099 11.43 10.9899 11.02 11.0499 10.61C11.2799 9.11999 12.5399 7.98999 14.0399 7.91999C14.1099 7.90999 14.1899 7.91999 14.2399 7.96999C14.3099 8.01999 14.3399 8.10999 14.3499 8.19999C14.3499 8.27999 14.3299 8.35999 14.2699 8.41999C14.2199 8.47999 14.1399 8.50999 14.0599 8.51999C12.8399 8.57999 11.8199 9.49999 11.6299 10.71C11.5799 11.04 11.5899 11.38 11.6699 11.7C11.6899 11.78 11.6699 11.86 11.6299 11.93C11.5899 12 11.5199 12.05 11.4399 12.06C11.4199 12.06 11.3999 12.06 11.3699 12.06H11.3899ZM14.0799 8.00999C14.0799 8.00999 14.0599 8.00999 14.0499 8.00999C12.5899 8.07999 11.3699 9.17999 11.1499 10.62C11.0899 11.02 11.0999 11.42 11.1999 11.8C11.2199 11.89 11.2999 11.95 11.3899 11.95C11.4099 11.95 11.4199 11.95 11.4399 11.95C11.4899 11.94 11.5399 11.91 11.5599 11.86C11.5899 11.81 11.5999 11.76 11.5799 11.71C11.4999 11.37 11.4899 11.02 11.5399 10.68C11.7399 9.42999 12.7999 8.46999 14.0599 8.40999C14.1099 8.40999 14.1599 8.37999 14.1999 8.34999C14.2399 8.30999 14.2499 8.25999 14.2499 8.20999C14.2499 8.13999 14.2199 8.08999 14.1799 8.04999C14.1499 8.02999 14.1199 8.01999 14.0799 8.01999V8.00999Z" fill="#CBCBCB"/>
<path d="M12.4708 13.71C12.4008 13.71 12.3408 13.69 12.2908 13.65C12.0208 13.45 11.7808 13.2 11.5808 12.91C11.5308 12.84 11.5208 12.76 11.5308 12.69C11.5408 12.61 11.5908 12.54 11.6508 12.5C11.7208 12.45 11.7908 12.43 11.8708 12.45C11.9508 12.46 12.0208 12.51 12.0608 12.57C12.2208 12.8 12.4208 13 12.6408 13.17C12.7708 13.27 12.8008 13.46 12.7008 13.59C12.6408 13.67 12.5508 13.71 12.4608 13.71H12.4708ZM11.8308 12.54C11.8308 12.54 11.7508 12.55 11.7208 12.58C11.6808 12.61 11.6508 12.66 11.6408 12.71C11.6408 12.76 11.6408 12.82 11.6708 12.86C11.8608 13.14 12.0908 13.38 12.3608 13.57C12.4408 13.63 12.5708 13.62 12.6408 13.53C12.7108 13.44 12.6908 13.32 12.6008 13.25C12.3708 13.08 12.1708 12.87 12.0008 12.63C11.9708 12.59 11.9208 12.56 11.8708 12.55C11.8608 12.55 11.8508 12.55 11.8308 12.55V12.54Z" fill="#CBCBCB"/>
<path d="M14.2097 14.2801C14.0397 14.2801 13.8797 14.2701 13.7097 14.2401C13.5497 14.2201 13.4297 14.0601 13.4597 13.9001C13.4897 13.7301 13.6297 13.6201 13.7997 13.6501C14.4797 13.7601 15.1597 13.5901 15.7197 13.1801C16.2797 12.7701 16.6397 12.1701 16.7497 11.4901C16.7797 11.3301 16.9297 11.2201 17.0897 11.2401C17.1697 11.2501 17.2397 11.2901 17.2897 11.3601C17.3397 11.4201 17.3597 11.5001 17.3397 11.5801C17.2097 12.4201 16.7597 13.1601 16.0697 13.6601C15.5197 14.0601 14.8697 14.2701 14.1997 14.2701L14.2097 14.2801ZM13.7597 13.7501C13.6597 13.7501 13.5797 13.8201 13.5597 13.9201C13.5397 14.0301 13.6197 14.1301 13.7297 14.1501C13.8897 14.1701 14.0497 14.1901 14.2097 14.1901C14.8597 14.1901 15.4897 13.9801 16.0197 13.5901C16.6897 13.1001 17.1197 12.3901 17.2497 11.5701C17.2497 11.5201 17.2497 11.4701 17.2097 11.4201C17.1797 11.3801 17.1297 11.3501 17.0797 11.3401C16.9797 11.3301 16.8697 11.4001 16.8497 11.5101C16.7397 12.2201 16.3597 12.8401 15.7797 13.2601C15.1997 13.6801 14.4897 13.8601 13.7897 13.7501C13.7797 13.7501 13.7697 13.7501 13.7597 13.7501Z" fill="#CBCBCB"/>
<path d="M16.5896 9.79021C16.4896 9.79021 16.3996 9.74021 16.3396 9.66021C16.0596 9.25021 15.6796 8.92022 15.2196 8.73022C15.1496 8.70022 15.0896 8.64022 15.0596 8.57022C15.0296 8.50022 15.0296 8.41021 15.0596 8.34021C15.0896 8.27021 15.1496 8.21021 15.2296 8.18021C15.2996 8.15021 15.3796 8.15021 15.4596 8.18021C16.0196 8.42021 16.4996 8.82021 16.8396 9.33021C16.9296 9.47021 16.8896 9.65021 16.7596 9.75021C16.7096 9.78021 16.6496 9.80021 16.5896 9.80021V9.79021ZM15.3396 8.25021C15.3396 8.25021 15.2896 8.25021 15.2696 8.26021C15.2196 8.28021 15.1796 8.32021 15.1596 8.37021C15.1396 8.42021 15.1396 8.47022 15.1596 8.52022C15.1796 8.57022 15.2196 8.61021 15.2696 8.63021C15.7396 8.83021 16.1496 9.17021 16.4296 9.60021C16.4896 9.69021 16.6196 9.72022 16.7096 9.65022C16.7996 9.59022 16.8296 9.46021 16.7596 9.37021C16.4296 8.88021 15.9696 8.49021 15.4196 8.26021C15.3896 8.25021 15.3696 8.24021 15.3396 8.24021V8.25021Z" fill="#CBCBCB"/>
<path d="M7.13907 9.63999C7.01907 9.63999 6.90907 9.56999 6.86907 9.45999C6.79907 9.30999 6.86907 9.12999 7.01907 9.05999C9.51907 7.94999 8.63907 3.71999 8.62907 3.66999C8.60907 3.58999 8.62907 3.50999 8.66907 3.43999C8.70907 3.36999 8.77907 3.32999 8.85907 3.30999C9.01907 3.27999 9.17907 3.37999 9.21907 3.53999C9.24907 3.66999 9.48907 4.83999 9.35907 6.14999C9.19907 7.86999 8.46907 9.06999 7.25907 9.59999C7.21907 9.61999 7.17907 9.62999 7.13907 9.62999V9.63999ZM8.91907 3.41999C8.91907 3.41999 8.88907 3.41999 8.87907 3.41999C8.82907 3.42999 8.77907 3.45999 8.74907 3.50999C8.71907 3.55999 8.70907 3.60999 8.71907 3.65999C8.71907 3.69999 9.62907 8.01999 7.04907 9.15999C6.94907 9.19999 6.89907 9.31999 6.94907 9.41999C6.98907 9.51999 7.11907 9.55999 7.20907 9.51999C10.0691 8.24999 9.14907 3.75999 9.10907 3.56999C9.08907 3.47999 9.00907 3.40999 8.90907 3.40999L8.91907 3.41999Z" fill="#CBCBCB"/>
<path d="M12.8195 8.00973C11.9895 8.00973 11.2895 7.73973 10.7195 7.20973C9.35953 5.94973 9.27953 3.62973 9.26953 3.52973C9.26953 3.35973 9.39953 3.22973 9.55953 3.21973C9.63953 3.21973 9.70953 3.23973 9.76953 3.29973C9.82953 3.35973 9.86953 3.42973 9.86953 3.50973C9.86953 3.59973 9.96953 5.69973 11.1295 6.76973C11.6195 7.21973 12.2395 7.43973 12.9695 7.39973C12.9695 7.39973 12.9695 7.39973 12.9795 7.39973C13.1495 7.39973 13.2695 7.51973 13.2795 7.68973C13.2795 7.85973 13.1595 7.99973 12.9895 7.99973C12.9295 7.99973 12.8695 7.99973 12.8195 7.99973V8.00973ZM9.57953 3.31973C9.46953 3.31973 9.37953 3.41973 9.37953 3.52973C9.37953 3.62973 9.46953 5.90973 10.7995 7.13973C11.3895 7.68973 12.1295 7.93973 12.9995 7.90973C13.1095 7.90973 13.1995 7.80973 13.1895 7.69973C13.1895 7.57973 13.0995 7.50973 12.9895 7.50973C12.2295 7.53973 11.5895 7.31973 11.0795 6.84973C9.88953 5.74973 9.78953 3.60973 9.78953 3.51973C9.78953 3.46973 9.75953 3.40973 9.71953 3.37973C9.67953 3.34973 9.63953 3.32973 9.58953 3.32973L9.57953 3.31973Z" fill="#CBCBCB"/>
<path d="M13.9099 7.66993C13.7899 7.66993 13.6799 7.59993 13.6299 7.48993C13.5999 7.41993 13.5999 7.32993 13.6299 7.25993C13.6599 7.18993 13.7199 7.12993 13.7899 7.09993C15.7499 6.27993 15.2999 2.72993 15.2899 2.69993C15.2799 2.61993 15.2899 2.53993 15.3499 2.47993C15.3999 2.41993 15.4699 2.36993 15.5499 2.35993C15.6199 2.34993 15.6999 2.35993 15.7699 2.40993C15.8399 2.45993 15.8799 2.52993 15.8899 2.60993C15.9099 2.76993 16.4199 6.64993 14.0199 7.64993C13.9799 7.66993 13.9399 7.66993 13.8999 7.66993H13.9099ZM15.5999 2.44993C15.5999 2.44993 15.5799 2.44993 15.5699 2.44993C15.5199 2.44993 15.4699 2.48993 15.4399 2.52993C15.4099 2.56993 15.3899 2.62993 15.3999 2.67993C15.4199 2.82993 15.8699 6.33993 13.8399 7.18993C13.7899 7.20993 13.7499 7.24993 13.7299 7.29993C13.7099 7.34993 13.7099 7.39993 13.7299 7.44993C13.7699 7.54993 13.8899 7.59993 13.9899 7.55993C16.3099 6.58993 15.8199 2.78993 15.7899 2.62993C15.7899 2.57993 15.7499 2.52993 15.7099 2.49993C15.6799 2.46993 15.6399 2.45993 15.5999 2.45993V2.44993Z" fill="#CBCBCB"/>
<path d="M18.7696 10.7098C18.7196 10.7098 18.6596 10.6998 18.6196 10.6698C16.3996 9.34977 15.8796 7.30977 15.8396 5.83977C15.7896 4.22977 16.2696 2.94977 16.2896 2.88977C16.3196 2.80977 16.3696 2.75977 16.4496 2.71977C16.5196 2.68977 16.6096 2.68977 16.6796 2.71977C16.8296 2.77977 16.9096 2.94977 16.8496 3.10977C16.7796 3.29977 15.0696 7.85977 18.9296 10.1598C19.0696 10.2398 19.1196 10.4298 19.0296 10.5698C18.9796 10.6598 18.8796 10.7198 18.7696 10.7198V10.7098ZM16.5696 2.79977C16.5696 2.79977 16.5196 2.79977 16.4896 2.81977C16.4396 2.83977 16.3996 2.87977 16.3796 2.92977C16.3596 2.97977 15.8896 4.24977 15.9396 5.83977C15.9796 7.28977 16.4896 9.28977 18.6696 10.5898C18.7596 10.6398 18.8896 10.6098 18.9396 10.5198C18.9996 10.4298 18.9596 10.2998 18.8696 10.2498C14.9396 7.90977 16.6796 3.27977 16.7496 3.07977C16.7896 2.97977 16.7396 2.85977 16.6396 2.81977C16.6196 2.81977 16.5896 2.80977 16.5696 2.80977V2.79977Z" fill="#CBCBCB"/>
<path d="M20.9386 11.38C20.1486 11.38 19.6186 11.22 19.5986 11.22C19.4386 11.17 19.3486 11 19.3986 10.85C19.4486 10.69 19.6186 10.61 19.7686 10.65C19.9086 10.69 23.2086 11.68 25.3286 8.14003C25.3686 8.07003 25.4386 8.02003 25.5186 8.00003C25.5986 7.98003 25.6786 8.00003 25.7386 8.04003C25.8086 8.08003 25.8586 8.15003 25.8786 8.22003C25.8986 8.30003 25.8786 8.38003 25.8486 8.45003C24.3986 10.88 22.3786 11.39 20.9386 11.39V11.38ZM19.6886 10.73C19.5986 10.73 19.5186 10.78 19.4986 10.87C19.4686 10.98 19.5286 11.09 19.6286 11.12C19.6486 11.12 20.1686 11.28 20.9386 11.28C22.3486 11.28 24.3386 10.78 25.7686 8.39003C25.7986 8.34003 25.8086 8.29003 25.7886 8.24003C25.7786 8.19003 25.7486 8.15003 25.6986 8.12003C25.6586 8.09003 25.5986 8.09003 25.5486 8.10003C25.4986 8.11003 25.4486 8.15003 25.4286 8.19003C23.2686 11.79 19.8986 10.79 19.7486 10.74C19.7286 10.74 19.7086 10.74 19.6886 10.74V10.73Z" fill="#CBCBCB"/>
<path d="M25.5995 14.5701C25.4795 14.5701 25.3695 14.5001 25.3195 14.3801C23.8195 10.6301 25.7895 8.68008 25.8695 8.60008C25.9895 8.49008 26.1795 8.49008 26.2895 8.60008C26.3995 8.72008 26.3995 8.91008 26.2895 9.02008C26.2195 9.09008 24.5295 10.7801 25.8795 14.1501C25.9095 14.2201 25.9095 14.3101 25.8795 14.3801C25.8495 14.4501 25.7895 14.5101 25.7195 14.5401C25.6795 14.5501 25.6495 14.5601 25.6095 14.5601L25.5995 14.5701ZM26.0795 8.61008C26.0795 8.61008 25.9795 8.63008 25.9395 8.67008C25.8595 8.75008 23.9295 10.6601 25.4095 14.3401C25.4495 14.4401 25.5695 14.4901 25.6695 14.4501C25.7195 14.4301 25.7595 14.3901 25.7795 14.3401C25.7995 14.2901 25.7995 14.2401 25.7795 14.1901C24.3995 10.7601 26.1395 9.02008 26.2195 8.95008C26.2995 8.87008 26.2995 8.75008 26.2195 8.67008C26.1795 8.63008 26.1295 8.61008 26.0795 8.61008Z" fill="#CBCBCB"/>
<path d="M30.0901 17.0201C27.3601 17.0201 26.0101 15.4301 25.9601 15.3601C25.8501 15.2301 25.8701 15.0401 26.0001 14.9401C26.0601 14.8901 26.1401 14.8601 26.2201 14.8701C26.3001 14.8701 26.3701 14.9101 26.4201 14.9801C26.4801 15.0501 27.9601 16.7701 31.0201 16.3601C31.0901 16.3501 31.1601 16.3601 31.2301 16.4101C31.3001 16.4601 31.3501 16.5401 31.3601 16.6201C31.3701 16.7001 31.3501 16.7801 31.3001 16.8401C31.2501 16.9001 31.1801 16.9401 31.1001 16.9601C30.7701 17.0001 30.4301 17.0301 30.1001 17.0301L30.0901 17.0201ZM26.1901 14.9701C26.1901 14.9701 26.1001 14.9901 26.0601 15.0201C25.9801 15.0901 25.9601 15.2201 26.0301 15.3001C26.0901 15.3701 27.4101 16.9201 30.0901 16.9201C30.4201 16.9201 30.7501 16.9001 31.0801 16.8501C31.1301 16.8501 31.1801 16.8201 31.2101 16.7701C31.2401 16.7301 31.2601 16.6801 31.2501 16.6201C31.2501 16.5601 31.2101 16.5101 31.1601 16.4801C31.1201 16.4501 31.0701 16.4401 31.0301 16.4501C27.9201 16.8701 26.4001 15.1101 26.3401 15.0401C26.3001 15.0001 26.2601 14.9701 26.2001 14.9701C26.2001 14.9701 26.1901 14.9701 26.1801 14.9701H26.1901Z" fill="#CBCBCB"/>
<path d="M28.2797 22.2398C28.1197 22.2398 27.9897 22.1098 27.9797 21.9498C27.8197 17.6598 31.4497 16.9198 31.4797 16.9198C31.5597 16.8998 31.6397 16.9198 31.6997 16.9698C31.7697 17.0198 31.8097 17.0798 31.8297 17.1598C31.8397 17.2398 31.8297 17.3198 31.7797 17.3798C31.7297 17.4498 31.6697 17.4898 31.5897 17.5098C31.5097 17.5298 30.7297 17.6898 29.9797 18.3098C28.9897 19.1398 28.5097 20.3498 28.5697 21.9298C28.5697 22.0098 28.5397 22.0898 28.4897 22.1398C28.4397 22.1998 28.3597 22.2298 28.2797 22.2398ZM31.5397 17.0098C31.5397 17.0098 31.5197 17.0098 31.5097 17.0098C31.4697 17.0098 27.9297 17.7398 28.0897 21.9398C28.0897 22.0498 28.1797 22.1298 28.2897 22.1298C28.3997 22.1298 28.4797 22.0298 28.4797 21.9198C28.4397 20.8098 28.6597 19.2698 29.9197 18.2198C30.6797 17.5898 31.4797 17.4198 31.5697 17.3998C31.6197 17.3998 31.6697 17.3598 31.6997 17.3198C31.7297 17.2798 31.7397 17.2198 31.7297 17.1698C31.7297 17.1198 31.6897 17.0698 31.6497 17.0398C31.6197 17.0198 31.5797 16.9998 31.5397 16.9998V17.0098Z" fill="#CBCBCB"/>
<path d="M30.8395 27.6598C30.8395 27.6598 30.7495 27.6598 30.7095 27.6298C27.9395 26.3198 28.1095 23.0698 28.1095 23.0398C28.1095 22.8798 28.2495 22.7698 28.4195 22.7598C28.4995 22.7598 28.5795 22.7998 28.6295 22.8598C28.6795 22.9198 28.7095 22.9998 28.6995 23.0798C28.6995 23.1998 28.5395 25.9498 30.9595 27.0898C31.0295 27.1198 31.0895 27.1798 31.1095 27.2598C31.1395 27.3398 31.1295 27.4198 31.0995 27.4898C31.0495 27.5898 30.9395 27.6598 30.8295 27.6598H30.8395ZM28.4195 22.8598C28.3195 22.8598 28.2195 22.9298 28.2095 23.0498C28.2095 23.0798 28.0495 26.2598 30.7495 27.5398C30.7795 27.5498 30.8095 27.5598 30.8295 27.5598C30.9095 27.5598 30.9795 27.5198 31.0095 27.4398C31.0295 27.3898 31.0295 27.3398 31.0095 27.2898C30.9895 27.2398 30.9595 27.1998 30.9095 27.1798C28.4295 26.0098 28.5895 23.1998 28.5995 23.0798C28.5995 22.9698 28.5195 22.8698 28.4095 22.8698L28.4195 22.8598Z" fill="#CBCBCB"/>
<path d="M30.1293 28.0498C30.0393 28.0498 29.9593 28.0098 29.8993 27.9398C27.8293 25.4398 26.9193 25.7098 26.9093 25.7098C26.8493 25.7398 26.7693 25.7498 26.6993 25.7298C26.6193 25.7098 26.5593 25.6498 26.5193 25.5798C26.4493 25.4298 26.5093 25.2498 26.6593 25.1698C26.7793 25.1098 27.9293 24.6198 30.3693 27.5598C30.4193 27.6198 30.4493 27.6998 30.4393 27.7798C30.4293 27.8598 30.3993 27.9298 30.3293 27.9798C30.2693 28.0198 30.2093 28.0498 30.1393 28.0498H30.1293ZM26.9993 25.5998C27.3293 25.5998 28.2793 25.8198 29.9793 27.8698C30.0493 27.9498 30.1793 27.9698 30.2593 27.8998C30.2993 27.8698 30.3293 27.8198 30.3293 27.7698C30.3293 27.7198 30.3193 27.6598 30.2893 27.6198C27.8593 24.6898 26.7493 25.2298 26.7093 25.2498C26.6093 25.2998 26.5693 25.4298 26.6193 25.5198C26.6393 25.5698 26.6893 25.6098 26.7393 25.6198C26.7793 25.6298 26.8393 25.6198 26.8793 25.6098C26.8793 25.6098 26.9193 25.5898 27.0093 25.5898L26.9993 25.5998Z" fill="#CBCBCB"/>
<path d="M36.4788 70.6696C36.4788 70.6696 36.4588 70.6696 36.4488 70.6696C36.4388 70.6696 36.4288 70.6496 36.4288 70.6396L35.5488 65.7096C35.5488 65.7096 35.5488 65.6796 35.5488 65.6696C35.5488 65.6596 35.5688 65.6496 35.5788 65.6496L38.9288 65.1196C38.9288 65.1196 38.9788 65.1296 38.9888 65.1596L39.8688 69.9996C39.8688 69.9996 39.8588 70.0496 39.8288 70.0596L36.4788 70.6796V70.6696ZM35.6588 65.7296L36.5188 70.5596L39.7688 69.9596L38.9088 65.2096L35.6588 65.7196V65.7296Z" fill="#CBCBCB"/>
<path d="M38.3286 79.9998C38.3286 79.9998 38.2886 79.9798 38.2786 79.9598L37.3086 75.1098C37.3086 75.1098 37.3186 75.0598 37.3486 75.0498L40.6086 74.3398C40.6086 74.3398 40.6386 74.3398 40.6486 74.3398C40.6586 74.3398 40.6686 74.3598 40.6686 74.3698L41.6386 79.2998C41.6386 79.2998 41.6386 79.3298 41.6386 79.3398C41.6386 79.3498 41.6186 79.3598 41.6086 79.3598L38.3486 79.9798L38.3286 79.9998ZM37.4186 75.1398L38.3686 79.8898L41.5286 79.2898L40.5786 74.4598L37.4186 75.1398Z" fill="#CBCBCB"/>
<path d="M16.8282 59.3896C16.8282 59.3896 16.8282 59.3896 16.8182 59.3896L9.9482 57.8896C9.9482 57.8896 9.9082 57.8596 9.9082 57.8296L10.6182 54.5696C10.6182 54.5696 10.6282 54.5496 10.6382 54.5396C10.6482 54.5396 10.6582 54.5296 10.6782 54.5396L17.5482 56.1296C17.5482 56.1296 17.5882 56.1596 17.5882 56.1896L16.8782 59.3596C16.8782 59.3596 16.8482 59.3996 16.8282 59.3996V59.3896ZM10.0182 57.8096L16.7882 59.2796L17.4682 56.2096L10.6982 54.6496L10.0182 57.8096Z" fill="#CBCBCB"/>
<path d="M34.8887 60.8896C34.8887 60.8896 34.8387 60.8696 34.8387 60.8496L34.1387 55.9196C34.1387 55.9196 34.1487 55.8696 34.1787 55.8596L37.4387 55.3296C37.4387 55.3296 37.4687 55.3296 37.4787 55.3296C37.4887 55.3296 37.4987 55.3496 37.4987 55.3596L38.2087 60.3796C38.2087 60.3796 38.2087 60.4096 38.2087 60.4196C38.2087 60.4296 38.1887 60.4396 38.1787 60.4396L34.9187 60.8796L34.8887 60.8896ZM34.2387 55.9496L34.9287 60.7796L38.0887 60.3496L37.3987 55.4296L34.2387 55.9396V55.9496Z" fill="#CBCBCB"/>
<path d="M30.8373 67.6698C30.8373 67.6698 30.8373 67.6698 30.8273 67.6698L27.5673 66.8798C27.5673 66.8798 27.5273 66.8498 27.5273 66.8198L28.5873 61.9798C28.5873 61.9798 28.6173 61.9298 28.6473 61.9398L31.9073 62.6398C31.9073 62.6398 31.9473 62.6698 31.9473 62.6998L30.8873 67.6298C30.8873 67.6298 30.8773 67.6498 30.8673 67.6598C30.8673 67.6598 30.8473 67.6598 30.8373 67.6598V67.6698ZM27.6373 66.7898L30.7973 67.5598L31.8373 62.7198L28.6773 62.0398L27.6373 66.7898Z" fill="#CBCBCB"/>
<path d="M28.3684 78.5098C28.3684 78.5098 28.3684 78.5098 28.3584 78.5098L25.0984 77.7998C25.0984 77.7998 25.0784 77.7898 25.0684 77.7798C25.0684 77.7698 25.0684 77.7598 25.0684 77.7398L26.2184 72.8098C26.2184 72.8098 26.2284 72.7898 26.2384 72.7798C26.2484 72.7798 26.2684 72.7798 26.2784 72.7798L29.4484 73.5698C29.4484 73.5698 29.4884 73.5998 29.4884 73.6298L28.4284 78.4698C28.4284 78.4698 28.3984 78.5098 28.3784 78.5098H28.3684ZM25.1684 77.7198L28.3284 78.3998L29.3684 73.6498L26.2884 72.8798L25.1684 77.7098V77.7198Z" fill="#CBCBCB"/>
<path d="M25.638 61.4195C25.638 61.4195 25.638 61.4195 25.628 61.4195L20.788 60.2695C20.788 60.2695 20.748 60.2395 20.748 60.2095L21.458 56.9495C21.458 56.9495 21.468 56.9295 21.478 56.9195C21.488 56.9195 21.498 56.9095 21.518 56.9195L26.358 58.0695C26.358 58.0695 26.398 58.0995 26.398 58.1295L25.688 61.3895C25.688 61.3895 25.678 61.4095 25.668 61.4195C25.668 61.4195 25.648 61.4195 25.638 61.4195ZM20.848 60.1895L25.598 61.3095L26.278 58.1495L21.528 57.0295L20.848 60.1895Z" fill="#CBCBCB"/>
</g>
<defs>
<clipPath id="clip0_962_29391">
<rect width="40.88" height="79.95" fill="white" transform="translate(0.759766 0.0498047)"/>
</clipPath>
</defs>
</svg>
