<svg width="58" height="113" viewBox="0 0 58 113" fill="none" xmlns="http://www.w3.org/2000/svg">
<g clip-path="url(#clip0_848_86371)">
<g clip-path="url(#clip1_848_86371)">
<path d="M8.42474 53.8847L13 52.2926L11.7299 49.1222L10.4598 45.8271L6 47.4193L7.2701 50.7004L8.42474 53.8847Z" fill="#FFAE37" fill-opacity="0.4"/>
<path d="M4.06994 43.8129L9 42.4865L7.92628 38.9545L6.86767 35.4076L5.79395 31.7266L1 33.1722L2.07372 36.7191L3.13233 40.266L4.06994 43.8129Z" fill="#FFAE37" fill-opacity="0.4"/>
<path d="M5.4873 29.4937L5.00254 26.0762L0.487305 26.6874L0.972069 30.1049L5.4873 29.4937Z" fill="#FFAE37" fill-opacity="0.4"/>
<path d="M0.484765 26.6909L5 26.0817L4.51524 22.6621L0 23.2713L0.484765 26.6909Z" fill="#FFAE37" fill-opacity="0.4"/>
<path d="M3.44215 19.6407L4.58471 16.3155L5.72727 12.9904L7 9.79099L3.55785 8.56152L2.41529 11.8867L1.14256 15.2118L0 18.5369L3.44215 19.6407Z" fill="#FFAE37" fill-opacity="0.4"/>
<path d="M11 2.02042L11.5736 5.53988L14.7803 4.79593L18 4.03767L17.3091 0.503906L14.1024 1.26216L14.2719 2.16349L14.1024 1.26216L11 2.02042Z" fill="#FFAE37" fill-opacity="0.4"/>
<path d="M17.2939 0.609162L18.0006 4.02878L21.2939 3.29501L20.5873 0L17.2939 0.609162Z" fill="#FFAE37" fill-opacity="0.4"/>
<path d="M30.0718 3.11358L27.5431 0.503906L25 3.00073L27.5431 5.48345L29.9425 8.09313L32.4713 10.5758L35 8.09313L32.6006 5.61041L30.0718 3.11358Z" fill="#FFAE37" fill-opacity="0.4"/>
<path d="M38.0959 12.5898L34 14.4865L35.4384 17.567L38 16.3832L35.4384 17.567L36.8904 20.6474L41 18.7642L39.5479 15.6703L38.0959 12.5898Z" fill="#FFAE37" fill-opacity="0.4"/>
<path d="M43.3405 30.4879L42.6809 27.0715L41.8865 23.6689L37 24.6372L37.7944 27.9291L38.454 31.3455L39.1135 34.7481L44 33.9044L43.3405 30.4879Z" fill="#FFAE37" fill-opacity="0.4"/>
<path d="M44.7507 42.4656L44.626 38.7773L40 39.0377L40.1108 42.5957L40.2355 46.1683L40.3601 49.8565L45 49.6106L44.8753 46.0381L44.7507 42.4656Z" fill="#FFAE37" fill-opacity="0.4"/>
<path d="M18 19.2194L15.3006 17.626L14 21.0685L16.6994 22.6619L18 19.2194Z" fill="#FFAE37" fill-opacity="0.4"/>
<path d="M26.2621 21.178L24.7842 24.4023L27.9855 25.8908L29.4634 22.6665L26.2621 21.178Z" fill="#FFAE37" fill-opacity="0.4"/>
<path d="M15.9061 38.1681L14.4277 41.2676L17.5051 42.7566L18.9835 39.6571L15.9061 38.1681Z" fill="#FFAE37" fill-opacity="0.4"/>
<path d="M25.5719 47.8418L24 50.573L27.4281 51.8706L29 49.1518L25.5719 47.8418Z" fill="#FFAE37" fill-opacity="0.4"/>
<path d="M18 31.7337L27.0217 35.7558L29 31.7337L19.9783 27.6982L18 31.7337Z" fill="#FFAE37" fill-opacity="0.4"/>
<path d="M36 40.3708L33.3006 38.7773L32 42.2349L34.8098 43.8133L36 40.3708Z" fill="#FFAE37" fill-opacity="0.4"/>
<path d="M13.1351 61.6227L15.2838 64.237L17.5405 66.9786L21 63.9968L18.7297 61.2553L16.5946 58.5137L15.2432 59.7291L16.5946 58.5137L14.4459 55.8994L11 58.8812L13.1351 61.6227Z" fill="#FFAE37" fill-opacity="0.4"/>
<path d="M42 58.6406L37.913 55.8994L36 59.2014L40.2174 61.9426L42 58.6406Z" fill="#FFAE37" fill-opacity="0.4"/>
<path d="M39.913 52.8779L38 56.1728L42.087 58.9211L44 55.4857L39.913 52.8779Z" fill="#FFAE37" fill-opacity="0.4"/>
<path d="M33.2381 63.957L26 65.0378L26.7766 70.0002L34 68.9194L33.2381 63.957Z" fill="#FFAE37" fill-opacity="0.4"/>
</g>
<path d="M48.3369 92.7992L49.559 99.4792L54.2111 98.6526L52.9751 92.0811L48.3369 92.7992Z" fill="#FFAE37" fill-opacity="0.4"/>
<path d="M55.3931 105.126L51.1523 106.027L52.4142 112.17L56.6549 111.396L55.3931 105.126Z" fill="#FFAE37" fill-opacity="0.4"/>
<path d="M22.5808 79.3465L13.392 77.2715L12.4424 81.5259L21.6311 83.4835L22.5808 79.3465Z" fill="#FFAE37" fill-opacity="0.4"/>
<path d="M47.4272 86.0856L52.1683 85.4613L51.1502 78.3379L46.4092 79.09L47.4272 86.0856Z" fill="#FFAE37" fill-opacity="0.4"/>
<path d="M43.06 88.6319L38.753 87.7295L37.3525 93.9816L41.6596 95L43.06 88.6319Z" fill="#FFAE37" fill-opacity="0.4"/>
<path d="M39.623 103.963L35.2991 102.911L33.7305 109.472L38.1772 110.404L39.623 103.963Z" fill="#FFAE37" fill-opacity="0.4"/>
<path d="M35.0664 82.1255L28.6259 80.6484L27.6963 84.8724L34.1236 86.3495L35.0664 82.1255Z" fill="#FFAE37" fill-opacity="0.4"/>
</g>
<defs>
<clipPath id="clip0_848_86371">
<rect width="58" height="113" fill="white"/>
</clipPath>
<clipPath id="clip1_848_86371">
<rect width="45" height="70" fill="white"/>
</clipPath>
</defs>
</svg>
