<?xml version="1.0" encoding="utf-8"?>
<!-- Generator: Adobe Illustrator 26.4.1, SVG Export Plug-In . SVG Version: 6.00 Build 0)  -->
<svg version="1.1" id="Layer_1" xmlns="http://www.w3.org/2000/svg" xmlns:xlink="http://www.w3.org/1999/xlink" x="0px" y="0px"
	 viewBox="0 0 23 24.2" style="enable-background:new 0 0 23 24.2;" xml:space="preserve">
<style type="text/css">
	.st0{opacity:0.7;fill:#F4A19D;enable-background:new    ;}
	.st1{fill:none;stroke:#939599;stroke-width:0.4;stroke-linecap:round;stroke-linejoin:round;stroke-miterlimit:10;}
	.st2{fill-rule:evenodd;clip-rule:evenodd;fill:#939599;}
</style>
<g>
	<g>
		<polygon class="st0" points="16.4,16.3 10.6,16.3 10.6,7.8 4.2,7.8 16.4,7.8 16.4,0.3 0.3,0.3 0.3,7.8 3,7.8 3,16.3 4.2,16.3 
			0.3,16.3 0.3,23.9 16.4,23.9 		"/>
		<g id="WIPEOUT_00000168817692730665708910000009289568216342641075_">
			<polyline class="st1" points="0.3,0.3 0.3,7.8 3,7.8 3,16.3 0.3,16.3 0.3,23.9 16.4,23.9 16.4,16.3 15.2,16.3 15.2,7.8 16.4,7.8 
				16.4,0.3 0.3,0.3 			"/>
		</g>
		<line class="st1" x1="15.2" y1="16.3" x2="3" y2="16.3"/>
		<line class="st1" x1="3" y1="7.8" x2="15.2" y2="7.8"/>
	</g>
	<g id="HATCH_00000155139086315167272700000002778783208895462564_">
		<polygon class="st2" points="2,12.1 0.3,13.1 0.3,11.1 		"/>
	</g>
	<g>
		<g>
			<line class="st1" x1="15.2" y1="12.1" x2="22.7" y2="12.1"/>
			<line class="st1" x1="22.7" y1="12.1" x2="20.2" y2="13.6"/>
			<line class="st1" x1="22.7" y1="12.1" x2="20.2" y2="10.6"/>
		</g>
	</g>
</g>
</svg>
