<?xml version="1.0" encoding="utf-8"?>
<!-- Generator: Adobe Illustrator 26.4.1, SVG Export Plug-In . SVG Version: 6.00 Build 0)  -->
<svg version="1.1" id="Layer_1" xmlns="http://www.w3.org/2000/svg" xmlns:xlink="http://www.w3.org/1999/xlink" x="0px" y="0px"
	 viewBox="0 0 223.5 141.7" style="enable-background:new 0 0 223.5 141.7;" xml:space="preserve">
<style type="text/css">
	.st0{fill:#DBE2D8;}
	.st1{fill:#879384;}
	.st2{fill:#E3E1CE;}
	.st3{fill:none;stroke:#020203;stroke-width:0.2;stroke-linecap:round;stroke-linejoin:round;stroke-miterlimit:10;}
	.st4{opacity:0.3;}
	.st5{fill:#8FA487;}
	.st6{opacity:0.2;fill:#C8E3D0;}
	.st7{fill:none;stroke:#1A1A1A;stroke-width:0.2;stroke-linecap:round;stroke-linejoin:round;stroke-miterlimit:10;}
	.st8{fill:#ACC6A4;}
	.st9{opacity:0.7;fill:#C8E3D0;}
	.st10{opacity:0.3;fill:#879384;}
	.st11{fill:#BFBEBE;}
	.st12{fill:#F4D6D2;}
	.st13{fill:#CEB0AC;}
	.st14{fill:#816663;}
	.st15{fill:#AF9391;}
	.st16{opacity:0.6;fill:#E2E2E1;}
	.st17{fill:#FFFFFF;stroke:#1A1A1A;stroke-width:0.2;stroke-linecap:round;stroke-linejoin:round;stroke-miterlimit:10;}
	.st18{fill:#BED0E7;}
	.st19{fill:#E2E2E1;}
	.st20{fill:#BEB5B1;}
	.st21{fill:#FBFBFA;stroke:#1A1A1A;stroke-width:0.2;stroke-linecap:round;stroke-linejoin:round;stroke-miterlimit:10;}
	.st22{fill:#1A1A1A;}
	.st23{fill:#F1F3F2;stroke:#1A1A1A;stroke-width:0.2;stroke-linecap:round;stroke-linejoin:round;stroke-miterlimit:10;}
	.st24{fill:#CAB39B;}
</style>
<g>
	<path class="st0" d="M223.6,64.2c1.6,40.4-27.2,62.7-55.6,56.4c-28.4-6.3-48.6,0.6-60.3,6.8S24,123,33.9,83.9S60,12.7,100.8,32.1
		s68.2,0.6,91-2.9C214.6,25.8,222.7,41.3,223.6,64.2z"/>
	<path class="st1" d="M35.2,122c11.5,14.5,17.2,9.6,36.1,16.5c18.8,6.9,143,4.2,143.9-23.4c1.4-40.6-121.5-18.7-138.4-16.5
		C47.1,102.4,13.2,94.1,35.2,122z"/>
	<g>
		<polygon class="st2" points="172.8,98.7 106,97.7 50.4,106.8 45.6,106.8 40.9,106.8 36.1,106.8 31.4,106.8 26.6,106.8 21.9,106.8 
			17.2,106.8 12.4,106.8 0.5,120.6 0.5,121.6 5.3,121.6 10,121.6 14.8,121.6 19.5,121.6 24.3,121.6 29,121.6 33.8,121.6 38.5,121.6 
			77.3,132.1 144.1,133 199.7,124 211.6,110.1 211.6,109.2 		"/>
		<g>
			<path class="st3" d="M174.1,98.1l-66.8-1l-55.6,9.1L39.9,120l38.8,10.5l66.8,1l55.6-9.1l11.9-13.8L174.1,98.1z M195.4,121.8
				l-51.4,8.4l-61.7-0.9l-35.9-9.7l11-12.8l51.4-8.4l61.7,0.9l35.9,9.7L195.4,121.8z"/>
			<path class="st3" d="M170.5,99.4l-61.7-0.9l-51.4,8.4l-11,12.8l35.9,9.7l61.7,0.9l51.4-8.4l11-12.8L170.5,99.4z M190.4,121.2
				l-47.7,7.8l-57.2-0.8l-33.3-9l10.2-11.8l47.7-7.8l57.2,0.8l33.3,9L190.4,121.2z"/>
			<polygon class="st3" points="78.7,131.5 39.9,121 39.9,120 78.7,130.5 			"/>
			<polygon class="st3" points="145.5,132.5 78.7,131.5 78.7,130.5 145.5,131.5 			"/>
			<polygon class="st3" points="201.1,123.4 145.5,132.5 145.5,131.5 201.1,122.4 			"/>
			<path class="st3" d="M167.3,100.4l-57.2-0.8l-47.7,7.8l-10.2,11.8l33.3,9l57.2,0.8l47.7-7.8l10.2-11.8L167.3,100.4z M185,120.7
				l-27.3,4.5l-16.3,2.7L89.9,127l-0.9,0l-30.5-8.2l9.3-10.8l43.6-7.1l52.4,0.8l30.5,8.2L185,120.7z"/>
			<path class="st3" d="M163.9,101.6l-52.4-0.8L67.8,108l-9.3,10.8L89,127l52.4,0.8l43.6-7.1l9.3-10.8L163.9,101.6z M180.1,120.1
				l-25,4.1l-14.9,2.4L92.9,126l-0.8,0l-27.9-7.5l8.5-9.9l40-6.5l48,0.7l27.9,7.5L180.1,120.1z"/>
			<path class="st3" d="M160.7,102.7l-48-0.7l-40,6.5l-8.5,9.9l27.9,7.5l48,0.7l40-6.5l8.5-9.9L160.7,102.7z M175.6,119.6l-22.9,3.7
				l-13.7,2.2L95.8,125l-0.7,0l-25.5-6.9l7.8-9.1l36.6-6l43.9,0.6l25.5,6.9L175.6,119.6z"/>
			<path class="st3" d="M157.8,103.7l-43.9-0.6l-36.6,6l-7.8,9.1L95,125l43.9,0.6l36.6-6l7.8-9.1L157.8,103.7z M171.4,119.2l-21,3.4
				l-12.5,2l-39.6-0.6l-0.7,0l-23.4-6.3l7.2-8.3l33.5-5.5l40.2,0.6l23.4,6.3L171.4,119.2z"/>
			<path class="st3" d="M155.2,104.6l-40.2-0.6l-33.5,5.5l-7.2,8.3l23.4,6.3l40.2,0.6l33.5-5.5l7.2-8.3L155.2,104.6z M167.6,118.8
				l-19.2,3.1l-11.5,1.9l-36.2-0.5l-0.6,0l-21.4-5.8l6.5-7.6l30.7-5l36.8,0.5l21.4,5.8L167.6,118.8z"/>
			<g>
				<polygon class="st3" points="47,106.2 51.8,106.2 39.9,120 35.2,120 				"/>
				<polygon class="st3" points="42.3,106.2 47,106.2 35.2,120 30.4,120 				"/>
				<polygon class="st3" points="37.5,106.2 42.3,106.2 30.4,120 25.7,120 				"/>
				<polygon class="st3" points="32.8,106.2 37.5,106.2 25.7,120 20.9,120 				"/>
				<polygon class="st3" points="28,106.2 32.8,106.2 20.9,120 16.2,120 				"/>
				<polygon class="st3" points="23.3,106.2 28,106.2 16.2,120 11.4,120 				"/>
				<polygon class="st3" points="18.5,106.2 23.3,106.2 11.4,120 6.7,120 				"/>
				<polygon class="st3" points="13.8,106.2 18.5,106.2 6.7,120 1.9,120 				"/>
				<rect x="1.9" y="120" class="st3" width="4.7" height="1"/>
				<rect x="6.7" y="120" class="st3" width="4.7" height="1"/>
				<rect x="11.4" y="120" class="st3" width="4.7" height="1"/>
				<rect x="16.2" y="120" class="st3" width="4.7" height="1"/>
				<rect x="20.9" y="120" class="st3" width="4.7" height="1"/>
				<rect x="25.7" y="120" class="st3" width="4.7" height="1"/>
				<rect x="30.4" y="120" class="st3" width="4.7" height="1"/>
				<rect x="35.2" y="120" class="st3" width="4.7" height="1"/>
			</g>
			<polygon class="st3" points="213,109.6 201.1,123.4 201.1,122.4 213,108.6 			"/>
		</g>
	</g>
	<g>
		<g class="st4">
			<path class="st1" d="M191.9,95.3c-10.7,0-21.4,0-32.1,0c-2.3,0-4.6,0-6.8-0.4c-2.2-0.4-4.3-1.3-5.5-2.7
				c13.9-4.6,31.2-3.6,43.9,2.5"/>
		</g>
		<path class="st5" d="M160.4,71.6c0,0-9.4,7.5-9.4-8.8s4-4.5,4-4.5s-1.9,7.9-1.7,1c0.2-6.9,1.3-28.1,6.1-20.7s-13.1-7.5-6.8-16.3
			c6.3-8.8,6.8-17.8,12.1-7.5s1.2,11.7-1.7,1.5c-2.9-10.1,0.8-27.1,7.6-7.3c6.9,19.8,1.1,27.5-2.1,27.5c-3.2,0-0.7-4,3.2-4.4
			c3.9-0.4,9.5,14.2,7.8,18.9c0,0,9.9-2.6,5.8,11.9c0,0,4.7,4,1.5,15.2s-8.4,8.2-9.3,4.8c-0.9-3.5,15.5,4.3,9.7,10.2h-33.6
			c0,0-6.7-4.2-4.9-8.1s9.2-8.2,11-7.3C159.8,77.8,155.2,66.1,160.4,71.6z"/>
		<path class="st6" d="M155.9,42.6c-1.3,3,0.6,12.1,2.3,9.4s3.5-9.4,1.7-9.4S156.5,41.2,155.9,42.6z"/>
		<path class="st6" d="M169.5,67.7c-2.2,5,1,20.2,3.9,15.7c2.9-4.5,5.8-15.7,2.9-15.7C173.3,67.7,170.5,65.4,169.5,67.7z"/>
		<path class="st6" d="M172.6,37.7c1-3.5-1.9-2.3-3.3,2c-1.4,4.3-2.5,9.8-0.7,6.3S172.2,39.3,172.6,37.7z"/>
		<path class="st6" d="M158.3,66.4c0.4-1.7-1.1-4-1.8-2.1c-0.7,1.8-1.1,5.1-0.2,4.2C157.2,67.6,158.1,67.2,158.3,66.4z"/>
		<path class="st6" d="M168.3,24.7c0.4-1.7-1.1-4-1.8-2.1c-0.7,1.8-1.1,5.1-0.2,4.2C167.2,25.9,168.2,25.5,168.3,24.7z"/>
		<path class="st6" d="M159.9,18.1c1-2.3-1.3-3.6-2.7-1c-1.4,2.6-2.6,6.6-1,4.9C157.7,20.3,159.4,19.1,159.9,18.1z"/>
		<path class="st7" d="M159.3,71.6c0,0-9.4,7.5-9.4-8.8s4-4.5,4-4.5s-1.9,7.9-1.7,1c0.2-6.9,1.3-28.1,6.1-20.7s-13.1-7.5-6.8-16.3
			s6.8-17.8,12.1-7.5s1.2,11.7-1.7,1.5c-2.9-10.1,0.8-27.1,7.6-7.3c6.9,19.8,1.1,27.5-2.1,27.5c-3.2,0-0.7-4,3.2-4.4
			c3.9-0.4,9.5,14.2,7.8,18.9c0,0,9.9-2.6,5.8,11.9c0,0,4.7,4,1.5,15.2s-8.4,8.2-9.3,4.8c-0.9-3.5,15.5,4.3,9.7,10.2h-33.6
			c0,0-6.7-4.2-4.9-8.1s9.2-8.2,11-7.3C158.8,77.8,154.2,66.1,159.3,71.6z"/>
	</g>
	<g>
		<g class="st4">
			<path class="st1" d="M67.5,99.4c-8.4,0-16.7,0-25.1,0c-1.8,0-3.6,0-5.3,0.2c-1.7,0.2-3.4,0.7-4.3,1.5c10.9,2.6,24.3,2,34.3-1.4"
				/>
		</g>
		<path class="st5" d="M57.1,92.3c0,0,7.4,2.9,7.4-3.4c0-6.2-3.1-1.7-3.1-1.7s1.5,3,1.3,0.4c-0.1-2.6-1-10.8-4.8-7.9
			s10.2-2.9,5.3-6.2c-4.9-3.4-5.3-6.8-9.4-2.9c-4.1,4-1,4.5,1.3,0.6c2.3-3.9-0.6-10.3-6-2.8S48.3,79,50.8,79c2.5,0,0.5-1.5-2.5-1.7
			c-3-0.2-7.4,5.4-6.1,7.2c0,0-7.7-1-4.6,4.6c0,0-3.7,1.5-1.2,5.8s6.6,3.2,7.3,1.8c0.7-1.3-12.1,1.7-7.6,3.9h26.2
			c0,0,5.2-1.6,3.8-3.1c-1.4-1.5-7.2-3.1-8.6-2.8C57.6,94.7,61.2,90.2,57.1,92.3z"/>
		<path class="st6" d="M60.6,81.2c1,1.2-0.5,4.6-1.8,3.6c-1.4-1-2.7-3.6-1.4-3.6C58.8,81.2,60.2,80.7,60.6,81.2z"/>
		<path class="st6" d="M50,90.9c1.7,1.9-0.8,7.7-3,6c-2.3-1.7-4.5-6-2.3-6S49.2,90,50,90.9z"/>
		<path class="st6" d="M47.6,79.4c-0.8-1.3,1.5-0.9,2.6,0.8c1.1,1.7,1.9,3.7,0.6,2.4C49.4,81.2,47.9,80,47.6,79.4z"/>
		<path class="st6" d="M58.7,90.3c-0.3-0.7,0.9-1.5,1.4-0.8c0.5,0.7,0.8,1.9,0.2,1.6C59.6,90.8,58.9,90.6,58.7,90.3z"/>
		<path class="st6" d="M50.9,74.4c-0.3-0.7,0.9-1.5,1.4-0.8c0.5,0.7,0.8,1.9,0.2,1.6C51.8,74.8,51.1,74.7,50.9,74.4z"/>
		<path class="st6" d="M57.6,71.9c-0.8-0.9,1-1.4,2.1-0.4s2,2.5,0.8,1.9C59.2,72.7,57.9,72.3,57.6,71.9z"/>
		<path class="st7" d="M57.9,92.3c0,0,7.4,2.9,7.4-3.4c0-6.2-3.1-1.7-3.1-1.7s1.5,3,1.3,0.4c-0.1-2.6-1-10.8-4.8-7.9
			c-3.8,2.8,10.2-2.9,5.3-6.2c-4.9-3.4-5.3-6.8-9.4-2.9c-4.1,4-1,4.5,1.3,0.6c2.3-3.9-0.6-10.3-6-2.8S49.1,79,51.6,79
			c2.5,0,0.5-1.5-2.5-1.7c-3-0.2-7.4,5.4-6.1,7.2c0,0-7.7-1-4.6,4.6c0,0-3.7,1.5-1.2,5.8c2.5,4.3,6.6,3.2,7.3,1.8
			c0.7-1.3-12.1,1.7-7.6,3.9h26.2c0,0,5.2-1.6,3.8-3.1c-1.4-1.5-7.2-3.1-8.6-2.8C58.4,94.7,62,90.2,57.9,92.3z"/>
	</g>
	<g>
		<g class="st4">
			<path class="st1" d="M70.4,100.9c-4.2,0-8.3,0-12.5,0c-0.9,0-1.8,0-2.6,0.2c-0.9,0.2-1.7,0.5-2.1,1.1c5.4,1.9,12.1,1.5,17.1-1"/>
		</g>
		<path class="st8" d="M56.6,102.1c0,0-7.3-9.3-3.5-11.5c0,0-6.8-7.1-1.3-8.2s4.6,3.5,4.6,3.5s-5.1-3-2.8-7.4c2.3-4.4,5.7,0,5.7,0
			s1-3.4,2.3-2.1s0,3,0,3s-0.8-3.7,1.5-2.3c2.3,1.4,7.7,0.6,3.5,8.8s-2.6,1.6-0.7-1.5c1.9-3.2,6.5-8.1,7-0.7
			c0.4,7.4-5,12.5-8.5,11.4c-3.5-1.1,0.2-2.1,1.6-1.2c1.4,0.9,6.8,1.4,3.5,5c0,0-2.5,3.3-5.8,3.3S56.6,102.1,56.6,102.1z"/>
		<path class="st9" d="M52.6,91.6c0,0,0-2,1.3-2c1.3,0,6.1,2.7,3.8,3.1C55.3,93.1,53.9,93.1,52.6,91.6z"/>
		<path class="st9" d="M54.9,78.2c0,0,0.2-1,1.4-0.3c1.2,0.7,5.5,4.4,3.3,3.4C57.3,80.3,55.9,79.6,54.9,78.2z"/>
		<path class="st9" d="M67.7,86.5c0,0-1.1-1.1-0.4-2.6c0.7-1.5,4.6-5.6,3.6-2.7S69.2,85.8,67.7,86.5z"/>
		<path class="st7" d="M56.1,101.7c0,0-7.3-9.3-3.5-11.5c0,0-6.8-7.1-1.3-8.2s4.6,3.5,4.6,3.5s-5.1-3-2.8-7.4c2.3-4.4,5.7,0,5.7,0
			s1-3.4,2.3-2.1c1.2,1.3,0,3,0,3s-0.8-3.7,1.5-2.3s7.7,0.6,3.5,8.8c-4.3,8.2-2.6,1.6-0.7-1.5c1.9-3.2,6.5-8.1,7-0.7
			c0.4,7.4-5,12.5-8.5,11.4c-3.5-1.1,0.2-2.1,1.6-1.2c1.4,0.9,6.8,1.4,3.5,5c0,0-2.5,3.3-5.8,3.3C59.8,101.7,56.1,101.7,56.1,101.7z
			"/>
	</g>
	<g>
		<g class="st4">
			<path class="st1" d="M178.1,97.1c7.2,0,14.4,0,21.6,0c1.5,0,3.1,0,4.6,0.2c1.5,0.2,2.9,0.7,3.7,1.5c-9.4,2.6-21,2.1-29.6-1.4"/>
		</g>
		<path class="st8" d="M201.8,98.8c0,0,12.7-8.9,6.1-11.1c0,0,11.7-6.8,2.3-7.9s-7.9,3.4-7.9,3.4s8.9-2.9,4.8-7.1s-9.8,0-9.8,0
			s-1.8-3.3-3.9-2s0,2.9,0,2.9s1.4-3.5-2.7-2.2c-4.1,1.3-13.4,0.6-6,8.4c7.4,7.9,4.6,1.6,1.3-1.5c-3.3-3.1-11.3-7.8-12.1-0.7
			c-0.8,7.1,8.7,12,14.8,11s-0.3-2-2.8-1.2c-2.5,0.9-11.7,1.3-6,4.8c0,0,4.4,3.2,10,3.2C195.5,98.8,201.8,98.8,201.8,98.8z"/>
		<path class="st9" d="M208.9,88.7c0,0,0.1-1.9-2.2-1.9c-2.3,0-10.7,2.6-6.6,3C204.1,90.1,206.6,90.1,208.9,88.7z"/>
		<path class="st9" d="M204.9,75.8c0,0-0.3-0.9-2.5-0.3c-2.2,0.6-9.5,4.2-5.6,3.3C200.6,77.9,203,77.1,204.9,75.8z"/>
		<path class="st9" d="M182.6,83.8c0,0,1.9-1,0.8-2.5c-1.2-1.5-7.9-5.4-6.3-2.6C178.7,81.5,180,83.1,182.6,83.8z"/>
		<path class="st7" d="M202.7,98.4c0,0,12.7-8.9,6.1-11.1c0,0,11.7-6.8,2.3-7.9c-9.4-1.1-7.9,3.4-7.9,3.4s8.9-2.9,4.8-7.1
			s-9.8,0-9.8,0s-1.8-3.3-3.9-2c-2.2,1.3,0,2.9,0,2.9s1.4-3.5-2.7-2.2c-4.1,1.3-13.4,0.6-6,8.4c7.4,7.9,4.6,1.6,1.3-1.5
			c-3.3-3.1-11.3-7.8-12.1-0.7c-0.8,7.1,8.7,12,14.8,11c6.1-1.1-0.3-2-2.8-1.2c-2.5,0.9-11.7,1.3-6,4.8c0,0,4.4,3.2,10,3.2
			C196.4,98.4,202.7,98.4,202.7,98.4z"/>
	</g>
	<g>
		<path class="st10" d="M113.2,116.1c1.5,0.8,2.3,0.5,4.8,0.9s19.2,0.2,19.3-1.2c0.2-2.1-16.3-1-18.6-0.9
			C114.8,115.1,110.2,114.6,113.2,116.1z"/>
		<g>
			<path class="st11" d="M118.4,95.6c-1.6,8.7-2.2,20.2-1.6,20.2c0.7-0.1,1.5-17.6,2.9-22.5c1.4-4.9,1.4-5.1,0.6-5.4
				S118.8,93.4,118.4,95.6z"/>
			<path class="st7" d="M118.2,95.6c-1.6,8.7-2.2,20.2-1.6,20.2c0.7-0.1,1.5-17.6,2.9-22.5c1.4-4.9,1.4-5.1,0.6-5.4
				S118.6,93.4,118.2,95.6z"/>
			<g>
				<path class="st11" d="M131.4,95.6c1.6,8.7,2.2,20.2,1.6,20.2c-0.7-0.1-1.5-17.6-2.9-22.5s-1.4-5.1-0.6-5.4
					C130.3,87.5,131,93.4,131.4,95.6z"/>
				<path class="st7" d="M131.6,95.6c1.6,8.7,2.2,20.2,1.6,20.2c-0.7-0.1-1.5-17.6-2.9-22.5c-1.4-4.9-1.4-5.1-0.6-5.4
					C130.5,87.5,131.1,93.4,131.6,95.6z"/>
			</g>
			<g>
				<path class="st11" d="M125,96.1c-0.1,8.8-0.1,20.1-0.6,19.9c-0.6-0.2,0.3-17.4-0.1-22.5c-0.4-5.1,0.1-5.6,0.9-5.7
					C125.9,87.7,125,93.9,125,96.1z"/>
				<path class="st7" d="M125.1,96.2c-0.1,8.8-0.1,20.1-0.6,19.9c-0.6-0.2,0.3-17.4-0.1-22.5c-0.4-5.1,0.1-5.6,0.9-5.7
					S125.2,93.9,125.1,96.2z"/>
			</g>
			<path class="st11" d="M122.7,96.3c6.2-0.1,10.2-0.2,10,0.5c-0.2,0.7-9.6,0.4-13.2,0.3c-2.1-0.1-2.6,0.5-2.6-0.5
				C116.8,95.7,121.1,96.3,122.7,96.3z"/>
			<path class="st7" d="M122.8,96.1c6.2-0.1,10.2-0.2,10,0.5s-9.6,0.2-13.2,0.3c-2.4,0-2.6,0.5-2.6-0.5
				C116.8,95.5,121.2,96.1,122.8,96.1z"/>
			<g>
				<path class="st12" d="M112.2,80.7c0,0,17.8,0.6,24.9,0.1c0,0,0,10.8-13.5,10.6C118,91.2,111.9,85.7,112.2,80.7z"/>
				<path class="st13" d="M125.2,89.8c-1.2-0.3,5.8-0.5,8.1-6.4c0.4-1.2,2.2-0.4,1.3,1.2C133.8,86.1,129.6,90.8,125.2,89.8z"/>
			</g>
			<path class="st7" d="M112.1,80.8c0,0,18,0.4,25.2-0.1c0,0-0.4,10.6-13.9,10.3C117.7,90.9,111.7,85.8,112.1,80.8z"/>
			<g>
				<rect x="112.1" y="80.3" class="st11" width="25.2" height="0.3"/>
				<rect x="112.1" y="80.2" class="st7" width="25.2" height="0.3"/>
			</g>
		</g>
	</g>
	<g>
		<g>
			<g>
				<path class="st14" d="M117,80.2c-0.1,0-0.2,0-0.3,0c-1,0-1.9-0.3-2.6-0.7c-0.2-0.1-0.3-0.4-0.2-0.6c0.1-0.2,0.4-0.3,0.7-0.2
					c0.6,0.3,1.4,0.5,2.2,0.5c1,0,1.9-0.1,2.6-0.5c0.2-0.1,0.5-0.1,0.7,0.2c0.1,0.2,0.1,0.5-0.2,0.6C119,80,118,80.2,117,80.2z"/>
			</g>
			<g>
				<path class="st15" d="M115.1,79.1c0,0,0.3,0.3,0.4,0.6C115.4,79.7,115.5,79.3,115.1,79.1z"/>
				<path class="st15" d="M115.4,79.1c0,0-0.1,0.4-0.3,0.6C115.1,79.7,115.4,79.6,115.4,79.1z"/>
			</g>
			<g>
				<path class="st15" d="M116.2,79.4c0,0,0.4,0.2,0.6,0.4C116.8,79.8,116.6,79.4,116.2,79.4z"/>
				<path class="st15" d="M116.5,79.3c0,0,0,0.4,0,0.7C116.4,80,116.7,79.7,116.5,79.3z"/>
			</g>
			<g>
				<path class="st15" d="M117.5,79.4c0,0,0.4,0.1,0.6,0.3C118.1,79.7,118,79.4,117.5,79.4z"/>
				<path class="st15" d="M117.8,79.2c0,0,0.1,0.4,0.1,0.7C117.8,79.9,118.1,79.6,117.8,79.2z"/>
			</g>
			<g>
				<path class="st15" d="M118.7,79.2c0,0,0.4,0,0.7,0.1C119.4,79.3,119.1,79,118.7,79.2z"/>
				<path class="st15" d="M118.9,78.9c0,0,0.2,0.4,0.2,0.7C119.1,79.6,119.3,79.2,118.9,78.9z"/>
			</g>
		</g>
		<g>
			<path class="st7" d="M117,80.2c-0.1,0-0.2,0-0.3,0c-1,0-1.9-0.3-2.6-0.7c-0.2-0.1-0.3-0.4-0.2-0.6c0.1-0.2,0.4-0.3,0.7-0.2
				c0.6,0.3,1.4,0.5,2.2,0.5c1,0,1.9-0.1,2.6-0.5c0.2-0.1,0.5-0.1,0.7,0.2c0.1,0.2,0.1,0.5-0.2,0.6C119,80,118,80.2,117,80.2z"/>
		</g>
	</g>
	<g>
		<g>
			<g>
				<path class="st14" d="M124.2,80.2c-0.1,0-0.2,0-0.3,0c-1,0-1.9-0.3-2.6-0.7c-0.2-0.1-0.3-0.4-0.2-0.6c0.1-0.2,0.4-0.3,0.7-0.2
					c0.6,0.3,1.4,0.5,2.2,0.5c1,0,1.9-0.1,2.6-0.5c0.2-0.1,0.5-0.1,0.7,0.2c0.1,0.2,0.1,0.5-0.2,0.6C126.3,80,125.3,80.2,124.2,80.2
					z"/>
			</g>
			<g>
				<path class="st15" d="M122.3,79.1c0,0,0.3,0.3,0.4,0.6C122.7,79.7,122.8,79.3,122.3,79.1z"/>
				<path class="st15" d="M122.7,79.1c0,0-0.1,0.4-0.3,0.6C122.3,79.7,122.7,79.6,122.7,79.1z"/>
			</g>
			<g>
				<path class="st15" d="M123.4,79.4c0,0,0.4,0.2,0.6,0.4C124,79.8,123.9,79.4,123.4,79.4z"/>
				<path class="st15" d="M123.7,79.3c0,0,0,0.4,0,0.7C123.7,80,124,79.7,123.7,79.3z"/>
			</g>
			<g>
				<path class="st15" d="M124.8,79.4c0,0,0.4,0.1,0.6,0.3C125.4,79.7,125.2,79.4,124.8,79.4z"/>
				<path class="st15" d="M125,79.2c0,0,0.1,0.4,0.1,0.7C125.1,79.9,125.3,79.6,125,79.2z"/>
			</g>
			<g>
				<path class="st15" d="M125.9,79.2c0,0,0.4,0,0.7,0.1C126.6,79.3,126.4,79,125.9,79.2z"/>
				<path class="st15" d="M126.2,78.9c0,0,0.2,0.4,0.2,0.7C126.4,79.6,126.5,79.2,126.2,78.9z"/>
			</g>
		</g>
		<g>
			<path class="st7" d="M124.2,80.2c-0.1,0-0.2,0-0.3,0c-1,0-1.9-0.3-2.6-0.7c-0.2-0.1-0.3-0.4-0.2-0.6c0.1-0.2,0.4-0.3,0.7-0.2
				c0.6,0.3,1.4,0.5,2.2,0.5c1,0,1.9-0.1,2.6-0.5c0.2-0.1,0.5-0.1,0.7,0.2c0.1,0.2,0.1,0.5-0.2,0.6C126.3,80,125.3,80.2,124.2,80.2z
				"/>
		</g>
	</g>
	<g>
		<g>
			<g>
				<path class="st14" d="M131.4,80.2c-0.1,0-0.2,0-0.3,0c-1,0-1.9-0.3-2.6-0.7c-0.2-0.1-0.3-0.4-0.2-0.6c0.1-0.2,0.4-0.3,0.7-0.2
					c0.6,0.3,1.4,0.5,2.2,0.5c1,0,1.9-0.1,2.6-0.5c0.2-0.1,0.5-0.1,0.7,0.2c0.1,0.2,0.1,0.5-0.2,0.6C133.4,80,132.4,80.2,131.4,80.2
					z"/>
			</g>
			<g>
				<path class="st15" d="M129.4,79.1c0,0,0.3,0.3,0.4,0.6C129.8,79.7,129.9,79.3,129.4,79.1z"/>
				<path class="st15" d="M129.8,79.1c0,0-0.1,0.4-0.3,0.6C129.4,79.7,129.8,79.6,129.8,79.1z"/>
			</g>
			<g>
				<path class="st15" d="M130.5,79.4c0,0,0.4,0.2,0.6,0.4C131.1,79.8,131,79.4,130.5,79.4z"/>
				<path class="st15" d="M130.9,79.3c0,0,0,0.4,0,0.7C130.8,80,131.1,79.7,130.9,79.3z"/>
			</g>
			<g>
				<path class="st15" d="M131.9,79.4c0,0,0.4,0.1,0.6,0.3C132.5,79.7,132.4,79.4,131.9,79.4z"/>
				<path class="st15" d="M132.2,79.2c0,0,0.1,0.4,0.1,0.7C132.2,79.9,132.5,79.6,132.2,79.2z"/>
			</g>
			<g>
				<path class="st15" d="M133,79.2c0,0,0.4,0,0.7,0.1C133.7,79.3,133.5,79,133,79.2z"/>
				<path class="st15" d="M133.3,78.9c0,0,0.2,0.4,0.2,0.7C133.5,79.6,133.7,79.2,133.3,78.9z"/>
			</g>
		</g>
		<g>
			<path class="st7" d="M131.4,80.2c-0.1,0-0.2,0-0.3,0c-1,0-1.9-0.3-2.6-0.7c-0.2-0.1-0.3-0.4-0.2-0.6c0.1-0.2,0.4-0.3,0.7-0.2
				c0.6,0.3,1.4,0.5,2.2,0.5c1,0,1.9-0.1,2.6-0.5c0.2-0.1,0.5-0.1,0.7,0.2c0.1,0.2,0.1,0.5-0.2,0.6C133.4,80,132.4,80.2,131.4,80.2z
				"/>
		</g>
	</g>
	<g>
		<path class="st16" d="M118.3,75.2c0,0-0.4-1,0.4-0.9c0.8,0.1,0.6,0.9,0.6,0.9s1.3,0.2,1,0.6c-0.4,0.4-1,0.5-1,0.5
			s-0.1,0.8-0.4,0.5c-0.3-0.3-0.6,0.2-0.4-0.4c0,0-0.8,0.5-0.5-0.4C118,76.1,117.2,75.2,118.3,75.2z"/>
		<path class="st7" d="M118.2,75.2c0,0-0.4-1,0.4-0.9c0.8,0.1,0.6,0.9,0.6,0.9s1.3,0.2,1,0.6s-1,0.5-1,0.5s-0.1,0.8-0.4,0.5
			c-0.3-0.3-0.6,0.2-0.4-0.4c0,0-0.8,0.5-0.5-0.4C117.9,76,117.2,75.2,118.2,75.2z"/>
	</g>
	<g>
		<path class="st16" d="M119.6,73.8c0,0-0.4-0.2-0.1-0.4c0.3-0.2,0.5,0.1,0.5,0.1s0.5-0.3,0.5-0.1c0,0.2-0.2,0.4-0.2,0.4
			s0.2,0.3,0,0.3c-0.2,0-0.2,0.2-0.3,0c0,0-0.1,0.4-0.3,0C119.8,74.1,119.3,74,119.6,73.8z"/>
		<path class="st7" d="M119.6,73.8c0,0-0.4-0.2-0.1-0.4c0.3-0.2,0.5,0.1,0.5,0.1s0.5-0.3,0.5-0.1c0,0.2-0.2,0.4-0.2,0.4
			s0.2,0.3,0,0.3c-0.2,0-0.2,0.2-0.3,0c0,0-0.1,0.4-0.3,0C119.7,74.1,119.2,74,119.6,73.8z"/>
	</g>
	<g>
		<path class="st16" d="M121.5,77.2c0,0,0.6-0.4,0.1-0.6c-0.5-0.3-0.6,0.2-0.6,0.2s-0.8-0.4-0.7-0.1s0.4,0.6,0.4,0.6s-0.3,0.4,0,0.4
			c0.3,0,0.2,0.3,0.4,0c0,0,0.2,0.6,0.4,0C121.4,77.8,122.1,77.6,121.5,77.2z"/>
		<path class="st7" d="M121.6,77.2c0,0,0.6-0.4,0.1-0.6s-0.6,0.2-0.6,0.2s-0.8-0.4-0.7-0.1s0.4,0.6,0.4,0.6s-0.3,0.4,0,0.4
			c0.3,0,0.2,0.3,0.4,0c0,0,0.2,0.6,0.4,0C121.4,77.7,122.1,77.6,121.6,77.2z"/>
	</g>
	<g>
		<path class="st16" d="M122.3,70.5c0,0,0.5,0.1,0.3-0.3c-0.1-0.3-0.4-0.2-0.4-0.2s-0.2-0.5-0.4-0.4c-0.1,0.2-0.1,0.5-0.1,0.5
			s-0.4,0.1-0.2,0.2c0.2,0.1,0,0.3,0.2,0.1c0,0-0.1,0.4,0.2,0.2C122,70.8,122.4,71,122.3,70.5z"/>
		<path class="st7" d="M122.3,70.5c0,0,0.5,0.1,0.3-0.3c-0.1-0.3-0.4-0.2-0.4-0.2s-0.2-0.5-0.4-0.4c-0.1,0.2-0.1,0.5-0.1,0.5
			s-0.4,0.1-0.2,0.2c0.2,0.1,0,0.3,0.2,0.1c0,0-0.1,0.4,0.2,0.2C122,70.8,122.5,71,122.3,70.5z"/>
	</g>
	<g>
		<path class="st16" d="M131.1,75.6c0,0,0.4-1-0.4-0.9s-0.6,0.9-0.6,0.9s-1.3,0.2-1,0.6c0.4,0.4,1,0.5,1,0.5s0.1,0.8,0.4,0.5
			c0.3-0.3,0.6,0.2,0.4-0.4c0,0,0.8,0.5,0.5-0.4C131.4,76.5,132.1,75.6,131.1,75.6z"/>
		<path class="st7" d="M131.1,75.6c0,0,0.4-1-0.4-0.9s-0.6,0.9-0.6,0.9s-1.3,0.2-1,0.6c0.4,0.4,1,0.5,1,0.5s0.1,0.8,0.4,0.5
			c0.3-0.3,0.6,0.2,0.4-0.4c0,0,0.8,0.5,0.5-0.4C131.5,76.4,132.2,75.6,131.1,75.6z"/>
	</g>
	<g>
		<path class="st16" d="M129,74.7c0,0,0.4-0.2,0.1-0.4c-0.3-0.2-0.5,0.1-0.5,0.1s-0.5-0.3-0.5-0.1c0,0.2,0.2,0.4,0.2,0.4
			s-0.2,0.3,0,0.3c0.2,0,0.2,0.2,0.3,0c0,0,0.1,0.4,0.3,0C128.9,75.1,129.4,75,129,74.7z"/>
		<path class="st7" d="M129.1,74.7c0,0,0.4-0.2,0.1-0.4s-0.5,0.1-0.5,0.1s-0.5-0.3-0.5-0.1c0,0.2,0.2,0.4,0.2,0.4s-0.2,0.3,0,0.3
			c0.2,0,0.2,0.2,0.3,0c0,0,0.1,0.4,0.3,0C128.9,75.1,129.4,75,129.1,74.7z"/>
	</g>
	<g>
		<path class="st16" d="M129.1,72.3c0,0-0.5,0.1-0.3-0.3s0.4-0.2,0.4-0.2s0.2-0.5,0.4-0.4c0.1,0.2,0.1,0.5,0.1,0.5s0.4,0.1,0.2,0.2
			c-0.2,0.1,0,0.3-0.2,0.1c0,0,0.1,0.4-0.2,0.2C129.4,72.5,128.9,72.7,129.1,72.3z"/>
		<path class="st7" d="M129,72.3c0,0-0.5,0.1-0.3-0.3c0.1-0.3,0.4-0.2,0.4-0.2s0.2-0.5,0.4-0.4s0.1,0.5,0.1,0.5s0.4,0.1,0.2,0.2
			c-0.2,0.1,0,0.3-0.2,0.1c0,0,0.1,0.4-0.2,0.2C129.4,72.6,128.9,72.8,129,72.3z"/>
	</g>
	<path class="st17" d="M139,65.6C139,65.6,139,65.6,139,65.6C139,65.6,139,65.6,139,65.6z"/>
	<g>
		<path class="st10" d="M79.2,116.7c1.5,0.8,2.3,0.5,4.8,0.9c2.5,0.4,19.2,0.2,19.3-1.2c0.2-2.1-16.3-1-18.6-0.9
			C80.8,115.7,76.3,115.3,79.2,116.7z"/>
		<g>
			<path class="st14" d="M94.7,56.1c0,0,0.6-0.7,0.4-1.7c0,0-0.6-3.6-5.9-3.1c-3.3,0.3-3.7,4.4-3.8,5.9c-0.3,3.4-4,3.6-5.2,5.1
				s-0.6,3.7,1.2,4.2c3.6,0.9,6.1,1.1,8.1-1.6c0.8-1,2.7,0.4,4.5-1c1.8-1.4,0-4.9-0.2-5.5S94.7,56.1,94.7,56.1"/>
			<path class="st14" d="M88.3,114.1l0.2-2l2.8,0.3l0.5,1.7c1.5-0.3,5.7,2,5.7,2h-3.6H88L88.3,114.1z"/>
			<path class="st7" d="M88.4,114.1l0.2-2l2.8,0.3l0.5,1.7c1.5-0.3,5.7,2,5.7,2h-3.6h-5.9L88.4,114.1z"/>
			<path class="st14" d="M84.5,114.4l0.2-2l2.8,0.3l0.5,1.7c1.5-0.3,5.7,2,5.7,2h-3.6h-5.9L84.5,114.4z"/>
			<path class="st7" d="M84.6,114.4l0.2-2l2.8,0.3l0.5,1.7c1.5-0.3,5.7,2,5.7,2h-3.6h-5.9L84.6,114.4z"/>
			<path class="st18" d="M88.1,112.7c0,0,1.6-21-0.3-30.6c0.6,0.5,1.5,0.7,2.5,0.7c1.2,0,2.5-0.4,3.7-0.8c0.2,1.4,0.5,4.8,0.4,9.6
				c-0.1,5.2-0.9,13.4-2.8,21.4L88.1,112.7z"/>
			<path class="st7" d="M88.2,112.6c0,0,1.6-21-0.3-30.6c0.6,0.5,1.5,0.7,2.5,0.7c1.2,0,2.5-0.4,3.7-0.8c0.2,1.4,0.5,4.8,0.4,9.6
				c-0.1,5.2-0.9,13.4-2.8,21.4L88.2,112.6z"/>
			<path class="st18" d="M84.3,112.7c0,0,1.6-21-0.3-30.6c0.6,0.5,1.5,0.7,2.5,0.7c1.2,0,2.5-0.4,3.7-0.8c0.2,1.4,0.5,4.8,0.4,9.6
				c-0.1,5.2-0.9,13.4-2.8,21.4L84.3,112.7z"/>
			<path class="st7" d="M84.5,112.6c0,0,1.6-21-0.3-30.6c0.6,0.5,1.5,0.7,2.5,0.7c1.2,0,2.5-0.4,3.7-0.8c0.2,1.4,0.5,4.8,0.4,9.6
				c-0.1,5.2-0.9,13.4-2.8,21.4L84.5,112.6z"/>
			<g>
				<path class="st19" d="M89.7,67.1c0.1-0.3,0.6-1.5,1.3-2.5c0.8-1.2,1.9-2.2,2.9-1c1.5,1.8-0.6,7,0.2,9.3c0.2,0.7,0.9,1.6,1.7,2.5
					c2.1,2.3,5.5,4.9,7.3,5l-0.6,1.3l-0.3,0.6l-0.1,0.2l-0.4,0.8c0,0-0.2-0.1-0.7-0.2c-0.6-0.2-1.5-0.6-2.6-1.1
					c-3.1-1.5-7.6-4.1-8.8-7.2c0-0.1-0.1-0.2-0.1-0.3C88.2,70.6,89.4,67.9,89.7,67.1z"/>
				<path class="st7" d="M89.7,67c0.1-0.3,0.6-1.5,1.3-2.5c0.8-1.2,1.9-2.2,2.9-1c1.5,1.8-0.6,7,0.2,9.3c0.2,0.7,0.9,1.6,1.7,2.5
					c2.1,2.3,5.5,4.9,7.3,5l-0.6,1.3l-0.3,0.6l-0.1,0.2l-0.4,0.8c0,0-0.2-0.1-0.7-0.2c-0.6-0.2-1.5-0.6-2.6-1.1
					c-3.1-1.5-7.6-4.1-8.8-7.2c0-0.1-0.1-0.2-0.1-0.3C88.1,70.4,89.4,67.7,89.7,67z"/>
			</g>
			<path class="st20" d="M87.7,61.7c-1.7,0.7-2.7,0.9-3.8,3.2c-1.7,3.5-1.4,10.2-1.4,10.2c0.1,1.9,0.2,4.1,0.6,6.5
				c0.1,0.5,0.3,0.9,0.6,1.2c0.6,0.7,1.6,1.1,2.7,1.3c1.4,0.3,2.9,0.3,4.4,0.1c1.2-0.2,2.3-0.5,3.1-0.8c1.2-0.6,2-1.9,2-1.9
				c0.4-0.9,0.5-1.9,0.6-3.2c0-1,0-2.1,0.1-3.4c0.6-11.1-3-12.4-3-12.4c-0.6-0.2-1.1-0.5-1.6-0.6C91.8,61.9,89.1,61.3,87.7,61.7z"/>
			<path class="st7" d="M87.7,61.7c-1.7,0.7-2.7,0.9-3.8,3.2c-1.7,3.5-1.4,10.2-1.4,10.2c0.1,1.9,0.2,4.1,0.6,6.5
				c0.1,0.5,0.3,0.9,0.6,1.2c0.6,0.7,1.6,1.1,2.7,1.3c1.4,0.3,2.9,0.3,4.4,0.1c1.2-0.2,2.3-0.5,3.1-0.8c1.2-0.6,2-1.9,2-1.9
				c0.4-0.9,0.5-1.9,0.6-3.2c0-1,0-2.1,0.1-3.4c0.6-11.1-3-12.4-3-12.4c-0.6-0.2-1.1-0.5-1.6-0.6C91.8,61.9,89.1,61.3,87.7,61.7z"/>
			<g>
				<path class="st19" d="M82,67.6c0.1-0.3,0.6-1.5,1.3-2.5c0.8-1.2,1.9-2.2,2.9-1c1.5,1.8-0.6,7,0.2,9.3c0.2,0.7,0.9,1.6,1.7,2.5
					c2.1,2.3,5.5,4.9,7.3,5l-0.6,1.3l-0.3,0.6l-0.1,0.2l-0.4,0.8c0,0-0.2-0.1-0.7-0.2c-0.6-0.2-1.5-0.6-2.6-1.1
					c-3.1-1.5-7.6-4.1-8.8-7.2c0-0.1-0.1-0.2-0.1-0.3C80.5,71,81.7,68.3,82,67.6z"/>
				<path class="st7" d="M82,67.5c0.1-0.3,0.6-1.5,1.3-2.5c0.8-1.2,1.9-2.2,2.9-1c1.5,1.8-0.6,7,0.2,9.3c0.2,0.7,0.9,1.6,1.7,2.5
					c2.1,2.3,5.5,4.9,7.3,5l-0.6,1.3l-0.3,0.6l-0.1,0.2l-0.4,0.8c0,0-0.2-0.1-0.7-0.2c-0.6-0.2-1.5-0.6-2.6-1.1
					c-3.1-1.5-7.6-4.1-8.8-7.2c0-0.1-0.1-0.2-0.1-0.3C80.4,70.9,81.7,68.2,82,67.5z"/>
			</g>
			<path class="st21" d="M88.6,61.9C88.6,61.9,88.6,61.9,88.6,61.9l0-2.7c0,0,0,0,0,0c0.3,0.6,1.2,1.7,2.9,2.1c0.1,0,0.2,0,0.4,0
				c0,0.5,0,1,0,1.4c0,0.1,0,0.1,0,0.2c0.7,0.5-0.2,1.1-1.1,1.1C88.5,63.9,88.6,61.9,88.6,61.9z"/>
			<path class="st21" d="M94.3,54.9c0-0.1-0.1-0.3-0.1-0.4c0,0,0,0,0,0c0-0.1,0-0.1-0.1-0.2c0,0,0,0,0,0c0-0.1-0.1-0.1-0.1-0.2
				c0,0,0,0,0,0c0-0.1-0.1-0.1-0.1-0.2c0,0,0,0,0,0c0-0.1-0.1-0.1-0.1-0.2c0,0,0,0,0,0c-0.1-0.1-0.2-0.2-0.4-0.3
				c0,0-0.2,0.9-0.8,1.5c-0.5,0.5-1.3,0.7-2.6,0.2c0,0.9-0.2,1.3-0.4,1.4c-0.2,0.2-0.4,0.1-0.4,0.1c0-0.8-0.7-0.7-0.7-0.7s0,0,0,0
				c0,0-0.1,0-0.1,0c-0.1,0-0.1,0-0.2,0.1c0,0,0,0,0,0c-0.1,0-0.1,0.1-0.2,0.1c0,0,0,0,0,0c0,0-0.1,0.1-0.1,0.2c0,0,0,0,0,0
				c0,0.1-0.1,0.1-0.1,0.2c0,0.1,0,0.3,0,0.5c0,0,0,0,0,0c0,0.1,0,0.1,0.1,0.2c0,0,0,0,0,0.1c0,0.1,0.1,0.1,0.1,0.1c0,0,0,0,0,0
				c0,0,0.1,0.1,0.1,0.1c0,0,0,0,0,0c0,0,0.1,0.1,0.1,0.1c0,0,0,0,0,0c0,0,0,0,0.1,0c0,0,0,0,0,0c0,0,0,0,0,0c0,0,0,0,0,0
				c0,0,0,0,0,0c0,0,0,0,0,0c0,0,0,0,0,0c0,0,0,0,0.1,0c0,0,0,0,0,0c0,0,0,0,0,0c0,0,0,0,0,0c0,0,0,0,0,0c0,0,0,0,0,0c0,0,0,0,0,0
				s0.2,0.7-0.2,1.3c0,0,0,0,0,0c0.3,0.6,1.2,1.7,2.9,2.1c0.1,0,0.2,0,0.4,0c1-0.2,2.1-1.4,2.5-2.9C94.5,57.6,94.5,55.9,94.3,54.9z"
				/>
			<g>
				<path class="st22" d="M93.6,56.2c-0.1,0-0.2,0.1-0.2,0.2c0,0.1,0.1,0.2,0.2,0.2c0.1,0,0.2-0.1,0.2-0.2
					C93.8,56.3,93.7,56.2,93.6,56.2z"/>
				<ellipse class="st22" cx="90.9" cy="56.4" rx="0.2" ry="0.2"/>
				<path class="st7" d="M92.7,56.5c0,0-0.5,0.9,0.3,0.9c0,0,0.1,0.7-0.9,0.5"/>
				<path class="st7" d="M93,59.1c0,0-1.1,0.4-1.8-0.3"/>
			</g>
			<path class="st7" d="M88.1,59.6c0.9-0.7,0.7-1.8,0.7-1.8s-0.7,0.2-1-0.8s0.7-1.1,0.7-1.1s0.7-0.1,0.7,0.7c0,0,0.8,0.3,0.8-1.5
				c2.9,1.2,3.4-1.7,3.4-1.7c1.1,0.7,1,2.4,1,2.4s0.6-0.7,0.4-1.7c0,0-0.6-3.6-5.9-3.1c-3.3,0.3-3.7,4.4-3.8,5.9
				c-0.3,3.4-4,3.6-5.2,5.1c-1.2,1.5-0.6,3.7,1.2,4.2c0,0,0.5,0.1,1.2,0"/>
			<path class="st7" d="M93.3,53c0,0-0.8-1.5-2.2-1.7"/>
		</g>
		<path class="st17" d="M102.9,80.6l-1.2,2.4c0,0,1.5,1.7,3.2,1.4c1.7-0.3,2.8-3.1,1.9-3.3C105.8,81,104,80.7,102.9,80.6z"/>
		<g>
			<path class="st19" d="M103.9,83c-0.1,0-0.1-0.2-0.1-0.4c0.2-0.6,3.9-8.2,3.9-8.2s0.3,0.1,0.4,0c0.1-0.1-0.3-0.2-0.3-0.2
				s0.5,0.1,0.5,0c0-0.1-0.2-0.2-0.3-0.2c0,0,0,0,0,0s0,0,0,0c0.1,0,0.4,0.1,0.4,0c0.1-0.2-0.3-0.3-0.3-0.3s0.5,0,0.5-0.1
				c0-0.1-0.4-0.3-0.4-0.3s0.4,0,0.4-0.1c0.1-0.1-0.3-0.2-0.3-0.2s0.4,0,0.4-0.1c0-0.1-0.3-0.2-0.3-0.2s0.2,0.1,0.3,0
				c0.1-0.1-0.2-0.3-0.2-0.3s0.4,0.1,0.4,0c0-0.1-0.3-0.3-0.3-0.3s0.5,0.1,0.6,0c0-0.1-0.4-0.3-0.4-0.3s0.4,0.1,0.5,0
				c0.1-0.1-0.6-0.4-0.7-0.2c0,0-5.1,10.6-5.3,10.9c-0.1,0.2-0.1,0.6,0.1,0.8c0,0,0,0,0.1,0c0.1,0,0.1,0.1,0.2,0.1
				c0.5,0.1,8.1-8.3,8.8-9c0.3-0.3-0.1-0.6-0.1-0.7c-0.1,0-0.2,0.4-0.2,0.4s-0.2-0.2-0.3,0c-0.1,0.2,0,0.2,0,0.2s-0.4,0-0.4,0.1
				c0,0.1,0.1,0.2,0.1,0.2s-0.3,0-0.4,0.1c-0.1,0.1,0.1,0.2,0.1,0.2s-0.3-0.1-0.3,0c0,0.1,0.1,0.3,0.1,0.3s-0.2-0.2-0.3,0
				s0.1,0.3,0.1,0.3s-0.3-0.1-0.4,0c-0.1,0.1,0.1,0.3,0.1,0.3s-0.2-0.1-0.3,0c-0.1,0.1,0.2,0.4,0.2,0.4s-6.3,6.7-6.5,6.8
				C104.2,82.9,104,83,103.9,83z"/>
			<path class="st7" d="M104,82.9c-0.1,0-0.1-0.2-0.1-0.4c0.2-0.6,3.9-8.2,3.9-8.2s0.3,0.1,0.4,0c0.1-0.1-0.3-0.2-0.3-0.2
				s0.5,0.1,0.5,0c0-0.1-0.2-0.2-0.3-0.2c0,0,0,0,0,0s0,0,0,0c0.1,0,0.4,0.1,0.4,0c0.1-0.2-0.3-0.3-0.3-0.3s0.5,0,0.5-0.1
				c0-0.1-0.4-0.3-0.4-0.3s0.4,0,0.4-0.1c0.1-0.1-0.3-0.2-0.3-0.2s0.4,0,0.4-0.1c0-0.1-0.3-0.2-0.3-0.2s0.2,0.1,0.3,0
				c0.1-0.1-0.2-0.3-0.2-0.3s0.4,0.1,0.4,0c0-0.1-0.3-0.3-0.3-0.3s0.5,0.1,0.6,0c0-0.1-0.4-0.3-0.4-0.3s0.4,0.1,0.5,0
				c0.1-0.1-0.6-0.4-0.7-0.2c0,0-5.1,10.6-5.3,10.9c-0.1,0.2-0.1,0.6,0.1,0.8c0,0,0,0,0.1,0c0.1,0,0.1,0.1,0.2,0.1
				c0.5,0.1,8.1-8.3,8.8-9c0.3-0.3-0.1-0.6-0.1-0.7c-0.1,0-0.2,0.4-0.2,0.4s-0.2-0.2-0.3,0c-0.1,0.2,0,0.2,0,0.2s-0.4,0-0.4,0.1
				c0,0.1,0.1,0.2,0.1,0.2s-0.3,0-0.4,0.1s0.1,0.2,0.1,0.2s-0.3-0.1-0.3,0c0,0.1,0.1,0.3,0.1,0.3s-0.2-0.2-0.3,0s0.1,0.3,0.1,0.3
				s-0.3-0.1-0.4,0c-0.1,0.1,0.1,0.3,0.1,0.3s-0.2-0.1-0.3,0c-0.1,0.1,0.2,0.4,0.2,0.4s-6.3,6.7-6.5,6.8
				C104.3,82.8,104.1,82.9,104,82.9z"/>
		</g>
		<path class="st21" d="M94,83.4l1-2.1c0,0,0.8-0.1,2,0.6c1.2,0.8,1,0.6,4.3,0.1c1.5,0.6-3.1,2-4.3,1.8C96.2,83.8,94,83.4,94,83.4z"
			/>
		<g>
			<g>
				<g>
					<g>
						<path class="st14" d="M102.1,81.5c0.1,0,0.2,0,0.3,0c1,0,1.9-0.3,2.6-0.7c0.2-0.1,0.3-0.4,0.2-0.6c-0.1-0.2-0.4-0.3-0.7-0.2
							c-0.6,0.3-1.4,0.5-2.2,0.5c-1,0-1.9-0.1-2.6-0.5c-0.2-0.1-0.5-0.1-0.7,0.2c-0.1,0.2-0.1,0.5,0.2,0.6
							C100.1,81.3,101.1,81.5,102.1,81.5z"/>
					</g>
					<g>
						<path class="st15" d="M104.1,80.4c0,0-0.3,0.3-0.4,0.6C103.7,81,103.6,80.6,104.1,80.4z"/>
						<path class="st15" d="M103.7,80.4c0,0,0.1,0.4,0.3,0.6C104.1,81,103.7,80.8,103.7,80.4z"/>
					</g>
					<g>
						<path class="st15" d="M103,80.7c0,0-0.4,0.2-0.6,0.4C102.4,81.1,102.5,80.7,103,80.7z"/>
						<path class="st15" d="M102.6,80.6c0,0,0,0.4,0,0.7C102.7,81.3,102.4,81,102.6,80.6z"/>
					</g>
					<g>
						<path class="st15" d="M101.6,80.7c0,0-0.4,0.1-0.6,0.3C101,81,101.1,80.6,101.6,80.7z"/>
						<path class="st15" d="M101.3,80.5c0,0-0.1,0.4-0.1,0.7C101.3,81.2,101,80.9,101.3,80.5z"/>
					</g>
					<g>
						<path class="st15" d="M100.5,80.4c0,0-0.4,0-0.7,0.1C99.8,80.6,100,80.3,100.5,80.4z"/>
						<path class="st15" d="M100.2,80.2c0,0-0.2,0.4-0.2,0.7C100,80.9,99.8,80.5,100.2,80.2z"/>
					</g>
				</g>
				<g>
					<path class="st7" d="M102.1,81.5c0.1,0,0.2,0,0.3,0c1,0,1.9-0.3,2.6-0.7c0.2-0.1,0.3-0.4,0.2-0.6c-0.1-0.2-0.4-0.3-0.7-0.2
						c-0.6,0.3-1.4,0.5-2.2,0.5c-1,0-1.9-0.1-2.6-0.5c-0.2-0.1-0.5-0.1-0.7,0.2c-0.1,0.2-0.1,0.5,0.2,0.6
						C100.1,81.2,101.1,81.5,102.1,81.5z"/>
				</g>
			</g>
			<g>
				<g>
					<g>
						<path class="st14" d="M100.4,81.5c0.1,0,0.2,0,0.3,0c1,0,1.9-0.3,2.6-0.7c0.2-0.1,0.3-0.4,0.2-0.6c-0.1-0.2-0.4-0.3-0.7-0.2
							c-0.6,0.3-1.4,0.5-2.2,0.5c-1,0-1.9-0.1-2.6-0.5c-0.2-0.1-0.5-0.1-0.7,0.2c-0.1,0.2-0.1,0.5,0.2,0.6
							C98.3,81.3,99.3,81.5,100.4,81.5z"/>
					</g>
					<g>
						<path class="st15" d="M102.3,80.4c0,0-0.3,0.3-0.4,0.6C101.9,81,101.8,80.6,102.3,80.4z"/>
						<path class="st15" d="M101.9,80.4c0,0,0.1,0.4,0.3,0.6C102.3,81,101.9,80.8,101.9,80.4z"/>
					</g>
					<g>
						<path class="st15" d="M101.2,80.7c0,0-0.4,0.2-0.6,0.4C100.6,81.1,100.7,80.7,101.2,80.7z"/>
						<path class="st15" d="M100.9,80.6c0,0,0,0.4,0,0.7C100.9,81.3,100.6,81,100.9,80.6z"/>
					</g>
					<g>
						<path class="st15" d="M99.8,80.7c0,0-0.4,0.1-0.6,0.3C99.2,81,99.4,80.6,99.8,80.7z"/>
						<path class="st15" d="M99.6,80.5c0,0-0.1,0.4-0.1,0.7C99.5,81.2,99.3,80.9,99.6,80.5z"/>
					</g>
					<g>
						<path class="st15" d="M98.7,80.4c0,0-0.4,0-0.7,0.1C98,80.6,98.2,80.3,98.7,80.4z"/>
						<path class="st15" d="M98.5,80.2c0,0-0.2,0.4-0.2,0.7C98.2,80.9,98.1,80.5,98.5,80.2z"/>
					</g>
				</g>
				<g>
					<path class="st7" d="M100.4,81.5c0.1,0,0.2,0,0.3,0c1,0,1.9-0.3,2.6-0.7c0.2-0.1,0.3-0.4,0.2-0.6c-0.1-0.2-0.4-0.3-0.7-0.2
						c-0.6,0.3-1.4,0.5-2.2,0.5c-1,0-1.9-0.1-2.6-0.5c-0.2-0.1-0.5-0.1-0.7,0.2c-0.1,0.2-0.1,0.5,0.2,0.6
						C98.3,81.2,99.3,81.5,100.4,81.5z"/>
				</g>
			</g>
			<path class="st23" d="M106.7,81.1c0,0-9.5,0.2-12.2-0.1c0,0,4.6,1.2,7.1,1C104,81.8,106.7,81.1,106.7,81.1z"/>
		</g>
	</g>
	<g>
		<path class="st10" d="M146.9,116.7c1.5,0.8,2.3,0.5,4.8,0.9c2.5,0.4,19.2,0.2,19.3-1.2c0.2-2.1-16.3-1-18.6-0.9
			C148.5,115.7,144,115.3,146.9,116.7z"/>
		<g>
			<path class="st24" d="M154.2,115.8c-2.1,0.3-4.4,1-2.1,1.2c2.3,0.2,9.2-1,10.5-1.7l-0.2-4.1l-3.3,0
				C159.1,111.2,156.3,115.6,154.2,115.8z"/>
			<path class="st24" d="M154.2,115.8c-2.1,0.3-4.4,1-2.1,1.2c2.3,0.2,9.2-1,10.5-1.7l-0.2-4.1l-3.3,0
				C159.1,111.2,156.3,115.6,154.2,115.8z"/>
			<path class="st24" d="M154.2,115.8c-2.1,0.3-4.4,1-2.1,1.2c2.3,0.2,9.2-1,10.5-1.7l-0.2-4.1l-3.3,0
				C159.1,111.2,156.3,115.6,154.2,115.8z"/>
			<path class="st24" d="M154.2,115.8c-2.1,0.3-4.4,1-2.1,1.2c2.3,0.2,9.2-1,10.5-1.7l-0.2-4.1l-3.3,0
				C159.1,111.2,156.3,115.6,154.2,115.8z"/>
			<path class="st7" d="M153.9,115.6c-2.1,0.3-4.4,1-2.1,1.2c2.3,0.2,9.2-1,10.5-1.7l-0.2-4.1l-3.3,0
				C158.9,111.1,156.1,115.4,153.9,115.6z"/>
			<path class="st7" d="M153.9,115.6c-2.1,0.3-4.4,1-2.1,1.2c2.3,0.2,9.2-1,10.5-1.7l-0.2-4.1l-3.3,0
				C158.9,111.1,156.1,115.4,153.9,115.6z"/>
			<path class="st7" d="M153.9,115.6c-2.1,0.3-4.4,1-2.1,1.2c2.3,0.2,9.2-1,10.5-1.7l-0.2-4.1l-3.3,0
				C158.9,111.1,156.1,115.4,153.9,115.6z"/>
			<path class="st7" d="M153.9,115.6c-2.1,0.3-4.4,1-2.1,1.2c2.3,0.2,9.2-1,10.5-1.7l-0.2-4.1l-3.3,0
				C158.9,111.1,156.1,115.4,153.9,115.6z"/>
			<path class="st18" d="M162.8,111.3c0,0-1.8-21,0.4-30.6c-0.7,0.5-1.8,0.7-2.9,0.7c-1.4,0-2.9-0.4-4.3-0.8
				c-0.2,1.4-0.6,4.8-0.5,9.6c0.1,5.2,1,13.4,3.3,21.4L162.8,111.3z"/>
			<path class="st7" d="M162.6,111.2c0,0-1.8-21,0.4-30.6c-0.7,0.5-1.8,0.7-2.9,0.7c-1.4,0-2.9-0.4-4.3-0.8
				c-0.2,1.4-0.6,4.8-0.5,9.6c0.1,5.2,1,13.4,3.3,21.4L162.6,111.2z"/>
		</g>
		<g>
			<path class="st24" d="M158.5,115.8c-2.1,0.3-4.4,1-2.1,1.2c2.3,0.2,9.2-1,10.5-1.7l-0.2-4.1l-3.3,0
				C163.5,111.2,160.6,115.6,158.5,115.8z"/>
			<path class="st24" d="M158.5,115.8c-2.1,0.3-4.4,1-2.1,1.2c2.3,0.2,9.2-1,10.5-1.7l-0.2-4.1l-3.3,0
				C163.5,111.2,160.6,115.6,158.5,115.8z"/>
			<path class="st24" d="M158.5,115.8c-2.1,0.3-4.4,1-2.1,1.2c2.3,0.2,9.2-1,10.5-1.7l-0.2-4.1l-3.3,0
				C163.5,111.2,160.6,115.6,158.5,115.8z"/>
			<path class="st24" d="M158.5,115.8c-2.1,0.3-4.4,1-2.1,1.2c2.3,0.2,9.2-1,10.5-1.7l-0.2-4.1l-3.3,0
				C163.5,111.2,160.6,115.6,158.5,115.8z"/>
			<path class="st7" d="M158.3,115.6c-2.1,0.3-4.4,1-2.1,1.2c2.3,0.2,9.2-1,10.5-1.7l-0.2-4.1l-3.3,0
				C163.2,111.1,160.4,115.4,158.3,115.6z"/>
			<path class="st7" d="M158.3,115.6c-2.1,0.3-4.4,1-2.1,1.2c2.3,0.2,9.2-1,10.5-1.7l-0.2-4.1l-3.3,0
				C163.2,111.1,160.4,115.4,158.3,115.6z"/>
			<path class="st7" d="M158.3,115.6c-2.1,0.3-4.4,1-2.1,1.2c2.3,0.2,9.2-1,10.5-1.7l-0.2-4.1l-3.3,0
				C163.2,111.1,160.4,115.4,158.3,115.6z"/>
			<path class="st7" d="M158.3,115.6c-2.1,0.3-4.4,1-2.1,1.2c2.3,0.2,9.2-1,10.5-1.7l-0.2-4.1l-3.3,0
				C163.2,111.1,160.4,115.4,158.3,115.6z"/>
			<path class="st18" d="M167.1,111.3c0,0-1.8-21,0.4-30.6c-0.7,0.5-1.8,0.7-2.9,0.7c-1.4,0-2.9-0.4-4.3-0.8
				c-0.2,1.4-0.6,4.8-0.5,9.6c0.1,5.2,1,13.4,3.3,21.4L167.1,111.3z"/>
			<path class="st7" d="M166.9,111.2c0,0-1.8-21,0.4-30.6c-0.7,0.5-1.8,0.7-2.9,0.7c-1.4,0-2.9-0.4-4.3-0.8
				c-0.2,1.4-0.6,4.8-0.5,9.6c0.1,5.2,1,13.4,3.3,21.4L166.9,111.2z"/>
		</g>
		<g>
			<path class="st20" d="M161.2,65.8c-0.1-0.3-0.6-1.5-1.3-2.5c-0.8-1.2-1.9-2.2-2.9-1c-1.5,1.8,0.6,7-0.2,9.3
				c-0.2,0.7-0.9,1.6-1.7,2.5c-2.1,2.3-5.5,4.9-7.3,5l0.6,1.3l0.3,0.6l0.1,0.2l0.4,0.8c0,0,0.2-0.1,0.7-0.2c0.6-0.2,1.5-0.6,2.6-1.1
				c3.1-1.5,7.6-4.1,8.8-7.2c0-0.1,0.1-0.2,0.1-0.3C162.7,69.2,161.4,66.5,161.2,65.8z"/>
			<path class="st7" d="M161.2,65.6c-0.1-0.3-0.6-1.5-1.3-2.5c-0.8-1.2-1.9-2.2-2.9-1c-1.5,1.8,0.6,7-0.2,9.3
				c-0.2,0.7-0.9,1.6-1.7,2.5c-2.1,2.3-5.5,4.9-7.3,5l0.6,1.3l0.3,0.6l0.1,0.2l0.4,0.8c0,0,0.2-0.1,0.7-0.2c0.6-0.2,1.5-0.6,2.6-1.1
				c3.1-1.5,7.6-4.1,8.8-7.2c0-0.1,0.1-0.2,0.1-0.3C162.7,69,161.5,66.4,161.2,65.6z"/>
		</g>
		<path class="st19" d="M163.2,60.3c1.7,0.7,2.7,0.9,3.8,3.2c1.7,3.5,1.4,10.2,1.4,10.2c-0.1,1.9-0.2,4.1-0.6,6.5
			c-0.1,0.5-0.3,0.9-0.6,1.2c-0.6,0.7-1.6,1.1-2.7,1.3c-1.4,0.3-2.9,0.3-4.4,0.1c-1.2-0.2-2.3-0.5-3.1-0.8c-1.2-0.6-2-1.9-2-1.9
			c-0.4-0.9-0.5-1.9-0.6-3.2c0-1,0-2.1-0.1-3.4c-0.6-11.1,3-12.4,3-12.4c0.6-0.2,1.1-0.5,1.6-0.6C159,60.5,161.7,59.9,163.2,60.3z"
			/>
		<path class="st7" d="M163.2,60.3c1.7,0.7,2.7,0.9,3.8,3.2c1.7,3.5,1.4,10.2,1.4,10.2c-0.1,1.9-0.2,4.1-0.6,6.5
			c-0.1,0.5-0.3,0.9-0.6,1.2c-0.6,0.7-1.6,1.1-2.7,1.3c-1.4,0.3-2.9,0.3-4.4,0.1c-1.2-0.2-2.3-0.5-3.1-0.8c-1.2-0.6-2-1.9-2-1.9
			c-0.4-0.9-0.5-1.9-0.6-3.2c0-1,0-2.1-0.1-3.4c-0.6-11.1,3-12.4,3-12.4c0.6-0.2,1.1-0.5,1.6-0.6C159,60.5,161.7,59.9,163.2,60.3z"
			/>
		<g>
			<path class="st21" d="M163.1,55.5c0.3-1.1-0.7-1.3-0.7-1.3s-0.8-0.1-0.8,0.7l0,0.7l-0.4,0.1c-1-1.1-0.3-2.5-0.3-2.5
				c-0.6,0.1-1.2,0.1-1.7,0.1c-1.3-0.1-2.2-0.6-2.8-1.1c-0.3,0.6-0.5,3.2-0.3,4.3c0.3,1.8,0.8,3.2,2.9,3.3c0,0,0,0,0,0
				c1.3,0.1,2.7-0.5,3.7-1.6c-0.5-0.4-0.7-0.9-0.7-1.3c0-0.4,0.1-0.6,0.1-0.6S162.8,56.5,163.1,55.5z"/>
			<path class="st24" d="M163.3,58.7c-1.8-0.6-1.3-2.3-1.3-2.3s0.8,0.3,1.1-0.8c0.3-1.1-0.7-1.3-0.7-1.3s-0.8-0.1-0.8,0.7l0,0.7
				l-0.4,0.1c-1-1.1-0.3-2.5-0.3-2.5c-3.8,0.7-5.4-2-5.4-2c-0.6-0.8,0.3-1.6,0.7-1.7c0,0,0.7-0.3,1.3,0.1c0,0-0.3,0.5-0.2,0.5
				c0.1,0,9.4-2.3,7.6,3.4S163.3,58.7,163.3,58.7z"/>
			<path class="st7" d="M156.4,50.2c0,0,6.8-1.8,8,0.7c0.5,1,0.9,2.4,0,4.1c-0.4,0.9-0.9,1.5-1.1,3.6c-1.8-0.6-1.3-2.3-1.3-2.3
				s0.8,0.3,1.1-0.8c0.3-1.1-0.7-1.3-0.7-1.3s-0.8-0.1-0.8,0.7l0,0.7l-0.4,0.1c-1-1.1-0.3-2.5-0.3-2.5c-3.8,0.7-5.4-2-5.4-2
				c-0.6-0.8,0.3-1.6,0.7-1.7"/>
			<g>
				<ellipse class="st22" cx="156.4" cy="54.8" rx="0.2" ry="0.2"/>
				<ellipse class="st22" cx="159.4" cy="54.9" rx="0.2" ry="0.2"/>
				<path class="st7" d="M157.5,55c0,0,0.5,1-0.3,1c-0.8,0-0.7,0-0.7,0.2c0,0.2-0.1,0.5,0.6,0.6c0.5,0.1,0.6,0,0.6,0"/>
				<path class="st7" d="M157,57.7c0,0,1.1,0.5,1.9-0.2"/>
			</g>
			<path class="st21" d="M162.5,60.4l0-0.4l0.1-1.8c-1,1.1-2.4,1.7-3.7,1.6c0,0.2,0,0.5,0,0.8c0,0.3,0,0.5-0.1,0.8
				c-0.8,0.6,0.2,1.4,1.1,1.4C162.5,62.8,162.5,60.4,162.5,60.4z"/>
		</g>
		<g>
			<path class="st20" d="M168.9,66.2c-0.1-0.3-0.6-1.5-1.3-2.5c-0.8-1.2-1.9-2.2-2.9-1c-1.5,1.8,0.6,7-0.2,9.3
				c-0.2,0.7-0.9,1.6-1.7,2.5c-2.1,2.3-5.5,4.9-7.3,5l0.6,1.3l0.3,0.6l0.1,0.2l0.4,0.8c0,0,0.2-0.1,0.7-0.2c0.6-0.2,1.5-0.6,2.6-1.1
				c3.1-1.5,7.6-4.1,8.8-7.2c0-0.1,0.1-0.2,0.1-0.3C170.4,69.7,169.1,67,168.9,66.2z"/>
			<path class="st7" d="M168.9,66.1c-0.1-0.3-0.6-1.5-1.3-2.5c-0.8-1.2-1.9-2.2-2.9-1c-1.5,1.8,0.6,7-0.2,9.3
				c-0.2,0.7-0.9,1.6-1.7,2.5c-2.1,2.3-5.5,4.9-7.3,5l0.6,1.3l0.3,0.6l0.1,0.2l0.4,0.8c0,0,0.2-0.1,0.7-0.2c0.6-0.2,1.5-0.6,2.6-1.1
				c3.1-1.5,7.6-4.1,8.8-7.2c0-0.1,0.1-0.2,0.1-0.3C170.4,69.5,169.2,66.8,168.9,66.1z"/>
		</g>
		<path class="st21" d="M156.9,82.1l-1-2.1c0,0-0.8-0.1-2,0.6c-1.2,0.8-1,0.6-4.3,0.1c-1.5,0.6,3.1,2,4.3,1.8
			C154.7,82.5,156.9,82.1,156.9,82.1z"/>
		<path class="st17" d="M148.1,79.3l1.2,2.4c0,0-1.5,1.7-3.2,1.4c-1.7-0.3-2.8-3.1-1.9-3.3S146.9,79.4,148.1,79.3z"/>
		<g>
			<path class="st19" d="M147,81.7c0.1,0,0.1-0.2,0.1-0.4c-0.2-0.6-3.9-8.2-3.9-8.2s-0.3,0.1-0.4,0c-0.1-0.1,0.3-0.2,0.3-0.2
				s-0.5,0.1-0.5,0c0-0.1,0.2-0.2,0.3-0.2c0,0,0,0,0,0s0,0,0,0c-0.1,0-0.4,0.1-0.4,0c-0.1-0.2,0.3-0.3,0.3-0.3s-0.5,0-0.5-0.1
				c0-0.1,0.4-0.3,0.4-0.3s-0.4,0-0.4-0.1c-0.1-0.1,0.3-0.2,0.3-0.2s-0.4,0-0.4-0.1c0-0.1,0.3-0.2,0.3-0.2s-0.2,0.1-0.3,0
				c-0.1-0.1,0.2-0.3,0.2-0.3s-0.4,0.1-0.4,0c0-0.1,0.3-0.3,0.3-0.3s-0.5,0.1-0.6,0c0-0.1,0.4-0.3,0.4-0.3s-0.4,0.1-0.5,0
				c-0.1-0.1,0.6-0.4,0.7-0.2c0,0,5.1,10.6,5.3,10.9c0.1,0.2,0.1,0.6-0.1,0.8c0,0,0,0-0.1,0c-0.1,0-0.1,0.1-0.2,0.1
				c-0.5,0.1-8.1-8.3-8.8-9c-0.3-0.3,0.1-0.6,0.1-0.7c0.1,0,0.2,0.4,0.2,0.4s0.2-0.2,0.3,0c0.1,0.2,0,0.2,0,0.2s0.4,0,0.4,0.1
				c0,0.1-0.1,0.2-0.1,0.2s0.3,0,0.4,0.1c0.1,0.1-0.1,0.2-0.1,0.2s0.3-0.1,0.3,0c0,0.1-0.1,0.3-0.1,0.3s0.2-0.2,0.3,0
				s-0.1,0.3-0.1,0.3s0.3-0.1,0.4,0c0.1,0.1-0.1,0.3-0.1,0.3s0.2-0.1,0.3,0c0.1,0.1-0.2,0.4-0.2,0.4s6.3,6.7,6.5,6.8
				C146.7,81.6,146.9,81.7,147,81.7z"/>
			<path class="st7" d="M146.9,81.6c0.1,0,0.1-0.2,0.1-0.4c-0.2-0.6-3.9-8.2-3.9-8.2s-0.3,0.1-0.4,0c-0.1-0.1,0.3-0.2,0.3-0.2
				s-0.5,0.1-0.5,0c0-0.1,0.2-0.2,0.3-0.2c0,0,0,0,0,0s0,0,0,0c-0.1,0-0.4,0.1-0.4,0c-0.1-0.2,0.3-0.3,0.3-0.3s-0.5,0-0.5-0.1
				c0-0.1,0.4-0.3,0.4-0.3s-0.4,0-0.4-0.1c-0.1-0.1,0.3-0.2,0.3-0.2s-0.4,0-0.4-0.1c0-0.1,0.3-0.2,0.3-0.2s-0.2,0.1-0.3,0
				c-0.1-0.1,0.2-0.3,0.2-0.3s-0.4,0.1-0.4,0c0-0.1,0.3-0.3,0.3-0.3s-0.5,0.1-0.6,0c0-0.1,0.4-0.3,0.4-0.3s-0.4,0.1-0.5,0
				c-0.1-0.1,0.6-0.4,0.7-0.2c0,0,5.1,10.6,5.3,10.9c0.1,0.2,0.1,0.6-0.1,0.8c0,0,0,0-0.1,0c-0.1,0-0.1,0.1-0.2,0.1
				c-0.5,0.1-8.1-8.3-8.8-9c-0.3-0.3,0.1-0.6,0.1-0.7c0.1,0,0.2,0.4,0.2,0.4s0.2-0.2,0.3,0c0.1,0.2,0,0.2,0,0.2s0.4,0,0.4,0.1
				c0,0.1-0.1,0.2-0.1,0.2s0.3,0,0.4,0.1s-0.1,0.2-0.1,0.2s0.3-0.1,0.3,0c0,0.1-0.1,0.3-0.1,0.3s0.2-0.2,0.3,0s-0.1,0.3-0.1,0.3
				s0.3-0.1,0.4,0c0.1,0.1-0.1,0.3-0.1,0.3s0.2-0.1,0.3,0s-0.2,0.4-0.2,0.4s6.3,6.7,6.5,6.8C146.6,81.5,146.8,81.6,146.9,81.6z"/>
		</g>
		<path class="st17" d="M148.1,79.3c0,0-1.7-0.9-2.2-0.3c-0.6,0.6-0.1,1.6,0.3,1.6c0.3,0,0.6-0.7,0.6-0.7s0.3,0.7,1,0.7"/>
		<g>
			<g>
				<g>
					<g>
						<path class="st14" d="M148.8,80.2c-0.1,0-0.2,0-0.3,0c-1,0-1.9-0.3-2.6-0.7c-0.2-0.1-0.3-0.4-0.2-0.6c0.1-0.2,0.4-0.3,0.7-0.2
							c0.6,0.3,1.4,0.5,2.2,0.5c1,0,1.9-0.1,2.6-0.5c0.2-0.1,0.5-0.1,0.7,0.2c0.1,0.2,0.1,0.5-0.2,0.6
							C150.8,80,149.8,80.2,148.8,80.2z"/>
					</g>
					<g>
						<path class="st15" d="M146.8,79.1c0,0,0.3,0.3,0.4,0.6C147.2,79.7,147.3,79.3,146.8,79.1z"/>
						<path class="st15" d="M147.2,79.1c0,0-0.1,0.4-0.3,0.6C146.9,79.7,147.2,79.5,147.2,79.1z"/>
					</g>
					<g>
						<path class="st15" d="M148,79.4c0,0,0.4,0.2,0.6,0.4C148.6,79.8,148.4,79.4,148,79.4z"/>
						<path class="st15" d="M148.3,79.2c0,0,0,0.4,0,0.7C148.2,80,148.5,79.7,148.3,79.2z"/>
					</g>
					<g>
						<path class="st15" d="M149.3,79.4c0,0,0.4,0.1,0.6,0.3C149.9,79.7,149.8,79.3,149.3,79.4z"/>
						<path class="st15" d="M149.6,79.2c0,0,0.1,0.4,0.1,0.7C149.6,79.9,149.9,79.6,149.6,79.2z"/>
					</g>
					<g>
						<path class="st15" d="M150.4,79.1c0,0,0.4,0,0.7,0.1C151.2,79.3,150.9,79,150.4,79.1z"/>
						<path class="st15" d="M150.7,78.9c0,0,0.2,0.4,0.2,0.7C150.9,79.6,151.1,79.2,150.7,78.9z"/>
					</g>
				</g>
				<g>
					<path class="st7" d="M148.8,80.2c-0.1,0-0.2,0-0.3,0c-1,0-1.9-0.3-2.6-0.7c-0.2-0.1-0.3-0.4-0.2-0.6c0.1-0.2,0.4-0.3,0.7-0.2
						c0.6,0.3,1.4,0.5,2.2,0.5c1,0,1.9-0.1,2.6-0.5c0.2-0.1,0.5-0.1,0.7,0.2c0.1,0.2,0.1,0.5-0.2,0.6
						C150.8,79.9,149.8,80.2,148.8,80.2z"/>
				</g>
			</g>
			<g>
				<g>
					<g>
						<path class="st14" d="M150.5,80.2c-0.1,0-0.2,0-0.3,0c-1,0-1.9-0.3-2.6-0.7c-0.2-0.1-0.3-0.4-0.2-0.6c0.1-0.2,0.4-0.3,0.7-0.2
							c0.6,0.3,1.4,0.5,2.2,0.5c1,0,1.9-0.1,2.6-0.5c0.2-0.1,0.5-0.1,0.7,0.2c0.1,0.2,0.1,0.5-0.2,0.6
							C152.6,80,151.6,80.2,150.5,80.2z"/>
					</g>
					<g>
						<path class="st15" d="M148.6,79.1c0,0,0.3,0.3,0.4,0.6C149,79.7,149.1,79.3,148.6,79.1z"/>
						<path class="st15" d="M149,79.1c0,0-0.1,0.4-0.3,0.6C148.6,79.7,149,79.5,149,79.1z"/>
					</g>
					<g>
						<path class="st15" d="M149.7,79.4c0,0,0.4,0.2,0.6,0.4C150.3,79.8,150.2,79.4,149.7,79.4z"/>
						<path class="st15" d="M150,79.2c0,0,0,0.4,0,0.7C150,80,150.3,79.7,150,79.2z"/>
					</g>
					<g>
						<path class="st15" d="M151.1,79.4c0,0,0.4,0.1,0.6,0.3C151.7,79.7,151.5,79.3,151.1,79.4z"/>
						<path class="st15" d="M151.3,79.2c0,0,0.1,0.4,0.1,0.7C151.4,79.9,151.6,79.6,151.3,79.2z"/>
					</g>
					<g>
						<path class="st15" d="M152.2,79.1c0,0,0.4,0,0.7,0.1C152.9,79.3,152.7,79,152.2,79.1z"/>
						<path class="st15" d="M152.5,78.9c0,0,0.2,0.4,0.2,0.7C152.7,79.6,152.8,79.2,152.5,78.9z"/>
					</g>
				</g>
				<g>
					<path class="st7" d="M150.5,80.2c-0.1,0-0.2,0-0.3,0c-1,0-1.9-0.3-2.6-0.7c-0.2-0.1-0.3-0.4-0.2-0.6c0.1-0.2,0.4-0.3,0.7-0.2
						c0.6,0.3,1.4,0.5,2.2,0.5c1,0,1.9-0.1,2.6-0.5c0.2-0.1,0.5-0.1,0.7,0.2c0.1,0.2,0.1,0.5-0.2,0.6
						C152.6,79.9,151.6,80.2,150.5,80.2z"/>
				</g>
			</g>
			<path class="st23" d="M144.2,79.8c0,0,9.5,0.2,12.2-0.1c0,0-4.6,1.2-7.1,1C146.9,80.5,144.2,79.8,144.2,79.8z"/>
		</g>
		<g>
			<path class="st16" d="M150.9,77.6c0,0,0.6-0.3,0.1-0.6c-0.5-0.3-0.7,0.2-0.7,0.2s-0.8-0.4-0.8-0.1c0,0.4,0.3,0.7,0.3,0.7
				s-0.3,0.4,0,0.4c0.3,0,0.2,0.4,0.4,0c0,0,0.2,0.6,0.4,0C150.7,78.1,151.4,78,150.9,77.6z"/>
			<path class="st7" d="M150.9,77.6c0,0,0.6-0.3,0.1-0.6c-0.5-0.3-0.7,0.2-0.7,0.2s-0.8-0.4-0.8-0.1c0,0.4,0.3,0.7,0.3,0.7
				s-0.3,0.4,0,0.4c0.3,0,0.2,0.4,0.4,0c0,0,0.2,0.6,0.4,0C150.7,78.1,151.4,78,150.9,77.6z"/>
		</g>
		<g>
			<path class="st16" d="M148.5,76.5c0,0-0.5,0.1-0.3-0.3s0.4-0.2,0.4-0.2s0.2-0.5,0.4-0.4c0.1,0.2,0.1,0.5,0.1,0.5s0.4,0.1,0.2,0.2
				c-0.2,0.1,0,0.3-0.2,0.1c0,0,0.1,0.4-0.2,0.2C148.9,76.7,148.4,76.9,148.5,76.5z"/>
			<path class="st7" d="M148.5,76.5c0,0-0.5,0.1-0.3-0.3c0.1-0.3,0.4-0.2,0.4-0.2s0.2-0.5,0.4-0.4s0.1,0.5,0.1,0.5s0.4,0.1,0.2,0.2
				c-0.2,0.1,0,0.3-0.2,0.1c0,0,0.1,0.4-0.2,0.2C148.8,76.7,148.4,76.9,148.5,76.5z"/>
		</g>
	</g>
	<g>
		<g class="st4">
			<path class="st1" d="M102.5,137.4c-7.8,0-15.6,0-23.4,0c-1.7,0-3.3,0-4.9-0.4c-1.6-0.4-3.2-1.3-4-2.8c10.2-4.8,22.7-3.8,32,2.6"
				/>
		</g>
		<path class="st5" d="M79.6,128.6c0,0-6.9,2.2-6.9-2.5c0-4.7,2.9-1.3,2.9-1.3s-1.4,2.3-1.2,0.3c0.1-2,1-8.1,4.5-6s-9.6-2.2-4.9-4.7
			s4.9-5.1,8.8-2.2c3.8,3,0.9,3.4-1.2,0.4c-2.1-2.9,0.5-7.8,5.6-2.1c5,5.7,0.8,7.9-1.5,7.9c-2.3,0-0.5-1.1,2.3-1.3
			c2.8-0.1,6.9,4.1,5.7,5.4c0,0,7.2-0.7,4.3,3.4c0,0,3.4,1.1,1.1,4.4c-2.3,3.2-6.1,2.4-6.8,1.4c-0.7-1,11.3,1.2,7.1,2.9H74.7
			c0,0-4.9-1.2-3.6-2.3c1.3-1.1,6.7-2.4,8-2.1C79.2,130.4,75.8,127,79.6,128.6z"/>
		<path class="st6" d="M76.3,120.2c-0.9,0.9,0.4,3.5,1.7,2.7c1.3-0.8,2.5-2.7,1.3-2.7C78,120.2,76.8,119.8,76.3,120.2z"/>
		<path class="st6" d="M86.2,127.5c-1.6,1.4,0.7,5.8,2.8,4.5c2.1-1.3,4.2-4.5,2.1-4.5S86.9,126.8,86.2,127.5z"/>
		<path class="st6" d="M88.5,118.8c0.7-1-1.4-0.7-2.4,0.6c-1.1,1.2-1.8,2.8-0.5,1.8C86.8,120.2,88.2,119.3,88.5,118.8z"/>
		<path class="st6" d="M78.1,127.1c0.3-0.5-0.8-1.1-1.3-0.6s-0.8,1.5-0.2,1.2C77.2,127.4,77.9,127.3,78.1,127.1z"/>
		<path class="st6" d="M85.4,115.1c0.3-0.5-0.8-1.1-1.3-0.6s-0.8,1.5-0.2,1.2S85.2,115.3,85.4,115.1z"/>
		<path class="st6" d="M79.2,113.2c0.7-0.7-1-1-2-0.3c-1,0.7-1.9,1.9-0.7,1.4C77.6,113.8,78.9,113.5,79.2,113.2z"/>
		<path class="st7" d="M78.8,128.6c0,0-6.9,2.2-6.9-2.5c0-4.7,2.9-1.3,2.9-1.3s-1.4,2.3-1.2,0.3c0.1-2,1-8.1,4.5-6s-9.6-2.2-4.9-4.7
			c4.6-2.5,4.9-5.1,8.8-2.2c3.8,3,0.9,3.4-1.2,0.4c-2.1-2.9,0.5-7.8,5.6-2.1c5,5.7,0.8,7.9-1.5,7.9c-2.3,0-0.5-1.1,2.3-1.3
			c2.8-0.1,6.9,4.1,5.7,5.4c0,0,7.2-0.7,4.3,3.4c0,0,3.4,1.1,1.1,4.4c-2.3,3.2-6.1,2.4-6.8,1.4c-0.7-1,11.3,1.2,7.1,2.9H73.9
			c0,0-4.9-1.2-3.6-2.3c1.3-1.1,6.7-2.4,8-2.1C78.4,130.4,75,127,78.8,128.6z"/>
	</g>
</g>
</svg>
