<svg width="214" height="113" viewBox="0 0 214 113" fill="none" xmlns="http://www.w3.org/2000/svg">
<g clip-path="url(#clip0_191_7182)">
<path d="M207.942 39.8693C209.587 82.3483 179.407 105.755 149.546 99.1205C119.684 92.4859 98.4533 99.7132 86.1797 106.286C73.915 112.867 -1.82193 101.642 8.57698 60.5073C18.9847 19.3818 36.0598 -14.2687 78.8934 6.13034C121.727 26.5294 150.519 6.80265 174.473 3.12267C198.428 -0.557303 207.005 15.746 207.934 39.8693H207.942Z" fill="#727B6D"/>
<g style="mix-blend-mode:multiply" opacity="0.3">
<path d="M170.053 67.416C174.403 67.416 178.754 67.416 183.113 67.416C184.042 67.416 184.97 67.416 185.872 67.6018C186.765 67.7876 187.632 68.1856 188.118 68.8225C182.45 70.9191 175.447 70.4856 170.247 67.6991" fill="#C7C6C6"/>
</g>
<g style="mix-blend-mode:multiply" opacity="0.3">
<path d="M70.9449 66.337C62.8804 66.337 54.8159 66.3282 46.7515 66.3193C45.036 66.3193 43.3029 66.3193 41.6405 65.9655C39.978 65.6205 38.3864 64.8862 37.4756 63.7097C47.9806 59.8174 60.9527 60.6313 70.5912 65.7885" fill="#7B948C"/>
</g>
<path d="M47.1935 55.7304C47.1935 55.7304 40.084 58.8089 40.084 52.1124C40.084 45.4159 43.0728 50.2812 43.0728 50.2812C43.0728 50.2812 41.6492 53.5278 41.7907 50.697C41.9321 47.8663 42.7899 39.1175 46.4153 42.1782C50.0408 45.239 36.5293 39.0821 41.2955 35.464C46.0616 31.846 46.4153 28.1395 50.3945 32.3856C54.3737 36.6406 51.323 37.1802 49.1123 33.0225C46.9105 28.8649 49.6783 21.8941 54.8689 30.0414C60.0595 38.1798 55.7178 41.3644 53.3037 41.3555C50.8897 41.3467 52.8085 39.719 55.7178 39.5421C58.627 39.3652 62.898 45.3805 61.6158 47.3001C61.6158 47.3001 69.079 46.2297 66.0194 52.2008C66.0194 52.2008 69.5741 53.8285 67.1601 58.4462C64.7461 63.0639 60.8288 61.8342 60.1214 60.41C59.414 58.9858 71.7848 62.1881 67.4431 64.5942H42.1355C42.1355 64.5942 37.0864 62.8604 38.4393 61.2858C39.7922 59.7112 45.4073 57.9066 46.7602 58.2604C46.7602 58.2604 43.2762 53.4658 47.1846 55.7304H47.1935Z" fill="#91A188"/>
<g style="mix-blend-mode:lighten" opacity="0.2">
<path d="M43.8512 43.7706C42.8785 45.0091 44.2845 48.751 45.5932 47.6452C46.9019 46.5395 48.2017 43.7706 46.893 43.7706C45.5843 43.7706 44.2845 43.2133 43.8512 43.7706Z" fill="#C9DFCE"/>
</g>
<g style="mix-blend-mode:lighten" opacity="0.2">
<path d="M54.0554 54.1027C52.4283 56.1727 54.7804 62.4181 56.9646 60.5692C59.1487 58.7204 61.324 54.1027 59.1399 54.1027C56.9557 54.1027 54.7805 53.1827 54.0554 54.1027V54.1027Z" fill="#C9DFCE"/>
</g>
<g style="mix-blend-mode:lighten" opacity="0.2">
<path d="M56.4074 41.7714C57.1413 40.3295 54.9837 40.8161 53.8873 42.5941C52.7908 44.3722 52.0392 46.6279 53.3479 45.1683C54.6566 43.7087 56.0802 42.4172 56.4074 41.7714Z" fill="#C9DFCE"/>
</g>
<g style="mix-blend-mode:lighten" opacity="0.2">
<path d="M45.6457 53.5808C45.964 52.882 44.8234 51.9531 44.3193 52.705C43.8153 53.457 43.5235 54.7839 44.1602 54.4212C44.7968 54.0585 45.4954 53.8904 45.6457 53.5808V53.5808Z" fill="#C9DFCE"/>
</g>
<g style="mix-blend-mode:lighten" opacity="0.2">
<path d="M53.1978 36.437C53.5161 35.7382 52.3754 34.8093 51.8714 35.5612C51.3762 36.3132 51.0756 37.6401 51.7123 37.2774C52.3489 36.9147 53.0475 36.7466 53.1978 36.437V36.437Z" fill="#C9DFCE"/>
</g>
<g style="mix-blend-mode:lighten" opacity="0.2">
<path d="M46.7957 33.7124C47.5385 32.7748 45.7965 32.2263 44.7266 33.2878C43.6566 34.3494 42.79 35.9859 43.9926 35.3047C45.1952 34.6236 46.4597 34.1282 46.7957 33.7124V33.7124Z" fill="#C9DFCE"/>
</g>
<path d="M46.4152 55.7304C46.4152 55.7304 39.3057 58.8089 39.3057 52.1124C39.3057 45.4159 42.2945 50.2812 42.2945 50.2812C42.2945 50.2812 40.8709 53.5278 41.0123 50.697C41.1538 47.8663 42.0116 39.1175 45.637 42.1782C49.2625 45.239 35.751 39.0821 40.5171 35.464C45.2833 31.846 45.637 28.1395 49.6162 32.3856C53.5954 36.6317 50.5447 37.1802 48.334 33.0225C46.1322 28.8649 48.8999 21.8941 54.0906 30.0414C59.2812 38.1798 54.9394 41.3644 52.5254 41.3555C50.1114 41.3467 52.0302 39.719 54.9394 39.5421C57.8487 39.3652 62.1196 45.3805 60.8375 47.3001C60.8375 47.3001 68.3006 46.2297 65.2411 52.2008C65.2411 52.2008 68.7958 53.8285 66.3818 58.4462C63.9678 63.0639 60.0505 61.8342 59.3431 60.41C58.6357 58.9858 71.0065 62.1881 66.6647 64.5942H41.3572C41.3572 64.5942 36.3081 62.8604 37.661 61.2858C39.0139 59.7112 44.629 57.9066 45.9819 58.2604C45.9819 58.2604 42.4979 53.4658 46.4063 55.7304H46.4152Z" stroke="#1A1A1A" stroke-width="0.2" stroke-linecap="round" stroke-linejoin="round"/>
<path d="M8.05571 96.8912C21.187 108.754 27.7836 104.755 49.3419 110.373C70.8913 115.999 212.895 113.805 213.991 91.2828C215.601 58.2249 74.9589 76.0675 55.6555 77.8456C21.7618 80.9771 -17.128 74.1391 8.06455 96.8824L8.05571 96.8912Z" fill="#899284"/>
<g style="mix-blend-mode:multiply" opacity="0.3">
<path d="M115.715 64.0632C125.831 64.0632 135.947 64.0632 146.054 64.0544C148.203 64.0544 150.378 64.0544 152.456 63.7713C154.534 63.4971 156.541 62.9132 157.673 61.9755C144.498 58.8794 128.227 59.534 116.139 63.6298" fill="#7B948C"/>
</g>
<path d="M145.497 55.6419C145.497 55.6419 154.411 58.0834 154.411 52.7669C154.411 47.4504 150.661 51.3073 150.661 51.3073C150.661 51.3073 152.447 53.8903 152.271 51.6346C152.094 49.3788 151.024 42.4346 146.479 44.8673C141.934 47.3 158.876 42.4081 152.898 39.5331C146.921 36.6581 146.479 33.7124 141.483 37.0916C136.487 40.4708 140.324 40.9043 143.092 37.5958C145.86 34.2874 142.376 28.7497 135.868 35.2251C129.359 41.6916 134.798 44.2215 137.831 44.2127C140.864 44.2127 138.458 42.9123 134.798 42.7708C131.146 42.6292 125.796 47.415 127.396 48.9365C127.396 48.9365 118.032 48.0873 121.87 52.8376C121.87 52.8376 117.413 54.1292 120.446 57.8003C123.479 61.4714 128.378 60.4984 129.271 59.3661C130.164 58.2338 114.645 60.7814 120.084 62.6922H151.828C151.828 62.6922 158.16 61.3122 156.462 60.0649C154.764 58.8176 147.726 57.3757 146.028 57.6676C146.028 57.6676 150.396 53.8549 145.488 55.6507L145.497 55.6419Z" fill="#91A188"/>
<g style="mix-blend-mode:lighten" opacity="0.2">
<path d="M149.697 46.1324C150.917 47.1143 149.149 50.0866 147.513 49.2108C145.877 48.335 144.241 46.1324 145.877 46.1324C147.513 46.1324 149.149 45.6901 149.697 46.1324Z" fill="#C9DFCE"/>
</g>
<g style="mix-blend-mode:lighten" opacity="0.2">
<path d="M136.893 54.3502C138.927 55.9956 135.982 60.9583 133.25 59.4898C130.518 58.0214 127.785 54.3502 130.518 54.3502C133.25 54.3502 135.982 53.616 136.893 54.3502Z" fill="#C9DFCE"/>
</g>
<g style="mix-blend-mode:lighten" opacity="0.2">
<path d="M133.948 44.54C133.029 43.39 135.735 43.7792 137.105 45.1946C138.476 46.61 139.431 48.3969 137.786 47.238C136.141 46.0792 134.364 45.053 133.948 44.54V44.54Z" fill="#C9DFCE"/>
</g>
<g style="mix-blend-mode:lighten" opacity="0.2">
<path d="M147.442 53.9346C147.036 53.3773 148.477 52.6431 149.105 53.2358C149.733 53.8284 150.104 54.89 149.308 54.5981C148.512 54.3061 147.628 54.1823 147.451 53.9258L147.442 53.9346Z" fill="#C9DFCE"/>
</g>
<g style="mix-blend-mode:lighten" opacity="0.2">
<path d="M137.972 40.3028C137.565 39.7455 139.006 39.0112 139.634 39.6039C140.262 40.1966 140.633 41.2581 139.837 40.9662C139.042 40.6743 138.157 40.5505 137.98 40.2939L137.972 40.3028Z" fill="#C9DFCE"/>
</g>
<g style="mix-blend-mode:lighten" opacity="0.2">
<path d="M146.001 38.1443C145.063 37.4012 147.256 36.9677 148.592 37.8081C149.927 38.6485 151.023 39.9489 149.511 39.4092C148.008 38.8696 146.416 38.4716 145.992 38.1443H146.001Z" fill="#C9DFCE"/>
</g>
<path d="M146.479 55.6419C146.479 55.6419 155.392 58.0834 155.392 52.7669C155.392 47.4504 151.643 51.3073 151.643 51.3073C151.643 51.3073 153.429 53.8903 153.252 51.6346C153.075 49.3788 152.005 42.4346 147.46 44.8673C142.915 47.3 159.858 42.4081 153.88 39.5331C147.902 36.6581 147.46 33.7124 142.464 37.0916C137.468 40.4708 141.306 40.9043 144.073 37.5958C146.841 34.2874 143.357 28.7497 136.849 35.2251C130.341 41.6916 135.779 44.2215 138.812 44.2127C141.845 44.2127 139.44 42.9123 135.779 42.7708C132.118 42.6292 126.777 47.415 128.378 48.9365C128.378 48.9365 119.013 48.0873 122.851 52.8376C122.851 52.8376 118.395 54.1292 121.428 57.8003C124.461 61.4714 129.359 60.4984 130.252 59.3661C131.146 58.2338 115.627 60.7814 121.065 62.6922H152.81C152.81 62.6922 159.141 61.3122 157.443 60.0649C155.746 58.8176 148.707 57.3757 147.009 57.6676C147.009 57.6676 151.377 53.8549 146.47 55.6507L146.479 55.6419Z" stroke="#1A1A1A" stroke-width="0.2" stroke-linecap="round" stroke-linejoin="round"/>
<g style="mix-blend-mode:multiply" opacity="0.3">
<path d="M160.865 64.7534C164.942 64.7534 169.018 64.7534 173.095 64.7534C173.961 64.7534 174.837 64.7534 175.677 64.9303C176.517 65.1073 177.321 65.4788 177.781 66.0715C172.476 68.0353 165.914 67.6284 161.042 65.0188" fill="#7B948C"/>
</g>
<path d="M173.793 66.0362C173.793 66.0362 181 58.4374 177.251 56.6062C177.251 56.6062 183.874 50.8032 178.55 49.9009C173.218 49.0074 174.085 52.767 174.085 52.767C174.085 52.767 179.125 50.2901 176.817 46.7163C174.509 43.1425 171.273 46.7163 171.273 46.7163C171.273 46.7163 170.265 43.9298 169.045 45.0002C167.824 46.0705 169.045 47.4948 169.045 47.4948C169.045 47.4948 169.841 44.5048 167.533 45.6105C165.234 46.7163 159.972 46.0882 164.146 52.767C168.32 59.4458 166.737 54.1028 164.862 51.5109C162.987 48.919 158.46 44.9029 158.027 50.9359C157.594 56.9778 162.926 61.1708 166.374 60.2597C169.832 59.3485 166.18 58.5258 164.791 59.2512C163.403 59.9766 158.168 60.3835 161.405 63.3027C161.405 63.3027 163.881 66.0362 167.046 66.0273C170.212 66.0185 173.775 66.0273 173.775 66.0273L173.793 66.0362Z" fill="#AFC3A6"/>
<path d="M177.772 57.4202C177.772 57.4202 177.798 55.7925 176.507 55.7925C175.216 55.7925 170.486 58.0129 172.767 58.3313C175.048 58.6498 176.507 58.6321 177.772 57.429V57.4202Z" fill="#C9DFCE"/>
<path d="M175.509 46.4863C175.509 46.4863 175.323 45.699 174.103 46.2474C172.882 46.7959 168.718 49.8478 170.911 49.034C173.104 48.2201 174.474 47.5921 175.509 46.4863V46.4863Z" fill="#C9DFCE"/>
<path d="M162.89 53.2358C162.89 53.2358 163.969 52.3601 163.314 51.1128C162.66 49.8655 158.822 46.5305 159.768 48.9101C160.715 51.2897 161.457 52.6874 162.89 53.2358Z" fill="#C9DFCE"/>
<path d="M174.271 65.6558C174.271 65.6558 181.477 58.057 177.728 56.2259C177.728 56.2259 184.351 50.4228 179.028 49.5205C173.696 48.6271 174.563 52.3867 174.563 52.3867C174.563 52.3867 179.603 49.9098 177.295 46.3359C174.996 42.7621 171.751 46.3359 171.751 46.3359C171.751 46.3359 170.743 43.5494 169.522 44.6198C168.302 45.6902 169.522 47.1144 169.522 47.1144C169.522 47.1144 170.318 44.1244 168.01 45.2302C165.711 46.3359 160.45 45.7079 164.623 52.3867C168.797 59.0655 167.214 53.7224 165.34 51.1305C163.465 48.5386 158.938 44.5225 158.504 50.5555C158.071 56.5974 163.403 60.7905 166.852 59.8793C170.3 58.9682 166.657 58.1455 165.269 58.8709C163.881 59.5962 158.646 60.0031 161.882 62.9224C161.882 62.9224 164.358 65.6558 167.524 65.647C170.689 65.6381 174.253 65.647 174.253 65.647L174.271 65.6558Z" stroke="#1A1A1A" stroke-width="0.2" stroke-linecap="round" stroke-linejoin="round"/>
<g style="mix-blend-mode:multiply" opacity="0.3">
<path d="M146.301 66.1687C148.228 66.1687 150.165 66.1687 152.093 66.1687C152.499 66.1687 152.915 66.1687 153.313 66.2572C153.711 66.3368 154.091 66.5137 154.312 66.7968C151.792 67.7256 148.688 67.531 146.38 66.3014" fill="#7B948C"/>
</g>
<path d="M152.429 66.7703C152.429 66.7703 155.842 63.1699 154.065 62.303C154.065 62.303 157.204 59.5519 154.684 59.1273C152.164 58.7026 152.57 60.4807 152.57 60.4807C152.57 60.4807 154.958 59.3042 153.87 57.6146C152.782 55.925 151.244 57.6146 151.244 57.6146C151.244 57.6146 150.766 56.2965 150.183 56.8007C149.599 57.305 150.183 57.9773 150.183 57.9773C150.183 57.9773 150.554 56.5619 149.467 57.0838C148.379 57.6057 145.885 57.3138 147.866 60.4719C149.847 63.6388 149.095 61.1088 148.211 59.8792C147.327 58.6496 145.178 56.7477 144.974 59.6049C144.771 62.4622 147.291 64.4526 148.927 64.028C150.563 63.6034 148.839 63.2053 148.176 63.5503C147.512 63.8953 145.036 64.0811 146.575 65.4699C146.575 65.4699 147.751 66.7703 149.245 66.7614C150.74 66.7526 152.438 66.7614 152.438 66.7614L152.429 66.7703Z" fill="#AFC3A6"/>
<path d="M154.321 62.6832C154.321 62.6832 154.338 61.9136 153.719 61.9136C153.1 61.9136 150.863 62.9663 151.942 63.1166C153.021 63.267 153.711 63.2582 154.312 62.6832H154.321Z" fill="#C9DFCE"/>
<path d="M153.242 57.5083C153.242 57.5083 153.154 57.1367 152.579 57.3933C152.005 57.6498 150.024 59.1006 151.067 58.7114C152.111 58.3221 152.756 58.0302 153.242 57.4994V57.5083Z" fill="#C9DFCE"/>
<path d="M147.265 60.7019C147.265 60.7019 147.778 60.2861 147.468 59.6934C147.159 59.1007 145.337 57.5261 145.788 58.6496C146.239 59.773 146.593 60.4365 147.265 60.7019V60.7019Z" fill="#C9DFCE"/>
<path d="M152.658 66.5933C152.658 66.5933 156.072 62.9929 154.294 62.126C154.294 62.126 157.433 59.3749 154.913 58.9503C152.393 58.5256 152.8 60.3037 152.8 60.3037C152.8 60.3037 155.187 59.1272 154.1 57.4376C153.012 55.748 151.473 57.4376 151.473 57.4376C151.473 57.4376 150.996 56.1195 150.412 56.6237C149.829 57.128 150.412 57.8003 150.412 57.8003C150.412 57.8003 150.784 56.3849 149.696 56.9068C148.608 57.4287 146.115 57.1368 148.095 60.2949C150.076 63.4618 149.325 60.9318 148.44 59.7022C147.556 58.4726 145.407 56.5707 145.204 59.4279C145.001 62.2852 147.521 64.2756 149.157 63.851C150.792 63.4175 149.068 63.0283 148.405 63.3733C147.742 63.7183 145.266 63.9041 146.804 65.2929C146.804 65.2929 147.981 66.5933 149.475 66.5844C150.969 66.5756 152.667 66.5844 152.667 66.5844L152.658 66.5933Z" stroke="#1A1A1A" stroke-width="0.2" stroke-linecap="round" stroke-linejoin="round"/>
<g style="mix-blend-mode:multiply" opacity="0.3">
<path d="M72.3595 68.2651C69.017 68.2651 65.6656 68.2651 62.3231 68.2651C61.6157 68.2651 60.8906 68.2651 60.2009 68.4067C59.5112 68.5482 58.848 68.8578 58.4766 69.3444C62.836 70.9544 68.2123 70.6182 72.2091 68.4863" fill="#7B948C"/>
</g>
<path d="M61.7392 69.309C61.7392 69.309 55.8235 63.0725 58.9007 61.5687C58.9007 61.5687 53.4625 56.8007 57.8396 56.0664C62.2167 55.3322 61.5004 58.4195 61.5004 58.4195C61.5004 58.4195 57.3621 56.3849 59.2544 53.4568C61.1467 50.5288 63.7995 53.4568 63.7995 53.4568C63.7995 53.4568 64.6307 51.1657 65.6299 52.0503C66.638 52.9349 65.6299 54.0937 65.6299 54.0937C65.6299 54.0937 64.9844 51.6345 66.8679 52.5457C68.7602 53.4568 73.0666 52.9349 69.6445 58.4195C66.2224 63.9041 67.5134 59.5164 69.052 57.3845C70.5906 55.2526 74.3134 51.9618 74.6671 56.9156C75.0208 61.8695 70.6525 65.3194 67.814 64.5675C64.9756 63.8244 67.9732 63.1433 69.1139 63.736C70.2546 64.3287 74.5521 64.6648 71.8905 67.0621C71.8905 67.0621 69.8567 69.309 67.257 69.3002C64.6572 69.2913 61.7303 69.3002 61.7303 69.3002L61.7392 69.309Z" fill="#AFC3A6"/>
<path d="M58.4766 62.241C58.4766 62.241 58.4501 60.9053 59.5112 60.9053C60.5723 60.9053 64.4542 62.7276 62.5796 62.9841C60.705 63.2406 59.5112 63.2318 58.4766 62.241V62.241Z" fill="#C9DFCE"/>
<path d="M60.334 53.2622C60.334 53.2622 60.4843 52.6164 61.4835 53.0675C62.4827 53.5187 65.9048 56.0221 64.1098 55.3498C62.3147 54.6775 61.1829 54.1645 60.334 53.2622Z" fill="#C9DFCE"/>
<path d="M70.6883 58.8089C70.6883 58.8089 69.804 58.0923 70.3346 57.0662C70.874 56.04 74.0219 53.3066 73.2438 55.2616C72.4656 57.2166 71.8555 58.3577 70.6794 58.8089H70.6883Z" fill="#C9DFCE"/>
<path d="M61.3505 68.9995C61.3505 68.9995 55.4348 62.763 58.512 61.2591C58.512 61.2591 53.0738 56.4911 57.4509 55.7569C61.828 55.0226 61.1117 58.1099 61.1117 58.1099C61.1117 58.1099 56.9734 56.0753 58.8657 53.1473C60.758 50.2192 63.4108 53.1473 63.4108 53.1473C63.4108 53.1473 64.242 50.8561 65.2412 51.7407C66.2405 52.6253 65.2412 53.7842 65.2412 53.7842C65.2412 53.7842 64.5957 51.325 66.4792 52.2361C68.3627 53.1473 72.6779 52.6253 69.2558 58.1099C65.8337 63.5945 67.1247 59.2068 68.6633 57.0749C70.202 54.943 73.9247 51.6523 74.2784 56.6061C74.6321 61.5599 70.2638 65.0099 67.4254 64.2579C64.5869 63.5149 67.5845 62.8337 68.7252 63.4264C69.8659 64.0191 74.1634 64.3553 71.5018 66.7525C71.5018 66.7525 69.468 68.9995 66.8683 68.9906C64.2686 68.9906 61.3417 68.9906 61.3417 68.9906L61.3505 68.9995Z" stroke="#1A1A1A" stroke-width="0.2" stroke-linecap="round" stroke-linejoin="round"/>
<path d="M46.3975 66.7526C49.3424 66.7526 51.7296 64.3644 51.7296 61.4184C51.7296 58.4724 49.3424 56.0842 46.3975 56.0842C43.4527 56.0842 41.0654 58.4724 41.0654 61.4184C41.0654 64.3644 43.4527 66.7526 46.3975 66.7526Z" fill="#F0EBD2"/>
<path opacity="0.3" d="M46.008 67.08C49.7684 67.08 52.8168 64.0304 52.8168 60.2685C52.8168 56.5066 49.7684 53.457 46.008 53.457C42.2476 53.457 39.1992 56.5066 39.1992 60.2685C39.1992 64.0304 42.2476 67.08 46.008 67.08Z" fill="#F0EBD2"/>
<path d="M46.2296 66.4784C49.1744 66.4784 51.5617 64.0903 51.5617 61.1443C51.5617 58.1983 49.1744 55.8101 46.2296 55.8101C43.2847 55.8101 40.8975 58.1983 40.8975 61.1443C40.8975 64.0903 43.2847 66.4784 46.2296 66.4784Z" stroke="#1A1A1A" stroke-width="0.2" stroke-linecap="round" stroke-linejoin="round"/>
<path d="M176.658 68.6722C178.865 68.6722 180.655 66.882 180.655 64.6737C180.655 62.4655 178.865 60.6753 176.658 60.6753C174.451 60.6753 172.661 62.4655 172.661 64.6737C172.661 66.882 174.451 68.6722 176.658 68.6722Z" fill="#F0EBD2"/>
<path opacity="0.3" d="M176.357 68.911C179.175 68.911 181.459 66.6258 181.459 63.8068C181.459 60.9879 179.175 58.7026 176.357 58.7026C173.539 58.7026 171.255 60.9879 171.255 63.8068C171.255 66.6258 173.539 68.911 176.357 68.911Z" fill="#F0EBD2"/>
<path d="M176.525 68.4598C178.733 68.4598 180.522 66.6696 180.522 64.4613C180.522 62.2531 178.733 60.4629 176.525 60.4629C174.318 60.4629 172.528 62.2531 172.528 64.4613C172.528 66.6696 174.318 68.4598 176.525 68.4598Z" stroke="#1A1A1A" stroke-width="0.2" stroke-linecap="round" stroke-linejoin="round"/>
<path d="M181.901 68.9553C183.459 68.9553 184.722 67.6919 184.722 66.1334C184.722 64.5749 183.459 63.3115 181.901 63.3115C180.343 63.3115 179.08 64.5749 179.08 66.1334C179.08 67.6919 180.343 68.9553 181.901 68.9553Z" fill="#F0EBD2"/>
<path opacity="0.3" d="M181.689 69.1233C183.676 69.1233 185.288 67.5114 185.288 65.523C185.288 63.5345 183.676 61.9226 181.689 61.9226C179.701 61.9226 178.09 63.5345 178.09 65.523C178.09 67.5114 179.701 69.1233 181.689 69.1233Z" fill="#F0EBD2"/>
<path d="M181.804 68.8049C183.362 68.8049 184.625 67.5415 184.625 65.983C184.625 64.4245 183.362 63.1611 181.804 63.1611C180.246 63.1611 178.983 64.4245 178.983 65.983C178.983 67.5415 180.246 68.8049 181.804 68.8049Z" stroke="#1A1A1A" stroke-width="0.2" stroke-linecap="round" stroke-linejoin="round"/>
<path d="M198.605 79.8713L198.676 74.9529L195.431 74.0418L195.201 74.1037L192.371 74.8202L165.605 66.6287L165.631 64.8684L163.359 64.1695L163.456 57.7561L122.214 63.5238L67.0894 62.6657L51.8093 56.0134L51.7121 62.1526L49.9789 62.6834L49.9524 64.4968L27.4391 71.9983L25.308 70.2645L21.6826 71.3791L21.603 76.6956L12.1768 79.4556L38.6604 103.942L154.233 105.755L211.268 83.8609L198.605 79.8713Z" fill="#899284"/>
<path d="M51.7207 62.1792L67.0007 68.9376L123.744 69.8223L163.367 64.1961L163.465 57.7916L123.646 63.4973L67.098 62.6923L51.818 56.04L51.7207 62.1792Z" fill="#D2CFC0"/>
<path d="M163.465 57.7916L123.647 63.4973L67.0984 62.6923L51.8184 56.04" stroke="#010100" stroke-width="0.2" stroke-linecap="round" stroke-linejoin="round"/>
<path d="M51.7207 62.1792L67.0007 68.9376L123.744 69.8222L163.367 64.1961" stroke="#010100" stroke-width="0.2" stroke-linecap="round" stroke-linejoin="round"/>
<path d="M21.7095 71.3438L21.6299 76.6603L45.2485 95.3786L146.098 97.307L198.933 79.9864L199.004 75.068L146.169 92.4417L45.4342 90.0179L21.7095 71.3438Z" fill="#D2CFC0"/>
<path d="M49.9875 62.71L65.8688 70.1495L125.388 71.0784L165.64 64.8949L165.613 66.6553L125.645 73.0422L65.745 72.0957L49.9609 64.5234L49.9875 62.71Z" fill="#D2CFC0"/>
<path d="M165.613 66.6553L125.645 73.0422L65.745 72.0957L49.9609 64.5234" stroke="#010100" stroke-width="0.2" stroke-linecap="round" stroke-linejoin="round"/>
<path d="M49.9873 62.71L65.8686 70.1495L125.388 71.0784L165.64 64.8949" stroke="#010100" stroke-width="0.2" stroke-linecap="round" stroke-linejoin="round"/>
<path d="M21.6123 76.731L45.2928 95.4758L146.081 97.3954L198.615 79.8979" stroke="#010100" stroke-width="0.2" stroke-linecap="round" stroke-linejoin="round"/>
<path d="M21.6914 71.4055L45.3808 90.1504L146.169 92.3619L198.685 74.9882" stroke="#010100" stroke-width="0.2" stroke-linecap="round" stroke-linejoin="round"/>
<path d="M25.3164 70.291L47.1577 87.4613L145.443 89.0005L195.209 74.1302" stroke="#010100" stroke-width="0.2" stroke-linecap="round" stroke-linejoin="round"/>
<path d="M67.0982 62.6921L67.001 68.9375" stroke="#010100" stroke-width="0.2" stroke-linecap="round" stroke-linejoin="round"/>
<path d="M146.151 92.4241L146.08 97.3071" stroke="#010100" stroke-width="0.2" stroke-linecap="round" stroke-linejoin="round"/>
<path d="M147.672 91.9817L147.593 96.8647" stroke="#010100" stroke-width="0.2" stroke-linecap="round" stroke-linejoin="round"/>
<path d="M149.193 91.4597L149.113 96.3339" stroke="#010100" stroke-width="0.2" stroke-linecap="round" stroke-linejoin="round"/>
<path d="M150.714 90.8936L150.635 95.7678" stroke="#010100" stroke-width="0.2" stroke-linecap="round" stroke-linejoin="round"/>
<path d="M152.235 90.4158L152.155 95.2988" stroke="#010100" stroke-width="0.2" stroke-linecap="round" stroke-linejoin="round"/>
<path d="M153.747 89.9294L153.676 94.8125" stroke="#010100" stroke-width="0.2" stroke-linecap="round" stroke-linejoin="round"/>
<path d="M155.268 89.4604L155.188 94.3435" stroke="#010100" stroke-width="0.2" stroke-linecap="round" stroke-linejoin="round"/>
<path d="M156.789 88.8589L156.709 93.7331" stroke="#010100" stroke-width="0.2" stroke-linecap="round" stroke-linejoin="round"/>
<path d="M158.31 88.4077L158.23 93.2908" stroke="#010100" stroke-width="0.2" stroke-linecap="round" stroke-linejoin="round"/>
<path d="M159.831 87.9656L159.751 92.8486" stroke="#010100" stroke-width="0.2" stroke-linecap="round" stroke-linejoin="round"/>
<path d="M161.342 87.4348L161.263 92.3179" stroke="#010100" stroke-width="0.2" stroke-linecap="round" stroke-linejoin="round"/>
<path d="M162.705 86.9924L162.625 91.8666" stroke="#010100" stroke-width="0.2" stroke-linecap="round" stroke-linejoin="round"/>
<path d="M164.066 86.5413L163.986 91.4155" stroke="#010100" stroke-width="0.2" stroke-linecap="round" stroke-linejoin="round"/>
<path d="M165.428 86.0901L165.349 90.9731" stroke="#010100" stroke-width="0.2" stroke-linecap="round" stroke-linejoin="round"/>
<path d="M166.79 85.6479L166.71 90.5221" stroke="#010100" stroke-width="0.2" stroke-linecap="round" stroke-linejoin="round"/>
<path d="M168.152 85.1968L168.072 90.071" stroke="#010100" stroke-width="0.2" stroke-linecap="round" stroke-linejoin="round"/>
<path d="M169.513 84.7456L169.434 89.6286" stroke="#010100" stroke-width="0.2" stroke-linecap="round" stroke-linejoin="round"/>
<path d="M170.875 84.3032L170.796 89.1774" stroke="#010100" stroke-width="0.2" stroke-linecap="round" stroke-linejoin="round"/>
<path d="M172.237 83.7637L172.157 88.6379" stroke="#010100" stroke-width="0.2" stroke-linecap="round" stroke-linejoin="round"/>
<path d="M173.598 83.3125L173.519 88.1955" stroke="#010100" stroke-width="0.2" stroke-linecap="round" stroke-linejoin="round"/>
<path d="M174.96 82.8525L174.881 87.7887" stroke="#010100" stroke-width="0.2" stroke-linecap="round" stroke-linejoin="round"/>
<path d="M176.322 82.4102L176.242 87.3374" stroke="#010100" stroke-width="0.2" stroke-linecap="round" stroke-linejoin="round"/>
<path d="M177.684 81.9856L177.604 86.8686" stroke="#010100" stroke-width="0.2" stroke-linecap="round" stroke-linejoin="round"/>
<path d="M179.045 81.5344L178.966 86.4882" stroke="#010100" stroke-width="0.2" stroke-linecap="round" stroke-linejoin="round"/>
<path d="M180.408 81.0833L180.328 85.984" stroke="#010100" stroke-width="0.2" stroke-linecap="round" stroke-linejoin="round"/>
<path d="M181.769 80.6145L181.689 85.5329" stroke="#010100" stroke-width="0.2" stroke-linecap="round" stroke-linejoin="round"/>
<path d="M183.131 80.1543L183.052 85.0462" stroke="#010100" stroke-width="0.2" stroke-linecap="round" stroke-linejoin="round"/>
<path d="M184.484 79.7209L184.413 84.604" stroke="#010100" stroke-width="0.2" stroke-linecap="round" stroke-linejoin="round"/>
<path d="M185.845 79.2698L185.774 84.1705" stroke="#010100" stroke-width="0.2" stroke-linecap="round" stroke-linejoin="round"/>
<path d="M187.207 78.8274L187.137 83.7104" stroke="#010100" stroke-width="0.2" stroke-linecap="round" stroke-linejoin="round"/>
<path d="M188.569 78.3765L188.498 83.2507" stroke="#010100" stroke-width="0.2" stroke-linecap="round" stroke-linejoin="round"/>
<path d="M189.931 77.9341L189.86 82.8083" stroke="#010100" stroke-width="0.2" stroke-linecap="round" stroke-linejoin="round"/>
<path d="M191.292 77.4741L191.222 82.3572" stroke="#010100" stroke-width="0.2" stroke-linecap="round" stroke-linejoin="round"/>
<path d="M192.655 77.0317L192.584 81.8971" stroke="#010100" stroke-width="0.2" stroke-linecap="round" stroke-linejoin="round"/>
<path d="M194.016 76.5894L193.945 81.4459" stroke="#010100" stroke-width="0.2" stroke-linecap="round" stroke-linejoin="round"/>
<path d="M195.378 76.1382L195.299 80.977" stroke="#010100" stroke-width="0.2" stroke-linecap="round" stroke-linejoin="round"/>
<path d="M196.74 75.6873L196.66 80.5349" stroke="#010100" stroke-width="0.2" stroke-linecap="round" stroke-linejoin="round"/>
<path d="M198.101 75.2271L198.021 80.0836" stroke="#010100" stroke-width="0.2" stroke-linecap="round" stroke-linejoin="round"/>
<path d="M123.647 63.4973L123.55 69.8223" stroke="#010100" stroke-width="0.2" stroke-linecap="round" stroke-linejoin="round"/>
<path d="M45.3804 90.1504L45.292 95.4757" stroke="#010100" stroke-width="0.2" stroke-linecap="round" stroke-linejoin="round"/>
<path d="M51.2519 63.3025C51.2519 63.3025 35.4767 69.9194 26.2627 71.034" stroke="#010100" stroke-width="0.2" stroke-linecap="round" stroke-linejoin="round"/>
<path d="M53.1447 64.2402C53.1447 64.2402 40.0134 71.264 28.6064 72.9536" stroke="#010100" stroke-width="0.2" stroke-linecap="round" stroke-linejoin="round"/>
<path d="M55.1788 65.1868C55.1788 65.1868 42.4101 72.3786 30.4902 74.3602" stroke="#010100" stroke-width="0.2" stroke-linecap="round" stroke-linejoin="round"/>
<path d="M57.5744 66.3191C57.5744 66.3191 44.0629 75.1917 33.5225 76.7398" stroke="#010100" stroke-width="0.2" stroke-linecap="round" stroke-linejoin="round"/>
<path d="M58.892 66.9827C58.892 66.9827 48.9086 74.9795 35.4502 78.2526" stroke="#010100" stroke-width="0.2" stroke-linecap="round" stroke-linejoin="round"/>
<path d="M61.1291 68.053C61.1291 68.053 51.1015 76.6337 39.1729 81.1894" stroke="#010100" stroke-width="0.2" stroke-linecap="round" stroke-linejoin="round"/>
<path d="M63.154 68.8757C63.154 68.8757 54.3556 77.1026 42.2324 83.5868" stroke="#010100" stroke-width="0.2" stroke-linecap="round" stroke-linejoin="round"/>
<path d="M64.5607 69.5303C64.5607 69.5303 54.1795 79.836 44.8594 85.6479" stroke="#010100" stroke-width="0.2" stroke-linecap="round" stroke-linejoin="round"/>
<path d="M66.9302 70.1584C66.9302 70.1584 57.7781 81.6672 48.458 87.4791" stroke="#010100" stroke-width="0.2" stroke-linecap="round" stroke-linejoin="round"/>
<path d="M70.9712 70.229C70.9712 70.229 61.8191 81.7378 52.499 87.5497" stroke="#010100" stroke-width="0.2" stroke-linecap="round" stroke-linejoin="round"/>
<path d="M75.0212 70.291C75.0212 70.291 69.9544 81.1363 57.9727 87.4082" stroke="#010100" stroke-width="0.2" stroke-linecap="round" stroke-linejoin="round"/>
<path d="M79.0622 70.353C79.3983 70.1053 80.7689 76.6514 64.2686 87.7267" stroke="#010100" stroke-width="0.2" stroke-linecap="round" stroke-linejoin="round"/>
<path d="M83.1124 70.4148C83.1124 70.4148 80.4773 82.0209 71.1572 87.8328" stroke="#010100" stroke-width="0.2" stroke-linecap="round" stroke-linejoin="round"/>
<path d="M87.1529 70.4768C87.1529 70.4768 85.2605 82.0917 75.9404 87.9036" stroke="#010100" stroke-width="0.2" stroke-linecap="round" stroke-linejoin="round"/>
<path d="M91.203 70.5476C91.203 70.5476 90.5398 82.1891 81.2197 88.001" stroke="#010100" stroke-width="0.2" stroke-linecap="round" stroke-linejoin="round"/>
<path d="M95.2446 70.6094C95.2446 70.6094 94.3603 80.9682 89.2051 88.1246" stroke="#010100" stroke-width="0.2" stroke-linecap="round" stroke-linejoin="round"/>
<path d="M99.2937 70.6714C99.2937 70.6714 96.8089 83.4451 94.0146 88.1955" stroke="#010100" stroke-width="0.2" stroke-linecap="round" stroke-linejoin="round"/>
<path d="M103.335 70.7334C103.335 70.7334 101.027 83.5072 99.0107 88.2752" stroke="#010100" stroke-width="0.2" stroke-linecap="round" stroke-linejoin="round"/>
<path d="M107.385 70.7952C107.385 70.7952 106.014 85.3116 104.6 88.3547" stroke="#010100" stroke-width="0.2" stroke-linecap="round" stroke-linejoin="round"/>
<path d="M111.426 70.8572C111.426 70.8572 110.02 83.8344 112.143 88.4786" stroke="#010100" stroke-width="0.2" stroke-linecap="round" stroke-linejoin="round"/>
<path d="M115.477 70.928C115.477 70.928 115.821 84.7456 117.475 88.3459" stroke="#010100" stroke-width="0.2" stroke-linecap="round" stroke-linejoin="round"/>
<path d="M119.518 70.9897C119.518 70.9897 121.33 82.472 127.538 88.7262" stroke="#010100" stroke-width="0.2" stroke-linecap="round" stroke-linejoin="round"/>
<path d="M123.567 71.0518C123.567 71.0518 127.883 83.0471 138.918 88.9032" stroke="#010100" stroke-width="0.2" stroke-linecap="round" stroke-linejoin="round"/>
<path d="M128.555 70.5918C128.555 70.5918 136.495 85.1702 146.85 88.4874" stroke="#010100" stroke-width="0.2" stroke-linecap="round" stroke-linejoin="round"/>
<path d="M132.507 69.9814C132.507 69.9814 137.211 80.9506 150.378 87.5233" stroke="#010100" stroke-width="0.2" stroke-linecap="round" stroke-linejoin="round"/>
<path d="M136.053 69.5391C136.053 69.5391 141.42 80.3225 153.906 86.4705" stroke="#010100" stroke-width="0.2" stroke-linecap="round" stroke-linejoin="round"/>
<path d="M140.156 68.8933C140.156 68.8933 145.232 79.5617 157.452 85.4178" stroke="#010100" stroke-width="0.2" stroke-linecap="round" stroke-linejoin="round"/>
<path d="M142.889 68.3892C142.889 68.3892 148.681 79.6149 160.485 84.5067" stroke="#010100" stroke-width="0.2" stroke-linecap="round" stroke-linejoin="round"/>
<path d="M145.408 68C145.408 68 151.731 78.7303 165.357 83.0472" stroke="#010100" stroke-width="0.2" stroke-linecap="round" stroke-linejoin="round"/>
<path d="M147.981 67.6106C147.981 67.6106 156.019 78.3232 168.196 82.2067" stroke="#010100" stroke-width="0.2" stroke-linecap="round" stroke-linejoin="round"/>
<path d="M150.157 67.2834C150.157 67.2834 157.594 76.4834 171.884 81.101" stroke="#010100" stroke-width="0.2" stroke-linecap="round" stroke-linejoin="round"/>
<path d="M153.826 66.6995C153.826 66.6995 161.882 75.6163 175.437 80.0394" stroke="#010100" stroke-width="0.2" stroke-linecap="round" stroke-linejoin="round"/>
<path d="M157.753 66.1157C157.753 66.1157 167.206 75.5987 181.38 78.2703" stroke="#010100" stroke-width="0.2" stroke-linecap="round" stroke-linejoin="round"/>
<path d="M161.572 65.5229C161.572 65.5229 173.987 74.8467 187.658 76.386" stroke="#010100" stroke-width="0.2" stroke-linecap="round" stroke-linejoin="round"/>
<path d="M164.597 65.0276C164.597 65.0276 174.324 71.8479 192.371 74.8202" stroke="#010100" stroke-width="0.2" stroke-linecap="round" stroke-linejoin="round"/>
<path d="M47.7861 64.6914C47.7861 64.6914 53.8345 69.6364 64.1626 72.8033C74.4908 75.979 114.353 74.7671 125.672 74.7848C140.669 74.8025 169.646 66.9472 169.646 66.9472" stroke="#010100" stroke-width="0.2" stroke-linecap="round" stroke-linejoin="round"/>
<path d="M31.4893 69.4507C31.4893 69.4507 42.9758 80.9506 54.4535 83.0294C68.0977 85.5063 121.56 86.0459 133.842 85.4444C153.27 84.489 183.228 73.8649 183.228 73.8649" stroke="#010100" stroke-width="0.2" stroke-linecap="round" stroke-linejoin="round"/>
<path d="M37.4844 69.2915C37.4844 69.2915 43.515 76.8284 54.9927 78.9072C68.6369 81.3841 122.099 81.9237 134.382 81.3222C153.809 80.3668 179.214 71.0253 179.214 71.0253" stroke="#010100" stroke-width="0.2" stroke-linecap="round" stroke-linejoin="round"/>
<path d="M42.3037 66.1865C42.3037 66.1865 49.1125 73.2722 55.6472 75.3776C68.8492 79.6237 122.754 78.3941 135.036 77.7926C154.463 76.8372 171.751 69.5657 171.751 69.5657" stroke="#010100" stroke-width="0.2" stroke-linecap="round" stroke-linejoin="round"/>
<g style="mix-blend-mode:multiply">
<path d="M105.855 78.9074C105.546 80.7474 102.902 82.3043 97.5168 82.375C92.1317 82.4458 91.2916 82.2689 90.8495 82.5343C90.4074 82.7997 88.3028 80.8889 89.8061 78.6774C91.3005 76.4659 102.248 79.6239 103.574 78.7835C104.9 77.9432 106.05 77.8105 105.864 78.9074H105.855Z" fill="#BBBAAE"/>
</g>
<path d="M86.9766 49.8566C86.9766 49.8566 86.225 48.9985 86.2781 47.7689C86.2781 47.7689 86.6937 43.2839 92.9985 43.3724C96.9599 43.4343 97.9061 48.4058 98.1979 50.1485C98.9053 54.315 103.327 54.1381 104.98 55.8808C106.634 57.6234 106.068 60.3746 103.946 61.1353C99.71 62.6392 96.6593 63.0461 94.0065 60.0473C92.9719 58.8796 90.8409 60.7727 88.5064 59.2511C86.172 57.7296 87.9759 53.2446 88.1792 52.5192C88.3826 51.7939 86.9855 49.8566 86.9855 49.8566" fill="#7B6662"/>
<path d="M94.8816 56.2612L94.6075 52.9263C94.2538 53.634 93.3341 55.067 91.3446 55.8366C91.2031 55.8455 91.0528 55.8366 90.9024 55.8189C90.9466 56.3762 90.9997 57.0928 91.0262 57.4909C91.0262 57.5705 91.0262 57.6412 91.0351 57.6943C90.2834 58.4285 91.4065 59.0566 92.441 58.9151C95.1911 58.6851 94.8904 56.2878 94.8816 56.2612V56.2612Z" fill="#E3E2E1" stroke="#1A1A1A" stroke-width="0.2" stroke-linecap="round" stroke-linejoin="round"/>
<path d="M87.2419 48.3793C87.2596 48.2112 87.2861 48.0432 87.3303 47.8662C87.348 47.7866 87.3745 47.707 87.401 47.6185C87.401 47.6185 87.401 47.6008 87.401 47.592C87.4276 47.5124 87.4541 47.4416 87.4806 47.3708C87.4806 47.362 87.4895 47.3443 87.4983 47.3355C87.5248 47.2647 87.5602 47.1939 87.6044 47.1232C87.6044 47.1055 87.6221 47.0966 87.6221 47.0789C87.6575 47.0082 87.7017 46.9374 87.7547 46.8755C87.7547 46.8666 87.7724 46.8489 87.7813 46.8401C87.8962 46.6897 88.0289 46.5482 88.188 46.4243C88.188 46.4332 88.4975 47.5389 89.3553 48.1935C90.0185 48.7066 91.0265 48.9455 92.4679 48.167C92.5563 49.2462 92.8392 49.6885 93.1045 49.8566C93.361 50.0247 93.5997 49.9274 93.5997 49.9274C93.5201 48.9808 94.3779 49.0074 94.3779 49.0074C94.3779 49.0074 94.3955 49.0074 94.4309 49.0074C94.4663 49.0074 94.5105 49.0162 94.5636 49.0339C94.6255 49.0516 94.705 49.0693 94.7846 49.1047C94.7846 49.1047 94.7935 49.1047 94.8023 49.1047C94.8819 49.1401 94.9703 49.1843 95.0411 49.2551C95.103 49.3081 95.1649 49.3701 95.2091 49.4497C95.2533 49.5205 95.2975 49.6089 95.324 49.7151C95.3682 49.8743 95.3771 50.0689 95.3329 50.3078C95.3329 50.3166 95.3329 50.3254 95.3329 50.3343C95.3152 50.4228 95.2975 50.5024 95.271 50.582C95.271 50.6085 95.2533 50.6351 95.2444 50.6616C95.2179 50.7324 95.1914 50.7943 95.1649 50.8474C95.1649 50.8651 95.1472 50.8739 95.1472 50.8916C95.1206 50.9447 95.0853 50.9889 95.0499 51.0331C95.0411 51.0508 95.0234 51.0685 95.0145 51.0774C94.9792 51.1127 94.9438 51.1481 94.9084 51.1747C94.8907 51.1835 94.873 51.2012 94.8642 51.2101C94.8377 51.2277 94.82 51.2454 94.7935 51.2543C94.7758 51.2631 94.7581 51.272 94.7404 51.2808C94.7227 51.2808 94.705 51.2985 94.6874 51.3074C94.6697 51.3074 94.652 51.3162 94.6343 51.3251C94.6166 51.3251 94.5989 51.3339 94.5812 51.3427C94.5636 51.3427 94.5459 51.3427 94.537 51.3516C94.5193 51.3516 94.5017 51.3516 94.4928 51.3516C94.4663 51.3516 94.4398 51.3516 94.4132 51.3516C94.4044 51.3516 94.3955 51.3516 94.3867 51.3516C94.369 51.3516 94.3602 51.3516 94.3425 51.3516H94.3248C94.316 51.3516 94.2983 51.3516 94.2894 51.3516C94.2629 51.3516 94.2541 51.3516 94.2541 51.3516C94.2541 51.3516 94.1126 52.2097 94.6166 52.9262C94.2629 53.6339 93.3433 55.0669 91.3537 55.8366C91.2122 55.8454 91.0619 55.8366 90.9116 55.8189C89.6559 55.6331 88.2057 54.3062 87.6575 52.5812C87.348 51.5993 87.1977 49.5647 87.2507 48.3793H87.2419Z" fill="#E3E2E1" stroke="#1A1A1A" stroke-width="0.2" stroke-linecap="round" stroke-linejoin="round"/>
<path d="M95.1996 53.4836C94.0058 52.7671 94.2357 51.3428 94.2357 51.3428C94.2357 51.3428 95.12 51.5551 95.3411 50.299C95.5621 49.0429 94.3861 48.9898 94.3861 48.9898C94.3861 48.9898 93.5283 48.9632 93.6079 49.9098C93.6079 49.9098 92.6529 50.3167 92.4761 48.1494C89.1689 49.9275 88.1962 46.4067 88.1962 46.4067C86.9671 47.3621 87.2501 49.4586 87.2501 49.4586C87.2501 49.4586 86.4985 48.6005 86.5515 47.3709C86.5515 47.3709 86.9671 42.886 93.2719 42.9744C97.2334 43.0364 98.1795 48.0079 98.4714 49.7505C99.1788 53.9171 103.6 53.7401 105.254 55.4828C106.907 57.2255 106.341 59.9766 104.219 60.7374C104.219 60.7374 103.644 60.8789 102.716 60.8701" stroke="#1A1A1A" stroke-width="0.2" stroke-linecap="round" stroke-linejoin="round"/>
<path d="M88.3379 45.9643C88.3379 45.9643 89.1956 44.0447 90.858 43.6201" stroke="#1A1A1A" stroke-width="0.2" stroke-linecap="round" stroke-linejoin="round"/>
<path d="M69.1148 91.8137C69.1148 91.8137 69.1148 91.8137 69.1148 91.796C68.4516 91.3891 66.8864 90.4514 65.7104 89.8941C64.8084 89.4607 64.1452 89.2484 64.3132 89.6818C64.4901 90.1153 64.7642 90.531 65.1091 90.9291C67.2401 93.4149 71.9532 95.016 71.9532 95.016L72.6076 93.7422L69.1148 91.8226V91.8137Z" fill="#C4B19C"/>
<path d="M61.5008 89.4961C61.5008 89.4961 57.9107 90.9734 56.1421 90.708C54.3736 90.4515 53.1003 90.9911 56.2306 91.7961C59.3609 92.6011 63.2162 93.9015 63.2162 93.9015L64.4277 91.2653L62.721 90.2392L61.4919 89.4961H61.5008Z" fill="#C4B19C"/>
<path d="M95.7572 75.9615C91.1502 77.2619 85.1372 75.5634 85.1372 75.5634L85.1903 75.1742L84.589 75.13L81.8478 74.9265C81.7859 74.953 81.7328 74.9796 81.6886 75.0061C81.5206 75.1123 81.3614 75.0415 81.22 74.8734C81.1227 74.7584 81.0431 74.5903 80.9724 74.3957C80.9547 74.3338 80.9282 74.2719 80.9105 74.21C80.8397 74.21 80.769 74.21 80.6983 74.21C80.4418 74.21 80.1765 74.21 79.9024 74.21C76.498 74.2453 72.0944 74.44 69.8572 75.3953C66.0461 77.023 68.071 80.7384 61.1826 89.3456L62.7212 90.2745L64.4279 91.3006L64.7904 91.5218C64.7904 91.5218 64.9054 91.3183 65.1087 90.9645C64.7727 90.5752 64.4986 90.1595 64.3129 89.7172C64.1449 89.2837 64.8081 89.496 65.71 89.9295C67.116 87.5587 69.8042 83.1976 71.4754 81.6407C70.0783 88.0453 69.1763 91.5748 69.1056 91.8402C69.3001 91.9641 69.4239 92.0348 69.4239 92.0348L72.5984 93.7775C74.2166 92.2471 78.1604 82.1538 78.5672 81.1011C78.5937 81.0391 78.6026 81.0038 78.6026 81.0038C78.7971 81.0303 78.9739 81.0568 79.1685 81.0745C96.9244 83.3834 97.1013 76.3684 97.1013 76.0676V76.0588L95.7484 75.9615H95.7572Z" fill="#BFCCE1"/>
<path d="M80.9548 74.1037C80.9371 74.0418 80.9106 73.9799 80.8929 73.918C80.8222 73.918 80.7514 73.918 80.6807 73.918C80.4242 73.918 80.159 73.918 79.8848 73.918C76.4804 73.9534 72.0768 74.148 69.8396 75.1033C66.0285 76.731 68.0534 80.4464 61.165 89.0536L62.7037 89.9825L64.4103 91.0086L64.7728 91.2298C64.7728 91.2298 64.8878 91.0263 65.0912 90.6725C64.7551 90.2832 64.481 89.8675 64.2953 89.4252C64.1273 88.9917 64.7905 89.204 65.6925 89.6375C67.0984 87.2667 69.7866 82.9056 71.4578 81.3487C71.5374 80.9683 71.6258 80.5879 71.7054 80.1899C72.4836 76.5718 72.6427 73.9799 80.4066 74.5107C80.663 74.5284 80.9194 74.546 81.1936 74.5726C81.0963 74.4576 81.0167 74.2895 80.946 74.0949L80.9548 74.1037Z" stroke="#1A1A1A" stroke-width="0.2" stroke-linecap="round" stroke-linejoin="round"/>
<path d="M95.7395 75.6785C91.1325 76.9788 85.1195 75.2804 85.1195 75.2804L85.1725 74.8912L84.5712 74.8469L81.83 74.6435C81.7681 74.67 81.7151 74.6966 81.6709 74.7231C81.5029 74.8292 81.3437 74.7585 81.2022 74.5904C80.9281 74.5639 80.6717 74.5462 80.4152 74.5285C72.6514 73.9977 72.4922 76.5896 71.7141 80.2077C71.6257 80.6057 71.5461 80.9861 71.4665 81.3665C70.0694 87.7711 69.1674 91.3007 69.0967 91.5661C69.2912 91.6899 69.415 91.7607 69.415 91.7607L72.5895 93.5033C74.2077 91.973 78.1515 81.8796 78.5583 80.8269C78.5848 80.765 78.5936 80.7296 78.5936 80.7296C78.7882 80.7561 78.965 80.7827 79.1596 80.8004C96.9155 83.1092 97.0924 76.0942 97.0924 75.7935V75.7846L95.7395 75.6873V75.6785Z" stroke="#1A1A1A" stroke-width="0.2" stroke-linecap="round" stroke-linejoin="round"/>
<path d="M97.6758 57.6414C97.8615 57.836 98.5335 58.579 99.2321 59.7998C98.7811 58.924 98.2506 58.1898 97.6758 57.6414Z" fill="#FBFBFA" stroke="#1A1A1A" stroke-width="0.2" stroke-linecap="round" stroke-linejoin="round"/>
<path d="M89.1432 58.1721C89.1432 58.1721 84.2355 62.6659 82.9976 69.1678C82.9976 69.1678 80.5393 70.1763 79.9469 71.7509C79.3544 73.3255 79.7612 73.9535 79.7612 73.9535C80.0353 73.9535 80.3006 73.9535 80.557 73.9535C80.6278 73.9535 80.6985 73.9535 80.7692 73.9535C80.7427 73.8651 80.725 73.7766 80.7073 73.6793C80.5393 72.7947 80.6543 71.6536 81.3882 71.3086C81.9807 71.0343 82.5289 70.9459 83.0329 70.9636C84.4036 69.7163 85.7565 68.5397 86.2251 66.0186C87.0033 61.8256 88.1351 59.4902 89.152 58.1721H89.1432Z" fill="#E3E2E1"/>
<path d="M97.499 57.6235C96.933 57.0928 96.3317 56.7389 95.7481 56.5885C95.4475 56.5089 95.1557 56.4559 94.855 56.4116C94.8196 57.1989 94.4748 58.7735 92.3172 58.9593C91.2384 59.1097 90.0623 58.3843 90.8405 57.5705C90.8316 57.3228 90.8139 57.022 90.7874 56.7212C90.363 56.9335 89.7705 57.3493 89.1427 58.172C88.1258 59.4812 86.9939 61.8254 86.2158 66.0185C85.7471 68.5485 84.3854 69.7161 83.0236 70.9634C83.7752 70.99 84.3854 71.2554 84.8187 71.5119C85.2254 71.7596 85.4553 71.9896 85.4553 71.9896L85.1105 74.4488C85.1105 74.4488 84.8187 74.4311 84.4119 74.4134C84.1997 74.4134 83.9521 74.4046 83.6868 74.4134C83.3685 74.4134 83.0236 74.4311 82.7053 74.4576C82.3162 74.493 81.9536 74.5638 81.7061 74.67L84.4473 74.8734L85.0486 74.9177L85.473 71.8392C87.7809 70.3973 94.0238 70.1673 94.0238 70.1673C93.9 69.0792 95.0053 69.15 95.0053 69.15C94.7577 68.0708 94.0238 65.5231 94.2449 62.5331C94.4659 59.5431 96.261 58.5347 97.4901 57.6235H97.499Z" fill="#BCB5B1"/>
<path d="M99.1088 59.8263C98.4103 58.6055 97.7382 57.8624 97.5525 57.6678C97.5349 57.6501 97.5172 57.6324 97.4995 57.6147C96.2615 58.5259 94.4753 59.5344 94.2543 62.5243C94.0332 65.5143 94.7671 68.062 95.0147 69.1412C95.0147 69.1412 93.9094 69.0704 94.0332 70.1585C94.0332 70.1585 87.7903 70.3885 85.4824 71.8304L85.0579 74.9089L85.0049 75.2981C85.0049 75.2981 91.009 76.9965 95.6249 75.6962C96.3323 75.4927 97.0043 75.2273 97.6233 74.8646C99.0293 74.0419 100.126 72.7681 100.586 70.822C101.77 65.8151 100.391 62.0201 99.1177 59.8086L99.1088 59.8263Z" fill="#E3E2E1"/>
<path d="M89.275 58.1367C89.275 58.1367 84.3674 62.6305 83.1294 69.1324C83.1294 69.1324 80.6712 70.1409 80.0787 71.7155C79.4863 73.2901 79.893 73.9181 79.893 73.9181C80.1671 73.9181 80.4324 73.9181 80.6889 73.9181C80.7596 73.9181 80.8303 73.9181 80.9011 73.9181C80.8745 73.8297 80.8569 73.7412 80.8392 73.6439C80.6712 72.7593 80.7861 71.6182 81.5201 71.2732C82.1125 70.9989 82.6608 70.9105 83.1648 70.9282C84.5354 69.6809 85.8883 68.5043 86.357 65.9832C87.1351 61.7902 88.267 59.4548 89.2839 58.1367H89.275Z" stroke="#1A1A1A" stroke-width="0.2" stroke-linecap="round" stroke-linejoin="round"/>
<path d="M97.623 57.5881C97.0571 57.0574 96.4558 56.7035 95.8721 56.5531C95.5715 56.4735 95.2797 56.4205 94.979 56.3762C94.9437 57.1635 94.5988 58.7381 92.4412 58.9239C91.3624 59.0743 90.1863 58.3489 90.9645 57.5351C90.9557 57.2874 90.938 56.9866 90.9114 56.6858C90.487 56.8981 89.8945 57.3139 89.2667 58.1366C88.2498 59.4458 87.118 61.79 86.3398 65.9831C85.8711 68.5131 84.5094 69.6807 83.1476 70.928C83.8992 70.9546 84.5094 71.22 84.9427 71.4765C85.3494 71.7242 85.5793 71.9542 85.5793 71.9542L85.2345 74.4134C85.2345 74.4134 84.9427 74.3957 84.5359 74.378C84.3237 74.378 84.0761 74.3692 83.8108 74.378C83.4925 74.378 83.1476 74.3957 82.8293 74.4222C82.4402 74.4576 82.0777 74.5284 81.8301 74.6346L84.5713 74.838L85.1726 74.8822L85.597 71.8038C87.905 70.3619 94.1478 70.1319 94.1478 70.1319C94.024 69.0438 95.1294 69.1146 95.1294 69.1146C94.8818 68.0354 94.1478 65.4877 94.3689 62.4977C94.59 59.5077 96.385 58.4993 97.6141 57.5881H97.623Z" stroke="#1A1A1A" stroke-width="0.2" stroke-linecap="round" stroke-linejoin="round"/>
<path d="M97.623 57.5881C97.6406 57.6057 97.6581 57.6232 97.6756 57.6407C97.6406 57.6057 97.623 57.5881 97.623 57.5881Z" stroke="#1A1A1A" stroke-width="0.2" stroke-linecap="round" stroke-linejoin="round"/>
<path d="M99.2319 59.7997C98.5333 58.5789 97.8613 57.8358 97.6756 57.6412C97.6579 57.6235 97.6402 57.6058 97.6225 57.5881C96.3846 58.4993 94.5984 59.5077 94.3773 62.4977C94.1562 65.4877 94.8902 68.0354 95.1378 69.1146C95.1378 69.1146 94.0324 69.0438 94.1562 70.1319C94.1562 70.1319 87.9134 70.3619 85.6054 71.8038L85.181 74.8823L85.1279 75.2715C85.1279 75.2715 91.1321 76.9699 95.7479 75.6696C96.4553 75.4661 97.1274 75.2007 97.7463 74.838C99.1523 74.0153 100.249 72.7415 100.709 70.7954C101.894 65.7885 100.514 61.9935 99.2407 59.782L99.2319 59.7997Z" stroke="#1A1A1A" stroke-width="0.2" stroke-linecap="round" stroke-linejoin="round"/>
<path d="M69.0962 91.5659C69.0962 91.5659 69.0962 91.5659 69.0962 91.5482C68.433 91.1413 66.8679 90.2036 65.6918 89.6463C64.7899 89.2129 64.1267 89.0006 64.2947 89.434C64.4715 89.8675 64.7456 90.2832 65.0905 90.6813C67.2216 93.1671 71.9347 94.7682 71.9347 94.7682L72.589 93.4944L69.0962 91.5748V91.5659Z" stroke="#1A1A1A" stroke-width="0.2" stroke-linecap="round" stroke-linejoin="round"/>
<path d="M69.0967 91.5483V91.566L72.5895 93.4856L69.415 91.743C69.415 91.743 69.2912 91.6722 69.0967 91.5483Z" fill="#FBFBFA" stroke="#1A1A1A" stroke-width="0.2" stroke-linecap="round" stroke-linejoin="round"/>
<path d="M61.4832 89.2483C61.4832 89.2483 57.8931 90.7256 56.1246 90.4602C54.356 90.1948 53.0827 90.7433 56.213 91.5483C59.3433 92.3533 63.1987 93.6536 63.1987 93.6536L64.4101 91.0175L62.7035 89.9914L61.4743 89.2483H61.4832Z" stroke="#1A1A1A" stroke-width="0.2" stroke-linecap="round" stroke-linejoin="round"/>
<path d="M62.7119 89.9827L64.4185 91.0177L62.7119 89.9827Z" fill="#FBFBFA" stroke="#1A1A1A" stroke-width="0.2" stroke-linecap="round" stroke-linejoin="round"/>
<path d="M84.943 71.4854C84.5185 71.2289 83.8996 70.9635 83.1479 70.937C82.6528 70.9193 82.0957 71.0078 81.5032 71.282C80.7781 71.6181 80.6543 72.7593 80.8223 73.6527C80.84 73.75 80.8577 73.8385 80.8842 73.927C80.9019 73.9889 80.9196 74.0596 80.9461 74.1127C81.0169 74.3073 81.0965 74.4754 81.1937 74.5904C81.3352 74.7673 81.5032 74.8381 81.6624 74.7231C81.7066 74.6966 81.7596 74.67 81.8215 74.6435C82.0691 74.5373 82.4317 74.4754 82.8208 74.4312C83.1391 74.3958 83.4751 74.387 83.8023 74.387C84.0676 74.387 84.3152 74.387 84.5274 74.387C84.943 74.3958 85.2259 74.4223 85.2259 74.4223L85.5708 71.9631C85.5708 71.9631 85.3409 71.7331 84.9341 71.4854H84.943Z" fill="#E3E2E1" stroke="#1A1A1A" stroke-width="0.2" stroke-linecap="round" stroke-linejoin="round"/>
<path d="M87.9931 47.2205C87.9931 47.2205 89.9827 49.5647 91.654 48.8747C93.1218 48.2731 92.4498 55.58 91.0615 55.465C89.4787 55.3412 88.8951 54.3946 88.2761 53.4481C87.6571 52.5016 87.0293 47.6716 88.002 47.2205H87.9931Z" fill="#F0EFDD"/>
<path d="M83.7933 71.6445C83.7933 71.6445 83.9348 71.0695 83.3335 71.1226C82.7322 71.1757 81.6357 71.158 81.229 72.2903C80.8222 73.4137 81.3528 74.3426 81.6976 74.2187C82.0425 74.0949 84.0321 74.5195 83.8375 73.2987C83.643 72.078 83.7049 71.8037 83.7933 71.6445V71.6445Z" fill="#F0EFDD"/>
<path d="M88.2231 50.3167C88.35 50.3167 88.453 50.2137 88.453 50.0867C88.453 49.9597 88.35 49.8567 88.2231 49.8567C88.0961 49.8567 87.9932 49.9597 87.9932 50.0867C87.9932 50.2137 88.0961 50.3167 88.2231 50.3167Z" fill="#1A1A1A"/>
<path d="M91.5033 50.0513C91.6303 50.0513 91.7333 49.9483 91.7333 49.8213C91.7333 49.6943 91.6303 49.5913 91.5033 49.5913C91.3764 49.5913 91.2734 49.6943 91.2734 49.8213C91.2734 49.9483 91.3764 50.0513 91.5033 50.0513Z" fill="#1A1A1A"/>
<path d="M89.4075 50.1396C89.4075 50.1396 90.1238 51.1393 89.1776 51.2985C89.1776 51.2985 89.1069 52.1212 90.2564 51.8204" stroke="#1A1A1A" stroke-width="0.2" stroke-linecap="round" stroke-linejoin="round"/>
<path d="M89.3105 53.2801C89.3105 53.2801 90.6281 53.6428 91.3974 52.7759" stroke="#1A1A1A" stroke-width="0.2" stroke-linecap="round" stroke-linejoin="round"/>
<path d="M79.2831 91.6809C79.2831 91.6809 75.2508 93.229 73.2878 92.9017C71.3247 92.5744 69.901 93.1405 73.3585 94.1136C76.8248 95.0867 81.0869 96.6347 81.0869 96.6347L82.5018 93.7332L80.6271 92.5478L79.2831 91.6898V91.6809Z" fill="#C4B19C"/>
<path d="M79.2655 91.4067C79.2655 91.4067 75.2332 92.9548 73.2702 92.6275C71.3071 92.2913 69.8835 92.8663 73.3409 93.8394C76.8072 94.8125 81.0694 96.3605 81.0694 96.3605L82.4842 93.459L80.6096 92.2737L79.2655 91.4156V91.4067Z" stroke="#1A1A1A" stroke-width="0.2" stroke-linecap="round" stroke-linejoin="round"/>
<path d="M80.6182 92.2649L82.484 93.4503L80.6182 92.2649Z" fill="#FBFBFA" stroke="#1A1A1A" stroke-width="0.2" stroke-linecap="round" stroke-linejoin="round"/>
<g style="mix-blend-mode:multiply">
<path d="M118.624 81.57C118.386 83.6046 116.352 85.2146 112.205 85.0465C108.049 84.8784 107.403 84.6396 107.058 84.9138C106.713 85.188 101.983 82.4811 103.123 80.0927C104.264 77.7042 115.839 82.1981 116.856 81.3223C117.873 80.4465 118.757 80.3492 118.616 81.5611L118.624 81.57Z" fill="#BBBAAE"/>
</g>
<path d="M87.702 94.4587C87.702 94.4587 87.702 94.4587 87.702 94.441C86.9769 93.9722 85.2526 92.893 83.9615 92.2383C82.9712 91.7341 82.2372 91.4864 82.4141 91.9641C82.5998 92.4506 82.9004 92.9195 83.263 93.3706C85.5709 96.1926 90.7792 98.0945 90.7792 98.0945L91.5397 96.6968L87.702 94.4676V94.4587Z" fill="#C4B19C"/>
<path d="M117.766 77.483C112.602 78.8099 105.953 76.7665 105.953 76.7665L106.023 76.333L105.36 76.2711L102.318 75.9703C102.256 75.9968 102.194 76.0234 102.141 76.0588C101.956 76.1738 101.77 76.0942 101.62 75.8907C101.522 75.758 101.425 75.5722 101.354 75.3511C101.328 75.2803 101.31 75.2096 101.293 75.1388C101.213 75.1388 101.142 75.1388 101.063 75.1388C100.78 75.1388 100.479 75.1299 100.178 75.1211C96.3849 75.068 91.4772 75.1742 88.9659 76.1915C84.6861 77.9165 86.8349 82.1007 78.9473 91.5041L80.6362 92.5744L82.5108 93.7598L82.9088 94.0075C82.9088 94.0075 83.0414 93.7775 83.2801 93.3971C82.9176 92.9548 82.617 92.486 82.4313 91.9906C82.2544 91.504 82.9883 91.7606 83.9787 92.2648C85.6058 89.6641 88.7095 84.8783 90.6107 83.1799C88.8952 90.2744 87.7987 94.1756 87.7191 94.4763C87.9402 94.6179 88.0728 94.6975 88.0728 94.6975L91.5568 96.7232C93.3961 95.0602 98.0473 83.9141 98.5248 82.7641C98.5513 82.7022 98.569 82.658 98.569 82.658C98.7812 82.6933 98.9846 82.7199 99.1968 82.7553C118.907 85.7718 119.287 77.9607 119.296 77.6334V77.6245L117.793 77.4741L117.766 77.483Z" fill="#BFCCE1"/>
<path d="M101.337 75.0415C101.31 74.9708 101.293 74.9 101.275 74.8292C101.195 74.8292 101.125 74.8292 101.045 74.8292C100.762 74.8292 100.461 74.8204 100.161 74.8115C96.3673 74.7585 91.4597 74.8646 88.9484 75.8731C84.6685 77.5981 86.8173 81.7823 78.9297 91.1857L80.6186 92.256L82.4933 93.4414L82.8912 93.6891C82.8912 93.6891 83.0238 93.4591 83.2626 93.0787C82.9 92.6364 82.5994 92.1676 82.4137 91.6722C82.2368 91.1857 82.9708 91.4422 83.9611 91.9464C85.5882 89.3457 88.6919 84.5599 90.5931 82.8615C90.6904 82.4457 90.7965 82.0211 90.9026 81.5788C91.8576 77.5715 92.1052 74.6965 100.736 75.475C101.019 75.5015 101.31 75.5281 101.611 75.5635C101.514 75.4308 101.416 75.245 101.346 75.0238L101.337 75.0415Z" stroke="#1A1A1A" stroke-width="0.2" stroke-linecap="round" stroke-linejoin="round"/>
<path d="M117.748 77.1645C112.584 78.4914 105.935 76.4479 105.935 76.4479L106.005 76.0145L105.342 75.9526L102.3 75.6518C102.238 75.6783 102.177 75.7049 102.124 75.7403C101.938 75.8553 101.752 75.7756 101.602 75.5722C101.301 75.5368 101.009 75.5103 100.726 75.4837C92.096 74.6964 91.8484 77.5802 90.8934 81.5875C90.7873 82.0298 90.69 82.4544 90.5839 82.8702C88.8685 89.9648 87.772 93.8659 87.6924 94.1667C87.9134 94.3082 88.0461 94.3878 88.0461 94.3878L91.5301 96.4136C93.3693 94.7505 98.0206 83.6044 98.4981 82.4544C98.5246 82.3925 98.5423 82.3483 98.5423 82.3483C98.7545 82.3837 98.9579 82.4102 99.1701 82.4456C118.88 85.4621 119.261 77.651 119.269 77.3237V77.3149L117.766 77.1645H117.748Z" stroke="#1A1A1A" stroke-width="0.2" stroke-linecap="round" stroke-linejoin="round"/>
<path d="M110.993 57.4731C110.993 57.4731 105.422 62.3473 103.874 69.5658C103.874 69.5658 101.107 70.6273 100.417 72.37C99.7183 74.1126 100.16 74.8203 100.16 74.8203C100.461 74.8203 100.762 74.8292 101.045 74.838C101.124 74.838 101.204 74.838 101.275 74.838C101.248 74.7407 101.23 74.6346 101.213 74.5284C101.045 73.5377 101.213 72.2727 102.026 71.91C102.689 71.618 103.308 71.5384 103.866 71.5738C105.422 70.2204 106.96 68.9465 107.544 66.1423C108.517 61.4981 109.834 58.9151 111.001 57.482L110.993 57.4731Z" fill="#BCB5B1"/>
<path d="M120.304 57.075C119.685 56.4734 119.031 56.0577 118.377 55.8808C118.041 55.7923 117.722 55.7215 117.386 55.6685C117.324 56.5442 116.9 58.2957 114.504 58.4373C113.301 58.5788 112.001 57.7473 112.894 56.845C112.894 56.5708 112.877 56.2346 112.859 55.8985C112.381 56.1285 111.718 56.5796 110.984 57.4731C109.817 58.9061 108.5 61.4892 107.527 66.1334C106.943 68.9376 105.396 70.2114 103.848 71.5649C104.679 71.618 105.36 71.9276 105.829 72.2283C106.271 72.5114 106.528 72.7768 106.528 72.7768L106.085 75.5102C106.085 75.5102 105.767 75.4837 105.307 75.4572C105.069 75.4483 104.794 75.4306 104.503 75.4306C104.14 75.4306 103.769 75.4306 103.406 75.4572C102.973 75.4926 102.575 75.5545 102.292 75.6606L105.334 75.9614L105.997 76.0233L106.554 72.6087C109.154 71.0607 116.113 70.9634 116.113 70.9634C116.007 69.7514 117.236 69.8576 117.236 69.8576C116.988 68.6545 116.237 65.7972 116.555 62.4711C116.873 59.145 118.898 58.0657 120.296 57.0838L120.304 57.075Z" fill="#E3E2E1"/>
<path d="M122.046 59.5786C121.294 58.2075 120.569 57.3583 120.366 57.1371C120.348 57.1194 120.321 57.0929 120.304 57.0752C118.907 58.0571 116.882 59.1363 116.563 62.4625C116.245 65.7886 116.997 68.6459 117.244 69.849C117.244 69.849 116.015 69.7428 116.121 70.9547C116.121 70.9547 109.162 71.052 106.562 72.6001L106.005 76.0147L105.935 76.4481C105.935 76.4481 112.575 78.4916 117.748 77.1647C118.544 76.9612 119.305 76.6781 119.994 76.2978C121.586 75.422 122.833 74.0243 123.399 71.8747C124.849 66.3282 123.399 62.0732 122.046 59.5786V59.5786Z" fill="#BCB5B1"/>
<path d="M117.457 48.7775C117.732 47.3621 116.405 47.2736 116.405 47.2736C116.405 47.2736 115.432 47.2206 115.503 48.2998L115.556 49.2021L115.026 49.379C113.584 48.1052 114.265 46.2829 114.265 46.2829C113.505 46.5129 112.797 46.6102 112.152 46.6279C110.534 46.6633 109.313 46.1325 108.482 45.5752C108.208 46.3979 108.296 49.7329 108.703 51.1394C109.34 53.3421 110.171 55.0671 112.788 54.9167C112.788 54.9167 112.806 54.9167 112.815 54.9167C114.433 54.8105 116.104 53.864 117.227 52.3601C116.529 51.9178 116.272 51.2632 116.193 50.7413C116.122 50.2813 116.193 49.9186 116.193 49.9186C116.193 49.9186 117.192 50.184 117.466 48.7686L117.457 48.7775Z" fill="#E3E2E1" stroke="#1A1A1A" stroke-width="0.2" stroke-linecap="round" stroke-linejoin="round"/>
<path d="M119.252 77.3149C119.252 77.3149 119.252 77.3149 119.252 77.3238C119.509 77.0053 119.765 76.6603 119.995 76.2976C119.296 76.678 118.545 76.9611 117.749 77.1645L119.252 77.3149V77.3149Z" fill="#FBFBFA" stroke="#1A1A1A" stroke-width="0.2" stroke-linecap="round" stroke-linejoin="round"/>
<path d="M120.366 57.137C120.57 57.3581 121.295 58.1985 122.046 59.5785C121.569 58.5877 120.994 57.765 120.366 57.137Z" fill="#FBFBFA" stroke="#1A1A1A" stroke-width="0.2" stroke-linecap="round" stroke-linejoin="round"/>
<path d="M110.993 57.4731C110.993 57.4731 105.422 62.3473 103.874 69.5658C103.874 69.5658 101.107 70.6273 100.417 72.37C99.7183 74.1126 100.16 74.8203 100.16 74.8203C100.461 74.8203 100.762 74.8292 101.045 74.838C101.124 74.838 101.204 74.838 101.275 74.838C101.248 74.7407 101.23 74.6346 101.213 74.5284C101.045 73.5377 101.213 72.2727 102.026 71.91C102.689 71.618 103.308 71.5384 103.866 71.5738C105.422 70.2204 106.96 68.9465 107.544 66.1423C108.517 61.4981 109.834 58.9151 111.001 57.482L110.993 57.4731Z" stroke="#1A1A1A" stroke-width="0.2" stroke-linecap="round" stroke-linejoin="round"/>
<path d="M120.304 57.075C119.685 56.4734 119.031 56.0577 118.377 55.8808C118.041 55.7923 117.722 55.7215 117.386 55.6685C117.324 56.5442 116.9 58.2957 114.504 58.4373C113.301 58.5788 112.001 57.7473 112.894 56.845C112.894 56.5708 112.877 56.2346 112.859 55.8985C112.381 56.1285 111.718 56.5796 110.984 57.4731C109.817 58.9061 108.5 61.4892 107.527 66.1334C106.943 68.9376 105.396 70.2114 103.848 71.5649C104.679 71.618 105.36 71.9276 105.829 72.2283C106.271 72.5114 106.528 72.7768 106.528 72.7768L106.085 75.5102C106.085 75.5102 105.767 75.4837 105.307 75.4572C105.069 75.4483 104.794 75.4306 104.503 75.4306C104.14 75.4306 103.769 75.4306 103.406 75.4572C102.973 75.4926 102.575 75.5545 102.292 75.6606L105.334 75.9614L105.997 76.0233L106.554 72.6087C109.154 71.0607 116.113 70.9634 116.113 70.9634C116.007 69.7514 117.236 69.8576 117.236 69.8576C116.988 68.6545 116.237 65.7972 116.555 62.4711C116.873 59.145 118.898 58.0657 120.296 57.0838L120.304 57.075Z" stroke="#1A1A1A" stroke-width="0.2" stroke-linecap="round" stroke-linejoin="round"/>
<path d="M117.395 55.1732L117.227 52.3513C116.104 53.8552 114.432 54.8017 112.814 54.9078C112.823 55.129 112.849 55.5005 112.867 55.8986C112.885 56.2259 112.894 56.5709 112.903 56.8451C112.009 57.7386 113.309 58.579 114.512 58.4374C116.908 58.2959 117.333 56.5444 117.395 55.6686C117.412 55.3767 117.395 55.1732 117.395 55.1732V55.1732Z" fill="#E3E2E1" stroke="#1A1A1A" stroke-width="0.2" stroke-linecap="round" stroke-linejoin="round"/>
<path d="M120.313 57.0752C120.331 57.0929 120.358 57.1106 120.375 57.1371C120.34 57.0929 120.322 57.0752 120.322 57.0752H120.313Z" stroke="#1A1A1A" stroke-width="0.2" stroke-linecap="round" stroke-linejoin="round"/>
<path d="M122.046 59.5786C121.294 58.2075 120.569 57.3583 120.366 57.1371C120.348 57.1194 120.321 57.0929 120.304 57.0752C118.907 58.0571 116.882 59.1363 116.563 62.4625C116.245 65.7886 116.997 68.6459 117.244 69.849C117.244 69.849 116.015 69.7428 116.121 70.9547C116.121 70.9547 109.162 71.052 106.562 72.6001L106.005 76.0147L105.935 76.4481C105.935 76.4481 112.575 78.4916 117.748 77.1647C118.544 76.9612 119.305 76.6781 119.994 76.2978C121.586 75.422 122.833 74.0243 123.399 71.8747C124.849 66.3282 123.399 62.0732 122.046 59.5786V59.5786Z" stroke="#1A1A1A" stroke-width="0.2" stroke-linecap="round" stroke-linejoin="round"/>
<path d="M87.6834 94.1845C87.6834 94.1845 87.6834 94.1845 87.6834 94.1668C86.9583 93.698 85.234 92.6188 83.943 91.9642C82.9526 91.4599 82.2187 91.2123 82.3955 91.6899C82.5812 92.1765 82.8819 92.6453 83.2444 93.0965C85.5523 95.9184 90.7606 97.8203 90.7606 97.8203L91.5211 96.4226L87.6834 94.1934V94.1845Z" stroke="#1A1A1A" stroke-width="0.2" stroke-linecap="round" stroke-linejoin="round"/>
<path d="M87.6836 94.1667V94.1844L91.5213 96.4137L88.0373 94.3879C88.0373 94.3879 87.9047 94.2994 87.6836 94.1667V94.1667Z" fill="#FBFBFA" stroke="#1A1A1A" stroke-width="0.2" stroke-linecap="round" stroke-linejoin="round"/>
<path d="M105.838 72.2285C105.369 71.9277 104.688 71.6181 103.857 71.565C103.3 71.5296 102.69 71.6181 102.018 71.9012C101.196 72.2638 101.036 73.5288 101.204 74.5196C101.222 74.6258 101.24 74.7319 101.266 74.8292C101.284 74.9 101.302 74.9708 101.328 75.0415C101.399 75.2627 101.487 75.4484 101.594 75.5811C101.744 75.7846 101.93 75.8554 102.115 75.7492C102.168 75.7138 102.23 75.6873 102.292 75.6607C102.575 75.5457 102.973 75.4838 103.406 75.4573C103.76 75.4307 104.14 75.4219 104.503 75.4307C104.795 75.4307 105.069 75.4484 105.307 75.4573C105.767 75.4838 106.086 75.5104 106.086 75.5104L106.528 72.7769C106.528 72.7769 106.271 72.5115 105.829 72.2285H105.838Z" fill="#E3E2E1" stroke="#1A1A1A" stroke-width="0.2" stroke-linecap="round" stroke-linejoin="round"/>
<path d="M108.995 45.3806C108.995 45.3806 112.142 45.5841 113.292 46.9287C114.442 48.2733 115.476 54.7398 112.876 54.5894C110.277 54.439 110.091 53.5898 109.428 52.5194C108.765 51.449 107.907 45.8672 108.995 45.3806V45.3806Z" fill="#F0EFDD"/>
<path d="M118.165 52.9263C115.786 52.3602 116.202 50.1044 116.202 50.1044C116.202 50.1044 117.201 50.3698 117.475 48.9544C117.749 47.5391 116.423 47.4506 116.423 47.4506C116.423 47.4506 115.45 47.3975 115.521 48.4767L115.574 49.379L115.043 49.556C113.602 48.2821 114.283 46.4598 114.283 46.4598C109.596 47.8575 107.191 44.5845 107.191 44.5845C106.342 43.6202 107.333 42.4791 107.784 42.3199C107.784 42.3199 108.65 41.8422 109.366 42.2226C109.366 42.2226 109.057 42.8595 109.207 42.9037C109.358 42.9479 120.65 38.7107 119.182 46.2298C117.714 53.749 118.165 52.9263 118.165 52.9263V52.9263Z" fill="#C4B19C"/>
<path d="M108.313 42.9213C108.313 42.9213 116.537 39.7544 118.465 42.7267C119.26 43.9563 119.87 45.6106 119.057 47.9725C118.633 49.2021 118.084 50.0248 118.155 52.7494C115.776 52.1832 116.192 49.9274 116.192 49.9274C116.192 49.9274 117.191 50.1928 117.465 48.7775C117.739 47.3621 116.413 47.2736 116.413 47.2736C116.413 47.2736 115.44 47.2205 115.511 48.2998L115.564 49.2021L115.034 49.379C113.592 48.1052 114.273 46.2829 114.273 46.2829C109.587 47.6805 107.181 44.4075 107.181 44.4075C106.332 43.4433 107.323 42.3021 107.774 42.1429" stroke="#1A1A1A" stroke-width="0.2" stroke-linecap="round" stroke-linejoin="round"/>
<path d="M108.96 49.0516C109.101 49.0516 109.216 48.9368 109.216 48.7951C109.216 48.6534 109.101 48.5386 108.96 48.5386C108.818 48.5386 108.703 48.6534 108.703 48.7951C108.703 48.9368 108.818 49.0516 108.96 49.0516Z" fill="#1A1A1A"/>
<path d="M112.673 48.8305C112.815 48.8305 112.93 48.7156 112.93 48.5739C112.93 48.4322 112.815 48.3174 112.673 48.3174C112.532 48.3174 112.417 48.4322 112.417 48.5739C112.417 48.7156 112.532 48.8305 112.673 48.8305Z" fill="#1A1A1A"/>
<path d="M110.304 48.8835C110.304 48.8835 111.091 50.0247 110.012 50.1928C109.075 50.3343 109.137 50.2635 109.101 50.5643C109.083 50.7855 109.101 51.2012 109.941 51.2366C110.543 51.2631 110.64 51.2012 110.64 51.2012" stroke="#1A1A1A" stroke-width="0.2" stroke-linecap="round" stroke-linejoin="round"/>
<path d="M110.109 52.4308C110.109 52.4308 111.586 52.8731 112.479 51.9177" stroke="#1A1A1A" stroke-width="0.2" stroke-linecap="round" stroke-linejoin="round"/>
<path d="M104.44 72.3168C104.44 72.3168 104.617 71.6799 103.945 71.7241C103.273 71.7684 102.053 71.7241 101.575 72.9714C101.098 74.2187 101.664 75.2626 102.044 75.1299C102.424 74.9972 104.635 75.5279 104.449 74.1568C104.264 72.7857 104.343 72.4849 104.44 72.3168V72.3168Z" fill="#F0EFDD"/>
</g>
<defs>
<clipPath id="clip0_191_7182">
<rect width="214" height="113" fill="white"/>
</clipPath>
</defs>
</svg>
