<?xml version="1.0" encoding="utf-8"?>
<!-- Generator: Adobe Illustrator 26.4.1, SVG Export Plug-In . SVG Version: 6.00 Build 0)  -->
<svg version="1.1" id="Layer_1" xmlns="http://www.w3.org/2000/svg" xmlns:xlink="http://www.w3.org/1999/xlink" x="0px" y="0px"
	 viewBox="0 0 195.3 131.9" style="enable-background:new 0 0 195.3 131.9;" xml:space="preserve">
<style type="text/css">
	.st0{fill:#DBE2D8;}
	.st1{fill:#879384;}
	.st2{fill:#F1F3F2;}
	.st3{fill:#8FA487;}
	.st4{opacity:0.2;fill:#C8E3D0;}
	.st5{fill:none;stroke:#1A1A1A;stroke-width:0.2;stroke-linecap:round;stroke-linejoin:round;stroke-miterlimit:10;}
	.st6{fill:none;}
	.st7{opacity:0.3;}
	.st8{fill:#E3E1CE;}
	.st9{fill:none;stroke:#020203;stroke-width:0.2;stroke-linecap:round;stroke-linejoin:round;stroke-miterlimit:10;}
	.st10{fill:#BDBBAE;}
	.st11{fill:#CAB39B;}
	.st12{fill:#C9E2E9;}
	.st13{fill:#BED0E7;}
	.st14{fill:#F6E4D0;}
	.st15{fill:#E6D1B7;}
	.st16{fill:#BEB5B1;}
	.st17{fill:#E2E2E1;}
	.st18{fill:#FBFBFA;stroke:#1A1A1A;stroke-width:0.2;stroke-linecap:round;stroke-linejoin:round;stroke-miterlimit:10;}
	.st19{fill:#1A1A1A;}
	.st20{fill:#F4D6D2;}
	.st21{opacity:0.3;fill:#F4D6D2;}
	.st22{fill:#816663;}
	.st23{fill:#ACC6A4;}
	.st24{opacity:0.7;fill:#C8E3D0;}
</style>
<g>
	<path class="st0" d="M20.2,64.2c10.3,47.9,39.7,68.2,60.6,54.9s39.1-9.3,50.3-4.4s65.9-22.4,46.7-66.4S137.6-16.2,110.4,15
		S55,15.9,35.8,16.5C16.5,17,14.4,37,20.2,64.2z"/>
	<path class="st1" d="M153.6,73.8c-1.1-0.2-12-1.5-14-1.8C118.5,68.2,38.3,46.3,15.4,60.3c-4.8,2.9-5.7,8.9-3.6,14.9
		c8.9,25.5,8.7,32.7,19.6,44.7c30.2,24.1,109.1,5.1,122.8,0.8c15.9-4.9,23-9.7,32.3-19c0.7-0.7,1.4-1.4,2.1-2.2
		C208.9,76.3,180.1,78.2,153.6,73.8z"/>
	<path class="st2" d="M58.1,34.5c1.5-2.7-5.9-10.7-18.2-6.2S25.3,29.7,24,32c-1.2,2.2,13.2,4,17.3,2.5
		C45.4,33.1,56.2,37.9,58.1,34.5z"/>
	<path class="st2" d="M123.1,41.4c4.3,4-16.6,16.2-51.4,10.3s-24.8-5.5-20-7.6c12.5-5.4,12.2-3.7,23.8-1.7
		C87.1,44.3,117.7,36.5,123.1,41.4z"/>
	<g>
		<path class="st3" d="M165.1,78.1c0,0,8.4,2.9,8.4-3.4s-3.5-1.7-3.5-1.7s1.7,3.1,1.5,0.4c-0.2-2.7-1.2-11-5.4-8.1
			c-4.3,2.9,11.6-2.9,6-6.4c-5.6-3.4-6-7-10.7-2.9c-4.7,4-1.1,4.6,1.5,0.6s-0.7-10.6-6.8-2.8s-1,10.8,1.8,10.8
			c2.8,0,0.6-1.6-2.8-1.7s-8.5,5.6-6.9,7.4c0,0-8.8-1-5.2,4.7c0,0-4.2,1.5-1.3,5.9c2.8,4.4,7.5,3.2,8.3,1.9s-13.7,1.7-8.6,4H171
			c0,0,5.9-1.7,4.4-3.1c-1.6-1.5-8.2-3.2-9.8-2.9C165.6,80.5,169.7,76,165.1,78.1z"/>
		<path class="st4" d="M165.5,57.2c-0.9-0.9,1.2-1.4,2.4-0.4c1.3,1,2.3,2.6,0.9,1.9C167.4,58.1,165.9,57.6,165.5,57.2z"/>
		<path class="st5" d="M166,78.1c0,0,8.4,2.9,8.4-3.4s-3.5-1.7-3.5-1.7s1.7,3.1,1.5,0.4c-0.2-2.7-1.2-11-5.4-8.1
			c-4.3,2.9,11.6-2.9,6-6.4c-5.6-3.4-6-7-10.7-2.9c-4.7,4-1.1,4.6,1.5,0.6c2.6-4-0.7-10.6-6.8-2.8s-1,10.8,1.8,10.8
			c2.8,0,0.6-1.6-2.8-1.7s-8.5,5.6-6.9,7.4c0,0-8.8-1-5.2,4.7c0,0-4.2,1.5-1.3,5.9c2.8,4.4,7.5,3.2,8.3,1.9c0.8-1.4-13.7,1.7-8.6,4
			h29.8c0,0,5.9-1.7,4.4-3.1c-1.6-1.5-8.2-3.2-9.8-2.9C166.5,80.5,170.6,76,166,78.1z"/>
		<path class="st4" d="M158,59.8c-0.4-0.7,1-1.5,1.6-0.8c0.6,0.7,0.9,2,0.2,1.6C159,60.3,158.2,60.1,158,59.8z"/>
		<path class="st4" d="M169,66.8c1.1,1.2-0.5,4.7-2,3.7c-1.5-1.1-3.1-3.7-1.5-3.7S168.5,66.2,169,66.8z"/>
		<path class="st4" d="M157,76.6c1.9,2-0.9,7.9-3.4,6.1s-5.1-6.1-2.6-6.1S156.1,75.7,157,76.6z"/>
		<path class="st4" d="M154.2,64.9c-0.9-1.4,1.7-0.9,3,0.8c1.3,1.7,2.2,3.8,0.6,2.4C156.3,66.7,154.6,65.5,154.2,64.9z"/>
		<path class="st4" d="M166.9,76.1c-0.4-0.7,1-1.5,1.6-0.8s0.9,2,0.2,1.6S167.1,76.4,166.9,76.1z"/>
	</g>
	<path class="st2" d="M176.1,34.6c2-3.6-7.9-14.2-24.1-8.2s-19.4,1.9-21,4.9c-1.6,3,17.5,5.3,22.9,3.4S173.6,39.1,176.1,34.6z"/>
	<polygon class="st6" points="113.9,52.8 113.9,52.8 113.9,52.8 	"/>
	<g>
		<g class="st7">
			<path class="st1" d="M44.4,85.1c7.8,0,15.6,0,23.4,0c1.7,0,3.3,0,4.9-0.6c1.6-0.6,3.1-2,4-4.1c-10.1-7.1-22.7-5.6-32,3.8"/>
		</g>
		<path class="st3" d="M67.4,65.8c0,0,6.9,5.6,6.9-6.6s-2.9-3.3-2.9-3.3s1.4,5.9,1.2,0.8c-0.1-5.2-1-21-4.5-15.5s9.5-5.6,4.9-12.2
			c-4.6-6.6-4.9-13.3-8.8-5.6c-3.8,7.7-0.9,8.7,1.2,1.2c2.1-7.6-0.5-20.2-5.6-5.4s-0.8,20.6,1.5,20.6s0.5-3-2.3-3.3
			C56.3,36,52.2,47,53.4,50.4c0,0-7.2-1.9-4.3,8.9c0,0-3.4,3-1.1,11.4s6.1,6.2,6.8,3.6s-11.3,3.2-7.1,7.6h24.5c0,0,4.9-3.2,3.6-6
			c-1.3-2.9-6.7-6.2-8-5.5C67.8,70.4,71.1,61.7,67.4,65.8z"/>
		<path class="st4" d="M70.6,44c0.9,2.2-0.4,9.1-1.7,7s-2.5-7-1.3-7S70.2,43,70.6,44z"/>
		<path class="st4" d="M60.7,62.8c1.6,3.8-0.7,15.1-2.8,11.8c-2.1-3.4-4.2-11.8-2.1-11.8C57.9,62.8,60,61.1,60.7,62.8z"/>
		<path class="st4" d="M58.5,40.4c-0.7-2.6,1.4-1.7,2.4,1.5c1.1,3.2,1.8,7.3,0.5,4.7C60.1,43.9,58.8,41.6,58.5,40.4z"/>
		<path class="st4" d="M68.9,61.9c-0.3-1.3,0.8-3,1.3-1.6c0.5,1.4,0.8,3.8,0.2,3.1S69,62.4,68.9,61.9z"/>
		<path class="st4" d="M61.6,30.7c-0.3-1.3,0.8-3,1.3-1.6c0.5,1.4,0.8,3.8,0.2,3.1C62.4,31.6,61.7,31.3,61.6,30.7z"/>
		<path class="st4" d="M67.7,25.7c-0.7-1.7,1-2.7,2-0.8c1,1.9,1.9,4.9,0.7,3.7C69.3,27.4,68.1,26.5,67.7,25.7z"/>
		<path class="st5" d="M68.1,65.8c0,0,6.9,5.6,6.9-6.6s-2.9-3.3-2.9-3.3s1.4,5.9,1.2,0.8c-0.1-5.2-1-21-4.5-15.5s9.5-5.6,4.9-12.2
			c-4.6-6.6-4.9-13.3-8.8-5.6s-0.9,8.7,1.2,1.2s-0.5-20.2-5.6-5.4s-0.8,20.6,1.5,20.6s0.5-3-2.3-3.3C57,36,52.9,47,54.2,50.4
			c0,0-7.2-1.9-4.3,8.9c0,0-3.4,3-1.1,11.4s6.1,6.2,6.8,3.6s-11.3,3.2-7.1,7.6H73c0,0,4.9-3.2,3.6-6c-1.3-2.9-6.7-6.2-8-5.5
			C68.5,70.4,71.9,61.7,68.1,65.8z"/>
	</g>
	<g>
		<polygon class="st8" points="5.5,96.7 11,96.3 16.4,95.8 21.9,95.4 27.4,95 32.9,94.5 38.4,94.1 43.8,93.6 49.3,93.2 54.8,92.8 
			60.3,92.3 65.7,91.9 71.2,91.4 76.7,91 82.2,90.6 87.7,90.1 93.1,89.7 98.6,89.2 104.1,88.8 109.6,88.4 115.1,87.9 120.5,87.5 
			126,87 131.5,86.6 137,86.2 142.5,85.7 147.9,85.3 153.4,84.8 158.9,84.4 164.4,84 169.8,83.5 175.3,83.1 190.2,100.6 190.2,102 
			184.8,102.4 179.3,102.8 173.8,103.3 168.3,103.7 162.8,104.2 157.4,104.6 151.9,105 146.4,105.5 140.9,105.9 135.5,106.4 
			130,106.8 124.5,107.2 119,107.7 113.5,108.1 108.1,108.6 102.6,109 97.1,109.4 91.6,109.9 86.1,110.3 80.7,110.8 75.2,111.2 
			69.7,111.6 64.2,112.1 58.7,112.5 53.3,112.9 47.8,113.4 42.3,113.8 36.8,114.3 31.4,114.7 25.9,115.1 20.4,115.6 14.9,116 
			14.8,114.7 0,97.1 		"/>
		<g>
			<g>
				<g>
					<polygon class="st9" points="133.3,86.1 128.3,86.5 141.7,104.2 146.7,103.8 					"/>
					<polygon class="st9" points="138.3,85.7 133.3,86.1 146.7,103.8 151.7,103.4 					"/>
					<polygon class="st9" points="143.3,85.3 138.3,85.7 151.7,103.4 156.6,103 					"/>
					<polygon class="st9" points="148.3,84.9 143.3,85.3 156.6,103 161.6,102.6 					"/>
					<polygon class="st9" points="153.2,84.5 148.3,84.9 161.6,102.6 166.6,102.2 					"/>
					<polygon class="st9" points="158.2,84.1 153.2,84.5 166.6,102.2 171.6,101.8 					"/>
					<polygon class="st9" points="163.2,83.7 158.2,84.1 171.6,101.8 176.6,101.4 					"/>
					<polygon class="st9" points="168.2,83.3 163.2,83.7 176.6,101.4 181.6,101 					"/>
					<polygon class="st9" points="176.7,102.7 181.6,102.3 181.6,101 176.6,101.4 					"/>
					<polygon class="st9" points="171.7,103.1 176.7,102.7 176.6,101.4 171.6,101.8 					"/>
					<polygon class="st9" points="166.7,103.5 171.7,103.1 171.6,101.8 166.6,102.2 					"/>
					<polygon class="st9" points="161.7,103.9 166.7,103.5 166.6,102.2 161.6,102.6 					"/>
					<polygon class="st9" points="156.7,104.3 161.7,103.9 161.6,102.6 156.6,103 					"/>
					<polygon class="st9" points="151.7,104.7 156.7,104.3 156.6,103 151.7,103.4 					"/>
					<polygon class="st9" points="146.7,105.1 151.7,104.7 151.7,103.4 146.7,103.8 					"/>
					<polygon class="st9" points="141.7,105.5 146.7,105.1 146.7,103.8 141.7,104.2 					"/>
				</g>
				<g>
					<polygon class="st9" points="93.4,89.3 88.4,89.7 101.8,107.4 106.8,107 					"/>
					<polygon class="st9" points="98.4,88.9 93.4,89.3 106.8,107 111.8,106.6 					"/>
					<polygon class="st9" points="103.4,88.5 98.4,88.9 111.8,106.6 116.7,106.2 					"/>
					<polygon class="st9" points="108.4,88.1 103.4,88.5 116.7,106.2 121.7,105.8 					"/>
					<polygon class="st9" points="113.3,87.7 108.4,88.1 121.7,105.8 126.7,105.4 					"/>
					<polygon class="st9" points="118.3,87.3 113.3,87.7 126.7,105.4 131.7,105 					"/>
					<polygon class="st9" points="123.3,86.9 118.3,87.3 131.7,105 136.7,104.6 					"/>
					<polygon class="st9" points="128.3,86.5 123.3,86.9 136.7,104.6 141.7,104.2 					"/>
					<polygon class="st9" points="136.8,105.9 141.7,105.5 141.7,104.2 136.7,104.6 					"/>
					<polygon class="st9" points="131.8,106.3 136.8,105.9 136.7,104.6 131.7,105 					"/>
					<polygon class="st9" points="126.8,106.7 131.8,106.3 131.7,105 126.7,105.4 					"/>
					<polygon class="st9" points="121.8,107.1 126.8,106.7 126.7,105.4 121.7,105.8 					"/>
					<polygon class="st9" points="116.8,107.5 121.8,107.1 121.7,105.8 116.7,106.2 					"/>
					<polygon class="st9" points="111.8,107.9 116.8,107.5 116.7,106.2 111.8,106.6 					"/>
					<polygon class="st9" points="106.8,108.3 111.8,107.9 111.8,106.6 106.8,107 					"/>
					<polygon class="st9" points="101.8,108.7 106.8,108.3 106.8,107 101.8,107.4 					"/>
				</g>
			</g>
			<g>
				<g>
					<polygon class="st9" points="53.5,92.6 48.5,93 61.9,110.6 66.9,110.2 					"/>
					<polygon class="st9" points="58.5,92.2 53.5,92.6 66.9,110.2 71.9,109.8 					"/>
					<polygon class="st9" points="63.5,91.8 58.5,92.2 71.9,109.8 76.8,109.4 					"/>
					<polygon class="st9" points="68.4,91.4 63.5,91.8 76.8,109.4 81.8,109 					"/>
					<polygon class="st9" points="73.4,91 68.4,91.4 81.8,109 86.8,108.6 					"/>
					<polygon class="st9" points="78.4,90.6 73.4,91 86.8,108.6 91.8,108.2 					"/>
					<polygon class="st9" points="83.4,90.2 78.4,90.6 91.8,108.2 96.8,107.8 					"/>
					<polygon class="st9" points="88.4,89.7 83.4,90.2 96.8,107.8 101.8,107.4 					"/>
					<polygon class="st9" points="96.9,109.1 101.8,108.7 101.8,107.4 96.8,107.8 					"/>
					<polygon class="st9" points="91.9,109.5 96.9,109.1 96.8,107.8 91.8,108.2 					"/>
					<polygon class="st9" points="86.9,109.9 91.9,109.5 91.8,108.2 86.8,108.6 					"/>
					<polygon class="st9" points="81.9,110.3 86.9,109.9 86.8,108.6 81.8,109 					"/>
					<polygon class="st9" points="76.9,110.7 81.9,110.3 81.8,109 76.8,109.4 					"/>
					<polygon class="st9" points="71.9,111.1 76.9,110.7 76.8,109.4 71.9,109.8 					"/>
					<polygon class="st9" points="66.9,111.5 71.9,111.1 71.9,109.8 66.9,110.2 					"/>
					<polygon class="st9" points="61.9,111.9 66.9,111.5 66.9,110.2 61.9,110.6 					"/>
				</g>
				<g>
					<polygon class="st9" points="13.6,95.8 8.6,96.2 22,113.8 27,113.4 					"/>
					<polygon class="st9" points="18.6,95.4 13.6,95.8 27,113.4 32,113 					"/>
					<polygon class="st9" points="23.6,95 18.6,95.4 32,113 36.9,112.6 					"/>
					<polygon class="st9" points="28.5,94.6 23.6,95 36.9,112.6 41.9,112.2 					"/>
					<polygon class="st9" points="33.5,94.2 28.5,94.6 41.9,112.2 46.9,111.8 					"/>
					<polygon class="st9" points="38.5,93.8 33.5,94.2 46.9,111.8 51.9,111.4 					"/>
					<polygon class="st9" points="43.5,93.4 38.5,93.8 51.9,111.4 56.9,111 					"/>
					<polygon class="st9" points="48.5,93 43.5,93.4 56.9,111 61.9,110.6 					"/>
					<polygon class="st9" points="57,112.3 61.9,111.9 61.9,110.6 56.9,111 					"/>
					<polygon class="st9" points="52,112.8 57,112.3 56.9,111 51.9,111.4 					"/>
					<polygon class="st9" points="47,113.2 52,112.8 51.9,111.4 46.9,111.8 					"/>
					<polygon class="st9" points="42,113.6 47,113.2 46.9,111.8 41.9,112.2 					"/>
					<polygon class="st9" points="37,114 42,113.6 41.9,112.2 36.9,112.6 					"/>
					<polygon class="st9" points="32,114.4 37,114 36.9,112.6 32,113 					"/>
					<polygon class="st9" points="27,114.8 32,114.4 32,113 27,113.4 					"/>
					<polygon class="st9" points="22,115.2 27,114.8 27,113.4 22,113.8 					"/>
				</g>
			</g>
		</g>
	</g>
	<g>
		<g>
			<g>
				<path class="st10" d="M80.9,95.2c1.3,4.9,11.6,0,14.6,0.2c3.1,0.2,18.3,1.5,15.8-3.7c-2.5-5.2-22.3,1.1-25,1.2S80,92,80.9,95.2z
					"/>
				<path class="st11" d="M86.6,92.8c-2.1,0.4-4.4,1.3-2,1.4c2.4,0.1,9.2-1.5,10.5-2.3l-0.4-4.3l-3.3,0.2
					C91.4,87.7,88.7,92.4,86.6,92.8z"/>
				<path class="st11" d="M105.5,85.4l-2.6,1.2c0,0,0.2,2.7-1,4.1c-1.2,1.4-2.4,1.5-2,2.1c0.4,0.7,0.4,0.4,1.7,0.5
					c1.2,0.1,5.3-4.2,6.1-4.8L105.5,85.4z"/>
				<path class="st11" d="M86.6,92.8c-2.1,0.4-4.4,1.3-2,1.4c2.4,0.1,9.2-1.5,10.5-2.3l-0.4-4.3l-3.3,0.2
					C91.4,87.7,88.7,92.4,86.6,92.8z"/>
				<path class="st11" d="M105.5,85.4l-2.6,1.2c0,0,0.2,2.7-1,4.1c-1.2,1.4-2.4,1.5-2,2.1c0.4,0.7,0.4,0.4,1.7,0.5
					c1.2,0.1,5.3-4.2,6.1-4.8L105.5,85.4z"/>
				<path class="st11" d="M86.6,92.8c-2.1,0.4-4.4,1.3-2,1.4c2.4,0.1,9.2-1.5,10.5-2.3l-0.4-4.3l-3.3,0.2
					C91.4,87.7,88.7,92.4,86.6,92.8z"/>
				<path class="st11" d="M105.5,85.4l-2.6,1.2c0,0,0.2,2.7-1,4.1c-1.2,1.4-2.4,1.5-2,2.1c0.4,0.7,0.4,0.4,1.7,0.5
					c1.2,0.1,5.3-4.2,6.1-4.8L105.5,85.4z"/>
				<path class="st11" d="M86.6,92.8c-2.1,0.4-4.4,1.3-2,1.4c2.4,0.1,9.2-1.5,10.5-2.3l-0.4-4.3l-3.3,0.2
					C91.4,87.7,88.7,92.4,86.6,92.8z"/>
				<path class="st11" d="M105.5,85.4l-2.6,1.2c0,0,0.2,2.7-1,4.1c-1.2,1.4-2.4,1.5-2,2.1c0.4,0.7,0.4,0.4,1.7,0.5
					c1.2,0.1,5.3-4.2,6.1-4.8L105.5,85.4z"/>
				<path class="st12" d="M90.1,56.1c-0.4,0.2-0.7,0.3-0.7,0.3l-0.4-0.9c0,0,0,0,0,0l0.1,0.2c0,0-0.1,0.1-0.2,0.3
					c-1.4,4-3.9,14.9,1.7,31.9l4.1-0.2c0,0-1.6-10.1,0.1-20.6c-1.1-4.9-1.5-8.5-1.5-10C92,56.8,90.9,56.5,90.1,56.1z"/>
				<path class="st12" d="M106.1,85.2c0,0-5.8-19.3-5.7-29.7c-0.6,0.7-1.6,1.1-2.7,1.4c-1.4,0.3-3,0.3-4.4,0.1
					c0.1,1.5,0.4,5.1,1.5,10c1.2,5.3,3.4,12.3,7.4,20l0.8-0.4l2.6-1.2v0L106.1,85.2z"/>
				<path class="st13" d="M90.1,56.1c-0.4,0.2-0.7,0.3-0.7,0.3l-0.4-0.9c0,0,0,0,0,0l0.1,0.2c0,0-0.1,0.1-0.2,0.3
					c-1.4,4-3.9,14.9,1.7,31.9l4.1-0.2c0,0-1.6-10.1,0.1-20.6c-1.1-4.9-1.5-8.5-1.5-10C92,56.8,90.9,56.5,90.1,56.1z"/>
				<path class="st13" d="M106.1,85.2c0,0-5.8-19.3-5.7-29.7c-0.6,0.7-1.6,1.1-2.7,1.4c-1.4,0.3-3,0.3-4.4,0.1
					c0.1,1.5,0.4,5.1,1.5,10c1.2,5.3,3.4,12.3,7.4,20l0.8-0.4l2.6-1.2v0L106.1,85.2z"/>
				<path class="st5" d="M89.9,55.9c-0.4,0.2-0.7,0.3-0.7,0.3l-0.4-0.9c0,0,0,0,0,0l0.1,0.2c0,0-0.1,0.1-0.2,0.3
					c-1.4,4-3.9,14.9,1.7,31.9l4.1-0.2c0,0-1.6-10.1,0.1-20.6c-1.1-4.9-1.5-8.5-1.5-10C91.8,56.6,90.7,56.3,89.9,55.9z"/>
				<path class="st5" d="M105.8,84.9c0,0-5.8-19.3-5.7-29.7c-0.6,0.7-1.6,1.1-2.7,1.4c-1.4,0.3-3,0.3-4.4,0.1
					c0.1,1.5,0.4,5.1,1.5,10c1.2,5.3,3.4,12.3,7.4,20l0.8-0.4l2.6-1.2l0,0L105.8,84.9z"/>
				<path class="st5" d="M86.4,92.6c-2.1,0.4-4.4,1.3-2,1.4c2.4,0.1,9.2-1.5,10.5-2.3l-0.4-4.3l-3.3,0.2
					C91.1,87.6,88.5,92.2,86.4,92.6z"/>
				<path class="st5" d="M105.3,85.2l-2.6,1.2c0,0,0.2,2.7-1,4.1c-1.2,1.4-2.4,1.5-2,2.1c0.4,0.7,0.4,0.4,1.7,0.5
					c1.2,0.1,5.3-4.2,6.1-4.8L105.3,85.2z"/>
				
					<rect x="102.6" y="85.8" transform="matrix(0.9044 -0.4266 0.4266 0.9044 -26.6682 52.5623)" class="st5" width="2.9" height="0"/>
				<path class="st5" d="M89.9,55.9c-0.4,0.2-0.7,0.3-0.7,0.3l-0.4-0.9c0,0,0,0,0,0l0.1,0.2c0,0-0.1,0.1-0.2,0.3
					c-1.4,4-3.9,14.9,1.7,31.9l4.1-0.2c0,0-1.6-10.1,0.1-20.6c-1.1-4.9-1.5-8.5-1.5-10C91.8,56.6,90.7,56.3,89.9,55.9z"/>
				<path class="st5" d="M105.8,84.9c0,0-5.8-19.3-5.7-29.7c-0.6,0.7-1.6,1.1-2.7,1.4c-1.4,0.3-3,0.3-4.4,0.1
					c0.1,1.5,0.4,5.1,1.5,10c1.2,5.3,3.4,12.3,7.4,20l0.8-0.4l2.6-1.2l0,0L105.8,84.9z"/>
				<path class="st5" d="M86.4,92.6c-2.1,0.4-4.4,1.3-2,1.4c2.4,0.1,9.2-1.5,10.5-2.3l-0.4-4.3l-3.3,0.2
					C91.1,87.6,88.5,92.2,86.4,92.6z"/>
				<path class="st5" d="M105.3,85.2l-2.6,1.2c0,0,0.2,2.7-1,4.1c-1.2,1.4-2.4,1.5-2,2.1c0.4,0.7,0.4,0.4,1.7,0.5
					c1.2,0.1,5.3-4.2,6.1-4.8L105.3,85.2z"/>
				<path class="st5" d="M86.4,92.6c-2.1,0.4-4.4,1.3-2,1.4c2.4,0.1,9.2-1.5,10.5-2.3l-0.4-4.3l-3.3,0.2
					C91.1,87.6,88.5,92.2,86.4,92.6z"/>
				<path class="st5" d="M105.3,85.2l-2.6,1.2c0,0,0.2,2.7-1,4.1c-1.2,1.4-2.4,1.5-2,2.1c0.4,0.7,0.4,0.4,1.7,0.5
					c1.2,0.1,5.3-4.2,6.1-4.8L105.3,85.2z"/>
				<path class="st5" d="M86.4,92.6c-2.1,0.4-4.4,1.3-2,1.4c2.4,0.1,9.2-1.5,10.5-2.3l-0.4-4.3l-3.3,0.2
					C91.1,87.6,88.5,92.2,86.4,92.6z"/>
				<path class="st5" d="M105.3,85.2l-2.6,1.2c0,0,0.2,2.7-1,4.1c-1.2,1.4-2.4,1.5-2,2.1c0.4,0.7,0.4,0.4,1.7,0.5
					c1.2,0.1,5.3-4.2,6.1-4.8L105.3,85.2z"/>
				
					<rect x="102.6" y="85.8" transform="matrix(0.9044 -0.4266 0.4266 0.9044 -26.6682 52.5623)" class="st5" width="2.9" height="0"/>
				<path class="st14" d="M96.6,33.9c0.6-0.8,5.4-1,7.6,0c2.2,1,5.3,0.9,5.8,2.5c0.4,1.6,0.9,5.3,0,5.8c0,0,2,9.4,0.2,10.8
					c-1.8,1.4-8.4,3.3-11.8,0.5C95,50.9,96.1,34.6,96.6,33.9z"/>
				<path class="st15" d="M96.7,34.1c0.4-0.7,3,0,4.6,0.9c1.6,0.9,2.4,1.6,2.7,3c0.3,1.4,1.9,4.6,1.2,5c0,0,1.1,10.1-0.2,11.4
					c-1.3,1.3-6.5-1.2-8.9-3.7C93.7,48.3,96.3,34.7,96.7,34.1z"/>
				<path class="st5" d="M96.8,33.8c0.6-0.8,5.4-1,7.6,0c2.2,1,5.3,0.9,5.8,2.5c0.4,1.6,0.9,5.3,0,5.8c0,0,2,9.4,0.2,10.8
					s-8.4,3.3-11.8,0.5C95.2,50.7,96.3,34.5,96.8,33.8z"/>
				<path class="st16" d="M87.2,40.7c-0.1-0.2-0.2-0.2-0.2-0.2c-0.3,0-1,1.3-1,1.3s-2.6,6,1.6,7.1s8.3-8.1,8.2-10.1
					c-0.2-1.9-0.1-3.5-2.7-3.4C90.5,35.4,87.2,40.7,87.2,40.7z"/>
				<path class="st5" d="M87.2,40.7c-0.1-0.2-0.2-0.2-0.2-0.2c-0.3,0-1,1.3-1,1.3s-2.6,6,1.6,7.1s8.3-8.1,8.2-10.1
					c-0.2-1.9-0.1-3.5-2.7-3.4C90.5,35.4,87.2,40.7,87.2,40.7z"/>
				<g>
					<path class="st17" d="M94.4,34c0,0-3.5,0.2-5,9.8c-0.8,4.8-0.1,4.7-1.4,9.4s10.5,6.2,13.4,1.6c5.1-9.4,1.1-18.3-2.3-20.2
						C97.8,34,96.1,33.8,94.4,34z"/>
					<path class="st5" d="M94.4,33.9c0,0-3.5,0.2-5,9.8c-0.8,4.8-0.4,4.3-1.7,9.3c-1.2,4.8,14.2,8,14.8-0.9c1-8.6,0.7-15.7-3.5-17.6
						C97.7,33.9,96,33.6,94.4,33.9z"/>
				</g>
				<path class="st14" d="M96.8,34c0,0-5.4-0.5-7.2,8c-0.9,6.3-0.5,3.5-0.8,1.1c0.3-1.4,1.3-8.8,5.7-9.2C95.9,33.8,96.8,34,96.8,34z
					"/>
				<path class="st5" d="M96.8,33.8c0,0-5.4-0.5-7.2,8c-0.9,6.3-0.5,3.5-0.8,1.1c0.3-1.4,1.3-8.8,5.7-9.2
					C95.9,33.5,96.8,33.8,96.8,33.8z"/>
				<path class="st5" d="M88.3,44.7c0.1-0.7,0-1.3-0.1-1.8c-0.2-1.1-0.7-1.9-1-2.2c-0.1-0.2-0.2-0.2-0.2-0.2"/>
				<path class="st18" d="M88.9,38.5c-1,0.2-1.5,1.5-1.6,2.2c0.3,0.4,0.7,1.1,1,2.2c0.4-0.5,1.2-1.3,1.5-1.3
					C90.2,41.7,89.7,38.4,88.9,38.5z"/>
				<g>
					<path class="st18" d="M98.1,28.7c0.4-1.3-0.8-1.5-0.8-1.5s-0.9-0.1-0.9,0.9l0,0.8l-0.5,0.1c-1.2-1.3-0.4-2.9-0.4-2.9
						c-0.7,0.1-1.3,0.2-1.9,0.1c-1.4-0.1-2.5-0.7-3.2-1.2c-0.3,0.7-0.5,3.8-0.2,5.1c0.4,2.1,1,3.7,3.3,3.8c0,0,0,0,0,0
						c1.4,0,3-0.7,4.1-2c-0.6-0.5-0.8-1.1-0.8-1.6c0-0.4,0.1-0.7,0.1-0.7S97.7,30,98.1,28.7z"/>
					<path class="st11" d="M98.4,32.6c-2.1-0.7-1.5-2.7-1.5-2.7s0.9,0.3,1.2-0.9c0.4-1.3-0.8-1.5-0.8-1.5s-0.9-0.1-0.9,0.9l0,0.8
						l-0.5,0.1c-1.2-1.3-0.4-2.9-0.4-2.9c-4.3,0.9-6.2-2.3-6.2-2.3c-0.7-0.9,0.3-1.9,0.7-2c0,0,0.8-0.4,1.4,0c0,0-0.3,0.6-0.2,0.6
						c0.1,0,10.5-2.9,8.6,3.8C97.9,33.3,98.4,32.6,98.4,32.6z"/>
					<path class="st5" d="M90.4,22.6c0,0,7.6-2.2,9,0.6c0.6,1.2,1,2.7,0.1,4.8c-0.5,1.1-1,1.8-1.2,4.3c-2.1-0.7-1.5-2.7-1.5-2.7
						s0.9,0.3,1.2-0.9c0.4-1.3-0.8-1.5-0.8-1.5s-0.9-0.1-0.9,0.9l0,0.8l-0.5,0.1c-1.2-1.3-0.4-2.9-0.4-2.9c-4.3,0.9-6.2-2.3-6.2-2.3
						c-0.7-0.9,0.3-1.9,0.7-2"/>
					<g>
						<ellipse class="st19" cx="90.5" cy="28.1" rx="0.2" ry="0.2"/>
						<ellipse class="st19" cx="93.8" cy="28.1" rx="0.2" ry="0.2"/>
						<path class="st5" d="M91.7,28.2c0,0,0.6,1.1-0.4,1.2c-0.8,0.1-0.8,0-0.8,0.3c0,0.2,0,0.6,0.7,0.7c0.5,0.1,0.6,0,0.6,0"/>
						<path class="st5" d="M91.3,31.5c0,0,1.3,0.5,2.1-0.3"/>
					</g>
					<path class="st18" d="M93.5,33.9c0,0.4,0,1.2-0.1,1.8c-0.9,0.7,0.2,1.6,1.3,1.6c2.9,0.1,2.8-2.7,2.8-2.7l0.1-2.6
						C96.5,33.2,94.9,34,93.5,33.9z"/>
				</g>
				<path class="st14" d="M100.9,35.8c0,0-4.1-0.9-4.7,5.2c-0.6,6.1-1.3,1.7-1,0.2c0.3-1.4-0.3-6.1,4.1-6.5
					C100.6,34.5,100.9,35.8,100.9,35.8z"/>
				<path class="st5" d="M100.8,35.8c0,0-4.1-0.9-4.7,5.2s-1.3,1.7-1,0.2c0.3-1.4-0.3-6.1,4.1-6.5C100.5,34.5,100.8,35.8,100.8,35.8
					z"/>
				<g>
					<path class="st18" d="M92.6,39c1.8,0.2,2.7,1.5,3,2.2c-0.5,0.4-1.4,1.1-1.8,2.2c-0.7-0.5-2.1-1.3-2.8-1.3
						C90.1,42.2,91.2,38.9,92.6,39z"/>
					<path class="st16" d="M93.9,43.5c0.4-1.1,1.3-1.9,1.8-2.2c0.2-0.2,0.4-0.2,0.4-0.2c0.6,0,1.7,1.3,1.7,1.3s-0.4-1.1-0.5-1.9
						c-0.8-4.6,2.9-5.2,4.8-2.6c0,0,2.8,3.8,2.2,10.4c-0.8,10.8-10.5-3-10.5-3C93.7,44.7,93.8,44.1,93.9,43.5z"/>
					<path class="st5" d="M93.9,43.4c0.4-1.1,1.3-1.9,1.8-2.2C95.8,41.1,96,41,96,41c0.6,0,1.7,1.3,1.7,1.3s-0.4-1.1-0.5-1.9
						c-0.8-4.6,2.9-5.2,4.8-2.6c0,0,2.8,3.8,2.2,10.4c-0.8,10.8-10.5-3-10.5-3C93.6,44.6,93.7,43.9,93.9,43.4z"/>
					<path class="st5" d="M100.4,44.3c-0.2-0.3-2.7-2.1-2.7-2.1s1.4-0.2,2,0.2"/>
				</g>
				<path class="st5" d="M110.1,42.1c0,0-4.8,1.4-5-2s2.4-4.3,3.5-3.3c1,1,1.7,4.5-0.7,3.8s-1.4-2.6-0.6-2.5c0.8,0,0.6,1.3,0.6,1.3"
					/>
			</g>
			<g>
				<g>
					<path class="st20" d="M113.4,45.1c0.6-0.9,5.3-1.3,7.6-0.4c2.3,0.9,5.4,0.6,5.9,2.2c0.5,1.6,1.2,5.3,0.3,5.7
						c0,0,2.6,9.2,0.8,10.8c-1.8,1.5-8.2,3.8-11.7,1.2C112.8,62.1,112.9,45.8,113.4,45.1z"/>
					<path class="st21" d="M113.5,45.2c0.4-0.8,3-0.2,4.6,0.7c1.6,0.8,2.5,1.5,2.9,2.9c0.4,1.4,2.1,4.5,1.5,4.9c0,0,1.7,10,0.5,11.4
						c-1.3,1.4-6.5-0.9-9.1-3.1C111.3,59.6,113.2,45.9,113.5,45.2z"/>
					<path class="st5" d="M113.5,45c0.6-0.9,5.3-1.3,7.6-0.4c2.3,0.9,5.4,0.6,5.9,2.2c0.5,1.6,1.2,5.3,0.3,5.7c0,0,2.6,9.2,0.8,10.8
						c-1.8,1.5-8.2,3.8-11.7,1.2C112.9,62,113.1,45.7,113.5,45z"/>
					<path class="st5" d="M127.4,52.5c0,0-4.7,1.7-5.1-1.7s2.2-4.4,3.3-3.5c1.1,0.9,1.9,4.4-0.5,3.8c-2.4-0.6-1.6-2.5-0.8-2.5
						c0.8,0,0.7,1.3,0.7,1.3"/>
				</g>
				<path class="st22" d="M108.5,39.2c0,0-0.6-0.8-0.4-1.8c0,0,0.7-3.8,5.9-3.3c3.3,0.3,3.7,4.6,3.9,6.2c0.3,3.6,4,3.8,5.2,5.4
					c1.3,1.6,0.6,3.9-1.2,4.4c-3.6,1-6.2,1.1-8.2-1.6c-0.8-1.1-2.7,0.4-4.5-1.1c-1.8-1.5,0-5.2,0.2-5.8S108.5,39.2,108.5,39.2"/>
				<path class="st10" d="M101.4,102.3c0.6,2.3,7.8,0.3,9.8,0.5c2.1,0.2,12.2,1.1,10.9-1.3c-1.3-2.4-15.1-0.1-16.9-0.1
					C103.4,101.4,101.1,100.9,101.4,102.3z"/>
				<path class="st11" d="M115.4,99.8C115.3,99.8,115.3,99.8,115.4,99.8l0.2,2.1h4.2l-0.6-4.3l-3.3,0.3L115.4,99.8z"/>
				<path class="st11" d="M115.3,99.7l-0.3-2.1l-3.3,0.3l-0.6,1.8c-1.8-0.3-6.7,2.1-6.7,2.1h4.2h6.9L115.3,99.7z"/>
				<path class="st13" d="M114.8,97.1c0.1,0.3,0.2,0.6,0.3,1l0.7-0.1l0,0l3.3-0.3c0,0-1.9-17.6-0.5-31.8c-0.5,0.4-1.2,0.7-1.9,0.9
					C114.2,79.2,114.7,94,114.8,97.1z"/>
				<path class="st13" d="M116.9,66.7c-2.1,0.6-4.7,0.5-6.6,0c-0.6-0.2-1.2-0.4-1.6-0.6c-0.1-0.1-0.2-0.1-0.3-0.2
					c-0.2,4.4-0.6,17.8,2.6,32.1l4.1-0.4c0,0,0-0.2,0-0.6C115,94,114.6,79.2,116.9,66.7z"/>
				<path class="st5" d="M115.2,99.8C115.1,99.8,115.1,99.8,115.2,99.8l0.2,2.1h4.2l-0.6-4.3l-3.3,0.3L115.2,99.8z"/>
				<path class="st5" d="M114.8,97.1c0.1,0.3,0.2,0.6,0.3,1l0.7-0.1l0,0l3.3-0.3c0,0-1.9-17.6-0.5-31.8c-0.5,0.4-1.2,0.7-1.9,0.9
					C114.2,79.2,114.7,94,114.8,97.1z"/>
				<path class="st5" d="M116.6,66.7c-2.1,0.6-4.7,0.5-6.6,0c-0.6-0.2-1.2-0.4-1.6-0.6c-0.1-0.1-0.2-0.1-0.3-0.2
					c-0.2,4.4-0.6,17.8,2.6,32.1l4.1-0.4c0,0,0-0.2,0-0.6C114.7,94,114.2,79.2,116.6,66.7z"/>
				<path class="st5" d="M115.1,99.7l-0.3-2.1l-3.3,0.3l-0.6,1.8c-1.8-0.3-6.7,2.1-6.7,2.1h4.2h6.9L115.1,99.7z"/>
				<path class="st9" d="M103,107.3c0,0,0,0.1,0,0.2C103,107.4,103,107.4,103,107.3z"/>
				<path class="st17" d="M104.4,52.4c-0.1-0.1-0.2-0.2-0.2-0.2c-0.3,0.1-0.9,1.3-0.9,1.3s-2.3,6.2,2.1,7c4.3,0.8,7.8-8.6,7.6-10.5
					c-0.3-1.9-0.3-3.5-2.9-3.2C107.4,47,104.4,52.4,104.4,52.4z"/>
				<path class="st5" d="M104.4,52.4c-0.1-0.1-0.2-0.2-0.2-0.2c-0.3,0.1-0.9,1.3-0.9,1.3s-2.3,6.2,2.1,7c4.3,0.8,7.8-8.6,7.6-10.5
					c-0.3-1.9-0.3-3.5-2.9-3.2C107.4,47,104.4,52.4,104.4,52.4z"/>
				<g>
					<path class="st16" d="M111.2,45.4c0,0-3.5,0.5-4.4,10.1c-0.5,4.9,0.2,4.7-0.8,9.5c-1,4.8,10.8,5.6,13.4,0.8
						c4.5-9.7,0.1-18.3-3.5-20C114.6,45.1,112.8,45,111.2,45.4z"/>
					<path class="st5" d="M111.1,45.2c0,0-3.5,0.5-4.4,10.1c-0.5,4.9-0.2,4.3-1.1,9.3c-0.9,4.8,14.6,7.1,14.7-1.8
						c0.5-8.6-0.2-15.7-4.5-17.3C114.5,45,112.8,44.8,111.1,45.2z"/>
				</g>
				<path class="st14" d="M113.6,45.2c0,0-5.4-0.2-6.7,8.4c-0.5,6.4-0.3,3.5-0.7,1.1c0.2-1.4,0.8-8.8,5.2-9.5
					C112.6,45,113.6,45.2,113.6,45.2z"/>
				<path class="st5" d="M113.5,45c0,0-5.4-0.2-6.7,8.4c-0.5,6.4-0.3,3.5-0.7,1.1c0.2-1.4,0.8-8.8,5.2-9.5
					C112.6,44.8,113.5,45,113.5,45z"/>
				<path class="st5" d="M105.7,56.4c0-0.7-0.1-1.3-0.2-1.8c-0.3-1.1-0.8-1.8-1.1-2.1c-0.1-0.1-0.2-0.2-0.2-0.2"/>
				<path class="st18" d="M105.9,50.1c-1,0.2-1.4,1.6-1.5,2.3c0.3,0.3,0.8,1,1.1,2.1c0.4-0.5,1.1-1.4,1.5-1.4
					C107.5,53.2,106.7,50,105.9,50.1z"/>
				<g>
					<path class="st18" d="M114.4,45.3C114.4,45.3,114.4,45.3,114.4,45.3l0-2.9c0,0,0,0,0,0c-0.3,0.6-1.2,1.7-2.9,2.3
						c-0.1,0-0.2,0-0.4,0c0,0.5,0,1.1,0,1.4c0,0.1,0,0.1,0,0.2c-0.7,0.6,0.2,1.2,1.1,1.1C114.5,47.4,114.4,45.3,114.4,45.3z"/>
					<path class="st18" d="M108.6,38c0-0.1,0.1-0.3,0.1-0.4c0,0,0,0,0,0c0-0.1,0-0.1,0.1-0.2c0,0,0,0,0,0c0-0.1,0.1-0.1,0.1-0.2
						c0,0,0,0,0,0c0-0.1,0.1-0.1,0.1-0.2c0,0,0,0,0,0c0-0.1,0.1-0.1,0.1-0.2c0,0,0,0,0,0c0.1-0.1,0.2-0.2,0.4-0.3c0,0,0.2,1,0.8,1.6
						c0.5,0.5,1.3,0.8,2.6,0.2c0,0.9,0.2,1.3,0.4,1.5c0.2,0.2,0.4,0.1,0.4,0.1c0-0.8,0.7-0.7,0.7-0.7s0,0,0,0c0,0,0.1,0,0.1,0
						c0.1,0,0.1,0,0.2,0.1c0,0,0,0,0,0c0.1,0,0.1,0.1,0.2,0.1c0,0,0,0,0,0c0,0,0.1,0.1,0.1,0.2c0,0,0,0,0,0c0,0.1,0.1,0.1,0.1,0.2
						c0,0.1,0,0.3,0,0.5c0,0,0,0,0,0c0,0.1,0,0.1-0.1,0.2c0,0,0,0,0,0.1c0,0.1-0.1,0.1-0.1,0.2c0,0,0,0,0,0c0,0-0.1,0.1-0.1,0.1
						c0,0,0,0,0,0c0,0-0.1,0.1-0.1,0.1c0,0,0,0,0,0c0,0,0,0-0.1,0c0,0,0,0,0,0c0,0,0,0,0,0c0,0,0,0,0,0c0,0,0,0,0,0c0,0,0,0,0,0
						c0,0,0,0,0,0c0,0,0,0-0.1,0c0,0,0,0,0,0c0,0,0,0,0,0c0,0,0,0,0,0c0,0,0,0,0,0c0,0,0,0,0,0c0,0,0,0,0,0s-0.2,0.7,0.2,1.4
						c0,0,0,0,0,0c-0.3,0.6-1.2,1.7-2.9,2.3c-0.1,0-0.2,0-0.4,0c-1-0.2-2.1-1.5-2.5-3C108.4,40.7,108.4,39,108.6,38z"/>
					<g>
						<ellipse class="st19" cx="109.7" cy="39.3" rx="0.2" ry="0.2"/>
						<ellipse class="st19" cx="112.4" cy="39.3" rx="0.2" ry="0.2"/>
						<path class="st5" d="M110.7,39.4c0,0,0.5,0.9-0.3,1c0,0-0.1,0.7,0.9,0.5"/>
						<path class="st5" d="M110.4,42.1c0,0,1.1,0.4,1.8-0.3"/>
					</g>
					<path class="st5" d="M114.8,42.9c-0.9-0.7-0.7-1.9-0.7-1.9s0.7,0.2,1-0.8c0.3-1.1-0.7-1.2-0.7-1.2s-0.7-0.1-0.7,0.7
						c0,0-0.8,0.3-0.8-1.6c-2.9,1.3-3.4-1.8-3.4-1.8c-1.1,0.7-1,2.5-1,2.5s-0.6-0.8-0.4-1.8c0,0,0.7-3.8,5.9-3.3
						c3.3,0.3,3.7,4.6,3.9,6.2c0.3,3.6,4,3.8,5.2,5.4c1.3,1.6,0.6,3.9-1.2,4.4c0,0-0.5,0.1-1.3,0"/>
					<path class="st5" d="M109.7,36c0,0,0.8-1.6,2.3-1.8"/>
				</g>
				<g>
					<path class="st14" d="M117.8,46.7c0,0-4.2-0.7-4.4,5.5c-0.2,6.2-1.2,1.7-1,0.3c0.2-1.4-0.7-6.1,3.7-6.8
						C117.4,45.5,117.8,46.7,117.8,46.7z"/>
					<path class="st5" d="M117.7,46.7c0,0-4.2-0.7-4.4,5.5s-1.2,1.7-1,0.3c0.2-1.4-0.7-6.1,3.7-6.8
						C117.3,45.5,117.7,46.7,117.7,46.7z"/>
				</g>
				<g>
					<path class="st18" d="M109.7,50.4c1.8,0.1,2.7,1.3,3.1,2c-0.5,0.4-1.3,1.2-1.6,2.3c-0.7-0.4-2.2-1.2-2.9-1.1
						C107.4,53.8,108.2,50.4,109.7,50.4z"/>
					<path class="st17" d="M111.3,54.9c0.3-1.1,1.1-1.9,1.6-2.3c0.2-0.2,0.4-0.3,0.4-0.3c0.6,0,1.8,1.2,1.8,1.2s-0.4-1.1-0.6-1.8
						c-1.1-4.6,2.5-5.3,4.6-2.9c0,0,3,3.6,2.8,10.3c-0.2,10.9-10.7-2.4-10.7-2.4C111.1,56,111.1,55.4,111.3,54.9z"/>
					<path class="st5" d="M111.2,54.8c0.3-1.1,1.1-1.9,1.6-2.3c0.2-0.2,0.4-0.3,0.4-0.3c0.6,0,1.8,1.2,1.8,1.2s-0.4-1.1-0.6-1.8
						c-1.1-4.6,2.5-5.3,4.6-2.9c0,0,3,3.6,2.8,10.3c-0.2,10.9-10.7-2.4-10.7-2.4C111,55.9,111,55.3,111.2,54.8z"/>
					<path class="st5" d="M117.7,55.3c-0.2-0.3-2.8-1.9-2.8-1.9s1.4-0.3,2,0"/>
				</g>
			</g>
		</g>
	</g>
	<g>
		<g class="st7">
			<path class="st1" d="M106.5,117.9c9.5,0,19,0,28.5,0c2,0,4.1,0,6-0.3c2-0.3,3.8-1,4.9-2.1c-12.4-3.7-27.7-2.9-39,2"/>
		</g>
		<path class="st3" d="M134.4,107.8c0,0,8.4,2.9,8.4-3.4s-3.5-1.7-3.5-1.7s1.7,3.1,1.5,0.4c-0.2-2.7-1.2-11-5.4-8.1
			c-4.3,2.9,11.6-2.9,6-6.4c-5.6-3.4-6-7-10.7-2.9c-4.7,4-1.1,4.6,1.5,0.6c2.6-4-0.7-10.6-6.8-2.8s-1,10.8,1.8,10.8s0.6-1.6-2.8-1.7
			c-3.4-0.2-8.5,5.6-6.9,7.4c0,0-8.8-1-5.2,4.7c0,0-4.2,1.5-1.3,5.9s7.5,3.2,8.3,1.9c0.8-1.4-13.7,1.7-8.6,4h29.8
			c0,0,5.9-1.7,4.4-3.1c-1.6-1.5-8.2-3.2-9.8-2.9C134.9,110.3,139,105.7,134.4,107.8z"/>
		<path class="st4" d="M138.4,96.5c1.1,1.2-0.5,4.7-2,3.7s-3.1-3.7-1.5-3.7C136.3,96.5,137.9,96,138.4,96.5z"/>
		<path class="st4" d="M126.4,106.3c1.9,2-0.9,7.9-3.4,6.1c-2.6-1.8-5.1-6.1-2.6-6.1C122.9,106.3,125.5,105.4,126.4,106.3z"/>
		<path class="st4" d="M123.6,94.6c-0.9-1.4,1.7-0.9,3,0.8s2.2,3.8,0.6,2.4C125.6,96.4,124,95.2,123.6,94.6z"/>
		<path class="st4" d="M136.3,105.8c-0.4-0.7,1-1.5,1.6-0.8c0.6,0.7,0.9,2,0.2,1.6C137.3,106.3,136.4,106.1,136.3,105.8z"/>
		<path class="st4" d="M127.4,89.5c-0.4-0.7,1-1.5,1.6-0.8c0.6,0.7,0.9,2,0.2,1.6S127.5,89.8,127.4,89.5z"/>
		<path class="st4" d="M134.9,86.9c-0.9-0.9,1.2-1.4,2.4-0.4c1.3,1,2.3,2.6,0.9,1.9S135.3,87.3,134.9,86.9z"/>
		<path class="st5" d="M135.4,107.8c0,0,8.4,2.9,8.4-3.4s-3.5-1.7-3.5-1.7s1.7,3.1,1.5,0.4c-0.2-2.7-1.2-11-5.4-8.1
			c-4.3,2.9,11.6-2.9,6-6.4s-6-7-10.7-2.9c-4.7,4-1.1,4.6,1.5,0.6s-0.7-10.6-6.8-2.8s-1,10.8,1.8,10.8c2.8,0,0.6-1.6-2.8-1.7
			c-3.4-0.2-8.5,5.6-6.9,7.4c0,0-8.8-1-5.2,4.7c0,0-4.2,1.5-1.3,5.9c2.8,4.4,7.5,3.2,8.3,1.9c0.8-1.4-13.7,1.7-8.6,4h29.8
			c0,0,5.9-1.7,4.4-3.1s-8.2-3.2-9.8-2.9C135.9,110.3,140,105.7,135.4,107.8z"/>
	</g>
	<g>
		<g class="st7">
			<path class="st1" d="M96,118c3.9,0,7.9,0,11.8,0c0.8,0,1.7,0,2.5,0.1c0.8,0.1,1.6,0.4,2,0.9c-5.1,1.5-11.5,1.2-16.2-0.8"/>
		</g>
		<path class="st23" d="M108.5,119c0,0,7-5.9,3.3-7.4c0,0,6.4-4.5,1.3-5.2c-5.2-0.7-4.3,2.2-4.3,2.2s4.9-1.9,2.6-4.7
			c-2.2-2.8-5.4,0-5.4,0s-1-2.2-2.2-1.3s0,1.9,0,1.9s0.8-2.3-1.5-1.5s-7.3,0.4-3.3,5.6c4,5.2,2.5,1,0.7-1c-1.8-2-6.2-5.2-6.6-0.4
			c-0.4,4.7,4.7,8,8.1,7.3s-0.2-1.4-1.5-0.8s-6.4,0.9-3.3,3.2c0,0,2.4,2.1,5.5,2.1C105,119,108.5,119,108.5,119z"/>
		<path class="st24" d="M112.3,112.3c0,0,0-1.3-1.2-1.3s-5.8,1.7-3.6,2C109.7,113.3,111.1,113.2,112.3,112.3z"/>
		<path class="st24" d="M110.1,103.8c0,0-0.2-0.6-1.4-0.2c-1.2,0.4-5.2,2.8-3.1,2.2C107.8,105.1,109.1,104.6,110.1,103.8z"/>
		<path class="st24" d="M97.9,109c0,0,1-0.7,0.4-1.7c-0.6-1-4.3-3.6-3.4-1.7C95.8,107.5,96.6,108.6,97.9,109z"/>
		<path class="st5" d="M108.9,118.7c0,0,7-5.9,3.3-7.4c0,0,6.4-4.5,1.3-5.2s-4.3,2.2-4.3,2.2s4.9-1.9,2.6-4.7s-5.4,0-5.4,0
			s-1-2.2-2.2-1.3c-1.2,0.8,0,1.9,0,1.9s0.8-2.3-1.5-1.5c-2.2,0.9-7.3,0.4-3.3,5.6s2.5,1,0.7-1c-1.8-2-6.2-5.2-6.6-0.4
			c-0.4,4.7,4.7,8,8.1,7.3c3.3-0.7-0.2-1.4-1.5-0.8c-1.3,0.6-6.4,0.9-3.3,3.2c0,0,2.4,2.1,5.5,2.1S108.9,118.7,108.9,118.7z"/>
	</g>
</g>
</svg>
