<?xml version="1.0" encoding="utf-8"?>
<!-- Generator: Adobe Illustrator 26.4.1, SVG Export Plug-In . SVG Version: 6.00 Build 0)  -->
<svg version="1.1" id="Layer_1" xmlns="http://www.w3.org/2000/svg" xmlns:xlink="http://www.w3.org/1999/xlink" x="0px" y="0px"
	 viewBox="0 0 190.5 161.1" style="enable-background:new 0 0 190.5 161.1;" xml:space="preserve">
<style type="text/css">
	.st0{fill:#DBE2D8;}
	.st1{fill:#F1F3F2;}
	.st2{opacity:0.3;}
	.st3{fill:#879384;}
	.st4{fill:#ACC6A4;}
	.st5{opacity:0.4;fill:#C8E3D0;}
	.st6{fill:none;stroke:#1A1A1A;stroke-width:0.2;stroke-linecap:round;stroke-linejoin:round;stroke-miterlimit:10;}
	.st7{fill:#75968E;}
	.st8{fill:#8FA487;}
	.st9{opacity:0.2;fill:#C8E3D0;}
	.st10{fill:#E6D1B7;}
	.st11{fill:none;stroke:#020203;stroke-width:0.2;stroke-linecap:round;stroke-linejoin:round;stroke-miterlimit:10;}
	.st12{opacity:0.3;fill:#879384;}
	.st13{opacity:0.8;fill:#DDEFEF;}
	.st14{fill:#DDEFEF;}
	.st15{fill:#F4D6D2;}
	.st16{fill:#F0F0F0;}
	.st17{fill:#F6E4D0;}
	.st18{fill:#FBFBFA;stroke:#1A1A1A;stroke-width:0.2;stroke-linecap:round;stroke-linejoin:round;stroke-miterlimit:10;}
	.st19{fill:#BEB5B1;}
	.st20{fill:#BED0E7;}
	.st21{fill:#E2E2E1;}
	.st22{fill:#CAB39B;}
	.st23{fill:#1A1A1A;}
	.st24{fill:#816663;}
	.st25{fill:#FFFFFF;stroke:#1A1A1A;stroke-width:0.2;stroke-linecap:round;stroke-linejoin:round;stroke-miterlimit:10;}
	.st26{opacity:0.4;fill:#DDEFEF;}
	.st27{opacity:0.3;fill:#F4D6D2;}
	.st28{fill:#BFBEBE;}
	.st29{fill:#F8F7F7;}
</style>
<g>
	<path class="st0" d="M171.7,75c5.5-39.1-17.3-63.4-42.8-59.9s-42.5-5-52-12.2S3.2-0.5,7.9,38.4S23.4,110,61.1,94.9
		s21.7,19.2,41.3,24.7S168.6,97.2,171.7,75z"/>
	<path class="st1" d="M60.7,30c2.2-3.5-12.2-11-33.1-2.8S1.9,32.5,0.1,35.4c-1.8,2.9,24,1.4,31-1.3S58,34.4,60.7,30z"/>
	<path class="st1" d="M59.3,46.8c-1.6-2.9,6.4-11.2,19.5-6.5s15.7,1.5,17,3.8s-14.2,4.2-18.5,2.6C72.9,45.3,61.3,50.4,59.3,46.8z"/>
	<g>
		<g class="st2">
			<path class="st3" d="M35.5,129c-5.3,0-10.6,0-15.9,0c-1.1,0-2.3,0-3.3,0.2c-1.1,0.2-2.1,0.6-2.7,1.3c6.9,2.2,15.4,1.7,21.7-1.2"
				/>
		</g>
		<path class="st4" d="M18.7,130.5c0,0-9.3-8.5-4.5-10.5c0,0-8.6-6.5-1.7-7.5s5.8,3.2,5.8,3.2s-6.5-2.8-3.5-6.8s7.2,0,7.2,0
			s1.3-3.1,2.9-1.9s0,2.8,0,2.8s-1-3.3,2-2.1c3,1.2,9.8,0.5,4.4,8c-5.4,7.5-3.4,1.5-0.9-1.4s8.3-7.4,8.9-0.6S32.8,125,28.4,124
			c-4.5-1,0.2-1.9,2.1-1.1c1.8,0.8,8.6,1.3,4.4,4.5c0,0-3.2,3.1-7.3,3C23.4,130.5,18.7,130.5,18.7,130.5z"/>
		<path class="st5" d="M13.6,120.9c0,0,0-1.8,1.6-1.8s7.8,2.5,4.9,2.8C17.1,122.2,15.2,122.2,13.6,120.9z"/>
		<path class="st5" d="M16.5,108.6c0,0,0.2-0.9,1.8-0.3s7,4,4.1,3.1S17.9,109.9,16.5,108.6z"/>
		<path class="st5" d="M32.9,116.2c0,0-1.4-1-0.6-2.4c0.8-1.4,5.8-5.1,4.6-2.5S34.7,115.6,32.9,116.2z"/>
		<path class="st6" d="M18.1,130c0,0-9.3-8.5-4.5-10.5c0,0-8.6-6.5-1.7-7.5s5.8,3.2,5.8,3.2s-6.5-2.8-3.5-6.8c3-4,7.2,0,7.2,0
			s1.3-3.1,2.9-1.9c1.6,1.2,0,2.8,0,2.8s-1-3.3,2-2.1c3,1.2,9.8,0.5,4.4,8c-5.4,7.5-3.4,1.5-0.9-1.4s8.3-7.4,8.9-0.6
			c0.6,6.7-6.3,11.4-10.8,10.4c-4.5-1,0.2-1.9,2.1-1.1c1.8,0.8,8.6,1.3,4.4,4.5c0,0-3.2,3.1-7.3,3C22.8,130,18.1,130,18.1,130z"/>
	</g>
	<g>
		<g>
			<path class="st7" d="M70.2,138c-11.3,0-22.5,0-33.8,0c-2.4,0-4.8,0-7.1-0.6c-2.3-0.6-4.6-1.9-5.8-4c14.7-6.9,32.8-5.5,46.3,3.7"
				/>
		</g>
		<path class="st8" d="M37.1,119.1c0,0-9.9,5.5-9.9-6.4s4.2-3.3,4.2-3.3s-2,5.8-1.8,0.7c0.2-5,1.4-20.6,6.5-15.2
			c5.1,5.4-13.8-5.5-7.2-12c6.7-6.4,7.2-13.1,12.7-5.5s1.3,8.5-1.8,1.1c-3.1-7.4,0.8-19.8,8-5.3s1.2,20.2-2.2,20.2s-0.7-2.9,3.4-3.2
			c4.1-0.3,10,10.4,8.2,13.8c0,0,10.4-1.9,6.2,8.7c0,0,5,2.9,1.6,11.1c-3.4,8.2-8.8,6-9.8,3.5c-1-2.5,16.3,3.2,10.2,7.5H30
			c0,0-7.1-3.1-5.2-5.9s9.7-6,11.6-5.4C36.5,123.6,31.6,115.1,37.1,119.1z"/>
		<path class="st9" d="M32.4,97.8c-1.4,2.2,0.6,8.9,2.4,6.9c1.8-2,3.6-6.9,1.8-6.9C34.8,97.8,33,96.8,32.4,97.8z"/>
		<path class="st9" d="M46.7,116.2c-2.3,3.7,1,14.8,4.1,11.5c3-3.3,6.1-11.5,3-11.5S47.7,114.6,46.7,116.2z"/>
		<path class="st9" d="M49.9,94.2c1-2.6-2-1.7-3.5,1.5c-1.5,3.2-2.6,7.2-0.8,4.6S49.5,95.4,49.9,94.2z"/>
		<path class="st9" d="M34.9,115.3c0.4-1.3-1.2-2.9-1.8-1.6c-0.7,1.3-1.1,3.7-0.2,3.1C33.7,116.1,34.7,115.8,34.9,115.3z"/>
		<path class="st9" d="M45.4,84.7c0.4-1.3-1.2-2.9-1.8-1.6c-0.7,1.3-1.1,3.7-0.2,3.1C44.3,85.6,45.2,85.3,45.4,84.7z"/>
		<path class="st9" d="M36.5,79.9c1-1.7-1.4-2.6-2.9-0.7s-2.7,4.8-1,3.6C34.3,81.5,36,80.6,36.5,79.9z"/>
		<path class="st6" d="M36,119.1c0,0-9.9,5.5-9.9-6.4s4.2-3.3,4.2-3.3s-2,5.8-1.8,0.7c0.2-5,1.4-20.6,6.5-15.2
			c5.1,5.4-13.8-5.5-7.2-12c6.7-6.4,7.2-13.1,12.7-5.5s1.3,8.5-1.8,1.1c-3.1-7.4,0.8-19.8,8-5.3s1.2,20.2-2.2,20.2
			c-3.4,0-0.7-2.9,3.4-3.2c4.1-0.3,10,10.4,8.2,13.8c0,0,10.4-1.9,6.2,8.7c0,0,5,2.9,1.6,11.1c-3.4,8.2-8.8,6-9.8,3.5
			c-1-2.5,16.3,3.2,10.2,7.5H28.9c0,0-7.1-3.1-5.2-5.9s9.7-6,11.6-5.4C35.4,123.6,30.5,115.1,36,119.1z"/>
	</g>
	<path class="st3" d="M18.5,130.6c3.3-7.1,48.8-9.1,72-31.7C141.9,49,152.4,49.6,163.2,60s12.4,98.8-3.3,100.5
		c-21.6,2.3-116.6-2.2-128.3-11.5S13,142.3,18.5,130.6z"/>
	<g>
		<g class="st2">
			<path class="st3" d="M131.9,121.4c5,0,10,0,15,0c1.1,0,2.1,0,3.2,0.2c1,0.2,2,0.5,2.6,1.1c-6.5,1.9-14.6,1.5-20.6-1"/>
		</g>
		<path class="st4" d="M147.8,122.6c0,0,8.9-7.5,4.3-9.3c0,0,8.1-5.7,1.6-6.6c-6.5-0.9-5.5,2.8-5.5,2.8s6.2-2.4,3.4-5.9
			c-2.8-3.5-6.8,0-6.8,0s-1.2-2.7-2.7-1.7c-1.5,1.1,0,2.4,0,2.4s1-2.9-1.9-1.9c-2.8,1.1-9.3,0.5-4.2,7c5.1,6.6,3.2,1.3,0.9-1.2
			s-7.9-6.5-8.4-0.6c-0.5,5.9,6,10.1,10.3,9.2c4.2-0.9-0.2-1.7-1.9-1s-8.1,1.1-4.2,4c0,0,3,2.7,6.9,2.7
			C143.5,122.6,147.8,122.6,147.8,122.6z"/>
		<path class="st5" d="M152.7,114.2c0,0,0-1.6-1.6-1.6c-1.6,0-7.4,2.2-4.6,2.5C149.4,115.4,151.2,115.4,152.7,114.2z"/>
		<path class="st5" d="M149.9,103.4c0,0-0.2-0.8-1.7-0.2s-6.6,3.5-3.9,2.7C147,105.1,148.7,104.5,149.9,103.4z"/>
		<path class="st5" d="M134.4,110.1c0,0,1.3-0.9,0.5-2.1s-5.5-4.5-4.4-2.2C131.8,108.1,132.7,109.5,134.4,110.1z"/>
		<path class="st6" d="M148.4,122.3c0,0,8.9-7.5,4.3-9.3c0,0,8.1-5.7,1.6-6.6c-6.5-0.9-5.5,2.8-5.5,2.8s6.2-2.4,3.4-5.9
			c-2.8-3.5-6.8,0-6.8,0s-1.2-2.7-2.7-1.7c-1.5,1.1,0,2.4,0,2.4s1-2.9-1.9-1.9s-9.3,0.5-4.2,7c5.1,6.6,3.2,1.3,0.9-1.2
			c-2.3-2.5-7.9-6.5-8.4-0.6s6,10.1,10.3,9.2s-0.2-1.7-1.9-1c-1.7,0.7-8.1,1.1-4.2,4c0,0,3,2.7,6.9,2.7S148.4,122.3,148.4,122.3z"/>
	</g>
	<g>
		<g>
			<g>
				<path class="st10" d="M17.6,137.7c0,0,110.5-58.7,131.4-83.6l-0.3-1.9c-20.9,24.9-131.4,83.6-131.4,83.6L17.6,137.7z"/>
			</g>
			<g>
				<path class="st11" d="M17.6,138.1c0,0,110.5-58.7,131.4-83.6"/>
				<path class="st11" d="M17.4,136.3c0,0,110.5-58.7,131.4-83.6"/>
			</g>
		</g>
		<g>
			<path class="st10" d="M84.5,99.1c1.3-1.1,6.4,1.2,7.9,1.4c1.5,0.2,1.5,0.5,1.5,0.5l-2.3,1.4C91.6,102.4,83.5,99.9,84.5,99.1z"/>
			<path class="st11" d="M84.8,99c1.3-1.1,6.4,1.2,7.9,1.4c1.5,0.2,1.5,0.5,1.5,0.5l-2.3,1.4C91.9,102.3,83.9,99.8,84.8,99z"/>
		</g>
		<g>
			<path class="st10" d="M91.4,95.1c1.3-1.1,6.4,1.2,7.9,1.4c1.5,0.2,1.5,0.5,1.5,0.5l-2.3,1.4C98.6,98.4,90.5,95.9,91.4,95.1z"/>
			<path class="st11" d="M91.7,95c1.3-1.1,6.4,1.2,7.9,1.4c1.5,0.2,1.5,0.5,1.5,0.5l-2.3,1.4C98.9,98.3,90.8,95.8,91.7,95z"/>
		</g>
		<g>
			<path class="st10" d="M97.7,91.3c1.3-1.1,6.4,1.2,7.9,1.4c1.5,0.2,1.5,0.5,1.5,0.5l-2.3,1.4C104.9,94.6,96.8,92.1,97.7,91.3z"/>
			<path class="st11" d="M98,91.1c1.3-1.1,6.4,1.2,7.9,1.4s1.5,0.5,1.5,0.5l-2.3,1.4C105.2,94.5,97.1,92,98,91.1z"/>
		</g>
		<g>
			<path class="st10" d="M104.3,87.1c1.3-1.1,6.4,1.2,7.9,1.4c1.5,0.2,1.5,0.5,1.5,0.5l-2.3,1.4C111.4,90.5,103.3,87.9,104.3,87.1z"
				/>
			<path class="st11" d="M104.6,87c1.3-1.1,6.4,1.2,7.9,1.4c1.5,0.2,1.5,0.5,1.5,0.5l-2.3,1.4C111.7,90.4,103.6,87.8,104.6,87z"/>
		</g>
		<g>
			<path class="st10" d="M110.6,82.9c1.3-1.1,6.4,1.2,7.9,1.4c1.5,0.2,1.5,0.5,1.5,0.5l-2.3,1.4C117.7,86.3,109.6,83.7,110.6,82.9z"
				/>
			<path class="st11" d="M110.9,82.8c1.3-1.1,6.4,1.2,7.9,1.4c1.5,0.2,1.5,0.5,1.5,0.5l-2.3,1.4C118,86.2,110,83.6,110.9,82.8z"/>
		</g>
		<g>
			<path class="st10" d="M117,78.9c1.3-1.1,6.4,1.2,7.9,1.4c1.5,0.2,1.5,0.5,1.5,0.5l-2.3,1.4C124.1,82.3,116.1,79.7,117,78.9z"/>
			<path class="st11" d="M117.3,78.8c1.3-1.1,6.4,1.2,7.9,1.4c1.5,0.2,1.5,0.5,1.5,0.5l-2.3,1.4C124.4,82.2,116.4,79.6,117.3,78.8z"
				/>
		</g>
		<g>
			<path class="st10" d="M123.3,74.8c1.3-1.1,6.4,1.2,7.9,1.4c1.5,0.2,1.5,0.5,1.5,0.5l-2.3,1.4C130.4,78.1,122.4,75.6,123.3,74.8z"
				/>
			<path class="st11" d="M123.6,74.6c1.3-1.1,6.4,1.2,7.9,1.4c1.5,0.2,1.5,0.5,1.5,0.5l-2.3,1.4C130.7,78,122.7,75.4,123.6,74.6z"/>
		</g>
		<g>
			<path class="st10" d="M128.8,70.3c1.3-1.1,6.4,1.2,7.9,1.4c1.5,0.2,1.5,0.5,1.5,0.5l-2.3,1.4C135.9,73.7,127.9,71.1,128.8,70.3z"
				/>
			<path class="st11" d="M129.1,70.2c1.3-1.1,6.4,1.2,7.9,1.4c1.5,0.2,1.5,0.5,1.5,0.5l-2.3,1.4C136.2,73.6,128.2,71,129.1,70.2z"/>
		</g>
		<g>
			<path class="st10" d="M135.1,66.1c1.3-1.1,6.4,1.2,7.9,1.4c1.5,0.2,1.5,0.5,1.5,0.5l-2.3,1.4C142.3,69.5,134.2,66.9,135.1,66.1z"
				/>
			<path class="st11" d="M135.4,66c1.3-1.1,6.4,1.2,7.9,1.4s1.5,0.5,1.5,0.5l-2.3,1.4C142.6,69.4,134.5,66.8,135.4,66z"/>
		</g>
		<g>
			<path class="st10" d="M22.5,134.2c1.3-1.1,6.4,1.2,7.9,1.4c1.5,0.2,1.5,0.5,1.5,0.5l-2.3,1.4C29.7,137.5,21.6,135,22.5,134.2z"/>
			<path class="st11" d="M22.9,134.1c1.3-1.1,6.4,1.2,7.9,1.4c1.5,0.2,1.5,0.5,1.5,0.5l-2.3,1.4C30,137.4,21.9,134.9,22.9,134.1z"/>
		</g>
		<g>
			<path class="st10" d="M30.5,129.7c1.3-1.1,6.4,1.2,7.9,1.4c1.5,0.2,1.5,0.5,1.5,0.5l-2.3,1.4C37.7,133.1,29.6,130.5,30.5,129.7z"
				/>
			<path class="st11" d="M30.8,129.6c1.3-1.1,6.4,1.2,7.9,1.4c1.5,0.2,1.5,0.5,1.5,0.5L38,133C38,133,29.9,130.4,30.8,129.6z"/>
		</g>
		<g>
			<path class="st10" d="M38.5,125.3c1.3-1.1,6.4,1.2,7.9,1.4c1.5,0.2,1.5,0.5,1.5,0.5l-2.3,1.4C45.7,128.7,37.6,126.1,38.5,125.3z"
				/>
			<path class="st11" d="M38.8,125.2c1.3-1.1,6.4,1.2,7.9,1.4c1.5,0.2,1.5,0.5,1.5,0.5l-2.3,1.4C46,128.6,37.9,126,38.8,125.2z"/>
		</g>
		<g>
			<path class="st10" d="M46.5,120.9c1.3-1.1,6.4,1.2,7.9,1.4c1.5,0.2,1.5,0.5,1.5,0.5l-2.3,1.4C53.7,124.3,45.6,121.7,46.5,120.9z"
				/>
			<path class="st11" d="M46.8,120.8c1.3-1.1,6.4,1.2,7.9,1.4c1.5,0.2,1.5,0.5,1.5,0.5l-2.3,1.4C54,124.2,45.9,121.6,46.8,120.8z"/>
		</g>
		<g>
			<path class="st10" d="M54.3,116.6c1.3-1.1,6.4,1.2,7.9,1.4c1.5,0.2,1.5,0.5,1.5,0.5l-2.3,1.4C61.4,120,53.4,117.4,54.3,116.6z"/>
			<path class="st11" d="M54.6,116.5c1.3-1.1,6.4,1.2,7.9,1.4c1.5,0.2,1.5,0.5,1.5,0.5l-2.3,1.4C61.7,119.9,53.7,117.3,54.6,116.5z"
				/>
		</g>
		<g>
			<path class="st10" d="M61.8,112.3c1.3-1.1,6.4,1.2,7.9,1.4c1.5,0.2,1.5,0.5,1.5,0.5l-2.3,1.4C69,115.7,60.9,113.1,61.8,112.3z"/>
			<path class="st11" d="M62.1,112.2c1.3-1.1,6.4,1.2,7.9,1.4c1.5,0.2,1.5,0.5,1.5,0.5l-2.3,1.4C69.3,115.5,61.2,113,62.1,112.2z"/>
		</g>
		<g>
			<path class="st10" d="M69.6,107.4c1.3-1.1,6.4,1.2,7.9,1.4s1.5,0.5,1.5,0.5l-2.3,1.4C76.7,110.7,68.7,108.2,69.6,107.4z"/>
			<path class="st11" d="M69.9,107.3c1.3-1.1,6.4,1.2,7.9,1.4c1.5,0.2,1.5,0.5,1.5,0.5l-2.3,1.4C77,110.6,69,108.1,69.9,107.3z"/>
		</g>
		<g>
			<path class="st10" d="M77.6,103.1c1.3-1.1,6.4,1.2,7.9,1.4C87,104.7,87,105,87,105l-2.3,1.4C84.7,106.4,76.7,103.9,77.6,103.1z"
				/>
			<path class="st11" d="M77.9,103c1.3-1.1,6.4,1.2,7.9,1.4c1.5,0.2,1.5,0.5,1.5,0.5l-2.3,1.4C85,106.3,77,103.8,77.9,103z"/>
		</g>
		<g>
			<g>
				<path class="st10" d="M24.5,141.3c0,0,110.5-58.7,131.4-83.6l-0.3-1.9c-20.9,24.9-131.4,83.6-131.4,83.6L24.5,141.3z"/>
			</g>
			<g>
				<path class="st11" d="M24.6,141.8c0,0,110.5-58.7,131.4-83.6"/>
				<path class="st11" d="M24.3,139.9c0,0,110.5-58.7,131.4-83.6"/>
			</g>
		</g>
		<g>
			<path class="st10" d="M31.8,137.3c1.3-1.1,6.4,1.2,7.9,1.4c1.5,0.2,1.5,0.5,1.5,0.5l-2.3,1.4C39,140.7,30.9,138.1,31.8,137.3z"/>
			<path class="st11" d="M32.1,137.2c1.3-1.1,6.4,1.2,7.9,1.4c1.5,0.2,1.5,0.5,1.5,0.5l-2.3,1.4C39.3,140.6,31.2,138,32.1,137.2z"/>
		</g>
		<g>
			<g>
				<path class="st10" d="M39.8,132.9c1.3-1.1,6.4,1.2,7.9,1.4c1.5,0.2,1.5,0.5,1.5,0.5l-2.3,1.4C47,136.3,38.9,133.7,39.8,132.9z"
					/>
			</g>
			<path class="st11" d="M40.1,132.8c1.3-1.1,6.4,1.2,7.9,1.4c1.5,0.2,1.5,0.5,1.5,0.5l-2.3,1.4C47.3,136.2,39.2,133.6,40.1,132.8z"
				/>
		</g>
		<g>
			<path class="st10" d="M47.8,128.5c1.3-1.1,6.4,1.2,7.9,1.4c1.5,0.2,1.5,0.5,1.5,0.5l-2.3,1.4C54.9,131.9,46.9,129.3,47.8,128.5z"
				/>
			<path class="st11" d="M48.1,128.4c1.3-1.1,6.4,1.2,7.9,1.4c1.5,0.2,1.5,0.5,1.5,0.5l-2.3,1.4C55.3,131.8,47.2,129.2,48.1,128.4z"
				/>
		</g>
		<g>
			<path class="st10" d="M55.8,124.1c1.3-1.1,6.4,1.2,7.9,1.4s1.5,0.5,1.5,0.5l-2.3,1.4C62.9,127.5,54.9,124.9,55.8,124.1z"/>
			<path class="st11" d="M56.1,124c1.3-1.1,6.4,1.2,7.9,1.4c1.5,0.2,1.5,0.5,1.5,0.5l-2.3,1.4C63.2,127.3,55.2,124.8,56.1,124z"/>
		</g>
		<g>
			<path class="st10" d="M63.5,119.8c1.3-1.1,6.4,1.2,7.9,1.4c1.5,0.2,1.5,0.5,1.5,0.5l-2.3,1.4C70.7,123.1,62.6,120.6,63.5,119.8z"
				/>
			<path class="st11" d="M63.9,119.7c1.3-1.1,6.4,1.2,7.9,1.4s1.5,0.5,1.5,0.5L71,123C71,123,62.9,120.5,63.9,119.7z"/>
		</g>
		<g>
			<path class="st10" d="M71.1,115.5c1.3-1.1,6.4,1.2,7.9,1.4c1.5,0.2,1.5,0.5,1.5,0.5l-2.3,1.4C78.3,118.8,70.2,116.3,71.1,115.5z"
				/>
			<path class="st11" d="M71.4,115.3c1.3-1.1,6.4,1.2,7.9,1.4c1.5,0.2,1.5,0.5,1.5,0.5l-2.3,1.4C78.6,118.7,70.5,116.2,71.4,115.3z"
				/>
		</g>
		<g>
			<path class="st10" d="M78.9,110.5c1.3-1.1,6.4,1.2,7.9,1.4c1.5,0.2,1.5,0.5,1.5,0.5l-2.3,1.4C86,113.9,77.9,111.3,78.9,110.5z"/>
			<path class="st11" d="M79.2,110.4c1.3-1.1,6.4,1.2,7.9,1.4c1.5,0.2,1.5,0.5,1.5,0.5l-2.3,1.4C86.3,113.8,78.2,111.2,79.2,110.4z"
				/>
		</g>
		<g>
			<path class="st10" d="M86.8,106.2c1.3-1.1,6.4,1.2,7.9,1.4c1.5,0.2,1.5,0.5,1.5,0.5l-2.3,1.4C94,109.6,85.9,107,86.8,106.2z"/>
			<path class="st11" d="M87.2,106.1c1.3-1.1,6.4,1.2,7.9,1.4c1.5,0.2,1.5,0.5,1.5,0.5l-2.3,1.4C94.3,109.5,86.2,106.9,87.2,106.1z"
				/>
		</g>
		<g>
			<path class="st10" d="M93.2,102c1.3-1.1,6.4,1.2,7.9,1.4c1.5,0.2,1.5,0.5,1.5,0.5l-2.3,1.4C100.3,105.4,92.2,102.8,93.2,102z"/>
			<path class="st11" d="M93.5,101.9c1.3-1.1,6.4,1.2,7.9,1.4c1.5,0.2,1.5,0.5,1.5,0.5l-2.3,1.4C100.6,105.3,92.5,102.7,93.5,101.9z
				"/>
		</g>
		<g>
			<path class="st10" d="M99.5,97.9c1.3-1.1,6.4,1.2,7.9,1.4c1.5,0.2,1.5,0.5,1.5,0.5l-2.3,1.4C106.6,101.2,98.6,98.7,99.5,97.9z"/>
			<path class="st11" d="M99.8,97.7c1.3-1.1,6.4,1.2,7.9,1.4c1.5,0.2,1.5,0.5,1.5,0.5l-2.3,1.4C106.9,101.1,98.9,98.5,99.8,97.7z"/>
		</g>
		<g>
			<path class="st10" d="M106.1,93.7c1.3-1.1,6.4,1.2,7.9,1.4c1.5,0.2,1.5,0.5,1.5,0.5l-2.3,1.4C113.2,97.1,105.2,94.5,106.1,93.7z"
				/>
			<path class="st11" d="M106.4,93.6c1.3-1.1,6.4,1.2,7.9,1.4s1.5,0.5,1.5,0.5l-2.3,1.4C113.5,97,105.5,94.4,106.4,93.6z"/>
		</g>
		<g>
			<path class="st10" d="M112.8,89.5c1.3-1.1,6.4,1.2,7.9,1.4c1.5,0.2,1.5,0.5,1.5,0.5l-2.3,1.4C119.9,92.9,111.9,90.3,112.8,89.5z"
				/>
			<path class="st11" d="M113.1,89.4c1.3-1.1,6.4,1.2,7.9,1.4c1.5,0.2,1.5,0.5,1.5,0.5l-2.3,1.4C120.2,92.8,112.2,90.2,113.1,89.4z"
				/>
		</g>
		<g>
			<path class="st10" d="M119.3,85.3c1.3-1.1,6.4,1.2,7.9,1.4c1.5,0.2,1.5,0.5,1.5,0.5l-2.3,1.4C126.5,88.7,118.4,86.1,119.3,85.3z"
				/>
			<path class="st11" d="M119.6,85.2c1.3-1.1,6.4,1.2,7.9,1.4c1.5,0.2,1.5,0.5,1.5,0.5l-2.3,1.4C126.8,88.6,118.7,86,119.6,85.2z"/>
		</g>
		<g>
			<path class="st10" d="M125.7,81.6c1.3-1.1,6.4,1.2,7.9,1.4c1.5,0.2,1.5,0.5,1.5,0.5l-2.3,1.4C132.8,84.9,124.7,82.4,125.7,81.6z"
				/>
			<path class="st11" d="M126,81.4c1.3-1.1,6.4,1.2,7.9,1.4s1.5,0.5,1.5,0.5l-2.3,1.4C133.1,84.8,125,82.2,126,81.4z"/>
		</g>
		<g>
			<path class="st10" d="M131.7,77.4c1.3-1.1,6.4,1.2,7.9,1.4c1.5,0.2,1.5,0.5,1.5,0.5l-2.3,1.4C138.8,80.7,130.7,78.2,131.7,77.4z"
				/>
			<path class="st11" d="M132,77.3c1.3-1.1,6.4,1.2,7.9,1.4c1.5,0.2,1.5,0.5,1.5,0.5l-2.3,1.4C139.1,80.6,131,78.1,132,77.3z"/>
		</g>
		<g>
			<path class="st10" d="M137.5,72.9c1.3-1.1,6.4,1.2,7.9,1.4c1.5,0.2,1.5,0.5,1.5,0.5l-2.3,1.4C144.6,76.3,136.6,73.8,137.5,72.9z"
				/>
			<path class="st11" d="M137.8,72.8c1.3-1.1,6.4,1.2,7.9,1.4s1.5,0.5,1.5,0.5l-2.3,1.4C144.9,76.2,136.9,73.6,137.8,72.8z"/>
		</g>
		<g>
			<path class="st10" d="M143.5,68.4c1.3-1.1,6.4,1.2,7.9,1.4c1.5,0.2,1.5,0.5,1.5,0.5l-2.3,1.4C150.6,71.8,142.6,69.2,143.5,68.4z"
				/>
			<path class="st11" d="M143.8,68.3c1.3-1.1,6.4,1.2,7.9,1.4c1.5,0.2,1.5,0.5,1.5,0.5l-2.3,1.4C150.9,71.7,142.9,69.1,143.8,68.3z"
				/>
		</g>
		<g>
			<g>
				<path class="st10" d="M31.7,145.1c0,0,110.5-58.7,131.4-83.6l-0.3-1.9c-20.9,24.9-131.4,83.6-131.4,83.6L31.7,145.1z"/>
			</g>
			<g>
				<path class="st11" d="M31.7,145.6c0,0,110.5-58.7,131.4-83.6"/>
				<path class="st11" d="M31.5,143.7c0,0,110.5-58.7,131.4-83.6"/>
			</g>
		</g>
	</g>
	<path class="st12" d="M36.5,123.6c2.7-7.2,25.4-11.3,51.2-31.8c50.8-40.3,42-22.5,48.1-13.2c6.1,9.3-24.9,30.6-35.1,33.5
		c-14.1,4.1-22,14.7-44.9,17.7C45.3,131.3,32,135.5,36.5,123.6z"/>
	<g>
		<path class="st13" d="M112,29.3c-2.8,0.6-22.4,13.4-45.9,25.2C61,57,42,63.5,43.8,67.5c0.2,0.5,0.7,0.9,1.6,1.3
			c13.8,6.3,38.8-7,45.2-10.1c6.2-3.1,42.2-27.5,43.4-29.5c0-0.1,0-0.1,0-0.1C132.8,28.6,114.8,28.7,112,29.3z"/>
		<path class="st13" d="M57.2,96.5c9.7-0.5,22.8,0,74.7-38.9c0.9-12,2-26.8,2.1-28.3c-1.3,2-37.2,26.4-43.4,29.5
			C84.1,61.8,59.1,75,45.3,68.8c-0.9-0.4-1.4-0.8-1.6-1.3l-0.1,0.1c0,0-0.7,12.6-1.1,24.4C45.6,94.1,50.8,96.8,57.2,96.5z"/>
		<path class="st14" d="M46,95.6c0.4-0.2,31.6-15.1,31.6-15.1s-0.7-7.9,0.3-9.3c1.1-1.4,9-3.2,10.2-4.1c1.1-0.8,12.7-8.6,13.2-9
			c0.5-0.4,26.7,3.3,26.6,4.6c-0.1,1.4-52.4,42.4-64.7,41.4C50.7,103.3,46,95.6,46,95.6z"/>
		<g>
			<path class="st15" d="M116.9,50.2c0.7-4.7,0.6-7.6-1.5-8c-2.1-0.5-8.4-0.2-10.9-0.6c-2.5-0.5-3.9,0.7-3.9,2.8
				c0,2.1-0.8,16.1-1,17.5s-0.5,2.5,2,2.5c2.4,0,11.7,0.5,12.9,0.8s1.4-0.7,1.5-2.3C116.1,61,116.6,51.9,116.9,50.2z"/>
			<path class="st6" d="M117.3,49.9c0.7-4.7,0.6-7.6-1.5-8c-2.1-0.5-8.4-0.2-10.9-0.6c-2.5-0.5-3.9,0.7-3.9,2.8s-0.8,16.1-1,17.5
				c-0.2,1.4-0.5,2.5,2,2.5c2.4,0,11.7,0.5,12.9,0.8c1.2,0.3,1.4-0.7,1.5-2.3C116.5,60.8,117,51.6,117.3,49.9z"/>
			<path class="st6" d="M110,63.2c0,0,1-15.4,1.1-16.3c0.1-1,0.1-3.1-0.3-3.1s-0.4,2.3-0.4,3s-1.2,16.3-1.2,16.3"/>
			<path class="st6" d="M103.3,62.8c0,0,1-15.4,1.1-16.3c0.1-1,0.1-3.1-0.3-3.1c-0.4,0-0.4,2.3-0.4,3s-1.2,16.3-1.2,16.3"/>
			<path class="st6" d="M107.5,63.1c0,0,0.9-14.5,0.9-15.5c0-1,0.1-3.9,0.5-3.9c0.4,0-0.1,6.2-0.2,6.9c-0.2,0.7-0.5,12.5-0.5,12.5"
				/>
			<path class="st6" d="M105.1,62.9c0,0,0.9-14.5,0.9-15.5c0-1,0.1-3.9,0.5-3.9s-0.1,6.2-0.2,6.9c-0.2,0.7-0.5,12.5-0.5,12.5"/>
			<path class="st6" d="M116.7,43.7c0,0-0.3-0.4-1.2-0.5c-1-0.1-1.6,0-1.6,0.7c0,0.9-1.2,17.8-1.4,18.7s0.3,1.2,0.3,1.2"/>
			<g>
				<path class="st16" d="M112.2,64.8c0,0.5,0.4,1,0.9,1c0.5,0,1-0.4,1-0.9L112.2,64.8z"/>
				<path class="st6" d="M112.3,64.7c0,0.5,0.4,1,0.9,1c0.5,0,1-0.4,1-0.9L112.3,64.7z"/>
			</g>
			<g>
				<path class="st16" d="M102.6,64.2c0,0.5,0.4,1,0.9,1c0.5,0,1-0.4,1-0.9L102.6,64.2z"/>
				<path class="st6" d="M102.7,64.1c0,0.5,0.4,1,0.9,1c0.5,0,1-0.4,1-0.9L102.7,64.1z"/>
			</g>
		</g>
		<g>
			<g>
				<path class="st17" d="M123.4,59c-0.7,0.3-1.9,0.5-3.3,0.6c-0.1,0.9-0.2,1.6-0.2,1.6l-0.8,0.1c0,0,0.1-0.7,0.3-1.7
					c-1.1,0-2.3,0-3.4-0.1c-0.2,0-0.5,0-0.7-0.1c-1.2-0.1-2.3-0.3-3.1-0.5c-3-0.8-2.1,1.6-2.8,3.2c-0.3,0.7-1,3.9-0.7,5.3
					c0.3,1.5,10.3,1.3,13.3,1.5c3,0.2,3.1-3.8,3.1-6.1C125.1,60.5,125.6,58.1,123.4,59z"/>
				<path class="st6" d="M123.3,58.8c-0.7,0.3-1.9,0.5-3.3,0.6c-0.1,0.9-0.2,1.6-0.2,1.6l-0.8,0.1c0,0,0.1-0.7,0.3-1.7
					c-1.1,0-2.3,0-3.4-0.1c-0.2,0-0.5,0-0.7-0.1c-1.2-0.1-2.3-0.3-3.1-0.5c-3-0.8-2.1,1.6-2.8,3.2c-0.3,0.7-1,3.9-0.7,5.3
					s10.3,1.3,13.3,1.5c3,0.2,3.1-3.8,3.1-6.1C125,60.4,125.5,57.9,123.3,58.8z"/>
				<path class="st18" d="M117.2,55.5"/>
				<path class="st18" d="M117.2,55.5c0,0-1,3-1.3,3.8c-0.2,0-0.5,0-0.7-0.1c0.3-1.2,1.5-6.1,3.2-5.1c0,0,0,0,0,0
					c0.6,0.4,0.9,0.8,0.9,0.8c0.4,0.5,0.6,0.9,0.7,1.4c0.3,0.8,0.2,2,0.1,3c-0.1,0.9-0.2,1.6-0.2,1.6l-0.8,0.1c0,0,0.1-0.7,0.3-1.7
					c0.1-1,0.2-2.1,0.1-2.9c0,0,0,0,0,0c0,0-0.4-1.9-1.4-2.2C117.6,54.3,117.2,55.5,117.2,55.5z"/>
				<path class="st6" d="M110.9,59c0,0,2.9,2,7.8,1.3"/>
				<path class="st6" d="M110.7,62c0,0,10.2,1.4,14,1"/>
			</g>
			<path class="st6" d="M110.3,59.5c0,0-0.4,8.4-1.1,7.5"/>
		</g>
		<g>
			<g>
				<g>
					<path class="st19" d="M94.3,59.7c-2-1.8-3.6,0.3-3.4,2.4s0.9,3.8,1.2,4.5c0,0-0.8,0.1-0.6,0.8c0,0-4.3,0.8-5.7,2l0,2.4
						c0,0,9.8,1.3,10.3-4.7C96.6,61.2,94.3,59.7,94.3,59.7z"/>
					<path class="st6" d="M94.5,59.8c-2.4-1.9-3.9-1-3.5,2.2c0.3,2.1,0.9,3.8,1.2,4.5c0,0-0.8,0.1-0.6,0.8c0,0-4.3,0.8-5.7,2l0,2.4
						c0,0,9.8,1.3,10.3-4.7C96.7,61.2,94.5,59.8,94.5,59.8z"/>
				</g>
				<path class="st18" d="M85.9,69.6l0.1,1.7c0,0-1.3,1.2-2.9,0.3c-0.9-0.5-0.3-2.8,0.2-2.4C84,69.6,85.9,69.6,85.9,69.6z"/>
			</g>
			<path class="st18" d="M94.3,53.4c0.1-0.9-0.8-0.9-0.8-0.9s-0.6,0-0.5,0.7l0.1,0.6L92.8,54c-1-0.7-0.7-1.9-0.7-1.9
				c-0.5,0.2-0.9,0.3-1.3,0.4c-1,0.1-1.8-0.1-2.4-0.4c-0.1,0.5,0.2,2.6,0.6,3.4c0.6,1.3,1.2,2.3,2.8,2c0,0,0,0,0,0
				c1-0.2,2-0.9,2.5-1.9c-0.5-0.2-0.7-0.6-0.8-0.9c-0.1-0.3-0.1-0.5-0.1-0.5S94.2,54.3,94.3,53.4z"/>
			<path class="st20" d="M88.7,70.6c-0.5,0.2-7.5,0.5-10.1,1.9c-2.5,1.4-0.9,3.8-5,10.3l2.6,1.3c0,0,3.1-6.9,4.4-7.7
				c0,0,7.7-0.6,8.8-1.5L88.7,70.6z"/>
			<path class="st6" d="M88.7,70.6c-0.5,0.2-7.5,0.5-10.1,1.9c-2.5,1.4-0.9,3.8-5,10.3l2.6,1.3c0,0,3.1-6.9,4.4-7.7
				c0,0,7.7-0.6,8.8-1.5L88.7,70.6z"/>
			<g>
				<path class="st21" d="M92.5,58.1c0,0-2.4,0.4-3,7c-0.3,3.3-1.2,2.9-1.8,6.2c-0.6,3.3,7.4,5.6,10.4-1c3-6.7-0.2-12-2.7-12.3
					C94.5,57.7,93.6,57.8,92.5,58.1z"/>
				<path class="st6" d="M92.4,58c0,0-2.4,0.4-3,7c-0.3,3.3-0.4,2.3-1.9,5.7c-1.3,3,7.4,6.1,10.5-0.6c3-6.7-0.2-12-2.7-12.3
					C94.5,57.6,93.6,57.7,92.4,58z"/>
			</g>
			<path class="st20" d="M97.6,71.2c0,0,0.7,5.2-12.5,4.7c0,0-2.2,8-3.3,9.3L79.3,84c0,0,0.4-2.8,1-8.1c0.3-2.7,0.2-4.6,6.6-4.5
				L97.6,71.2z"/>
			<path class="st6" d="M97.6,71c0,0,0.7,5.2-12.5,4.7c0,0-2.2,8-3.3,9.3l-2.6-1.1c0,0,0.4-2.8,1-8.1c0.3-2.7,0.2-4.6,6.6-4.5
				L97.6,71z"/>
			<path class="st22" d="M95,55.9c-1.5-0.2-1.4-1.6-1.4-1.6s0.6,0.1,0.7-0.8c0.1-0.9-0.8-0.9-0.8-0.9s-0.6,0-0.5,0.7l0.1,0.6
				l-0.3,0.2c-1-0.7-0.7-1.9-0.7-1.9c-2.8,1.2-4.5-0.6-4.5-0.6c-0.6-0.5-0.1-1.3,0.2-1.4c0,0,0.5-0.4,1-0.2c0,0-0.1,0.4,0,0.4
				s6.8-3.5,6.4,1.3S95,55.9,95,55.9z"/>
			<path class="st6" d="M88.2,50.5c0,0,4.9-2.6,6.3-0.9c0.6,0.7,1.1,1.7,0.8,3.2c-0.2,0.8-0.4,1.3-0.2,3c-1.5-0.2-1.4-1.6-1.4-1.6
				s0.6,0.1,0.7-0.8c0.1-0.9-0.8-0.9-0.8-0.9s-0.6,0-0.5,0.7l0.1,0.6L92.8,54c-1-0.7-0.7-1.9-0.7-1.9c-2.8,1.2-4.5-0.6-4.5-0.6
				c-0.6-0.5-0.1-1.3,0.2-1.4"/>
			<g>
				<circle class="st23" cx="89" cy="54.1" r="0.2"/>
				<circle class="st23" cx="91.3" cy="53.7" r="0.2"/>
				<path class="st6" d="M89.9,54c0,0,0.6,0.6-0.1,0.8c-0.6,0.2-0.5,0.1-0.5,0.3c0,0.1,0,0.4,0.6,0.4c0.4,0,0.4-0.1,0.4-0.1"/>
				<path class="st6" d="M90,56.3c0,0,1,0.2,1.4-0.5"/>
			</g>
			<path class="st18" d="M91.9,57.6c0,0.2,0.1,0.8,0.2,1.2c-0.5,0.6,0.4,1,1.1,0.9c2-0.4,1.5-2.2,1.5-2.2l-0.3-1.7
				C93.8,56.7,92.9,57.4,91.9,57.6z"/>
			<path class="st22" d="M79.5,84l2.3,1L81.5,86c0,0-4.5-1-5.7-3.2C75.4,82,79.5,84,79.5,84z"/>
			<path class="st6" d="M79.5,84l2.3,1l-0.4,0.9c0,0-4.5-1-5.7-3.2C75.4,81.9,79.5,84,79.5,84z"/>
			<path class="st22" d="M73.9,82.9c0,0-2.4,1.3-3.6,1.2s-2.1,0.4,0.1,0.7c2.2,0.3,5,1,5,1l0.7-1.9L73.9,82.9z"/>
			<path class="st6" d="M73.9,82.8c0,0-2.4,1.3-3.6,1.2s-2.1,0.4,0.1,0.7s5,1,5,1l0.7-1.9L73.9,82.8z"/>
			<g>
				<g>
					<path class="st19" d="M98,59.8c-2-1.8-3.6,0.4-3.4,2.5s1,3.7,1.3,4.4c0,0-0.8,0.1-0.6,0.8c0,0-4.3,0.9-5.7,2.2l0.1,2.4
						c0,0,9.8,1,10.2-4.9C100.3,61.4,98,59.8,98,59.8z"/>
					<path class="st6" d="M98.2,60c-2.4-1.8-4-0.9-3.4,2.3c0.3,2.1,1,3.7,1.3,4.4c0,0-0.8,0.1-0.6,0.8c0,0-4.3,0.9-5.7,2.2l0.1,2.4
						c0,0,9.8,1,10.2-4.9C100.5,61.3,98.2,60,98.2,60z"/>
				</g>
				<path class="st18" d="M89.9,71.5l-0.1-1.7c0,0-1.4-1-2.9,0c-0.8,0.6,0,2.8,0.5,2.3C88,71.7,89.9,71.5,89.9,71.5z"/>
			</g>
		</g>
		<g>
			<path class="st24" d="M98.7,55.4c0,0-0.6-0.5-0.6-1.4c0,0,0-3.2,4.4-3.6c2.8-0.2,3.8,3.2,4.1,4.4c0.8,2.9,3.9,2.4,5.2,3.6
				c1.3,1.1,1.1,3.1-0.4,3.8c-2.9,1.4-5,1.9-7.1-0.1c-0.8-0.7-2.2,0.7-3.9-0.2c-1.7-0.9-0.8-4.2-0.7-4.7S98.7,55.4,98.7,55.4"/>
			<path class="st21" d="M100.9,61.4c0,0-3.1,3.5-3.5,8.2c0,0-1.7,0.9-2,2c-0.3,1.1,0,1.6,0,1.6l0,0c0.2,0,0.4,0,0.6-0.1
				c0,0,0.1,0,0.1,0c0-0.1,0-0.1-0.1-0.2c-0.2-0.6-0.2-1.4,0.3-1.7c0.4-0.2,0.8-0.3,1.1-0.4c0.9-1,1.7-1.9,1.9-3.7
				C99.6,64.1,100.3,62.4,100.9,61.4L100.9,61.4z"/>
			<path class="st19" d="M106.8,60.2c-0.4-0.3-0.9-0.5-1.3-0.6c-0.2,0-0.4-0.1-0.6-0.1c0,0.6-0.1,1.7-1.6,2
				c-0.7,0.2-1.6-0.2-1.1-0.9c0-0.2-0.1-0.4-0.1-0.6c-0.3,0.2-0.7,0.5-1.1,1.1c-0.6,1-1.3,2.7-1.5,5.7c-0.2,1.8-1,2.7-1.9,3.7
				c0.5,0,1,0.1,1.3,0.3c0.3,0.1,0.5,0.3,0.5,0.3l-0.1,1.8c0,0-0.2,0-0.5,0c-0.2,0-0.3,0-0.5,0c-0.2,0-0.5,0.1-0.7,0.1
				c-0.3,0.1-0.5,0.1-0.7,0.2l1.9,0l0.4,0l0.1-2.2c1.5-1.2,5.9-1.8,5.9-1.8c-0.2-0.8,0.6-0.8,0.6-0.8c-0.2-0.7-0.9-2.5-1-4.6
				C104.8,61.8,106,61,106.8,60.2z"/>
			<path class="st21" d="M108,61.8c-0.6-0.8-1.1-1.3-1.2-1.4c0,0,0,0,0,0c-0.8,0.7-2,1.6-1.9,3.7c0.1,2.1,0.8,3.9,1,4.6
				c0,0-0.8,0-0.6,0.8c0,0-4.4,0.6-5.9,1.8l-0.1,2.2l0,0.3c0,0,4.3,0.8,7.5-0.5c0.5-0.2,0.9-0.4,1.3-0.7c0.9-0.7,1.6-1.7,1.8-3.1
				C110.3,65.9,109.1,63.3,108,61.8z"/>
			<path class="st25" d="M104.7,59.4C104.7,59.4,104.7,59.4,104.7,59.4l-0.4-2.3c0,0,0,0,0,0c-0.2,0.5-0.7,1.6-2.1,2.3
				c-0.1,0-0.2,0-0.3,0c0.1,0.4,0.2,0.9,0.2,1.2c0,0.1,0,0.1,0,0.1c-0.5,0.6,0.4,0.9,1.1,0.8C105.1,61.1,104.7,59.4,104.7,59.4z"/>
			<path class="st25" d="M98.8,54.4c0-0.1,0-0.2,0-0.4c0,0,0,0,0,0c0-0.1,0-0.1,0-0.2c0,0,0,0,0,0c0-0.1,0-0.1,0-0.2c0,0,0,0,0,0
				c0-0.1,0-0.1,0.1-0.2c0,0,0,0,0,0c0-0.1,0-0.1,0.1-0.2c0,0,0,0,0,0c0.1-0.1,0.2-0.2,0.3-0.3c0,0,0.3,0.8,0.9,1.2
				c0.5,0.3,1.2,0.4,2.2-0.2c0.1,0.8,0.4,1,0.6,1.1c0.2,0.1,0.4,0,0.4,0c-0.1-0.7,0.5-0.7,0.5-0.7s0,0,0,0c0,0,0.1,0,0.1,0
				c0,0,0.1,0,0.2,0c0,0,0,0,0,0c0.1,0,0.1,0,0.2,0.1c0,0,0,0,0,0c0,0,0.1,0.1,0.1,0.1c0,0,0,0,0,0c0,0,0.1,0.1,0.1,0.2
				c0,0.1,0.1,0.2,0,0.4c0,0,0,0,0,0c0,0.1,0,0.1,0,0.2c0,0,0,0,0,0.1c0,0.1,0,0.1,0,0.1c0,0,0,0,0,0c0,0,0,0.1-0.1,0.1c0,0,0,0,0,0
				c0,0,0,0.1-0.1,0.1c0,0,0,0,0,0c0,0,0,0,0,0c0,0,0,0,0,0c0,0,0,0,0,0c0,0,0,0,0,0c0,0,0,0,0,0c0,0,0,0,0,0c0,0,0,0,0,0
				c0,0,0,0-0.1,0c0,0,0,0,0,0c0,0,0,0,0,0c0,0,0,0,0,0c0,0,0,0,0,0c0,0,0,0,0,0c0,0,0,0,0,0s0,0.6,0.4,1.1c0,0,0,0,0,0
				c-0.2,0.5-0.7,1.6-2.1,2.3c-0.1,0-0.2,0-0.3,0c-0.9,0-2-0.9-2.5-2C99.1,56.6,98.8,55.2,98.8,54.4z"/>
			<path class="st6" d="M104.8,57.4c-0.9-0.4-0.8-1.4-0.8-1.4s0.6,0.1,0.7-0.8c0.1-0.9-0.8-0.9-0.8-0.9s-0.6,0-0.5,0.7
				c0,0-0.6,0.4-0.9-1.2c-2.2,1.5-3.1-0.9-3.1-0.9c-0.8,0.8-0.5,2.2-0.5,2.2s-0.6-0.5-0.6-1.4c0,0,0-3.2,4.4-3.6
				c2.8-0.2,3.8,3.2,4.1,4.4c0.8,2.9,3.9,2.4,5.2,3.6c1.3,1.1,1.1,3.1-0.4,3.8c0,0-0.4,0.1-1,0.2"/>
			<path class="st6" d="M99.4,52.6c0,0,0.5-1.4,1.6-1.8"/>
			<path class="st22" d="M89.1,86.2C89.1,86.2,89.1,86.2,89.1,86.2c-0.5-0.2-1.7-0.8-2.5-1.1c-0.7-0.2-1.1-0.3-1-0.1
				c0.2,0.3,0.4,0.6,0.6,0.8c1.7,1.6,5.1,2.4,5.1,2.4l0.4-0.9L89.1,86.2z"/>
			<path class="st22" d="M83.6,85.1c0,0-2.4,1.3-3.7,1.2c-1.3-0.1-2.1,0.4,0.1,0.8c2.3,0.3,5.1,1,5.1,1l0.7-1.9l-1.3-0.6L83.6,85.1z
				"/>
			<path class="st20" d="M106.7,73.2c-3.2,1.2-7.5,0.5-7.5,0.5l0-0.3l-0.4,0l-1.9,0c0,0-0.1,0-0.1,0.1c-0.1,0.1-0.2,0.1-0.3-0.1
				c-0.1-0.1-0.1-0.2-0.2-0.3c0,0,0-0.1-0.1-0.1c0,0-0.1,0-0.1,0c-0.2,0-0.4,0-0.6,0.1c-2.4,0.3-5.5,0.7-7,1.5
				c-2.6,1.4-0.9,3.9-5.1,10.4l1.1,0.5l1.3,0.6v0l0.3,0.1c0,0,0.1-0.2,0.2-0.4c-0.3-0.3-0.5-0.5-0.6-0.8c-0.1-0.3,0.3-0.2,1,0.1
				c0.8-1.8,2.4-5,3.5-6.2c-0.5,4.6-0.9,7.1-0.9,7.3c0.1,0.1,0.2,0.1,0.2,0.1l2.4,1c1-1.2,3.1-8.6,3.3-9.3c0,0,0-0.1,0-0.1
				c0.1,0,0.3,0,0.4,0c12.7,0.4,12.3-4.6,12.3-4.8c0,0,0,0,0,0L106.7,73.2z"/>
			<path class="st6" d="M96.2,72.9c0,0,0-0.1-0.1-0.1c0,0-0.1,0-0.1,0c-0.2,0-0.4,0-0.6,0.1c-2.4,0.3-5.5,0.7-7,1.5
				c-2.6,1.4-0.9,3.9-5.1,10.4l1.1,0.5l1.3,0.6l0,0l0.3,0.1c0,0,0.1-0.2,0.2-0.4c-0.3-0.3-0.5-0.5-0.6-0.8c-0.1-0.3,0.3-0.2,1,0.1
				c0.8-1.8,2.4-5,3.5-6.2c0-0.3,0.1-0.5,0.1-0.8c0.3-2.6,0.2-4.4,5.7-4.6c0.2,0,0.4,0,0.6,0C96.3,73.2,96.3,73.1,96.2,72.9z"/>
			<path class="st6" d="M106.7,73c-3.2,1.2-7.5,0.5-7.5,0.5l0-0.3l-0.4,0l-1.9,0c0,0-0.1,0-0.1,0.1c-0.1,0.1-0.2,0.1-0.3-0.1
				c-0.2,0-0.4,0-0.6,0c-5.5,0.2-5.4,2-5.7,4.6c0,0.3-0.1,0.6-0.1,0.8c-0.5,4.6-0.9,7.1-0.9,7.3c0.1,0.1,0.2,0.1,0.2,0.1l2.4,1
				c1-1.2,3.1-8.6,3.3-9.3c0,0,0-0.1,0-0.1c0.1,0,0.3,0,0.4,0c12.7,0.4,12.3-4.6,12.3-4.8c0,0,0,0,0,0L106.7,73z"/>
			<path class="st18" d="M106.8,60.2c0.1,0.1,0.7,0.6,1.2,1.4C107.7,61,107.2,60.5,106.8,60.2z"/>
			<path class="st6" d="M100.9,61.1c0,0-3.1,3.5-3.5,8.2c0,0-1.7,0.9-2,2c-0.3,1.1,0,1.6,0,1.6l0,0c0.2,0,0.4,0,0.6-0.1
				c0,0,0.1,0,0.1,0c0-0.1,0-0.1-0.1-0.2c-0.2-0.6-0.2-1.4,0.3-1.7c0.4-0.2,0.8-0.3,1.1-0.4c0.9-1,1.7-1.9,1.9-3.7
				C99.7,63.8,100.3,62.1,100.9,61.1L100.9,61.1z"/>
			<path class="st6" d="M106.8,60.1c-0.4-0.3-0.9-0.5-1.3-0.6c-0.2,0-0.4-0.1-0.6-0.1c0,0.6-0.1,1.7-1.6,2c-0.7,0.2-1.6-0.2-1.1-0.9
				c0-0.2-0.1-0.4-0.1-0.6c-0.3,0.2-0.7,0.5-1.1,1.1c-0.6,1-1.3,2.7-1.5,5.7c-0.2,1.8-1,2.7-1.9,3.7c0.5,0,1,0.1,1.3,0.3
				c0.3,0.1,0.5,0.3,0.5,0.3l-0.1,1.8c0,0-0.2,0-0.5,0c-0.2,0-0.3,0-0.5,0c-0.2,0-0.5,0.1-0.7,0.1c-0.3,0.1-0.5,0.1-0.7,0.2l1.9,0
				l0.4,0l0.1-2.2c1.5-1.2,5.9-1.8,5.9-1.8c-0.2-0.8,0.6-0.8,0.6-0.8c-0.2-0.7-0.9-2.5-1-4.6C104.8,61.7,105.9,60.9,106.8,60.1z"/>
			<path class="st6" d="M106.8,60.1C106.8,60.1,106.8,60.1,106.8,60.1C106.8,60.1,106.8,60.1,106.8,60.1
				C106.8,60.1,106.8,60.1,106.8,60.1z"/>
			<path class="st6" d="M108,61.6c-0.6-0.8-1.1-1.3-1.2-1.4c0,0,0,0,0,0c-0.8,0.7-2,1.6-1.9,3.7c0.1,2.1,0.8,3.9,1,4.6
				c0,0-0.8,0-0.6,0.8c0,0-4.4,0.6-5.9,1.8l-0.1,2.2l0,0.3c0,0,4.3,0.8,7.5-0.5c0.5-0.2,0.9-0.4,1.3-0.7c0.9-0.7,1.6-1.7,1.8-3.1
				C110.3,65.6,109.1,63,108,61.6z"/>
			<path class="st6" d="M89.1,86C89.1,86,89.1,86,89.1,86c-0.5-0.2-1.7-0.8-2.5-1.1c-0.7-0.2-1.1-0.3-1-0.1c0.2,0.3,0.4,0.6,0.6,0.8
				c1.7,1.6,5.1,2.4,5.1,2.4l0.4-0.9L89.1,86z"/>
			<path class="st18" d="M89.1,86C89.1,86,89.1,86,89.1,86l2.6,1.1l-2.4-1C89.3,86.1,89.2,86.1,89.1,86z"/>
			<path class="st6" d="M83.6,84.9c0,0-2.4,1.3-3.7,1.2c-1.3-0.1-2.1,0.4,0.1,0.8c2.3,0.3,5.1,1,5.1,1l0.7-1.9l-1.3-0.6L83.6,84.9z"
				/>
			<polygon class="st18" points="84.5,85.4 85.7,86 85.7,86 			"/>
			<path class="st25" d="M98.8,70.8c-0.3-0.2-0.8-0.3-1.3-0.3c-0.4,0-0.7,0.1-1.1,0.4c-0.5,0.3-0.5,1.1-0.3,1.7c0,0.1,0,0.1,0.1,0.2
				c0,0,0,0.1,0.1,0.1c0.1,0.1,0.1,0.2,0.2,0.3c0.1,0.1,0.2,0.1,0.3,0.1c0,0,0.1,0,0.1-0.1c0.2-0.1,0.4-0.2,0.7-0.2
				c0.2,0,0.5-0.1,0.7-0.1c0.2,0,0.4,0,0.5,0c0.3,0,0.5,0,0.5,0l0.1-1.8C99.3,71.1,99.1,70.9,98.8,70.8z"/>
			<g>
				<circle class="st23" cx="99.6" cy="55.5" r="0.2"/>
				<circle class="st23" cx="101.9" cy="55.1" r="0.2"/>
				<path class="st6" d="M100.4,55.5c0,0,0.6,0.7-0.1,0.8c0,0,0,0.6,0.8,0.3"/>
				<path class="st6" d="M102,57.2c-0.5,0.7-1.4,0.5-1.4,0.5"/>
			</g>
		</g>
		<path class="st11" d="M115.1,111.7c0,0,0,0,0,0.1C115.2,111.7,115.2,111.7,115.1,111.7z"/>
		<path class="st11" d="M112.1,28.9c-2.8,0.6-22.4,13.4-45.9,25.2c-5.1,2.6-24.1,9.1-22.4,13c0.2,0.5,0.7,0.9,1.6,1.3
			c13.8,6.3,38.8-7,45.2-10.1c6.2-3.1,42.2-27.5,43.4-29.5c0-0.1,0-0.1,0-0.1C132.8,28.3,114.9,28.4,112.1,28.9z"/>
		<path class="st11" d="M57.2,96.2c9.7-0.5,22.8,0,74.7-38.9c0.9-12,2-26.8,2.1-28.3c-1.3,2-37.2,26.4-43.4,29.5
			c-6.4,3.2-31.5,16.4-45.2,10.1c-0.9-0.4-1.4-0.8-1.6-1.3l-0.1,0.1c0,0-0.7,12.6-1.1,24.4C45.6,93.8,50.8,96.5,57.2,96.2z"/>
		<path class="st15" d="M132.3,57.2c-51.8,38.9-65,38.4-74.7,38.9c-6.5,0.4-11.7-2.3-14.8-4.5c-0.4,8.6-0.6,16.8-0.5,19.6
			c0.3,6.5,5.5,15.7,21.9,11.7c20.4-4.9,54.5-30.2,64.1-40.6c3.1-3.1,2.6-5.5,2.8-10C131.4,70.7,131.8,64.5,132.3,57.2z"/>
		<path class="st11" d="M131.9,57.2c-51.8,38.9-65,38.4-74.7,38.9c-6.5,0.4-11.7-2.3-14.8-4.5c-0.4,8.6-0.6,16.8-0.5,19.6
			c0.3,6.5,5.5,15.7,21.9,11.7c20.4-4.9,54.5-30.2,64.1-40.6c3.1-3.1,2.6-5.5,2.8-10C130.9,70.7,131.4,64.5,131.9,57.2z"/>
		<path class="st21" d="M89.5,60.5c-3.7,2.5-18.9,8.2-18.9,8.2l-1.6,50.6c4.5-1.1,19.5-10.4,19.5-10.4C89,106.8,89.5,60.5,89.5,60.5
			z M87.7,108c0,0-13.6,8.8-17.7,9.9l1.5-48c0,0,13.7-5.4,17.1-7.9C88.6,62,88,105.9,87.7,108z"/>
		<path class="st11" d="M89.7,60c-3.7,2.5-18.9,8.2-18.9,8.2l-1.6,50.6c4.5-1.1,19.5-10.4,19.5-10.4C89.1,106.3,89.7,60,89.7,60z
			 M87.9,107.5c0,0-13.6,8.8-17.7,9.9l1.5-48c0,0,13.7-5.4,17.1-7.9C88.8,61.5,88.2,105.5,87.9,107.5z"/>
		<path class="st11" d="M80.3,66.7c0,0-0.4,43.8-1.2,45"/>
		<path class="st26" d="M50.8,61.5c0,0,13.9-6.3,16.1-7.7c2.1-1.3,21.1-1,23.5-1.8s3.2,2.8-6.8,3.1S50.8,61.5,50.8,61.5z"/>
		<path class="st26" d="M110.6,72.4c0,0,11.6-8,13.6-9.5s0.1-18,1.8-20c1.6-2-1.5-4-5.3,5.2S110.6,72.4,110.6,72.4z"/>
		<path class="st26" d="M50.9,70.3c0,0,5.5,0.9,10.5-0.6c1.6-0.6,0.3,6.1-0.9,15.5S61,96,60.2,96c-0.7,0-4.9,0.2-5.7,0.1
			c-0.8-0.1,1.9-19.7,1-21.8S49.6,72.6,50.9,70.3z"/>
		<path class="st26" d="M102.5,47.4c0,0-12.7,3.5-16.9,3.5c-4.2-0.1-3.8-0.7,2.3-1.5s20.1-4.8,20.4-4.2
			C108.7,45.7,102.5,47.4,102.5,47.4z"/>
		<path class="st27" d="M42.9,92.3c0,0-0.9,20.6,0.7,23.8c1.6,3.2,6.1,7.2,11.7,7.1c5.6-0.1,5.5-0.1,7.5-0.5c2.3-0.5,1.7-1,1.8-5.7
			c0-3.5-0.5-14.7-0.2-17.5c0.2-2.2,1.3-3,0.1-3.4c-1.2-0.4-7.8,2.3-13.7,0.1S43.4,93.4,42.9,92.3z"/>
		<g>
			<path class="st28" d="M46.3,107.7c0.2,5-0.6,9.3,1,9.7c1.6,0.4,0.4-8.4,0.6-11.3c0.2-2.9-0.1-7.1-0.8-7.2
				C46.5,98.7,45.9,100.5,46.3,107.7z"/>
			<path class="st11" d="M46.2,107.5c0.2,5-0.6,9.3,1,9.7c1.6,0.4,0.4-8.4,0.6-11.3c0.2-2.9-0.1-7.1-0.8-7.2
				C46.4,98.6,45.8,100.4,46.2,107.5z"/>
		</g>
	</g>
	<g>
		<g class="st2">
			<path class="st3" d="M42.6,149.6c7.6,0,15.3,0,22.9,0c1.6,0,3.3,0,4.8-0.3c1.6-0.3,3.1-0.9,3.9-1.9c-9.9-3.3-22.2-2.6-31.3,1.8"
				/>
		</g>
		<path class="st8" d="M65.1,140.6c0,0,6.7,2.6,6.7-3.1S69,136,69,136s1.3,2.8,1.2,0.4c-0.1-2.4-0.9-9.8-4.4-7.2
			c-3.4,2.6,9.3-2.6,4.8-5.7c-4.5-3.1-4.8-6.2-8.6-2.6s-0.9,4.1,1.2,0.5c2.1-3.5-0.5-9.4-5.4-2.5s-0.8,9.6,1.5,9.6s0.5-1.4-2.3-1.5
			c-2.8-0.2-6.8,5-5.6,6.6c0,0-7.1-0.9-4.2,4.2c0,0-3.4,1.4-1.1,5.3c2.3,3.9,6,2.9,6.7,1.7c0.7-1.2-11,1.5-6.9,3.5h23.9
			c0,0,4.8-1.5,3.5-2.8c-1.3-1.3-6.6-2.9-7.9-2.6C65.5,142.8,68.8,138.7,65.1,140.6z"/>
		<path class="st9" d="M68.2,130.5c0.9,1-0.4,4.2-1.6,3.3s-2.5-3.3-1.2-3.3S67.8,130,68.2,130.5z"/>
		<path class="st9" d="M58.6,139.2c1.5,1.8-0.7,7.1-2.7,5.5c-2.1-1.6-4.1-5.5-2.1-5.5S57.9,138.4,58.6,139.2z"/>
		<path class="st9" d="M56.4,128.8c-0.7-1.2,1.3-0.8,2.4,0.7c1,1.5,1.8,3.4,0.5,2.2C58,130.4,56.7,129.3,56.4,128.8z"/>
		<path class="st9" d="M66.6,138.8c-0.3-0.6,0.8-1.4,1.3-0.7c0.5,0.6,0.8,1.8,0.2,1.5C67.4,139.2,66.7,139.1,66.6,138.8z"/>
		<path class="st9" d="M59.4,124.2c-0.3-0.6,0.8-1.4,1.3-0.7s0.8,1.8,0.2,1.5C60.2,124.6,59.5,124.5,59.4,124.2z"/>
		<path class="st9" d="M65.5,121.9c-0.7-0.8,0.9-1.3,2-0.4c1,0.9,1.8,2.3,0.7,1.7C67,122.7,65.8,122.3,65.5,121.9z"/>
		<path class="st6" d="M65.8,140.6c0,0,6.7,2.6,6.7-3.1s-2.8-1.6-2.8-1.6s1.3,2.8,1.2,0.4s-0.9-9.8-4.4-7.2
			c-3.4,2.6,9.3-2.6,4.8-5.7c-4.5-3.1-4.8-6.2-8.6-2.6c-3.8,3.6-0.9,4.1,1.2,0.5s-0.5-9.4-5.4-2.5s-0.8,9.6,1.5,9.6s0.5-1.4-2.3-1.5
			c-2.8-0.2-6.8,5-5.6,6.6c0,0-7.1-0.9-4.2,4.2c0,0-3.4,1.4-1.1,5.3c2.3,3.9,6,2.9,6.7,1.7c0.7-1.2-11,1.5-6.9,3.5h23.9
			c0,0,4.8-1.5,3.5-2.8s-6.6-2.9-7.9-2.6C66.2,142.8,69.5,138.7,65.8,140.6z"/>
	</g>
	<g>
		<g class="st2">
			<path class="st3" d="M75.7,153.1c-3.8,0-7.6,0-11.4,0c-0.8,0-1.6,0-2.4,0.2c-0.8,0.2-1.5,0.6-2,1.3c4.9,2.2,11,1.7,15.6-1.2"/>
		</g>
		<path class="st4" d="M63.7,154.5c0,0-6.7-8.5-3.2-10.5c0,0-6.2-6.5-1.2-7.5s4.2,3.2,4.2,3.2s-4.7-2.8-2.5-6.8s5.2,0,5.2,0
			s0.9-3.1,2.1-1.9s0,2.8,0,2.8s-0.7-3.3,1.4-2.1c2.1,1.2,7,0.5,3.1,8c-3.9,7.5-2.4,1.5-0.7-1.4c1.7-2.9,6-7.4,6.4-0.6
			c0.4,6.7-4.6,11.4-7.8,10.4s0.2-1.9,1.5-1.1c1.3,0.8,6.2,1.3,3.1,4.5c0,0-2.3,3.1-5.3,3C67,154.5,63.7,154.5,63.7,154.5z"/>
		<path class="st5" d="M60,144.9c0,0,0-1.8,1.2-1.8c1.2,0,5.6,2.5,3.5,2.8S61.2,146.2,60,144.9z"/>
		<path class="st5" d="M62.1,132.7c0,0,0.2-0.9,1.3-0.3c1.1,0.6,5,4,3,3.1C64.3,134.6,63.1,133.9,62.1,132.7z"/>
		<path class="st5" d="M73.8,140.2c0,0-1-1-0.4-2.4c0.6-1.4,4.2-5.1,3.3-2.5C75.9,138,75.2,139.6,73.8,140.2z"/>
		<path class="st6" d="M63.3,154.1c0,0-6.7-8.5-3.2-10.5c0,0-6.2-6.5-1.2-7.5s4.2,3.2,4.2,3.2s-4.7-2.8-2.5-6.8c2.1-4,5.2,0,5.2,0
			s0.9-3.1,2.1-1.9c1.1,1.2,0,2.8,0,2.8s-0.7-3.3,1.4-2.1c2.1,1.2,7,0.5,3.1,8s-2.4,1.5-0.7-1.4c1.7-2.9,6-7.4,6.4-0.6
			c0.4,6.7-4.6,11.4-7.8,10.4c-3.2-1,0.2-1.9,1.5-1.1s6.2,1.3,3.1,4.5c0,0-2.3,3.1-5.3,3C66.6,154.1,63.3,154.1,63.3,154.1z"/>
	</g>
	<g>
		<path class="st12" d="M140.2,139.1c0.3-1.5-7.5-1.4-11.8-1.2c-4.3,0.2-8.1-1.4-9.4-0.1c-1.3,1.3-2.5,3.2,1.8,2.9
			c4.2-0.3,11,0.3,14.7,0C139.2,140.5,139.9,140.3,140.2,139.1z"/>
		<g>
			<path class="st25" d="M131.9,134.2c0,0-0.2,5-0.1,5.1c0.1,0.2,0.5,0.2,0.5,0.2s0.2,0.1,0.3-0.2c0.3-0.6,0.8-6.8,0.8-6.8
				L131.9,134.2z"/>
			<path class="st6" d="M132.2,139.5c0,0,0.1-0.7,0.1-1"/>
		</g>
		<g>
			<path class="st25" d="M121.4,134c0,0,0,5-0.1,5.1c-0.1,0.2-0.5,0.2-0.5,0.2s-0.2,0.1-0.3-0.2c-0.3-0.6-0.6-6.8-0.6-6.8L121.4,134
				z"/>
			<path class="st6" d="M120.8,139.4c0,0-0.1-0.7-0.1-1"/>
		</g>
		<path class="st29" d="M122,123c-0.4-1.2,1.7-3.5,3.1-1.7c1.4,1.7-1.3,0.9-0.6,0.2s3.9-1.9,3.9-0.2s-1.8-0.1-0.5-0.4
			c1.3-0.3,7.5,0.8,4.8,2.3c-1,0.5-1.8-0.3-0.3-0.7c1.5-0.4,1.8-4,3.5,0c0.2,0.6-1.1,1-0.7,0.3s2.5-3.5,3.4-0.5c0,0,1.8-1.4,1.9,0.7
			c0,0,2.4-0.1,1.3,2.3c0,0,2.7,2.4-0.3,3.7c-0.8,0.4-0.5-0.4-0.1-0.6c0.4-0.1,4.7,2.8,1.2,3.9c0,0-0.4,0.6-2.6,0.4
			c-0.3-0.1-0.2-0.5,0.2-0.4c0.5,0.1,2.4,3.7-0.4,3.6c-2.8-0.1-2.6-1.2-2.6-1.2s2.2,2-1.5,2.8c-3.7,0.8-1.9-2.1-1.9-2.1
			s1.4,0.2,0.1,0.7c-1.4,0.4-5.7,0.9-4.9-2.4c0-0.6,1.3-1.1,1.4-0.2c0.2,0.9-2.1,4.4-5,3.7c-2.9-0.6-3-2.3-2.7-2.5s0.8,0.1,0.4,0.9
			c-0.4,0.8-1.9,2.9-2.9-2c0,0-1.8,0.9-1.8-0.9c0-1.8,0.6-0.1,0.3,0c-0.3,0-3.1,0.5-2-1.7c0,0-1.1-2.3,0.9-3.2c0,0-2.4-4.4,0.5-4.3
			c0.8-0.1,0.8,0.6,0.2,0.7c-0.6,0.1-0.6-2.2,1.2-2.3C120.4,121.8,122,123,122,123z"/>
		<g>
			<path class="st29" d="M125,121.3c0-0.1-0.1-0.1-0.1-0.2c-0.2,0.1-0.4,0.2-0.5,0.4C123.7,122.2,126.4,123.1,125,121.3z"/>
			<path class="st29" d="M128.3,121.3c0-0.2,0-0.3-0.1-0.4c-0.2,0-0.3,0-0.4,0C126.5,121.1,128.4,122.9,128.3,121.3z"/>
			<path class="st29" d="M132.4,122.5c-1.5,0.4-0.7,1.2,0.3,0.7c0.7-0.4,0.8-0.8,0.4-1.2C132.9,122.2,132.6,122.4,132.4,122.5z"/>
			<path class="st29" d="M118.3,124.1c0.6-0.1,0.6-0.8-0.2-0.7c-0.1,0-0.1,0-0.1,0C117.9,123.8,118,124.1,118.3,124.1z"/>
			<path class="st29" d="M141.3,128.4c-0.4,0.1-0.7,1,0.1,0.6c0.2-0.1,0.4-0.2,0.6-0.3C141.7,128.4,141.4,128.3,141.3,128.4z"/>
			<path class="st29" d="M129,129.7c-0.1-0.1-0.2-0.1-0.2-0.1S128.9,129.6,129,129.7z"/>
			<path class="st29" d="M135.8,122.5c-0.1-0.2-0.2-0.4-0.2-0.5c-0.2,0.3-0.4,0.6-0.5,0.8C134.7,123.5,136.1,123.1,135.8,122.5z"/>
			<path class="st29" d="M122.6,134.6c-0.1,0.1-0.2,0.6,0.2,1.2c0.1-0.1,0.1-0.2,0.2-0.3C123.4,134.8,122.8,134.4,122.6,134.6z"/>
			<path class="st29" d="M140.1,132.3c-0.5-0.1-0.6,0.3-0.2,0.4c0.2,0,0.4,0,0.6,0C140.4,132.4,140.3,132.3,140.1,132.3z"/>
			<path class="st21" d="M142,128.6c-0.2,0.1-0.3,0.2-0.6,0.3c-0.8,0.4-0.5-0.4-0.1-0.6C141.4,128.3,141.7,128.4,142,128.6
				c0.1-0.1,0.2-0.2,0.3-0.3c-1.7-0.2-2-0.2-2-0.2s-0.3,0.9-2.5,2.1c-2.2,1.2-3-1.5-3-1.5s-0.8,1.2-2.2,1.8
				c-1.2,0.5-3.1-0.6-3.6-0.9c0.2,0.2,0.5,0.6-0.6,1.3c-1.6,0.9-5.3,1.7-5.3,1.7c-0.6,1.5-5.4-1.8-5.4-1.8c-1,0.3-0.8-0.8-1.4-1.3
				c0,0.8,0.3,1.4,0.3,1.4c-0.9,1.9,0.9,1.8,1.7,1.8c0,0,0,0,0,0c0-1.8,0.6-0.1,0.3,0c0,0-0.2,0-0.3,0c0,1.8,1.8,0.9,1.8,0.9
				c0.8,4.3,2.1,3.1,2.7,2.2c-0.4-0.5-0.4-1.1-0.2-1.2c0.2-0.2,0.8,0.1,0.4,0.9c0,0.1-0.1,0.2-0.2,0.3c0.4,0.5,1.1,1,2.5,1.3
				c1.6,0.3,3-0.5,3.9-1.6c-0.4-0.4-0.6,0-0.3-0.9c0-0.6,1-0.9,1.2,0c0.1,0.4-0.1,0.1-0.9,0.9c0.9,0.9,3,0.8,4.1,0.5
				c0.1-0.4,0.3-0.8,0.3-0.8s1.4,0.2,0.1,0.7c-0.1,0-0.2,0.1-0.4,0.1c-0.2,0.8-0.1,1.8,2.3,1.3c2.2-0.4,2.3-1.3,2-2
				c-0.6-0.4-0.6-0.8-0.6-0.8s0.4,0.3,0.6,0.8c0.4,0.2,1,0.4,2,0.4c2,0.1,1-2.6,0.8-3.2c-0.2,0-0.4,0-0.6,0
				c-0.3-0.1-0.2-0.5,0.2-0.4c0.1,0,0.3,0.2,0.4,0.4c1.5-0.2,2-0.4,2-0.4C145.1,131.5,142.9,129.1,142,128.6z"/>
			<path class="st29" d="M137.1,134.6c0,0-0.1,0.4,0.6,0.8C137.5,135,137.1,134.6,137.1,134.6z"/>
			<path class="st29" d="M133.7,135.3c0,0-0.2,0.4-0.3,0.8c0.1,0,0.3-0.1,0.4-0.1C135.1,135.5,133.7,135.3,133.7,135.3z"/>
			<path class="st29" d="M118.3,132.6C118.3,132.6,118.3,132.6,118.3,132.6c0.1,0,0.3,0,0.3,0C118.9,132.6,118.3,130.8,118.3,132.6z
				"/>
			<path class="st29" d="M130.1,134.7c-0.2-0.9-0.9-0.8-1-0.2c-0.2,0.9-0.3,0.6,0.1,1.1C130,134.7,130.2,135.1,130.1,134.7z"/>
		</g>
		<path class="st6" d="M121.6,122.5c-0.4-1.2,1.7-3.5,3.1-1.7c1.4,1.7-1.3,0.9-0.6,0.2s3.9-1.9,3.9-0.2c0,1.7-1.8-0.1-0.5-0.4
			c1.3-0.3,7.5,0.8,4.8,2.3c-1,0.5-1.8-0.3-0.3-0.7c1.5-0.4,1.8-4,3.5,0c0.2,0.6-1.1,1-0.7,0.3s2.5-3.5,3.4-0.5c0,0,1.8-1.4,1.9,0.7
			c0,0,2.4-0.1,1.3,2.3c0,0,2.7,2.4-0.3,3.7c-0.8,0.4-0.5-0.4-0.1-0.6s4.7,2.8,1.2,3.9c0,0-0.4,0.6-2.6,0.4
			c-0.3-0.1-0.2-0.5,0.2-0.4s2.4,3.7-0.4,3.6c-2.8-0.1-2.6-1.2-2.6-1.2s2.2,2-1.5,2.8c-3.7,0.8-1.9-2.1-1.9-2.1s1.4,0.2,0.1,0.7
			s-5.1,2.3-4.3-1c0-0.6,0.4-1.2,0.6-0.3c0.2,0.9-1.9,3-4.8,2.4c-2.9-0.6-3-2.3-2.7-2.5s0.8,0.1,0.4,0.9c-0.4,0.8-1.9,2.9-2.9-2
			c0,0-1.8,0.9-1.8-0.9c0-1.8,0.6-0.1,0.3,0s-3.1,0.5-2-1.7c0,0-1.1-2.3,0.9-3.2c0,0-2.4-4.4,0.5-4.3c0.8-0.1,0.8,0.6,0.2,0.7
			c-0.6,0.1-0.6-2.2,1.2-2.3C120,121.3,121.6,122.5,121.6,122.5z"/>
		<path class="st25" d="M119.7,125.6c0.1-0.5,1.1,0.1,1.2-0.2c0,0,0.3,0.7,0.8,0.5c0.5-0.1,0.6-0.7,0.6-0.7s-0.4,0.5,0.7,0.8
			c1.1,0.3,1.4-0.1,1.4-0.1s0.7,4.6-2.4,5.1C119.9,131.4,118.5,129.3,119.7,125.6z"/>
		<path class="st25" d="M124.9,123.8c0,0,1.5-0.5,2.3,1c0.1,0.3,0.1,0.3-0.4,0.1s-1.4-0.4-1.6-0.3c0,0,0.1-0.3-0.1-0.3
			c0,0,0-0.2-0.2-0.3C124.9,124.1,125.1,123.8,124.9,123.8z"/>
		<path class="st25" d="M119.8,123.3c0,0-1.5-0.5-2.3,1c-0.1,0.3-0.1,0.3,0.4,0.1s1.4-0.4,1.6-0.3c0,0-0.1-0.3,0.1-0.3
			c0,0,0-0.2,0.2-0.3C119.9,123.6,119.6,123.3,119.8,123.3z"/>
		<path class="st6" d="M122.3,123.7"/>
		<circle class="st23" cx="120.5" cy="127.6" r="0.3"/>
		<circle class="st23" cx="123.3" cy="127.9" r="0.3"/>
		<path class="st25" d="M120.6,129.9c-0.2-0.3,0.6-0.3,0.8-0.3s0.7,0.1,0.6,0.3c-0.1,0.2-0.5,0.3-0.7,0.3
			C121.1,130.3,120.8,130.1,120.6,129.9z"/>
		<g>
			<path class="st25" d="M126.4,134.1c0,0-0.5,5.5-0.6,5.6c-0.1,0.2-0.5,0.1-0.5,0.1s-0.2,0-0.3-0.2c-0.3-0.6-0.3-5.8-0.3-5.8
				s0.6,0.5,0.9,0.3C125.5,134.1,125.9,134.6,126.4,134.1z"/>
			<path class="st6" d="M125.3,139.9c0,0,0-0.7,0-1"/>
		</g>
		<g>
			<path class="st25" d="M135.3,134.1c0,0,0.3,5.5,0.4,5.6c0.1,0.2,0.5,0.2,0.5,0.2s0.2,0,0.3-0.2c0.3-0.6,0.4-5.8,0.4-5.8
				s-0.6,0.5-0.9,0.2C136.1,134.2,135.7,134.7,135.3,134.1z"/>
			<path class="st6" d="M136.1,139.9c0,0,0-0.7,0-1"/>
		</g>
		<path class="st25" d="M121.2,130.3c0,0,0,0.6,0.2,0.9"/>
	</g>
	<g>
		<path class="st12" d="M151.3,141.7c0.2-0.9-4.6-0.8-7.3-0.7c-2.7,0.1-5-0.9-5.8-0.1c-0.8,0.8-1.5,2,1.1,1.8c2.6-0.2,6.8,0.2,9.1,0
			S151.1,142.4,151.3,141.7z"/>
		<g>
			<path class="st25" d="M146.1,138.7c0,0-0.1,3.1,0,3.2s0.3,0.1,0.3,0.1s0.1,0,0.2-0.1c0.2-0.4,0.5-4.2,0.5-4.2L146.1,138.7z"/>
			<path class="st6" d="M146.4,142c0,0,0.1-0.4,0.1-0.6"/>
		</g>
		<g>
			<path class="st25" d="M139.7,138.6c0,0,0,3.1-0.1,3.2c-0.1,0.1-0.3,0.1-0.3,0.1s-0.1,0-0.2-0.1c-0.2-0.4-0.4-4.2-0.4-4.2
				L139.7,138.6z"/>
			<path class="st6" d="M139.3,141.9c0,0-0.1-0.4-0.1-0.6"/>
		</g>
		<path class="st29" d="M140,131.8c-0.3-0.7,1-2.1,1.9-1.1c0.9,1.1-0.8,0.6-0.4,0.1c0.4-0.4,2.4-1.2,2.4-0.2c0,1-1.1-0.1-0.3-0.2
			c0.8-0.2,4.6,0.5,3,1.4c-0.6,0.3-1.1-0.2-0.2-0.4c1-0.3,1.1-2.5,2.1,0c0.2,0.4-0.7,0.6-0.5,0.2c0.2-0.5,1.6-2.2,2.1-0.3
			c0,0,1.1-0.9,1.1,0.5c0,0,1.5-0.1,0.8,1.4c0,0,1.6,1.5-0.2,2.3c-0.5,0.2-0.3-0.3-0.1-0.3c0.2-0.1,2.9,1.8,0.8,2.4
			c0,0-0.2,0.4-1.6,0.3c-0.2-0.1-0.1-0.3,0.1-0.3c0.3,0.1,1.5,2.3-0.2,2.2c-1.7-0.1-1.6-0.8-1.6-0.8s1.4,1.2-0.9,1.7
			c-2.3,0.5-1.2-1.3-1.2-1.3s0.9,0.2,0,0.4c-0.8,0.3-3.5,0.6-3-1.5c0-0.4,0.8-0.7,0.9-0.1c0.1,0.6-1.3,2.7-3.1,2.3
			c-1.8-0.4-1.8-1.4-1.7-1.5c0.1-0.2,0.5,0.1,0.3,0.6c-0.3,0.5-1.2,1.8-1.8-1.2c0,0-1.1,0.6-1.1-0.6c0-1.1,0.4,0,0.2,0
			c-0.2,0-1.9,0.3-1.3-1.1c0,0-0.7-1.4,0.6-2c0,0-1.5-2.7,0.3-2.7c0.5,0,0.5,0.4,0.1,0.4c-0.4,0-0.4-1.4,0.7-1.4
			C139.1,131,140,131.8,140,131.8z"/>
		<g>
			<path class="st29" d="M141.9,130.7C141.9,130.7,141.9,130.6,141.9,130.7c-0.2,0-0.3,0.1-0.4,0.1
				C141.1,131.3,142.8,131.8,141.9,130.7z"/>
			<path class="st29" d="M144,130.7c0-0.1,0-0.2-0.1-0.3c-0.1,0-0.2,0-0.2,0C142.9,130.6,144,131.7,144,130.7z"/>
			<path class="st29" d="M146.5,131.4c-1,0.3-0.5,0.8,0.2,0.4c0.5-0.3,0.5-0.5,0.3-0.7C146.8,131.3,146.6,131.4,146.5,131.4z"/>
			<path class="st29" d="M137.8,132.4c0.4,0,0.4-0.5-0.1-0.4c0,0-0.1,0-0.1,0C137.5,132.2,137.6,132.4,137.8,132.4z"/>
			<path class="st29" d="M152,135.1c-0.2,0.1-0.4,0.6,0.1,0.3c0.1-0.1,0.3-0.1,0.3-0.2C152.2,135.1,152,135,152,135.1z"/>
			<path class="st29" d="M144.4,135.9C144.3,135.8,144.3,135.8,144.4,135.9C144.3,135.8,144.3,135.8,144.4,135.9z"/>
			<path class="st29" d="M148.6,131.4c0-0.1-0.1-0.2-0.1-0.3c-0.2,0.2-0.3,0.4-0.3,0.5C147.9,132.1,148.7,131.8,148.6,131.4z"/>
			<path class="st29" d="M140.4,138.9c-0.1,0.1-0.1,0.4,0.1,0.7c0-0.1,0.1-0.1,0.1-0.2C140.9,139,140.6,138.8,140.4,138.9z"/>
			<path class="st29" d="M151.3,137.5c-0.3-0.1-0.3,0.2-0.1,0.3c0.1,0,0.3,0,0.4,0C151.4,137.6,151.3,137.5,151.3,137.5z"/>
			<path class="st21" d="M152.4,135.2c-0.1,0.1-0.2,0.1-0.3,0.2c-0.5,0.2-0.3-0.3-0.1-0.3C152,135,152.2,135.1,152.4,135.2
				c0.1-0.1,0.1-0.1,0.2-0.2c-1-0.1-1.2-0.1-1.2-0.1s-0.2,0.6-1.6,1.3c-1.4,0.7-1.8-0.9-1.8-0.9s-0.5,0.8-1.4,1.1
				c-0.7,0.3-1.9-0.4-2.2-0.6c0.1,0.1,0.3,0.4-0.4,0.8c-1,0.6-3.2,1-3.2,1c-0.4,0.9-3.4-1.1-3.4-1.1c-0.6,0.2-0.5-0.5-0.9-0.8
				c0,0.5,0.2,0.9,0.2,0.9c-0.6,1.2,0.6,1.1,1.1,1.1c0,0,0,0,0,0c0-1.1,0.4,0,0.2,0c0,0-0.1,0-0.2,0c0,1.1,1.1,0.6,1.1,0.6
				c0.5,2.7,1.3,1.9,1.7,1.4c-0.3-0.3-0.2-0.7-0.1-0.7c0.1-0.2,0.5,0.1,0.3,0.6c0,0.1-0.1,0.1-0.1,0.2c0.2,0.3,0.7,0.6,1.5,0.8
				c1,0.2,1.9-0.3,2.4-1c-0.3-0.3-0.3,0-0.2-0.6c0-0.4,0.6-0.6,0.7,0c0.1,0.3-0.1,0-0.5,0.6c0.6,0.6,1.8,0.5,2.6,0.3
				c0.1-0.3,0.2-0.5,0.2-0.5s0.9,0.2,0,0.4c-0.1,0-0.2,0-0.2,0.1c-0.1,0.5-0.1,1.1,1.4,0.8c1.3-0.3,1.4-0.8,1.3-1.2
				c-0.4-0.2-0.3-0.5-0.3-0.5s0.2,0.2,0.3,0.5c0.2,0.1,0.6,0.2,1.3,0.3c1.2,0,0.6-1.6,0.5-2c-0.1,0-0.2,0-0.4,0
				c-0.2-0.1-0.1-0.3,0.1-0.3c0.1,0,0.2,0.1,0.2,0.2c0.9-0.1,1.3-0.2,1.3-0.2C154.3,137,153,135.5,152.4,135.2z"/>
			<path class="st29" d="M149.4,138.9c0,0,0,0.3,0.3,0.5C149.6,139.1,149.4,138.9,149.4,138.9z"/>
			<path class="st29" d="M147.3,139.3c0,0-0.1,0.2-0.2,0.5c0.1,0,0.2,0,0.2-0.1C148.2,139.5,147.3,139.3,147.3,139.3z"/>
			<path class="st29" d="M137.8,137.7C137.8,137.7,137.8,137.7,137.8,137.7c0.1,0,0.2,0,0.2,0C138.1,137.7,137.7,136.6,137.8,137.7z
				"/>
			<path class="st29" d="M145.1,139c-0.1-0.6-0.6-0.5-0.6-0.1c-0.1,0.6-0.2,0.4,0.1,0.7C145,139,145.1,139.2,145.1,139z"/>
		</g>
		<path class="st6" d="M139.8,131.4c-0.3-0.7,1-2.1,1.9-1.1c0.9,1.1-0.8,0.6-0.4,0.1s2.4-1.2,2.4-0.2c0,1-1.1-0.1-0.3-0.2
			c0.8-0.2,4.6,0.5,3,1.4c-0.6,0.3-1.1-0.2-0.2-0.4s1.1-2.5,2.1,0c0.2,0.4-0.7,0.6-0.5,0.2s1.6-2.2,2.1-0.3c0,0,1.1-0.9,1.1,0.5
			c0,0,1.5-0.1,0.8,1.4c0,0,1.6,1.5-0.2,2.3c-0.5,0.2-0.3-0.3-0.1-0.3s2.9,1.8,0.8,2.4c0,0-0.2,0.4-1.6,0.3
			c-0.2-0.1-0.1-0.3,0.1-0.3c0.3,0.1,1.5,2.3-0.2,2.2c-1.7-0.1-1.6-0.8-1.6-0.8s1.4,1.2-0.9,1.7c-2.3,0.5-1.2-1.3-1.2-1.3
			s0.9,0.2,0,0.4c-0.8,0.3-3.1,1.4-2.6-0.6c0-0.4,0.3-0.7,0.4-0.2c0.1,0.6-1.1,1.8-3,1.5s-1.8-1.4-1.7-1.5c0.1-0.2,0.5,0.1,0.3,0.6
			c-0.3,0.5-1.2,1.8-1.8-1.2c0,0-1.1,0.6-1.1-0.6c0-1.1,0.4,0,0.2,0c-0.2,0-1.9,0.3-1.3-1.1c0,0-0.7-1.4,0.6-2c0,0-1.5-2.7,0.3-2.7
			c0.5,0,0.5,0.4,0.1,0.4c-0.4,0-0.4-1.4,0.7-1.4C138.8,130.7,139.8,131.4,139.8,131.4z"/>
		<path class="st25" d="M138.7,133.4c0.1-0.3,0.7,0.1,0.8-0.1c0,0,0.2,0.4,0.5,0.3c0.3-0.1,0.3-0.4,0.3-0.4s-0.3,0.3,0.4,0.5
			c0.7,0.2,0.9,0,0.9,0s0.4,2.8-1.5,3.1C138.8,137,137.9,135.7,138.7,133.4z"/>
		<path class="st25" d="M141.9,132.2c0,0,1-0.3,1.4,0.6c0.1,0.2,0,0.2-0.3,0.1c-0.3-0.1-0.9-0.2-1-0.2c0,0,0.1-0.2-0.1-0.2
			c0,0,0-0.1-0.1-0.2C141.8,132.4,142,132.3,141.9,132.2z"/>
		<path class="st25" d="M138.7,131.9c0,0-1-0.3-1.4,0.6c-0.1,0.2,0,0.2,0.3,0.1c0.3-0.1,0.9-0.2,1-0.2c0,0-0.1-0.2,0.1-0.2
			c0,0,0-0.1,0.1-0.2C138.8,132.1,138.6,131.9,138.7,131.9z"/>
		<path class="st6" d="M140.2,132.2"/>
		<circle class="st23" cx="139.1" cy="134.6" r="0.2"/>
		<circle class="st23" cx="140.9" cy="134.8" r="0.2"/>
		<path class="st25" d="M139.2,136c-0.1-0.2,0.4-0.2,0.5-0.2c0.1,0,0.5,0.1,0.4,0.2c-0.1,0.1-0.3,0.2-0.5,0.2S139.3,136.1,139.2,136
			z"/>
		<g>
			<path class="st25" d="M142.7,138.6c0,0-0.3,3.4-0.4,3.5c-0.1,0.1-0.3,0.1-0.3,0.1s-0.1,0-0.2-0.1c-0.2-0.4-0.2-3.6-0.2-3.6
				s0.4,0.3,0.6,0.2C142.2,138.6,142.4,138.9,142.7,138.6z"/>
			<path class="st6" d="M142.1,142.2c0,0,0-0.5,0-0.6"/>
		</g>
		<g>
			<path class="st25" d="M148.2,138.6c0,0,0.2,3.4,0.3,3.5c0.1,0.1,0.3,0.1,0.3,0.1s0.1,0,0.2-0.1c0.2-0.4,0.3-3.6,0.3-3.6
				s-0.4,0.3-0.6,0.2C148.7,138.6,148.5,139,148.2,138.6z"/>
			<path class="st6" d="M148.8,142.2c0,0,0-0.5,0-0.6"/>
		</g>
		<path class="st25" d="M139.6,136.3c0,0,0,0.4,0.1,0.5"/>
	</g>
	<g>
		<path class="st12" d="M102.9,114.9c-0.3-1.5,7.5-1.4,11.8-1.2c4.3,0.2,8.1-1.4,9.4-0.1c1.3,1.3,2.5,3.2-1.8,2.9
			c-4.2-0.3-11,0.3-14.7,0C103.9,116.2,103.2,116.1,102.9,114.9z"/>
		<g>
			<path class="st25" d="M111.2,110c0,0,0.2,5,0.1,5.1c-0.1,0.2-0.5,0.2-0.5,0.2s-0.2,0.1-0.3-0.2c-0.3-0.6-0.8-6.8-0.8-6.8
				L111.2,110z"/>
			<path class="st6" d="M110.9,115.3c0,0-0.1-0.7-0.1-1"/>
		</g>
		<g>
			<path class="st25" d="M121.7,109.8c0,0,0,5,0.1,5.1c0.1,0.2,0.5,0.2,0.5,0.2s0.2,0.1,0.3-0.2c0.3-0.6,0.6-6.8,0.6-6.8
				L121.7,109.8z"/>
			<path class="st6" d="M122.3,115.1c0,0,0.1-0.7,0.1-1"/>
		</g>
		<path class="st29" d="M121.1,98.8c0.4-1.2-1.7-3.5-3.1-1.7s1.3,0.9,0.6,0.2c-0.7-0.7-3.9-1.9-3.9-0.2s1.8-0.1,0.5-0.4
			c-1.3-0.3-7.5,0.8-4.8,2.3c1,0.5,1.8-0.3,0.3-0.7c-1.5-0.4-1.8-4-3.5,0c-0.2,0.6,1.1,1,0.7,0.3c-0.3-0.8-2.5-3.5-3.4-0.5
			c0,0-1.8-1.4-1.9,0.7c0,0-2.4-0.1-1.3,2.3c0,0-2.7,2.4,0.3,3.7c0.8,0.4,0.5-0.4,0.1-0.6c-0.4-0.1-4.7,2.8-1.2,3.9
			c0,0,0.4,0.6,2.6,0.4c0.3-0.1,0.2-0.5-0.2-0.4c-0.5,0.1-2.4,3.7,0.4,3.6c2.8-0.1,2.6-1.2,2.6-1.2s-2.2,2,1.5,2.8
			c3.7,0.8,1.9-2.1,1.9-2.1s-1.4,0.2-0.1,0.7c1.4,0.4,5.7,0.9,4.9-2.4c0-0.6-1.3-1.1-1.4-0.2s2.1,4.4,5,3.7s3-2.3,2.7-2.5
			c-0.2-0.2-0.8,0.1-0.4,0.9c0.4,0.8,1.9,2.9,2.9-2c0,0,1.8,0.9,1.8-0.9s-0.6-0.1-0.3,0c0.3,0,3.1,0.5,2-1.7c0,0,1.1-2.3-0.9-3.2
			c0,0,2.4-4.4-0.5-4.3c-0.8-0.1-0.8,0.6-0.2,0.7c0.6,0.1,0.6-2.2-1.2-2.3C122.7,97.6,121.1,98.8,121.1,98.8z"/>
		<g>
			<path class="st29" d="M118,97.1c0-0.1,0.1-0.1,0.1-0.2c0.2,0.1,0.4,0.2,0.5,0.4C119.4,98,116.7,98.8,118,97.1z"/>
			<path class="st29" d="M114.7,97c0-0.2,0-0.3,0.1-0.4c0.2,0,0.3,0,0.4,0C116.5,96.9,114.7,98.7,114.7,97z"/>
			<path class="st29" d="M110.7,98.3c1.5,0.4,0.7,1.2-0.3,0.7c-0.7-0.4-0.8-0.8-0.4-1.2C110.2,98,110.4,98.2,110.7,98.3z"/>
			<path class="st29" d="M124.8,99.8c-0.6-0.1-0.6-0.8,0.2-0.7c0.1,0,0.1,0,0.1,0C125.2,99.5,125,99.9,124.8,99.8z"/>
			<path class="st29" d="M101.8,104.1c0.4,0.1,0.7,1-0.1,0.6c-0.2-0.1-0.4-0.2-0.6-0.3C101.4,104.2,101.7,104.1,101.8,104.1z"/>
			<path class="st29" d="M114.1,105.5c0.1-0.1,0.2-0.1,0.2-0.1S114.2,105.4,114.1,105.5z"/>
			<path class="st29" d="M107.3,98.3c0.1-0.2,0.2-0.4,0.2-0.5c0.2,0.3,0.4,0.6,0.5,0.8C108.3,99.3,107,98.9,107.3,98.3z"/>
			<path class="st29" d="M120.5,110.4c0.1,0.1,0.2,0.6-0.2,1.2c-0.1-0.1-0.1-0.2-0.2-0.3C119.7,110.5,120.3,110.2,120.5,110.4z"/>
			<path class="st29" d="M103,108c0.5-0.1,0.6,0.3,0.2,0.4c-0.2,0-0.4,0-0.6,0C102.7,108.2,102.8,108.1,103,108z"/>
			<path class="st21" d="M101.1,104.4c0.2,0.1,0.3,0.2,0.6,0.3c0.8,0.4,0.5-0.4,0.1-0.6C101.7,104.1,101.4,104.2,101.1,104.4
				c-0.1-0.1-0.2-0.2-0.3-0.3c1.7-0.2,2-0.2,2-0.2s0.3,0.9,2.5,2.1c2.2,1.2,3-1.5,3-1.5s0.8,1.2,2.2,1.8c1.2,0.5,3.1-0.6,3.6-0.9
				c-0.2,0.2-0.5,0.6,0.6,1.3c1.6,0.9,5.3,1.7,5.3,1.7c0.6,1.5,5.4-1.8,5.4-1.8c1,0.3,0.8-0.8,1.4-1.3c0,0.8-0.3,1.4-0.3,1.4
				c0.9,1.9-0.9,1.8-1.7,1.8c0,0,0,0,0,0c0-1.8-0.6-0.1-0.3,0c0,0,0.2,0,0.3,0c0,1.8-1.8,0.9-1.8,0.9c-0.8,4.3-2.1,3.1-2.7,2.2
				c0.4-0.5,0.4-1.1,0.2-1.2c-0.2-0.2-0.8,0.1-0.4,0.9c0,0.1,0.1,0.2,0.2,0.3c-0.4,0.5-1.1,1-2.5,1.3c-1.6,0.3-3-0.5-3.9-1.6
				c0.4-0.4,0.6,0,0.3-0.9c0-0.6-1-0.9-1.2,0c-0.1,0.4,0.1,0.1,0.9,0.9c-0.9,0.9-3,0.8-4.1,0.5c-0.1-0.4-0.3-0.8-0.3-0.8
				s-1.4,0.2-0.1,0.7c0.1,0,0.2,0.1,0.4,0.1c0.2,0.8,0.1,1.8-2.3,1.3c-2.2-0.4-2.3-1.3-2-2c0.6-0.4,0.6-0.8,0.6-0.8
				s-0.4,0.3-0.6,0.8c-0.4,0.2-1,0.4-2,0.4c-2,0.1-1-2.6-0.8-3.2c0.2,0,0.4,0,0.6,0c0.3-0.1,0.2-0.5-0.2-0.4c-0.1,0-0.3,0.2-0.4,0.4
				c-1.5-0.2-2-0.4-2-0.4C98,107.3,100.2,104.9,101.1,104.4z"/>
			<path class="st29" d="M106,110.4c0,0,0.1,0.4-0.6,0.8C105.6,110.7,106,110.4,106,110.4z"/>
			<path class="st29" d="M109.4,111.1c0,0,0.2,0.4,0.3,0.8c-0.1,0-0.3-0.1-0.4-0.1C107.9,111.3,109.4,111.1,109.4,111.1z"/>
			<path class="st29" d="M124.8,108.4C124.8,108.4,124.8,108.4,124.8,108.4c-0.1,0-0.3,0-0.3,0C124.2,108.4,124.8,106.6,124.8,108.4
				z"/>
			<path class="st29" d="M113,110.4c0.2-0.9,0.9-0.8,1-0.2c0.2,0.9,0.3,0.6-0.1,1.1C113.1,110.5,112.9,110.8,113,110.4z"/>
		</g>
		<path class="st6" d="M121.5,98.3c0.4-1.2-1.7-3.5-3.1-1.7c-1.4,1.7,1.3,0.9,0.6,0.2s-3.9-1.9-3.9-0.2c0,1.7,1.8-0.1,0.5-0.4
			c-1.3-0.3-7.5,0.8-4.8,2.3c1,0.5,1.8-0.3,0.3-0.7c-1.5-0.4-1.8-4-3.5,0c-0.2,0.6,1.1,1,0.7,0.3c-0.3-0.8-2.5-3.5-3.4-0.5
			c0,0-1.8-1.4-1.9,0.7c0,0-2.4-0.1-1.3,2.3c0,0-2.7,2.4,0.3,3.7c0.8,0.4,0.5-0.4,0.1-0.6c-0.4-0.1-4.7,2.8-1.2,3.9
			c0,0,0.4,0.6,2.6,0.4c0.3-0.1,0.2-0.5-0.2-0.4c-0.5,0.1-2.4,3.7,0.4,3.6c2.8-0.1,2.6-1.2,2.6-1.2s-2.2,2,1.5,2.8
			c3.7,0.8,1.9-2.1,1.9-2.1s-1.4,0.2-0.1,0.7c1.4,0.4,5.1,2.3,4.3-1c0-0.6-0.4-1.2-0.6-0.3c-0.2,0.9,1.9,3,4.8,2.4
			c2.9-0.6,3-2.3,2.7-2.5c-0.2-0.2-0.8,0.1-0.4,0.9c0.4,0.8,1.9,2.9,2.9-2c0,0,1.8,0.9,1.8-0.9s-0.6-0.1-0.3,0c0.3,0,3.1,0.5,2-1.7
			c0,0,1.1-2.3-0.9-3.2c0,0,2.4-4.4-0.5-4.3c-0.8-0.1-0.8,0.6-0.2,0.7c0.6,0.1,0.6-2.2-1.2-2.3C123.1,97,121.5,98.3,121.5,98.3z"/>
		<path class="st25" d="M123.3,101.4c-0.1-0.5-1.1,0.1-1.2-0.2c0,0-0.3,0.7-0.8,0.5c-0.5-0.1-0.6-0.7-0.6-0.7s0.4,0.5-0.7,0.8
			c-1.1,0.3-1.4-0.1-1.4-0.1s-0.7,4.6,2.4,5.1C123.1,107.2,124.5,105.1,123.3,101.4z"/>
		<path class="st25" d="M118.1,99.6c0,0-1.5-0.5-2.3,1c-0.1,0.3-0.1,0.3,0.4,0.1s1.4-0.4,1.6-0.3c0,0-0.1-0.3,0.1-0.3
			c0,0,0-0.2,0.2-0.3C118.2,99.8,117.9,99.6,118.1,99.6z"/>
		<path class="st25" d="M123.2,99.1c0,0,1.5-0.5,2.3,1c0.1,0.3,0.1,0.3-0.4,0.1c-0.5-0.1-1.4-0.4-1.6-0.3c0,0,0.1-0.3-0.1-0.3
			c0,0,0-0.2-0.2-0.3C123.2,99.3,123.4,99.1,123.2,99.1z"/>
		<path class="st6" d="M120.8,99.5"/>
		<circle class="st23" cx="122.6" cy="103.4" r="0.3"/>
		<circle class="st23" cx="119.8" cy="103.7" r="0.3"/>
		<path class="st25" d="M122.5,105.7c0.2-0.3-0.6-0.3-0.8-0.3s-0.7,0.1-0.6,0.3c0.1,0.2,0.5,0.3,0.7,0.3
			C122,106.1,122.3,105.9,122.5,105.7z"/>
		<g>
			<path class="st25" d="M116.7,109.9c0,0,0.5,5.5,0.6,5.6c0.1,0.2,0.5,0.1,0.5,0.1s0.2,0,0.3-0.2c0.3-0.6,0.3-5.8,0.3-5.8
				s-0.6,0.5-0.9,0.3C117.5,109.9,117.2,110.4,116.7,109.9z"/>
			<path class="st6" d="M117.8,115.6c0,0,0-0.7,0-1"/>
		</g>
		<g>
			<path class="st25" d="M107.8,109.9c0,0-0.3,5.5-0.4,5.6c-0.1,0.2-0.5,0.2-0.5,0.2s-0.2,0-0.3-0.2c-0.3-0.6-0.4-5.8-0.4-5.8
				s0.6,0.5,0.9,0.2C107,109.9,107.4,110.4,107.8,109.9z"/>
			<path class="st6" d="M106.9,115.7c0,0,0-0.7,0-1"/>
		</g>
		<path class="st25" d="M121.9,106.1c0,0,0,0.6-0.2,0.9"/>
	</g>
	<g>
		<g class="st2">
			<path class="st3" d="M190.5,149.5c-9.8,0-19.5,0-29.3,0c-2.1,0-4.2,0-6.2-0.8c-2-0.8-3.9-2.4-5-5c12.7-8.6,28.4-6.8,40.1,4.6"/>
		</g>
		<path class="st8" d="M161.8,126c0,0-8.6,6.8-8.6-8s3.6-4.1,3.6-4.1s-1.7,7.2-1.5,0.9c0.2-6.3,1.2-25.7,5.6-18.9s-12-6.9-6.2-14.9
			s6.2-16.3,11-6.8c4.8,9.4,1.1,10.6-1.5,1.4c-2.7-9.2,0.7-24.7,7-6.6c6.3,18.1,1,25.1-1.9,25.1c-2.9,0-0.6-3.6,2.9-4
			s8.7,13,7.1,17.2c0,0,9-2.4,5.3,10.9c0,0,4.3,3.6,1.4,13.8c-2.9,10.2-7.7,7.5-8.5,4.4s14.1,3.9,8.9,9.3h-30.6c0,0-6.1-3.9-4.5-7.3
			c1.6-3.5,8.4-7.5,10.1-6.7C161.2,131.6,157,121,161.8,126z"/>
		<path class="st9" d="M157.7,99.5c-1.2,2.7,0.5,11,2.1,8.6c1.6-2.5,3.2-8.6,1.6-8.6C159.8,99.5,158.2,98.2,157.7,99.5z"/>
		<path class="st9" d="M170.1,122.4c-2,4.6,0.9,18.5,3.5,14.4s5.3-14.4,2.6-14.4C173.6,122.4,170.9,120.3,170.1,122.4z"/>
		<path class="st9" d="M172.9,95c0.9-3.2-1.7-2.1-3,1.8c-1.3,3.9-2.2,8.9-0.7,5.7C170.8,99.3,172.5,96.5,172.9,95z"/>
		<path class="st9" d="M159.9,121.2c0.4-1.6-1-3.6-1.6-1.9s-1,4.6-0.2,3.8C158.9,122.3,159.7,121.9,159.9,121.2z"/>
		<path class="st9" d="M169,83.2c0.4-1.6-1-3.6-1.6-1.9s-1,4.6-0.2,3.8C168,84.2,168.8,83.9,169,83.2z"/>
		<path class="st9" d="M161.3,77.2c0.9-2.1-1.2-3.3-2.5-0.9c-1.3,2.4-2.3,6-0.9,4.5C159.3,79.2,160.9,78.1,161.3,77.2z"/>
		<path class="st6" d="M160.8,126c0,0-8.6,6.8-8.6-8s3.6-4.1,3.6-4.1s-1.7,7.2-1.5,0.9c0.2-6.3,1.2-25.7,5.6-18.9
			c4.4,6.8-12-6.9-6.2-14.9c5.8-8,6.2-16.3,11-6.8c4.8,9.4,1.1,10.6-1.5,1.4s0.7-24.7,7-6.6s1,25.1-1.9,25.1s-0.6-3.6,2.9-4
			c3.5-0.4,8.7,13,7.1,17.2c0,0,9-2.4,5.3,10.9c0,0,4.3,3.6,1.4,13.8c-2.9,10.2-7.7,7.5-8.5,4.4c-0.9-3.2,14.1,3.9,8.9,9.3h-30.6
			c0,0-6.1-3.9-4.5-7.3c1.6-3.5,8.4-7.5,10.1-6.7C160.3,131.6,156.1,121,160.8,126z"/>
	</g>
</g>
</svg>
