<?xml version="1.0" encoding="utf-8"?>
<!-- Generator: Adobe Illustrator 26.4.1, SVG Export Plug-In . SVG Version: 6.00 Build 0)  -->
<svg version="1.1" id="Layer_1" xmlns="http://www.w3.org/2000/svg" xmlns:xlink="http://www.w3.org/1999/xlink" x="0px" y="0px"
	 viewBox="0 0 197.6 135.4" style="enable-background:new 0 0 197.6 135.4;" xml:space="preserve">
<style type="text/css">
	.st0{fill:#E3E1CE;}
	.st1{fill:#D3D0BF;}
	.st2{fill:#FFFFFF;stroke:#1A1A1A;stroke-width:0.2;stroke-linecap:round;stroke-linejoin:round;stroke-miterlimit:10;}
	.st3{fill:#CAB39B;}
	.st4{fill:none;stroke:#1A1A1A;stroke-width:0.2;stroke-linecap:round;stroke-linejoin:round;stroke-miterlimit:10;}
	.st5{fill:#434342;}
	.st6{fill:#F4F3E9;}
	.st7{fill:#F4F3E9;stroke:#1A1A1A;stroke-width:0.2;stroke-linecap:round;stroke-linejoin:round;stroke-miterlimit:10;}
	.st8{fill:#FBFBFA;stroke:#1A1A1A;stroke-width:0.2;stroke-linecap:round;stroke-linejoin:round;stroke-miterlimit:10;}
	.st9{fill:#1A1A1A;}
	.st10{fill:#CAB39B;stroke:#1A1A1A;stroke-width:0.2;stroke-linecap:round;stroke-linejoin:round;stroke-miterlimit:10;}
	.st11{fill:#816663;}
	.st12{fill:#BEB5B1;}
	.st13{fill:#E2E2E1;}
	.st14{fill:#BED0E7;}
	.st15{fill:#FBFBFA;}
	.st16{fill:#F4D6D2;}
	.st17{fill:#F6E4D0;}
	.st18{fill:#F3F2C5;}
	.st19{opacity:0.3;fill:#F3F2C5;}
	.st20{fill:none;stroke:#020203;stroke-width:0.2;stroke-linecap:round;stroke-linejoin:round;stroke-miterlimit:10;}
</style>
<g>
	<path class="st0" d="M12.5,41.7C5.9,86,29.6,114,56.6,110.5s44.8,6.5,54.8,14.8s77.8,5.3,73.6-39C180.8,42,170.8,8.7,128,2.1
		C83.9-4.7,68.3,6.9,46.3,7C24.7,7.2,16.2,16.5,12.5,41.7z"/>
	<path class="st1" d="M197.2,111.6c-2.5,13.5-17,11-37.5,17.3c-20.5,6.3-157.3,13.2-159.5-6.7C-3,92.9,133.4,100.1,152,100.5
		C184.8,101.1,199.6,98.4,197.2,111.6z"/>
	<g>
		<path class="st2" d="M80.4,76.1c-0.4-0.5-1.3-1.7-0.8-1.9c0.5-0.3,3.1-2.4,3.1-2.4l1.9,2.4c0,0-3.1,2.7-3.5,2.6
			C80.8,76.5,80.4,76.1,80.4,76.1z"/>
		<g>
			<path class="st3" d="M73.3,117.1c2.3,0.3,4.7,1.1,2.2,1.3c-2.5,0.2-10.1,0.2-11.4-0.6l0.4-5.6l3.5,0
				C68,112.3,71,116.9,73.3,117.1z"/>
			<path class="st3" d="M73.3,117.1c2.3,0.3,4.7,1.1,2.2,1.3c-2.5,0.2-10.1,0.2-11.4-0.6l0.4-5.6l3.5,0
				C68,112.3,71,116.9,73.3,117.1z"/>
			<path class="st3" d="M73.3,117.1c2.3,0.3,4.7,1.1,2.2,1.3c-2.5,0.2-10.1,0.2-11.4-0.6l0.4-5.6l3.5,0
				C68,112.3,71,116.9,73.3,117.1z"/>
			<path class="st3" d="M73.3,117.1c2.3,0.3,4.7,1.1,2.2,1.3c-2.5,0.2-10.1,0.2-11.4-0.6l0.4-5.6l3.5,0
				C68,112.3,71,116.9,73.3,117.1z"/>
			<path class="st4" d="M73.6,117c2.3,0.3,4.7,1.1,2.2,1.3s-10.1,0.2-11.4-0.6l0.4-5.6l3.5,0C68.3,112.1,71.3,116.7,73.6,117z"/>
			<path class="st4" d="M73.6,117c2.3,0.3,4.7,1.1,2.2,1.3s-10.1,0.2-11.4-0.6l0.4-5.6l3.5,0C68.3,112.1,71.3,116.7,73.6,117z"/>
			<path class="st4" d="M73.6,117c2.3,0.3,4.7,1.1,2.2,1.3s-10.1,0.2-11.4-0.6l0.4-5.6l3.5,0C68.3,112.1,71.3,116.7,73.6,117z"/>
			<path class="st4" d="M73.6,117c2.3,0.3,4.7,1.1,2.2,1.3s-10.1,0.2-11.4-0.6l0.4-5.6l3.5,0C68.3,112.1,71.3,116.7,73.6,117z"/>
			<path class="st5" d="M64,112.7c0,0,1.9-22.4-0.4-32.6c0.8,0.6,1.9,0.8,3.1,0.8c1.5,0,3.1-0.4,4.6-0.9c0.2,1.5,0.7,5.1,0.6,10.3
				c-0.1,5.6-1.1,14.3-3.5,22.8L64,112.7z"/>
			<path class="st4" d="M64.2,112.6c0,0,1.9-22.4-0.4-32.6c0.8,0.6,1.9,0.8,3.1,0.8c1.5,0,3.1-0.4,4.6-0.9c0.2,1.5,0.7,5.1,0.6,10.3
				c-0.1,5.6-1.1,14.3-3.5,22.8L64.2,112.6z"/>
			<path class="st3" d="M68.7,117.1c2.3,0.3,4.7,1.1,2.2,1.3c-2.5,0.2-10.1,0.2-11.4-0.6l0.4-5.6l3.5,0
				C63.4,112.3,66.4,116.9,68.7,117.1z"/>
			<path class="st3" d="M68.7,117.1c2.3,0.3,4.7,1.1,2.2,1.3c-2.5,0.2-10.1,0.2-11.4-0.6l0.4-5.6l3.5,0
				C63.4,112.3,66.4,116.9,68.7,117.1z"/>
			<path class="st3" d="M68.7,117.1c2.3,0.3,4.7,1.1,2.2,1.3c-2.5,0.2-10.1,0.2-11.4-0.6l0.4-5.6l3.5,0
				C63.4,112.3,66.4,116.9,68.7,117.1z"/>
			<path class="st3" d="M68.7,117.1c2.3,0.3,4.7,1.1,2.2,1.3c-2.5,0.2-10.1,0.2-11.4-0.6l0.4-5.6l3.5,0
				C63.4,112.3,66.4,116.9,68.7,117.1z"/>
			<path class="st4" d="M68.9,117c2.3,0.3,4.7,1.1,2.2,1.3c-2.5,0.2-10.1,0.2-11.4-0.6l0.4-5.6l3.5,0
				C63.7,112.1,66.6,116.7,68.9,117z"/>
			<path class="st4" d="M68.9,117c2.3,0.3,4.7,1.1,2.2,1.3c-2.5,0.2-10.1,0.2-11.4-0.6l0.4-5.6l3.5,0
				C63.7,112.1,66.6,116.7,68.9,117z"/>
			<path class="st4" d="M68.9,117c2.3,0.3,4.7,1.1,2.2,1.3c-2.5,0.2-10.1,0.2-11.4-0.6l0.4-5.6l3.5,0
				C63.7,112.1,66.6,116.7,68.9,117z"/>
			<path class="st4" d="M68.9,117c2.3,0.3,4.7,1.1,2.2,1.3c-2.5,0.2-10.1,0.2-11.4-0.6l0.4-5.6l3.5,0
				C63.7,112.1,66.6,116.7,68.9,117z"/>
			<path class="st5" d="M59.4,112.7c0,0,1.9-22.4-0.4-32.6c0.8,0.6,1.9,0.8,3.1,0.8c1.5,0,3.1-0.4,4.6-0.9c0.2,1.5,0.7,5.1,0.6,10.3
				c-0.1,5.6-1.1,14.3-3.5,22.8L59.4,112.7z"/>
			<path class="st4" d="M59.6,112.6c0,0,1.9-22.4-0.4-32.6c0.8,0.6,1.9,0.8,3.1,0.8c1.5,0,3.1-0.4,4.6-0.9c0.2,1.5,0.7,5.1,0.6,10.3
				c-0.1,5.6-1.1,14.3-3.5,22.8L59.6,112.6z"/>
			<g>
				<path class="st2" d="M78,78l-1.2,2.5c0,0,1.6,1.8,3.4,1.5s2.9-3.3,2-3.5C81.1,78.4,79.2,78.1,78,78z"/>
				<g>
					<path class="st6" d="M63.9,63.8c0.1-0.4,0.7-1.6,1.4-2.6c0.9-1.3,2-2.3,3-1.1c1.6,1.9-0.6,7.4,0.3,9.9c0.2,0.7,0.9,1.7,1.9,2.7
						c2.3,2.5,6,5.2,7.8,5.2l-0.7,1.4l-0.3,0.7l-0.1,0.2L76.7,81c0,0-0.3-0.1-0.7-0.3c-0.6-0.2-1.6-0.6-2.7-1.2
						c-3.4-1.5-8.1-4.2-9.4-7.5c0-0.1-0.1-0.2-0.1-0.3C62.3,67.4,63.6,64.6,63.9,63.8z"/>
					<path class="st4" d="M63.8,63.6c0.1-0.4,0.7-1.6,1.4-2.6c0.9-1.3,2-2.3,3-1.1c1.6,1.9-0.6,7.4,0.3,9.9c0.2,0.7,0.9,1.7,1.9,2.7
						c2.3,2.5,6,5.2,7.8,5.2l-0.7,1.4l-0.3,0.7l-0.1,0.2l-0.4,0.9c0,0-0.3-0.1-0.7-0.3c-0.6-0.2-1.6-0.6-2.7-1.2
						c-3.4-1.5-8.1-4.2-9.4-7.5c0-0.1-0.1-0.2-0.1-0.3C62.2,67.3,63.5,64.4,63.8,63.6z"/>
				</g>
				<path class="st2" d="M78,78c0,0,1.8-1,2.4-0.3c0.6,0.7,0.1,1.7-0.3,1.7s-0.6-0.7-0.6-0.7s-0.4,0.7-1,0.7"/>
			</g>
			<path class="st6" d="M63.7,58.9c-1.8,0.7-2.5,0.9-3.6,3.4c-1.8,3.7-2,10.3-2,10.3c0.1,2.1,0.2,4.4,0.6,6.9
				c0.1,0.5,0.3,0.9,0.6,1.3c0.6,0.7,1.7,1.2,2.9,1.4c1.4,0.3,3.1,0.3,4.7,0.1c1.3-0.2,2.5-0.5,3.3-0.9c1.3-0.7,2.2-2,2.2-2
				c0.4-0.9,0.5-2,0.6-3.5c0-1,0-2.2,0.1-3.6c0.7-11.9-3.2-13.2-3.2-13.2c-0.6-0.3-1.2-0.5-1.7-0.7C68,58.5,65.3,58.5,63.7,58.9z"/>
			<path class="st4" d="M63.6,58.7c-0.4,0.1-2.5,0.9-3.6,3.4C58.1,65.8,58,72.6,58,72.6c0.1,2.1,0.2,4.4,0.6,6.9
				c0.1,0.5,0.3,0.9,0.6,1.3c0.6,0.7,1.7,1.2,2.9,1.4c1.4,0.3,3.1,0.3,4.7,0.1c1.3-0.2,2.5-0.5,3.3-0.9c1.3-0.7,2.2-2,2.2-2
				c0.4-0.9,0.5-2,0.6-3.5c0-1,0-2.2,0.1-3.6c0.7-11.9-3.2-13.2-3.2-13.2c-0.6-0.3-1.2-0.5-1.7-0.7C68,58.5,65.1,58.3,63.6,58.7z"/>
			<polyline class="st7" points="68.7,59.4 66.9,58.4 66.4,59.1 68.1,60.7 68.7,59.4 69.8,60.3 68.4,59.9 			"/>
			<g>
				<path class="st8" d="M63.6,53.2c-0.4-1.1,0.7-1.3,0.7-1.3s0.8-0.1,0.9,0.8l0,0.8l0.5,0.1c1.1-1.2,0.4-2.6,0.4-2.6
					c0.7,0.1,1.3,0.1,1.8,0.1c1.4-0.1,2.3-0.7,3-1.2c0.3,0.7,0.5,3.4,0.3,4.6c-0.3,1.9-0.9,3.4-3.1,3.5c0,0,0,0,0,0
					c-1.4,0.1-2.9-0.6-3.9-1.7c0.6-0.4,0.7-1,0.7-1.4c0-0.4-0.1-0.7-0.1-0.7S64,54.3,63.6,53.2z"/>
				<path class="st5" d="M63.4,56.7c2-0.7,1.4-2.5,1.4-2.5s-0.8,0.3-1.2-0.8s0.7-1.3,0.7-1.3s0.8-0.1,0.9,0.8l0,0.8l0.5,0.1
					c1.1-1.2,0.4-2.6,0.4-2.6c4.1,0.7,5.8-2.2,5.8-2.2c0.6-0.9-0.3-1.7-0.7-1.8c0,0-0.8-0.3-1.3,0.1c0,0,0.3,0.5,0.2,0.5
					s-10-2.5-8.1,3.6S63.4,56.7,63.4,56.7z"/>
				<path class="st4" d="M70.8,47.5c0,0-7.2-1.9-8.6,0.7c-0.6,1.1-0.9,2.5,0,4.4c0.5,1,1,1.6,1.2,3.9c2-0.7,1.4-2.5,1.4-2.5
					s-0.8,0.3-1.2-0.8c-0.4-1.1,0.7-1.3,0.7-1.3s0.8-0.1,0.9,0.8l0,0.8l0.5,0.1c1.1-1.2,0.4-2.6,0.4-2.6c4.1,0.7,5.8-2.2,5.8-2.2
					c0.6-0.9-0.3-1.7-0.7-1.8"/>
				<g>
					<ellipse class="st9" cx="70.8" cy="52.4" rx="0.2" ry="0.2"/>
					<ellipse class="st9" cx="67.6" cy="52.6" rx="0.2" ry="0.2"/>
					<path class="st4" d="M69.7,52.6c0,0-0.6,1,0.4,1.1c0.8,0,0.7,0,0.8,0.2c0,0.2,0.1,0.5-0.6,0.6c-0.5,0.1-0.6,0-0.6,0"/>
					<path class="st4" d="M70.2,55.5c0,0-1.2,0.5-2-0.2"/>
				</g>
				<path class="st8" d="M64.3,58.4l0-0.4l-0.1-1.9c1.1,1.1,2.6,1.8,3.9,1.7c0,0.2,0,0.5,0,0.8c0,0.3,0,0.6,0.1,0.8
					c0.1,0.7-0.1,1.3-0.1,1.3C65.7,59.6,64.3,58.4,64.3,58.4z"/>
			</g>
			<g>
				<polygon class="st7" points="63.1,58.9 63.6,57.7 67.4,59.8 66.5,61.8 				"/>
				<polygon class="st7" points="67.1,60.4 68,60.7 67.4,59.8 				"/>
			</g>
			<path class="st10" d="M67.9,61.2c0,0,0.3,7.2,0.2,10.6c0,0,0.6,1.2,1.3,1.6c0,0,0.8-1.2,1.1-2c0.3-0.8-2.2-10.4-2.2-10.4
				L67.9,61.2z"/>
			<path class="st10" d="M67.1,60.9c0.1,0.3,0.6,0.6,0.9,0.6s0.8-0.7,0.7-1.1C68.6,60,67,60.4,67.1,60.9z"/>
			<g>
				<g>
					<path class="st6" d="M59.6,65.1c0-0.4,0.2-1.7,0.6-2.9c0.5-1.5,1.3-2.8,2.6-1.9c2.1,1.4,1.4,7.3,2.9,9.5
						c0.4,0.6,1.4,1.4,2.5,2.1c2.9,1.8,7.1,3.4,8.9,3l-0.3,1.5l-0.1,0.7l0,0.2l-0.2,1c0,0-0.3,0-0.7-0.1c-0.7-0.1-1.7-0.2-2.9-0.4
						c-3.6-0.6-9-2-11.1-4.8c-0.1-0.1-0.1-0.2-0.2-0.3C59,69,59.5,65.9,59.6,65.1z"/>
					<path class="st4" d="M59.5,64.9c0-0.4,0.2-1.7,0.6-2.9c0.5-1.5,1.3-2.8,2.6-1.9c2.1,1.4,1.4,7.3,2.9,9.5
						c0.4,0.6,1.4,1.4,2.5,2.1c2.9,1.8,7.1,3.4,8.9,3l-0.3,1.5L76.6,77l0,0.2l-0.2,1c0,0-0.3,0-0.7-0.1c-0.7-0.1-1.7-0.2-2.9-0.4
						c-3.6-0.6-9-2-11.1-4.8c-0.1-0.1-0.1-0.2-0.2-0.3C58.9,68.9,59.4,65.8,59.5,64.9z"/>
				</g>
				<path class="st2" d="M77,75.1l-0.5,2.8c0,0,2,1.3,3.7,0.6c1.6-0.8,2-4,1-3.9C80.1,74.7,78.2,74.9,77,75.1z"/>
			</g>
		</g>
	</g>
	<g>
		<path class="st0" d="M42.5,79.6c0,0,103.8-0.4,111.5-1c0,0-0.1,37.4,0,38.9c0,0-66.2,1.2-83.8,1c-17.6-0.2-27.7,0.5-27.7,0.5
			S43.8,87.1,42.5,79.6z"/>
		<path class="st4" d="M41.7,79.3c0,0,103.8-0.4,111.5-1c0,0-0.1,37.4,0,38.9c0,0-66.2,1.2-83.8,1c-17.6-0.2-27.7,0.5-27.7,0.5
			S43,86.8,41.7,79.3z"/>
		<g>
			<path class="st4" d="M44.7,79.8c0,0,0.2,32.2,0,37.7"/>
			<path class="st4" d="M47.6,80c0,0,1.5,14.2-0.3,37.1"/>
			<path class="st4" d="M49.4,80c0,0-0.7,33.1,0.2,37.4"/>
			<path class="st4" d="M54.9,79.4c0,0,1.1,32.9,1.3,37.2"/>
			<path class="st4" d="M52.3,80.2c0,0,1.1,32.9,1.3,37.2"/>
			<path class="st4" d="M57.4,79.8c0,0,0.2,32.2,0,37.7"/>
			<path class="st4" d="M60.3,80c0,0,1.5,14.2-0.3,37.1"/>
			<path class="st4" d="M62.1,80c0,0-0.7,33.1,0.2,37.4"/>
			<path class="st4" d="M67.7,79.4c0,0,1.1,32.9,1.3,37.2"/>
			<path class="st4" d="M65.1,80.2c0,0,1.1,32.9,1.3,37.2"/>
			<path class="st4" d="M70.2,79.8c0,0,0.2,32.2,0,37.7"/>
			<path class="st4" d="M73,80c0,0,1.5,14.2-0.3,37.1"/>
			<path class="st4" d="M74.9,80c0,0-0.7,33.1,0.2,37.4"/>
			<path class="st4" d="M80.4,79.4c0,0,1.1,32.9,1.3,37.2"/>
			<path class="st4" d="M77.8,80.2c0,0,1.1,32.9,1.3,37.2"/>
			<path class="st4" d="M82.9,79.8c0,0,0.2,32.2,0,37.7"/>
			<path class="st4" d="M85.8,80c0,0,1.5,14.2-0.3,37.1"/>
			<path class="st4" d="M87.6,80c0,0-0.7,33.1,0.2,37.4"/>
			<path class="st4" d="M93.1,79.4c0,0,1.1,32.9,1.3,37.2"/>
			<path class="st4" d="M90.5,80.2c0,0,1.1,32.9,1.3,37.2"/>
			<path class="st4" d="M95.7,79.8c0,0,0.2,32.2,0,37.7"/>
			<path class="st4" d="M98.5,80c0,0,1.5,14.2-0.3,37.1"/>
			<path class="st4" d="M100.3,80c0,0-0.7,33.1,0.2,37.4"/>
			<path class="st4" d="M105.9,79.4c0,0,1.1,32.9,1.3,37.2"/>
			<path class="st4" d="M103.3,80.2c0,0,1.1,32.9,1.3,37.2"/>
			<path class="st4" d="M108.4,79.8c0,0,0.2,32.2,0,37.7"/>
			<path class="st4" d="M111.3,80c0,0,1.5,14.2-0.3,37.1"/>
			<path class="st4" d="M113.1,80c0,0-0.7,33.1,0.2,37.4"/>
			<path class="st4" d="M118.6,79.4c0,0,1.1,32.9,1.3,37.2"/>
			<path class="st4" d="M116,80.2c0,0,1.1,32.9,1.3,37.2"/>
			<path class="st4" d="M121.1,79.8c0,0,0.2,32.2,0,37.7"/>
			<path class="st4" d="M124,80c0,0,1.5,14.2-0.3,37.1"/>
			<path class="st4" d="M125.8,80c0,0-0.7,33.1,0.2,37.4"/>
			<path class="st4" d="M131.3,79.4c0,0,1.1,32.9,1.3,37.2"/>
			<path class="st4" d="M128.7,80.2c0,0,1.1,32.9,1.3,37.2"/>
			<path class="st4" d="M133.9,79.8c0,0,0.2,32.2,0,37.7"/>
			<path class="st4" d="M136.7,80c0,0,1.5,14.2-0.3,37.1"/>
			<path class="st4" d="M138.6,80c0,0-0.7,33.1,0.2,37.4"/>
			<path class="st4" d="M148.4,79.3c0,0,1.5,14.2-0.3,37.1"/>
			<path class="st4" d="M150.2,79.3c0,0-0.7,33.1,0.2,37.4"/>
			<path class="st4" d="M144.1,79.4c0,0,1.1,32.9,1.3,37.2"/>
			<path class="st4" d="M141.5,80.2c0,0,1.1,32.9,1.3,37.2"/>
		</g>
	</g>
	<g>
		<path class="st11" d="M99.3,56.1c0,0-0.6-0.8-0.4-1.8c0,0,0.6-3.6,5.8-3.1c3.2,0.3,3.7,4.5,3.8,5.9c0.3,3.5,3.9,3.6,5.2,5.2
			c1.2,1.5,0.6,3.8-1.2,4.2c-3.6,0.9-6.1,1.1-8.1-1.6c-0.8-1-2.6,0.4-4.5-1c-1.8-1.4,0-5,0.2-5.5C100.3,57.8,99.3,56.1,99.3,56.1"/>
		<path class="st12" d="M107.6,73.9c0.6-2.4-2-7.4-0.7-9.4c0.6-0.9,1.4-0.9,2.1-0.5c-1.1-1.3-2.4-1.9-3.7-1.9c0,0,0.1,2-2.2,2
			c-0.9,0-1.7-0.5-1.1-1.1c0,0,0-0.1,0-0.2c-0.5,0.2-1.1,0.4-1.6,0.7c0,0-3.6,1.4-2.4,12.6C101.1,75.9,107.1,76,107.6,73.9z"/>
		<path class="st12" d="M111.9,75.9c-2.1,3.5-10.5,3.6-13.7,3.5c0.2,2.4,0.4,3.9,2.1,5c0.1,0.1,0.2,0.1,0.3,0.2
			c0.4,0.2,0.9,0.4,1.5,0.6c1.9,0.5,4.5,0.6,6.5,0c0.7-0.2,1.4-0.5,1.9-0.9c0.6-0.5,1-1.1,1.1-1.8C111.9,80,111.9,77.8,111.9,75.9z"
			/>
		<path class="st13" d="M93.7,119c0.5,2.2,7.7,0.3,9.7,0.4c2,0.2,12,1.1,10.7-1.2c-1.3-2.3-14.9-0.1-16.7-0.1
			C95.7,118.2,93.4,117.7,93.7,119z"/>
		<path class="st11" d="M107.4,116.6C107.4,116.6,107.4,116.6,107.4,116.6l0.2,2h4.1l-0.5-4.1l-3.2,0.3L107.4,116.6z"/>
		<path class="st11" d="M107.4,116.6l-0.3-2l-3.2,0.3l-0.5,1.7c-1.8-0.3-6.6,2-6.6,2h4.1h6.8L107.4,116.6z"/>
		<path class="st14" d="M106.9,114c0.1,0.3,0.2,0.6,0.3,0.9l0.6-0.1l0,0l3.2-0.3c0,0-1.9-16.9-0.5-30.5c-0.5,0.4-1.2,0.7-1.9,0.9
			C106.3,96.8,106.8,111.1,106.9,114z"/>
		<path class="st14" d="M109,84.9c-2,0.5-4.7,0.4-6.5,0c-0.6-0.2-1.1-0.3-1.5-0.6c-0.1-0.1-0.2-0.1-0.3-0.2
			c-0.2,4.2-0.6,17,2.6,30.8l4-0.4c0,0,0-0.2,0-0.5C107.1,111.1,106.7,96.8,109,84.9z"/>
		<path class="st8" d="M96.8,76.5l0.2,2.3c0,0-0.6,0.5-2,0.4c-1.4-0.1-1.7-1.9-4.3,0.2c-1.6,0.2,0.6-2.6,2.9-2.5
			S96.8,76.5,96.8,76.5z"/>
		<path class="st4" d="M107.3,116.6C107.2,116.6,107.2,116.6,107.3,116.6l0.2,2h4.1l-0.5-4.1l-3.2,0.3L107.3,116.6z"/>
		<path class="st4" d="M106.9,114c0.1,0.3,0.2,0.6,0.3,0.9l0.6-0.1l0,0l3.2-0.3c0,0-1.9-16.9-0.5-30.5c-0.5,0.4-1.2,0.7-1.9,0.9
			C106.3,96.8,106.8,111.1,106.9,114z"/>
		<path class="st4" d="M108.7,84.9c-2,0.5-4.7,0.4-6.5,0c-0.6-0.2-1.1-0.3-1.5-0.6c-0.1-0.1-0.2-0.1-0.3-0.2
			c-0.2,4.2-0.6,17,2.6,30.8l4-0.4c0,0,0-0.2,0-0.5C106.8,111.1,106.3,96.8,108.7,84.9z"/>
		<path class="st4" d="M107.6,73.7c0.6-2.4-2-7.4-0.7-9.4c0.6-0.9,1.4-0.9,2.1-0.5c-1.1-1.3-2.4-1.9-3.7-1.9c0,0,0.1,2-2.2,2
			c-0.9,0-1.7-0.5-1.1-1.1c0,0,0-0.1,0-0.2c-0.5,0.2-1.1,0.4-1.6,0.7c0,0-3.6,1.4-2.4,12.6C101.1,75.8,107.1,75.8,107.6,73.7z"/>
		<path class="st4" d="M111.9,75.7c-2.1,3.5-10.5,3.6-13.7,3.5c0.2,2.4,0.4,3.9,2.1,5c0.1,0.1,0.2,0.1,0.3,0.2
			c0.4,0.2,0.9,0.4,1.5,0.6c1.9,0.5,4.5,0.6,6.5,0c0.7-0.2,1.4-0.5,1.9-0.9c0.6-0.5,1-1.1,1.1-1.8C111.9,79.8,111.9,77.7,111.9,75.7
			z"/>
		<path class="st4" d="M107.2,116.6l-0.3-2l-3.2,0.3l-0.5,1.7c-1.8-0.3-6.6,2-6.6,2h4.1h6.8L107.2,116.6z"/>
		<path class="st13" d="M111.4,66.4c-0.2-0.4-1.2-1.9-2.4-2.5c-0.7-0.4-1.5-0.4-2.1,0.5c-1.3,2,1.2,7,0.7,9.4
			c-0.5,2.1-6.5,2.1-9.6,2.3c-0.5,0-0.9,0.1-1.2,0.1l0.2,3c0,0,0.5,0,1.3,0.1c3.2,0.1,11.6,0,13.7-3.5c0.1-0.2,0.3-0.5,0.3-0.8
			C113.8,69.9,111.7,67.1,111.4,66.4z"/>
		<path class="st4" d="M111.4,66.3c-0.2-0.4-1.2-1.9-2.4-2.5c-0.7-0.4-1.5-0.4-2.1,0.5c-1.3,2,1.2,7,0.7,9.4
			c-0.5,2.1-6.5,2.1-9.6,2.3c-0.5,0-0.9,0.1-1.2,0.1l0.2,3c0,0,0.5,0,1.3,0.1c3.2,0.1,11.6,0,13.7-3.5c0.1-0.2,0.3-0.5,0.3-0.8
			C113.8,69.8,111.7,67,111.4,66.3z"/>
		<path class="st8" d="M105.3,61.9C105.3,61.9,105.3,61.9,105.3,61.9l0-2.8c0,0,0,0,0,0c-0.3,0.6-1.2,1.7-2.9,2.2
			c-0.1,0-0.2,0-0.4,0c0,0.5,0,1,0,1.4c0,0.1,0,0.1,0,0.2c-0.7,0.5,0.2,1.1,1.1,1.1C105.4,63.9,105.3,61.9,105.3,61.9z"/>
		<path class="st8" d="M99.6,54.9c0-0.1,0.1-0.3,0.1-0.4c0,0,0,0,0,0c0-0.1,0-0.1,0.1-0.2c0,0,0,0,0,0c0-0.1,0.1-0.1,0.1-0.2
			c0,0,0,0,0,0c0-0.1,0.1-0.1,0.1-0.2c0,0,0,0,0,0c0-0.1,0.1-0.1,0.1-0.2c0,0,0,0,0,0c0.1-0.1,0.2-0.2,0.4-0.3c0,0,0.2,0.9,0.8,1.5
			c0.5,0.5,1.3,0.7,2.6,0.2c0,0.9,0.2,1.3,0.4,1.4c0.2,0.2,0.4,0.1,0.4,0.1c0-0.8,0.7-0.7,0.7-0.7s0,0,0,0c0,0,0.1,0,0.1,0
			c0.1,0,0.1,0,0.2,0.1c0,0,0,0,0,0c0.1,0,0.1,0.1,0.2,0.1c0,0,0,0,0,0c0,0,0.1,0.1,0.1,0.2c0,0,0,0,0,0c0,0.1,0.1,0.1,0.1,0.2
			c0,0.1,0,0.3,0,0.5c0,0,0,0,0,0c0,0.1,0,0.1-0.1,0.2c0,0,0,0,0,0.1c0,0.1-0.1,0.1-0.1,0.1c0,0,0,0,0,0c0,0-0.1,0.1-0.1,0.1
			c0,0,0,0,0,0c0,0-0.1,0.1-0.1,0.1c0,0,0,0,0,0c0,0,0,0-0.1,0c0,0,0,0,0,0c0,0,0,0,0,0c0,0,0,0,0,0c0,0,0,0,0,0c0,0,0,0,0,0
			c0,0,0,0,0,0c0,0,0,0-0.1,0c0,0,0,0,0,0c0,0,0,0,0,0c0,0,0,0,0,0c0,0,0,0,0,0c0,0,0,0,0,0c0,0,0,0,0,0s-0.2,0.7,0.2,1.3
			c0,0,0,0,0,0c-0.3,0.6-1.2,1.7-2.9,2.2c-0.1,0-0.2,0-0.4,0c-1-0.2-2.1-1.4-2.4-2.9C99.4,57.6,99.4,55.9,99.6,54.9z"/>
		<g>
			<path class="st9" d="M100.3,56.2c0.1,0,0.2,0.1,0.2,0.2s-0.1,0.2-0.2,0.2s-0.2-0.1-0.2-0.2S100.2,56.2,100.3,56.2z"/>
			<circle class="st9" cx="103" cy="56.4" r="0.2"/>
			<path class="st4" d="M101.2,56.5c0,0,0.5,0.9-0.3,0.9c0,0-0.1,0.7,0.8,0.5"/>
			<path class="st4" d="M100.9,59.1c0,0,1.1,0.4,1.7-0.3"/>
		</g>
		<path class="st4" d="M105.8,59.7c-0.9-0.7-0.6-1.8-0.6-1.8s0.7,0.2,1-0.8c0.3-1-0.7-1.1-0.7-1.1s-0.7-0.1-0.7,0.7
			c0,0-0.8,0.3-0.8-1.5c-2.8,1.2-3.4-1.7-3.4-1.7c-1.1,0.7-1,2.4-1,2.4s-0.6-0.8-0.4-1.8c0,0,0.6-3.6,5.8-3.1
			c3.2,0.3,3.7,4.5,3.8,5.9c0.3,3.5,3.9,3.6,5.2,5.2c1.2,1.5,0.6,3.8-1.2,4.2c0,0-0.5,0.1-1.2,0"/>
		<path class="st4" d="M100.6,53c0,0,0.8-1.5,2.2-1.7"/>
	</g>
	<g>
		<g>
			<path class="st2" d="M119.6,79.8l1.5,2.4c0,0-1.4,2-3.3,1.8s-3.2-3.1-2.3-3.3C116.5,80.5,118.4,80,119.6,79.8z"/>
			<g>
				<path class="st12" d="M132.4,64.3c-0.2-0.3-0.8-1.5-1.6-2.5c-1-1.2-2.2-2.1-3.1-0.8c-1.4,2,1.2,7.4,0.6,9.9
					c-0.2,0.7-0.8,1.8-1.6,2.8c-2.1,2.7-5.5,5.7-7.3,5.9l0.8,1.3l0.4,0.6l0.1,0.2l0.5,0.9c0,0,0.3-0.1,0.7-0.3
					c0.6-0.3,1.5-0.8,2.6-1.4c3.2-1.8,7.7-4.9,8.7-8.4c0-0.1,0.1-0.2,0.1-0.3C134.3,67.9,132.8,65.1,132.4,64.3z"/>
				<path class="st4" d="M132.5,64.2c-0.2-0.3-0.8-1.5-1.6-2.5c-1-1.2-2.2-2.1-3.1-0.8c-1.4,2,1.2,7.4,0.6,9.9
					c-0.2,0.7-0.8,1.8-1.6,2.8c-2.1,2.7-5.5,5.7-7.3,5.9l0.8,1.3l0.4,0.6l0.1,0.2l0.5,0.9c0,0,0.3-0.1,0.7-0.3
					c0.6-0.3,1.5-0.8,2.6-1.4c3.2-1.8,7.7-4.9,8.7-8.4c0-0.1,0.1-0.2,0.1-0.3C134.4,67.7,132.8,64.9,132.5,64.2z"/>
			</g>
			<path class="st2" d="M119.6,79.8c0,0-1.9-0.8-2.4-0.1c-0.5,0.7,0.1,1.7,0.4,1.7c0.3,0,0.6-0.8,0.6-0.8s0.4,0.7,1.1,0.6"/>
		</g>
		<path class="st13" d="M116.6,118.1c1.6,0.8,2.5,0.5,5.2,0.9c2.7,0.4,20.4,0.2,20.6-1.3c0.2-2.3-17.4-1.1-19.8-0.9
			C118.4,116.9,113.5,116.5,116.6,118.1z"/>
		<g>
			<path class="st3" d="M124.3,117.1c-2.3,0.3-4.7,1.1-2.2,1.3s9.8-1.1,11.2-1.8l-0.2-4.3l-3.5,0
				C129.6,112.2,126.6,116.8,124.3,117.1z"/>
			<path class="st3" d="M124.3,117.1c-2.3,0.3-4.7,1.1-2.2,1.3s9.8-1.1,11.2-1.8l-0.2-4.3l-3.5,0
				C129.6,112.2,126.6,116.8,124.3,117.1z"/>
			<path class="st3" d="M124.3,117.1c-2.3,0.3-4.7,1.1-2.2,1.3s9.8-1.1,11.2-1.8l-0.2-4.3l-3.5,0
				C129.6,112.2,126.6,116.8,124.3,117.1z"/>
			<path class="st3" d="M124.3,117.1c-2.3,0.3-4.7,1.1-2.2,1.3s9.8-1.1,11.2-1.8l-0.2-4.3l-3.5,0
				C129.6,112.2,126.6,116.8,124.3,117.1z"/>
			<path class="st4" d="M124.1,116.9c-2.3,0.3-4.7,1.1-2.2,1.3c2.5,0.2,9.8-1.1,11.2-1.8l-0.2-4.3l-3.5,0
				C129.4,112,126.4,116.6,124.1,116.9z"/>
			<path class="st4" d="M124.1,116.9c-2.3,0.3-4.7,1.1-2.2,1.3c2.5,0.2,9.8-1.1,11.2-1.8l-0.2-4.3l-3.5,0
				C129.4,112,126.4,116.6,124.1,116.9z"/>
			<path class="st4" d="M124.1,116.9c-2.3,0.3-4.7,1.1-2.2,1.3c2.5,0.2,9.8-1.1,11.2-1.8l-0.2-4.3l-3.5,0
				C129.4,112,126.4,116.6,124.1,116.9z"/>
			<path class="st4" d="M124.1,116.9c-2.3,0.3-4.7,1.1-2.2,1.3c2.5,0.2,9.8-1.1,11.2-1.8l-0.2-4.3l-3.5,0
				C129.4,112,126.4,116.6,124.1,116.9z"/>
			<path class="st14" d="M133.5,112.3c0,0-1.9-22.4,0.4-32.6c-0.8,0.6-1.9,0.8-3.1,0.8c-1.5,0-3.1-0.4-4.6-0.9
				c-0.2,1.5-0.7,5.1-0.6,10.3c0.1,5.6,1.1,14.3,3.5,22.8L133.5,112.3z"/>
			<path class="st4" d="M133.3,112.1c0,0-1.9-22.4,0.4-32.6c-0.8,0.6-1.9,0.8-3.1,0.8c-1.5,0-3.1-0.4-4.6-0.9
				c-0.2,1.5-0.7,5.1-0.6,10.3c0.1,5.6,1.1,14.3,3.5,22.8L133.3,112.1z"/>
		</g>
		<g>
			<path class="st3" d="M129,117.1c-2.3,0.3-4.7,1.1-2.2,1.3s9.8-1.1,11.2-1.8l-0.2-4.3l-3.5,0C134.3,112.2,131.3,116.8,129,117.1z"
				/>
			<path class="st3" d="M129,117.1c-2.3,0.3-4.7,1.1-2.2,1.3s9.8-1.1,11.2-1.8l-0.2-4.3l-3.5,0C134.3,112.2,131.3,116.8,129,117.1z"
				/>
			<path class="st3" d="M129,117.1c-2.3,0.3-4.7,1.1-2.2,1.3s9.8-1.1,11.2-1.8l-0.2-4.3l-3.5,0C134.3,112.2,131.3,116.8,129,117.1z"
				/>
			<path class="st3" d="M129,117.1c-2.3,0.3-4.7,1.1-2.2,1.3s9.8-1.1,11.2-1.8l-0.2-4.3l-3.5,0C134.3,112.2,131.3,116.8,129,117.1z"
				/>
			<path class="st4" d="M128.7,116.9c-2.3,0.3-4.7,1.1-2.2,1.3s9.8-1.1,11.2-1.8l-0.2-4.3l-3.5,0C134,112,131,116.6,128.7,116.9z"/>
			<path class="st4" d="M128.7,116.9c-2.3,0.3-4.7,1.1-2.2,1.3s9.8-1.1,11.2-1.8l-0.2-4.3l-3.5,0C134,112,131,116.6,128.7,116.9z"/>
			<path class="st4" d="M128.7,116.9c-2.3,0.3-4.7,1.1-2.2,1.3s9.8-1.1,11.2-1.8l-0.2-4.3l-3.5,0C134,112,131,116.6,128.7,116.9z"/>
			<path class="st4" d="M128.7,116.9c-2.3,0.3-4.7,1.1-2.2,1.3s9.8-1.1,11.2-1.8l-0.2-4.3l-3.5,0C134,112,131,116.6,128.7,116.9z"/>
			<path class="st14" d="M138.1,112.3c0,0-1.9-22.4,0.4-32.6c-0.8,0.6-1.9,0.8-3.1,0.8c-1.5,0-3.1-0.4-4.6-0.9
				c-0.2,1.5-0.7,5.1-0.6,10.3c0.1,5.6,1.1,14.3,3.5,22.8L138.1,112.3z"/>
			<path class="st4" d="M137.9,112.1c0,0-1.9-22.4,0.4-32.6c-0.8,0.6-1.9,0.8-3.1,0.8c-1.5,0-3.1-0.4-4.6-0.9
				c-0.2,1.5-0.7,5.1-0.6,10.3c0.1,5.6,1.1,14.3,3.5,22.8L137.9,112.1z"/>
		</g>
		<path class="st13" d="M134,57.8c1.8,0.7,2.9,0.9,4,3.4c1.8,3.7,1.5,10.9,1.5,10.9c-0.1,2.1-0.2,4.4-0.6,6.9
			c-0.1,0.5-0.3,0.9-0.6,1.3c-0.6,0.7-1.7,1.2-2.9,1.4c-1.4,0.3-3.1,0.3-4.7,0.1c-1.3-0.2-2.5-0.5-3.3-0.9c-1.3-0.7-2.2-2-2.2-2
			c-0.4-0.9-0.5-2-0.6-3.5c0-1,0-2.2-0.1-3.6c-0.7-11.9,3.2-13.2,3.2-13.2c0.6-0.3,1.2-0.5,1.7-0.7C129.5,58.1,132.4,57.4,134,57.8z
			"/>
		<path class="st4" d="M134,57.8c1.8,0.7,2.9,0.9,4,3.4c1.8,3.7,1.5,10.9,1.5,10.9c-0.1,2.1-0.2,4.4-0.6,6.9
			c-0.1,0.5-0.3,0.9-0.6,1.3c-0.6,0.7-1.7,1.2-2.9,1.4c-1.4,0.3-3.1,0.3-4.7,0.1c-1.3-0.2-2.5-0.5-3.3-0.9c-1.3-0.7-2.2-2-2.2-2
			c-0.4-0.9-0.5-2-0.6-3.5c0-1,0-2.2-0.1-3.6c-0.7-11.9,3.2-13.2,3.2-13.2c0.6-0.3,1.2-0.5,1.7-0.7C129.5,58.1,132.4,57.4,134,57.8z
			"/>
		<g>
			<path class="st8" d="M133.9,52.7c0.4-1.1-0.7-1.3-0.7-1.3s-0.8-0.1-0.9,0.8l0,0.8l-0.5,0.1c-1.1-1.2-0.4-2.6-0.4-2.6
				c-0.7,0.1-1.3,0.1-1.8,0.1c-1.4-0.1-2.3-0.7-3-1.2c-0.3,0.7-0.5,3.4-0.3,4.6c0.3,1.9,0.9,3.4,3.1,3.5c0,0,0,0,0,0
				c1.4,0.1,2.9-0.6,3.9-1.7c-0.6-0.4-0.7-1-0.7-1.4c0-0.4,0.1-0.7,0.1-0.7S133.5,53.9,133.9,52.7z"/>
			<path class="st3" d="M134.1,56.2c-2-0.7-1.4-2.5-1.4-2.5s0.8,0.3,1.2-0.8c0.4-1.1-0.7-1.3-0.7-1.3s-0.8-0.1-0.9,0.8l0,0.8
				l-0.5,0.1c-1.1-1.2-0.4-2.6-0.4-2.6c-4.1,0.7-5.8-2.2-5.8-2.2c-0.6-0.9,0.3-1.7,0.7-1.8c0,0,0.8-0.3,1.3,0.1c0,0-0.3,0.5-0.2,0.5
				s10-2.5,8.1,3.6C133.7,56.8,134.1,56.2,134.1,56.2z"/>
			<path class="st4" d="M126.7,47.1c0,0,7.2-1.9,8.6,0.7c0.6,1.1,0.9,2.5,0,4.4c-0.5,1-1,1.6-1.2,3.9c-2-0.7-1.4-2.5-1.4-2.5
				s0.8,0.3,1.2-0.8s-0.7-1.3-0.7-1.3s-0.8-0.1-0.9,0.8l0,0.8l-0.5,0.1c-1.1-1.2-0.4-2.6-0.4-2.6c-4.1,0.7-5.8-2.2-5.8-2.2
				c-0.6-0.9,0.3-1.7,0.7-1.8"/>
			<g>
				<ellipse class="st9" cx="126.7" cy="52" rx="0.2" ry="0.2"/>
				<ellipse class="st9" cx="129.9" cy="52.1" rx="0.2" ry="0.2"/>
				<path class="st4" d="M127.9,52.2c0,0,0.6,1-0.4,1.1c-0.8,0-0.7,0-0.8,0.2c0,0.2-0.1,0.5,0.6,0.6c0.5,0.1,0.6,0,0.6,0"/>
				<path class="st4" d="M127.4,55.1c0,0,1.2,0.5,2-0.2"/>
			</g>
			<path class="st8" d="M133.3,58l0-0.4l0.1-1.9c-1.1,1.1-2.6,1.8-3.9,1.7c0,0.2,0,0.5,0,0.8c0,0.3,0,0.6-0.1,0.8
				c-0.8,0.7,0.2,1.5,1.2,1.5C133.3,60.6,133.3,58,133.3,58z"/>
		</g>
		<path class="st13" d="M109.3,120.4c0.5,2.2,7.7,0.3,9.7,0.4c2,0.2,12,1.1,10.7-1.2s-14.9-0.1-16.7-0.1
			C111.3,119.5,108.9,119,109.3,120.4z"/>
		<g>
			<path class="st11" d="M125.9,81.2c-0.1,0.4-0.4,0.3-2.1,0.1c-1.7-0.2-3.7,0-4.1-0.1c-0.4-0.1-0.3-0.4-0.3-0.6s0.4-0.5,1.2-0.4
				c0.8,0.1,4.3,0.5,4.7,0.4S126,80.7,125.9,81.2z"/>
			<path class="st15" d="M125,94.3c0.1,0.5,0.2-12.7,0.2-12.8h-0.4c0,0.1-0.1,13.3-0.2,12.8H125z"/>
			<path class="st16" d="M128.3,103.3c0.5-5.1,0.1-8.1-2.1-8.4s-8.9,0.4-11.6,0c-2.7-0.4-4.1,1-3.9,3.2s0.1,17.2,0,18.6
				c-0.1,1.4-0.3,2.7,2.2,2.5c2.6-0.1,12.5-0.2,13.7,0c1.3,0.2,1.4-0.8,1.5-2.5C128.2,114.9,128.2,105.1,128.3,103.3z"/>
			<path class="st4" d="M128.6,103.2c0.5-5.1,0.1-8.1-2.1-8.4c-2.2-0.4-8.9,0.4-11.6,0c-2.7-0.4-4.1,1-3.9,3.2
				c0.1,2.2,0.1,17.2,0,18.6c-0.1,1.4-0.3,2.7,2.2,2.5c2.6-0.1,12.5-0.2,13.7,0c1.3,0.2,1.4-0.8,1.5-2.5
				C128.5,114.8,128.4,105,128.6,103.2z"/>
			<path class="st4" d="M125.9,81.1c-0.1,0.4-0.4,0.3-2.1,0.1c-1.7-0.2-3.7,0-4.1-0.1s-0.3-0.4-0.3-0.6s0.4-0.5,1.2-0.4
				c0.8,0.1,4.3,0.5,4.7,0.4S125.9,80.7,125.9,81.1z"/>
			<path class="st4" d="M125.1,94.3c0.1,0.5,0.2-12.7,0.2-12.8"/>
			<path class="st4" d="M124.9,81.6c0,0.1-0.1,13.3-0.2,12.8"/>
			<path class="st15" d="M120,94.3c0.1,0.5,0.2-12.7,0.2-12.8h-0.4c0,0.1-0.1,13.3-0.2,12.8H120z"/>
			<path class="st4" d="M120.1,94.3c0.1,0.5,0.2-12.7,0.2-12.8"/>
			<path class="st4" d="M119.9,81.6c0,0.1-0.1,13.3-0.2,12.8"/>
			<path class="st4" d="M121.7,117.7c0,0,0.1-16.4,0.2-17.4s0-3.3-0.5-3.3c-0.4,0-0.3,2.5-0.2,3.2s-0.3,17.4-0.3,17.4"/>
			<path class="st4" d="M114.5,117.7c0,0,0.1-16.4,0.2-17.4s0-3.3-0.5-3.3c-0.4,0-0.3,2.5-0.2,3.2s-0.3,17.4-0.3,17.4"/>
			<path class="st4" d="M119.1,117.7c0,0,0.1-15.4,0-16.4c-0.1-1-0.1-4.2,0.3-4.2c0.4,0,0.3,6.6,0.2,7.4c-0.1,0.7,0.3,13.3,0.3,13.3
				"/>
			<path class="st4" d="M116.5,117.7c0,0,0.1-15.4,0-16.4c-0.1-1-0.1-4.2,0.3-4.2c0.4,0,0.3,6.6,0.2,7.4c-0.1,0.7,0.3,13.3,0.3,13.3
				"/>
			<path class="st4" d="M127.5,96.6c0,0-0.3-0.4-1.4-0.4s-1.7,0.2-1.7,0.9c0,1-0.2,18.9-0.4,19.9s0.4,1.2,0.4,1.2"/>
			<g>
				<path class="st12" d="M124.1,119.3c0,0.6,0.4,1,1,1c0.6,0,1-0.4,1-1H124.1z"/>
				<path class="st4" d="M124.2,119.2c0,0.6,0.4,1,1,1c0.6,0,1-0.4,1-1H124.2z"/>
			</g>
			<g>
				<path class="st12" d="M113.9,119.3c0,0.6,0.4,1,1,1c0.6,0,1-0.4,1-1H113.9z"/>
				<path class="st4" d="M114,119.2c0,0.6,0.4,1,1,1c0.6,0,1-0.4,1-1H114z"/>
			</g>
		</g>
		<path class="st17" d="M127.4,82.8c-0.8,0.4-2.2,0.8-3.8,1c0,1.1-0.1,2-0.1,2l-0.9,0.1c0,0,0.1-0.9,0.2-2c-1.3,0.1-2.7,0.2-4,0.2
			c-0.3,0-0.6,0-0.9,0c-1.4,0-2.7-0.1-3.7-0.3c-3.6-0.6-2.3,2.1-2.9,4.1c-0.3,0.8-0.8,4.7-0.3,6.4c0.5,1.7,12.3,0.4,15.8,0.4
			c3.5,0,3.3-4.8,3.1-7.5S130,81.5,127.4,82.8z"/>
		<path class="st4" d="M127.3,82.6c-0.8,0.4-2.2,0.8-3.8,1c0,1.1-0.1,2-0.1,2l-0.9,0.1c0,0,0.1-0.9,0.2-2c-1.3,0.1-2.7,0.2-4,0.2
			c-0.3,0-0.6,0-0.9,0c-1.4,0-2.7-0.1-3.7-0.3c-3.6-0.6-2.3,2.1-2.9,4.1c-0.3,0.8-0.8,4.7-0.3,6.4c0.5,1.7,12.3,0.4,15.8,0.4
			c3.5,0,3.3-4.8,3.1-7.5C129.6,84.3,129.9,81.3,127.3,82.6z"/>
		<path class="st8" d="M122.1,78.5c0,0-0.4-0.4-1.1-0.9c0,0,0,0,0,0c-2.1-1.1-3,4.8-3.2,6.3c0.3,0,0.6,0,0.9,0c0.2-0.9,1-4,1.1-4.6
			c0,0,0,0,0,0c-0.1-0.3-0.1-0.6-0.1-0.8c0-0.8,0.7-0.9,1.1-0.9c0,0,0,0,0,0c0,0,0,0,0,0c0.3,0,1.4,0.9,1.8,2.7c0,0,0,0,0,0
			c0.2,0.9,0.2,2.3,0.1,3.4c-0.1,1.1-0.2,2-0.2,2l0.9-0.1c0,0,0.1-0.9,0.1-2c0-1.2,0-2.7-0.4-3.6C122.9,79.6,122.6,79,122.1,78.5z"
			/>
		<path class="st4" d="M112.8,84.2c0,0,3.6,2,9.4,0.7"/>
		<path class="st4" d="M112.8,87.8c0,0,12.2,0.6,16.6-0.2"/>
		<g>
			<g>
				<path class="st12" d="M138.8,66.1c-0.1-0.4-0.7-1.6-1.4-2.6c-0.9-1.3-2.1-2.3-3-1.1c-1.6,1.9,0.7,7.4-0.1,9.9
					c-0.2,0.7-0.9,1.7-1.8,2.7c-2.2,2.5-5.9,5.3-7.7,5.4l0.7,1.3l0.3,0.7l0.1,0.2l0.5,0.9c0,0,0.3-0.1,0.7-0.3
					c0.6-0.2,1.6-0.7,2.7-1.2c3.3-1.6,8-4.4,9.3-7.7c0-0.1,0.1-0.2,0.1-0.3C140.5,69.7,139.1,66.9,138.8,66.1z"/>
				<path class="st4" d="M138.9,65.9c-0.1-0.4-0.7-1.6-1.4-2.6c-0.9-1.3-2.1-2.3-3-1.1c-1.6,1.9,0.7,7.4-0.1,9.9
					c-0.2,0.7-0.9,1.7-1.8,2.7c-2.2,2.5-5.9,5.3-7.7,5.4l0.7,1.3l0.3,0.7l0.1,0.2l0.5,0.9c0,0,0.3-0.1,0.7-0.3
					c0.6-0.2,1.6-0.7,2.7-1.2c3.3-1.6,8-4.4,9.3-7.7c0-0.1,0.1-0.2,0.1-0.3C140.5,69.6,139.2,66.7,138.9,65.9z"/>
			</g>
			<path class="st2" d="M124.9,80.6l1.3,2.5c0,0-1.6,1.9-3.4,1.6c-1.8-0.3-3-3.3-2-3.5C121.8,81.1,123.7,80.7,124.9,80.6z"/>
		</g>
	</g>
	<g>
		<circle class="st18" cx="58.8" cy="28.4" r="3.5"/>
		<g>
			<circle class="st19" cx="58.8" cy="28.4" r="10"/>
			<path class="st20" d="M59.1,5.8c0,0,0.3,9.9-0.1,14.3"/>
			<path class="st0" d="M54.2,28.5c-0.3-0.6-0.4-1.4-0.4-2.1c0-2.8,2.2-5.1,4.9-5.1s4.9,2.3,4.9,5.1c0,0.8-0.2,1.5-0.4,2.1
				c-1.3-0.2-2.8-0.3-4.5-0.3S55.5,28.3,54.2,28.5z"/>
			<path class="st20" d="M54.4,28.4c-0.3-0.6-0.4-1.4-0.4-2.1c0-2.8,2.2-5.1,4.9-5.1s4.9,2.3,4.9,5.1c0,0.8-0.2,1.5-0.4,2.1
				C62,28.2,60.5,28,58.8,28S55.7,28.2,54.4,28.4z"/>
		</g>
	</g>
	<g>
		<circle class="st18" cx="98.8" cy="28.4" r="3.5"/>
		<g>
			<circle class="st19" cx="98.8" cy="28.4" r="10"/>
			<path class="st20" d="M98.6,0c0,0,0.8,15.7,0.4,20.1"/>
			<path class="st0" d="M94.1,28.5c-0.3-0.6-0.4-1.4-0.4-2.1c0-2.8,2.2-5.1,4.9-5.1c2.7,0,4.9,2.3,4.9,5.1c0,0.8-0.2,1.5-0.4,2.1
				c-1.3-0.2-2.8-0.3-4.5-0.3C97,28.2,95.5,28.3,94.1,28.5z"/>
			<path class="st20" d="M94.3,28.4c-0.3-0.6-0.4-1.4-0.4-2.1c0-2.8,2.2-5.1,4.9-5.1c2.7,0,4.9,2.3,4.9,5.1c0,0.8-0.2,1.5-0.4,2.1
				c-1.3-0.2-2.8-0.3-4.5-0.3C97.2,28,95.7,28.2,94.3,28.4z"/>
		</g>
	</g>
	<g>
		<circle class="st18" cx="138.8" cy="28.4" r="3.5"/>
		<g>
			<circle class="st19" cx="138.8" cy="28.4" r="10"/>
			<path class="st20" d="M138.6,4.5c0,0,0.8,11.2,0.4,15.6"/>
			<path class="st0" d="M134.1,28.5c-0.3-0.6-0.4-1.4-0.4-2.1c0-2.8,2.2-5.1,4.9-5.1c2.7,0,4.9,2.3,4.9,5.1c0,0.8-0.2,1.5-0.4,2.1
				c-1.3-0.2-2.8-0.3-4.5-0.3C136.9,28.2,135.4,28.3,134.1,28.5z"/>
			<path class="st20" d="M134.3,28.4c-0.3-0.6-0.4-1.4-0.4-2.1c0-2.8,2.2-5.1,4.9-5.1s4.9,2.3,4.9,5.1c0,0.8-0.2,1.5-0.4,2.1
				c-1.3-0.2-2.8-0.3-4.5-0.3S135.6,28.2,134.3,28.4z"/>
		</g>
	</g>
</g>
</svg>
