<svg width="196" height="116" viewBox="0 0 196 116" fill="none" xmlns="http://www.w3.org/2000/svg">
<g clip-path="url(#clip0_191_7580)">
<path d="M195.48 37.9299C197.05 78.3399 168.32 100.61 139.9 94.2999C111.48 87.9899 91.2701 94.8599 79.6001 101.12C67.9301 107.38 -4.14991 96.6999 5.75009 57.5699C15.6601 18.4399 31.9101 -13.5701 72.6701 5.82993C113.43 25.2299 140.84 6.46993 163.64 2.96993C186.44 -0.530066 194.6 14.9799 195.49 37.9299H195.48Z" fill="#DCE1D7"/>
<path d="M7.04034 95.6798C18.5203 110.23 24.2903 105.32 43.1203 112.22C61.9603 119.12 186.07 116.43 187.03 88.7998C188.43 48.2398 65.5103 70.1298 48.6303 72.3198C19.0003 76.1598 -14.9797 67.7698 7.04034 95.6698V95.6798Z" fill="#899284"/>
<path d="M38.3202 69.9501C41.5702 72.0501 41.5202 51.3101 45.8002 55.1101C50.0802 58.9101 43.8502 58.7601 44.8202 56.9401C45.8002 55.1101 45.3102 50.5501 51.5002 53.1401C57.6902 55.7301 60.9402 59.9801 58.0202 59.6801C55.1002 59.3801 52.7402 58.0101 59.7002 57.0901C66.6602 56.1801 70.9202 65.0801 68.9402 64.2001C66.9602 63.3201 70.0502 63.5801 73.7602 62.5401C77.4702 61.5001 73.9502 53.5601 75.4802 52.3601C77.0102 51.1601 81.4402 52.9801 77.1702 53.2901C72.9002 53.6001 75.1702 48.5701 78.9802 48.5701C82.7902 48.5701 98.8902 47.2001 94.1902 51.9201C89.4902 56.6401 92.7902 50.4001 96.1602 51.3101C99.5302 52.2201 101.99 52.2201 99.3902 56.1801C96.7902 60.1401 96.4002 54.6601 97.8902 55.4201C99.3902 56.1801 112.38 51.1601 110.89 56.9401C110.89 56.9401 118.09 57.3301 116.33 60.7801C114.57 64.2301 114.13 59.2901 117.47 59.1701C120.81 59.0501 129.4 62.0701 125.37 66.4501C121.34 70.8301 122.53 61.2401 129.41 58.3401C136.29 55.4401 131.83 60.0001 130.62 59.1701C129.41 58.3401 132.13 43.3901 137.95 45.7601C143.77 48.1401 135.26 49.6301 137.58 47.5201C139.9 45.4101 149.21 42.3301 148.34 48.4901C147.47 54.6501 152.46 56.1101 149.88 57.4001C147.29 58.6901 151.2 55.3201 152.02 57.4001C152.84 59.4801 159.76 58.81 155.55 64.34C151.34 69.87 157.96 69.9001 155.04 71.3301C152.13 72.7701 158.94 68.3201 157.69 71.9901C156.44 75.6601 146.94 80.7101 142.19 77.5701C137.44 74.4301 143.41 75.4301 142.8 76.5001C142.19 77.5701 126.42 82.1701 124.1 78.2601C121.78 74.3501 123.56 71.8601 123.55 73.6801C123.54 75.5001 117.12 76.8701 111.67 74.6901C106.21 72.5101 106.48 70.2701 108.11 72.4501C109.74 74.6201 112.8 74.3501 106.7 75.7201C100.59 77.0901 99.6702 74.6201 101.47 75.0601C103.27 75.5001 104 75.3801 100.71 79.3701C97.4202 83.3601 89.6102 77.3501 91.5002 75.7601C93.3902 74.1701 93.4302 75.31 91.8902 76.84C90.3502 78.37 85.9502 81.2101 84.7602 79.0601C83.5702 76.9101 85.5602 74.7801 84.7602 77.2101C83.9602 79.6301 71.6402 82.0201 71.0702 79.5001C70.5002 76.9801 72.2802 76.5201 71.6702 78.0101C71.0702 79.5001 61.4702 82.6601 59.2502 80.9701C57.0302 79.2801 61.6102 78.9101 61.1802 79.9101C60.7502 80.9101 56.9202 83.6201 53.7702 82.4201C50.6202 81.2201 47.2302 80.1401 48.5302 80.1901C49.8302 80.2501 54.0902 77.8101 49.7602 82.1101C45.4302 86.4101 41.9102 88.7001 42.0802 86.3201C42.2602 83.9401 46.9802 83.4501 43.4302 83.8101C39.8802 84.1701 36.8802 86.1501 37.5002 82.5401C37.5002 82.5401 31.2102 75.38 33.7902 73.0201C36.3702 70.6601 36.1302 68.5501 38.3202 69.9601V69.9501Z" fill="#899284"/>
<path d="M82.1404 52.7698C83.3104 51.0598 82.8204 54.4198 82.1204 54.1398C81.4204 53.8598 82.8804 53.8298 85.1204 52.8798C87.3604 51.9298 90.2804 52.2798 90.2804 52.2798C93.1804 51.0798 93.2904 53.8898 93.2904 53.8898C94.2204 53.3898 95.0604 53.5398 94.9704 54.6798C94.8804 55.8198 94.0904 56.5798 94.0904 55.6298C94.0904 54.6798 96.4504 53.5698 100.4 55.6198C104.35 57.6598 97.8904 61.4998 95.8704 60.6298C93.8504 59.7598 96.7004 56.7698 98.7704 58.3298C100.84 59.8898 100.91 60.3898 99.1504 62.2698C97.3904 64.1498 91.5404 59.6198 93.0204 61.0498C94.5104 62.4798 90.2604 62.8098 88.8804 62.8698C87.5004 62.9298 89.0804 62.3698 89.0804 62.3698C89.0804 62.3698 91.4404 63.5498 88.1904 63.5498C84.9404 63.5498 86.4304 60.7498 86.4304 60.7498C87.5304 62.2898 85.2004 60.9198 85.2004 60.9198C85.3804 61.4498 84.5004 63.6698 83.7304 64.1998C82.9704 64.7298 82.1204 62.7398 82.1204 62.7398C82.1204 62.7398 79.7004 60.8598 80.1104 57.8298C80.1104 57.8298 77.8504 58.6198 79.4904 56.7598C81.1304 54.8998 78.0304 52.6998 82.1204 52.7698H82.1404Z" fill="#91A188"/>
<g style="mix-blend-mode:lighten" opacity="0.2">
<path d="M92.2601 54.4099C91.6601 54.7899 89.8401 54.2399 90.3801 53.7199C90.9201 53.1999 92.2601 52.6899 92.2601 53.2099C92.2601 53.7299 92.5301 54.2399 92.2601 54.4099V54.4099Z" fill="#C9DFCE"/>
</g>
<g style="mix-blend-mode:lighten" opacity="0.2">
<path d="M85.9901 56.1299C84.9901 56.7699 81.9501 55.8399 82.8501 54.9899C83.7501 54.1299 85.9901 53.2699 85.9901 54.1299C85.9901 54.9899 86.4401 55.8499 85.9901 56.1299Z" fill="#C9DFCE"/>
</g>
<g style="mix-blend-mode:lighten" opacity="0.2">
<path d="M100.261 55.9599C100.961 55.6699 100.721 56.5199 99.8605 56.9499C99.0005 57.3799 97.9005 57.6799 98.6105 57.1599C99.3205 56.6399 99.9505 56.0799 100.261 55.9599Z" fill="#C9DFCE"/>
</g>
<g style="mix-blend-mode:lighten" opacity="0.2">
<path d="M92.3205 60.6799C92.6605 60.5499 93.1105 60.9999 92.7505 61.1999C92.3905 61.3999 91.7405 61.5099 91.9205 61.2599C92.1005 61.0099 92.1805 60.7299 92.3305 60.6799H92.3205Z" fill="#C9DFCE"/>
</g>
<g style="mix-blend-mode:lighten" opacity="0.2">
<path d="M89.9407 52.4697C90.2807 52.3397 90.7307 52.7897 90.3707 52.9897C90.0107 53.1897 89.3607 53.2997 89.5407 53.0497C89.7207 52.7997 89.8007 52.5197 89.9507 52.4697H89.9407Z" fill="#C9DFCE"/>
</g>
<g style="mix-blend-mode:lighten" opacity="0.2">
<path d="M99.3601 60.4099C99.8101 60.1199 100.08 60.8 99.5601 61.22C99.0401 61.64 98.2501 61.9799 98.5801 61.5099C98.9101 61.0399 99.1501 60.5399 99.3501 60.4099H99.3601Z" fill="#C9DFCE"/>
</g>
<path d="M82.3601 52.7698C83.5301 51.0598 83.0401 54.4198 82.3401 54.1398C81.6401 53.8598 83.1001 53.8298 85.3401 52.8798C87.5801 51.9298 90.5001 52.2798 90.5001 52.2798C93.4001 51.0798 93.5101 53.8898 93.5101 53.8898C94.4401 53.3898 95.2801 53.5398 95.1901 54.6798C95.1001 55.8198 94.3101 56.5798 94.3101 55.6298C94.3101 54.6798 96.6701 53.5698 100.62 55.6198C104.57 57.6598 98.1101 61.4998 96.0901 60.6298C94.0701 59.7598 96.9201 56.7698 98.9901 58.3298C101.05 59.8998 101.13 60.3898 99.3701 62.2698C97.6101 64.1498 91.7601 59.6198 93.2401 61.0498C94.7301 62.4798 90.4801 62.8098 89.1001 62.8698C87.7201 62.9298 89.3001 62.3698 89.3001 62.3698C89.3001 62.3698 91.6601 63.5498 88.4101 63.5498C85.1601 63.5498 86.6501 60.7498 86.6501 60.7498C87.7501 62.2898 85.4201 60.9198 85.4201 60.9198C85.6001 61.4498 84.7201 63.6698 83.9501 64.1998C83.1801 64.7298 82.3401 62.7398 82.3401 62.7398C82.3401 62.7398 79.9201 60.8598 80.3301 57.8298C80.3301 57.8298 78.0701 58.6198 79.7101 56.7598C81.3501 54.8998 78.2501 52.6998 82.3401 52.7698H82.3601Z" stroke="#1A1A1A" stroke-width="0.2" stroke-miterlimit="10"/>
<path d="M38.0204 69.5499C41.2704 71.6499 41.2204 50.9099 45.5004 54.7099C49.7804 58.5099 43.5504 58.3599 44.5204 56.5399C45.5004 54.7099 45.0104 50.1499 51.2004 52.7399C57.3904 55.3299 60.6404 59.5799 57.7204 59.2799C54.8004 58.9799 52.4404 57.6099 59.4004 56.6899C66.3604 55.7699 70.6204 64.6799 68.6404 63.7999C66.6604 62.9299 69.7504 63.1799 73.4604 62.1399C77.1604 61.0999 73.6504 53.1599 75.1804 51.9599C76.7104 50.7599 81.1404 52.5799 76.8704 52.8899C72.6004 53.1999 74.8704 48.1699 78.6804 48.1699C82.4904 48.1699 98.5904 46.7999 93.8904 51.5199C89.1904 56.2399 92.4904 49.9999 95.8604 50.9099C99.2304 51.8199 101.69 51.8199 99.0904 55.7799C96.4904 59.7299 96.1004 54.2599 97.5904 55.0199C99.0904 55.7799 112.08 50.7599 110.59 56.5399C110.59 56.5399 117.79 56.9299 116.03 60.3799C114.27 63.8299 113.83 58.8899 117.17 58.7699C120.51 58.6499 129.1 61.6699 125.07 66.0499C121.04 70.4299 122.23 60.8399 129.11 57.9399C135.99 55.0399 131.53 59.5999 130.32 58.7699C129.11 57.9399 131.83 42.9899 137.65 45.3599C143.47 47.7399 134.96 49.2299 137.28 47.1199C139.6 45.0099 148.91 41.9299 148.04 48.0899C147.17 54.2499 152.16 55.7099 149.58 56.9999C146.99 58.2899 150.9 54.9199 151.72 56.9999C152.54 59.0799 159.46 58.4099 155.25 63.9399C151.04 69.4699 157.66 69.4999 154.74 70.9299C151.83 72.3699 158.64 67.9199 157.39 71.5899C156.14 75.2599 146.64 80.3099 141.89 77.1699C137.14 74.0299 143.11 75.0299 142.5 76.0999C141.89 77.1699 126.12 81.7699 123.8 77.8599C121.48 73.9499 123.26 71.4599 123.25 73.2799C123.24 75.0999 116.82 76.4699 111.37 74.2899C105.91 72.1099 106.18 69.8699 107.81 72.0499C109.44 74.2299 112.5 73.9499 106.4 75.3199C100.29 76.6899 99.3704 74.2199 101.17 74.6599C102.97 75.0999 103.7 74.9799 100.41 78.9699C97.1204 82.9599 89.3104 76.9499 91.2004 75.3599C93.0904 73.7699 93.1304 74.9099 91.5904 76.4399C90.0504 77.9699 85.6504 80.8099 84.4604 78.6599C83.2704 76.5099 85.2604 74.3799 84.4604 76.8099C83.6604 79.2299 71.3404 81.6199 70.7704 79.0999C70.2004 76.5899 71.9804 76.1199 71.3704 77.6099C70.7604 79.0999 61.1704 82.2599 58.9504 80.5699C56.7304 78.8799 61.3104 78.5099 60.8804 79.5099C60.4504 80.5099 56.6204 83.2199 53.4704 82.0199C50.3204 80.8199 46.9304 79.7399 48.2304 79.7899C49.5304 79.8499 53.7904 77.4099 49.4604 81.7099C45.1304 86.0099 41.6104 88.2999 41.7804 85.9199C41.9504 83.5399 46.6804 83.0499 43.1304 83.4099C39.5804 83.7699 36.5804 85.7499 37.2004 82.1399C37.2004 82.1399 30.9104 74.9799 33.4904 72.6199C36.0604 70.2599 35.8304 68.1499 38.0204 69.5599V69.5499Z" stroke="#1A1A1A" stroke-width="0.2" stroke-miterlimit="10"/>
<path d="M27.4404 95.8599V97.4699C27.4404 97.4699 98.5304 106.88 111.48 106.68C111.48 106.68 165.78 92.1799 168.57 91.3999V89.8699" fill="#E1DFCD"/>
<path d="M27.4404 95.8599V97.4699C27.4404 97.4699 98.5304 106.88 111.48 106.68C111.48 106.68 165.78 92.1799 168.57 91.3999V89.8699" fill="#E1DFCD"/>
<path d="M27.4404 95.8599C27.4404 95.8599 89.7704 85.8299 94.9504 84.8699C100.13 83.9099 168.57 89.8799 168.57 89.8799" fill="#E1DFCD"/>
<path d="M26.9805 97.4799C26.9805 97.4799 98.0705 106.89 111.02 106.69C111.02 106.69 165.32 92.1899 168.11 91.4099V89.8799L111.02 104.88L26.9805 95.8699V97.4799V97.4799Z" stroke="#1A1A1A" stroke-width="0.2" stroke-linecap="round" stroke-linejoin="round"/>
<path d="M27.4404 97.9198C27.4404 97.9198 98.5304 107.33 111.48 107.13C111.48 107.13 165.78 92.6298 168.57 91.8498V90.3198L111.48 105.32L27.4404 96.3098V97.9198V97.9198Z" fill="#D2CFC0"/>
<path d="M26.9805 97.4799C26.9805 97.4799 98.0705 106.89 111.02 106.69C111.02 106.69 165.32 92.1899 168.11 91.4099V89.8799L111.02 104.88L26.9805 95.8699V97.4799V97.4799Z" stroke="#1A1A1A" stroke-width="0.2" stroke-linecap="round" stroke-linejoin="round"/>
<path d="M29.29 95.3799C29.29 95.3799 89.31 85.8399 94.49 84.8799C99.67 83.9199 167.36 89.6099 167.36 89.6099" stroke="#1A1A1A" stroke-width="0.2" stroke-linecap="round" stroke-linejoin="round"/>
<path d="M41.9503 46.04C41.8103 50.52 41.9803 94.36 41.9503 94.83C41.9203 95.3 41.7003 95.49 41.1703 95.49C40.6403 95.49 39.8403 95.54 39.7803 94.83C39.7803 94.83 40.1403 51.04 40.1403 46.04" fill="#E0CFB9"/>
<path d="M41.8204 46.04C41.6804 50.52 41.8504 94.36 41.8204 94.83C41.7904 95.3 41.5704 95.49 41.0404 95.49C40.5104 95.49 39.7104 95.54 39.6504 94.83C39.6504 94.83 40.0104 51.04 40.0104 46.04" stroke="#1A1A1A" stroke-width="0.2" stroke-linecap="round" stroke-linejoin="round"/>
<g style="mix-blend-mode:multiply" opacity="0.3">
<path d="M90.3008 93.6099C89.5308 93.5599 85.2608 93.2099 82.9808 93.4699C82.1308 93.4999 79.3008 93.4699 76.2908 93.7999C74.3808 94.0199 70.5708 93.9199 69.5508 93.9399C68.5308 93.9599 66.1808 93.6999 66.1808 93.6999C65.6108 93.6199 64.5208 93.6699 63.5008 93.5999C62.4308 93.5399 54.6608 92.8899 54.7508 94.0899C54.8108 94.9099 62.6308 94.9399 63.8408 94.8499C64.4808 94.7999 64.8208 94.8099 65.1308 94.7799C66.0608 94.7099 68.1208 94.7299 69.2608 94.6499C70.4008 94.5699 75.2208 94.6599 77.4508 94.7699C79.8308 94.8799 83.2508 95.0199 83.2508 95.0199C85.6608 95.3099 89.8308 94.9299 90.6608 94.7899C91.8508 94.5899 92.2208 94.7299 92.9408 94.2999C94.3308 93.4699 92.1808 93.7199 90.3108 93.6099H90.3008Z" fill="#899284"/>
</g>
<path d="M66.1606 66.03C65.8706 64.86 64.4006 61.76 64.2806 61.23C64.0706 60.53 64.0706 59.83 64.1406 58.76C64.2206 57.65 63.3606 57.39 62.7706 57.48C62.1906 57.57 62.6306 59.18 62.6306 59.18C62.6306 59.18 62.2706 58.63 62.2206 59.18C62.1606 59.73 62.3006 60.33 62.6206 60.55C62.9406 60.78 63.3606 61.4 63.4206 61.58C63.9306 62.98 63.8706 64.27 64.1006 65.02C64.7706 66.95 64.4206 71.24 64.5106 72.01C64.6006 72.78 64.9506 72.97 64.9506 72.97C65.6506 73.41 66.5606 72.8 66.7406 71.61C66.9106 70.43 66.4806 67.24 66.1706 66.02L66.1606 66.03Z" fill="#FBFBFA" stroke="#1A1A1A" stroke-width="0.2" stroke-linecap="round" stroke-linejoin="round"/>
<path d="M64.4811 72.91C63.9811 72.44 64.1311 70.12 64.0811 69.29C64.0811 69.29 67.5411 69.46 67.7811 69.91C68.0211 70.36 67.0111 72.22 66.4111 72.77C65.8111 73.32 64.8711 73.28 64.4811 72.91V72.91Z" fill="#E3E2E1"/>
<path d="M64.6314 72.91C64.1314 72.44 64.2814 70.12 64.2314 69.29C64.2314 69.29 67.6914 69.46 67.9314 69.91C68.1714 70.36 67.1614 72.22 66.5614 72.77C65.9614 73.32 65.0214 73.28 64.6314 72.91V72.91Z" stroke="#1A1A1A" stroke-width="0.2" stroke-linecap="round" stroke-linejoin="round"/>
<path d="M88.1206 93.5C89.3306 93.42 90.6506 93.61 89.3906 93.96C88.1306 94.31 84.2306 94.34 83.4606 94.08L83.1406 91.83L84.9306 91.5C84.9306 91.5 86.9106 93.59 88.1206 93.5V93.5Z" fill="#C4B19C"/>
<path d="M88.1206 93.5C89.3306 93.42 90.6506 93.61 89.3906 93.96C88.1306 94.31 84.2306 94.34 83.4606 94.08L83.1406 91.83L84.9306 91.5C84.9306 91.5 86.9106 93.59 88.1206 93.5V93.5Z" fill="#C4B19C"/>
<path d="M88.1206 93.5C89.3306 93.42 90.6506 93.61 89.3906 93.96C88.1306 94.31 84.2306 94.34 83.4606 94.08L83.1406 91.83L84.9306 91.5C84.9306 91.5 86.9106 93.59 88.1206 93.5V93.5Z" fill="#C4B19C"/>
<path d="M88.1206 93.5C89.3306 93.42 90.6506 93.61 89.3906 93.96C88.1306 94.31 84.2306 94.34 83.4606 94.08L83.1406 91.83L84.9306 91.5C84.9306 91.5 86.9106 93.59 88.1206 93.5V93.5Z" fill="#FBFBFA"/>
<path d="M88.231 93.3801C89.441 93.3001 90.761 93.4901 89.501 93.8401C88.241 94.1901 84.341 94.2201 83.571 93.9601L83.251 91.7101L85.041 91.3801C85.041 91.3801 87.021 93.4701 88.231 93.3801Z" stroke="#1A1A1A" stroke-width="0.2" stroke-linecap="round" stroke-linejoin="round"/>
<path d="M88.231 93.3801C89.441 93.3001 90.761 93.4901 89.501 93.8401C88.241 94.1901 84.341 94.2201 83.571 93.9601L83.251 91.7101L85.041 91.3801C85.041 91.3801 87.021 93.4701 88.231 93.3801Z" stroke="#1A1A1A" stroke-width="0.2" stroke-linecap="round" stroke-linejoin="round"/>
<path d="M88.231 93.3801C89.441 93.3001 90.761 93.4901 89.501 93.8401C88.241 94.1901 84.341 94.2201 83.571 93.9601L83.251 91.7101L85.041 91.3801C85.041 91.3801 87.021 93.4701 88.231 93.3801Z" stroke="#1A1A1A" stroke-width="0.2" stroke-linecap="round" stroke-linejoin="round"/>
<path d="M88.231 93.3801C89.441 93.3001 90.761 93.4901 89.501 93.8401C88.241 94.1901 84.341 94.2201 83.571 93.9601L83.251 91.7101L85.041 91.3801C85.041 91.3801 87.021 93.4701 88.231 93.3801Z" stroke="#1A1A1A" stroke-width="0.2" stroke-linecap="round" stroke-linejoin="round"/>
<path d="M58.8506 92.83C57.7006 92.45 56.3706 92.29 57.5006 92.95C58.6306 93.61 62.4006 94.62 63.2106 94.57L64.0906 92.47L62.4406 91.7C62.4406 91.7 59.9906 93.22 58.8506 92.83V92.83Z" fill="#C4B19C"/>
<path d="M58.8506 92.83C57.7006 92.45 56.3706 92.29 57.5006 92.95C58.6306 93.61 62.4006 94.62 63.2106 94.57L64.0906 92.47L62.4406 91.7C62.4406 91.7 59.9906 93.22 58.8506 92.83V92.83Z" fill="#C4B19C"/>
<path d="M58.8506 92.83C57.7006 92.45 56.3706 92.29 57.5006 92.95C58.6306 93.61 62.4006 94.62 63.2106 94.57L64.0906 92.47L62.4406 91.7C62.4406 91.7 59.9906 93.22 58.8506 92.83V92.83Z" fill="#C4B19C"/>
<path d="M58.8506 92.83C57.7006 92.45 56.3706 92.29 57.5006 92.95C58.6306 93.61 62.4006 94.62 63.2106 94.57L64.0906 92.47L62.4406 91.7C62.4406 91.7 59.9906 93.22 58.8506 92.83V92.83Z" fill="#FBFBFA"/>
<path d="M58.7812 92.6901C57.6312 92.3101 56.3012 92.1501 57.4312 92.8101C58.5612 93.4701 62.3312 94.4801 63.1412 94.4301L64.0212 92.3301L62.3712 91.5601C62.3712 91.5601 59.9212 93.0801 58.7812 92.6901V92.6901Z" stroke="#1A1A1A" stroke-width="0.2" stroke-linecap="round" stroke-linejoin="round"/>
<path d="M58.7812 92.6901C57.6312 92.3101 56.3012 92.1501 57.4312 92.8101C58.5612 93.4701 62.3312 94.4801 63.1412 94.4301L64.0212 92.3301L62.3712 91.5601C62.3712 91.5601 59.9212 93.0801 58.7812 92.6901V92.6901Z" stroke="#1A1A1A" stroke-width="0.2" stroke-linecap="round" stroke-linejoin="round"/>
<path d="M58.7812 92.6901C57.6312 92.3101 56.3012 92.1501 57.4312 92.8101C58.5612 93.4701 62.3312 94.4801 63.1412 94.4301L64.0212 92.3301L62.3712 91.5601C62.3712 91.5601 59.9212 93.0801 58.7812 92.6901V92.6901Z" stroke="#1A1A1A" stroke-width="0.2" stroke-linecap="round" stroke-linejoin="round"/>
<path d="M75.6105 73.48C75.8905 73.69 77.8505 74.99 79.0005 77.29C80.1505 79.58 83.3605 85.57 84.0005 86.57C84.6405 87.57 86.6005 90.94 86.6005 90.94C86.6005 90.94 84.0305 91.55 83.0105 92.29C83.0105 92.29 81.9105 91.6 81.2605 89.27C80.5705 86.8 79.4405 84.51 79.0605 83.82C78.6805 83.13 76.3905 79.56 75.6205 79.46C74.8505 79.36 71.4905 85.65 70.1605 87.49C68.8305 89.33 66.9605 93.19 64.7205 93.35C62.7605 93.48 61.7705 91.32 61.7705 91.32C61.7705 91.32 64.7005 88.82 66.1205 87.06C67.5405 85.3 68.6905 82.91 70.0605 81.1C71.4305 79.29 70.4905 80.05 71.2305 79.21C71.9705 78.37 75.6205 73.49 75.6205 73.49L75.6105 73.48Z" fill="#BFCCE1"/>
<path d="M75.6105 73.48C75.8905 73.69 77.8505 74.99 79.0005 77.29C80.1505 79.58 83.3605 85.57 84.0005 86.57C84.6405 87.57 86.6005 90.94 86.6005 90.94C86.6005 90.94 84.0005 91.69 82.9805 92.43C82.9805 92.43 81.8105 91.75 81.1105 89.29C80.4105 86.83 79.4405 84.51 79.0605 83.82C78.6805 83.13 76.3905 79.56 75.6205 79.46C74.8505 79.36 71.4905 85.65 70.1605 87.49C68.8305 89.33 67.0005 93.45 64.8605 93.48C62.7205 93.51 61.7705 91.31 61.7705 91.31C61.7705 91.31 64.7005 88.81 66.1205 87.05C67.5405 85.29 68.6905 82.9 70.0605 81.09C71.4305 79.28 70.4905 80.04 71.2305 79.2C71.9705 78.36 75.6205 73.48 75.6205 73.48H75.6105Z" stroke="#1A1A1A" stroke-width="0.2" stroke-linecap="round" stroke-linejoin="round"/>
<path d="M63.9006 75.7599C64.1806 76.7299 64.2206 77.3199 65.4606 78.0399C67.2706 79.1999 70.8406 79.3799 70.8406 79.3799C71.5706 79.3799 72.0106 79.1099 72.6506 78.3499C72.8106 78.1599 73.0706 77.9199 73.2206 77.7099C73.4306 77.4199 73.5806 77.1299 73.8506 76.5199C74.1506 75.8099 74.1606 75.7699 74.5806 75.0799C74.9306 74.4999 75.5906 73.9099 75.5606 73.2699C75.5006 72.6899 74.8006 72.3099 74.8006 72.3099C74.4206 72.1299 74.3206 72.1199 73.5706 72.0299C73.0606 71.9699 72.4706 71.8999 71.7406 71.7599C65.6806 70.5599 64.7106 72.5999 64.7106 72.5999C64.5406 72.9099 64.3906 73.1999 64.2706 73.4699C64.2706 73.4699 63.7806 74.9399 63.9106 75.7699L63.9006 75.7599Z" fill="#BCB5B1"/>
<path d="M63.8604 75.72C63.9304 77.04 64.1803 77.28 65.4203 78C67.2303 79.16 70.5704 79.34 70.5704 79.34C71.6504 79.43 72.2203 78.78 72.2803 78.72C72.4603 78.52 72.7804 78.11 72.9604 77.93C73.3704 77.51 73.5204 77.16 73.7104 76.74C74.0304 76.04 74.0904 75.76 74.6104 74.95C74.9304 74.44 75.6403 73.96 75.6303 73.22C75.6003 72.61 74.6904 72.14 74.6904 72.14C74.3104 71.98 74.3604 71.98 73.6104 71.88C73.0804 71.81 72.4604 71.74 71.7304 71.61C65.6004 70.59 64.6804 72.56 64.6804 72.56C64.5104 72.87 64.3603 73.16 64.2403 73.43C64.2403 73.43 63.8604 74.9 63.8804 75.73L63.8604 75.72Z" stroke="#1A1A1A" stroke-width="0.2" stroke-linecap="round" stroke-linejoin="round"/>
<path d="M61.1905 75.3902C60.5705 75.5102 60.5405 74.9302 60.5405 74.9302C60.5405 74.9302 60.5205 74.5002 60.9905 74.5302L61.3805 74.5502L61.4605 74.3202C60.9105 73.6802 60.1105 73.9802 60.1105 73.9802C60.2105 73.6402 60.2605 73.3302 60.2605 73.0502C60.2805 72.3302 60.0505 71.7902 59.8105 71.4202C60.1705 71.3002 61.6205 71.3402 62.2405 71.5202C63.2005 71.8002 63.9505 72.1702 63.8805 73.3302C63.8805 73.3302 63.8805 73.3302 63.8805 73.3402C63.8305 74.0602 63.4205 74.8002 62.7605 75.2902C62.5705 74.9802 62.2805 74.8702 62.0605 74.8302C61.8605 74.8002 61.7005 74.8302 61.7005 74.8302C61.7005 74.8302 61.8105 75.2702 61.2005 75.3902H61.1905Z" fill="#FBFBFA" stroke="#1A1A1A" stroke-width="0.2" stroke-linecap="round" stroke-linejoin="round"/>
<path d="M63.0005 75.7001C62.7505 74.6501 61.7705 74.8301 61.7705 74.8301C61.7705 74.8301 61.8805 75.2701 61.2705 75.3901C60.6605 75.5101 60.6205 74.9301 60.6205 74.9301C60.6205 74.9301 60.6005 74.5001 61.0705 74.5301L61.4605 74.5501L61.5405 74.3201C60.9905 73.6801 60.1905 73.9801 60.1905 73.9801C60.8005 71.9001 59.3805 70.8401 59.3805 70.8401C58.9605 70.4601 58.4605 70.9001 58.3905 71.1001C58.3905 71.1001 58.1805 71.4801 58.3505 71.8001C58.3505 71.8001 58.6305 71.6601 58.6505 71.7301C58.6705 71.8001 56.8105 76.8001 60.0805 76.1501C63.3605 75.5001 63.0005 75.7001 63.0005 75.7001Z" fill="#C4B19C"/>
<path d="M58.6505 71.3401C58.6505 71.3401 57.2605 74.9801 58.5505 75.8401C59.0805 76.1901 59.8005 76.4601 60.8405 76.1001C61.3805 75.9101 61.7405 75.6701 62.9205 75.7001C62.6705 74.6501 61.6905 74.8301 61.6905 74.8301C61.6905 74.8301 61.8005 75.2701 61.1905 75.3901C60.5805 75.5101 60.5405 74.9301 60.5405 74.9301C60.5405 74.9301 60.5205 74.5001 60.9905 74.5301L61.3805 74.5501L61.4605 74.3201C60.9105 73.6801 60.1105 73.9801 60.1105 73.9801C60.7205 71.9001 59.3005 70.8401 59.3005 70.8401C58.8805 70.4601 58.3805 70.9001 58.3105 71.1001" stroke="#1A1A1A" stroke-width="0.2" stroke-linecap="round" stroke-linejoin="round"/>
<path d="M61.3155 71.6369C61.322 71.5765 61.2783 71.5222 61.2179 71.5157C61.1575 71.5092 61.1033 71.5529 61.0967 71.6133C61.0902 71.6737 61.1339 71.7279 61.1943 71.7344C61.2547 71.7409 61.309 71.6973 61.3155 71.6369Z" fill="#1A1A1A"/>
<path d="M61.2149 73.2731C61.2214 73.2127 61.1777 73.1584 61.1173 73.1519C61.0569 73.1454 61.0027 73.1891 60.9962 73.2495C60.9897 73.3099 61.0333 73.3642 61.0937 73.3707C61.1541 73.3772 61.2084 73.3335 61.2149 73.2731Z" fill="#1A1A1A"/>
<path d="M61.25 72.2199C61.25 72.2199 61.75 72.5699 61.82 72.0899C61.88 71.6699 61.85 71.6999 61.98 71.6899C62.08 71.6899 62.26 71.6899 62.27 72.0599C62.27 72.3299 62.25 72.3699 62.25 72.3699" stroke="#1A1A1A" stroke-width="0.2" stroke-linecap="round" stroke-linejoin="round"/>
<path d="M62.7905 72.1301C62.7905 72.1301 62.9805 72.7801 62.5605 73.1801" stroke="#1A1A1A" stroke-width="0.2" stroke-linecap="round" stroke-linejoin="round"/>
<path d="M63.98 75.3601H63.75L62.75 75.2901C63.41 74.7901 63.82 74.0501 63.87 73.3401C63.96 73.3401 64.12 73.3501 64.29 73.3601C64.44 73.3601 64.59 73.3701 64.71 73.3801C65.1 72.9901 65.46 73.5601 65.4 74.0901C65.31 75.5101 63.98 75.3701 63.98 75.3701V75.3601Z" fill="#FBFBFA" stroke="#1A1A1A" stroke-width="0.2" stroke-linecap="round" stroke-linejoin="round"/>
<path d="M66.041 77.97C65.821 76.79 64.651 76.06 63.971 76.53C63.971 76.53 63.661 76.89 63.601 77.66C63.541 78.43 63.911 82.67 63.451 84.58C63.111 85.99 62.981 87.69 62.801 88.2C62.801 88.2 62.171 88.56 62.101 89.35C62.031 90.14 62.021 90.01 60.671 91.29C60.451 92.16 62.601 90.58 62.961 89.99C63.221 89.59 63.721 88.39 63.721 88.39C63.721 88.39 65.261 84.82 65.501 83.58C65.741 82.35 66.271 79.14 66.051 77.96L66.041 77.97Z" fill="#FBFBFA" stroke="#1A1A1A" stroke-width="0.2" stroke-linecap="round" stroke-linejoin="round"/>
<path d="M75.3203 79.6101C75.3203 79.6101 75.6903 79.2701 76.0103 79.3401" stroke="#1A1A1A" stroke-width="0.2" stroke-linecap="round" stroke-linejoin="round"/>
<path d="M65.4707 76.46C66.0007 76.91 66.4707 78.14 66.4207 80.12C66.4207 80.12 63.4207 80.38 63.2307 79.91C62.9607 79.22 63.3407 77.42 63.6507 76.68C64.0207 75.8 65.0607 76.11 65.4707 76.46Z" fill="#E3E2E1"/>
<path d="M65.4707 76.46C66.0007 76.91 66.4707 78.14 66.4207 80.12C66.4207 80.12 63.4207 80.38 63.2307 79.91C62.9607 79.22 63.3407 77.42 63.6507 76.68C64.0207 75.8 65.0607 76.11 65.4707 76.46Z" stroke="#1A1A1A" stroke-width="0.2" stroke-linecap="round" stroke-linejoin="round"/>
<path d="M88.8602 75.1901C88.8602 75.1901 88.5202 74.81 87.9802 74.77C87.9802 74.77 85.9802 74.7301 85.7002 77.5601C85.5202 79.3401 87.6602 80.0101 88.4102 80.2301C90.2102 80.7501 89.9002 82.7201 90.5802 83.5501C91.2602 84.3801 92.5002 84.2601 92.9502 83.3501C93.8302 81.5301 94.1702 80.1901 92.9902 78.8501C92.5302 78.3301 93.4802 77.4701 92.9202 76.3501C92.3602 75.2301 90.3002 75.8101 89.9702 75.8701C89.6402 75.9301 88.8602 75.2001 88.8602 75.2001" fill="#7B6662"/>
<path d="M90.03 79.0499C89.78 78.4799 89.14 78.5099 89.14 78.5099C89.14 78.5099 89.19 78.9199 88.62 78.9499C88.05 78.9799 88.09 78.4599 88.09 78.4599C88.09 78.4599 88.12 78.0699 88.54 78.1599C88.54 78.1599 88.77 77.7499 87.82 77.5699C88.77 76.1799 87.27 75.5699 87.27 75.5699C87.75 75.0699 88.66 75.2999 88.66 75.2999C88.66 75.2999 88.32 74.9199 87.78 74.8799C87.78 74.8799 85.78 74.8399 85.5 77.6699C85.32 79.4499 87.46 80.1199 88.21 80.3399C90.01 80.8599 89.7 82.8299 90.38 83.6599C91.06 84.4899 92.3 84.3699 92.75 83.4599C92.75 83.4599 92.84 83.2099 92.89 82.7999" stroke="#1A1A1A" stroke-width="0.2" stroke-linecap="round" stroke-linejoin="round"/>
<g style="mix-blend-mode:multiply" opacity="0.3">
<path d="M117.25 96.8499C116.5 96.7999 112.34 96.4599 110.13 96.7199C109.3 96.7499 106.54 96.7199 103.62 97.0399C101.76 97.2499 98.05 97.1499 97.06 97.1799C96.07 97.2099 93.78 96.9499 93.78 96.9499C93.23 96.8699 92.16 96.9199 91.17 96.8599C90.13 96.7999 82.57 96.1699 82.65 97.3299C82.71 98.1199 90.32 98.1499 91.49 98.0699C92.12 98.0199 92.45 98.0299 92.75 97.9999C93.66 97.9299 95.66 97.9499 96.77 97.8799C97.88 97.8099 102.57 97.8899 104.74 97.9999C107.06 98.1099 110.38 98.2399 110.38 98.2399C112.72 98.5199 116.78 98.1499 117.59 98.0099C118.75 97.8099 119.1 97.9499 119.81 97.5299C121.16 96.7299 119.07 96.9699 117.25 96.8599V96.8499Z" fill="#899284"/>
</g>
<path d="M94.1398 70.01C93.8598 68.87 92.4298 65.85 92.3098 65.34C92.1098 64.66 92.1098 63.98 92.1798 62.94C92.2498 61.86 91.4198 61.61 90.8498 61.7C90.2798 61.79 90.7098 63.35 90.7098 63.35C90.7098 63.35 90.3598 62.82 90.3098 63.35C90.2598 63.88 90.3798 64.47 90.6898 64.69C90.9998 64.91 91.4098 65.51 91.4698 65.7C91.9698 67.06 91.9098 68.32 92.1298 69.05C92.7798 70.93 92.4398 75.1 92.5298 75.85C92.6198 76.6 92.9598 76.78 92.9598 76.78C93.6398 77.21 94.5298 76.61 94.6998 75.46C94.8698 74.31 94.4398 71.2 94.1498 70.02L94.1398 70.01Z" fill="#FBFBFA" stroke="#1A1A1A" stroke-width="0.2" stroke-linecap="round" stroke-linejoin="round"/>
<path d="M92.5101 76.7099C92.0201 76.2499 92.1701 73.9899 92.1201 73.1799C92.1201 73.1799 95.4901 73.3399 95.7201 73.7799C95.9501 74.2199 94.9701 76.0299 94.3901 76.5699C93.8101 77.1099 92.8901 77.0699 92.5101 76.7099Z" fill="#E3E2E1"/>
<path d="M92.6498 76.7099C92.1598 76.2499 92.3098 73.9899 92.2598 73.1799C92.2598 73.1799 95.6298 73.3399 95.8598 73.7799C96.0898 74.2199 95.1098 76.0299 94.5298 76.5699C93.9498 77.1099 93.0298 77.0699 92.6498 76.7099Z" stroke="#1A1A1A" stroke-width="0.2" stroke-linecap="round" stroke-linejoin="round"/>
<path d="M115.13 96.74C116.3 96.66 117.59 96.84 116.37 97.19C115.15 97.54 111.35 97.56 110.6 97.31L110.29 95.12L112.04 94.8C112.04 94.8 113.97 96.83 115.14 96.75L115.13 96.74Z" fill="#C4B19C"/>
<path d="M115.13 96.74C116.3 96.66 117.59 96.84 116.37 97.19C115.15 97.54 111.35 97.56 110.6 97.31L110.29 95.12L112.04 94.8C112.04 94.8 113.97 96.83 115.14 96.75L115.13 96.74Z" fill="#C4B19C"/>
<path d="M115.13 96.74C116.3 96.66 117.59 96.84 116.37 97.19C115.15 97.54 111.35 97.56 110.6 97.31L110.29 95.12L112.04 94.8C112.04 94.8 113.97 96.83 115.14 96.75L115.13 96.74Z" fill="#C4B19C"/>
<path d="M115.13 96.74C116.3 96.66 117.59 96.84 116.37 97.19C115.15 97.54 111.35 97.56 110.6 97.31L110.29 95.12L112.04 94.8C112.04 94.8 113.97 96.83 115.14 96.75L115.13 96.74Z" fill="#FBFBFA"/>
<path d="M115.23 96.6299C116.4 96.5499 117.69 96.7299 116.47 97.0799C115.24 97.4299 111.45 97.4499 110.7 97.1999L110.39 95.0099L112.14 94.6899C112.14 94.6899 114.07 96.7199 115.24 96.6399L115.23 96.6299Z" stroke="#1A1A1A" stroke-width="0.2" stroke-linecap="round" stroke-linejoin="round"/>
<path d="M115.23 96.6299C116.4 96.5499 117.69 96.7299 116.47 97.0799C115.24 97.4299 111.45 97.4499 110.7 97.1999L110.39 95.0099L112.14 94.6899C112.14 94.6899 114.07 96.7199 115.24 96.6399L115.23 96.6299Z" stroke="#1A1A1A" stroke-width="0.2" stroke-linecap="round" stroke-linejoin="round"/>
<path d="M115.23 96.6299C116.4 96.5499 117.69 96.7299 116.47 97.0799C115.24 97.4299 111.45 97.4499 110.7 97.1999L110.39 95.0099L112.14 94.6899C112.14 94.6899 114.07 96.7199 115.24 96.6399L115.23 96.6299Z" stroke="#1A1A1A" stroke-width="0.2" stroke-linecap="round" stroke-linejoin="round"/>
<path d="M115.23 96.6299C116.4 96.5499 117.69 96.7299 116.47 97.0799C115.24 97.4299 111.45 97.4499 110.7 97.1999L110.39 95.0099L112.14 94.6899C112.14 94.6899 114.07 96.7199 115.24 96.6399L115.23 96.6299Z" stroke="#1A1A1A" stroke-width="0.2" stroke-linecap="round" stroke-linejoin="round"/>
<path d="M86.6496 96.09C85.5296 95.72 84.2396 95.57 85.3396 96.21C86.4396 96.85 90.0996 97.83 90.8996 97.78L91.7596 95.74L90.1496 94.99C90.1496 94.99 87.7696 96.47 86.6496 96.09V96.09Z" fill="#C4B19C"/>
<path d="M86.6496 96.09C85.5296 95.72 84.2396 95.57 85.3396 96.21C86.4396 96.85 90.0996 97.83 90.8996 97.78L91.7596 95.74L90.1496 94.99C90.1496 94.99 87.7696 96.47 86.6496 96.09V96.09Z" fill="#C4B19C"/>
<path d="M86.6496 96.09C85.5296 95.72 84.2396 95.57 85.3396 96.21C86.4396 96.85 90.0996 97.83 90.8996 97.78L91.7596 95.74L90.1496 94.99C90.1496 94.99 87.7696 96.47 86.6496 96.09V96.09Z" fill="#C4B19C"/>
<path d="M86.6496 96.09C85.5296 95.72 84.2396 95.57 85.3396 96.21C86.4396 96.85 90.0996 97.83 90.8996 97.78L91.7596 95.74L90.1496 94.99C90.1496 94.99 87.7696 96.47 86.6496 96.09V96.09Z" fill="#FBFBFA"/>
<path d="M86.5803 95.9499C85.4603 95.5799 84.1703 95.4299 85.2703 96.0699C86.3703 96.7099 90.0303 97.6899 90.8303 97.6399L91.6903 95.5999L90.0803 94.8499C90.0803 94.8499 87.7003 96.3299 86.5803 95.9499V95.9499Z" stroke="#1A1A1A" stroke-width="0.2" stroke-linecap="round" stroke-linejoin="round"/>
<path d="M86.5803 95.9499C85.4603 95.5799 84.1703 95.4299 85.2703 96.0699C86.3703 96.7099 90.0303 97.6899 90.8303 97.6399L91.6903 95.5999L90.0803 94.8499C90.0803 94.8499 87.7003 96.3299 86.5803 95.9499V95.9499Z" stroke="#1A1A1A" stroke-width="0.2" stroke-linecap="round" stroke-linejoin="round"/>
<path d="M86.5803 95.9499C85.4603 95.5799 84.1703 95.4299 85.2703 96.0699C86.3703 96.7099 90.0303 97.6899 90.8303 97.6399L91.6903 95.5999L90.0803 94.8499C90.0803 94.8499 87.7003 96.3299 86.5803 95.9499V95.9499Z" stroke="#1A1A1A" stroke-width="0.2" stroke-linecap="round" stroke-linejoin="round"/>
<path d="M102.01 77.1799C102.28 77.3899 105.01 78.4499 106.25 80.9599C107.36 83.1899 110.49 89.0199 111.11 89.9899C111.73 90.9599 113.64 94.2399 113.64 94.2399C113.64 94.2399 111.14 94.8399 110.15 95.5599C110.15 95.5599 109.08 94.8899 108.44 92.6199C107.77 90.2199 106.67 87.9799 106.3 87.3099C105.93 86.6399 103.7 83.1699 102.95 83.0699C102.2 82.9699 98.9297 89.0999 97.6397 90.8799C96.3497 92.6599 94.5197 96.4299 92.3397 96.5799C90.4297 96.7099 89.4697 94.5999 89.4697 94.5999C89.4697 94.5999 92.3197 92.1699 93.6997 90.4599C95.0797 88.7499 96.1997 86.4199 97.5397 84.6599C98.8797 82.8999 97.9597 83.6399 98.6797 82.8199C99.3997 81.9999 102 77.1799 102 77.1799H102.01Z" fill="#BFCCE1"/>
<path d="M102.01 77.1799C102.28 77.3899 104.82 77.9199 106.25 80.9599C107.32 83.2199 110.49 89.0199 111.11 89.9899C111.73 90.9599 113.64 94.2399 113.64 94.2399C113.64 94.2399 111.11 94.9699 110.12 95.6899C110.12 95.6899 108.98 95.0299 108.3 92.6299C107.62 90.2299 106.67 87.9799 106.3 87.3099C105.93 86.6399 103.7 83.1699 102.95 83.0699C102.2 82.9699 98.9297 89.0999 97.6397 90.8799C96.3497 92.6599 94.5597 96.6799 92.4797 96.7099C90.3997 96.7399 89.4697 94.5999 89.4697 94.5999C89.4697 94.5999 92.3197 92.1699 93.6997 90.4599C95.0797 88.7499 96.1997 86.4199 97.5397 84.6599C98.8797 82.8999 97.9597 83.6399 98.6797 82.8199C99.3997 81.9999 102 77.1799 102 77.1799H102.01Z" stroke="#1A1A1A" stroke-width="0.2" stroke-linecap="round" stroke-linejoin="round"/>
<path d="M91.9404 79.4199C92.1904 80.2899 92.2304 80.8199 93.3404 81.4599C94.9604 82.4999 98.1604 82.6699 98.1604 82.6699C98.8104 82.6699 99.2104 82.4199 99.7904 81.7399C99.9304 81.5699 100.17 81.3499 100.3 81.1599C100.49 80.8999 100.63 80.6399 100.86 80.0899C101.13 79.4499 101.14 79.4199 101.52 78.7999C101.83 78.2799 102.43 77.7599 102.39 77.1799C102.34 76.6599 101.71 76.3199 101.71 76.3199C101.37 76.1599 101.28 76.1499 100.61 76.0699C100.15 76.0199 99.6204 75.9499 98.9704 75.8199C93.5304 74.7499 92.6704 76.5699 92.6704 76.5699C92.5204 76.8499 92.3904 77.1099 92.2704 77.3499C92.2704 77.3499 91.8304 78.6699 91.9504 79.4099L91.9404 79.4199Z" fill="#BCB5B1"/>
<path d="M91.91 79.3799C91.97 80.5599 92.2 80.7799 93.31 81.4199C94.93 82.4599 97.93 82.6199 97.93 82.6199C98.9 82.6999 99.41 82.1199 99.46 82.0599C99.62 81.8799 99.91 81.5199 100.07 81.3499C100.44 80.9699 100.57 80.6599 100.74 80.2899C101.02 79.6599 101.08 79.4199 101.55 78.6899C101.84 78.2399 102.48 77.7999 102.46 77.1399C102.43 76.5999 101.61 76.1699 101.61 76.1699C101.27 76.0299 101.31 76.0299 100.64 75.9299C100.16 75.8599 99.61 75.7999 98.95 75.6899C93.45 74.7799 92.63 76.5399 92.63 76.5399C92.48 76.8199 92.35 77.0799 92.23 77.3199C92.23 77.3199 91.89 78.6299 91.91 79.3799V79.3799Z" stroke="#1A1A1A" stroke-width="0.2" stroke-linecap="round" stroke-linejoin="round"/>
<path d="M94.0298 81.6301C93.8098 80.4901 92.6798 79.7801 92.0098 80.2301C92.0098 80.2301 91.7098 80.5801 91.6498 81.3301C91.5898 82.0801 91.9498 86.2101 91.5098 88.0701C91.1798 89.4401 91.0498 91.1001 90.8798 91.5901C90.8798 91.5901 90.2698 91.9401 90.1998 92.7101C90.1398 93.4801 90.1198 93.3601 88.8098 94.6001C88.5998 95.4401 90.6798 93.9101 91.0298 93.3301C91.2798 92.9401 91.7698 91.7701 91.7698 91.7701C91.7698 91.7701 93.2698 88.2901 93.4998 87.0901C93.7298 85.8901 94.2498 82.7701 94.0298 81.6201V81.6301Z" fill="#FBFBFA" stroke="#1A1A1A" stroke-width="0.2" stroke-linecap="round" stroke-linejoin="round"/>
<path d="M102.67 83.2199C102.67 83.2199 103.03 82.8899 103.34 82.9599" stroke="#1A1A1A" stroke-width="0.2" stroke-linecap="round" stroke-linejoin="round"/>
<path d="M93.4702 80.16C93.9802 80.6 94.4402 81.79 94.3902 83.72C94.3902 83.72 91.4702 83.97 91.2902 83.51C91.0302 82.84 91.4002 81.09 91.7002 80.36C92.0602 79.5 93.0702 79.81 93.4702 80.15V80.16Z" fill="#E3E2E1"/>
<path d="M93.4702 80.1199C93.9802 80.5599 94.4402 81.7499 94.3902 83.6799C94.3902 83.6799 91.4702 83.9299 91.2902 83.4699C91.0302 82.7999 91.4002 81.0499 91.7002 80.3199C92.0602 79.4599 93.0702 79.7699 93.4702 80.1099V80.1199Z" stroke="#1A1A1A" stroke-width="0.2" stroke-linecap="round" stroke-linejoin="round"/>
<path d="M91.2703 79.04L89.8203 78.75C90.1503 78.63 90.8303 78.29 91.2703 77.43C91.2803 77.37 91.2903 77.3 91.2803 77.23C91.5203 77.28 91.8303 77.34 92.0103 77.37C92.0503 77.37 92.0803 77.38 92.1003 77.39C92.4603 77.09 92.6803 77.62 92.5703 78.08C92.3303 79.3 91.2803 79.04 91.2703 79.04V79.04Z" fill="#FBFBFA" stroke="#1A1A1A" stroke-width="0.2" stroke-linecap="round" stroke-linejoin="round"/>
<path d="M88.2003 75.23C88.1303 75.23 88.0503 75.23 87.9703 75.24C87.9303 75.24 87.9003 75.25 87.8603 75.26C87.8603 75.26 87.8603 75.26 87.8503 75.26C87.8203 75.26 87.7803 75.28 87.7503 75.29C87.7503 75.29 87.7403 75.29 87.7303 75.29C87.7003 75.3 87.6603 75.31 87.6303 75.33C87.6303 75.33 87.6203 75.33 87.6103 75.33C87.5803 75.34 87.5403 75.36 87.5103 75.38C87.5103 75.38 87.5003 75.38 87.4903 75.38C87.4203 75.42 87.3503 75.48 87.2803 75.54C87.2803 75.54 87.7603 75.73 88.0003 76.15C88.1903 76.47 88.2403 76.93 87.8303 77.54C88.3003 77.63 88.4803 77.78 88.5403 77.91C88.6003 78.04 88.5403 78.14 88.5403 78.14C88.1303 78.06 88.0903 78.44 88.0903 78.44C88.0903 78.44 88.0903 78.44 88.0903 78.46C88.0903 78.47 88.0903 78.49 88.0903 78.52C88.0903 78.55 88.0903 78.58 88.1103 78.62C88.1203 78.66 88.1403 78.7 88.1603 78.74C88.1803 78.77 88.2003 78.8 88.2303 78.83C88.2603 78.86 88.3003 78.88 88.3403 78.89C88.4103 78.92 88.4903 78.93 88.6003 78.92C88.6003 78.92 88.6003 78.92 88.6103 78.92C88.6503 78.92 88.6903 78.92 88.7203 78.91C88.7303 78.91 88.7403 78.91 88.7603 78.91C88.7903 78.91 88.8203 78.89 88.8503 78.88C88.8503 78.88 88.8603 78.88 88.8703 78.88C88.8903 78.87 88.9203 78.86 88.9403 78.84C88.9403 78.84 88.9603 78.84 88.9603 78.83C88.9803 78.82 88.9903 78.8 89.0103 78.79C89.0103 78.79 89.0203 78.78 89.0303 78.77C89.0303 78.77 89.0503 78.75 89.0503 78.74C89.0503 78.74 89.0503 78.73 89.0603 78.72C89.0603 78.72 89.0603 78.7 89.0703 78.7C89.0703 78.7 89.0703 78.69 89.0803 78.68C89.0803 78.68 89.0803 78.67 89.0803 78.66C89.0803 78.66 89.0803 78.65 89.0803 78.64C89.0803 78.64 89.0803 78.63 89.0803 78.62C89.0803 78.61 89.0803 78.59 89.0803 78.58C89.0803 78.58 89.0803 78.58 89.0803 78.57C89.0803 78.57 89.0803 78.56 89.0803 78.55C89.0803 78.55 89.0803 78.54 89.0803 78.53C89.0803 78.52 89.0803 78.51 89.0803 78.51C89.0803 78.51 89.4703 78.49 89.7603 78.75C90.0903 78.63 90.7703 78.29 91.2103 77.43C91.2203 77.37 91.2303 77.3 91.2203 77.23C91.2003 76.66 90.7003 75.94 89.9603 75.61C89.5403 75.42 88.6503 75.25 88.1303 75.22L88.2003 75.23Z" fill="#FBFBFA" stroke="#1A1A1A" stroke-width="0.2" stroke-linecap="round" stroke-linejoin="round"/>
<path d="M88.997 75.7717C89.0078 75.7175 88.9726 75.6648 88.9185 75.654C88.8643 75.6432 88.8116 75.6783 88.8008 75.7325C88.79 75.7867 88.8252 75.8393 88.8793 75.8501C88.9335 75.861 88.9861 75.8258 88.997 75.7717Z" fill="#1A1A1A"/>
<path d="M88.702 77.2299C88.7128 77.1757 88.6777 77.1231 88.6235 77.1123C88.5694 77.1015 88.5167 77.1366 88.5059 77.1908C88.4951 77.2449 88.5302 77.2976 88.5844 77.3084C88.6386 77.3192 88.6912 77.2841 88.702 77.2299Z" fill="#1A1A1A"/>
<path d="M88.8604 76.29C88.8604 76.29 89.2603 76.66 89.3803 76.24C89.3803 76.24 89.7404 76.24 89.5504 76.75" stroke="#1A1A1A" stroke-width="0.2" stroke-linecap="round" stroke-linejoin="round"/>
<path d="M90.2509 76.3999C90.2509 76.3999 90.3409 77.0099 89.9209 77.3099" stroke="#1A1A1A" stroke-width="0.2" stroke-linecap="round" stroke-linejoin="round"/>
<path d="M87.0799 75.6099C87.0799 75.6099 86.1899 75.8999 85.9199 76.6199" stroke="#1A1A1A" stroke-width="0.2" stroke-linecap="round" stroke-linejoin="round"/>
<path d="M38.3202 34.0399C41.5702 36.1399 41.5202 15.3999 45.8002 19.1999C50.0802 22.9999 43.8502 22.8499 44.8202 21.0299C45.8002 19.1999 45.3102 14.6399 51.5002 17.2299C57.6902 19.8199 60.9402 24.0699 58.0202 23.7699C55.1002 23.4699 52.7402 22.0999 59.7002 21.1799C66.6602 20.2599 70.9202 29.1699 68.9402 28.2899C66.9602 27.4199 70.0502 27.6699 73.7602 26.6299C77.4602 25.5899 73.9502 17.6499 75.4802 16.4499C77.0102 15.2499 81.4402 17.0699 77.1702 17.3799C72.9002 17.6899 75.1702 12.6599 78.9802 12.6599C82.7902 12.6599 98.8902 11.2899 94.1902 16.0099C89.4902 20.7299 92.7902 14.4899 96.1602 15.3999C99.5302 16.3099 101.99 16.3099 99.3902 20.2699C96.7902 24.2199 96.4002 18.7499 97.8902 19.5099C99.3802 20.2699 112.38 15.2499 110.89 21.0299C110.89 21.0299 118.09 21.4199 116.33 24.8699C114.57 28.3199 114.13 23.3799 117.47 23.2599C120.81 23.1399 129.4 26.1599 125.37 30.5399C121.34 34.9199 122.53 25.3299 129.41 22.4299C136.29 19.5299 131.83 24.0899 130.62 23.2599C129.41 22.4299 132.13 7.4799 137.95 9.8499C143.77 12.2299 135.26 13.7199 137.58 11.6099C139.9 9.4999 149.21 6.4199 148.34 12.5799C147.47 18.7399 152.46 20.1999 149.88 21.4899C147.29 22.7799 151.2 19.4099 152.02 21.4899C152.84 23.5699 159.76 22.8999 155.55 28.4299C151.34 33.9599 157.96 33.9899 155.04 35.4199C152.13 36.8599 158.94 32.4099 157.69 36.0799C156.44 39.7499 146.94 44.7999 142.19 41.6599C137.44 38.5199 143.41 39.5199 142.8 40.5899C142.19 41.6599 126.42 46.2599 124.1 42.3499C121.78 38.4399 123.56 35.9499 123.55 37.7699C123.54 39.5899 117.12 40.9599 111.67 38.7799C106.21 36.5999 106.48 34.3599 108.11 36.5399C109.74 38.7199 112.8 38.4399 106.7 39.8099C100.6 41.1799 99.6702 38.7099 101.47 39.1499C103.27 39.5899 104 39.4699 100.71 43.4599C97.4202 47.4499 89.6102 41.4399 91.5002 39.8499C93.3902 38.2599 93.4302 39.3999 91.8902 40.9299C90.3502 42.4599 85.9502 45.2999 84.7602 43.1499C83.5702 40.9999 85.5602 38.8699 84.7602 41.2999C83.9602 43.7199 71.6402 46.1099 71.0702 43.5899C70.5002 41.0799 72.2802 40.6099 71.6702 42.0999C71.0702 43.5899 61.4702 46.7499 59.2502 45.0599C57.0302 43.3699 61.6102 42.9999 61.1802 43.9999C60.7502 44.9999 56.9202 47.7099 53.7702 46.5099C50.6202 45.3099 47.2302 44.2299 48.5302 44.2799C49.8302 44.3399 54.0902 41.8999 49.7602 46.1999C45.4302 50.4999 41.9102 52.7899 42.0802 50.4099C42.2602 48.0299 46.9802 47.5399 43.4302 47.8999C39.8802 48.2599 36.8802 50.2399 37.5002 46.6299C37.5002 46.6299 31.2102 39.4699 33.7902 37.1099C36.3602 34.7499 36.1302 32.6399 38.3202 34.0499V34.0399Z" fill="#91A188"/>
<path d="M38.0204 33.64C41.2704 35.74 41.2204 15 45.5004 18.8C49.7804 22.6 43.5504 22.45 44.5204 20.63C45.5004 18.8 45.0104 14.24 51.2004 16.83C57.3904 19.42 60.6404 23.67 57.7204 23.37C54.8004 23.07 52.4404 21.7 59.4004 20.78C66.3604 19.87 70.6204 28.77 68.6404 27.89C66.6604 27.01 69.7504 27.27 73.4604 26.23C77.1604 25.19 73.6504 17.25 75.1804 16.05C76.7104 14.85 81.1404 16.67 76.8704 16.98C72.6004 17.29 74.8704 12.26 78.6804 12.26C82.4904 12.26 98.5904 10.89 93.8904 15.61C89.1904 20.33 92.4904 14.09 95.8604 15C99.2304 15.91 101.69 15.91 99.0904 19.87C96.4904 23.82 96.1004 18.35 97.5904 19.11C99.0904 19.87 112.08 14.85 110.59 20.63C110.59 20.63 117.79 21.02 116.03 24.47C114.27 27.92 113.83 22.98 117.17 22.86C120.51 22.74 129.1 25.76 125.07 30.14C121.04 34.52 122.23 24.93 129.11 22.03C135.99 19.13 131.53 23.69 130.32 22.86C129.11 22.03 131.83 7.08 137.65 9.45C143.47 11.83 134.96 13.32 137.28 11.21C139.6 9.1 148.91 6.02 148.04 12.18C147.17 18.34 152.16 19.8 149.58 21.09C146.99 22.38 150.9 19.01 151.72 21.09C152.54 23.17 159.46 22.5 155.25 28.03C151.04 33.56 157.66 33.59 154.74 35.02C151.83 36.46 158.64 32.01 157.39 35.68C156.14 39.35 146.64 44.4 141.89 41.26C137.14 38.12 143.11 39.12 142.5 40.19C141.89 41.26 126.12 45.86 123.8 41.95C121.48 38.04 123.26 35.55 123.25 37.37C123.24 39.19 116.82 40.56 111.37 38.38C105.91 36.2 106.18 33.96 107.81 36.14C109.44 38.32 112.5 38.04 106.4 39.41C100.29 40.78 99.3704 38.31 101.17 38.75C102.97 39.19 103.7 39.07 100.41 43.06C97.1204 47.05 89.3104 41.04 91.2004 39.45C93.0904 37.86 93.1304 39 91.5904 40.53C90.0504 42.06 85.6504 44.9 84.4604 42.75C83.2704 40.6 85.2604 38.47 84.4604 40.9C83.6604 43.32 71.3404 45.71 70.7704 43.19C70.2004 40.68 71.9804 40.21 71.3704 41.7C70.7604 43.19 61.1704 46.35 58.9504 44.66C56.7304 42.97 61.3104 42.6 60.8804 43.6C60.4504 44.6 56.6204 47.31 53.4704 46.11C50.3204 44.91 46.9304 43.83 48.2304 43.88C49.5304 43.93 53.7904 41.5 49.4604 45.8C45.1304 50.1 41.6104 52.39 41.7804 50.01C41.9504 47.63 46.6804 47.14 43.1304 47.5C39.5804 47.86 36.5804 49.84 37.2004 46.23C37.2004 46.23 30.9104 39.07 33.4904 36.71C36.0604 34.35 35.8304 32.24 38.0204 33.65V33.64Z" stroke="#1A1A1A" stroke-width="0.2" stroke-miterlimit="10"/>
<path d="M156.061 41.3799C155.921 45.8599 156.091 89.6999 156.061 90.1699C156.031 90.6399 155.811 90.8299 155.281 90.8299C154.751 90.8299 153.951 90.8799 153.891 90.1699C153.891 90.1699 154.251 46.3799 154.251 41.3799" fill="#E0CFB9"/>
<path d="M155.931 41.3799C155.791 45.8599 155.961 89.6999 155.931 90.1699C155.901 90.6399 155.681 90.8299 155.151 90.8299C154.621 90.8299 153.821 90.8799 153.761 90.1699C153.761 90.1699 154.121 46.3799 154.121 41.3799" stroke="#1A1A1A" stroke-width="0.2" stroke-linecap="round" stroke-linejoin="round"/>
<path d="M110.65 52.02C110.51 56.5 110.68 100.34 110.65 100.81C110.62 101.28 110.4 101.47 109.87 101.47C109.34 101.47 108.54 101.52 108.48 100.81C108.48 100.81 108.84 57.02 108.84 52.02" fill="#E0CFB9"/>
<path d="M110.521 52.02C110.381 56.5 110.551 100.34 110.521 100.81C110.491 101.28 110.271 101.47 109.741 101.47C109.211 101.47 108.411 101.52 108.351 100.81C108.351 100.81 108.711 57.02 108.711 52.02" stroke="#1A1A1A" stroke-width="0.2" stroke-linecap="round" stroke-linejoin="round"/>
<path d="M112.771 66.1998C112.771 66.1998 117.741 63.1998 115.161 62.4798C115.161 62.4798 119.731 60.1898 116.061 59.8298C112.381 59.4798 112.981 60.9598 112.981 60.9598C112.981 60.9598 116.461 59.9798 114.871 58.5698C113.281 57.1598 111.051 58.5698 111.051 58.5698C111.051 58.5698 110.351 57.4698 109.511 57.8898C108.671 58.3098 109.511 58.8698 109.511 58.8698C109.511 58.8698 110.061 57.6898 108.471 58.1298C106.881 58.5698 103.251 58.3198 106.141 60.9598C109.031 63.5998 107.931 61.4898 106.641 60.4598C105.351 59.4298 102.221 57.8498 101.921 60.2298C101.621 62.6098 105.301 64.2698 107.681 63.9098C110.061 63.5498 107.551 63.2298 106.591 63.5098C105.631 63.7898 102.021 63.9598 104.261 65.1098C104.261 65.1098 105.971 66.1898 108.151 66.1898C108.151 66.1898 110.851 67.5898 112.801 66.1898L112.771 66.1998Z" fill="#91A188"/>
<g style="mix-blend-mode:lighten" opacity="0.2">
<path d="M115.19 62.7999C115.19 62.7999 115.21 62.1599 114.32 62.1599C113.43 62.1599 110.16 63.0399 111.74 63.1599C113.32 63.2799 114.32 63.2799 115.19 62.7999Z" fill="#C9DFCE"/>
</g>
<g style="mix-blend-mode:lighten" opacity="0.2">
<path d="M113.631 58.4899C113.631 58.4899 113.501 58.1799 112.661 58.3999C111.821 58.6199 108.941 59.8199 110.461 59.4999C111.981 59.1799 112.921 58.9299 113.631 58.4899Z" fill="#C9DFCE"/>
</g>
<path d="M112.771 66.0499C112.771 66.0499 117.741 63.0499 115.161 62.3299C115.161 62.3299 119.731 60.0399 116.061 59.6799C112.381 59.3299 112.981 60.8099 112.981 60.8099C112.981 60.8099 116.461 59.8299 114.871 58.4199C113.281 57.0099 111.051 58.4199 111.051 58.4199C111.051 58.4199 110.351 57.3199 109.511 57.7399C108.671 58.1599 109.511 58.7199 109.511 58.7199C109.511 58.7199 110.061 57.5399 108.471 57.9799C106.881 58.4199 103.251 58.1699 106.141 60.8099C109.021 63.4499 107.931 61.3399 106.641 60.3099C105.351 59.2799 102.221 57.6999 101.921 60.0799C101.621 62.4599 105.301 64.1199 107.681 63.7599C110.061 63.3999 107.551 63.0799 106.591 63.3599C105.631 63.6399 102.021 63.8099 104.261 64.9599C104.261 64.9599 105.971 66.0399 108.151 66.0399C108.151 66.0399 110.851 67.4399 112.801 66.0399L112.771 66.0499Z" stroke="#1A1A1A" stroke-width="0.2" stroke-miterlimit="10"/>
<g style="mix-blend-mode:lighten" opacity="0.2">
<path d="M104.921 61.1499C104.921 61.1499 105.671 60.7999 105.221 60.3099C104.771 59.8199 102.121 58.4999 102.771 59.4399C103.421 60.3799 103.941 60.9299 104.921 61.1499Z" fill="#C9DFCE"/>
</g>
<path d="M160.601 53.4598C160.601 53.4598 165.571 50.4598 162.991 49.7398C162.991 49.7398 167.561 47.4498 163.891 47.0898C160.211 46.7398 160.811 48.2198 160.811 48.2198C160.811 48.2198 164.291 47.2398 162.701 45.8298C161.111 44.4198 158.881 45.8298 158.881 45.8298C158.881 45.8298 158.181 44.7298 157.341 45.1498C156.501 45.5698 157.341 46.1298 157.341 46.1298C157.341 46.1298 157.891 44.9498 156.301 45.3898C154.711 45.8298 151.081 45.5798 153.971 48.2198C156.861 50.8598 155.761 48.7498 154.471 47.7198C153.181 46.6898 150.051 45.1098 149.751 47.4898C149.451 49.8698 153.131 51.5298 155.511 51.1698C157.891 50.8098 155.381 50.4898 154.421 50.7698C153.461 51.0498 149.851 51.2198 152.091 52.3698C152.091 52.3698 153.801 53.4498 155.981 53.4498C155.981 53.4498 158.681 54.8498 160.631 53.4498L160.601 53.4598Z" fill="#91A188"/>
<g style="mix-blend-mode:lighten" opacity="0.2">
<path d="M163.02 50.0699C163.02 50.0699 163.04 49.4299 162.15 49.4299C161.26 49.4299 157.99 50.3099 159.57 50.4299C161.15 50.5499 162.15 50.5499 163.02 50.0699V50.0699Z" fill="#C9DFCE"/>
</g>
<g style="mix-blend-mode:lighten" opacity="0.2">
<path d="M161.461 45.7499C161.461 45.7499 161.331 45.4399 160.491 45.6599C159.651 45.8799 156.771 47.0799 158.291 46.7599C159.811 46.4399 160.751 46.1899 161.461 45.7499Z" fill="#C9DFCE"/>
</g>
<path d="M160.601 53.3199C160.601 53.3199 165.571 50.3199 162.991 49.5999C162.991 49.5999 167.561 47.3099 163.891 46.9499C160.211 46.5999 160.811 48.0799 160.811 48.0799C160.811 48.0799 164.291 47.0999 162.701 45.6899C161.111 44.2799 158.881 45.6899 158.881 45.6899C158.881 45.6899 158.181 44.5899 157.341 45.0099C156.501 45.4299 157.341 45.9899 157.341 45.9899C157.341 45.9899 157.891 44.8099 156.301 45.2499C154.711 45.6899 151.081 45.4399 153.971 48.0799C156.851 50.7199 155.761 48.6099 154.471 47.5799C153.181 46.5499 150.051 44.9699 149.751 47.3499C149.451 49.7299 153.131 51.3899 155.511 51.0299C157.891 50.6699 155.381 50.3499 154.421 50.6299C153.461 50.9099 149.851 51.0799 152.091 52.2299C152.091 52.2299 153.801 53.3099 155.981 53.3099C155.981 53.3099 158.681 54.7099 160.631 53.3099L160.601 53.3199Z" stroke="#1A1A1A" stroke-width="0.2" stroke-miterlimit="10"/>
<g style="mix-blend-mode:lighten" opacity="0.2">
<path d="M152.751 48.4199C152.751 48.4199 153.501 48.0699 153.051 47.5799C152.601 47.0899 149.951 45.7699 150.601 46.7099C151.251 47.6499 151.771 48.1999 152.751 48.4199V48.4199Z" fill="#C9DFCE"/>
</g>
<path d="M25.2607 47.0698V48.6798C25.2607 48.6798 96.3507 58.0898 109.301 57.8898C109.301 57.8898 163.601 43.3898 166.391 42.6098V41.0798" fill="#E1DFCD"/>
<path d="M25.2607 47.0698V48.6798C25.2607 48.6798 96.3507 58.0898 109.301 57.8898C109.301 57.8898 163.601 43.3898 166.391 42.6098V41.0798" fill="#E1DFCD"/>
<path d="M25.2607 47.0698C25.2607 47.0698 87.5907 37.0398 92.7707 36.0798C97.9507 35.1198 166.391 41.0898 166.391 41.0898" fill="#E1DFCD"/>
<path d="M24.8008 48.6999C24.8008 48.6999 95.8908 58.1099 108.841 57.9099C108.841 57.9099 163.141 43.4099 165.931 42.6299V41.0999L108.841 56.0999L24.8008 47.0899V48.6999Z" stroke="#1A1A1A" stroke-width="0.2" stroke-linecap="round" stroke-linejoin="round"/>
<path d="M25.2607 49.1398C25.2607 49.1398 96.3507 58.5498 109.301 58.3498C109.301 58.3498 163.601 43.8498 166.391 43.0698V41.5398L109.301 56.5398L25.2607 47.5298V49.1398Z" fill="#D2CFC0"/>
<path d="M24.8008 48.6999C24.8008 48.6999 95.8908 58.1099 108.841 57.9099C108.841 57.9099 163.141 43.4099 165.931 42.6299V41.0999L108.841 56.0999L24.8008 47.0899V48.6999Z" stroke="#1A1A1A" stroke-width="0.2" stroke-linecap="round" stroke-linejoin="round"/>
<path d="M27.1104 46.5898C27.1104 46.5898 87.1303 37.0498 92.3103 36.0898C97.4903 35.1298 165.18 40.8198 165.18 40.8198" stroke="#1A1A1A" stroke-width="0.2" stroke-linecap="round" stroke-linejoin="round"/>
<path d="M110.65 38.3198C110.51 42.7998 110.68 51.2698 110.65 51.7398C110.62 52.2098 110.4 52.3998 109.87 52.3998C109.34 52.3998 108.54 52.4498 108.48 51.7398C108.48 51.7398 108.84 43.3298 108.84 38.3198" fill="#E0CFB9"/>
<path d="M110.521 38.3198C110.381 42.7998 110.551 51.2698 110.521 51.7398C110.491 52.2098 110.271 52.3998 109.741 52.3998C109.211 52.3998 108.411 52.4498 108.351 51.7398C108.351 51.7398 108.711 43.3298 108.711 38.3198" stroke="#1A1A1A" stroke-width="0.2" stroke-linecap="round" stroke-linejoin="round"/>
<path d="M127.141 34.5601C127.001 39.0401 127.171 47.5101 127.141 47.9801C127.111 48.4501 126.891 48.6401 126.361 48.6401C125.831 48.6401 125.031 48.6901 124.971 47.9801C124.971 47.9801 125.331 39.5701 125.331 34.5601" fill="#E0CFB9"/>
<path d="M127.011 34.5601C126.871 39.0401 127.041 47.5101 127.011 47.9801C126.981 48.4501 126.761 48.6401 126.231 48.6401C125.701 48.6401 124.901 48.6901 124.841 47.9801C124.841 47.9801 125.201 39.5701 125.201 34.5601" stroke="#1A1A1A" stroke-width="0.2" stroke-linecap="round" stroke-linejoin="round"/>
<path d="M141.13 30.7C140.99 35.18 141.16 43.6499 141.13 44.1199C141.1 44.5899 140.88 44.7799 140.35 44.7799C139.82 44.7799 139.02 44.8299 138.96 44.1199C138.96 44.1199 139.32 35.71 139.32 30.7" fill="#E0CFB9"/>
<path d="M141 30.7C140.86 35.18 141.03 43.6499 141 44.1199C140.97 44.5899 140.75 44.7799 140.22 44.7799C139.69 44.7799 138.89 44.8299 138.83 44.1199C138.83 44.1199 139.19 35.71 139.19 30.7" stroke="#1A1A1A" stroke-width="0.2" stroke-linecap="round" stroke-linejoin="round"/>
<path d="M93.8399 36.4399C93.6999 40.9199 93.8699 49.3899 93.8399 49.8599C93.8099 50.3299 93.5899 50.5199 93.0599 50.5199C92.5299 50.5199 91.7299 50.5699 91.6699 49.8599C91.6699 49.8599 92.0299 41.4499 92.0299 36.4399" fill="#E0CFB9"/>
<path d="M93.71 36.4399C93.57 40.9199 93.74 49.3899 93.71 49.8599C93.68 50.3299 93.46 50.5199 92.93 50.5199C92.4 50.5199 91.6 50.5699 91.54 49.8599C91.54 49.8599 91.9 41.4499 91.9 36.4399" stroke="#1A1A1A" stroke-width="0.2" stroke-linecap="round" stroke-linejoin="round"/>
<path d="M75.9405 34.5601C75.8005 39.0401 75.9705 47.5101 75.9405 47.9801C75.9105 48.4501 75.6905 48.6401 75.1605 48.6401C74.6305 48.6401 73.8305 48.6901 73.7705 47.9801C73.7705 47.9801 74.1305 39.5701 74.1305 34.5601" fill="#E0CFB9"/>
<path d="M75.7999 34.5601C75.6599 39.0401 75.8299 47.5101 75.7999 47.9801C75.7699 48.4501 75.5499 48.6401 75.0199 48.6401C74.4899 48.6401 73.6899 48.6901 73.6299 47.9801C73.6299 47.9801 73.9899 39.5701 73.9899 34.5601" stroke="#1A1A1A" stroke-width="0.2" stroke-linecap="round" stroke-linejoin="round"/>
<path d="M58.0303 32.78C57.8903 37.26 58.0603 45.73 58.0303 46.2C58.0003 46.67 57.7804 46.86 57.2504 46.86C56.7204 46.86 55.9204 46.91 55.8604 46.2C55.8604 46.2 56.2204 37.79 56.2204 32.78" fill="#E0CFB9"/>
<path d="M57.9005 32.78C57.7605 37.26 57.9305 45.73 57.9005 46.2C57.8705 46.67 57.6505 46.86 57.1205 46.86C56.5905 46.86 55.7905 46.91 55.7305 46.2C55.7305 46.2 56.0905 37.79 56.0905 32.78" stroke="#1A1A1A" stroke-width="0.2" stroke-linecap="round" stroke-linejoin="round"/>
<path d="M41.9503 32.3298C41.8103 36.8098 41.9803 45.2798 41.9503 45.7498C41.9203 46.2198 41.7003 46.4098 41.1703 46.4098C40.6403 46.4098 39.8403 46.4598 39.7803 45.7498C39.7803 45.7498 40.1403 37.3398 40.1403 32.3298" fill="#E0CFB9"/>
<path d="M41.8204 32.3298C41.6804 36.8098 41.8504 45.2798 41.8204 45.7498C41.7904 46.2198 41.5704 46.4098 41.0404 46.4098C40.5104 46.4098 39.7104 46.4598 39.6504 45.7498C39.6504 45.7498 40.0104 37.3398 40.0104 32.3298" stroke="#1A1A1A" stroke-width="0.2" stroke-linecap="round" stroke-linejoin="round"/>
<path d="M32.4804 39.6999C29.3204 38.4299 35.5404 38.9699 35.0204 39.7199C34.5004 40.4699 34.4504 38.8899 32.6904 36.4599C30.9304 34.0299 31.5804 30.8599 31.5804 30.8599C29.3504 27.7099 34.5604 27.5899 34.5604 27.5899C33.6304 26.5799 33.9004 25.6699 36.0304 25.7599C38.1504 25.8599 39.5504 26.7099 37.7904 26.7199C36.0304 26.7199 33.9804 24.1599 37.7704 19.8699C41.5504 15.5799 48.6504 22.5899 47.0404 24.7899C45.4304 26.9799 39.9004 23.8899 42.8004 21.6499C45.7004 19.4099 46.6104 19.3299 50.0804 21.2399C53.5504 23.1499 45.1804 29.5099 47.8204 27.8899C50.4604 26.2799 51.0804 30.8899 51.1904 32.3799C51.2904 33.8699 50.2604 32.1599 50.2604 32.1599C50.2604 32.1599 52.4404 29.5999 52.4404 33.1299C52.4404 36.6599 47.2604 35.0399 47.2604 35.0399C50.1104 33.8499 47.5704 36.3799 47.5704 36.3799C48.5504 36.1899 52.6504 37.1399 53.6304 37.9699C54.6104 38.7999 50.9404 39.7199 50.9404 39.7199C50.9404 39.7199 47.4604 42.3499 41.8604 41.8999C41.8604 41.8999 43.3304 44.3599 39.8704 42.5699C36.4104 40.7799 32.3704 44.1499 32.5004 39.7099L32.4804 39.6999Z" fill="#91A188"/>
<g style="mix-blend-mode:lighten" opacity="0.2">
<path d="M35.51 28.7099C36.22 29.3599 35.19 31.3399 34.24 30.7499C33.29 30.1599 32.34 28.7099 33.29 28.7099C34.24 28.7099 35.19 28.4199 35.51 28.7099V28.7099Z" fill="#C9DFCE"/>
</g>
<g style="mix-blend-mode:lighten" opacity="0.2">
<path d="M38.6904 35.51C39.8704 36.6 38.1604 39.9 36.5704 38.92C34.9804 37.95 33.4004 35.51 34.9804 35.51C36.5604 35.51 38.1504 35.02 38.6804 35.51H38.6904Z" fill="#C9DFCE"/>
</g>
<g style="mix-blend-mode:lighten" opacity="0.2">
<path d="M38.3805 20.02C37.8505 19.26 39.4205 19.52 40.2105 20.45C41.0005 21.39 41.5605 22.58 40.6005 21.81C39.6505 21.04 38.6105 20.36 38.3705 20.02H38.3805Z" fill="#C9DFCE"/>
</g>
<g style="mix-blend-mode:lighten" opacity="0.2">
<path d="M47.11 28.6401C46.88 28.2701 47.71 27.7801 48.07 28.1801C48.43 28.5801 48.65 29.2801 48.19 29.0901C47.73 28.9001 47.21 28.8101 47.11 28.6501V28.6401Z" fill="#C9DFCE"/>
</g>
<g style="mix-blend-mode:lighten" opacity="0.2">
<path d="M31.9303 31.2199C31.7003 30.8499 32.5303 30.3599 32.8903 30.7599C33.2503 31.1599 33.4703 31.8599 33.0103 31.6699C32.5503 31.4799 32.0303 31.3899 31.9303 31.2299V31.2199Z" fill="#C9DFCE"/>
</g>
<g style="mix-blend-mode:lighten" opacity="0.2">
<path d="M46.5908 21C46.0508 20.51 47.3208 20.22 48.1008 20.78C48.8808 21.34 49.5108 22.2 48.6408 21.84C47.7708 21.48 46.8408 21.22 46.6008 21H46.5908Z" fill="#C9DFCE"/>
</g>
<path d="M32.4804 39.46C29.3204 38.19 35.5404 38.73 35.0204 39.48C34.5004 40.23 34.4504 38.65 32.6904 36.22C30.9304 33.79 31.5804 30.62 31.5804 30.62C29.3504 27.47 34.5604 27.35 34.5604 27.35C33.6304 26.34 33.9004 25.43 36.0304 25.52C38.1504 25.62 39.5504 26.47 37.7904 26.48C36.0304 26.48 33.9804 23.92 37.7704 19.63C41.5604 15.34 48.6504 22.35 47.0404 24.55C45.4304 26.74 39.9004 23.65 42.8004 21.41C45.7004 19.17 46.6104 19.09 50.0804 21C53.5504 22.91 45.1804 29.27 47.8204 27.65C50.4604 26.04 51.0804 30.65 51.1904 32.14C51.2904 33.63 50.2604 31.92 50.2604 31.92C50.2604 31.92 52.4404 29.36 52.4404 32.89C52.4404 36.42 47.2604 34.8 47.2604 34.8C50.1104 33.61 47.5704 36.14 47.5704 36.14C48.5504 35.95 52.6504 36.9 53.6304 37.73C54.6104 38.56 50.9404 39.48 50.9404 39.48C50.9404 39.48 47.4604 42.11 41.8604 41.66C41.8604 41.66 43.3304 44.12 39.8704 42.33C36.4204 40.54 32.3704 43.91 32.5004 39.47L32.4804 39.46Z" stroke="#1A1A1A" stroke-width="0.2" stroke-miterlimit="10"/>
<path d="M156.061 27.6699C155.921 32.1499 156.091 40.6199 156.061 41.0899C156.031 41.5599 155.811 41.7499 155.281 41.7499C154.751 41.7499 153.951 41.7999 153.891 41.0899C153.891 41.0899 154.251 32.6799 154.251 27.6699" fill="#E0CFB9"/>
<path d="M155.931 27.6699C155.791 32.1499 155.961 40.6199 155.931 41.0899C155.901 41.5599 155.681 41.7499 155.151 41.7499C154.621 41.7499 153.821 41.7999 153.761 41.0899C153.761 41.0899 154.121 32.6799 154.121 27.6699" stroke="#1A1A1A" stroke-width="0.2" stroke-linecap="round" stroke-linejoin="round"/>
<path d="M164.031 37.13C166.851 36 158.811 34.49 159.271 35.16C159.731 35.83 162.281 36.41 163.851 34.23C165.421 32.06 163.111 31.29 163.111 31.29C165.101 28.48 160.241 28.98 160.241 28.98C161.071 28.08 158.301 25.24 156.401 25.33C154.501 25.42 153.261 26.18 154.831 26.18C156.401 26.18 159.221 24.69 155.851 20.85C152.481 17.02 150.671 20.3 152.111 22.26C153.551 24.22 155.531 23.96 152.941 21.96C150.351 19.96 150.121 21.7 147.021 23.41C143.921 25.11 152.711 28.01 150.351 26.57C147.991 25.13 147.441 29.25 147.341 30.58C147.251 31.91 148.171 30.38 148.171 30.38C148.171 30.38 146.231 28.09 146.231 31.24C146.231 34.39 150.851 32.94 150.851 32.94C148.311 31.88 150.571 34.13 150.571 34.13C149.691 33.96 146.041 34.81 145.161 35.55C144.281 36.29 147.561 37.11 147.561 37.11C147.561 37.11 146.861 38.54 151.861 38.14C151.861 38.14 154.351 41.25 157.441 39.66C160.521 38.07 164.141 41.07 164.021 37.11L164.031 37.13Z" fill="#91A188"/>
<g style="mix-blend-mode:lighten" opacity="0.2">
<path d="M149.1 27.3199C148.47 27.8999 149.38 29.6599 150.23 29.1399C151.08 28.6199 151.93 27.3199 151.08 27.3199C150.23 27.3199 149.38 27.0599 149.1 27.3199Z" fill="#C9DFCE"/>
</g>
<g style="mix-blend-mode:lighten" opacity="0.2">
<path d="M155.741 32.1899C154.681 33.1599 156.211 36.1099 157.631 35.2399C159.051 34.3699 160.461 32.1899 159.051 32.1899C157.641 32.1899 156.221 31.7499 155.741 32.1899V32.1899Z" fill="#C9DFCE"/>
</g>
<g style="mix-blend-mode:lighten" opacity="0.2">
<path d="M157.271 26.3801C157.751 25.7001 156.341 25.9301 155.631 26.7701C154.921 27.6101 154.431 28.6701 155.281 27.9801C156.131 27.2901 157.061 26.6801 157.271 26.3801V26.3801Z" fill="#C9DFCE"/>
</g>
<g style="mix-blend-mode:lighten" opacity="0.2">
<path d="M150.271 31.9401C150.481 31.6101 149.731 31.1701 149.411 31.5301C149.091 31.8901 148.891 32.5101 149.311 32.3401C149.731 32.1701 150.181 32.0901 150.271 31.9401V31.9401Z" fill="#C9DFCE"/>
</g>
<g style="mix-blend-mode:lighten" opacity="0.2">
<path d="M155.181 23.87C155.391 23.54 154.641 23.1 154.321 23.46C154.001 23.82 153.801 24.44 154.221 24.27C154.641 24.1 155.091 24.02 155.181 23.87Z" fill="#C9DFCE"/>
</g>
<g style="mix-blend-mode:lighten" opacity="0.2">
<path d="M151.021 22.5901C151.511 22.1501 150.371 21.8901 149.671 22.3901C148.971 22.8901 148.411 23.6601 149.191 23.3401C149.971 23.0201 150.801 22.7901 151.011 22.5901H151.021Z" fill="#C9DFCE"/>
</g>
<path d="M163.951 37.13C166.771 36 158.731 34.49 159.191 35.16C159.651 35.83 162.201 36.41 163.771 34.23C165.341 32.05 163.031 31.29 163.031 31.29C165.021 28.48 160.161 28.98 160.161 28.98C160.991 28.08 158.221 25.24 156.321 25.33C154.421 25.42 153.181 26.18 154.751 26.18C156.321 26.18 159.141 24.69 155.771 20.85C152.401 17.02 150.591 20.3 152.031 22.26C153.471 24.22 155.451 23.96 152.861 21.96C150.271 19.96 150.041 21.7 146.941 23.41C143.841 25.11 152.631 28.01 150.271 26.57C147.911 25.13 147.361 29.25 147.261 30.58C147.171 31.91 148.091 30.38 148.091 30.38C148.091 30.38 146.151 28.09 146.151 31.24C146.151 34.39 150.771 32.94 150.771 32.94C148.231 31.88 150.491 34.13 150.491 34.13C149.611 33.96 145.961 34.81 145.081 35.55C144.201 36.29 147.481 37.11 147.481 37.11C147.481 37.11 146.781 38.54 151.781 38.14C151.781 38.14 154.271 41.25 157.361 39.66C160.441 38.07 164.061 41.07 163.941 37.11L163.951 37.13Z" stroke="#1A1A1A" stroke-width="0.2" stroke-miterlimit="10"/>
<path d="M66.06 40.6501C68.88 39.5201 60.84 38.0101 61.3 38.6801C61.76 39.3501 64.31 39.9301 65.88 37.7501C67.45 35.5701 65.14 34.8101 65.14 34.8101C67.13 32.0001 62.27 32.5001 62.27 32.5001C63.1 31.6001 60.33 28.7601 58.43 28.8501C56.53 28.9401 55.29 29.7001 56.86 29.7001C58.43 29.7001 61.25 28.2101 57.88 24.3701C54.51 20.5301 52.7 23.8201 54.14 25.7801C55.58 27.7401 57.56 27.4801 54.97 25.4801C52.38 23.4801 52.15 25.2201 49.05 26.9301C45.95 28.6301 54.74 31.5301 52.38 30.0901C50.02 28.6501 49.47 32.77 49.37 34.1C49.28 35.4301 50.2 33.9001 50.2 33.9001C50.2 33.9001 48.26 31.61 48.26 34.76C48.26 37.91 52.88 36.4601 52.88 36.4601C50.34 35.4001 52.6 37.6501 52.6 37.6501C51.72 37.4801 48.07 38.3301 47.19 39.0701C46.31 39.8101 49.59 40.6301 49.59 40.6301C49.59 40.6301 48.89 42.0601 53.89 41.6601C53.89 41.6601 56.38 44.7701 59.47 43.1801C62.56 41.5901 66.17 44.5901 66.05 40.6301L66.06 40.6501Z" fill="#91A188"/>
<g style="mix-blend-mode:lighten" opacity="0.2">
<path d="M51.1297 30.8499C50.4997 31.4299 51.4097 33.1899 52.2597 32.6699C53.1097 32.1499 53.9597 30.8499 53.1097 30.8499C52.2597 30.8499 51.4097 30.5899 51.1297 30.8499V30.8499Z" fill="#C9DFCE"/>
</g>
<g style="mix-blend-mode:lighten" opacity="0.2">
<path d="M57.7703 35.71C56.7103 36.68 58.2403 39.63 59.6603 38.76C61.0803 37.89 62.4903 35.71 61.0803 35.71C59.6703 35.71 58.2503 35.27 57.7703 35.71Z" fill="#C9DFCE"/>
</g>
<g style="mix-blend-mode:lighten" opacity="0.2">
<path d="M59.3004 29.9101C59.7804 29.2301 58.3704 29.4601 57.6604 30.3001C56.9504 31.1401 56.4604 32.2001 57.3104 31.5101C58.1604 30.8201 59.0904 30.2101 59.3004 29.9101Z" fill="#C9DFCE"/>
</g>
<g style="mix-blend-mode:lighten" opacity="0.2">
<path d="M52.3 35.4701C52.51 35.1401 51.76 34.7001 51.44 35.0601C51.12 35.4201 50.92 36.0401 51.34 35.8701C51.76 35.7001 52.21 35.6201 52.3 35.4701V35.4701Z" fill="#C9DFCE"/>
</g>
<g style="mix-blend-mode:lighten" opacity="0.2">
<path d="M57.2101 27.3901C57.4201 27.0601 56.6701 26.6201 56.3501 26.9801C56.0301 27.3401 55.8301 27.9601 56.2501 27.7901C56.6701 27.6201 57.1201 27.5401 57.2101 27.3901Z" fill="#C9DFCE"/>
</g>
<g style="mix-blend-mode:lighten" opacity="0.2">
<path d="M53.0499 26.1201C53.5399 25.6801 52.3999 25.4201 51.6999 25.9201C50.9999 26.4201 50.4399 27.1901 51.2199 26.8701C51.9999 26.5501 52.8299 26.3201 53.0399 26.1201H53.0499Z" fill="#C9DFCE"/>
</g>
<path d="M65.9799 40.6501C68.7999 39.5201 60.7599 38.0101 61.2199 38.6801C61.6799 39.3501 64.2299 39.9301 65.7999 37.7501C67.3699 35.5801 65.0599 34.8101 65.0599 34.8101C67.0499 32.0001 62.1899 32.5001 62.1899 32.5001C63.0199 31.6001 60.2499 28.7601 58.3499 28.8501C56.4499 28.9401 55.2099 29.7001 56.7799 29.7001C58.3499 29.7001 61.1699 28.2101 57.7999 24.3701C54.4299 20.5301 52.6199 23.8201 54.0599 25.7801C55.4899 27.7401 57.4799 27.4801 54.8899 25.4801C52.2999 23.4801 52.0699 25.2201 48.9699 26.9301C45.8699 28.6301 54.6599 31.5301 52.2999 30.0901C49.9399 28.6501 49.3899 32.77 49.2899 34.1C49.1999 35.4301 50.1199 33.9001 50.1199 33.9001C50.1199 33.9001 48.1799 31.61 48.1799 34.76C48.1799 37.91 52.7999 36.4601 52.7999 36.4601C50.2599 35.4001 52.5199 37.6501 52.5199 37.6501C51.6399 37.4801 47.9899 38.3301 47.1099 39.0701C46.2299 39.8101 49.5099 40.6301 49.5099 40.6301C49.5099 40.6301 48.8099 42.0601 53.8099 41.6601C53.8099 41.6601 56.2999 44.7701 59.3899 43.1801C62.4799 41.5901 66.0899 44.5901 65.9699 40.6301L65.9799 40.6501Z" stroke="#1A1A1A" stroke-width="0.2" stroke-miterlimit="10"/>
<path d="M132.281 39.3999C129.461 38.2699 135.011 38.7399 134.551 39.4199C134.091 40.0999 134.041 38.6799 132.471 36.5099C130.901 34.3399 131.481 31.5099 131.481 31.5099C129.491 28.6999 134.141 28.5899 134.141 28.5899C133.311 27.6899 133.561 26.8699 135.451 26.9599C137.351 27.0499 138.591 27.8099 137.021 27.8099C135.451 27.8099 133.621 25.5299 137.001 21.6899C140.371 17.8599 146.711 24.1199 145.281 26.0799C143.851 28.0399 138.901 25.2699 141.491 23.2699C144.081 21.2699 144.891 21.1999 147.991 22.8999C151.091 24.5999 143.621 30.2799 145.971 28.8399C148.331 27.3999 148.881 31.5199 148.981 32.8499C149.071 34.1799 148.151 32.6499 148.151 32.6499C148.151 32.6499 150.091 30.3599 150.091 33.5099C150.091 36.6599 145.471 35.2099 145.471 35.2099C148.011 34.1499 145.751 36.3999 145.751 36.3999C146.631 36.2299 150.281 37.0799 151.161 37.8199C152.041 38.5599 148.761 39.3799 148.761 39.3799C148.761 39.3799 145.661 41.7199 140.661 41.3299C140.661 41.3299 141.971 43.5299 138.891 41.9299C135.811 40.3399 132.191 43.3399 132.311 39.3799L132.281 39.3999Z" fill="#91A188"/>
<g style="mix-blend-mode:lighten" opacity="0.2">
<path d="M134.99 29.5899C135.62 30.1699 134.71 31.9299 133.86 31.4099C133.01 30.8899 132.16 29.5899 133.01 29.5899C133.86 29.5899 134.71 29.3299 134.99 29.5899Z" fill="#C9DFCE"/>
</g>
<g style="mix-blend-mode:lighten" opacity="0.2">
<path d="M137.821 35.6599C138.881 36.6299 137.351 39.5799 135.931 38.7099C134.511 37.8399 133.101 35.6599 134.511 35.6599C135.931 35.6599 137.341 35.2199 137.821 35.6599V35.6599Z" fill="#C9DFCE"/>
</g>
<g style="mix-blend-mode:lighten" opacity="0.2">
<path d="M137.541 21.83C137.061 21.15 138.471 21.38 139.181 22.22C139.891 23.06 140.381 24.12 139.531 23.43C138.681 22.74 137.751 22.13 137.541 21.83V21.83Z" fill="#C9DFCE"/>
</g>
<g style="mix-blend-mode:lighten" opacity="0.2">
<path d="M145.34 29.5299C145.13 29.1999 145.88 28.7599 146.2 29.1199C146.52 29.4799 146.72 30.0999 146.3 29.9299C145.88 29.7599 145.43 29.6799 145.34 29.5299Z" fill="#C9DFCE"/>
</g>
<g style="mix-blend-mode:lighten" opacity="0.2">
<path d="M131.79 31.84C131.58 31.51 132.33 31.07 132.65 31.43C132.97 31.79 133.17 32.41 132.75 32.24C132.34 32.07 131.88 31.99 131.79 31.84V31.84Z" fill="#C9DFCE"/>
</g>
<g style="mix-blend-mode:lighten" opacity="0.2">
<path d="M144.88 22.71C144.39 22.27 145.53 22.01 146.23 22.51C146.93 23.01 147.49 23.78 146.71 23.46C145.93 23.14 145.1 22.91 144.89 22.71H144.88Z" fill="#C9DFCE"/>
</g>
<path d="M132.281 39.19C129.461 38.06 135.011 38.53 134.551 39.21C134.091 39.89 134.041 38.47 132.471 36.3C130.901 34.13 131.481 31.3 131.481 31.3C129.491 28.49 134.141 28.38 134.141 28.38C133.311 27.48 133.561 26.66 135.451 26.75C137.351 26.84 138.591 27.6 137.021 27.6C135.451 27.6 133.621 25.32 137.001 21.48C140.371 17.65 146.711 23.91 145.281 25.87C143.851 27.83 138.901 25.06 141.491 23.06C144.081 21.06 144.891 20.99 147.991 22.69C151.091 24.39 143.621 30.07 145.971 28.63C148.321 27.19 148.881 31.31 148.981 32.64C149.071 33.97 148.151 32.44 148.151 32.44C148.151 32.44 150.091 30.15 150.091 33.3C150.091 36.45 145.471 35 145.471 35C148.011 33.94 145.751 36.19 145.751 36.19C146.631 36.02 150.281 36.87 151.161 37.61C152.041 38.35 148.761 39.17 148.761 39.17C148.761 39.17 145.661 41.51 140.661 41.12C140.661 41.12 141.971 43.32 138.891 41.72C135.811 40.13 132.191 43.13 132.311 39.17L132.281 39.19Z" stroke="#1A1A1A" stroke-width="0.2" stroke-miterlimit="10"/>
<path d="M137.841 41.3899C140.661 40.1099 135.111 40.6499 135.571 41.4099C136.031 42.1699 134.921 43.0199 136.491 40.5799C138.061 38.1399 135.261 34.7999 135.261 34.7999C137.251 31.6399 133.761 28.1499 133.761 28.1499C134.591 27.1299 135.031 27.0699 133.131 27.1599C131.231 27.2599 129.301 27.2699 130.871 27.2699C132.441 27.2699 134.881 30.3299 129.731 23.7499C126.361 19.4399 123.371 22.7399 124.801 24.9499C126.231 27.1599 128.821 25.1999 126.231 22.9399C123.641 20.6899 121.841 23.1999 118.741 25.1199C115.641 27.0399 116.351 31.5999 117.721 30.9499C115.311 33.9999 120.061 35.5099 119.961 37.0099C119.871 38.5099 120.791 36.7899 120.791 36.7899C120.791 36.7899 118.851 34.2099 118.851 37.7599C118.851 41.3099 121.261 38.9899 121.261 38.9899C118.721 37.7899 120.981 40.3299 120.981 40.3299C120.101 40.1399 116.451 41.0999 115.571 41.9299C114.691 42.7599 117.971 43.6799 117.971 43.6799C117.971 43.6799 119.701 42.9699 124.701 42.5299C124.701 42.5299 125.461 46.6699 128.541 44.8699C131.621 43.0699 137.921 45.8499 137.811 41.3899H137.841Z" fill="#91A188"/>
<g style="mix-blend-mode:lighten" opacity="0.2">
<path d="M131.52 32.4599C130.89 33.1199 131.8 35.0999 132.65 34.5099C133.5 33.9199 134.35 32.4599 133.5 32.4599C132.65 32.4599 131.8 32.1699 131.52 32.4599Z" fill="#C9DFCE"/>
</g>
<g style="mix-blend-mode:lighten" opacity="0.2">
<path d="M128.69 39.3001C127.63 40.4001 129.16 43.7101 130.58 42.7301C132 41.7501 133.41 39.3001 132 39.3001C130.58 39.3001 129.17 38.8101 128.69 39.3001V39.3001Z" fill="#C9DFCE"/>
</g>
<g style="mix-blend-mode:lighten" opacity="0.2">
<path d="M128.97 23.7399C129.45 22.9799 128.04 23.2299 127.33 24.1699C126.62 25.1099 126.13 26.3099 126.98 25.5399C127.83 24.7699 128.76 24.0799 128.97 23.7399Z" fill="#C9DFCE"/>
</g>
<g style="mix-blend-mode:lighten" opacity="0.2">
<path d="M121.17 32.4001C121.38 32.0301 120.63 31.5401 120.31 31.9401C119.99 32.3401 119.79 33.0401 120.21 32.8501C120.63 32.6601 121.08 32.5701 121.17 32.4001V32.4001Z" fill="#C9DFCE"/>
</g>
<g style="mix-blend-mode:lighten" opacity="0.2">
<path d="M134.72 34.9899C134.93 34.6199 134.18 34.1299 133.86 34.5299C133.54 34.9299 133.34 35.6299 133.76 35.4399C134.18 35.2499 134.63 35.1599 134.72 34.9899V34.9899Z" fill="#C9DFCE"/>
</g>
<g style="mix-blend-mode:lighten" opacity="0.2">
<path d="M121.63 24.72C122.12 24.23 120.98 23.93 120.28 24.5C119.58 25.07 119.02 25.93 119.8 25.57C120.58 25.21 121.41 24.95 121.62 24.73L121.63 24.72Z" fill="#C9DFCE"/>
</g>
<path d="M137.61 40.98C140.43 39.7 134.88 40.24 135.34 41C135.8 41.76 134.69 42.61 136.26 40.17C137.83 37.72 135.03 34.39 135.03 34.39C137.02 31.23 133.53 27.74 133.53 27.74C134.36 26.72 134.8 26.66 132.9 26.75C131 26.85 129.07 26.86 130.64 26.86C132.21 26.86 134.65 29.92 129.5 23.34C126.13 19.03 123.14 22.33 124.57 24.54C126 26.75 128.59 24.79 126 22.53C123.41 20.27 121.61 22.79 118.51 24.71C115.41 26.63 116.12 31.19 117.49 30.54C115.08 33.59 119.83 35.1 119.73 36.6C119.63 38.1 120.56 36.38 120.56 36.38C120.56 36.38 118.62 33.8 118.62 37.35C118.62 40.9 121.03 38.58 121.03 38.58C118.49 37.38 120.75 39.92 120.75 39.92C119.87 39.73 116.22 40.69 115.34 41.52C114.46 42.35 117.74 43.27 117.74 43.27C117.74 43.27 119.47 42.56 124.47 42.12C124.47 42.12 125.23 46.26 128.31 44.46C131.39 42.66 137.69 45.44 137.58 40.98H137.61Z" stroke="#1A1A1A" stroke-width="0.2" stroke-miterlimit="10"/>
<path d="M85.7608 42.7298C88.5808 41.4498 83.0308 41.9898 83.4908 42.7498C83.9508 43.5098 82.8408 44.3598 84.4108 41.9198C85.9808 39.4698 83.1808 36.1398 83.1808 36.1398C85.1708 32.9798 81.6808 29.4898 81.6808 29.4898C82.5108 28.4698 82.9508 28.4098 81.0508 28.4998C79.1508 28.5998 77.2208 28.6098 78.7908 28.6098C80.3608 28.6098 82.8008 31.6698 77.6508 25.0898C74.2808 20.7798 71.2908 24.0798 72.7208 26.2898C74.1508 28.4998 76.7408 26.5398 74.1508 24.2798C71.5608 22.0198 69.7608 24.5398 66.6608 26.4598C63.5608 28.3798 64.2708 32.9398 65.6408 32.2898C63.2308 35.3398 67.9808 36.8498 67.8808 38.3498C67.7908 39.8498 68.7108 38.1298 68.7108 38.1298C68.7108 38.1298 66.7708 35.5498 66.7708 39.0998C66.7708 42.6498 69.1808 40.3298 69.1808 40.3298C66.6408 39.1298 68.9008 41.6698 68.9008 41.6698C68.0208 41.4798 64.3708 42.4398 63.4908 43.2698C62.6108 44.0998 65.8908 45.0198 65.8908 45.0198C65.8908 45.0198 67.6208 44.3098 72.6208 43.8698C72.6208 43.8698 73.3808 48.0098 76.4608 46.2098C79.5408 44.4098 85.8408 47.1898 85.7308 42.7298H85.7608Z" fill="#91A188"/>
<g style="mix-blend-mode:lighten" opacity="0.2">
<path d="M79.45 33.8098C78.82 34.4698 79.73 36.4498 80.58 35.8598C81.43 35.2698 82.28 33.8098 81.43 33.8098C80.58 33.8098 79.73 33.5198 79.45 33.8098V33.8098Z" fill="#C9DFCE"/>
</g>
<g style="mix-blend-mode:lighten" opacity="0.2">
<path d="M76.6101 40.6499C75.5501 41.7499 77.0801 45.0599 78.5001 44.0799C79.9201 43.0999 81.3301 40.6499 79.9201 40.6499C78.5101 40.6499 77.0901 40.1599 76.6101 40.6499Z" fill="#C9DFCE"/>
</g>
<g style="mix-blend-mode:lighten" opacity="0.2">
<path d="M76.8902 25.0798C77.3702 24.3198 75.9602 24.5698 75.2502 25.5098C74.5402 26.4498 74.0502 27.6498 74.9002 26.8798C75.7502 26.1098 76.6802 25.4198 76.8902 25.0798Z" fill="#C9DFCE"/>
</g>
<g style="mix-blend-mode:lighten" opacity="0.2">
<path d="M69.1008 33.7499C69.3108 33.3799 68.5608 32.8899 68.2408 33.2899C67.9208 33.6899 67.7208 34.3899 68.1408 34.1999C68.5608 34.0099 69.0108 33.9199 69.1008 33.7499V33.7499Z" fill="#C9DFCE"/>
</g>
<g style="mix-blend-mode:lighten" opacity="0.2">
<path d="M82.6506 36.3398C82.8606 35.9698 82.1106 35.4798 81.7906 35.8798C81.4706 36.2798 81.2706 36.9798 81.6906 36.7898C82.1106 36.5998 82.5606 36.5098 82.6506 36.3398V36.3398Z" fill="#C9DFCE"/>
</g>
<g style="mix-blend-mode:lighten" opacity="0.2">
<path d="M69.5606 26.0598C70.0506 25.5698 68.9106 25.2698 68.2106 25.8398C67.5106 26.4098 66.9506 27.2698 67.7306 26.9098C68.5106 26.5498 69.3406 26.2898 69.5506 26.0698L69.5606 26.0598Z" fill="#C9DFCE"/>
</g>
<path d="M85.5303 42.3299C88.3503 41.0499 82.8003 41.5899 83.2603 42.3499C83.7203 43.1099 82.6103 43.9599 84.1803 41.5199C85.7503 39.0799 82.9503 35.7399 82.9503 35.7399C84.9403 32.5799 81.4503 29.0899 81.4503 29.0899C82.2803 28.0699 82.7203 28.0099 80.8203 28.0999C78.9203 28.1899 76.9903 28.2099 78.5603 28.2099C80.1903 28.2099 82.5703 31.2699 77.4203 24.6899C74.0503 20.3799 71.0603 23.6799 72.4903 25.8899C73.9203 28.0999 76.5103 26.1399 73.9203 23.8799C71.3303 21.6199 69.5303 24.1399 66.4303 26.0599C63.3303 27.9799 64.0403 32.5399 65.4103 31.8899C63.0003 34.9399 67.7503 36.4499 67.6503 37.9499C67.5503 39.4499 68.4803 37.7299 68.4803 37.7299C68.4803 37.7299 66.5403 35.1499 66.5403 38.6999C66.5403 42.2499 68.9503 39.9299 68.9503 39.9299C66.4103 38.7299 68.6703 41.2699 68.6703 41.2699C67.7903 41.0799 64.1403 42.0399 63.2603 42.8699C62.3803 43.6999 65.6603 44.6199 65.6603 44.6199C65.6603 44.6199 67.3903 43.9099 72.3903 43.4699C72.3903 43.4699 73.1503 47.6099 76.2303 45.8099C79.3103 44.0099 85.6103 46.7899 85.5003 42.3299H85.5303Z" stroke="#1A1A1A" stroke-width="0.2" stroke-miterlimit="10"/>
<path d="M82.4902 45.6299C79.3302 44.3599 85.5502 44.8999 85.0302 45.6499C84.5102 46.3999 84.4602 44.8199 82.7002 42.3899C80.9402 39.9599 81.5902 36.7899 81.5902 36.7899C79.3602 33.6399 84.5702 33.5199 84.5702 33.5199C83.6402 32.5099 83.9102 31.5999 86.0402 31.6899C88.1602 31.7899 89.5602 32.6399 87.8002 32.6499C86.0402 32.6499 83.9902 30.0899 87.7802 25.7999C91.5702 21.5099 98.6602 28.5199 97.0502 30.7199C95.4402 32.9099 89.9102 29.8199 92.8102 27.5799C95.7102 25.3399 96.6202 25.2599 100.09 27.1699C103.56 29.0799 95.1902 35.4399 97.8302 33.8199C100.47 32.2099 101.09 36.8199 101.2 38.3099C101.31 39.7999 100.27 38.0899 100.27 38.0899C100.27 38.0899 102.45 35.5299 102.45 39.0599C102.45 42.5899 97.2702 40.9699 97.2702 40.9699C100.12 39.7799 97.5802 42.3099 97.5802 42.3099C98.5602 42.1199 102.66 43.0699 103.64 43.8999C104.62 44.7299 100.95 45.6499 100.95 45.6499C100.95 45.6499 97.4702 48.2799 91.8702 47.8299C91.8702 47.8299 93.3402 50.2899 89.8802 48.4999C86.4302 46.7099 82.3802 50.0799 82.5102 45.6399L82.4902 45.6299Z" fill="#91A188"/>
<g style="mix-blend-mode:lighten" opacity="0.2">
<path d="M85.5305 34.6299C86.2405 35.2799 85.2105 37.2599 84.2605 36.6699C83.3105 36.0799 82.3605 34.6299 83.3105 34.6299C84.2605 34.6299 85.2105 34.3399 85.5305 34.6299Z" fill="#C9DFCE"/>
</g>
<g style="mix-blend-mode:lighten" opacity="0.2">
<path d="M88.7001 41.4399C89.8801 42.5299 88.1701 45.8299 86.5801 44.8499C84.9901 43.8799 83.4101 41.4399 84.9901 41.4399C86.5801 41.4399 88.1601 40.9499 88.6901 41.4399H88.7001Z" fill="#C9DFCE"/>
</g>
<g style="mix-blend-mode:lighten" opacity="0.2">
<path d="M88.3902 25.9499C87.8602 25.1899 89.4302 25.4499 90.2202 26.3799C91.0102 27.3099 91.5702 28.5099 90.6102 27.7399C89.6502 26.9699 88.6202 26.2899 88.3802 25.9499H88.3902Z" fill="#C9DFCE"/>
</g>
<g style="mix-blend-mode:lighten" opacity="0.2">
<path d="M97.1197 34.57C96.8897 34.2 97.7197 33.71 98.0797 34.11C98.4397 34.51 98.6597 35.21 98.1997 35.02C97.7397 34.83 97.2197 34.74 97.1197 34.58V34.57Z" fill="#C9DFCE"/>
</g>
<g style="mix-blend-mode:lighten" opacity="0.2">
<path d="M81.94 37.1498C81.71 36.7798 82.54 36.2898 82.9 36.6898C83.26 37.0898 83.48 37.7898 83.02 37.5998C82.56 37.4098 82.04 37.3198 81.94 37.1598V37.1498Z" fill="#C9DFCE"/>
</g>
<g style="mix-blend-mode:lighten" opacity="0.2">
<path d="M96.6005 26.92C96.0605 26.43 97.3305 26.14 98.1105 26.7C98.8905 27.26 99.5205 28.12 98.6505 27.76C97.7805 27.4 96.8505 27.14 96.6105 26.92H96.6005Z" fill="#C9DFCE"/>
</g>
<path d="M82.4902 45.3899C79.3302 44.1199 85.5502 44.6599 85.0302 45.4099C84.5102 46.1599 84.4602 44.5799 82.7002 42.1499C80.9402 39.7199 81.5902 36.5499 81.5902 36.5499C79.3602 33.3999 84.5702 33.2799 84.5702 33.2799C83.6402 32.2699 83.9102 31.3599 86.0402 31.4499C88.1702 31.5399 89.5602 32.3999 87.8002 32.4099C86.0402 32.4199 83.9902 29.8499 87.7802 25.5599C91.5702 21.2699 98.6602 28.2799 97.0502 30.4799C95.4402 32.6699 89.9102 29.5799 92.8102 27.3399C95.7102 25.0999 96.6202 25.0199 100.09 26.9299C103.56 28.8399 95.1902 35.1999 97.8302 33.5799C100.47 31.9699 101.09 36.5799 101.2 38.0699C101.31 39.5599 100.27 37.8499 100.27 37.8499C100.27 37.8499 102.45 35.2899 102.45 38.8199C102.45 42.3499 97.2702 40.7299 97.2702 40.7299C100.12 39.5399 97.5802 42.0699 97.5802 42.0699C98.5602 41.8799 102.66 42.8299 103.64 43.6599C104.62 44.4899 100.95 45.4099 100.95 45.4099C100.95 45.4099 97.4702 48.0399 91.8702 47.5899C91.8702 47.5899 93.3402 50.0499 89.8802 48.2599C86.4302 46.4699 82.3802 49.8399 82.5102 45.3999L82.4902 45.3899Z" stroke="#1A1A1A" stroke-width="0.2" stroke-miterlimit="10"/>
<path d="M100.251 46.96C97.4307 45.48 105.471 43.51 105.011 44.39C104.551 45.27 102.001 46.02 100.431 43.18C98.8607 40.34 101.171 39.34 101.171 39.34C99.1807 35.67 104.041 36.32 104.041 36.32C103.211 35.14 105.981 31.44 107.881 31.55C109.781 31.66 111.021 32.66 109.451 32.67C107.881 32.67 105.061 30.72 108.431 25.71C111.801 20.7 113.611 24.99 112.171 27.55C110.731 30.11 108.751 29.77 111.341 27.16C113.931 24.55 114.161 26.83 117.261 29.05C120.361 31.27 111.571 35.06 113.931 33.18C116.291 31.3 116.841 36.67 116.941 38.42C117.031 40.16 116.111 38.16 116.111 38.16C116.111 38.16 118.051 35.17 118.051 39.29C118.051 43.41 113.431 41.51 113.431 41.51C115.971 40.12 113.711 43.07 113.711 43.07C114.591 42.85 118.241 43.96 119.121 44.93C120.001 45.9 116.721 46.97 116.721 46.97C116.721 46.97 117.421 48.84 112.421 48.32C112.421 48.32 109.931 52.38 106.841 50.3C103.761 48.22 100.141 52.14 100.261 46.97L100.251 46.96Z" fill="#91A188"/>
<g style="mix-blend-mode:lighten" opacity="0.2">
<path d="M115.181 34.1601C115.811 34.9201 114.901 37.2201 114.051 36.5401C113.201 35.8601 112.351 34.1601 113.201 34.1601C114.051 34.1601 114.901 33.8201 115.181 34.1601V34.1601Z" fill="#C9DFCE"/>
</g>
<g style="mix-blend-mode:lighten" opacity="0.2">
<path d="M108.54 40.5099C109.6 41.7799 108.07 45.6199 106.65 44.4899C105.23 43.3499 103.82 40.5099 105.23 40.5099C106.64 40.5099 108.06 39.9399 108.54 40.5099Z" fill="#C9DFCE"/>
</g>
<g style="mix-blend-mode:lighten" opacity="0.2">
<path d="M107.011 32.9201C106.531 32.0301 107.941 32.3301 108.651 33.4201C109.361 34.5101 109.851 35.9001 109.001 35.0001C108.151 34.1001 107.221 33.3101 107.011 32.9101V32.9201Z" fill="#C9DFCE"/>
</g>
<g style="mix-blend-mode:lighten" opacity="0.2">
<path d="M114.011 40.19C113.801 39.76 114.551 39.19 114.871 39.65C115.191 40.11 115.391 40.93 114.971 40.71C114.551 40.49 114.101 40.39 114.011 40.19Z" fill="#C9DFCE"/>
</g>
<g style="mix-blend-mode:lighten" opacity="0.2">
<path d="M109.101 29.6399C108.891 29.2099 109.641 28.6399 109.961 29.0999C110.281 29.5599 110.481 30.3799 110.061 30.1599C109.641 29.9399 109.191 29.8399 109.101 29.6399Z" fill="#C9DFCE"/>
</g>
<g style="mix-blend-mode:lighten" opacity="0.2">
<path d="M113.26 27.9701C112.77 27.4001 113.91 27.0601 114.61 27.7101C115.31 28.3601 115.87 29.3701 115.09 28.9501C114.31 28.5301 113.48 28.2301 113.27 27.9701H113.26Z" fill="#C9DFCE"/>
</g>
<path d="M100.341 46.96C97.5205 45.48 105.561 43.51 105.101 44.39C104.641 45.27 102.091 46.02 100.521 43.18C98.9505 40.34 101.261 39.34 101.261 39.34C99.2706 35.67 104.131 36.32 104.131 36.32C103.301 35.14 106.071 31.44 107.971 31.55C109.871 31.66 111.111 32.66 109.541 32.67C107.971 32.68 105.151 30.72 108.521 25.71C111.891 20.7 113.701 24.99 112.261 27.55C110.821 30.11 108.841 29.77 111.431 27.16C114.021 24.55 114.251 26.83 117.351 29.05C120.451 31.27 111.661 35.06 114.021 33.18C116.381 31.3 116.931 36.67 117.031 38.42C117.121 40.16 116.201 38.16 116.201 38.16C116.201 38.16 118.141 35.17 118.141 39.29C118.141 43.41 113.521 41.51 113.521 41.51C116.061 40.12 113.801 43.07 113.801 43.07C114.681 42.85 118.331 43.96 119.211 44.93C120.091 45.9 116.811 46.97 116.811 46.97C116.811 46.97 117.511 48.84 112.511 48.32C112.511 48.32 110.021 52.38 106.931 50.3C103.851 48.22 100.231 52.14 100.351 46.97L100.341 46.96Z" stroke="#1A1A1A" stroke-width="0.2" stroke-miterlimit="10"/>
<g style="mix-blend-mode:multiply">
<path d="M146.99 91.21C142.39 91.21 137.79 91.21 133.19 91.21C132.21 91.21 131.22 91.21 130.28 91.37C129.33 91.53 128.42 91.86 127.91 92.38C133.9 94.12 141.3 93.76 146.8 91.45" fill="#BBBAAE"/>
</g>
<path d="M131.55 77.6699C131.53 76.0199 131.04 75.9399 131.04 75.9399L130.77 77.6799C130.98 77.6499 131.31 77.5999 131.55 77.6799V77.6699Z" fill="#C5B5A3"/>
<path d="M137.97 86.51L136.39 86.78C136.56 87.43 137.25 89.42 139.39 89.5L139.22 91.52C139.22 91.52 138.67 91.45 138.68 91.82H139.51L140.65 89.49C138.38 89.14 137.96 86.52 137.96 86.52L137.97 86.51Z" fill="#C5B5A3"/>
<path d="M146.02 81.5199C145.89 81.0599 145.5 80.6999 145.05 80.5399C144.6 80.3799 144.1 80.4199 143.64 80.5699C142.68 80.8899 141.93 81.7399 141.73 82.7299C141.67 83.0199 141.66 83.3299 141.54 83.6099C141.47 83.7799 141.34 83.9499 141.18 84.0399C140.94 83.8699 140.45 83.6399 139.47 83.5599C137.86 83.4399 135.15 83.0899 134.16 82.2399C133.17 81.3999 132.72 79.0599 132.72 79.0599C132.72 79.0599 133.17 77.1699 133.17 75.9299C133.17 75.9299 132.1 76.8999 131.75 77.7699C131.7 77.7199 131.64 77.6799 131.56 77.6599C131.32 77.5899 130.99 77.6299 130.78 77.6599C130.33 77.7299 129.91 78.0099 129.94 78.3299L128.39 78.3099C128.39 78.3099 128.44 78.3099 128.45 78.3399C128.46 78.3599 128.45 78.3799 128.45 78.3999C128.43 78.5299 128.34 78.6499 128.22 78.7199C128.11 78.7899 127.96 78.7999 127.84 78.7599C127.96 79.1199 128.28 79.6399 129.11 80.0899C130.57 80.8799 130.23 81.2299 130.23 81.2299C130.23 81.2299 129.41 84.3099 130.27 85.9999C131.13 87.6899 131.5 88.1599 131.5 88.4799C131.5 88.7999 131.13 92.2499 131.13 92.2499C131.13 92.2499 130.16 92.4199 130.51 92.5499C130.86 92.6699 131.5 92.5499 131.5 92.5499L132.99 87.8299C132.99 87.8299 134.9 90.1899 134.88 90.5599C134.86 90.9299 134.88 91.7299 134.88 91.7299C134.88 91.7299 134.21 91.8299 134.48 91.9299C134.75 92.0299 135.35 91.9099 135.35 91.9099V90.0499L134.61 87.0699L136.4 86.7699L137.98 86.4999C137.98 86.4999 138.4 89.1199 140.67 89.4699C140.69 89.4699 140.7 89.4699 140.72 89.4699C143.03 89.7899 143.53 92.0799 143.53 92.0799C143.53 92.0799 142.83 92.2499 143.01 92.4999L143.9 92.3499C143.9 92.3499 144.35 89.3199 141.91 88.4299C141.91 88.4299 141.66 88.1599 141.56 87.7599C141.47 87.4099 141.4 84.9299 141.39 84.3399C141.89 83.8599 142.23 83.1299 142.89 82.8999C143.32 82.7399 143.8 82.8399 144.26 82.9199C144.71 82.9899 145.22 83.0299 145.6 82.7799C146 82.5199 146.17 81.9699 146.03 81.5099L146.02 81.5199Z" fill="#E0CFB9"/>
<path d="M131.42 77.6699C131.4 76.0199 130.91 75.9399 130.91 75.9399L130.64 77.6799C130.85 77.6499 131.18 77.5999 131.42 77.6799V77.6699Z" stroke="#010100" stroke-width="0.2" stroke-linecap="round" stroke-linejoin="round"/>
<path d="M137.84 86.51L136.26 86.78C136.43 87.43 137.12 89.42 139.26 89.5L139.09 91.52C139.09 91.52 138.54 91.45 138.55 91.82H139.38L140.52 89.49C138.25 89.14 137.83 86.52 137.83 86.52L137.84 86.51Z" stroke="#010100" stroke-width="0.2" stroke-linecap="round" stroke-linejoin="round"/>
<path d="M145.89 81.5199C145.76 81.0599 145.37 80.6999 144.92 80.5399C144.47 80.3799 143.97 80.4199 143.51 80.5699C142.55 80.8899 141.8 81.7399 141.6 82.7299C141.54 83.0199 141.53 83.3299 141.41 83.6099C141.34 83.7799 141.21 83.9499 141.05 84.0399C140.81 83.8699 140.32 83.6399 139.34 83.5599C137.73 83.4399 135.02 83.0899 134.03 82.2399C133.04 81.3999 132.59 79.0599 132.59 79.0599C132.59 79.0599 133.04 77.1699 133.04 75.9299C133.04 75.9299 131.97 76.8999 131.62 77.7699C131.57 77.7199 131.51 77.6799 131.43 77.6599C131.19 77.5899 130.86 77.6299 130.65 77.6599C130.2 77.7299 129.78 78.0099 129.81 78.3299L128.26 78.3099C128.26 78.3099 128.31 78.3099 128.32 78.3399C128.33 78.3599 128.32 78.3799 128.32 78.3999C128.3 78.5299 128.21 78.6499 128.09 78.7199C127.98 78.7899 127.83 78.7999 127.71 78.7599C127.83 79.1199 128.15 79.6399 128.98 80.0899C130.44 80.8799 130.1 81.2299 130.1 81.2299C130.1 81.2299 129.28 84.3099 130.14 85.9999C131 87.6899 131.37 88.1599 131.37 88.4799C131.37 88.7999 131 92.2499 131 92.2499C131 92.2499 130.03 92.4199 130.38 92.5499C130.73 92.6699 131.37 92.5499 131.37 92.5499L132.86 87.8299C132.86 87.8299 134.77 90.1899 134.75 90.5599C134.73 90.9299 134.75 91.7299 134.75 91.7299C134.75 91.7299 134.08 91.8299 134.35 91.9299C134.62 92.0299 135.22 91.9099 135.22 91.9099V90.0499L134.48 87.0699L136.27 86.7699L137.85 86.4999C137.85 86.4999 138.27 89.1199 140.54 89.4699C140.56 89.4699 140.57 89.4699 140.59 89.4699C142.9 89.7899 143.4 92.0799 143.4 92.0799C143.4 92.0799 142.7 92.2499 142.88 92.4999L143.77 92.3499C143.77 92.3499 144.22 89.3199 141.78 88.4299C141.78 88.4299 141.53 88.1599 141.43 87.7599C141.34 87.4099 141.27 84.9299 141.26 84.3399C141.76 83.8599 142.1 83.1299 142.76 82.8999C143.19 82.7399 143.67 82.8399 144.13 82.9199C144.58 82.9899 145.09 83.0299 145.47 82.7799C145.87 82.5199 146.04 81.9699 145.9 81.5099L145.89 81.5199Z" stroke="#010100" stroke-width="0.2" stroke-linecap="round" stroke-linejoin="round"/>
<path d="M128.31 78.35C128.31 78.35 128.27 78.33 128.25 78.32C128.05 78.29 127.84 78.29 127.63 78.29C127.6 78.44 127.63 78.6 127.69 78.73V78.76H127.7C127.83 78.8 127.97 78.78 128.08 78.72C128.2 78.65 128.28 78.53 128.31 78.4C128.31 78.38 128.31 78.36 128.31 78.34V78.35Z" fill="#A6A4A4" stroke="#010100" stroke-width="0.2" stroke-linecap="round" stroke-linejoin="round"/>
<path d="M130.9 78.3599C130.84 78.4099 130.83 78.4799 130.81 78.5499C130.81 78.5899 130.81 78.6399 130.86 78.6599C130.86 78.6599 130.88 78.6699 130.89 78.6799C130.93 78.6999 130.99 78.6799 131.01 78.6299C131.01 78.5999 131.02 78.5699 131.01 78.5399C131.01 78.5199 130.99 78.4999 130.98 78.4799C130.98 78.4499 130.98 78.4199 130.98 78.3899C130.98 78.3499 130.94 78.3399 130.91 78.3599H130.9Z" fill="#010100"/>
<path d="M128.979 80.11C128.979 80.11 130.42 80.52 130.91 79.96" stroke="#010100" stroke-width="0.2" stroke-linecap="round" stroke-linejoin="round"/>
<path d="M129.949 81.7299C129.949 81.7299 132.489 81.5199 133.139 80.6499L133.289 81.1099C133.289 81.1099 131.859 82.2499 129.939 82.0899V81.7299H129.949Z" fill="#E0B0B0"/>
<path d="M129.949 81.6398C129.949 81.6398 132.489 81.4298 133.139 80.5598L133.289 81.0198C133.289 81.0198 131.859 82.1598 129.939 81.9998V81.6398H129.949Z" stroke="#010100" stroke-width="0.2" stroke-linecap="round" stroke-linejoin="round"/>
</g>
<defs>
<clipPath id="clip0_191_7580">
<rect width="195.54" height="115.43" fill="white"/>
</clipPath>
</defs>
</svg>
