<?xml version="1.0" encoding="utf-8"?>
<!-- Generator: Adobe Illustrator 26.4.1, SVG Export Plug-In . SVG Version: 6.00 Build 0)  -->
<svg version="1.1" id="Layer_1" xmlns="http://www.w3.org/2000/svg" xmlns:xlink="http://www.w3.org/1999/xlink" x="0px" y="0px"
	 viewBox="0 0 178.6 127.5" style="enable-background:new 0 0 178.6 127.5;" xml:space="preserve">
<style type="text/css">
	.st0{fill:#DCE2D9;}
	.st1{fill:#8A9385;}
	.st2{fill:#F2F4F2;}
	.st3{fill:#93A48A;}
	.st4{opacity:0.2;fill:#CDE3D1;}
	.st5{fill:none;stroke:#1A1A1A;stroke-width:0.2;stroke-miterlimit:10;}
	.st6{fill:none;}
	.st7{opacity:0.3;}
	.st8{fill:#BCBBAE;}
	.st9{fill:#C7B49E;}
	.st10{fill:#CCE1E8;}
	.st11{fill:#C2CFE5;}
	.st12{fill:none;stroke:#1A1A1A;stroke-width:0.2;stroke-linecap:round;stroke-linejoin:round;stroke-miterlimit:10;}
	.st13{fill:#F3E4D2;}
	.st14{fill:#E3D1BB;}
	.st15{fill:#BCB6B1;}
	.st16{fill:#E2E2E1;}
	.st17{fill:#FBFBFA;stroke:#1A1A1A;stroke-width:0.2;stroke-linecap:round;stroke-linejoin:round;stroke-miterlimit:10;}
	.st18{fill:#1A1A1A;}
	.st19{fill:#F0D8D3;}
	.st20{opacity:0.3;fill:#F0D8D3;}
	.st21{fill:#7D6764;}
	.st22{fill:none;stroke:#020203;stroke-width:0.2;stroke-miterlimit:10;}
	.st23{fill:#C6B6A3;}
	.st24{fill:none;stroke:#020203;stroke-width:0.2;stroke-linecap:round;stroke-linejoin:round;stroke-miterlimit:10;}
	.st25{fill:#A5A4A3;stroke:#020203;stroke-width:0.2;stroke-linecap:round;stroke-linejoin:round;stroke-miterlimit:10;}
	.st26{fill:#020203;}
	.st27{fill:#E5B3B3;}
	.st28{fill:#B1C6A8;}
	.st29{opacity:0.7;fill:#CDE3D1;}
</style>
<g>
	<path class="st0" d="M9.2,62c10,46.3,38.4,65.9,58.6,53.1s37.8-9,48.6-4.2s63.7-21.6,45.2-64.2s-39-62.4-65.2-32.2
		s-53.6,0.9-72.2,1.4C5.6,16.5,3.5,35.7,9.2,62z"/>
	<path class="st1" d="M138.1,71.4c-1-0.2-11.6-1.4-13.5-1.8C104.2,65.9,26.7,44.8,4.5,58.3C-0.1,61.1-1,66.9,1,72.7
		c8.6,24.6,8.4,31.6,18.9,43.2c29.2,23.3,105.5,4.9,118.7,0.8c15.4-4.7,22.2-9.4,31.2-18.4c0.6-0.6,1.3-1.4,2-2.1
		C191.6,73.8,163.8,75.6,138.1,71.4z"/>
	<path class="st2" d="M45.8,33.4c1.4-2.6-5.7-10.3-17.6-6s-14.2,1.4-15.3,3.5s12.8,3.9,16.7,2.4C33.5,32,44,36.7,45.8,33.4z"/>
	<path class="st2" d="M108.6,40.1c4.2,3.9-16,15.7-49.7,9.9S35,44.7,39.6,42.6c12.1-5.3,11.8-3.5,23-1.7S103.4,35.3,108.6,40.1z"/>
	<g>
		<path class="st3" d="M149.2,75.5c0,0,8.1,2.8,8.1-3.3s-3.4-1.7-3.4-1.7s1.6,3,1.5,0.4c-0.2-2.6-1.1-10.6-5.3-7.8
			c-4.1,2.8,11.2-2.8,5.8-6.2c-5.4-3.3-5.8-6.7-10.4-2.8c-4.5,3.9-1.1,4.4,1.5,0.6s-0.6-10.2-6.6-2.7s-1,10.4,1.8,10.4
			c2.8,0,0.6-1.5-2.8-1.7c-3.3-0.2-8.2,5.4-6.7,7.1c0,0-8.5-1-5,4.5c0,0-4,1.5-1.3,5.7c2.8,4.2,7.2,3.1,8,1.8
			c0.8-1.3-13.3,1.6-8.3,3.8H155c0,0,5.7-1.6,4.2-3s-7.9-3.1-9.5-2.8C149.7,77.9,153.7,73.5,149.2,75.5z"/>
		<path class="st4" d="M149.7,55.3c-0.8-0.9,1.1-1.4,2.4-0.4c1.2,1,2.2,2.5,0.8,1.8C151.5,56.1,150,55.7,149.7,55.3z"/>
		<path class="st5" d="M150.1,75.5c0,0,8.1,2.8,8.1-3.3s-3.4-1.7-3.4-1.7s1.6,3,1.5,0.4s-1.1-10.6-5.3-7.8
			c-4.1,2.8,11.2-2.8,5.8-6.2c-5.4-3.3-5.8-6.7-10.4-2.8c-4.5,3.9-1.1,4.4,1.5,0.6s-0.6-10.2-6.6-2.7s-1,10.4,1.8,10.4
			c2.8,0,0.6-1.5-2.8-1.7c-3.3-0.2-8.2,5.4-6.7,7.1c0,0-8.5-1-5,4.5c0,0-4,1.5-1.3,5.7c2.8,4.2,7.2,3.1,8,1.8
			c0.8-1.3-13.3,1.6-8.3,3.8h28.8c0,0,5.7-1.6,4.2-3s-7.9-3.1-9.5-2.8C150.6,77.9,154.5,73.5,150.1,75.5z"/>
		<path class="st4" d="M142.4,57.8c-0.4-0.6,0.9-1.5,1.5-0.8c0.6,0.7,0.9,1.9,0.2,1.6C143.3,58.2,142.5,58.1,142.4,57.8z"/>
		<path class="st4" d="M153,64.5c1.1,1.1-0.5,4.6-2,3.6c-1.5-1-3-3.6-1.5-3.6C151,64.5,152.5,64,153,64.5z"/>
		<path class="st4" d="M141.4,74c1.8,1.9-0.8,7.6-3.3,5.9c-2.5-1.7-5-5.9-2.5-5.9C138.1,74,140.6,73.2,141.4,74z"/>
		<path class="st4" d="M138.7,62.7c-0.8-1.3,1.6-0.9,2.9,0.8s2.1,3.7,0.6,2.4S139.1,63.3,138.7,62.7z"/>
		<path class="st4" d="M151,73.6c-0.4-0.6,0.9-1.5,1.5-0.8c0.6,0.7,0.9,1.9,0.2,1.6C151.9,74,151.1,73.8,151,73.6z"/>
	</g>
	<path class="st2" d="M159.9,33.4c1.9-3.5-7.6-13.7-23.3-7.9s-18.8,1.8-20.3,4.7c-1.6,2.9,16.9,5.1,22.1,3.2
		C143.6,31.6,157.5,37.8,159.9,33.4z"/>
	<polygon class="st6" points="99.7,51.1 99.7,51.1 99.7,51.1 	"/>
	<g>
		<g class="st7">
			<path class="st1" d="M32.6,82.2c7.5,0,15.1,0,22.6,0c1.6,0,3.2,0,4.8-0.6c1.5-0.6,3-1.9,3.9-4c-9.8-6.8-21.9-5.4-30.9,3.6"/>
		</g>
		<path class="st3" d="M54.8,63.6c0,0,6.6,5.4,6.6-6.4S58.6,54,58.6,54s1.3,5.7,1.2,0.7c-0.1-5-0.9-20.3-4.3-15s9.2-5.4,4.8-11.8
			s-4.8-12.9-8.5-5.4C48.1,30,50.9,31,53,23.7c2.1-7.3-0.5-19.6-5.4-5.2s-0.8,19.9,1.5,19.9s0.5-2.9-2.3-3.2
			c-2.7-0.3-6.7,10.3-5.5,13.6c0,0-7-1.9-4.1,8.6c0,0-3.3,2.9-1.1,11s5.9,6,6.6,3.5c0.7-2.5-10.9,3.1-6.8,7.4h23.6
			c0,0,4.7-3.1,3.5-5.8c-1.3-2.8-6.5-5.9-7.8-5.3C55.2,68,58.4,59.6,54.8,63.6z"/>
		<path class="st4" d="M57.9,42.6c0.9,2.2-0.4,8.8-1.6,6.8c-1.2-1.9-2.4-6.8-1.2-6.8S57.5,41.6,57.9,42.6z"/>
		<path class="st4" d="M48.4,60.7c1.5,3.6-0.7,14.6-2.7,11.4c-2-3.2-4.1-11.4-2-11.4C45.6,60.7,47.7,59.1,48.4,60.7z"/>
		<path class="st4" d="M46.2,39c-0.7-2.5,1.3-1.7,2.3,1.4s1.7,7.1,0.5,4.5S46.5,40.2,46.2,39z"/>
		<path class="st4" d="M56.2,59.8c-0.3-1.2,0.8-2.9,1.2-1.5s0.7,3.7,0.1,3S56.3,60.4,56.2,59.8z"/>
		<path class="st4" d="M49.2,29.7c-0.3-1.2,0.8-2.9,1.2-1.5c0.5,1.3,0.7,3.7,0.1,3S49.3,30.2,49.2,29.7z"/>
		<path class="st4" d="M55.1,24.9c-0.7-1.6,0.9-2.6,1.9-0.7c1,1.9,1.8,4.7,0.7,3.5C56.6,26.5,55.4,25.6,55.1,24.9z"/>
		<path class="st5" d="M55.5,63.6c0,0,6.6,5.4,6.6-6.4S59.3,54,59.3,54s1.3,5.7,1.2,0.7c-0.1-5-0.9-20.3-4.3-15S65.4,34.3,61,28
			s-4.8-12.9-8.5-5.4c-3.7,7.5-0.9,8.4,1.2,1.1c2.1-7.3-0.5-19.6-5.4-5.2s-0.8,19.9,1.5,19.9s0.5-2.9-2.3-3.2
			c-2.7-0.3-6.7,10.3-5.5,13.6c0,0-7-1.9-4.1,8.6c0,0-3.3,2.9-1.1,11s5.9,6,6.6,3.5c0.7-2.5-10.9,3.1-6.8,7.4h23.6
			c0,0,4.7-3.1,3.5-5.8c-1.3-2.8-6.5-5.9-7.8-5.3C55.9,68,59.1,59.6,55.5,63.6z"/>
	</g>
	<g>
		<g>
			<g>
				<path class="st8" d="M70.9,95.8c1.3,4.8,11.2,0,14.2,0.2c3,0.2,17.7,1.4,15.3-3.6s-21.6,1-24.2,1.2
					C73.6,93.7,70.1,92.8,70.9,95.8z"/>
				<path class="st9" d="M76.5,93.5c-2.1,0.4-4.3,1.2-2,1.3c2.3,0.1,8.9-1.5,10.1-2.2l-0.4-4.1l-3.2,0.2
					C81.1,88.6,78.5,93.1,76.5,93.5z"/>
				<path class="st9" d="M94.8,86.3l-2.5,1.2c0,0,0.1,2.7-1,4c-1.2,1.3-2.3,1.4-1.9,2.1c0.4,0.6,0.4,0.4,1.6,0.5
					c1.2,0.1,5.1-4.1,5.9-4.6L94.8,86.3z"/>
				<path class="st9" d="M76.5,93.5c-2.1,0.4-4.3,1.2-2,1.3c2.3,0.1,8.9-1.5,10.1-2.2l-0.4-4.1l-3.2,0.2
					C81.1,88.6,78.5,93.1,76.5,93.5z"/>
				<path class="st9" d="M94.8,86.3l-2.5,1.2c0,0,0.1,2.7-1,4c-1.2,1.3-2.3,1.4-1.9,2.1c0.4,0.6,0.4,0.4,1.6,0.5
					c1.2,0.1,5.1-4.1,5.9-4.6L94.8,86.3z"/>
				<path class="st9" d="M76.5,93.5c-2.1,0.4-4.3,1.2-2,1.3c2.3,0.1,8.9-1.5,10.1-2.2l-0.4-4.1l-3.2,0.2
					C81.1,88.6,78.5,93.1,76.5,93.5z"/>
				<path class="st9" d="M94.8,86.3l-2.5,1.2c0,0,0.1,2.7-1,4c-1.2,1.3-2.3,1.4-1.9,2.1c0.4,0.6,0.4,0.4,1.6,0.5
					c1.2,0.1,5.1-4.1,5.9-4.6L94.8,86.3z"/>
				<path class="st9" d="M76.5,93.5c-2.1,0.4-4.3,1.2-2,1.3c2.3,0.1,8.9-1.5,10.1-2.2l-0.4-4.1l-3.2,0.2
					C81.1,88.6,78.5,93.1,76.5,93.5z"/>
				<path class="st9" d="M94.8,86.3l-2.5,1.2c0,0,0.1,2.7-1,4c-1.2,1.3-2.3,1.4-1.9,2.1c0.4,0.6,0.4,0.4,1.6,0.5
					c1.2,0.1,5.1-4.1,5.9-4.6L94.8,86.3z"/>
				<path class="st10" d="M79.9,58.1c-0.4,0.2-0.6,0.3-0.6,0.3l-0.4-0.9c0,0,0,0,0,0l0.1,0.1c0,0-0.1,0.1-0.2,0.3
					c-1.3,3.9-3.8,14.4,1.6,30.8l4-0.2c0,0-1.5-9.7,0.1-19.9c-1.1-4.8-1.4-8.2-1.5-9.7C81.8,58.7,80.7,58.4,79.9,58.1z"/>
				<path class="st10" d="M95.3,86.2c0,0-5.6-18.7-5.5-28.7c-0.6,0.7-1.5,1.1-2.6,1.3c-1.3,0.3-2.9,0.3-4.3,0.1
					c0.1,1.5,0.4,4.9,1.5,9.7c1.2,5.2,3.3,11.9,7.1,19.4l0.8-0.4l2.5-1.2v0L95.3,86.2z"/>
				<path class="st11" d="M79.9,58.1c-0.4,0.2-0.6,0.3-0.6,0.3l-0.4-0.9c0,0,0,0,0,0l0.1,0.1c0,0-0.1,0.1-0.2,0.3
					c-1.3,3.9-3.8,14.4,1.6,30.8l4-0.2c0,0-1.5-9.7,0.1-19.9c-1.1-4.8-1.4-8.2-1.5-9.7C81.8,58.7,80.7,58.4,79.9,58.1z"/>
				<path class="st11" d="M95.3,86.2c0,0-5.6-18.7-5.5-28.7c-0.6,0.7-1.5,1.1-2.6,1.3c-1.3,0.3-2.9,0.3-4.3,0.1
					c0.1,1.5,0.4,4.9,1.5,9.7c1.2,5.2,3.3,11.9,7.1,19.4l0.8-0.4l2.5-1.2v0L95.3,86.2z"/>
				<path class="st12" d="M79.6,57.8C79.2,58,79,58.1,79,58.1l-0.4-0.9c0,0,0,0,0,0l0.1,0.1c0,0-0.1,0.1-0.2,0.3
					c-1.3,3.9-3.8,14.4,1.6,30.8l4-0.2c0,0-1.5-9.7,0.1-19.9c-1.1-4.8-1.4-8.2-1.5-9.7C81.5,58.5,80.4,58.2,79.6,57.8z"/>
				<path class="st12" d="M95.1,85.9c0,0-5.6-18.7-5.5-28.7c-0.6,0.7-1.5,1.1-2.6,1.3c-1.3,0.3-2.9,0.3-4.3,0.1
					c0.1,1.5,0.4,4.9,1.5,9.7c1.2,5.2,3.3,11.9,7.1,19.4l0.8-0.4l2.5-1.2l0,0L95.1,85.9z"/>
				<path class="st12" d="M76.2,93.3c-2.1,0.4-4.3,1.2-2,1.3c2.3,0.1,8.9-1.5,10.1-2.2L84,88.3l-3.2,0.2
					C80.9,88.4,78.3,92.9,76.2,93.3z"/>
				<path class="st12" d="M94.5,86.2l-2.5,1.2c0,0,0.1,2.7-1,4c-1.2,1.3-2.3,1.4-1.9,2.1c0.4,0.6,0.4,0.4,1.6,0.5
					c1.2,0.1,5.1-4.1,5.9-4.6L94.5,86.2z"/>
				
					<rect x="91.9" y="86.7" transform="matrix(0.9044 -0.4266 0.4266 0.9044 -28.0887 48.0899)" class="st12" width="2.8" height="0"/>
				<path class="st12" d="M79.6,57.8C79.2,58,79,58.1,79,58.1l-0.4-0.9c0,0,0,0,0,0l0.1,0.1c0,0-0.1,0.1-0.2,0.3
					c-1.3,3.9-3.8,14.4,1.6,30.8l4-0.2c0,0-1.5-9.7,0.1-19.9c-1.1-4.8-1.4-8.2-1.5-9.7C81.5,58.5,80.4,58.2,79.6,57.8z"/>
				<path class="st12" d="M95.1,85.9c0,0-5.6-18.7-5.5-28.7c-0.6,0.7-1.5,1.1-2.6,1.3c-1.3,0.3-2.9,0.3-4.3,0.1
					c0.1,1.5,0.4,4.9,1.5,9.7c1.2,5.2,3.3,11.9,7.1,19.4l0.8-0.4l2.5-1.2l0,0L95.1,85.9z"/>
				<path class="st12" d="M76.2,93.3c-2.1,0.4-4.3,1.2-2,1.3c2.3,0.1,8.9-1.5,10.1-2.2L84,88.3l-3.2,0.2
					C80.9,88.4,78.3,92.9,76.2,93.3z"/>
				<path class="st12" d="M94.5,86.2l-2.5,1.2c0,0,0.1,2.7-1,4c-1.2,1.3-2.3,1.4-1.9,2.1c0.4,0.6,0.4,0.4,1.6,0.5
					c1.2,0.1,5.1-4.1,5.9-4.6L94.5,86.2z"/>
				<path class="st12" d="M76.2,93.3c-2.1,0.4-4.3,1.2-2,1.3c2.3,0.1,8.9-1.5,10.1-2.2L84,88.3l-3.2,0.2
					C80.9,88.4,78.3,92.9,76.2,93.3z"/>
				<path class="st12" d="M94.5,86.2l-2.5,1.2c0,0,0.1,2.7-1,4c-1.2,1.3-2.3,1.4-1.9,2.1c0.4,0.6,0.4,0.4,1.6,0.5
					c1.2,0.1,5.1-4.1,5.9-4.6L94.5,86.2z"/>
				<path class="st12" d="M76.2,93.3c-2.1,0.4-4.3,1.2-2,1.3c2.3,0.1,8.9-1.5,10.1-2.2L84,88.3l-3.2,0.2
					C80.9,88.4,78.3,92.9,76.2,93.3z"/>
				<path class="st12" d="M94.5,86.2l-2.5,1.2c0,0,0.1,2.7-1,4c-1.2,1.3-2.3,1.4-1.9,2.1c0.4,0.6,0.4,0.4,1.6,0.5
					c1.2,0.1,5.1-4.1,5.9-4.6L94.5,86.2z"/>
				
					<rect x="91.9" y="86.7" transform="matrix(0.9044 -0.4266 0.4266 0.9044 -28.0887 48.0899)" class="st12" width="2.8" height="0"/>
				<path class="st13" d="M86.2,36.6c0.6-0.8,5.2-1,7.3,0c2.1,1,5.2,0.9,5.6,2.4s0.9,5.2,0,5.6c0,0,2,9.1,0.2,10.5
					c-1.8,1.4-8.1,3.2-11.4,0.5C84.6,53,85.7,37.3,86.2,36.6z"/>
				<path class="st14" d="M86.3,36.7c0.4-0.7,2.9,0,4.4,0.9c1.5,0.9,2.3,1.6,2.6,2.9c0.3,1.4,1.8,4.5,1.2,4.8c0,0,1.1,9.7-0.2,11
					c-1.3,1.2-6.2-1.2-8.6-3.6C83.3,50.4,85.9,37.3,86.3,36.7z"/>
				<path class="st12" d="M86.3,36.5c0.6-0.8,5.2-1,7.3,0c2.1,1,5.2,0.9,5.6,2.4c0.4,1.5,0.9,5.2,0,5.6c0,0,2,9.1,0.2,10.5
					c-1.8,1.4-8.1,3.2-11.4,0.5C84.8,52.8,85.8,37.1,86.3,36.5z"/>
				<path class="st15" d="M77.1,43.1c-0.1-0.1-0.2-0.2-0.2-0.2c-0.3,0-0.9,1.2-0.9,1.2S73.4,50,77.6,51c4.1,1,8-7.9,7.9-9.7
					c-0.1-1.9-0.1-3.4-2.6-3.3S77.1,43.1,77.1,43.1z"/>
				<path class="st12" d="M77.1,43.1c-0.1-0.1-0.2-0.2-0.2-0.2c-0.3,0-0.9,1.2-0.9,1.2S73.4,50,77.6,51c4.1,1,8-7.9,7.9-9.7
					c-0.1-1.9-0.1-3.4-2.6-3.3S77.1,43.1,77.1,43.1z"/>
				<g>
					<path class="st16" d="M84,36.7c0,0-3.4,0.2-4.8,9.5c-0.7,4.7-0.1,4.6-1.3,9.1c-1.2,4.5,10.1,6,12.9,1.5
						c4.9-9.1,1.1-17.7-2.2-19.5C87.4,36.7,85.6,36.4,84,36.7z"/>
					<path class="st12" d="M84,36.5c0,0-3.4,0.2-4.8,9.5c-0.7,4.7-0.4,4.1-1.6,9c-1.1,4.6,13.7,7.7,14.3-0.9c1-8.3,0.6-15.1-3.4-17
						C87.2,36.6,85.6,36.3,84,36.5z"/>
				</g>
				<path class="st13" d="M86.3,36.7c0,0-5.2-0.5-6.9,7.8c-0.9,6.1-0.5,3.4-0.7,1c0.3-1.4,1.3-8.5,5.5-8.9
					C85.4,36.4,86.3,36.7,86.3,36.7z"/>
				<path class="st12" d="M86.3,36.5c0,0-5.2-0.5-6.9,7.8c-0.9,6.1-0.5,3.4-0.7,1c0.3-1.4,1.3-8.5,5.5-8.9
					C85.4,36.2,86.3,36.5,86.3,36.5z"/>
				<path class="st12" d="M78.1,47c0.1-0.7,0-1.2-0.1-1.8c-0.2-1.1-0.7-1.8-0.9-2.1c-0.1-0.1-0.2-0.2-0.2-0.2"/>
				<path class="st17" d="M78.7,41c-1,0.2-1.4,1.4-1.6,2.1c0.3,0.3,0.7,1.1,0.9,2.1c0.4-0.4,1.1-1.3,1.5-1.2
					C80,44.1,79.5,40.9,78.7,41z"/>
				<g>
					<path class="st17" d="M87.6,31.5c0.3-1.2-0.8-1.4-0.8-1.4S86,30,85.9,31l0,0.8l-0.5,0.1c-1.1-1.2-0.4-2.8-0.4-2.8
						c-0.7,0.1-1.3,0.2-1.8,0.1c-1.4-0.1-2.4-0.7-3.1-1.2c-0.3,0.7-0.5,3.7-0.2,4.9c0.4,2,1,3.6,3.2,3.6c0,0,0,0,0,0
						c1.4,0,2.9-0.7,4-1.9c-0.6-0.4-0.7-1-0.8-1.5c0-0.4,0.1-0.7,0.1-0.7S87.2,32.8,87.6,31.5z"/>
					<path class="st9" d="M87.9,35.3c-2-0.7-1.5-2.6-1.5-2.6s0.8,0.3,1.2-0.9c0.3-1.2-0.8-1.4-0.8-1.4s-0.8-0.1-0.9,0.8l0,0.8
						l-0.5,0.1c-1.1-1.2-0.4-2.8-0.4-2.8c-4.1,0.9-5.9-2.2-5.9-2.2c-0.7-0.9,0.3-1.8,0.7-2c0,0,0.8-0.4,1.4,0c0,0-0.3,0.5-0.2,0.6
						s10.1-2.8,8.3,3.7C87.4,36,87.9,35.3,87.9,35.3z"/>
					<path class="st12" d="M80.2,25.7c0,0,7.3-2.2,8.7,0.6c0.6,1.1,1,2.7,0.1,4.7c-0.5,1.1-1,1.7-1.1,4.1c-2-0.7-1.5-2.6-1.5-2.6
						s0.8,0.3,1.2-0.9c0.3-1.2-0.8-1.4-0.8-1.4S86,30,85.9,31l0,0.8l-0.5,0.1c-1.1-1.2-0.4-2.8-0.4-2.8c-4.1,0.9-5.9-2.2-5.9-2.2
						c-0.7-0.9,0.3-1.8,0.7-2"/>
					<g>
						<ellipse class="st18" cx="80.3" cy="30.9" rx="0.2" ry="0.2"/>
						<ellipse class="st18" cx="83.5" cy="31" rx="0.2" ry="0.2"/>
						<path class="st12" d="M81.4,31.1c0,0,0.6,1.1-0.3,1.1c-0.8,0.1-0.8,0-0.8,0.3c0,0.2,0,0.6,0.7,0.7c0.5,0.1,0.6,0,0.6,0"/>
						<path class="st12" d="M81,34.2c0,0,1.2,0.5,2.1-0.3"/>
					</g>
					<path class="st17" d="M83.1,36.6c0,0.4,0,1.2-0.1,1.7c-0.8,0.7,0.2,1.6,1.3,1.5c2.8,0.1,2.7-2.7,2.7-2.7l0.1-2.5
						C86,35.9,84.5,36.6,83.1,36.6z"/>
				</g>
				<path class="st13" d="M90.3,38.4c0,0-4-0.9-4.5,5c-0.6,5.9-1.2,1.6-1,0.2c0.3-1.4-0.3-5.9,3.9-6.3C90,37.2,90.3,38.4,90.3,38.4z
					"/>
				<path class="st12" d="M90.2,38.4c0,0-4-0.9-4.5,5c-0.6,5.9-1.2,1.6-1,0.2s-0.3-5.9,3.9-6.3C89.9,37.2,90.2,38.4,90.2,38.4z"/>
				<g>
					<path class="st17" d="M82.3,41.5c1.8,0.2,2.6,1.4,2.9,2.1c-0.5,0.3-1.3,1.1-1.7,2.1c-0.7-0.4-2-1.3-2.7-1.2
						C79.9,44.6,80.9,41.4,82.3,41.5z"/>
					<path class="st15" d="M83.6,45.9c0.4-1.1,1.2-1.8,1.7-2.1c0.2-0.1,0.4-0.2,0.4-0.2c0.5,0,1.7,1.2,1.7,1.2s-0.4-1.1-0.5-1.8
						c-0.8-4.5,2.8-5,4.6-2.5c0,0,2.7,3.7,2.2,10.1c-0.8,10.5-10.2-2.9-10.2-2.9C83.3,47,83.4,46.4,83.6,45.9z"/>
					<path class="st12" d="M83.5,45.8c0.4-1.1,1.2-1.8,1.7-2.1c0.2-0.1,0.4-0.2,0.4-0.2c0.5,0,1.7,1.2,1.7,1.2s-0.4-1.1-0.5-1.8
						c-0.8-4.5,2.8-5,4.6-2.5c0,0,2.7,3.7,2.2,10.1c-0.8,10.5-10.2-2.9-10.2-2.9C83.2,46.9,83.3,46.3,83.5,45.8z"/>
					<path class="st12" d="M89.8,46.6c-0.2-0.3-2.6-2-2.6-2s1.4-0.2,1.9,0.1"/>
				</g>
				<path class="st12" d="M99.2,44.5c0,0-4.6,1.4-4.9-2s2.3-4.1,3.3-3.2c1,0.9,1.6,4.4-0.7,3.7c-2.3-0.7-1.4-2.5-0.6-2.4
					c0.8,0,0.6,1.3,0.6,1.3"/>
			</g>
			<g>
				<g>
					<path class="st19" d="M102.4,47.4c0.5-0.8,5.1-1.3,7.3-0.4c2.2,0.9,5.2,0.6,5.7,2.1c0.5,1.5,1.2,5.1,0.3,5.6
						c0,0,2.5,8.9,0.8,10.4c-1.7,1.5-7.9,3.6-11.3,1.2S101.9,48.1,102.4,47.4z"/>
					<path class="st20" d="M102.5,47.5c0.4-0.7,2.9-0.2,4.5,0.6c1.6,0.8,2.4,1.4,2.8,2.8c0.4,1.4,2,4.3,1.4,4.7c0,0,1.7,9.7,0.4,11
						c-1.2,1.3-6.3-0.8-8.8-3C100.4,61.4,102.2,48.1,102.5,47.5z"/>
					<path class="st12" d="M102.5,47.3c0.5-0.8,5.1-1.3,7.3-0.4c2.2,0.9,5.2,0.6,5.7,2.1c0.5,1.5,1.2,5.1,0.3,5.6
						c0,0,2.5,8.9,0.8,10.4c-1.7,1.5-7.9,3.6-11.3,1.2S102.1,48,102.5,47.3z"/>
					<path class="st12" d="M115.9,54.5c0,0-4.6,1.7-5-1.7c-0.4-3.3,2.1-4.3,3.2-3.4c1.1,0.9,1.9,4.3-0.4,3.7s-1.5-2.4-0.7-2.4
						c0.8,0,0.7,1.3,0.7,1.3"/>
				</g>
				<path class="st21" d="M97.6,41.7c0,0-0.5-0.8-0.4-1.8c0,0,0.6-3.7,5.7-3.2c3.2,0.3,3.6,4.5,3.7,6c0.3,3.5,3.9,3.6,5.1,5.2
					c1.2,1.6,0.6,3.8-1.2,4.3c-3.5,1-6,1.1-7.9-1.6c-0.8-1-2.6,0.4-4.4-1c-1.8-1.4,0-5,0.2-5.6S97.6,41.7,97.6,41.7"/>
				<path class="st8" d="M90.8,102.7c0.5,2.2,7.5,0.3,9.5,0.4s11.8,1.1,10.5-1.2s-14.6-0.1-16.4-0.1S90.5,101.3,90.8,102.7z"/>
				<path class="st9" d="M104.3,100.2C104.3,100.2,104.2,100.2,104.3,100.2l0.2,2.1h4.1l-0.5-4.1l-3.2,0.3L104.3,100.2z"/>
				<path class="st9" d="M104.2,100.2l-0.3-2l-3.2,0.3l-0.5,1.7c-1.7-0.3-6.5,2.1-6.5,2.1h4.1h6.7L104.2,100.2z"/>
				<path class="st11" d="M103.7,97.6c0.1,0.3,0.2,0.6,0.3,0.9l0.6-0.1l0,0l3.2-0.3c0,0-1.9-17-0.5-30.8c-0.5,0.4-1.1,0.7-1.9,0.9
					C103.2,80.3,103.6,94.7,103.7,97.6z"/>
				<path class="st11" d="M105.8,68.3c-2,0.5-4.6,0.4-6.4,0c-0.6-0.2-1.1-0.3-1.5-0.6c-0.1-0.1-0.2-0.1-0.3-0.2
					c-0.2,4.2-0.6,17.2,2.5,31.1l4-0.4c0,0,0-0.2,0-0.5C103.9,94.7,103.5,80.3,105.8,68.3z"/>
				<path class="st12" d="M104.1,100.2C104.1,100.2,104,100.2,104.1,100.2l0.2,2.1h4.1l-0.5-4.1l-3.2,0.3L104.1,100.2z"/>
				<path class="st12" d="M103.7,97.6c0.1,0.3,0.2,0.6,0.3,0.9l0.6-0.1l0,0l3.2-0.3c0,0-1.9-17-0.5-30.8c-0.5,0.4-1.1,0.7-1.9,0.9
					C103.2,80.3,103.6,94.7,103.7,97.6z"/>
				<path class="st12" d="M105.5,68.3c-2,0.5-4.6,0.4-6.4,0c-0.6-0.2-1.1-0.3-1.5-0.6c-0.1-0.1-0.2-0.1-0.3-0.2
					c-0.2,4.2-0.6,17.2,2.5,31.1l4-0.4c0,0,0-0.2,0-0.5C103.6,94.7,103.2,80.3,105.5,68.3z"/>
				<path class="st12" d="M104,100.2l-0.3-2l-3.2,0.3l-0.5,1.7c-1.7-0.3-6.5,2.1-6.5,2.1h4.1h6.7L104,100.2z"/>
				<path class="st22" d="M92.4,107.6c0,0,0,0.1,0,0.2C92.3,107.6,92.3,107.6,92.4,107.6z"/>
				<path class="st16" d="M93.7,54.5c-0.1-0.1-0.2-0.2-0.2-0.2c-0.3,0.1-0.8,1.3-0.8,1.3s-2.2,6,2,6.7c4.2,0.8,7.6-8.3,7.3-10.2
					c-0.3-1.8-0.3-3.3-2.8-3.1C96.6,49.2,93.7,54.5,93.7,54.5z"/>
				<path class="st12" d="M93.7,54.5c-0.1-0.1-0.2-0.2-0.2-0.2c-0.3,0.1-0.8,1.3-0.8,1.3s-2.2,6,2,6.7c4.2,0.8,7.6-8.3,7.3-10.2
					c-0.3-1.8-0.3-3.3-2.8-3.1C96.6,49.2,93.7,54.5,93.7,54.5z"/>
				<g>
					<path class="st15" d="M100.2,47.6c0,0-3.4,0.4-4.3,9.8c-0.5,4.7,0.1,4.6-0.8,9.2c-0.9,4.6,10.4,5.4,13,0.7
						c4.4-9.4,0.1-17.7-3.4-19.3C103.6,47.4,101.8,47.3,100.2,47.6z"/>
					<path class="st12" d="M100.2,47.5c0,0-3.4,0.4-4.3,9.8c-0.5,4.7-0.2,4.1-1.1,9c-0.9,4.7,14.1,6.9,14.3-1.7
						c0.5-8.3-0.2-15.2-4.4-16.7C103.4,47.3,101.8,47.1,100.2,47.5z"/>
				</g>
				<path class="st13" d="M102.5,47.5c0,0-5.2-0.2-6.5,8.2c-0.5,6.2-0.3,3.4-0.7,1.1c0.2-1.4,0.8-8.5,5-9.2
					C101.7,47.3,102.5,47.5,102.5,47.5z"/>
				<path class="st12" d="M102.5,47.3c0,0-5.2-0.2-6.5,8.2c-0.5,6.2-0.3,3.4-0.7,1.1c0.2-1.4,0.8-8.5,5-9.2
					C101.6,47.1,102.5,47.3,102.5,47.3z"/>
				<path class="st12" d="M94.9,58.3c0-0.7-0.1-1.2-0.2-1.7c-0.3-1.1-0.8-1.7-1.1-2.1c-0.1-0.1-0.2-0.2-0.2-0.2"/>
				<path class="st17" d="M95.2,52.3c-1,0.2-1.3,1.5-1.5,2.2c0.3,0.3,0.8,1,1.1,2.1c0.3-0.5,1.1-1.3,1.4-1.3
					C96.7,55.2,95.9,52.1,95.2,52.3z"/>
				<g>
					<path class="st17" d="M103.3,47.6C103.3,47.6,103.3,47.6,103.3,47.6l0-2.8c0,0,0,0,0,0c-0.3,0.6-1.2,1.7-2.8,2.2
						c-0.1,0-0.2,0-0.4,0c0,0.5,0,1.1,0,1.4c0,0.1,0,0.1,0,0.2c-0.7,0.6,0.2,1.2,1.1,1.1C103.4,49.6,103.3,47.6,103.3,47.6z"/>
					<path class="st17" d="M97.7,40.5c0-0.1,0.1-0.3,0.1-0.4c0,0,0,0,0,0c0-0.1,0-0.1,0.1-0.2c0,0,0,0,0,0c0-0.1,0.1-0.1,0.1-0.2
						c0,0,0,0,0,0c0-0.1,0.1-0.1,0.1-0.2c0,0,0,0,0,0c0-0.1,0.1-0.1,0.1-0.2c0,0,0,0,0,0c0.1-0.1,0.2-0.2,0.4-0.3
						c0,0,0.2,0.9,0.8,1.5c0.5,0.5,1.3,0.7,2.5,0.2c0,0.9,0.2,1.3,0.4,1.4c0.2,0.2,0.4,0.1,0.4,0.1c0-0.8,0.7-0.7,0.7-0.7s0,0,0,0
						c0,0,0.1,0,0.1,0c0.1,0,0.1,0,0.2,0.1c0,0,0,0,0,0c0.1,0,0.1,0.1,0.2,0.1c0,0,0,0,0,0c0,0,0.1,0.1,0.1,0.2c0,0,0,0,0,0
						c0,0.1,0.1,0.1,0.1,0.2c0,0.1,0,0.3,0,0.5c0,0,0,0,0,0c0,0.1,0,0.1-0.1,0.2c0,0,0,0,0,0.1c0,0.1,0,0.1-0.1,0.2c0,0,0,0,0,0
						c0,0-0.1,0.1-0.1,0.1c0,0,0,0,0,0c0,0-0.1,0.1-0.1,0.1c0,0,0,0,0,0c0,0,0,0-0.1,0c0,0,0,0,0,0c0,0,0,0,0,0c0,0,0,0,0,0
						c0,0,0,0,0,0c0,0,0,0,0,0c0,0,0,0,0,0c0,0,0,0-0.1,0c0,0,0,0,0,0c0,0,0,0,0,0c0,0,0,0,0,0c0,0,0,0,0,0c0,0,0,0,0,0c0,0,0,0,0,0
						s-0.2,0.7,0.2,1.3c0,0,0,0,0,0c-0.3,0.6-1.2,1.7-2.8,2.2c-0.1,0-0.2,0-0.4,0c-1-0.2-2.1-1.4-2.4-2.9
						C97.6,43.2,97.6,41.5,97.7,40.5z"/>
					<g>
						<ellipse class="st18" cx="98.8" cy="41.8" rx="0.2" ry="0.2"/>
						<ellipse class="st18" cx="101.5" cy="41.8" rx="0.2" ry="0.2"/>
						<path class="st12" d="M99.8,41.9c0,0,0.5,0.9-0.3,0.9c0,0-0.1,0.7,0.8,0.5"/>
						<path class="st12" d="M99.5,44.5c0,0,1,0.4,1.7-0.3"/>
					</g>
					<path class="st12" d="M103.8,45.3c-0.9-0.7-0.6-1.8-0.6-1.8s0.7,0.2,1-0.8c0.3-1-0.7-1.1-0.7-1.1s-0.7-0.1-0.7,0.7
						c0,0-0.8,0.3-0.8-1.5c-2.8,1.2-3.3-1.7-3.3-1.7c-1.1,0.7-1,2.5-1,2.5s-0.5-0.8-0.4-1.8c0,0,0.6-3.7,5.7-3.2
						c3.2,0.3,3.6,4.5,3.7,6c0.3,3.5,3.9,3.6,5.1,5.2c1.2,1.6,0.6,3.8-1.2,4.3c0,0-0.5,0.1-1.2,0"/>
					<path class="st12" d="M98.8,38.6c0,0,0.8-1.5,2.2-1.8"/>
				</g>
				<g>
					<path class="st13" d="M106.6,48.9c0,0-4-0.7-4.2,5.3c-0.2,6-1.2,1.7-1,0.3s-0.6-5.9,3.6-6.5C106.3,47.8,106.6,48.9,106.6,48.9z
						"/>
					<path class="st12" d="M106.5,48.9c0,0-4-0.7-4.2,5.3c-0.2,6-1.2,1.7-1,0.3c0.2-1.4-0.6-5.9,3.6-6.5
						C106.1,47.8,106.5,48.9,106.5,48.9z"/>
				</g>
				<g>
					<path class="st17" d="M98.8,52.6c1.8,0.1,2.6,1.3,3,1.9c-0.5,0.4-1.3,1.1-1.6,2.2c-0.7-0.4-2.1-1.1-2.8-1.1
						C96.6,55.8,97.4,52.5,98.8,52.6z"/>
					<path class="st16" d="M100.3,56.8c0.3-1.1,1.1-1.9,1.6-2.2c0.2-0.2,0.3-0.2,0.3-0.2c0.5,0,1.7,1.1,1.7,1.1s-0.4-1-0.6-1.8
						c-1-4.4,2.5-5.2,4.5-2.8c0,0,2.9,3.5,2.7,9.9c-0.2,10.5-10.3-2.3-10.3-2.3C100.1,57.9,100.2,57.3,100.3,56.8z"/>
					<path class="st12" d="M100.3,56.7c0.3-1.1,1.1-1.9,1.6-2.2c0.2-0.2,0.3-0.2,0.3-0.2c0.5,0,1.7,1.1,1.7,1.1s-0.4-1-0.6-1.8
						c-1-4.4,2.5-5.2,4.5-2.8c0,0,2.9,3.5,2.7,9.9c-0.2,10.5-10.3-2.3-10.3-2.3C100.1,57.8,100.1,57.2,100.3,56.7z"/>
					<path class="st12" d="M106.6,57.2c-0.2-0.3-2.7-1.8-2.7-1.8s1.4-0.2,1.9,0"/>
				</g>
			</g>
		</g>
		<g>
			<g>
				<path class="st8" d="M88.4,100c-8.3,0-16.7,0-25,0c-1.8,0-3.6,0-5.3,0.3c-1.7,0.3-3.4,0.9-4.3,1.9c10.9,3.2,24.3,2.6,34.2-1.7"
					/>
			</g>
			<g>
				<g>
					<path class="st23" d="M60.4,74.8c0-3.1-0.9-3.2-0.9-3.2L59,74.9C59.4,74.8,60,74.7,60.4,74.8z"/>
					<path class="st23" d="M72,91.3l-2.9,0.5c0.3,1.2,1.6,4.9,5.4,5.1l-0.3,3.8c0,0-1-0.1-1,0.6h1.5l2.1-4.3
						C72.8,96.2,72,91.3,72,91.3z"/>
					<path class="st14" d="M86.6,82c-0.2-0.9-0.9-1.5-1.8-1.8c-0.8-0.3-1.7-0.2-2.6,0c-1.7,0.6-3.1,2.2-3.5,4
						c-0.1,0.5-0.1,1.1-0.3,1.6c-0.1,0.3-0.4,0.6-0.7,0.8c-0.4-0.3-1.3-0.7-3.1-0.9c-2.9-0.2-7.8-0.9-9.6-2.4
						c-1.8-1.6-2.6-5.9-2.6-5.9s0.8-3.5,0.8-5.8c0,0-1.9,1.8-2.6,3.4c-0.1-0.1-0.2-0.2-0.3-0.2c-0.4-0.1-1,0-1.4,0
						c-0.8,0.1-1.6,0.6-1.5,1.3l-2.8,0c0,0,0.1,0,0.1,0c0,0,0,0.1,0,0.1c0,0.2-0.2,0.5-0.4,0.6c-0.2,0.1-0.5,0.2-0.7,0.1
						c0.2,0.7,0.8,1.6,2.3,2.5c2.7,1.5,2,2.1,2,2.1s-1.5,5.7,0.1,8.9c1.6,3.1,2.2,4,2.2,4.6c0,0.6-0.7,7-0.7,7s-1.8,0.3-1.1,0.6
						c0.6,0.2,1.8,0,1.8,0l2.7-8.8c0,0,3.5,4.4,3.4,5.1c0,0.7,0,2.2,0,2.2s-1.2,0.2-0.7,0.4c0.5,0.2,1.6,0,1.6,0v-3.5l-1.3-5.5
						l3.2-0.6l2.9-0.5c0,0,0.8,4.9,4.9,5.5c0,0,0.1,0,0.1,0c4.2,0.6,5.1,4.9,5.1,4.9s-1.3,0.3-0.9,0.8l1.6-0.3c0,0,0.8-5.6-3.6-7.3
						c0,0-0.4-0.5-0.6-1.2c-0.2-0.7-0.3-5.3-0.3-6.4c0.9-0.9,1.5-2.3,2.7-2.7c0.8-0.3,1.7-0.1,2.5,0c0.8,0.1,1.7,0.2,2.4-0.3
						C86.6,83.9,86.9,82.9,86.6,82z"/>
				</g>
				<g>
					<path class="st24" d="M60.2,74.8c0-3.1-0.9-3.2-0.9-3.2l-0.5,3.2C59.1,74.8,59.7,74.7,60.2,74.8z"/>
					<path class="st24" d="M71.8,91.3l-2.9,0.5c0.3,1.2,1.6,4.9,5.4,5.1l-0.3,3.8c0,0-1-0.1-1,0.6h1.5l2.1-4.3
						C72.6,96.2,71.8,91.3,71.8,91.3z"/>
					<path class="st24" d="M86.4,82c-0.2-0.9-0.9-1.5-1.8-1.8c-0.8-0.3-1.7-0.2-2.6,0c-1.7,0.6-3.1,2.2-3.5,4
						c-0.1,0.5-0.1,1.1-0.3,1.6c-0.1,0.3-0.4,0.6-0.7,0.8c-0.4-0.3-1.3-0.7-3.1-0.9c-2.9-0.2-7.8-0.9-9.6-2.4
						c-1.8-1.6-2.6-5.9-2.6-5.9s0.8-3.5,0.8-5.8c0,0-1.9,1.8-2.6,3.4c-0.1-0.1-0.2-0.2-0.3-0.2c-0.4-0.1-1,0-1.4,0
						c-0.8,0.1-1.6,0.6-1.5,1.3l-2.8,0c0,0,0.1,0,0.1,0c0,0,0,0.1,0,0.1c0,0.2-0.2,0.5-0.4,0.6c-0.2,0.1-0.5,0.2-0.7,0.1
						c0.2,0.7,0.8,1.6,2.3,2.5c2.7,1.5,2,2.1,2,2.1s-1.5,5.7,0.1,8.9c1.6,3.1,2.2,4,2.2,4.6c0,0.6-0.7,7-0.7,7s-1.8,0.3-1.1,0.6
						c0.6,0.2,1.8,0,1.8,0l2.7-8.8c0,0,3.5,4.4,3.4,5.1c0,0.7,0,2.2,0,2.2s-1.2,0.2-0.7,0.4c0.5,0.2,1.6,0,1.6,0v-3.5l-1.3-5.5
						l3.2-0.6l2.9-0.5c0,0,0.8,4.9,4.9,5.5c0,0,0.1,0,0.1,0c4.2,0.6,5.1,4.9,5.1,4.9s-1.3,0.3-0.9,0.8l1.6-0.3c0,0,0.8-5.6-3.6-7.3
						c0,0-0.4-0.5-0.6-1.2C78.1,93,78,88.4,78,87.3c0.9-0.9,1.5-2.3,2.7-2.7c0.8-0.3,1.7-0.1,2.5,0c0.8,0.1,1.7,0.2,2.4-0.3
						C86.3,83.9,86.6,82.9,86.4,82z"/>
					<path class="st25" d="M54.5,76.1c0,0-0.1,0-0.1,0c0,0,0,0,0,0C54,76,53.7,76,53.3,76c-0.1,0.3,0,0.6,0.1,0.8l0,0.1c0,0,0,0,0,0
						c0.2,0.1,0.5,0,0.7-0.1c0.2-0.1,0.4-0.4,0.4-0.6C54.5,76.2,54.5,76.2,54.5,76.1z"/>
					<g>
						<path class="st26" d="M59.2,76.1c-0.1,0.1-0.1,0.2-0.2,0.3c0,0.1,0,0.2,0.1,0.2c0,0,0,0,0,0c0.1,0,0.2,0,0.2-0.1
							c0-0.1,0-0.1,0-0.2c0,0,0-0.1-0.1-0.1c0-0.1,0-0.1,0-0.2C59.3,76.1,59.3,76.1,59.2,76.1L59.2,76.1z"/>
					</g>
					<path class="st24" d="M55.7,79.4c0,0,2.6,0.8,3.5-0.3"/>
				</g>
				<g>
					<path class="st27" d="M57.5,82.4c0,0,4.6-0.4,5.8-2l0.3,0.9c0,0-2.6,2.1-6.1,1.8V82.4z"/>
					<path class="st24" d="M57.5,82.2c0,0,4.6-0.4,5.8-2l0.3,0.9c0,0-2.6,2.1-6.1,1.8V82.2z"/>
				</g>
			</g>
		</g>
	</g>
	<g>
		<g class="st7">
			<path class="st1" d="M100.5,114c9.2,0,18.4,0,27.5,0c2,0,3.9,0,5.8-0.3c1.9-0.3,3.7-1,4.7-2.1c-12-3.6-26.7-2.8-37.7,1.9"/>
		</g>
		<path class="st3" d="M127.6,104.3c0,0,8.1,2.8,8.1-3.3s-3.4-1.7-3.4-1.7s1.6,3,1.5,0.4c-0.2-2.6-1.1-10.6-5.3-7.8
			c-4.1,2.8,11.2-2.8,5.8-6.2s-5.8-6.7-10.4-2.8c-4.5,3.9-1.1,4.4,1.5,0.6s-0.6-10.2-6.6-2.7c-5.9,7.5-1,10.4,1.8,10.4
			s0.6-1.5-2.8-1.7c-3.3-0.2-8.2,5.4-6.7,7.1c0,0-8.5-1-5,4.5c0,0-4,1.5-1.3,5.7s7.2,3.1,8,1.8s-13.3,1.6-8.3,3.8h28.8
			c0,0,5.7-1.6,4.2-3c-1.5-1.4-7.9-3.1-9.5-2.8C128.1,106.6,132,102.2,127.6,104.3z"/>
		<path class="st4" d="M131.4,93.3c1.1,1.1-0.5,4.6-2,3.6c-1.5-1-3-3.6-1.5-3.6S130.9,92.8,131.4,93.3z"/>
		<path class="st4" d="M119.8,102.8c1.8,1.9-0.8,7.6-3.3,5.9c-2.5-1.7-5-5.9-2.5-5.9S118.9,101.9,119.8,102.8z"/>
		<path class="st4" d="M117.1,91.4c-0.8-1.3,1.6-0.9,2.9,0.8c1.2,1.6,2.1,3.7,0.6,2.4C119.1,93.2,117.5,92,117.1,91.4z"/>
		<path class="st4" d="M129.3,102.3c-0.4-0.6,0.9-1.5,1.5-0.8c0.6,0.7,0.9,1.9,0.2,1.6C130.3,102.7,129.5,102.6,129.3,102.3z"/>
		<path class="st4" d="M120.8,86.5c-0.4-0.6,0.9-1.5,1.5-0.8c0.6,0.7,0.9,1.9,0.2,1.6C121.7,87,120.9,86.8,120.8,86.5z"/>
		<path class="st4" d="M128,84c-0.8-0.9,1.1-1.4,2.4-0.4c1.2,1,2.2,2.5,0.8,1.8C129.9,84.9,128.4,84.4,128,84z"/>
		<path class="st5" d="M128.5,104.3c0,0,8.1,2.8,8.1-3.3s-3.4-1.7-3.4-1.7s1.6,3,1.5,0.4c-0.2-2.6-1.1-10.6-5.3-7.8
			c-4.1,2.8,11.2-2.8,5.8-6.2s-5.8-6.7-10.4-2.8c-4.5,3.9-1.1,4.4,1.5,0.6c2.5-3.8-0.6-10.2-6.6-2.7c-5.9,7.5-1,10.4,1.8,10.4
			s0.6-1.5-2.8-1.7c-3.3-0.2-8.2,5.4-6.7,7.1c0,0-8.5-1-5,4.5c0,0-4,1.5-1.3,5.7s7.2,3.1,8,1.8s-13.3,1.6-8.3,3.8h28.8
			c0,0,5.7-1.6,4.2-3s-7.9-3.1-9.5-2.8C129,106.6,132.9,102.2,128.5,104.3z"/>
	</g>
	<g>
		<g class="st7">
			<path class="st1" d="M90.4,114.1c3.8,0,7.6,0,11.4,0c0.8,0,1.6,0,2.4,0.1c0.8,0.1,1.5,0.4,2,0.9c-5,1.5-11.1,1.2-15.6-0.8"/>
		</g>
		<path class="st28" d="M102.5,115.1c0,0,6.7-5.7,3.2-7.1c0,0,6.2-4.4,1.2-5.1c-5-0.7-4.2,2.2-4.2,2.2s4.7-1.9,2.6-4.6
			c-2.2-2.7-5.2,0-5.2,0s-0.9-2.1-2.1-1.3c-1.1,0.8,0,1.9,0,1.9s0.7-2.3-1.4-1.4c-2.2,0.8-7.1,0.4-3.2,5.4c3.9,5,2.4,1,0.7-0.9
			s-6-5-6.4-0.4c-0.4,4.6,4.6,7.7,7.8,7s-0.2-1.3-1.5-0.8c-1.3,0.5-6.2,0.9-3.2,3.1c0,0,2.3,2.1,5.3,2.1
			C99.2,115,102.5,115.1,102.5,115.1z"/>
		<path class="st29" d="M106.2,108.6c0,0,0-1.2-1.2-1.2s-5.6,1.7-3.5,1.9C103.7,109.5,105,109.5,106.2,108.6z"/>
		<path class="st29" d="M104.1,100.3c0,0-0.2-0.6-1.3-0.2c-1.1,0.4-5,2.7-3,2.1C101.8,101.6,103.1,101.1,104.1,100.3z"/>
		<path class="st29" d="M92.3,105.4c0,0,1-0.7,0.4-1.6c-0.6-0.9-4.2-3.5-3.3-1.7S91,105,92.3,105.4z"/>
		<path class="st5" d="M102.9,114.8c0,0,6.7-5.7,3.2-7.1c0,0,6.2-4.4,1.2-5.1c-5-0.7-4.2,2.2-4.2,2.2s4.7-1.9,2.6-4.6
			c-2.2-2.7-5.2,0-5.2,0s-0.9-2.1-2.1-1.3c-1.1,0.8,0,1.9,0,1.9s0.7-2.3-1.4-1.4c-2.2,0.8-7.1,0.4-3.2,5.4c3.9,5,2.4,1,0.7-0.9
			c-1.7-2-6-5-6.4-0.4c-0.4,4.6,4.6,7.7,7.8,7c3.2-0.7-0.2-1.3-1.5-0.8c-1.3,0.5-6.2,0.9-3.2,3.1c0,0,2.3,2.1,5.3,2.1
			C99.6,114.8,102.9,114.8,102.9,114.8z"/>
	</g>
</g>
</svg>
