<?xml version="1.0" encoding="utf-8"?>
<!-- Generator: Adobe Illustrator 26.4.1, SVG Export Plug-In . SVG Version: 6.00 Build 0)  -->
<svg version="1.1" id="Layer_1" xmlns="http://www.w3.org/2000/svg" xmlns:xlink="http://www.w3.org/1999/xlink" x="0px" y="0px"
	 viewBox="0 0 158.9 132.7" style="enable-background:new 0 0 158.9 132.7;" xml:space="preserve">
<style type="text/css">
	.st0{fill:#DCE2D9;}
	.st1{fill:#8A9385;}
	.st2{fill:#93A48A;}
	.st3{opacity:0.2;fill:#CDE3D1;}
	.st4{fill:none;stroke:#1A1A1A;stroke-width:0.2;stroke-miterlimit:10;}
	.st5{fill:none;stroke:#020203;stroke-width:0.2;stroke-linecap:round;stroke-linejoin:round;stroke-miterlimit:10;}
	.st6{fill:#E2E1CF;}
	.st7{fill:#B1C6A8;}
	.st8{fill:#CDE3D1;}
	.st9{fill:#BCBBAE;}
	.st10{fill:#BCB6B1;}
	.st11{fill:#E2E2E1;}
	.st12{fill:#C2CFE5;}
	.st13{fill:#C7B49E;}
	.st14{fill:#CFCECE;}
	.st15{fill:#FBFBFA;stroke:#1A1A1A;stroke-width:0.2;stroke-linecap:round;stroke-linejoin:round;stroke-miterlimit:10;}
	.st16{fill:none;stroke:#1A1A1A;stroke-width:0.2;stroke-linecap:round;stroke-linejoin:round;stroke-miterlimit:10;}
	.st17{fill:#1A1A1A;}
	.st18{fill:#FFFFFF;stroke:#1A1A1A;stroke-width:0.2;stroke-linecap:round;stroke-linejoin:round;stroke-miterlimit:10;}
	.st19{fill:#7D6764;}
	.st20{fill:none;}
</style>
<g>
	<g>
		<path class="st0" d="M115.1,37.7c-11.6,1.7-27.3-1.3-48.6-3.1C41.2,32.5,22.9,47.4,18,85.4c-0.4,3.2-0.3,6.5,0.3,9.7
			C42.8,97.5,76,98.7,98,91.4c23.3-7.7,43.4-8.3,57.5-5.1c0-0.3,0-0.6-0.1-0.9C153.1,47.9,125.5,36.2,115.1,37.7z"/>
		<path class="st1" d="M98,91.4c-22,7.3-55.1,6.1-79.7,3.7c3.4,18.4,21.6,35.5,35.8,34.6c16.7-1.1,43.3-33.1,69.3-11
			c25.7,21.9,33.9-0.7,32.1-32.3C141.4,83.1,121.3,83.7,98,91.4z"/>
	</g>
	<g>
		<g>
			<path class="st2" d="M128,122.5c5.4-4.5-3-9.8-2.1-7.2s5.8,4.9,8.8-3.6s-1.4-11.6-1.4-11.6c3.8-11.1-5.5-9.1-5.5-9.1
				c1.6-3.6-3.7-14.7-7.4-14.4c-3.6,0.3-6,3.4-3,3.4s8.4-5.9,1.9-21c-6.5-15.1-9.9-2.2-7.2,5.5s6.6,6.7,1.6-1.2s-5.4-1-11.3,5.7
				c-5.9,6.7,10.9,18.1,6.4,12.4s-5.6,10.5-5.8,15.8c-0.2,5.3,1.6-0.8,1.6-0.8s-3.7-9-3.7,3.4s8.9,6.7,8.9,6.7
				c-4.9-4.2-0.5,4.7-0.5,4.7S117.4,112.4,128,122.5z"/>
			<path class="st3" d="M105.6,84.9c-1.2,2.3,0.5,9.2,2.2,7.2c1.6-2.1,3.3-7.2,1.6-7.2S106.1,83.9,105.6,84.9z"/>
			<path class="st3" d="M118.3,104.1c-2,3.8,0.9,15.4,3.6,12c2.7-3.4,5.4-12,2.7-12S119.2,102.4,118.3,104.1z"/>
			<path class="st3" d="M121.2,81.2c0.9-2.7-1.8-1.8-3.1,1.5c-1.4,3.3-2.3,7.5-0.7,4.8S120.8,82.4,121.2,81.2z"/>
			<path class="st3" d="M107.8,103.1c0.4-1.3-1-3-1.6-1.6c-0.6,1.4-1,3.9-0.2,3.2S107.6,103.7,107.8,103.1z"/>
			<path class="st3" d="M117.2,71.3c0.4-1.3-1-3-1.6-1.6c-0.6,1.4-1,3.9-0.2,3.2S117.1,71.9,117.2,71.3z"/>
			<path class="st3" d="M109.3,66.3c0.9-1.7-1.2-2.7-2.6-0.8c-1.3,2-2.4,5-0.9,3.7C107.3,68,108.8,67.1,109.3,66.3z"/>
			<path class="st4" d="M108.3,111.4c0,0-4.3-8.9,0.5-4.7c0,0-8.9,5.7-8.9-6.7s3.7-3.4,3.7-3.4s-1.8,6-1.6,0.8
				c0.2-5.3,1.2-21.4,5.8-15.8c4.5,5.7-12.3-5.7-6.4-12.4s6.4-13.6,11.3-5.7s1.2,8.9-1.6,1.2c-2.7-7.7,0.7-20.6,7.2-5.5
				s1.1,21-1.9,21s-0.6-3,3-3.4s8.9,10.8,7.4,14.4c0,0,9.3-2,5.5,9.1c0,0,4.4,3,1.4,11.6s-7.9,6.3-8.8,3.6s9.5,2.2,4.1,6.7"/>
		</g>
		<g>
			<g>
				<path class="st2" d="M102.2,14.9c0.3-5.8-3.7-18.7,11.7-12.6s2.8,13.3,2.8,13.3s-1-2.6,1.5-3.2c2.5-0.6,11.3,1.1,9.2,6
					c-2.1,4.9-3.4,0-3.4,0l5.4,3.6c0,0-0.7-5.9,5.3-4c6,1.9,16.7,20.4,4.8,18c0,0,10,4.5,5.4,6.2c-4.6,1.7-9-0.3-9-0.3
					s2.1-1.9,4.8,0.3c2.7,2.1-0.9,7.6-5.5,7.8c0,0,7.3,2.1,4.9,5.5c-1.5,2.2-5.1,2.1-7.8,1.1c-1.6-0.6-2.8-1.4-2.9-2.3
					c0,0,3,0.8,1.8,3c-1.2,2.2-8.6,0.9-8.6,0.9s-1.1,7.4-6.4,4.4c-5.3-3-4.3-6.5-4.3-6.5s-4.1,2.9-7.3-1.8s1,0.2,1,0.2
					s-5.7,4.8-4.5-2.6c0,0-11.2,1.1-13-2.7c-1.8-3.8-2.3-8.9,3-9.8c5.4-0.9-1.1,1.2-1.1,1.2s-12.2-0.9-3.2-9.8s6.1-3.6,5-2.9
					c-1.1,0.6-9.4,4.7-7.1-2.1c0,0-4.8,2.4-3.7-0.9s3.2-8.4,7.8-4.5c0,0-9.2-1.4-2.4-4.9c6.8-3.4,8.5,2.4,8.5,2.4
					S97.6,10.5,102.2,14.9z"/>
				<path class="st5" d="M102.2,14.4c0.3-5.8-3.7-18.7,11.7-12.6s2.8,13.3,2.8,13.3s-1-2.6,1.5-3.2c2.5-0.6,11.3,1.1,9.2,6
					c-2.1,4.9-3.4,0-3.4,0l5.4,3.6c0,0-0.7-5.9,5.3-4c6,1.9,16.7,20.4,4.8,18c0,0,10,4.5,5.4,6.2c-4.6,1.7-9-0.3-9-0.3
					s2.1-1.9,4.8,0.3c2.7,2.1-0.9,7.6-5.5,7.8c0,0,7.3,2.1,4.9,5.5c-1.5,2.2-5.1,2.1-7.8,1.1c-1.6-0.6-2.8-1.4-2.9-2.3
					c0,0,3,0.8,1.8,3c-1.2,2.2-8.6,0.9-8.6,0.9s-1.1,7.4-6.4,4.4c-5.3-3-4.3-6.5-4.3-6.5s-4.1,2.9-7.3-1.8s1,0.2,1,0.2
					s-5.7,4.8-4.5-2.6c0,0-11.2,1.1-13-2.7c-1.8-3.8-2.3-8.9,3-9.8c5.4-0.9-1.1,1.2-1.1,1.2s-12.2-0.9-3.2-9.8s6.1-3.6,5-2.9
					c-1.1,0.6-9.4,4.7-7.1-2.1c0,0-4.8,2.4-3.7-0.9s3.2-8.4,7.8-4.5c0,0-9.2-1.4-2.4-4.9c6.8-3.4,8.5,2.4,8.5,2.4
					S97.6,10.1,102.2,14.4z"/>
				<path class="st6" d="M117.9,114.8c0,0,3.9-36.1,0-64.9c-4.3-3.3-12.3-9-16.4-9.7c0,0-6,2.1-10.5,1c0,0,6,0.1,9.9-2.1
					c0,0-7-4-7.5-7.8c0,0,1.5,5.3,18.5,12.9c0,0,0.6,0.3,1.6,0.9c-1.5-1.8-3.8-5.8-3.8-5.8c1.4,1.4,3.9,4.9,5.1,6.6
					c0.9,0.6,1.9,1.2,2.9,2.1c-1.7-11.3-4.6-21.4-9.4-27.7c0,0,10.4,8.4,15.6,35c0.1-0.3,0.3-0.6,0.4-0.8c0.1-1.5,0.4-4.6,0.8-5.9
					c0,0,0,3.4-0.3,5c0.4-0.6,0.7-1,0.7-1c7.3-9.3,6.4-13.5,6.4-13.5c0.9,2.9-1.8,7.3-1.8,7.3c3,0.7,6.4-0.7,6.4-0.7
					c-2.2,1.8-6.4,1.6-6.4,1.6c-2,1.3-4.4,6.3-5.9,9.7c2.7,11.1,3.1,46.4,2.3,64C126.4,121,122.8,117.8,117.9,114.8z"/>
				<path class="st5" d="M118.2,114.9c0,0,3.9-36.7-0.1-65.5c-4.3-3.3-12.3-9-16.4-9.7c0,0-6,2.1-10.5,1c0,0,6,0.1,9.9-2.1
					c0,0-7-4-7.5-7.8c0,0,1.5,5.3,18.5,12.9c0,0,0.6,0.3,1.6,0.9c-1.5-1.8-3.8-5.8-3.8-5.8c1.4,1.4,3.9,4.9,5.1,6.6
					c0.9,0.6,1.9,1.2,2.9,2.1c-1.7-11.3-4.6-21.4-9.4-27.7c0,0,10.4,8.4,15.6,35c0.1-0.3,0.3-0.6,0.4-0.8c0.1-1.5,0.4-4.6,0.8-5.9
					c0,0,0,3.4-0.3,5c0.4-0.6,0.7-1,0.7-1c7.3-9.3,6.4-13.5,6.4-13.5c0.9,2.9-1.8,7.3-1.8,7.3c3,0.7,6.4-0.7,6.4-0.7
					c-2.2,1.8-6.4,1.6-6.4,1.6c-2,1.3-4.4,6.3-5.9,9.7c2,11,5.6,38.8,1.3,63.8"/>
			</g>
			<path class="st3" d="M114.6,3.9c-3.3-1.5-10.9-1.7-9.1,0.3s5.7,2.1,7.5,1.8C114.9,5.8,117.3,5.2,114.6,3.9z"/>
			<path class="st3" d="M91.5,16.2c-1.4-0.3-4.3,0.4-3.4,1s2.4,0.2,3,0C91.8,16.9,92.7,16.4,91.5,16.2z"/>
		</g>
		<g>
			<path class="st6" d="M35,47.8c0,0,15.3,10.5,53.7,17.3s70.2,0.9,70.2,0.9l-0.3-0.9c0,0-31.7,5.9-70.2-0.9S34.7,47,34.7,47
				L35,47.8z"/>
			<path class="st5" d="M34.8,48c0,0,15.3,10.5,53.7,17.3c38.5,6.8,70.2,0.9,70.2,0.9"/>
			<path class="st5" d="M158.5,65.4c0,0-31.7,5.9-70.2-0.9S34.5,47.1,34.5,47.1"/>
		</g>
		<g>
			<g>
				<polygon class="st6" points="45.1,90.4 36.5,89.5 8.2,94.6 8.2,95.2 16.9,96.2 16.9,96.2 45.1,91.1 				"/>
				<g>
					<polygon class="st5" points="45.1,90.2 36.5,89.3 8.2,94.4 16.8,95.3 					"/>
					<polygon class="st5" points="16.9,96 8.2,95 8.2,94.4 16.8,95.3 					"/>
					<polygon class="st5" points="45.1,90.9 16.8,96 16.8,95.3 45.1,90.2 					"/>
				</g>
			</g>
			<g>
				<polygon class="st6" points="55.6,92.6 47.5,90.7 18.8,95.2 18.8,95.9 27,97.7 27,97.7 55.6,93.3 				"/>
				<g>
					<polygon class="st5" points="55.6,92.4 47.5,90.5 18.8,95 27,96.9 					"/>
					<polygon class="st5" points="27,97.5 18.8,95.7 18.8,95 27,96.9 					"/>
					<polygon class="st5" points="55.6,93 27,97.5 27,96.9 55.6,92.4 					"/>
				</g>
			</g>
			<g>
				<polygon class="st6" points="70.6,94.5 62.1,93.2 33.5,97 33.5,97.6 42.1,99 42.1,99 70.6,95.2 				"/>
				<g>
					<polygon class="st5" points="70.6,94.3 62.1,93 33.5,96.8 42.1,98.1 					"/>
					<polygon class="st5" points="42.1,98.8 33.5,97.4 33.5,96.8 42.1,98.1 					"/>
					<polygon class="st5" points="70.6,95 42.1,98.8 42.1,98.1 70.6,94.3 					"/>
				</g>
			</g>
			<g>
				<polygon class="st6" points="82.4,95.5 73.8,94.5 45.5,99.6 45.5,100.3 54.2,101.2 54.2,101.2 82.4,96.1 				"/>
				<g>
					<polygon class="st5" points="82.4,95.3 73.8,94.3 45.5,99.4 54.1,100.4 					"/>
					<polygon class="st5" points="54.1,101 45.5,100.1 45.5,99.4 54.1,100.3 					"/>
					<polygon class="st5" points="82.4,95.9 54.1,101 54.1,100.4 82.4,95.3 					"/>
				</g>
			</g>
			<g>
				<polygon class="st6" points="93.7,96.3 85.1,95.7 57,102 57.1,102.6 65.7,103.2 65.7,103.2 93.8,97 				"/>
				<g>
					<polygon class="st5" points="93.7,96.1 85.1,95.5 57,101.8 65.6,102.4 					"/>
					<polygon class="st5" points="65.7,103 57.1,102.4 57,101.8 65.7,102.4 					"/>
					<polygon class="st5" points="93.7,96.8 65.7,103 65.6,102.4 93.7,96.1 					"/>
				</g>
			</g>
			<g>
				<polygon class="st6" points="105.5,96.9 96.9,96.5 69,103.3 69,104 77.7,104.4 77.7,104.4 105.6,97.6 				"/>
				<g>
					<polygon class="st5" points="105.5,96.7 96.8,96.3 69,103.1 77.6,103.5 					"/>
					<polygon class="st5" points="77.7,104.2 69,103.8 69,103.1 77.6,103.5 					"/>
					<polygon class="st5" points="105.5,97.4 77.7,104.2 77.6,103.5 105.5,96.7 					"/>
				</g>
			</g>
			<g>
				<polygon class="st6" points="119.9,98.8 111.3,98 83.1,103.4 83.1,104 91.7,104.9 91.7,104.9 120,99.5 				"/>
				<g>
					<polygon class="st5" points="119.9,98.6 111.3,97.8 83.1,103.2 91.7,104 					"/>
					<polygon class="st5" points="91.7,104.7 83.1,103.8 83.1,103.2 91.7,104 					"/>
					<polygon class="st5" points="120,99.3 91.7,104.7 91.7,104 119.9,98.6 					"/>
				</g>
			</g>
			<g>
				<polygon class="st6" points="129.9,98.6 121.6,97.6 93.8,105.3 93.9,106 102.2,106.9 102.2,106.9 130,99.2 				"/>
				<g>
					<polygon class="st5" points="129.9,98.4 121.6,97.4 93.8,105.1 102.1,106 					"/>
					<polygon class="st5" points="102.2,106.7 93.9,105.8 93.8,105.1 102.1,106 					"/>
					<polygon class="st5" points="130,99 102.2,106.7 102.1,106 129.9,98.4 					"/>
				</g>
			</g>
			<g>
				<polygon class="st6" points="140.7,97.8 132.1,98 104.9,106.8 105,107.5 113.7,107.3 113.7,107.2 140.9,98.5 				"/>
				<g>
					<polygon class="st5" points="140.7,97.6 132.1,97.8 104.8,106.6 113.5,106.4 					"/>
					<polygon class="st5" points="113.6,107.1 105,107.3 104.8,106.6 113.5,106.4 					"/>
					<polygon class="st5" points="140.8,98.3 113.6,107.1 113.5,106.4 140.7,97.6 					"/>
				</g>
			</g>
			<g>
				<polygon class="st6" points="151.1,96.6 142.7,96.4 115.8,106.5 116,107.2 124.4,107.4 124.4,107.3 151.2,97.2 				"/>
				<g>
					<polygon class="st5" points="151,96.4 142.6,96.2 115.8,106.3 124.1,106.5 					"/>
					<polygon class="st5" points="124.3,107.2 115.9,107 115.8,106.3 124.2,106.5 					"/>
					<polygon class="st5" points="151.2,97 124.3,107.2 124.1,106.5 151,96.4 					"/>
				</g>
			</g>
		</g>
		<g>
			<path class="st2" d="M41.5,126.5c10.1-1.1,11.8-2.6,12.1-4.1c3.1-2.4,0.9-4.6,0.9-4.6c4.6-5-3.7-5.8-3.7-5.8
				c1.8-1.6-1.5-8.4-4.7-8.9c-3.2-0.5-5.6,0.6-3,1.2c2.6,0.6,8-1.5,4.1-10.6s-8.3-3-6.9,1.5s4.9,4.8,1.5-0.3s-4.6-1.6-10.5,0.8
				c-5.9,2.4,7.4,11.5,4.1,7.7c-3.3-3.8-6,4.4-6.8,7.1c-0.8,2.7,1.5-0.1,1.5-0.1s-2.2-5.4-3.6,1.1c-1.4,6.5,6.9,5.2,6.9,5.2
				c-3.7-3.1-1,2.3-1,2.3c-1.4-0.7-7.8-0.3-9.6,0.9c-1.8,1.2,3.3,4.1,3.3,4.1C31.3,125.3,37.3,126.9,41.5,126.5z"/>
			<path class="st3" d="M32.3,104.4c-1.3,1-0.6,4.9,1.1,4.2c1.6-0.8,3.6-3.1,2.2-3.4C34.2,104.8,32.9,104,32.3,104.4z"/>
			<path class="st3" d="M41.9,117.5c-2.2,1.6-1,8.2,1.8,7s6.1-5.2,3.7-5.7C45,118.1,42.8,116.7,41.9,117.5z"/>
			<path class="st3" d="M46.3,105.4c1.1-1.2-1.3-1.3-2.9,0.2c-1.6,1.5-2.9,3.5-1.1,2.4S45.8,106,46.3,105.4z"/>
			<path class="st3" d="M32.1,114.3c0.5-0.6-0.5-1.8-1.2-1.2c-0.7,0.6-1.3,1.8-0.5,1.6C31.1,114.6,31.9,114.6,32.1,114.3z"/>
			<path class="st4" d="M25.2,123.9c0,0-5.1-2.9-3.3-4.1s8.2-1.6,9.6-0.9c0,0-2.7-5.5,1-2.3c0,0-8.3,1.3-6.9-5.2
				c1.4-6.5,3.6-1.1,3.6-1.1s-2.2,2.8-1.5,0.1c0.8-2.7,3.5-11,6.8-7.1c3.3,3.8-10-5.3-4.1-7.7c5.9-2.4,7.1-5.9,10.5-0.8
				s0,4.9-1.5,0.3c-1.5-4.6,3-10.6,6.9-1.5s-1.5,11.2-4.1,10.6c-2.6-0.6-0.2-1.7,3-1.2c3.2,0.5,6.5,7.4,4.7,8.9c0,0,8.3,0.7,3.7,5.8
				c0,0,3.5,2.4-0.1,6.3"/>
		</g>
		<g>
			<path class="st7" d="M62.6,127.1c0,0,4.5-4.7,0.9-6.8c0,0,6.3-6.7,1.2-7.7c-5.1-1-4.3,3.3-4.3,3.3s4.8-2.8,2.6-7
				c-2.2-4.1-5.3,0-5.3,0s-1-3.2-2.1-2c-1.2,1.2,0,2.9,0,2.9s0.8-3.4-1.4-2.2c-2.2,1.3-7.2,0.5-3.2,8.2s2.5,1.5,0.7-1.4
				s-6.1-7.6-6.5-0.7c-0.4,6.9,4.7,11.8,8,10.7c3.3-1-0.2-2-1.5-1.2c-1.3,0.8-6.3,1.3-3.2,4.7c0,0,2.6,1.6,5.7,1.6
				C57.5,129.6,62.6,127.1,62.6,127.1z"/>
			<path class="st8" d="M64.7,121.2c0,0,0-1.9-1.2-1.9s-5.8,2.5-3.6,2.9S63.5,122.6,64.7,121.2z"/>
			<path class="st8" d="M62.5,108.7c0,0-0.2-0.9-1.3-0.3c-1.2,0.6-5.2,4.1-3.1,3.2C60.2,110.7,61.5,109.9,62.5,108.7z"/>
			<path class="st8" d="M49.7,116.4c0,0,1-1,0.4-2.4c-0.6-1.4-4.3-5.3-3.4-2.5C47.6,114.2,48.3,115.8,49.7,116.4z"/>
			<path class="st4" d="M63.1,127c1.5-2.7,2.9-6,0.8-7.1c0,0,6.3-6.7,1.2-7.7c-5.1-1-4.3,3.3-4.3,3.3s4.8-2.8,2.6-7
				c-2.2-4.1-5.3,0-5.3,0s-1-3.2-2.1-2s0,2.9,0,2.9s0.8-3.4-1.4-2.2c-2.2,1.3-7.2,0.5-3.2,8.2s2.5,1.5,0.7-1.4
				c-1.8-3-6.1-7.6-6.5-0.7c-0.4,6.9,4.7,11.8,8,10.7c3.3-1-0.2-2-1.5-1.2c-1.3,0.8-6.3,1.3-3.2,4.7c0,0,0.6,0.8,1.5,1.5"/>
		</g>
		<g>
			<path class="st7" d="M120,130.1c0,0,4.5-4.7,0.9-6.8c0,0,6.3-6.7,1.2-7.7c-5.1-1-4.3,3.3-4.3,3.3s4.8-2.8,2.6-7
				c-2.2-4.1-5.3,0-5.3,0s-1-3.2-2.1-2c-1.2,1.2,0,2.9,0,2.9s0.8-3.4-1.4-2.2c-2.2,1.3-7.2,0.5-3.2,8.2s2.5,1.5,0.7-1.4
				c-1.8-3-6.1-7.6-6.5-0.7c-0.4,6.9,4.7,11.8,8,10.7s-0.2-2-1.5-1.2c-1.3,0.8-6.3,1.3-3.2,4.7c0,0,2.6,1.6,5.7,1.6
				C114.9,132.6,120,130.1,120,130.1z"/>
			<path class="st8" d="M122.1,124.2c0,0,0-1.9-1.2-1.9s-5.8,2.5-3.6,2.9S120.9,125.6,122.1,124.2z"/>
			<path class="st8" d="M119.9,111.7c0,0-0.2-0.9-1.3-0.3c-1.2,0.6-5.2,4.1-3.1,3.2C117.6,113.6,118.9,112.9,119.9,111.7z"/>
			<path class="st8" d="M107.1,119.4c0,0,1-1,0.4-2.4c-0.6-1.4-4.3-5.3-3.4-2.5C105,117.2,105.7,118.8,107.1,119.4z"/>
			<path class="st4" d="M120.5,130c1.5-2.7,2.9-6,0.8-7.1c0,0,6.3-6.7,1.2-7.7c-5.1-1-4.3,3.3-4.3,3.3s4.8-2.8,2.6-7
				c-2.2-4.1-5.3,0-5.3,0s-1-3.2-2.1-2s0,2.9,0,2.9s0.8-3.4-1.4-2.2c-2.2,1.3-7.2,0.5-3.2,8.2s2.5,1.5,0.7-1.4
				c-1.8-3-6.1-7.6-6.5-0.7c-0.4,6.9,4.7,11.8,8,10.7c3.3-1-0.2-2-1.5-1.2c-1.3,0.8-6.3,1.3-3.2,4.7c0,0,0.6,0.8,1.5,1.5"/>
		</g>
		<g>
			<path class="st9" d="M55.5,96.5c0.5-2.1,8.1-0.4,10.9-0.4c2.8,0.1,4,1.2,3.8,2.1s-4.8,1.5-9.3,0.7S55.2,98.1,55.5,96.5z"/>
			<g>
				<path class="st10" d="M71.8,60.9c-0.2-0.2-0.3-0.4-0.5-0.6c0,0.8-0.1,1.7-0.2,2.8c-0.1,0.7-0.1,1.2-0.2,1.8
					c3.7,1.3,8.7,0.3,8.7,0.3l0-2.6C77.7,63.2,73.2,62.4,71.8,60.9z"/>
				<path class="st11" d="M69,53c-0.5-0.2-0.9-0.4-1.4-0.6c0,0.2,0,0.4,0,0.6c0.6,0.5-0.2,1.1-1,1.1c-2.2,0-2.1-1.9-2.1-1.9v-0.3
					c-1.2,0-2.3,0.6-3.3,1.9c0.9-0.7,1.9-1,2.5-0.1c1,1.7-1.6,5.4-1.4,7.4c0.3,2,4.4,6.9,6.4,7.3l-0.1,0.1l-0.1,0.1
					c0,0,0.2,0.3,0.8,0.8c0,0,0.1,0,0.1-0.1c1.3-0.9,1.4-2.3,1.6-4.5c0-0.5,0.1-1.1,0.2-1.8c0.1-1,0.2-1.9,0.2-2.8
					C71.4,53.9,69,53,69,53z"/>
				<path class="st11" d="M64.8,69.1c-1.9-1.3-4.5-3.3-5.8-5.4c0,1.3,0.1,2.7,0.2,4.3c0,0.4,0.2,0.7,0.5,1c0.5,0.6,1.3,0.9,2.3,1.1
					c1.2,0.3,2.6,0.3,3.8,0.2c0.3,0,0.6-0.1,0.9-0.1C66.3,70.1,65.6,69.6,64.8,69.1z"/>
				<path class="st10" d="M62.3,61c-0.3-2,2.3-5.8,1.4-7.4c-0.5-0.9-1.5-0.7-2.5,0.1c-1,0.7-1.9,1.9-2.2,2.6
					c-0.8,1.7-1.1,3.3-0.8,5.4c0.1,0.7,0.4,1.4,0.8,2c1.3,2.1,3.9,4.1,5.8,5.4c0.8,0.6,1.5,1,1.9,1.2c0.2,0.1,0.3,0.2,0.3,0.2
					l0.2-0.3l0.6-0.8l0.6-0.8v0l0.1-0.1l0.1-0.1C66.7,67.9,62.6,63,62.3,61z"/>
				<path class="st12" d="M69.8,71.4c-0.5,0-0.9,0-1.4-0.2c-0.9-0.5-1.2-0.9-1.3-1.1c0,0-0.1,0-0.1,0l-0.2,0.3c0,0-0.1-0.1-0.3-0.2
					c-0.3,0-0.6,0.1-0.9,0.1c-1.3,0.1-2.7,0.1-3.8-0.2c-1-0.2-1.8-0.6-2.3-1.1C59.3,76.8,54.7,90,54.7,90l0.4,0.2l2.2,1l0.7,0.3
					c3-4.8,4.9-9.1,6-12.5c0.8,7.8-0.8,14.8-0.8,14.8L66,94l0.7,0.1C71.3,83.2,70.7,75.4,69.8,71.4z"/>
				<path class="st13" d="M62.9,97.1c1,0.7,6.8,1.7,8.9,1.7c2,0,0.1-0.8-1.7-1.1c-1.8-0.4-3.9-3.6-3.9-3.6l-2.8-0.2L62.9,97.1z"/>
				<path class="st13" d="M53.4,92.6c0.7,0.4,3.9,3.9,5,3.9c1.1,0,1.1,0.2,1.5-0.3c0.4-0.5-0.7-0.6-1.6-1.7c-1-1.1-0.7-3.2-0.7-3.2
					l-2.2-1L53.4,92.6z"/>
				<path class="st13" d="M63.8,50.2c1.5-0.4,1.1-1.7,1.1-1.7s-0.6,0.2-0.8-0.6c-0.2-0.8,0.6-0.9,0.6-0.9s0.6-0.1,0.6,0.6v0.5
					l0.3,0.1c0.9-0.8,0.4-1.8,0.4-1.8c3,0.6,4.3-1.3,4.3-1.3c0.5-0.6-0.2-1.2-0.5-1.3c0,0-0.6-0.2-1,0c0,0,0.2,0.4,0.1,0.4
					c-0.1,0-7.3-2-6.1,2.3C64.1,50.7,63.8,50.2,63.8,50.2z"/>
				<path class="st14" d="M66.6,41.5c-2.3,0-4.1,1.7-4.1,3.8v0.8c0,0,0.6,0.8,4.1,0.8c3.7,0,4.1-0.8,4.1-0.8v-0.8
					C70.7,43.2,68.9,41.5,66.6,41.5z"/>
				<g>
					<path class="st15" d="M66.4,46.8c0,0.4-0.1,0.9-0.5,1.4l-0.4-0.1v-0.6c0-0.7-0.7-0.6-0.7-0.6s-0.9,0.1-0.7,1
						c0.2,0.9,0.9,0.7,0.9,0.7s0.1,0.2,0,0.5c0,0.3-0.2,0.7-0.6,1.1c0.8,0.9,2,1.4,3.1,1.4c0,0,0,0,0,0c1.8,0,2.3-1.1,2.6-2.5
						c0.2-0.7,0.2-1.9,0.1-2.8c-0.5,0.2-1.5,0.5-3.8,0.5C66.5,46.8,66.4,46.8,66.4,46.8z"/>
				</g>
				<path class="st16" d="M65.8,48.2l-0.4-0.1v-0.6c0-0.7-0.7-0.6-0.7-0.6s-0.9,0.1-0.7,1c0.2,0.9,0.9,0.7,0.9,0.7s0.4,1.4-1.2,1.8
					c-0.1-1.7-0.5-2.2-0.8-3c-0.2-0.5-0.2-1.2-0.2-1.2"/>
				<g>
					<ellipse class="st17" cx="69.9" cy="47.6" rx="0.2" ry="0.2"/>
					<ellipse class="st17" cx="67.4" cy="47.6" rx="0.2" ry="0.2"/>
					<path class="st16" d="M69,47.7c0,0-0.5,0.7,0.3,0.8c0.6,0.1,0.6,0,0.6,0.2c0,0.1,0,0.4-0.5,0.5c-0.4,0-0.5,0-0.5,0"/>
					<path class="st16" d="M69.3,49.9c0,0-1,0.3-1.6-0.2c0,0,0.1,0.8,0.7,0.7C69,50.4,69,50.2,69.3,49.9z"/>
				</g>
				<path class="st16" d="M71.8,60.7c-0.2-0.2-0.3-0.4-0.5-0.6c0,0.8-0.1,1.7-0.2,2.8c-0.1,0.7-0.1,1.2-0.2,1.8
					c3.7,1.3,8.7,0.3,8.7,0.3l0-2.6C77.7,63,73.2,62.1,71.8,60.7z"/>
				<path class="st16" d="M59.7,68.8c-0.2,7.8-4.8,21.1-4.8,21.1l0.4,0.2l0,0l2.2,1l0,0l0.7,0.3c3-4.8,4.9-9.1,6-12.5
					c-0.3-3-1-6.1-2.2-8.9C61,69.7,60.1,69.4,59.7,68.8z"/>
				<path class="st16" d="M69.4,69.3c0-0.1,0-0.1-0.1-0.2c0,0-0.1,0-0.1,0.1C69.3,69.2,69.4,69.3,69.4,69.3z"/>
				<path class="st16" d="M70,71.3c-0.5,0-0.9,0-1.4-0.2c-0.9-0.5-1.2-0.9-1.3-1.1c0,0-0.1,0-0.1,0L67,70.2c0,0-0.1-0.1-0.3-0.2
					c-0.3,0-0.6,0.1-0.9,0.1c-1.3,0.1-2.7,0.1-3.8-0.2c1.2,2.8,1.9,5.9,2.2,8.9c0.8,7.8-0.8,14.8-0.8,14.8l2.8,0.2l0.7,0.1
					C71.4,83,70.9,75.3,70,71.3z"/>
				<path class="st16" d="M67.9,69.2L67.2,70c0,0,0.1,0,0.1,0c0,0,0-0.1,0-0.1L67.9,69.2z"/>
				<path class="st16" d="M69,52.7c-0.5-0.2-0.9-0.4-1.4-0.6c0,0.2,0,0.4,0,0.6c0.6,0.5-0.2,1.1-1,1.1c-2.2,0-2.1-1.9-2.1-1.9v-0.3
					c-1.2,0-2.3,0.6-3.3,1.9c0.9-0.7,1.9-1,2.5-0.1c1,1.7-1.6,5.4-1.4,7.4c0.3,2,4.4,6.9,6.4,7.3l-0.1,0.1l-0.1,0.1
					c0,0,0.2,0.3,0.8,0.8c0,0,0.1,0,0.1-0.1c1.3-0.9,1.4-2.3,1.6-4.5c0-0.5,0.1-1.1,0.2-1.8c0.1-1,0.2-1.9,0.2-2.8
					C71.4,53.6,69,52.7,69,52.7z"/>
				<path class="st16" d="M64.8,68.9c-1.9-1.3-4.5-3.3-5.8-5.4c0,1.3,0.1,2.7,0.2,4.3c0,0.4,0.2,0.7,0.5,1c0.5,0.6,1.3,0.9,2.3,1.1
					c1.2,0.3,2.6,0.3,3.8,0.2c0.3,0,0.6-0.1,0.9-0.1C66.3,69.8,65.6,69.4,64.8,68.9z"/>
				<path class="st18" d="M67.6,52.8c0-0.2,0-0.4,0-0.6c0-0.2,0-0.5,0-0.6c-1.1,0-2.3-0.5-3.1-1.4v1.4v0.3c0,0-0.1,1.9,2.1,1.9
					C67.4,53.9,68.2,53.3,67.6,52.8z"/>
				<path class="st16" d="M62.9,96.9c1,0.7,6.8,1.7,8.9,1.7c2,0,0.1-0.8-1.7-1.1c-1.8-0.4-3.9-3.6-3.9-3.6l-2.8-0.2L62.9,96.9z"/>
				<polygon class="st16" points="63.3,93.7 66.1,93.9 66.1,93.9 				"/>
				<path class="st16" d="M53.4,92.5c0.7,0.4,3.9,3.9,5,3.9c1.1,0,1.1,0.2,1.5-0.3c0.4-0.5-0.7-0.6-1.6-1.7c-1-1.1-0.7-3.2-0.7-3.2
					l-2.2-1L53.4,92.5z"/>
				<rect x="56.4" y="89.4" class="st15" width="0" height="2.4"/>
				<path class="st16" d="M62.3,60.8c-0.3-2,2.3-5.8,1.4-7.4c-0.5-0.9-1.5-0.7-2.5,0.1c-1,0.7-1.9,1.9-2.2,2.6
					c-0.8,1.7-1.1,3.3-0.8,5.4c0.1,0.7,0.4,1.4,0.8,2c1.3,2.1,3.9,4.1,5.8,5.4c0.8,0.6,1.5,1,1.9,1.2c0.2,0.1,0.3,0.2,0.3,0.2
					l0.2-0.3l0.6-0.8l0.6-0.8v0l0.1-0.1l0.1-0.1C66.7,67.7,62.6,62.8,62.3,60.8z"/>
				<path class="st18" d="M70.7,70.1c-0.5-0.3-0.9-0.6-1.3-0.8c-0.1,0-0.1-0.1-0.1-0.1c-0.6-0.5-0.8-0.8-0.8-0.8l-0.6,0.8l-0.6,0.7
					c0,0,0,0,0,0.1c0.1,0.2,0.4,0.7,1.3,1.1c0.5,0.2,0.9,0.2,1.4,0.2c0.6,0.1,1.2,0.3,1.7,1.7C72.7,73.8,72.4,71,70.7,70.1z"/>
				<polygon class="st16" points="67.9,69.2 68.5,68.4 68.5,68.4 				"/>
				<path class="st18" d="M82.5,62.8c-1.9,0.2-2.9-0.2-2.9-0.2v1.9c0,0,0.6,0.4,1.8,0.2c1.2-0.1,1.4-1.6,3.7-0.1
					C86.6,64.6,84.5,62.6,82.5,62.8z"/>
				<g>
					<path class="st16" d="M62.4,45.2c0-2.1,1.8-3.8,4.1-3.8c2.3,0,4.1,1.7,4.1,3.8c0,0-0.4,0.8-4.1,0.8C63,46,62.4,45.2,62.4,45.2z
						"/>
					<path class="st16" d="M62.4,46c0,0,0.6,0.8,4.1,0.8c3.7,0,4.1-0.8,4.1-0.8v-0.8c0,0-0.4,0.8-4.1,0.8c-3.5,0-4.1-0.8-4.1-0.8V46
						z"/>
				</g>
				<path class="st14" d="M66.4,46.8c0,0-0.3,4.3,0.8,4.7c0,0-0.5-0.1-1.1-0.3c0,0-0.8-1.4-0.5-4.5C65.6,46.8,66.1,46.8,66.4,46.8z"
					/>
				<path class="st16" d="M66.3,46.8c0,0-0.3,4.3,0.8,4.7c0,0-0.5-0.1-1.1-0.3c0,0-0.8-1.4-0.5-4.5C65.5,46.8,66,46.8,66.3,46.8z"/>
			</g>
		</g>
		<g>
			<path class="st9" d="M82.5,100.1c0.5-2.1,8.1-0.4,10.9-0.4c2.8,0.1,4,1.2,3.8,2.1c-0.3,0.9-4.8,1.5-9.3,0.7
				C83.3,101.9,82.1,101.8,82.5,100.1z"/>
			<g>
				<path class="st19" d="M94.7,50.4c0,0,0.5-0.6,0.4-1.3c0,0-0.5-2.8-4.8-2.4c-2.7,0.2-3,3.4-3.1,4.5c-0.2,2.6-3.2,2.8-4.3,3.9
					c-1,1.2-0.5,2.9,1,3.2c3,0.7,5,0.8,6.7-1.2c0.6-0.8,2.2,0.3,3.7-0.8c1.5-1.1,0-3.8-0.2-4.2C93.8,51.7,94.7,50.4,94.7,50.4"/>
				<g>
					<path class="st12" d="M92.2,74c-0.1,4-0.8,13.2-4.1,22.8c0,0.3,0,0.4,0,0.4l3.5,0.3c2.3-9.2,2.4-18,2.3-22.5
						c-0.2,0-0.4-0.1-0.6-0.2C92.7,74.6,92.4,74.3,92.2,74z"/>
					<path class="st12" d="M92,73.7l-0.3,0.3c0,0-0.2-0.1-0.6-0.4c-1.5,0.2-3.2,0.2-4.6-0.2c-0.6-0.2-1.2-0.4-1.7-0.7
						c1.2,10.9-0.4,24.4-0.4,24.4l2.8,0.2l0,0l0.6,0.1c0.1-0.2,0.2-0.5,0.3-0.7c3.3-9.6,4-18.8,4.1-22.8C92.1,73.9,92,73.7,92,73.7z
						"/>
				</g>
				<path class="st13" d="M92.7,101.1l4.8,0.8c0,0-4.3-3.1-5.8-2.9l-0.5-1.4l-2.8-0.2l-0.2,1.6C89.8,99.1,92.7,101.1,92.7,101.1z"/>
				<path class="st13" d="M88.2,99.1C88.1,99.1,88.1,99.1,88.2,99.1l-0.6-1.4l-2.8-0.3l-0.5,3.3l3.7,0.5l5.9,0.7
					C93.9,101.9,89.8,98.9,88.2,99.1z"/>
				<path class="st18" d="M105.2,65.8v1.9c0,0,0.6,0.4,1.8,0.2c1.2-0.1,1.4-1.6,3.7-0.1c1.4,0.1-0.7-2-2.6-1.8
					C106.2,66.2,105.2,65.8,105.2,65.8z"/>
				<path class="st20" d="M88.2,97.6l-0.6-0.1l0.5,1.4c0,0,0.1,0,0.1,0l0.2-1.6c0,0,0-0.2,0-0.4C88.3,97.1,88.3,97.3,88.2,97.6z"/>
				<polygon class="st16" points="87.6,97.5 84.8,97.3 87.6,97.5 				"/>
				<path class="st16" d="M92.5,74c-0.1,4-0.8,13.2-4.1,22.8c0,0.3,0,0.4,0,0.4l3.5,0.3c2.3-9.2,2.4-18,2.3-22.5
					c-0.2,0-0.4-0.1-0.6-0.2C93,74.6,92.7,74.3,92.5,74z"/>
				<path class="st16" d="M92.3,73.7l-0.3,0.3c0,0-0.2-0.1-0.6-0.4c-1.5,0.2-3.2,0.2-4.6-0.2c-0.6-0.2-1.2-0.4-1.7-0.7
					c1.2,10.9-0.4,24.4-0.4,24.4l2.8,0.2l0,0l0.6,0.1c0.1-0.2,0.2-0.5,0.3-0.7c3.3-9.6,4-18.8,4.1-22.8
					C92.4,73.9,92.3,73.7,92.3,73.7z"/>
				<path class="st10" d="M89.6,72.7c-0.1-0.1-0.3-0.2-0.5-0.3c-1.8-1.2-3.9-3-5.1-4.8c0,1.2,0.1,2.6,0.2,4c0.1,0.6,0.4,1.1,0.9,1.5
					c0.4,0.3,1,0.5,1.7,0.7c1.4,0.3,3.1,0.4,4.6,0.2C91,73.6,90.3,73.2,89.6,72.7z"/>
				<path class="st16" d="M89.6,72.5c-0.1-0.1-0.3-0.2-0.5-0.3c-1.8-1.2-3.9-3-5.1-4.8c0,1.2,0.1,2.6,0.2,4c0.1,0.6,0.4,1.1,0.9,1.5
					c0.4,0.3,1,0.5,1.7,0.7c1.4,0.3,3.1,0.4,4.6,0.2C91,73.5,90.3,73.1,89.6,72.5z"/>
				<path class="st16" d="M92.7,100.9l4.8,0.8c0,0-4.3-3.1-5.8-2.9l-0.5-1.4l-2.8-0.2l-0.2,1.6C89.8,98.9,92.7,100.9,92.7,100.9z"/>
				<path class="st16" d="M88.2,98.9C88.1,98.9,88.1,98.9,88.2,98.9l-0.6-1.4l-2.8-0.3l-0.5,3.3L88,101l5.9,0.7
					C93.9,101.8,89.8,98.7,88.2,98.9z"/>
				<path class="st11" d="M93.5,71.9c-2.1-0.8-5.9-5.3-6.1-7.2c-0.3-2,2.3-5.8,1.4-7.4c-0.6-1-1.8-0.6-2.8,0.3
					c-0.8,0.7-1.6,1.7-1.9,2.3c-0.8,1.7-1.1,3.3-0.8,5.4c0.1,0.7,0.4,1.4,0.8,2.1c1.2,1.9,3.3,3.6,5.1,4.8c0.2,0.1,0.3,0.2,0.5,0.3
					c0.7,0.5,1.4,0.9,1.8,1.2c0.4,0.2,0.6,0.4,0.6,0.4l0.3-0.3l0.2-0.2l0,0l0.4-0.5l0.8-1C93.6,72,93.5,71.9,93.5,71.9z"/>
				<path class="st18" d="M95.7,74c-0.7-0.4-1.2-0.8-1.6-1.1c0,0,0,0-0.1-0.1c-0.4-0.4-0.5-0.6-0.5-0.6L93,72.9l-0.4,0.5l0,0
					l-0.2,0.2c0,0,0,0.1,0.2,0.3c0.2,0.2,0.5,0.6,1.1,0.9c0.2,0.1,0.4,0.1,0.6,0.2c0.9,0.1,1.8-0.3,2.5,1.8
					C97.7,77.7,97.4,74.9,95.7,74z"/>
				<path class="st11" d="M97.3,64.2c-0.4-0.4-0.7-1-1-1.7c0.1,1.2,0,2.6-0.2,4.3c0,0.4-0.1,0.8-0.1,1.1c3.7,1.6,9.2,0.4,9.2,0.4
					l0-2.6C103.3,66.5,98.8,65.6,97.3,64.2z"/>
				<path class="st16" d="M93.5,71.9c-2.1-0.8-5.9-5.3-6.1-7.2c-0.3-2,2.3-5.8,1.4-7.4c-0.6-1-1.8-0.6-2.8,0.3
					c-0.8,0.7-1.6,1.7-1.9,2.3c-0.8,1.7-1.1,3.3-0.8,5.4c0.1,0.7,0.4,1.4,0.8,2.1c1.2,1.9,3.3,3.6,5.1,4.8c0.2,0.1,0.3,0.2,0.5,0.3
					c0.7,0.5,1.4,0.9,1.8,1.2c0.4,0.2,0.6,0.4,0.6,0.4l0.3-0.3l0.2-0.2l0,0l0.4-0.5l0.8-1C93.7,72,93.6,71.9,93.5,71.9z"/>
				<g>
					<path class="st10" d="M96.3,62.2c-0.2-5.1-2.3-5.8-2.3-5.8c-0.5-0.2-1-0.4-1.4-0.6c0,0.1,0,0.1,0,0.1c0.6,0.4-0.2,0.9-0.9,0.9
						c-2,0-1.9-1.6-1.9-1.6c-1.5-0.1-2.8,0.7-3.9,2.4c1-0.9,2.2-1.3,2.8-0.3c1,1.7-1.6,5.4-1.4,7.4c0.3,1.9,4,6.4,6.1,7.2
						c0.1,0,0.2,0.1,0.3,0.1l-0.8,1l0.6-0.7c0,0,0.1,0.3,0.5,0.6c0,0,0,0,0.1,0.1c1.7-1,1.7-2.5,1.9-5.3c0-0.4,0.1-0.7,0.1-1.1
						C96.3,64.8,96.4,63.4,96.3,62.2z"/>
					<path class="st10" d="M92.6,55.9c0,0,0-0.1,0-0.1c0-0.3,0-0.7,0-1.1c-0.1,0-0.2,0-0.3,0c-1.5-0.4-2.2-1.3-2.5-1.7c0,0,0,0,0,0
						v2.2c0,0,0,0,0,0c0,0-0.1,1.6,1.9,1.6C92.4,56.8,93.2,56.4,92.6,55.9z"/>
				</g>
				<g>
					<path class="st16" d="M96.3,62.2c-0.2-5.1-2.3-5.8-2.3-5.8c-0.5-0.2-1-0.4-1.4-0.6c0,0.1,0,0.1,0,0.1c0.6,0.4-0.2,0.9-0.9,0.9
						c-2,0-1.9-1.6-1.9-1.6c-1.5-0.1-2.8,0.7-3.9,2.4c1-0.9,2.2-1.3,2.8-0.3c1,1.7-1.6,5.4-1.4,7.4c0.3,1.9,4,6.4,6.1,7.2
						c0.1,0,0.2,0.1,0.3,0.1l-0.8,1l0.6-0.7c0,0,0.1,0.3,0.5,0.6c0,0,0,0,0.1,0.1c1.7-1,1.7-2.5,1.9-5.3c0-0.4,0.1-0.7,0.1-1.1
						C96.3,64.8,96.4,63.4,96.3,62.2z"/>
					<path class="st18" d="M92.6,55.9c0,0,0-0.1,0-0.1c0-0.3,0-0.7,0-1.1c-0.1,0-0.2,0-0.3,0c-1.5-0.4-2.2-1.3-2.5-1.7c0,0,0,0,0,0
						v2.2c0,0,0,0,0,0c0,0-0.1,1.6,1.9,1.6C92.4,56.8,93.2,56.4,92.6,55.9z"/>
				</g>
				<path class="st15" d="M94.8,49.6c0-0.1-0.1-0.2-0.1-0.3c0,0,0,0,0,0c0-0.1,0-0.1-0.1-0.2c0,0,0,0,0,0c0,0,0-0.1-0.1-0.1
					c0,0,0,0,0,0c0,0-0.1-0.1-0.1-0.1c0,0,0,0,0,0c0,0-0.1-0.1-0.1-0.1c0,0,0,0,0,0c-0.1-0.1-0.2-0.2-0.3-0.3c0,0-0.2,0.7-0.7,1.2
					c-0.4,0.4-1.1,0.6-2.2,0.2c0,0.7-0.2,1-0.3,1.1C90.5,51,90.3,51,90.3,51c0-0.6-0.6-0.6-0.6-0.6s0,0,0,0c0,0-0.1,0-0.1,0
					c0,0-0.1,0-0.2,0.1c0,0,0,0,0,0c-0.1,0-0.1,0.1-0.2,0.1c0,0,0,0,0,0c0,0-0.1,0.1-0.1,0.1c0,0,0,0,0,0c0,0.1-0.1,0.1-0.1,0.2
					c0,0.1,0,0.2,0,0.4c0,0,0,0,0,0c0,0.1,0,0.1,0.1,0.2c0,0,0,0,0,0.1c0,0,0,0.1,0.1,0.1c0,0,0,0,0,0c0,0,0,0.1,0.1,0.1
					c0,0,0,0,0,0c0,0,0.1,0,0.1,0.1c0,0,0,0,0,0c0,0,0,0,0.1,0c0,0,0,0,0,0c0,0,0,0,0,0c0,0,0,0,0,0c0,0,0,0,0,0c0,0,0,0,0,0
					c0,0,0,0,0,0c0,0,0,0,0.1,0c0,0,0,0,0,0c0,0,0,0,0,0c0,0,0,0,0,0c0,0,0,0,0,0c0,0,0,0,0,0c0,0,0,0,0,0s0.1,0.6-0.2,1.1
					c0,0,0,0,0,0c0.3,0.4,1,1.3,2.5,1.7c0.1,0,0.2,0,0.3,0c0.9-0.2,1.8-1.1,2.1-2.3C94.9,51.7,94.9,50.4,94.8,49.6z"/>
				<g>
					<path class="st17" d="M94.2,50.6c-0.1,0-0.2,0.1-0.2,0.1c0,0.1,0.1,0.1,0.2,0.1s0.2-0.1,0.2-0.1C94.3,50.7,94.3,50.6,94.2,50.6
						z"/>
					<ellipse class="st17" cx="91.8" cy="50.8" rx="0.2" ry="0.1"/>
					<path class="st16" d="M93.3,50.9c0,0-0.5,0.7,0.2,0.7c0,0,0.1,0.5-0.7,0.4"/>
					<path class="st16" d="M92.1,52.7c0.6,0.5,1.5,0.2,1.5,0.2c-0.1,0.3-0.6,0.7-1,0.5C92.2,53.3,92.1,53.1,92.1,52.7z"/>
				</g>
				<path class="st16" d="M89.4,53.4c0.8-0.5,0.6-1.5,0.6-1.5s-0.6,0.2-0.8-0.6c-0.2-0.8,0.6-0.9,0.6-0.9s0.6-0.1,0.6,0.6
					c0,0,0.7,0.2,0.7-1.2c2.5,1,2.9-1.4,2.9-1.4c0.9,0.6,0.9,1.9,0.9,1.9s0.5-0.6,0.4-1.4c0,0-0.6-2.9-5-2.5
					c-2.8,0.3-3.2,3.6-3.3,4.7c-0.3,2.8-3.4,2.9-4.5,4.1c-1.1,1.2-0.5,3,1,3.4c0,0,0.4,0.1,1.1,0"/>
				<path class="st14" d="M91.3,44.7c-2.4,0-4.3,1.8-4.3,4v0.8c0,0,0.6,0.8,4.3,0.8c3.8,0,4.3-0.8,4.3-0.8v-0.8
					C95.6,46.5,93.7,44.7,91.3,44.7z"/>
				<g>
					<path class="st16" d="M86.9,48.6c0-2.2,1.9-4,4.3-4c2.4,0,4.3,1.8,4.3,4c0,0-0.4,0.8-4.3,0.8C87.5,49.4,86.9,48.6,86.9,48.6z"
						/>
					<path class="st16" d="M86.9,49.4c0,0,0.6,0.8,4.3,0.8c3.8,0,4.3-0.8,4.3-0.8v-0.8c0,0-0.4,0.8-4.3,0.8c-3.7,0-4.3-0.8-4.3-0.8
						V49.4z"/>
				</g>
				<path class="st14" d="M91.1,50.3c0,0-0.6,3.8,0.6,4.2c0,0-0.5-0.4-1.1-0.6c0,0-0.5-0.6-0.3-3.7C90.3,50.3,90.8,50.3,91.1,50.3z"
					/>
				<path class="st16" d="M91,50.3c0,0-0.5,3.7,0.6,4.2c0,0-0.8-0.3-1.2-0.7c0,0-0.5-0.5-0.2-3.6C90.2,50.3,90.8,50.3,91,50.3z"/>
				<path class="st16" d="M97.3,63.9c-0.4-0.4-0.7-1-1-1.7c0.1,1.2,0,2.6-0.2,4.3c0,0.4-0.1,0.8-0.1,1.1c3.7,1.6,9.2,0.4,9.2,0.4
					l0-2.6C103.3,66.2,98.8,65.3,97.3,63.9z"/>
			</g>
		</g>
		<g>
			<g>
				<path class="st2" d="M44,15.8C43.7,10,47.7-2.9,32.3,3.1s-2.8,13.3-2.8,13.3s1-2.6-1.5-3.2c-2.5-0.6-11.3,1.1-9.2,6s3.4,0,3.4,0
					l-5.4,3.6c0,0,0.7-5.9-5.3-4s-16.7,20.4-4.8,18c0,0-10,4.5-5.4,6.2c4.6,1.7,9-0.3,9-0.3S8.3,41,5.6,43.1
					c-2.7,2.1,0.9,7.6,5.5,7.8c0,0-7.3,2.1-4.9,5.5c1.5,2.2,5.1,2.1,7.8,1.1c1.6-0.6,2.8-1.4,2.9-2.3c0,0-3,0.8-1.8,3
					s8.6,0.9,8.6,0.9s1.1,7.4,6.4,4.4c5.3-3,4.3-6.5,4.3-6.5s4.1,2.9,7.3-1.8c3.3-4.7-1,0.2-1,0.2s5.7,4.8,4.5-2.6
					c0,0,11.2,1.1,13-2.7c1.8-3.8,2.3-8.9-3-9.8c-5.4-0.9,1.1,1.2,1.1,1.2s12.2-0.9,3.2-9.8s-6.1-3.6-5-2.9c1.1,0.6,9.4,4.7,7.1-2.1
					c0,0,4.8,2.4,3.7-0.9s-3.2-8.4-7.8-4.5c0,0,9.2-1.4,2.4-4.9s-8.5,2.4-8.5,2.4S48.7,11.4,44,15.8z"/>
				<path class="st5" d="M44,15.3C43.7,9.6,47.7-3.3,32.3,2.7S29.6,16,29.6,16s1-2.6-1.5-3.2c-2.5-0.6-11.3,1.1-9.2,6s3.4,0,3.4,0
					l-5.4,3.6c0,0,0.7-5.9-5.3-4s-16.7,20.4-4.8,18c0,0-10,4.5-5.4,6.2s9-0.3,9-0.3s-2.1-1.9-4.8,0.3s0.9,7.6,5.5,7.8
					c0,0-7.3,2.1-4.9,5.5c1.5,2.2,5.1,2.1,7.8,1.1c1.6-0.6,2.8-1.4,2.9-2.3c0,0-3,0.8-1.8,3s8.6,0.9,8.6,0.9s1.1,7.4,6.4,4.4
					s4.3-6.5,4.3-6.5s4.1,2.9,7.3-1.8c3.3-4.7-1,0.2-1,0.2s5.7,4.8,4.5-2.6c0,0,11.2,1.1,13-2.7c1.8-3.8,2.3-8.9-3-9.8
					s1.1,1.2,1.1,1.2s12.2-0.9,3.2-9.8s-6.1-3.6-5-2.9c1.1,0.6,9.4,4.7,7.1-2.1c0,0,4.8,2.4,3.7-0.9s-3.2-8.4-7.8-4.5
					c0,0,9.2-1.4,2.4-4.9s-8.5,2.4-8.5,2.4S48.7,11,44,15.3z"/>
				<path class="st6" d="M27.9,115.1c0,0-3.5-35.5,0.4-64.4c4.3-3.3,12.3-9,16.4-9.7c0,0,6,2.1,10.5,1c0,0-6,0.1-9.9-2.1
					c0,0,7-4,7.5-7.8c0,0-1.5,5.3-18.5,12.9c0,0-0.6,0.3-1.6,0.9c1.5-1.8,3.8-5.8,3.8-5.8c-1.4,1.4-3.9,4.9-5.1,6.6
					c-0.9,0.6-1.9,1.2-2.9,2.1c1.7-11.3,4.6-21.4,9.4-27.7c0,0-10.4,8.4-15.6,35c-0.1-0.3-0.3-0.6-0.4-0.8c-0.1-1.5-0.4-4.6-0.8-5.9
					c0,0,0,3.4,0.3,5c-0.4-0.6-0.7-1-0.7-1c-7.3-9.3-6.4-13.5-6.4-13.5c-0.9,2.9,1.8,7.3,1.8,7.3c-3,0.7-6.4-0.7-6.4-0.7
					c2.2,1.8,6.4,1.6,6.4,1.6c2,1.3,4.4,6.3,5.9,9.7c-2,11-3.1,25-2.3,42.7C19.8,100.6,23.1,110,27.9,115.1z"/>
				<path class="st5" d="M27.7,114.7c0,0-3.5-35.5,0.4-64.4c4.3-3.3,12.3-9,16.4-9.7c0,0,6,2.1,10.5,1c0,0-6,0.1-9.9-2.1
					c0,0,7-4,7.5-7.8c0,0-1.5,5.3-18.5,12.9c0,0-0.6,0.3-1.6,0.9c1.5-1.8,3.8-5.8,3.8-5.8c-1.4,1.4-3.9,4.9-5.1,6.6
					c-0.9,0.6-1.9,1.2-2.9,2.1C30.1,37,33,26.9,37.8,20.6c0,0-10.4,8.4-15.6,35c-0.1-0.3-0.3-0.6-0.4-0.8c-0.1-1.5-0.4-4.6-0.8-5.9
					c0,0,0,3.4,0.3,5c-0.4-0.6-0.7-1-0.7-1c-7.3-9.3-6.4-13.5-6.4-13.5c-0.9,2.9,1.8,7.3,1.8,7.3c-3,0.7-6.4-0.7-6.4-0.7
					c2.2,1.8,6.4,1.6,6.4,1.6c2,1.3,4.4,6.3,5.9,9.7c-2,11-3.1,25-2.3,42.7"/>
			</g>
			<path class="st3" d="M37.7,3.3c-3.6,0-10.7,3-8.1,4.1s6.1-0.5,7.6-1.5C38.7,4.8,40.8,3.3,37.7,3.3z"/>
			<path class="st3" d="M14.8,19.8c-1.4-0.3-4.3,0.4-3.4,1c0.9,0.6,2.4,0.2,3,0S16,20,14.8,19.8z"/>
		</g>
		<g>
			<path class="st6" d="M9.5,54c0,0,15.2,10.6,53.7,17.6c38.4,7,70.2,1.3,70.2,1.3L133,72c0,0-31.7,5.8-70.2-1.3S9.2,53.1,9.2,53.1
				L9.5,54z"/>
			<path class="st5" d="M9.3,54.2c0,0,15.2,10.6,53.7,17.6c38.4,7,70.2,1.3,70.2,1.3"/>
			<path class="st5" d="M9,53.3c0,0,15.2,10.6,53.7,17.6c38.4,7,70.2,1.3,70.2,1.3"/>
		</g>
	</g>
</g>
</svg>
