<svg width="195" height="144" viewBox="0 0 195 144" fill="none" xmlns="http://www.w3.org/2000/svg">
<g clip-path="url(#clip0_191_7405)">
<path d="M185.43 72.55C183.33 52.1 179.63 34.47 170.27 21.79C162.59 11.39 151.12 4.32004 133.57 1.82004C93.3901 -3.91996 79.25 5.77004 59.21 5.89004C42.99 5.99004 34.92 11.34 30.69 25.08C29.79 28 29.06 31.28 28.47 34.98C22.52 72.21 44.06 95.75 68.64 92.82C93.21 89.89 109.38 98.31 118.46 105.29C127.54 112.27 189.25 109.76 185.43 72.54V72.55Z" fill="#EEDED7"/>
<path d="M106.81 33.0199C95.35 30.0599 80.44 35.4299 67.79 42.7799C68.19 42.8699 68.59 42.9599 68.99 43.0499C71.61 42.3299 74.1 41.6099 76.41 40.9099C86.18 37.9299 94.28 41.5799 101.39 46.8799C106.72 46.7699 111.83 46.1799 116.56 44.9599C128.15 41.9599 143.96 45.4899 157.35 51.0599C162.79 48.5399 168.69 47.4499 175.09 50.0799C177.39 51.0299 179.94 52.0099 182.61 53.0199C180.6 42.8699 177.67 33.7999 173.15 26.1799C152.41 32.3799 126.3 38.0599 106.81 33.0299V33.0199Z" fill="#F4D2CB"/>
<path d="M27.7302 53.02C38.2402 50.72 53.1702 47.31 65.9302 43.89C66.5402 43.52 67.1602 43.15 67.7902 42.79C52.8402 39.38 38.8302 34.57 29.1502 31.24C28.9102 32.44 28.6702 33.68 28.4702 34.98C27.4402 41.43 27.2502 47.46 27.7402 53.02H27.7302Z" fill="#EEC9C2"/>
<path d="M64.2004 42.02C63.5104 42.42 62.8304 42.83 62.1504 43.24C63.2904 42.93 64.4204 42.63 65.5304 42.32C65.0904 42.22 64.6404 42.12 64.2004 42.02Z" fill="#EEC9C2"/>
<path d="M116.561 44.96C111.841 46.18 106.721 46.77 101.391 46.88C104.691 49.34 107.781 52.15 110.721 54.83C112.901 56.82 115.011 58.72 117.061 60.34C117.961 58.42 119.671 56.97 121.761 56.41C122.361 56.25 122.991 56.16 123.641 56.16C125.231 56.16 126.691 56.67 127.891 57.54C129.721 58.86 130.921 61.01 130.921 63.44C130.921 64.24 130.791 65.01 130.551 65.73C131.181 65.62 131.781 65.52 132.291 65.46C135.471 65.11 138.911 63.06 142.611 60.5C147.111 57.39 152.011 53.54 157.351 51.07C143.961 45.49 128.161 41.97 116.561 44.97V44.96Z" fill="#EEC9C2"/>
<path d="M127.891 57.5402C126.691 56.6802 125.231 56.1602 123.641 56.1602C122.991 56.1602 122.361 56.2502 121.761 56.4102C119.681 56.9702 117.971 58.4202 117.061 60.3402C119.951 62.6302 122.741 64.3702 125.501 64.9602C126.541 65.1802 127.781 65.5502 129.171 66.0002C129.651 65.9002 130.111 65.8002 130.551 65.7302C130.791 65.0102 130.921 64.2402 130.921 63.4402C130.921 61.0102 129.721 58.8602 127.891 57.5402V57.5402Z" fill="#F0EFC7"/>
<path d="M185.42 72.5501C185.14 69.8201 184.83 67.1501 184.48 64.5301C183.95 60.5601 183.34 56.7201 182.6 53.0201C179.93 52.0201 177.38 51.0301 175.08 50.0801C168.68 47.4501 162.78 48.5401 157.34 51.0601C152 53.5301 147.1 57.3901 142.6 60.4901C138.9 63.0501 135.46 65.1001 132.28 65.4501C131.76 65.5101 131.17 65.6001 130.54 65.7201C130.47 65.9401 130.38 66.1601 130.29 66.3701C134.75 67.9201 140.6 70.3901 146.99 73.1801C158.84 78.3501 172.52 84.5801 182.59 88.0301C184.92 83.7101 186.04 78.5801 185.42 72.5301V72.5501Z" fill="#C2C8D5"/>
<path d="M146.991 73.19C140.591 70.4 134.741 67.93 130.291 66.38C129.901 66.24 129.531 66.12 129.161 66C127.771 65.54 126.531 65.18 125.491 64.96C122.731 64.37 119.951 62.63 117.051 60.34C115.001 58.72 112.901 56.81 110.711 54.83C107.771 52.16 104.681 49.34 101.381 46.88C94.2707 41.58 86.1707 37.94 76.4007 40.91C74.0907 41.61 71.5907 42.33 68.9807 43.05C67.9807 43.33 66.9607 43.6 65.9207 43.88C53.1507 47.3 38.2207 50.71 27.7207 53.01C28.2707 59.2 29.6807 64.81 31.7807 69.73C34.3307 75.7 37.8907 80.66 42.1607 84.45C49.4507 90.92 58.7907 93.99 68.6207 92.82C93.1907 89.89 109.361 98.31 118.441 105.29C122.931 108.75 140.301 109.87 156.241 105.63C162.551 103.95 168.641 101.43 173.621 97.87C177.361 95.2 180.461 91.95 182.571 88.04C172.501 84.59 158.811 78.35 146.971 73.19H146.991Z" fill="#A8AEBD"/>
<path d="M7.31047 115.68C19.2305 127.92 25.2105 123.79 44.7705 129.59C64.3205 135.39 193.16 133.13 194.15 109.9C195.61 75.79 68.0005 94.2 50.4905 96.04C19.7305 99.27 -15.5395 92.21 7.31047 115.68V115.68Z" fill="#DCE1D7"/>
<g style="mix-blend-mode:multiply" opacity="0.3">
<path d="M63.4 98.77C56.12 98.77 48.85 98.77 41.57 98.76C40.02 98.76 38.46 98.76 36.96 98.48C35.46 98.2 34.02 97.61 33.21 96.67C42.69 93.55 54.39 94.2 63.08 98.34" fill="#899284"/>
</g>
<path d="M41.98 82.6801C41.98 82.6801 35.57 87.7601 35.57 76.7001C35.57 65.6401 38.2599 73.6701 38.2599 73.6701C38.2599 73.6701 36.98 79.0401 37.11 74.3601C37.24 69.6801 38.01 55.2201 41.28 60.2801C44.55 65.3401 32.36 55.1701 36.66 49.1901C40.96 43.2101 41.28 37.0801 44.87 44.1001C48.46 51.1301 45.7 52.0301 43.72 45.1501C41.74 38.2701 44.2299 26.7501 48.9199 40.2101C53.5999 53.6701 49.6899 58.9201 47.5099 58.9101C45.3299 58.9001 47.0599 56.2101 49.6899 55.9101C52.32 55.6101 56.1699 65.5701 55.0099 68.7401C55.0099 68.7401 61.74 66.9801 58.99 76.8501C58.99 76.8501 62.2 79.5401 60.02 87.1701C57.84 94.8001 54.3099 92.7801 53.6699 90.4201C53.0299 88.0601 64.1899 93.3601 60.2799 97.3401H37.45C37.45 97.3401 32.9 94.4701 34.11 91.8701C35.33 89.2701 40.4 86.2801 41.61 86.8801C41.61 86.8801 38.47 78.9501 41.99 82.6901L41.98 82.6801Z" fill="#91A188"/>
<g style="mix-blend-mode:lighten" opacity="0.2">
<path d="M38.9603 62.9101C38.0803 64.9601 39.3503 71.1401 40.5303 69.3101C41.7103 67.4801 42.8803 62.9101 41.7103 62.9101C40.5403 62.9101 39.3603 62.0001 38.9603 62.9101V62.9101Z" fill="#C9DFCE"/>
</g>
<g style="mix-blend-mode:lighten" opacity="0.2">
<path d="M48.1696 79.9901C46.6996 83.4101 48.8296 93.7401 50.7896 90.6901C52.7596 87.6301 54.7196 79.9901 52.7596 79.9901C50.7996 79.9901 48.8296 78.4601 48.1696 79.9901Z" fill="#C9DFCE"/>
</g>
<g style="mix-blend-mode:lighten" opacity="0.2">
<path d="M50.2804 59.6002C50.9404 57.2102 48.9904 58.0202 48.0104 60.9602C47.0304 63.9002 46.3404 67.6302 47.5204 65.2202C48.7004 62.8102 49.9804 60.6702 50.2804 59.6002V59.6002Z" fill="#C9DFCE"/>
</g>
<g style="mix-blend-mode:lighten" opacity="0.2">
<path d="M40.5799 79.1302C40.8699 77.9702 39.8399 76.4402 39.3899 77.6802C38.9399 78.9202 38.6699 81.1202 39.2499 80.5202C39.8299 79.9202 40.4599 79.6502 40.5899 79.1302H40.5799Z" fill="#C9DFCE"/>
</g>
<g style="mix-blend-mode:lighten" opacity="0.2">
<path d="M47.3904 50.7801C47.6804 49.6201 46.6504 48.0901 46.2004 49.3301C45.7504 50.5701 45.4804 52.7701 46.0604 52.1701C46.6404 51.5701 47.2704 51.3001 47.4004 50.7801H47.3904Z" fill="#C9DFCE"/>
</g>
<g style="mix-blend-mode:lighten" opacity="0.2">
<path d="M41.62 46.2901C42.29 44.7501 40.72 43.8401 39.75 45.6001C38.78 47.3601 38 50.0601 39.09 48.9301C40.18 47.8001 41.32 46.9901 41.62 46.3001V46.2901Z" fill="#C9DFCE"/>
</g>
<path d="M41.27 82.6801C41.27 82.6801 34.86 87.7601 34.86 76.7001C34.86 65.6401 37.55 73.6701 37.55 73.6701C37.55 73.6701 36.27 79.0401 36.4 74.3601C36.53 69.6801 37.3 55.2201 40.57 60.2801C43.84 65.3401 31.65 55.1701 35.95 49.1901C40.25 43.2101 40.57 37.0801 44.16 44.1001C47.75 51.1301 44.99 52.0301 43.01 45.1501C41.02 38.2701 43.52 26.7501 48.21 40.2101C52.89 53.6701 48.98 58.9201 46.8 58.9101C44.62 58.9001 46.35 56.2101 48.98 55.9101C51.61 55.6101 55.46 65.5701 54.3 68.7401C54.3 68.7401 61.03 66.9801 58.28 76.8501C58.28 76.8501 61.49 79.5401 59.31 87.1701C57.13 94.8001 53.6 92.7801 52.96 90.4201C52.32 88.0601 63.48 93.3601 59.57 97.3401H36.74C36.74 97.3401 32.19 94.4701 33.4 91.8701C34.62 89.2701 39.69 86.2801 40.9 86.8801C40.9 86.8801 37.76 78.9501 41.28 82.6901L41.27 82.6801Z" stroke="#1A1A1A" stroke-width="0.2" stroke-linecap="round" stroke-linejoin="round"/>
<path d="M131.961 67.6501C132.361 67.7801 132.771 67.9201 133.201 68.0701C133.301 67.8301 133.401 67.5901 133.481 67.3501C133.001 67.4401 132.491 67.5401 131.961 67.6501Z" fill="#C2C8D5"/>
<path d="M128.131 72.5901C128.131 72.5901 127.641 80.5601 128.131 85.8401" stroke="#1A1A1A" stroke-width="0.2" stroke-linecap="round" stroke-linejoin="round"/>
<path d="M129.341 72.5901C129.341 72.5901 129.231 80.4001 129.341 85.8401" stroke="#1A1A1A" stroke-width="0.2" stroke-linecap="round" stroke-linejoin="round"/>
<path d="M130.561 72.5901C130.561 72.5901 130.451 80.9901 130.561 85.8401" stroke="#1A1A1A" stroke-width="0.2" stroke-linecap="round" stroke-linejoin="round"/>
<path d="M131.771 72.5901C131.771 72.5901 130.841 80.3901 131.771 85.8401" stroke="#1A1A1A" stroke-width="0.2" stroke-linecap="round" stroke-linejoin="round"/>
<path d="M132.99 72.5901C132.99 72.5901 133.56 80.3901 132.99 85.8401" stroke="#1A1A1A" stroke-width="0.2" stroke-linecap="round" stroke-linejoin="round"/>
<path d="M133.91 72.53C133.91 72.53 134.42 80.8 134.21 85.84" stroke="#1A1A1A" stroke-width="0.2" stroke-linecap="round" stroke-linejoin="round"/>
<path d="M135.101 72.5901C135.101 72.5901 135.721 80.6301 135.421 85.8801" stroke="#1A1A1A" stroke-width="0.2" stroke-linecap="round" stroke-linejoin="round"/>
<path d="M136.64 72.6301C136.64 72.6301 135.99 80.6601 136.64 85.8801" stroke="#1A1A1A" stroke-width="0.2" stroke-linecap="round" stroke-linejoin="round"/>
<path d="M137.85 72.6802C137.65 73.5502 137.36 80.6302 137.85 85.9302" stroke="#1A1A1A" stroke-width="0.2" stroke-linecap="round" stroke-linejoin="round"/>
<path d="M139.07 72.6802C139.07 72.6802 139.2 80.5802 139.07 85.9302" stroke="#1A1A1A" stroke-width="0.2" stroke-linecap="round" stroke-linejoin="round"/>
<path d="M140.28 72.6802C140.28 72.6802 139.7 80.6702 140.28 85.9302" stroke="#1A1A1A" stroke-width="0.2" stroke-linecap="round" stroke-linejoin="round"/>
<path d="M141.5 72.6802C141.5 72.6802 141.85 75.8302 141.5 85.9302" stroke="#1A1A1A" stroke-width="0.2" stroke-linecap="round" stroke-linejoin="round"/>
<path d="M142.71 72.7202C142.71 72.7202 142 77.2102 142.71 85.9702" stroke="#1A1A1A" stroke-width="0.2" stroke-linecap="round" stroke-linejoin="round"/>
<path d="M143.931 72.7202C143.931 72.7202 144.631 80.5502 143.931 85.9702" stroke="#1A1A1A" stroke-width="0.2" stroke-linecap="round" stroke-linejoin="round"/>
<path d="M145.15 72.7202C145.15 72.7202 144.25 81.8902 145.15 85.9702" stroke="#1A1A1A" stroke-width="0.2" stroke-linecap="round" stroke-linejoin="round"/>
<path d="M146.62 72.7202C146.62 72.7202 145.27 81.6102 146.37 85.9702" stroke="#1A1A1A" stroke-width="0.2" stroke-linecap="round" stroke-linejoin="round"/>
<path d="M147.58 72.78C147.58 72.78 148.19 80.91 147.58 86.03" stroke="#1A1A1A" stroke-width="0.2" stroke-linecap="round" stroke-linejoin="round"/>
<path d="M148.4 72.78C148.4 72.78 149.43 80.57 148.8 86.03" stroke="#1A1A1A" stroke-width="0.2" stroke-linecap="round" stroke-linejoin="round"/>
<path d="M150.011 72.78C150.011 72.78 149.521 80.75 150.011 86.03" stroke="#1A1A1A" stroke-width="0.2" stroke-linecap="round" stroke-linejoin="round"/>
<path d="M150.73 72.78C150.73 72.78 151.35 80.67 151.22 86.08" stroke="#1A1A1A" stroke-width="0.2" stroke-linecap="round" stroke-linejoin="round"/>
<path d="M127.73 71.9401L149.79 71.8901V72.6801L127.73 72.5901V71.9401Z" fill="#C5C3AE"/>
<path d="M127.73 71.9401L149.79 71.8901V72.6801L127.73 72.5901V71.9401Z" stroke="#1A1A1A" stroke-width="0.2" stroke-linecap="round" stroke-linejoin="round"/>
<path d="M44.5703 87.9101V119.43C75.2303 107.3 130.16 89.0301 130.16 89.0301V71.8901C130.16 71.8901 80.1703 80.3101 44.5703 87.9101V87.9101Z" fill="#E1DFCD"/>
<path d="M127.74 71.8901C96.7101 74.6801 41.3701 84.9601 41.3701 84.9601L44.5701 87.7601C80.1601 80.1601 130.16 71.8901 130.16 71.8901H127.75H127.74Z" fill="#E1DFCD"/>
<path d="M44.5703 118.7C75.2303 106.57 130.16 88.3001 130.16 88.3001V71.8901C130.16 71.8901 80.1703 80.1601 44.5703 87.7601" stroke="#1A1A1A" stroke-width="0.2" stroke-linecap="round" stroke-linejoin="round"/>
<path d="M44.5709 87.7701C80.1609 80.1701 130.161 71.9001 130.161 71.9001H127.751C96.7209 74.6901 41.3809 84.9701 41.3809 84.9701" stroke="#1A1A1A" stroke-width="0.2" stroke-linecap="round" stroke-linejoin="round"/>
<path d="M140.481 66.9799C140.641 66.9099 141.211 66.6099 141.691 66.2299C142.271 65.7599 142.721 65.1699 142.101 64.6999C141.121 63.9599 138.571 65.1899 137.341 64.8399C136.981 64.7399 136.491 64.4199 135.981 63.9799C134.711 62.9199 133.211 61.2699 133.101 60.3599L132.531 60.6199L132.221 60.7999L132.131 60.8499L131.921 61.0399C131.921 61.0399 131.901 61.2499 132.001 61.4599C132.141 61.7599 132.231 62.1999 132.531 62.7499C133.401 64.3699 134.891 66.6499 136.531 67.2099C136.581 67.2299 136.631 67.2499 136.681 67.2599C138.801 67.8399 140.121 67.1199 140.491 66.9599L140.481 66.9799Z" fill="#E3E2E1"/>
<path d="M140.561 67.0099C140.721 66.9399 141.291 66.6399 141.771 66.2599C142.351 65.7899 142.801 65.1999 142.181 64.7299C141.201 63.9899 138.651 65.2199 137.421 64.8699C137.061 64.7699 136.571 64.4499 136.061 64.0099C134.791 62.9499 133.211 61.2699 133.091 60.3699L132.611 60.6599L132.301 60.8399L132.211 60.8899L131.921 61.0499C131.921 61.0499 132.051 61.6399 132.151 61.8499C132.291 62.1499 132.311 62.2399 132.611 62.7899C133.481 64.4099 134.971 66.6899 136.611 67.2499C136.661 67.2699 136.711 67.2899 136.761 67.2999C138.881 67.8799 140.201 67.1599 140.571 66.9999L140.561 67.0099Z" stroke="#1A1A1A" stroke-width="0.2" stroke-linecap="round" stroke-linejoin="round"/>
<path d="M133.081 60.37L131.911 61.05C131.911 61.05 130.971 60.31 131.051 59.41C131.131 58.51 132.531 57.86 132.641 58.35C132.751 58.84 133.001 59.77 133.071 60.37H133.081Z" fill="white" stroke="#1A1A1A" stroke-width="0.2" stroke-linecap="round" stroke-linejoin="round"/>
<g style="mix-blend-mode:multiply" opacity="0.3">
<path d="M148.781 94.8499C147.911 95.2799 147.481 95.1399 146.061 95.3399C144.641 95.5399 135.271 95.4699 135.201 94.6399C135.091 93.4299 144.371 94.0799 145.651 94.1499C147.891 94.2599 150.451 94.0099 148.791 94.8499H148.781Z" fill="#899284"/>
</g>
<path d="M140.101 60.7099C140.101 60.7099 139.78 60.2899 139.86 59.7299C139.86 59.7299 140.23 57.6899 143.15 57.9799C144.99 58.1599 145.24 60.4699 145.31 61.2799C145.48 63.2099 147.541 63.2999 148.241 64.1599C148.941 65.0199 148.57 66.2599 147.55 66.5199C145.52 67.0499 144.09 67.1199 142.97 65.6399C142.53 65.0699 141.47 65.8499 140.44 65.0699C139.41 64.2899 140.43 62.2999 140.55 61.9699C140.67 61.6399 140.101 60.7099 140.101 60.7099" fill="#7B6662"/>
<path d="M143.69 93.37L143.56 92.24L141.98 92.41L141.71 93.38C140.84 93.21 138.48 94.52 138.48 94.52H140.51H143.82L143.69 93.37Z" fill="#7B6662"/>
<path d="M143.61 93.37L143.48 92.24L141.9 92.41L141.63 93.38C140.76 93.21 138.4 94.52 138.4 94.52H140.43H143.74L143.61 93.37Z" stroke="#1A1A1A" stroke-width="0.2" stroke-linecap="round" stroke-linejoin="round"/>
<path d="M145.82 93.5299L145.69 92.3999L144.11 92.5699L143.84 93.5399C142.97 93.3699 140.61 94.6799 140.61 94.6799H142.64H145.95L145.82 93.5299Z" fill="#7B6662"/>
<path d="M145.74 93.5299L145.61 92.3999L144.03 92.5699L143.76 93.5399C142.89 93.3699 140.53 94.6799 140.53 94.6799H142.56H145.87L145.74 93.5299Z" stroke="#1A1A1A" stroke-width="0.2" stroke-linecap="round" stroke-linejoin="round"/>
<path d="M143.821 92.56C143.821 92.56 142.941 80.75 144.021 75.35C143.671 75.65 143.161 75.77 142.601 75.76C141.931 75.75 141.181 75.56 140.521 75.29C140.411 76.1 140.211 78 140.271 80.72C140.331 83.66 140.761 88.26 141.851 92.76L143.831 92.56H143.821Z" fill="#BFCCE1"/>
<path d="M143.731 92.5C143.731 92.5 142.851 80.69 143.931 75.29C143.581 75.59 143.071 75.71 142.511 75.7C141.841 75.69 141.091 75.5 140.431 75.23C140.321 76.04 140.121 77.94 140.181 80.66C140.241 83.6 140.671 88.2 141.761 92.7L143.741 92.5H143.731Z" stroke="#1A1A1A" stroke-width="0.2" stroke-linecap="round" stroke-linejoin="round"/>
<path d="M145.92 92.56C145.92 92.56 145.04 80.75 146.12 75.35C145.77 75.65 145.26 75.77 144.7 75.76C144.03 75.75 143.28 75.56 142.62 75.29C142.51 76.1 142.31 78 142.37 80.72C142.43 83.66 142.86 88.26 143.95 92.76L145.93 92.56H145.92Z" fill="#BFCCE1"/>
<path d="M145.831 92.5C145.831 92.5 144.951 80.69 146.031 75.29C145.681 75.59 145.171 75.71 144.611 75.7C143.941 75.69 143.191 75.5 142.531 75.23C142.421 76.04 142.221 77.94 142.281 80.66C142.341 83.6 142.771 88.2 143.861 92.7L145.841 92.5H145.831Z" stroke="#1A1A1A" stroke-width="0.2" stroke-linecap="round" stroke-linejoin="round"/>
<path d="M144.031 63.83C144.971 64.22 145.561 64.32 146.141 65.64C147.111 67.58 146.951 71.4 146.951 71.4C146.921 72.5 146.821 73.71 146.641 75.06C146.601 75.33 146.491 75.56 146.321 75.75C145.991 76.13 145.441 76.36 144.791 76.49C144.031 76.64 143.141 76.63 142.321 76.53C141.641 76.44 141.021 76.28 140.571 76.07C139.871 75.72 139.431 75.01 139.431 75.01C139.201 74.53 139.141 73.94 139.121 73.18C139.101 72.64 139.101 72.01 139.061 71.26C138.701 65 140.771 64.29 140.771 64.29C141.101 64.15 141.401 64.04 141.691 63.94C141.691 63.94 143.221 63.61 144.031 63.83V63.83Z" fill="#BCB5B1"/>
<path d="M144.031 63.83C144.971 64.22 145.561 64.32 146.141 65.64C147.111 67.58 146.951 71.4 146.951 71.4C146.921 72.5 146.821 73.71 146.641 75.06C146.601 75.33 146.491 75.56 146.321 75.75C145.991 76.13 145.441 76.36 144.791 76.49C144.031 76.64 143.141 76.63 142.321 76.53C141.641 76.44 141.021 76.28 140.571 76.07C139.871 75.72 139.431 75.01 139.431 75.01C139.201 74.53 139.141 73.94 139.121 73.18C139.101 72.64 139.101 72.01 139.061 71.26C138.701 65 140.771 64.29 140.771 64.29C141.101 64.15 141.401 64.04 141.691 63.94C141.691 63.94 143.221 63.61 144.031 63.83V63.83Z" stroke="#1A1A1A" stroke-width="0.2" stroke-linecap="round" stroke-linejoin="round"/>
<path d="M143.53 63.9399V62.3999C143.34 62.7099 142.85 63.3299 141.9 63.6099C141.83 63.6099 141.77 63.6099 141.7 63.5799C141.7 63.8399 141.7 64.1699 141.7 64.3499C141.7 64.3899 141.7 64.4199 141.7 64.4399C141.32 64.7499 141.82 65.0799 142.31 65.0499C143.6 65.0499 143.55 63.9399 143.55 63.9299L143.53 63.9399Z" fill="#FBFBFA" stroke="#1A1A1A" stroke-width="0.2" stroke-linecap="round" stroke-linejoin="round"/>
<path d="M140.281 60.0399C140.291 59.9699 140.311 59.8899 140.341 59.8099C140.351 59.7699 140.371 59.7399 140.381 59.6999C140.381 59.6999 140.381 59.6999 140.381 59.6899C140.391 59.6599 140.411 59.6199 140.431 59.5899C140.431 59.5899 140.431 59.5799 140.431 59.5699C140.451 59.5399 140.471 59.5099 140.491 59.4799C140.491 59.4799 140.491 59.4699 140.501 59.4599C140.521 59.4299 140.541 59.3999 140.571 59.3699C140.571 59.3699 140.571 59.3699 140.581 59.3599C140.641 59.2899 140.711 59.2299 140.781 59.1799C140.781 59.1799 140.881 59.6999 141.251 60.0399C141.541 60.2999 142.001 60.4499 142.701 60.1499C142.701 60.6499 142.811 60.8599 142.931 60.9499C143.041 61.0399 143.161 60.9999 143.161 60.9999C143.161 60.5599 143.561 60.6099 143.561 60.6099C143.561 60.6099 143.561 60.6099 143.581 60.6099C143.591 60.6099 143.621 60.6099 143.641 60.6299C143.671 60.6299 143.701 60.6499 143.741 60.6699C143.781 60.6899 143.811 60.7099 143.851 60.7499C143.881 60.7799 143.901 60.8099 143.921 60.8399C143.941 60.8799 143.951 60.9199 143.961 60.9699C143.971 61.0399 143.971 61.1299 143.941 61.2399C143.941 61.2399 143.941 61.2399 143.941 61.2499C143.931 61.2899 143.921 61.3299 143.901 61.3599C143.901 61.3699 143.901 61.3799 143.891 61.3999C143.881 61.4299 143.861 61.4599 143.851 61.4799C143.851 61.4799 143.851 61.4899 143.841 61.4999C143.821 61.5199 143.811 61.5399 143.791 61.5599C143.791 61.5599 143.781 61.5699 143.771 61.5799C143.751 61.5999 143.741 61.6099 143.721 61.6199C143.721 61.6199 143.701 61.6199 143.701 61.6299C143.691 61.6299 143.681 61.6399 143.671 61.6499H143.651C143.651 61.6499 143.631 61.6499 143.621 61.6499H143.601H143.581H143.561C143.561 61.6499 143.551 61.6499 143.541 61.6499C143.531 61.6499 143.511 61.6499 143.501 61.6499C143.501 61.6499 143.501 61.6499 143.491 61.6499C143.491 61.6499 143.481 61.6499 143.471 61.6499C143.471 61.6499 143.461 61.6499 143.451 61.6499C143.441 61.6499 143.431 61.6499 143.431 61.6499C143.431 61.6499 143.331 62.0399 143.541 62.3899C143.351 62.6999 142.861 63.3199 141.911 63.5999C141.841 63.5999 141.781 63.5999 141.711 63.5699C141.131 63.4399 140.511 62.7799 140.321 61.9599C140.211 61.4999 140.221 60.5599 140.301 60.0199L140.281 60.0399Z" fill="#FBFBFA" stroke="#1A1A1A" stroke-width="0.2" stroke-linecap="round" stroke-linejoin="round"/>
<path d="M140.671 60.98C140.731 60.98 140.781 60.9308 140.781 60.87C140.781 60.8093 140.731 60.76 140.671 60.76C140.61 60.76 140.561 60.8093 140.561 60.87C140.561 60.9308 140.61 60.98 140.671 60.98Z" fill="#1A1A1A"/>
<path d="M142.211 60.98C142.271 60.98 142.321 60.9308 142.321 60.87C142.321 60.8093 142.271 60.76 142.211 60.76C142.15 60.76 142.101 60.8093 142.101 60.87C142.101 60.9308 142.15 60.98 142.211 60.98Z" fill="#1A1A1A"/>
<path d="M141.22 60.9299C141.22 60.9299 141.51 61.4099 141.07 61.4499C141.07 61.4499 141 61.8199 141.55 61.7299" stroke="#1A1A1A" stroke-width="0.2" stroke-linecap="round" stroke-linejoin="round"/>
<path d="M141.051 62.37C141.051 62.37 141.651 62.59 142.041 62.22" stroke="#1A1A1A" stroke-width="0.2" stroke-linecap="round" stroke-linejoin="round"/>
<path d="M143.79 62.69C143.26 62.32 143.42 61.67 143.42 61.67C143.42 61.67 143.82 61.8 143.97 61.24C144.12 60.68 143.57 60.61 143.57 60.61C143.57 60.61 143.17 60.57 143.17 61C143.17 61 142.71 61.15 142.71 60.15C141.1 60.84 140.79 59.19 140.79 59.19C140.18 59.58 140.23 60.55 140.23 60.55C140.23 60.55 139.91 60.13 139.99 59.57C139.99 59.57 140.36 57.53 143.28 57.82C145.12 58 145.37 60.31 145.44 61.12C145.61 63.05 147.67 63.14 148.37 64C149.07 64.86 148.7 66.1 147.68 66.36C147.68 66.36 147.41 66.4 146.98 66.36" stroke="#1A1A1A" stroke-width="0.2" stroke-linecap="round" stroke-linejoin="round"/>
<path d="M140.891 58.98C140.891 58.98 141.361 58.14 142.151 58" stroke="#1A1A1A" stroke-width="0.2" stroke-linecap="round" stroke-linejoin="round"/>
<path d="M144.081 71.0199L144.241 72.3599C144.241 72.3599 143.181 72.9199 142.391 72.4799C141.601 72.0399 141.571 70.4999 142.051 70.5999C142.531 70.6999 143.501 70.8399 144.081 71.0099V71.0199Z" fill="white" stroke="#1A1A1A" stroke-width="0.2" stroke-linecap="round" stroke-linejoin="round"/>
<path d="M147.531 65.95C147.381 65.79 146.871 65.26 146.291 64.79C145.581 64.21 144.751 63.83 144.391 64.69C143.821 66.05 145.871 67.57 146.661 68.9C146.931 69.36 146.771 69.57 146.221 69.96C145.411 70.54 144.191 70.7 143.681 70.8L143.931 72.54C143.931 72.54 144.311 72.51 144.491 72.47C144.871 72.38 146.211 72.01 146.891 71.72C148.071 71.23 149.441 70.74 149.511 69.39C149.511 69.33 149.521 69.26 149.521 69.2C149.521 67.81 147.811 66.24 147.531 65.95V65.95Z" fill="#E3E2E1"/>
<path d="M147.371 65.95C147.221 65.79 146.711 65.26 146.131 64.79C145.421 64.21 144.591 63.83 144.231 64.69C143.661 66.05 145.711 67.57 146.501 68.9C146.771 69.36 146.611 69.57 146.061 69.96C145.251 70.54 144.161 70.69 143.641 70.79L143.891 72.53C143.891 72.53 144.141 72.51 144.321 72.47C144.701 72.38 146.041 72.01 146.721 71.72C147.901 71.23 149.271 70.74 149.341 69.39C149.341 69.33 149.351 69.26 149.351 69.2C149.351 67.81 147.641 66.24 147.361 65.95H147.371Z" stroke="#1A1A1A" stroke-width="0.2" stroke-linecap="round" stroke-linejoin="round"/>
<path d="M130.28 87.77L152.22 91.44C152.22 91.44 124.93 104.21 118.97 107.9C113.38 111.4 105.32 116.98 105.65 125.71C106.07 136.99 44.5703 119.44 44.5703 119.44C44.5703 119.44 61.0303 112.68 130.28 87.77V87.77Z" fill="#D2CFC0"/>
<path d="M52.8703 118.67C54.991 118.67 56.7103 116.951 56.7103 114.83C56.7103 112.709 54.991 110.99 52.8703 110.99C50.7495 110.99 49.0303 112.709 49.0303 114.83C49.0303 116.951 50.7495 118.67 52.8703 118.67Z" fill="#F0EBD2"/>
<path opacity="0.3" d="M52.5907 118.91C55.3024 118.91 57.5007 116.712 57.5007 114C57.5007 111.288 55.3024 109.09 52.5907 109.09C49.8789 109.09 47.6807 111.288 47.6807 114C47.6807 116.712 49.8789 118.91 52.5907 118.91Z" fill="#F0EBD2"/>
<path d="M52.7511 118.47C54.8719 118.47 56.5911 116.751 56.5911 114.63C56.5911 112.509 54.8719 110.79 52.7511 110.79C50.6304 110.79 48.9111 112.509 48.9111 114.63C48.9111 116.751 50.6304 118.47 52.7511 118.47Z" stroke="#1A1A1A" stroke-width="0.2" stroke-linecap="round" stroke-linejoin="round"/>
<path d="M105.911 62.3101H105.031C104.781 62.3101 104.581 62.6301 104.581 63.0201C104.581 63.4101 104.781 63.7301 105.031 63.7301H105.911C106.161 63.7301 106.361 63.4101 106.361 63.0201C106.361 62.6301 106.161 62.3101 105.911 62.3101Z" fill="#848485" stroke="#1A1A1A" stroke-width="0.2" stroke-linecap="round" stroke-linejoin="round"/>
<path d="M103.401 64.25H105.621V61.94H103.401V64.25Z" fill="#848485" stroke="#1A1A1A" stroke-width="0.2" stroke-linecap="round" stroke-linejoin="round"/>
<path d="M105.071 64.25H105.621V61.94H105.071V64.25Z" fill="#848485" stroke="#1A1A1A" stroke-width="0.2" stroke-linecap="round" stroke-linejoin="round"/>
<path d="M103.691 63.9302H104.741V62.5702H103.691V63.9302Z" fill="#DBDADA" stroke="#1A1A1A" stroke-width="0.2" stroke-linecap="round" stroke-linejoin="round"/>
<path d="M105.241 61.5701H104.821V61.9401H105.241V61.5701Z" fill="#848485" stroke="#1A1A1A" stroke-width="0.2" stroke-linecap="round" stroke-linejoin="round"/>
<g style="mix-blend-mode:multiply" opacity="0.3">
<path d="M108.151 105.62C106.921 106.23 106.311 106.03 104.301 106.32C102.291 106.61 89.041 106.5 88.931 105.33C88.781 103.62 101.911 104.54 103.711 104.63C106.871 104.79 110.501 104.44 108.151 105.62Z" fill="#899284"/>
</g>
<path d="M98.9507 104.88C100.661 105.08 102.471 105.69 100.611 105.86C98.7507 106.03 93.2807 105.04 92.2607 104.48L92.4007 101.23H95.0007C95.0007 101.23 97.2407 104.68 98.9507 104.88V104.88Z" fill="#C4B19C"/>
<path d="M98.9507 104.88C100.661 105.08 102.471 105.69 100.611 105.86C98.7507 106.03 93.2807 105.04 92.2607 104.48L92.4007 101.23H95.0007C95.0007 101.23 97.2407 104.68 98.9507 104.88V104.88Z" fill="#C4B19C"/>
<path d="M98.9507 104.88C100.661 105.08 102.471 105.69 100.611 105.86C98.7507 106.03 93.2807 105.04 92.2607 104.48L92.4007 101.23H95.0007C95.0007 101.23 97.2407 104.68 98.9507 104.88V104.88Z" fill="#C4B19C"/>
<path d="M98.9507 104.88C100.661 105.08 102.471 105.69 100.611 105.86C98.7507 106.03 93.2807 105.04 92.2607 104.48L92.4007 101.23H95.0007C95.0007 101.23 97.2407 104.68 98.9507 104.88V104.88Z" fill="#C4B19C"/>
<path d="M99.1207 104.74C100.831 104.94 102.641 105.55 100.781 105.72C98.9207 105.89 93.4507 104.9 92.4307 104.34L92.5707 101.09H95.1707C95.1707 101.09 97.4107 104.54 99.1207 104.74V104.74Z" stroke="#1A1A1A" stroke-width="0.2" stroke-linecap="round" stroke-linejoin="round"/>
<path d="M99.1207 104.74C100.831 104.94 102.641 105.55 100.781 105.72C98.9207 105.89 93.4507 104.9 92.4307 104.34L92.5707 101.09H95.1707C95.1707 101.09 97.4107 104.54 99.1207 104.74V104.74Z" stroke="#1A1A1A" stroke-width="0.2" stroke-linecap="round" stroke-linejoin="round"/>
<path d="M99.1207 104.74C100.831 104.94 102.641 105.55 100.781 105.72C98.9207 105.89 93.4507 104.9 92.4307 104.34L92.5707 101.09H95.1707C95.1707 101.09 97.4107 104.54 99.1207 104.74V104.74Z" stroke="#1A1A1A" stroke-width="0.2" stroke-linecap="round" stroke-linejoin="round"/>
<path d="M99.1207 104.74C100.831 104.94 102.641 105.55 100.781 105.72C98.9207 105.89 93.4507 104.9 92.4307 104.34L92.5707 101.09H95.1707C95.1707 101.09 97.4107 104.54 99.1207 104.74V104.74Z" stroke="#1A1A1A" stroke-width="0.2" stroke-linecap="round" stroke-linejoin="round"/>
<path d="M92.111 101.29C92.111 101.29 93.551 84.5901 91.791 76.9401C92.361 77.3601 93.201 77.5301 94.131 77.5201C95.231 77.5001 96.461 77.2401 97.561 76.8501C97.741 77.9901 98.061 80.6801 97.971 84.5301C97.871 88.6901 97.161 95.1901 95.371 101.57L92.121 101.29H92.111Z" fill="#BFCCE1"/>
<path d="M92.2507 101.2C92.2507 101.2 93.6907 84.5 91.9307 76.85C92.5007 77.27 93.3407 77.44 94.2707 77.43C95.3707 77.41 96.6007 77.15 97.7007 76.76C97.8807 77.9 98.2007 80.59 98.1107 84.44C98.0107 88.6 97.3007 95.1 95.5107 101.48L92.2607 101.2H92.2507Z" stroke="#1A1A1A" stroke-width="0.2" stroke-linecap="round" stroke-linejoin="round"/>
<path d="M102.401 104.88C104.111 105.08 105.921 105.69 104.061 105.86C102.201 106.03 96.7309 105.04 95.7109 104.48L95.8509 101.23H98.4509C98.4509 101.23 100.691 104.68 102.401 104.88V104.88Z" fill="#C4B19C"/>
<path d="M102.401 104.88C104.111 105.08 105.921 105.69 104.061 105.86C102.201 106.03 96.7309 105.04 95.7109 104.48L95.8509 101.23H98.4509C98.4509 101.23 100.691 104.68 102.401 104.88V104.88Z" fill="#C4B19C"/>
<path d="M102.401 104.88C104.111 105.08 105.921 105.69 104.061 105.86C102.201 106.03 96.7309 105.04 95.7109 104.48L95.8509 101.23H98.4509C98.4509 101.23 100.691 104.68 102.401 104.88V104.88Z" fill="#C4B19C"/>
<path d="M102.401 104.88C104.111 105.08 105.921 105.69 104.061 105.86C102.201 106.03 96.7309 105.04 95.7109 104.48L95.8509 101.23H98.4509C98.4509 101.23 100.691 104.68 102.401 104.88V104.88Z" fill="#C4B19C"/>
<path d="M102.571 104.74C104.281 104.94 106.091 105.55 104.231 105.72C102.371 105.89 96.9009 104.9 95.8809 104.34L96.0209 101.09H98.6209C98.6209 101.09 100.861 104.54 102.571 104.74V104.74Z" stroke="#1A1A1A" stroke-width="0.2" stroke-linecap="round" stroke-linejoin="round"/>
<path d="M102.571 104.74C104.281 104.94 106.091 105.55 104.231 105.72C102.371 105.89 96.9009 104.9 95.8809 104.34L96.0209 101.09H98.6209C98.6209 101.09 100.861 104.54 102.571 104.74V104.74Z" stroke="#1A1A1A" stroke-width="0.2" stroke-linecap="round" stroke-linejoin="round"/>
<path d="M102.571 104.74C104.281 104.94 106.091 105.55 104.231 105.72C102.371 105.89 96.9009 104.9 95.8809 104.34L96.0209 101.09H98.6209C98.6209 101.09 100.861 104.54 102.571 104.74V104.74Z" stroke="#1A1A1A" stroke-width="0.2" stroke-linecap="round" stroke-linejoin="round"/>
<path d="M102.571 104.74C104.281 104.94 106.091 105.55 104.231 105.72C102.371 105.89 96.9009 104.9 95.8809 104.34L96.0209 101.09H98.6209C98.6209 101.09 100.861 104.54 102.571 104.74V104.74Z" stroke="#1A1A1A" stroke-width="0.2" stroke-linecap="round" stroke-linejoin="round"/>
<path d="M95.5612 101.29C95.5612 101.29 97.0012 84.5901 95.2412 76.9401C95.8112 77.3601 96.6512 77.5301 97.5812 77.5201C98.6812 77.5001 99.9112 77.2401 101.011 76.8501C101.191 77.9901 101.511 80.6801 101.421 84.5301C101.321 88.6901 100.611 95.1901 98.8212 101.57L95.5712 101.29H95.5612Z" fill="#BFCCE1"/>
<path d="M95.7009 101.2C95.7009 101.2 97.1409 84.5 95.3809 76.85C95.9509 77.27 96.7909 77.44 97.7209 77.43C98.8209 77.41 100.051 77.15 101.151 76.76C101.331 77.9 101.651 80.59 101.561 84.44C101.461 88.6 100.751 95.1 98.9609 101.48L95.7109 101.2H95.7009Z" stroke="#1A1A1A" stroke-width="0.2" stroke-linecap="round" stroke-linejoin="round"/>
<path d="M95.8412 63.14C96.5912 63.27 97.0712 63.61 97.5812 63.5C97.7512 63.36 97.8212 63.15 97.8212 62.86C97.8212 62.68 97.8112 62.44 97.8012 62.22C97.8012 61.95 97.8012 61.69 97.8012 61.55C96.7012 61.55 95.5312 60.97 94.7012 60V61.92C94.7012 61.92 94.7012 62.08 94.7212 62.28C94.7412 62.42 94.7212 62.58 94.8912 62.78C95.0212 62.95 95.4512 63.09 95.8312 63.15L95.8412 63.14Z" fill="white" stroke="#1A1A1A" stroke-width="0.2" stroke-linecap="round" stroke-linejoin="round"/>
<path d="M98.401 63.3201C98.401 63.3201 99.571 63.4501 99.751 70.4301C99.841 73.9501 101.461 74.7101 101.611 78.3801C101.721 81.0801 92.421 83.2701 90.611 79.3801C88.941 72.2201 91.571 63.9901 93.971 62.5001C95.041 61.8301 97.071 62.8701 98.411 63.3101L98.401 63.3201Z" fill="#E3E2E1"/>
<path d="M98.4015 63.3201C98.4015 63.3201 99.5715 63.4501 99.7515 70.4301C99.8415 73.9501 101.551 74.7701 101.891 78.4301C102.131 81.0101 92.4215 83.2701 90.6115 79.3801C89.1815 70.4801 91.5715 63.9901 93.9715 62.5001C95.0415 61.8301 97.0715 62.8701 98.4115 63.3101L98.4015 63.3201Z" stroke="#1A1A1A" stroke-width="0.2" stroke-linecap="round" stroke-linejoin="round"/>
<path d="M93.9307 61.1C94.0907 61.1 94.5107 61.26 95.0307 61.57C96.0407 62.16 96.8207 62.14 96.8207 62.14C97.7307 61.82 98.0907 60.97 98.7807 59.82C98.7807 59.82 98.6707 59.36 98.5607 59.04C98.4507 58.71 98.1407 57.96 98.5307 57.57C98.9207 57.18 99.4207 57.61 99.3407 58.22C99.2607 58.83 99.3607 58.7 99.4007 58.71C99.4407 58.72 100.111 58.79 100.111 58.79C100.111 58.79 100.261 57.96 100.141 56.81C100.141 56.81 101.551 56.45 100.821 54.88C101.361 53.98 100.411 53.53 99.9407 53.52C99.9407 53.52 99.2807 53.5 99.5207 53.67C99.7607 53.84 99.8007 54.07 99.7007 54.11C99.6007 54.14 91.1407 51.93 92.8007 56.87C93.7407 59.66 93.9407 60.93 93.9307 61.12" fill="#C4B19C"/>
<path d="M99.3713 53.9999C99.2713 54.0299 91.4313 51.6199 92.7413 56.6599C93.6313 60.1099 93.7613 60.9399 93.7513 61.1299" stroke="#1A1A1A" stroke-width="0.2" stroke-linecap="round" stroke-linejoin="round"/>
<path d="M93.751 61.13C93.911 61.13 94.521 61.33 95.041 61.63C96.051 62.22 96.831 62.2 96.831 62.2C97.741 61.88 98.101 61.03 98.791 59.88C98.791 59.88 98.681 59.42 98.571 59.1C98.461 58.77 98.151 58.02 98.541 57.63C98.931 57.24 99.431 57.67 99.351 58.28C99.271 58.89 99.371 58.76 99.411 58.77C99.451 58.78 100.121 58.85 100.121 58.85C100.121 58.85 100.271 58.02 100.151 56.87C100.151 56.87 101.421 56.38 100.821 55.06C101.361 54.37 100.731 53.62 100.421 53.52C100.421 53.52 99.721 53.13 99.251 53.42" stroke="#1A1A1A" stroke-width="0.2" stroke-linecap="round" stroke-linejoin="round"/>
<path d="M100.111 58.77C100.111 58.77 99.4313 58.69 99.3913 58.68C99.3713 58.68 99.3513 58.61 99.3713 58.2C99.4113 57.55 98.9113 57.18 98.5213 57.58C98.1313 57.98 98.4513 58.72 98.5513 59.05C98.6613 59.38 98.7713 59.83 98.7713 59.83C98.1413 60.9 97.9213 61.37 97.4213 61.8C97.2513 61.95 97.0713 62.02 96.8213 62.12C97.0413 62.17 97.1713 62.24 97.3913 62.24C97.3913 62.24 97.4013 62.24 97.4113 62.24C99.1913 62.24 99.6813 61.03 100.031 59.51C100.101 59.19 100.131 59.04 100.141 58.76H100.111V58.77Z" fill="white" stroke="#1A1A1A" stroke-width="0.2" stroke-linecap="round" stroke-linejoin="round"/>
<path d="M106.601 64.89C107.331 64.13 107.371 63.57 107.371 62.79C107.371 62.22 107.031 61.94 106.401 61.81C106.331 61.8 106.271 61.78 106.201 61.78C106.151 61.78 106.111 61.77 106.061 61.77C105.911 61.77 105.781 61.77 105.681 61.8C105.531 61.84 105.441 61.93 105.461 62.07C105.461 62.11 105.461 62.15 105.461 62.2C105.461 62.39 105.401 62.65 105.321 62.91C105.251 63.13 105.171 63.35 105.081 63.57C105.011 63.74 104.941 63.9 104.881 64.04C104.761 64.31 104.551 64.43 104.551 64.43L105.491 65.49C105.491 65.49 106.251 65.24 106.591 64.9L106.601 64.89Z" fill="white" stroke="#1A1A1A" stroke-width="0.2" stroke-linecap="round" stroke-linejoin="round"/>
<path d="M100.921 64.9001C100.131 63.4701 99.0312 63.3901 98.1912 63.5401C98.1912 63.5501 98.1712 63.5601 98.1712 63.5801C98.0912 63.7101 97.8012 64.2001 97.5712 64.9301C97.1412 66.2701 96.8812 68.44 98.3212 70.85C98.8812 71.78 99.7112 72.2801 100.661 72.4801C101.081 72.5701 102.191 72.5 102.611 72.34C106.731 70.79 105.831 66.8701 105.831 66.8701L105.721 66.17L104.351 64.6201C103.221 64.4101 101.791 68.6501 101.791 68.6501C101.981 67.1401 101.791 66.4601 100.921 64.8901V64.9001Z" fill="#BCB5B1"/>
<path d="M101.141 64.7001C100.351 63.2701 99.2509 63.1901 98.4109 63.3401C98.4109 63.3501 98.3909 63.3601 98.3909 63.3801C98.3109 63.5101 98.0209 64.0001 97.7909 64.7301C97.3609 66.0701 97.1009 68.2401 98.5409 70.6501C99.1009 71.5801 99.9309 72.0801 100.881 72.2801C101.301 72.3701 102.411 72.3001 102.831 72.1401C106.951 70.5901 106.051 66.6701 106.051 66.6701L105.941 65.9701L104.571 64.4201C103.401 64.1001 102.011 68.4501 102.011 68.4501C102.201 66.9401 102.011 66.2601 101.141 64.6901V64.7001Z" stroke="#1A1A1A" stroke-width="0.2" stroke-linecap="round" stroke-linejoin="round"/>
<path d="M101.821 68.5901C101.821 68.5901 100.711 69.0001 100.781 69.8201" stroke="#1A1A1A" stroke-width="0.2" stroke-linecap="round" stroke-linejoin="round"/>
<path d="M101.981 68.7002C101.981 68.7002 101.741 69.4002 101.811 70.2102" stroke="#1A1A1A" stroke-width="0.2" stroke-linecap="round" stroke-linejoin="round"/>
<g style="mix-blend-mode:multiply" opacity="0.3">
<path d="M145.15 115.58C150.07 115.58 154.99 115.58 159.92 115.58C160.97 115.58 162.02 115.58 163.04 115.79C164.05 116 165.03 116.45 165.58 117.17C159.17 119.54 151.25 119.05 145.37 115.9" fill="#C7C6C6"/>
</g>
<g style="mix-blend-mode:multiply" opacity="0.3">
<path d="M127.851 124.44C131.251 124.44 134.661 124.44 138.061 124.44C138.781 124.44 139.521 124.44 140.221 124.59C140.921 124.74 141.601 125.05 141.981 125.54C137.541 127.18 132.071 126.84 128.001 124.66" fill="#C7C6C6"/>
</g>
<path d="M117.26 79.5201C127.75 77.3501 153.29 71.9001 153.29 71.9001H149.92L111.7 80.2501C111.7 80.2501 101.01 81.7901 100.77 94.6201C100.53 107.45 117.82 135.43 117.82 135.43L119.62 134.59C119.62 134.59 116.08 127.65 114.59 122.88C112.05 116.91 106.61 103.16 106.52 97.1201C106.4 89.2801 106.76 81.6901 117.25 79.5201H117.26Z" fill="#E1DFCD"/>
<path d="M117.28 79.5201C106.79 81.6901 106.43 89.2901 106.55 97.1201C106.64 103.16 112.18 116.85 114.72 122.82C115.48 124.6 115.97 125.7 115.97 125.7C121.76 116.04 152.73 92.7001 152.73 92.7001L153.31 71.8901C153.31 71.8901 127.77 77.3401 117.28 79.5101V79.5201Z" fill="#E1DFCD"/>
<path d="M117.28 79.5201C106.79 81.6901 106.43 89.2901 106.55 97.1201C106.64 103.16 112.18 116.85 114.72 122.82C115.48 124.6 115.97 125.7 115.97 125.7C121.76 116.04 152.73 92.7001 152.73 92.7001L153.31 71.8901C153.31 71.8901 127.77 77.3401 117.28 79.5101V79.5201Z" stroke="#1A1A1A" stroke-width="0.2" stroke-linecap="round" stroke-linejoin="round"/>
<path d="M105.301 112.67V126.97C105.301 126.97 105.971 137.14 111.711 143.83L117.831 136.69C117.831 136.69 109.811 123.34 105.301 112.67Z" fill="#C5C3AE"/>
<path d="M117.831 135.43C117.831 135.43 109.811 122.08 105.301 111.41V125.71C105.301 125.71 105.971 137.14 111.711 143.83" stroke="#1A1A1A" stroke-width="0.2" stroke-linecap="round" stroke-linejoin="round"/>
<path d="M118.57 131.8C118.57 131.8 116.29 127.54 114.6 122.88C112.06 116.91 106.62 103.16 106.53 97.1201C106.41 89.2801 106.77 81.6901 117.26 79.5201C127.75 77.3501 153.29 71.9001 153.29 71.9001H149.92L111.7 80.2501C111.7 80.2501 101.01 81.7901 100.77 94.6201C100.53 107.45 117.82 135.43 117.82 135.43" stroke="#1A1A1A" stroke-width="0.2" stroke-linecap="round" stroke-linejoin="round"/>
<g style="mix-blend-mode:multiply" opacity="0.3">
<path d="M141.08 108.48C146.25 108.48 151.43 108.48 156.6 108.48C157.7 108.48 158.81 108.48 159.88 108.71C160.94 108.93 161.97 109.4 162.55 110.16C155.81 112.66 147.48 112.13 141.3 108.83" fill="#7B948C"/>
</g>
<path d="M157.501 110.11C157.501 110.11 166.651 100.46 161.891 98.1399C161.891 98.1399 170.301 90.7699 163.541 89.6399C156.771 88.4999 157.871 93.2699 157.871 93.2699C157.871 93.2699 164.271 90.1199 161.341 85.5899C158.411 81.0599 154.301 85.5899 154.301 85.5899C154.301 85.5899 153.021 82.0499 151.471 83.4099C149.921 84.7699 151.471 86.5699 151.471 86.5699C151.471 86.5699 152.481 82.7699 149.551 84.1799C146.621 85.5899 139.961 84.7899 145.261 93.2599C150.561 101.74 148.551 94.9599 146.171 91.6599C143.791 88.3699 138.041 83.2699 137.491 90.9299C136.941 98.5899 143.701 103.92 148.091 102.77C152.481 101.62 147.851 100.57 146.081 101.49C144.311 102.41 137.671 102.92 141.791 106.63C141.791 106.63 144.931 110.1 148.951 110.09C152.971 110.08 157.501 110.09 157.501 110.09V110.11Z" fill="#AFC3A6"/>
<path d="M162.551 99.1699C162.551 99.1699 162.591 97.0999 160.951 97.0999C159.311 97.0999 153.301 99.9199 156.201 100.32C159.101 100.72 160.951 100.7 162.551 99.1699Z" fill="#C9DFCE"/>
<path d="M159.681 85.2999C159.681 85.2999 159.441 84.2999 157.901 84.9999C156.351 85.6899 151.061 89.5699 153.841 88.5399C156.621 87.5099 158.371 86.7099 159.681 85.3099V85.2999Z" fill="#C9DFCE"/>
<path d="M143.651 93.86C143.651 93.86 145.021 92.75 144.191 91.17C143.361 89.59 138.481 85.36 139.691 88.37C140.901 91.38 141.841 93.16 143.651 93.86Z" fill="#C9DFCE"/>
<path d="M158.1 109.62C158.1 109.62 167.25 99.97 162.49 97.65C162.49 97.65 170.9 90.28 164.14 89.15C157.37 88.01 158.47 92.78 158.47 92.78C158.47 92.78 164.87 89.63 161.94 85.1C159.02 80.57 154.9 85.1 154.9 85.1C154.9 85.1 153.62 81.56 152.07 82.92C150.52 84.28 152.07 86.08 152.07 86.08C152.07 86.08 153.08 82.28 150.15 83.69C147.23 85.1 140.56 84.2999 145.86 92.7699C151.16 101.25 149.15 94.47 146.77 91.17C144.39 87.87 138.64 82.78 138.09 90.44C137.54 98.1 144.3 103.43 148.69 102.28C153.08 101.13 148.45 100.08 146.68 101C144.91 101.92 138.27 102.43 142.39 106.14C142.39 106.14 145.53 109.61 149.55 109.6C153.57 109.59 158.1 109.6 158.1 109.6V109.62Z" stroke="#1A1A1A" stroke-width="0.2" stroke-linecap="round" stroke-linejoin="round"/>
<g style="mix-blend-mode:multiply" opacity="0.3">
<path d="M122.95 122.72C129.14 122.72 135.32 122.72 141.51 122.71C142.82 122.71 144.16 122.71 145.43 122.47C146.7 122.23 147.93 121.73 148.62 120.92C140.56 118.24 130.61 118.8 123.22 122.35" fill="#899284"/>
</g>
<path d="M141.17 115.43C141.17 115.43 146.62 117.55 146.62 112.94C146.62 108.34 144.33 111.68 144.33 111.68C144.33 111.68 145.42 113.91 145.31 111.97C145.2 110.02 144.55 104.01 141.77 106.11C138.99 108.21 149.35 103.98 145.7 101.49C142.05 98.9999 141.77 96.4499 138.72 99.3699C135.67 102.29 138.01 102.67 139.7 99.8099C141.39 96.9499 139.26 92.1599 135.28 97.7599C131.3 103.36 134.63 105.55 136.48 105.54C138.33 105.53 136.86 104.42 134.63 104.29C132.39 104.17 129.12 108.31 130.1 109.63C130.1 109.63 124.37 108.9 126.72 113C126.72 113 123.99 114.12 125.85 117.29C127.7 120.46 130.7 119.62 131.25 118.64C131.8 117.66 122.31 119.86 125.63 121.52H145.04C145.04 121.52 148.91 120.33 147.88 119.24C146.85 118.15 142.54 116.91 141.5 117.16C141.5 117.16 144.17 113.86 141.17 115.42V115.43Z" fill="#91A188"/>
<g style="mix-blend-mode:lighten" opacity="0.2">
<path d="M143.731 107.2C144.481 108.05 143.401 110.62 142.401 109.86C141.401 109.1 140.401 107.2 141.401 107.2C142.401 107.2 143.401 106.82 143.731 107.2Z" fill="#C9DFCE"/>
</g>
<g style="mix-blend-mode:lighten" opacity="0.2">
<path d="M135.9 114.31C137.15 115.73 135.34 120.03 133.67 118.76C132 117.49 130.33 114.31 132 114.31C133.67 114.31 135.34 113.67 135.9 114.31V114.31Z" fill="#C9DFCE"/>
</g>
<g style="mix-blend-mode:lighten" opacity="0.2">
<path d="M134.1 105.83C133.54 104.84 135.19 105.17 136.03 106.39C136.87 107.61 137.45 109.16 136.45 108.16C135.44 107.16 134.36 106.27 134.1 105.82V105.83Z" fill="#C9DFCE"/>
</g>
<g style="mix-blend-mode:lighten" opacity="0.2">
<path d="M142.36 113.95C142.11 113.47 142.99 112.83 143.38 113.35C143.77 113.87 143.99 114.78 143.5 114.53C143.01 114.28 142.47 114.17 142.36 113.95V113.95Z" fill="#C9DFCE"/>
</g>
<g style="mix-blend-mode:lighten" opacity="0.2">
<path d="M136.57 102.15C136.32 101.67 137.2 101.03 137.59 101.55C137.97 102.07 138.2 102.98 137.71 102.73C137.22 102.48 136.68 102.37 136.57 102.15V102.15Z" fill="#C9DFCE"/>
</g>
<g style="mix-blend-mode:lighten" opacity="0.2">
<path d="M141.47 100.29C140.9 99.6499 142.24 99.2699 143.06 99.9999C143.88 100.73 144.55 101.85 143.62 101.38C142.69 100.91 141.73 100.57 141.47 100.28V100.29Z" fill="#C9DFCE"/>
</g>
<path d="M141.77 115.43C141.77 115.43 147.22 117.55 147.22 112.94C147.22 108.34 144.93 111.68 144.93 111.68C144.93 111.68 146.02 113.91 145.91 111.97C145.8 110.03 145.15 104.01 142.37 106.11C139.59 108.21 149.95 103.98 146.3 101.49C142.65 98.9999 142.37 96.4499 139.32 99.3699C136.27 102.29 138.61 102.67 140.3 99.8099C141.99 96.9499 139.86 92.1599 135.88 97.7599C131.9 103.36 135.23 105.55 137.08 105.54C138.93 105.53 137.46 104.42 135.23 104.29C133 104.16 129.72 108.31 130.7 109.63C130.7 109.63 124.97 108.9 127.32 113C127.32 113 124.59 114.12 126.45 117.29C128.31 120.46 131.3 119.62 131.85 118.64C132.4 117.66 122.91 119.86 126.23 121.52H145.64C145.64 121.52 149.51 120.33 148.48 119.24C147.45 118.15 143.14 116.91 142.1 117.16C142.1 117.16 144.77 113.86 141.77 115.42V115.43Z" stroke="#1A1A1A" stroke-width="0.2" stroke-linecap="round" stroke-linejoin="round"/>
<path d="M136.101 125.47C138.404 125.47 140.271 123.603 140.271 121.3C140.271 118.997 138.404 117.13 136.101 117.13C133.798 117.13 131.931 118.997 131.931 121.3C131.931 123.603 133.798 125.47 136.101 125.47Z" fill="#F0EBD2"/>
<path opacity="0.3" d="M135.791 125.72C138.729 125.72 141.111 123.338 141.111 120.4C141.111 117.462 138.729 115.08 135.791 115.08C132.853 115.08 130.471 117.462 130.471 120.4C130.471 123.338 132.853 125.72 135.791 125.72Z" fill="#F0EBD2"/>
<path d="M135.961 125.25C138.264 125.25 140.131 123.383 140.131 121.08C140.131 118.777 138.264 116.91 135.961 116.91C133.658 116.91 131.791 118.777 131.791 121.08C131.791 123.383 133.658 125.25 135.961 125.25Z" stroke="#1A1A1A" stroke-width="0.2" stroke-linecap="round" stroke-linejoin="round"/>
<g style="mix-blend-mode:multiply" opacity="0.3">
<path d="M132.291 128.33C129.381 128.33 126.461 128.33 123.551 128.33C122.931 128.33 122.301 128.33 121.711 128.48C121.111 128.63 120.531 128.95 120.211 129.46C124.011 131.15 128.691 130.79 132.171 128.56" fill="#899284"/>
</g>
<path d="M123.051 129.43C123.051 129.43 117.901 122.91 120.581 121.34C120.581 121.34 115.841 116.36 119.651 115.59C123.461 114.82 122.841 118.05 122.841 118.05C122.841 118.05 119.241 115.92 120.881 112.86C122.521 109.8 124.841 112.86 124.841 112.86C124.841 112.86 125.561 110.47 126.431 111.39C127.301 112.31 126.431 113.53 126.431 113.53C126.431 113.53 125.861 110.96 127.511 111.91C129.161 112.86 132.911 112.32 129.931 118.05C126.951 123.78 128.081 119.2 129.421 116.97C130.761 114.74 134.001 111.3 134.311 116.48C134.621 121.66 130.811 125.26 128.341 124.48C125.871 123.7 128.481 122.99 129.471 123.62C130.461 124.25 134.201 124.59 131.891 127.09C131.891 127.09 130.121 129.44 127.861 129.43C125.601 129.42 123.051 129.43 123.051 129.43V129.43Z" fill="#AFC3A6"/>
<g style="mix-blend-mode:lighten" opacity="0.4">
<path d="M120.201 122.04C120.201 122.04 120.181 120.64 121.101 120.64C122.021 120.64 125.411 122.54 123.771 122.81C122.131 123.08 121.101 123.07 120.191 122.03L120.201 122.04Z" fill="#C9DFCE"/>
</g>
<g style="mix-blend-mode:lighten" opacity="0.4">
<path d="M121.821 112.66C121.821 112.66 121.951 111.99 122.821 112.46C123.691 112.93 126.671 115.55 125.101 114.85C123.531 114.15 122.551 113.61 121.811 112.66H121.821Z" fill="#C9DFCE"/>
</g>
<g style="mix-blend-mode:lighten" opacity="0.4">
<path d="M130.841 118.45C130.841 118.45 130.071 117.7 130.531 116.63C130.991 115.56 133.741 112.7 133.071 114.74C132.391 116.78 131.861 117.98 130.841 118.45Z" fill="#C9DFCE"/>
</g>
<path d="M122.711 129.1C122.711 129.1 117.561 122.58 120.241 121.01C120.241 121.01 115.501 116.03 119.311 115.26C123.121 114.49 122.501 117.72 122.501 117.72C122.501 117.72 118.901 115.59 120.541 112.53C122.191 109.47 124.501 112.53 124.501 112.53C124.501 112.53 125.221 110.14 126.091 111.06C126.961 111.98 126.091 113.2 126.091 113.2C126.091 113.2 125.521 110.63 127.171 111.58C128.821 112.53 132.571 111.99 129.591 117.72C126.611 123.45 127.741 118.87 129.081 116.64C130.421 114.41 133.661 110.97 133.971 116.15C134.281 121.33 130.471 124.93 128.001 124.15C125.531 123.37 128.141 122.66 129.131 123.29C130.121 123.91 133.861 124.26 131.551 126.76C131.551 126.76 129.781 129.11 127.521 129.1C125.261 129.09 122.711 129.1 122.711 129.1V129.1Z" stroke="#1A1A1A" stroke-width="0.2" stroke-linecap="round" stroke-linejoin="round"/>
<path d="M155.551 116.96C158.881 116.96 161.581 114.26 161.581 110.93C161.581 107.6 158.881 104.9 155.551 104.9C152.22 104.9 149.521 107.6 149.521 110.93C149.521 114.26 152.22 116.96 155.551 116.96Z" fill="#F0EBD2"/>
<path opacity="0.3" d="M155.11 117.32C159.363 117.32 162.81 113.873 162.81 109.62C162.81 105.367 159.363 101.92 155.11 101.92C150.858 101.92 147.41 105.367 147.41 109.62C147.41 113.873 150.858 117.32 155.11 117.32Z" fill="#F0EBD2"/>
<path d="M155.36 116.64C158.69 116.64 161.39 113.94 161.39 110.61C161.39 107.28 158.69 104.58 155.36 104.58C152.03 104.58 149.33 107.28 149.33 110.61C149.33 113.94 152.03 116.64 155.36 116.64Z" stroke="#1A1A1A" stroke-width="0.2" stroke-linecap="round" stroke-linejoin="round"/>
</g>
<defs>
<clipPath id="clip0_191_7405">
<rect width="194.16" height="143.93" fill="white"/>
</clipPath>
</defs>
</svg>
