<?xml version="1.0" encoding="utf-8"?>
<!-- Generator: Adobe Illustrator 26.4.1, SVG Export Plug-In . SVG Version: 6.00 Build 0)  -->
<svg version="1.1" id="Layer_1" xmlns="http://www.w3.org/2000/svg" xmlns:xlink="http://www.w3.org/1999/xlink" x="0px" y="0px"
	 viewBox="0 0 298.1 204.9" style="enable-background:new 0 0 298.1 204.9;" xml:space="preserve">
<style type="text/css">
	.st0{fill:#F5E9E4;}
	.st1{fill:#849181;}
	.st2{fill:#C8B7A4;}
	.st3{fill:none;stroke:#191919;stroke-width:0.1;stroke-miterlimit:10;}
	.st4{fill:#CEB08F;}
	.st5{fill:#818B7F;}
	.st6{fill:#909A8D;}
	.st7{opacity:0.2;fill:#C4E0CD;}
	.st8{fill:#E2CEB4;}
	.st9{fill:#B3BFAE;}
	.st10{opacity:0.5;fill:#818B7F;}
	.st11{fill:#CEBBA7;}
	.st12{fill:#F4E9DD;}
	.st13{fill:none;stroke:#000000;stroke-width:0.1;stroke-miterlimit:10;}
	.st14{fill:#666666;}
	.st15{fill:none;stroke:#1D1D1B;stroke-width:0.1;stroke-miterlimit:10;}
	.st16{fill:#DCDCDC;}
	.st17{fill:#666666;stroke:#1D1D1B;stroke-width:0.1;stroke-miterlimit:10;}
	.st18{fill:#DAE1D7;}
	.st19{fill:#AABFA1;}
	.st20{fill:#FFFFFF;}
	.st21{fill:#D8DFD5;}
	.st22{fill:#E0D3C2;}
	.st23{opacity:0.2;fill:#A8CCC9;}
	.st24{fill:none;stroke:#191919;stroke-width:0.1;stroke-linecap:round;stroke-linejoin:round;stroke-miterlimit:10;}
	.st25{fill:#CAC298;}
	.st26{fill:#FFFFFF;stroke:#191919;stroke-width:0.1;stroke-linecap:round;stroke-linejoin:round;stroke-miterlimit:10;}
	.st27{fill:#C4B29B;}
	.st28{fill:#C0CDE3;}
	.st29{fill:#F8F8F7;stroke:#191919;stroke-width:0.1;stroke-linecap:round;stroke-linejoin:round;stroke-miterlimit:10;}
	.st30{fill:#E0E0DF;}
	.st31{fill:#191919;}
	.st32{fill:#EEEEEE;}
	.st33{fill:#C7E1E8;}
	.st34{fill:#F4D1E0;}
	.st35{fill:#C9B199;}
	.st36{fill:#BDCEE6;}
	.st37{fill:#BCB4AF;}
	.st38{fill:#E1E1E0;}
	.st39{fill:#F9F9F8;stroke:#191919;stroke-width:0.1;stroke-linecap:round;stroke-linejoin:round;stroke-miterlimit:10;}
	.st40{fill:#E3EEED;}
	.st41{fill:#806562;}
	.st42{fill:#666666;stroke:#000000;stroke-width:0.1;stroke-linecap:round;stroke-linejoin:round;stroke-miterlimit:10;}
	.st43{fill:#705D5A;stroke:#000000;stroke-width:0.1;stroke-linecap:round;stroke-linejoin:round;stroke-miterlimit:10;}
	.st44{fill:none;stroke:#000000;stroke-width:0.1;stroke-linecap:round;stroke-linejoin:round;stroke-miterlimit:10;}
	.st45{fill:#E4D0B6;}
	.st46{fill:#E4D0B6;stroke:#000000;stroke-width:0.1;stroke-linecap:round;stroke-linejoin:round;stroke-miterlimit:10;}
	.st47{fill:#BCA78F;}
	.st48{opacity:0.4;}
	.st49{fill:#F2F2C3;}
	.st50{fill:#F9F9F8;}
	.st51{fill:#BBBAAD;}
	.st52{fill:#C8B5A0;}
	.st53{fill:#A4A3A3;stroke:#000000;stroke-width:0.1;stroke-linecap:round;stroke-linejoin:round;stroke-miterlimit:10;}
	.st54{fill:#EDB0B1;}
</style>
<path class="st0" d="M3.4,80.2C9,61.1,55.7,1.4,144.6,24.9s169.1-7.3,150.2,78.1s-39,65.4-83.2,64.1c-44.2-1.3-60.4,8.8-164.6,1.1
	C27,166.7-11.5,131.2,3.4,80.2z"/>
<path class="st1" d="M2.2,181.1c4.7,7,48.7,29.6,138.7,22.4c90-7.1,168.6,5.4,153.5-26s-36-24.4-80.2-24.7
	c-44.2-0.2-148.1,2-164.4-3.1S-10.4,162.2,2.2,181.1z"/>
<g>
	<g>
		<path class="st2" d="M72.4,163.9c3.9-4.1,3.3-35.8,3.3-35.8h3.9c0,0-0.1,33.2,1.1,34.8"/>
		<path class="st3" d="M72.2,163.9c3.9-4.1,3.3-35.8,3.3-35.8h3.9c0,0-0.1,33.2,1.1,34.8"/>
		<path class="st4" d="M75.9,145.2c0.3,1.9-1,13.8-1.7,16.9c-0.3,1.3,0.8,0.9,1.4-4.9s0.5-22.3,0.5-17.8
			C76.1,143.9,75.8,144,75.9,145.2z"/>
		<path class="st4" d="M78.9,134c0,0,0,15.5,0.1,16.3c0.1,0.9,0.3,1.5,0.2,0c0-1.5-0.1-15.7,0-16.3C79.4,133.4,78.9,134,78.9,134z"
			/>
	</g>
	<g>
		<path class="st5" d="M71.2,163.3c0.7-0.7,0.5-1,0.5-1s-0.1,0.8,0.5,1s0.8-0.8,0.8-0.8l0.2,0.8c0,0,0.6-0.8,0.6-1.4
			c0-0.5,0.4,1.5,0.5,1.4c0.1-0.1,1-1.2,0.9-1.6c-0.1-0.3-0.1,1,0.5,1s0.7-1.4,0.7-1.6s-0.1,1.4,0.3,1.6s0.8-1.6,0.8-1.6
			s0.5,1.7,0.6,1.6s0.6-1.7,0.6-1.7s0.2,1,0.5,1.1s0.7-0.6,0.7-1c0-0.3,0,1.4,0,1.4s0.3-0.4,0.4-0.6c0.1-0.1,0.4,0.8,0.4,0.8
			l0.9-1.6c0,0,0.5,1.3,0.6,1.3l0.3,1.6l-11.8,0.4L71.2,163.3z"/>
		<path class="st3" d="M71,163.3c0.7-0.7,0.5-1,0.5-1s-0.1,0.8,0.5,1s0.8-0.8,0.8-0.8l0.2,0.8c0,0,0.6-0.8,0.6-1.4
			c0-0.5,0.4,1.5,0.5,1.4c0.1-0.1,1-1.2,0.9-1.6c-0.1-0.3-0.1,1,0.5,1s0.7-1.4,0.7-1.6s-0.1,1.4,0.3,1.6s0.8-1.6,0.8-1.6
			s0.5,1.7,0.6,1.6s0.6-1.7,0.6-1.7s0.2,1,0.5,1.1s0.7-0.6,0.7-1c0-0.3,0,1.4,0,1.4s0.3-0.4,0.4-0.6c0.1-0.1,0.4,0.8,0.4,0.8
			l0.9-1.6c0,0,0.5,1.3,0.6,1.3"/>
	</g>
	<g>
		<path class="st6" d="M116.7,127.3c10.4-5.4-10-3.1-8.3,0.1c1.7,3.2-2.4,6.9,3.4-3.6c5.8-10.4-4.5-24.6-4.5-24.6
			c7.3-13.5-5.5-28.4-5.5-28.4c3.1-4.3,4.7-4.6-2.3-4.2c-7,0.4-14.1,0.5-8.3,0.5c6,0,14.7,13-4.2-15c-12.4-18.4-23.4-4.3-18.1,5.1
			c5.3,9.4,14.8,1.1,5.3-8.5S58,49.8,46.6,58s-8.8,27.6-3.7,24.8c-8.8,13,8.6,19.4,8.2,25.8c-0.3,6.4,3.1-0.9,3.1-0.9
			s-7.1-11-7.1,4.1s8.8,5.2,8.8,5.2c-9.3-5.1-1,5.7-1,5.7c-3.2-0.8-16.6,3.3-19.9,6.8c-3.2,3.6,8.8,7.5,8.8,7.5s6.4-3,24.7-4.9
			c0,0,2.8,17.6,14.1,10S117.1,146.3,116.7,127.3z"/>
		<path class="st7" d="M93.5,89.3c-2.3,2.8,1,11.2,4.2,8.7c3.1-2.5,6.2-8.7,3.1-8.7C97.7,89.3,94.6,88,93.5,89.3z"/>
		<path class="st7" d="M83.1,118.4c-3.9,4.7,1.7,18.8,6.9,14.6s10.4-14.6,5.2-14.6S84.9,116.3,83.1,118.4z"/>
		<path class="st7" d="M84.1,52.1c1.7-3.3-3.4-2.2-6,1.9c-2.6,4-4.4,9.1-1.3,5.8C80,56.5,83.4,53.6,84.1,52.1z"/>
		<path class="st7" d="M55.5,89c0.8-1.6-2-3.7-3.2-2c-1.2,1.7-1.9,4.7-0.4,3.9C53.5,90.1,55.2,89.7,55.5,89z"/>
		<path class="st7" d="M105.3,100.1c0.8-1.6-2-3.7-3.2-2c-1.2,1.7-1.9,4.7-0.4,3.9S104.9,100.8,105.3,100.1z"/>
		<path class="st7" d="M57.2,56.3c1.8-2.1-2.4-3.3-4.9-0.9c-2.6,2.4-4.6,6.1-1.8,4.5C53.4,58.3,56.4,57.2,57.2,56.3z"/>
		<path class="st3" d="M115.9,125.6c10.4-5.4-10-3.1-8.3,0.1s-2.4,6.9,3.4-3.6s-4.5-24.6-4.5-24.6c7.3-13.5-5.5-28.4-5.5-28.4
			c3.1-4.3,4.7-4.6-2.3-4.2c-7,0.4-14.1,0.5-8.3,0.5c6,0,14.7,13-4.2-15C73.7,32,62.8,46.1,68,55.5s14.8,1.1,5.3-8.5
			s-16.1,1.1-27.5,9.3S37,83.9,42.1,81.1c-8.8,13,8.6,19.4,8.2,25.8c-0.3,6.4,3.1-0.9,3.1-0.9s-7.1-11-7.1,4.1s8.8,5.2,8.8,5.2
			c-9.3-5.1-1,5.7-1,5.7c-3.2-0.8-16.6,3.3-19.9,6.8s8.8,7.5,8.8,7.5s6.4-3,24.7-4.9c0,0,2.8,17.6,14.1,10S116.3,144.6,115.9,125.6z
			"/>
	</g>
</g>
<g>
	<g>
		<g>
			<path class="st8" d="M219.3,163.4c4.6-3.5,4.6-29,4.6-29h6.3c0,0-0.8,27.6,1.2,29l-0.6-0.8l-0.4,0.5l-0.2-1.1
				c0,0-0.7,1.4-1.5,0.4l-1.3,1l-0.7-1.4c0,0-0.6,1.4-1.4,1.3c-0.8-0.1-0.6-1.3-0.6-1.3s-0.3,1.7-1.2,1.3c-0.9-0.4-0.8-0.9-0.8-0.9
				s-1.1,1.4-1.5,1.3s-0.8-1.1-0.8-1.1L219.3,163.4"/>
			<path class="st3" d="M218.2,164.2c6.3-3.4,5.4-29.8,5.4-29.8h6.3c0,0-0.1,27.5,1.8,28.9"/>
			<path class="st4" d="M224.2,148.6c0.4,1.6-1.6,11.5-2.7,14c-0.5,1.1,1.3,0.8,2.2-4.1c0.9-4.8,0.9-18.5,0.8-14.8
				C224.5,147.6,224,147.7,224.2,148.6z"/>
			<path class="st4" d="M229.2,139.4c0,0,0,12.9,0.1,13.6s0.4,1.2,0.4,0c0-1.2-0.1-13.1,0-13.6C229.9,138.9,229.2,139.4,229.2,139.4
				z"/>
		</g>
		<g>
			<path class="st9" d="M196,130.3c0,0-13.6-5.1-9.9-9.7c3.6-4.6,18.7-9.9,22.3-8.8c0,0-9.4-14,1.1-7.4c0,0-19.1,9-19.1-10.5
				s8-5.3,8-5.3s-3.8,9.5-3.4,1.2s2.7-33.7,12.4-24.8s-26.5-9-13.7-19.6s13.7-21.4,24.4-9c10.7,12.4,2.5,14-3.4,1.8
				s1.5-32.4,15.5-8.7c13.9,23.7,2.3,33-4.2,33c-6.5,0-1.3-4.8,6.5-5.3s19.3,17,15.8,22.6c0,0,20-3.1,11.8,14.3
				c0,0,9.5,4.7,3.1,18.2c-6.5,13.4-17,9.9-18.9,5.7s30.5,9.3,18.9,16.3c-6.3,1.8-9.8,6-12.6,1.3c-2.8-4.6,2-1.2,1-0.6
				s0.5,9.8-16.8,7s-7.4-4.5-9.2-2.9c-1.8,1.6-7.8,2.2-12.3,0.8c-4.5-1.4-3.8-3.2-2.9-2.5s-11,6.2-15.4,0
				C190.5,131.2,190.3,129.8,196,130.3z"/>
			<path class="st7" d="M202,68.9c-2.6,3.6,1.2,14.5,4.7,11.3c3.5-3.2,7-11.3,3.5-11.3C206.6,68.9,203.1,67.3,202,68.9z"/>
			<path class="st7" d="M243.1,101.1c-4.4,6,2,24.2,7.8,18.9s11.7-18.9,5.9-18.9C250.9,101.1,245.1,98.4,243.1,101.1z"/>
			<path class="st7" d="M235.7,63.1c2-4.2-3.8-2.8-6.8,2.4s-5,11.8-1.5,7.5C231,68.7,234.8,65,235.7,63.1z"/>
			<path class="st7" d="M215.2,114.3c2-4.2-3.8-2.8-6.8,2.4s-5,11.8-1.5,7.5C210.5,119.9,214.3,116.1,215.2,114.3z"/>
			<path class="st7" d="M206.8,97.5c0.9-2-2.2-4.7-3.6-2.6c-1.3,2.2-2.1,6.1-0.4,5C204.5,98.9,206.4,98.4,206.8,97.5z"/>
			<path class="st7" d="M227.1,47.5c0.9-2-2.2-4.7-3.6-2.6c-1.3,2.2-2.1,6.1-0.4,5C224.8,48.9,226.7,48.5,227.1,47.5z"/>
			<path class="st7" d="M209.9,39.6c2-2.7-2.7-4.3-5.6-1.2s-5.2,7.9-2,5.9S209,40.8,209.9,39.6z"/>
			<path class="st3" d="M195.3,129.6c0,0-13.6-5.1-9.9-9.7c3.6-4.6,18.7-9.9,22.3-8.8c0,0-9.4-14,1.1-7.4c0,0-19.1,9-19.1-10.5
				s8-5.3,8-5.3s-3.8,9.5-3.4,1.2c0.4-8.3,2.7-33.7,12.4-24.8s-26.5-9-13.7-19.6c12.8-10.5,13.7-21.4,24.4-9
				c10.7,12.4,2.5,14-3.4,1.8c-5.9-12.1,1.5-32.4,15.5-8.7c13.9,23.7,2.3,33-4.2,33s-1.3-4.8,6.5-5.3c7.8-0.5,19.3,17,15.8,22.6
				c0,0,20-3.1,11.8,14.3c0,0,9.5,4.7,3.1,18.2c-6.5,13.4-17,9.9-18.9,5.7c-1.9-4.2,30.5,9.3,18.9,16.3c-6.3,1.8-9.8,6-12.6,1.3
				s2-1.2,1-0.6c-1,0.6,0.5,9.8-16.8,7c-17.3-2.8-7.4-4.5-9.2-2.9c-1.8,1.6-7.8,2.2-12.3,0.8s-3.8-3.2-2.9-2.5
				c0.9,0.7-11,6.2-15.4,0C189.8,130.5,189.5,129.1,195.3,129.6z"/>
		</g>
	</g>
	<g>
		<path class="st3" d="M216.3,163.7c1.1-0.6,0.7-0.9,0.7-0.9s-0.1,0.7,0.8,0.9s1.3-0.7,1.3-0.7l0.3,0.7c0,0,1-0.7,1-1.1
			s0.6,1.2,0.8,1.1c0.2-0.1,1.6-1,1.5-1.3c-0.1-0.3-0.2,0.9,0.8,0.9s1.2-1.2,1.2-1.3c0-0.1-0.2,1.1,0.6,1.3c0.7,0.2,1.4-1.3,1.4-1.3
			s0.7,1.4,1,1.3c0.3-0.1,1-1.4,1-1.4s0.3,0.8,0.7,0.9c0.4,0.1,1.2-0.5,1.1-0.8c-0.1-0.3,0,1.2,0,1.2s0.4-0.4,0.6-0.5
			c0.2-0.1,0.6,0.6,0.6,0.6l1.5-1.3c0,0,0.8,1.1,1,1.1"/>
	</g>
</g>
<g>
	<g>
		<g>
			<path class="st8" d="M34.7,167.7c4.7-3.9,4-34.1,4-34.1h4.7c0,0-0.1,31.6,1.4,33.1"/>
			<path class="st3" d="M34.5,167.7c4.7-3.9,4-34.1,4-34.1h4.7c0,0-0.1,31.6,1.4,33.1"/>
			<path class="st4" d="M39,149.9c0.3,1.8-1.2,13.1-2,16c-0.4,1.2,1,0.9,1.7-4.7c0.7-5.5,0.7-21.3,0.6-16.9
				C39.2,148.7,38.8,148.7,39,149.9z"/>
			<path class="st4" d="M42.7,139.2c0,0,0,14.7,0.1,15.6c0.1,0.8,0.3,1.4,0.3,0c0-1.4-0.1-15,0-15.6S42.7,139.2,42.7,139.2z"/>
		</g>
		<g>
			<path class="st9" d="M18,128.8c0,0-10.1-5.8-7.4-11.1s13.9-11.3,16.6-10.1c0,0-7-16,0.9-8.5c0,0-14.2,10.3-14.2-12.1s6-6.1,6-6.1
				s-2.8,10.9-2.6,1.4c0.3-9.5,2-38.7,9.2-28.5S6.8,43.6,16.3,31.5S26.6,7,34.5,21.2s1.8,16-2.6,2.1s1.1-37.2,11.5-10
				s1.7,37.8-3.1,37.8c-4.8,0-1-5.5,4.8-6.1S59.5,64.6,56.9,71c0,0,14.9-3.6,8.8,16.4c0,0,7.1,5.4,2.3,20.9s-12.6,11.3-14,6.6
				s22.7,10.6,14,18.7c-4.6,2-7.3,6.9-9.4,1.5s1.5-1.4,0.7-0.7s0.4,11.2-12.5,8c-12.8-3.2-5.5-5.2-6.8-3.3c-1.3,1.8-5.8,2.5-9.1,0.9
				c-3.4-1.6-2.8-3.7-2.2-2.9c0.6,0.7-8.2,7.2-11.5,0C14,129.9,13.8,128.3,18,128.8z"/>
			<path class="st7" d="M22.5,58.5c-1.9,4.1,0.9,16.6,3.5,12.9s5.2-12.9,2.6-12.9S23.3,56.6,22.5,58.5z"/>
			<path class="st7" d="M53,95.3c-3.2,6.9,1.4,27.8,5.8,21.6s8.7-21.6,4.3-21.6S54.5,92.2,53,95.3z"/>
			<path class="st7" d="M47.5,51.8c1.5-4.8-2.8-3.2-5,2.7c-2.2,5.9-3.7,13.5-1.1,8.6S46.9,53.9,47.5,51.8z"/>
			<path class="st7" d="M32.3,110.4c1.5-4.8-2.8-3.2-5,2.7s-3.7,13.5-1.1,8.6C28.8,116.9,31.6,112.6,32.3,110.4z"/>
			<path class="st7" d="M26,91.2c0.6-2.3-1.6-5.4-2.6-2.9s-1.6,6.9-0.3,5.7C24.3,92.8,25.8,92.3,26,91.2z"/>
			<path class="st7" d="M41.1,33.9c0.6-2.3-1.6-5.4-2.6-2.9s-1.6,6.9-0.3,5.7C39.4,35.6,40.8,35,41.1,33.9z"/>
			<path class="st7" d="M28.3,24.9c1.5-3.1-2-5-4.1-1.4s-3.9,9-1.5,6.7S27.7,26.3,28.3,24.9z"/>
			<path class="st3" d="M17.5,128c0,0-10.1-5.8-7.4-11.1s13.9-11.3,16.6-10.1c0,0-7-16,0.9-8.5c0,0-14.2,10.3-14.2-12.1s6-6.1,6-6.1
				s-2.8,10.9-2.6,1.4c0.3-9.5,2-38.7,9.2-28.5S6.3,42.8,15.8,30.7S26,6.2,34,20.5s1.8,16-2.6,2.1s1.1-37.2,11.5-10
				s1.7,37.8-3.1,37.8s-1-5.5,4.8-6.1s14.3,19.5,11.8,25.9c0,0,14.9-3.6,8.8,16.4c0,0,7.1,5.4,2.3,20.9c-4.8,15.4-12.6,11.3-14,6.6
				s22.7,10.6,14,18.7c-4.6,2-7.3,6.9-9.4,1.5s1.5-1.4,0.7-0.7c-0.7,0.7,0.4,11.2-12.5,8c-12.8-3.2-5.5-5.2-6.8-3.3
				s-5.8,2.5-9.1,0.9c-3.4-1.6-2.8-3.7-2.2-2.9s-8.2,7.2-11.5,0S13.2,127.5,17.5,128z"/>
		</g>
	</g>
	<g>
		<path class="st1" d="M33.2,167.1c0.8-0.7,0.6-1,0.6-1s-0.1,0.8,0.6,1c0.7,0.2,1-0.8,1-0.8l0.2,0.8c0,0,0.7-0.8,0.7-1.3
			s0.5,1.4,0.6,1.3c0.2-0.1,1.2-1.2,1.1-1.5s-0.1,1,0.6,1s0.9-1.3,0.9-1.5s-0.1,1.3,0.4,1.5c0.6,0.2,1-1.5,1-1.5s0.5,1.6,0.8,1.5
			c0.2-0.1,0.8-1.6,0.8-1.6s0.2,0.9,0.6,1.1c0.3,0.2,0.9-0.6,0.8-0.9s0,1.3,0,1.3s0.3-0.4,0.4-0.6c0.1-0.1,0.4,0.7,0.4,0.7l1.1-1.5
			c0,0,0.6,1.3,0.8,1.3L47,168l-14.3,0.4L33.2,167.1z"/>
		<path class="st3" d="M33.1,167.1c0.8-0.7,0.6-1,0.6-1s-0.1,0.8,0.6,1c0.7,0.2,1-0.8,1-0.8l0.2,0.8c0,0,0.7-0.8,0.7-1.3
			s0.5,1.4,0.6,1.3c0.2-0.1,1.2-1.2,1.1-1.5c-0.1-0.3-0.1,1,0.6,1s0.9-1.3,0.9-1.5s-0.1,1.3,0.4,1.5s1-1.5,1-1.5s0.5,1.6,0.8,1.5
			c0.2-0.1,0.8-1.6,0.8-1.6s0.2,0.9,0.6,1.1c0.3,0.2,0.9-0.6,0.8-0.9s0,1.3,0,1.3s0.3-0.4,0.4-0.6c0.1-0.1,0.4,0.7,0.4,0.7l1.1-1.5
			c0,0,0.6,1.3,0.8,1.3"/>
	</g>
</g>
<g>
	<path class="st10" d="M32.3,170.6c0.1-3.6,19-5.4,61.8-2.9s53.2-1,53,6.4c-0.2,7.5-44.6,7.7-57.6,5.3s-42.9-3.9-49.9-2.7
		C32.5,177.8,32.1,174.8,32.3,170.6z"/>
	<g>
		<g>
			<polygon class="st11" points="134.5,171.4 106.8,131.5 102.7,131.5 102.7,132.7 130.4,172.6 134.5,172.6 			"/>
			<polygon class="st12" points="134.5,171.4 106.8,131.5 107.4,131.5 135.1,171.4 135.1,172.6 134.5,172.6 			"/>
			<g>
				<polygon class="st13" points="134.5,171.4 106.8,131.5 102.7,131.5 102.7,132.7 130.4,172.6 134.5,172.6 				"/>
				<polygon class="st13" points="134.5,171.4 106.8,131.5 107.4,131.5 135.1,171.4 135.1,172.6 134.5,172.6 				"/>
			</g>
		</g>
		<g>
			
				<rect x="121.3" y="171.4" transform="matrix(-1 4.423383e-11 -4.423383e-11 -1 259.1449 344.0656)" class="st12" width="16.5" height="1.2"/>
			
				<rect x="117.2" y="171.4" transform="matrix(-1 4.593513e-11 -4.593513e-11 -1 238.4956 344.0656)" class="st11" width="4.1" height="1.2"/>
			<g>
				
					<rect x="121.3" y="171.4" transform="matrix(-1 4.544442e-11 -4.544442e-11 -1 259.0514 344.0656)" class="st13" width="16.5" height="1.2"/>
				
					<rect x="117.1" y="171.4" transform="matrix(-1 4.328481e-11 -4.328481e-11 -1 238.4021 344.0656)" class="st13" width="4.1" height="1.2"/>
			</g>
		</g>
		<g>
			
				<rect x="118.5" y="167.4" transform="matrix(-1 4.423383e-11 -4.423383e-11 -1 253.6034 336.085)" class="st12" width="16.5" height="1.2"/>
			
				<rect x="114.4" y="167.4" transform="matrix(-1 4.593513e-11 -4.593513e-11 -1 232.9541 336.085)" class="st11" width="4.1" height="1.2"/>
			<g>
				
					<rect x="118.5" y="167.4" transform="matrix(-1 4.423383e-11 -4.423383e-11 -1 253.5099 336.085)" class="st13" width="16.5" height="1.2"/>
				
					<rect x="114.4" y="167.4" transform="matrix(-1 4.770172e-11 -4.770172e-11 -1 232.8607 336.085)" class="st13" width="4.1" height="1.2"/>
			</g>
		</g>
		<g>
			
				<rect x="115.8" y="163.4" transform="matrix(-1 4.423383e-11 -4.423383e-11 -1 248.0619 328.1043)" class="st12" width="16.5" height="1.2"/>
			
				<rect x="111.6" y="163.4" transform="matrix(-1 4.593513e-11 -4.593513e-11 -1 227.4126 328.1043)" class="st11" width="4.1" height="1.2"/>
			<g>
				
					<rect x="115.7" y="163.4" transform="matrix(-1 4.423383e-11 -4.423383e-11 -1 247.9685 328.1043)" class="st13" width="16.5" height="1.2"/>
				
					<rect x="111.6" y="163.4" transform="matrix(-1 4.814359e-11 -4.814359e-11 -1 227.3192 328.1043)" class="st13" width="4.1" height="1.2"/>
			</g>
		</g>
		<g>
			
				<rect x="113" y="159.5" transform="matrix(-1 4.423383e-11 -4.423383e-11 -1 242.5204 320.1237)" class="st12" width="16.5" height="1.2"/>
			
				<rect x="108.9" y="159.5" transform="matrix(-1 4.593513e-11 -4.593513e-11 -1 221.8712 320.1237)" class="st11" width="4.1" height="1.2"/>
			<g>
				
					<rect x="112.9" y="159.5" transform="matrix(-1 4.412414e-11 -4.412414e-11 -1 242.427 320.1237)" class="st13" width="16.5" height="1.2"/>
				
					<rect x="108.8" y="159.5" transform="matrix(-1 4.725985e-11 -4.725985e-11 -1 221.7777 320.1237)" class="st13" width="4.1" height="1.2"/>
			</g>
		</g>
		<g>
			
				<rect x="110.2" y="155.5" transform="matrix(-1 4.423383e-11 -4.423383e-11 -1 236.979 312.1431)" class="st12" width="16.5" height="1.2"/>
			
				<rect x="106.1" y="155.5" transform="matrix(-1 4.593513e-11 -4.593513e-11 -1 216.3297 312.1431)" class="st11" width="4.1" height="1.2"/>
			<g>
				
					<rect x="110.2" y="155.5" transform="matrix(-1 4.533428e-11 -4.533428e-11 -1 236.8855 312.1431)" class="st13" width="16.5" height="1.2"/>
				
					<rect x="106.1" y="155.5" transform="matrix(-1 4.681843e-11 -4.681843e-11 -1 216.2363 312.1431)" class="st13" width="4.1" height="1.2"/>
			</g>
		</g>
		<g>
			
				<rect x="107.5" y="151.5" transform="matrix(-1 4.423383e-11 -4.423383e-11 -1 231.4375 304.1625)" class="st12" width="16.5" height="1.2"/>
			
				<rect x="103.3" y="151.5" transform="matrix(-1 4.549327e-11 -4.549327e-11 -1 210.7882 304.1625)" class="st11" width="4.1" height="1.2"/>
			<g>
				
					<rect x="107.4" y="151.5" transform="matrix(-1 4.577437e-11 -4.577437e-11 -1 231.3441 304.1625)" class="st13" width="16.5" height="1.2"/>
				
					<rect x="103.3" y="151.5" transform="matrix(-1 4.063493e-11 -4.063493e-11 -1 210.6948 304.1625)" class="st13" width="4.1" height="1.2"/>
			</g>
		</g>
		<g>
			
				<rect x="104.7" y="147.5" transform="matrix(-1 4.423383e-11 -4.423383e-11 -1 225.896 296.1819)" class="st12" width="16.5" height="1.2"/>
			
				<rect x="100.6" y="147.5" transform="matrix(-1 4.593513e-11 -4.593513e-11 -1 205.2467 296.1819)" class="st11" width="4.1" height="1.2"/>
			<g>
				
					<rect x="104.6" y="147.5" transform="matrix(-1 4.544442e-11 -4.544442e-11 -1 225.8026 296.1819)" class="st13" width="16.5" height="1.2"/>
				
					<rect x="100.5" y="147.5" transform="matrix(-1 4.107635e-11 -4.107635e-11 -1 205.1533 296.1819)" class="st13" width="4.1" height="1.2"/>
			</g>
		</g>
		<g>
			
				<rect x="101.9" y="143.5" transform="matrix(-1 4.423383e-11 -4.423383e-11 -1 220.3546 288.2013)" class="st12" width="16.5" height="1.2"/>
			
				<rect x="97.8" y="143.5" transform="matrix(-1 4.593513e-11 -4.593513e-11 -1 199.7053 288.2013)" class="st11" width="4.1" height="1.2"/>
			<g>
				
					<rect x="101.9" y="143.5" transform="matrix(-1 4.555455e-11 -4.555455e-11 -1 220.2611 288.2013)" class="st13" width="16.5" height="1.2"/>
				
					<rect x="97.7" y="143.5" transform="matrix(-1 4.151822e-11 -4.151822e-11 -1 199.6118 288.2013)" class="st13" width="4.1" height="1.2"/>
			</g>
		</g>
		<g>
			
				<rect x="99.1" y="139.5" transform="matrix(-1 4.423383e-11 -4.423383e-11 -1 214.8131 280.2206)" class="st12" width="16.5" height="1.2"/>
			
				<rect x="95" y="139.5" transform="matrix(-1 4.593513e-11 -4.593513e-11 -1 194.1638 280.2206)" class="st11" width="4.1" height="1.2"/>
			<g>
				
					<rect x="99.1" y="139.5" transform="matrix(-1 4.544442e-11 -4.544442e-11 -1 214.7196 280.2206)" class="st13" width="16.5" height="1.2"/>
				
					<rect x="95" y="139.5" transform="matrix(-1 4.240152e-11 -4.240152e-11 -1 194.0704 280.2206)" class="st13" width="4.1" height="1.2"/>
			</g>
		</g>
		<g>
			
				<rect x="96.4" y="135.5" transform="matrix(-1 4.412414e-11 -4.412414e-11 -1 209.2716 272.2401)" class="st12" width="16.5" height="1.2"/>
			
				<rect x="92.3" y="135.5" transform="matrix(-1 4.593513e-11 -4.593513e-11 -1 188.6223 272.2401)" class="st11" width="4.1" height="1.2"/>
			<g>
				
					<rect x="96.3" y="135.5" transform="matrix(-1 4.412414e-11 -4.412414e-11 -1 209.1782 272.2401)" class="st13" width="16.5" height="1.2"/>
				
					<rect x="92.2" y="135.5" transform="matrix(-1 4.770172e-11 -4.770172e-11 -1 188.5289 272.2401)" class="st13" width="4.1" height="1.2"/>
			</g>
		</g>
		<g>
			
				<rect x="93.7" y="131.5" transform="matrix(-1 4.423383e-11 -4.423383e-11 -1 203.9731 264.2594)" class="st12" width="16.5" height="1.2"/>
			
				<rect x="89.6" y="131.5" transform="matrix(-1 4.593513e-11 -4.593513e-11 -1 183.3238 264.2594)" class="st11" width="4.1" height="1.2"/>
			<g>
				
					<rect x="93.6" y="131.5" transform="matrix(-1 4.423383e-11 -4.423383e-11 -1 203.6367 264.2594)" class="st13" width="16.5" height="1.2"/>
				
					<rect x="89.4" y="131.5" transform="matrix(-1 4.593513e-11 -4.593513e-11 -1 182.9874 264.2594)" class="st13" width="4.1" height="1.2"/>
			</g>
		</g>
		<g>
			<polygon class="st11" points="118.9,171.4 91.2,131.5 87.1,131.5 87.1,132.7 114.8,172.6 118.9,172.6 			"/>
			<polygon class="st12" points="118.9,171.4 91.2,131.5 91.8,131.5 119.5,171.4 119.5,172.6 118.9,172.6 			"/>
			<g>
				<polygon class="st13" points="118.9,171.4 91.2,131.5 87.1,131.5 87.1,132.7 114.8,172.6 118.9,172.6 				"/>
				<polygon class="st13" points="118.9,171.4 91.2,131.5 91.8,131.5 119.5,171.4 119.5,172.6 118.9,172.6 				"/>
			</g>
		</g>
	</g>
	<g>
		<g>
			<path class="st14" d="M52.6,160c0,0-1.8,12.9,2.8,13c4.6,0.1,5.4,0.2,6.3-2.2l14.6,0.8c0.4,1.4,1.5,4,5.6,4
				c4.1,0,7.6,0.1,8.3-3.2l0-0.4c0,0,11.1,0.4,19.9-0.1c0,0,0.8,3.5,5.6,3.3c4.8-0.2,5.3-3.9,5.3-3.9s1.8-0.8,1.7-2.2
				c-0.1-1.3-48.3-14.5-57.8-12.8S53,154.9,52.6,160z"/>
			<path class="st15" d="M52.1,159.8c0,0-1.8,12.9,2.8,13c4.6,0.1,5.4,0.2,6.3-2.2l14.6,0.8c0.4,1.4,1.5,4,5.6,4
				c4.1,0,7.6,0.1,8.3-3.2l0-0.4c0,0,11.1,0.4,19.9-0.1c0,0,0.8,3.5,5.6,3.3c4.8-0.2,5.3-3.9,5.3-3.9s1.8-0.8,1.7-2.2
				c-0.1-1.3-48.3-14.5-57.8-12.8C55.1,157.7,52.5,154.7,52.1,159.8z"/>
			<path class="st16" d="M121.9,159.8c0,0,0.3-2.4-2.8-3.8c-3.1-1.4-6.7-2.8-8.4-3.2c0,0-8.5-7.7-17-8.5c-3-0.3-13-0.7-21.5-0.5
				s-10.4,1.6-15.4,7.4c0,0-1.2,1.6-3.1,2.2c-1.9,0.6-2.1,8.7-1.9,9.8c0.2,1.1,0.6,0.9,0.6,0.9s0.3-6,3-5.8c2.7,0.2,3.7,8.9,3.7,8.9
				s14.6,1.5,16.9,1.6c0,0-1-10.3,3.7-10.3c4.7,0,5.5,8.6,5.7,11.1c0,0,23.4,0.4,37.8-0.4C123.2,169.2,124,160.6,121.9,159.8z"/>
			<path class="st15" d="M121.4,159.8c0,0,0.3-2.4-2.8-3.8c-3.1-1.4-6.7-2.8-8.4-3.2c0,0-8.5-7.7-17-8.5c-3-0.3-13-0.7-21.5-0.5
				c-8.6,0.2-10.4,1.6-15.4,7.4c0,0-1.2,1.6-3.1,2.2c-1.9,0.6-2.1,8.7-1.9,9.8c0.2,1.1,0.6,0.9,0.6,0.9s0.3-6,3-5.8
				c2.7,0.2,3.7,8.9,3.7,8.9s14.6,1.5,16.9,1.6c0,0-1-10.3,3.7-10.3c4.7,0,5.5,8.6,5.7,11.1c0,0,23.4,0.4,37.8-0.4
				C122.7,169.2,123.5,160.6,121.4,159.8z"/>
			<path class="st15" d="M98.1,159.3c0,0-1.5,1.1-6.9,1.1c-5.4-0.1-6-1.8-6.9-3.1C94.2,157.1,98.1,159.3,98.1,159.3z"/>
			<path class="st17" d="M96.5,158.7c0,0-1.3,0.9-5.3,0.8c-4.1,0-4.5-1.3-5.2-2.2C91.8,157.3,96.5,158.7,96.5,158.7z"/>
			<path class="st15" d="M120.1,156.9c0,0-2.6,1.1-2.3,2.3s3.6,0.6,3.6,0.6S121.5,157.7,120.1,156.9z"/>
			<path class="st17" d="M120.1,156.9c0,0-2.5,1.1-2.3,2.3c0.1,0.4,3.1-0.1,3.1-0.1S121.3,157.5,120.1,156.9z"/>
			<path class="st14" d="M116.9,160.3c0,0-1.4-0.9-8.2-0.8c-6.9,0.1-8.6,1.1-8.6,1.1l7.7,0l1.7,1.6l1.5-1.7L116.9,160.3z"/>
			<path class="st15" d="M117.4,160.3c0,0-1.4-0.9-8.2-0.8c-6.9,0.1-8.6,1.1-8.6,1.1l7.7,0l1.7,1.6l1.5-1.7L117.4,160.3z"/>
			<path class="st15" d="M115.3,164.7c0,0-10.7,0.2-11.2,0.4l0.2,2.9l11-0.2L115.3,164.7z"/>
			<g>
				<path class="st14" d="M92,168.6c0,0-0.8,0-1.9,0c-1.9,0-2-4-2-4c3.6,0,4.3,0.6,4.3,0.6C93.6,166.1,93.2,168.4,92,168.6z"/>
				<path class="st15" d="M98.8,165.9c0,0-5.7-1.4-10.6-1.4c0,0,0.1,3.9,2,4s3,0,3,0"/>
				<path class="st15" d="M94.6,166.3c0,0-2.5-0.2-4.1-0.4"/>
				<path class="st15" d="M93.3,167.5c0,0-2.3-0.1-2.5-0.1"/>
			</g>
			<g>
				<path class="st14" d="M122.3,165.2c0,0,0-1.3-0.8-1.2c-0.8,0.1-0.8,0.7-0.7,2c0.1,1.3,0.1,1.6,0.8,1.4
					C122.3,167.3,122.4,166.3,122.3,165.2z"/>
				<path class="st15" d="M119.7,164.5c0,0,2.6-1.2,2.6,0.1c0,0.9,0.3,2.5-0.6,2.8c-1,0.3-1.3,0.3-1.3,0.3"/>
				<path class="st15" d="M121.6,165.2c0,0-1,0.4-1.3,0.4"/>
				<path class="st15" d="M121.6,166.3c0,0-0.6,0.2-1.3,0.2"/>
			</g>
			<path class="st18" d="M108.9,152.9L80.4,153c-1.9,0-3.3-3.7-4.5-5c-1.2-1.2-2.8-3.1-4.5-3.5c0,0,12.5-0.5,21.3,0.6
				c3.9,0.5,5,1,7.7,2.4C106.3,151,108,151.9,108.9,152.9z"/>
			<path class="st18" d="M77,154.2c1-0.6-1.6-4.1-3.4-6c-1.8-1.9-3.7-2.8-7.3-2.2c-3.6,0.6-7.9,3.5-9.2,5.5c-1.3,2,5.5,2.4,9.1,2.6
				C69.9,154.4,76.2,154.7,77,154.2z"/>
			<path class="st15" d="M77,153.8c1-0.6-1.6-4.1-3.4-6c-1.8-1.9-3.7-2.8-7.3-2.2c-3.6,0.6-7.9,3.5-9.2,5.5s5.5,2.4,9.1,2.6
				C69.8,154,76.2,154.2,77,153.8z"/>
			<g>
				<path class="st16" d="M77.2,154.3c0,0-2.2-0.5-3-1.2c-0.8-0.7-0.6-1.9-3.3-1.6c-2.7,0.3-3.3,1.5-3.1,2.1c0.1,0.6,1.4,1.3,6.3,1
					c0,0,1.7,0.1,2.6,0.6"/>
				<path class="st15" d="M77.5,154.3c0,0-2.2-0.5-3-1.2c-0.8-0.7-0.6-1.9-3.3-1.6c-2.7,0.3-3.3,1.5-3.1,2.1c0.1,0.6,1.4,1.3,6.3,1
					c0,0,1.7,0.1,2.6,0.6"/>
			</g>
			<g>
				<path class="st19" d="M91.8,149.4c0,0-0.3-2.6-2.3-2.7c-2-0.1-3.1,0.4-2.5,2.7c0,0-0.5,1-0.5,2.3c0,0.3,0,0.6,0,0.9l5.7,0l4.6,0
					C95.7,151.4,93.7,149.4,91.8,149.4z"/>
				<path class="st19" d="M85,151.5c-0.5-1-1.2-2.1-2.1-2.1c0,0-0.6-2.5-2.8-2.6c-2.2-0.1-2.6,0.8-2,3c0,0-0.3-0.1-0.8-0.1
					c0.2,0.3,0.4,0.6,0.5,0.9c0.7,1.1,1.5,2.1,2.4,2.1l5.1,0C85.3,152.2,85.2,151.8,85,151.5z"/>
			</g>
			<path class="st15" d="M109.1,152.6l-28.5,0.2c-1.9,0-3.3-3.7-4.5-5c-1.2-1.2-2.8-3.1-4.5-3.5c0,0,12.5-0.5,21.3,0.6
				c3.9,0.5,5,1,7.7,2.4C106.6,150.8,108.2,151.7,109.1,152.6z"/>
			<path class="st20" d="M76.1,157.4c-0.4-0.3-7.1-0.9-11.9-1.2c-4.7-0.3-7.8-1-7.6,0.1c0.2,1.1,7.1,1,12.8,1.7
				C75.1,158.7,77.3,158.4,76.1,157.4z"/>
			<path class="st20" d="M73.3,152.4c0.1,0.4-1.2,0.5-1.9,0.4s-1.4-0.1-1.4-0.3c0-0.2,2.1-0.6,2.6-0.4S73.3,152,73.3,152.4z"/>
			<path class="st16" d="M79,161.3c1.5,0.2,2,4.3,2,6.6s0,5.3-1.6,5.3c-1.7,0-2.3-4.7-2.3-6.9C77.1,164,77.6,161.2,79,161.3z"/>
			<path class="st16" d="M54.4,160.7c1.2,0.1,1.7,3.6,1.7,5.6c0.1,2,0,4.5-1.4,4.5c-1.4,0-2-4-2-5.9S53.2,160.6,54.4,160.7z"/>
			<path class="st20" d="M116.7,155.9c1,0,1.2,0.6-2.9,0.7s-11.3-0.5-15.1,0.1s-8.6-0.3-9.9-0.4s-8-2.1-6.3-2.2
				c1.7-0.1,5.6,1.9,7.4,1.9s7.2,0.5,11.1,0.2S112.9,156,116.7,155.9z"/>
		</g>
	</g>
	<rect x="39.8" y="132.1" class="st12" width="1.7" height="42.1"/>
	<rect x="39.8" y="132.1" class="st11" width="0.8" height="42.1"/>
	<rect x="86" y="131.5" class="st12" width="1.7" height="45.9"/>
	<rect x="86" y="131.5" class="st11" width="1" height="45.9"/>
	<rect x="135.1" y="131.5" class="st12" width="1.7" height="43.9"/>
	<rect x="135.1" y="131.5" class="st11" width="0.8" height="43.9"/>
	<rect x="135.1" y="131.5" class="st13" width="1.7" height="43.9"/>
	<g>
		<g>
			<path class="st12" d="M138.2,26.2H90c0,0-0.7,73.7,0,85.2c0.7,11.5-0.3,20.1-0.3,20.1h48.4c0,0,1.9-56.3,0-68.1
				S138.2,26.2,138.2,26.2z"/>
			<path class="st11" d="M90.2,131.5c-6.4,0-55.6,1.5-53.7,0c1.9-1.5-0.8-67.2-0.8-67.2c1.7-0.9,54.8-38.1,54.8-38.1L90.2,131.5"/>
			<path class="st13" d="M137.7,26.2H90.5c0,0-0.6,73.7,0,85.2s-0.3,20.1-0.3,20.1h47.5c0,0,1.8-56.3,0-68.1S137.7,26.2,137.7,26.2z
				"/>
		</g>
		<path class="st13" d="M90.5,26.2c0,0-53.2,37.2-54.8,38.1c0,0,2.8,65.7,0.8,67.2c-1.9,1.5,47.3,0,53.7,0"/>
	</g>
	<rect x="86" y="131.5" class="st13" width="1.7" height="45.9"/>
	<rect x="39.8" y="132.1" class="st13" width="1.7" height="42.1"/>
	<path class="st21" d="M96.2,32.7c0,0-0.1,47.4,0.4,51.9c0,0,30.4-1.5,32-1c0,0-0.7-48.2,0-50.2L96.2,32.7z"/>
	<path class="st22" d="M128.7,33.4c0,0-0.1,45.7,0,50.2c0,0,3.7-0.5,3.9,0c0,0-0.1-48.2,0-50.2H128.7z"/>
	<path class="st13" d="M96.2,32.7c0,0-0.1,47.4,0.4,51.9c0,0,30.4-1.5,32-1c0,0,0-48.2,0-50.2L96.2,32.7z"/>
	<path class="st13" d="M128.7,33.4c0,0-0.1,45.7,0,50.2c0,0,3-0.1,3.9,0c0,0-0.1-48.2,0-50.2H128.7z"/>
	<path class="st23" d="M117.5,33.4h10.2c0,0-4.5,7.4-9.3,10.6s-6,16.5-9.9,18.2c-3.8,1.7-8.2,3.2-7.8-2.8c0.4-6,8.3-8.5,10.4-12.9
		C113.2,42.2,117.5,33.4,117.5,33.4z"/>
	<path class="st23" d="M112.6,83.9l-6.7,0.3c0,0,2.9-4.8,6.2-7s4.1-11.2,6.7-12.4c2.6-1.2,5.6-2.2,5.3,1.9c-0.3,4.1-5.6,5.8-7.1,8.8
		C115.5,78.5,112.6,83.9,112.6,83.9z"/>
	<g>
		<rect x="96.1" y="96" class="st21" width="0.7" height="14.5"/>
		<rect x="98.2" y="96" class="st21" width="0.7" height="14.5"/>
		<rect x="100.3" y="96" class="st21" width="0.7" height="14.5"/>
		<rect x="102.5" y="96" class="st21" width="0.7" height="14.5"/>
		<rect x="104.6" y="96" class="st21" width="0.7" height="14.5"/>
		<rect x="106.7" y="96" class="st21" width="0.7" height="14.5"/>
		<rect x="108.9" y="96" class="st21" width="0.7" height="14.5"/>
		<rect x="111" y="96" class="st21" width="0.7" height="14.5"/>
		<rect x="113.1" y="96" class="st21" width="0.7" height="14.5"/>
		<rect x="115.3" y="96" class="st21" width="0.7" height="14.5"/>
		<rect x="117.4" y="96" class="st21" width="0.7" height="14.5"/>
		<rect x="119.5" y="96" class="st21" width="0.7" height="14.5"/>
		<rect x="121.7" y="96" class="st21" width="0.7" height="14.5"/>
		<rect x="123.8" y="96" class="st21" width="0.7" height="14.5"/>
		<rect x="125.9" y="96" class="st21" width="0.7" height="14.5"/>
		<rect x="128.1" y="96" class="st21" width="0.7" height="14.5"/>
		<rect x="130.2" y="96" class="st21" width="0.7" height="14.5"/>
		<rect x="132.3" y="96" class="st21" width="0.7" height="14.5"/>
	</g>
	<g>
		<rect x="95.9" y="95.9" class="st13" width="0.7" height="14.5"/>
		<rect x="98.1" y="95.9" class="st13" width="0.7" height="14.5"/>
		<rect x="100.2" y="95.9" class="st13" width="0.7" height="14.5"/>
		<rect x="102.3" y="95.9" class="st13" width="0.7" height="14.5"/>
		<rect x="104.5" y="95.9" class="st13" width="0.7" height="14.5"/>
		<rect x="106.6" y="95.9" class="st13" width="0.7" height="14.5"/>
		<rect x="108.7" y="95.9" class="st13" width="0.7" height="14.5"/>
		<rect x="110.8" y="95.9" class="st13" width="0.7" height="14.5"/>
		<rect x="113" y="95.9" class="st13" width="0.7" height="14.5"/>
		<rect x="115.1" y="95.9" class="st13" width="0.7" height="14.5"/>
		<rect x="117.2" y="95.9" class="st13" width="0.7" height="14.5"/>
		<rect x="119.4" y="95.9" class="st13" width="0.7" height="14.5"/>
		<rect x="121.5" y="95.9" class="st13" width="0.7" height="14.5"/>
		<rect x="123.6" y="95.9" class="st13" width="0.7" height="14.5"/>
		<rect x="125.8" y="95.9" class="st13" width="0.7" height="14.5"/>
		<rect x="127.9" y="95.9" class="st13" width="0.7" height="14.5"/>
		<rect x="130" y="95.9" class="st13" width="0.7" height="14.5"/>
		<rect x="132.2" y="95.9" class="st13" width="0.7" height="14.5"/>
	</g>
	<g>
		<path class="st13" d="M86.8,29.8c0,0,0.6,99,0,100.4"/>
		<path class="st13" d="M83.2,31.3c0,0-0.1,95.7,0,99.4"/>
		<path class="st13" d="M80.1,33.4c0,0-0.1,93.6,0,97.3"/>
		<path class="st13" d="M70.4,40.6c0,0-0.1,87.2,0,90.9"/>
		<path class="st13" d="M69.2,42.2c0,0-0.1,85.6,0,89.3"/>
		<path class="st13" d="M56.4,50c0,0-0.1,77.7,0,81.5"/>
		<path class="st13" d="M53.8,51.8c0,0-0.1,76,0,79.7"/>
		<path class="st13" d="M39.8,62.5c0,0-0.1,65.3,0,69"/>
		<path class="st13" d="M60.9,47.7c0,0-0.1,66.8,0,70.5"/>
		<path class="st13" d="M62.1,46.2c0,0-0.1,57.2,0,60.9"/>
	</g>
</g>
<g>
	<g>
		<path class="st10" d="M270.5,176c1.7-3.1-8.5-1.9-23.4-1.6c-14.9,0.3-18.6,0.6-18.3,2.5c0.3,1.9,11,0.5,23.3,0.8
			C264.5,178,269.2,178.4,270.5,176z"/>
		<g>
			<g>
				<g>
					<path class="st22" d="M241.5,164.1V176c0,0.5,0.4,0.9,0.9,0.9s0.9-0.4,0.9-0.9v-11.9c0,0,0,0,0,0L241.5,164.1
						C241.5,164.1,241.5,164.1,241.5,164.1z"/>
					<path class="st22" d="M255.2,175.7l-5.8-11.6h-1.9l6.1,12.3c0.2,0.4,0.7,0.6,1.1,0.4C255.3,176.6,255.4,176.1,255.2,175.7z"/>
					<path class="st22" d="M252.6,162.4h-13.7c-0.5,0-0.9,0.4-0.9,0.9c0,0.5,0.4,0.9,0.9,0.9h2.6h1.7h4.4h1.9h3.1
						c0.5,0,0.9-0.4,0.9-0.9C253.4,162.8,253.1,162.4,252.6,162.4z"/>
				</g>
				<path class="st22" d="M250.9,170.7h-7.7v-1.7h7.7c0,0,0.9,0.1,0.9,0.9C251.8,169.8,251.7,170.7,250.9,170.7z"/>
			</g>
			<g>
				<path class="st24" d="M241.5,164v11.9c0,0.5,0.4,0.9,0.9,0.9c0.5,0,0.9-0.4,0.9-0.9V164c0,0,0,0,0,0L241.5,164
					C241.5,164,241.5,164,241.5,164z"/>
				<path class="st24" d="M255.2,175.5l-5.8-11.6h-1.9l2.4,4.8h0.9c0,0,0.9,0.1,0.9,0.9c0,0-0.1,0.8-0.9,0.8h-0.1l2.9,5.8
					c0.2,0.4,0.7,0.6,1.1,0.4C255.3,176.5,255.4,176,255.2,175.5z"/>
				<path class="st24" d="M252.6,164c0.5,0,0.9-0.4,0.9-0.9s-0.4-0.9-0.9-0.9h-13.7c-0.5,0-0.9,0.4-0.9,0.9s0.4,0.9,0.9,0.9h2.6h1.7
					h4.4h1.9H252.6z"/>
				<path class="st24" d="M250.9,168.8H250h-6.8v1.7h7.6h0.1c0.8,0,0.9-0.8,0.9-0.8C251.8,168.9,250.9,168.8,250.9,168.8z"/>
			</g>
		</g>
		<g>
			<polygon class="st22" points="267.9,148.9 260.6,167.7 249.3,167.7 249.3,168.6 261.1,168.6 268.7,149.3 			"/>
			<rect x="239.5" y="167.7" class="st22" width="9.8" height="0.9"/>
			<polygon class="st22" points="258.1,148.9 267.9,148.9 260.6,167.7 250.8,167.7 			"/>
		</g>
		<g>
			<polygon class="st24" points="267.9,148.8 260.5,167.6 249.3,167.6 249.3,168.5 261,168.5 268.6,149.2 			"/>
			<rect x="239.4" y="167.6" class="st24" width="9.8" height="0.9"/>
			<polygon class="st24" points="258.1,148.8 267.9,148.8 260.5,167.6 250.7,167.6 			"/>
		</g>
		<g>
			<path class="st25" d="M250.7,144.9c0,0-0.5-0.7-0.4-1.6c0,0,0.6-3.2,5.2-2.8c2.9,0.3,3.3,4,3.4,5.2c0.3,3.1,3.5,3.2,4.6,4.6
				c1.1,1.4,0.5,3.3-1.1,3.8c-3.2,0.8-5.4,1-7.2-1.4c-0.7-0.9-2.3,0.3-4-0.9s0-4.4,0.2-4.9S250.7,144.9,250.7,144.9"/>
			<path class="st26" d="M256.1,150C256.1,150,256.1,150,256.1,150l0-2.4c0,0,0,0,0,0c-0.3,0.5-1.1,1.5-2.6,1.9c-0.1,0-0.2,0-0.3,0
				c0,0.4,0,0.9,0,1.2c0,0.1,0,0.1,0,0.2c-0.6,0.5,0.2,1,1,1C256.2,151.8,256.1,150,256.1,150z"/>
			<path class="st26" d="M251,143.8c0-0.1,0.1-0.2,0.1-0.4c0,0,0,0,0,0c0-0.1,0-0.1,0.1-0.2c0,0,0,0,0,0c0-0.1,0-0.1,0.1-0.2
				c0,0,0,0,0,0c0-0.1,0.1-0.1,0.1-0.1c0,0,0,0,0,0c0,0,0.1-0.1,0.1-0.1c0,0,0,0,0,0c0.1-0.1,0.2-0.2,0.3-0.3c0,0,0.2,0.8,0.7,1.4
				c0.5,0.4,1.2,0.6,2.3,0.2c0,0.8,0.2,1.1,0.4,1.3c0.2,0.1,0.4,0.1,0.4,0.1c0-0.7,0.6-0.6,0.6-0.6s0,0,0,0c0,0,0.1,0,0.1,0
				c0,0,0.1,0,0.2,0.1c0,0,0,0,0,0c0.1,0,0.1,0.1,0.2,0.1c0,0,0,0,0,0c0,0,0.1,0.1,0.1,0.1c0,0,0,0,0,0c0,0.1,0.1,0.1,0.1,0.2
				c0,0.1,0,0.3,0,0.4c0,0,0,0,0,0c0,0.1,0,0.1-0.1,0.2c0,0,0,0,0,0.1c0,0,0,0.1-0.1,0.1c0,0,0,0,0,0c0,0-0.1,0.1-0.1,0.1
				c0,0,0,0,0,0c0,0-0.1,0-0.1,0.1c0,0,0,0,0,0c0,0,0,0-0.1,0c0,0,0,0,0,0c0,0,0,0,0,0c0,0,0,0,0,0c0,0,0,0,0,0c0,0,0,0,0,0
				c0,0,0,0,0,0c0,0,0,0-0.1,0c0,0,0,0,0,0c0,0,0,0,0,0c0,0,0,0,0,0c0,0,0,0,0,0c0,0,0,0,0,0c0,0,0,0,0,0s-0.2,0.6,0.2,1.2
				c0,0,0,0,0,0c-0.3,0.5-1.1,1.5-2.6,1.9c-0.1,0-0.2,0-0.3,0c-0.9-0.2-1.9-1.3-2.2-2.6C250.9,146.1,250.9,144.6,251,143.8z"/>
			<path class="st24" d="M256.5,148c-0.8-0.6-0.6-1.6-0.6-1.6s0.6,0.2,0.9-0.7c0.2-0.9-0.6-1-0.6-1s-0.6-0.1-0.6,0.6
				c0,0-0.7,0.2-0.7-1.3c-2.5,1.1-3-1.5-3-1.5c-1,0.6-0.9,2.2-0.9,2.2s-0.5-0.7-0.4-1.6c0,0,0.6-3.2,5.2-2.8c2.9,0.3,3.3,4,3.4,5.2
				c0.3,3.1,3.5,3.2,4.6,4.6c1.1,1.4,0.5,3.3-1.1,3.8c0,0-0.4,0.1-1.1,0"/>
			<path class="st24" d="M251.9,142.1c0,0,0.7-1.3,2-1.6"/>
			<path class="st27" d="M235.2,174.3C235.2,174.3,235.2,174.3,235.2,174.3c-0.5-0.3-1.5-1.1-2.4-1.6c-0.6-0.4-1.1-0.6-1-0.2
				c0.1,0.3,0.3,0.6,0.5,1c1.4,1.9,4.7,3.4,4.7,3.4l0.6-0.9L235.2,174.3z"/>
			<path class="st27" d="M229.8,172.1c0,0-2.7,0.9-4,0.6c-1.3-0.3-2.2,0,0,0.8s5,2,5,2l1-1.8l-1.2-0.9L229.8,172.1z"/>
			<path class="st28" d="M255.5,164.4c-3.4,0.7-7.7-0.9-7.7-0.9l0.1-0.3l-0.4-0.1l-2-0.3c0,0-0.1,0-0.1,0c-0.1,0.1-0.2,0-0.3-0.1
				c-0.1-0.1-0.1-0.2-0.2-0.4c0,0,0-0.1,0-0.1c-0.1,0-0.1,0-0.2,0c-0.2,0-0.4,0-0.6,0c-2.5-0.2-5.7-0.3-7.4,0.3
				c-2.9,1-1.6,3.8-7.2,9.6l1.1,0.8l1.2,0.9v0l0.2,0.2c0,0,0.1-0.1,0.3-0.4c-0.2-0.3-0.4-0.6-0.5-1c-0.1-0.3,0.4-0.1,1,0.2
				c1.2-1.6,3.4-4.6,4.7-5.7c-1.4,4.6-2.3,7.1-2.3,7.3c0.1,0.1,0.2,0.2,0.2,0.2l2.2,1.5c1.3-1,4.7-8.1,5.1-8.9c0,0,0-0.1,0-0.1
				c0.1,0,0.3,0.1,0.4,0.1c12.8,2.8,13.3-2.3,13.3-2.6c0,0,0,0,0,0L255.5,164.4z"/>
			<path class="st24" d="M244.9,162.1c0,0,0-0.1,0-0.1c-0.1,0-0.1,0-0.2,0c-0.2,0-0.4,0-0.6,0c-2.5-0.2-5.7-0.3-7.4,0.3
				c-2.9,1-1.6,3.8-7.2,9.6l1.1,0.8l1.2,0.9l0,0l0.2,0.2c0,0,0.1-0.1,0.3-0.4c-0.2-0.3-0.4-0.6-0.5-1c-0.1-0.3,0.4-0.1,1,0.2
				c1.2-1.6,3.4-4.6,4.7-5.7c0.1-0.3,0.2-0.5,0.3-0.8c0.8-2.6,1.1-4.5,6.7-3.6c0.2,0,0.4,0.1,0.6,0.1
				C245,162.4,244.9,162.3,244.9,162.1z"/>
			<path class="st24" d="M255.5,164.2c-3.4,0.7-7.7-0.9-7.7-0.9l0.1-0.3l-0.4-0.1l-2-0.3c0,0-0.1,0-0.1,0c-0.1,0.1-0.2,0-0.3-0.1
				c-0.2,0-0.4-0.1-0.6-0.1c-5.6-0.9-5.9,1-6.7,3.6c-0.1,0.3-0.2,0.6-0.3,0.8c-1.4,4.6-2.3,7.1-2.3,7.3c0.1,0.1,0.2,0.2,0.2,0.2
				l2.2,1.5c1.3-1,4.7-8.1,5.1-8.9c0,0,0-0.1,0-0.1c0.1,0,0.3,0.1,0.4,0.1c12.8,2.8,13.3-2.3,13.3-2.6c0,0,0,0,0,0L255.5,164.2z"/>
			<path class="st29" d="M258,151.2c0.1,0.2,0.6,0.7,1,1.7C258.8,152.2,258.4,151.6,258,151.2z"/>
			<path class="st30" d="M251.8,151c0,0-3.8,3-5.1,7.6c0,0-1.9,0.6-2.4,1.7c-0.5,1.1-0.3,1.6-0.3,1.6l0,0c0.2,0,0.4,0,0.6,0
				c0.1,0,0.1,0,0.2,0c0-0.1,0-0.1,0-0.2c-0.1-0.7,0.1-1.5,0.6-1.7c0.4-0.2,0.9-0.2,1.2-0.2c1.1-0.8,2.1-1.6,2.6-3.4
				C250,153.6,251,151.9,251.8,151L251.8,151z"/>
			<path class="st30" d="M257.9,151.1c-0.4-0.4-0.8-0.7-1.2-0.9c-0.2-0.1-0.4-0.1-0.6-0.2c-0.1,0.6-0.4,1.7-2,1.7
				c-0.8,0-1.6-0.6-1-1.1c0-0.2,0-0.4,0-0.6c-0.3,0.1-0.8,0.4-1.3,1c-0.8,0.9-1.8,2.5-2.6,5.5c-0.5,1.8-1.6,2.6-2.6,3.4
				c0.5,0.1,1,0.3,1.3,0.5c0.3,0.2,0.4,0.4,0.4,0.4l-0.4,1.8c0,0-0.2,0-0.5-0.1c-0.2,0-0.3,0-0.5,0c-0.2,0-0.5,0-0.7,0
				c-0.3,0-0.6,0-0.7,0.1l2,0.3l0.4,0.1l0.5-2.2c1.8-0.9,6.3-0.7,6.3-0.7c0-0.8,0.8-0.7,0.8-0.7c-0.1-0.8-0.5-2.7-0.2-4.9
				C255.6,152.4,256.9,151.7,257.9,151.1z"/>
			<path class="st24" d="M251.9,151c0,0-3.8,3-5.1,7.6c0,0-1.9,0.6-2.4,1.7c-0.5,1.1-0.3,1.6-0.3,1.6l0,0c0.2,0,0.4,0,0.6,0
				c0.1,0,0.1,0,0.2,0c0-0.1,0-0.1,0-0.2c-0.1-0.7,0.1-1.5,0.6-1.7c0.4-0.2,0.9-0.2,1.2-0.2c1.1-0.8,2.1-1.6,2.6-3.4
				C250.1,153.6,251.1,151.9,251.9,151L251.9,151z"/>
			<path class="st24" d="M258,151.1c-0.4-0.4-0.8-0.7-1.2-0.9c-0.2-0.1-0.4-0.1-0.6-0.2c-0.1,0.6-0.4,1.7-2,1.7
				c-0.8,0-1.6-0.6-1-1.1c0-0.2,0-0.4,0-0.6c-0.3,0.1-0.8,0.4-1.3,1c-0.8,0.9-1.8,2.5-2.6,5.5c-0.5,1.8-1.6,2.6-2.6,3.4
				c0.5,0.1,1,0.3,1.3,0.5c0.3,0.2,0.4,0.4,0.4,0.4l-0.4,1.8c0,0-0.2,0-0.5-0.1c-0.2,0-0.3,0-0.5,0c-0.2,0-0.5,0-0.7,0
				c-0.3,0-0.6,0-0.7,0.1l2,0.3l0.4,0.1l0.5-2.2c1.8-0.9,6.3-0.7,6.3-0.7c0-0.8,0.8-0.7,0.8-0.7c-0.1-0.8-0.5-2.7-0.2-4.9
				C255.7,152.3,257,151.7,258,151.1z"/>
			<path class="st24" d="M258,151.1C258,151.1,258,151.1,258,151.1C258,151.1,258,151.2,258,151.1C258,151.1,258,151.1,258,151.1z"
				/>
			<path class="st24" d="M235.2,174.1C235.2,174.1,235.2,174.1,235.2,174.1c-0.5-0.3-1.5-1.1-2.4-1.6c-0.6-0.4-1.1-0.6-1-0.2
				c0.1,0.3,0.3,0.6,0.5,1c1.4,1.9,4.7,3.4,4.7,3.4l0.6-0.9L235.2,174.1z"/>
			<path class="st29" d="M235.2,174.1C235.2,174.1,235.2,174.1,235.2,174.1l2.4,1.6l-2.2-1.5C235.4,174.3,235.3,174.2,235.2,174.1z"
				/>
			<path class="st24" d="M229.8,172c0,0-2.7,0.9-4,0.6c-1.3-0.3-2.2,0,0,0.8c2.2,0.8,5,2,5,2l1-1.8l-1.2-0.9L229.8,172z"/>
			<polygon class="st29" points="230.6,172.6 231.8,173.4 231.8,173.4 			"/>
			<g>
				<circle class="st31" cx="251.6" cy="145.1" r="0.2"/>
				<circle class="st31" cx="254" cy="145.1" r="0.2"/>
				<path class="st24" d="M252.5,145.2c0,0,0.5,0.8-0.2,0.8c0,0-0.1,0.6,0.8,0.4"/>
				<path class="st24" d="M252.2,147.5c0,0,0.9,0.3,1.5-0.2"/>
			</g>
			<g>
				<path class="st32" d="M245,160.2c0-0.2-0.1-0.3-0.1-0.4c-0.3-0.2-2.3-0.3-2.3,0.1c0,0.7-0.2,2.8,0.2,2.9
					c0.4,0.1,2.2,0.2,2.2-0.2c0-0.1,0-0.3,0-0.5c0.3-0.1,0.7-0.4,0.9-1C245.9,160.4,245.3,160.2,245,160.2z M245.4,161
					c-0.1,0.4-0.3,0.6-0.5,0.6c0-0.3,0.1-0.7,0.1-1C245.2,160.6,245.5,160.7,245.4,161z"/>
				<path class="st24" d="M244.8,160.1c0-0.2-0.1-0.3-0.1-0.4c-0.3-0.2-2.3-0.3-2.3,0.1c0,0.7-0.2,2.8,0.2,2.9s2.2,0.2,2.2-0.2
					c0-0.1,0-0.3,0-0.5c0.3-0.1,0.7-0.4,0.9-1C245.8,160.3,245.2,160.2,244.8,160.1z M245.3,161c-0.1,0.4-0.3,0.6-0.5,0.6
					c0-0.3,0.1-0.7,0.1-1C245,160.5,245.4,160.6,245.3,161z"/>
			</g>
			<g>
				<path class="st33" d="M242.7,158.4c-0.4-0.4,0.4-0.4,0.4-0.4c0.1-0.5,0.4,0.2,0.4,0.2s0.3,0.1,0,0.2
					C243.3,158.5,243,158.8,242.7,158.4z"/>
				<path class="st24" d="M243.5,158.1c0,0-0.3-0.7-0.4-0.2c0,0-0.7,0-0.4,0.4c0.4,0.4,0.5,0.2,0.5,0.2"/>
				<path class="st33" d="M244.1,159c0.1,0.3-0.3,0.1-0.3,0.1c-0.2,0.2-0.1-0.3-0.1-0.3s-0.1-0.2,0-0.1
					C243.8,158.7,244,158.7,244.1,159z"/>
				<path class="st24" d="M243.6,158.8c0,0-0.1,0.5,0.1,0.3c0,0,0.4,0.3,0.3-0.1c-0.1-0.3-0.2-0.3-0.2-0.3"/>
			</g>
			<path class="st30" d="M258.9,152.8c-0.4-0.9-0.9-1.5-1-1.7c0,0,0,0,0,0c-1,0.6-2.3,1.2-2.7,3.4c-0.3,2.2,0,4.1,0.2,4.9
				c0,0-0.8-0.1-0.8,0.7c0,0-4.6-0.2-6.3,0.7l-0.5,2.2l-0.1,0.3c0,0,4.3,1.6,7.7,0.9c0.5-0.1,1-0.3,1.5-0.5c1.1-0.5,1.9-1.4,2.4-2.8
				C260.5,157.4,259.7,154.5,258.9,152.8z"/>
			<path class="st24" d="M259,152.8c-0.4-0.9-0.9-1.5-1-1.7c0,0,0,0,0,0c-1,0.6-2.3,1.2-2.7,3.4c-0.3,2.2,0,4.1,0.2,4.9
				c0,0-0.8-0.1-0.8,0.7c0,0-4.6-0.2-6.3,0.7l-0.5,2.2l-0.1,0.3c0,0,4.3,1.6,7.7,0.9c0.5-0.1,1-0.3,1.5-0.5c1.1-0.5,1.9-1.4,2.4-2.8
				C260.6,157.4,259.8,154.5,259,152.8z"/>
			<path class="st26" d="M247.9,160.5c-0.3-0.2-0.7-0.4-1.3-0.5c-0.4,0-0.8,0-1.2,0.2c-0.6,0.2-0.7,1-0.6,1.7c0,0.1,0,0.1,0,0.2
				c0,0,0,0.1,0,0.1c0,0.1,0.1,0.3,0.2,0.4c0.1,0.1,0.2,0.2,0.3,0.1c0,0,0.1,0,0.1,0c0.2-0.1,0.5-0.1,0.7-0.1c0.2,0,0.5,0,0.7,0
				c0.2,0,0.4,0,0.5,0c0.3,0,0.5,0.1,0.5,0.1l0.4-1.8C248.4,160.9,248.2,160.7,247.9,160.5z"/>
		</g>
		<g>
			<g>
				<g>
					<path class="st22" d="M251.6,164.1V176c0,0.5,0.4,0.9,0.9,0.9c0.5,0,0.9-0.4,0.9-0.9v-11.9c0,0,0,0,0,0L251.6,164.1
						C251.6,164.1,251.6,164.1,251.6,164.1z"/>
					<path class="st22" d="M265.3,175.7l-5.8-11.6h-1.9l6.1,12.3c0.2,0.4,0.7,0.6,1.1,0.4C265.3,176.6,265.5,176.1,265.3,175.7z"/>
					<path class="st22" d="M262.7,162.4H249c-0.5,0-0.9,0.4-0.9,0.9c0,0.5,0.4,0.9,0.9,0.9h2.6h1.7h4.4h1.9h3.1
						c0.5,0,0.9-0.4,0.9-0.9C263.5,162.8,263.1,162.4,262.7,162.4z"/>
				</g>
				<path class="st22" d="M261,170.7h-7.7v-1.7h7.7c0,0,0.9,0.1,0.9,0.9C261.9,169.8,261.8,170.7,261,170.7z"/>
			</g>
			<g>
				<path class="st24" d="M251.6,164v11.9c0,0.5,0.4,0.9,0.9,0.9c0.5,0,0.9-0.4,0.9-0.9V164c0,0,0,0,0,0L251.6,164
					C251.6,164,251.6,164,251.6,164z"/>
				<path class="st24" d="M265.3,175.5l-5.8-11.6h-1.9l2.4,4.8h0.9c0,0,0.9,0.1,0.9,0.9c0,0-0.1,0.8-0.9,0.8h-0.1l2.9,5.8
					c0.2,0.4,0.7,0.6,1.1,0.4C265.3,176.5,265.5,176,265.3,175.5z"/>
				<path class="st24" d="M262.7,164c0.5,0,0.9-0.4,0.9-0.9s-0.4-0.9-0.9-0.9H249c-0.5,0-0.9,0.4-0.9,0.9s0.4,0.9,0.9,0.9h2.6h1.7
					h4.4h1.9H262.7z"/>
				<path class="st24" d="M261,168.8H260h-6.8v1.7h7.6h0.1c0.8,0,0.9-0.8,0.9-0.8C261.9,168.9,261,168.8,261,168.8z"/>
			</g>
		</g>
	</g>
	<g>
		<g>
			<path class="st34" d="M253.3,149.9c0,0-5.4,3.5-6.5,6.6s1.5,4.3,1.5,4.3s3.5-0.8,4.4-0.7c0,0-0.6-4.6,0-7.4
				S253.3,149.9,253.3,149.9z"/>
			<path class="st24" d="M253.3,149.9c0,0-5.4,3.5-6.5,6.6s1.5,4.3,1.5,4.3s3.5-0.8,4.4-0.7c0,0-0.6-4.6,0-7.4
				S253.3,149.9,253.3,149.9z"/>
			<path class="st34" d="M256.3,149.9c0,0-5.3,3.7-6.7,5.7c-1.4,2.1,0.4,4.6,0.4,4.6s3.7-0.6,4.2,1.8c0.4,2.3-2.7,8.7,0.2,8.5
				s6-0.9,6.2-1.4S262,150.2,256.3,149.9z"/>
			<path class="st24" d="M256.3,149.9c0,0-5.3,3.7-6.7,5.7c-1.4,2.1,0.4,4.6,0.4,4.6s3.7-0.6,4.2,1.8c0.4,2.3-2.7,8.7,0.2,8.5
				s6-0.9,6.2-1.4S262,150.2,256.3,149.9z"/>
		</g>
		<path class="st24" d="M252.3,159.9c0,0,3.2-0.4,3.5,1.4"/>
		<path class="st24" d="M256.8,159.9c-0.5-0.4-2.8-0.6-2.8-0.6s1.4-1.2,2.3-1"/>
	</g>
</g>
<g>
	<path class="st10" d="M146.9,171.1c-1.7-3.1,8.5-1.9,23.4-1.6c14.9,0.3,18.6,0.6,18.3,2.5c-0.3,1.9-10.9,0.5-23.3,0.8
		S148.2,173.6,146.9,171.1z"/>
	<g>
		<g>
			<g>
				<path class="st22" d="M172.7,160.1v11.1c0,0.4-0.4,0.8-0.8,0.8s-0.8-0.4-0.8-0.8v-11.1c0,0,0,0,0,0L172.7,160.1
					C172.7,160.1,172.7,160.1,172.7,160.1z"/>
				<path class="st22" d="M159.9,170.9l5.4-10.8h1.8l-5.7,11.5c-0.2,0.4-0.7,0.6-1.1,0.4C159.9,171.8,159.7,171.3,159.9,170.9z"/>
				<path class="st22" d="M162.4,158.5h12.7c0.4,0,0.8,0.4,0.8,0.8c0,0.4-0.4,0.8-0.8,0.8h-2.4h-1.6h-4.1h-1.8h-2.9
					c-0.4,0-0.8-0.4-0.8-0.8C161.6,158.9,161.9,158.5,162.4,158.5z"/>
			</g>
			<path class="st22" d="M163.9,166.2h7.2v-1.6h-7.2c0,0-0.8,0.1-0.8,0.8C163.1,165.5,163.2,166.2,163.9,166.2z"/>
		</g>
		<g>
			<path class="st24" d="M172.7,160v11.1c0,0.4-0.4,0.8-0.8,0.8s-0.8-0.4-0.8-0.8V160c0,0,0,0,0,0L172.7,160
				C172.7,160,172.7,160,172.7,160z"/>
			<path class="st24" d="M159.9,170.8l5.4-10.8h1.8l-2.2,4.5h-0.9c0,0-0.8,0.1-0.8,0.8c0,0,0.1,0.8,0.8,0.8h0.1l-2.7,5.4
				c-0.2,0.4-0.7,0.6-1.1,0.4C159.9,171.6,159.7,171.2,159.9,170.8z"/>
			<path class="st24" d="M162.4,160c-0.4,0-0.8-0.4-0.8-0.8s0.4-0.8,0.8-0.8h12.7c0.4,0,0.8,0.4,0.8,0.8s-0.4,0.8-0.8,0.8h-2.4h-1.6
				h-4.1h-1.8H162.4z"/>
			<path class="st24" d="M163.9,164.5h0.9h6.3v1.6H164h-0.1c-0.8,0-0.8-0.8-0.8-0.8C163.1,164.6,163.9,164.5,163.9,164.5z"/>
		</g>
		<g>
			<polygon class="st22" points="148.1,146 154.9,163.5 165.4,163.5 165.4,164.3 154.5,164.3 147.4,146.3 			"/>
			
				<rect x="165.4" y="163.5" transform="matrix(-1 -4.454094e-11 4.454094e-11 -1 340.0019 327.7949)" class="st22" width="9.1" height="0.9"/>
			<polygon class="st22" points="157.2,146 148.1,146 154.9,163.5 164.1,163.5 			"/>
		</g>
		<g>
			<polygon class="st24" points="148.1,145.9 155,163.4 165.5,163.4 165.5,164.2 154.5,164.2 147.4,146.2 			"/>
			
				<rect x="165.5" y="163.4" transform="matrix(-1 -4.394453e-11 4.394453e-11 -1 340.1317 327.6235)" class="st24" width="9.1" height="0.9"/>
			<polygon class="st24" points="157.3,145.9 148.1,145.9 155,163.4 164.1,163.4 			"/>
		</g>
		<g>
			<g>
				<path class="st35" d="M178.1,169.7C178.1,169.7,178.1,169.7,178.1,169.7c0.4-0.3,1.5-1.1,2.3-1.6c0.6-0.4,1.1-0.6,1-0.2
					c-0.1,0.3-0.3,0.6-0.5,0.9c-1.4,1.9-4.6,3.3-4.6,3.3l-0.5-0.9L178.1,169.7z"/>
				<path class="st35" d="M183.4,167.6c0,0,2.6,0.8,3.9,0.5c1.2-0.3,2.2,0,0,0.8c-2.2,0.8-4.9,1.9-4.9,1.9l-1-1.8l1.2-0.8
					L183.4,167.6z"/>
				<path class="st36" d="M158.1,159.9c3.4,0.7,7.6-0.9,7.6-0.9l-0.1-0.3l0.4-0.1l1.9-0.3c0,0,0.1,0,0.1,0c0.1,0.1,0.2,0,0.3-0.1
					c0.1-0.1,0.1-0.2,0.1-0.4c0,0,0-0.1,0-0.1c0,0,0.1,0,0.1,0c0.2,0,0.4,0,0.6,0c2.4-0.2,5.6-0.3,7.2,0.3c2.8,0.9,1.6,3.7,7,9.4
					l-1,0.8l-1.2,0.8v0l-0.2,0.2c0,0-0.1-0.1-0.3-0.4c0.2-0.3,0.4-0.6,0.5-0.9c0.1-0.3-0.4-0.1-1,0.2c-1.1-1.6-3.3-4.6-4.6-5.6
					c1.4,4.5,2.2,7,2.3,7.1c-0.1,0.1-0.2,0.2-0.2,0.2l-2.2,1.4c-1.2-1-4.7-8-5-8.7c0,0,0-0.1,0-0.1c-0.1,0-0.3,0.1-0.4,0.1
					c-12.5,2.7-13.1-2.3-13.1-2.5c0,0,0,0,0,0L158.1,159.9z"/>
				<path class="st24" d="M168.6,157.7c0,0,0-0.1,0-0.1c0,0,0.1,0,0.1,0c0.2,0,0.4,0,0.6,0c2.4-0.2,5.6-0.3,7.2,0.3
					c2.8,0.9,1.6,3.7,7,9.4l-1,0.8l-1.2,0.8v0l-0.2,0.2c0,0-0.1-0.1-0.3-0.4c0.2-0.3,0.4-0.6,0.5-0.9c0.1-0.3-0.4-0.1-1,0.2
					c-1.1-1.6-3.3-4.6-4.6-5.6c-0.1-0.3-0.2-0.5-0.2-0.8c-0.8-2.5-1-4.4-6.6-3.5c-0.2,0-0.4,0.1-0.6,0.1
					C168.5,158,168.5,157.9,168.6,157.7z"/>
				<path class="st24" d="M158.1,159.7c3.4,0.7,7.6-0.9,7.6-0.9l-0.1-0.3l0.4-0.1l1.9-0.3c0,0,0.1,0,0.1,0c0.1,0.1,0.2,0,0.3-0.1
					c0.2,0,0.4-0.1,0.6-0.1c5.5-0.8,5.8,1,6.6,3.5c0.1,0.3,0.2,0.5,0.2,0.8c1.4,4.5,2.2,7,2.3,7.1c-0.1,0.1-0.2,0.2-0.2,0.2
					l-2.2,1.4c-1.2-1-4.7-8-5-8.7c0,0,0-0.1,0-0.1c-0.1,0-0.3,0.1-0.4,0.1c-12.5,2.7-13.1-2.3-13.1-2.5c0,0,0,0,0,0L158.1,159.7z"/>
				<path class="st37" d="M161.7,146.8c0,0,3.8,2.9,5,7.5c0,0,1.8,0.6,2.3,1.7c0.5,1.1,0.3,1.6,0.3,1.6l0,0c-0.2,0-0.4,0-0.6,0
					c-0.1,0-0.1,0-0.1,0c0-0.1,0-0.1,0-0.2c0.1-0.6-0.1-1.5-0.6-1.7c-0.4-0.2-0.8-0.2-1.2-0.1c-1.1-0.8-2.1-1.6-2.6-3.3
					C163.4,149.3,162.5,147.7,161.7,146.8L161.7,146.8z"/>
				<path class="st38" d="M155.7,146.9c0.4-0.4,0.8-0.7,1.2-0.8c0.2-0.1,0.4-0.1,0.6-0.2c0.1,0.6,0.4,1.7,2,1.7c0.8,0,1.6-0.5,1-1.1
					c0-0.2,0-0.4,0-0.6c0.3,0.1,0.8,0.4,1.3,0.9c0.8,0.9,1.8,2.5,2.6,5.4c0.5,1.8,1.5,2.5,2.6,3.3c-0.5,0.1-1,0.3-1.2,0.5
					c-0.3,0.2-0.4,0.4-0.4,0.4l0.4,1.7c0,0,0.2,0,0.5-0.1c0.2,0,0.3,0,0.5,0c0.2,0,0.5,0,0.7,0c0.3,0,0.5,0,0.7,0.1l-1.9,0.3
					l-0.4,0.1l-0.5-2.2c-1.7-0.9-6.2-0.7-6.2-0.7c0-0.8-0.8-0.7-0.8-0.7c0.1-0.8,0.5-2.6,0.2-4.8C158,148.1,156.6,147.5,155.7,146.9
					z"/>
				<path class="st37" d="M154.7,148.6c0.4-0.9,0.9-1.5,1-1.6c0,0,0,0,0,0c0.9,0.6,2.3,1.2,2.6,3.3c0.3,2.1,0,4-0.2,4.8
					c0,0,0.8-0.1,0.8,0.7c0,0,4.5-0.2,6.2,0.7l0.5,2.2l0.1,0.3c0,0-4.2,1.6-7.6,0.9c-0.5-0.1-1-0.3-1.5-0.5
					c-1.1-0.5-1.9-1.3-2.4-2.7C153.1,153.1,153.9,150.3,154.7,148.6z"/>
				<path class="st39" d="M157.2,141.5c-0.2-0.9,0.6-1,0.6-1s0.6-0.1,0.6,0.6v0.6l0.3,0.1c0.9-0.9,0.4-2,0.4-2
					c0.5,0.1,1,0.2,1.4,0.1c1,0,1.8-0.4,2.3-0.8c0.2,0.5,0.3,2.7,0.1,3.6c-0.3,1.4-0.8,2.6-2.5,2.6c0,0,0,0,0,0
					c-1,0-2.2-0.5-2.9-1.5c0.4-0.3,0.6-0.7,0.6-1.1c0-0.3,0-0.5,0-0.5S157.4,142.4,157.2,141.5z"/>
				<path class="st35" d="M156.9,144.2c1.5-0.5,1.1-1.9,1.1-1.9s-0.6,0.2-0.9-0.7s0.6-1,0.6-1s0.6-0.1,0.6,0.6v0.6l0.3,0.1
					c0.9-0.9,0.4-2,0.4-2c3.1,0.7,4.5-1.5,4.5-1.5c0.5-0.7-0.2-1.3-0.5-1.4c0,0-0.6-0.3-1,0c0,0,0.2,0.4,0.1,0.4
					c-0.1,0-7.5-2.3-6.3,2.5C157.2,144.7,156.9,144.2,156.9,144.2z"/>
				<path class="st24" d="M162.9,137.4c0,0-5.4-1.7-6.5,0.3c-0.5,0.8-0.8,1.9-0.2,3.4c0.3,0.8,0.7,1.3,0.8,3
					c1.5-0.5,1.1-1.9,1.1-1.9s-0.6,0.2-0.9-0.7c-0.2-0.9,0.6-1,0.6-1s0.6-0.1,0.6,0.6v0.6l0.3,0.1c0.9-0.9,0.4-2,0.4-2
					c3.1,0.7,4.5-1.5,4.5-1.5c0.5-0.7-0.2-1.3-0.5-1.4"/>
				<g>
					<circle class="st31" cx="162.7" cy="141.2" r="0.2"/>
					<circle class="st31" cx="160.3" cy="141.2" r="0.2"/>
					<path class="st24" d="M161.8,141.3c0,0-0.5,0.8,0.2,0.8c0.6,0.1,0.6,0,0.6,0.2c0,0.1,0,0.4-0.5,0.5c-0.4,0-0.5,0-0.5,0"/>
					<path class="st24" d="M162.1,143.6c0,0-0.9,0.3-1.5-0.2"/>
				</g>
				<path class="st39" d="M157.2,159.9C157.2,159.9,157.2,159.9,157.2,159.9c-0.2-0.2-0.4-0.4-0.5-0.6c0.5,0.2,1,0.4,1.5,0.5
					L157.2,159.9z"/>
				<path class="st39" d="M155.7,147c-0.1,0.2-0.6,0.7-1,1.6C154.9,147.9,155.3,147.4,155.7,147z"/>
				<path class="st24" d="M161.7,146.8c0,0,3.8,2.9,5,7.5c0,0,1.8,0.6,2.3,1.7c0.5,1.1,0.3,1.6,0.3,1.6l0,0c-0.2,0-0.4,0-0.6,0
					c-0.1,0-0.1,0-0.1,0c0-0.1,0-0.1,0-0.2c0.1-0.6-0.1-1.5-0.6-1.7c-0.4-0.2-0.8-0.2-1.2-0.1c-1.1-0.8-2.1-1.6-2.6-3.3
					C163.4,149.3,162.5,147.7,161.7,146.8L161.7,146.8z"/>
				<path class="st24" d="M155.7,146.9c0.4-0.4,0.8-0.7,1.2-0.8c0.2-0.1,0.4-0.1,0.6-0.2c0.1,0.6,0.4,1.7,2,1.7c0.8,0,1.6-0.5,1-1.1
					c0-0.2,0-0.4,0-0.6c0.3,0.1,0.8,0.4,1.3,0.9c0.8,0.9,1.8,2.5,2.6,5.4c0.5,1.8,1.5,2.5,2.6,3.3c-0.5,0.1-1,0.3-1.2,0.5
					c-0.3,0.2-0.4,0.4-0.4,0.4l0.4,1.7c0,0,0.2,0,0.5-0.1c0.2,0,0.3,0,0.5,0c0.2,0,0.5,0,0.7,0c0.3,0,0.5,0,0.7,0.1l-1.9,0.3
					l-0.4,0.1l-0.5-2.2c-1.7-0.9-6.2-0.7-6.2-0.7c0-0.8-0.8-0.7-0.8-0.7c0.1-0.8,0.5-2.6,0.2-4.8C158,148.1,156.6,147.5,155.7,146.9
					z"/>
				<path class="st39" d="M157.5,145.6v-1.8c0.8,0.9,1.9,1.5,2.9,1.5c0,0.1,0,0.4,0,0.6c0,0.2,0,0.4,0,0.6c0.6,0.5-0.2,1.1-1,1.1
					c-1.5,0-1.9-1.1-2-1.7C157.5,145.7,157.5,145.6,157.5,145.6z"/>
				<path class="st24" d="M155.7,146.9C155.7,146.9,155.7,146.9,155.7,146.9C155.7,146.9,155.7,147,155.7,146.9
					C155.7,146.9,155.7,146.9,155.7,146.9z"/>
				<path class="st24" d="M154.7,148.6c0.4-0.9,0.9-1.5,1-1.6c0,0,0,0,0,0c0.9,0.6,2.3,1.2,2.6,3.3c0.3,2.1,0,4-0.2,4.8
					c0,0,0.8-0.1,0.8,0.7c0,0,4.5-0.2,6.2,0.7l0.5,2.2l0.1,0.3c0,0-4.2,1.6-7.6,0.9c-0.5-0.1-1-0.3-1.5-0.5
					c-1.1-0.5-1.9-1.3-2.4-2.7C153.1,153.1,153.9,150.3,154.7,148.6z"/>
				<path class="st24" d="M178.1,169.5C178.1,169.5,178.1,169.5,178.1,169.5c0.4-0.3,1.5-1.1,2.3-1.6c0.6-0.4,1.1-0.6,1-0.2
					c-0.1,0.3-0.3,0.6-0.5,0.9c-1.4,1.9-4.6,3.3-4.6,3.3l-0.5-0.9L178.1,169.5z"/>
				<path class="st39" d="M178.1,169.5C178.1,169.5,178.1,169.5,178.1,169.5l-2.4,1.6l2.2-1.4C177.9,169.6,177.9,169.6,178.1,169.5z
					"/>
				<path class="st24" d="M183.4,167.4c0,0,2.6,0.8,3.9,0.5c1.2-0.3,2.2,0,0,0.8c-2.2,0.8-4.9,1.9-4.9,1.9l-1-1.8l1.2-0.8
					L183.4,167.4z"/>
				<polygon class="st39" points="182.5,168 181.4,168.8 181.4,168.8 				"/>
				<g>
					<path class="st40" d="M168,156.5c0.2,0.7,0.6,1,0.9,1.1c0,0.3,0,0.5,0,0.6c0,0.4,1.9,0.4,2.3,0.2c0.4-0.1,0.2-2.3,0.2-3.1
						c0-0.5-2.1-0.4-2.5-0.1c-0.1,0.1-0.1,0.2-0.1,0.4C168.5,155.7,167.8,155.9,168,156.5z M168.8,156.1c0,0.3,0,0.7,0.1,1.1
						c-0.2,0-0.4-0.2-0.5-0.6C168.3,156.2,168.6,156.1,168.8,156.1z"/>
					<path class="st24" d="M168.1,156.5c0.2,0.7,0.6,1,0.9,1.1c0,0.3,0,0.5,0,0.6c0,0.4,1.9,0.4,2.3,0.2c0.4-0.1,0.2-2.3,0.2-3.1
						c0-0.5-2.1-0.4-2.5-0.1c-0.1,0.1-0.1,0.2-0.1,0.4C168.6,155.7,168,155.9,168.1,156.5z M168.9,156c0,0.3,0,0.7,0.1,1.1
						c-0.2,0-0.4-0.2-0.5-0.6C168.4,156.2,168.7,156.1,168.9,156z"/>
				</g>
				<path class="st39" d="M165.6,156.1c0.3-0.2,0.7-0.4,1.2-0.5c0.4,0,0.8,0,1.2,0.1c0.5,0.2,0.7,1,0.6,1.7c0,0.1,0,0.1,0,0.2
					c0,0,0,0.1,0,0.1c0,0.1-0.1,0.3-0.1,0.4c-0.1,0.1-0.2,0.2-0.3,0.1c0,0-0.1,0-0.1,0c-0.2-0.1-0.4-0.1-0.7-0.1c-0.2,0-0.5,0-0.7,0
					c-0.2,0-0.4,0-0.5,0c-0.3,0-0.5,0.1-0.5,0.1l-0.4-1.7C165.1,156.5,165.3,156.3,165.6,156.1z"/>
			</g>
			<g>
				<path class="st33" d="M171.2,153.8c0.4-0.4-0.4-0.4-0.4-0.4c-0.1-0.5-0.4,0.3-0.4,0.3s-0.3,0.1,0,0.2
					C170.6,153.9,170.8,154.2,171.2,153.8z"/>
				<path class="st24" d="M170.3,153.6c0,0,0.3-0.7,0.4-0.3c0,0,0.8,0,0.4,0.4c-0.4,0.4-0.5,0.2-0.5,0.2"/>
				<path class="st33" d="M169.7,154.5c-0.1,0.3,0.4,0.1,0.4,0.1c0.2,0.2,0.1-0.3,0.1-0.3s0.1-0.2,0-0.1
					C170,154.2,169.8,154.1,169.7,154.5z"/>
				<path class="st24" d="M170.3,154.3c0,0,0.1,0.5-0.1,0.3c0,0-0.4,0.3-0.4-0.1c0.1-0.3,0.2-0.3,0.2-0.3"/>
			</g>
		</g>
		<g>
			<g>
				<path class="st22" d="M163.3,160.1v11.1c0,0.4-0.4,0.8-0.8,0.8s-0.8-0.4-0.8-0.8v-11.1c0,0,0,0,0,0L163.3,160.1
					C163.3,160.1,163.3,160.1,163.3,160.1z"/>
				<path class="st22" d="M150.5,170.9l5.4-10.8h1.8l-5.7,11.5c-0.2,0.4-0.7,0.6-1.1,0.4C150.5,171.8,150.3,171.3,150.5,170.9z"/>
				<path class="st22" d="M153,158.5h12.7c0.4,0,0.8,0.4,0.8,0.8c0,0.4-0.4,0.8-0.8,0.8h-2.4h-1.6h-4.1h-1.8H153
					c-0.4,0-0.8-0.4-0.8-0.8C152.2,158.9,152.6,158.5,153,158.5z"/>
			</g>
			<path class="st22" d="M154.6,166.2h7.2v-1.6h-7.2c0,0-0.8,0.1-0.8,0.8C153.7,165.5,153.8,166.2,154.6,166.2z"/>
		</g>
		<g>
			<path class="st24" d="M163.3,160v11.1c0,0.4-0.4,0.8-0.8,0.8c-0.4,0-0.8-0.4-0.8-0.8V160c0,0,0,0,0,0L163.3,160
				C163.3,160,163.3,160,163.3,160z"/>
			<path class="st24" d="M150.5,170.8l5.4-10.8h1.8l-2.2,4.5h-0.9c0,0-0.8,0.1-0.8,0.8c0,0,0.1,0.8,0.8,0.8h0.1l-2.7,5.4
				c-0.2,0.4-0.7,0.6-1.1,0.4C150.5,171.6,150.3,171.2,150.5,170.8z"/>
			<path class="st24" d="M153,160c-0.4,0-0.8-0.4-0.8-0.8s0.4-0.8,0.8-0.8h12.7c0.4,0,0.8,0.4,0.8,0.8s-0.4,0.8-0.8,0.8h-2.4h-1.6
				h-4.1h-1.8H153z"/>
			<path class="st24" d="M154.6,164.5h0.9h6.3v1.6h-7.1h-0.1c-0.8,0-0.8-0.8-0.8-0.8C153.7,164.6,154.6,164.5,154.6,164.5z"/>
		</g>
	</g>
</g>
<g>
	<path class="st10" d="M122,178.9c-1.7-3.1,8.5-1.9,23.4-1.6s18.6,0.6,18.3,2.5c-0.3,1.9-10.9,0.5-23.3,0.8S123.4,181.3,122,178.9z"
		/>
	<g>
		<g>
			<g>
				<g>
					<path class="st22" d="M151.1,167.1V179c0,0.5-0.4,0.9-0.9,0.9s-0.9-0.4-0.9-0.9v-11.9c0,0,0,0,0,0L151.1,167.1
						C151.1,167.1,151.1,167.1,151.1,167.1z"/>
					<path class="st22" d="M137.3,178.6l5.8-11.5h1.9l-6.1,12.3c-0.2,0.4-0.7,0.6-1.1,0.4C137.3,179.5,137.1,179,137.3,178.6z"/>
					<path class="st22" d="M140,165.4h13.6c0.5,0,0.9,0.4,0.9,0.9c0,0.5-0.4,0.9-0.9,0.9h-2.6h-1.7H145h-1.9H140
						c-0.5,0-0.9-0.4-0.9-0.9C139.1,165.7,139.5,165.4,140,165.4z"/>
				</g>
				<path class="st22" d="M141.6,173.6h7.7v-1.7h-7.7c0,0-0.9,0.1-0.9,0.9C140.7,172.8,140.8,173.6,141.6,173.6z"/>
			</g>
			<g>
				<path class="st24" d="M151.1,166.9v11.9c0,0.5-0.4,0.9-0.9,0.9s-0.9-0.4-0.9-0.9v-11.9c0,0,0,0,0,0L151.1,166.9
					C151.1,166.9,151.1,166.9,151.1,166.9z"/>
				<path class="st24" d="M137.3,178.5l5.8-11.5h1.9l-2.4,4.8h-0.9c0,0-0.9,0.1-0.9,0.9c0,0,0.1,0.8,0.9,0.8h0.1l-2.9,5.8
					c-0.2,0.4-0.7,0.6-1.1,0.4C137.3,179.4,137.1,178.9,137.3,178.5z"/>
				<path class="st24" d="M140,166.9c-0.5,0-0.9-0.4-0.9-0.9c0-0.5,0.4-0.9,0.9-0.9h13.6c0.5,0,0.9,0.4,0.9,0.9
					c0,0.5-0.4,0.9-0.9,0.9h-2.6h-1.7H145h-1.9H140z"/>
				<path class="st24" d="M141.6,171.7h0.9h6.8v1.7h-7.6h-0.1c-0.8,0-0.9-0.8-0.9-0.8C140.7,171.8,141.6,171.7,141.6,171.7z"/>
			</g>
		</g>
		<g>
			<polygon class="st22" points="124.6,151.9 132,170.6 143.2,170.6 143.2,171.6 131.5,171.6 123.9,152.2 			"/>
			
				<rect x="143.2" y="170.6" transform="matrix(-1 -4.528257e-11 4.528257e-11 -1 296.2602 342.2043)" class="st22" width="9.8" height="0.9"/>
			<polygon class="st22" points="134.4,151.9 124.6,151.9 132,170.6 141.8,170.6 			"/>
		</g>
		<g>
			<polygon class="st24" points="124.7,151.8 132,170.5 143.3,170.5 143.3,171.5 131.5,171.5 123.9,152.1 			"/>
			
				<rect x="143.3" y="170.5" transform="matrix(-1 -4.491131e-11 4.491131e-11 -1 296.3992 342.0207)" class="st24" width="9.8" height="0.9"/>
			<polygon class="st24" points="134.5,151.8 124.7,151.8 132,170.5 141.8,170.5 			"/>
		</g>
		<g>
			<g>
				<path class="st41" d="M139,149c0,0,0.5-0.6,0.4-1.5c0,0-0.5-3-4.8-2.6c-2.7,0.3-3,3.7-3.2,4.9c-0.2,2.9-3.3,3-4.3,4.3
					c-1,1.3-0.5,3.1,1,3.5c3,0.8,5.1,0.9,6.7-1.3c0.6-0.9,2.2,0.3,3.7-0.9c1.5-1.2,0-4.1-0.2-4.6C138.1,150.4,139,149,139,149"/>
				<path class="st26" d="M133.9,153.8C133.9,153.8,133.9,153.8,133.9,153.8l0-2.3c0,0,0,0,0,0c0.3,0.5,1,1.4,2.4,1.8
					c0.1,0,0.2,0,0.3,0c0,0.4,0,0.9,0,1.1c0,0.1,0,0.1,0,0.1c0.6,0.5-0.2,0.9-0.9,0.9C133.9,155.4,133.9,153.8,133.9,153.8z"/>
				<path class="st26" d="M138.7,148c0-0.1-0.1-0.2-0.1-0.3c0,0,0,0,0,0c0-0.1,0-0.1-0.1-0.2c0,0,0,0,0,0c0,0,0-0.1-0.1-0.1
					c0,0,0,0,0,0c0,0-0.1-0.1-0.1-0.1c0,0,0,0,0,0c0,0-0.1-0.1-0.1-0.1c0,0,0,0,0,0c-0.1-0.1-0.2-0.2-0.3-0.3c0,0-0.1,0.8-0.7,1.3
					c-0.4,0.4-1.1,0.6-2.1,0.2c0,0.7-0.2,1.1-0.3,1.2c-0.2,0.1-0.3,0.1-0.3,0.1c0-0.6-0.6-0.6-0.6-0.6s0,0,0,0c0,0-0.1,0-0.1,0
					c0,0-0.1,0-0.1,0.1c0,0,0,0,0,0c-0.1,0-0.1,0.1-0.2,0.1c0,0,0,0,0,0c0,0-0.1,0.1-0.1,0.1c0,0,0,0,0,0c0,0.1-0.1,0.1-0.1,0.2
					c0,0.1,0,0.2,0,0.4c0,0,0,0,0,0c0,0.1,0,0.1,0.1,0.2c0,0,0,0,0,0.1c0,0,0,0.1,0.1,0.1c0,0,0,0,0,0c0,0,0,0.1,0.1,0.1
					c0,0,0,0,0,0c0,0,0,0,0.1,0.1c0,0,0,0,0,0c0,0,0,0,0.1,0c0,0,0,0,0,0c0,0,0,0,0,0c0,0,0,0,0,0c0,0,0,0,0,0c0,0,0,0,0,0
					c0,0,0,0,0,0c0,0,0,0,0.1,0c0,0,0,0,0,0c0,0,0,0,0,0c0,0,0,0,0,0c0,0,0,0,0,0c0,0,0,0,0,0c0,0,0,0,0,0s0.1,0.6-0.2,1.1
					c0,0,0,0,0,0c0.3,0.5,1,1.4,2.4,1.8c0.1,0,0.2,0,0.3,0c0.8-0.2,1.8-1.2,2-2.4C138.8,150.2,138.8,148.8,138.7,148z"/>
				<path class="st24" d="M133.6,151.9c0.8-0.6,0.5-1.5,0.5-1.5s-0.6,0.2-0.8-0.6c-0.2-0.8,0.6-0.9,0.6-0.9s0.6-0.1,0.6,0.6
					c0,0,0.7,0.2,0.7-1.3c2.3,1,2.8-1.4,2.8-1.4c0.9,0.6,0.8,2,0.8,2s0.5-0.6,0.4-1.5c0,0-0.5-3-4.8-2.6c-2.7,0.3-3,3.7-3.2,4.9
					c-0.2,2.9-3.3,3-4.3,4.3s-0.5,3.1,1,3.5c0,0,0.4,0.1,1,0"/>
				<path class="st24" d="M137.8,146.4c0,0-0.7-1.3-1.8-1.4"/>
				<path class="st35" d="M153.4,176.5C153.4,176.5,153.4,176.5,153.4,176.5c0.4-0.3,1.4-1,2.2-1.5c0.6-0.3,1-0.5,0.9-0.2
					c-0.1,0.3-0.3,0.6-0.5,0.9c-1.3,1.8-4.4,3.2-4.4,3.2l-0.5-0.8L153.4,176.5z"/>
				<path class="st35" d="M158.5,174.5c0,0,2.5,0.8,3.7,0.5c1.2-0.3,2.1,0,0,0.7c-2.1,0.7-4.6,1.8-4.6,1.8l-1-1.7l1.1-0.8
					L158.5,174.5z"/>
				<path class="st36" d="M134.5,167.2c3.2,0.6,7.2-0.9,7.2-0.9l-0.1-0.3l0.4-0.1l1.8-0.3c0,0,0.1,0,0.1,0c0.1,0.1,0.2,0,0.3-0.1
					c0.1-0.1,0.1-0.2,0.1-0.3c0,0,0-0.1,0-0.1c0,0,0.1,0,0.1,0c0.2,0,0.4,0,0.5,0c2.3-0.2,5.3-0.3,6.9,0.2c2.7,0.9,1.5,3.5,6.7,9
					l-1,0.7l-1.1,0.8v0l-0.2,0.2c0,0-0.1-0.1-0.2-0.4c0.2-0.3,0.4-0.6,0.5-0.9c0.1-0.3-0.3-0.1-0.9,0.2c-1.1-1.5-3.2-4.3-4.4-5.3
					c1.3,4.3,2.1,6.6,2.2,6.8c-0.1,0.1-0.2,0.2-0.2,0.2l-2.1,1.4c-1.2-0.9-4.4-7.6-4.8-8.3c0,0,0-0.1,0-0.1c-0.1,0-0.3,0.1-0.4,0.1
					c-11.9,2.6-12.4-2.2-12.5-2.4c0,0,0,0,0,0L134.5,167.2z"/>
				<path class="st24" d="M144.4,165.1c0,0,0-0.1,0-0.1c0,0,0.1,0,0.1,0c0.2,0,0.4,0,0.5,0c2.3-0.2,5.3-0.3,6.9,0.2
					c2.7,0.9,1.5,3.5,6.7,9l-1,0.7l-1.1,0.8v0l-0.2,0.2c0,0-0.1-0.1-0.2-0.4c0.2-0.3,0.4-0.6,0.5-0.9c0.1-0.3-0.3-0.1-0.9,0.2
					c-1.1-1.5-3.2-4.3-4.4-5.3c-0.1-0.3-0.2-0.5-0.2-0.8c-0.7-2.4-1-4.2-6.2-3.4c-0.2,0-0.3,0.1-0.5,0.1
					C144.3,165.4,144.4,165.3,144.4,165.1z"/>
				<path class="st24" d="M134.5,167c3.2,0.6,7.2-0.9,7.2-0.9l-0.1-0.3l0.4-0.1l1.8-0.3c0,0,0.1,0,0.1,0c0.1,0.1,0.2,0,0.3-0.1
					c0.2,0,0.4-0.1,0.5-0.1c5.2-0.8,5.5,1,6.2,3.4c0.1,0.3,0.2,0.5,0.2,0.8c1.3,4.3,2.1,6.6,2.2,6.8c-0.1,0.1-0.2,0.2-0.2,0.2
					l-2.1,1.4c-1.2-0.9-4.4-7.6-4.8-8.3c0,0,0-0.1,0-0.1c-0.1,0-0.3,0.1-0.4,0.1c-11.9,2.6-12.4-2.2-12.5-2.4c0,0,0,0,0,0L134.5,167
					z"/>
				<path class="st39" d="M132.1,154.9c-0.1,0.1-0.5,0.7-0.9,1.6C131.4,155.8,131.8,155.3,132.1,154.9z"/>
				<path class="st38" d="M137.9,154.8c0,0,3.6,2.8,4.8,7.1c0,0,1.7,0.5,2.2,1.6c0.5,1,0.2,1.5,0.2,1.5l0,0c-0.2,0-0.4,0-0.5,0
					c0,0-0.1,0-0.1,0c0-0.1,0-0.1,0-0.2c0.1-0.6-0.1-1.4-0.6-1.6c-0.4-0.2-0.8-0.2-1.1-0.1c-1-0.8-2-1.5-2.4-3.2
					C139.6,157.1,138.7,155.6,137.9,154.8L137.9,154.8z"/>
				<path class="st37" d="M132.2,154.9c0.4-0.4,0.7-0.7,1.1-0.8c0.2-0.1,0.4-0.1,0.6-0.2c0.1,0.5,0.4,1.6,1.9,1.6
					c0.7,0,1.5-0.5,0.9-1c0-0.2,0-0.4,0-0.6c0.3,0.1,0.7,0.4,1.2,0.9c0.8,0.8,1.7,2.4,2.4,5.2c0.5,1.7,1.4,2.4,2.4,3.2
					c-0.5,0.1-0.9,0.3-1.2,0.5c-0.3,0.2-0.4,0.4-0.4,0.4l0.4,1.7c0,0,0.2,0,0.5-0.1c0.1,0,0.3,0,0.5,0c0.2,0,0.4,0,0.7,0
					c0.3,0,0.5,0,0.7,0.1l-1.8,0.3l-0.4,0.1l-0.5-2.1c-1.6-0.9-5.9-0.7-5.9-0.7c0-0.7-0.7-0.6-0.7-0.6c0.1-0.7,0.5-2.5,0.1-4.5
					C134.4,156,133.1,155.4,132.2,154.9z"/>
				<path class="st38" d="M131.3,156.4c0.4-0.9,0.8-1.4,0.9-1.6c0,0,0,0,0,0c0.9,0.5,2.2,1.1,2.5,3.2c0.3,2,0,3.8-0.1,4.5
					c0,0,0.7-0.1,0.7,0.6c0,0,4.3-0.2,5.9,0.7l0.5,2.1l0.1,0.3c0,0-4,1.5-7.2,0.9c-0.5-0.1-1-0.2-1.4-0.4c-1-0.5-1.8-1.3-2.2-2.6
					C129.8,160.7,130.5,158,131.3,156.4z"/>
				<path class="st24" d="M137.9,154.7c0,0,3.6,2.8,4.8,7.1c0,0,1.7,0.5,2.2,1.6c0.5,1,0.2,1.5,0.2,1.5l0,0c-0.2,0-0.4,0-0.5,0
					c0,0-0.1,0-0.1,0c0-0.1,0-0.1,0-0.2c0.1-0.6-0.1-1.4-0.6-1.6c-0.4-0.2-0.8-0.2-1.1-0.1c-1-0.8-2-1.5-2.4-3.2
					C139.5,157.1,138.6,155.6,137.9,154.7L137.9,154.7z"/>
				<path class="st24" d="M132.2,154.8c0.4-0.4,0.7-0.7,1.1-0.8c0.2-0.1,0.4-0.1,0.6-0.2c0.1,0.5,0.4,1.6,1.9,1.6
					c0.7,0,1.5-0.5,0.9-1c0-0.2,0-0.4,0-0.6c0.3,0.1,0.7,0.4,1.2,0.9c0.8,0.8,1.7,2.4,2.4,5.2c0.5,1.7,1.4,2.4,2.4,3.2
					c-0.5,0.1-0.9,0.3-1.2,0.5c-0.3,0.2-0.4,0.4-0.4,0.4l0.4,1.7c0,0,0.2,0,0.5-0.1c0.1,0,0.3,0,0.5,0c0.2,0,0.4,0,0.7,0
					c0.3,0,0.5,0,0.7,0.1l-1.8,0.3l-0.4,0.1l-0.5-2.1c-1.6-0.9-5.9-0.7-5.9-0.7c0-0.7-0.7-0.6-0.7-0.6c0.1-0.7,0.5-2.5,0.1-4.5
					C134.3,156,133,155.4,132.2,154.8z"/>
				<path class="st24" d="M132.2,154.8C132.2,154.8,132.2,154.8,132.2,154.8C132.1,154.9,132.1,154.9,132.2,154.8
					C132.1,154.9,132.2,154.8,132.2,154.8z"/>
				<path class="st24" d="M131.2,156.4c0.4-0.9,0.8-1.4,0.9-1.6c0,0,0,0,0,0c0.9,0.5,2.2,1.1,2.5,3.2c0.3,2,0,3.8-0.1,4.5
					c0,0,0.7-0.1,0.7,0.6c0,0,4.3-0.2,5.9,0.7l0.5,2.1l0.1,0.3c0,0-4,1.5-7.2,0.9c-0.5-0.1-1-0.2-1.4-0.4c-1-0.5-1.8-1.3-2.2-2.6
					C129.7,160.7,130.4,158,131.2,156.4z"/>
				<path class="st24" d="M153.4,176.3C153.4,176.3,153.4,176.3,153.4,176.3c0.4-0.3,1.4-1,2.2-1.5c0.6-0.3,1-0.5,0.9-0.2
					c-0.1,0.3-0.3,0.6-0.5,0.9c-1.3,1.8-4.4,3.2-4.4,3.2l-0.5-0.8L153.4,176.3z"/>
				<path class="st39" d="M153.4,176.3C153.4,176.3,153.4,176.3,153.4,176.3l-2.3,1.5l2.1-1.4C153.2,176.4,153.3,176.4,153.4,176.3z
					"/>
				<path class="st24" d="M158.5,174.3c0,0,2.5,0.8,3.7,0.5c1.2-0.3,2.1,0,0,0.7c-2.1,0.7-4.6,1.8-4.6,1.8l-1-1.7l1.1-0.8
					L158.5,174.3z"/>
				<polygon class="st39" points="157.7,174.9 156.6,175.7 156.6,175.7 				"/>
				<g>
					<path class="st32" d="M143.8,164c0.1,0.7,0.6,1,0.9,1c0,0.2,0,0.4,0,0.5c0,0.4,1.8,0.3,2.2,0.2c0.4-0.1,0.2-2.2,0.2-2.9
						c0-0.4-2-0.3-2.3-0.1c-0.1,0.1-0.1,0.2-0.1,0.4C144.3,163.2,143.7,163.4,143.8,164z M144.6,163.6c0,0.3,0,0.7,0.1,1
						c-0.2,0-0.4-0.2-0.5-0.6C144.1,163.7,144.4,163.6,144.6,163.6z"/>
					<path class="st24" d="M144,163.9c0.1,0.7,0.6,1,0.9,1c0,0.2,0,0.4,0,0.5c0,0.4,1.8,0.3,2.2,0.2s0.2-2.2,0.2-2.9
						c0-0.4-2-0.3-2.3-0.1c-0.1,0.1-0.1,0.2-0.1,0.4C144.4,163.2,143.8,163.3,144,163.9z M144.7,163.5c0,0.3,0,0.7,0.1,1
						c-0.2,0-0.4-0.2-0.5-0.6C144.2,163.6,144.6,163.5,144.7,163.5z"/>
				</g>
				<path class="st26" d="M141.6,163.6c0.3-0.2,0.7-0.4,1.2-0.5c0.3,0,0.7,0,1.1,0.1c0.5,0.2,0.7,1,0.6,1.6c0,0.1,0,0.1,0,0.2
					c0,0,0,0.1,0,0.1c0,0.1-0.1,0.3-0.1,0.3c-0.1,0.1-0.2,0.2-0.3,0.1c0,0-0.1,0-0.1,0c-0.2-0.1-0.4-0.1-0.7-0.1c-0.2,0-0.4,0-0.7,0
					c-0.2,0-0.3,0-0.5,0c-0.3,0-0.5,0.1-0.5,0.1l-0.4-1.7C141.1,163.9,141.3,163.7,141.6,163.6z"/>
				<g>
					<path class="st33" d="M146.9,161.4c0.4-0.4-0.4-0.4-0.4-0.4c-0.1-0.5-0.4,0.2-0.4,0.2s-0.3,0.1,0,0.2
						C146.3,161.5,146.6,161.8,146.9,161.4z"/>
					<path class="st24" d="M146.1,161.1c0,0,0.3-0.7,0.4-0.2c0,0,0.7,0,0.4,0.4c-0.4,0.4-0.5,0.2-0.5,0.2"/>
					<path class="st33" d="M145.5,162c-0.1,0.3,0.3,0.1,0.3,0.1c0.2,0.2,0.1-0.3,0.1-0.3s0.1-0.2,0-0.1S145.6,161.7,145.5,162z"/>
					<path class="st24" d="M146,161.8c0,0,0.1,0.5-0.1,0.3c0,0-0.4,0.3-0.3-0.1c0.1-0.3,0.2-0.3,0.2-0.3"/>
				</g>
				<g>
					<circle class="st31" cx="138.1" cy="149.2" r="0.2"/>
					<circle class="st31" cx="135.9" cy="149.2" r="0.2"/>
					<path class="st24" d="M137.3,149.3c0,0-0.4,0.7,0.2,0.8c0,0,0.1,0.6-0.7,0.4"/>
					<path class="st24" d="M137.6,151.4c0,0-0.9,0.3-1.4-0.2"/>
				</g>
			</g>
		</g>
		<g>
			<g>
				<g>
					<path class="st22" d="M141,167.1V179c0,0.5-0.4,0.9-0.9,0.9s-0.9-0.4-0.9-0.9v-11.9c0,0,0,0,0,0L141,167.1
						C141,167.1,141,167.1,141,167.1z"/>
					<path class="st22" d="M127.3,178.6l5.8-11.5h1.9l-6.1,12.3c-0.2,0.4-0.7,0.6-1.1,0.4C127.2,179.5,127.1,179,127.3,178.6z"/>
					<path class="st22" d="M129.9,165.4h13.6c0.5,0,0.9,0.4,0.9,0.9c0,0.5-0.4,0.9-0.9,0.9H141h-1.7h-4.4H133h-3.1
						c-0.5,0-0.9-0.4-0.9-0.9C129.1,165.7,129.4,165.4,129.9,165.4z"/>
				</g>
				<path class="st22" d="M131.6,173.6h7.7v-1.7h-7.7c0,0-0.9,0.1-0.9,0.9C130.7,172.8,130.8,173.6,131.6,173.6z"/>
			</g>
			<g>
				<path class="st24" d="M141,166.9v11.9c0,0.5-0.4,0.9-0.9,0.9s-0.9-0.4-0.9-0.9v-11.9c0,0,0,0,0,0L141,166.9
					C141,166.9,141,166.9,141,166.9z"/>
				<path class="st24" d="M127.3,178.5l5.8-11.5h1.9l-2.4,4.8h-0.9c0,0-0.9,0.1-0.9,0.9c0,0,0.1,0.8,0.9,0.8h0.1l-2.9,5.8
					c-0.2,0.4-0.7,0.6-1.1,0.4C127.2,179.4,127.1,178.9,127.3,178.5z"/>
				<path class="st24" d="M129.9,166.9c-0.5,0-0.9-0.4-0.9-0.9c0-0.5,0.4-0.9,0.9-0.9h13.6c0.5,0,0.9,0.4,0.9,0.9
					c0,0.5-0.4,0.9-0.9,0.9H141h-1.7h-4.4H133H129.9z"/>
				<path class="st24" d="M131.6,171.7h0.9h6.8v1.7h-7.6h-0.1c-0.8,0-0.9-0.8-0.9-0.8C130.7,171.8,131.6,171.7,131.6,171.7z"/>
			</g>
		</g>
	</g>
</g>
<g>
	<g>
		<path class="st10" d="M181.8,186.4c1.4-1.7,17.7-3.6,28.9-2.7s24.2,2.6,24.4,4.8c0.2,2.2-17.2,4.4-25.9,3.4
			c-8.7-1-21.7-0.7-24-1.6C182.9,189.2,180.5,188,181.8,186.4z"/>
		<g>
			<g>
				<g>
					<path class="st42" d="M236.2,185.2h-12.2c0,1-3.6,1.9-8.8,2.3l5.7,1.8C229.9,188.6,236.2,187.1,236.2,185.2z"/>
					<path class="st42" d="M208.6,187.8c-2.6,0-5-0.1-7.2-0.3l-5.7,1.8c3.8,0.3,8.2,0.5,12.9,0.5c4.4,0,8.5-0.2,12.2-0.5l-5.7-1.8
						C213.1,187.7,210.9,187.8,208.6,187.8z"/>
					<path class="st42" d="M223.9,185.2h12.2c0-1.8-6-3.3-14.8-4.1l-5.7,1.8C220.6,183.4,223.9,184.3,223.9,185.2z"/>
				</g>
				<g>
					<ellipse class="st43" cx="208.6" cy="174.5" rx="15.3" ry="2.6"/>
					<path class="st42" d="M193.3,185.2c0,1.4,6.9,2.6,15.3,2.6c8.5,0,15.3-1.1,15.3-2.6v-10.7c0,1.4-6.9,2.6-15.3,2.6
						c-8.5,0-15.3-1.1-15.3-2.6V185.2z"/>
				</g>
				<polygon class="st42" points="195.8,189.3 195.8,178.5 201.4,176.7 201.4,187.5 				"/>
				<ellipse class="st44" cx="208.6" cy="174.5" rx="12.4" ry="2.1"/>
				<g>
					<path class="st42" d="M236.2,174.5h-12.2c0,1-3.6,1.9-8.8,2.3l5.7,1.8C229.9,177.9,236.2,176.3,236.2,174.5z"/>
					<path class="st42" d="M208.6,177c-2.6,0-5-0.1-7.2-0.3l-5.7,1.8c3.8,0.3,8.2,0.5,12.9,0.5c4.4,0,8.5-0.2,12.2-0.5l-5.7-1.8
						C213.1,176.9,210.9,177,208.6,177z"/>
					<path class="st42" d="M208.6,171.9c2.5,0,4.9,0.1,7,0.3l5.7-1.8c-3.8-0.3-8.1-0.5-12.7-0.5c-4.9,0-9.4,0.2-13.4,0.6l5.7,1.8
						C203.2,172.1,205.8,171.9,208.6,171.9z"/>
					<path class="st42" d="M223.9,174.5h12.2c0-1.8-6-3.3-14.8-4.1l-5.7,1.8C220.6,172.6,223.9,173.5,223.9,174.5z"/>
					<path class="st42" d="M200.9,172.3l-5.7-1.8c-8.4,0.8-14.1,2.3-14.1,4h12.2C193.3,173.5,196.4,172.7,200.9,172.3z"/>
				</g>
				<rect x="181.1" y="174.5" class="st42" width="12.2" height="11"/>
				<path class="st45" d="M217.8,175.6c0.1-0.4-0.4-0.7-0.7-0.6l-1,0.1c-0.1-0.4-0.8-0.6-0.9-0.5c-0.1,0.1-1,0.3-1,0.3
					c-0.2-0.4-0.7-0.3-0.9-0.2c-0.3,0.1-2.7,0.4-2.7,0.4s-0.1-0.2-0.6-0.5c-0.5-0.2-1.9,0.6-1.9,0.6s-0.2-0.2-0.6-0.2
					s-0.6,0.3-0.6,0.3c-0.3,0-1-0.3-1.5-0.5c-0.5-0.2-0.8,0.4-0.8,0.4c-0.5,0-1.8-0.5-2.2-0.5s-0.4,0.7-0.4,0.7
					c-1-0.1-1.1-0.3-1.3,0c-0.2,0.3,0,0.8,0,0.8c2,0.4,4.9,0.6,8.1,0.6c4.1,0,7.6-0.4,9.4-0.9l0,0L217.8,175.6z"/>
				<path class="st44" d="M217.7,175.6c0.1-0.4-0.4-0.7-0.7-0.6l-1,0.1c-0.1-0.4-0.8-0.6-0.9-0.5c-0.1,0.1-1,0.3-1,0.3
					c-0.2-0.4-0.7-0.3-0.9-0.2s-2.7,0.4-2.7,0.4s-0.1-0.2-0.6-0.5c-0.5-0.2-1.9,0.6-1.9,0.6s-0.2-0.2-0.6-0.2s-0.6,0.3-0.6,0.3
					c-0.3,0-1-0.3-1.5-0.5c-0.5-0.2-0.8,0.4-0.8,0.4c-0.5,0-1.8-0.5-2.2-0.5c-0.4,0-0.4,0.7-0.4,0.7c-1-0.1-1.1-0.3-1.3,0
					c-0.2,0.3,0,0.8,0,0.8c2,0.4,4.9,0.6,8.1,0.6c4.1,0,7.6-0.4,9.4-0.9l0,0L217.7,175.6z"/>
				<path class="st44" d="M201.7,175.2c0,0,4.7,0.5,5.1,0.4"/>
				<line class="st44" x1="204.3" y1="175.1" x2="206.8" y2="175.4"/>
				<path class="st44" d="M214,174.9c0,0-2,0.4-2.2,0.4"/>
				<path class="st44" d="M215.9,175.1c0,0-3.5,0.5-4.6,0.6"/>
			</g>
			<g>
				<path class="st46" d="M200.5,178.8l-3.1,1.1c0,0-0.1,1.5,1.2,1.7c0,0-1.3,0.2-1.2,1.5l1.5,0.6l-1,1.2l-0.8,0.2
					c0,0-0.1,1.7,1.3,1.6c0,0-0.1,2.1,1.8,2.1l0.8-0.5l0.3,0.9l1.8,0.1l0.9-0.7l0.9,0.6l2-0.4l1.5,0.5l0.4-0.7c0,0,1.1,0.9,2.1,0.6
					l0.5-2.2l0.8,2.2h1.5l0.8-1.2c0,0,0.5,1.4,1.7,1.2l1-1.4c0,0,0.3,1.2,0.9,1.2l1.9-0.5c0,0,1,0.2,2.2,0l0.5-1.6
					c0,0,0.6,1.5,2.5,1.3l-0.2-1.7l1.2-0.1l0.7,1.6c0,0,1.8-0.2,1.8-1.7l0.4,1.2c0,0,2.4,0,2.5-0.9l1.4,0l0.6-2l-0.6-0.5h2v-2
					l-0.9-0.4l1.6-0.4v-2l-2.1,0l0-1.6l2-0.3v-1.1l-1.3-0.4C234.5,176.1,226,179.9,200.5,178.8z"/>
				<g>
					<path class="st47" d="M198.4,185.5l1.6,0.2c0,0,0.7-1.3-0.5-1.5"/>
					<path class="st47" d="M203.2,181.9c-1.2,0-1.1-1.3-1.1-1.3h1.5"/>
					<polyline class="st47" points="201,186.3 202.3,186.1 202.8,187.6 202.1,188.1 					"/>
					<path class="st47" d="M206.9,188.4c0,0,0.8-1.3,1.8-0.1"/>
					<path class="st47" d="M204,185.3l1.5-0.4l0.3,1c0,0-1.1,0.5-1.6-0.3"/>
					<path class="st47" d="M210,185.3l1.5-0.4l0.3,1c0,0-1.1,0.5-1.6-0.3"/>
					<path class="st47" d="M218.6,187.1l-1.5,0.2l-0.1-1c0,0,1.2-0.4,1.5,0.5"/>
					<path class="st47" d="M204.5,182.4l1.5,0.2l-0.3,1.5c0,0-1.2-0.2-1.3-1.2"/>
				</g>
				<polyline class="st44" points="198.4,180.1 199.4,180.1 199,181.4 				"/>
				<line class="st44" x1="199" y1="182" x2="199.2" y2="183.4"/>
				<path class="st44" d="M198.4,185.3l1.6,0.2c0,0,0.7-1.3-0.5-1.5"/>
				<line class="st44" x1="199" y1="186.6" x2="199.4" y2="185.7"/>
				<line class="st44" x1="199.8" y1="186.8" x2="201.1" y2="188"/>
				<line class="st47" x1="201.1" y1="180.2" x2="199.8" y2="181.4"/>
				<line class="st44" x1="200.2" y1="182" x2="201.3" y2="182.7"/>
				<path class="st44" d="M203.1,181.7c-1.2,0-1.1-1.3-1.1-1.3h1.5"/>
				<line class="st44" x1="205.1" y1="180.4" x2="204.2" y2="181.7"/>
				<line class="st44" x1="206.1" y1="180.4" x2="206.6" y2="181.9"/>
				<path class="st44" d="M202.4,182.4l-0.6,1.7c0,0,1.9,1.2,2.1-0.4"/>
				<polyline class="st44" points="201,186.1 202.2,185.9 202.8,187.4 202,187.9 				"/>
				<polyline class="st44" points="204,187.4 203.7,186.6 205.7,186.6 206,188 				"/>
				<polyline class="st44" points="207.1,182.5 207.5,181.6 208.9,183 208.1,184.3 				"/>
				<polyline class="st44" points="212.8,183 213.2,182.2 214.6,183.5 213.9,184.8 				"/>
				<path class="st44" d="M206.9,188.2c0,0,0.8-1.3,1.8-0.1"/>
				<line class="st44" x1="210.9" y1="186.9" x2="209.3" y2="188.2"/>
				<line class="st44" x1="213.9" y1="185.8" x2="214.4" y2="187.8"/>
				<path class="st44" d="M204,185.1l1.5-0.4l0.3,1c0,0-1.1,0.5-1.6-0.3"/>
				<path class="st44" d="M210,185.1l1.5-0.4l0.3,1c0,0-1.1,0.5-1.6-0.3"/>
				<path class="st44" d="M218.6,186.9l-1.5,0.2l-0.1-1c0,0,1.2-0.4,1.5,0.5"/>
				<path class="st44" d="M204.4,182.2l1.5,0.2l-0.3,1.5c0,0-1.2-0.2-1.3-1.2"/>
				<path class="st44" d="M208.6,180.5l1.5,0.2l-0.3,1.5c0,0-1.2-0.2-1.3-1.2"/>
				<line class="st44" x1="206.3" y1="184.5" x2="207.3" y2="184.5"/>
				<polyline class="st44" points="207.3,185.4 206.8,186.3 208.3,186.9 208.7,186 				"/>
				<path class="st47" d="M198.1,179.9h1.7l0.9-0.2l0.7,0.5h0.5l0.9-0.5l0.2,0.4l0.7,0.1h1.4l0.6-0.6l0.3,0.6h1.3l0.8-0.6l0.3,0.6
					l0.8,0.1l0.4-0.6l1.1,1h0.9l0.5-0.8l0.7,0.8c0,0,1.7,0,1.8-0.1c0-0.1,0-0.6,0-0.6l3,0.6l0.6-0.8l3.1,0.7l1.7-0.2l-0.1-0.5
					l1.7,0.3l1.1-0.8h1.9l0.4-0.3c0,0,0.4,0.4,0.5,0.4s0.5,0,0.6,0s1.4-0.3,1.7-0.4s1.1-0.1,1-0.3c0-0.1-0.2-0.6-0.2-0.6
					s1.5,0,1.6,0s2.2-1.1,2.2-1.1l-1-0.5c0,0-10,4.1-33.9,2.6L198.1,179.9z"/>
			</g>
		</g>
	</g>
	<g class="st48">
		<path class="st22" d="M226.3,162.8c-4.9,6.7-3.4,12.9-14.9,12.9s-14.9-0.3-14.9-7.6s-9-20.5,14.9-19.1
			C222.8,149.7,232.2,154.7,226.3,162.8z"/>
		<path class="st22" d="M229.3,156.2c2.8,1.6,5.8,1.5,5.1,4.4s-1.1,3.8-4.5,3.4c-3.5-0.4-10.2,1.3-8-4.7
			C222.9,156.5,225.9,154.3,229.3,156.2z"/>
		<path class="st22" d="M198.9,159.3c0.9,1.2,2.5,1.5,1.2,2.9c-1.3,1.4-1.8,1.8-3.4,1.1s-5.6-0.7-2.5-3.5
			C195.6,158.6,197.8,157.9,198.9,159.3z"/>
		<path class="st22" d="M195.3,148.9c0,1.1-0.4,1-1.9,1s-1.9-1.8-1.9-2.9c0-1.1,0.4-1,1.9-1S195.3,147.8,195.3,148.9z"/>
		<path class="st22" d="M226,138.1c1.2-0.7,1.4-0.5,2.4,0.2c1,0.7-0.8,2.1-2,2.8c-1.2,0.7-1.4,0.5-2.4-0.2
			C223,140.2,224.7,138.8,226,138.1z"/>
		<path class="st22" d="M223.5,143.3c2.3,0.2,1.9,0.9,1.4,3.1c-0.5,2.3-4.6,2.6-6.8,2.3c-2.3-0.2-1.9-0.9-1.4-3.1
			S221.2,143.1,223.5,143.3z"/>
	</g>
	<g>
		<path class="st49" d="M213,162.3c0,0,0.5,2-0.6,2.3c-1.1,0.3,0-0.2,0.2-0.9C212.7,163.1,212.6,162.3,213,162.3z"/>
		<g>
			<path class="st49" d="M214.1,170.6c-0.8-3.8-2.6-4.6-2.6-4.6s0.3,3.2-0.7,3.7c0,0-2.9-2.8,0.2-5.2c0,0-3.3-0.2-3.5,3.9
				c0,0-0.4-1-2.1-1.6c0,0,1.3,1.5-0.9,4.3c-2.2,2.8,1.4,4.6,3.7,4.6C210.5,175.7,214.9,174.4,214.1,170.6z M208.9,175.2
				c-2.4,0.2-3.8-1.6-2.7-2.5c1-1,0.8-3.1,0.8-3.1c1.1,0.2,1.4,1.2,1.4,1.2c-0.2-0.6,0.5-3.3,0.5-3.3s-0.1,0.8,1.6,3.6
				C211.8,173,211.3,175,208.9,175.2z"/>
			<path class="st50" d="M208.9,167.3c0,0-0.7,2.7-0.5,3.3c0,0-0.4-1-1.4-1.2c0,0,0.2,2.2-0.8,3.1c-1,1,0.3,2.7,2.7,2.5
				c2.4-0.2,2.8-2.1,1.6-4.3C208.8,168.2,208.9,167.3,208.9,167.3z"/>
			<g>
				<path class="st24" d="M214.4,170.4c-0.8-3.8-2.6-4.6-2.6-4.6s0.3,3.2-0.7,3.7c0,0-2.9-2.8,0.2-5.2c0,0-3.3-0.2-3.5,3.9
					c0,0-0.4-1-2.1-1.6c0,0,1.3,1.5-0.9,4.3c-2.2,2.8,1.4,4.6,3.7,4.6S215.2,174.2,214.4,170.4z M209.1,175
					c-2.4,0.2-3.8-1.6-2.7-2.5c1-1,0.8-3.1,0.8-3.1c1.1,0.2,1.4,1.2,1.4,1.2c-0.2-0.6,0.5-3.3,0.5-3.3s-0.1,0.8,1.6,3.6
					C212,172.8,211.6,174.8,209.1,175z"/>
				<path class="st24" d="M209.1,167.1c0,0-0.7,2.7-0.5,3.3c0,0-0.4-1-1.4-1.2c0,0,0.2,2.2-0.8,3.1c-1,1,0.3,2.7,2.7,2.5
					c2.4-0.2,2.8-2.1,1.6-4.3C209,168,209.1,167.1,209.1,167.1z"/>
			</g>
		</g>
		<path class="st24" d="M212.9,162.2c0,0,0.5,2-0.6,2.3c-1.1,0.3,0-0.2,0.2-0.9C212.6,162.9,212.5,162.2,212.9,162.2z"/>
	</g>
</g>
<g>
	<g>
		<path class="st51" d="M143.1,190.9c5.7,0,11.4,0,17.1,0c1.2,0,2.4,0,3.6,0.2c1.2,0.2,2.3,0.6,2.9,1.3c-7.4,2.2-16.6,1.7-23.4-1.2"
			/>
	</g>
	<g>
		<g>
			<path class="st52" d="M162.2,174.1c0-2,0.6-2.1,0.6-2.1l0.3,2.1C162.9,174.1,162.5,174.1,162.2,174.1z"/>
			<path class="st52" d="M154.2,185.1l2,0.3c-0.2,0.8-1.1,3.3-3.7,3.4l0.2,2.5c0,0,0.7-0.1,0.7,0.4h-1l-1.4-2.9
				C153.7,188.3,154.2,185.1,154.2,185.1z"/>
			<path class="st45" d="M144.3,178.9c0.2-0.6,0.6-1,1.2-1.2c0.6-0.2,1.2-0.2,1.7,0c1.2,0.4,2.1,1.4,2.4,2.7
				c0.1,0.4,0.1,0.7,0.2,1.1c0.1,0.2,0.2,0.4,0.4,0.5c0.3-0.2,0.9-0.5,2.1-0.6c2-0.2,5.3-0.6,6.6-1.6c1.2-1,1.8-3.9,1.8-3.9
				s-0.6-2.3-0.6-3.9c0,0,1.3,1.2,1.8,2.3c0.1-0.1,0.1-0.1,0.2-0.1c0.3-0.1,0.7,0,1,0c0.6,0.1,1.1,0.4,1,0.8l1.9,0c0,0-0.1,0-0.1,0
				c0,0,0,0,0,0.1c0,0.2,0.1,0.3,0.3,0.4c0.1,0.1,0.3,0.1,0.5,0.1c-0.1,0.4-0.5,1.1-1.6,1.6c-1.8,1-1.4,1.4-1.4,1.4s1,3.8,0,5.9
				c-1.1,2.1-1.5,2.7-1.5,3.1s0.5,4.7,0.5,4.7s1.2,0.2,0.8,0.4c-0.4,0.2-1.2,0-1.2,0l-1.8-5.8c0,0-2.4,2.9-2.3,3.4
				c0,0.5,0,1.4,0,1.4s0.8,0.1,0.5,0.2c-0.3,0.1-1.1,0-1.1,0v-2.3l0.9-3.7l-2.2-0.4l-2-0.3c0,0-0.5,3.2-3.3,3.7c0,0,0,0-0.1,0
				c-2.9,0.4-3.5,3.2-3.5,3.2s0.9,0.2,0.6,0.5l-1.1-0.2c0,0-0.6-3.7,2.5-4.9c0,0,0.3-0.3,0.4-0.8c0.1-0.4,0.2-3.5,0.2-4.2
				c-0.6-0.6-1-1.5-1.9-1.8c-0.5-0.2-1.1-0.1-1.7,0c-0.6,0.1-1.2,0.1-1.7-0.2C144.3,180.2,144.1,179.5,144.3,178.9z"/>
		</g>
		<g>
			<path class="st44" d="M162.3,174.1c0-2,0.6-2.1,0.6-2.1l0.3,2.1C163.1,174.1,162.6,174.1,162.3,174.1z"/>
			<path class="st44" d="M154.4,185.1l2,0.3c-0.2,0.8-1.1,3.3-3.7,3.4l0.2,2.5c0,0,0.7-0.1,0.7,0.4h-1l-1.4-2.9
				C153.9,188.3,154.4,185.1,154.4,185.1z"/>
			<path class="st44" d="M144.4,178.9c0.2-0.6,0.6-1,1.2-1.2c0.6-0.2,1.2-0.2,1.7,0c1.2,0.4,2.1,1.4,2.4,2.7
				c0.1,0.4,0.1,0.7,0.2,1.1c0.1,0.2,0.2,0.4,0.4,0.5c0.3-0.2,0.9-0.5,2.1-0.6c2-0.2,5.3-0.6,6.6-1.6c1.2-1,1.8-3.9,1.8-3.9
				s-0.6-2.3-0.6-3.9c0,0,1.3,1.2,1.8,2.3c0.1-0.1,0.1-0.1,0.2-0.1c0.3-0.1,0.7,0,1,0c0.6,0.1,1.1,0.4,1,0.8l1.9,0c0,0-0.1,0-0.1,0
				c0,0,0,0,0,0.1c0,0.2,0.1,0.3,0.3,0.4c0.1,0.1,0.3,0.1,0.5,0.1c-0.1,0.4-0.5,1.1-1.6,1.6c-1.8,1-1.4,1.4-1.4,1.4s1,3.8,0,5.9
				c-1.1,2.1-1.5,2.7-1.5,3.1s0.5,4.7,0.5,4.7s1.2,0.2,0.8,0.4c-0.4,0.2-1.2,0-1.2,0l-1.8-5.8c0,0-2.4,2.9-2.3,3.4
				c0,0.5,0,1.4,0,1.4s0.8,0.1,0.5,0.2c-0.3,0.1-1.1,0-1.1,0v-2.3l0.9-3.7l-2.2-0.4l-2-0.3c0,0-0.5,3.2-3.3,3.7c0,0,0,0-0.1,0
				c-2.9,0.4-3.5,3.2-3.5,3.2s0.9,0.2,0.6,0.5l-1.1-0.2c0,0-0.6-3.7,2.5-4.9c0,0,0.3-0.3,0.4-0.8c0.1-0.4,0.2-3.5,0.2-4.2
				c-0.6-0.6-1-1.5-1.9-1.8c-0.5-0.2-1.1-0.1-1.7,0c-0.6,0.1-1.2,0.1-1.7-0.2C144.5,180.2,144.3,179.5,144.4,178.9z"/>
			<path class="st53" d="M166.2,175C166.2,175,166.2,175,166.2,175C166.3,175,166.3,175,166.2,175c0.3-0.1,0.6-0.1,0.8-0.1
				c0,0.2,0,0.4-0.1,0.5l0,0c0,0,0,0,0,0c-0.2,0-0.3,0-0.5-0.1C166.3,175.4,166.2,175.2,166.2,175C166.2,175,166.2,175,166.2,175z"
				/>
			<g>
				<path d="M163,175c0.1,0.1,0.1,0.1,0.1,0.2c0,0.1,0,0.1-0.1,0.1c0,0,0,0,0,0c-0.1,0-0.1,0-0.1-0.1c0,0,0-0.1,0-0.1c0,0,0,0,0-0.1
					C162.9,175.1,162.9,175.1,163,175C162.9,175,163,175,163,175L163,175z"/>
			</g>
			<path class="st44" d="M165.4,177.2c0,0-1.8,0.5-2.4-0.2"/>
		</g>
		<g>
			<path class="st54" d="M164.2,179.2c0,0-3.1-0.3-4-1.3l-0.2,0.6c0,0,1.8,1.4,4.1,1.2V179.2z"/>
			<path class="st44" d="M164.2,179.1c0,0-3.1-0.3-4-1.3l-0.2,0.6c0,0,1.8,1.4,4.1,1.2V179.1z"/>
		</g>
	</g>
</g>
</svg>
