<?xml version="1.0" encoding="utf-8"?>
<!-- Generator: Adobe Illustrator 26.4.1, SVG Export Plug-In . SVG Version: 6.00 Build 0)  -->
<svg version="1.1" id="레이어_1" xmlns="http://www.w3.org/2000/svg" xmlns:xlink="http://www.w3.org/1999/xlink" x="0px"
	 y="0px" viewBox="0 0 393.5 300.18" style="enable-background:new 0 0 393.5 300.18;" xml:space="preserve">
<style type="text/css">
	.st0{fill:#DAE1D7;}
	.st1{fill:#F1F3F2;}
	.st2{opacity:0.3;}
	.st3{fill:#869283;}
	.st4{fill:#ABC6A3;}
	.st5{opacity:0.4;fill:#C6E2CF;}
	.st6{fill:none;stroke:#191919;stroke-width:0.2;stroke-linecap:round;stroke-linejoin:round;stroke-miterlimit:10;}
	.st7{fill:#8DA385;}
	.st8{opacity:0.2;fill:#C6E2CF;}
	.st9{fill:#D2D0BE;}
	.st10{opacity:0.2;fill:#869283;}
	.st11{fill:#666666;}
	.st12{fill:none;stroke:#1D1D1B;stroke-width:0.2;stroke-miterlimit:10;}
	.st13{fill:#DCDCDC;}
	.st14{fill:#666666;stroke:#1D1D1B;stroke-width:0.2;stroke-miterlimit:10;}
	.st15{fill:#AABFA2;}
	.st16{fill:#FFFFFF;}
	.st17{fill:#BEBDBD;}
	.st18{fill:#B6B6B6;}
	.st19{fill:#F2F1C3;}
	.st20{fill:#F9F9F8;}
	.st21{opacity:0.3;fill:#B6B6B6;}
	.st22{fill:#E1E0CC;}
	.st23{fill:#C9B199;}
	.st24{fill:#BDCFE6;}
	.st25{fill:#BDB4AF;}
	.st26{fill:#E1E1E0;}
	.st27{fill:#F9F9F8;stroke:#191919;stroke-width:0.2;stroke-linecap:round;stroke-linejoin:round;stroke-miterlimit:10;}
	.st28{fill:#191919;}
	.st29{fill:#E3EEED;}
	.st30{fill:#C7E1E8;}
	.st31{fill:#A4A3A3;}
	.st32{fill:#838282;}
	.st33{opacity:0.2;fill:#A8CCC9;}
	.st34{fill:none;stroke:#000000;stroke-width:0.2;stroke-linecap:round;stroke-linejoin:round;stroke-miterlimit:10;}
	.st35{fill:#E1E0CC;stroke:#000000;stroke-width:0.2;stroke-linecap:round;stroke-linejoin:round;stroke-miterlimit:10;}
	.st36{fill:#806562;}
	.st37{fill:none;}
	.st38{fill:#EFEFEF;}
	.st39{fill:#C5C3AC;}
	.st40{fill:#CDCBB4;}
</style>
<g>
	<path class="st0" d="M354.42,138.85c10.27-71.34-35.35-116.06-85.79-110.07s-84.18-9.89-103.24-23.12S19.39-1.83,29.23,69.33
		s15.05,201.14,89.34,174.21s60.32-34.81,99.18-24.44S348.58,179.35,354.42,138.85z"/>
	<path class="st1" d="M106.65,40.84c3.89-6.23-21.5-19.26-58.21-4.85S3.3,45.2,0.16,50.29s42.18,2.47,54.42-2.25
		S101.8,48.59,106.65,40.84z"/>
	<g>
		<g class="st2">
			<path class="st3" d="M69.97,225.79c-9.28,0.01-18.56,0.01-27.84,0.01c-1.97,0-3.97,0-5.88,0.35c-1.91,0.34-3.75,1.07-4.79,2.24
				c12.09,3.86,27.02,3.05,38.11-2.06"/>
		</g>
		<path class="st4" d="M40.52,228.3c0,0-16.41-14.91-7.88-18.49c0,0-15.09-11.38-2.96-13.14s10.17,5.62,10.17,5.62
			s-11.47-4.86-6.23-11.87s12.62,0,12.62,0s2.29-5.47,5.08-3.37c2.79,2.11,0,4.89,0,4.89s-1.8-5.87,3.44-3.69
			c5.25,2.17,17.21,0.94,7.7,14.04s-5.9,2.62-1.64-2.47s14.59-12.96,15.57-1.12c0.98,11.84-11.15,20.07-19.02,18.29
			c-7.87-1.78,0.44-3.4,3.61-1.98s15.08,2.21,7.7,7.94c0,0-5.64,5.37-12.85,5.35S40.52,228.3,40.52,228.3z"/>
		<path class="st5" d="M31.45,211.4c0,0-0.07-3.2,2.87-3.2c2.94,0,13.72,4.35,8.52,4.97S34.33,213.77,31.45,211.4z"/>
		<path class="st5" d="M36.61,189.95c0,0,0.42-1.54,3.2-0.47c2.77,1.07,12.27,7.07,7.28,5.46S38.96,192.13,36.61,189.95z"/>
		<path class="st5" d="M65.35,203.19c0,0-2.46-1.72-0.97-4.16c1.49-2.44,10.24-8.99,8.08-4.32S68.6,202.11,65.35,203.19z"/>
		<path class="st6" d="M39.44,227.55c0,0-16.41-14.91-7.88-18.49c0,0-15.09-11.38-2.96-13.14s10.17,5.62,10.17,5.62
			s-11.47-4.86-6.23-11.87s12.62,0,12.62,0s2.29-5.47,5.08-3.37c2.79,2.11,0,4.89,0,4.89s-1.8-5.87,3.44-3.69
			c5.25,2.17,17.21,0.94,7.7,14.04s-5.9,2.62-1.64-2.47s14.59-12.96,15.57-1.12c0.98,11.84-11.15,20.07-19.02,18.29
			c-7.87-1.78,0.44-3.4,3.61-1.98s15.08,2.21,7.7,7.94c0,0-5.64,5.37-12.85,5.35S39.44,227.55,39.44,227.55z"/>
	</g>
	<g>
		<g>
			<path class="st3" d="M148.14,231.05c-19.79-0.02-39.57-0.03-59.36-0.05c-4.2,0-8.46-0.01-12.53-1.1c-4.07-1.09-8-3.39-10.21-7.06
				c25.78-12.17,57.61-9.63,81.25,6.5"/>
		</g>
		<path class="st7" d="M89.88,197.88c0,0-17.44,9.62-17.44-11.32s7.33-5.73,7.33-5.73s-3.49,10.16-3.14,1.3s2.44-36.21,11.34-26.64
			s-24.25-9.68-12.56-21s12.56-22.93,22.33-9.62s2.27,15-3.14,1.98c-5.41-13.02,1.4-34.81,14.13-9.34s2.09,35.41-3.84,35.4
			c-5.93-0.02-1.22-5.11,5.93-5.68s17.62,18.27,14.48,24.28c0,0,18.32-3.34,10.82,15.34c0,0,8.72,5.09,2.79,19.53
			c-5.93,14.43-15.53,10.61-17.27,6.16c-1.74-4.46,28.61,5.56,17.97,13.09h-62.1c0,0-12.39-5.44-9.07-10.36
			c3.31-4.92,17.1-10.58,20.41-9.45C88.83,205.81,80.28,190.81,89.88,197.88z"/>
		<path class="st8" d="M81.66,160.46c-2.39,3.87,1.07,15.58,4.27,12.11c3.2-3.46,6.4-12.11,3.2-12.11S82.73,158.73,81.66,160.46z"/>
		<path class="st8" d="M106.72,192.79c-3.99,6.47,1.78,26.02,7.13,20.24c5.35-5.78,10.69-20.24,5.35-20.24
			C113.85,192.79,108.5,189.9,106.72,192.79z"/>
		<path class="st8" d="M112.47,154.2c1.79-4.51-3.5-2.99-6.17,2.57s-4.54,12.62-1.33,8.06C108.19,160.27,111.67,156.22,112.47,154.2
			z"/>
		<path class="st8" d="M86.07,191.15c0.79-2.2-2.02-5.09-3.25-2.74c-1.22,2.34-1.95,6.51-0.39,5.38
			C83.99,192.66,85.71,192.14,86.07,191.15z"/>
		<path class="st8" d="M104.6,137.5c0.79-2.2-2.02-5.09-3.25-2.74c-1.22,2.34-1.95,6.51-0.39,5.38
			C102.52,139.01,104.25,138.48,104.6,137.5z"/>
		<path class="st8" d="M88.9,129c1.83-2.92-2.45-4.64-5.08-1.32c-2.62,3.32-4.75,8.43-1.8,6.3C84.97,131.85,88.08,130.31,88.9,129z"
			/>
		<path class="st6" d="M87.96,197.88c0,0-17.44,9.62-17.44-11.32s7.33-5.73,7.33-5.73s-3.49,10.16-3.14,1.3s2.44-36.21,11.34-26.64
			s-24.25-9.68-12.56-21s12.56-22.93,22.33-9.62s2.27,15-3.14,1.98c-5.41-13.02,1.4-34.81,14.13-9.34s2.09,35.41-3.84,35.4
			c-5.93-0.02-1.22-5.11,5.93-5.68s17.62,18.27,14.48,24.28c0,0,18.32-3.34,10.82,15.34c0,0,8.72,5.09,2.79,19.53
			c-5.93,14.43-15.53,10.61-17.27,6.16c-1.74-4.46,28.61,5.56,17.97,13.09h-62.1c0,0-12.39-5.44-9.07-10.36
			c3.31-4.92,17.1-10.58,20.41-9.45C86.91,205.81,78.36,190.81,87.96,197.88z"/>
	</g>
	<path class="st3" d="M47.3,237.47c6.27-12.34,21.36,6.62,67.08-46.36c67.35-63.58,213.94-47.21,241.49-47.21
		c51.93,0,8.07,152.65-23.29,154.75c-43.25,2.89-234.02-10.67-258.01-27.74S36.97,257.79,47.3,237.47z"/>
	<path class="st9" d="M100.61,250.57c-12.01-4.06-23.69-9.3,64.91-12.68c88.6-3.37,81.91,1.85,104.31,1.37s20.68,9.57-10.05,12.03
		c-30.74,2.46-57.71,13.86-74.57,11.07s-71.93,19.52-71.93,19.52s-34.29-5.76-43.2-12.02s-19.91-13.09-19.91-13.09L100.61,250.57z"
		/>
	<path class="st9" d="M132.35,243.96c3.13-3.1,57.1-5.58,91.96-6.59s59.85,1.78,59.85,5.54c0,3.76-31.47,7.55-46.01,10.21
		s-84.19,1.59-92.93-1.82C128.09,244.6,128.81,247.46,132.35,243.96z"/>
	<path class="st10" d="M288.43,247.42c1.82-2.33,31.45-3.02,50.57-3.01s32.71,2.75,32.59,5.66c-0.12,2.92-17.47,5.13-25.52,6.86
		s-46.15-0.69-50.82-3.54C286.08,247.82,286.38,250.06,288.43,247.42z"/>
	<g>
		<g>
			<path class="st11" d="M275.37,216.55c0,0,3.71,26.1-5.65,26.29c-9.36,0.19-11.04,0.34-12.86-4.47l-29.69,1.6
				c-0.81,2.88-3.06,8.14-11.45,8.18c-8.39,0.03-15.37,0.24-16.83-6.49l0.01-0.8c0,0-22.55,0.84-40.46-0.14
				c0,0-1.69,7.19-11.37,6.74s-10.78-7.9-10.78-7.9s-3.71-1.7-3.51-4.42c0.2-2.72,98.04-29.33,117.36-26.02
				C269.45,212.42,274.64,206.33,275.37,216.55z"/>
			<path class="st12" d="M276.34,216.14c0,0,3.71,26.1-5.65,26.29c-9.36,0.19-11.04,0.34-12.86-4.47l-29.69,1.6
				c-0.81,2.88-3.06,8.14-11.45,8.18c-8.39,0.03-15.37,0.24-16.83-6.49l0.01-0.8c0,0-22.55,0.84-40.46-0.14
				c0,0-1.69,7.19-11.37,6.74s-10.78-7.9-10.78-7.9s-3.71-1.7-3.51-4.42c0.2-2.72,98.04-29.33,117.36-26.02
				S275.62,205.92,276.34,216.14z"/>
			<path class="st13" d="M134.76,216.12c0,0-0.66-4.88,5.69-7.68s13.66-5.59,17.14-6.43c0,0,17.24-15.58,34.49-17.27
				c6.08-0.6,26.31-1.51,43.67-1.02c17.36,0.49,21.16,3.26,31.24,14.95c0,0,2.41,3.16,6.22,4.44c3.81,1.28,4.22,17.64,3.78,19.84
				c-0.45,2.2-1.23,1.88-1.23,1.88s-0.61-12.11-6.09-11.67c-5.47,0.44-7.41,17.97-7.41,17.97s-29.62,3.06-34.31,3.27
				c0,0,2.05-20.83-7.5-20.88c-9.55-0.05-11.12,17.48-11.6,22.58c0,0-47.58,0.76-76.73-0.73
				C132.11,235.37,130.58,217.75,134.76,216.12z"/>
			<path class="st12" d="M135.74,216.12c0,0-0.66-4.88,5.69-7.68c6.35-2.8,13.66-5.59,17.14-6.43c0,0,17.24-15.58,34.49-17.27
				c6.08-0.6,26.31-1.51,43.67-1.02c17.36,0.49,21.16,3.26,31.24,14.95c0,0,2.41,3.16,6.22,4.44c3.81,1.28,4.22,17.64,3.78,19.84
				c-0.45,2.2-1.23,1.88-1.23,1.88s-0.61-12.11-6.09-11.67c-5.47,0.44-7.41,17.97-7.41,17.97s-29.62,3.06-34.31,3.27
				c0,0,2.05-20.83-7.5-20.88c-9.55-0.05-11.12,17.48-11.6,22.58c0,0-47.58,0.76-76.73-0.73
				C133.1,235.37,131.56,217.75,135.74,216.12z"/>
			<path class="st12" d="M183.13,215.26c0,0,3.09,2.27,14.03,2.16c10.93-0.11,12.21-3.64,14.02-6.27
				C191.01,210.76,183.13,215.26,183.13,215.26z"/>
			<path class="st14" d="M186.39,213.95c0,0,2.55,1.78,10.77,1.7c8.22-0.07,9.18-2.63,10.54-4.53
				C195.82,211.05,186.39,213.95,186.39,213.95z"/>
			<path class="st12" d="M138.48,210.25c0,0,5.36,2.31,4.61,4.57c-0.75,2.26-7.35,1.3-7.35,1.3S135.53,212.06,138.48,210.25z"/>
			<path class="st14" d="M138.48,210.25c0,0,5.02,2.22,4.61,4.57c-0.14,0.79-6.21-0.27-6.21-0.27S135.98,211.57,138.48,210.25z"/>
			<path class="st11" d="M144.9,217.14c0,0,2.79-1.92,16.7-1.67c13.91,0.26,17.54,2.26,17.54,2.26l-15.57-0.08l-3.47,3.34
				l-3.09-3.44L144.9,217.14z"/>
			<path class="st12" d="M144,217.14c0,0,2.79-1.92,16.7-1.67c13.91,0.26,17.54,2.26,17.54,2.26l-15.57-0.08l-3.47,3.34l-3.09-3.44
				L144,217.14z"/>
			<path class="st12" d="M148.18,226.21c0,0,21.72,0.36,22.65,0.72l-0.37,5.83l-22.32-0.38L148.18,226.21z"/>
			<g>
				<path class="st11" d="M195.47,233.99c0,0,1.54,0.03,3.82-0.02c3.83-0.08,3.97-8.06,3.97-8.06c-7.34-0.04-8.75,1.12-8.75,1.12
					C192.29,229,193.06,233.62,195.47,233.99z"/>
				<path class="st12" d="M181.73,228.67c0,0,11.5-2.87,21.54-2.75c0,0-0.14,7.96-3.97,8.06c-3.83,0.1-6.03-0.03-6.03-0.03"/>
				<path class="st12" d="M190.16,229.36c0,0,5.13-0.42,8.4-0.81"/>
				<path class="st12" d="M192.91,231.76c0,0,4.69-0.24,5.16-0.29"/>
			</g>
			<g>
				<path class="st11" d="M134.07,227.21c0,0-0.04-2.61,1.53-2.39c1.57,0.22,1.69,1.43,1.48,4.15s-0.12,3.21-1.64,2.83
					C133.91,231.43,133.72,229.47,134.07,227.21z"/>
				<path class="st12" d="M139.34,225.82c0,0-5.19-2.45-5.21,0.3c-0.02,1.79-0.68,5.07,1.31,5.69s2.63,0.68,2.63,0.68"/>
				<path class="st12" d="M135.36,227.17c0,0,2.05,0.76,2.66,0.8"/>
				<path class="st12" d="M135.34,229.33c0,0,1.31,0.49,2.67,0.42"/>
			</g>
			<path class="st0" d="M161.22,202.14l57.85,0.31c3.87,0.02,6.66-7.6,9.06-10.06s5.6-6.27,9.16-7.17c0,0-25.3-0.94-43.15,1.14
				c-7.89,0.92-10.06,2.12-15.58,4.83C166.44,198.44,163.06,200.19,161.22,202.14z"/>
			<path class="st0" d="M225.94,204.92c-1.98-1.15,3.21-8.26,6.89-12.08c3.68-3.81,7.47-5.65,14.77-4.37
				c7.31,1.28,16.07,7.02,18.67,11.08c2.6,4.05-11.23,4.81-18.55,5.28C240.41,205.31,227.49,205.82,225.94,204.92z"/>
			<path class="st12" d="M225.95,204.01c-1.98-1.15,3.21-8.26,6.89-12.08c3.68-3.81,7.47-5.65,14.77-4.37
				c7.31,1.28,16.07,7.02,18.67,11.08c2.6,4.05-11.23,4.81-18.55,5.28C240.42,204.4,227.5,204.91,225.95,204.01z"/>
			<g>
				<path class="st13" d="M225.5,205.08c0,0,4.44-0.96,6-2.4c1.56-1.45,1.17-3.95,6.68-3.25s6.63,3.01,6.36,4.18
					c-0.27,1.16-2.91,2.66-12.72,1.94c0,0-3.43,0.29-5.32,1.13"/>
				<path class="st12" d="M224.92,205.08c0,0,4.44-0.96,6-2.4c1.56-1.45,1.17-3.95,6.68-3.25s6.63,3.01,6.36,4.18
					c-0.27,1.16-2.91,2.66-12.72,1.94c0,0-3.43,0.29-5.32,1.13"/>
			</g>
			<g>
				<path class="st15" d="M208.8,201.49l10.29,0.06c1.88,0.01,3.46-2.11,4.85-4.32l-14.23,2.07
					C209.34,200.08,209.03,200.85,208.8,201.49z"/>
				<path class="st15" d="M206.63,199.74l-11.51,1.67l11.47,0.06C206.65,200.88,206.65,200.3,206.63,199.74z"/>
				<path class="st15" d="M205.54,195.11c1.3-4.61-1-5.63-4.97-5.5c-3.98,0.12-4.65,5.45-4.65,5.45c-3.82,0.13-8.05,4.02-10.21,6.31
					l9.42,0.05l11.51-1.67C206.5,197.09,205.54,195.11,205.54,195.11z"/>
				<path class="st15" d="M219.49,189.7c-4.38,0.11-5.6,5.24-5.6,5.24c-1.76,0.1-3.2,2.27-4.18,4.36l14.23-2.07
					c0.38-0.6,0.74-1.2,1.09-1.76c-0.87,0.08-1.53,0.22-1.53,0.22C224.71,191.27,223.87,189.59,219.49,189.7z"/>
			</g>
			<path class="st12" d="M160.69,201.69l57.85,0.31c3.87,0.02,6.66-7.6,9.06-10.06s5.6-6.27,9.16-7.17c0,0-25.3-0.94-43.15,1.14
				c-7.89,0.92-10.06,2.12-15.58,4.83C165.91,197.99,162.52,199.74,160.69,201.69z"/>
			<path class="st16" d="M227.83,211.32c0.79-0.65,14.49-1.83,24.13-2.54c9.63-0.71,15.78-2,15.34,0.17s-14.35,1.99-25.99,3.54
				C229.66,214.04,225.39,213.31,227.83,211.32z"/>
			<path class="st16" d="M233.4,201.11c-0.16,0.91,2.42,1.01,3.78,0.73c1.36-0.29,2.9-0.25,2.82-0.69
				c-0.08-0.44-4.33-1.22-5.35-0.91C233.62,200.55,233.51,200.48,233.4,201.11z"/>
			<path class="st13" d="M221.86,219.29c-2.96,0.31-4,8.7-4.13,13.44c-0.13,4.74-0.07,10.75,3.3,10.77
				c3.37,0.02,4.67-9.44,4.66-14.08S224.75,218.99,221.86,219.29z"/>
			<path class="st13" d="M271.68,218.01c-2.52,0.26-3.41,7.4-3.51,11.43c-0.11,4.03-0.06,9.15,2.81,9.16
				c2.87,0.02,3.98-8.03,3.96-11.98C274.92,222.67,274.14,217.75,271.68,218.01z"/>
			<path class="st16" d="M145.28,208.22c-2.04-0.09-2.41,1.26,5.96,1.43c8.37,0.17,22.96-0.91,30.65,0.17s17.36-0.68,20.16-0.75
				c2.8-0.07,16.18-4.26,12.78-4.43c-3.39-0.17-11.38,3.89-14.92,3.8s-14.52,1.08-22.43,0.49
				C169.57,208.35,152.99,208.57,145.28,208.22z"/>
		</g>
		<path class="st1" d="M134.61,94.57c-2.82-5.02,11.2-19.62,34.21-11.38s27.6,2.63,29.88,6.74c2.29,4.11-24.88,7.32-32.54,4.64
			C158.5,91.89,138.13,100.82,134.61,94.57z"/>
		<rect x="52.6" y="152.27" class="st17" width="5.41" height="95.41"/>
		<rect x="52.05" y="152.27" class="st6" width="5.41" height="95.41"/>
		<rect x="20.42" y="68.76" class="st0" width="165.98" height="80.49"/>
		<g>
			<g>
				<path class="st3" d="M42.51,146.59c0.66,2.06,11.66,0.51,14.72,0.71c3.06,0.21,18.23,1.38,16.42-0.82
					c-1.81-2.2-22.62-0.53-25.35-0.59C45.57,145.84,42.09,145.29,42.51,146.59z"/>
				<g>
					<g>
						<polygon class="st18" points="68.98,136.65 52.17,136.65 55.09,119.65 64.95,119.65 						"/>
						<polygon class="st18" points="53.73,136.65 51.71,146.57 50.6,146.57 52.62,136.65 						"/>
						<polygon class="st18" points="48.32,136.65 46.3,146.57 45.19,146.57 47.2,136.65 						"/>
						<polygon class="st18" points="61.49,136.65 63.5,146.57 64.62,146.57 62.6,136.65 						"/>
						<polygon class="st18" points="66.9,136.65 68.92,146.57 70.03,146.57 68.01,136.65 						"/>
						<polygon class="st18" points="64.95,135.71 56.2,135.71 57.72,126.86 62.59,126.86 						"/>
						<polygon class="st18" points="45.88,136.65 52.17,136.65 55.09,119.65 48.8,119.65 						"/>
						<rect x="56.2" y="135.71" class="st18" width="16.77" height="0.94"/>
						<rect x="54.44" y="50.92" class="st18" width="5.55" height="68.74"/>
					</g>
					<g>
						<polygon class="st6" points="69.15,136.65 52.34,136.65 55.26,119.65 65.12,119.65 						"/>
						<polygon class="st6" points="53.9,136.65 51.88,146.57 50.77,146.57 52.79,136.65 						"/>
						<polygon class="st6" points="48.49,136.65 46.47,146.57 45.36,146.57 47.37,136.65 						"/>
						<polygon class="st6" points="61.66,136.65 63.67,146.57 64.79,146.57 62.77,136.65 						"/>
						<polygon class="st6" points="67.07,136.65 69.09,146.57 70.2,146.57 68.18,136.65 						"/>
						<polygon class="st6" points="65.12,135.71 56.37,135.71 57.89,126.86 62.76,126.86 						"/>
						<polygon class="st6" points="46.05,136.65 52.34,136.65 55.26,119.65 48.97,119.65 						"/>
						<rect x="56.37" y="135.71" class="st6" width="16.77" height="0.94"/>
						<rect x="54.61" y="50.92" class="st6" width="5.55" height="68.74"/>
					</g>
					<g>
						<path class="st19" d="M64.54,132c-0.56-2.71-1.87-3.26-1.87-3.26s0.24,2.26-0.49,2.6c0,0-2.08-1.98,0.14-3.68
							c0,0-2.36-0.14-2.5,2.78c0,0-0.28-0.73-1.49-1.11c0,0,0.94,1.04-0.62,3.04c-1.56,2,1.01,3.28,2.64,3.28
							C61.97,135.64,65.09,134.7,64.54,132z M60.81,135.25c-1.73,0.14-2.67-1.1-1.94-1.81c0.73-0.7,0.56-2.23,0.56-2.23
							c0.75,0.15,1.02,0.83,1.02,0.83c-0.17-0.44,0.33-2.35,0.33-2.35s-0.04,0.58,1.14,2.53C62.83,133.73,62.53,135.11,60.81,135.25
							z"/>
						<path class="st20" d="M60.78,129.69c0,0-0.5,1.91-0.33,2.35c0,0-0.27-0.68-1.02-0.83c0,0,0.17,1.53-0.56,2.23
							c-0.73,0.7,0.21,1.95,1.94,1.81c1.73-0.14,2.02-1.52,1.11-3.03C60.73,130.26,60.78,129.69,60.78,129.69z"/>
						<g>
							<path class="st6" d="M64.71,131.86c-0.56-2.71-1.87-3.26-1.87-3.26s0.24,2.26-0.49,2.6c0,0-2.08-1.98,0.14-3.68
								c0,0-2.36-0.14-2.5,2.78c0,0-0.28-0.73-1.49-1.11c0,0,0.94,1.04-0.62,3.04c-1.56,2,1.01,3.28,2.64,3.28
								C62.14,135.5,65.26,134.57,64.71,131.86z M60.98,135.11c-1.73,0.14-2.67-1.1-1.94-1.81c0.73-0.7,0.56-2.23,0.56-2.23
								c0.75,0.15,1.02,0.83,1.02,0.83c-0.17-0.44,0.33-2.35,0.33-2.35s-0.04,0.58,1.14,2.53C63,133.59,62.7,134.97,60.98,135.11z"
								/>
							<path class="st6" d="M60.95,129.55c0,0-0.5,1.91-0.33,2.35c0,0-0.27-0.68-1.02-0.83c0,0,0.17,1.53-0.56,2.23
								c-0.73,0.7,0.21,1.95,1.94,1.81c1.73-0.14,2.02-1.52,1.11-3.03C60.9,130.13,60.95,129.55,60.95,129.55z"/>
						</g>
					</g>
				</g>
			</g>
			<g>
				<path class="st21" d="M56.89,43.28c0,0-2.11-1.54-2.97-0.34c0,0-2.42-1.4-2.77-0.15c-0.36,1.24,2.15,3.78,3.49,2.88
					c0,0-0.92,0.14,1.4,0.6c0,0,5.24,0.05,2.16-1.23c0,0,2.99-0.11-0.19-1.33C58,43.7,57.56,43.34,56.89,43.28z"/>
				<path class="st6" d="M56.65,43.21c0,0-2.11-1.54-2.97-0.34c0,0-2.42-1.4-2.77-0.15c-0.36,1.24,2.15,3.78,3.49,2.88
					c0,0-0.92,0.14,1.4,0.6c0,0,5.24,0.05,2.16-1.23c0,0,2.99-0.11-0.19-1.33"/>
				<path class="st21" d="M59.51,46.56c0,0-1.42,0.09-1.11,1.09c0,0-1.45,0.3-0.96,1.1c0.49,0.8,2.51,1.06,2.5,0.02
					c0,0-0.23,0.47,0.74-0.28c0,0,1.7-2.21,0.09-1.57c0,0,0.9-1.34-0.71-0.62C60.06,46.31,59.75,46.31,59.51,46.56z"/>
				<path class="st6" d="M59.4,46.62c0,0-1.42,0.09-1.11,1.09c0,0-1.45,0.3-0.96,1.1c0.49,0.8,2.51,1.06,2.5,0.02
					c0,0-0.23,0.47,0.74-0.28c0,0,1.7-2.21,0.09-1.57c0,0,0.9-1.34-0.71-0.62"/>
			</g>
		</g>
		<g>
			<g>
				<g>
					<path class="st22" d="M133.08,130.18v15.01c0,0.59,0.48,1.08,1.08,1.08s1.08-0.48,1.08-1.08v-15.01c0-0.01,0-0.02,0-0.04h-2.14
						C133.08,130.16,133.08,130.17,133.08,130.18z"/>
					<path class="st22" d="M150.43,144.73l-7.26-14.58h-2.4l7.74,15.53c0.26,0.53,0.91,0.75,1.44,0.49
						C150.47,145.9,150.69,145.26,150.43,144.73z"/>
					<path class="st22" d="M147.08,128h-17.23c-0.59,0-1.08,0.48-1.08,1.08c0,0.59,0.48,1.08,1.08,1.08h3.23h2.14h5.53h2.4h3.92
						c0.59,0,1.08-0.48,1.08-1.08C148.16,128.48,147.68,128,147.08,128z"/>
				</g>
				<path class="st22" d="M144.96,138.39h-9.73v-2.15h9.73c0,0,1.13,0.09,1.13,1.13C146.1,137.38,146.02,138.39,144.96,138.39z"/>
			</g>
			<g>
				<path class="st6" d="M133.08,130.01v15.01c0,0.59,0.48,1.08,1.08,1.08s1.08-0.48,1.08-1.08v-15.01c0-0.01,0-0.02,0-0.04h-2.14
					C133.08,129.98,133.08,129.99,133.08,130.01z"/>
				<path class="st6" d="M150.43,144.55l-7.26-14.58h-2.4l3.04,6.09h1.17c0,0,1.13,0.09,1.13,1.13c0,0-0.08,1.02-1.13,1.02h-0.1
					l3.63,7.28c0.26,0.53,0.91,0.75,1.44,0.49C150.47,145.72,150.69,145.08,150.43,144.55z"/>
				<path class="st6" d="M147.08,129.97c0.59,0,1.08-0.48,1.08-1.08c0-0.59-0.48-1.08-1.08-1.08h-17.23c-0.59,0-1.08,0.48-1.08,1.08
					c0,0.59,0.48,1.08,1.08,1.08h3.23h2.14h5.53h2.4H147.08z"/>
				<path class="st6" d="M144.96,136.06h-1.17h-8.56v2.15h9.64h0.1c1.05,0,1.13-1.02,1.13-1.02
					C146.1,136.15,144.96,136.06,144.96,136.06z"/>
			</g>
			<g>
				<polygon class="st22" points="166.46,110.98 157.21,134.67 142.96,134.67 142.96,135.85 157.81,135.85 167.43,111.41 				"/>
				<rect x="130.58" y="134.67" class="st22" width="12.38" height="1.17"/>
				<polygon class="st22" points="154.08,110.98 166.46,110.98 157.21,134.67 144.83,134.67 				"/>
			</g>
			<g>
				<polygon class="st6" points="166.38,110.86 157.12,134.56 142.88,134.56 142.88,135.73 157.72,135.73 167.34,111.29 				"/>
				<rect x="130.5" y="134.56" class="st6" width="12.38" height="1.17"/>
				<polygon class="st6" points="153.99,110.86 166.38,110.86 157.12,134.56 144.74,134.56 				"/>
			</g>
			<g>
				<g>
					<path class="st23" d="M125.84,143.08c0,0,0-0.01,0.01-0.02c-0.61-0.44-2.05-1.47-3.13-2.11c-0.84-0.49-1.46-0.75-1.33-0.32
						c0.14,0.43,0.37,0.86,0.67,1.26c1.86,2.57,6.28,4.5,6.28,4.5l0.73-1.18L125.84,143.08z"/>
					<path class="st23" d="M118.67,140.22c0,0-3.58,1.14-5.28,0.74s-2.96,0.03,0,1.06s6.58,2.6,6.58,2.6l1.38-2.45l-1.56-1.13
						L118.67,140.22z"/>
					<path class="st24" d="M152.86,129.9c-4.56,0.89-10.23-1.24-10.23-1.24l0.08-0.37l-0.58-0.09l-2.63-0.42
						c-0.06,0.02-0.11,0.04-0.16,0.06c-0.17,0.09-0.32,0.01-0.45-0.17c-0.08-0.12-0.15-0.29-0.2-0.48
						c-0.02-0.06-0.03-0.12-0.04-0.19c-0.07-0.01-0.13-0.01-0.2-0.02c-0.25-0.02-0.5-0.04-0.77-0.06c-3.29-0.24-7.56-0.41-9.8,0.34
						c-3.81,1.27-2.16,5.02-9.51,12.78l1.41,1.02l1.56,1.13v0l0.33,0.24c0,0,0.13-0.19,0.35-0.51c-0.29-0.41-0.53-0.83-0.67-1.26
						c-0.13-0.43,0.5-0.17,1.33,0.32c1.55-2.18,4.5-6.17,6.24-7.55c-1.86,6.07-3.02,9.41-3.11,9.66c0.18,0.13,0.29,0.21,0.29,0.21
						l2.92,1.94c1.69-1.35,6.31-10.78,6.79-11.76c0.03-0.05,0.04-0.09,0.04-0.09c0.18,0.04,0.36,0.08,0.54,0.12
						c16.97,3.65,17.71-3.11,17.73-3.39c0-0.01,0-0.01,0-0.01L152.86,129.9z"/>
					<path class="st6" d="M138.71,126.92c-0.02-0.06-0.03-0.12-0.04-0.19c-0.07-0.01-0.13-0.01-0.2-0.02
						c-0.25-0.02-0.5-0.04-0.77-0.06c-3.29-0.24-7.56-0.41-9.8,0.34c-3.81,1.27-2.16,5.02-9.51,12.78l1.41,1.02l1.56,1.13v0
						l0.33,0.24c0,0,0.13-0.19,0.35-0.51c-0.29-0.41-0.53-0.83-0.67-1.26c-0.13-0.43,0.5-0.17,1.33,0.32
						c1.55-2.18,4.5-6.17,6.24-7.55c0.11-0.36,0.22-0.72,0.33-1.1c1.04-3.43,1.41-5.92,8.87-4.78c0.24,0.04,0.5,0.08,0.75,0.12
						C138.82,127.28,138.76,127.12,138.71,126.92z"/>
					<path class="st6" d="M152.86,129.63c-4.56,0.89-10.23-1.24-10.23-1.24l0.08-0.37l-0.58-0.09l-2.63-0.42
						c-0.06,0.02-0.11,0.04-0.16,0.06c-0.17,0.09-0.32,0.01-0.45-0.17c-0.26-0.04-0.51-0.09-0.75-0.12
						c-7.46-1.14-7.83,1.35-8.87,4.78c-0.11,0.38-0.23,0.74-0.33,1.1c-1.86,6.07-3.02,9.41-3.11,9.66c0.18,0.13,0.29,0.21,0.29,0.21
						l2.92,1.94c1.69-1.35,6.31-10.78,6.79-11.76c0.03-0.05,0.04-0.09,0.04-0.09c0.18,0.04,0.36,0.08,0.54,0.12
						c16.97,3.65,17.71-3.11,17.73-3.39c0-0.01,0-0.01,0-0.01L152.86,129.63z"/>
					<path class="st25" d="M148.02,112.17c0,0-5.1,3.94-6.82,10.13c0,0-2.46,0.78-3.15,2.25c-0.7,1.47-0.35,2.11-0.35,2.11l0,0
						c0.26,0.02,0.52,0.04,0.77,0.06c0.07,0.01,0.13,0.01,0.2,0.02c-0.02-0.09-0.03-0.18-0.04-0.27c-0.09-0.87,0.11-1.96,0.84-2.23
						c0.59-0.22,1.13-0.26,1.61-0.2c1.42-1.1,2.83-2.12,3.48-4.52C145.65,115.53,146.94,113.36,148.02,112.17L148.02,112.17z"/>
					<path class="st26" d="M156.14,112.31c-0.5-0.56-1.05-0.95-1.61-1.14c-0.28-0.1-0.56-0.17-0.85-0.24
						c-0.1,0.76-0.56,2.25-2.65,2.25c-1.06,0.06-2.14-0.73-1.31-1.46c0.01-0.24,0.02-0.53,0.02-0.82c-0.43,0.17-1.03,0.53-1.71,1.27
						c-1.09,1.19-2.37,3.36-3.46,7.34c-0.66,2.4-2.06,3.43-3.48,4.52c0.72,0.09,1.3,0.39,1.69,0.68c0.37,0.27,0.58,0.51,0.58,0.51
						l-0.53,2.35c0,0-0.28-0.04-0.68-0.09c-0.21-0.02-0.45-0.05-0.7-0.06c-0.31-0.02-0.64-0.04-0.95-0.03
						c-0.38,0.01-0.73,0.04-0.98,0.12l2.63,0.42l0.58,0.09l0.66-2.94c2.34-1.21,8.4-0.93,8.4-0.93c-0.03-1.06,1.03-0.91,1.03-0.91
						c-0.15-1.06-0.66-3.58-0.2-6.45C153.06,113.92,154.87,113.09,156.14,112.31z"/>
					<path class="st25" d="M157.52,114.57c-0.58-1.23-1.17-2-1.33-2.21c-0.02-0.02-0.03-0.04-0.05-0.05
						c-1.27,0.78-3.08,1.61-3.53,4.48c-0.45,2.87,0.05,5.39,0.2,6.45c0,0-1.06-0.15-1.03,0.91c0,0-6.05-0.28-8.4,0.93l-0.66,2.94
						l-0.08,0.37c0,0,5.67,2.12,10.23,1.24c0.7-0.14,1.37-0.34,2-0.64c1.43-0.68,2.59-1.83,3.19-3.67
						C159.6,120.58,158.57,116.81,157.52,114.57z"/>
					<path class="st27" d="M154.1,104.95c0.31-1.21-0.83-1.36-0.83-1.36s-0.84-0.1-0.84,0.84v0.79l-0.47,0.13
						c-1.19-1.18-0.5-2.73-0.5-2.73c-0.68,0.16-1.29,0.21-1.85,0.19c-1.41-0.05-2.44-0.58-3.14-1.1c-0.28,0.7-0.38,3.6-0.1,4.85
						c0.44,1.95,1.07,3.49,3.35,3.49c0.01,0,0.01,0,0.02,0c1.41-0.01,2.91-0.74,3.97-1.99c-0.59-0.42-0.77-1-0.81-1.46
						c-0.04-0.41,0.04-0.71,0.04-0.71S153.78,106.16,154.1,104.95z"/>
					<path class="st23" d="M154.49,108.59c-2.04-0.62-1.56-2.55-1.56-2.55s0.85,0.28,1.16-0.93s-0.83-1.36-0.83-1.36
						s-0.84-0.1-0.84,0.84v0.79l-0.47,0.13c-1.19-1.18-0.5-2.73-0.5-2.73c-4.15,0.97-6.06-2-6.06-2c-0.69-0.88,0.24-1.82,0.63-1.93
						c0,0,0.78-0.37,1.38,0c0,0-0.3,0.54-0.17,0.58c0.13,0.04,10.16-3.04,8.49,3.41S154.49,108.59,154.49,108.59z"/>
					<path class="st6" d="M146.45,99.38c0,0,7.31-2.32,8.84,0.36c0.63,1.11,1.07,2.58,0.24,4.59c-0.43,1.04-0.96,1.74-1.04,4.1
						c-2.04-0.62-1.56-2.55-1.56-2.55s0.85,0.28,1.16-0.93s-0.83-1.36-0.83-1.36s-0.84-0.1-0.84,0.84v0.79l-0.47,0.13
						c-1.19-1.18-0.5-2.73-0.5-2.73c-4.15,0.97-6.06-2-6.06-2c-0.69-0.88,0.24-1.82,0.63-1.93"/>
					<g>
						<circle class="st28" cx="146.71" cy="104.52" r="0.22"/>
						<circle class="st28" cx="149.95" cy="104.52" r="0.22"/>
						<path class="st6" d="M147.87,104.67c0,0,0.62,1.03-0.32,1.12c-0.82,0.07-0.77,0.01-0.81,0.27c-0.03,0.19-0.03,0.55,0.69,0.63
							c0.52,0.05,0.61,0,0.61,0"/>
						<path class="st6" d="M147.52,107.74c0,0,1.26,0.46,2.09-0.32"/>
					</g>
					<path class="st27" d="M154.16,129.84c0,0,0,0,0,0.01c0.24-0.27,0.48-0.55,0.7-0.85c-0.62,0.3-1.3,0.5-2,0.64L154.16,129.84z"/>
					<path class="st27" d="M156.19,112.36c0.16,0.2,0.75,0.97,1.33,2.21C157.15,113.68,156.7,112.94,156.19,112.36z"/>
					<path class="st6" d="M148.02,112.17c0,0-5.1,3.94-6.82,10.13c0,0-2.46,0.78-3.15,2.25c-0.7,1.47-0.35,2.11-0.35,2.11l0,0
						c0.26,0.02,0.52,0.04,0.77,0.06c0.07,0.01,0.13,0.01,0.2,0.02c-0.02-0.09-0.03-0.18-0.04-0.27c-0.09-0.87,0.11-1.96,0.84-2.23
						c0.59-0.22,1.13-0.26,1.61-0.2c1.42-1.1,2.83-2.12,3.48-4.52C145.65,115.53,146.94,113.36,148.02,112.17L148.02,112.17z"/>
					<path class="st6" d="M156.14,112.31c-0.5-0.56-1.05-0.95-1.61-1.14c-0.28-0.1-0.56-0.17-0.85-0.24
						c-0.1,0.76-0.56,2.25-2.65,2.25c-1.06,0.06-2.14-0.73-1.31-1.46c0.01-0.24,0.02-0.53,0.02-0.82c-0.43,0.17-1.03,0.53-1.71,1.27
						c-1.09,1.19-2.37,3.36-3.46,7.34c-0.66,2.4-2.06,3.43-3.48,4.52c0.72,0.09,1.3,0.39,1.69,0.68c0.37,0.27,0.58,0.51,0.58,0.51
						l-0.53,2.35c0,0-0.28-0.04-0.68-0.09c-0.21-0.02-0.45-0.05-0.7-0.06c-0.31-0.02-0.64-0.04-0.95-0.03
						c-0.38,0.01-0.73,0.04-0.98,0.12l2.63,0.42l0.58,0.09l0.66-2.94c2.34-1.21,8.4-0.93,8.4-0.93c-0.03-1.06,1.03-0.91,1.03-0.91
						c-0.15-1.06-0.66-3.58-0.2-6.45C153.06,113.92,154.87,113.09,156.14,112.31z"/>
					<path class="st27" d="M153.71,110.5v-2.46c-1.06,1.25-2.56,1.98-3.97,1.99c0,0.19,0,0.52-0.01,0.86c0,0.29-0.01,0.59-0.02,0.82
						c-0.82,0.73,0.26,1.52,1.31,1.46c2.09,0,2.55-1.5,2.65-2.25C153.71,110.68,153.71,110.5,153.71,110.5z"/>
					<path class="st6" d="M156.14,112.31C156.14,112.31,156.14,112.31,156.14,112.31c0.01,0.02,0.03,0.04,0.05,0.06
						C156.16,112.33,156.14,112.31,156.14,112.31z"/>
					<path class="st6" d="M157.52,114.57c-0.58-1.23-1.17-2-1.33-2.21c-0.02-0.02-0.03-0.04-0.05-0.05
						c-1.27,0.78-3.08,1.61-3.53,4.48c-0.45,2.87,0.05,5.39,0.2,6.45c0,0-1.06-0.15-1.03,0.91c0,0-6.05-0.28-8.4,0.93l-0.66,2.94
						l-0.08,0.37c0,0,5.67,2.12,10.23,1.24c0.7-0.14,1.37-0.34,2-0.64c1.43-0.68,2.59-1.83,3.19-3.67
						C159.6,120.58,158.57,116.81,157.52,114.57z"/>
					<path class="st6" d="M125.84,142.84c0,0,0-0.01,0.01-0.02c-0.61-0.44-2.05-1.47-3.13-2.11c-0.84-0.49-1.46-0.75-1.33-0.32
						c0.14,0.43,0.37,0.86,0.67,1.26c1.86,2.57,6.28,4.5,6.28,4.5l0.73-1.18L125.84,142.84z"/>
					<path class="st27" d="M125.84,142.82c0,0.01-0.01,0.02-0.01,0.02l3.22,2.14l-2.92-1.94
						C126.13,143.03,126.02,142.95,125.84,142.82z"/>
					<path class="st6" d="M118.67,139.98c0,0-3.58,1.14-5.28,0.74s-2.96,0.03,0,1.06s6.58,2.6,6.58,2.6l1.38-2.45l-1.56-1.13
						L118.67,139.98z"/>
					<polygon class="st27" points="119.8,140.8 121.36,141.93 121.36,141.93 					"/>
					<g>
						<path class="st29" d="M138.38,124.15c-0.02-0.28-0.07-0.49-0.17-0.57c-0.42-0.33-3.28-0.48-3.33,0.15
							c-0.07,1-0.31,3.98,0.25,4.13c0.56,0.15,3.08,0.22,3.08-0.34c0-0.13,0.02-0.42,0.06-0.77c0.46-0.08,1.04-0.51,1.25-1.48
							C139.68,124.47,138.83,124.22,138.38,124.15z M139.02,125.35c-0.11,0.55-0.44,0.8-0.7,0.84c0.04-0.48,0.08-1.01,0.08-1.47
							C138.66,124.76,139.11,124.9,139.02,125.35z"/>
						<path class="st6" d="M138.21,124.08c-0.02-0.28-0.07-0.49-0.17-0.57c-0.42-0.33-3.28-0.48-3.33,0.15
							c-0.07,1-0.31,3.98,0.25,4.13c0.56,0.15,3.08,0.22,3.08-0.34c0-0.13,0.02-0.42,0.06-0.77c0.46-0.08,1.04-0.51,1.25-1.48
							C139.51,124.39,138.66,124.15,138.21,124.08z M138.85,125.28c-0.11,0.55-0.44,0.8-0.7,0.84c0.04-0.48,0.08-1.01,0.08-1.47
							C138.49,124.69,138.94,124.83,138.85,125.28z"/>
					</g>
					<path class="st27" d="M142.77,124.71c-0.39-0.28-0.97-0.59-1.69-0.68c-0.48-0.06-1.02-0.02-1.61,0.2
						c-0.73,0.27-0.94,1.36-0.84,2.23c0.01,0.09,0.02,0.18,0.04,0.27c0.01,0.06,0.03,0.13,0.04,0.19c0.05,0.19,0.12,0.36,0.2,0.48
						c0.12,0.18,0.28,0.26,0.45,0.17c0.05-0.02,0.1-0.05,0.16-0.06c0.25-0.08,0.6-0.12,0.98-0.12c0.31,0,0.64,0.01,0.95,0.03
						c0.25,0.02,0.49,0.04,0.7,0.06c0.4,0.04,0.68,0.09,0.68,0.09l0.53-2.35C143.35,125.22,143.14,124.98,142.77,124.71z"/>
				</g>
				<g>
					<path class="st30" d="M135.15,121.66c-0.5-0.51,0.57-0.55,0.57-0.55c0.14-0.65,0.6,0.34,0.6,0.34s0.42,0.2,0.06,0.25
						C136.01,121.75,135.65,122.17,135.15,121.66z"/>
					<path class="st6" d="M136.35,121.27c0,0-0.45-0.99-0.6-0.34c0,0-1.07,0.04-0.57,0.55s0.74,0.28,0.74,0.28"/>
					<path class="st30" d="M137.15,122.49c0.08,0.45-0.5,0.09-0.5,0.09c-0.31,0.29-0.2-0.39-0.2-0.39s-0.15-0.26,0.06-0.15
						C136.73,122.14,137.06,122.05,137.15,122.49z"/>
					<path class="st6" d="M136.38,122.28c0,0-0.11,0.69,0.2,0.39c0,0,0.58,0.36,0.5-0.09c-0.08-0.45-0.29-0.41-0.29-0.41"/>
				</g>
			</g>
			<g>
				<g>
					<path class="st22" d="M145.78,130.18v15.01c0,0.59,0.48,1.08,1.08,1.08s1.08-0.48,1.08-1.08v-15.01c0-0.01,0-0.02,0-0.04h-2.14
						C145.78,130.16,145.78,130.17,145.78,130.18z"/>
					<path class="st22" d="M163.13,144.73l-7.26-14.58h-2.4l7.74,15.53c0.26,0.53,0.91,0.75,1.44,0.49
						C163.17,145.9,163.39,145.26,163.13,144.73z"/>
					<path class="st22" d="M159.78,128h-17.23c-0.59,0-1.08,0.48-1.08,1.08c0,0.59,0.48,1.08,1.08,1.08h3.23h2.14h5.53h2.4h3.92
						c0.59,0,1.08-0.48,1.08-1.08C160.86,128.48,160.38,128,159.78,128z"/>
				</g>
				<path class="st22" d="M157.66,138.39h-9.73v-2.15h9.73c0,0,1.13,0.09,1.13,1.13C158.8,137.38,158.72,138.39,157.66,138.39z"/>
			</g>
			<g>
				<path class="st6" d="M145.78,130.01v15.01c0,0.59,0.48,1.08,1.08,1.08s1.08-0.48,1.08-1.08v-15.01c0-0.01,0-0.02,0-0.04h-2.14
					C145.78,129.98,145.78,129.99,145.78,130.01z"/>
				<path class="st6" d="M163.13,144.55l-7.26-14.58h-2.4l3.04,6.09h1.17c0,0,1.13,0.09,1.13,1.13c0,0-0.08,1.02-1.13,1.02h-0.1
					l3.63,7.28c0.26,0.53,0.91,0.75,1.44,0.49C163.17,145.72,163.39,145.08,163.13,144.55z"/>
				<path class="st6" d="M159.78,129.97c0.59,0,1.08-0.48,1.08-1.08c0-0.59-0.48-1.08-1.08-1.08h-17.23c-0.59,0-1.08,0.48-1.08,1.08
					c0,0.59,0.48,1.08,1.08,1.08h3.23h2.14h5.53h2.4H159.78z"/>
				<path class="st6" d="M157.66,136.06h-1.17h-8.56v2.15h9.64h0.1c1.05,0,1.13-1.02,1.13-1.02
					C158.8,136.15,157.66,136.06,157.66,136.06z"/>
			</g>
		</g>
		<rect x="211.75" y="152.27" class="st17" width="5.41" height="101.51"/>
		<rect x="17.99" y="61.35" class="st31" width="172.81" height="2.84"/>
		<rect x="190.8" y="61.35" class="st32" width="113.87" height="2.84"/>
		<path class="st17" d="M17.85,64.24v88.08h172.59V64.24H17.85z M185.86,147.75H22.42V68.82h163.44V147.75z"/>
		<path class="st31" d="M190.8,64.24v88.08h113.87V64.24H190.8z"/>
		<path class="st6" d="M17.6,64.19v88.08h172.59V64.19H17.6z M185.62,147.7H22.17V68.76h163.44V147.7z"/>
		<path class="st6" d="M17.6,64.19v88.08h172.59V64.19H17.6z M185.62,147.7H22.17V68.76h163.44V147.7z"/>
		<path class="st6" d="M190.19,64.19v88.08h113.87V64.19H190.19z"/>
		<path class="st6" d="M190.19,61.84v2.35h113.87v-2.35H190.19z"/>
		<path class="st6" d="M17.6,61.84v2.35h172.59v-2.35H17.6z"/>
		<path class="st6" d="M194.16,64.19c0,0-0.62,47.34,0.12,65.09s-0.12,22.99-0.12,22.99"/>
		<path class="st6" d="M205.98,64.19c0,0-0.62,47.34,0.12,65.09s-0.12,22.99-0.12,22.99"/>
		<path class="st6" d="M198.8,64.19c0,0-2.73,31.06-1.99,48.82s1.99,39.26,1.99,39.26"/>
		<path class="st6" d="M203.05,64.19c0,0-0.24,3.14-1.06,20.89c-2.22,47.9,1.06,67.19,1.06,67.19"/>
		<path class="st6" d="M214.86,64.19c0,0-0.2,3.14-0.87,20.89c-1.83,47.9,0.87,67.19,0.87,67.19"/>
		<path class="st6" d="M208.9,152.27c0,0,0.24-3.14,1.06-20.89c2.22-47.9-1.06-67.19-1.06-67.19"/>
		<path class="st6" d="M239.1,152.27c0,0,0.62-47.34-0.12-65.09s0.12-22.99,0.12-22.99"/>
		<path class="st6" d="M227.28,152.27c0,0,0.62-47.34-0.12-65.09s0.12-22.99,0.12-22.99"/>
		<path class="st6" d="M234.46,152.27c0,0,2.73-31.06,1.99-48.82s-1.99-39.26-1.99-39.26"/>
		<path class="st6" d="M230.22,152.27c0,0,0.24-3.14,1.06-20.89c2.22-47.9-1.06-67.19-1.06-67.19"/>
		<path class="st6" d="M218.4,152.27c0,0,0.2-3.14,0.87-20.89c1.83-47.9-0.87-67.19-0.87-67.19"/>
		<path class="st6" d="M224.36,64.19c0,0-0.24,3.14-1.06,20.89c-2.22,47.9,1.06,67.19,1.06,67.19"/>
		<path class="st6" d="M242.94,64.19c0,0-0.62,47.34,0.12,65.09c0.74,17.75-0.12,22.99-0.12,22.99"/>
		<path class="st6" d="M254.76,64.19c0,0-0.62,47.34,0.12,65.09s-0.12,22.99-0.12,22.99"/>
		<path class="st6" d="M247.58,64.19c0,0-2.73,31.06-1.99,48.82s1.99,39.26,1.99,39.26"/>
		<path class="st6" d="M251.82,64.19c0,0-0.24,3.14-1.06,20.89c-2.22,47.9,1.06,67.19,1.06,67.19"/>
		<path class="st6" d="M263.64,64.19c0,0-0.2,3.14-0.87,20.89c-1.83,47.9,0.87,67.19,0.87,67.19"/>
		<path class="st6" d="M257.68,152.27c0,0,0.24-3.14,1.06-20.89c2.22-47.9-1.06-67.19-1.06-67.19"/>
		<path class="st6" d="M275.7,152.27c0,0,0.62-47.34-0.12-65.09s0.12-22.99,0.12-22.99"/>
		<path class="st6" d="M271.06,152.27c0,0,2.73-31.06,1.99-48.82s-1.99-39.26-1.99-39.26"/>
		<path class="st6" d="M266.82,152.27c0,0,0.24-3.14,1.06-20.89c2.22-47.9-1.06-67.19-1.06-67.19"/>
		<path class="st6" d="M279.54,64.19c0,0-0.62,47.34,0.12,65.09s-0.12,22.99-0.12,22.99"/>
		<path class="st6" d="M291.36,64.19c0,0-0.62,47.34,0.12,65.09s-0.12,22.99-0.12,22.99"/>
		<path class="st6" d="M284.18,64.19c0,0-2.73,31.06-1.99,48.82s1.99,39.26,1.99,39.26"/>
		<path class="st6" d="M288.43,64.19c0,0-0.24,3.14-1.06,20.89c-2.22,47.9,1.06,67.19,1.06,67.19"/>
		<path class="st6" d="M300.25,64.19c0,0-0.2,3.14-0.87,20.89c-1.83,47.9,0.87,67.19,0.87,67.19"/>
		<path class="st6" d="M294.29,152.27c0,0,0.24-3.14,1.06-20.89c2.22-47.9-1.06-67.19-1.06-67.19"/>
		<rect x="211.2" y="152.27" class="st6" width="5.41" height="101.51"/>
		<path class="st33" d="M132.05,71.27h23.34c0,0-10.4,12.67-21.33,18.26c-10.93,5.6-13.85,28.34-22.67,31.28
			c-8.82,2.94-18.91,5.56-17.93-4.77s18.99-14.56,23.89-22.15S132.05,71.27,132.05,71.27z"/>
		<path class="st33" d="M134.91,144.7H115.1c0,0,8.83-9.54,18.1-13.76c9.28-4.22,11.75-21.35,19.24-23.56s16.05-4.19,15.21,3.6
			c-0.84,7.78-16.12,10.97-20.27,16.68C143.22,133.38,134.91,144.7,134.91,144.7z"/>
		<path class="st33" d="M48.65,144.94H29.72c0,0,8.43-8.25,17.3-11.9s11.23-18.46,18.38-20.38s15.34-3.62,14.54,3.11
			c-0.8,6.73-15.4,9.49-19.37,14.43C56.59,135.15,48.65,144.94,48.65,144.94z"/>
		<g>
			<g>
				<rect x="333.4" y="136.84" class="st31" width="3.01" height="15.48"/>
				<rect x="333.18" y="136.84" class="st34" width="3.01" height="15.48"/>
			</g>
			<g>
				<rect x="338.03" y="109.63" class="st31" width="1.14" height="24.08"/>
				<rect x="337.94" y="109.63" class="st34" width="1.14" height="24.08"/>
			</g>
			<g>
				<rect x="333.49" y="109.63" class="st31" width="1.14" height="24.08"/>
				<rect x="333.4" y="109.63" class="st34" width="1.14" height="24.08"/>
			</g>
			<g>
				<rect x="328.95" y="109.63" class="st31" width="1.14" height="24.08"/>
				<rect x="328.86" y="109.63" class="st34" width="1.14" height="24.08"/>
			</g>
			<g>
				<rect x="324.41" y="109.63" class="st31" width="1.14" height="24.08"/>
				<rect x="324.32" y="109.63" class="st34" width="1.14" height="24.08"/>
			</g>
			<g>
				<rect x="319.87" y="109.63" class="st31" width="1.14" height="24.08"/>
				<rect x="319.78" y="109.63" class="st34" width="1.14" height="24.08"/>
			</g>
			<g>
				<rect x="315.33" y="109.63" class="st31" width="1.14" height="24.08"/>
				<rect x="315.24" y="109.63" class="st34" width="1.14" height="24.08"/>
			</g>
			<g>
				<rect x="310.79" y="109.63" class="st31" width="1.14" height="24.08"/>
				<rect x="310.7" y="109.63" class="st34" width="1.14" height="24.08"/>
			</g>
			<g>
				<rect x="306.25" y="109.63" class="st31" width="1.14" height="24.08"/>
				<rect x="306.16" y="109.63" class="st34" width="1.14" height="24.08"/>
			</g>
			<g>
				<rect x="304.16" y="133.71" class="st31" width="37.37" height="3.88"/>
				<rect x="304.07" y="133.71" class="st6" width="37.37" height="3.88"/>
			</g>
			<g>
				<rect x="304.16" y="107.7" class="st31" width="37.37" height="1.94"/>
				<rect x="304.07" y="107.7" class="st6" width="37.37" height="1.94"/>
			</g>
		</g>
	</g>
	<g>
		<g class="st2">
			<path class="st3" d="M291.33,257.88c-6.66,0.01-13.32,0.01-19.99,0.01c-1.42,0-2.85,0-4.22,0.35c-1.37,0.34-2.69,1.07-3.44,2.24
				c8.68,3.86,19.4,3.05,27.35-2.06"/>
		</g>
		<path class="st4" d="M270.2,260.38c0,0-11.77-14.91-5.66-18.49c0,0-10.83-11.38-2.12-13.14c8.71-1.76,7.3,5.62,7.3,5.62
			s-8.24-4.86-4.47-11.87c3.77-7.01,9.06,0,9.06,0s1.65-5.47,3.65-3.37c2,2.11,0,4.89,0,4.89s-1.29-5.87,2.47-3.69
			s12.35,0.94,5.53,14.04c-6.82,13.1-4.24,2.62-1.18-2.47c3.06-5.09,10.47-12.96,11.18-1.12c0.71,11.84-8,20.07-13.65,18.29
			s0.31-3.4,2.59-1.98s10.82,2.21,5.53,7.94c0,0-4.05,5.37-9.22,5.35C276.02,260.37,270.2,260.38,270.2,260.38z"/>
		<path class="st5" d="M263.69,243.49c0,0-0.05-3.2,2.06-3.2s9.85,4.35,6.12,4.97C268.14,245.89,265.76,245.85,263.69,243.49z"/>
		<path class="st5" d="M267.39,222.04c0,0,0.3-1.54,2.3-0.47s8.81,7.07,5.22,5.46C271.32,225.44,269.08,224.21,267.39,222.04z"/>
		<path class="st5" d="M288.02,235.28c0,0-1.77-1.72-0.7-4.16c1.07-2.44,7.35-8.99,5.8-4.32
			C291.57,231.46,290.35,234.2,288.02,235.28z"/>
		<path class="st6" d="M269.42,259.63c0,0-11.77-14.91-5.66-18.49c0,0-10.83-11.38-2.12-13.14s7.3,5.62,7.3,5.62
			s-8.24-4.86-4.47-11.87s9.06,0,9.06,0s1.65-5.47,3.65-3.37s0,4.89,0,4.89s-1.29-5.87,2.47-3.69c3.76,2.17,12.35,0.94,5.53,14.04
			c-6.82,13.1-4.24,2.62-1.18-2.47c3.06-5.09,10.47-12.96,11.18-1.12c0.71,11.84-8,20.07-13.65,18.29c-5.65-1.78,0.31-3.4,2.59-1.98
			c2.27,1.42,10.82,2.21,5.53,7.94c0,0-4.05,5.37-9.22,5.35C275.25,259.62,269.42,259.63,269.42,259.63z"/>
	</g>
	<g>
		<rect x="297.16" y="183.99" class="st0" width="42.31" height="78.97"/>
		<rect x="297.16" y="248.92" class="st35" width="42.31" height="14.04"/>
		<g>
			<g>
				<g>
					<path class="st29" d="M302.86,234.85c0.04,7.4,6.79,10.33,13.75,10.49c0,0,0.26-0.01,0.63-0.02c0.19,0,0.42,0,0.65,0
						c0.29,0.01,0.59,0.02,0.88,0.06c0.35,0.04,0.67,0.1,0.9,0.2c0.05,0.02,0.1,0.05,0.14,0.07c0.15,0.1,0.3,0.04,0.43-0.12
						c0.09-0.1,0.16-0.25,0.23-0.42c0.02-0.05,0.04-0.11,0.06-0.17c0.02-0.08,0.04-0.16,0.06-0.25c0.17-0.8,0.07-1.82-0.58-2.14
						c-0.53-0.25-1.02-0.34-1.47-0.33c-0.67,0.01-1.23,0.25-1.62,0.47c-0.37,0.21-0.58,0.42-0.58,0.42s-9.51-2.29-9.03-8.24
						c0,0,7.64-0.85,9.02-0.04c1.38,0.81,3.1,6.14,3.1,6.14s1.58-0.18,2.23,1.12c0,0,1.56,0.8,3.3,1.58c1.58,0.71,3.3,1.4,4.13,1.47
						c1.75,0.13,3.74,3.1,4.65,7.15c0.53,1.81,1.52,2.84,1.58,3.34c0.06,0.49-0.09,0.98-0.1,0.98c-0.01-0.01-0.02-0.03-0.03-0.04
						l-0.09-0.15l-0.16-0.26c0,0-0.78-0.81-2.89,0.14c-0.55,0.25-1.18,0.61-1.92,1.15c-0.01-0.04-0.02-0.07-0.02-0.11l-0.16-0.72
						l-0.02-0.09c0,0-0.38-0.49-2.44,1.14l0.04,0.1c0.1,0.21,0.19,0.42,0.29,0.63l0.01,0.02c0,0-0.94,0.06-1.17-1.02
						c-0.23-1.07-2.11-5.93-2.52-6.41c0,0-0.11,0.59-1.02,0.3c0,0-3.82,0.55-7.71,0.45c-2.65-0.07-5.34-0.44-6.85-1.5
						c-3.74-2.61-3.39-4.99-3.64-7.21c0,0-1.19-1.69-0.88-2.07c0,0-1.02-1.92-0.91-2.38C303.1,238.58,302.12,236.45,302.86,234.85z"
						/>
					<g>
						<path class="st29" d="M316.12,220.83c0.04,1.13-0.66,1.9-0.66,1.9s0.29-1.91-0.82-2.8c0,0-0.94,3.21-3.94,1.54
							c-0.19,1.98-1.06,1.59-1.06,1.59c0.09-0.87-0.7-0.85-0.7-0.85s-1.07,0.03-0.9,1.18c0.18,1.15,0.99,0.97,0.99,0.97
							s0.12,0.79-0.35,1.44l-0.15,1.56c0,0-1.12,0.62-1.95-0.19c-0.83-0.81-0.77-2.03-0.77-2.03s-2.53-1.56-1.74-2.74
							c0,0-1.38-1.86,1.43-4.74s5.69-2.92,8.26-1.03c0,0,2.42,0.16,2.17,1.59C315.92,218.21,317.72,219.46,316.12,220.83z"/>
						<path class="st36" d="M315.83,220.5c0,0-0.53-0.74-1.2-1.04c-2.73-1.27-4.74,2.01-5.27,2.99c0.12,0.13,0.21,0.33,0.18,0.65
							c0,0,0.86,0.38,1.06-1.59c3,1.67,3.94-1.54,3.94-1.54c1.11,0.89,0.82,2.8,0.82,2.8s0.7-0.77,0.66-1.89
							C315.97,220.74,315.9,220.61,315.83,220.5z"/>
						<path class="st27" d="M315.48,221.61c-0.01-0.15-0.04-0.31-0.07-0.47c0,0,0,0,0,0c-0.02-0.07-0.04-0.15-0.06-0.23
							c0-0.01,0-0.01-0.01-0.02c-0.02-0.07-0.05-0.14-0.07-0.21c0-0.01-0.01-0.02-0.01-0.04c-0.03-0.07-0.06-0.13-0.09-0.19
							c-0.01-0.01-0.01-0.03-0.02-0.04c-0.03-0.06-0.07-0.13-0.12-0.19c-0.01-0.01-0.01-0.02-0.02-0.03
							c-0.1-0.14-0.22-0.27-0.36-0.39c0,0.01-0.3,1.02-1.09,1.6c-0.62,0.46-1.54,0.66-2.85-0.07c-0.1,0.99-0.36,1.39-0.6,1.54
							c-0.24,0.15-0.46,0.06-0.46,0.06c0.09-0.87-0.7-0.85-0.7-0.85s-0.02,0-0.05,0c-0.03,0-0.07,0.01-0.12,0.02
							c-0.06,0.01-0.13,0.03-0.2,0.06c-0.01,0-0.01,0-0.02,0.01c-0.07,0.03-0.15,0.07-0.22,0.13c0,0,0,0,0,0
							c-0.06,0.05-0.11,0.1-0.16,0.17c0,0,0,0,0,0.01c-0.05,0.07-0.08,0.15-0.11,0.24c-0.04,0.15-0.05,0.32-0.02,0.54
							c0,0.01,0,0.02,0.01,0.03c0.01,0.08,0.03,0.16,0.05,0.23c0.01,0.02,0.01,0.05,0.02,0.07c0.02,0.06,0.04,0.12,0.07,0.17
							c0.01,0.01,0.01,0.03,0.02,0.04c0.03,0.05,0.06,0.09,0.09,0.13c0.01,0.01,0.02,0.03,0.03,0.04c0.03,0.03,0.06,0.07,0.09,0.09
							c0.01,0.01,0.03,0.02,0.04,0.03c0.02,0.02,0.04,0.03,0.06,0.04c0.02,0.01,0.03,0.02,0.05,0.02c0.02,0.01,0.03,0.02,0.05,0.02
							c0.02,0.01,0.03,0.01,0.05,0.02c0.02,0.01,0.03,0.01,0.05,0.01c0.01,0,0.03,0.01,0.04,0.01c0.01,0,0.03,0,0.04,0.01
							c0.03,0,0.05,0.01,0.07,0.01c0.01,0,0.02,0,0.03,0c0.01,0,0.03,0,0.04,0c0.01,0,0.01,0,0.02,0c0.01,0,0.02,0,0.03,0
							c0,0,0,0,0,0c0.02,0,0.03-0.01,0.03-0.01s0.11,0.79-0.35,1.44c0,0,0,0,0,0c0.31,0.65,1.14,1.97,2.95,2.7
							c0.13,0.01,0.26,0.01,0.4-0.01c1.15-0.15,2.5-1.34,3.02-2.92C315.35,224.55,315.52,222.69,315.48,221.61z"/>
						<g>
							<circle class="st28" cx="314.56" cy="223.16" r="0.21"/>
							<circle class="st28" cx="311.56" cy="222.87" r="0.21"/>
							<path class="st6" d="M313.47,223.19c0,0-0.67,0.9,0.2,1.07c0,0,0.06,0.75-0.99,0.46"/>
							<path class="st6" d="M313.52,226.07c0,0-1.21,0.31-1.9-0.49"/>
						</g>
						<path class="st6" d="M316.13,220.71c0.04,1.13-0.66,1.9-0.66,1.9s0.29-1.91-0.82-2.8c0,0-0.94,3.21-3.94,1.54
							c-0.19,1.98-1.06,1.59-1.06,1.59c0.09-0.87-0.7-0.85-0.7-0.85s-1.07,0.03-0.9,1.18c0.18,1.15,0.99,0.97,0.99,0.97
							s0.12,0.79-0.35,1.44l-0.15,1.56c0,0-1.12,0.62-1.95-0.19s-0.77-2.03-0.77-2.03s-2.53-1.56-1.74-2.74c0,0-1.38-1.86,1.43-4.74
							s5.69-2.92,8.26-1.03c0,0,2.42,0.16,2.17,1.59C315.93,218.09,317.73,219.34,316.13,220.71z"/>
						<path class="st6" d="M313.76,216.5c-0.32-0.01-3.75-1.29-6.3,1.22"/>
						<path class="st6" d="M315.93,218.09c0,0-1.13-0.71-3.57-0.03"/>
						<path class="st6" d="M305.81,225.01c0,0,0.19-4.2,2.43-5.99"/>
						<path class="st6" d="M309.55,222.4c0,0,1.97-4.47,5.17-2.99c0.67,0.3,1.2,1.04,1.2,1.04"/>
					</g>
					<path class="st37" d="M335.29,256.26l0.09,0.15C335.35,256.36,335.32,256.31,335.29,256.26z"/>
					<path class="st37" d="M327.67,257.51L327.67,257.51c0.01,0.03,0.03,0.06,0.04,0.1L327.67,257.51z"/>
					<path class="st37" d="M330.13,256.46l0.16,0.72C330.24,256.96,330.19,256.72,330.13,256.46z"/>
					<path class="st27" d="M334.49,258.94c0,0-0.03,0.02-0.07,0.04c-0.59-0.76-1.39-1.79-2.18-2.84c2.11-0.95,2.89-0.14,2.89-0.14
						l0.16,0.26c0.03,0.05,0.06,0.1,0.09,0.15l0.03,0.04c0,0,0,0,0,0c0.54,0.84,1.16,1.73,1.9,2.68c0,0,3.28,1.23,4.88,1.02
						c1.6-0.21,2.73,0.3-0.1,0.98c-2.83,0.68-5.63,1.51-5.63,1.51l-1.06-2.39c0,0-0.18-0.22-0.46-0.58
						c0.22-0.28,0.41-0.57,0.54-0.88C335.61,258.46,335.13,258.62,334.49,258.94z"/>
					<path class="st27" d="M327.67,257.51c2.07-1.63,2.44-1.14,2.44-1.14l0.02,0.09c0.05,0.25,0.11,0.49,0.16,0.72l0.02,0.11
						c0,0,0,0,0,0c0.47,2.17,0.76,3.37,0.8,3.52l0,0.02c0.28,0.01,2.86-1.57,3.3-1.84c0.04-0.03,0.07-0.04,0.07-0.04
						c0.65-0.32,1.12-0.48,1-0.15c-0.12,0.31-0.31,0.6-0.54,0.88c-0.02,0.02-0.03,0.04-0.05,0.07c-1.56,1.88-4.93,3.07-4.93,3.07
						l-0.43-1.14c-0.07-0.18-0.73-1.63-1.54-3.43l-0.29-0.63C327.7,257.57,327.68,257.54,327.67,257.51z"/>
					<path class="st6" d="M335.38,256.41c0.01,0.01,0.02,0.03,0.03,0.04c0,0,0,0,0,0L335.38,256.41z"/>
					<path class="st27" d="M330.31,257.29l-0.02-0.11C330.3,257.22,330.3,257.26,330.31,257.29
						C330.31,257.29,330.31,257.29,330.31,257.29z"/>
					<path class="st27" d="M328,258.23c-0.09-0.21-0.19-0.42-0.29-0.63L328,258.23z"/>
					<path class="st27" d="M308.38,228.7C308.38,228.7,308.38,228.7,308.38,228.7l0.29-3c0,0,0,0,0,0c0.31,0.64,1.12,1.94,2.9,2.66
						c0.13,0.01,0.26,0.01,0.39-0.01c-0.03,0.32-0.06,0.69-0.09,1.02c0,0,4.31,1.06,6.6,5.7c2.29,4.63,6.66,8.43,6.67,8.44
						c-1.74-0.78-3.3-1.58-3.3-1.58c-0.64-1.3-2.23-1.12-2.23-1.12s-1.72-5.33-3.1-6.14c-1.38-0.81-9.02,0.04-9.02,0.04
						c-0.49,5.95,9.03,8.24,9.03,8.24s0.21-0.21,0.58-0.42c0.39-0.23,0.95-0.46,1.62-0.47c0.45-0.01,0.94,0.08,1.47,0.33
						c0.65,0.32,0.74,1.34,0.58,2.14c-0.02,0.08-0.04,0.17-0.06,0.25c-0.02,0.06-0.04,0.12-0.06,0.17
						c-0.06,0.17-0.14,0.32-0.23,0.42c-0.13,0.16-0.28,0.21-0.43,0.12c-0.04-0.03-0.09-0.05-0.14-0.07c-0.22-0.1-0.55-0.16-0.9-0.2
						c-0.29-0.03-0.59-0.05-0.88-0.06c-0.23-0.01-0.46-0.01-0.65,0c-0.37,0.01-0.63,0.02-0.63,0.02
						c-6.95-0.16-13.71-3.09-13.75-10.49C303.06,234.69,303.62,228.35,308.38,228.7z"/>
					<path class="st6" d="M303.06,234.69c0.04,7.4,6.79,10.33,13.75,10.49c0,0,0.26-0.01,0.63-0.02c0.19,0,0.42,0,0.65,0
						c0.29,0.01,0.59,0.02,0.88,0.06c0.35,0.04,0.67,0.1,0.9,0.2c0.05,0.02,0.1,0.05,0.14,0.07c0.15,0.1,0.3,0.04,0.43-0.12
						c0.09-0.1,0.16-0.25,0.23-0.42c0.02-0.05,0.04-0.11,0.06-0.17c0.02-0.08,0.04-0.16,0.06-0.25c0.17-0.8,0.07-1.82-0.58-2.14
						c-0.53-0.25-1.02-0.34-1.47-0.33c-0.67,0.01-1.23,0.25-1.62,0.47c-0.37,0.21-0.58,0.42-0.58,0.42s-9.51-2.29-9.03-8.24
						c0,0,7.64-0.85,9.02-0.04c1.38,0.81,3.1,6.14,3.1,6.14s1.58-0.18,2.23,1.12c0,0,1.56,0.8,3.3,1.58c1.58,0.71,3.3,1.4,4.13,1.47
						c1.75,0.13,3.74,3.1,4.65,7.15c0.53,1.81,1.52,2.84,1.58,3.34c0.06,0.49-0.09,0.98-0.1,0.98c-0.01-0.01-0.02-0.03-0.03-0.04
						l-0.09-0.15l-0.16-0.26c0,0-0.78-0.81-2.89,0.14c-0.55,0.25-1.18,0.61-1.92,1.15c-0.01-0.04-0.02-0.07-0.02-0.11l-0.16-0.72
						l-0.02-0.09c0,0-0.38-0.49-2.44,1.14l0.04,0.1c0.1,0.21,0.19,0.42,0.29,0.63l0.01,0.02c0,0-0.94,0.06-1.17-1.02
						c-0.23-1.07-2.11-5.93-2.52-6.41c0,0-0.11,0.59-1.02,0.3c0,0-3.82,0.55-7.71,0.45c-2.65-0.07-5.34-0.44-6.85-1.5
						c-3.74-2.61-3.39-4.99-3.64-7.21c0,0-1.19-1.69-0.88-2.07c0,0-1.02-1.92-0.91-2.38C303.31,238.42,302.32,236.29,303.06,234.69z
						"/>
					<path class="st6" d="M330.89,255.36c0,0-0.96-5.32-1.44-6.79c-0.47-1.46,0.02-2.71-3.01-3.32c-3.03-0.61-5.58-1.34-5.58-1.34"
						/>
					<path class="st6" d="M319.62,240.81c0,0-4.91-0.05-6.07-0.6"/>
					<path class="st6" d="M321.85,241.93c0,0-1.57-0.33-2.17-0.15"/>
					<path class="st27" d="M305.1,242.86c0,0-0.09-1.29,0.04-1.65"/>
				</g>
			</g>
			<path class="st6" d="M314.87,220.77c0,0-0.02,0.47,0.04,0.7c0.07,0.23-0.22,0.43-0.39,0.3s0.11-0.75,0.11-0.75"/>
			<path class="st6" d="M309.92,223.39c0,0-0.07,0.46-0.18,0.68c-0.11,0.21,0.13,0.46,0.32,0.37c0.19-0.09,0.04-0.76,0.04-0.76"/>
		</g>
		<g>
			<g>
				<path class="st38" d="M324.52,241.9c0,0-1.12-1.88,0.15-2.01c1.27-0.13,0.9-1.68,2.25-0.37c0,0,1.19-0.95,1.72,0.24
					c0,0,1.35-1.03,2.38,0.04c0.56,0.58,0.47,0.99,0.28,1.25c0.39-0.24,1.04-0.45,1.69,0.1c1.07,0.9,0.13,1.31,0.13,1.31
					s1.11-0.58,1.84-0.13c0,0-0.33-2.17,0.98-1.64c0.65,0.26,0.83,0.55,0.86,0.78c-0.08,0.23-0.12,0.4-0.12,0.4s0.15-0.17,0.12-0.4
					c0.23-0.67,0.79-1.9,1.76-1.48c1.31,0.57,1.19,1.19,0.99,1.47c0,0,0.86,0.2,1.27,0.74c0.19,0.24,0.12,0.59-0.02,0.9
					c-0.15,0.36-0.39,0.66-0.39,0.66s1.56-0.45,1.76-0.04c0.21,0.41,0.17,1.03,0.17,1.03l-0.72,0l-17.89,0.03
					c0,0-0.33-0.7-0.42-1.41C323.22,242.63,323.4,241.86,324.52,241.9z"/>
				<path class="st6" d="M336.75,241.66c0,0,0.04-0.17,0.12-0.4C336.89,241.49,336.75,241.66,336.75,241.66z"/>
				<path class="st6" d="M324.58,241.69c0,0-1.12-1.88,0.15-2.01c1.27-0.13,0.9-1.68,2.25-0.37c0,0,1.19-0.95,1.72,0.24
					c0,0,1.35-1.03,2.38,0.04c0.56,0.58,0.47,0.99,0.28,1.25c0.39-0.24,1.04-0.45,1.69,0.1c1.07,0.9,0.13,1.31,0.13,1.31
					s1.11-0.58,1.84-0.13c0,0-0.33-2.17,0.98-1.64c0.65,0.26,0.83,0.55,0.86,0.78c-0.08,0.23-0.12,0.4-0.12,0.4s0.15-0.17,0.12-0.4
					c0.23-0.67,0.79-1.9,1.76-1.48c1.31,0.57,1.19,1.19,0.99,1.47c0,0,0.86,0.2,1.27,0.74c0.19,0.24,0.12,0.59-0.02,0.9
					c-0.15,0.36-0.39,0.66-0.39,0.66s1.56-0.45,1.76-0.04c0.21,0.41,0.17,1.03,0.17,1.03l-0.72,0l-17.89,0.03
					c0,0-0.33-0.7-0.42-1.41C323.28,242.41,323.45,241.65,324.58,241.69z"/>
				<path class="st6" d="M326.98,239.31c0,0-0.38,0.31-0.22,0.74"/>
				<path class="st6" d="M333.13,242.9c0,0,0.09-0.77-0.38-0.78c-0.47-0.01-0.99,0-1,0.39c-0.01,0.39,0,0.65,0,0.65"/>
				<path class="st6" d="M324.58,241.69c0,0,0.9-0.2,1.18,0.44"/>
				<path class="st6" d="M325.96,243.48c0,0-0.24-1.23,0.62-0.94c0.85,0.29,0.57,0.69,0.57,0.69"/>
				<path class="st6" d="M331.25,241.37c0,0-0.7-1.21-1.33-0.91c-0.64,0.3-0.81,1.02-0.81,1.02"/>
				<path class="st6" d="M340.47,244.01c0,0-1-1.66-1.68-1.05c-0.68,0.61-0.39,1.05-0.39,1.05"/>
			</g>
			
				<rect x="320.24" y="244.13" transform="matrix(-1 1.937785e-03 -1.937785e-03 -1 660.113 488.4648)" class="st18" width="19.16" height="0.85"/>
			
				<rect x="339.4" y="244.1" transform="matrix(1 -1.937785e-03 1.937785e-03 1 -0.4732 0.6638)" class="st18" width="5.79" height="0.85"/>
			
				<rect x="320.24" y="244.13" transform="matrix(-1 1.937785e-03 -1.937785e-03 -1 660.113 488.4648)" class="st18" width="19.16" height="0.85"/>
			
				<rect x="339.4" y="244.1" transform="matrix(1 -1.937785e-03 1.937785e-03 1 -0.4732 0.6638)" class="st18" width="5.79" height="0.85"/>
			
				<rect x="320.33" y="244.07" transform="matrix(-1 1.937785e-03 -1.937785e-03 -1 660.2895 488.3474)" class="st6" width="19.16" height="0.85"/>
			
				<rect x="339.49" y="244.04" transform="matrix(1 -1.937785e-03 1.937785e-03 1 -0.4731 0.6639)" class="st6" width="5.79" height="0.85"/>
			<polygon class="st22" points="335.09,245.31 339.49,245.3 339.52,264.45 335.13,264.46 320.6,264.49 320.57,245.34 			"/>
			<polygon class="st39" points="344.21,245.29 345.64,245.29 345.67,264.44 344.24,264.44 339.52,264.45 339.49,245.3 			"/>
			
				<rect x="320.35" y="244.92" transform="matrix(-1 1.937785e-03 -1.937785e-03 -1 660.3476 508.3527)" class="st6" width="19.16" height="19.16"/>
			
				<rect x="339.51" y="244.89" transform="matrix(1 -1.937785e-03 1.937785e-03 1 -0.4925 0.664)" class="st6" width="5.79" height="19.16"/>
			
				<rect x="320.33" y="244.07" transform="matrix(-1 1.937785e-03 -1.937785e-03 -1 660.2895 488.3474)" class="st6" width="19.16" height="0.85"/>
			
				<rect x="339.49" y="244.04" transform="matrix(1 -1.937785e-03 1.937785e-03 1 -0.4731 0.6639)" class="st6" width="5.79" height="0.85"/>
			<path class="st6" d="M338.38,245.22c0,0-0.03,16.38,0.04,18.59"/>
			<path class="st6" d="M337.76,245.22c0,0,0.37,5.94,0.02,10.03s0.18,8.56,0.18,8.56"/>
			<path class="st6" d="M336.32,245.22c0,0-0.23,16.06,0.3,18.26"/>
			<path class="st6" d="M335.4,263.81c0,0,0.49-10.47,0.18-13.13c-0.3-2.66-0.07-5.46-0.07-5.46"/>
			<path class="st6" d="M330.71,263.82c0,0,0.03-16.38-0.04-18.59"/>
			<path class="st6" d="M331.34,263.82c0,0-0.37-5.94-0.02-10.03c0.35-4.09-0.18-8.56-0.18-8.56"/>
			<path class="st6" d="M332.77,263.82c0,0,0.23-16.06-0.3-18.26"/>
			<path class="st6" d="M333.69,245.22c0,0-0.49,10.47-0.18,13.13c0.3,2.66,0.07,5.46,0.07,5.46"/>
			<path class="st6" d="M344.17,243.22c0,0-0.23,16.06,0.3,18.26"/>
			<path class="st6" d="M342.95,262.21c0,0,0.49-10.47,0.18-13.13c-0.3-2.66-0.07-5.46-0.07-5.46"/>
			<path class="st6" d="M340.63,263.23c0,0,0.23-16.06-0.3-18.26"/>
			<path class="st6" d="M341.7,244.47c0,0-0.49,10.47-0.18,13.13c0.3,2.66,0.07,5.46,0.07,5.46"/>
			<path class="st6" d="M329.31,245.23c0,0-0.03,16.38,0.04,18.59"/>
			<path class="st6" d="M328.68,245.23c0,0,0.37,5.94,0.02,10.03s0.18,8.56,0.18,8.56"/>
			<path class="st6" d="M327.25,245.24c0,0-0.23,16.06,0.3,18.26"/>
			<path class="st6" d="M326.33,263.83c0,0,0.49-10.47,0.18-13.13c-0.3-2.66-0.07-5.46-0.07-5.46"/>
			<path class="st6" d="M321.64,263.84c0,0,0.03-16.38-0.04-18.59"/>
			<path class="st6" d="M322.27,263.84c0,0-0.37-5.94-0.02-10.03c0.35-4.09-0.18-8.56-0.18-8.56"/>
			<path class="st6" d="M323.7,263.83c0,0,0.23-16.06-0.3-18.26"/>
			<path class="st6" d="M324.62,245.24c0,0-0.49,10.47-0.18,13.13c0.3,2.66,0.07,5.46,0.07,5.46"/>
			<g>
				<path class="st21" d="M330.07,227.78c0,0,1.52-1.73,2.43-0.01c0,0,1.81-1.49,2.3,0.21c0.49,1.7-1.22,4.69-2.48,3.3
					c0,0,0.8,0.32-1.08,0.59c0,0-4.39-0.72-2-1.96c0,0-2.53-0.6-0.05-1.74C329.2,228.17,329.51,227.76,330.07,227.78z"/>
				<path class="st6" d="M330.25,227.72c0,0,1.52-1.73,2.43-0.01c0,0,1.81-1.49,2.3,0.21c0.49,1.7-1.22,4.69-2.48,3.3
					c0,0,0.8,0.32-1.08,0.59c0,0-4.39-0.72-2-1.96c0,0-2.53-0.6-0.04-1.74"/>
			</g>
			<g>
				<path class="st21" d="M339.73,220.3c0,0,3.5-0.72,3.85,1.33c0,0,3.8-0.35,3.5,1.46c-0.3,1.81-4.88,3.56-5.99,1.61
					c0,0,1.05,0.73-2.07-0.06c0,0-6.47-3.06-1.93-2.87c0,0-3.61-1.93,1.03-1.59C338.11,220.17,338.87,219.98,339.73,220.3z"/>
				<path class="st6" d="M340.06,220.36c0,0,3.5-0.72,3.85,1.33c0,0,3.8-0.35,3.5,1.46s-4.88,3.56-5.99,1.61
					c0,0,1.05,0.73-2.07-0.06c0,0-6.47-3.06-1.93-2.87c0,0-3.61-1.93,1.03-1.59"/>
			</g>
			<g>
				<path class="st21" d="M329.32,233.27c0,0,1.48-0.16,0.97,1.15c0,0,1.47,0.1,0.8,1.2c-0.67,1.1-2.85,1.82-2.64,0.51
					c0,0,0.15,0.54-0.72-0.21c0,0-1.37-2.44,0.2-1.95c0,0-0.69-1.5,0.86-0.91C328.78,233.05,329.11,232.99,329.32,233.27z"/>
				<path class="st6" d="M329.42,233.33c0,0,1.48-0.16,0.97,1.15c0,0,1.47,0.1,0.8,1.2c-0.67,1.1-2.85,1.82-2.64,0.51
					c0,0,0.15,0.54-0.72-0.21c0,0-1.37-2.44,0.2-1.95c0,0-0.69-1.5,0.86-0.91"/>
			</g>
			<g>
				<path class="st21" d="M320.26,221.82c0,0,1.48-0.16,0.97,1.15c0,0,1.47,0.1,0.8,1.2c-0.67,1.1-2.85,1.82-2.64,0.51
					c0,0,0.15,0.54-0.72-0.21c0,0-1.37-2.44,0.2-1.95c0,0-0.69-1.5,0.86-0.91C319.72,221.61,320.05,221.55,320.26,221.82z"/>
				<path class="st6" d="M320.36,221.88c0,0,1.48-0.16,0.97,1.15c0,0,1.47,0.1,0.8,1.2c-0.67,1.1-2.85,1.82-2.64,0.51
					c0,0,0.15,0.54-0.72-0.21c0,0-1.37-2.44,0.2-1.95c0,0-0.69-1.5,0.86-0.91"/>
			</g>
			<g>
				<path class="st21" d="M337.9,229.24c0,0,0.5-0.06,0.33,0.39c0,0,0.5,0.03,0.27,0.41c-0.23,0.38-0.97,0.62-0.9,0.17
					c0,0,0.05,0.19-0.25-0.07c0,0-0.47-0.83,0.07-0.66c0,0-0.24-0.51,0.29-0.31C337.72,229.17,337.83,229.15,337.9,229.24z"/>
				<path class="st6" d="M337.94,229.26c0,0,0.5-0.06,0.33,0.39c0,0,0.5,0.03,0.27,0.41c-0.23,0.38-0.97,0.62-0.9,0.17
					c0,0,0.05,0.19-0.25-0.07c0,0-0.47-0.83,0.07-0.66c0,0-0.24-0.51,0.29-0.31"/>
			</g>
		</g>
		<g>
			<path class="st22" d="M293.31,160.21v104.83h62.64V160.21H293.31z M337.23,261.74h-37.62v-62.12h37.62V261.74z"/>
		</g>
		<rect x="293.83" y="160.21" class="st40" width="3.18" height="104.83"/>
		<path class="st40" d="M328.7,265.04h-3.07c0,0,1.63-2.88,0.75-3.12c-0.88-0.24-0.88-0.14-0.75-0.18h1.88c0,0,1,0.46,0.56,0.63
			C327.63,262.54,327.88,264.99,328.7,265.04z"/>
		<path class="st40" d="M328.7,199.62h-3.07c0,0,1.63-34.46,0.75-37.28c-0.88-2.82-0.88-1.7-0.75-2.13h1.88c0,0,1,5.46,0.56,7.49
			C327.63,169.74,327.88,199.08,328.7,199.62z"/>
		<path class="st40" d="M296.48,160.21h3.07c0,0-1.63,20.04-0.75,27.54s0.88,76.16,0.75,77.28h-1.88c0,0-1-86.14-0.56-91.56
			C297.55,168.05,297.3,161.65,296.48,160.21z"/>
		<path class="st40" d="M324.67,199.62h-3.07c0,0,1.63-34.46,0.75-37.28c-0.88-2.82,0.31-1.7,0.44-2.13h1.88
			c0,0,0.91,5.34,0.47,7.38S323.86,199.08,324.67,199.62z"/>
		<path class="st40" d="M324.67,265.04h-3.07c0,0,1.63-2.88,0.75-3.12c-0.88-0.24,0.31-0.14,0.44-0.18h1.88c0,0,0.91,0.45,0.47,0.62
			C324.7,262.53,323.86,264.99,324.67,265.04z"/>
		<path class="st40" d="M301.49,261.74h3.07c0,0-1.63,0.63-0.75,0.87c0.88,0.24-0.31,2.4-0.44,2.43h-1.88c0,0-0.91-2.7-0.47-2.87
			C301.46,262,302.3,261.78,301.49,261.74z"/>
		<path class="st40" d="M301.49,160.21h3.07c0,0-1.63,7.53-0.75,10.35c0.88,2.82-0.31,28.63-0.44,29.05h-1.88
			c0,0-0.91-32.26-0.47-34.3S302.3,160.75,301.49,160.21z"/>
		<g>
			<polygon class="st40" points="329.53,160.21 329.53,199.62 337.23,199.61 337.23,261.74 329.53,261.74 329.53,265.04 
				356.47,265.04 356.47,160.21 			"/>
		</g>
		<rect x="293.09" y="160.34" class="st34" width="62.64" height="104.83"/>
		<rect x="299.61" y="199.61" class="st34" width="37.62" height="62.12"/>
	</g>
	<g>
		<g class="st2">
			<path class="st3" d="M393.5,300.18c-10.81-0.01-21.62-0.02-32.43-0.04c-2.3,0-4.62-0.01-6.85-0.86
				c-2.22-0.85-4.37-2.66-5.58-5.54c14.08-9.56,31.48-7.56,44.39,5.1"/>
		</g>
		<path class="st7" d="M361.66,274.14c0,0-9.53,7.56-9.53-8.89s4-4.5,4-4.5s-1.91,7.98-1.72,1.02c0.19-6.96,1.33-28.44,6.2-20.92
			c4.86,7.51-13.25-7.6-6.86-16.49c6.39-8.89,6.86-18,12.2-7.56c5.34,10.45,1.24,11.78-1.72,1.56c-2.95-10.22,0.76-27.34,7.72-7.33
			s1.14,27.81-2.1,27.8s-0.67-4.01,3.24-4.46c3.91-0.44,9.63,14.35,7.91,19.07c0,0,10.01-2.62,5.91,12.05c0,0,4.77,4,1.52,15.34
			c-3.24,11.33-8.48,8.33-9.44,4.83s15.63,4.37,9.82,10.28H354.9c0,0-6.77-4.27-4.96-8.13c1.81-3.87,9.34-8.31,11.15-7.42
			C361.09,280.36,356.42,268.58,361.66,274.14z"/>
		<path class="st8" d="M357.18,244.75c-1.3,3.04,0.58,12.23,2.33,9.51c1.75-2.72,3.5-9.51,1.75-9.51
			C359.51,244.75,357.76,243.39,357.18,244.75z"/>
		<path class="st8" d="M370.86,270.14c-2.18,5.08,0.97,20.43,3.89,15.89s5.84-15.89,2.92-15.89
			C374.76,270.14,371.84,267.87,370.86,270.14z"/>
		<path class="st8" d="M374.01,239.83c0.98-3.55-1.91-2.35-3.37,2.02c-1.46,4.36-2.48,9.91-0.73,6.33S373.57,241.42,374.01,239.83z"
			/>
		<path class="st8" d="M359.58,268.85c0.43-1.73-1.11-4-1.77-2.16c-0.67,1.84-1.06,5.11-0.21,4.22S359.39,269.62,359.58,268.85z"/>
		<path class="st8" d="M369.71,226.72c0.43-1.73-1.11-4-1.77-2.16c-0.67,1.84-1.06,5.11-0.21,4.22
			C368.57,227.9,369.51,227.49,369.71,226.72z"/>
		<path class="st8" d="M361.13,220.05c1-2.29-1.34-3.64-2.77-1.03c-1.43,2.61-2.6,6.62-0.99,4.94
			C358.98,222.28,360.68,221.07,361.13,220.05z"/>
		<path class="st6" d="M360.61,274.14c0,0-9.53,7.56-9.53-8.89s4-4.5,4-4.5s-1.91,7.98-1.72,1.02c0.19-6.96,1.33-28.44,6.2-20.92
			c4.86,7.51-13.25-7.6-6.86-16.49c6.39-8.89,6.86-18,12.2-7.56c5.34,10.45,1.24,11.78-1.72,1.56c-2.95-10.22,0.76-27.34,7.72-7.33
			s1.14,27.81-2.1,27.8s-0.67-4.01,3.24-4.46c3.91-0.44,9.63,14.35,7.91,19.07c0,0,10.01-2.62,5.91,12.05c0,0,4.77,4,1.52,15.34
			c-3.24,11.33-8.48,8.33-9.44,4.83s15.63,4.37,9.82,10.28h-33.93c0,0-6.77-4.27-4.96-8.13s9.34-8.31,11.15-7.42
			C360.04,280.36,355.37,268.58,360.61,274.14z"/>
	</g>
</g>
</svg>
