<svg width="49" height="49" viewBox="0 0 49 49" fill="none" xmlns="http://www.w3.org/2000/svg">
<path d="M25.4996 21.4099C25.2196 21.4099 24.9996 21.1899 24.9996 20.9099C24.9996 19.1699 24.4096 18.3099 23.7896 17.3899C23.1896 16.4999 22.5596 15.5799 22.5596 13.9599C22.5596 10.6999 24.8896 8.79987 24.9896 8.71987C25.1996 8.54987 25.5196 8.57987 25.6896 8.79987C25.8596 9.00987 25.8296 9.32987 25.6096 9.49987C25.5896 9.51987 23.5496 11.1899 23.5496 13.9599C23.5496 15.2699 24.0396 15.9899 24.6096 16.8199C25.2596 17.7699 25.9996 18.8599 25.9996 20.8999C25.9996 21.1799 25.7796 21.3999 25.4996 21.3999V21.4099Z" fill="#191919"/>
<path d="M13.25 22.6599C12.97 22.6599 12.75 22.4399 12.75 22.1599C12.75 21.1199 12.39 20.5998 12.02 20.0398C11.64 19.4798 11.21 18.8498 11.21 17.7698C11.21 15.6198 12.75 14.3698 12.81 14.3198C13.03 14.1498 13.3399 14.1798 13.5099 14.3998C13.6799 14.6198 13.6499 14.9298 13.4299 15.0998C13.4299 15.0998 12.2 16.1198 12.2 17.7698C12.2 18.5398 12.48 18.9499 12.84 19.4799C13.27 20.0999 13.75 20.8099 13.75 22.1599C13.75 22.4399 13.53 22.6599 13.25 22.6599V22.6599Z" fill="#191919"/>
<path d="M35.5999 22.6599C35.3199 22.6599 35.0999 22.4399 35.0999 22.1599C35.0999 20.9799 34.6999 20.3899 34.2699 19.7599C33.8499 19.1399 33.3799 18.4499 33.3799 17.2599C33.3799 14.8899 35.0799 13.5099 35.1499 13.4499C35.3599 13.2799 35.6799 13.3099 35.8499 13.5299C36.0199 13.7399 35.9899 14.0599 35.7699 14.2299C35.7599 14.2399 34.3799 15.3799 34.3799 17.2599C34.3799 18.1399 34.6999 18.5999 35.0999 19.1999C35.5699 19.8899 36.0999 20.6699 36.0999 22.1599C36.0999 22.4399 35.8799 22.6599 35.5999 22.6599V22.6599Z" fill="#191919"/>
<path d="M24.0298 39.6299C19.3398 39.6299 13.9798 39.0999 8.50984 37.5299C8.37984 37.4799 6.67984 36.7399 6.67984 35.1899V34.9499C6.63984 33.3399 6.51985 28.4499 14.4198 24.7999C14.6098 24.7099 14.8398 24.7499 14.9798 24.8999C15.2098 25.1299 15.7498 26.1099 15.7498 30.2199C15.7498 30.7799 15.9399 31.6399 16.2699 31.6999C16.5799 31.7599 16.7198 31.6799 16.7898 31.6199C16.9598 31.4799 17.2298 31.0399 17.2298 29.5999C17.2298 28.6799 17.2298 26.3399 16.5898 24.6599C16.5398 24.5299 16.5498 24.3899 16.6098 24.2699C16.6698 24.1499 16.7799 24.0499 16.9099 24.0099C16.9999 23.9799 19.1598 23.3099 22.0898 23.3099C22.2398 23.3099 22.3798 23.3799 22.4798 23.4899C22.5398 23.5699 24.0398 25.4399 24.0398 30.6799C23.9898 31.3399 24.0498 32.3599 24.3598 32.7199C24.4198 32.7899 24.4799 32.8199 24.5699 32.8299C24.8199 32.8299 24.9198 32.7699 24.9798 32.7099C25.3398 32.3599 25.3098 31.1299 25.2898 30.2299C25.2498 28.2899 24.9299 25.5699 24.3299 23.8799C24.2799 23.7299 24.2998 23.5599 24.3898 23.4299C24.4798 23.2999 24.6298 23.2199 24.7898 23.2099C24.9398 23.2099 28.4798 23.0999 30.9498 24.0599C31.0798 24.1099 31.1899 24.2199 31.2399 24.3499C31.2699 24.4199 31.9098 26.1699 31.8898 30.2299C31.8898 30.2299 31.9198 31.5799 32.6398 31.5899C32.7798 31.5899 32.8899 31.5499 32.9899 31.4499C33.2399 31.1999 33.3799 30.6399 33.3799 30.2299V29.9099C33.4099 29.0699 33.4698 27.3299 32.7898 25.4299C32.7298 25.2499 32.7699 25.0399 32.9099 24.9099C33.0499 24.7699 33.2498 24.7299 33.4298 24.7899C33.7198 24.8999 40.5598 27.4499 41.1998 33.2699V35.5599C41.1998 35.9999 40.8798 36.8999 39.6898 37.4999C38.9398 37.8799 32.5998 39.6299 24.0398 39.6299H24.0298ZM14.3799 25.9299C7.53985 29.2699 7.63984 33.5099 7.67984 34.9299V35.1899C7.67984 36.0799 8.83985 36.5899 8.84985 36.5899C23.6999 40.8499 38.1599 37.1399 39.2399 36.5999C40.1599 36.1399 40.1999 35.5599 40.2099 35.5399V33.3199C39.7699 29.3799 35.8899 27.0399 34.0499 26.1399C34.4499 27.7799 34.4098 29.1799 34.3898 29.9199V30.2099C34.3898 30.7899 34.1998 31.6399 33.6998 32.1399C33.4098 32.4199 33.0498 32.5699 32.6498 32.5699H32.6398C31.2598 32.5699 30.8998 31.0199 30.8998 30.2099C30.9198 27.1299 30.5399 25.4499 30.3799 24.8999C28.7399 24.3199 26.5798 24.2199 25.5098 24.1999C26.0398 26.0799 26.2799 28.5299 26.3199 30.1999C26.3499 31.6999 26.3199 32.8099 25.7099 33.4099C25.4199 33.6999 25.0298 33.8399 24.5598 33.8099C24.1998 33.7899 23.8798 33.6399 23.6398 33.3599C22.9198 32.5499 23.0499 30.8199 23.0699 30.6199C23.0699 26.7099 22.1799 24.8499 21.8499 24.2899C19.9899 24.3199 18.4698 24.6299 17.7298 24.8099C18.2498 26.5799 18.2498 28.6999 18.2598 29.5399C18.2598 31.0199 18.0099 31.9099 17.4599 32.3699C17.0999 32.6699 16.6498 32.7599 16.1098 32.6599C14.8198 32.4099 14.7798 30.4299 14.7798 30.1999C14.7798 27.6199 14.5599 26.4299 14.4099 25.9099L14.3799 25.9299Z" fill="#191919"/>
<path d="M40.0996 19.1599C39.9696 19.1599 39.8396 19.1099 39.7496 19.0099C39.5496 18.8099 39.5496 18.4999 39.7496 18.2999L40.5996 17.4499C40.7996 17.2499 41.1096 17.2499 41.3096 17.4499C41.5096 17.6499 41.5096 17.9599 41.3096 18.1599L40.4596 19.0099C40.3596 19.1099 40.2296 19.1599 40.1096 19.1599H40.0996Z" fill="#191919"/>
<path d="M38.0703 21.1898C37.9403 21.1898 37.8103 21.1398 37.7203 21.0398C37.5203 20.8398 37.5203 20.5298 37.7203 20.3298L38.5703 19.4798C38.7703 19.2798 39.0803 19.2798 39.2803 19.4798C39.4803 19.6798 39.4803 19.9898 39.2803 20.1898L38.4303 21.0398C38.3303 21.1398 38.2003 21.1898 38.0803 21.1898H38.0703Z" fill="#191919"/>
<path d="M40.9198 21.1599C40.7898 21.1599 40.6598 21.1099 40.5698 21.0099L39.7398 20.1799C39.5398 19.9799 39.5398 19.6699 39.7398 19.4699C39.9398 19.2699 40.2498 19.2699 40.4498 19.4699L41.2798 20.2999C41.4798 20.4999 41.4798 20.8099 41.2798 21.0099C41.1798 21.1099 41.0498 21.1599 40.9298 21.1599H40.9198Z" fill="#191919"/>
<path d="M38.9394 19.1698C38.8094 19.1698 38.6794 19.1198 38.5894 19.0198L37.7594 18.1898C37.5594 17.9898 37.5594 17.6798 37.7594 17.4798C37.9594 17.2798 38.2694 17.2798 38.4694 17.4798L39.2994 18.3098C39.4994 18.5098 39.4994 18.8198 39.2994 19.0198C39.1994 19.1198 39.0694 19.1698 38.9494 19.1698H38.9394Z" fill="#191919"/>
<path d="M32.04 7.36989C31.91 7.36989 31.78 7.31989 31.69 7.21989C31.49 7.01989 31.49 6.70989 31.69 6.50989L32.54 5.65989C32.74 5.45989 33.05 5.45989 33.25 5.65989C33.45 5.84989 33.45 6.16989 33.25 6.36989L32.4 7.21989C32.3 7.31989 32.17 7.36989 32.05 7.36989H32.04Z" fill="#191919"/>
<path d="M30.0098 9.39992C29.8798 9.39992 29.7498 9.34992 29.6598 9.24992C29.4598 9.04992 29.4598 8.73992 29.6598 8.53992L30.5098 7.68992C30.7098 7.48992 31.0198 7.48992 31.2198 7.68992C31.4198 7.88992 31.4198 8.19992 31.2198 8.39992L30.3698 9.24992C30.2698 9.34992 30.1398 9.39992 30.0198 9.39992H30.0098Z" fill="#191919"/>
<path d="M32.8495 9.36991C32.7195 9.36991 32.5895 9.31991 32.4995 9.21991L31.6695 8.38991C31.4695 8.18991 31.4695 7.87991 31.6695 7.67991C31.8695 7.47991 32.1795 7.47991 32.3795 7.67991L33.2095 8.50991C33.4095 8.70991 33.4095 9.01991 33.2095 9.21991C33.1095 9.31991 32.9795 9.36991 32.8595 9.36991H32.8495Z" fill="#191919"/>
<path d="M30.87 7.37992C30.74 7.37992 30.61 7.32992 30.52 7.22992L29.69 6.39992C29.49 6.19992 29.49 5.88992 29.69 5.68992C29.89 5.48992 30.2 5.48992 30.4 5.68992L31.23 6.51992C31.43 6.71992 31.43 7.02992 31.23 7.22992C31.13 7.32992 31 7.37992 30.88 7.37992H30.87Z" fill="#191919"/>
<path d="M18.3799 16.0598C18.2499 16.0598 18.1199 16.0098 18.0299 15.9098C17.8299 15.7098 17.8299 15.3998 18.0299 15.1998L18.8799 14.3498C19.0799 14.1498 19.3899 14.1498 19.5899 14.3498C19.7899 14.5498 19.7899 14.8598 19.5899 15.0598L18.7399 15.9098C18.6399 16.0098 18.5099 16.0598 18.3899 16.0598H18.3799Z" fill="#191919"/>
<path d="M16.3496 18.0899C16.2196 18.0899 16.0896 18.0399 15.9996 17.9399C15.7996 17.7399 15.7996 17.4299 15.9996 17.2299L16.8496 16.3799C17.0496 16.1799 17.3596 16.1799 17.5596 16.3799C17.7596 16.5799 17.7596 16.8899 17.5596 17.0899L16.7096 17.9399C16.6096 18.0399 16.4796 18.0899 16.3596 18.0899H16.3496Z" fill="#191919"/>
<path d="M19.2001 18.0598C19.0701 18.0598 18.9401 18.0098 18.8501 17.9098L18.0201 17.0798C17.8201 16.8798 17.8201 16.5698 18.0201 16.3698C18.2201 16.1698 18.5301 16.1698 18.7301 16.3698L19.5601 17.1998C19.7601 17.3998 19.7601 17.7098 19.5601 17.9098C19.4601 18.0098 19.3301 18.0598 19.2101 18.0598H19.2001Z" fill="#191919"/>
<path d="M17.2099 16.0699C17.0799 16.0699 16.9499 16.0199 16.8599 15.9199L16.0299 15.0899C15.8299 14.8899 15.8299 14.5799 16.0299 14.3799C16.2299 14.1799 16.5399 14.1799 16.7399 14.3799L17.5699 15.2099C17.7699 15.4099 17.7699 15.7199 17.5699 15.9199C17.4699 16.0199 17.3399 16.0699 17.2199 16.0699H17.2099Z" fill="#191919"/>
</svg>
