<svg width="48" height="48" viewBox="0 0 48 48" fill="none" xmlns="http://www.w3.org/2000/svg">
<path d="M34.8402 40.8699H16.7902C16.5102 40.8699 16.2902 40.6499 16.2902 40.3699C16.2902 38.6999 18.4302 38.1099 18.5202 38.0899C18.5602 38.0799 18.6002 38.0699 18.6502 38.0699H24.3102V23.9999L13.9802 13.6699C13.8402 13.5299 13.7902 13.3099 13.8702 13.1299C13.9502 12.9399 14.1302 12.8199 14.3302 12.8199H37.2902C37.4902 12.8199 37.6702 12.9399 37.7502 13.1299C37.8302 13.3199 37.7802 13.5299 37.6402 13.6699L27.3102 23.9999V38.0699H32.9702C32.9702 38.0699 33.0602 38.0699 33.1002 38.0899C33.1902 38.1099 35.3302 38.6999 35.3302 40.3699C35.3302 40.6499 35.1102 40.8699 34.8302 40.8699H34.8402ZM17.4602 39.8699H34.1702C33.8402 39.3999 33.1102 39.1399 32.9002 39.0699H26.8102C26.5302 39.0699 26.3102 38.8499 26.3102 38.5699V23.7899C26.3102 23.6599 26.3602 23.5299 26.4602 23.4399L36.0902 13.8099H15.5502L25.1802 23.4399C25.2702 23.5299 25.3302 23.6599 25.3302 23.7899V38.5699C25.3302 38.8499 25.1102 39.0699 24.8302 39.0699H18.7402C18.5302 39.1399 17.8102 39.3999 17.4702 39.8699H17.4602Z" fill="#191919"/>
<path d="M29.2095 16.24H17.7695V17.24H29.2095V16.24Z" fill="#191919"/>
<path d="M23.49 17.83H19.25V18.83H23.49V17.83Z" fill="#191919"/>
<path d="M26.8101 17.83H24.0801V18.83H26.8101V17.83Z" fill="#191919"/>
<path d="M33.9001 16.24H30.1201V17.24H33.9001V16.24Z" fill="#191919"/>
<path d="M14.3398 18.89C11.2698 18.89 8.75977 16.39 8.75977 13.31C8.75977 10.23 11.2598 7.72998 14.3398 7.72998C17.4198 7.72998 19.9198 10.23 19.9198 13.31H18.9198C18.9198 10.79 16.8698 8.72998 14.3398 8.72998C11.8098 8.72998 9.75977 10.78 9.75977 13.31C9.75977 15.84 11.8098 17.89 14.3398 17.89C15.6098 17.89 16.7998 17.38 17.6698 16.45L18.3998 17.14C17.3498 18.25 15.8698 18.89 14.3398 18.89Z" fill="#191919"/>
<path d="M13.9901 12.9579L11.2324 15.7156L11.9395 16.4227L14.6972 13.665L13.9901 12.9579Z" fill="#191919"/>
<path d="M14.3404 12.8101H10.4404V13.8101H14.3404V12.8101Z" fill="#191919"/>
</svg>
