<svg width="48" height="48" viewBox="0 0 48 48" fill="none" xmlns="http://www.w3.org/2000/svg">
<path d="M18 10.5H17C14.79 10.5 13 12.29 13 14.5V33.5C13 35.71 14.79 37.5 17 37.5H30C32.21 37.5 34 35.71 34 33.5V14.5C34 12.29 32.21 10.5 30 10.5H29" stroke="black" stroke-miterlimit="10" stroke-linecap="round"/>
<path d="M12 40.5L16 37.5" stroke="black" stroke-linecap="round" stroke-linejoin="round"/>
<path d="M35 40.5L31 37.5" stroke="black" stroke-linecap="round" stroke-linejoin="round"/>
<path d="M18 33.5C19.1046 33.5 20 32.6046 20 31.5C20 30.3954 19.1046 29.5 18 29.5C16.8954 29.5 16 30.3954 16 31.5C16 32.6046 16.8954 33.5 18 33.5Z" stroke="black" stroke-linecap="round" stroke-linejoin="round"/>
<path d="M29 33.5C30.1046 33.5 31 32.6046 31 31.5C31 30.3954 30.1046 29.5 29 29.5C27.8954 29.5 27 30.3954 27 31.5C27 32.6046 27.8954 33.5 29 33.5Z" stroke="black" stroke-linecap="round" stroke-linejoin="round"/>
<path d="M27.5 11C28.3284 11 29 10.3284 29 9.5C29 8.67157 28.3284 8 27.5 8C26.6716 8 26 8.67157 26 9.5C26 10.3284 26.6716 11 27.5 11Z" stroke="black" stroke-linecap="round" stroke-linejoin="round"/>
<path d="M19.5 11C20.3284 11 21 10.3284 21 9.5C21 8.67157 20.3284 8 19.5 8C18.6716 8 18 8.67157 18 9.5C18 10.3284 18.6716 11 19.5 11Z" stroke="black" stroke-linecap="round" stroke-linejoin="round"/>
<path d="M30 16.5H17C15.8954 16.5 15 17.3954 15 18.5V23.5C15 24.6046 15.8954 25.5 17 25.5H30C31.1046 25.5 32 24.6046 32 23.5V18.5C32 17.3954 31.1046 16.5 30 16.5Z" stroke="black" stroke-miterlimit="10"/>
<path d="M20 13.5H27C27.55 13.5 28 13.95 28 14.5V16.5H19V14.5C19 13.95 19.45 13.5 20 13.5Z" stroke="black" stroke-miterlimit="10"/>
<path d="M21 10.5H26" stroke="black" stroke-miterlimit="10" stroke-linecap="round"/>
</svg>
