<svg width="49" height="49" viewBox="0 0 49 49" fill="none" xmlns="http://www.w3.org/2000/svg">
<path d="M24.5193 17.8899C21.0593 17.8899 19.9893 14.8199 19.9193 13.1899C19.9093 12.9099 20.1193 12.6799 20.3893 12.6699C20.6893 12.6699 20.8993 12.8699 20.9093 13.1399C20.9093 13.2899 21.1493 16.8899 24.5193 16.8899C25.4593 16.8899 26.2093 16.6099 26.7493 16.0499C27.8393 14.9399 27.8093 13.0799 27.8093 13.0599V11.8199C27.8093 11.5399 28.0293 11.3199 28.3093 11.3199C28.5893 11.3199 28.8093 11.5399 28.8093 11.8199V13.0499C28.8093 13.1299 28.8493 15.3299 27.4693 16.7499C26.7293 17.5099 25.7393 17.8899 24.5193 17.8899V17.8899Z" fill="#191919"/>
<path d="M20.4095 13.7399C20.1895 13.7399 19.9895 13.5899 19.9295 13.3699C19.1995 10.6799 19.3495 8.49993 20.3695 6.89993C21.5595 5.02993 23.4995 4.66993 23.5795 4.65993L23.7295 4.63993C24.0795 4.59993 24.8895 4.51993 25.4895 5.07993C25.9495 5.50993 26.1595 6.20993 26.1195 7.15993C25.9995 9.83993 24.7695 10.2199 23.1995 10.7099C22.9895 10.7799 22.7595 10.8499 22.5295 10.9299C20.9395 11.4699 20.9195 13.2199 20.9195 13.2299C20.9195 13.4799 20.7295 13.6899 20.4895 13.7299C20.4695 13.7299 20.4495 13.7299 20.4195 13.7299L20.4095 13.7399ZM23.6895 5.64993C23.6895 5.64993 22.1395 5.95993 21.1995 7.44993C20.5795 8.43993 20.3595 9.70993 20.5295 11.2599C20.8695 10.7499 21.3895 10.2699 22.1995 9.98992C22.4395 9.90992 22.6795 9.82993 22.8995 9.75993C24.3995 9.28993 25.0295 9.08992 25.1195 7.11992C25.1495 6.48992 25.0395 6.03993 24.8095 5.80993C24.5395 5.55993 24.0995 5.59993 23.8395 5.62993H23.6995L23.6895 5.64993Z" fill="#191919"/>
<path d="M29.1898 12.63C29.0998 12.63 28.3098 12.61 27.5298 11.82C27.0598 11.34 27.0298 10.86 27.0098 10.47C26.9898 10.16 26.9798 9.89995 26.7698 9.55995C26.5298 9.14995 25.7098 9.16995 25.4398 9.20995C25.1598 9.24995 24.9098 9.05995 24.8698 8.78995C24.8298 8.51995 25.0098 8.25995 25.2898 8.21995C25.3598 8.20995 26.9898 7.95996 27.6298 9.04996C27.9598 9.59996 27.9798 10.05 27.9998 10.41C28.0198 10.74 28.0298 10.9 28.2398 11.12C28.3898 11.28 28.5498 11.39 28.6798 11.46C28.6798 9.29995 28.5898 8.20995 27.6998 7.03995C26.8498 5.92995 25.7198 6.34995 25.7098 6.34995C25.4498 6.44995 25.1598 6.31996 25.0598 6.05996C24.9598 5.79996 25.0898 5.50995 25.3498 5.40995C25.9798 5.16995 27.4598 5.06995 28.4898 6.41995C29.6798 7.96995 29.6798 9.43995 29.6798 12.11C29.6798 12.39 29.4598 12.61 29.1798 12.61L29.1898 12.63Z" fill="#191919"/>
<path d="M28.1895 14.8399C27.9095 14.8399 27.6895 14.6199 27.6895 14.3399C27.6895 14.0599 27.9095 13.8399 28.1895 13.8399C28.2695 13.8399 28.7495 13.7899 28.9395 13.1299C29.0695 12.6999 28.8394 12.4599 28.8294 12.4599C28.6294 12.2699 28.6194 11.9599 28.7994 11.7499C28.9894 11.5499 29.2995 11.5399 29.5095 11.7199C29.7695 11.9599 30.1295 12.5799 29.8895 13.4099C29.5595 14.5399 28.6294 14.8399 28.1794 14.8399H28.1895Z" fill="#191919"/>
<path d="M20.5597 14.8499C20.5597 14.8499 20.5297 14.8499 20.5197 14.8499C19.7097 14.7799 19.2697 14.1799 19.1397 13.8299C18.9497 13.1699 18.9897 12.6499 19.2397 12.2599C19.5397 11.7899 20.0297 11.6999 20.0797 11.6899C20.3497 11.6499 20.6097 11.8299 20.6497 12.0999C20.6897 12.3699 20.5197 12.6199 20.2497 12.6699C20.2397 12.6699 20.1297 12.6999 20.0697 12.8099C19.9897 12.9499 19.9897 13.2099 20.0697 13.5199C20.0697 13.5199 20.2197 13.8299 20.5797 13.8599C20.8597 13.8799 21.0597 14.1199 21.0397 14.3999C21.0197 14.6599 20.7997 14.8599 20.5397 14.8599L20.5597 14.8499Z" fill="#191919"/>
<path d="M26.2697 14.1499C25.5497 14.1499 25.1597 13.5799 25.0497 13.2399C24.9597 12.9799 25.1097 12.6999 25.3697 12.6099C25.6297 12.5199 25.9097 12.6599 25.9997 12.9199C26.0097 12.9499 26.0897 13.1499 26.2697 13.1499C26.4597 13.1499 26.5397 12.9299 26.5397 12.9299C26.6297 12.6699 26.9097 12.5199 27.1697 12.6099C27.4297 12.6999 27.5797 12.9799 27.4897 13.2399C27.3797 13.5799 26.9997 14.1499 26.2697 14.1499V14.1499Z" fill="#191919"/>
<path d="M22.7492 14.1499C22.0192 14.1499 21.6392 13.5799 21.5292 13.2399C21.4392 12.9799 21.5892 12.6999 21.8492 12.6099C22.1092 12.5199 22.3892 12.6599 22.4792 12.9199C22.4892 12.9499 22.5692 13.1499 22.7492 13.1499C22.9292 13.1499 23.0092 12.9399 23.0192 12.9199C23.1092 12.6599 23.3992 12.5299 23.6492 12.6199C23.9092 12.7099 24.0492 12.9799 23.9592 13.2399C23.8492 13.5799 23.4692 14.1499 22.7392 14.1499H22.7492Z" fill="#191919"/>
<path d="M33.1299 9.44991C32.8499 9.44991 32.6299 9.22991 32.6299 8.94991V8.15992C32.6299 7.87992 32.8499 7.65991 33.1299 7.65991C33.4099 7.65991 33.6299 7.87992 33.6299 8.15992V8.94991C33.6299 9.22991 33.4099 9.44991 33.1299 9.44991Z" fill="#191919"/>
<path d="M33.1299 11.3399C32.8499 11.3399 32.6299 11.1199 32.6299 10.8399V10.0499C32.6299 9.76993 32.8499 9.54993 33.1299 9.54993C33.4099 9.54993 33.6299 9.76993 33.6299 10.0499V10.8399C33.6299 11.1199 33.4099 11.3399 33.1299 11.3399Z" fill="#191919"/>
<path d="M34.4499 9.99988H33.6699C33.3899 9.99988 33.1699 9.77988 33.1699 9.49988C33.1699 9.21988 33.3899 8.99988 33.6699 8.99988H34.4499C34.7299 8.99988 34.9499 9.21988 34.9499 9.49988C34.9499 9.77988 34.7299 9.99988 34.4499 9.99988Z" fill="#191919"/>
<path d="M32.5896 9.99988H31.8096C31.5296 9.99988 31.3096 9.77988 31.3096 9.49988C31.3096 9.21988 31.5296 8.99988 31.8096 8.99988H32.5896C32.8696 8.99988 33.0896 9.21988 33.0896 9.49988C33.0896 9.77988 32.8696 9.99988 32.5896 9.99988Z" fill="#191919"/>
<path d="M15.5195 18.1599C15.2395 18.1599 15.0195 17.9399 15.0195 17.6599V16.8699C15.0195 16.5899 15.2395 16.3699 15.5195 16.3699C15.7995 16.3699 16.0195 16.5899 16.0195 16.8699V17.6599C16.0195 17.9399 15.7995 18.1599 15.5195 18.1599Z" fill="#191919"/>
<path d="M15.5195 20.0499C15.2395 20.0499 15.0195 19.8299 15.0195 19.5499V18.7599C15.0195 18.4799 15.2395 18.2599 15.5195 18.2599C15.7995 18.2599 16.0195 18.4799 16.0195 18.7599V19.5499C16.0195 19.8299 15.7995 20.0499 15.5195 20.0499Z" fill="#191919"/>
<path d="M16.8396 18.71H16.0596C15.7796 18.71 15.5596 18.49 15.5596 18.21C15.5596 17.93 15.7796 17.71 16.0596 17.71H16.8396C17.1196 17.71 17.3396 17.93 17.3396 18.21C17.3396 18.49 17.1196 18.71 16.8396 18.71Z" fill="#191919"/>
<path d="M14.9792 18.71H14.1992C13.9192 18.71 13.6992 18.49 13.6992 18.21C13.6992 17.93 13.9192 17.71 14.1992 17.71H14.9792C15.2592 17.71 15.4792 17.93 15.4792 18.21C15.4792 18.49 15.2592 18.71 14.9792 18.71Z" fill="#191919"/>
<path d="M24.5096 19.3299C24.5096 19.3299 24.4496 19.3299 24.4296 19.3299C23.2596 19.2999 22.7696 18.6099 22.7196 18.5299C22.6696 18.4499 22.6396 18.3499 22.6396 18.2599V17.2599C22.6396 16.9799 22.8596 16.7599 23.1396 16.7599C23.4196 16.7599 23.6396 16.9799 23.6396 17.2599V18.0599C23.7596 18.1599 24.0096 18.3199 24.4596 18.3299C24.4696 18.3299 24.4896 18.3299 24.4996 18.3299C24.9396 18.3199 25.1996 18.1599 25.3196 18.0599V17.2599C25.3196 16.9799 25.5396 16.7599 25.8196 16.7599C26.0996 16.7599 26.3196 16.9799 26.3196 17.2599V18.2599C26.3196 18.3599 26.2896 18.4499 26.2396 18.5299C26.1896 18.6099 25.7196 19.2799 24.5896 19.3299C24.5696 19.3299 24.5496 19.3299 24.5196 19.3299H24.5096Z" fill="#191919"/>
<path d="M37.3897 30.4999C37.3297 30.4999 37.2597 30.4899 37.1997 30.4599C36.9497 30.3499 36.8197 30.0599 36.9297 29.8099L37.8697 27.5499L33.2897 25.1799C33.1997 25.1299 33.1297 25.0599 33.0797 24.9699C33.0597 24.9299 31.0397 21.1799 29.7397 20.0499C28.4997 18.9699 25.7997 18.7599 25.7797 18.7499C25.4997 18.7299 25.2997 18.4899 25.3197 18.2099C25.3397 17.9299 25.5797 17.7199 25.8597 17.7499C25.9797 17.7499 28.9197 17.9899 30.4097 19.2899C31.7097 20.4299 33.4997 23.6399 33.8997 24.3599L38.7597 26.8699C38.9897 26.9899 39.0897 27.2699 38.9897 27.5099L37.8697 30.1899C37.7897 30.3799 37.5997 30.4999 37.4097 30.4999H37.3897Z" fill="#191919"/>
<path d="M29.709 31.4699C29.429 31.4699 29.209 31.2499 29.209 30.9699V23.6599C29.209 23.3799 29.429 23.1599 29.709 23.1599C29.989 23.1599 30.209 23.3799 30.209 23.6599V30.9699C30.209 31.2499 29.989 31.4699 29.709 31.4699Z" fill="#191919"/>
<path d="M35.0098 29.16C35.0098 29.16 33.2198 28.46 32.4398 28.2C31.4998 27.88 30.8898 26.89 30.8198 26.78L29.2998 24.71C29.1398 24.49 29.1898 24.17 29.4098 24.01C29.6298 23.85 29.9398 23.89 30.1098 24.12L31.6498 26.23C31.8098 26.49 32.2598 27.09 32.7498 27.26C33.5398 27.53 35.3698 28.24 35.3698 28.24L35.0098 29.17V29.16Z" fill="#191919"/>
<path d="M40.1991 31.7699C39.7991 31.7699 39.439 31.51 39.299 31.41C38.419 30.78 37.2891 30.05 37.2891 30.05L37.829 29.21C37.829 29.21 38.9891 29.96 39.8891 30.6C39.9491 30.64 39.9991 30.6799 40.0391 30.6999C39.8691 29.0499 38.1491 28.0299 38.1291 28.0199C37.8891 27.8799 37.8091 27.5799 37.9491 27.3399C38.0891 27.0999 38.3891 27.02 38.6291 27.16C38.7291 27.21 40.979 28.53 41.049 30.93C41.029 31.23 40.8791 31.56 40.5591 31.71C40.4391 31.76 40.329 31.78 40.209 31.78L40.1991 31.7699Z" fill="#191919"/>
<path d="M11.3891 30.0999C11.1891 30.0999 11.0091 29.9799 10.9291 29.7899L9.97911 27.4999C9.87911 27.2599 9.97909 26.9799 10.2091 26.8599L15.0691 24.3499C15.4591 23.6299 17.2591 20.4199 18.5591 19.2799C20.0491 17.9799 22.9791 17.7499 23.1091 17.7399C23.3891 17.7099 23.6291 17.9299 23.6491 18.1999C23.6691 18.4799 23.4591 18.7199 23.1891 18.7399C23.1591 18.7399 20.4591 18.9499 19.2291 20.0399C17.9291 21.1699 15.9091 24.9299 15.8891 24.9599C15.8391 25.0499 15.7691 25.1199 15.6791 25.1699L11.0991 27.5399L11.8791 29.3999C11.9891 29.6499 11.8691 29.9499 11.6091 30.0499C11.5491 30.0799 11.4791 30.0899 11.4191 30.0899L11.3891 30.0999Z" fill="#191919"/>
<path d="M19.2393 31.4699C18.9593 31.4699 18.7393 31.2499 18.7393 30.9699V23.6599C18.7393 23.3799 18.9593 23.1599 19.2393 23.1599C19.5193 23.1599 19.7393 23.3799 19.7393 23.6599V30.9699C19.7393 31.2499 19.5193 31.4699 19.2393 31.4699Z" fill="#191919"/>
<path d="M12.8493 29.7699C12.6593 29.7699 12.4793 29.6599 12.3993 29.4799C12.2793 29.2299 12.3893 28.9299 12.6393 28.8099C12.7493 28.7599 15.3893 27.5099 16.1893 27.2399C16.6893 27.0699 17.1393 26.4699 17.2693 26.2499L18.8393 24.0999C18.9993 23.8799 19.3193 23.8299 19.5393 23.9899C19.7593 24.1499 19.8093 24.4699 19.6493 24.6899L18.1093 26.7999C18.0693 26.8699 17.4593 27.8699 16.5193 28.1899C15.7693 28.4499 13.0993 29.7099 13.0693 29.7199C12.9993 29.7499 12.9293 29.7699 12.8593 29.7699H12.8493Z" fill="#191919"/>
<path d="M8.74918 31.77C8.62918 31.77 8.51917 31.75 8.39917 31.7C8.06917 31.55 7.92918 31.22 7.90918 30.99C7.97918 28.53 10.2292 27.21 10.3292 27.16C10.5692 27.02 10.8692 27.11 11.0092 27.34C11.1492 27.58 11.0692 27.88 10.8292 28.02C10.8092 28.03 9.13917 29.02 8.92917 30.69C8.96917 30.67 9.01918 30.64 9.06918 30.6C9.96918 29.96 11.1292 29.21 11.1292 29.21L11.6692 30.05C11.6692 30.05 10.5292 30.78 9.65918 31.41C9.51918 31.51 9.15919 31.77 8.75919 31.77H8.74918Z" fill="#191919"/>
<path d="M24.5195 31.3699C24.2395 31.3699 24.0195 31.1499 24.0195 30.8699V21.6799C24.0195 21.3999 24.2395 21.1799 24.5195 21.1799C24.7995 21.1799 25.0195 21.3999 25.0195 21.6799V30.8699C25.0195 31.1499 24.7995 31.3699 24.5195 31.3699Z" fill="#191919"/>
<path d="M23.8896 36.0299C23.7596 36.0299 23.6396 35.9799 23.5496 35.8899C23.4496 35.7999 23.3896 35.6599 23.3896 35.5299V32.8499C23.3896 32.6199 23.5396 32.4299 23.7596 32.3699L34.8296 29.3899C34.8296 29.3899 36.2796 28.8299 37.4596 29.5099C38.1896 29.9299 38.6396 30.7099 38.7996 31.8099C38.9496 32.8599 38.7396 33.6999 38.1696 34.3299C37.1596 35.4399 35.3896 35.3699 35.3196 35.3699L23.9096 36.0399C23.9096 36.0399 23.8896 36.0399 23.8796 36.0399L23.8896 36.0299ZM24.3896 33.2299V34.9999L35.3196 34.3599C35.3796 34.3599 36.7496 34.4099 37.4396 33.6499C37.7996 33.2599 37.9196 32.6799 37.8096 31.9499C37.6996 31.1699 37.4096 30.6399 36.9596 30.3799C36.1996 29.9299 35.1496 30.3299 35.1396 30.3399L24.3896 33.2399V33.2299Z" fill="#191919"/>
<path d="M19.3792 36.24C18.8792 36.24 18.4492 36.14 18.2092 35.8C17.9692 35.47 17.9892 35.03 18.2492 34.49C19.1592 32.61 21.5592 32.59 21.6592 32.59H23.8992C24.1792 32.59 24.3992 32.81 24.3992 33.09C24.3992 33.37 24.1792 33.59 23.8992 33.59H21.6592C21.6592 33.59 19.7792 33.62 19.1492 34.93C19.0292 35.17 19.0392 35.26 19.0392 35.26C19.1792 35.31 20.0092 35.2 20.4592 35.14C20.8392 35.09 21.2092 35.04 21.5092 35.04C22.7892 35.01 23.8992 35.04 23.8992 35.04C24.1792 35.04 24.3892 35.28 24.3892 35.55C24.3892 35.83 24.1492 36.04 23.8792 36.04C23.8792 36.04 22.7892 36.01 21.5392 36.04C21.2592 36.04 20.9292 36.09 20.5892 36.14C20.1692 36.2 19.7492 36.25 19.3792 36.25V36.24Z" fill="#191919"/>
<path d="M25.009 35.9699C24.729 35.9699 24.509 35.7499 24.509 35.4699V32.9799C22.929 32.5399 16.639 30.7999 13.979 29.9799C13.069 29.6999 12.319 29.6999 11.759 30.0099C11.109 30.3599 10.919 31.0099 10.919 31.0099C10.709 31.7599 10.759 32.3999 11.079 32.9099C11.639 33.8099 12.859 34.0699 12.869 34.0699L18.559 34.3399C18.839 34.3499 19.049 34.5899 19.039 34.8599C19.029 35.1399 18.789 35.3599 18.519 35.3399L12.759 35.0699C12.619 35.0499 11.029 34.7199 10.239 33.4399C9.77896 32.6899 9.67897 31.7799 9.96897 30.7499C9.97897 30.7099 10.259 29.6999 11.279 29.1399C12.089 28.6999 13.099 28.6599 14.289 29.0299C17.309 29.9699 25.069 32.0999 25.149 32.1299C25.369 32.1899 25.519 32.3899 25.519 32.6099V35.4799C25.519 35.7599 25.299 35.9799 25.019 35.9799L25.009 35.9699Z" fill="#191919"/>
<path d="M40.5394 38.5299H8.39941C8.11941 38.5299 7.89941 38.3099 7.89941 38.0299V32.9899C7.89941 32.7099 8.11941 32.4899 8.39941 32.4899H10.5494C10.8294 32.4899 11.0494 32.7099 11.0494 32.9899C11.0494 33.2699 10.8294 33.4899 10.5494 33.4899H8.89941V37.5299H40.0394V33.5899H38.3494C38.0694 33.5899 37.8494 33.3699 37.8494 33.0899C37.8494 32.8099 38.0694 32.5899 38.3494 32.5899H40.5394C40.8194 32.5899 41.0394 32.8099 41.0394 33.0899V38.0299C41.0394 38.3099 40.8194 38.5299 40.5394 38.5299Z" fill="#191919"/>
</svg>
