<svg width="49" height="48" viewBox="0 0 49 48" fill="none" xmlns="http://www.w3.org/2000/svg">
<path d="M23.2596 27.05L22.3597 26.61L24.5797 22.07C24.7397 21.64 24.7397 21.29 24.5797 21.06C24.2797 20.65 23.4196 20.58 23.1496 20.6H19.0797C16.0897 20.53 13.8796 19.69 12.4796 18.1C10.6996 16.08 10.9396 13.62 10.9496 13.52L10.9897 13.14L30.7596 9.99998C30.8296 9.97998 32.9997 9.54998 34.6297 11.31C35.6097 11.36 37.1996 12.05 37.6496 14.48C38.1896 17.41 38.3796 21.73 38.3896 21.92C38.3896 21.92 38.5097 22.93 37.7997 23.74C37.2497 24.37 36.3696 24.69 35.1996 24.69L31.7896 24.67C30.9696 24.42 29.5196 23.37 29.9296 21.17C30.3696 18.83 31.2496 13.71 31.2496 13.71C31.2596 13.64 31.5296 12.24 33.3996 11.55C32.2596 10.73 30.9997 10.97 30.9397 10.98L11.9296 14C11.9496 14.69 12.1197 16.19 13.2397 17.45C14.4497 18.81 16.4196 19.54 19.0896 19.6H23.1297C23.2697 19.6 24.7196 19.55 25.3896 20.47C25.7696 20.99 25.8096 21.66 25.5096 22.47L23.2697 27.06L23.2596 27.05ZM32.0197 23.67H35.2097C36.0697 23.67 36.6897 23.47 37.0497 23.07C37.4597 22.61 37.3996 21.99 37.3996 21.99C37.3996 21.91 37.1996 17.51 36.6696 14.65C36.2196 12.19 34.5196 12.29 34.4496 12.29H34.2796V12.32C32.4896 12.73 32.2497 13.82 32.2397 13.87C32.2397 13.87 31.3596 18.99 30.9196 21.33C30.5996 23.01 31.7397 23.56 32.0197 23.66V23.67Z" fill="#191919"/>
<path d="M29.4595 39.8499H18.0995C15.5895 39.8499 14.8295 37.6199 14.7695 36.4399V34.1499L15.2495 34.1299C15.8295 34.1099 16.7295 33.4999 16.8595 32.5699C17.0395 31.3499 17.6695 30.2199 17.6895 30.1799C20.6395 25.3499 24.3995 25.9999 25.9795 26.5699V24.0699H26.4795C29.4795 24.0699 30.6695 26.5899 30.8795 27.9299V31.6399C32.2895 36.7899 29.7095 39.5799 29.5995 39.6999L29.4495 39.8599L29.4595 39.8499ZM15.7695 35.0599V36.4199C15.7795 36.6499 15.9595 38.8499 18.0995 38.8499H29.0095C29.4895 38.2399 31.0195 35.8699 29.9095 31.8399L29.8895 31.7099V28.0099C29.8895 28.0099 29.4295 25.4199 26.9795 25.1099V28.2099L26.2295 27.7699C26.0495 27.6699 21.8495 25.3099 18.5595 30.6999C18.5595 30.6999 18.0095 31.6999 17.8495 32.7299C17.6795 33.9199 16.7095 34.8099 15.7695 35.0699V35.0599Z" fill="#191919"/>
<path d="M15.7695 34.63H14.7695V31.88H17.4195V32.88H15.7695V34.63Z" fill="#191919"/>
<path d="M21.3602 31.59H19.9502V33H21.3602V31.59Z" fill="#191919"/>
<path d="M25.1404 34.64H20.8604V35.64H25.1404V34.64Z" fill="#191919"/>
<path d="M20.9143 36.175L20.8242 37.1709L25.0868 37.5566L25.1769 36.5606L20.9143 36.175Z" fill="#191919"/>
<path d="M36.5798 33.5001H30.7998V32.5001H35.5798V24.5601H36.5798V33.5001Z" fill="#191919"/>
<path d="M27.2898 13.73H25.5498V15.47H27.2898V13.73Z" fill="#191919"/>
</svg>
