<svg width="48" height="48" viewBox="0 0 48 48" fill="none" xmlns="http://www.w3.org/2000/svg">
<path d="M29.2098 39C26.1998 35.49 17.6998 26.37 14.6198 26.37C12.4098 26.37 8.67977 30.11 6.21977 32.58L5.70977 33.09L5.00977 32.39L5.51977 31.88C8.40977 28.98 11.9998 25.38 14.6198 25.38C16.4398 25.38 19.4898 27.52 23.9498 31.93C27.1698 35.11 29.9398 38.33 29.9698 38.36L29.2198 39.01L29.2098 39Z" fill="#191919"/>
<path d="M27.5596 34.6L26.8496 33.91C27.5996 33.15 34.2296 26.46 37.3896 26.46C39.0496 26.46 40.9596 27.54 43.2296 29.76L42.5396 30.47C40.4896 28.47 38.7596 27.45 37.3996 27.45C35.0796 27.45 29.5196 32.61 27.5696 34.6H27.5596Z" fill="#191919"/>
<path d="M27.2596 30.33C26.8196 29.3 26.5996 28.2 26.5996 27.06C26.5996 22.43 30.3596 18.67 34.9896 18.67C39.6196 18.67 43.3796 22.43 43.3796 27.06H42.3896C42.3896 22.98 39.0696 19.66 34.9896 19.66C30.9096 19.66 27.5896 22.98 27.5896 27.06C27.5896 28.06 27.7896 29.03 28.1696 29.94L27.2596 30.33V30.33Z" fill="#191919"/>
<path d="M27.2596 30.33C26.8196 29.3 26.5996 28.2 26.5996 27.06C26.5996 22.43 30.3596 18.67 34.9896 18.67C39.6196 18.67 43.3796 22.43 43.3796 27.06H42.3896C42.3896 22.98 39.0696 19.66 34.9896 19.66C30.9096 19.66 27.5896 22.98 27.5896 27.06C27.5896 28.06 27.7896 29.03 28.1696 29.94L27.2596 30.33V30.33Z" fill="#191919"/>
<path d="M35.4802 12.01H34.4902V17.34H35.4802V12.01Z" fill="#191919"/>
<path d="M41.6498 13.5462L39.1377 18.2471L40.0108 18.7137L42.523 14.0128L41.6498 13.5462Z" fill="#191919"/>
<path d="M28.3302 13.5562L27.457 14.0228L29.9692 18.7237L30.8423 18.2571L28.3302 13.5562Z" fill="#191919"/>
<path d="M22.5475 18.5706L22.0166 19.4062L26.3212 22.1412L26.8521 21.3056L22.5475 18.5706Z" fill="#191919"/>
<path d="M20.6536 25.1095L20.5449 26.0935L25.2066 26.6082L25.3152 25.6241L20.6536 25.1095Z" fill="#191919"/>
</svg>
