<?xml version="1.0" encoding="utf-8"?>
<!-- Generator: Adobe Illustrator 26.4.1, SVG Export Plug-In . SVG Version: 6.00 Build 0)  -->
<svg version="1.1" id="Layer_1" xmlns="http://www.w3.org/2000/svg" xmlns:xlink="http://www.w3.org/1999/xlink" x="0px" y="0px"
	 viewBox="0 0 48 48" style="enable-background:new 0 0 48 48;" xml:space="preserve">
<style type="text/css">
	.st0{fill:#1E1E1C;}
</style>
<g>
	<g>
		<path class="st0" d="M14.6,25.4c-2.6,0-6.2,3.6-9.1,6.5L5,32.4l0.7,0.7l0.5-0.5c2.5-2.5,6.2-6.2,8.4-6.2c3.1,0,11.6,9.1,14.6,12.6
			l0.8-0.6c0,0-2.8-3.3-6-6.4C19.5,27.5,16.4,25.4,14.6,25.4L14.6,25.4z"/>
	</g>
</g>
<g>
	<g>
		<path class="st0" d="M37.4,26.5c-3.2,0-9.8,6.7-10.5,7.4l0.7,0.7c1.9-2,7.5-7.1,9.8-7.1c1.4,0,3.1,1,5.1,3l0.7-0.7
			C41,27.5,39,26.5,37.4,26.5L37.4,26.5z"/>
	</g>
</g>
<g>
	<path class="st0" d="M35,18.7c-4.6,0-8.4,3.8-8.4,8.4c0,1.1,0.2,2.2,0.7,3.3l0.9-0.4c-0.4-0.9-0.6-1.9-0.6-2.9
		c0-4.1,3.3-7.4,7.4-7.4c4.1,0,7.4,3.3,7.4,7.4h1C43.4,22.4,39.6,18.7,35,18.7L35,18.7z"/>
</g>
<g>
	<path class="st0" d="M35,18.7c-4.6,0-8.4,3.8-8.4,8.4c0,1.1,0.2,2.2,0.7,3.3l0.9-0.4c-0.4-0.9-0.6-1.9-0.6-2.9
		c0-4.1,3.3-7.4,7.4-7.4c4.1,0,7.4,3.3,7.4,7.4h1C43.4,22.4,39.6,18.7,35,18.7L35,18.7z"/>
</g>
<g>
	<g>
		<polygon class="st0" points="35.5,12 34.5,12 34.5,17.3 35.5,17.3 35.5,12 		"/>
	</g>
</g>
<g>
	<g>
		<polygon class="st0" points="41.6,13.5 39.1,18.2 40,18.7 42.5,14 41.6,13.5 		"/>
	</g>
</g>
<g>
	<g>
		<polygon class="st0" points="28.3,13.5 27.5,14 30,18.7 30.8,18.2 28.3,13.5 		"/>
	</g>
</g>
<g>
	<g>
		<polygon class="st0" points="22.5,18.6 22,19.4 26.3,22.1 26.8,21.3 22.5,18.6 		"/>
	</g>
</g>
<g>
	<g>
		<polygon class="st0" points="20.7,25.1 20.5,26.1 25.2,26.6 25.3,25.6 20.7,25.1 		"/>
	</g>
</g>
<g>
	<g>
		<path class="st0" d="M14.6,25.4c-2.6,0-6.2,3.6-9.1,6.5L5,32.4l0.7,0.7l0.5-0.5c2.5-2.5,6.2-6.2,8.4-6.2c3.1,0,11.6,9.1,14.6,12.6
			l0.8-0.6c0,0-2.8-3.3-6-6.4C19.5,27.5,16.4,25.4,14.6,25.4L14.6,25.4z"/>
	</g>
</g>
<g>
	<g>
		<path class="st0" d="M37.4,26.5c-3.2,0-9.8,6.7-10.5,7.4l0.7,0.7c1.9-2,7.5-7.1,9.8-7.1c1.4,0,3.1,1,5.1,3l0.7-0.7
			C41,27.5,39,26.5,37.4,26.5L37.4,26.5z"/>
	</g>
</g>
<g>
	<path class="st0" d="M35,18.7c-4.6,0-8.4,3.8-8.4,8.4c0,1.1,0.2,2.2,0.7,3.3l0.9-0.4c-0.4-0.9-0.6-1.9-0.6-2.9
		c0-4.1,3.3-7.4,7.4-7.4c4.1,0,7.4,3.3,7.4,7.4h1C43.4,22.4,39.6,18.7,35,18.7L35,18.7z"/>
</g>
<g>
	<path class="st0" d="M35,18.7c-4.6,0-8.4,3.8-8.4,8.4c0,1.1,0.2,2.2,0.7,3.3l0.9-0.4c-0.4-0.9-0.6-1.9-0.6-2.9
		c0-4.1,3.3-7.4,7.4-7.4c4.1,0,7.4,3.3,7.4,7.4h1C43.4,22.4,39.6,18.7,35,18.7L35,18.7z"/>
</g>
<g>
	<g>
		<polygon class="st0" points="35.5,12 34.5,12 34.5,17.3 35.5,17.3 35.5,12 		"/>
	</g>
</g>
<g>
	<g>
		<polygon class="st0" points="41.6,13.5 39.1,18.2 40,18.7 42.5,14 41.6,13.5 		"/>
	</g>
</g>
<g>
	<g>
		<polygon class="st0" points="28.3,13.5 27.5,14 30,18.7 30.8,18.2 28.3,13.5 		"/>
	</g>
</g>
<g>
	<g>
		<polygon class="st0" points="22.5,18.6 22,19.4 26.3,22.1 26.8,21.3 22.5,18.6 		"/>
	</g>
</g>
<g>
	<g>
		<polygon class="st0" points="20.7,25.1 20.5,26.1 25.2,26.6 25.3,25.6 20.7,25.1 		"/>
	</g>
</g>
</svg>
