<svg width="49" height="49" viewBox="0 0 49 49" fill="none" xmlns="http://www.w3.org/2000/svg">
<path d="M36.7695 18.6799H12.7695C12.4895 18.6799 12.2695 18.4599 12.2695 18.1799C12.2695 17.8999 12.4895 17.6799 12.7695 17.6799H36.7695C37.0495 17.6799 37.2695 17.8999 37.2695 18.1799C37.2695 18.4599 37.0495 18.6799 36.7695 18.6799Z" fill="#ffffff"/>
<path d="M29.6192 18.6799C29.3392 18.6799 29.1192 18.4599 29.1192 18.1799V16.3899H20.4092V18.1799C20.4092 18.4599 20.1892 18.6799 19.9092 18.6799C19.6292 18.6799 19.4092 18.4599 19.4092 18.1799V15.8899C19.4092 15.6099 19.6292 15.3899 19.9092 15.3899H29.6192C29.8992 15.3899 30.1192 15.6099 30.1192 15.8899V18.1799C30.1192 18.4599 29.8992 18.6799 29.6192 18.6799Z" fill="#ffffff"/>
<path d="M29.0495 29.2499H20.4795C18.7195 29.2499 17.3495 28.7399 16.4195 27.7399C15.0295 26.2499 15.1595 24.2299 15.1595 24.1399V18.1799C15.1595 17.8999 15.3795 17.6799 15.6595 17.6799C15.9395 17.6799 16.1595 17.8999 16.1595 18.1799V24.1799C16.1595 24.2299 16.0595 25.8999 17.1595 27.0699C17.8895 27.8499 19.0095 28.2499 20.4795 28.2499H29.0495C29.2195 28.2499 33.1195 28.1699 33.1195 23.6099V18.1799C33.1195 17.8999 33.3395 17.6799 33.6195 17.6799C33.8995 17.6799 34.1195 17.8999 34.1195 18.1799V23.6099C34.1195 29.1899 29.0995 29.2499 29.0495 29.2499V29.2499Z" fill="#ffffff"/>
<path d="M20.4791 26.9599C17.8191 26.9599 17.1191 24.7599 17.1191 23.5999C17.1191 23.3199 17.3391 23.0999 17.6191 23.0999C17.9191 23.0999 18.1191 23.3199 18.1191 23.5999C18.1191 23.8399 18.1991 25.9599 20.4791 25.9599C20.7591 25.9599 20.9791 26.1799 20.9791 26.4599C20.9791 26.7399 20.7591 26.9599 20.4791 26.9599Z" fill="#ffffff"/>
<path d="M33.6196 41.0199C33.4196 41.0199 33.2296 40.8999 33.1496 40.6999L28.5796 28.9299C28.4796 28.6699 28.6096 28.3799 28.8696 28.2799C29.1296 28.1799 29.4196 28.3099 29.5196 28.5699L34.0896 40.3399C34.1896 40.5999 34.0596 40.8899 33.7996 40.9899C33.7396 41.0099 33.6796 41.0199 33.6196 41.0199V41.0199Z" fill="#ffffff"/>
<path d="M15.9098 41.0199C15.8498 41.0199 15.7898 41.0099 15.7298 40.9899C15.4698 40.8899 15.3498 40.5999 15.4398 40.3399L20.0098 28.5699C20.1098 28.3099 20.3998 28.1899 20.6598 28.2799C20.9198 28.3799 21.0398 28.6699 20.9498 28.9299L16.3798 40.6999C16.2998 40.8999 16.1098 41.0199 15.9098 41.0199V41.0199Z" fill="#ffffff"/>
<path d="M35.3392 41.2499H31.9092C31.6292 41.2499 31.4092 41.0299 31.4092 40.7499C31.4092 40.4699 31.6292 40.2499 31.9092 40.2499H35.3392C35.6192 40.2499 35.8392 40.4699 35.8392 40.7499C35.8392 41.0299 35.6192 41.2499 35.3392 41.2499Z" fill="#ffffff"/>
<path d="M17.6195 41.2499H14.1895C13.9095 41.2499 13.6895 41.0299 13.6895 40.7499C13.6895 40.4699 13.9095 40.2499 14.1895 40.2499H17.6195C17.8995 40.2499 18.1195 40.4699 18.1195 40.7499C18.1195 41.0299 17.8995 41.2499 17.6195 41.2499Z" fill="#ffffff"/>
<path d="M30.3594 32.6799H19.1494C18.8694 32.6799 18.6494 32.4599 18.6494 32.1799C18.6494 31.8999 18.8694 31.6799 19.1494 31.6799H30.3594C30.6394 31.6799 30.8594 31.8999 30.8594 32.1799C30.8594 32.4599 30.6394 32.6799 30.3594 32.6799V32.6799Z" fill="#ffffff"/>
<path d="M32.1996 37.3499H17.3096C17.0296 37.3499 16.8096 37.1299 16.8096 36.8499C16.8096 36.5699 17.0296 36.3499 17.3096 36.3499H32.1996C32.4796 36.3499 32.6996 36.5699 32.6996 36.8499C32.6996 37.1299 32.4796 37.3499 32.1996 37.3499Z" fill="#ffffff"/>
<path d="M19.2999 13.5499C19.2399 13.5499 19.1799 13.5399 19.1199 13.5199C19.0599 13.4999 17.6299 12.9199 17.6299 11.3199C17.6299 10.3599 18.0299 9.8399 18.3599 9.4299C18.6199 9.0999 18.7999 8.8599 18.7999 8.4199C18.7999 7.3899 18.1599 6.7699 18.1599 6.7599C17.9599 6.5699 17.9499 6.2599 18.1399 6.0499C18.3299 5.8499 18.6399 5.8399 18.8499 6.0299C18.8899 6.0699 19.8099 6.9399 19.8099 8.4199C19.8099 9.1999 19.4499 9.6699 19.1599 10.0399C18.8699 10.4099 18.6399 10.6999 18.6399 11.3199C18.6399 12.2399 19.4799 12.5799 19.4899 12.5899C19.7499 12.6899 19.8699 12.9799 19.7699 13.2399C19.6899 13.4399 19.4999 13.5599 19.2999 13.5599V13.5499Z" fill="#ffffff"/>
<path d="M23.0997 13.5499C23.0397 13.5499 22.9797 13.5399 22.9197 13.5199C22.8597 13.4999 21.4297 12.9199 21.4297 11.3199C21.4297 10.3599 21.8297 9.8399 22.1597 9.4299C22.4197 9.0999 22.5997 8.8599 22.5997 8.4199C22.5997 7.3899 21.9597 6.7699 21.9597 6.7599C21.7597 6.5699 21.7497 6.2599 21.9397 6.0499C22.1297 5.8499 22.4497 5.8399 22.6497 6.0299C22.6897 6.0699 23.6097 6.9399 23.6097 8.4199C23.6097 9.1999 23.2497 9.6699 22.9597 10.0399C22.6697 10.4099 22.4397 10.6999 22.4397 11.3199C22.4397 12.2399 23.2797 12.5799 23.2897 12.5899C23.5497 12.6899 23.6697 12.9799 23.5697 13.2399C23.4897 13.4399 23.2997 13.5599 23.0997 13.5599V13.5499Z" fill="#ffffff"/>
<path d="M26.8995 13.5499C26.8395 13.5499 26.7795 13.5399 26.7195 13.5199C26.6595 13.4999 25.2295 12.9199 25.2295 11.3199C25.2295 10.3599 25.6295 9.8399 25.9595 9.4299C26.2195 9.0999 26.3995 8.8599 26.3995 8.4199C26.3995 7.3899 25.7595 6.7699 25.7595 6.7599C25.5595 6.5699 25.5495 6.2599 25.7395 6.0499C25.9295 5.8499 26.2495 5.8399 26.4495 6.0299C26.4895 6.0699 27.4095 6.9399 27.4095 8.4199C27.4095 9.1999 27.0495 9.6699 26.7595 10.0399C26.4695 10.4099 26.2395 10.6999 26.2395 11.3199C26.2395 12.2399 27.0795 12.5799 27.0895 12.5899C27.3495 12.6899 27.4695 12.9799 27.3695 13.2399C27.2895 13.4399 27.0995 13.5599 26.8995 13.5599V13.5499Z" fill="#ffffff"/>
<path d="M30.7091 13.5499C30.6491 13.5499 30.5891 13.5399 30.5291 13.5199C30.4691 13.4999 29.0391 12.9199 29.0391 11.3199C29.0391 10.3599 29.4391 9.8399 29.7691 9.4299C30.0291 9.0999 30.2091 8.8599 30.2091 8.4199C30.2091 7.3899 29.5891 6.7799 29.5591 6.7599C29.3591 6.5699 29.3491 6.2499 29.5391 6.0499C29.7291 5.8499 30.0391 5.8399 30.2391 6.0299C30.2791 6.0699 31.1991 6.9399 31.1991 8.4199C31.1991 9.1999 30.8391 9.6699 30.5491 10.0399C30.2591 10.4099 30.0291 10.6999 30.0291 11.3199C30.0291 12.2299 30.8491 12.5699 30.8791 12.5899C31.1291 12.6899 31.2591 12.9799 31.1591 13.2399C31.0791 13.4399 30.8891 13.5499 30.6991 13.5499H30.7091Z" fill="#ffffff"/>
</svg>
