<svg width="24" height="24" viewBox="0 0 24 24" fill="none" xmlns="http://www.w3.org/2000/svg">
<path fill-rule="evenodd" clip-rule="evenodd" d="M5.56055 5.08301H18.4721V5.58301H6.06055V10.8561H5.56055V5.08301Z" fill="#F0EBE0"/>
<path fill-rule="evenodd" clip-rule="evenodd" d="M4.43552 10.8799H8.53719L8.5488 13.0623H17.7992C18.8134 13.0623 19.6133 13.5326 20.1547 14.1156C20.6881 14.6898 20.9969 15.4024 20.9969 15.9313C20.9969 16.471 20.7487 16.781 20.477 16.9422C20.3485 17.0184 20.2221 17.0573 20.1292 17.0775C20.0823 17.0877 20.0426 17.0934 20.0134 17.0966C19.9988 17.0982 19.9867 17.0992 19.9776 17.0998L19.9661 17.1004L19.9621 17.1006L19.9605 17.1007C19.9604 17.1007 19.9593 17.1007 19.952 16.8508L19.9593 17.1007L19.952 17.1009L18.5767 17.1008V16.6008H19.9453C19.9481 16.6006 19.9526 16.6002 19.9588 16.5996C19.9731 16.598 19.9955 16.5949 20.0231 16.5889C20.0793 16.5767 20.1517 16.5538 20.2219 16.5121C20.3477 16.4376 20.4969 16.2878 20.4969 15.9313C20.4969 15.5639 20.2632 14.9671 19.7884 14.4559C19.3216 13.9534 18.6476 13.5623 17.7992 13.5623H8.05145L8.03985 11.3799H4.43647C4.43645 11.3799 4.43649 11.3799 4.43647 11.3799L4.43149 11.38C4.42638 11.3802 4.41771 11.3806 4.40601 11.3814C4.38253 11.3831 4.34735 11.3866 4.30447 11.3937C4.21754 11.4083 4.10543 11.4369 3.99633 11.4916C3.88823 11.5458 3.78763 11.6232 3.71348 11.7348C3.64034 11.8448 3.58301 12.0028 3.58301 12.2357V16.0829C3.58322 16.0841 3.58346 16.0855 3.58373 16.0869C3.58602 16.0992 3.59038 16.1191 3.59814 16.1441C3.61381 16.1946 3.64216 16.2619 3.69207 16.3286C3.7836 16.451 3.97295 16.6066 4.3949 16.6066H5.72372V17.1066H4.3949C3.8246 17.1066 3.483 16.884 3.29164 16.6281C3.20012 16.5057 3.14904 16.3838 3.12064 16.2924C3.10637 16.2465 3.09754 16.2073 3.09214 16.1782C3.08943 16.1636 3.08757 16.1515 3.0863 16.1422L3.08482 16.1303L3.08436 16.1261L3.08419 16.1244L3.08409 16.1233C3.08407 16.1231 3.08406 16.123 3.33301 16.1001L3.08409 16.1233L3.08301 16.1115V12.2357C3.08301 11.9156 3.16349 11.659 3.29707 11.458C3.42964 11.2586 3.60467 11.1286 3.7722 11.0446C3.93873 10.9611 4.10225 10.9206 4.22204 10.9006C4.28252 10.8905 4.33347 10.8853 4.37028 10.8827C4.38873 10.8814 4.40376 10.8807 4.41479 10.8803L4.42832 10.8799L4.43273 10.8799L4.43433 10.8799L4.43552 10.8799C4.43565 10.8799 4.43552 10.8799 4.43552 11.1299V10.8799Z" fill="#F0EBE0"/>
<path fill-rule="evenodd" clip-rule="evenodd" d="M15.9368 17.1006H8.66016V16.6006H15.9368V17.1006Z" fill="#F0EBE0"/>
<path fill-rule="evenodd" clip-rule="evenodd" d="M16.8512 13.382L14.5186 5.403L14.9985 5.2627L17.3312 13.2417L16.8512 13.382Z" fill="#F0EBE0"/>
<path fill-rule="evenodd" clip-rule="evenodd" d="M14.5477 9.61762L13.5612 10.6128L12.3189 11.8588L11.9648 11.5058L13.2061 10.2608L14.1926 9.26562L14.5477 9.61762Z" fill="#F0EBE0"/>
<path fill-rule="evenodd" clip-rule="evenodd" d="M13.401 10.3613L17.0684 12.9686L16.7786 13.3761L13.1113 10.7688L13.401 10.3613Z" fill="#F0EBE0"/>
<path fill-rule="evenodd" clip-rule="evenodd" d="M5.97363 16.7548V16.8386C5.99415 17.0353 6.10191 17.286 6.2912 17.488C6.47992 17.6893 6.73617 17.8287 7.04665 17.8287C7.63902 17.8287 8.11967 17.3477 8.11967 16.7517C8.11967 16.1558 7.63902 15.6748 7.04665 15.6748C6.71601 15.6748 6.45388 15.8305 6.26693 16.0512C6.07616 16.2765 5.97881 16.553 5.97363 16.7548ZM5.88536 15.7281C6.14813 15.4178 6.5417 15.1748 7.04665 15.1748C7.91656 15.1748 8.61967 15.8811 8.61967 16.7517C8.61967 17.6224 7.91656 18.3287 7.04665 18.3287C6.57377 18.3287 6.19172 18.113 5.92637 17.8299C5.66492 17.5509 5.50329 17.1928 5.47463 16.873L5.47363 16.8619V16.7463C5.48081 16.4187 5.62722 16.033 5.88536 15.7281Z" fill="#F0EBE0"/>
<path fill-rule="evenodd" clip-rule="evenodd" d="M17.2537 15.6748C16.6618 15.6748 16.1807 16.1563 16.1807 16.7517C16.1807 17.3472 16.6618 17.8287 17.2537 17.8287C17.8456 17.8287 18.3267 17.3472 18.3267 16.7517C18.3267 16.1563 17.8456 15.6748 17.2537 15.6748ZM15.6807 16.7517C15.6807 15.8815 16.3842 15.1748 17.2537 15.1748C18.1231 15.1748 18.8267 15.8815 18.8267 16.7517C18.8267 17.622 18.1231 18.3287 17.2537 18.3287C16.3842 18.3287 15.6807 17.622 15.6807 16.7517Z" fill="#F0EBE0"/>
</svg>
