<svg width="48" height="48" viewBox="0 0 48 48" fill="none" xmlns="http://www.w3.org/2000/svg">
<path d="M31.18 36.5H7V35.5H30.18L30.2 23.21C29.02 24.17 26.68 25.63 23.35 25.63V24.63C27.75 24.63 30.3 21.75 30.32 21.72L31.2 20.71L31.18 36.5Z" fill="#ffffff"/>
<path d="M40.9996 36.5H32.5996L32.6196 20.72L33.4996 21.73C33.4996 21.73 36.0696 24.64 40.4696 24.64V25.64C37.1396 25.64 34.7996 24.18 33.6196 23.21L33.5996 35.51H40.9996V36.51V36.5Z" fill="#ffffff"/>
<path d="M24.38 22.55L24.29 21.55C28.09 21.19 30.27 18.3 30.3 18.28L31.1 18.87C31 19 28.64 22.14 24.38 22.55Z" fill="#ffffff"/>
<path d="M39.43 22.55C35.18 22.15 32.81 19.01 32.71 18.87L33.51 18.28C33.51 18.28 35.72 21.2 39.52 21.55L39.43 22.55V22.55Z" fill="#ffffff"/>
<path d="M25.2501 19.25L25.0801 18.27C28.3801 17.69 30.2501 14.73 30.2701 14.7L31.1201 15.23C31.0301 15.37 28.9901 18.6 25.2501 19.26V19.25Z" fill="#ffffff"/>
<path d="M38.5604 19.2499C34.8304 18.5899 32.7804 15.3599 32.6904 15.2199L33.5404 14.6899C33.5404 14.6899 35.4504 17.6799 38.7304 18.2599L38.5604 19.2399V19.2499Z" fill="#ffffff"/>
<path d="M26.4304 16.05L26.1504 15.09C28.7504 14.32 30.2404 11.4 30.2504 11.37L31.1504 11.82C31.0804 11.96 29.4604 15.16 26.4304 16.06V16.05Z" fill="#ffffff"/>
<path d="M37.3899 16.05C34.3699 15.15 32.7399 11.95 32.6699 11.81L33.5699 11.36C33.5699 11.36 35.0699 14.31 37.6699 15.08L37.3899 16.04V16.05Z" fill="#ffffff"/>
<path d="M27.6501 12.1899L27.3701 11.2299C29.9301 10.4699 31.4301 5.85995 31.4501 5.80995L31.9301 4.31995L32.4101 5.80995C32.4101 5.80995 33.9301 10.4699 36.4901 11.2299L36.2101 12.1899C34.0601 11.5499 32.6301 8.93995 31.9401 7.35995C31.2501 8.94995 29.8201 11.5599 27.6701 12.1899H27.6501Z" fill="#ffffff"/>
<path d="M22.75 33.1899H21.75V35.2099H22.75V33.1899Z" fill="#ffffff"/>
<path d="M21.1201 33.1899H20.1201V35.2099H21.1201V33.1899Z" fill="#ffffff"/>
<path d="M14.7695 33.1899H13.7695V35.2099H14.7695V33.1899Z" fill="#ffffff"/>
<path d="M13.1396 33.1899H12.1396V35.2099H13.1396V33.1899Z" fill="#ffffff"/>
<path d="M15.0203 28.0701L13.7203 31.5301H14.7503L15.6803 29.0401L24.4503 29.0301L23.3003 31.8701H10.8203V32.8401H23.9503L25.8903 28.0601L15.0203 28.0701Z" fill="#ffffff"/>
</svg>
