<svg width="48" height="49" viewBox="0 0 48 49" fill="none" xmlns="http://www.w3.org/2000/svg">
<path d="M20.4492 21.4899H19.4492V14.4399L24.0592 9.18994L28.5892 14.1699V21.4299H27.5892V14.5499L24.0792 10.6899L20.4492 14.8199V21.4899Z" fill="#ffffff"/>
<path d="M24.5098 4.0199H23.5098V10.0099H24.5098V4.0199Z" fill="#ffffff"/>
<path d="M25.6291 5.69995H22.3691V6.69995H25.6291V5.69995Z" fill="#ffffff"/>
<path d="M31.5797 34.3399H30.5797V23.3599L24.0197 19.8299L17.4297 23.3599V34.3399H16.4297V22.7699L24.0197 18.6899L31.5797 22.7699V34.3399Z" fill="#ffffff"/>
<path d="M39.7395 38.2599H8.26953V33.7599H39.7395V38.2599V38.2599ZM9.26953 37.2599H38.7395V34.7599H9.26953V37.2599V37.2599Z" fill="#ffffff"/>
<path d="M37.8292 34.3599L37.6192 29.3899L30.6992 26.3399L31.0992 25.4299L38.5992 28.7299L38.8292 34.3199L37.8292 34.3599Z" fill="#ffffff"/>
<path d="M10.3594 34.77L9.35938 34.76L9.45938 28.62L16.7294 25.33L17.1394 26.24L10.4494 29.27L10.3594 34.77Z" fill="#ffffff"/>
<path d="M27.7693 34.4899H26.7693V28.4999C26.7693 28.2399 26.6693 25.8999 24.0193 25.8999C22.9793 25.8999 22.1893 26.1799 21.6693 26.7399C20.8693 27.5899 20.9393 28.7999 20.9393 28.8099V34.4799H19.9393V28.8399C19.9393 28.8399 19.8493 27.2099 20.9393 26.0499C21.6593 25.2899 22.6893 24.8999 24.0193 24.8999C26.9893 24.8999 27.7693 27.2499 27.7693 28.4999V34.4899V34.4899Z" fill="#ffffff"/>
<path d="M24.0097 18.2899L23.8397 18.2299C22.2497 17.6699 21.4797 16.4499 21.4197 15.4799C21.3797 14.7999 21.6697 14.2399 22.2097 13.9699C22.8097 13.6699 23.4097 13.7099 23.9097 14.0799C23.9397 14.0999 23.9697 14.1299 23.9997 14.1499C24.0297 14.1199 24.0597 14.0999 24.0897 14.0799C24.5897 13.7099 25.1897 13.6699 25.7897 13.9699C26.3297 14.2399 26.6297 14.8099 26.5797 15.4799C26.5197 16.4499 25.7497 17.6799 24.1597 18.2299L23.9897 18.2899H24.0097ZM23.0097 14.7699C22.9097 14.7699 22.7997 14.7999 22.6697 14.8599C22.4497 14.9699 22.4097 15.2199 22.4297 15.4099C22.4697 15.9999 22.9797 16.7999 24.0197 17.2199C25.0597 16.7999 25.5697 15.9999 25.6097 15.4099C25.6197 15.2199 25.5897 14.9699 25.3697 14.8599C25.0397 14.6899 24.8497 14.7799 24.7197 14.8799C24.5697 14.9999 24.4797 15.1599 24.4797 15.1599L24.0297 16.0499L23.5797 15.1599C23.5097 15.0299 23.3297 14.7699 23.0197 14.7699H23.0097Z" fill="#ffffff"/>
</svg>
