<?xml version="1.0" encoding="utf-8"?>
<!-- Generator: Adobe Illustrator 26.4.1, SVG Export Plug-In . SVG Version: 6.00 Build 0)  -->
<svg version="1.1" id="Layer_1" xmlns="http://www.w3.org/2000/svg" xmlns:xlink="http://www.w3.org/1999/xlink" x="0px" y="0px"
	 viewBox="0 0 73 65.6" style="enable-background:new 0 0 73 65.6;" xml:space="preserve">
<style type="text/css">
	.st0{fill:none;stroke:#ffffff;stroke-linecap:round;stroke-linejoin:round;}
</style>
<path class="st0" d="M24.8,12.2c0,0,4.4-0.5,7.1,2.9s3.1,6.7,3.1,11"/>
<path class="st0" d="M24.8,12.2c0,0-4.4-0.5-7.1,2.9s-3.1,6.7-3.1,11v5.5c0,0-0.1,2.7-0.6,3.5s-3.6,3.2-2.3,6.4s1.8-1.9,5.7-2V28.2
	c0,0-0.1-3.5,2-4.7s5.4-3.3,5.4-7.5"/>
<path class="st0" d="M28.2,21.3c0,0,4.2,1.5,4.2,7.9c0,3.2-2.1,8.2-7.6,8.2c-5.5,0-7.4-5.9-7.4-5.9"/>
<path class="st0" d="M39.5,28.8c0,0,2,6.8,7.7,6.8c0,0,2.9,0.1,5.1-1.6c0,0,1.9-1.4,2.6-3.9"/>
<path class="st0" d="M27.5,28.5c0,0,0.1-1.5,1.4-1.5s1.3,1.5,1.3,1.5"/>
<path class="st0" d="M19.7,28.5c0,0,0.1-1.5,1.4-1.5s1.3,1.5,1.3,1.5"/>
<path class="st0" d="M23,32.7c0,0,0.3,1.3,1.9,1.3s2-1.3,2-1.3"/>
<path class="st0" d="M50,26.8c0,0,0.1-1.5,1.4-1.5s1.3,1.5,1.3,1.5"/>
<path class="st0" d="M42.3,26.8c0,0,0.1-1.5,1.4-1.5s1.3,1.5,1.3,1.5"/>
<path class="st0" d="M45.5,31c0,0,0.3,1.3,1.8,1.3s2-1.3,2-1.3"/>
<line class="st0" x1="20.2" y1="35.8" x2="20.2" y2="39.5"/>
<path class="st0" d="M22.4,37.2c0,0,0.5,2.3-0.8,2.3h-4.2"/>
<path class="st0" d="M33.9,39.7c-0.6-0.1-1.3-0.2-1.7-0.2H28c-1.4,0-0.8-2.3-0.8-2.3"/>
<path class="st0" d="M12.6,43.1c0,0-0.4,0.9-0.4,3.1v9.1c0,0-0.2,2,1.9,2h16.8"/>
<line class="st0" x1="16" y1="44.2" x2="32.1" y2="44.2"/>
<path class="st0" d="M46.3,10.1c0,0,4,0.1,3.9,2.8s-0.1,6-3.9,7.6s-6.7,0.9-6.7,5.1s0,3.6,0,3.6s-2.3-1.9-2.3-6.1
	S38.6,10.1,46.3,10.1L46.3,10.1z"/>
<path class="st0" d="M50,11.9c0,0,2.3-1,4.8,1.5s3.3,8.1,1.9,13.8c0,0-1.2-3.3-2-4.1s0-2.3-0.6-3.8c-0.6-1.3-2.8-2.7-4.6-1.8"/>
<path class="st0" d="M55.4,24.3c0,0,0.1,2.8-0.3,4.9c-0.3,1.4,1.5,0.7,2.6-0.4s1.6-3.3-0.6-3.8"/>
<polyline class="st0" points="50.4,35.1 50.4,37.9 47.4,40 50.6,43.3 50.4,37.9 "/>
<polyline class="st0" points="44.2,35.1 44.2,37.9 47.3,40 44,43.3 44.2,37.9 "/>
<line class="st0" x1="47.4" y1="44.1" x2="47.4" y2="53.1"/>
<path class="st0" d="M50.6,37.8c0,0,4.5,0.1,6.8,2.3s2.9,5.4,2.9,8.2v7.6c0,0,0.1,1.4-1.2,1.4H47.3"/>
<path class="st0" d="M47.6,57.3H35.7c-1.2,0-1.2-1.4-1.2-1.4v-7.6c0-2.8,0.7-6,2.9-8.2s6.8-2.3,6.8-2.3"/>
<line class="st0" x1="54.7" y1="47" x2="54.7" y2="56.6"/>
<line class="st0" x1="42" y1="49.4" x2="42" y2="57.3"/>
</svg>
