<svg width="48" height="48" viewBox="0 0 48 48" fill="none" xmlns="http://www.w3.org/2000/svg">
<path d="M8 36H39" stroke="#ffffff" stroke-linecap="round" stroke-linejoin="round"/>
<path d="M17 10V36" stroke="#ffffff" stroke-linecap="round" stroke-linejoin="round"/>
<path d="M34 21V36" stroke="#ffffff" stroke-linecap="round" stroke-linejoin="round"/>
<path d="M30 27H38" stroke="#ffffff" stroke-linecap="round" stroke-linejoin="round"/>
<path d="M31 21H37" stroke="#ffffff" stroke-linecap="round" stroke-linejoin="round"/>
<path d="M13 16H21" stroke="#ffffff" stroke-linecap="round" stroke-linejoin="round"/>
<path d="M11 22H23" stroke="#ffffff" stroke-linecap="round" stroke-linejoin="round"/>
<path d="M14 10H20" stroke="#ffffff" stroke-linecap="round" stroke-linejoin="round"/>
<path d="M30 30C28.34 30 27 28.66 27 27C27 25.34 28.34 24 30 24H32C30.34 24 29 22.66 29 21C29 19.34 30.34 18 32 18H36C37.66 18 39 19.34 39 21C39 22.66 37.66 24 36 24H38C39.66 24 41 25.34 41 27C41 28.66 39.66 30 38 30" stroke="#ffffff" stroke-linecap="round" stroke-linejoin="round"/>
<path d="M12 25C10.34 25 9 23.66 9 22C9 20.34 10.34 19 12 19H13C11.34 19 10 17.66 10 16C10 14.34 11.34 13 13 13H14C12.34 13 11 11.66 11 10C11 8.34 12.34 7 14 7H20C21.66 7 23 8.34 23 10C23 11.66 21.66 13 20 13H21C22.66 13 24 14.34 24 16C24 17.66 22.66 19 21 19H22C23.66 19 25 20.34 25 22C25 23.66 23.66 25 22 25" stroke="#ffffff" stroke-linecap="round" stroke-linejoin="round"/>
</svg>
