<?xml version="1.0" encoding="utf-8"?>
<!-- Generator: Adobe Illustrator 26.4.1, SVG Export Plug-In . SVG Version: 6.00 Build 0)  -->
<svg version="1.1" id="Layer_1" xmlns="http://www.w3.org/2000/svg" xmlns:xlink="http://www.w3.org/1999/xlink" x="0px" y="0px"
	 viewBox="0 0 48 48" style="enable-background:new 0 0 48 48;" xml:space="preserve">
<style type="text/css">
	.st0{fill:none;stroke:#ffffff;stroke-linecap:round;stroke-miterlimit:10;}
	.st1{fill:none;stroke:#ffffff;stroke-linecap:round;stroke-linejoin:round;stroke-miterlimit:10;}
	.st2{fill:none;stroke:#ffffff;stroke-miterlimit:10;}
</style>
<path class="st0" d="M18.4,9h-1c-2.2,0-4,1.8-4,4v19c0,2.2,1.8,4,4,4h13c2.2,0,4-1.8,4-4V13c0-2.2-1.8-4-4-4h-1"/>
<line class="st1" x1="12.4" y1="39" x2="16.4" y2="36"/>
<line class="st1" x1="35.4" y1="39" x2="31.4" y2="36"/>
<circle class="st1" cx="18.4" cy="30" r="2"/>
<circle class="st1" cx="29.4" cy="30" r="2"/>
<circle class="st1" cx="27.9" cy="8" r="1.5"/>
<circle class="st1" cx="19.9" cy="8" r="1.5"/>
<path class="st2" d="M30.4,24h-13c-1.1,0-2-0.9-2-2v-5c0-1.1,0.9-2,2-2h13c1.1,0,2,0.9,2,2v5C32.4,23.1,31.5,24,30.4,24z"/>
<path class="st2" d="M28.4,15h-9v-2c0-0.6,0.4-1,1-1h7c0.6,0,1,0.4,1,1V15z"/>
<line class="st0" x1="21.4" y1="9" x2="26.4" y2="9"/>
</svg>
