<svg width="48" height="48" viewBox="0 0 48 48" fill="none" xmlns="http://www.w3.org/2000/svg">
<path d="M8.08008 34.22H39.0801" stroke="#FFFFFF" stroke-miterlimit="10" stroke-linecap="round"/>
<path d="M8.08008 37.22H39.0801" stroke="#FFFFFF" stroke-miterlimit="10" stroke-linecap="round"/>
<path d="M23.5801 34.22V31.22" stroke="#FFFFFF" stroke-miterlimit="10" stroke-linecap="round"/>
<path d="M39.18 31.0299C39.18 22.4199 32.2 15.4399 23.59 15.4399C14.98 15.4399 8 22.4199 8 31.0299H39.19H39.18Z" stroke="#FFFFFF" stroke-linecap="round" stroke-linejoin="round"/>
<path d="M23.5797 15.22C25.0212 15.22 26.1897 14.0515 26.1897 12.61C26.1897 11.1685 25.0212 10 23.5797 10C22.1383 10 20.9697 11.1685 20.9697 12.61C20.9697 14.0515 22.1383 15.22 23.5797 15.22Z" stroke="#FFFFFF" stroke-miterlimit="10" stroke-linecap="round"/>
<path d="M21.8004 17.52C21.8004 17.52 14.5204 18.56 11.4004 25.84" stroke="#FFFFFF" stroke-miterlimit="10" stroke-linecap="round"/>
</svg>
