<svg width="49" height="48" viewBox="0 0 49 48" fill="none" xmlns="http://www.w3.org/2000/svg">
<path d="M38.2999 16.7201H10.1299V9.93005H38.2999V16.7201ZM11.1299 15.7201H37.2999V10.9301H11.1299V15.7201Z" fill="#ffffff"/>
<path d="M15.3504 37.59H14.3504V16.72H13.1904V37.59H12.1904V15.72H15.3504V37.59Z" fill="#ffffff"/>
<path d="M36.2498 37.59H35.2498V16.72H34.0898V37.59H33.0898V15.72H36.2498V37.59Z" fill="#ffffff"/>
<path d="M33.5796 17.7H14.8496V18.7H33.5796V17.7Z" fill="#ffffff"/>
<path d="M33.5796 19.67H14.8496V20.67H33.5796V19.67Z" fill="#ffffff"/>
<path d="M19.1201 18.2H18.1201V30.49H19.1201V18.2Z" fill="#ffffff"/>
<path d="M21.8604 18.2H20.8604V30.49H21.8604V18.2Z" fill="#ffffff"/>
<path d="M23.49 32.8499H16.5V29.9399H23.49V32.8499ZM17.5 31.8499H22.49V30.9399H17.5V31.8499Z" fill="#ffffff"/>
<path d="M27.5703 18.2H26.5703V30.49H27.5703V18.2Z" fill="#ffffff"/>
<path d="M30.3008 18.2H29.3008V30.49H30.3008V18.2Z" fill="#ffffff"/>
<path d="M31.9402 32.8499H24.9502V29.9399H31.9402V32.8499ZM25.9502 31.8499H30.9402V30.9399H25.9502V31.8499Z" fill="#ffffff"/>
<path d="M38.8806 37.09H9.56055V38.09H38.8806V37.09Z" fill="#ffffff"/>
</svg>
