<svg width="49" height="49" viewBox="0 0 49 49" fill="none" xmlns="http://www.w3.org/2000/svg">
<path d="M38.5003 38.8699H11.1503C9.8703 38.8699 8.82031 37.8299 8.82031 36.5399V21.1399C8.82031 20.8599 9.04031 20.6399 9.32031 20.6399H40.3203C40.6003 20.6399 40.8203 20.8599 40.8203 21.1399V36.5399C40.8203 37.8199 39.7803 38.8699 38.4903 38.8699H38.5003ZM9.83031 21.6499V36.5499C9.83031 37.2799 10.4203 37.8799 11.1603 37.8799H38.5103C39.2403 37.8799 39.8403 37.2899 39.8403 36.5499V21.6499H9.8403H9.83031Z" fill="#ffffff"/>
<path d="M9.33015 21.6399C9.23015 21.6399 9.13014 21.6099 9.04014 21.5499C8.82014 21.3899 8.76014 21.0799 8.93014 20.8499C9.00014 20.7599 15.7302 11.5899 29.1002 11.5899C29.2602 11.5899 33.3201 11.5199 36.4401 13.9699C40.0701 16.8199 40.8301 19.4399 40.8301 21.1399C40.8301 21.4199 40.6101 21.6399 40.3301 21.6399C40.0501 21.6399 39.8301 21.4199 39.8301 21.1399C39.8301 19.0199 38.4402 16.8099 35.8202 14.7499C32.9902 12.5299 29.1501 12.5899 29.1101 12.5799C16.2301 12.5799 9.80015 21.3399 9.74015 21.4199C9.64015 21.5599 9.49015 21.6299 9.33015 21.6299V21.6399Z" fill="#ffffff"/>
<path d="M15.8 21.64C15.8 21.64 15.76 21.64 15.73 21.64C15.46 21.6 15.26 21.35 15.3 21.08C15.31 20.99 16.61 11.96 27.91 11.61H27.93C28.2 11.61 28.42 11.82 28.43 12.09C28.43 12.37 28.22 12.6 27.95 12.61C17.52 12.93 16.35 20.87 16.3 21.2C16.27 21.45 16.05 21.63 15.8 21.63V21.64Z" fill="#ffffff"/>
<path d="M13.3703 36.89C12.6203 36.89 11.8903 36.86 11.1703 36.82C10.5303 36.79 9.91031 36.76 9.32031 36.76C9.04031 36.76 8.82031 36.54 8.82031 36.26C8.82031 35.98 9.04031 35.76 9.32031 35.76C9.92031 35.76 10.5503 35.79 11.2103 35.82C13.7003 35.93 16.5203 36.06 18.6103 34.61C19.8503 33.75 20.2403 32.62 20.3503 31.83C20.5303 30.51 20.0803 29.26 19.5903 28.67L19.4803 28.54C18.6903 27.6 17.6103 26.3 17.5403 24.5C17.4403 22.11 19.0703 20.8 19.1403 20.75C19.3603 20.58 19.6703 20.62 19.8403 20.83C20.0103 21.04 19.9703 21.36 19.7603 21.53C19.7003 21.58 18.4603 22.6 18.5403 24.45C18.6003 25.92 19.4803 26.97 20.2503 27.89L20.3603 28.0199C21.0103 28.7999 21.5703 30.32 21.3503 31.95C21.2103 32.94 20.7303 34.35 19.1903 35.42C17.4603 36.62 15.3903 36.87 13.3703 36.87V36.89Z" fill="#ffffff"/>
<path d="M15.46 38.8699C15.18 38.8699 14.96 38.6499 14.96 38.3699C14.96 38.0899 15.18 37.8699 15.46 37.8699C17.66 37.8699 20.4799 35.3299 20.5099 35.3099C22.9499 32.8699 22.43 29.5099 21.31 28.0199C21.15 27.8099 20.98 27.6099 20.82 27.4199C20.18 26.6699 19.51 25.8899 19.49 24.4999C19.45 22.0799 21.58 20.7799 21.67 20.7299C21.91 20.5899 22.21 20.6699 22.35 20.8999C22.49 21.1399 22.4199 21.4399 22.1799 21.5899C22.1599 21.5999 20.46 22.6499 20.49 24.4899C20.51 25.5099 20.98 26.0699 21.58 26.7699C21.76 26.9799 21.94 27.1899 22.11 27.4199C23.44 29.1999 24.08 33.1599 21.2 36.0399C21.06 36.1699 18.05 38.8799 15.46 38.8799V38.8699Z" fill="#ffffff"/>
<path d="M33.7903 38.8699C33.7003 38.8699 33.6103 38.8499 33.5203 38.7899C33.2903 38.6399 33.2203 38.3299 33.3603 38.0999C35.1503 35.2499 33.9603 32.6899 33.9503 32.6599C32.4003 29.7899 29.5903 28.5699 27.3303 27.5899C25.3103 26.7199 23.5703 25.9599 23.5703 24.2599C23.5703 21.4899 26.8603 20.6799 28.6003 20.6399C28.8703 20.6399 29.1003 20.8499 29.1103 21.1299C29.1103 21.4099 28.9003 21.6299 28.6203 21.6399C28.5803 21.6399 24.5603 21.7699 24.5603 24.2599C24.5603 25.2599 25.7603 25.8199 27.7203 26.6699C30.1203 27.7099 33.1103 28.9999 34.8303 32.1999C34.9003 32.3499 36.2803 35.3099 34.1903 38.6199C34.1003 38.7699 33.9303 38.8499 33.7703 38.8499L33.7903 38.8699Z" fill="#ffffff"/>
<path d="M35.7503 38.86C35.6503 38.86 35.5503 38.83 35.4603 38.77C35.2303 38.61 35.1803 38.3 35.3403 38.07C35.4103 37.97 37.0503 35.54 35.6703 32.2C34.2103 28.66 29.7803 26.63 28.1103 25.86L27.9503 25.79C26.7903 25.26 25.7003 24.75 25.7403 23.92C25.7803 23.28 26.4303 22.8 28.0003 22.28C31.2503 21.2 36.7103 20.66 36.9403 20.64C37.2203 20.62 37.4603 20.81 37.4903 21.09C37.5203 21.36 37.3103 21.61 37.0403 21.64C36.9803 21.64 31.4603 22.19 28.3203 23.23C26.9203 23.7 26.7503 23.98 26.7403 24.01C26.8503 24.19 27.9203 24.68 28.3703 24.89L28.5303 24.96C30.3003 25.77 34.9903 27.92 36.5903 31.83C38.1803 35.7 36.2403 38.54 36.1503 38.66C36.0503 38.8 35.9003 38.87 35.7403 38.87L35.7503 38.86Z" fill="#ffffff"/>
<path d="M12.8999 24.7799C13.165 24.7799 13.3799 24.565 13.3799 24.2999C13.3799 24.0349 13.165 23.8199 12.8999 23.8199C12.6348 23.8199 12.4199 24.0349 12.4199 24.2999C12.4199 24.565 12.6348 24.7799 12.8999 24.7799Z" fill="#ffffff"/>
<path d="M15.5103 27.8699C15.7754 27.8699 15.9903 27.655 15.9903 27.3899C15.9903 27.1248 15.7754 26.9099 15.5103 26.9099C15.2452 26.9099 15.0303 27.1248 15.0303 27.3899C15.0303 27.655 15.2452 27.8699 15.5103 27.8699Z" fill="#ffffff"/>
<path d="M34.0503 25.1399C34.3154 25.1399 34.5303 24.925 34.5303 24.6599C34.5303 24.3948 34.3154 24.1799 34.0503 24.1799C33.7852 24.1799 33.5703 24.3948 33.5703 24.6599C33.5703 24.925 33.7852 25.1399 34.0503 25.1399Z" fill="#ffffff"/>
<path d="M37.8501 25.1399C38.1152 25.1399 38.3301 24.925 38.3301 24.6599C38.3301 24.3948 38.1152 24.1799 37.8501 24.1799C37.585 24.1799 37.3701 24.3948 37.3701 24.6599C37.3701 24.925 37.585 25.1399 37.8501 25.1399Z" fill="#ffffff"/>
<path d="M38.3306 31.56C38.5957 31.56 38.8106 31.3451 38.8106 31.08C38.8106 30.8149 38.5957 30.6 38.3306 30.6C38.0655 30.6 37.8506 30.8149 37.8506 31.08C37.8506 31.3451 38.0655 31.56 38.3306 31.56Z" fill="#ffffff"/>
<path d="M16.7007 33.0999C16.9658 33.0999 17.1807 32.885 17.1807 32.6199C17.1807 32.3548 16.9658 32.1399 16.7007 32.1399C16.4356 32.1399 16.2207 32.3548 16.2207 32.6199C16.2207 32.885 16.4356 33.0999 16.7007 33.0999Z" fill="#ffffff"/>
<path d="M12.1802 31.91C12.4453 31.91 12.6602 31.6951 12.6602 31.43C12.6602 31.1649 12.4453 30.95 12.1802 30.95C11.9151 30.95 11.7002 31.1649 11.7002 31.43C11.7002 31.6951 11.9151 31.91 12.1802 31.91Z" fill="#ffffff"/>
<path d="M22.4102 25.6999C22.2402 25.6999 22.0802 25.6199 21.9902 25.4699C21.0202 23.9399 21.7802 22.6999 22.3102 22.2499C22.5202 22.0699 22.8402 22.0999 23.0102 22.3199C23.1802 22.5299 23.1602 22.8399 22.9502 23.0199C22.8602 23.0999 22.1102 23.7999 22.8302 24.9299C22.9802 25.1599 22.9102 25.4699 22.6802 25.6199C22.6002 25.6699 22.5002 25.6999 22.4102 25.6999V25.6999Z" fill="#ffffff"/>
<path d="M25.5602 29.74C25.4202 29.74 25.2802 29.68 25.1802 29.56L23.4502 27.53C23.2702 27.32 23.3002 27 23.5102 26.82C23.7202 26.64 24.0302 26.67 24.2102 26.88L25.9402 28.91C26.1202 29.12 26.0902 29.44 25.8802 29.62C25.7902 29.7 25.6702 29.74 25.5602 29.74Z" fill="#ffffff"/>
<path d="M24.7008 38.8699C24.5508 38.8699 24.3908 38.7999 24.3008 38.6699C24.1408 38.4499 24.1908 38.1299 24.4108 37.9699C24.4108 37.9699 25.3008 37.3099 26.1708 36.0999C26.3308 35.8799 26.6408 35.8299 26.8708 35.9899C27.0908 36.1499 27.1508 36.4599 26.9808 36.6899C26.0108 38.0299 25.0408 38.7499 25.0008 38.7799C24.9108 38.8399 24.8108 38.8799 24.7108 38.8799L24.7008 38.8699Z" fill="#ffffff"/>
<path d="M9.33008 21.6399C9.05008 21.6399 8.83008 21.4199 8.83008 21.1399V12.2099C8.83008 11.2199 9.13008 10.4499 9.72008 9.91994C10.6701 9.06994 12.0201 9.20994 12.0801 9.21994C18.6501 9.21994 21.4401 12.8099 21.5601 12.9599C21.7301 13.1799 21.6801 13.4899 21.4601 13.6599C21.2401 13.8299 20.9301 13.7799 20.7601 13.5699C20.7301 13.5399 18.1201 10.2199 12.0101 10.2199C11.9501 10.2199 10.9901 10.1199 10.3701 10.6799C10.0001 11.0099 9.82008 11.5299 9.82008 12.2199V21.1499C9.82008 21.4299 9.60008 21.6499 9.32008 21.6499L9.33008 21.6399Z" fill="#ffffff"/>
<path d="M27.9199 34.8C27.8499 34.8 27.7799 34.79 27.7199 34.76C27.4699 34.65 27.3499 34.35 27.4699 34.1C28.2099 32.43 26.7099 31.28 26.6499 31.23C26.4299 31.06 26.3799 30.75 26.5499 30.53C26.7199 30.31 27.0299 30.26 27.2499 30.43C28.0199 31 29.2399 32.58 28.3899 34.5C28.3099 34.69 28.1199 34.8 27.9299 34.8H27.9199Z" fill="#ffffff"/>
</svg>
