<svg width="49" height="49" viewBox="0 0 49 49" fill="none" xmlns="http://www.w3.org/2000/svg">
<path d="M33.8202 15.72C33.6902 15.72 33.5602 15.67 33.4702 15.57L27.2602 9.35997L23.3502 13.28C23.1502 13.48 22.8402 13.48 22.6402 13.28C22.4402 13.08 22.4402 12.77 22.6402 12.57L26.9102 8.29997C27.1002 8.10997 27.4302 8.10997 27.6202 8.29997L34.1902 14.87C34.3902 15.07 34.3902 15.38 34.1902 15.58C34.0902 15.68 33.9602 15.73 33.8402 15.73L33.8202 15.72Z" fill="#ffffff"/>
<path d="M32.4601 18.01C32.3301 18.01 32.2001 17.96 32.1101 17.86L27.5401 13.29L24.6901 16.14C24.4901 16.34 24.1801 16.34 23.9801 16.14C23.7801 15.94 23.7801 15.63 23.9801 15.43L27.1801 12.23C27.3801 12.03 27.6901 12.03 27.8901 12.23L32.8101 17.15C33.0101 17.35 33.0101 17.66 32.8101 17.86C32.7101 17.96 32.5801 18.01 32.4601 18.01V18.01Z" fill="#ffffff"/>
<path d="M32.0908 13.99C31.8108 13.99 31.5908 13.77 31.5908 13.49V10.95C31.5908 10.67 31.8108 10.45 32.0908 10.45C32.3708 10.45 32.5908 10.67 32.5908 10.95V13.49C32.5908 13.77 32.3708 13.99 32.0908 13.99Z" fill="#ffffff"/>
<path d="M36.66 11.18H35.46C35.18 11.18 34.96 10.96 34.96 10.68C34.96 10.4 35.18 10.18 35.46 10.18H36.16V9.47998H31.71V10.18H33.82C34.1 10.18 34.32 10.4 34.32 10.68C34.32 10.96 34.1 11.18 33.82 11.18H31.21C30.93 11.18 30.71 10.96 30.71 10.68V8.97998C30.71 8.69998 30.93 8.47998 31.21 8.47998H36.66C36.94 8.47998 37.16 8.69998 37.16 8.97998V10.68C37.16 10.96 36.94 11.18 36.66 11.18Z" fill="#ffffff"/>
<path d="M40.0504 21.9499C39.9204 21.9499 39.7903 21.8999 39.7003 21.7999L35.7603 17.8599C35.6703 17.7699 35.6104 17.6399 35.6104 17.5099V10.6799C35.6104 10.3999 35.8304 10.1799 36.1104 10.1799C36.3904 10.1799 36.6104 10.3999 36.6104 10.6799V17.2999L40.4003 21.0899C40.6003 21.2899 40.6003 21.5999 40.4003 21.7999C40.3003 21.8999 40.1704 21.9499 40.0504 21.9499V21.9499Z" fill="#ffffff"/>
<path d="M36.7704 33.77H25.9404C25.6604 33.77 25.4404 33.55 25.4404 33.27C25.4404 32.99 25.6604 32.77 25.9404 32.77H36.2704V21.45C36.2704 21.17 36.4904 20.95 36.7704 20.95C37.0504 20.95 37.2704 21.17 37.2704 21.45V33.27C37.2704 33.55 37.0504 33.77 36.7704 33.77V33.77Z" fill="#ffffff"/>
<path d="M27.0901 28.8499H22.6602C22.3802 28.8499 22.1602 28.6299 22.1602 28.3499V19.8099C22.1602 19.5299 22.3802 19.3099 22.6602 19.3099H27.0901C27.3701 19.3099 27.5901 19.5299 27.5901 19.8099V28.3499C27.5901 28.6299 27.3701 28.8499 27.0901 28.8499ZM23.1602 27.8499H26.5901V20.3099H23.1602V27.8499Z" fill="#ffffff"/>
<path d="M31.5208 28.8499H27.0908C26.8108 28.8499 26.5908 28.6299 26.5908 28.3499V19.8099C26.5908 19.5299 26.8108 19.3099 27.0908 19.3099H31.5208C31.8008 19.3099 32.0208 19.5299 32.0208 19.8099V28.3499C32.0208 28.6299 31.8008 28.8499 31.5208 28.8499ZM27.5908 27.8499H31.0208V20.3099H27.5908V27.8499Z" fill="#ffffff"/>
<path d="M16.7201 19.64C16.6101 19.64 16.5101 19.61 16.4201 19.54C14.6401 18.19 13.6201 16.14 13.6201 13.91C13.6201 10.01 16.7901 6.83997 20.6901 6.83997C22.9301 6.83997 24.9901 7.86996 26.3401 9.66996C26.5101 9.88996 26.4601 10.2 26.2401 10.37C26.0201 10.54 25.7101 10.49 25.5401 10.27C24.3801 8.72996 22.6101 7.83997 20.6901 7.83997C17.3401 7.83997 14.6201 10.56 14.6201 13.91C14.6201 15.82 15.5001 17.59 17.0201 18.75C17.2401 18.92 17.2801 19.23 17.1201 19.45C17.0201 19.58 16.8701 19.65 16.7201 19.65V19.64Z" fill="#ffffff"/>
<path d="M16.6804 36.5799C12.2804 36.5799 8.69043 32.9999 8.69043 28.5899C8.69043 24.8099 11.3704 21.5199 15.0704 20.7599C15.3404 20.7099 15.6004 20.8799 15.6604 21.1499C15.7204 21.4199 15.5404 21.6799 15.2704 21.7399C12.0404 22.3999 9.69043 25.2799 9.69043 28.5899C9.69043 32.4399 12.8204 35.5799 16.6804 35.5799C18.8204 35.5799 20.8104 34.6199 22.1404 32.9499C22.3104 32.7399 22.6304 32.6999 22.8404 32.8699C23.0604 33.0399 23.0904 33.3599 22.9204 33.5699C21.3904 35.4799 19.1204 36.5699 16.6804 36.5699V36.5799Z" fill="#ffffff"/>
<path d="M22.5304 42.3099H17.4004C17.1204 42.3099 16.9004 42.0899 16.9004 41.8099V35.8999C16.9004 35.6199 17.1204 35.3999 17.4004 35.3999C17.6804 35.3999 17.9004 35.6199 17.9004 35.8999V41.3099H22.0304V35.5699C22.0304 35.2899 22.2504 35.0699 22.5304 35.0699C22.8104 35.0699 23.0304 35.2899 23.0304 35.5699V41.8099C23.0304 42.0899 22.8104 42.3099 22.5304 42.3099Z" fill="#ffffff"/>
<path d="M12.0801 23.19C11.9601 23.19 11.8301 23.15 11.7401 23.06C10.8401 22.22 10.3301 21.04 10.3301 19.82C10.3301 17.53 12.0401 15.63 14.3201 15.4C14.6001 15.38 14.8401 15.57 14.8701 15.85C14.9001 16.12 14.7001 16.37 14.4201 16.4C12.6601 16.58 11.3301 18.05 11.3301 19.82C11.3301 20.78 11.7201 21.68 12.4201 22.33C12.6201 22.52 12.6301 22.83 12.4401 23.04C12.3401 23.15 12.2101 23.2 12.0701 23.2L12.0801 23.19Z" fill="#ffffff"/>
</svg>
