<?xml version="1.0" encoding="utf-8"?>
<!-- Generator: Adobe Illustrator 26.4.1, SVG Export Plug-In . SVG Version: 6.00 Build 0)  -->
<svg version="1.1" id="Layer_1" xmlns="http://www.w3.org/2000/svg" xmlns:xlink="http://www.w3.org/1999/xlink" x="0px" y="0px"
	 viewBox="0 0 119.7 123.3" style="enable-background:new 0 0 119.7 123.3;" xml:space="preserve">
<style type="text/css">
	.st0{fill:none;}
	.st1{fill:#848484;}
	.st2{fill:#FFFFFF;}
</style>
<g>
	<path class="st0" d="M98,63.9L98,63.9c0,0.1,0,0.1,0.1,0.2L98,63.9C98,63.9,98,63.9,98,63.9z"/>
	<path class="st0" d="M98.5,63.5v1.3c0.2,0.3,0.4,0.6,0.6,1l1.5,2.8l0-7.1C100.1,62.3,99.4,63,98.5,63.5z"/>
	<path class="st0" d="M35,60.3L35,60.3c0.8,0.3,1.5,0.7,2.1,1.2l0-3.1C36.6,59.2,35.9,59.8,35,60.3z"/>
	<g>
		<rect x="0.1" y="46.6" class="st1" width="0.5" height="29.7"/>
		<rect x="2.8" y="38.4" class="st1" width="0.5" height="46"/>
		<rect x="5.4" y="32.8" class="st1" width="0.5" height="57.3"/>
		<rect x="8.1" y="28.3" class="st1" width="0.5" height="66.3"/>
		<rect x="10.7" y="24.5" class="st1" width="0.5" height="73.9"/>
		<rect x="13.3" y="21.2" class="st1" width="0.5" height="80.3"/>
		<polygon class="st1" points="16,104.4 16.5,104.4 16.5,76.8 16.5,76.8 16.5,45.5 16.5,45.5 16.5,18.4 16,18.4 		"/>
		<rect x="18.6" y="76.8" class="st1" width="0.5" height="30.1"/>
		<rect x="18.6" y="15.9" class="st1" width="0.5" height="29.6"/>
		<rect x="21.3" y="13.6" class="st1" width="0.5" height="31.8"/>
		<rect x="21.3" y="76.8" class="st1" width="0.5" height="32.3"/>
		<rect x="23.9" y="11.6" class="st1" width="0.5" height="33.8"/>
		<rect x="23.9" y="76.8" class="st1" width="0.5" height="34.3"/>
		<rect x="26.6" y="9.8" class="st1" width="0.5" height="35.6"/>
		<rect x="26.6" y="76.8" class="st1" width="0.5" height="36.1"/>
		<path class="st1" d="M29.2,45.5c0.2,0,0.3,0,0.5,0l0-37.3h-0.5L29.2,45.5z"/>
		<path class="st1" d="M29.2,114.6h0.5l0-37.8c-0.2,0-0.3,0-0.5,0L29.2,114.6z"/>
		<path class="st1" d="M31.9,45.9c0.2,0,0.3,0.1,0.5,0.1l0-39.2h-0.5L31.9,45.9z"/>
		<path class="st1" d="M31.9,116h0.5l0-39.6c-0.2,0-0.3,0.1-0.5,0.1L31.9,116z"/>
		<path class="st1" d="M34.5,117.3H35l0-41.8c-0.2,0.1-0.3,0.2-0.5,0.2L34.5,117.3z"/>
		<path class="st1" d="M34.5,46.8c0.2,0.1,0.3,0.2,0.5,0.3l0-41.5h-0.5L34.5,46.8z"/>
		<path class="st1" d="M37.2,118.4h0.5l0-44.7c-0.2,0.2-0.3,0.3-0.5,0.5L37.2,118.4z"/>
		<path class="st1" d="M37.2,61.5c0.2,0.1,0.3,0.3,0.5,0.4l0-4.3c-0.2,0.3-0.3,0.5-0.5,0.8L37.2,61.5z"/>
		<path class="st1" d="M37.2,48.9c0.2,0.2,0.3,0.5,0.5,0.7l0-45.2h-0.5L37.2,48.9z"/>
		<path class="st1" d="M39.8,66c0.1,0.5,0.2,1,0.2,1.5c0,0.6-0.1,1.2-0.2,1.7l0,50.1h0.5l0-115.9h-0.5L39.8,66z"/>
		<rect x="42.5" y="2.6" class="st1" width="0.5" height="117.5"/>
		<rect x="45.1" y="1.9" class="st1" width="0.5" height="118.9"/>
		<rect x="47.8" y="1.4" class="st1" width="0.5" height="120.1"/>
		<rect x="50.4" y="0.9" class="st1" width="0.5" height="121"/>
		<rect x="53" y="0.6" class="st1" width="0.5" height="121.6"/>
		<rect x="55.7" y="0.4" class="st1" width="0.5" height="122.1"/>
		<polygon class="st1" points="58.3,122.5 58.8,122.5 58.8,78.2 58.5,78.2 58.5,44.1 58.8,44.1 58.8,0.3 58.3,0.3 		"/>
		<polygon class="st1" points="61,44.1 61,44.1 61,37.9 		"/>
		<polygon class="st1" points="61.5,0.3 61.5,0.3 61.5,39.6 		"/>
		<rect x="119.2" y="46.6" class="st1" width="0.5" height="29.7"/>
		<rect x="116.6" y="38.4" class="st1" width="0.5" height="46"/>
		<rect x="113.9" y="32.8" class="st1" width="0.5" height="57.3"/>
		<rect x="111.3" y="28.3" class="st1" width="0.5" height="66.3"/>
		<rect x="108.6" y="24.5" class="st1" width="0.5" height="73.9"/>
		<rect x="106" y="21.2" class="st1" width="0.5" height="80.3"/>
		<rect x="103.3" y="76.8" class="st1" width="0.5" height="27.6"/>
		<polygon class="st1" points="103.8,18.4 103.3,18.4 103.3,73.4 103.8,74.3 		"/>
		<path class="st1" d="M101.2,15.9h-0.5l0,33.2c0.2,0.2,0.3,0.4,0.5,0.7L101.2,15.9z"/>
		<rect x="100.7" y="76.8" class="st1" width="0.5" height="30.1"/>
		<path class="st1" d="M101.2,60.8c-0.2,0.3-0.3,0.5-0.5,0.8l0,7.1l0.5,0.9L101.2,60.8z"/>
		<path class="st1" d="M98.5,63.5c-0.2,0.1-0.3,0.2-0.5,0.3v0.2c0.1,0.1,0.3,0.4,0.5,0.8V63.5z"/>
		<rect x="98" y="76.8" class="st1" width="0.5" height="32.3"/>
		<path class="st1" d="M98.5,13.6H98l0,33.1c0.2,0.1,0.3,0.2,0.5,0.3L98.5,13.6z"/>
		<path class="st1" d="M95.9,11.6h-0.5l0,34.2c0.2,0,0.3,0.1,0.5,0.1L95.9,11.6z"/>
		<polygon class="st1" points="95.4,74.4 95.4,111.2 95.9,111.2 95.9,75.3 		"/>
		<path class="st1" d="M93.2,9.8h-0.5l0,35.7c0.2,0,0.3,0,0.5,0L93.2,9.8z"/>
		<polygon class="st1" points="92.7,69.3 92.7,113 93.2,113 93.2,70.3 		"/>
		<rect x="90.1" y="8.2" class="st1" width="0.5" height="37.2"/>
		<rect x="90.1" y="66.3" class="st1" width="0.5" height="48.3"/>
		<polygon class="st1" points="87.5,66.3 87.5,76.8 87.5,76.8 87.5,116 88,116 88,66.3 		"/>
		<rect x="87.5" y="6.8" class="st1" width="0.5" height="38.7"/>
		<rect x="84.8" y="76.8" class="st1" width="0.5" height="40.4"/>
		<rect x="84.8" y="5.5" class="st1" width="0.5" height="39.9"/>
		<rect x="82.2" y="4.4" class="st1" width="0.5" height="41"/>
		<rect x="82.2" y="76.8" class="st1" width="0.5" height="41.5"/>
		<polygon class="st1" points="79.8,76.8 79.8,45.5 80,45.5 80,3.5 79.5,3.5 79.5,119.3 80,119.3 80,76.8 		"/>
		<rect x="76.9" y="2.6" class="st1" width="0.5" height="117.5"/>
		<rect x="74.2" y="1.9" class="st1" width="0.5" height="118.9"/>
		<rect x="71.6" y="1.4" class="st1" width="0.5" height="120.1"/>
		<rect x="68.9" y="0.9" class="st1" width="0.5" height="121"/>
		<rect x="66.3" y="0.6" class="st1" width="0.5" height="121.6"/>
		<rect x="63.6" y="0.4" class="st1" width="0.5" height="122.1"/>
		<polygon class="st1" points="61.5,122.5 61.5,122.5 61.5,39.6 		"/>
		<polygon class="st1" points="61,0.3 61,37.9 61,0.3 		"/>
		<polygon class="st1" points="61,0.3 61,44.1 61.4,44.1 61.4,78.2 61,78.2 61,78.2 61,122.5 61,122.5 61.5,122.5 61.5,0.3 		"/>
	</g>
	<g>
		<g>
			<path class="st2" d="M37.7,61.9c-0.2-0.1-0.3-0.3-0.5-0.4c-0.6-0.4-1.3-0.8-2.1-1.1v-0.1c0.9-0.5,1.6-1.2,2.1-1.9
				c0.2-0.2,0.3-0.5,0.5-0.8c0.7-1.2,1-2.6,1-4c0-1.5-0.4-2.9-1-4c-0.2-0.3-0.3-0.5-0.5-0.7c-0.6-0.7-1.3-1.4-2.1-1.9
				c-0.2-0.1-0.3-0.2-0.5-0.3c-0.7-0.3-1.4-0.6-2.1-0.8c-0.2,0-0.3-0.1-0.5-0.1c-0.7-0.2-1.4-0.3-2.1-0.3c-0.2,0-0.3,0-0.5,0
				c-0.4,0-0.8,0-1.2,0H16.5h0v31.4h0h10.1h0.5H28c0.4,0,0.8,0,1.2,0c0.2,0,0.3,0,0.5,0c0.7-0.1,1.5-0.2,2.1-0.3
				c0.2,0,0.3-0.1,0.5-0.1c0.8-0.2,1.5-0.4,2.1-0.7c0.2-0.1,0.3-0.2,0.5-0.2c0.8-0.4,1.5-0.8,2.1-1.4c0.2-0.2,0.3-0.3,0.5-0.5
				c1.1-1.1,1.9-2.6,2.1-4.4c0.1-0.6,0.2-1.1,0.2-1.7c0-0.5-0.1-1-0.2-1.5C39.6,64.5,38.9,63,37.7,61.9z M31.9,68.3
				c-0.3,0.9-1.1,1.6-2.1,1.9c-0.2,0-0.3,0.1-0.5,0.1c-0.2,0-0.3,0-0.5,0h-4.6v-6.5h4.7c0.1,0,0.3,0,0.4,0c0.2,0,0.3,0,0.5,0.1
				c1.1,0.2,1.8,0.9,2.1,1.8c0.2,0.4,0.2,0.8,0.2,1.3C32.1,67.4,32,67.9,31.9,68.3z M29.2,52.2c0.2,0.1,0.3,0.1,0.5,0.2
				c0.8,0.5,1.2,1.3,1.2,2.3c0,1-0.4,1.9-1.2,2.4c-0.1,0.1-0.3,0.2-0.5,0.3c-0.3,0.1-0.7,0.2-1.1,0.2h-4V52H28
				C28.5,52,28.9,52.1,29.2,52.2z"/>
		</g>
		<g>
			<path class="st2" d="M99.2,65.9c-0.2-0.4-0.4-0.8-0.6-1c-0.2-0.4-0.4-0.6-0.5-0.8C98,64,98,64,98,64v-0.1c0,0,0,0,0.1,0
				c0.2-0.1,0.3-0.2,0.5-0.3c0.8-0.5,1.6-1.2,2.1-2c0.2-0.2,0.3-0.5,0.5-0.8c1-1.6,1.5-3.6,1.5-5.4c0-2.2-0.5-4.1-1.5-5.6
				c-0.2-0.2-0.3-0.5-0.5-0.7c-0.6-0.8-1.3-1.4-2.1-2c-0.2-0.1-0.3-0.2-0.5-0.3c-0.4-0.2-0.8-0.4-1.2-0.5c-0.3-0.1-0.6-0.2-1-0.3
				c-0.2,0-0.3-0.1-0.5-0.1c-0.6-0.1-1.3-0.2-2.1-0.3c-0.2,0-0.3,0-0.5,0c-0.6,0-1.2,0-2,0H79.8v31.4h7.6h0.1V66.3h3.6l5.6,10.6h8.6
				L99.2,65.9z M90.9,59.7h-0.3h-3.1V52h2.6c0.2,0,0.3,0,0.5,0c0.9,0,1.6,0.1,2.1,0.3c0.2,0.1,0.3,0.1,0.5,0.2
				c1.3,0.6,1.6,1.7,1.6,3.2c0,1.5-0.6,2.6-1.6,3.3c-0.2,0.1-0.3,0.2-0.5,0.2C92.2,59.5,91.6,59.7,90.9,59.7z"/>
		</g>
		<g>
			<rect x="58.5" y="44.1" class="st2" width="2.9" height="34"/>
		</g>
	</g>
</g>
</svg>
