<svg width="24" height="24" viewBox="0 0 24 24" fill="none" xmlns="http://www.w3.org/2000/svg">
<path d="M18.7266 5.79982C18.2449 5.25261 17.6555 4.81056 16.9954 4.50124C16.3352 4.19192 15.6184 4.02197 14.8897 4.00201C13.4241 3.96201 11.9875 4.52169 10.9522 5.55357C10.1134 6.38576 9 7.74826 9 9.95513V12.1208L7.64563 13.4754C7.54781 13.5736 7.36094 13.6417 7.1075 13.5398C6.76352 13.4024 6.39109 13.3514 6.02282 13.3912C5.65455 13.431 5.30165 13.5605 4.99501 13.7683C4.68837 13.9761 4.43734 14.2559 4.26387 14.5832C4.09041 14.9105 3.99981 15.2753 4 15.6458C4 16.3186 4.48688 17.8039 6.11594 17.8854C6.17844 19.1158 7.18938 20.0001 8.35594 20.0001C9.97625 20.0001 11.0516 18.3683 10.4619 16.8936C10.4306 16.8145 10.3406 16.5411 10.5263 16.3558L11.8794 15.0001H14.0706C15.2853 15.0001 16.3519 14.6817 17.3313 14.0264C18.7825 13.0576 19.7375 11.5364 19.9563 9.85451C20.1481 8.35044 19.7119 6.90982 18.7266 5.79982V5.79982ZM9.82031 15.6479C9.41094 16.0567 9.30094 16.6748 9.53406 17.2648C10.2675 19.0992 7.21 19.7298 7.11531 17.8354L7.07 16.932L6.16656 16.8867C4.58469 16.8073 4.63531 14.3773 6.26688 14.3773C6.42748 14.377 6.58663 14.4077 6.73563 14.4676C7.28938 14.6904 7.92313 14.6145 8.35469 14.1826L9.16719 13.3701C9.29304 13.7047 9.48901 14.0086 9.74196 14.2612C9.99491 14.5138 10.299 14.7094 10.6338 14.8348L9.82031 15.6479ZM18.9637 9.72794C18.7869 11.1029 17.9697 12.3986 16.7762 13.1967C15.9666 13.7376 15.0819 14.0001 14.0712 14.0001H11.5119C11.1126 14.0013 10.7292 13.844 10.4457 13.5628C10.1623 13.2816 10.002 12.8994 10 12.5001V9.95482C10 8.53951 10.5109 7.40076 11.6563 6.26263C12.058 5.86036 12.5355 5.54168 13.0612 5.32498C13.5868 5.10829 14.1502 4.99788 14.7188 5.00013C14.7648 5.00013 14.8117 5.00076 14.8594 5.00201C15.4519 5.01816 16.0347 5.15635 16.5713 5.40794C17.108 5.65952 17.587 6.0191 17.9784 6.46419C18.7694 7.35451 19.12 8.51388 18.9637 9.72794V9.72794Z" fill="black"/>
</svg>
