<svg width="24" height="24" viewBox="0 0 24 24" fill="none" xmlns="http://www.w3.org/2000/svg">
<path d="M21.75 19H21L12.6169 7.41223L14.5856 4.69066C14.6669 4.5791 14.6419 4.42285 14.5303 4.3416L14.1263 4.04785C14.0147 3.9666 13.8581 3.99129 13.7769 4.10316L12 6.55941L10.2231 4.10316C10.2038 4.07658 10.1795 4.05405 10.1515 4.03688C10.1235 4.01971 10.0924 4.00822 10.0599 4.00309C10.0275 3.99795 9.99431 3.99926 9.96237 4.00694C9.93043 4.01462 9.90032 4.02852 9.87375 4.04785L9.46969 4.3416C9.35812 4.42285 9.33312 4.5791 9.41437 4.69066L11.3831 7.41223L3 19H2.25C2.11187 19 2 19.1119 2 19.25V19.75C2 19.8882 2.11187 20 2.25 20H21.75C21.8881 20 22 19.8882 22 19.75V19.25C22 19.1119 21.8881 19 21.75 19ZM8.94344 19L12 14.7207L15.0566 19H8.94344ZM16.2859 19L12.4069 13.5697C12.2075 13.2907 11.7925 13.2907 11.5931 13.5697L7.71406 19H4.23406L12 8.26504L19.7659 19H16.2859Z" fill="black"/>
</svg>
