<svg width="24" height="24" viewBox="0 0 24 24" fill="none" xmlns="http://www.w3.org/2000/svg">
<path d="M15.2289 8H3.77143C3.08549 8 2.74205 8.82906 3.22705 9.31406L9.00018 15.0872V19H7.33361C6.8733 19 6.50018 19.3731 6.50018 19.8334C6.50018 19.9256 6.57486 20 6.66674 20H12.3333C12.4255 20 12.4999 19.9253 12.4999 19.8334C12.4999 19.3731 12.1267 19 11.6664 19H10.0002V15.0872L13.3658 11.7216L14.0739 11.0134L15.773 9.31437C16.258 8.82906 15.9146 8 15.2289 8V8ZM9.50018 14.1728L4.32736 9H14.673L9.50018 14.1728ZM16.5002 4C14.5455 4 12.9099 5.25719 12.2936 7H13.3658C13.9267 5.8225 15.1105 5 16.5002 5C18.4302 5 20.0002 6.57 20.0002 8.5C20.0002 10.43 18.4302 12 16.5002 12C15.9224 12 15.3852 11.8459 14.9046 11.5969L14.1696 12.3319C14.8511 12.7475 15.6436 13 16.5002 13C18.9855 13 21.0002 10.9853 21.0002 8.5C21.0002 6.01469 18.9855 4 16.5002 4ZM16.5002 10C16.4989 10 16.4977 9.99969 16.4961 9.99969C16.4899 10.0063 16.4867 10.0147 16.4802 10.0212L15.6577 10.8438C15.9221 10.9391 16.2033 11 16.5002 11C17.8789 11 19.0002 9.87844 19.0002 8.5C19.0002 7.12156 17.8789 6 16.5002 6C15.6861 6 14.9686 6.39625 14.5121 7H16.5002C17.3274 7 18.0002 7.67281 18.0002 8.5C18.0002 9.32719 17.3274 10 16.5002 10Z" fill="black"/>
</svg>
