<svg width="24" height="24" viewBox="0 0 24 24" fill="none" xmlns="http://www.w3.org/2000/svg">
<path d="M12 14C14.4853 14 16.5 11.9853 16.5 9.5C16.5 8.45969 15.4556 6.31375 14 5C13.5822 5.37688 13.2047 5.77344 12.8706 6.17125C12.3231 5.43781 11.644 4.69406 10.875 4C8.90092 5.78062 7.49998 8.10063 7.49998 9.5C7.49998 11.9853 9.51467 14 12 14ZM10.8781 5.38812C11.319 5.8375 11.7231 6.30594 12.0694 6.76969L12.8247 7.78125L13.6365 6.81406C13.7478 6.68156 13.8625 6.55125 13.98 6.42438C14.9362 7.57906 15.5 8.97531 15.5 9.5C15.5 11.43 13.93 13 12 13C10.07 13 8.49998 11.43 8.49998 9.5C8.49998 8.63281 9.37654 6.94906 10.8781 5.38812V5.38812ZM13.2472 16.5L19.8503 13.9369C19.8804 13.9237 19.9076 13.9048 19.9303 13.8812C19.9531 13.8575 19.9709 13.8296 19.9829 13.799C19.9948 13.7685 20.0007 13.7359 20 13.703C19.9993 13.6702 19.9922 13.6379 19.979 13.6078L19.779 13.15C19.7525 13.0892 19.7028 13.0415 19.6411 13.0173C19.5793 12.9931 19.5105 12.9944 19.4497 13.0209L12 15.9544L4.55029 13.0209C4.4895 12.9944 4.42065 12.9931 4.35888 13.0173C4.29712 13.0415 4.24749 13.0892 4.22092 13.15L4.02092 13.6078C3.99438 13.6685 3.99304 13.7373 4.01718 13.799C4.04133 13.8607 4.08898 13.9103 4.14967 13.9369L10.7528 16.5L4.14998 19.0631C4.11992 19.0763 4.09274 19.0952 4.06999 19.1189C4.04725 19.1425 4.02939 19.1704 4.01744 19.201C4.00548 19.2315 3.99966 19.2642 4.00031 19.297C4.00096 19.3298 4.00807 19.3621 4.02123 19.3922L4.22123 19.85C4.27654 19.9766 4.42404 20.0344 4.55061 19.9788L12 17.0456L19.4497 19.9791C19.5762 20.0344 19.7237 19.9769 19.779 19.8503L19.979 19.3925C20.0056 19.3318 20.0069 19.263 19.9828 19.2013C19.9586 19.1396 19.911 19.09 19.8503 19.0634L13.2472 16.5Z" fill="black"/>
</svg>
