<svg width="24" height="24" viewBox="0 0 24 24" fill="none" xmlns="http://www.w3.org/2000/svg">
<path d="M21.8777 16.1704L19.5614 13.497H20.4998C20.6942 13.497 20.872 13.3841 20.953 13.2073C21.0348 13.0304 21.0077 12.8223 20.8817 12.6738L18.6161 9.99539H19.4998C19.697 9.99539 19.8758 9.87914 19.9567 9.69883C20.0367 9.5182 20.0036 9.30758 19.8717 9.16039L15.3717 4.1582C15.1805 3.94727 14.8189 3.94727 14.6277 4.1582L11.9998 7.07945L9.37204 4.1582C9.18079 3.94727 8.81922 3.94727 8.62797 4.1582L4.12797 9.16039C4.06344 9.23241 4.02108 9.32154 4.006 9.41706C3.99092 9.51259 4.00376 9.61043 4.04297 9.69883C4.12391 9.87914 4.30266 9.99539 4.49985 9.99539H5.3836L3.11797 12.6738C2.99204 12.8223 2.96454 13.0304 3.04672 13.2073C3.12766 13.3841 3.30547 13.497 3.49985 13.497H4.43829L2.12204 16.1704C1.99422 16.3185 1.96391 16.5279 2.04485 16.7057C2.12672 16.8841 2.30454 16.9982 2.49985 16.9982H7.49985V17.7626L6.7436 19.2757C6.57735 19.6082 6.81922 19.9998 7.19079 19.9998H10.8089C11.1805 19.9998 11.4223 19.6085 11.2561 19.2757L10.4998 17.7626V16.9982H13.4998V17.7626L12.7436 19.2757C12.5773 19.6082 12.8192 19.9998 13.1908 19.9998H16.8089C17.1805 19.9998 17.4223 19.6085 17.2561 19.2757L16.4998 17.7626V16.9982H21.4998C21.6952 16.9982 21.873 16.8838 21.9548 16.7057C22.0361 16.5279 22.0058 16.3185 21.8777 16.1704V16.1704ZM7.99985 18.9991L8.49985 17.9988V16.9982H9.49985V17.9988L9.99985 18.9991H7.99985ZM3.58672 15.9998L6.58672 12.4998H4.57797L7.53985 8.99977H5.62297L8.99985 5.24727L12.3767 8.99977H10.4598L13.4217 12.4998H11.413L14.413 15.9998H3.58672ZM13.9998 18.9991L14.4998 17.9988V16.9982H15.4998V17.9988L15.9998 18.9991H13.9998ZM15.7298 15.9998L13.5614 13.4966H14.4998C14.6942 13.4966 14.872 13.3838 14.953 13.207C15.0348 13.0301 15.0077 12.822 14.8817 12.6735L12.6161 9.99508H13.4998C13.697 9.99508 13.8758 9.87883 13.9567 9.69852C14.0367 9.51789 14.0036 9.30727 13.8717 9.16008L12.6752 7.83008L14.9998 5.24727L18.3767 8.99977H16.4598L19.4217 12.4998H17.413L20.413 15.9998H15.7298Z" fill="black"/>
</svg>
