<svg width="24" height="24" viewBox="0 0 24 24" fill="none" xmlns="http://www.w3.org/2000/svg">
<path d="M4.01296 18.6125C4.07546 18.8813 4.34109 19.0469 4.61296 18.9844L19.613 15.4844C19.8817 15.4219 20.0505 15.1531 19.988 14.8844C19.9317 14.6563 19.7286 14.5 19.5005 14.5C19.463 14.5 19.4255 14.5031 19.388 14.5125L12.5005 16.1188L12.5005 14L18.0005 14C18.5536 14 19.0005 13.5531 19.0005 13L19.0005 6C19.0005 5.44688 18.5536 5 18.0005 5L6.00046 5C5.44734 5 5.00046 5.44688 5.00046 6L5.00046 13C5.00046 13.5531 5.44734 14 6.00046 14L11.5005 14L11.5005 16.3531L4.38796 18.0125C4.11921 18.075 3.95046 18.3438 4.01296 18.6125ZM18.0005 13L15.0005 13L15.0005 10L18.0005 10L18.0005 13ZM9.00046 13L6.00046 13L6.00046 10L9.00046 10L9.00046 13ZM6.00046 9L6.00046 6L18.0005 6L18.0005 9L6.00046 9ZM10.0005 13L10.0005 10L14.0005 10L14.0005 13L10.0005 13Z" fill="black"/>
</svg>
