<svg width="24" height="24" viewBox="0 0 24 24" fill="none" xmlns="http://www.w3.org/2000/svg">
<path d="M6.5 8.5C7.7425 8.5 8.75 7.4925 8.75 6.25C8.75 5.00719 7.7425 4 6.5 4C5.2575 4 4.25 5.00719 4.25 6.25C4.25 7.4925 5.2575 8.5 6.5 8.5ZM6.5 5C7.18937 5 7.75 5.56063 7.75 6.25C7.75 6.93937 7.18937 7.5 6.5 7.5C5.81063 7.5 5.25 6.93937 5.25 6.25C5.25 5.56063 5.81063 5 6.5 5ZM14.4869 10.7587C14.4947 10.8928 14.6003 11 14.7347 11H15.2341C15.3759 11 15.4947 10.8813 15.4875 10.7394C15.4241 9.47781 14.9016 8.31937 14.0625 7.60125C13.4447 7.0725 13.0569 6.20281 13.0013 5.24125C12.9934 5.10719 12.8878 5.00031 12.7534 5.00031H12.2541C12.1122 5.00031 11.9934 5.11906 12.0006 5.26094C12.0641 6.5225 12.5866 7.68094 13.4256 8.39906C14.0431 8.9275 14.4309 9.79719 14.4869 10.7587V10.7587ZM17.4869 10.7587C17.4947 10.8928 17.6003 11 17.7347 11H18.2341C18.3759 11 18.4947 10.8813 18.4875 10.7394C18.4241 9.47781 17.9016 8.31937 17.0625 7.60125C16.4447 7.0725 16.0569 6.20281 16.0013 5.24125C15.9934 5.10719 15.8878 5.00031 15.7534 5.00031H15.2541C15.1122 5.00031 14.9934 5.11906 15.0006 5.26094C15.0641 6.5225 15.5866 7.68094 16.4256 8.39906C17.0431 8.9275 17.4309 9.79719 17.4869 10.7587V10.7587ZM7.25 18H7.75C7.88813 18 8 17.8881 8 17.75V14.25C8 14.1119 7.88813 14 7.75 14H7.25C7.11187 14 7 14.1119 7 14.25V17.75C7 17.8881 7.11187 18 7.25 18ZM10.25 18H10.75C10.8881 18 11 17.8881 11 17.75V14.25C11 14.1119 10.8881 14 10.75 14H10.25C10.1119 14 10 14.1119 10 14.25V17.75C10 17.8881 10.1119 18 10.25 18ZM13.25 18H13.75C13.8881 18 14 17.8881 14 17.75V14.25C14 14.1119 13.8881 14 13.75 14H13.25C13.1119 14 13 14.1119 13 14.25V17.75C13 17.8881 13.1119 18 13.25 18ZM16.25 18H16.75C16.8881 18 17 17.8881 17 17.75V14.25C17 14.1119 16.8881 14 16.75 14H16.25C16.1119 14 16 14.1119 16 14.25V17.75C16 17.8881 16.1119 18 16.25 18ZM19 12H12.5L9.03344 9.4C8.68726 9.14034 8.26618 8.99998 7.83344 9H6C4.89531 9 4 9.89531 4 11V18C4 19.1047 4.89531 20 6 20H18C19.1047 20 20 19.1047 20 18V13C20 12.4478 19.5522 12 19 12ZM5 11C5 10.4488 5.44875 10 6 10H7.83344C8.04844 10 8.26156 10.0709 8.43344 10.2L10.8334 12H5V11ZM19 18C19 18.5512 18.5512 19 18 19H6C5.44875 19 5 18.5512 5 18V13H19V18Z" fill="black"/>
</svg>
