<?xml version="1.0" encoding="utf-8"?>
<!-- Generator: Adobe Illustrator 26.4.1, SVG Export Plug-In . SVG Version: 6.00 Build 0)  -->
<svg version="1.1" id="Layer_1" xmlns="http://www.w3.org/2000/svg" xmlns:xlink="http://www.w3.org/1999/xlink" x="0px" y="0px"
	 viewBox="0 0 61.4 41.7" style="enable-background:new 0 0 61.4 41.7;" xml:space="preserve">
<style type="text/css">
	.st0{fill:#695F60;}
</style>
<g>
	<path class="st0" d="M28.1,1.5c-0.5-0.3-1.1-0.6-1.6-0.8c-0.5-0.2-1.3-0.3-2.2-0.3c-1.1,0-2.1,0.1-2.9,0.4s-1.6,0.6-2.3,1
		c-1,0.7-1.9,1.6-2.5,2.8c-0.6,1.2-1.2,2.8-1.7,4.7L6.3,41.1c-1.2,0-2.3,0.1-3.3,0.2S1,41.5,0,41.7l8.2-29.9C8.9,9.5,9.6,7.6,10.6,6
		c0.9-1.6,2.1-2.8,3.5-3.7c1.5-1,3.1-1.7,4.7-2c1.7-0.4,3.5-0.6,5.5-0.6c0.9,0,1.7,0.1,2.6,0.3c0.9,0.2,1.6,0.6,2,1.2L28.1,1.5z
		 M4.4,12.1l0.3-0.9h18.6l-0.3,0.9H4.4z M21.3,29.9c-0.2,0.8-0.3,1.3-0.2,1.7c0.1,0.3,0.4,0.5,0.7,0.5c0.4,0,0.8-0.2,1.3-0.6
		c0.4-0.4,0.9-1.4,1.5-2.8l0.8-2.1h0.8l-1.1,3.2c-0.4,1.2-0.9,2.1-1.6,2.7c-0.7,0.6-1.4,1.1-2.2,1.4c-0.8,0.3-1.5,0.4-2.2,0.4
		c-1.2,0-2.2-0.3-2.8-0.9c-0.6-0.6-0.9-1.4-1-2.4c0-1,0.2-2.2,0.6-3.6l4.7-16.1c1.2,0,2.3-0.1,3.4-0.2c1.1-0.1,2-0.3,2.9-0.5
		L21.3,29.9z M22,3.9c0.1-1.2,0.5-2.2,1.4-2.8c0.9-0.6,1.9-0.9,3.1-0.9c1.1,0,1.9,0.3,2.4,0.8c0.5,0.5,0.8,1.2,0.7,1.9
		c-0.1,1.1-0.5,2-1.4,2.8s-1.9,1.1-3.1,1.1c-1,0-1.8-0.3-2.4-0.8C22.1,5.5,21.9,4.8,22,3.9z"/>
	<path class="st0" d="M34.9,33.6h-6.1l5.2-18.7c0.1-0.4,0.2-0.8,0.3-1.1c0-0.3,0-0.6-0.1-0.8c-0.1-0.2-0.3-0.3-0.6-0.3
		c-0.5,0-1,0.2-1.4,0.7c-0.4,0.5-0.9,1.4-1.4,2.7L30,18.3h-0.8l1.2-3.3c0.6-1.6,1.3-2.8,2.3-3.5c0.9-0.7,2-1,3.3-1
		c1.4,0,2.4,0.3,2.9,0.9c0.5,0.6,0.8,1.4,0.8,2.3c0,0.9-0.1,1.9-0.3,2.8L34.9,33.6z M36.3,26.2c1.1-3.1,2.2-5.7,3.1-7.8
		s1.9-3.6,2.9-4.8c0.9-1.2,1.9-2,2.9-2.4s2-0.7,3.2-0.7c1.4,0,2.4,0.3,3,0.9c0.6,0.6,0.9,1.4,0.9,2.4c0,1-0.2,2.1-0.6,3.2l-4.2,12.8
		c-0.3,0.8-0.4,1.4-0.2,1.7c0.1,0.3,0.4,0.5,0.8,0.5s0.8-0.2,1.3-0.6c0.5-0.4,1-1.3,1.5-2.8l0.8-2.1h0.8l-1.1,3.2
		c-0.6,1.8-1.5,3-2.6,3.6s-2.2,0.9-3.2,0.9c-1.6,0-2.8-0.5-3.5-1.4c-0.4-0.6-0.6-1.3-0.5-2.2c0-0.9,0.2-2,0.7-3.3L46,15.6
		c0.2-0.5,0.3-0.9,0.3-1.3c0.1-0.4,0-0.8,0-1.1c-0.1-0.3-0.3-0.4-0.7-0.4c-0.7,0-1.5,0.5-2.4,1.6c-0.9,1.1-1.8,2.6-2.8,4.4
		c-1,1.8-1.9,3.9-2.8,6.3c-0.9,2.3-1.7,4.7-2.4,7.2L36.3,26.2z"/>
	<path class="st0" d="M54.2,31.6c0-1.2,0.4-2.1,1.2-2.9c0.8-0.8,1.8-1.2,3-1.2c0.9,0,1.6,0.2,2.2,0.7c0.5,0.5,0.8,1.1,0.8,1.9
		c0,1-0.4,2-1.3,2.8c-0.8,0.8-1.8,1.2-3,1.2c-0.9,0-1.6-0.2-2.1-0.7C54.5,33,54.2,32.4,54.2,31.6z"/>
</g>
</svg>
