<svg width="24" height="24" viewBox="0 0 24 24" fill="none" xmlns="http://www.w3.org/2000/svg">
<path d="M15.4 11H16.6C16.8 11 17 10.8 17 10.6V9.4C17 9.2 16.8 9 16.6 9H15.4C15.2 9 15 9.2 15 9.4V10.6C15 10.8 15.2 11 15.4 11ZM11.4 8H12.6C12.8 8 13 7.8 13 7.6V6.4C13 6.2 12.8 6 12.6 6H11.4C11.2 6 11 6.2 11 6.4V7.6C11 7.8 11.2 8 11.4 8V8ZM15.4 8H16.6C16.8 8 17 7.8 17 7.6V6.4C17 6.2 16.8 6 16.6 6H15.4C15.2 6 15 6.2 15 6.4V7.6C15 7.8 15.2 8 15.4 8V8ZM7.4 8H8.6C8.8 8 9 7.8 9 7.6V6.4C9 6.2 8.8 6 8.6 6H7.4C7.2 6 7 6.2 7 6.4V7.6C7 7.8 7.2 8 7.4 8V8ZM11.4 11H12.6C12.8 11 13 10.8 13 10.6V9.4C13 9.2 12.8 9 12.6 9H11.4C11.2 9 11 9.2 11 9.4V10.6C11 10.8 11.2 11 11.4 11ZM20.75 5C20.8881 5 21 4.88813 21 4.75V4.25C21 4.11187 20.8881 4 20.75 4H3.25C3.11187 4 3 4.11187 3 4.25V4.75C3 4.88813 3.11187 5 3.25 5H3.99937V19H3.25C3.11187 19 3 19.1119 3 19.25V19.75C3 19.8881 3.11187 20 3.25 20H20.75C20.8881 20 21 19.8881 21 19.75V19.25C21 19.1119 20.8881 19 20.75 19H20V5H20.75ZM13 19H11V16.5C11 16.2237 11.2237 16 11.5 16H12.5C12.7763 16 13 16.2237 13 16.5V19ZM19 19H14V16.5C14 15.6728 13.3272 15 12.5 15H11.5C10.6728 15 10 15.6728 10 16.5V19H4.99937V5H19V19ZM7.4 11H8.6C8.8 11 9 10.8 9 10.6V9.4C9 9.2 8.8 9 8.6 9H7.4C7.2 9 7 9.2 7 9.4V10.6C7 10.8 7.2 11 7.4 11ZM8.22219 15.9269L8.73 15.9975C8.86438 16.0163 8.98344 15.9275 9.01344 15.7987C9.32469 14.4603 10.5678 13.4775 12.0003 13.4775C13.4328 13.4775 14.6756 14.4603 14.9872 15.7987C15.0172 15.9275 15.1363 16.0163 15.2706 15.9975L15.7784 15.9269C15.9222 15.9069 16.0253 15.7731 15.9953 15.635C15.6006 13.8216 13.9288 12.4844 12 12.4844C10.0712 12.4844 8.39937 13.8216 8.00531 15.6347C7.97531 15.7731 8.07844 15.9069 8.22219 15.9269V15.9269Z" fill="black"/>
</svg>
