<?xml version="1.0" encoding="utf-8"?>
<!-- Generator: Adobe Illustrator 26.4.1, SVG Export Plug-In . SVG Version: 6.00 Build 0)  -->
<svg version="1.1" id="Layer_1" xmlns="http://www.w3.org/2000/svg" xmlns:xlink="http://www.w3.org/1999/xlink" x="0px" y="0px"
	 viewBox="0 0 263 128" style="enable-background:new 0 0 263 128;" xml:space="preserve">
<style type="text/css">
	.st0{fill:#707D6D;}
	.st1{opacity:0.3;}
	.st2{fill:#75968E;}
	.st3{fill:#8FA487;}
	.st4{opacity:0.2;fill:#C8E3D0;}
	.st5{fill:none;stroke:#1A1A1A;stroke-width:0.2;stroke-linecap:round;stroke-linejoin:round;stroke-miterlimit:10;}
	.st6{fill:#879384;}
	.st7{fill:#ACC6A4;}
	.st8{fill:#C8E3D0;}
	.st9{fill:#E3E1CE;}
	.st10{fill:#D3D0BF;}
	.st11{fill:none;stroke:#020203;stroke-width:0.2;stroke-linecap:round;stroke-linejoin:round;stroke-miterlimit:10;}
	.st12{fill:#CAB39B;}
	.st13{fill:#FBFBFA;stroke:#1A1A1A;stroke-width:0.2;stroke-linecap:round;stroke-linejoin:round;stroke-miterlimit:10;}
	.st14{fill:#BDBBAE;}
	.st15{fill:#BED0E7;}
	.st16{fill:#BEB5B1;}
	.st17{fill:#E2E2E1;}
	.st18{fill:#E2E2E1;stroke:#1A1A1A;stroke-width:0.2;stroke-linecap:round;stroke-linejoin:round;stroke-miterlimit:10;}
	.st19{fill:#EFEFEF;}
	.st20{fill:#C9E2E9;}
	.st21{fill:#F2F0DD;}
	.st22{fill:#1A1A1A;}
	.st23{fill:#816663;}
	.st24{fill:#E6D1B7;}
	.st25{opacity:0.4;}
	.st26{fill:#F3F2C5;}
	.st27{fill:#FBFBFA;}
</style>
<g>
	<path class="st0" d="M262.9,45.1c1.9,48-32.3,74.5-66,67c-33.8-7.5-57.8,0.7-71.7,8.1c-13.9,7.4-99.5-5.3-87.8-51.7
		S68.5-16.1,117,6.9s81,0.8,108.1-3.4S261.9,17.8,262.9,45.1z"/>
	<g>
		<g class="st1">
			<path class="st2" d="M100.3,73.4c-10.6,0-21.2,0-31.9,0c-2.3,0-4.5,0-6.7-0.5c-2.2-0.5-4.3-1.4-5.5-3c13.8-5.1,30.9-4.1,43.6,2.7
				"/>
		</g>
		<path class="st3" d="M69.1,59.4c0,0-9.4,4.1-9.4-4.8s3.9-2.4,3.9-2.4s-1.9,4.3-1.7,0.5c0.2-3.7,1.3-15.2,6.1-11.2s-13-4.1-6.7-8.8
			s6.7-9.6,12-4.1s1.2,6.3-1.7,0.8s0.7-14.7,7.6-3.9s1.1,14.9-2.1,14.9c-3.2,0-0.7-2.2,3.2-2.4c3.8-0.2,9.5,7.7,7.8,10.2
			c0,0,9.8-1.4,5.8,6.5c0,0,4.7,2.1,1.5,8.2c-3.2,6.1-8.3,4.5-9.3,2.6c-0.9-1.9,15.4,2.3,9.6,5.5H62.4c0,0-6.6-2.3-4.9-4.4
			c1.8-2.1,9.2-4.5,11-4C68.5,62.7,63.9,56.4,69.1,59.4z"/>
		<path class="st4" d="M64.7,43.7c-1.3,1.6,0.6,6.6,2.3,5.1c1.7-1.5,3.4-5.1,1.7-5.1C66.9,43.7,65.2,42.9,64.7,43.7z"/>
		<path class="st4" d="M78.1,57.3c-2.1,2.7,1,11,3.8,8.5c2.9-2.4,5.7-8.5,2.9-8.5C81.9,57.3,79.1,56,78.1,57.3z"/>
		<path class="st4" d="M81.2,41c1-1.9-1.9-1.3-3.3,1.1c-1.4,2.3-2.4,5.3-0.7,3.4C78.9,43.6,80.8,41.9,81.2,41z"/>
		<path class="st4" d="M67,56.6c0.4-0.9-1.1-2.1-1.7-1.2c-0.7,1-1,2.7-0.2,2.3C65.9,57.2,66.8,57,67,56.6z"/>
		<path class="st4" d="M77,34c0.4-0.9-1.1-2.1-1.7-1.2c-0.7,1-1,2.7-0.2,2.3C75.8,34.6,76.8,34.4,77,34z"/>
		<path class="st4" d="M68.5,30.4c1-1.2-1.3-2-2.7-0.6c-1.4,1.4-2.6,3.5-1,2.6C66.4,31.6,68.1,31,68.5,30.4z"/>
		<path class="st5" d="M68,59.4c0,0-9.4,4.1-9.4-4.8s3.9-2.4,3.9-2.4s-1.9,4.3-1.7,0.5c0.2-3.7,1.3-15.2,6.1-11.2s-13-4.1-6.7-8.8
			s6.7-9.6,12-4.1s1.2,6.3-1.7,0.8s0.7-14.7,7.6-3.9s1.1,14.9-2.1,14.9c-3.2,0-0.7-2.2,3.2-2.4c3.8-0.2,9.5,7.7,7.8,10.2
			c0,0,9.8-1.4,5.8,6.5c0,0,4.7,2.1,1.5,8.2c-3.2,6.1-8.3,4.5-9.3,2.6c-0.9-1.9,15.4,2.3,9.6,5.5H61.4c0,0-6.6-2.3-4.9-4.4
			s9.2-4.5,11-4C67.5,62.7,62.9,56.4,68,59.4z"/>
	</g>
	<path class="st6" d="M39,104.6c13.6,17.3,20.5,11.5,42.9,19.7s169.9,5,171-27.8c1.7-48.2-144.4-22.2-164.5-19.6
		C53.2,81.4,12.8,71.4,39,104.6z"/>
	<g>
		<g class="st1">
			<path class="st2" d="M157.9,70.4c13.3,0,26.6,0,40,0c2.8,0,5.7,0,8.4-0.4c2.7-0.4,5.4-1.1,6.9-2.4c-17.4-4.1-38.8-3.2-54.7,2.2"
				/>
		</g>
		<path class="st3" d="M197.2,59.3c0,0,11.7,3.2,11.7-3.8s-4.9-1.9-4.9-1.9s2.3,3.4,2.1,0.4c-0.2-3-1.6-12.1-7.6-8.9
			c-6,3.2,16.3-3.2,8.5-7c-7.9-3.8-8.5-7.7-15-3.2c-6.6,4.4-1.5,5,2.1,0.7s-0.9-11.6-9.5-3.1s-1.4,11.8,2.6,11.8c4,0,0.8-1.7-4-1.9
			c-4.8-0.2-11.9,6.1-9.7,8.1c0,0-12.3-1.1-7.3,5.1c0,0-5.9,1.7-1.9,6.5c4,4.8,10.5,3.5,11.6,2.1c1.2-1.5-19.3,1.9-12.1,4.4h41.8
			c0,0,8.3-1.8,6.1-3.5c-2.2-1.6-11.5-3.5-13.7-3.2C197.9,61.9,203.6,56.9,197.2,59.3z"/>
		<path class="st4" d="M202.7,46.8c1.6,1.3-0.7,5.2-2.9,4.1c-2.2-1.2-4.3-4.1-2.2-4.1C199.8,46.8,202,46.2,202.7,46.8z"/>
		<path class="st4" d="M185.8,57.6c2.7,2.2-1.2,8.7-4.8,6.8c-3.6-1.9-7.2-6.8-3.6-6.8S184.6,56.6,185.8,57.6z"/>
		<path class="st4" d="M182,44.7c-1.2-1.5,2.4-1,4.2,0.9c1.8,1.9,3.1,4.2,0.9,2.7C184.8,46.7,182.5,45.3,182,44.7z"/>
		<path class="st4" d="M199.7,57c-0.5-0.7,1.4-1.7,2.2-0.9s1.3,2.2,0.3,1.8S200,57.4,199.7,57z"/>
		<path class="st4" d="M187.3,39.1c-0.5-0.7,1.4-1.7,2.2-0.9c0.8,0.8,1.3,2.2,0.3,1.8S187.5,39.4,187.3,39.1z"/>
		<path class="st4" d="M197.8,36.2c-1.2-1,1.7-1.6,3.4-0.4c1.8,1.1,3.2,2.8,1.2,2.1C200.5,37.2,198.4,36.7,197.8,36.2z"/>
		<path class="st5" d="M198.5,59.3c0,0,11.7,3.2,11.7-3.8s-4.9-1.9-4.9-1.9s2.3,3.4,2.1,0.4c-0.2-3-1.6-12.1-7.6-8.9s16.3-3.2,8.5-7
			s-8.5-7.7-15-3.2c-6.6,4.4-1.5,5,2.1,0.7s-0.9-11.6-9.5-3.1s-1.4,11.8,2.6,11.8c4,0,0.8-1.7-4-1.9c-4.8-0.2-11.9,6.1-9.7,8.1
			c0,0-12.3-1.1-7.3,5.1c0,0-5.9,1.7-1.9,6.5c4,4.8,10.5,3.5,11.6,2.1c1.2-1.5-19.3,1.9-12.1,4.4h41.8c0,0,8.3-1.8,6.1-3.5
			c-2.2-1.6-11.5-3.5-13.7-3.2C199.2,61.9,204.9,56.9,198.5,59.3z"/>
	</g>
	<g>
		<g class="st1">
			<path class="st2" d="M217.4,71.3c5.4,0,10.7,0,16.1,0c1.1,0,2.3,0,3.4,0.2c1.1,0.2,2.2,0.7,2.8,1.5c-7,2.6-15.6,2-22-1.4"/>
		</g>
		<path class="st7" d="M234.4,73c0,0,9.5-10,4.6-12.4c0,0,8.7-7.6,1.7-8.8c-7-1.2-5.9,3.8-5.9,3.8s6.6-3.3,3.6-8s-7.3,0-7.3,0
			s-1.3-3.7-2.9-2.3c-1.6,1.4,0,3.3,0,3.3s1-3.9-2-2.5c-3,1.5-10,0.6-4.5,9.4c5.5,8.8,3.4,1.8,0.9-1.7c-2.5-3.4-8.4-8.7-9-0.8
			s6.4,13.5,11,12.3c4.6-1.2-0.3-2.3-2.1-1.3c-1.8,1-8.7,1.5-4.5,5.3c0,0,3.3,3.6,7.4,3.6C229.7,73,234.4,73,234.4,73z"/>
		<path class="st8" d="M239.7,61.6c0,0,0-2.1-1.7-2.1c-1.7,0-7.9,2.9-4.9,3.3S238,63.2,239.7,61.6z"/>
		<path class="st8" d="M236.7,47.2c0,0-0.2-1-1.8-0.3c-1.6,0.7-7.1,4.7-4.2,3.7C233.5,49.5,235.3,48.7,236.7,47.2z"/>
		<path class="st8" d="M220.1,56.1c0,0,1.4-1.2,0.6-2.8c-0.9-1.6-5.9-6-4.7-2.9C217.2,53.5,218.2,55.4,220.1,56.1z"/>
		<path class="st5" d="M235.1,72.5c0,0,9.5-10,4.6-12.4c0,0,8.7-7.6,1.7-8.8c-7-1.2-5.9,3.8-5.9,3.8s6.6-3.3,3.6-8
			c-3-4.7-7.3,0-7.3,0s-1.3-3.7-2.9-2.3c-1.6,1.4,0,3.3,0,3.3s1-3.9-2-2.5s-10,0.6-4.5,9.4c5.5,8.8,3.4,1.8,0.9-1.7
			c-2.5-3.4-8.4-8.7-9-0.8s6.4,13.5,11,12.3c4.6-1.2-0.3-2.3-2.1-1.3c-1.8,1-8.7,1.5-4.5,5.3c0,0,3.3,3.6,7.4,3.6
			C230.4,72.5,235.1,72.5,235.1,72.5z"/>
	</g>
	<g>
		<g class="st1">
			<path class="st2" d="M198.2,73.1c2.5,0,5.1,0,7.6,0c0.5,0,1.1,0,1.6,0.1c0.5,0.1,1,0.3,1.3,0.7c-3.3,1.2-7.4,1-10.4-0.7"/>
		</g>
		<path class="st7" d="M206.3,73.9c0,0,4.5-4.7,2.2-5.9c0,0,4.1-3.6,0.8-4.2c-3.3-0.6-2.8,1.8-2.8,1.8s3.1-1.5,1.7-3.8
			c-1.4-2.2-3.5,0-3.5,0s-0.6-1.7-1.4-1.1c-0.8,0.7,0,1.6,0,1.6s0.5-1.9-0.9-1.2c-1.4,0.7-4.7,0.3-2.1,4.5s1.6,0.8,0.4-0.8
			c-1.2-1.6-4-4.1-4.3-0.4s3.1,6.4,5.2,5.8c2.2-0.6-0.1-1.1-1-0.6c-0.9,0.5-4.1,0.7-2.1,2.5c0,0,1.5,1.7,3.5,1.7
			C204.1,73.9,206.3,73.9,206.3,73.9z"/>
		<path class="st8" d="M208.8,68.6c0,0,0-1-0.8-1s-3.8,1.4-2.3,1.6C207.1,69.3,208,69.3,208.8,68.6z"/>
		<path class="st8" d="M207.4,61.7c0,0-0.1-0.5-0.9-0.1c-0.8,0.3-3.4,2.2-2,1.7S206.7,62.4,207.4,61.7z"/>
		<path class="st8" d="M199.5,65.9c0,0,0.7-0.5,0.3-1.3c-0.4-0.8-2.8-2.9-2.2-1.4C198.1,64.7,198.6,65.6,199.5,65.9z"/>
		<path class="st5" d="M206.6,73.7c0,0,4.5-4.7,2.2-5.9c0,0,4.1-3.6,0.8-4.2c-3.3-0.6-2.8,1.8-2.8,1.8s3.1-1.5,1.7-3.8
			c-1.4-2.2-3.5,0-3.5,0s-0.6-1.7-1.4-1.1c-0.8,0.7,0,1.6,0,1.6s0.5-1.9-0.9-1.2c-1.4,0.7-4.7,0.3-2.1,4.5s1.6,0.8,0.4-0.8
			c-1.2-1.6-4-4.1-4.3-0.4c-0.3,3.8,3.1,6.4,5.2,5.8s-0.1-1.1-1-0.6c-0.9,0.5-4.1,0.7-2.1,2.5c0,0,1.5,1.7,3.5,1.7
			C204.4,73.7,206.6,73.7,206.6,73.7z"/>
	</g>
	<g>
		<g class="st1">
			<path class="st2" d="M102.2,75.9c-4.4,0-8.8,0-13.2,0c-0.9,0-1.9,0-2.8,0.2c-0.9,0.2-1.8,0.6-2.3,1.2c5.7,2.1,12.8,1.7,18.1-1.1"
				/>
		</g>
		<path class="st7" d="M88.2,77.3c0,0-7.8-8.2-3.7-10.2c0,0-7.2-6.3-1.4-7.2s4.8,3.1,4.8,3.1s-5.4-2.7-3-6.5c2.5-3.9,6,0,6,0
			s1.1-3,2.4-1.9s0,2.7,0,2.7s-0.9-3.2,1.6-2c2.5,1.2,8.2,0.5,3.7,7.7s-2.8,1.4-0.8-1.4c2-2.8,6.9-7.1,7.4-0.6S100,72,96.2,71
			c-3.7-1,0.2-1.9,1.7-1.1c1.5,0.8,7.2,1.2,3.7,4.4c0,0-2.7,3-6.1,2.9S88.2,77.3,88.2,77.3z"/>
		<path class="st8" d="M83.9,68c0,0,0-1.8,1.4-1.8s6.5,2.4,4,2.7C86.9,69.3,85.3,69.3,83.9,68z"/>
		<path class="st8" d="M86.4,56.2c0,0,0.2-0.8,1.5-0.3c1.3,0.6,5.8,3.9,3.5,3C89,58,87.5,57.4,86.4,56.2z"/>
		<path class="st8" d="M100,63.4c0,0-1.2-0.9-0.5-2.3c0.7-1.3,4.9-5,3.8-2.4C102.4,61.3,101.6,62.9,100,63.4z"/>
		<path class="st5" d="M87.7,76.9c0,0-7.8-8.2-3.7-10.2c0,0-7.2-6.3-1.4-7.2s4.8,3.1,4.8,3.1s-5.4-2.7-3-6.5c2.5-3.9,6,0,6,0
			s1.1-3,2.4-1.9c1.3,1.2,0,2.7,0,2.7s-0.9-3.2,1.6-2c2.5,1.2,8.2,0.5,3.7,7.7s-2.8,1.4-0.8-1.4c2-2.8,6.9-7.1,7.4-0.6
			s-5.3,11.1-9,10.1s0.2-1.9,1.7-1.1s7.2,1.2,3.7,4.4c0,0-2.7,3-6.1,2.9C91.6,76.9,87.7,76.9,87.7,76.9z"/>
	</g>
	<g>
		<path class="st9" d="M198.5,73.6l-76.9-1.1L57.4,82.9H52h-5.5H41h-5.5h-5.5h-5.5h-5.5h-5.5L0,98.8v1.1h5.5h5.5h5.5h5.5h5.5h5.5
			h5.5h5.5L88.5,112l76.9,1.1l64.1-10.5l13.7-15.9v-1.1L198.5,73.6z M211.5,99.3l-31.5,5.1V87.4c0-3.6-17.5-6.5-39.1-6.5
			c-21.6,0-39.1,2.9-39.1,6.5v19.3l-1,0l-35.1-9.5l10.7-12.5l50.3-8.2l60.4,0.9l35.1,9.5L211.5,99.3z"/>
		<path class="st10" d="M126.7,76.5l-50.3,8.2L65.7,97.2l35.1,9.5l1,0V87.4c0-3.6,17.5-6.5,39.1-6.5c21.6,0,39.1,2.9,39.1,6.5v17.1
			l31.5-5.1l10.7-12.5l-35.1-9.5L126.7,76.5z"/>
	</g>
	<path class="st11" d="M200.1,73.3l-76.9-1.1L59,82.7L45.4,98.6l44.7,12.1l76.9,1.1l64.1-10.5l13.7-15.9L200.1,73.3z M224.6,100.6
		l-59.2,9.7l-71.1-1L53,98.1l12.6-14.7l59.2-9.7l71.1,1l41.3,11.1L224.6,100.6z"/>
	<path class="st11" d="M195.9,74.8l-71.1-1l-59.2,9.7L53,98.1l41.3,11.1l71.1,1l59.2-9.7l12.6-14.7L195.9,74.8z M218.8,100l-54.9,9
		L98,108L59.6,97.7L71.3,84l54.9-9l65.9,1l38.3,10.3L218.8,100z"/>
	<polygon class="st11" points="90.1,111.8 45.4,99.7 45.4,98.6 90.1,110.7 	"/>
	<polygon class="st11" points="167,112.9 90.1,111.8 90.1,110.7 167,111.8 	"/>
	<polygon class="st11" points="231.1,102.4 167,112.9 167,111.8 231.1,101.3 	"/>
	<path class="st11" d="M192.2,76l-65.9-1l-54.9,9L59.6,97.7L98,108l65.9,1l54.9-9l11.7-13.7L192.2,76z M212.6,99.3l-31.5,5.1
		l-18.8,3.1l-59.4-0.9l-1,0l-35.1-9.5l10.7-12.5l50.3-8.2l60.4,0.9l35.1,9.5L212.6,99.3z"/>
	<g>
		<polygon class="st11" points="53.6,82.7 59,82.7 45.4,98.6 39.9,98.6 		"/>
		<polygon class="st11" points="48.1,82.7 53.6,82.7 39.9,98.6 34.4,98.6 		"/>
		<polygon class="st11" points="42.6,82.7 48.1,82.7 34.4,98.6 29,98.6 		"/>
		<polygon class="st11" points="37.2,82.7 42.6,82.7 29,98.6 23.5,98.6 		"/>
		<polygon class="st11" points="31.7,82.7 37.2,82.7 23.5,98.6 18,98.6 		"/>
		<polygon class="st11" points="26.2,82.7 31.7,82.7 18,98.6 12.5,98.6 		"/>
		<polygon class="st11" points="20.7,82.7 26.2,82.7 12.5,98.6 7.1,98.6 		"/>
		<polygon class="st11" points="15.3,82.7 20.7,82.7 7.1,98.6 1.6,98.6 		"/>
		<rect x="1.6" y="98.6" class="st11" width="5.5" height="1.1"/>
		<rect x="7.1" y="98.6" class="st11" width="5.5" height="1.1"/>
		<rect x="12.5" y="98.6" class="st11" width="5.5" height="1.1"/>
		<rect x="18" y="98.6" class="st11" width="5.5" height="1.1"/>
		<rect x="23.5" y="98.6" class="st11" width="5.5" height="1.1"/>
		<rect x="29" y="98.6" class="st11" width="5.5" height="1.1"/>
		<rect x="34.4" y="98.6" class="st11" width="5.5" height="1.1"/>
		<rect x="39.9" y="98.6" class="st11" width="5.5" height="1.1"/>
	</g>
	<g>
		<path class="st12" d="M130.1,88.4c0,0,4.9,1.5,7.2,1c2.3-0.5,4,0,0,1.4c-4,1.4-9,3.5-9,3.5l-1.9-3.3l2.1-1.5L130.1,88.4z"/>
		<path class="st5" d="M130.1,88c0,0,4.9,1.5,7.2,1c2.3-0.5,4,0,0,1.4c-4,1.4-9,3.5-9,3.5l-1.9-3.3l2.1-1.5L130.1,88z"/>
		<polygon class="st13" points="128.5,89.1 126.4,90.7 126.4,90.7 		"/>
		<g>
			<path class="st14" d="M82.7,79.2c0.4,2.4,2.9,4.2,7.9,3.7c4.9-0.5,5.7-0.8,6.1-0.5c0.4,0.3,5.8-3.2,4.3-6s-14.9,3.4-16.2,2.4
				S82.5,77.8,82.7,79.2z"/>
			<path class="st12" d="M120.3,92.3C120.3,92.3,120.3,92.2,120.3,92.3c0.8-0.6,2.8-2,4.3-2.9c1.1-0.7,2-1,1.8-0.4
				c-0.2,0.6-0.5,1.2-0.9,1.7c-2.5,3.5-8.6,6.1-8.6,6.1l-1-1.6L120.3,92.3z"/>
			<path class="st15" d="M83.4,74.3c6.2,1.2,13.9-1.7,13.9-1.7l-0.1-0.5l0.8-0.1l3.6-0.6c0.1,0,0.2,0.1,0.2,0.1
				c0.2,0.1,0.4,0,0.6-0.2c0.1-0.2,0.2-0.4,0.3-0.7c0-0.1,0-0.2,0.1-0.3c0.1,0,0.2,0,0.3,0c0.3,0,0.7-0.1,1-0.1
				c4.5-0.3,10.3-0.6,13.4,0.5c5.2,1.7,2.9,6.8,13,17.4l-1.9,1.4l-2.1,1.5v0l-0.5,0.3c0,0-0.2-0.3-0.5-0.7c0.4-0.6,0.7-1.1,0.9-1.7
				c0.2-0.6-0.7-0.2-1.8,0.4c-2.1-3-6.1-8.4-8.5-10.3c2.5,8.3,4.1,12.8,4.2,13.2c-0.2,0.2-0.4,0.3-0.4,0.3l-4,2.6
				c-2.3-1.8-8.6-14.7-9.3-16c0-0.1-0.1-0.1-0.1-0.1c-0.2,0.1-0.5,0.1-0.7,0.2c-23.1,5-24.2-4.2-24.2-4.6c0,0,0,0,0,0L83.4,74.3z"/>
			<path class="st5" d="M102.7,70.2c0-0.1,0-0.2,0.1-0.3c0.1,0,0.2,0,0.3,0c0.3,0,0.7-0.1,1-0.1c4.5-0.3,10.3-0.6,13.4,0.5
				c5.2,1.7,2.9,6.8,13,17.4l-1.9,1.4l-2.1,1.5v0l-0.5,0.3c0,0-0.2-0.3-0.5-0.7c0.4-0.6,0.7-1.1,0.9-1.7c0.2-0.6-0.7-0.2-1.8,0.4
				c-2.1-3-6.1-8.4-8.5-10.3c-0.1-0.5-0.3-1-0.5-1.5c-1.4-4.7-1.9-8.1-12.1-6.5c-0.3,0.1-0.7,0.1-1,0.2
				C102.6,70.7,102.7,70.5,102.7,70.2z"/>
			<path class="st5" d="M83.4,73.9c6.2,1.2,13.9-1.7,13.9-1.7l-0.1-0.5l0.8-0.1l3.6-0.6c0.1,0,0.2,0.1,0.2,0.1
				c0.2,0.1,0.4,0,0.6-0.2c0.4-0.1,0.7-0.1,1-0.2c10.2-1.5,10.7,1.8,12.1,6.5c0.2,0.5,0.3,1,0.5,1.5c2.5,8.3,4.1,12.8,4.2,13.2
				c-0.2,0.2-0.4,0.3-0.4,0.3l-4,2.6c-2.3-1.8-8.6-14.7-9.3-16c0-0.1-0.1-0.1-0.1-0.1c-0.2,0.1-0.5,0.1-0.7,0.2
				c-23.1,5-24.2-4.2-24.2-4.6c0,0,0,0,0,0L83.4,73.9z"/>
			<path class="st16" d="M90,50.1c0,0,7,5.4,9.3,13.8c0,0,3.4,1.1,4.3,3.1c0.9,2,0.5,2.9,0.5,2.9l0,0c-0.4,0-0.7,0.1-1,0.1
				c-0.1,0-0.2,0-0.3,0c0-0.1,0-0.2,0.1-0.4c0.1-1.2-0.2-2.7-1.2-3c-0.8-0.3-1.5-0.3-2.2-0.3c-1.9-1.5-3.9-2.9-4.8-6.2
				C93.3,54.7,91.5,51.7,90,50.1L90,50.1z"/>
			<path class="st17" d="M79,50.3c0.7-0.8,1.4-1.3,2.2-1.6c0.4-0.1,0.8-0.2,1.2-0.3c0.1,1,0.8,3.1,3.6,3.1c1.4,0.1,2.9-1,1.8-2
				c0-0.3,0-0.7,0-1.1c0.6,0.2,1.4,0.7,2.3,1.7c1.5,1.6,3.2,4.6,4.7,10c0.9,3.3,2.8,4.7,4.8,6.2c-1,0.1-1.8,0.5-2.3,0.9
				c-0.5,0.4-0.8,0.7-0.8,0.7l0.7,3.2c0,0,0.4-0.1,0.9-0.1c0.3,0,0.6-0.1,1-0.1c0.4,0,0.9-0.1,1.3,0c0.5,0,1,0.1,1.3,0.2l-3.6,0.6
				l-0.8,0.1l-0.9-4c-3.2-1.7-11.5-1.3-11.5-1.3c0-1.4-1.4-1.2-1.4-1.2c0.2-1.4,0.9-4.9,0.3-8.8C83.2,52.5,80.7,51.3,79,50.3z"/>
			<path class="st16" d="M77.1,53.4c0.8-1.7,1.6-2.7,1.8-3c0,0,0-0.1,0.1-0.1c1.7,1.1,4.2,2.2,4.8,6.1c0.6,3.9-0.1,7.4-0.3,8.8
				c0,0,1.4-0.2,1.4,1.2c0,0,8.3-0.4,11.5,1.3l0.9,4l0.1,0.5c0,0-7.7,2.9-13.9,1.7c-1-0.2-1.9-0.5-2.7-0.9c-1.9-0.9-3.5-2.5-4.4-5
				C74.2,61.6,75.6,56.4,77.1,53.4z"/>
			<path class="st18" d="M81.7,40.2c-0.4-1.7,1.1-1.9,1.1-1.9s1.1-0.1,1.1,1.1v1.1l0.6,0.2c1.6-1.6,0.7-3.7,0.7-3.7
				c0.9,0.2,1.8,0.3,2.5,0.3c1.9-0.1,3.3-0.8,4.3-1.5c0.4,1,0.5,4.9,0.1,6.6c-0.6,2.7-1.5,4.8-4.6,4.8c0,0,0,0,0,0
				c-1.9,0-4-1-5.4-2.7c0.8-0.6,1.1-1.4,1.1-2c0-0.6-0.1-1-0.1-1S82.2,41.9,81.7,40.2z"/>
			<path class="st13" d="M81.7,74.2C81.7,74.2,81.7,74.2,81.7,74.2c-0.3-0.3-0.6-0.7-1-1.2c0.9,0.4,1.8,0.7,2.7,0.9L81.7,74.2z"/>
			<path class="st13" d="M78.9,50.4c-0.2,0.3-1,1.3-1.8,3C77.6,52.2,78.2,51.1,78.9,50.4z"/>
			<path class="st5" d="M90,50.1c0,0,7,5.4,9.3,13.8c0,0,3.4,1.1,4.3,3.1c0.9,2,0.5,2.9,0.5,2.9l0,0c-0.4,0-0.7,0.1-1,0.1
				c-0.1,0-0.2,0-0.3,0c0-0.1,0-0.2,0.1-0.4c0.1-1.2-0.2-2.7-1.2-3c-0.8-0.3-1.5-0.3-2.2-0.3c-1.9-1.5-3.9-2.9-4.8-6.2
				C93.3,54.7,91.5,51.7,90,50.1L90,50.1z"/>
			<path class="st5" d="M79,50.3c0.7-0.8,1.4-1.3,2.2-1.6c0.4-0.1,0.8-0.2,1.2-0.3c0.1,1,0.8,3.1,3.6,3.1c1.4,0.1,2.9-1,1.8-2
				c0-0.3,0-0.7,0-1.1c0.6,0.2,1.4,0.7,2.3,1.7c1.5,1.6,3.2,4.6,4.7,10c0.9,3.3,2.8,4.7,4.8,6.2c-1,0.1-1.8,0.5-2.3,0.9
				c-0.5,0.4-0.8,0.7-0.8,0.7l0.7,3.2c0,0,0.4-0.1,0.9-0.1c0.3,0,0.6-0.1,1-0.1c0.4,0,0.9-0.1,1.3,0c0.5,0,1,0.1,1.3,0.2l-3.6,0.6
				l-0.8,0.1l-0.9-4c-3.2-1.7-11.5-1.3-11.5-1.3c0-1.4-1.4-1.2-1.4-1.2c0.2-1.4,0.9-4.9,0.3-8.8C83.2,52.5,80.7,51.3,79,50.3z"/>
			<path class="st18" d="M82.3,47.8v-3.4c1.4,1.7,3.5,2.7,5.4,2.7c0,0.3,0,0.7,0,1.2c0,0.4,0,0.8,0,1.1c1.1,1-0.4,2.1-1.8,2
				c-2.9,0-3.5-2-3.6-3.1C82.3,48.1,82.3,47.8,82.3,47.8z"/>
			<path class="st5" d="M79,50.3C79,50.3,79,50.3,79,50.3C78.9,50.3,78.9,50.3,79,50.3C78.9,50.3,79,50.3,79,50.3z"/>
			<path class="st5" d="M77.1,53.4c0.8-1.7,1.6-2.7,1.8-3c0,0,0-0.1,0.1-0.1c1.7,1.1,4.2,2.2,4.8,6.1c0.6,3.9-0.1,7.4-0.3,8.8
				c0,0,1.4-0.2,1.4,1.2c0,0,8.3-0.4,11.5,1.3l0.9,4l0.1,0.5c0,0-7.7,2.9-13.9,1.7c-1-0.2-1.9-0.5-2.7-0.9c-1.9-0.9-3.5-2.5-4.4-5
				C74.2,61.6,75.6,56.4,77.1,53.4z"/>
			<path class="st5" d="M120.3,91.9C120.3,91.9,120.3,91.9,120.3,91.9c0.8-0.6,2.8-2,4.3-2.9c1.1-0.7,2-1,1.8-0.4
				c-0.2,0.6-0.5,1.2-0.9,1.7c-2.5,3.5-8.6,6.1-8.6,6.1l-1-1.6L120.3,91.9z"/>
			<path class="st13" d="M120.3,91.9C120.3,91.9,120.3,91.9,120.3,91.9l-4.4,2.9l4-2.6C119.9,92.2,120,92.1,120.3,91.9z"/>
			<g>
				<path class="st19" d="M101.6,68c0.3,1.3,1.1,1.9,1.7,2c0,0.5,0.1,0.9,0.1,1c0,0.8,3.4,0.7,4.2,0.5c0.8-0.2,0.4-4.3,0.3-5.6
					c-0.1-0.9-4-0.7-4.5-0.2c-0.1,0.1-0.2,0.4-0.2,0.8C102.6,66.5,101.4,66.9,101.6,68z M103.2,67.2c0,0.6,0.1,1.4,0.1,2
					c-0.4-0.1-0.8-0.4-1-1.1C102.2,67.5,102.8,67.3,103.2,67.2z"/>
				<path class="st5" d="M101.9,67.9c0.3,1.3,1.1,1.9,1.7,2c0,0.5,0.1,0.9,0.1,1c0,0.8,3.4,0.7,4.2,0.5c0.8-0.2,0.4-4.3,0.3-5.6
					c-0.1-0.9-4-0.7-4.5-0.2c-0.1,0.1-0.2,0.4-0.2,0.8C102.8,66.4,101.6,66.8,101.9,67.9z M103.4,67.1c0,0.6,0.1,1.4,0.1,2
					c-0.4-0.1-0.8-0.4-1-1.1C102.4,67.4,103,67.2,103.4,67.1z"/>
			</g>
			<path class="st18" d="M97.2,67.2c0.5-0.4,1.3-0.8,2.3-0.9c0.7-0.1,1.4,0,2.2,0.3c1,0.4,1.3,1.9,1.2,3c0,0.1,0,0.2-0.1,0.4
				c0,0.1,0,0.2-0.1,0.3c-0.1,0.3-0.2,0.5-0.3,0.7c-0.2,0.2-0.4,0.4-0.6,0.2c-0.1,0-0.1-0.1-0.2-0.1c-0.3-0.1-0.8-0.2-1.3-0.2
				c-0.4,0-0.9,0-1.3,0c-0.3,0-0.7,0.1-1,0.1c-0.5,0.1-0.9,0.1-0.9,0.1l-0.7-3.2C96.4,67.9,96.7,67.6,97.2,67.2z"/>
			<g>
				<path class="st20" d="M107.6,63c0.7-0.7-0.8-0.8-0.8-0.8c-0.2-0.9-0.8,0.5-0.8,0.5s-0.6,0.3-0.1,0.3S106.9,63.7,107.6,63z"/>
				<path class="st5" d="M106,62.5c0,0,0.6-1.3,0.8-0.5c0,0,1.5,0.1,0.8,0.8c-0.7,0.7-1,0.4-1,0.4"/>
				<path class="st20" d="M104.9,64.2c-0.1,0.6,0.7,0.1,0.7,0.1c0.4,0.4,0.3-0.5,0.3-0.5s0.2-0.4-0.1-0.2
					C105.4,63.7,105,63.6,104.9,64.2z"/>
				<path class="st5" d="M105.9,63.9c0,0,0.2,0.9-0.3,0.5c0,0-0.8,0.5-0.7-0.1c0.1-0.6,0.4-0.6,0.4-0.6"/>
			</g>
			<path class="st21" d="M91.5,35.6c0,0-3.7,0.5-5,2.1c-1.3,1.7-2,9.4,1,9s3.2-1.4,3.9-2.7C92.3,42.8,92.9,36.1,91.5,35.6z"/>
			<path class="st12" d="M81.2,45.2c2.8-0.8,2.1-3.5,2.1-3.5s-1.2,0.4-1.6-1.3c-0.4-1.7,1.1-1.9,1.1-1.9s1.1-0.1,1.1,1.1v1.1
				l0.6,0.2c1.6-1.6,0.7-3.7,0.7-3.7c5.7,1.3,8.3-2.7,8.3-2.7c0.9-1.2-0.3-2.5-0.9-2.6c0,0-1.1-0.5-1.9,0c0,0,0.4,0.7,0.2,0.8
				s-13.9-4.2-11.6,4.7C81.8,46.2,81.2,45.2,81.2,45.2z"/>
			<path class="st5" d="M92.2,32.7c0,0-10-3.2-12.1,0.5c-0.9,1.5-1.5,3.5-0.3,6.3c0.6,1.4,1.3,2.4,1.4,5.6c2.8-0.8,2.1-3.5,2.1-3.5
				s-1.2,0.4-1.6-1.3c-0.4-1.7,1.1-1.9,1.1-1.9s1.1-0.1,1.1,1.1v1.1l0.6,0.2c1.6-1.6,0.7-3.7,0.7-3.7c5.7,1.3,8.3-2.7,8.3-2.7
				c0.9-1.2-0.3-2.5-0.9-2.6"/>
			<g>
				<circle class="st22" cx="91.8" cy="39.7" r="0.3"/>
				<circle class="st22" cx="87.4" cy="39.7" r="0.3"/>
				<path class="st5" d="M90.2,39.9c0,0-0.8,1.4,0.4,1.5c1.1,0.1,1,0,1.1,0.4c0,0.3,0,0.8-0.9,0.9c-0.7,0.1-0.8,0-0.8,0"/>
				<path class="st5" d="M90.7,44.1c0,0-1.7,0.6-2.8-0.4"/>
			</g>
			<path class="st21" d="M98.9,67.2c0,0-0.3-0.7,0.5-0.7s2.2-0.1,2.9,1.3c0.7,1.4,0.1,2.7-0.4,2.6s-3,0.7-2.9-1
				C99.1,67.8,99,67.4,98.9,67.2z"/>
		</g>
	</g>
	<g>
		<path class="st14" d="M213.6,76.5c-0.6,2.3-4,3.9-10.7,3.5s-7.7-0.8-8.3-0.5c-0.6,0.3-3-2.3-0.9-4.9c2.1-2.6,15.4,2.5,17.1,1.6
			C212.5,75.2,213.9,75.1,213.6,76.5z"/>
		<g>
			<path class="st23" d="M193.1,38.3c0,0-0.9-1.1-0.6-2.7c0,0,1-5.5,8.8-4.8c4.9,0.5,5.6,6.8,5.8,9c0.4,5.3,6,5.5,7.9,7.8
				c1.9,2.3,0.9,5.7-1.8,6.4c-5.4,1.4-9.3,1.6-12.3-2.4c-1.2-1.6-4,0.6-6.8-1.6c-2.7-2.1,0-7.5,0.3-8.4
				C194.6,40.9,193.1,38.3,193.1,38.3"/>
			<path class="st18" d="M202.2,47.1C202.2,47.1,202.2,47.1,202.2,47.1l0-4.2c0,0,0,0,0,0c-0.5,0.8-1.8,2.5-4.4,3.3
				c-0.2,0-0.4,0-0.5-0.1c0,0.7,0,1.6,0,2.1c0,0.1,0,0.2,0,0.3c-1,0.8,0.3,1.7,1.6,1.7C202.4,50.2,202.2,47.1,202.2,47.1z"/>
			<path class="st18" d="M193.5,36.5c0-0.2,0.1-0.4,0.2-0.6c0,0,0,0,0,0c0-0.1,0.1-0.2,0.1-0.3c0,0,0,0,0,0c0-0.1,0.1-0.2,0.1-0.3
				c0,0,0,0,0,0c0-0.1,0.1-0.2,0.1-0.3c0,0,0,0,0-0.1c0.1-0.1,0.1-0.2,0.2-0.2c0,0,0,0,0,0c0.2-0.2,0.3-0.3,0.5-0.5
				c0,0,0.3,1.4,1.3,2.3c0.8,0.7,2,1.1,3.9,0.3c0,1.4,0.3,1.9,0.6,2.2c0.3,0.2,0.6,0.1,0.6,0.1c0-1.2,1.1-1.1,1.1-1.1s0,0,0.1,0
				c0,0,0.1,0,0.2,0c0.1,0,0.2,0.1,0.3,0.1c0,0,0,0,0,0c0.1,0.1,0.2,0.1,0.3,0.2c0,0,0,0,0,0c0.1,0.1,0.1,0.2,0.2,0.3c0,0,0,0,0,0
				c0.1,0.1,0.1,0.2,0.1,0.3c0,0.2,0,0.4,0,0.7c0,0,0,0,0,0c0,0.1-0.1,0.2-0.1,0.3c0,0,0,0.1,0,0.1c0,0.1-0.1,0.2-0.1,0.2
				c0,0,0,0,0,0c0,0.1-0.1,0.1-0.1,0.2c0,0,0,0-0.1,0.1c0,0-0.1,0.1-0.1,0.1c0,0,0,0-0.1,0c0,0-0.1,0-0.1,0c0,0,0,0-0.1,0
				c0,0,0,0-0.1,0c0,0,0,0-0.1,0c0,0,0,0-0.1,0c0,0,0,0-0.1,0c0,0,0,0-0.1,0c0,0-0.1,0-0.1,0c0,0,0,0,0,0c0,0,0,0-0.1,0c0,0,0,0,0,0
				c0,0,0,0,0,0c0,0,0,0,0,0c0,0,0,0,0,0s-0.3,1.1,0.3,2c0,0,0,0,0,0c-0.5,0.8-1.8,2.5-4.4,3.3c-0.2,0-0.4,0-0.5-0.1
				c-1.5-0.4-3.2-2.2-3.7-4.4C193.3,40.5,193.3,38,193.5,36.5z"/>
			<path class="st5" d="M202.9,43.7c-1.4-1-1-2.8-1-2.8s1.1,0.4,1.5-1.2c0.4-1.5-1.1-1.7-1.1-1.7s-1.1-0.1-1.1,1.1
				c0,0-1.2,0.4-1.2-2.3c-4.3,1.9-5.2-2.6-5.2-2.6c-1.6,1.1-1.5,3.7-1.5,3.7s-0.9-1.1-0.6-2.7c0,0,1-5.5,8.8-4.8
				c4.9,0.5,5.6,6.8,5.8,9c0.4,5.3,6,5.5,7.9,7.8c1.9,2.3,0.9,5.7-1.8,6.4c0,0-0.7,0.1-1.9,0"/>
			<path class="st5" d="M195.2,33.6c0,0,1.3-2.3,3.4-2.7"/>
			<path class="st12" d="M166.5,88.7C166.5,88.7,166.5,88.7,166.5,88.7c-0.8-0.6-2.6-1.9-4-2.7c-1.1-0.6-1.9-1-1.7-0.4
				c0.2,0.6,0.5,1.1,0.9,1.6c2.4,3.3,8.1,5.8,8.1,5.8l0.9-1.5L166.5,88.7z"/>
			<path class="st12" d="M157.2,85c0,0-4.6,1.5-6.8,1s-3.8,0,0,1.4c3.8,1.3,8.5,3.3,8.5,3.3l1.8-3.2l-2-1.5L157.2,85z"/>
			<path class="st15" d="M201.3,71.7c-5.9,1.1-13.2-1.6-13.2-1.6l0.1-0.5l-0.7-0.1l-3.4-0.5c-0.1,0-0.1,0.1-0.2,0.1
				c-0.2,0.1-0.4,0-0.6-0.2c-0.1-0.2-0.2-0.4-0.3-0.6c0-0.1,0-0.2-0.1-0.2c-0.1,0-0.2,0-0.3,0c-0.3,0-0.7-0.1-1-0.1
				c-4.2-0.3-9.8-0.5-12.6,0.4c-4.9,1.6-2.8,6.5-12.3,16.5l1.8,1.3l2,1.5v0l0.4,0.3c0,0,0.2-0.2,0.5-0.7c-0.4-0.5-0.7-1.1-0.9-1.6
				c-0.2-0.6,0.6-0.2,1.7,0.4c2-2.8,5.8-8,8-9.7c-2.4,7.8-3.9,12.1-4,12.5c0.2,0.2,0.4,0.3,0.4,0.3l3.8,2.5
				c2.2-1.7,8.1-13.9,8.7-15.2c0-0.1,0.1-0.1,0.1-0.1c0.2,0.1,0.5,0.1,0.7,0.2c21.9,4.7,22.8-4,22.9-4.4c0,0,0,0,0,0L201.3,71.7z"/>
			<path class="st5" d="M183,67.9c0-0.1,0-0.2-0.1-0.2c-0.1,0-0.2,0-0.3,0c-0.3,0-0.7-0.1-1-0.1c-4.2-0.3-9.8-0.5-12.6,0.4
				c-4.9,1.6-2.8,6.5-12.3,16.5l1.8,1.3l2,1.5v0l0.4,0.3c0,0,0.2-0.2,0.5-0.7c-0.4-0.5-0.7-1.1-0.9-1.6c-0.2-0.6,0.6-0.2,1.7,0.4
				c2-2.8,5.8-8,8-9.7c0.1-0.5,0.3-0.9,0.4-1.4c1.3-4.4,1.8-7.6,11.4-6.2c0.3,0,0.6,0.1,1,0.2C183.2,68.4,183.1,68.1,183,67.9z"/>
			<path class="st5" d="M201.3,71.4c-5.9,1.1-13.2-1.6-13.2-1.6l0.1-0.5l-0.7-0.1l-3.4-0.5c-0.1,0-0.1,0.1-0.2,0.1
				c-0.2,0.1-0.4,0-0.6-0.2c-0.3-0.1-0.7-0.1-1-0.2c-9.6-1.5-10.1,1.7-11.4,6.2c-0.1,0.5-0.3,1-0.4,1.4c-2.4,7.8-3.9,12.1-4,12.5
				c0.2,0.2,0.4,0.3,0.4,0.3l3.8,2.5c2.2-1.7,8.1-13.9,8.7-15.2c0-0.1,0.1-0.1,0.1-0.1c0.2,0.1,0.5,0.1,0.7,0.2
				c21.9,4.7,22.8-4,22.9-4.4c0,0,0,0,0,0L201.3,71.4z"/>
			<path class="st13" d="M205.6,49.1c0.2,0.3,1,1.3,1.7,2.8C206.8,50.8,206.2,49.9,205.6,49.1z"/>
			<path class="st17" d="M194.9,48.9c0,0-6.6,5.1-8.8,13.1c0,0-3.2,1-4.1,2.9c-0.9,1.9-0.5,2.7-0.5,2.7l0,0c0.3,0,0.7,0.1,1,0.1
				c0.1,0,0.2,0,0.3,0c0-0.1,0-0.2-0.1-0.3c-0.1-1.1,0.1-2.5,1.1-2.9c0.8-0.3,1.5-0.3,2.1-0.3c1.8-1.4,3.6-2.7,4.5-5.8
				C191.8,53.2,193.5,50.4,194.9,48.9L194.9,48.9z"/>
			<path class="st16" d="M205.4,49.1c-0.6-0.7-1.4-1.2-2.1-1.5c-0.4-0.1-0.7-0.2-1.1-0.3c-0.1,1-0.7,2.9-3.4,2.9
				c-1.4,0.1-2.8-0.9-1.7-1.9c0-0.3,0-0.7,0-1.1c-0.6,0.2-1.3,0.7-2.2,1.6c-1.4,1.5-3.1,4.3-4.5,9.5c-0.8,3.1-2.7,4.4-4.5,5.8
				c0.9,0.1,1.7,0.5,2.2,0.9c0.5,0.3,0.7,0.7,0.7,0.7l-0.7,3c0,0-0.4-0.1-0.9-0.1c-0.3,0-0.6-0.1-0.9-0.1c-0.4,0-0.8,0-1.2,0
				c-0.5,0-0.9,0.1-1.3,0.2l3.4,0.5l0.7,0.1l0.9-3.8c3-1.6,10.8-1.2,10.8-1.2c0-1.4,1.3-1.2,1.3-1.2c-0.2-1.4-0.8-4.6-0.3-8.3
				C201.4,51.2,203.7,50.1,205.4,49.1z"/>
			<path class="st17" d="M207.1,52c-0.7-1.6-1.5-2.6-1.7-2.8c0,0,0,0-0.1-0.1c-1.6,1-4,2.1-4.6,5.8c-0.6,3.7,0.1,7,0.3,8.3
				c0,0-1.4-0.2-1.3,1.2c0,0-7.8-0.4-10.8,1.2l-0.9,3.8l-0.1,0.5c0,0,7.3,2.7,13.2,1.6c0.9-0.2,1.8-0.4,2.6-0.8
				c1.8-0.9,3.3-2.4,4.1-4.7C209.8,59.8,208.5,54.9,207.1,52z"/>
			<path class="st5" d="M195.1,48.9c0,0-6.6,5.1-8.8,13.1c0,0-3.2,1-4.1,2.9c-0.9,1.9-0.5,2.7-0.5,2.7l0,0c0.3,0,0.7,0.1,1,0.1
				c0.1,0,0.2,0,0.3,0c0-0.1,0-0.2-0.1-0.3c-0.1-1.1,0.1-2.5,1.1-2.9c0.8-0.3,1.5-0.3,2.1-0.3c1.8-1.4,3.6-2.7,4.5-5.8
				C192,53.2,193.7,50.4,195.1,48.9L195.1,48.9z"/>
			<path class="st5" d="M205.5,49c-0.6-0.7-1.4-1.2-2.1-1.5c-0.4-0.1-0.7-0.2-1.1-0.3c-0.1,1-0.7,2.9-3.4,2.9
				c-1.4,0.1-2.8-0.9-1.7-1.9c0-0.3,0-0.7,0-1.1c-0.6,0.2-1.3,0.7-2.2,1.6c-1.4,1.5-3.1,4.3-4.5,9.5c-0.8,3.1-2.7,4.4-4.5,5.8
				c0.9,0.1,1.7,0.5,2.2,0.9c0.5,0.3,0.7,0.7,0.7,0.7l-0.7,3c0,0-0.4-0.1-0.9-0.1c-0.3,0-0.6-0.1-0.9-0.1c-0.4,0-0.8,0-1.2,0
				c-0.5,0-0.9,0.1-1.3,0.2l3.4,0.5l0.7,0.1l0.9-3.8c3-1.6,10.8-1.2,10.8-1.2c0-1.4,1.3-1.2,1.3-1.2c-0.2-1.4-0.8-4.6-0.3-8.3
				C201.6,51.1,203.9,50.1,205.5,49z"/>
			<path class="st5" d="M205.5,49C205.5,49,205.5,49,205.5,49C205.5,49.1,205.6,49.1,205.5,49C205.5,49.1,205.5,49,205.5,49z"/>
			<path class="st5" d="M207.3,52c-0.7-1.6-1.5-2.6-1.7-2.8c0,0,0,0-0.1-0.1c-1.6,1-4,2.1-4.6,5.8c-0.6,3.7,0.1,7,0.3,8.3
				c0,0-1.4-0.2-1.3,1.2c0,0-7.8-0.4-10.8,1.2l-0.9,3.8l-0.1,0.5c0,0,7.3,2.7,13.2,1.6c0.9-0.2,1.8-0.4,2.6-0.8
				c1.8-0.9,3.3-2.4,4.1-4.7C210,59.7,208.7,54.9,207.3,52z"/>
			<path class="st5" d="M166.5,88.4C166.5,88.4,166.5,88.4,166.5,88.4c-0.8-0.6-2.6-1.9-4-2.7c-1.1-0.6-1.9-1-1.7-0.4
				c0.2,0.6,0.5,1.1,0.9,1.6c2.4,3.3,8.1,5.8,8.1,5.8l0.9-1.5L166.5,88.4z"/>
			<path class="st13" d="M166.5,88.4C166.5,88.4,166.5,88.4,166.5,88.4l4.1,2.8l-3.8-2.5C166.8,88.7,166.7,88.6,166.5,88.4z"/>
			<path class="st5" d="M157.2,84.7c0,0-4.6,1.5-6.8,1s-3.8,0,0,1.4c3.8,1.3,8.5,3.3,8.5,3.3l1.8-3.2l-2-1.5L157.2,84.7z"/>
			<polygon class="st13" points="158.7,85.8 160.7,87.2 160.7,87.2 			"/>
			<g>
				<path class="st19" d="M182.6,64.3c0-0.4-0.1-0.6-0.2-0.7c-0.5-0.4-4.2-0.6-4.3,0.2c-0.1,1.3-0.4,5.1,0.3,5.3
					c0.7,0.2,4,0.3,4-0.4c0-0.2,0-0.5,0.1-1c0.6-0.1,1.3-0.7,1.6-1.9C184.3,64.7,183.2,64.4,182.6,64.3z M183.5,65.9
					c-0.1,0.7-0.6,1-0.9,1.1c0.1-0.6,0.1-1.3,0.1-1.9C183,65.1,183.6,65.3,183.5,65.9z"/>
				<path class="st5" d="M182.4,64.2c0-0.4-0.1-0.6-0.2-0.7c-0.5-0.4-4.2-0.6-4.3,0.2c-0.1,1.3-0.4,5.1,0.3,5.3c0.7,0.2,4,0.3,4-0.4
					c0-0.2,0-0.5,0.1-1c0.6-0.1,1.3-0.7,1.6-1.9C184.1,64.6,183,64.3,182.4,64.2z M183.2,65.8c-0.1,0.7-0.6,1-0.9,1.1
					c0.1-0.6,0.1-1.3,0.1-1.9C182.8,65,183.4,65.2,183.2,65.8z"/>
			</g>
			<path class="st18" d="M188.3,65c-0.5-0.4-1.2-0.8-2.2-0.9c-0.6-0.1-1.3,0-2.1,0.3c-0.9,0.3-1.2,1.8-1.1,2.9c0,0.1,0,0.2,0.1,0.3
				c0,0.1,0,0.2,0.1,0.2c0.1,0.2,0.2,0.5,0.3,0.6c0.2,0.2,0.4,0.3,0.6,0.2c0.1,0,0.1-0.1,0.2-0.1c0.3-0.1,0.8-0.1,1.3-0.2
				c0.4,0,0.8,0,1.2,0c0.3,0,0.6,0.1,0.9,0.1c0.5,0.1,0.9,0.1,0.9,0.1l0.7-3C189,65.7,188.8,65.4,188.3,65z"/>
			<g>
				<path class="st20" d="M178.5,61.1c-0.6-0.7,0.7-0.7,0.7-0.7c0.2-0.8,0.8,0.4,0.8,0.4s0.5,0.3,0.1,0.3S179.1,61.8,178.5,61.1z"/>
				<path class="st5" d="M180,60.6c0,0-0.6-1.3-0.8-0.4c0,0-1.4,0.1-0.7,0.7c0.6,0.7,1,0.4,1,0.4"/>
				<path class="st20" d="M181,62.2c0.1,0.6-0.6,0.1-0.6,0.1c-0.4,0.4-0.3-0.5-0.3-0.5s-0.2-0.3,0.1-0.2S180.9,61.6,181,62.2z"/>
				<path class="st5" d="M180,61.9c0,0-0.1,0.9,0.3,0.5c0,0,0.7,0.5,0.6-0.1c-0.1-0.6-0.4-0.5-0.4-0.5"/>
			</g>
			<path class="st21" d="M194.6,35.1c0,0,2.2,3.1,4.4,2.4c1.9-0.6,0.3,8.4-1.4,8.2c-2-0.3-2.6-1.6-3.3-2.8S193.3,35.6,194.6,35.1z"
				/>
			<path class="st21" d="M186.8,65.1c0,0,0.2-0.7-0.5-0.7c-0.8,0-2.1-0.1-2.7,1.2s-0.1,2.6,0.4,2.5s2.9,0.6,2.8-0.9
				S186.7,65.3,186.8,65.1z"/>
			<g>
				<circle class="st22" cx="194.6" cy="38.7" r="0.3"/>
				<circle class="st22" cx="198.7" cy="38.7" r="0.3"/>
				<path class="st5" d="M196.1,38.9c0,0,0.8,1.3-0.4,1.4c0,0-0.2,1,1.3,0.8"/>
				<path class="st5" d="M195.6,42.8c0,0,1.6,0.6,2.7-0.4"/>
			</g>
		</g>
	</g>
	<g>
		<path class="st9" d="M142,82.4c-16.7,0-30.2,2.3-30.2,5c0,1.3,2.8,2.4,7.4,3.3c5.5,1.1,13.7,1.7,22.9,1.7
			c11.5,0,21.4-1.1,26.5-2.6c2.3-0.7,3.7-1.5,3.7-2.4C172.2,84.6,158.7,82.4,142,82.4z"/>
		<path class="st9" d="M142,94.3c-21.6,0-39.1-2.9-39.1-6.5V107l59.4,0.9l18.8-3.1V87.7C181.1,91.3,163.6,94.3,142,94.3z"/>
		<path class="st9" d="M142,81.2c-21.6,0-39.1,2.9-39.1,6.5c0,3.6,17.5,6.5,39.1,6.5c21.6,0,39.1-2.9,39.1-6.5
			C181.1,84.1,163.6,81.2,142,81.2z M168.6,90.1c-5.1,1.6-15.1,2.6-26.5,2.6c-9.1,0-17.3-0.7-22.9-1.7c-4.6-0.9-7.4-2-7.4-3.3
			c0-2.8,13.5-5,30.2-5c16.7,0,30.2,2.3,30.2,5C172.2,88.6,170.9,89.4,168.6,90.1z"/>
		<path class="st11" d="M142,93.9c-21.6,0-39.1-2.9-39.1-6.5v19.3l59.4,0.9l18.8-3.1V87.4C181.1,91,163.6,93.9,142,93.9z"/>
		<path class="st24" d="M167.9,89.3c0.2-1.2-1.1-1.9-2.1-1.7l-2.9,0.4c-0.3-1-2.2-1.6-2.4-1.4c-0.3,0.2-2.9,0.8-2.9,0.8
			c-0.5-1-1.9-0.9-2.7-0.7c-0.8,0.2-7.6,1.2-7.6,1.2s-0.2-0.6-1.7-1.3c-1.5-0.7-5.4,1.7-5.4,1.7s-0.6-0.4-1.8-0.5
			c-1.2-0.1-1.7,0.8-1.7,0.8c-0.8,0-2.8-0.9-4.3-1.5c-1.4-0.6-2.3,1.1-2.3,1.1c-1.4,0.1-5.2-1.4-6.2-1.4c-1.1-0.1-1.1,1.8-1.1,1.8
			c-2.9-0.3-3-0.7-3.6,0c-0.6,0.7,0,2.2,0,2.2c5.5,1.1,13.7,1.7,22.9,1.7c11.5,0,21.4-1.1,26.5-2.6l0,0L167.9,89.3z"/>
		<path class="st11" d="M167.8,89.3c0.2-1.2-1.1-1.9-2.1-1.7l-2.9,0.4c-0.3-1-2.2-1.6-2.4-1.4c-0.3,0.2-2.9,0.8-2.9,0.8
			c-0.5-1-1.9-0.9-2.7-0.7c-0.8,0.2-7.6,1.2-7.6,1.2s-0.2-0.6-1.7-1.3c-1.5-0.7-5.4,1.7-5.4,1.7s-0.6-0.4-1.8-0.5
			c-1.2-0.1-1.7,0.8-1.7,0.8c-0.8,0-2.8-0.9-4.3-1.5c-1.4-0.6-2.3,1.1-2.3,1.1c-1.4,0.1-5.2-1.4-6.2-1.4c-1.1-0.1-1.1,1.8-1.1,1.8
			c-2.9-0.3-3-0.7-3.6,0c-0.6,0.7,0,2.2,0,2.2c5.5,1.1,13.7,1.7,22.9,1.7c11.5,0,21.4-1.1,26.5-2.6l0,0L167.8,89.3z"/>
		<path class="st11" d="M122.8,88.5c0,0,13.2,1.3,14.3,1.2"/>
		<line class="st11" x1="130.1" y1="88.1" x2="137.1" y2="89"/>
		<path class="st11" d="M157.5,87.4c0,0-5.6,1-6.3,1.1"/>
		<path class="st11" d="M162.8,88.1c0,0-9.9,1.5-13.1,1.6"/>
		<g class="st25">
			<path class="st9" d="M157.8,76.9c-4,8.4-2.7,16.2-12,16.2s-12-0.3-12-9.6s-7.2-25.9,12-24.1C155,60.3,162.6,66.7,157.8,76.9z"/>
			<path class="st9" d="M160.2,68.6c2.3,2,4.7,1.9,4.1,5.6c-0.6,3.7-0.9,4.8-3.7,4.3c-2.8-0.5-8.2,1.6-6.4-6
				C155.1,68.9,157.5,66.2,160.2,68.6z"/>
			<path class="st9" d="M135.8,72.5c0.7,1.5,2,1.9,0.9,3.7c-1.1,1.8-1.4,2.2-2.8,1.4s-4.5-0.9-2-4.4
				C133.1,71.5,134.9,70.7,135.8,72.5z"/>
			<path class="st9" d="M132.8,59.3c0,1.3-0.3,1.2-1.5,1.2c-1.2,0-1.5-2.3-1.5-3.6s0.3-1.2,1.5-1.2C132.5,55.7,132.8,58,132.8,59.3z
				"/>
			<path class="st9" d="M157.5,45.7c1-0.9,1.1-0.6,1.9,0.3c0.8,0.9-0.6,2.7-1.6,3.6c-1,0.9-1.1,0.6-1.9-0.3
				C155.1,48.4,156.6,46.6,157.5,45.7z"/>
			<path class="st9" d="M155.6,52.3c1.8,0.3,1.5,1.1,1.1,3.9c-0.4,2.8-3.7,3.2-5.5,3c-1.8-0.3-1.5-1.1-1.1-3.9
				C150.5,52.4,153.7,52,155.6,52.3z"/>
		</g>
		<path class="st11" d="M142,80.9c-21.6,0-39.1,2.9-39.1,6.5s17.5,6.5,39.1,6.5c21.6,0,39.1-2.9,39.1-6.5S163.6,80.9,142,80.9z
			 M168.6,89.8c-5.1,1.6-15.1,2.6-26.5,2.6c-9.1,0-17.3-0.7-22.9-1.7c-4.6-0.9-7.4-2-7.4-3.3c0-2.8,13.5-5,30.2-5
			c16.7,0,30.2,2.3,30.2,5C172.2,88.3,170.9,89.1,168.6,89.8z"/>
		<g>
			<path class="st26" d="M149.5,72c0,0,0.7,3-1,3.5c-1.7,0.4,0-0.3,0.3-1.3C149,73.1,148.9,72,149.5,72z"/>
			<g>
				<path class="st26" d="M151.2,84.4c-1.2-5.7-4-6.9-4-6.9s0.5,4.8-1,5.5c0,0-4.4-4.2,0.3-7.8c0,0-5-0.3-5.3,5.9
					c0,0-0.6-1.5-3.1-2.3c0,0,2,2.2-1.3,6.4c-3.3,4.2,2.1,6.9,5.6,6.9C145.8,92.1,152.4,90.1,151.2,84.4z M143.3,91.3
					c-3.6,0.3-5.6-2.3-4.1-3.8c1.5-1.5,1.2-4.7,1.2-4.7c1.6,0.3,2.2,1.7,2.2,1.7c-0.4-0.9,0.7-5,0.7-5s-0.1,1.2,2.4,5.3
					C147.6,88,147,91,143.3,91.3z"/>
				<path class="st27" d="M143.3,79.5c0,0-1.1,4-0.7,5c0,0-0.6-1.4-2.2-1.7c0,0,0.4,3.2-1.2,4.7c-1.5,1.5,0.5,4.1,4.1,3.8
					c3.6-0.3,4.3-3.2,2.3-6.4C143.2,80.7,143.3,79.5,143.3,79.5z"/>
				<g>
					<path class="st5" d="M151.6,84.1c-1.2-5.7-4-6.9-4-6.9s0.5,4.8-1,5.5c0,0-4.4-4.2,0.3-7.8c0,0-5-0.3-5.3,5.9
						c0,0-0.6-1.5-3.1-2.3c0,0,2,2.2-1.3,6.4c-3.3,4.2,2.1,6.9,5.6,6.9C146.1,91.8,152.7,89.8,151.6,84.1z M143.7,91
						c-3.6,0.3-5.6-2.3-4.1-3.8c1.5-1.5,1.2-4.7,1.2-4.7c1.6,0.3,2.2,1.7,2.2,1.7c-0.4-0.9,0.7-5,0.7-5s-0.1,1.2,2.4,5.3
						C148,87.8,147.3,90.7,143.7,91z"/>
					<path class="st5" d="M143.6,79.2c0,0-1.1,4-0.7,5c0,0-0.6-1.4-2.2-1.7c0,0,0.4,3.2-1.2,4.7c-1.5,1.5,0.5,4.1,4.1,3.8
						c3.6-0.3,4.3-3.2,2.3-6.4C143.5,80.4,143.6,79.2,143.6,79.2z"/>
				</g>
			</g>
			<path class="st5" d="M149.3,71.8c0,0,0.7,3-1,3.5c-1.7,0.4,0-0.3,0.3-1.3C148.9,72.9,148.8,71.8,149.3,71.8z"/>
		</g>
	</g>
	<g>
		<g class="st1">
			<path class="st2" d="M93.5,125.1c9.2,0,18.5,0,27.7,0c2,0,4,0,5.9-0.3c1.9-0.3,3.7-0.8,4.8-1.7c-12-3-26.9-2.4-38,1.6"/>
		</g>
		<path class="st3" d="M120.7,116.9c0,0,8.1,2.4,8.1-2.8s-3.4-1.4-3.4-1.4s1.6,2.5,1.5,0.3c-0.2-2.2-1.1-8.9-5.3-6.6
			s11.3-2.4,5.9-5.2c-5.5-2.8-5.9-5.7-10.4-2.4c-4.6,3.3-1.1,3.7,1.5,0.5c2.5-3.2-0.7-8.6-6.6-2.3c-5.9,6.3-1,8.7,1.8,8.7
			c2.8,0,0.6-1.3-2.8-1.4c-3.3-0.1-8.2,4.5-6.8,6c0,0-8.6-0.8-5.1,3.8c0,0-4.1,1.3-1.3,4.8s7.3,2.6,8.1,1.5s-13.4,1.4-8.4,3.2h29
			c0,0,5.8-1.3,4.2-2.6s-8-2.6-9.5-2.3C121.2,118.9,125.2,115.2,120.7,116.9z"/>
		<path class="st4" d="M124.5,107.7c1.1,1-0.5,3.8-2,3s-3-3-1.5-3S124,107.2,124.5,107.7z"/>
		<path class="st4" d="M112.8,115.7c1.9,1.6-0.8,6.4-3.3,5c-2.5-1.4-5-5-2.5-5C109.5,115.7,112,114.9,112.8,115.7z"/>
		<path class="st4" d="M110.1,106.1c-0.8-1.1,1.6-0.7,2.9,0.6c1.3,1.4,2.1,3.1,0.6,2C112.1,107.6,110.5,106.6,110.1,106.1z"/>
		<path class="st4" d="M122.5,115.3c-0.4-0.5,0.9-1.3,1.5-0.7s0.9,1.6,0.2,1.3C123.4,115.6,122.6,115.5,122.5,115.3z"/>
		<path class="st4" d="M113.8,102c-0.4-0.5,0.9-1.3,1.5-0.7s0.9,1.6,0.2,1.3C114.8,102.4,114,102.2,113.8,102z"/>
		<path class="st4" d="M121.1,99.9c-0.9-0.7,1.1-1.1,2.4-0.3c1.2,0.8,2.2,2.1,0.8,1.6S121.5,100.2,121.1,99.9z"/>
		<path class="st5" d="M121.6,116.9c0,0,8.1,2.4,8.1-2.8s-3.4-1.4-3.4-1.4s1.6,2.5,1.5,0.3c-0.2-2.2-1.1-8.9-5.3-6.6
			s11.3-2.4,5.9-5.2c-5.5-2.8-5.9-5.7-10.4-2.4c-4.6,3.3-1.1,3.7,1.5,0.5c2.5-3.2-0.7-8.6-6.6-2.3c-5.9,6.3-1,8.7,1.8,8.7
			c2.8,0,0.6-1.3-2.8-1.4c-3.3-0.1-8.2,4.5-6.8,6c0,0-8.6-0.8-5.1,3.8c0,0-4.1,1.3-1.3,4.8s7.3,2.6,8.1,1.5
			c0.8-1.1-13.4,1.4-8.4,3.2h29c0,0,5.8-1.3,4.2-2.6s-8-2.6-9.5-2.3C122.1,118.9,126.1,115.2,121.6,116.9z"/>
	</g>
</g>
</svg>
