<svg width="24" height="24" viewBox="0 0 24 24" fill="none" xmlns="http://www.w3.org/2000/svg">
<path d="M17.7056 14.6322L21.6763 15.8819C21.8369 15.9313 21.9997 15.8113 21.9997 15.6428V15.1197C21.9997 15.01 21.9281 14.9131 21.8231 14.8806L18 13.6763V11.5978C18 10.9016 17.8184 10.2175 17.4728 9.61312L14.7703 4.88313C14.4597 4.33844 13.8772 4 13.2497 4C12.7875 4 12.3353 4.18781 12 4.52938C11.6647 4.18781 11.2125 4 10.7503 4C10.1228 4 9.54031 4.33844 9.22969 4.88313L6.52688 9.61344C6.18156 10.2179 5.99995 10.902 6 11.5981V13.6766L2.17656 14.8806C2.12546 14.8964 2.08074 14.9281 2.04897 14.9711C2.0172 15.0141 2.00003 15.0662 2 15.1197V15.6428C2 15.8109 2.16281 15.9313 2.32344 15.8819L6.29406 14.6322C6.71344 14.5031 6.99969 14.1153 6.99969 13.6766V11.5981C6.99969 11.0759 7.13594 10.5628 7.395 10.1097L10.0984 5.37844C10.315 4.99844 10.7809 4.90469 11.1219 5.09906C11.4812 5.30469 11.6062 5.76312 11.4012 6.1225L9.39531 9.63281C9.1363 10.0861 9.00004 10.5992 9 11.1213V13.7503C9 13.8884 9.11187 14.0003 9.25 14.0003H9.75C9.88813 14.0003 10 13.8884 10 13.7503V11.7503C10 11.3362 10.3359 11.0003 10.75 11.0003C11.1641 11.0003 11.5 11.3362 11.5 11.7503V14.4403C11.5 15.5609 10.7541 16.5447 9.67531 16.8475L2.1825 18.99C2.13002 19.0048 2.0838 19.0362 2.05086 19.0797C2.01792 19.1231 2.00006 19.1761 2 19.2306V19.75C2 19.9156 2.15812 20.0353 2.3175 19.9906L9.94531 17.8103C10.8331 17.5612 11.5516 16.9781 12 16.225C12.4484 16.9778 13.1669 17.5612 14.0547 17.8103L21.6825 19.9906C21.8419 20.0353 22 19.9156 22 19.75V19.2306C22 19.1184 21.9253 19.0203 21.8175 18.99L14.3247 16.8475C13.2456 16.5447 12.5 15.5609 12.5 14.4403V11.7503C12.5 11.3362 12.8359 11.0003 13.25 11.0003C13.6641 11.0003 14 11.3362 14 11.7503V13.7503C14 13.8884 14.1119 14.0003 14.25 14.0003H14.75C14.8881 14.0003 15 13.8884 15 13.7503V11.1213C15 10.5991 14.8638 10.0859 14.6047 9.63281L12.5988 6.1225C12.3938 5.76312 12.5188 5.30469 12.8781 5.09906C13.2209 4.90344 13.6866 5.00094 13.9016 5.37844L16.605 10.1097C16.8641 10.563 17.0003 11.076 17.0003 11.5981V13.6766C17 14.1153 17.2862 14.5028 17.7056 14.6322V14.6322ZM13.6959 10.0578C13.4975 10.0053 13.2853 9.98719 13.0659 10.0097C12.6391 10.0534 12.2731 10.2666 12 10.5706C11.7272 10.2666 11.3609 10.0534 10.9341 10.0097C10.715 9.98719 10.5028 10.0053 10.3041 10.0578L12 7.09031L13.6959 10.0578Z" fill="black"/>
</svg>
