<?xml version="1.0" encoding="utf-8"?>
<!-- Generator: Adobe Illustrator 26.4.1, SVG Export Plug-In . SVG Version: 6.00 Build 0)  -->
<svg version="1.1" id="Layer_1" xmlns="http://www.w3.org/2000/svg" xmlns:xlink="http://www.w3.org/1999/xlink" x="0px" y="0px"
	 viewBox="0 0 205.2 129.8" style="enable-background:new 0 0 205.2 129.8;" xml:space="preserve">
<style type="text/css">
	.st0{fill:#DBE2D8;}
	.st1{fill:#F1F3F2;}
	.st2{fill:#E2E2E1;}
	.st3{opacity:0.3;}
	.st4{fill:#879384;}
	.st5{fill:#8FA487;}
	.st6{opacity:0.2;fill:#C8E3D0;}
	.st7{fill:none;stroke:#1A1A1A;stroke-width:0.2;stroke-linecap:round;stroke-linejoin:round;stroke-miterlimit:10;}
	.st8{fill:#ACC6A4;}
	.st9{opacity:0.7;fill:#C8E3D0;}
	.st10{fill:#FFFFFF;stroke:#1A1A1A;stroke-width:0.2;stroke-linecap:round;stroke-linejoin:round;stroke-miterlimit:10;}
	.st11{fill:#F6E4D0;}
	.st12{fill:#FBFBFA;stroke:#1A1A1A;stroke-width:0.2;stroke-linecap:round;stroke-linejoin:round;stroke-miterlimit:10;}
	.st13{fill:#BEB5B1;}
	.st14{fill:#816663;}
	.st15{fill:#BED0E7;}
	.st16{fill:#1A1A1A;}
	.st17{fill:#FBFBFA;}
	.st18{fill:#F4D6D2;}
	.st19{fill:#CAB39B;}
	.st20{fill:#717169;}
	.st21{fill:#EEEDED;}
	.st22{fill:#717169;stroke:#1A1A1A;stroke-width:0.2;stroke-linecap:round;stroke-linejoin:round;stroke-miterlimit:10;}
	.st23{opacity:0.6;fill:#F4ECEB;}
	.st24{fill:#E4F0EF;}
	.st25{opacity:0.3;fill:#FFFFFF;}
</style>
<g>
	<path class="st0" d="M22.5,43C16,84,39.3,110,66,106.7c26.7-3.3,44.2,6,54.1,13.7s76.9,4.9,72.8-36.2S178,8.8,138.4,24
		s-62.2-7-82.5-13.1S26.1,19.7,22.5,43z"/>
	<path class="st1" d="M63.2,30.9c2.2-3.9-8.6-15-26.2-8.7s-21.2,2-22.9,5.2s19.1,5.6,25,3.6S60.5,35.7,63.2,30.9z"/>
	<path class="st1" d="M182.3,21.4c3.6,4.3-14.3,16.9-43.7,9.8s-20.9-6.4-16.8-8.5c10.7-5.5,10.4-3.6,20.2-1.3S177.8,16,182.3,21.4z"
		/>
	<path class="st1" d="M199.3,57.2c2.2-3.9-8.6-15-26.2-8.7s-21.2,2-22.9,5.2s19.1,5.6,25,3.6C181,55.2,196.6,62,199.3,57.2z"/>
	<path class="st2" d="M204.9,107.8c-2.5,12.5-16.8,10.2-37,16.1S12.5,136,10.4,117.6c-3.2-27.1,131.5-20.5,150-20.1
		C192.7,98.1,207.3,95.5,204.9,107.8z"/>
	<g>
		<g class="st3">
			<path class="st4" d="M37.2,100.7c11.1,0,22.1,0,33.2,0c2.3,0,4.7,0,7-0.9c2.3-0.9,4.5-2.7,5.7-5.7c-14.4-9.8-32.2-7.7-45.4,5.2"
				/>
		</g>
		<path class="st5" d="M69.8,74c0,0,9.7,7.7,9.7-9.1s-4.1-4.6-4.1-4.6s1.9,8.2,1.8,1C77,54.3,75.8,32.3,70.9,40s13.6-7.8,7-16.9
			s-7-18.4-12.5-7.7s-1.3,12,1.8,1.6c3-10.5-0.8-28-7.9-7.5c-7.1,20.5-1.2,28.4,2.1,28.4c3.3,0,0.7-4.1-3.3-4.6
			c-4-0.5-9.8,14.7-8.1,19.5c0,0-10.2-2.7-6,12.3c0,0-4.9,4.1-1.6,15.7s8.7,8.5,9.7,4.9c1-3.6-16,4.5-10,10.5h34.7
			c0,0,6.9-4.4,5.1-8.3c-1.9-4-9.6-8.5-11.4-7.6C70.4,80.4,75.1,68.4,69.8,74z"/>
		<path class="st6" d="M74.4,44c1.3,3.1-0.6,12.5-2.4,9.7S68.4,44,70.2,44S73.8,42.6,74.4,44z"/>
		<path class="st6" d="M60.4,69.9c2.2,5.2-1,20.9-4,16.3c-3-4.6-6-16.3-3-16.3C56.4,69.9,59.4,67.6,60.4,69.9z"/>
		<path class="st6" d="M57.2,38.9c-1-3.6,2-2.4,3.5,2.1s2.5,10.1,0.7,6.5C59.6,43.8,57.6,40.6,57.2,38.9z"/>
		<path class="st6" d="M71.9,68.6c-0.4-1.8,1.1-4.1,1.8-2.2c0.7,1.9,1.1,5.2,0.2,4.3C73.1,69.8,72.1,69.4,71.9,68.6z"/>
		<path class="st6" d="M61.6,25.5c-0.4-1.8,1.1-4.1,1.8-2.2c0.7,1.9,1.1,5.2,0.2,4.3S61.8,26.3,61.6,25.5z"/>
		<path class="st6" d="M70.3,18.7c-1-2.3,1.4-3.7,2.8-1.1c1.5,2.7,2.7,6.8,1,5.1C72.5,21,70.8,19.8,70.3,18.7z"/>
		<path class="st7" d="M70.9,74c0,0,9.7,7.7,9.7-9.1s-4.1-4.6-4.1-4.6s1.9,8.2,1.8,1c-0.2-7.1-1.4-29.1-6.3-21.4s13.6-7.8,7-16.9
			s-7-18.4-12.5-7.7s-1.3,12,1.8,1.6c3-10.5-0.8-28-7.9-7.5s-1.2,28.4,2.1,28.4s0.7-4.1-3.3-4.6c-4-0.5-9.8,14.7-8.1,19.5
			c0,0-10.2-2.7-6,12.3c0,0-4.9,4.1-1.6,15.7s8.7,8.5,9.7,4.9c1-3.6-16,4.5-10,10.5h34.7c0,0,6.9-4.4,5.1-8.3
			c-1.9-4-9.6-8.5-11.4-7.6C71.4,80.4,76.2,68.4,70.9,74z"/>
	</g>
	<g>
		<g class="st3">
			<path class="st4" d="M153.1,84.6c8.6,0,17.3,0,25.9,0c1.8,0,3.7,0,5.5,0.7c1.8,0.7,3.5,2.2,4.5,4.5c-11.3,7.7-25.2,6.1-35.5-4.1"
				/>
		</g>
		<path class="st5" d="M163.1,81.7c0,0-7.6,3-7.6-3.5c0-6.4,3.2-1.8,3.2-1.8s-1.5,3.1-1.4,0.4c0.2-2.7,1.1-11.1,5-8.2
			c3.9,2.9-10.6-3-5.5-6.4c5.1-3.5,5.5-7,9.8-3s1,4.6-1.4,0.6c-2.4-4,0.6-10.7,6.2-2.9s0.9,10.9-1.7,10.9c-2.6,0-0.5-1.6,2.6-1.7
			c3.1-0.2,7.7,5.6,6.3,7.5c0,0,8-1,4.7,4.7c0,0,3.8,1.6,1.2,6c-2.6,4.4-6.8,3.3-7.5,1.9c-0.8-1.4,12.5,1.7,7.8,4h-27.1
			c0,0-5.4-1.7-4-3.2c1.4-1.5,7.5-3.3,8.9-2.9C162.6,84.1,158.9,79.5,163.1,81.7z"/>
		<path class="st6" d="M159.5,70.2c-1,1.2,0.5,4.8,1.9,3.7c1.4-1.1,2.8-3.7,1.4-3.7S160,69.7,159.5,70.2z"/>
		<path class="st6" d="M170.5,80.2c-1.7,2,0.8,8,3.1,6.2s4.7-6.2,2.3-6.2S171.3,79.3,170.5,80.2z"/>
		<path class="st6" d="M173,68.3c0.8-1.4-1.5-0.9-2.7,0.8c-1.2,1.7-2,3.9-0.6,2.5S172.7,68.9,173,68.3z"/>
		<path class="st6" d="M161.4,79.6c0.3-0.7-0.9-1.6-1.4-0.8c-0.5,0.7-0.9,2-0.2,1.7S161.3,79.9,161.4,79.6z"/>
		<path class="st6" d="M169.5,63.2c0.3-0.7-0.9-1.6-1.4-0.8c-0.5,0.7-0.9,2-0.2,1.7C168.6,63.6,169.4,63.5,169.5,63.2z"/>
		<path class="st6" d="M162.7,60.5c0.8-0.9-1.1-1.4-2.2-0.4c-1.1,1-2.1,2.6-0.8,1.9C161,61.4,162.3,60.9,162.7,60.5z"/>
		<path class="st7" d="M162.3,81.7c0,0-7.6,3-7.6-3.5c0-6.4,3.2-1.8,3.2-1.8s-1.5,3.1-1.4,0.4c0.2-2.7,1.1-11.1,5-8.2
			c3.9,2.9-10.6-3-5.5-6.4c5.1-3.5,5.5-7,9.8-3c4.3,4.1,1,4.6-1.4,0.6s0.6-10.7,6.2-2.9s0.9,10.9-1.7,10.9c-2.6,0-0.5-1.6,2.6-1.7
			s7.7,5.6,6.3,7.5c0,0,8-1,4.7,4.7c0,0,3.8,1.6,1.2,6c-2.6,4.4-6.8,3.3-7.5,1.9c-0.8-1.4,12.5,1.7,7.8,4h-27.1c0,0-5.4-1.7-4-3.2
			s7.5-3.3,8.9-2.9C161.8,84.1,158.1,79.5,162.3,81.7z"/>
	</g>
	<g>
		<g class="st3">
			<path class="st4" d="M144.2,90.9c4.3,0,8.6,0,12.9,0c0.9,0,1.8,0,2.7,0.4c0.9,0.4,1.7,1.3,2.2,2.8c-5.6,4.8-12.5,3.8-17.6-2.6"/>
		</g>
		<path class="st8" d="M158.4,94.1c0,0,7.6-9.6,3.6-11.9c0,0,7-7.3,1.4-8.5s-4.7,3.6-4.7,3.6s5.3-3.1,2.9-7.7c-2.4-4.5-5.8,0-5.8,0
			s-1.1-3.5-2.4-2.2c-1.3,1.4,0,3.2,0,3.2s0.8-3.8-1.6-2.4s-8,0.6-3.6,9.1s2.7,1.7,0.8-1.6c-2-3.3-6.8-8.4-7.2-0.7
			s5.2,12.9,8.8,11.8s-0.2-2.2-1.7-1.3c-1.5,0.9-7,1.4-3.6,5.1c0,0,2.6,3.5,5.9,3.4C154.6,94.1,158.4,94.1,158.4,94.1z"/>
		<path class="st9" d="M162.6,83.2c0,0,0-2.1-1.3-2.1s-6.3,2.8-3.9,3.2C159.7,84.7,161.3,84.7,162.6,83.2z"/>
		<path class="st9" d="M160.2,69.3c0,0-0.2-1-1.5-0.3c-1.3,0.7-5.7,4.6-3.4,3.5C157.7,71.5,159.1,70.7,160.2,69.3z"/>
		<path class="st9" d="M146.9,77.9c0,0,1.1-1.1,0.5-2.7c-0.7-1.6-4.7-5.8-3.7-2.8S145.4,77.2,146.9,77.9z"/>
		<path class="st7" d="M158.9,93.6c0,0,7.6-9.6,3.6-11.9c0,0,7-7.3,1.4-8.5c-5.6-1.1-4.7,3.6-4.7,3.6s5.3-3.1,2.9-7.7s-5.8,0-5.8,0
			s-1.1-3.5-2.4-2.2c-1.3,1.4,0,3.2,0,3.2s0.8-3.8-1.6-2.4c-2.4,1.4-8,0.6-3.6,9.1c4.4,8.4,2.7,1.7,0.8-1.6s-6.8-8.4-7.2-0.7
			s5.2,12.9,8.8,11.8c3.6-1.1-0.2-2.2-1.7-1.3c-1.5,0.9-7,1.4-3.6,5.1c0,0,2.6,3.5,5.9,3.4C155.1,93.6,158.9,93.6,158.9,93.6z"/>
	</g>
	<g>
		<path class="st10" d="M97.1,62.7l-0.5,2.8c0,0-2.3,0.5-3.6-0.8c-1.2-1.3-0.4-4.4,0.5-3.9C94.4,61.3,96.1,62.1,97.1,62.7z"/>
		<g>
			<path class="st11" d="M99.5,67.3c-1.1,0.2-2.7,0.2-4.5-0.1c-0.4,1.2-0.8,2.1-0.8,2.1l-1.1-0.1c0,0,0.4-0.9,0.8-2.2
				c-1.5-0.3-3-0.6-4.5-1c-0.3-0.1-0.7-0.2-1-0.3c-1.5-0.5-3-1-4-1.5c-3.8-1.9-3.3,1.6-4.6,3.6c-0.5,0.8-2.4,4.9-2.3,7
				c0,2.1,13.5,4.4,17.5,5.5c3.9,1.1,5.2-4.2,5.8-7.4C101.4,69.8,102.7,66.6,99.5,67.3z"/>
			<path class="st7" d="M99.4,67c-1.1,0.2-2.7,0.2-4.5-0.1c-0.4,1.2-0.8,2.1-0.8,2.1L93,68.9c0,0,0.4-0.9,0.8-2.2
				c-1.5-0.3-3-0.6-4.5-1c-0.3-0.1-0.7-0.2-1-0.3c-1.5-0.5-3-1-4-1.5c-3.8-1.9-3.3,1.6-4.6,3.6c-0.5,0.8-2.4,4.9-2.3,7
				c0,2.1,13.5,4.4,17.5,5.5c3.9,1.1,5.2-4.2,5.8-7.4C101.4,69.5,102.6,66.3,99.4,67z"/>
			<path class="st12" d="M94.9,60.8c0,0-0.3-0.6-0.9-1.3c0,0,0,0,0,0c-2-1.9-4.9,4.4-5.6,6c0.3,0.1,0.6,0.2,1,0.3
				c0.6-1,2.4-4.1,2.7-4.7c0,0,0,0,0,0c0-0.3,0.1-0.7,0.1-0.9c0.2-0.9,1.1-0.8,1.5-0.7c0,0,0,0,0,0c0,0,0,0,0,0
				c0.3,0.1,1.2,1.5,1.1,3.6c0,0,0,0,0,0c-0.1,1.1-0.5,2.6-1,3.8C93.4,68,93,68.9,93,68.9l1.1,0.1c0,0,0.4-0.9,0.8-2.1
				c0.4-1.3,0.8-3,0.7-4.1C95.5,62.2,95.3,61.5,94.9,60.8z"/>
			<path class="st7" d="M82.7,64c0,0,3.4,3.4,10.2,3.7"/>
			<path class="st7" d="M81.7,68.1c0,0,13.3,4.5,18.6,5.1"/>
		</g>
		<g>
			<path class="st13" d="M116.7,59.5c0.1-0.4,0.4-1.7,0.4-2.9c0.1-1.5-0.3-3-1.8-2.6c-2.4,0.6-3.9,6.3-6,7.8
				c-0.6,0.4-1.7,0.8-3.1,1.1c-3.3,0.6-7.8,0.7-9.3-0.3L96.8,64l-0.1,0.7l0,0.2l-0.2,1c0,0,0.3,0.1,0.7,0.2c0.6,0.2,1.6,0.4,2.9,0.7
				c3.6,0.7,9,1.3,11.9-0.6c0.1-0.1,0.2-0.1,0.3-0.2C115.9,63.4,116.5,60.3,116.7,59.5z"/>
			<path class="st7" d="M116.9,59.4c0.1-0.4,0.4-1.7,0.4-2.9c0.1-1.5-0.3-3-1.8-2.6c-2.4,0.6-3.9,6.3-6,7.8
				c-0.6,0.4-1.7,0.8-3.1,1.1c-3.3,0.6-7.8,0.7-9.3-0.3l-0.3,1.5l-0.1,0.7l0,0.2l-0.2,1c0,0,0.3,0.1,0.7,0.2
				c0.6,0.2,1.6,0.4,2.9,0.7c3.6,0.7,9,1.3,11.9-0.6c0.1-0.1,0.2-0.1,0.3-0.2C116,63.3,116.6,60.2,116.9,59.4z"/>
		</g>
		<path class="st10" d="M97.1,62.7c0,0-0.9-1.8-1.7-1.6c-0.9,0.2-1,1.3-0.8,1.5c0.3,0.2,0.9-0.2,0.9-0.2s-0.1,0.8,0.4,1.2"/>
	</g>
	<g>
		<path class="st2" d="M132.9,113.8c0.5,2.2,7.6,0.3,9.6,0.4c2,0.2,11.9,1.1,10.6-1.2c-1.3-2.3-14.7-0.1-16.5-0.1
			C134.9,112.9,132.6,112.4,132.9,113.8z"/>
		<g>
			<path class="st14" d="M152.1,50.7c0,0-0.6-0.7-0.4-1.7c0,0,0.6-3.6,5.7-3.1c3.2,0.3,3.6,4.4,3.8,5.8c0.3,3.4,3.9,3.6,5.1,5.1
				c1.2,1.5,0.6,3.7-1.2,4.2c-3.5,0.9-6,1.1-8-1.5c-0.8-1-2.6,0.4-4.4-1s0-4.9,0.2-5.5C153.1,52.3,152.1,50.7,152.1,50.7"/>
			<path class="st13" d="M160.4,68.2c0.5-2.4-1.9-7.4-0.7-9.3c0.6-0.9,1.3-0.9,2.1-0.5c-1.1-1.3-2.3-1.9-3.7-1.8c0,0,0.1,2-2.2,2
				c-0.8,0-1.7-0.5-1.1-1.1c0,0,0-0.1,0-0.2c-0.5,0.2-1,0.4-1.6,0.7c0,0-3.5,1.4-2.4,12.4C154,70.2,159.9,70.2,160.4,68.2z"/>
			<path class="st13" d="M164.6,70.1c-2,3.4-10.3,3.5-13.5,3.4c0.2,2.4,0.4,3.8,2.1,4.9c0.1,0.1,0.2,0.1,0.3,0.2
				c0.4,0.2,0.9,0.4,1.5,0.6c1.9,0.5,4.4,0.6,6.4,0c0.7-0.2,1.4-0.5,1.9-0.8c0.6-0.5,1-1,1.1-1.8C164.6,74.2,164.7,72.1,164.6,70.1z
				"/>
			<path class="st2" d="M146.7,112.8c0.5,2.2,7.6,0.3,9.6,0.4c2,0.2,11.9,1.1,10.6-1.2s-14.7-0.1-16.5-0.1
				C148.6,111.9,146.3,111.4,146.7,112.8z"/>
			<path class="st14" d="M160.2,110.4C160.2,110.4,160.2,110.4,160.2,110.4l0.2,2h4.1l-0.5-4l-3.2,0.3L160.2,110.4z"/>
			<path class="st14" d="M160.1,110.4l-0.3-2l-3.2,0.3l-0.5,1.7c-1.8-0.3-6.5,2-6.5,2h4.1h6.7L160.1,110.4z"/>
			<path class="st15" d="M159.7,107.8c0.1,0.3,0.2,0.6,0.3,0.9l0.6-0.1l0,0l3.2-0.3c0,0-1.9-16.7-0.5-30.2c-0.5,0.4-1.2,0.7-1.9,0.8
				C159.1,90.9,159.5,105,159.7,107.8z"/>
			<path class="st15" d="M161.8,79.1c-2,0.5-4.6,0.4-6.4,0c-0.6-0.2-1.1-0.3-1.5-0.6c-0.1-0.1-0.2-0.1-0.3-0.2
				c-0.2,4.1-0.6,16.8,2.5,30.4l4-0.4c0,0,0-0.2,0-0.5C159.9,105,159.4,90.9,161.8,79.1z"/>
			<path class="st12" d="M149.7,70.7l0.2,2.3c0,0-0.6,0.5-2,0.4s-1.7-1.9-4.2,0.2c-1.6,0.2,0.6-2.5,2.9-2.4
				C148.7,71.3,149.7,70.7,149.7,70.7z"/>
			<path class="st7" d="M160,110.4C160,110.4,160,110.4,160,110.4l0.2,2h4.1l-0.5-4l-3.2,0.3L160,110.4z"/>
			<path class="st7" d="M159.7,107.8c0.1,0.3,0.2,0.6,0.3,0.9l0.6-0.1l0,0l3.2-0.3c0,0-1.9-16.7-0.5-30.2c-0.5,0.4-1.2,0.7-1.9,0.8
				C159.1,90.9,159.5,105,159.7,107.8z"/>
			<path class="st7" d="M161.4,79.1c-2,0.5-4.6,0.4-6.4,0c-0.6-0.2-1.1-0.3-1.5-0.6c-0.1-0.1-0.2-0.1-0.3-0.2
				c-0.2,4.1-0.6,16.8,2.5,30.4l4-0.4c0,0,0-0.2,0-0.5C159.5,105,159.1,90.9,161.4,79.1z"/>
			<path class="st7" d="M160.4,68c0.5-2.4-1.9-7.4-0.7-9.3c0.6-0.9,1.3-0.9,2.1-0.5c-1.1-1.3-2.3-1.9-3.7-1.8c0,0,0.1,2-2.2,2
				c-0.8,0-1.7-0.5-1.1-1.1c0,0,0-0.1,0-0.2c-0.5,0.2-1,0.4-1.6,0.7c0,0-3.5,1.4-2.4,12.4C154,70.1,159.9,70.1,160.4,68z"/>
			<path class="st7" d="M164.6,70c-2,3.4-10.3,3.5-13.5,3.4c0.2,2.4,0.4,3.8,2.1,4.9c0.1,0.1,0.2,0.1,0.3,0.2
				c0.4,0.2,0.9,0.4,1.5,0.6c1.9,0.5,4.4,0.6,6.4,0c0.7-0.2,1.4-0.5,1.9-0.8c0.6-0.5,1-1,1.1-1.8C164.6,74,164.7,71.9,164.6,70z"/>
			<path class="st7" d="M159.9,110.4l-0.3-2l-3.2,0.3l-0.5,1.7c-1.8-0.3-6.5,2-6.5,2h4.1h6.7L159.9,110.4z"/>
			<path class="st2" d="M164.1,60.8c-0.2-0.4-1.2-1.9-2.3-2.4c-0.7-0.4-1.5-0.4-2.1,0.5c-1.3,1.9,1.2,6.9,0.7,9.3
				c-0.5,2.1-6.4,2.1-9.5,2.2c-0.5,0-0.9,0.1-1.2,0.1l0.2,3c0,0,0.5,0,1.3,0.1c3.2,0.1,11.5,0,13.5-3.4c0.1-0.2,0.3-0.5,0.3-0.7
				C166.4,64.3,164.4,61.5,164.1,60.8z"/>
			<path class="st7" d="M164.1,60.6c-0.2-0.4-1.2-1.9-2.3-2.4c-0.7-0.4-1.5-0.4-2.1,0.5c-1.3,1.9,1.2,6.9,0.7,9.3
				c-0.5,2.1-6.4,2.1-9.5,2.2c-0.5,0-0.9,0.1-1.2,0.1l0.2,3c0,0,0.5,0,1.3,0.1c3.2,0.1,11.5,0,13.5-3.4c0.1-0.2,0.3-0.5,0.3-0.7
				C166.4,64.1,164.4,61.3,164.1,60.6z"/>
			<path class="st12" d="M158.1,56.4C158.1,56.4,158.1,56.4,158.1,56.4l0-2.7c0,0,0,0,0,0c-0.3,0.6-1.2,1.6-2.8,2.1
				c-0.1,0-0.2,0-0.4,0c0,0.5,0,1,0,1.4c0,0.1,0,0.1,0,0.2c-0.7,0.5,0.2,1.1,1.1,1.1C158.2,58.4,158.1,56.4,158.1,56.4z"/>
			<path class="st12" d="M152.4,49.5c0-0.1,0.1-0.3,0.1-0.4c0,0,0,0,0,0c0-0.1,0-0.1,0.1-0.2c0,0,0,0,0,0c0-0.1,0.1-0.1,0.1-0.2
				c0,0,0,0,0,0c0-0.1,0.1-0.1,0.1-0.2c0,0,0,0,0,0c0-0.1,0.1-0.1,0.1-0.2c0,0,0,0,0,0c0.1-0.1,0.2-0.2,0.4-0.3c0,0,0.2,0.9,0.8,1.5
				c0.5,0.5,1.3,0.7,2.5,0.2c0,0.9,0.2,1.3,0.4,1.4c0.2,0.2,0.4,0.1,0.4,0.1c0-0.8,0.7-0.7,0.7-0.7s0,0,0,0c0,0,0.1,0,0.1,0
				c0.1,0,0.1,0,0.2,0.1c0,0,0,0,0,0c0.1,0,0.1,0.1,0.2,0.1c0,0,0,0,0,0c0,0,0.1,0.1,0.1,0.2c0,0,0,0,0,0c0,0.1,0.1,0.1,0.1,0.2
				c0,0.1,0,0.3,0,0.5c0,0,0,0,0,0c0,0.1,0,0.1-0.1,0.2c0,0,0,0,0,0.1c0,0.1-0.1,0.1-0.1,0.1c0,0,0,0,0,0c0,0-0.1,0.1-0.1,0.1
				c0,0,0,0,0,0c0,0-0.1,0.1-0.1,0.1c0,0,0,0,0,0c0,0,0,0-0.1,0c0,0,0,0,0,0c0,0,0,0,0,0c0,0,0,0,0,0c0,0,0,0,0,0c0,0,0,0,0,0
				c0,0,0,0,0,0c0,0,0,0-0.1,0c0,0,0,0,0,0c0,0,0,0,0,0c0,0,0,0,0,0c0,0,0,0,0,0c0,0,0,0,0,0c0,0,0,0,0,0s-0.2,0.7,0.2,1.3
				c0,0,0,0,0,0c-0.3,0.6-1.2,1.6-2.8,2.1c-0.1,0-0.2,0-0.4,0c-1-0.2-2.1-1.4-2.4-2.8C152.3,52.1,152.3,50.4,152.4,49.5z"/>
			<g>
				<path class="st16" d="M153.1,50.7c0.1,0,0.2,0.1,0.2,0.2s-0.1,0.2-0.2,0.2c-0.1,0-0.2-0.1-0.2-0.2S153,50.7,153.1,50.7z"/>
				<circle class="st16" cx="155.8" cy="50.9" r="0.2"/>
				<path class="st7" d="M154.1,51c0,0,0.5,0.9-0.3,0.9c0,0-0.1,0.7,0.8,0.5"/>
				<path class="st7" d="M153.8,53.6c0,0,1,0.4,1.7-0.3"/>
			</g>
			<path class="st7" d="M158.5,54.1c-0.9-0.7-0.6-1.8-0.6-1.8s0.7,0.2,1-0.8c0.3-1-0.7-1.1-0.7-1.1s-0.7-0.1-0.7,0.7
				c0,0-0.8,0.3-0.8-1.5c-2.8,1.2-3.4-1.7-3.4-1.7c-1.1,0.7-1,2.4-1,2.4s-0.6-0.7-0.4-1.7c0,0,0.6-3.6,5.7-3.1
				c3.2,0.3,3.6,4.4,3.8,5.8c0.3,3.4,3.9,3.6,5.1,5.1c1.2,1.5,0.6,3.7-1.2,4.2c0,0-0.5,0.1-1.2,0"/>
			<path class="st7" d="M153.5,47.6c0,0,0.8-1.5,2.2-1.7"/>
		</g>
		<g>
			<path class="st14" d="M149.4,75c-0.1,0.4-0.4,0.3-2.1,0.1c-1.7-0.2-3.7,0-4-0.1c-0.4-0.1-0.3-0.4-0.3-0.6c0-0.2,0.4-0.5,1.2-0.4
				c0.8,0.1,4.2,0.5,4.6,0.4S149.4,74.6,149.4,75z"/>
			<path class="st17" d="M148.4,88c0.1,0.5,0.2-12.5,0.2-12.6h-0.4c0,0.1-0.1,13.1-0.2,12.6H148.4z"/>
			<path class="st18" d="M151.7,96.9c0.5-5,0.1-8-2.1-8.3c-2.2-0.3-8.8,0.3-11.5,0s-4,1-3.9,3.1c0.1,2.2,0.1,16.9,0,18.4
				c-0.1,1.4-0.3,2.6,2.2,2.5c2.5-0.1,12.3-0.2,13.6,0s1.4-0.8,1.5-2.5C151.6,108.3,151.5,98.7,151.7,96.9z"/>
			<path class="st7" d="M152,96.8c0.5-5,0.1-8-2.1-8.3c-2.2-0.3-8.8,0.3-11.5,0s-4,1-3.9,3.1c0.1,2.2,0.1,16.9,0,18.4
				c-0.1,1.4-0.3,2.6,2.2,2.5c2.5-0.1,12.3-0.2,13.6,0s1.4-0.8,1.5-2.5C151.8,108.2,151.8,98.6,152,96.8z"/>
			<path class="st7" d="M149.3,75c-0.1,0.4-0.4,0.3-2.1,0.1c-1.7-0.2-3.7,0-4-0.1c-0.4-0.1-0.3-0.4-0.3-0.6c0-0.2,0.4-0.5,1.2-0.4
				c0.8,0.1,4.2,0.5,4.6,0.4S149.4,74.5,149.3,75z"/>
			<path class="st7" d="M148.6,88c0.1,0.5,0.2-12.5,0.2-12.6"/>
			<path class="st7" d="M148.3,75.4c0,0.1-0.1,13.1-0.2,12.6"/>
			<path class="st17" d="M143.5,88c0.1,0.5,0.2-12.5,0.2-12.6h-0.4c0,0.1-0.1,13.1-0.2,12.6H143.5z"/>
			<path class="st7" d="M143.6,88c0.1,0.5,0.2-12.5,0.2-12.6"/>
			<path class="st7" d="M143.4,75.4c0,0.1-0.1,13.1-0.2,12.6"/>
			<path class="st7" d="M145.2,111.2c0,0,0.1-16.2,0.2-17.2c0.1-1,0-3.2-0.5-3.2c-0.4,0-0.3,2.5-0.2,3.2c0.1,0.7-0.3,17.2-0.3,17.2"
				/>
			<path class="st7" d="M138.1,111.2c0,0,0.1-16.2,0.2-17.2c0.1-1,0-3.2-0.5-3.2c-0.4,0-0.3,2.5-0.2,3.2c0.1,0.7-0.3,17.2-0.3,17.2"
				/>
			<path class="st7" d="M142.6,111.2c0,0,0.1-15.2,0-16.2c-0.1-1-0.1-4.1,0.3-4.1s0.3,6.5,0.2,7.3c-0.1,0.7,0.3,13.1,0.3,13.1"/>
			<path class="st7" d="M140.1,111.2c0,0,0.1-15.2,0-16.2c-0.1-1-0.1-4.1,0.3-4.1s0.3,6.5,0.2,7.3c-0.1,0.7,0.3,13.1,0.3,13.1"/>
			<path class="st7" d="M150.9,90.3c0,0-0.3-0.4-1.3-0.4s-1.7,0.1-1.7,0.9c0,1-0.2,18.7-0.4,19.6c-0.2,1,0.4,1.2,0.4,1.2"/>
			<g>
				<path class="st13" d="M147.5,112.7c0,0.5,0.4,1,1,1c0.5,0,1-0.4,1-1H147.5z"/>
				<path class="st7" d="M147.7,112.6c0,0.5,0.4,1,1,1s1-0.4,1-1H147.7z"/>
			</g>
			<g>
				<path class="st13" d="M137.4,112.7c0,0.5,0.4,1,1,1s1-0.4,1-1H137.4z"/>
				<path class="st7" d="M137.6,112.6c0,0.5,0.4,1,1,1c0.5,0,1-0.4,1-1H137.6z"/>
			</g>
		</g>
	</g>
	<path class="st2" d="M101.8,113.3c1.6,0.8,2.4,0.5,5.1,0.9c2.7,0.4,20.2,0.2,20.3-1.3c0.2-2.3-17.2-1-19.5-0.9
		C103.5,112.2,98.7,111.7,101.8,113.3z"/>
	<g>
		<path class="st19" d="M109.4,112.3c-2.3,0.3-4.7,1.1-2.2,1.3c2.5,0.2,9.7-1.1,11-1.8l-0.2-4.3l-3.4,0
			C114.6,107.5,111.7,112,109.4,112.3z"/>
		<path class="st19" d="M109.4,112.3c-2.3,0.3-4.7,1.1-2.2,1.3c2.5,0.2,9.7-1.1,11-1.8l-0.2-4.3l-3.4,0
			C114.6,107.5,111.7,112,109.4,112.3z"/>
		<path class="st19" d="M109.4,112.3c-2.3,0.3-4.7,1.1-2.2,1.3c2.5,0.2,9.7-1.1,11-1.8l-0.2-4.3l-3.4,0
			C114.6,107.5,111.7,112,109.4,112.3z"/>
		<path class="st19" d="M109.4,112.3c-2.3,0.3-4.7,1.1-2.2,1.3c2.5,0.2,9.7-1.1,11-1.8l-0.2-4.3l-3.4,0
			C114.6,107.5,111.7,112,109.4,112.3z"/>
		<path class="st7" d="M109.2,112.1c-2.3,0.3-4.7,1.1-2.2,1.3c2.5,0.2,9.7-1.1,11-1.8l-0.2-4.3l-3.4,0
			C114.4,107.3,111.5,111.9,109.2,112.1z"/>
		<path class="st7" d="M109.2,112.1c-2.3,0.3-4.7,1.1-2.2,1.3c2.5,0.2,9.7-1.1,11-1.8l-0.2-4.3l-3.4,0
			C114.4,107.3,111.5,111.9,109.2,112.1z"/>
		<path class="st7" d="M109.2,112.1c-2.3,0.3-4.7,1.1-2.2,1.3c2.5,0.2,9.7-1.1,11-1.8l-0.2-4.3l-3.4,0
			C114.4,107.3,111.5,111.9,109.2,112.1z"/>
		<path class="st7" d="M109.2,112.1c-2.3,0.3-4.7,1.1-2.2,1.3c2.5,0.2,9.7-1.1,11-1.8l-0.2-4.3l-3.4,0
			C114.4,107.3,111.5,111.9,109.2,112.1z"/>
		<path class="st15" d="M118.5,107.6c0,0-1.9-22.1,0.4-32.2c-0.8,0.6-1.9,0.8-3.1,0.8c-1.5,0-3.1-0.4-4.5-0.9
			c-0.2,1.5-0.7,5.1-0.5,10.2c0.1,5.5,1.1,14.1,3.4,22.5L118.5,107.6z"/>
		<path class="st7" d="M118.3,107.4c0,0-1.9-22.1,0.4-32.2c-0.8,0.6-1.9,0.8-3.1,0.8c-1.5,0-3.1-0.4-4.5-0.9
			c-0.2,1.5-0.7,5.1-0.5,10.2c0.1,5.5,1.1,14.1,3.4,22.5L118.3,107.4z"/>
	</g>
	<g>
		<path class="st19" d="M114,112.3c-2.3,0.3-4.7,1.1-2.2,1.3c2.5,0.2,9.7-1.1,11-1.8l-0.2-4.3l-3.4,0
			C119.2,107.5,116.2,112,114,112.3z"/>
		<path class="st19" d="M114,112.3c-2.3,0.3-4.7,1.1-2.2,1.3c2.5,0.2,9.7-1.1,11-1.8l-0.2-4.3l-3.4,0
			C119.2,107.5,116.2,112,114,112.3z"/>
		<path class="st19" d="M114,112.3c-2.3,0.3-4.7,1.1-2.2,1.3c2.5,0.2,9.7-1.1,11-1.8l-0.2-4.3l-3.4,0
			C119.2,107.5,116.2,112,114,112.3z"/>
		<path class="st19" d="M114,112.3c-2.3,0.3-4.7,1.1-2.2,1.3c2.5,0.2,9.7-1.1,11-1.8l-0.2-4.3l-3.4,0
			C119.2,107.5,116.2,112,114,112.3z"/>
		<path class="st7" d="M113.8,112.1c-2.3,0.3-4.7,1.1-2.2,1.3c2.5,0.2,9.7-1.1,11-1.8l-0.2-4.3l-3.4,0
			C119,107.3,116,111.9,113.8,112.1z"/>
		<path class="st7" d="M113.8,112.1c-2.3,0.3-4.7,1.1-2.2,1.3c2.5,0.2,9.7-1.1,11-1.8l-0.2-4.3l-3.4,0
			C119,107.3,116,111.9,113.8,112.1z"/>
		<path class="st7" d="M113.8,112.1c-2.3,0.3-4.7,1.1-2.2,1.3c2.5,0.2,9.7-1.1,11-1.8l-0.2-4.3l-3.4,0
			C119,107.3,116,111.9,113.8,112.1z"/>
		<path class="st7" d="M113.8,112.1c-2.3,0.3-4.7,1.1-2.2,1.3c2.5,0.2,9.7-1.1,11-1.8l-0.2-4.3l-3.4,0
			C119,107.3,116,111.9,113.8,112.1z"/>
		<path class="st15" d="M123,107.6c0,0-1.9-22.1,0.4-32.2c-0.8,0.6-1.9,0.8-3.1,0.8c-1.5,0-3.1-0.4-4.5-0.9
			c-0.2,1.5-0.7,5.1-0.5,10.2c0.1,5.5,1.1,14.1,3.4,22.5L123,107.6z"/>
		<path class="st7" d="M122.8,107.4c0,0-1.9-22.1,0.4-32.2c-0.8,0.6-1.9,0.8-3.1,0.8c-1.5,0-3.1-0.4-4.5-0.9
			c-0.2,1.5-0.7,5.1-0.5,10.2c0.1,5.5,1.1,14.1,3.4,22.5L122.8,107.4z"/>
	</g>
	<path class="st2" d="M118.9,53.8c1.8,0.7,2.9,0.9,4,3.4c1.8,3.6,1.5,10.8,1.5,10.8c-0.1,2-0.2,4.3-0.6,6.8
		c-0.1,0.5-0.3,0.9-0.6,1.3c-0.6,0.7-1.7,1.1-2.9,1.4c-1.4,0.3-3.1,0.3-4.6,0.1c-1.3-0.2-2.4-0.5-3.3-0.9c-1.3-0.7-2.1-2-2.1-2
		c-0.4-0.9-0.5-2-0.6-3.4c0-1,0-2.2-0.1-3.6c-0.7-11.7,3.2-13,3.2-13c0.6-0.3,1.2-0.5,1.7-0.7C114.6,54,117.4,53.4,118.9,53.8z"/>
	<path class="st7" d="M118.9,53.8c1.8,0.7,2.9,0.9,4,3.4c1.8,3.6,1.5,10.8,1.5,10.8c-0.1,2-0.2,4.3-0.6,6.8
		c-0.1,0.5-0.3,0.9-0.6,1.3c-0.6,0.7-1.7,1.1-2.9,1.4c-1.4,0.3-3.1,0.3-4.6,0.1c-1.3-0.2-2.4-0.5-3.3-0.9c-1.3-0.7-2.1-2-2.1-2
		c-0.4-0.9-0.5-2-0.6-3.4c0-1,0-2.2-0.1-3.6c-0.7-11.7,3.2-13,3.2-13c0.6-0.3,1.2-0.5,1.7-0.7C114.6,54,117.4,53.4,118.9,53.8z"/>
	<g>
		<path class="st12" d="M118.9,48.7c0.4-1.1-0.7-1.3-0.7-1.3s-0.8-0.1-0.8,0.8l0,0.7l-0.5,0.1c-1.1-1.2-0.4-2.6-0.4-2.6
			c-0.7,0.1-1.2,0.1-1.8,0.1c-1.3-0.1-2.3-0.7-3-1.2c-0.3,0.7-0.5,3.4-0.3,4.6c0.3,1.9,0.9,3.3,3.1,3.4c0,0,0,0,0,0
			c1.4,0.1,2.8-0.6,3.9-1.7c-0.5-0.4-0.7-1-0.7-1.4c0-0.4,0.1-0.7,0.1-0.7S118.5,49.9,118.9,48.7z"/>
		<path class="st19" d="M119.1,52.2c-1.9-0.7-1.4-2.5-1.4-2.5s0.8,0.3,1.2-0.8c0.4-1.1-0.7-1.3-0.7-1.3s-0.8-0.1-0.8,0.8l0,0.7
			l-0.5,0.1c-1.1-1.2-0.4-2.6-0.4-2.6c-4,0.7-5.7-2.2-5.7-2.2c-0.6-0.9,0.3-1.7,0.7-1.8c0,0,0.8-0.3,1.3,0.1c0,0-0.3,0.5-0.2,0.5
			c0.1,0,9.9-2.4,8,3.6S119.1,52.2,119.1,52.2z"/>
		<path class="st7" d="M111.8,43.1c0,0,7.1-1.9,8.5,0.7c0.6,1.1,0.9,2.5,0,4.3c-0.5,1-1,1.6-1.2,3.8c-1.9-0.7-1.4-2.5-1.4-2.5
			s0.8,0.3,1.2-0.8c0.4-1.1-0.7-1.3-0.7-1.3s-0.8-0.1-0.8,0.8l0,0.7l-0.5,0.1c-1.1-1.2-0.4-2.6-0.4-2.6c-4,0.7-5.7-2.2-5.7-2.2
			c-0.6-0.9,0.3-1.7,0.7-1.8"/>
		<g>
			<ellipse class="st16" cx="111.8" cy="48" rx="0.2" ry="0.2"/>
			<ellipse class="st16" cx="114.9" cy="48.1" rx="0.2" ry="0.2"/>
			<path class="st7" d="M112.9,48.2c0,0,0.6,1-0.4,1c-0.8,0-0.7,0-0.8,0.2c0,0.2-0.1,0.5,0.6,0.6c0.5,0.1,0.6,0,0.6,0"/>
			<path class="st7" d="M112.4,51.1c0,0,1.2,0.5,2-0.2"/>
		</g>
		<path class="st12" d="M118.2,54l0-0.4l0.1-1.9c-1.1,1.1-2.5,1.8-3.9,1.7c0,0.2,0,0.5,0,0.8c0,0.3,0,0.6-0.1,0.8
			c-0.8,0.7,0.2,1.4,1.2,1.4C118.2,56.5,118.2,54,118.2,54z"/>
	</g>
	<g>
		<g>
			<path class="st13" d="M123.4,62.5c0-0.4-0.3-1.7-0.7-2.9c-0.5-1.4-1.4-2.7-2.6-1.8c-2,1.5-1.2,7.3-2.6,9.5
				c-0.4,0.6-1.3,1.4-2.4,2.1c-2.8,1.8-6.9,3.5-8.7,3.2l0.3,1.5l0.2,0.7l0,0.2l0.2,1c0,0,0.3,0,0.7-0.1c0.6-0.1,1.7-0.2,2.9-0.5
				c3.6-0.7,8.8-2.1,10.8-5c0.1-0.1,0.1-0.2,0.2-0.3C124,66.4,123.4,63.4,123.4,62.5z"/>
			<path class="st7" d="M123.5,62.4c0-0.4-0.3-1.7-0.7-2.9c-0.5-1.4-1.4-2.7-2.6-1.8c-2,1.5-1.2,7.3-2.6,9.5
				c-0.4,0.6-1.3,1.4-2.4,2.1c-2.8,1.8-6.9,3.5-8.7,3.2l0.3,1.5l0.2,0.7l0,0.2l0.2,1c0,0,0.3,0,0.7-0.1c0.6-0.1,1.7-0.2,2.9-0.5
				c3.6-0.7,8.8-2.1,10.8-5c0.1-0.1,0.1-0.2,0.2-0.3C124.1,66.3,123.5,63.2,123.5,62.4z"/>
		</g>
		<path class="st12" d="M107,75.5l-0.5-2.4c0,0-0.8-0.3-2.2,0.1c-1.4,0.5-4.7,1.6-4.5,2c0.6,0.7,2.3-0.1,3.6-0.4
			C104.3,75,107,75.5,107,75.5z"/>
	</g>
	<g>
		<path class="st20" d="M74.7,100.2l0.4,2.6c0,0,13.2-1.1,16.4-3.5s3.6-4.4,3.9-5.4s1-3.3,0-4.6c0,0-0.1-6.3-0.8-7.3
			C94.5,82.1,81.3,87.1,74.7,100.2z"/>
		<path class="st7" d="M74.7,100.2l0.4,2.6c0,0,13.2-1.1,16.4-3.5s3.6-4.4,3.9-5.4s1-3.3,0-4.6c0,0-0.1-6.3-0.8-7.3
			C94.5,82.1,81.3,87.1,74.7,100.2z"/>
		<path class="st2" d="M16.6,103.7c9,0.4,24.4-0.5,24.4-0.5S39.9,86,55.7,83.9c15.8-2,18.7,16.3,18.7,16.3s8.6-2.5,10.2-6.7
			c1.6-4.2-1-3.3,5.1-6.3c6.1-3,4.3-5.2,4.2-8.4c-0.1-3.2-5.3-2.1-5.3-2.1s-0.7-3-0.9-4c-0.2-0.9-13.5-14.5-15.1-15.5
			c-1.7-1.1-2-6.5-2-6.5l-2.3-0.5l0.8-2.8c-10.1-1.3-51.9-1.9-51.9-1.9"/>
		<path class="st21" d="M16.9,77.3c0,0,40.7-0.1,41.4,2.6c0.7,2.6-41.4,7.1-41.4,7.1V77.3z"/>
		<ellipse class="st21" cx="39.6" cy="74" rx="3.7" ry="2.4"/>
		<path class="st7" d="M16.9,103.7c9,0.4,24.4-0.5,24.4-0.5S40.2,86,56,83.9c15.8-2,18.7,16.3,18.7,16.3s8.6-2.5,10.2-6.7
			c1.6-4.2-1-3.3,5.1-6.3c6.1-3,4.3-5.2,4.2-8.4c-0.1-3.2-5.3-2.1-5.3-2.1s-0.7-3-0.9-4c-0.2-0.9-13.5-14.5-15.1-15.5s-2-6.5-2-6.5
			l-2.3-0.5l0.8-2.8c-10.1-1.3-51.9-1.9-51.9-1.9"/>
		<path class="st7" d="M16.4,106.7"/>
		<g>
			<path class="st20" d="M57.3,86.6c6.1-0.1,15.9,5,15.2,16.4c-0.6,9.7-9.6,12.6-15.2,12.8c-5.5,0.1-13.5-4-13.7-14.6
				C43.5,91.4,51.4,86.6,57.3,86.6z"/>
			<path class="st7" d="M57,86.4c6.1-0.1,15.9,5,15.2,16.4c-0.6,9.7-9.6,12.6-15.2,12.8c-5.5,0.1-13.5-4-13.7-14.6
				C43.2,91.3,51.1,86.5,57,86.4z"/>
			<path class="st2" d="M47.9,97.4c1.8-4.1,8-9.1,15.4-5.3c6.3,3.3,5.6,10.1,4,13.9c-1.5,3.7-6.7,7.8-13.7,4.8
				C47,108,46.2,101.3,47.9,97.4z"/>
			<path class="st7" d="M47.8,97.2c1.8-4.1,8-9.1,15.4-5.3c6.3,3.3,5.6,10.1,4,13.9s-6.7,7.8-13.7,4.8
				C47,107.9,46.1,101.2,47.8,97.2z"/>
			<circle class="st22" cx="55.9" cy="99.5" r="0.7"/>
			<circle class="st22" cx="59.4" cy="99.5" r="0.7"/>
			<circle class="st22" cx="59.4" cy="103" r="0.7"/>
			<circle class="st22" cx="55.9" cy="103" r="0.7"/>
			<path class="st22" d="M58.8,92.6c0,0,3.7,0.6,4.9,2.6c0,0-1.7,3.6-4.2,2.5S58.6,93.1,58.8,92.6z"/>
			<path class="st22" d="M65.5,105.2c0,0,1.6-3.4,0.6-5.5c0,0-3.9-0.6-4.4,2.1C61.3,104.6,65,105.1,65.5,105.2z"/>
			<path class="st22" d="M61.3,109.2c0,0-3.5,1.4-5.5,0.4c0,0-0.5-4,2.3-4.3C60.9,105,61.2,108.7,61.3,109.2z"/>
			<path class="st22" d="M53.5,93.6c0,0-3.2,1.9-3.6,4.1c0,0,2.9,2.8,4.8,0.8C56.6,96.5,53.9,94,53.5,93.6z"/>
			<path class="st22" d="M51.5,107.5c0,0-2.6-2.8-2.3-5c0,0,3.5-1.9,4.8,0.6C55.3,105.6,52,107.2,51.5,107.5z"/>
		</g>
		<path class="st7" d="M15.3,67.4c0,0,18.6-0.2,31.9-2c0,0,3.4,4.5,2.9,6.8c-0.5,2.3-7.8,15.3-10,20.2c-2.2,4.9-2.9,10.2-5.7,10.3
			c-2.9,0.2-15.4,0.7-17.5,0"/>
		<path class="st7" d="M33.9,73.6c-0.2-0.5,1.9-1,6-1.2s4.7,0.2,4.7,0.8s-2.9,0.9-2.9,0.9s0.1-0.5-2.6-0.4s-2.7,0.6-2.7,0.6
			S34.2,74.4,33.9,73.6z"/>
		<path class="st2" d="M72.5,47.8c-1.6-0.2-1.6-1.6,0-3.9s14.5-15.7,19.7-15.8c5.3-0.1,6.4,0,6.4,0s1.3,3.5,0.8,5.6
			c0,0-2.3,1.4-2.5,2.3c0,0-3.2,1.3-5.8,3.9c-2.6,2.6-11.1,9-13.4,8.8C75.4,48.6,72.5,47.8,72.5,47.8z"/>
		<path class="st7" d="M72.5,47.6c-1.6-0.2-1.6-1.6,0-3.9S86.9,28,92.2,27.9s6.4,0,6.4,0s1.3,3.5,0.8,5.6c0,0-2.3,1.4-2.5,2.3
			c0,0-3.2,1.3-5.8,3.9c-2.6,2.6-11.1,9-13.4,8.8C75.4,48.3,72.5,47.6,72.5,47.6z"/>
		<path class="st20" d="M15.3,98.8c0,0,18.6-0.8,19.8,0c1.2,0.8-0.5,2.1-1.8,2.3s-17.4,1-18,0.6S15.3,98.8,15.3,98.8z"/>
		<g>
			<path class="st18" d="M75.9,64.5c1.2,0.9,4.7,3.5,4.5,5.6s-2.8,5.5-2.8,5.5s6.1-0.4,7.8-0.7s1.4-1.5,2.8-1.6
				c1.4-0.1,1.5-6.5-4.9-8.8C76.9,62.2,74,63,75.9,64.5z"/>
			<path class="st23" d="M80.6,67.3c0.8,0.1,6.9,0.3,7.1-0.6s-5.3-2.3-6.6-1.3S78.8,66.9,80.6,67.3z"/>
			<path class="st7" d="M75.6,64.3c1.2,0.9,4.7,3.5,4.5,5.6c-0.2,2.1-2.8,5.5-2.8,5.5s6.1-0.4,7.8-0.7c1.7-0.2,1.4-1.5,2.8-1.6
				c1.4-0.1,1.5-6.5-4.9-8.8S73.8,62.8,75.6,64.3z"/>
		</g>
		<g>
			<path class="st24" d="M16.9,67.6c0,0,15.6-0.3,25-1.3s13.3-1.5,15.3-5.5c2-4,3.1-8.4,1.3-8.8c-10.9-2.8-42.1-3.3-42.1-3.3"/>
			<path class="st7" d="M16.4,48.5c0,0,31.3,0.5,42.1,3.3c1.8,0.4,0.7,4.8-1.3,8.8c-2,4-6,4.5-15.3,5.5c-9.4,1-25,1.3-25,1.3"/>
			<path class="st25" d="M16.5,51.2c0,0,40.6,2.4,41.3,3.7s-41.1,1-41.1,1L16.5,51.2z"/>
			<path class="st7" d="M46.7,50.9c0,0-1.1,13.5-1,14.1"/>
		</g>
	</g>
	<path class="st2" d="M3.7,113.6c6,2.9,9,1.9,18.9,3.3c9.9,1.4,74.8,0.8,75.3-4.6c0.7-8-63.6-3.7-72.4-3.2
		C9.9,109.8-7.8,108.1,3.7,113.6z"/>
</g>
</svg>
