<svg width="24" height="24" viewBox="0 0 24 24" fill="none" xmlns="http://www.w3.org/2000/svg">
<path d="M11.9999 11.0003C9.51836 11.0003 5.99993 14.8366 5.99993 17.2581C5.99993 18.3488 6.83774 19.0003 8.2418 19.0003C9.76805 19.0003 10.7759 18.2166 11.9999 18.2166C13.2346 18.2166 14.2452 19.0003 15.7581 19.0003C17.1621 19.0003 17.9999 18.3488 17.9999 17.2581C17.9999 14.8366 14.4815 11.0003 11.9999 11.0003ZM15.7581 18.0003C15.1237 18.0003 14.5765 17.82 13.9971 17.6291C13.3821 17.4263 12.7465 17.2169 11.9999 17.2169C11.2609 17.2169 10.6296 17.4253 10.019 17.6269C9.43649 17.8191 8.88618 18.0006 8.2418 18.0006C6.99993 18.0003 6.99993 17.4416 6.99993 17.2581C6.99993 15.2925 10.1309 12.0003 11.9999 12.0003C13.869 12.0003 16.9999 15.2925 16.9999 17.2581C16.9999 17.4416 16.9999 18.0003 15.7581 18.0003ZM18.8384 9.04C18.7268 9.01313 18.6134 9.00031 18.5006 9.00031C17.6927 9.00031 16.8874 9.65656 16.6024 10.6063C16.2774 11.6891 16.7515 12.7431 17.6615 12.9606C17.7734 12.9875 17.8865 13.0003 17.9993 13.0003C18.8071 13.0003 19.6124 12.3441 19.8974 11.3944C20.2224 10.3116 19.7484 9.2575 18.8384 9.04V9.04ZM18.9396 11.1069C18.7718 11.6659 18.3296 12.0003 17.9993 12.0003C17.9631 12.0003 17.9277 11.9963 17.894 11.9881C17.7784 11.9606 17.684 11.8844 17.6134 11.7616C17.4843 11.5372 17.4646 11.2131 17.5602 10.8941C17.7281 10.3347 18.1702 10.0003 18.5009 10.0003C18.5371 10.0003 18.5724 10.0044 18.6062 10.0125C18.7218 10.04 18.8162 10.1166 18.8868 10.2391C19.0156 10.4634 19.0356 10.7875 18.9396 11.1069V11.1069ZM13.9549 9.95688C14.0659 9.98594 14.1784 10 14.2912 10C15.1612 10 16.0481 9.16188 16.3756 7.96094C16.7456 6.60406 16.2618 5.29813 15.2949 5.04344C15.1852 5.01446 15.0722 4.99985 14.9587 5C14.0887 5 13.2018 5.83813 12.8743 7.03938C12.5043 8.39625 12.9881 9.7025 13.9549 9.95688ZM13.839 7.30281C14.0709 6.45281 14.6384 6.00031 14.9587 6.00031C14.9871 6.00031 15.014 6.00375 15.0402 6.01063C15.1693 6.04469 15.2627 6.16688 15.3184 6.26344C15.4771 6.53844 15.5846 7.05969 15.4106 7.69813C15.1787 8.54781 14.6115 9.00031 14.2909 9.00031C14.2624 9.00031 14.2356 8.99688 14.209 8.99C14.0802 8.95625 13.9865 8.83406 13.9309 8.7375C13.7724 8.46219 13.6649 7.94125 13.839 7.30281V7.30281ZM9.70868 10.0003C9.82149 10.0003 9.93399 9.98625 10.0449 9.95719C11.0118 9.70281 11.4956 8.39656 11.1256 7.03969C10.7981 5.83844 9.91118 5.00031 9.04118 5.00031C8.92837 5.00031 8.81586 5.01438 8.70493 5.04375C7.73805 5.29813 7.2543 6.60438 7.6243 7.96125C7.9518 9.16219 8.83899 10.0003 9.70868 10.0003ZM8.68118 6.26344C8.7368 6.16688 8.83055 6.04469 8.9593 6.01063C8.98586 6.00375 9.01243 6.00031 9.04086 6.00031C9.36149 6.00031 9.92868 6.45281 10.1606 7.30281C10.3346 7.94125 10.2271 8.4625 10.0684 8.7375C10.0127 8.83406 9.9193 8.95625 9.79024 8.99C9.76368 8.99688 9.73711 9.00031 9.70868 9.00031C9.38805 9.00031 8.82087 8.54781 8.58899 7.69781C8.41493 7.05969 8.52243 6.53844 8.68118 6.26344V6.26344ZM6.33868 12.9606C7.24868 12.7431 7.72274 11.6891 7.39743 10.6063C7.11243 9.65656 6.30711 9.00031 5.4993 9.00031C5.38618 9.00031 5.27305 9.01313 5.16149 9.04C4.25149 9.2575 3.77743 10.3116 4.10243 11.3944C4.38743 12.3441 5.19305 13.0003 6.00055 13.0003C6.11368 13.0003 6.2268 12.9875 6.33868 12.9606ZM5.06024 11.1066C4.96461 10.7875 4.9843 10.4631 5.11336 10.2391C5.18399 10.1163 5.27836 10.04 5.39399 10.0125C5.42774 10.0044 5.46305 10.0003 5.4993 10.0003C5.82961 10.0003 6.2718 10.3347 6.43961 10.8938C6.53524 11.2128 6.51555 11.5372 6.38649 11.7616C6.31586 11.8844 6.22149 11.9606 6.10586 11.9881C6.07149 11.9963 6.03711 12.0003 6.00055 12.0003C5.67024 12.0003 5.22805 11.6659 5.06024 11.1066V11.1066Z" fill="black"/>
</svg>
