<svg width="24" height="24" viewBox="0 0 24 24" fill="none" xmlns="http://www.w3.org/2000/svg">
<path d="M17.375 10.75H16.9209L16.6384 9.9025C16.385 9.14281 15.8828 8.5275 15.2478 8.08875C15.8437 7.68469 16.25 7.02281 16.25 6.25C16.25 5.00937 15.2406 4 14 4C12.7594 4 11.75 5.00937 11.75 6.25C11.75 6.51063 11.7987 6.75875 11.8812 6.99125C11.6119 6.92938 11.3384 6.89062 11.0647 6.89062C10.4225 6.89062 9.78969 7.06344 9.23219 7.39062L7.78875 8.14281C7.02187 8.60344 6.77188 9.60313 7.23125 10.3713C7.52469 10.8594 8.05875 11.1609 8.62594 11.1609C8.90656 11.1609 9.18281 11.0881 9.4275 10.9497L10.0197 10.6419L8.17969 14.75H6.625C5.72906 14.75 5 15.4791 5 16.375C5 17.2709 5.72906 18 6.625 18H8.59094C9.6425 18 10.5894 17.3753 11.0034 16.4087L11.6072 15.1669L12.9728 15.7803L12.3591 17.9284C12.1131 18.7903 12.6138 19.6916 13.475 19.9375C13.625 19.9794 13.7734 20 13.9222 20C14.6431 20 15.2853 19.5156 15.4841 18.8222L16.2466 16.1534C16.4688 15.3766 16.3097 14.5622 15.8713 13.9309C16.065 13.9763 16.2659 14 16.4712 14H17.375C18.2709 14 19 13.2709 19 12.375C19 11.4791 18.2709 10.75 17.375 10.75V10.75ZM14 5C14.6903 5 15.25 5.55969 15.25 6.25C15.25 6.94031 14.6903 7.5 14 7.5C13.3097 7.5 12.75 6.94031 12.75 6.25C12.75 5.55969 13.3097 5 14 5ZM10.0841 16.015C9.95912 16.3075 9.75098 16.5567 9.48552 16.7319C9.22005 16.907 8.90897 17.0002 8.59094 17H6.625C6.27969 17 6 16.7203 6 16.375C6 16.0297 6.27969 15.75 6.625 15.75H8.59094C8.74094 15.75 8.87594 15.6606 8.93563 15.5225L9.77063 13.745C9.98625 14.1425 10.3041 14.4816 10.7075 14.7272L10.0841 16.015ZM17.375 13H16.4706C16.1295 13.0003 15.797 12.8931 15.5203 12.6937C15.2436 12.4943 15.0367 12.2127 14.9291 11.8891L14.5044 10.6141C14.4159 10.3497 14.2478 10.1319 14.0356 9.96812L12.7397 13.2084L14.3891 13.9497C15.1206 14.2794 15.5053 15.1087 15.285 15.8787L14.5228 18.5469C14.4441 18.8212 14.1941 19 13.9222 19C13.865 19 13.8075 18.9922 13.7497 18.9759C13.4181 18.8813 13.2256 18.535 13.3206 18.2031L14.0828 15.535C14.1341 15.3572 14.0447 15.1659 13.8759 15.0897C13.8759 15.0897 11.1941 13.8697 11.1038 13.8034C10.5475 13.3944 10.3094 12.6634 10.5253 11.9947L11.705 9.25812C11.705 9.25812 11.1769 9.14031 11.0644 9.14031C10.8181 9.14031 10.5772 9.20719 10.3612 9.3375L8.94719 10.0725C8.84994 10.1305 8.73884 10.1611 8.62562 10.1613C8.41312 10.1613 8.20656 10.0531 8.08938 9.85813C7.91219 9.56188 8.00781 9.17781 8.30375 9.00031L9.71812 8.26531C10.1319 8.0175 10.595 7.89062 11.065 7.89062C11.2784 7.89062 11.4937 7.91687 11.7059 7.96969L13.8369 8.5025C14.7119 8.72063 15.4047 9.3625 15.6903 10.2188L16.115 11.4938C16.1662 11.6472 16.3094 11.75 16.4709 11.75H17.375C17.7203 11.75 18 12.0297 18 12.375C18 12.7203 17.7203 13 17.375 13V13Z" fill="black"/>
</svg>
