<svg width="24" height="24" viewBox="0 0 24 24" fill="none" xmlns="http://www.w3.org/2000/svg">
<g clip-path="url(#clip0_140_2886)">
<path d="M19 15V14C19 10.8331 16.8856 8.18406 14 7.32031V7C14 6.73478 13.8946 6.48043 13.7071 6.29289C13.5196 6.10536 13.2652 6 13 6H11C10.7348 6 10.4804 6.10536 10.2929 6.29289C10.1054 6.48043 10 6.73478 10 7V7.32031C7.11438 8.18406 5 10.8331 5 14V15C4.73478 15 4.48043 15.1054 4.29289 15.2929C4.10536 15.4804 4 15.7348 4 16V17C4 17.2652 4.10536 17.5196 4.29289 17.7071C4.48043 17.8946 4.73478 18 5 18H19C19.2652 18 19.5196 17.8946 19.7071 17.7071C19.8946 17.5196 20 17.2652 20 17V16C20 15.7348 19.8946 15.4804 19.7071 15.2929C19.5196 15.1054 19.2652 15 19 15ZM6 14C6 11.5387 7.5075 9.45625 9.63375 8.535L10.4462 11.7872C10.4632 11.8535 10.5037 11.9113 10.5602 11.9499C10.6167 11.9885 10.6853 12.0051 10.7532 11.9967C10.8212 11.9883 10.8837 11.9555 10.9291 11.9043C10.9745 11.8531 10.9997 11.7872 11 11.7188V7H13V11.7188C13.0009 11.7867 13.0264 11.8521 13.0718 11.9027C13.1172 11.9533 13.1794 11.9858 13.2468 11.9941C13.3143 12.0024 13.3825 11.986 13.4388 11.9479C13.4951 11.9098 13.5357 11.8526 13.5531 11.7869L14.3656 8.53469C16.4925 9.45625 18 11.5387 18 14V15H6V14ZM19 17H5V16H19V17Z" fill="black"/>
</g>
<defs>
<clipPath id="clip0_140_2886">
<rect width="16" height="16" fill="white" transform="translate(4 4)"/>
</clipPath>
</defs>
</svg>
