<svg width="24" height="24" viewBox="0 0 24 24" fill="none" xmlns="http://www.w3.org/2000/svg">
<path d="M15.725 7.3L12.7156 4.29063C12.5219 4.09688 12.2688 4 12.0156 4C11.7625 4 11.5094 4.09688 11.3156 4.29063L8.30312 7.30312C7.91875 7.6875 7.91875 8.31562 8.30312 8.7L11.3156 11.7125C11.5094 11.9063 11.7625 12.0031 12.0156 12.0031C12.2688 12.0031 12.5219 11.9063 12.7156 11.7125L15.7281 8.7C16.1125 8.3125 16.1125 7.6875 15.725 7.3V7.3ZM12.0156 11.0125L9.00313 8L12.0125 4.9875L15.025 8L12.0156 11.0125V11.0125ZM8.875 11.775C8.4375 11.175 7.34062 10.7937 6.54688 11.6531C6.05937 12.1781 6.05 12.9906 6.46875 13.5688L7.3625 14.7969C7.56563 15.075 7.15937 15.3938 6.9375 15.1313L5 12.8406V8.55625C5 7.74375 4.3375 7.01562 3.525 7.00312C2.68437 6.9875 2 7.6625 2 8.5V13.825C2 14.1656 2.11562 14.4969 2.32812 14.7625L5.67188 18.9406C5.84063 19.1531 5.95 19.4875 5.9875 19.7844C6.00312 19.9094 6.1125 20 6.2375 20H6.7375C6.8875 20 7.00313 19.8781 6.9875 19.7281C6.9375 19.2281 6.75313 18.6875 6.45312 18.3156L3.10938 14.1375C3.0375 14.05 3 13.9375 3 13.825V8.5C3 7.84375 4 7.825 4 8.52187V13.2L6.01875 15.6219C7.17188 17.0031 9.04375 15.5375 8.23125 14.2969C8.225 14.2875 8.21875 14.2813 8.21562 14.2719L7.25938 12.9531C7.1125 12.75 7.12813 12.4313 7.36875 12.2563C7.5875 12.0969 7.90312 12.1375 8.06875 12.3656L9.39375 14.1906C9.79063 14.7188 10.0031 15.3594 10.0031 16.0031V19.7531C10.0031 19.8906 10.1156 20.0031 10.2531 20.0031H10.7531C10.8906 20.0031 11.0031 19.8906 11.0031 19.7531V16.0031C11.0031 15.1375 10.7219 14.2969 10.2031 13.6031L8.875 11.775ZM22 8.5C22 7.6625 21.3156 6.9875 20.475 7C19.6625 7.0125 19 7.74062 19 8.55312V12.8375L17.0625 15.1281C16.8406 15.3906 16.4344 15.075 16.6375 14.7937L17.5312 13.5656C17.95 12.9875 17.9406 12.1719 17.4531 11.65C16.6562 10.7938 15.5594 11.1719 15.125 11.7719L13.8 13.5969C13.2813 14.2906 13 15.1344 13 16V19.75C13 19.8875 13.1125 20 13.25 20H13.75C13.8875 20 14 19.8875 14 19.75V16C14 15.3562 14.2125 14.7156 14.6094 14.1875L15.9344 12.3625C16.1 12.1344 16.4125 12.0906 16.6344 12.2531C16.8781 12.4281 16.8937 12.7469 16.7437 12.95L15.7875 14.2688C15.7813 14.2781 15.775 14.2844 15.7719 14.2937C14.9563 15.5344 16.8312 17.0031 17.9844 15.6187L20.0031 13.1969V8.51875C20.0031 7.82188 21.0031 7.84062 21.0031 8.49687V13.8219C21.0031 13.9344 20.9656 14.0469 20.8937 14.1344L17.55 18.3125C17.2531 18.6844 17.0656 19.225 17.0156 19.725C17 19.875 17.1156 19.9969 17.2656 19.9969H17.7656C17.8906 19.9969 18 19.9062 18.0156 19.7812C18.0531 19.4812 18.1594 19.15 18.3312 18.9375L21.675 14.7594C21.8875 14.4937 22.0031 14.1625 22.0031 13.8219L22 8.5Z" fill="black"/>
</svg>
