<?xml version="1.0" encoding="utf-8"?>
<!-- Generator: Adobe Illustrator 26.4.1, SVG Export Plug-In . SVG Version: 6.00 Build 0)  -->
<svg version="1.1" id="Layer_1" xmlns="http://www.w3.org/2000/svg" xmlns:xlink="http://www.w3.org/1999/xlink" x="0px" y="0px"
	 viewBox="0 0 258.8 125.4" style="enable-background:new 0 0 258.8 125.4;" xml:space="preserve">
<style type="text/css">
	.st0{fill:#DBE2D8;}
	.st1{fill:#879384;}
	.st2{fill:#F1F3F2;}
	.st3{opacity:0.3;}
	.st4{fill:#8FA487;}
	.st5{opacity:0.2;fill:#C8E3D0;}
	.st6{fill:none;stroke:#1A1A1A;stroke-width:0.2;stroke-linecap:round;stroke-linejoin:round;stroke-miterlimit:10;}
	.st7{fill:#ACC6A4;}
	.st8{opacity:0.7;fill:#C8E3D0;}
	.st9{fill:#B8B7B7;}
	.st10{fill:#F3F2C5;}
	.st11{fill:#FBFBFA;}
	.st12{opacity:0.3;fill:#B8B7B7;}
	.st13{fill:#E3E1CE;}
	.st14{fill:#CAB39B;}
	.st15{fill:#BED0E7;}
	.st16{fill:#BEB5B1;}
	.st17{fill:#E2E2E1;}
	.st18{fill:#FBFBFA;stroke:#1A1A1A;stroke-width:0.2;stroke-linecap:round;stroke-linejoin:round;stroke-miterlimit:10;}
	.st19{fill:#1A1A1A;}
	.st20{fill:#E4F0EF;}
	.st21{fill:#C9E2E9;}
	.st22{fill:#BFBEBE;}
	.st23{fill:#858484;}
	.st24{fill:#A5A4A4;}
	.st25{opacity:0.2;fill:#ABCECB;}
	.st26{fill:#816663;}
	.st27{opacity:0.3;fill:#E4F0EF;}
	.st28{fill:none;stroke:#020203;stroke-width:0.2;stroke-linecap:round;stroke-linejoin:round;stroke-miterlimit:10;}
	.st29{opacity:0.3;fill:#F3F2C5;}
</style>
<g>
	<path class="st0" d="M228.1,66.8c-4.6,46.3-41.2,67.1-72.8,55.3s-56-7.1-70.4-1.9s-95.6-18.4-78-61.4S48.2-18,92,10.6
		s78.3,11.6,105,11.3S230.7,40.5,228.1,66.8z"/>
	<path class="st1" d="M205.7,101c-3.7,6.9-70.2,2.3-88.7,3.3c-18.2,1-107.8,5.3-99-3c9.5-8.9,136.2-1.9,152.7-2.2
		C187.1,98.7,208,96.7,205.7,101z"/>
	<path class="st2" d="M28.7,17.4C25.9,13,44,3.7,70.3,13.9s32.2,6.6,34.5,10.2c2.2,3.6-30.1,1.8-38.9-1.6S32.1,22.9,28.7,17.4z"/>
	<path class="st2" d="M216,36c-0.4,4.7-11,9.8-18.5,5.5c-7.4-4.3-10.9-1.2-12.1-4.3c-1.2-3.1,17.5-1.9,21.1-1.1
		c3.6,0.8,6-4.5,7.7-3.1C216,34.4,216.1,35.4,216,36z"/>
	<g>
		<g class="st3">
			<path class="st1" d="M185.8,96.3c9.6,0,19.3,0,28.9,0c2,0,4.1,0,6.1-0.3c2-0.3,3.9-1,5-2.1c-12.6-3.7-28.1-2.9-39.6,2"/>
		</g>
		<path class="st4" d="M214.3,86.3c0,0,8.5,2.9,8.5-3.4s-3.6-1.7-3.6-1.7s1.7,3.1,1.5,0.4c-0.2-2.7-1.2-10.9-5.5-8
			c-4.3,2.9,11.8-2.9,6.1-6.3s-6.1-6.9-10.9-2.9s-1.1,4.5,1.5,0.6c2.6-3.9-0.7-10.5-6.9-2.8s-1,10.6,1.9,10.6s0.6-1.5-2.9-1.7
			c-3.5-0.2-8.6,5.5-7.1,7.3c0,0-8.9-1-5.3,4.6c0,0-4.3,1.5-1.4,5.9s7.6,3.2,8.4,1.8c0.9-1.3-13.9,1.7-8.8,3.9h30.3
			c0,0,6-1.6,4.4-3.1c-1.6-1.5-8.3-3.2-9.9-2.8C214.8,88.7,218.9,84.2,214.3,86.3z"/>
		<path class="st5" d="M218.3,75.1c1.2,1.2-0.5,4.7-2.1,3.6c-1.6-1-3.1-3.6-1.6-3.6C216.2,75.1,217.7,74.6,218.3,75.1z"/>
		<path class="st5" d="M206,84.8c1.9,1.9-0.9,7.8-3.5,6.1c-2.6-1.7-5.2-6.1-2.6-6.1S205.2,83.9,206,84.8z"/>
		<path class="st5" d="M203.2,73.2c-0.9-1.4,1.7-0.9,3,0.8c1.3,1.7,2.2,3.8,0.6,2.4S203.6,73.8,203.2,73.2z"/>
		<path class="st5" d="M216.1,84.3c-0.4-0.7,1-1.5,1.6-0.8s1,2,0.2,1.6C217.1,84.8,216.3,84.6,216.1,84.3z"/>
		<path class="st5" d="M207.1,68.2c-0.4-0.7,1-1.5,1.6-0.8s1,2,0.2,1.6C208.1,68.6,207.2,68.5,207.1,68.2z"/>
		<path class="st5" d="M214.7,65.6c-0.9-0.9,1.2-1.4,2.5-0.4c1.3,1,2.3,2.5,0.9,1.9C216.6,66.5,215.1,66,214.7,65.6z"/>
		<path class="st6" d="M215.2,86.3c0,0,8.5,2.9,8.5-3.4s-3.6-1.7-3.6-1.7s1.7,3.1,1.5,0.4s-1.2-10.9-5.5-8
			c-4.3,2.9,11.8-2.9,6.1-6.3c-5.7-3.4-6.1-6.9-10.9-2.9c-4.8,4-1.1,4.5,1.5,0.6c2.6-3.9-0.7-10.5-6.9-2.8s-1,10.6,1.9,10.6
			s0.6-1.5-2.9-1.7c-3.5-0.2-8.6,5.5-7.1,7.3c0,0-8.9-1-5.3,4.6c0,0-4.3,1.5-1.4,5.9s7.6,3.2,8.4,1.8c0.9-1.3-13.9,1.7-8.8,3.9h30.3
			c0,0,6-1.6,4.4-3.1c-1.6-1.5-8.3-3.2-9.9-2.8C215.7,88.7,219.9,84.2,215.2,86.3z"/>
	</g>
	<g>
		<g class="st3">
			<path class="st1" d="M175.8,98.5c4,0,8,0,12,0c0.9,0,1.7,0,2.5,0.1c0.8,0.1,1.6,0.4,2.1,0.9c-5.2,1.5-11.7,1.2-16.4-0.8"/>
		</g>
		<path class="st7" d="M188.5,99.4c0,0,7.1-5.9,3.4-7.3c0,0,6.5-4.5,1.3-5.2c-5.2-0.7-4.4,2.2-4.4,2.2s4.9-1.9,2.7-4.7s-5.4,0-5.4,0
			s-1-2.2-2.2-1.3c-1.2,0.8,0,1.9,0,1.9s0.8-2.3-1.5-1.5s-7.4,0.4-3.3,5.5s2.5,1,0.7-1c-1.8-2-6.3-5.1-6.7-0.4s4.8,7.9,8.2,7.2
			c3.4-0.7-0.2-1.3-1.6-0.8c-1.4,0.6-6.5,0.9-3.3,3.1c0,0,2.4,2.1,5.5,2.1C185,99.4,188.5,99.4,188.5,99.4z"/>
		<path class="st8" d="M192.4,92.8c0,0,0-1.3-1.2-1.3c-1.3,0-5.9,1.7-3.7,2S191.1,93.7,192.4,92.8z"/>
		<path class="st8" d="M190.2,84.4c0,0-0.2-0.6-1.4-0.2c-1.2,0.4-5.3,2.8-3.1,2.1C187.8,85.7,189.1,85.2,190.2,84.4z"/>
		<path class="st8" d="M177.8,89.6c0,0,1.1-0.7,0.4-1.6c-0.6-1-4.4-3.5-3.5-1.7C175.6,88.1,176.4,89.1,177.8,89.6z"/>
		<path class="st6" d="M188.9,99.2c0,0,7.1-5.9,3.4-7.3c0,0,6.5-4.5,1.3-5.2c-5.2-0.7-4.4,2.2-4.4,2.2s4.9-1.9,2.7-4.7
			c-2.3-2.8-5.4,0-5.4,0s-1-2.2-2.2-1.3c-1.2,0.8,0,1.9,0,1.9s0.8-2.3-1.5-1.5s-7.4,0.4-3.3,5.5c4.1,5.2,2.5,1,0.7-1
			c-1.8-2-6.3-5.1-6.7-0.4s4.8,7.9,8.2,7.2c3.4-0.7-0.2-1.3-1.6-0.8c-1.4,0.6-6.5,0.9-3.3,3.1c0,0,2.4,2.1,5.5,2.1
			C185.4,99.1,188.9,99.2,188.9,99.2z"/>
	</g>
	<g>
		<rect x="157.4" y="46.2" class="st0" width="42.1" height="42.1"/>
		<g>
			<g>
				<path class="st1" d="M197.2,83.4c-0.4,1.2-6.6,0.3-8.4,0.4c-1.7,0.1-10.4,0.8-9.4-0.5c1-1.3,12.9-0.3,14.4-0.3
					C195.5,83,197.4,82.6,197.2,83.4z"/>
				<g>
					<g>
						<polygon class="st9" points="182.1,77.7 191.7,77.7 190,68 184.4,68 						"/>
						<polygon class="st9" points="190.8,77.7 192,83.4 192.6,83.4 191.4,77.7 						"/>
						<polygon class="st9" points="193.9,77.7 195,83.4 195.7,83.4 194.5,77.7 						"/>
						<polygon class="st9" points="186.4,77.7 185.2,83.4 184.6,83.4 185.8,77.7 						"/>
						<polygon class="st9" points="183.3,77.7 182.2,83.4 181.5,83.4 182.7,77.7 						"/>
						<polygon class="st9" points="184.4,77.2 189.4,77.2 188.5,72.2 185.8,72.2 						"/>
						<polygon class="st9" points="195.3,77.7 191.7,77.7 190,68 193.6,68 						"/>
						
							<rect x="179.8" y="77.2" transform="matrix(-1 -5.446988e-11 5.446988e-11 -1 369.2428 154.9135)" class="st9" width="9.6" height="0.5"/>
						
							<rect x="187.2" y="35.4" transform="matrix(-1 -4.484469e-11 4.484469e-11 -1 377.6371 103.4758)" class="st9" width="3.2" height="32.6"/>
					</g>
					<g>
						<polygon class="st6" points="182,77.7 191.6,77.7 189.9,68 184.3,68 						"/>
						<polygon class="st6" points="190.7,77.7 191.9,83.4 192.5,83.4 191.3,77.7 						"/>
						<polygon class="st6" points="193.8,77.7 194.9,83.4 195.6,83.4 194.4,77.7 						"/>
						<polygon class="st6" points="186.3,77.7 185.1,83.4 184.5,83.4 185.7,77.7 						"/>
						<polygon class="st6" points="183.2,77.7 182.1,83.4 181.4,83.4 182.6,77.7 						"/>
						<polygon class="st6" points="184.3,77.2 189.3,77.2 188.4,72.2 185.7,72.2 						"/>
						<polygon class="st6" points="195.2,77.7 191.6,77.7 189.9,68 193.5,68 						"/>
						
							<rect x="179.7" y="77.2" transform="matrix(-1 -5.389834e-11 5.389834e-11 -1 369.0488 154.9135)" class="st6" width="9.6" height="0.5"/>
						
							<rect x="187.1" y="35.4" transform="matrix(-1 -4.369450e-11 4.369450e-11 -1 377.4431 103.4758)" class="st6" width="3.2" height="32.6"/>
					</g>
					<g>
						<path class="st10" d="M187,77.2c0.9,0,2.4-0.7,1.5-1.9c-0.9-1.1-0.4-1.7-0.4-1.7c-0.7,0.2-0.8,0.6-0.8,0.6
							c-0.1-1.7-1.4-1.6-1.4-1.6c1.3,1,0.1,2.1,0.1,2.1c-0.4-0.2-0.3-1.5-0.3-1.5s-0.8,0.3-1.1,1.9C184.3,76.6,186.1,77.2,187,77.2z
							 M186.1,75.2c0.7-1.1,0.6-1.4,0.6-1.4s0.3,1.1,0.2,1.3c0,0,0.2-0.4,0.6-0.5c0,0-0.1,0.9,0.3,1.3c0.4,0.4-0.1,1.1-1.1,1
							C185.8,76.8,185.6,76.1,186.1,75.2z"/>
						<path class="st11" d="M186.8,73.8c0,0,0.3,1.1,0.2,1.3c0,0,0.2-0.4,0.6-0.5c0,0-0.1,0.9,0.3,1.3c0.4,0.4-0.1,1.1-1.1,1
							c-1-0.1-1.2-0.9-0.6-1.7C186.8,74.1,186.8,73.8,186.8,73.8z"/>
						<g>
							<path class="st6" d="M186.9,77.1c0.9,0,2.4-0.7,1.5-1.9c-0.9-1.1-0.4-1.7-0.4-1.7c-0.7,0.2-0.8,0.6-0.8,0.6
								c-0.1-1.7-1.4-1.6-1.4-1.6c1.3,1,0.1,2.1,0.1,2.1c-0.4-0.2-0.3-1.5-0.3-1.5s-0.8,0.3-1.1,1.9C184.2,76.5,186,77.1,186.9,77.1
								z M186,75.1c0.7-1.1,0.6-1.4,0.6-1.4s0.3,1.1,0.2,1.3c0,0,0.2-0.4,0.6-0.5c0,0-0.1,0.9,0.3,1.3c0.4,0.4-0.1,1.1-1.1,1
								C185.7,76.8,185.5,76,186,75.1z"/>
							<path class="st6" d="M186.7,73.7c0,0,0.3,1.1,0.2,1.3c0,0,0.2-0.4,0.6-0.5c0,0-0.1,0.9,0.3,1.3c0.4,0.4-0.1,1.1-1.1,1
								c-1-0.1-1.2-0.9-0.6-1.7C186.7,74,186.7,73.7,186.7,73.7z"/>
						</g>
					</g>
				</g>
			</g>
			<g>
				<path class="st12" d="M189,31.1c0,0,1.2-0.9,1.7-0.2c0,0,1.4-0.8,1.6-0.1c0.2,0.7-1.2,2.2-2,1.6c0,0,0.5,0.1-0.8,0.3
					c0,0-3,0-1.2-0.7c0,0-1.7-0.1,0.1-0.8C188.4,31.3,188.6,31.1,189,31.1z"/>
				<path class="st6" d="M189.1,31c0,0,1.2-0.9,1.7-0.2c0,0,1.4-0.8,1.6-0.1s-1.2,2.2-2,1.6c0,0,0.5,0.1-0.8,0.3c0,0-3,0-1.2-0.7
					c0,0-1.7-0.1,0.1-0.8"/>
				<path class="st12" d="M187.5,33c0,0,0.8,0.1,0.6,0.6c0,0,0.8,0.2,0.5,0.6s-1.4,0.6-1.4,0c0,0,0.1,0.3-0.4-0.2c0,0-1-1.3-0.1-0.9
					c0,0-0.5-0.8,0.4-0.4C187.2,32.8,187.4,32.8,187.5,33z"/>
				<path class="st6" d="M187.6,33c0,0,0.8,0.1,0.6,0.6c0,0,0.8,0.2,0.5,0.6c-0.3,0.5-1.4,0.6-1.4,0c0,0,0.1,0.3-0.4-0.2
					c0,0-1-1.3-0.1-0.9c0,0-0.5-0.8,0.4-0.4"/>
			</g>
		</g>
		<g>
			<path class="st1" d="M186,86.3c-0.7,1.9-12.1,0.4-15.2,0.6c-3.2,0.2-18.9,1.2-17-0.8s23.4-0.4,26.2-0.5S186.4,85.1,186,86.3z"/>
			<g>
				<g>
					<g>
						<path class="st13" d="M174.6,76.9v9.2c0,0.4-0.3,0.7-0.7,0.7c-0.4,0-0.7-0.3-0.7-0.7v-9.2c0,0,0,0,0,0L174.6,76.9
							C174.6,76.9,174.6,76.9,174.6,76.9z"/>
						<path class="st13" d="M164,85.8l4.4-8.9h1.5l-4.7,9.5c-0.2,0.3-0.6,0.5-0.9,0.3S163.8,86.1,164,85.8z"/>
						<path class="st13" d="M166,75.6h10.5c0.4,0,0.7,0.3,0.7,0.7c0,0.4-0.3,0.7-0.7,0.7h-2h-1.3h-3.4h-1.5H166
							c-0.4,0-0.7-0.3-0.7-0.7C165.4,75.8,165.7,75.6,166,75.6z"/>
					</g>
					<path class="st13" d="M167.3,81.9h5.9v-1.3h-5.9c0,0-0.7,0.1-0.7,0.7C166.6,81.3,166.7,81.9,167.3,81.9z"/>
				</g>
				<g>
					<path class="st6" d="M174.6,76.8v9.2c0,0.4-0.3,0.7-0.7,0.7s-0.7-0.3-0.7-0.7v-9.2c0,0,0,0,0,0L174.6,76.8
						C174.6,76.8,174.6,76.8,174.6,76.8z"/>
					<path class="st6" d="M164,85.7l4.4-8.9h1.5l-1.9,3.7h-0.7c0,0-0.7,0.1-0.7,0.7c0,0,0.1,0.6,0.7,0.6h0.1l-2.2,4.4
						c-0.2,0.3-0.6,0.5-0.9,0.3C164,86.4,163.8,86,164,85.7z"/>
					<path class="st6" d="M166,76.8c-0.4,0-0.7-0.3-0.7-0.7c0-0.4,0.3-0.7,0.7-0.7h10.5c0.4,0,0.7,0.3,0.7,0.7
						c0,0.4-0.3,0.7-0.7,0.7h-2h-1.3h-3.4h-1.5H166z"/>
					<path class="st6" d="M167.3,80.5h0.7h5.2v1.3h-5.9h-0.1c-0.6,0-0.7-0.6-0.7-0.6C166.6,80.5,167.3,80.5,167.3,80.5z"/>
				</g>
				<g>
					<polygon class="st13" points="154.2,65.2 159.8,79.6 168.5,79.6 168.5,80.3 159.5,80.3 153.6,65.4 					"/>
					
						<rect x="168.5" y="79.6" transform="matrix(-1 -4.501256e-11 4.501256e-11 -1 344.634 159.9731)" class="st13" width="7.6" height="0.7"/>
					<polygon class="st13" points="161.8,65.2 154.2,65.2 159.8,79.6 167.4,79.6 					"/>
				</g>
				<g>
					<polygon class="st6" points="154.2,65.1 159.9,79.6 168.6,79.6 168.6,80.3 159.5,80.3 153.7,65.4 					"/>
					
						<rect x="168.6" y="79.6" transform="matrix(-1 -4.477186e-11 4.477186e-11 -1 344.7412 159.8316)" class="st6" width="7.6" height="0.7"/>
					<polygon class="st6" points="161.8,65.1 154.2,65.1 159.9,79.6 167.5,79.6 					"/>
				</g>
				<g>
					<g>
						<path class="st14" d="M179,84.8C179,84.8,179,84.8,179,84.8c0.4-0.3,1.2-0.9,1.9-1.3c0.5-0.3,0.9-0.5,0.8-0.2
							c-0.1,0.3-0.2,0.5-0.4,0.8c-1.1,1.6-3.8,2.7-3.8,2.7l-0.4-0.7L179,84.8z"/>
						<path class="st14" d="M183.4,83c0,0,2.2,0.7,3.2,0.5s1.8,0,0,0.6s-4,1.6-4,1.6l-0.8-1.5l1-0.7L183.4,83z"/>
						<path class="st15" d="M162.5,76.7c2.8,0.5,6.2-0.8,6.2-0.8l-0.1-0.2l0.4-0.1l1.6-0.3c0,0,0.1,0,0.1,0c0.1,0.1,0.2,0,0.3-0.1
							c0-0.1,0.1-0.2,0.1-0.3c0,0,0-0.1,0-0.1c0,0,0.1,0,0.1,0c0.2,0,0.3,0,0.5,0c2-0.1,4.6-0.2,6,0.2c2.3,0.8,1.3,3.1,5.8,7.8
							l-0.9,0.6l-1,0.7v0l-0.2,0.1c0,0-0.1-0.1-0.2-0.3c0.2-0.2,0.3-0.5,0.4-0.8c0.1-0.3-0.3-0.1-0.8,0.2c-0.9-1.3-2.7-3.8-3.8-4.6
							c1.1,3.7,1.8,5.7,1.9,5.9c-0.1,0.1-0.2,0.1-0.2,0.1l-1.8,1.2c-1-0.8-3.9-6.6-4.1-7.2c0,0,0-0.1,0-0.1c-0.1,0-0.2,0-0.3,0.1
							c-10.4,2.2-10.8-1.9-10.8-2.1c0,0,0,0,0,0L162.5,76.7z"/>
						<path class="st6" d="M171.1,74.9c0,0,0-0.1,0-0.1c0,0,0.1,0,0.1,0c0.2,0,0.3,0,0.5,0c2-0.1,4.6-0.2,6,0.2
							c2.3,0.8,1.3,3.1,5.8,7.8l-0.9,0.6l-1,0.7v0l-0.2,0.1c0,0-0.1-0.1-0.2-0.3c0.2-0.2,0.3-0.5,0.4-0.8c0.1-0.3-0.3-0.1-0.8,0.2
							c-0.9-1.3-2.7-3.8-3.8-4.6c-0.1-0.2-0.1-0.4-0.2-0.7c-0.6-2.1-0.9-3.6-5.4-2.9c-0.1,0-0.3,0-0.5,0.1
							C171.1,75.1,171.1,75,171.1,74.9z"/>
						<path class="st6" d="M162.5,76.5c2.8,0.5,6.2-0.8,6.2-0.8l-0.1-0.2l0.4-0.1l1.6-0.3c0,0,0.1,0,0.1,0c0.1,0.1,0.2,0,0.3-0.1
							c0.2,0,0.3-0.1,0.5-0.1c4.6-0.7,4.8,0.8,5.4,2.9c0.1,0.2,0.1,0.5,0.2,0.7c1.1,3.7,1.8,5.7,1.9,5.9c-0.1,0.1-0.2,0.1-0.2,0.1
							l-1.8,1.2c-1-0.8-3.9-6.6-4.1-7.2c0,0,0-0.1,0-0.1c-0.1,0-0.2,0-0.3,0.1c-10.4,2.2-10.8-1.9-10.8-2.1c0,0,0,0,0,0L162.5,76.5z
							"/>
						<path class="st16" d="M165.5,65.9c0,0,3.1,2.4,4.2,6.2c0,0,1.5,0.5,1.9,1.4c0.4,0.9,0.2,1.3,0.2,1.3l0,0c-0.2,0-0.3,0-0.5,0
							c0,0-0.1,0-0.1,0c0-0.1,0-0.1,0-0.2c0.1-0.5-0.1-1.2-0.5-1.4c-0.4-0.1-0.7-0.2-1-0.1c-0.9-0.7-1.7-1.3-2.1-2.8
							C166.9,67.9,166.1,66.6,165.5,65.9L165.5,65.9z"/>
						<path class="st17" d="M160.5,66c0.3-0.3,0.6-0.6,1-0.7c0.2-0.1,0.3-0.1,0.5-0.1c0.1,0.5,0.3,1.4,1.6,1.4
							c0.6,0,1.3-0.4,0.8-0.9c0-0.1,0-0.3,0-0.5c0.3,0.1,0.6,0.3,1,0.8c0.7,0.7,1.4,2.1,2.1,4.5c0.4,1.5,1.3,2.1,2.1,2.8
							c-0.4,0.1-0.8,0.2-1,0.4c-0.2,0.2-0.4,0.3-0.4,0.3l0.3,1.4c0,0,0.2,0,0.4-0.1c0.1,0,0.3,0,0.4,0c0.2,0,0.4,0,0.6,0
							c0.2,0,0.4,0,0.6,0.1l-1.6,0.3l-0.4,0.1l-0.4-1.8c-1.4-0.7-5.1-0.6-5.1-0.6c0-0.6-0.6-0.6-0.6-0.6c0.1-0.6,0.4-2.2,0.1-3.9
							C162.4,67,161.3,66.5,160.5,66z"/>
						<path class="st16" d="M159.7,67.4c0.4-0.8,0.7-1.2,0.8-1.3c0,0,0,0,0,0c0.8,0.5,1.9,1,2.2,2.7c0.3,1.8,0,3.3-0.1,3.9
							c0,0,0.6-0.1,0.6,0.6c0,0,3.7-0.2,5.1,0.6l0.4,1.8l0.1,0.2c0,0-3.5,1.3-6.2,0.8c-0.4-0.1-0.8-0.2-1.2-0.4
							c-0.9-0.4-1.6-1.1-1.9-2.2C158.4,71,159,68.7,159.7,67.4z"/>
						<path class="st18" d="M161.7,61.5c-0.2-0.7,0.5-0.8,0.5-0.8s0.5-0.1,0.5,0.5v0.5l0.3,0.1c0.7-0.7,0.3-1.7,0.3-1.7
							c0.4,0.1,0.8,0.1,1.1,0.1c0.9,0,1.5-0.4,1.9-0.7c0.2,0.4,0.2,2.2,0.1,3c-0.3,1.2-0.7,2.1-2,2.1c0,0,0,0,0,0
							c-0.9,0-1.8-0.5-2.4-1.2c0.4-0.3,0.5-0.6,0.5-0.9c0-0.2,0-0.4,0-0.4S161.9,62.2,161.7,61.5z"/>
						<path class="st14" d="M161.5,63.7c1.2-0.4,0.9-1.6,0.9-1.6s-0.5,0.2-0.7-0.6c-0.2-0.7,0.5-0.8,0.5-0.8s0.5-0.1,0.5,0.5v0.5
							l0.3,0.1c0.7-0.7,0.3-1.7,0.3-1.7c2.5,0.6,3.7-1.2,3.7-1.2c0.4-0.5-0.1-1.1-0.4-1.2c0,0-0.5-0.2-0.8,0c0,0,0.2,0.3,0.1,0.4
							s-6.2-1.9-5.2,2.1C161.8,64.1,161.5,63.7,161.5,63.7z"/>
						<path class="st6" d="M166.4,58.1c0,0-4.5-1.4-5.4,0.2c-0.4,0.7-0.7,1.6-0.1,2.8c0.3,0.6,0.6,1.1,0.6,2.5
							c1.2-0.4,0.9-1.6,0.9-1.6s-0.5,0.2-0.7-0.6c-0.2-0.7,0.5-0.8,0.5-0.8s0.5-0.1,0.5,0.5v0.5l0.3,0.1c0.7-0.7,0.3-1.7,0.3-1.7
							c2.5,0.6,3.7-1.2,3.7-1.2c0.4-0.5-0.1-1.1-0.4-1.2"/>
						<g>
							<circle class="st19" cx="166.3" cy="61.2" r="0.1"/>
							<circle class="st19" cx="164.3" cy="61.2" r="0.1"/>
							<path class="st6" d="M165.5,61.3c0,0-0.4,0.6,0.2,0.7c0.5,0,0.5,0,0.5,0.2c0,0.1,0,0.3-0.4,0.4c-0.3,0-0.4,0-0.4,0"/>
							<path class="st6" d="M165.8,63.2c0,0-0.8,0.3-1.3-0.2"/>
						</g>
						<path class="st18" d="M161.7,76.7C161.7,76.7,161.7,76.7,161.7,76.7c-0.1-0.2-0.3-0.3-0.4-0.5c0.4,0.2,0.8,0.3,1.2,0.4
							L161.7,76.7z"/>
						<path class="st18" d="M160.5,66c-0.1,0.1-0.5,0.6-0.8,1.3C159.9,66.8,160.2,66.4,160.5,66z"/>
						<path class="st6" d="M165.5,65.9c0,0,3.1,2.4,4.2,6.2c0,0,1.5,0.5,1.9,1.4c0.4,0.9,0.2,1.3,0.2,1.3l0,0c-0.2,0-0.3,0-0.5,0
							c0,0-0.1,0-0.1,0c0-0.1,0-0.1,0-0.2c0.1-0.5-0.1-1.2-0.5-1.4c-0.4-0.1-0.7-0.2-1-0.1c-0.9-0.7-1.7-1.3-2.1-2.8
							C166.9,67.9,166.1,66.6,165.5,65.9L165.5,65.9z"/>
						<path class="st6" d="M160.5,66c0.3-0.3,0.6-0.6,1-0.7c0.2-0.1,0.3-0.1,0.5-0.1c0.1,0.5,0.3,1.4,1.6,1.4c0.6,0,1.3-0.4,0.8-0.9
							c0-0.1,0-0.3,0-0.5c0.3,0.1,0.6,0.3,1,0.8c0.7,0.7,1.4,2.1,2.1,4.5c0.4,1.5,1.3,2.1,2.1,2.8c-0.4,0.1-0.8,0.2-1,0.4
							c-0.2,0.2-0.4,0.3-0.4,0.3l0.3,1.4c0,0,0.2,0,0.4-0.1c0.1,0,0.3,0,0.4,0c0.2,0,0.4,0,0.6,0c0.2,0,0.4,0,0.6,0.1l-1.6,0.3
							l-0.4,0.1l-0.4-1.8c-1.4-0.7-5.1-0.6-5.1-0.6c0-0.6-0.6-0.6-0.6-0.6c0.1-0.6,0.4-2.2,0.1-3.9C162.4,67,161.3,66.5,160.5,66z"
							/>
						<path class="st18" d="M162,64.9v-1.5c0.6,0.8,1.6,1.2,2.4,1.2c0,0.1,0,0.3,0,0.5c0,0.2,0,0.4,0,0.5c0.5,0.4-0.2,0.9-0.8,0.9
							c-1.3,0-1.6-0.9-1.6-1.4C162,65,162,64.9,162,64.9z"/>
						<path class="st6" d="M160.5,66C160.5,66,160.5,66,160.5,66C160.5,66,160.5,66,160.5,66C160.5,66,160.5,66,160.5,66z"/>
						<path class="st6" d="M159.7,67.4c0.4-0.8,0.7-1.2,0.8-1.3c0,0,0,0,0,0c0.8,0.5,1.9,1,2.2,2.7c0.3,1.8,0,3.3-0.1,3.9
							c0,0,0.6-0.1,0.6,0.6c0,0,3.7-0.2,5.1,0.6l0.4,1.8l0.1,0.2c0,0-3.5,1.3-6.2,0.8c-0.4-0.1-0.8-0.2-1.2-0.4
							c-0.9-0.4-1.6-1.1-1.9-2.2C158.4,71,159,68.7,159.7,67.4z"/>
						<path class="st6" d="M179,84.6C179,84.6,179,84.6,179,84.6c0.4-0.3,1.2-0.9,1.9-1.3c0.5-0.3,0.9-0.5,0.8-0.2
							c-0.1,0.3-0.2,0.5-0.4,0.8c-1.1,1.6-3.8,2.7-3.8,2.7l-0.4-0.7L179,84.6z"/>
						<path class="st18" d="M179,84.6C179,84.6,179,84.6,179,84.6l-2,1.3l1.8-1.2C178.8,84.7,178.9,84.7,179,84.6z"/>
						<path class="st6" d="M183.4,82.9c0,0,2.2,0.7,3.2,0.5c1-0.2,1.8,0,0,0.6s-4,1.6-4,1.6l-0.8-1.5l1-0.7L183.4,82.9z"/>
						<polygon class="st18" points="182.7,83.4 181.7,84.1 181.7,84.1 						"/>
						<g>
							<path class="st20" d="M170.6,73.9c0.1,0.6,0.5,0.9,0.8,0.9c0,0.2,0,0.4,0,0.5c0,0.3,1.5,0.3,1.9,0.2c0.3-0.1,0.2-1.9,0.2-2.5
								c0-0.4-1.8-0.3-2-0.1c-0.1,0-0.1,0.2-0.1,0.3C171.1,73.3,170.5,73.4,170.6,73.9z M171.3,73.6c0,0.3,0,0.6,0,0.9
								c-0.2,0-0.4-0.2-0.4-0.5C170.9,73.7,171.2,73.6,171.3,73.6z"/>
							<path class="st6" d="M170.7,73.8c0.1,0.6,0.5,0.9,0.8,0.9c0,0.2,0,0.4,0,0.5c0,0.3,1.5,0.3,1.9,0.2c0.3-0.1,0.2-1.9,0.2-2.5
								c0-0.4-1.8-0.3-2-0.1c-0.1,0-0.1,0.2-0.1,0.3C171.2,73.2,170.6,73.4,170.7,73.8z M171.4,73.5c0,0.3,0,0.6,0,0.9
								c-0.2,0-0.4-0.2-0.4-0.5C171,73.6,171.3,73.5,171.4,73.5z"/>
						</g>
						<path class="st18" d="M168.7,73.5c0.2-0.2,0.6-0.4,1-0.4c0.3,0,0.6,0,1,0.1c0.4,0.2,0.6,0.8,0.5,1.4c0,0.1,0,0.1,0,0.2
							c0,0,0,0.1,0,0.1c0,0.1-0.1,0.2-0.1,0.3c-0.1,0.1-0.2,0.2-0.3,0.1c0,0-0.1,0-0.1,0c-0.2,0-0.4-0.1-0.6-0.1c-0.2,0-0.4,0-0.6,0
							c-0.2,0-0.3,0-0.4,0c-0.2,0-0.4,0.1-0.4,0.1l-0.3-1.4C168.3,73.9,168.4,73.7,168.7,73.5z"/>
					</g>
					<g>
						<path class="st21" d="M173.3,71.7c0.3-0.3-0.3-0.3-0.3-0.3c-0.1-0.4-0.4,0.2-0.4,0.2s-0.3,0.1,0,0.2
							C172.8,71.7,173,72,173.3,71.7z"/>
						<path class="st6" d="M172.6,71.4c0,0,0.3-0.6,0.4-0.2c0,0,0.7,0,0.3,0.3c-0.3,0.3-0.5,0.2-0.5,0.2"/>
						<path class="st21" d="M172.1,72.2c-0.1,0.3,0.3,0.1,0.3,0.1c0.2,0.2,0.1-0.2,0.1-0.2s0.1-0.2,0-0.1S172.1,71.9,172.1,72.2z"/>
						<path class="st6" d="M172.6,72.1c0,0,0.1,0.4-0.1,0.2c0,0-0.4,0.2-0.3-0.1c0.1-0.3,0.2-0.3,0.2-0.3"/>
					</g>
				</g>
				<g>
					<g>
						<path class="st13" d="M166.8,76.9v9.2c0,0.4-0.3,0.7-0.7,0.7s-0.7-0.3-0.7-0.7v-9.2c0,0,0,0,0,0L166.8,76.9
							C166.8,76.9,166.8,76.9,166.8,76.9z"/>
						<path class="st13" d="M156.2,85.8l4.4-8.9h1.5l-4.7,9.5c-0.2,0.3-0.6,0.5-0.9,0.3S156.1,86.1,156.2,85.8z"/>
						<path class="st13" d="M158.3,75.6h10.5c0.4,0,0.7,0.3,0.7,0.7c0,0.4-0.3,0.7-0.7,0.7h-2h-1.3h-3.4h-1.5h-2.4
							c-0.4,0-0.7-0.3-0.7-0.7C157.6,75.8,157.9,75.6,158.3,75.6z"/>
					</g>
					<path class="st13" d="M159.6,81.9h5.9v-1.3h-5.9c0,0-0.7,0.1-0.7,0.7C158.9,81.3,158.9,81.9,159.6,81.9z"/>
				</g>
				<g>
					<path class="st6" d="M166.8,76.8v9.2c0,0.4-0.3,0.7-0.7,0.7s-0.7-0.3-0.7-0.7v-9.2c0,0,0,0,0,0L166.8,76.8
						C166.8,76.8,166.8,76.8,166.8,76.8z"/>
					<path class="st6" d="M156.2,85.7l4.4-8.9h1.5l-1.9,3.7h-0.7c0,0-0.7,0.1-0.7,0.7c0,0,0.1,0.6,0.7,0.6h0.1l-2.2,4.4
						c-0.2,0.3-0.6,0.5-0.9,0.3C156.2,86.4,156.1,86,156.2,85.7z"/>
					<path class="st6" d="M158.3,76.8c-0.4,0-0.7-0.3-0.7-0.7c0-0.4,0.3-0.7,0.7-0.7h10.5c0.4,0,0.7,0.3,0.7,0.7
						c0,0.4-0.3,0.7-0.7,0.7h-2h-1.3h-3.4h-1.5H158.3z"/>
					<path class="st6" d="M159.6,80.5h0.7h5.2v1.3h-5.9h-0.1c-0.6,0-0.7-0.6-0.7-0.6C158.9,80.5,159.6,80.5,159.6,80.5z"/>
				</g>
			</g>
		</g>
		<g>
			
				<rect x="192" y="92.3" transform="matrix(-1 -4.604373e-11 4.604373e-11 -1 387.0591 193.7446)" class="st22" width="3.1" height="9.2"/>
			
				<rect x="150.4" y="92.3" transform="matrix(-1 -4.368251e-11 4.368251e-11 -1 303.9552 193.7446)" class="st22" width="3.1" height="9.2"/>
			
				<rect x="135.4" y="92.3" transform="matrix(-1 -4.486290e-11 4.486290e-11 -1 273.9504 193.7446)" class="st22" width="3.1" height="9.2"/>
			
				<rect x="93.9" y="92.3" transform="matrix(-1 -4.604373e-11 4.604373e-11 -1 190.8465 193.7446)" class="st22" width="3.1" height="9.2"/>
			<path class="st23" d="M156,44.7v45h45v-45H156z M157.4,46.1h42.1v42.1h-42.1V46.1z"/>
			
				<rect x="153.2" y="39.6" transform="matrix(-1 -4.480650e-11 4.480650e-11 -1 356.6435 81.6905)" class="st24" width="50.3" height="2.5"/>
			
				<rect x="88.3" y="39.6" transform="matrix(-1 -4.492241e-11 4.492241e-11 -1 241.4763 81.6905)" class="st23" width="64.9" height="2.5"/>
			<path class="st22" d="M153.4,42.1v50.2h50.2V42.1H153.4z M156,44.7h45v45h-45V44.7z"/>
			<path class="st24" d="M88.3,42.1v50.2h64.9V42.1H88.3z"/>
			<path class="st6" d="M156.1,44.7v45h45v-45H156.1z M157.6,46.1h42.1v42.1h-42.1V46.1z"/>
			<path class="st6" d="M153.5,42.1v50.2h50.2V42.1H153.5z M156.1,44.7h45v45h-45V44.7z"/>
			<path class="st6" d="M153.5,42.1v50.2h50.2V42.1H153.5z M156.1,44.7h45v45h-45V44.7z"/>
			<path class="st6" d="M88.7,42.1v50.2h64.9V42.1H88.7z"/>
			<path class="st6" d="M88.7,40v2.1h64.9V40H88.7z"/>
			<path class="st6" d="M153.5,40v2.1h50.2V40H153.5z"/>
			<path class="st6" d="M151.3,42.1c0,0,0.4,27-0.1,37.1s0.1,13.1,0.1,13.1"/>
			<path class="st6" d="M144.5,42.1c0,0,0.4,27-0.1,37.1s0.1,13.1,0.1,13.1"/>
			<path class="st6" d="M148.6,42.1c0,0,1.6,17.7,1.1,27.8c-0.4,10.1-1.1,22.4-1.1,22.4"/>
			<path class="st6" d="M146.2,42.1c0,0,0.1,1.8,0.6,11.9c1.3,27.3-0.6,38.3-0.6,38.3"/>
			<path class="st6" d="M139.5,42.1c0,0,0.1,1.8,0.5,11.9c1,27.3-0.5,38.3-0.5,38.3"/>
			<path class="st6" d="M142.9,92.3c0,0-0.1-1.8-0.6-11.9c-1.3-27.3,0.6-38.3,0.6-38.3"/>
			<path class="st6" d="M125.7,92.3c0,0-0.4-27,0.1-37.1s-0.1-13.1-0.1-13.1"/>
			<path class="st6" d="M132.4,92.3c0,0-0.4-27,0.1-37.1s-0.1-13.1-0.1-13.1"/>
			<path class="st6" d="M128.3,92.3c0,0-1.6-17.7-1.1-27.8c0.4-10.1,1.1-22.4,1.1-22.4"/>
			<path class="st6" d="M130.7,92.3c0,0-0.1-1.8-0.6-11.9c-1.3-27.3,0.6-38.3,0.6-38.3"/>
			<path class="st6" d="M137.5,92.3c0,0-0.1-1.8-0.5-11.9c-1-27.3,0.5-38.3,0.5-38.3"/>
			<path class="st6" d="M134.1,42.1c0,0,0.1,1.8,0.6,11.9c1.3,27.3-0.6,38.3-0.6,38.3"/>
			<path class="st6" d="M123.5,42.1c0,0,0.4,27-0.1,37.1s0.1,13.1,0.1,13.1"/>
			<path class="st6" d="M116.7,42.1c0,0,0.4,27-0.1,37.1s0.1,13.1,0.1,13.1"/>
			<path class="st6" d="M120.8,42.1c0,0,1.6,17.7,1.1,27.8c-0.4,10.1-1.1,22.4-1.1,22.4"/>
			<path class="st6" d="M118.4,42.1c0,0,0.1,1.8,0.6,11.9c1.3,27.3-0.6,38.3-0.6,38.3"/>
			<path class="st6" d="M111.7,42.1c0,0,0.1,1.8,0.5,11.9c1,27.3-0.5,38.3-0.5,38.3"/>
			<path class="st6" d="M115.1,92.3c0,0-0.1-1.8-0.6-11.9c-1.3-27.3,0.6-38.3,0.6-38.3"/>
			<path class="st6" d="M104.8,92.3c0,0-0.4-27,0.1-37.1s-0.1-13.1-0.1-13.1"/>
			<path class="st6" d="M107.5,92.3c0,0-1.6-17.7-1.1-27.8c0.4-10.1,1.1-22.4,1.1-22.4"/>
			<path class="st6" d="M109.9,92.3c0,0-0.1-1.8-0.6-11.9c-1.3-27.3,0.6-38.3,0.6-38.3"/>
			<path class="st6" d="M102.6,42.1c0,0,0.4,27-0.1,37.1s0.1,13.1,0.1,13.1"/>
			<path class="st6" d="M95.9,42.1c0,0,0.4,27-0.1,37.1s0.1,13.1,0.1,13.1"/>
			<path class="st6" d="M100,42.1c0,0,1.6,17.7,1.1,27.8C100.7,80,100,92.3,100,92.3"/>
			<path class="st6" d="M97.6,42.1c0,0,0.1,1.8,0.6,11.9c1.3,27.3-0.6,38.3-0.6,38.3"/>
			<path class="st6" d="M90.8,42.1c0,0,0.1,1.8,0.5,11.9c1,27.3-0.5,38.3-0.5,38.3"/>
			<path class="st6" d="M94.2,92.3c0,0-0.1-1.8-0.6-11.9c-1.3-27.3,0.6-38.3,0.6-38.3"/>
			
				<rect x="192.3" y="92.3" transform="matrix(-1 -4.486290e-11 4.486290e-11 -1 387.6823 193.7446)" class="st6" width="3.1" height="9.2"/>
			
				<rect x="150.7" y="92.3" transform="matrix(-1 -4.486290e-11 4.486290e-11 -1 304.5784 193.7446)" class="st6" width="3.1" height="9.2"/>
			
				<rect x="135.7" y="92.3" transform="matrix(-1 -4.604373e-11 4.604373e-11 -1 274.5736 193.7446)" class="st6" width="3.1" height="9.2"/>
			
				<rect x="94.2" y="92.3" transform="matrix(-1 -4.486290e-11 4.486290e-11 -1 191.4697 193.7446)" class="st6" width="3.1" height="9.2"/>
		</g>
		<path class="st25" d="M178.4,46.2h-11c0,0,4.9,5.9,10,8.6c5.1,2.6,6.5,13.3,10.7,14.7c4.2,1.4,8.9,2.6,8.4-2.2s-8.9-6.8-11.2-10.4
			S178.4,46.2,178.4,46.2z"/>
		<path class="st25" d="M187.6,88h11.3c0,0-5-5.4-10.3-7.8c-5.3-2.4-6.7-12.2-11-13.4c-4.3-1.3-9.1-2.4-8.7,2
			c0.5,4.4,9.2,6.2,11.5,9.5C182.9,81.5,187.6,88,187.6,88z"/>
	</g>
	<g>
		
			<rect x="89.6" y="89.5" transform="matrix(-1 -4.486557e-11 4.486557e-11 -1 232.5673 181.6531)" class="st22" width="53.4" height="2.6"/>
		
			<rect x="89.8" y="89.7" transform="matrix(-1 -4.486557e-11 4.486557e-11 -1 233.0018 181.9789)" class="st6" width="53.4" height="2.6"/>
	</g>
	<g>
		<g>
			
				<rect x="92.5" y="75" transform="matrix(-1 -4.489798e-11 4.489798e-11 -1 224.3141 164.5856)" class="st13" width="39.3" height="14.7"/>
			
				<rect x="92.1" y="75" transform="matrix(-1 -4.480517e-11 4.480517e-11 -1 223.5242 164.5856)" class="st6" width="39.3" height="14.7"/>
			<path class="st6" d="M131.4,76.8c0,0-24.5-1.2-32.5-0.5c-4.5,0.4-6.8,0.1-6.8,0.1"/>
			<path class="st6" d="M92.6,77.5c0,0,30.3-0.5,39.3,0.3"/>
			<path class="st6" d="M131.4,79.7c0,0-20.7,0.6-28.3,0c-7.6-0.6-10.9,0.3-10.9,0.3"/>
			<path class="st6" d="M91.5,81.6c0,0,35.7,0.1,37.3-0.4"/>
			<path class="st6" d="M131.4,82.8c0,0-31.5-0.4-37.3,0"/>
			<path class="st6" d="M131.8,83.7c0,0-33.5,0.1-39,0.6"/>
			<path class="st6" d="M131.4,86c0,0-26.6-1.3-34.5-0.8"/>
			<line class="st6" x1="126.3" y1="86.8" x2="91.5" y2="86.8"/>
			<path class="st6" d="M131.2,88.5c0,0-26.2-1-29.8-0.4"/>
		</g>
		<g>
			<path class="st20" d="M116.1,63.9c-0.1,0.8,0.3,1.4,0.3,1.4s-0.1-1.4,0.8-2c0,0,0.5,2.4,2.7,1.4c0,1.4,0.7,1.2,0.7,1.2
				c0-0.6,0.6-0.6,0.6-0.6s0.8,0.1,0.6,0.9c-0.2,0.8-0.8,0.6-0.8,0.6s-0.1,0.6,0.2,1.1v1.1c0,0,0.8,0.5,1.4,0s0.7-1.4,0.7-1.4
				s1.9-1,1.5-1.9c0,0,1.1-1.2-0.7-3.5s-3.9-2.5-5.9-1.3c0,0-1.8-0.1-1.7,1C116.4,62.1,115,62.8,116.1,63.9z"/>
			<path class="st26" d="M116.3,63.7c0,0,0.4-0.5,0.9-0.7c2.1-0.7,3.3,1.8,3.6,2.5c-0.1,0.1-0.2,0.2-0.2,0.5c0,0-0.7,0.2-0.7-1.2
				c-2.3,1-2.7-1.4-2.7-1.4c-0.9,0.6-0.8,2-0.8,2s-0.5-0.6-0.3-1.4C116.2,63.9,116.2,63.8,116.3,63.7z"/>
			<path class="st18" d="M116.5,64.5c0-0.1,0-0.2,0.1-0.3c0,0,0,0,0,0c0-0.1,0-0.1,0.1-0.2c0,0,0,0,0,0c0,0,0-0.1,0.1-0.1
				c0,0,0,0,0,0c0,0,0.1-0.1,0.1-0.1c0,0,0,0,0,0c0,0,0.1-0.1,0.1-0.1c0,0,0,0,0,0c0.1-0.1,0.2-0.2,0.3-0.3c0,0,0.1,0.8,0.7,1.2
				c0.4,0.4,1.1,0.6,2.1,0.2c0,0.7,0.2,1,0.3,1.2c0.2,0.1,0.3,0.1,0.3,0.1c0-0.6,0.6-0.6,0.6-0.6s0,0,0,0c0,0,0.1,0,0.1,0
				c0,0,0.1,0,0.1,0.1c0,0,0,0,0,0c0.1,0,0.1,0.1,0.2,0.1c0,0,0,0,0,0c0,0,0.1,0.1,0.1,0.1c0,0,0,0,0,0c0,0.1,0,0.1,0.1,0.2
				c0,0.1,0,0.2,0,0.4c0,0,0,0,0,0c0,0.1,0,0.1-0.1,0.2c0,0,0,0,0,0.1c0,0,0,0.1-0.1,0.1c0,0,0,0,0,0c0,0,0,0.1-0.1,0.1c0,0,0,0,0,0
				c0,0,0,0-0.1,0.1c0,0,0,0,0,0c0,0,0,0,0,0c0,0,0,0,0,0c0,0,0,0,0,0c0,0,0,0,0,0c0,0,0,0,0,0c0,0,0,0,0,0c0,0,0,0,0,0
				c0,0,0,0-0.1,0c0,0,0,0,0,0c0,0,0,0,0,0c0,0,0,0,0,0c0,0,0,0,0,0c0,0,0,0,0,0c0,0,0,0,0,0s-0.1,0.6,0.2,1.1c0,0,0,0,0,0
				c-0.3,0.5-1,1.3-2.3,1.7c-0.1,0-0.2,0-0.3,0c-0.8-0.2-1.7-1.2-2-2.3C116.4,66.7,116.4,65.3,116.5,64.5z"/>
			<g>
				<circle class="st19" cx="117" cy="65.7" r="0.2"/>
				<circle class="st19" cx="119.2" cy="65.7" r="0.2"/>
				<path class="st6" d="M117.8,65.8c0,0,0.4,0.7-0.2,0.8c0,0-0.1,0.5,0.7,0.4"/>
				<path class="st6" d="M117.6,67.9c0,0,0.9,0.3,1.4-0.2"/>
			</g>
			<path class="st6" d="M116.1,63.8c-0.1,0.8,0.3,1.4,0.3,1.4s-0.1-1.4,0.8-2c0,0,0.5,2.4,2.7,1.4c0,1.4,0.7,1.2,0.7,1.2
				c0-0.6,0.6-0.6,0.6-0.6s0.8,0.1,0.6,0.9c-0.2,0.8-0.8,0.6-0.8,0.6s-0.1,0.6,0.2,1.1v1.1c0,0,0.8,0.5,1.4,0s0.7-1.4,0.7-1.4
				s1.9-1,1.5-1.9c0,0,1.1-1.2-0.7-3.5s-3.9-2.5-5.9-1.3c0,0-1.8-0.1-1.7,1C116.4,62,115,62.7,116.1,63.8z"/>
			<path class="st6" d="M118.1,61c0.2,0,2.8-0.7,4.5,1.3"/>
			<path class="st6" d="M116.4,62c0,0,0.9-0.4,2.6,0.2"/>
			<path class="st6" d="M123.2,67.7c0,0,0.2-3.1-1.3-4.5"/>
			<path class="st6" d="M120.7,65.5c0,0-1.1-3.4-3.5-2.5c-0.5,0.2-0.9,0.7-0.9,0.7"/>
			<path class="st18" d="M118.5,70.2L118.5,70.2c0-0.2,0-0.4,0-0.5c0.1,0,0.2,0,0.3,0c1.4-0.4,2.1-1.3,2.3-1.7c0,0,0,0,0,0v2.2
				c2.6,0,7.6,2.3,7.6,7.3c0,1.8-3.5,2.9-6.8,1.4c-3.3-1.5-3.6-4-5.9-4l-3.3,0C112.7,74.9,114.6,70.2,118.5,70.2z"/>
			<path class="st20" d="M114.3,74.9c1.4-1.4,1.5-0.7,3.3-0.8c0.9,0,4.6,0.9,5.3,1.3c0.7,0.3,1.7-0.1,1.7-0.1s0-1.9-0.5-2.2
				c0,0-6.2-0.5-8.6,0c-0.7,0.1-1,0.3-0.9,0.6c0,0-0.2,0.3-0.2,0.5c0,0-0.4,0.5-0.2,0.7L114.3,74.9z"/>
			<path class="st6" d="M114.4,74.9c1.4-1.4,1.5-0.7,3.3-0.8c0.9,0,4.6,0.9,5.3,1.3c0.7,0.3,1.7-0.1,1.7-0.1s0-1.9-0.5-2.2
				c0,0-6.2-0.5-8.6,0c-0.7,0.1-1,0.3-0.9,0.6c0,0-0.2,0.3-0.2,0.5c0,0-0.4,0.5-0.2,0.7L114.4,74.9z"/>
			<path class="st6" d="M117.8,73.2c0,0-1.9-0.1-3.2,0.5"/>
			<path class="st6" d="M124.4,74.3c0,0-4.7-0.7-7.6-0.6"/>
		</g>
		<g>
			<path class="st27" d="M110,68.1c0,0,2.1-0.5,2.4,0.7c0,0,2.3-0.3,2.1,0.7s-2.8,2.2-3.5,1.1c0,0,0.7,0.4-1.2,0c0,0-4-1.6-1.3-1.6
				c0,0-2.2-1,0.6-0.9C109,68,109.5,67.9,110,68.1z"/>
			<path class="st6" d="M110.2,68.1c0,0,2.1-0.5,2.4,0.7c0,0,2.3-0.3,2.1,0.7c-0.1,1.1-2.8,2.2-3.5,1.1c0,0,0.7,0.4-1.2,0
				c0,0-4-1.6-1.3-1.6c0,0-2.2-1,0.6-0.9"/>
			<path class="st27" d="M107,69.7c0,0,1,0.5,0.5,1.2c0,0,1,0.7,0.4,1.1c-0.6,0.5-2.2,0-1.9-0.8c0,0,0,0.4-0.5-0.4
				c0,0-0.6-2.2,0.4-1.2c0,0-0.3-1.3,0.7-0.2C106.7,69.4,106.9,69.5,107,69.7z"/>
			<path class="st6" d="M107.1,69.8c0,0,1,0.5,0.5,1.2c0,0,1,0.7,0.4,1.1c-0.6,0.5-2.2,0-1.9-0.8c0,0,0,0.4-0.5-0.4
				c0,0-0.6-2.2,0.4-1.2c0,0-0.3-1.3,0.7-0.2"/>
		</g>
		<path class="st27" d="M106.5,65c0,0-0.4,0.2-0.5-0.1c0,0-0.4,0.2-0.4-0.2c0-0.3,0.5-0.8,0.6-0.5c0,0-0.1-0.1,0.2-0.1
			c0,0,0.8,0.4,0.3,0.5c0,0,0.4,0.2-0.1,0.3C106.7,64.9,106.6,65,106.5,65z"/>
		<path class="st6" d="M106.6,64.9c0,0-0.5,0.3-0.6-0.2c0,0-0.6,0.2-0.6-0.2s0.6-1.1,0.9-0.6c0,0-0.2-0.1,0.3-0.1c0,0,1,0.5,0.4,0.6
			c0,0,0.6,0.3-0.1,0.4"/>
		<path class="st27" d="M125.2,63.2c0,0-0.5-0.2-0.3-0.5c0,0-0.4-0.2-0.2-0.5c0.2-0.2,0.9-0.1,0.8,0.2c0,0,0-0.2,0.2,0.2
			c0,0,0.3,0.9-0.1,0.5c0,0,0.2,0.5-0.3,0.1C125.4,63.3,125.3,63.3,125.2,63.2z"/>
		<path class="st6" d="M125.2,63.1c0,0-0.5-0.2-0.3-0.5c0,0-0.4-0.2-0.2-0.5c0.2-0.2,0.9-0.1,0.8,0.2c0,0,0-0.2,0.2,0.2
			c0,0,0.3,0.9-0.1,0.5c0,0,0.2,0.5-0.3,0.1"/>
	</g>
	
		<rect x="102.3" y="76.9" transform="matrix(-1 -4.489976e-11 4.489976e-11 -1 243.0847 166.4508)" class="st25" width="38.5" height="12.7"/>
	
		<rect x="102.3" y="76.9" transform="matrix(-1 -4.489976e-11 4.489976e-11 -1 243.0847 166.4508)" class="st6" width="38.5" height="12.7"/>
	<g>
		<g class="st3">
			<path class="st1" d="M46.9,95.2c4.9,0,9.9,0,14.8,0c1,0,2.1,0,3.1,0.2c1,0.2,2,0.5,2.5,1.1c-6.4,1.9-14.4,1.5-20.3-1"/>
		</g>
		<path class="st7" d="M62.6,96.4c0,0,8.7-7.2,4.2-9c0,0,8-5.5,1.6-6.4c-6.4-0.9-5.4,2.7-5.4,2.7s6.1-2.4,3.3-5.8
			c-2.8-3.4-6.7,0-6.7,0s-1.2-2.7-2.7-1.6c-1.5,1,0,2.4,0,2.4s1-2.8-1.8-1.8s-9.1,0.5-4.1,6.8s3.1,1.3,0.9-1.2S44,76.3,43.5,82
			c-0.5,5.7,5.9,9.7,10.1,8.9c4.2-0.9-0.2-1.6-1.9-1c-1.7,0.7-8,1.1-4.1,3.9c0,0,3,2.6,6.8,2.6S62.6,96.4,62.6,96.4z"/>
		<path class="st8" d="M67.4,88.2c0,0,0-1.5-1.5-1.5c-1.6,0-7.3,2.1-4.5,2.4C64.1,89.3,65.9,89.3,67.4,88.2z"/>
		<path class="st8" d="M64.6,77.8c0,0-0.2-0.7-1.7-0.2s-6.5,3.4-3.9,2.6C61.7,79.4,63.4,78.8,64.6,77.8z"/>
		<path class="st8" d="M49.4,84.2c0,0,1.3-0.8,0.5-2c-0.8-1.2-5.4-4.4-4.3-2.1C46.7,82.4,47.6,83.7,49.4,84.2z"/>
		<path class="st6" d="M63.1,96c0,0,8.7-7.2,4.2-9c0,0,8-5.5,1.6-6.4c-6.4-0.9-5.4,2.7-5.4,2.7s6.1-2.4,3.3-5.8
			c-2.8-3.4-6.7,0-6.7,0S58.9,75,57.4,76s0,2.4,0,2.4s1-2.8-1.8-1.8s-9.1,0.5-4.1,6.8s3.1,1.3,0.9-1.2c-2.3-2.5-7.8-6.3-8.3-0.5
			c-0.5,5.7,5.9,9.7,10.1,8.9s-0.2-1.6-1.9-1s-8,1.1-4.1,3.9c0,0,3,2.6,6.8,2.6S63.1,96,63.1,96z"/>
	</g>
	<g>
		<g class="st3">
			<path class="st1" d="M130.9,103.4c4.2,0,8.4,0,12.6,0c0.9,0,1.8,0,2.7,0.2c0.9,0.2,1.7,0.5,2.2,1c-5.5,1.8-12.3,1.4-17.3-1"/>
		</g>
		<path class="st7" d="M144.3,104.6c0,0,7.4-7,3.6-8.7c0,0,6.9-5.3,1.3-6.2s-4.6,2.6-4.6,2.6s5.2-2.3,2.8-5.6c-2.4-3.3-5.7,0-5.7,0
			s-1-2.6-2.3-1.6s0,2.3,0,2.3s0.8-2.7-1.6-1.7c-2.4,1-7.8,0.4-3.5,6.6c4.3,6.1,2.7,1.2,0.7-1.2c-1.9-2.4-6.6-6.1-7.1-0.5
			s5.1,9.4,8.6,8.6c3.6-0.8-0.2-1.6-1.6-0.9c-1.4,0.7-6.8,1-3.5,3.7c0,0,2.6,2.5,5.8,2.5C140.6,104.6,144.3,104.6,144.3,104.6z"/>
		<path class="st8" d="M148.4,96.7c0,0,0-1.5-1.3-1.5c-1.3,0-6.2,2-3.9,2.3C145.6,97.8,147.1,97.8,148.4,96.7z"/>
		<path class="st8" d="M146.1,86.6c0,0-0.2-0.7-1.5-0.2c-1.3,0.5-5.6,3.3-3.3,2.6S145,87.6,146.1,86.6z"/>
		<path class="st8" d="M133,92.8c0,0,1.1-0.8,0.4-1.9s-4.6-4.2-3.7-2S131.5,92.3,133,92.8z"/>
		<path class="st6" d="M144.8,104.2c0,0,7.4-7,3.6-8.7c0,0,6.9-5.3,1.3-6.2s-4.6,2.6-4.6,2.6s5.2-2.3,2.8-5.6c-2.4-3.3-5.7,0-5.7,0
			s-1-2.6-2.3-1.6s0,2.3,0,2.3s0.8-2.7-1.6-1.7s-7.8,0.4-3.5,6.6c4.3,6.1,2.7,1.2,0.7-1.2s-6.6-6.1-7.1-0.5
			c-0.4,5.5,5.1,9.4,8.6,8.6c3.6-0.8-0.2-1.6-1.6-0.9c-1.4,0.7-6.8,1-3.5,3.7c0,0,2.6,2.5,5.8,2.5S144.8,104.2,144.8,104.2z"/>
	</g>
	<g>
		<g class="st3">
			<path class="st1" d="M47.4,99c-11.3,0-22.7,0-34,0c-2.4,0-4.9,0-7.2-0.4c-2.3-0.4-4.6-1.2-5.9-2.5c14.8-4.3,33-3.4,46.6,2.3"/>
		</g>
		<path class="st4" d="M13.9,87.3c0,0-10,3.4-10-4s4.2-2,4.2-2s-2,3.6-1.8,0.5c0.2-3.1,1.4-12.8,6.5-9.4s-13.9-3.4-7.2-7.4
			s7.2-8.1,12.8-3.4s1.3,5.3-1.8,0.7s0.8-12.3,8.1-3.3s1.2,12.5-2.2,12.5s-0.7-1.8,3.4-2c4.1-0.2,10.1,6.5,8.3,8.6
			c0,0,10.5-1.2,6.2,5.4c0,0,5,1.8,1.6,6.9c-3.4,5.1-8.9,3.8-9.9,2.2c-1-1.6,16.4,2,10.3,4.6H6.8c0,0-7.1-1.9-5.2-3.7
			s9.8-3.7,11.7-3.3C13.3,90.1,8.4,84.8,13.9,87.3z"/>
		<path class="st5" d="M9.2,74c-1.4,1.4,0.6,5.5,2.4,4.3c1.8-1.2,3.7-4.3,1.8-4.3S9.8,73.4,9.2,74z"/>
		<path class="st5" d="M23.6,85.5c-2.3,2.3,1,9.2,4.1,7.2s6.1-7.2,3.1-7.2S24.6,84.4,23.6,85.5z"/>
		<path class="st5" d="M26.9,71.8c1-1.6-2-1.1-3.5,0.9c-1.5,2-2.6,4.5-0.8,2.8C24.4,74,26.4,72.5,26.9,71.8z"/>
		<path class="st5" d="M11.7,84.9c0.5-0.8-1.2-1.8-1.9-1c-0.7,0.8-1.1,2.3-0.2,1.9C10.6,85.4,11.5,85.2,11.7,84.9z"/>
		<path class="st5" d="M22.4,65.9c0.5-0.8-1.2-1.8-1.9-1s-1.1,2.3-0.2,1.9C21.2,66.5,22.2,66.3,22.4,65.9z"/>
		<path class="st5" d="M13.4,62.9c1.1-1-1.4-1.6-2.9-0.5c-1.5,1.2-2.7,3-1,2.2S12.9,63.4,13.4,62.9z"/>
		<path class="st6" d="M12.8,87.3c0,0-10,3.4-10-4s4.2-2,4.2-2s-2,3.6-1.8,0.5c0.2-3.1,1.4-12.8,6.5-9.4s-13.9-3.4-7.2-7.4
			s7.2-8.1,12.8-3.4s1.3,5.3-1.8,0.7s0.8-12.3,8.1-3.3s1.2,12.5-2.2,12.5s-0.7-1.8,3.4-2c4.1-0.2,10.1,6.5,8.3,8.6
			c0,0,10.5-1.2,6.2,5.4c0,0,5,1.8,1.6,6.9C37.5,95.4,32,94,31,92.4c-1-1.6,16.4,2,10.3,4.6H5.7c0,0-7.1-1.9-5.2-3.7
			s9.8-3.7,11.7-3.3C12.2,90.1,7.3,84.8,12.8,87.3z"/>
	</g>
	<g>
		<polygon class="st13" points="76,110.4 80.7,110 85.3,109.6 90,109.2 94.6,108.8 99.3,108.4 104,108 108.6,107.6 113.3,107.2 
			118,106.8 122.6,106.4 127.3,106 131.9,105.6 136.6,105.2 141.3,104.9 145.9,104.5 150.6,104.1 155.2,103.7 159.9,103.3 
			164.6,102.9 169.2,102.5 173.9,102.1 178.5,101.7 183.2,101.3 187.9,100.9 192.5,100.5 197.2,100.1 201.8,99.7 206.5,99.3 
			211.2,98.9 215.8,98.6 220.5,98.2 257.1,106.8 257.2,108 252.5,108.4 247.9,108.8 243.2,109.2 238.6,109.6 233.9,110 229.2,110.4 
			224.6,110.8 219.9,111.2 215.3,111.6 210.6,111.9 205.9,112.3 201.3,112.7 196.6,113.1 192,113.5 187.3,113.9 182.6,114.3 
			178,114.7 173.3,115.1 168.7,115.5 164,115.9 159.3,116.3 154.7,116.7 150,117.1 145.3,117.5 140.7,117.9 136,118.2 131.4,118.6 
			126.7,119 122,119.4 117.4,119.8 112.7,120.2 108.1,120.6 108,119.4 71.3,110.8 		"/>
		<g>
			<g>
				<g>
					<polygon class="st28" points="184.7,100.9 180.5,101.2 215.9,110 220.1,109.6 					"/>
					<polygon class="st28" points="189,100.5 184.7,100.9 220.1,109.6 224.4,109.3 					"/>
					<polygon class="st28" points="193.2,100.2 189,100.5 224.4,109.3 228.6,108.9 					"/>
					<polygon class="st28" points="197.5,99.8 193.2,100.2 228.6,108.9 232.9,108.6 					"/>
					<polygon class="st28" points="201.7,99.4 197.5,99.8 232.9,108.6 237.1,108.2 					"/>
					<polygon class="st28" points="205.9,99.1 201.7,99.4 237.1,108.2 241.4,107.8 					"/>
					<polygon class="st28" points="210.2,98.7 205.9,99.1 241.4,107.8 245.6,107.5 					"/>
					<polygon class="st28" points="214.4,98.4 210.2,98.7 245.6,107.5 249.8,107.1 					"/>
					<polygon class="st28" points="245.7,108.7 249.9,108.3 249.8,107.1 245.6,107.5 					"/>
					<polygon class="st28" points="241.4,109 245.7,108.7 245.6,107.5 241.4,107.8 					"/>
					<polygon class="st28" points="237.2,109.4 241.4,109 241.4,107.8 237.1,108.2 					"/>
					<polygon class="st28" points="232.9,109.7 237.2,109.4 237.1,108.2 232.9,108.6 					"/>
					<polygon class="st28" points="228.7,110.1 232.9,109.7 232.9,108.6 228.6,108.9 					"/>
					<polygon class="st28" points="224.4,110.5 228.7,110.1 228.6,108.9 224.4,109.3 					"/>
					<polygon class="st28" points="220.2,110.8 224.4,110.5 224.4,109.3 220.1,109.6 					"/>
					<polygon class="st28" points="216,111.2 220.2,110.8 220.1,109.6 215.9,110 					"/>
				</g>
				<g>
					<polygon class="st28" points="150.8,103.8 146.5,104.1 182,112.9 186.2,112.5 					"/>
					<polygon class="st28" points="155,103.4 150.8,103.8 186.2,112.5 190.4,112.2 					"/>
					<polygon class="st28" points="159.3,103.1 155,103.4 190.4,112.2 194.7,111.8 					"/>
					<polygon class="st28" points="163.5,102.7 159.3,103.1 194.7,111.8 198.9,111.4 					"/>
					<polygon class="st28" points="167.8,102.3 163.5,102.7 198.9,111.4 203.2,111.1 					"/>
					<polygon class="st28" points="172,102 167.8,102.3 203.2,111.1 207.4,110.7 					"/>
					<polygon class="st28" points="176.2,101.6 172,102 207.4,110.7 211.7,110.4 					"/>
					<polygon class="st28" points="180.5,101.2 176.2,101.6 211.7,110.4 215.9,110 					"/>
					<polygon class="st28" points="211.7,111.5 216,111.2 215.9,110 211.7,110.4 					"/>
					<polygon class="st28" points="207.5,111.9 211.7,111.5 211.7,110.4 207.4,110.7 					"/>
					<polygon class="st28" points="203.2,112.3 207.5,111.9 207.4,110.7 203.2,111.1 					"/>
					<polygon class="st28" points="199,112.6 203.2,112.3 203.2,111.1 198.9,111.4 					"/>
					<polygon class="st28" points="194.7,113 199,112.6 198.9,111.4 194.7,111.8 					"/>
					<polygon class="st28" points="190.5,113.4 194.7,113 194.7,111.8 190.4,112.2 					"/>
					<polygon class="st28" points="186.3,113.7 190.5,113.4 190.4,112.2 186.2,112.5 					"/>
					<polygon class="st28" points="182,114.1 186.3,113.7 186.2,112.5 182,112.9 					"/>
				</g>
			</g>
			<g>
				<g>
					<polygon class="st28" points="116.8,106.7 112.6,107 148,115.8 152.3,115.4 					"/>
					<polygon class="st28" points="121.1,106.3 116.8,106.7 152.3,115.4 156.5,115.1 					"/>
					<polygon class="st28" points="125.3,105.9 121.1,106.3 156.5,115.1 160.7,114.7 					"/>
					<polygon class="st28" points="129.6,105.6 125.3,105.9 160.7,114.7 165,114.3 					"/>
					<polygon class="st28" points="133.8,105.2 129.6,105.6 165,114.3 169.2,114 					"/>
					<polygon class="st28" points="138.1,104.9 133.8,105.2 169.2,114 173.5,113.6 					"/>
					<polygon class="st28" points="142.3,104.5 138.1,104.9 173.5,113.6 177.7,113.3 					"/>
					<polygon class="st28" points="146.5,104.1 142.3,104.5 177.7,113.3 182,112.9 					"/>
					<polygon class="st28" points="177.8,114.4 182,114.1 182,112.9 177.7,113.3 					"/>
					<polygon class="st28" points="173.5,114.8 177.8,114.4 177.7,113.3 173.5,113.6 					"/>
					<polygon class="st28" points="169.3,115.2 173.5,114.8 173.5,113.6 169.2,114 					"/>
					<polygon class="st28" points="165,115.5 169.3,115.2 169.2,114 165,114.3 					"/>
					<polygon class="st28" points="160.8,115.9 165,115.5 165,114.3 160.7,114.7 					"/>
					<polygon class="st28" points="156.5,116.2 160.8,115.9 160.7,114.7 156.5,115.1 					"/>
					<polygon class="st28" points="152.3,116.6 156.5,116.2 156.5,115.1 152.3,115.4 					"/>
					<polygon class="st28" points="148.1,117 152.3,116.6 152.3,115.4 148,115.8 					"/>
				</g>
				<g>
					<polygon class="st28" points="82.9,109.5 78.7,109.9 114.1,118.7 118.3,118.3 					"/>
					<polygon class="st28" points="87.1,109.2 82.9,109.5 118.3,118.3 122.6,117.9 					"/>
					<polygon class="st28" points="91.4,108.8 87.1,109.2 122.6,117.9 126.8,117.6 					"/>
					<polygon class="st28" points="95.6,108.5 91.4,108.8 126.8,117.6 131,117.2 					"/>
					<polygon class="st28" points="99.9,108.1 95.6,108.5 131,117.2 135.3,116.9 					"/>
					<polygon class="st28" points="104.1,107.7 99.9,108.1 135.3,116.9 139.5,116.5 					"/>
					<polygon class="st28" points="108.4,107.4 104.1,107.7 139.5,116.5 143.8,116.1 					"/>
					<polygon class="st28" points="112.6,107 108.4,107.4 143.8,116.1 148,115.8 					"/>
					<polygon class="st28" points="143.8,117.3 148.1,117 148,115.8 143.8,116.1 					"/>
					<polygon class="st28" points="139.6,117.7 143.8,117.3 143.8,116.1 139.5,116.5 					"/>
					<polygon class="st28" points="135.3,118 139.6,117.7 139.5,116.5 135.3,116.9 					"/>
					<polygon class="st28" points="131.1,118.4 135.3,118 135.3,116.9 131,117.2 					"/>
					<polygon class="st28" points="126.8,118.8 131.1,118.4 131,117.2 126.8,117.6 					"/>
					<polygon class="st28" points="122.6,119.1 126.8,118.8 126.8,117.6 122.6,117.9 					"/>
					<polygon class="st28" points="118.4,119.5 122.6,119.1 122.6,117.9 118.3,118.3 					"/>
					<polygon class="st28" points="114.1,119.8 118.4,119.5 118.3,118.3 114.1,118.7 					"/>
				</g>
			</g>
		</g>
	</g>
	<g>
		<rect x="55.9" y="46.2" class="st0" width="42.1" height="42.1"/>
		
			<rect x="93.1" y="92.3" transform="matrix(-1 -4.486290e-11 4.486290e-11 -1 189.3156 193.8242)" class="st22" width="3.1" height="9.2"/>
		
			<rect x="49.2" y="92.3" transform="matrix(-1 -4.486290e-11 4.486290e-11 -1 101.4003 193.8242)" class="st22" width="3.1" height="9.2"/>
		
			<rect x="23.3" y="92.3" transform="matrix(-1 -4.486290e-11 4.486290e-11 -1 49.7593 193.8242)" class="st22" width="3.1" height="9.2"/>
		<path class="st23" d="M54.5,44.7v45h45v-45H54.5z M56,46.2h42.1v42.1H56V46.2z"/>
		
			<rect x="51.7" y="39.6" transform="matrix(-1 -4.484292e-11 4.484292e-11 -1 153.6003 81.7701)" class="st24" width="50.3" height="2.5"/>
		
			<rect x="18.6" y="39.6" transform="matrix(-1 -4.489843e-11 4.489843e-11 -1 70.2015 81.7701)" class="st23" width="33.1" height="2.5"/>
		<path class="st22" d="M51.9,42.2v50.2H102V42.2H51.9z M54.5,44.8h45v45h-45V44.8z"/>
		<path class="st24" d="M18.6,42.2v50.2h33.1V42.2H18.6z"/>
		<path class="st6" d="M54.6,44.7v45h45v-45H54.6z M56,46.2h42.1v42.1H56V46.2z"/>
		<path class="st6" d="M52,42.1v50.2h50.2V42.1H52z M54.6,44.7h45v45h-45V44.7z"/>
		<path class="st6" d="M52,42.1v50.2h50.2V42.1H52z M54.6,44.7h45v45h-45V44.7z"/>
		<path class="st6" d="M18.9,42.1v50.2H52V42.1H18.9z"/>
		<path class="st6" d="M18.9,40.1v2.1H52v-2.1H18.9z"/>
		<path class="st6" d="M52,40.1v2.1h50.2v-2.1H52z"/>
		
			<rect x="93.4" y="92.3" transform="matrix(-1 -4.486290e-11 4.486290e-11 -1 189.9389 193.8242)" class="st6" width="3.1" height="9.2"/>
		
			<rect x="49.5" y="92.3" transform="matrix(-1 -4.368251e-11 4.368251e-11 -1 102.0235 193.8242)" class="st6" width="3.1" height="9.2"/>
		
			<rect x="23.7" y="92.3" transform="matrix(-1 -4.486290e-11 4.486290e-11 -1 50.3826 193.8242)" class="st6" width="3.1" height="9.2"/>
		<path class="st6" d="M50.5,42.2c0,0,0.2,27,0,37.1s0,13.1,0,13.1"/>
		<path class="st6" d="M47.1,42.2c0,0,0.2,27,0,37.1s0,13.1,0,13.1"/>
		<path class="st6" d="M49.2,42.2c0,0,0.8,17.7,0.6,27.8c-0.2,10.1-0.6,22.4-0.6,22.4"/>
		<path class="st6" d="M47.9,42.2c0,0,0.1,1.8,0.3,11.9c0.7,27.3-0.3,38.3-0.3,38.3"/>
		<path class="st6" d="M44.5,42.2c0,0,0.1,1.8,0.3,11.9c0.5,27.3-0.3,38.3-0.3,38.3"/>
		<path class="st6" d="M46.2,92.3c0,0-0.1-1.8-0.3-11.9c-0.7-27.3,0.3-38.3,0.3-38.3"/>
		<path class="st6" d="M37.3,92.3c0,0-0.2-27,0-37.1s0-13.1,0-13.1"/>
		<path class="st6" d="M40.8,92.3c0,0-0.2-27,0-37.1s0-13.1,0-13.1"/>
		<path class="st6" d="M38.7,92.3c0,0-0.8-17.7-0.6-27.8s0.6-22.4,0.6-22.4"/>
		<path class="st6" d="M39.9,92.3c0,0-0.1-1.8-0.3-11.9c-0.7-27.3,0.3-38.3,0.3-38.3"/>
		<path class="st6" d="M43.4,92.3c0,0-0.1-1.8-0.3-11.9c-0.5-27.3,0.3-38.3,0.3-38.3"/>
		<path class="st6" d="M41.7,42.2c0,0,0.1,1.8,0.3,11.9c0.7,27.3-0.3,38.3-0.3,38.3"/>
		<path class="st6" d="M36.2,42.2c0,0,0.2,27,0,37.1c-0.2,10.1,0,13.1,0,13.1"/>
		<path class="st6" d="M32.7,42.2c0,0,0.2,27,0,37.1c-0.2,10.1,0,13.1,0,13.1"/>
		<path class="st6" d="M34.8,42.2c0,0,0.8,17.7,0.6,27.8s-0.6,22.4-0.6,22.4"/>
		<path class="st6" d="M33.6,42.2c0,0,0.1,1.8,0.3,11.9c0.7,27.3-0.3,38.3-0.3,38.3"/>
		<path class="st6" d="M30.1,42.2c0,0,0.1,1.8,0.3,11.9c0.5,27.3-0.3,38.3-0.3,38.3"/>
		<path class="st6" d="M31.9,92.3c0,0-0.1-1.8-0.3-11.9c-0.7-27.3,0.3-38.3,0.3-38.3"/>
		<path class="st6" d="M26.6,92.3c0,0-0.2-27,0-37.1c0.2-10.1,0-13.1,0-13.1"/>
		<path class="st6" d="M27.9,92.3c0,0-0.8-17.7-0.6-27.8s0.6-22.4,0.6-22.4"/>
		<path class="st6" d="M29.2,92.3c0,0-0.1-1.8-0.3-11.9c-0.7-27.3,0.3-38.3,0.3-38.3"/>
		<path class="st6" d="M25.5,42.2c0,0,0.2,27,0,37.1c-0.2,10.1,0,13.1,0,13.1"/>
		<path class="st6" d="M22,42.2c0,0,0.2,27,0,37.1c-0.2,10.1,0,13.1,0,13.1"/>
		<path class="st6" d="M24.1,42.2c0,0,0.8,17.7,0.6,27.8s-0.6,22.4-0.6,22.4"/>
		<path class="st6" d="M22.8,42.2c0,0,0.1,1.8,0.3,11.9c0.7,27.3-0.3,38.3-0.3,38.3"/>
		<path class="st6" d="M19.4,42.2c0,0,0.1,1.8,0.3,11.9c0.5,27.3-0.3,38.3-0.3,38.3"/>
		<path class="st6" d="M21.1,92.3c0,0-0.1-1.8-0.3-11.9c-0.7-27.3,0.3-38.3,0.3-38.3"/>
		<g>
			<path class="st20" d="M88.1,80.4H56.6c0,0-0.6-2.6-0.4-4.5c0.1-1.9,1.9-0.8,2.7-0.9c0,0,2.5-1,12.5-0.1
				c10.9,1.1,16.7-0.2,17.3,1.4C88.7,76.4,90.3,80.4,88.1,80.4z"/>
			<g>
				<g>
					
						<rect x="56.4" y="80.4" transform="matrix(-1 -4.497836e-11 4.497836e-11 -1 146.0073 168.5867)" class="st13" width="33.2" height="7.8"/>
					
						<rect x="56.2" y="80.4" transform="matrix(-1 -4.486912e-11 4.486912e-11 -1 145.5679 168.7059)" class="st28" width="33.2" height="7.8"/>
				</g>
				<path class="st28" d="M88.8,88.2c0,0-0.2-1.9-0.1-4.1s0.2-3.7,0.2-3.7"/>
				<path class="st28" d="M84.8,80.4c0,0,0,1.5-0.2,3.7c-0.1,2.2,0.1,4.1,0.1,4.1"/>
				<path class="st28" d="M86.1,88.2c0,0,0-1.5,0.2-3.7s-0.1-4.1-0.1-4.1"/>
				<path class="st28" d="M88.1,80.4c0,0,0,1.5,0,3.7c0,2.2,0,4.1,0,4.1"/>
				<path class="st28" d="M85.7,80.4c0,0,0,1.5,0,3.7c0,2.2,0,4.1,0,4.1"/>
				<path class="st28" d="M83.7,80.4c0,0,0,1.5,0,3.7c0,2.2,0,4.1,0,4.1"/>
				<path class="st28" d="M82.9,80.4c0,0,0,1.5-0.2,3.7s0.1,4.1,0.1,4.1"/>
				<path class="st28" d="M78.8,80.4c0,0,0,1.5-0.2,3.7c-0.1,2.2,0.1,4.1,0.1,4.1"/>
				<path class="st28" d="M80.1,88.2c0,0,0-1.5,0.2-3.7s-0.1-4.1-0.1-4.1"/>
				<path class="st28" d="M82.1,80.4c0,0,0,1.5,0,3.7c0,2.2,0,4.1,0,4.1"/>
				<path class="st28" d="M58.6,80.4c0,0,0,1.5,0,3.7s0,4.1,0,4.1"/>
				<path class="st28" d="M57.8,80.4c0,0,0,1.5-0.2,3.7c-0.1,2.2,0.1,4.1,0.1,4.1"/>
				<path class="st28" d="M57,80.4c0,0,0,1.5,0,3.7s0,4.1,0,4.1"/>
				<path class="st28" d="M79.7,80.4c0,0,0,1.5,0,3.7s0,4.1,0,4.1"/>
				<path class="st28" d="M77.6,80.4c0,0,0,1.5,0,3.7c0,2.2,0,4.1,0,4.1"/>
				<path class="st28" d="M61.4,80.4c0,0,0,1.5-0.2,3.7c-0.1,2.2,0.1,4.1,0.1,4.1"/>
				<path class="st28" d="M62.7,88.2c0,0,0-1.5,0.2-3.7c0.1-2.2-0.1-4.1-0.1-4.1"/>
				<path class="st28" d="M62.3,80.4c0,0,0,1.5,0,3.7s0,4.1,0,4.1"/>
				<path class="st28" d="M60.2,80.4c0,0,0,1.5,0,3.7s0,4.1,0,4.1"/>
				<path class="st28" d="M72.4,80.4c0,0,0,1.5-0.2,3.7s0.1,4.1,0.1,4.1"/>
				<path class="st28" d="M68.3,80.4c0,0,0,1.5-0.2,3.7c-0.1,2.2,0.1,4.1,0.1,4.1"/>
				<path class="st28" d="M69.6,88.2c0,0,0-1.5,0.2-3.7s-0.1-4.1-0.1-4.1"/>
				<path class="st28" d="M71.6,80.4c0,0,0,1.5,0,3.7c0,2.2,0,4.1,0,4.1"/>
				<path class="st28" d="M69.2,80.4c0,0,0,1.5,0,3.7c0,2.2,0,4.1,0,4.1"/>
				<path class="st28" d="M64.4,80.4c0,0,0,1.5-0.2,3.7s0.1,4.1,0.1,4.1"/>
				<path class="st28" d="M65.7,88.2c0,0,0-1.5,0.2-3.7s-0.1-4.1-0.1-4.1"/>
				<path class="st28" d="M65.3,80.4c0,0,0,1.5,0,3.7c0,2.2,0,4.1,0,4.1"/>
				<path class="st28" d="M67.1,80.4c0,0,0,1.5,0,3.7c0,2.2,0,4.1,0,4.1"/>
			</g>
			<path class="st28" d="M58.4,75c0,0,2.5-1,12.5-0.1c10.9,1.1,16.7-0.2,17.3,1.4c0,0,1.6,4-0.6,4H56.2v-5.6
				C56.2,74.9,57.3,75,58.4,75z"/>
		</g>
		<g>
			<circle class="st10" cx="69.6" cy="59.8" r="2.1"/>
			<g>
				<circle class="st29" cx="69.6" cy="59.8" r="5.9"/>
				<path class="st28" d="M69.7,46.2c0,0,0.2,6,0,8.6"/>
				<path class="st13" d="M66.8,59.8c-0.2-0.4-0.3-0.8-0.3-1.3c0-1.7,1.3-3.1,2.9-3.1s2.9,1.4,2.9,3.1c0,0.4-0.1,0.9-0.3,1.3
					c-0.8-0.1-1.7-0.2-2.7-0.2S67.6,59.7,66.8,59.8z"/>
				<path class="st28" d="M66.9,59.8c-0.2-0.4-0.3-0.8-0.3-1.3c0-1.7,1.3-3.1,2.9-3.1s2.9,1.4,2.9,3.1c0,0.4-0.1,0.9-0.3,1.3
					c-0.8-0.1-1.7-0.2-2.7-0.2S67.7,59.6,66.9,59.8z"/>
			</g>
		</g>
	</g>
</g>
</svg>
