<svg width="24" height="24" viewBox="0 0 24 24" fill="none" xmlns="http://www.w3.org/2000/svg">
<path d="M17.4916 4H6.51037C6.37912 4 6.25724 4.06875 6.18849 4.18125L3.05412 9.26875C2.96974 9.40625 2.98537 9.58438 3.09162 9.70625L11.7166 19.8687C11.8666 20.0437 12.1354 20.0437 12.2854 19.8687L20.9104 9.70625C21.0166 9.58438 21.0291 9.40625 20.9479 9.26875L17.8135 4.18125C17.7447 4.06875 17.6229 4 17.4916 4ZM17.0666 5.125L19.3885 9H16.7947L15.0197 5.125H17.0666V5.125ZM13.7822 5.125L15.5572 9H8.44162L10.2197 5.125H13.7822ZM6.93537 5.125H8.98224L7.20724 9H4.61349L6.93537 5.125V5.125ZM4.91349 10H7.19474L9.75099 16L4.91349 10ZM8.41349 10H15.5854L12.001 18.2437L8.41349 10ZM14.251 16L16.8072 10H19.0885L14.251 16Z" fill="black"/>
</svg>
