<svg width="24" height="24" viewBox="0 0 24 24" fill="none" xmlns="http://www.w3.org/2000/svg">
<path d="M15.7531 18.6969L16.1969 13.5469C14.8812 12.5125 13.9969 11.1406 13.9969 9.5C14 6.55312 16.7531 4 18.75 4C19.4406 4 20 4.54062 20 5.20312V18.7969C20 19.4594 19.4406 20 18.75 20H17C16.2875 20 15.6938 19.4156 15.7531 18.6969ZM15 9.5C15 11.0938 16.0062 12.1719 17.2437 13.0781L16.75 18.7844C16.7406 18.9 16.8563 19 17 19H18.75C18.8844 19 19 18.9062 19 18.7969V5.20312C19 5.09375 18.8844 5 18.75 5C17.3563 5 15 7.05625 15 9.5ZM12.5219 5.05625C12.4187 4.44687 11.8594 4 11.0813 4C10.7094 4 10.3281 4.10625 10.0406 4.35C9.77813 4.12812 9.41563 4 9 4C8.58437 4 8.22187 4.12812 7.95937 4.35C7.67187 4.10625 7.29063 4 6.91875 4C6.13125 4 5.58125 4.45312 5.47813 5.05625C5.42188 5.35 5 7.7 5 8.68437C5 10.275 5.83438 11.5469 7.21875 12.1438L6.8625 18.7312C6.825 19.4187 7.37187 20 8.0625 20H9.9375C10.625 20 11.175 19.4219 11.1375 18.7312L10.7812 12.1438C12.1625 11.5469 13 10.275 13 8.68437C13 7.7 12.5781 5.35 12.5219 5.05625V5.05625ZM9.75938 11.5L10.1406 18.7844C10.1469 18.9 10.0562 19 9.9375 19H8.0625C7.94687 19 7.85312 18.9031 7.85938 18.7844L8.24062 11.5C6.91562 11.225 6 10.1562 6 8.68437C6 7.75625 6.4625 5.22812 6.4625 5.22812C6.5125 4.91875 7.34688 4.925 7.38438 5.23438V9.0625C7.4125 9.42188 8.26563 9.42812 8.30625 9.06875L8.5375 5.22812C8.5875 4.925 9.40937 4.925 9.45937 5.22812L9.69063 9.06875C9.73125 9.425 10.5844 9.41875 10.6125 9.0625V5.2375C10.65 4.92812 11.4844 4.92188 11.5344 5.23125C11.5344 5.23125 11.9969 7.75937 11.9969 8.6875C12 10.15 11.0906 11.225 9.75938 11.5Z" fill="black"/>
</svg>
