<svg width="24" height="24" viewBox="0 0 24 24" fill="none" xmlns="http://www.w3.org/2000/svg">
<path d="M16.0181 4.5441C16.0335 4.51468 16.046 4.49166 16.055 4.47527L16.1734 4.26956C16.2581 4.12229 16.4482 4.07474 16.5923 4.16474L16.9404 4.38212C17.0774 4.4677 17.1221 4.64643 17.0414 4.7864L16.9292 4.98102L16.9284 4.98244L16.9226 4.99292C16.9169 5.00313 16.9079 5.01975 16.896 5.04251C16.8721 5.08806 16.8366 5.15812 16.7934 5.25069C16.7068 5.43598 16.5894 5.7105 16.4715 6.05819C16.2352 6.75502 16 7.73632 16 8.87744C16 9.87768 16.3802 10.5437 16.8593 11.3828L16.9301 11.507C17.4434 12.4085 18 13.4619 18 15.1226C18 16.4101 17.7352 17.5105 17.4715 18.2882C17.3394 18.6778 17.2068 18.9888 17.1059 19.2046C17.0554 19.3127 17.0127 19.3971 16.9819 19.4559C16.9665 19.4853 16.954 19.5083 16.945 19.5247L16.8266 19.7304C16.7419 19.8777 16.5518 19.9253 16.4077 19.8353L16.0596 19.6179C15.9226 19.5323 15.8779 19.3536 15.9586 19.2136L16.0711 19.0185L16.0716 19.0176L16.0774 19.0071C16.0831 18.9969 16.0921 18.9803 16.104 18.9575C16.1279 18.9119 16.1634 18.8419 16.2066 18.7493C16.2932 18.564 16.4106 18.2895 16.5285 17.9418C16.7648 17.245 17 16.2637 17 15.1226C17 13.7474 16.5566 12.8926 16.0699 12.0376C16.0395 11.9844 16.0089 11.9309 15.978 11.8771C15.5118 11.0639 15 10.1714 15 8.87744C15 7.5899 15.2648 6.48949 15.5285 5.71177C15.6606 5.32219 15.7932 5.01123 15.8941 4.79535C15.9446 4.68734 15.9873 4.60291 16.0181 4.5441Z" fill="black"/>
<path d="M13.0181 4.5441C13.0335 4.51468 13.046 4.49166 13.055 4.47527L13.1734 4.26956C13.2581 4.12229 13.4482 4.07474 13.5923 4.16474L13.9404 4.38212C14.0774 4.4677 14.1221 4.64643 14.0414 4.7864L13.9292 4.98102L13.9284 4.98244L13.9226 4.99292C13.9169 5.00313 13.9079 5.01975 13.896 5.04251C13.8721 5.08806 13.8366 5.15812 13.7934 5.25069C13.7068 5.43598 13.5894 5.7105 13.4715 6.05819C13.2352 6.75502 13 7.73632 13 8.87744C13 9.87768 13.3802 10.5437 13.8593 11.3828L13.9301 11.507C14.4434 12.4085 15 13.4619 15 15.1226C15 16.4101 14.7352 17.5105 14.4715 18.2882C14.3394 18.6778 14.2068 18.9888 14.1059 19.2046C14.0554 19.3127 14.0127 19.3971 13.9819 19.4559C13.9665 19.4853 13.954 19.5083 13.945 19.5247L13.8266 19.7304C13.7419 19.8777 13.5518 19.9253 13.4077 19.8353L13.0596 19.6179C12.9226 19.5323 12.8779 19.3536 12.9586 19.2136L13.0711 19.0185L13.0716 19.0176L13.0774 19.0071C13.0831 18.9969 13.0921 18.9803 13.104 18.9575C13.1279 18.9119 13.1634 18.8419 13.2066 18.7493C13.2932 18.564 13.4106 18.2895 13.5285 17.9418C13.7648 17.245 14 16.2637 14 15.1226C14 13.7474 13.5566 12.8926 13.0699 12.0376C13.0395 11.9844 13.0089 11.9309 12.978 11.8771C12.5118 11.0639 12 10.1714 12 8.87744C12 7.5899 12.2648 6.48949 12.5285 5.71177C12.6606 5.32219 12.7932 5.01123 12.8941 4.79535C12.9446 4.68734 12.9873 4.60291 13.0181 4.5441Z" fill="black"/>
<path d="M10.0181 4.5441C10.0335 4.51468 10.046 4.49166 10.055 4.47527L10.1734 4.26956C10.2581 4.12229 10.4482 4.07474 10.5923 4.16474L10.9404 4.38212C11.0774 4.4677 11.1221 4.64643 11.0414 4.7864L10.9292 4.98102L10.9284 4.98244L10.9226 4.99292C10.9169 5.00313 10.9079 5.01975 10.896 5.04251C10.8721 5.08806 10.8366 5.15812 10.7934 5.25069C10.7068 5.43598 10.5894 5.7105 10.4715 6.05819C10.2352 6.75502 10 7.73632 10 8.87744C10 9.87768 10.3802 10.5437 10.8593 11.3828L10.9301 11.507C11.4434 12.4085 12 13.4619 12 15.1226C12 16.4101 11.7352 17.5105 11.4715 18.2882C11.3394 18.6778 11.2068 18.9888 11.1059 19.2046C11.0554 19.3127 11.0127 19.3971 10.9819 19.4559C10.9665 19.4853 10.954 19.5083 10.945 19.5247L10.8266 19.7304C10.7419 19.8777 10.5518 19.9253 10.4077 19.8353L10.0596 19.6179C9.92259 19.5323 9.87794 19.3536 9.95863 19.2136L10.0711 19.0185L10.0716 19.0176L10.0774 19.0071C10.0831 18.9969 10.0921 18.9803 10.104 18.9575C10.1279 18.9119 10.1634 18.8419 10.2066 18.7493C10.2932 18.564 10.4106 18.2895 10.5285 17.9418C10.7648 17.245 11 16.2637 11 15.1226C11 13.7474 10.5566 12.8926 10.0699 12.0376C10.0395 11.9844 10.0089 11.9309 9.97802 11.8771C9.51175 11.0639 9 10.1714 9 8.87744C9 7.5899 9.26479 6.48949 9.5285 5.71177C9.66061 5.32219 9.79324 5.01123 9.89413 4.79535C9.94462 4.68734 9.98726 4.60291 10.0181 4.5441Z" fill="black"/>
<path d="M7.01808 4.5441C7.0335 4.51468 7.04596 4.49166 7.05499 4.47527L7.17337 4.26956C7.25813 4.12229 7.44817 4.07474 7.5923 4.16474L7.94037 4.38212C8.07741 4.4677 8.12206 4.64643 8.04137 4.7864L7.92918 4.98102L7.92838 4.98244L7.92255 4.99292C7.91693 5.00313 7.90791 5.01975 7.89598 5.04251C7.87211 5.08806 7.83663 5.15812 7.79337 5.25069C7.70676 5.43598 7.58939 5.7105 7.4715 6.05819C7.23521 6.75502 7 7.73632 7 8.87744C7 9.87768 7.38022 10.5437 7.8593 11.3828L7.93015 11.507C8.44338 12.4085 9 13.4619 9 15.1226C9 16.4101 8.73521 17.5105 8.4715 18.2882C8.33939 18.6778 8.20676 18.9888 8.10587 19.2046C8.05538 19.3127 8.01274 19.3971 7.98192 19.4559C7.9665 19.4853 7.95404 19.5083 7.94501 19.5247L7.82663 19.7304C7.74187 19.8777 7.55183 19.9253 7.4077 19.8353L7.05963 19.6179C6.92259 19.5323 6.87794 19.3536 6.95863 19.2136L7.07111 19.0185L7.07162 19.0176L7.07745 19.0071C7.08307 18.9969 7.09209 18.9803 7.10402 18.9575C7.12789 18.9119 7.16337 18.8419 7.20663 18.7493C7.29324 18.564 7.41061 18.2895 7.5285 17.9418C7.76479 17.245 8 16.2637 8 15.1226C8 13.7474 7.55662 12.8926 7.06985 12.0376C7.03955 11.9844 7.00888 11.9309 6.97802 11.8771C6.51175 11.0639 6 10.1714 6 8.87744C6 7.5899 6.26479 6.48949 6.5285 5.71177C6.66061 5.32219 6.79324 5.01123 6.89413 4.79535C6.94462 4.68734 6.98726 4.60291 7.01808 4.5441Z" fill="black"/>
</svg>
