<?xml version="1.0" encoding="utf-8"?>
<!-- Generator: Adobe Illustrator 26.4.1, SVG Export Plug-In . SVG Version: 6.00 Build 0)  -->
<svg version="1.1" id="Layer_1" xmlns="http://www.w3.org/2000/svg" xmlns:xlink="http://www.w3.org/1999/xlink" x="0px" y="0px"
	 viewBox="0 0 183.2 135.4" style="enable-background:new 0 0 183.2 135.4;" xml:space="preserve">
<style type="text/css">
	.st0{fill:#DBE2D8;}
	.st1{fill:#C9E2E9;}
	.st2{opacity:0.3;}
	.st3{fill:#879384;}
	.st4{fill:#8FA487;}
	.st5{opacity:0.2;fill:#C8E3D0;}
	.st6{fill:none;stroke:#1A1A1A;stroke-width:0.2;stroke-linecap:round;stroke-linejoin:round;stroke-miterlimit:10;}
	.st7{fill:#ACC6A4;}
	.st8{opacity:0.7;fill:#C8E3D0;}
	.st9{fill:#E3E1CE;}
	.st10{fill:#F1F3F2;}
	.st11{fill:#FBFBFA;stroke:#1A1A1A;stroke-width:0.2;stroke-linecap:round;stroke-linejoin:round;stroke-miterlimit:10;}
	.st12{opacity:0.3;fill:#C7C4AE;}
	.st13{fill:#EFE2AC;}
	.st14{fill:#F0CDA2;}
	.st15{fill:#D1CFB6;}
	.st16{fill:#E4F0EF;}
	.st17{fill:#CAB39B;}
	.st18{fill:#1A1A1A;}
	.st19{fill:none;}
	.st20{fill:#BFBEBE;}
	.st21{fill:#BED0E7;}
	.st22{fill:#E2E2E1;}
	.st23{fill:#816663;}
	.st24{fill:#BEB5B1;}
	.st25{fill:#FFFFFF;stroke:#1A1A1A;stroke-width:0.2;stroke-linecap:round;stroke-linejoin:round;stroke-miterlimit:10;}
	.st26{fill:#F4D6D2;}
	.st27{fill:#C7C4AE;}
	.st28{fill:#F0F0F0;}
	.st29{fill:#B8B7B7;}
	.st30{opacity:0.3;fill:#B8B7B7;}
	.st31{opacity:0.2;fill:#BFBEBE;}
	.st32{opacity:0.7;fill:#FFFFFF;}
</style>
<g>
	<g>
		<path class="st0" d="M179.8,47.7c-18.5-36.4-40.7-64.3-72-36.1S47.7,27.3,26.7,28.9C5.7,30.5,2.3,47.6,7.2,70.5
			C8.4,76,10,81.1,12,85.8l160.7-1.2C182,74.6,187,61.9,179.8,47.7z"/>
		<path class="st1" d="M12,86.2c-11.4,36.7,38,60.3,58.3,43.5c23.5-19.5,42.1-12.9,55-10.3c49.9,9.8,32.7-10.6,47.4-34.9L12,86.2z"
			/>
	</g>
	<g>
		<g class="st2">
			<path class="st3" d="M43.5,82c-10.1,0-20.1,0-30.2,0C11.2,82,9,82,7,81.7c-2.1-0.3-4.1-1.1-5.2-2.2c13.1-3.8,29.3-3.1,41.3,2"/>
		</g>
		<path class="st4" d="M13.9,71.6c0,0-8.9,3-8.9-3.5c0-6.6,3.7-1.8,3.7-1.8S7,69.5,7.1,66.7c0.2-2.8,1.2-11.4,5.8-8.4
			s-12.3-3-6.4-6.6s6.4-7.2,11.4-3s1.2,4.7-1.6,0.6s0.7-10.9,7.2-2.9s1.1,11.1-1.9,11.1s-0.6-1.6,3-1.8c3.6-0.2,9,5.7,7.4,7.6
			c0,0,9.3-1.1,5.5,4.8c0,0,4.4,1.6,1.4,6.1c-3,4.5-7.9,3.3-8.8,1.9c-0.9-1.4,14.6,1.7,9.1,4.1L7.6,80.3c0,0-6.3-1.7-4.6-3.2
			s8.7-3.3,10.4-3C13.3,74.1,9,69.4,13.9,71.6z"/>
		<path class="st5" d="M9.7,59.9c-1.2,1.2,0.6,4.9,2.2,3.8s3.2-3.8,1.6-3.8S10.2,59.3,9.7,59.9z"/>
		<path class="st5" d="M22.4,70c-2,2,0.9,8.2,3.6,6.3c2.7-1.8,5.4-6.4,2.7-6.4S23.3,69.1,22.4,70z"/>
		<path class="st5" d="M25.3,57.9c0.9-1.4-1.8-0.9-3.1,0.8c-1.4,1.7-2.3,4-0.7,2.5C23.2,59.8,24.9,58.5,25.3,57.9z"/>
		<path class="st5" d="M11.9,69.5c0.4-0.7-1-1.6-1.7-0.9s-1,2-0.2,1.7C10.9,70,11.8,69.8,11.9,69.5z"/>
		<path class="st5" d="M21.3,52.7c0.4-0.7-1-1.6-1.7-0.9c-0.6,0.7-1,2-0.2,1.7C20.3,53.1,21.2,53,21.3,52.7z"/>
		<path class="st5" d="M13.3,50c0.9-0.9-1.3-1.5-2.6-0.4s-2.4,2.6-0.9,2S12.9,50.4,13.3,50z"/>
		<path class="st6" d="M12.9,71.6c0,0-8.9,3-8.9-3.5c0-6.6,3.7-1.8,3.7-1.8S6,69.5,6.1,66.7c0.2-2.8,1.2-11.4,5.8-8.4
			s-12.3-3-6.4-6.6s6.4-7.2,11.4-3s1.2,4.7-1.6,0.6s0.7-10.9,7.2-2.9s1.1,11.1-1.9,11.1s-0.6-1.6,3-1.8c3.6-0.2,9,5.7,7.4,7.6
			c0,0,9.3-1.1,5.5,4.8c0,0,4.4,1.6,1.4,6.1c-3,4.5-7.9,3.3-8.8,1.9c-0.9-1.4,14.6,1.7,9.1,4.1L6.6,80.3c0,0-6.3-1.7-4.6-3.2
			s8.7-3.3,10.4-3C12.4,74.1,8,69.4,12.9,71.6z"/>
	</g>
	<g>
		<g class="st2">
			<path class="st3" d="M60.7,82.2c6.6,0,13.1,0,19.7-0.1c1.4,0,2.8,0,4.2-0.5c1.4-0.5,2.7-1.6,3.4-3.4c-8.6-5.8-19.1-4.6-27,3.2"/>
		</g>
		<path class="st4" d="M80,66.2c0,0,5.8,4.6,5.8-5.5S83.4,58,83.4,58s1.2,4.9,1,0.6s-0.8-17.4-3.8-12.8s8-4.7,4.2-10.1
			c-3.9-5.4-4.2-11-7.4-4.6s-0.7,7.2,1,1c1.8-6.3-0.5-16.7-4.7-4.5c-4.2,12.3-0.7,17,1.3,17c2,0,0.4-2.5-2-2.7s-5.8,8.8-4.8,11.7
			c0,0-6.1-1.6-3.6,7.4c0,0-2.9,2.5-0.9,9.4c2,6.9,5.2,5.1,5.7,2.9c0.6-2.1-9.5,2.7-6,6.3l20.6,0c0,0,4.1-2.6,3-5
			c-1.1-2.4-5.7-5.1-6.8-4.5C80.4,70,83.2,62.8,80,66.2z"/>
		<path class="st5" d="M82.7,48.2c0.8,1.9-0.3,7.5-1.4,5.8c-1.1-1.7-2.1-5.8-1.1-5.8S82.3,47.3,82.7,48.2z"/>
		<path class="st5" d="M74.4,63.7c1.3,3.1-0.6,12.5-2.3,9.7c-1.8-2.8-3.6-9.7-1.8-9.7C72,63.7,73.8,62.4,74.4,63.7z"/>
		<path class="st5" d="M72.5,45.2c-0.6-2.2,1.2-1.4,2.1,1.2s1.5,6.1,0.4,3.9C73.9,48.1,72.7,46.2,72.5,45.2z"/>
		<path class="st5" d="M81.3,62.9c-0.3-1.1,0.7-2.4,1.1-1.3s0.7,3.1,0.1,2.6C82,63.7,81.4,63.4,81.3,62.9z"/>
		<path class="st5" d="M75.1,37.2c-0.3-1.1,0.7-2.4,1.1-1.3s0.7,3.1,0.1,2.6S75.2,37.6,75.1,37.2z"/>
		<path class="st5" d="M80.3,33.1c-0.6-1.4,0.8-2.2,1.7-0.6s1.6,4.1,0.6,3C81.6,34.4,80.5,33.7,80.3,33.1z"/>
		<path class="st6" d="M80.7,66.2c0,0,5.8,4.6,5.8-5.5S84,58,84,58s1.2,4.9,1,0.6s-0.8-17.4-3.8-12.8s8-4.7,4.2-10.1
			s-4.2-11-7.4-4.6s-0.7,7.2,1,1c1.8-6.3-0.5-16.7-4.7-4.5s-0.7,17,1.3,17c2,0,0.4-2.5-2-2.7s-5.8,8.8-4.8,11.7c0,0-6.1-1.6-3.6,7.4
			c0,0-2.9,2.5-0.9,9.4c2,6.9,5.2,5.1,5.7,2.9c0.6-2.1-9.5,2.7-6,6.3l20.6,0c0,0,4.1-2.6,3-5c-1.1-2.4-5.7-5.1-6.8-4.5
			C81,70,83.8,62.8,80.7,66.2z"/>
	</g>
	<g>
		<g class="st2">
			<path class="st3" d="M43.7,79.7c-2.8,0-5.7,0-8.5,0c-0.6,0-1.2,0-1.8,0.1c-0.6,0.1-1.1,0.3-1.5,0.6c3.7,1.1,8.3,0.8,11.7-0.6"/>
		</g>
		<path class="st7" d="M34.7,80.4c0,0-5-4.2-2.4-5.2c0,0-4.6-3.2-0.9-3.7c3.7-0.5,3.1,1.6,3.1,1.6s-3.5-1.4-1.9-3.3
			c1.6-2,3.9,0,3.9,0s0.7-1.5,1.6-0.9c0.9,0.6,0,1.4,0,1.4s-0.6-1.6,1.1-1c1.6,0.6,5.3,0.3,2.4,3.9c-2.9,3.7-1.8,0.7-0.5-0.7
			c1.3-1.4,4.5-3.6,4.8-0.3c0.3,3.3-3.4,5.6-5.8,5.1c-2.4-0.5,0.1-1,1.1-0.6c1,0.4,4.6,0.6,2.4,2.2c0,0-1.7,1.5-3.9,1.5
			C37.2,80.4,34.7,80.4,34.7,80.4z"/>
		<path class="st8" d="M31.9,75.7c0,0,0-0.9,0.9-0.9c0.9,0,4.2,1.2,2.6,1.4C33.8,76.4,32.8,76.4,31.9,75.7z"/>
		<path class="st8" d="M33.4,69.7c0,0,0.1-0.4,1-0.1c0.9,0.3,3.8,2,2.2,1.5C35.1,70.6,34.2,70.3,33.4,69.7z"/>
		<path class="st8" d="M42.3,73.4c0,0-0.8-0.5-0.3-1.2c0.5-0.7,3.1-2.5,2.5-1.2C43.8,72.3,43.3,73.1,42.3,73.4z"/>
		<path class="st6" d="M34.3,80.2c0,0-5-4.2-2.4-5.2c0,0-4.6-3.2-0.9-3.7c3.7-0.5,3.1,1.6,3.1,1.6s-3.5-1.4-1.9-3.3
			c1.6-2,3.9,0,3.9,0s0.7-1.5,1.6-0.9c0.9,0.6,0,1.4,0,1.4s-0.6-1.6,1.1-1c1.6,0.6,5.3,0.3,2.4,3.9c-2.9,3.7-1.8,0.7-0.5-0.7
			c1.3-1.4,4.5-3.6,4.8-0.3c0.3,3.3-3.4,5.6-5.8,5.1c-2.4-0.5,0.1-1,1.1-0.6c1,0.4,4.6,0.6,2.4,2.2c0,0-1.7,1.5-3.9,1.5
			S34.3,80.2,34.3,80.2z"/>
	</g>
	<path class="st9" d="M12.8,91.8C3,91.5-4.8,80.6,17.2,79.9s141.3-0.3,153.8-0.3c12.5,0,20,10.9-0.6,11.8s-144.6,0.3-150,0.3
		C15.1,91.7,15.1,91.9,12.8,91.8z"/>
	<path class="st10" d="M5.8,26.4c-2.5,2.2,9.3,9.4,29.2,6.3c19.9-3.1,23.7-0.3,25.7-2.2c2-1.8-21.2-4.1-27.8-3.1
		C26.3,28.3,8.9,23.6,5.8,26.4z"/>
	<path class="st10" d="M95.2,28.3c-1.7-3,6.6-11.6,20.2-6.8s16.3,1.5,17.7,3.9s-14.7,4.4-19.2,2.8C109.3,26.7,97.2,32,95.2,28.3z"/>
	<path class="st11" d="M73.7,75C73.7,75,73.7,75,73.7,75C73.7,75,73.7,75,73.7,75C73.7,75,73.7,75,73.7,75z"/>
	<path class="st9" d="M164.9,52.5"/>
	<path class="st12" d="M45.1,88.3c0.4,0.6,3.6-0.3,5.1-0.1c1.5,0.2,2.1,0.8,2.3,0.1c0.2-0.7-0.2-1.4-2.2-1.1
		c-1.9,0.2-3.9,0.5-4.5,0.4C45.2,87.5,44.9,87.9,45.1,88.3z"/>
	<path class="st1" d="M48.9,96.1c0.3,0.3,1.1,0.3,0.8,0.5c-0.3,0.2-0.8,0.6-0.3,0.6c0.5,0.1,0.4,0.3,0.1,0.4
		c-0.2,0.1-0.3,0.4,0.3,0.4s1.1-0.1,0.6-0.4c-0.4-0.3-1.4-0.5-0.7-0.7c0.8-0.2,0.8-0.3,0.8-0.6c0-0.3-0.5-1.3-1.1-0.9
		C48.8,95.8,48.7,95.8,48.9,96.1z"/>
	<path class="st1" d="M53.6,96.1c0.3,0.3,1.1,0.3,0.8,0.5c-0.3,0.2-0.8,0.6-0.3,0.6c0.5,0.1,0.4,0.3,0.1,0.4s-0.3,0.4,0.3,0.4
		s1.1-0.1,0.6-0.4c-0.4-0.3-1.4-0.5-0.7-0.7c0.8-0.2,0.8-0.3,0.8-0.6c0-0.3-0.5-1.3-1.1-0.9C53.4,95.8,53.3,95.8,53.6,96.1z"/>
	<path class="st6" d="M76.4,76.4c0,0,0,7.5,0.5,7.7"/>
	<path class="st6" d="M76.9,76.6c0,0,0.3,2.5,0,3.6c-0.3,1.1,0.1,3.4,0.1,3.4"/>
	<path class="st6" d="M77.8,76.5c0,0-0.2,7.4-0.3,7.6"/>
	<path class="st6" d="M78.4,76.6c0,0-0.1,1.4,0,3.3c0.1,1.9,0,3.9,0,3.9"/>
	<path class="st6" d="M78.9,76.3c0,0-0.2,7.3,0,7.7"/>
	<path class="st6" d="M79.3,76.3c0,0,0,7.5,0.5,7.7"/>
	<path class="st6" d="M79.8,76.6c0,0,0.3,2.5,0,3.6c-0.3,1.1,0.1,3.4,0.1,3.4"/>
	<path class="st6" d="M80.8,76.5c0,0-0.2,7.4-0.3,7.6"/>
	<path class="st6" d="M81.3,76.6c0,0-0.1,1.4,0,3.3c0.1,1.9,0,3.9,0,3.9"/>
	<path class="st6" d="M81.8,76.3c0,0-0.2,7.3,0,7.7"/>
	<path class="st6" d="M82.2,76.3c0,0,0,7.5,0.5,7.7"/>
	<path class="st6" d="M82.8,76.6c0,0,0.3,2.5,0,3.6c-0.3,1.1,0.1,3.4,0.1,3.4"/>
	<path class="st6" d="M83.7,76.5c0,0-0.2,7.4-0.3,7.6"/>
	<path class="st6" d="M84.3,76.6c0,0-0.1,1.4,0,3.3c0.1,1.9,0,3.9,0,3.9"/>
	<path class="st6" d="M84.7,76.3c0,0-0.2,7.3,0,7.7"/>
	<g>
		<path class="st13" d="M51,68.8c0,0.3,1.1,0.3,1.3,0.1c0.2-0.1,0.2-2.1,0.2-2.3c0-0.3-1.3-0.8-1.8-0.7C50.2,66.2,51.1,68.5,51,68.8
			z"/>
		<path class="st6" d="M50.9,69c0,0.5,1.3,0.4,1.6,0.2c0.3-0.2,0.2-3.5,0.2-3.7c0-0.5-1.4-0.4-2-0.2C50,65.5,51,68.5,50.9,69z"/>
		<polyline class="st6" points="51.1,65.9 50.6,63.7 50.8,63.6 51.2,65.9 		"/>
		<path class="st14" d="M51,66.1c0,0,0.2-0.1,0.3,0c0.1,0.1-0.1,0.1,0,0.2c0,0.1,0.1,0.3,0.2,0.3s-0.2,0.2,0,0.3
			c0.2,0.1,0.2,0.1,0.2,0.3c0,0.2-0.2,0.3,0,0.5c0.2,0.2-0.1,0.2-0.2,0c-0.1-0.2,0.2-0.2,0-0.6c-0.2-0.4-0.2-0.4-0.2-0.6
			c0.1-0.1-0.1-0.4-0.2-0.5C50.9,66.2,51,66.1,51,66.1z"/>
		<path class="st11" d="M25.6,60.7c-0.1,0.4-0.5,1.5-0.4,1.5c-0.3,1.8-0.9,3.1-0.9,3.1c-0.3-0.4-0.3-1.9-1.4-2.6
			c-1.1-0.7-2.3-0.5-2.6-0.1c0,0-0.5,3.6,3,4.8c2.9,1,2.9-4.7,2.9-4.7s1-0.5,0.9-1.6C27,60.5,25.8,60.3,25.6,60.7z"/>
		<g>
			<path class="st15" d="M11.5,81.6c0.1,1,1.4,2,8.8,1.7c7.5-0.3,11.2,0.3,11.4-0.8c0.2-1.2-0.1-2.3-6.4-2.2s-7.3,0.5-9.9,0.2
				C12.9,80.3,11.5,80.9,11.5,81.6z"/>
			<g>
				<g>
					<path class="st9" d="M30.3,72.9l0,8.8c0,0.3-0.3,0.6-0.6,0.6c-0.3,0-0.6-0.3-0.6-0.6l0-8.8c0,0,0,0,0,0L30.3,72.9
						C30.3,72.9,30.3,72.9,30.3,72.9z"/>
					<path class="st9" d="M20.1,81.4l4.2-8.5l1.4,0L21.3,82c-0.2,0.3-0.5,0.4-0.8,0.3C20.1,82.1,20,81.7,20.1,81.4z"/>
					<path class="st9" d="M22.1,71.6l10.1,0c0.3,0,0.6,0.3,0.6,0.6c0,0.3-0.3,0.6-0.6,0.6l-1.9,0l-1.3,0l-3.2,0l-1.4,0l-2.3,0
						c-0.3,0-0.6-0.3-0.6-0.6C21.4,71.9,21.7,71.6,22.1,71.6z"/>
				</g>
				<path class="st9" d="M23.3,77.7l5.7,0l0-1.3l-5.7,0c0,0-0.7,0.1-0.7,0.7C22.6,77.1,22.7,77.7,23.3,77.7z"/>
			</g>
			<g>
				<path class="st6" d="M30.3,72.8l0,8.8c0,0.3-0.3,0.6-0.6,0.6c-0.3,0-0.6-0.3-0.6-0.6l0-8.8c0,0,0,0,0,0L30.3,72.8
					C30.3,72.8,30.3,72.8,30.3,72.8z"/>
				<path class="st6" d="M20.1,81.3l4.2-8.5l1.4,0L24,76.4l-0.7,0c0,0-0.7,0.1-0.7,0.7c0,0,0,0.6,0.7,0.6l0.1,0l-2.1,4.3
					c-0.2,0.3-0.5,0.4-0.8,0.3C20.1,82,20,81.6,20.1,81.3z"/>
				<path class="st6" d="M22.1,72.8c-0.3,0-0.6-0.3-0.6-0.6c0-0.3,0.3-0.6,0.6-0.6l10.1,0c0.3,0,0.6,0.3,0.6,0.6
					c0,0.3-0.3,0.6-0.6,0.6l-1.9,0l-1.3,0l-3.2,0l-1.4,0L22.1,72.8z"/>
				<path class="st6" d="M23.3,76.4l0.7,0l5,0l0,1.3l-5.6,0l-0.1,0c-0.6,0-0.7-0.6-0.7-0.6C22.6,76.4,23.3,76.4,23.3,76.4z"/>
			</g>
			<g>
				<polygon class="st9" points="10.7,61.7 16.1,75.6 24.5,75.5 24.5,76.2 15.8,76.2 10.1,61.9 				"/>
				
					<rect x="24.5" y="75.5" transform="matrix(-1 1.937785e-03 -1.937785e-03 -1 56.3577 151.6978)" class="st9" width="7.3" height="0.7"/>
				<polygon class="st9" points="17.9,61.7 10.7,61.7 16.1,75.6 23.4,75.5 				"/>
			</g>
			<g>
				<polygon class="st6" points="10.7,61.6 16.2,75.5 24.5,75.5 24.5,76.2 15.8,76.2 10.2,61.9 				"/>
				
					<rect x="24.5" y="75.5" transform="matrix(-1 1.937785e-03 -1.937785e-03 -1 56.4601 151.5617)" class="st6" width="7.3" height="0.7"/>
				<polygon class="st6" points="18,61.6 10.7,61.6 16.2,75.5 23.4,75.5 				"/>
			</g>
			<g>
				<g>
					<path class="st16" d="M31.5,71.5c-1.7-0.4-3.2-0.3-4.1-0.2c0,0.2-0.1,0.3-0.1,0.3l0,0c-0.1,0-0.3,0-0.4,0c0,0-0.1,0-0.1,0
						c0,0,0,0.1,0,0.1c0,0.1-0.1,0.2-0.1,0.3c-0.1,0.1-0.2,0.1-0.3,0.1c0,0-0.1,0-0.1,0L24.8,72l-0.3,0c0,0-0.1,0-0.2,0
						c-1.5,0.4-5.5,0.4-5.5,0.4c-0.4-0.1-0.7-0.2-1.1-0.4c-0.1-0.1-0.2-0.1-0.3-0.2c0.1,0.5,0.4,1.4,0.8,1.9c0,0,0.6,1.5,3.3,1.7
						c0,0,4.3,0.2,5.4,0.1c1.1-0.1,1.1-0.1,1.1-0.1c-0.1-0.1-0.1-0.2-0.1-0.3c0,0,0-0.1,0-0.1c-0.1,0-0.2,0-0.3,0
						c-0.1,0-0.1,0-0.2,0l-0.3,0c0,0,0,0,0,0c-0.1,0-1.1-0.4-0.9-1.6c0.2-1.2,0.9-1.8,1.6-1.8c0,0,0,0,0.1,0c0,0,0.1,0,0.1,0
						c0.2,0,0.4,0,0.5,0c0,0,0.1,0,0.1,0c0.5,0,0.9,0.1,1.2,0.2c0,0,0,0,0.1,0c0,0,0.6-0.4,1.3-0.3c0,0,0,0,0,0c0,0,0,0,0,0
						c0.5,0.1,0.9,0.2,1.2,0.3c0.2,0.1,0.3,0.2,0.5,0.3c0,0,0,0,0.1,0C33.2,72.4,33.7,71.9,31.5,71.5z"/>
					<path class="st11" d="M19.3,58.8c-0.1-0.7,0.5-0.7,0.5-0.7s0.5,0,0.4,0.5l0,0.4l0.3,0.1c0.7-0.6,0.4-1.5,0.4-1.5
						c0.4,0.1,0.7,0.2,1,0.2c0.8,0,1.4-0.2,1.8-0.5c0.1,0.4,0.1,2-0.2,2.7c-0.3,1-0.7,1.9-2,1.8c0,0,0,0,0,0
						c-0.8-0.1-1.6-0.5-2.1-1.3c0.3-0.2,0.5-0.5,0.5-0.8c0-0.2,0-0.4,0-0.4S19.4,59.5,19.3,58.8z"/>
					<path class="st17" d="M18.9,60.8c1.1-0.3,1-1.3,1-1.3s-0.5,0.1-0.6-0.6c-0.1-0.7,0.5-0.7,0.5-0.7s0.5,0,0.4,0.5l0,0.4l0.3,0.1
						c0.7-0.6,0.4-1.5,0.4-1.5c2.2,0.7,3.4-0.8,3.4-0.8c0.4-0.5-0.1-1-0.3-1.1c0,0-0.4-0.2-0.8-0.1c0,0,0.1,0.3,0.1,0.3
						c-0.1,0-5.4-2.1-4.8,1.5S18.9,60.8,18.9,60.8z"/>
					<path class="st6" d="M23.7,56.1c0,0-3.9-1.6-4.9-0.2c-0.4,0.6-0.7,1.4-0.3,2.5c0.2,0.6,0.4,1,0.4,2.3c1.1-0.3,1-1.3,1-1.3
						s-0.5,0.1-0.6-0.6c-0.1-0.7,0.5-0.7,0.5-0.7s0.5,0,0.4,0.5l0,0.4l0.3,0.1c0.7-0.6,0.4-1.5,0.4-1.5c2.2,0.7,3.4-0.8,3.4-0.8
						c0.4-0.5-0.1-1-0.3-1.1"/>
					<g>
						<circle class="st18" cx="23.3" cy="58.9" r="0.1"/>
						<circle class="st18" cx="21.6" cy="58.7" r="0.1"/>
						<path class="st6" d="M22.7,58.9c0,0-0.4,0.5,0.1,0.6c0.4,0.1,0.4,0,0.4,0.2c0,0.1,0,0.3-0.4,0.3c-0.3,0-0.3,0-0.3,0"/>
					</g>
					<path class="st19" d="M27.6,75.1c-0.1,0-0.2,0-0.3,0c0,0,0,0,0,0L27.6,75.1z"/>
					<path class="st19" d="M31.4,71.7C31.4,71.7,31.4,71.7,31.4,71.7C31.4,71.7,31.4,71.7,31.4,71.7C31.4,71.7,31.4,71.7,31.4,71.7z
						"/>
					<path class="st11" d="M34.9,79.7c-0.6,0.3-1.5,0.8-1.8,1c0-0.1-0.5-2-1.3-5.4c0-0.2-0.1-0.4-0.1-0.6c-0.3-1.3-0.4-2.3-1.7-2.8
						c-0.5-0.2-0.9-0.2-1.2-0.2c0,0-0.1,0-0.1,0c-0.2,0-0.3,0-0.5,0c-0.1,0-0.1,0-0.2,0c-0.7,0-1.4,0.6-1.6,1.8
						c-0.2,1.2,0.8,1.6,0.9,1.6c0.1,0,0.2,0,0.3,0L28,75l0.2,0.4l0,0c0.6,1.3,2.6,5.6,3.1,6.4l0.3,0.7c0,0,2.5-0.9,3.6-2.2
						c0.2-0.2,0.3-0.4,0.4-0.7C35.7,79.4,35.4,79.5,34.9,79.7z"/>
					<path class="st6" d="M28,71.7c0.1,0,0.1,0,0.2,0C28.2,71.7,28.1,71.7,28,71.7C28.1,71.7,28,71.7,28,71.7z"/>
					<path class="st6" d="M28.7,71.7C28.8,71.7,28.8,71.7,28.7,71.7C28.8,71.7,28.8,71.7,28.7,71.7z"/>
					<path class="st11" d="M39.8,80.2c-0.9,0.1-2.9-0.6-2.9-0.6c-1.7-3.6-2.2-6.2-3.8-7.3c-0.7-0.4-1.1-0.5-1.7-0.6c0,0,0,0,0,0
						c-0.7-0.1-1.3,0.3-1.3,0.3c0,0,0,0-0.1,0c1.2,0.5,1.4,1.5,1.7,2.8c0,0.2,0.1,0.4,0.1,0.6c0.9,0.8,2.3,3.1,3.1,4.4
						c0.5-0.2,0.8-0.3,0.7-0.1c-0.1,0.2-0.2,0.5-0.4,0.7c0.1,0.2,0.2,0.3,0.2,0.3l0.7,1.4c0,0,2.1-0.7,3.7-1.1
						C41.4,80.4,40.8,80.1,39.8,80.2z"/>
					<path class="st11" d="M17.8,62.7C17.8,62.7,17.8,62.7,17.8,62.7C17.8,62.8,17.8,62.7,17.8,62.7C17.8,62.7,17.8,62.7,17.8,62.7z
						"/>
					<path class="st6" d="M18.9,72.4c0,0,4,0,5.5-0.4C23.1,72.3,18.9,72.4,18.9,72.4z"/>
					<path class="st11" d="M28,75C28,75,28,75,28,75c0,0.1,0.1,0.2,0.2,0.4l0,0L28,75z"/>
					<path class="st11" d="M28,75l-0.5,0.1c0.1,0,0.1,0,0.2,0C27.8,75,27.9,75,28,75z"/>
					<path class="st11" d="M28.7,71.7c-0.2,0-0.3,0-0.5,0C28.4,71.7,28.6,71.7,28.7,71.7z"/>
					<path class="st6" d="M28,75.1C28,75,28,75,28,75.1c-0.1,0-0.2,0-0.3,0c-0.1,0-0.1,0-0.2,0l-0.3,0c0,0,0,0,0,0
						c-0.1,0-1.1-0.4-0.9-1.6c0.2-1.2,0.9-1.8,1.6-1.8c-0.3,0-0.6,0-1,0c-0.1,0-0.3,0-0.4,0c-0.1,0.1-0.2,0.1-0.3,0.1
						c0,0-0.1,0-0.1,0l-1.5,0.1l-0.3,0c0,0-0.1,0-0.2,0c-1.5,0.4-5.5,0.4-5.5,0.4c-0.4-0.1-0.7-0.2-1.1-0.4
						c-0.1-0.1-0.2-0.1-0.3-0.2c0.1,0.5,0.4,1.4,0.8,1.9c0,0,0.6,1.5,3.3,1.7c0,0,4.3,0.2,5.4,0.1c1.1-0.1,1.1-0.1,1.1-0.1
						C28.1,75.2,28.1,75.1,28,75.1z"/>
					<path class="st11" d="M28.8,71.7c0.3,0,0.7,0.1,1.2,0.2C29.7,71.8,29.3,71.7,28.8,71.7z"/>
					<path class="st6" d="M31.5,71.3c-1.7-0.4-3.2-0.3-4.1-0.2c0,0.2-0.1,0.3-0.1,0.3l0,0c-0.1,0-0.3,0-0.4,0c0,0-0.1,0-0.1,0
						c0,0,0,0.1,0,0.1c0,0.1-0.1,0.2-0.1,0.3c0.1,0,0.3,0,0.4,0c0.4,0,0.7,0,1,0c0,0,0,0,0.1,0c0,0,0.1,0,0.1,0c0.2,0,0.4,0,0.5,0
						c0,0,0.1,0,0.1,0c0.5,0,0.9,0.1,1.2,0.2c0,0,0,0,0.1,0c0,0,0.6-0.4,1.3-0.3c0,0,0,0,0,0c0,0,0,0,0,0c0.5,0.1,0.9,0.2,1.2,0.3
						c0.2,0.1,0.3,0.2,0.5,0.3c0,0,0,0,0.1,0C33.2,72.3,33.7,71.8,31.5,71.3z"/>
					<path class="st6" d="M31.4,71.7c0.7,0.1,1.1,0.2,1.7,0.6c-0.2-0.1-0.3-0.2-0.5-0.3C32.3,71.9,31.9,71.7,31.4,71.7z"/>
					<path class="st11" d="M27.3,71.4"/>
					<path class="st11" d="M24.3,72c0.1,0,0.1,0,0.2,0C24.5,71.9,24.4,71.9,24.3,72z"/>
					<path class="st11" d="M25.1,71.9"/>
					<path class="st6" d="M26.8,71.8c0,0-2,0.7-2,2.1"/>
					<path class="st6" d="M19.5,72.3c0,0,0,1.8,0.8,2.2"/>
					<path class="st19" d="M26.7,71.5c0,0.1-0.1,0.2-0.1,0.3c0,0-0.1,0.1-0.1,0.1c0,0,0.1,0,0.1-0.1C26.7,71.7,26.7,71.6,26.7,71.5
						c0,0,0-0.1,0-0.1h0C26.8,71.4,26.8,71.5,26.7,71.5z"/>
					<path class="st19" d="M26.5,71.8C26.5,71.8,26.5,71.8,26.5,71.8C26.5,71.8,26.5,71.8,26.5,71.8z"/>
					<path class="st11" d="M26.6,70.1c0,0-0.1-0.1-0.1-0.1c-0.3-0.1-0.6-0.2-0.9-0.2c-0.2,0-0.3,0-0.5,0.1l0,0c0,0-2.5-7.3-3.7-7.6
						c0-0.2,0-0.4,0-0.5c-0.8-0.1-1.6-0.5-2.1-1.3l-0.1,1.3c0,0,0,0.1,0,0.2c-0.2,0-0.3,0.1-0.5,0.1c-0.3,0.1-0.6,0.3-0.9,0.6
						c0,0,0,0,0,0c-0.3,0.3-0.6,0.7-0.8,1.2c-0.7,1.2-1.4,3.2-0.8,5.9c0.2,0.9,0.7,1.5,1.3,1.9c0.1,0.1,0.2,0.1,0.3,0.2
						c0.3,0.2,0.7,0.3,1.1,0.4c0,0,4.2-0.1,5.5-0.4c0.1,0,0.1,0,0.2,0l0.3,0l1.5-0.1c0,0,0.1,0,0.1,0c0,0,0,0,0.1,0c0,0,0,0,0.1,0
						c0,0,0.1,0,0.1-0.1c0-0.1,0.1-0.1,0.1-0.3c0,0,0-0.1,0-0.1h0c0,0,0-0.1,0-0.1C26.9,70.8,26.8,70.3,26.6,70.1z"/>
					<path class="st11" d="M26.4,71.8C26.4,71.8,26.4,71.8,26.4,71.8C26.4,71.8,26.4,71.8,26.4,71.8z"/>
					<path class="st6" d="M26.3,71.8C26.3,71.8,26.3,71.8,26.3,71.8c0.2,0.1,0.3,0.1,0.3,0c0-0.1,0.1-0.1,0.1-0.3c0,0,0-0.1,0-0.1
						c0,0,0-0.1,0-0.1c0.1-0.5,0-1.1-0.4-1.3c-0.3-0.1-0.6-0.2-0.9-0.2c-0.4,0-0.7,0.2-1,0.3c-0.2,0.1-0.4,0.5-0.4,0.5
						c-1.5-0.5-4.3-0.6-4.3-0.6c-1-0.9-1.4-3.7-0.8-4.6"/>
					<path class="st6" d="M22.1,60.6c0,0,0.3,0,0.4-0.2"/>
				</g>
			</g>
			<g>
				<g>
					<g>
						<path class="st9" d="M22.8,72.9l0,8.8c0,0.3-0.3,0.6-0.6,0.6s-0.6-0.3-0.6-0.6l0-8.8c0,0,0,0,0,0L22.8,72.9
							C22.8,72.9,22.8,72.9,22.8,72.9z"/>
						<path class="st9" d="M12.7,81.4l4.2-8.5l1.4,0L13.8,82c-0.2,0.3-0.5,0.4-0.8,0.3C12.7,82.1,12.5,81.8,12.7,81.4z"/>
						<path class="st9" d="M14.6,71.6l10.1,0c0.3,0,0.6,0.3,0.6,0.6c0,0.3-0.3,0.6-0.6,0.6l-1.9,0l-1.3,0l-3.2,0l-1.4,0l-2.3,0
							c-0.3,0-0.6-0.3-0.6-0.6C14,71.9,14.3,71.6,14.6,71.6z"/>
					</g>
					<path class="st9" d="M15.9,77.7l5.7,0l0-1.3l-5.7,0c0,0-0.7,0.1-0.7,0.7C15.2,77.1,15.3,77.7,15.9,77.7z"/>
				</g>
				<g>
					<path class="st6" d="M22.8,72.8l0,8.8c0,0.3-0.3,0.6-0.6,0.6c-0.3,0-0.6-0.3-0.6-0.6l0-8.8c0,0,0,0,0,0L22.8,72.8
						C22.8,72.8,22.8,72.8,22.8,72.8z"/>
					<path class="st6" d="M12.7,81.3l4.2-8.5l1.4,0l-1.8,3.6l-0.7,0c0,0-0.7,0.1-0.7,0.7c0,0,0,0.6,0.7,0.6l0.1,0l-2.1,4.3
						c-0.2,0.3-0.5,0.4-0.8,0.3C12.7,82,12.5,81.7,12.7,81.3z"/>
					<path class="st6" d="M14.6,72.8c-0.3,0-0.6-0.3-0.6-0.6s0.3-0.6,0.6-0.6l10.1,0c0.3,0,0.6,0.3,0.6,0.6c0,0.3-0.3,0.6-0.6,0.6
						l-1.9,0l-1.3,0l-3.2,0l-1.4,0L14.6,72.8z"/>
					<path class="st6" d="M15.9,76.4l0.7,0l5,0l0,1.3l-5.6,0l-0.1,0c-0.6,0-0.7-0.6-0.7-0.6C15.2,76.4,15.9,76.4,15.9,76.4z"/>
				</g>
			</g>
		</g>
		<path class="st13" d="M26.7,63.2c0.2,0.2,0.8-0.7,0.9-1c0-0.3-1.6-1.4-1.7-1.5c-0.2-0.2-1.4,0.6-1.6,1
			C24.1,62.3,26.5,63,26.7,63.2z"/>
		<path class="st6" d="M26.8,63.4c0.4,0.3,1.1-0.8,1.1-1.1c0-0.3-2.7-2.2-2.9-2.3c-0.4-0.3-1.2,0.9-1.3,1.5
			C23.4,62.1,26.4,63,26.8,63.4z"/>
		<path class="st6" d="M26.9,63.3c0,0,0.3-0.8,0.7-1"/>
		<line class="st6" x1="22.3" y1="60.6" x2="24.4" y2="61.5"/>
		<line class="st6" x1="22.4" y1="60.5" x2="24.5" y2="61.4"/>
		<path class="st14" d="M24.5,61.7c0,0,0-0.2,0.2-0.2s0.1,0.1,0.2,0.2s0.3,0.1,0.4,0c0.1,0,0.1,0.3,0.3,0.2c0.2,0,0.2-0.1,0.3,0
			s0.1,0.3,0.4,0.3c0.3,0,0.1,0.2-0.1,0.2c-0.2-0.1,0-0.2-0.5-0.3c-0.4-0.1-0.5-0.1-0.5-0.2c-0.1-0.1-0.3-0.2-0.5-0.1
			C24.5,61.7,24.5,61.7,24.5,61.7z"/>
		
			<rect x="40.7" y="50.7" transform="matrix(1 -1.937785e-03 1.937785e-03 1 -0.1291 7.983930e-02)" class="st20" width="1" height="32"/>
		
			<rect x="40.5" y="50.7" transform="matrix(1 -1.937785e-03 1.937785e-03 1 -0.1291 7.951304e-02)" class="st6" width="1" height="32"/>
		
			<rect x="28.8" y="69.1" transform="matrix(1 -1.937785e-03 1.937785e-03 1 -0.1344 8.086620e-02)" class="st9" width="25.7" height="0.7"/>
		
			<rect x="28.4" y="69.1" transform="matrix(1 -1.937785e-03 1.937785e-03 1 -0.1344 8.007436e-02)" class="st6" width="25.7" height="0.7"/>
		<g>
			<path class="st15" d="M52.2,82c0.1,1,1.4,2,8.8,1.7s11.2,0.3,11.4-0.8c0.2-1.2-0.1-2.3-6.4-2.2c-6.3,0.1-7.3,0.5-9.9,0.2
				C53.5,80.7,52.1,81.3,52.2,82z"/>
			<g>
				<g>
					<path class="st9" d="M54.2,73.3l0,8.8c0,0.3,0.3,0.6,0.6,0.6c0.3,0,0.6-0.3,0.6-0.6l0-8.8c0,0,0,0,0,0L54.2,73.3
						C54.2,73.3,54.2,73.3,54.2,73.3z"/>
					<path class="st9" d="M64.4,81.8l-4.3-8.5l-1.4,0l4.6,9.1c0.2,0.3,0.5,0.4,0.8,0.3C64.4,82.5,64.5,82.1,64.4,81.8z"/>
					<path class="st9" d="M62.4,72l-10.1,0c-0.3,0-0.6,0.3-0.6,0.6c0,0.3,0.3,0.6,0.6,0.6l1.9,0l1.3,0l3.2,0l1.4,0l2.3,0
						c0.3,0,0.6-0.3,0.6-0.6C63,72.3,62.8,72,62.4,72z"/>
				</g>
				<path class="st9" d="M61.2,78.1l-5.7,0l0-1.3l5.7,0c0,0,0.7,0,0.7,0.7C61.8,77.5,61.8,78.1,61.2,78.1z"/>
			</g>
			<g>
				<path class="st6" d="M54.2,73.2l0,8.8c0,0.3,0.3,0.6,0.6,0.6c0.3,0,0.6-0.3,0.6-0.6l0-8.8c0,0,0,0,0,0L54.2,73.2
					C54.2,73.1,54.2,73.2,54.2,73.2z"/>
				<path class="st6" d="M64.4,81.7l-4.3-8.5l-1.4,0l1.8,3.6l0.7,0c0,0,0.7,0,0.7,0.7c0,0,0,0.6-0.7,0.6l-0.1,0l2.1,4.3
					c0.2,0.3,0.5,0.4,0.8,0.3C64.4,82.3,64.5,82,64.4,81.7z"/>
				<path class="st6" d="M62.4,73.1c0.3,0,0.6-0.3,0.6-0.6c0-0.3-0.3-0.6-0.6-0.6l-10.1,0c-0.3,0-0.6,0.3-0.6,0.6
					c0,0.3,0.3,0.6,0.6,0.6l1.9,0l1.3,0l3.2,0l1.4,0L62.4,73.1z"/>
				<path class="st6" d="M61.2,76.7l-0.7,0l-5,0l0,1.3l5.6,0l0.1,0c0.6,0,0.7-0.6,0.7-0.6C61.8,76.7,61.2,76.7,61.2,76.7z"/>
			</g>
			<g>
				<polygon class="st9" points="73.7,62 68.3,75.9 60,75.9 60,76.6 68.7,76.6 74.3,62.2 				"/>
				
					<rect x="52.8" y="75.9" transform="matrix(1 -1.937785e-03 1.937785e-03 1 -0.1476 0.1094)" class="st9" width="7.3" height="0.7"/>
				<polygon class="st9" points="66.5,62 73.7,62 68.3,75.9 61.1,75.9 				"/>
			</g>
			<g>
				<polygon class="st6" points="73.7,61.9 68.3,75.8 60,75.8 60,76.5 68.7,76.5 74.3,62.2 				"/>
				
					<rect x="52.7" y="75.8" transform="matrix(1 -1.937785e-03 1.937785e-03 1 -0.1475 0.1093)" class="st6" width="7.3" height="0.7"/>
				<polygon class="st6" points="66.4,61.9 73.7,61.9 68.3,75.8 61,75.8 				"/>
			</g>
			<g>
				<path class="st21" d="M60,71.7c-0.4,0.1-5.9-0.7-8,0s-1.2,2.8-5.3,7.2l1.9,1.3c0,0,3.3-4.9,4.5-5.3c0,0,6,0.6,7,0.1L60,71.7z"/>
				<path class="st21" d="M60,71.7c-0.4,0.1-5.9-0.7-8,0s-1.2,2.8-5.3,7.2l1.9,1.3c0,0,3.3-4.9,4.5-5.3c0,0,6,0.6,7,0.1L60,71.7z"/>
				<g>
					<path class="st11" d="M59.4,63.1c0.7-0.2,0.4-1.3,0.6-1.6c0.2-0.3,1,0.4,1-0.3c0-0.7-1.2-0.8-1.8-0.9c-0.6-0.1-1,1.1-1,1.5
						s0.3,0.5,0.2,1.1c0,0.9-0.9,4.6-0.8,5c0.1,0.4,4.4-1,4.4-1l0.3-2c0,0-2.8,1.3-3.3,1.5C59.2,66.5,59.3,65.5,59.4,63.1z"/>
					<path class="st11" d="M60.3,61.5c0,0-1-0.1-1-0.3"/>
				</g>
				<path class="st22" d="M64,63.5c-0.7-0.2-2.7,1.5-3.5,2c0,0,2.2,3.3,2.8,3.2s1.6-2.2,1.8-3.2C65.2,64.6,64.6,63.7,64,63.5z"/>
				<path class="st6" d="M64,63.4c-0.7-0.2-2.7,1.5-3.5,2c0,0,2.2,3.3,2.8,3.2s1.6-2.2,1.8-3.2C65.2,64.5,64.6,63.6,64,63.4z"/>
				<path class="st23" d="M62.5,58.5c0,0-0.4-0.5-0.3-1.1c0,0,0.4-2.3,3.7-2c2.1,0.2,2.3,2.8,2.4,3.8c0.2,2.2,2.5,2.3,3.3,3.3
					c0.8,1,0.4,2.4-0.8,2.7c-2.3,0.6-3.9,0.7-5.1-1c-0.5-0.7-1.7,0.2-2.8-0.6c-1.2-0.9,0-3.2,0.1-3.5C63.1,59.6,62.5,58.5,62.5,58.5
					"/>
				<path class="st6" d="M60,71.5c-0.4,0.1-5.9-0.7-8,0c-2.1,0.7-1.2,2.8-5.3,7.2l1.9,1.3c0,0,3.3-4.9,4.5-5.3c0,0,6,0.6,7,0.1
					L60,71.5z"/>
				<path class="st24" d="M64.7,62.4c0,0-1.9-0.1-3.3,4.9c-0.7,2.5-1.5,2.3-2.4,4.7c-0.9,2.4,5,5.2,8.3,0.4c3.3-4.7,1.5-9.2-0.3-9.9
					C66.3,62.4,65.7,62.3,64.7,62.4z"/>
				<path class="st6" d="M64.6,62.4c0,0-1.9-0.1-3.3,4.9c-0.7,2.5-1.5,2.3-2.4,4.7c-0.9,2.4,5,5.2,8.3,0.4c3.3-4.7,1.5-9.2-0.3-9.9
					C66.2,62.4,65.6,62.3,64.6,62.4z"/>
				<path class="st21" d="M66.8,73.2c0,0-0.2,4.1-10.3,1.9c0,0-2.8,5.9-3.8,6.7l-1.8-1.2c0,0,0.7-2.1,1.9-6.1c0.6-2,0.8-3.5,5.7-2.6
					L66.8,73.2z"/>
				<path class="st6" d="M66.7,73.1c0,0-0.2,4.1-10.3,1.9c0,0-2.8,5.9-3.8,6.7l-1.8-1.2c0,0,0.7-2.1,1.9-6.1c0.6-2,0.8-3.5,5.7-2.6
					L66.7,73.1z"/>
				<path class="st17" d="M51,80.7l1.6,1.1l-0.4,0.7c0,0-3.3-1.4-3.9-3.2C48.1,78.5,51,80.7,51,80.7z"/>
				<path class="st6" d="M51,80.5l1.6,1.1l-0.4,0.7c0,0-3.3-1.4-3.9-3.2C48.1,78.4,51,80.5,51,80.5z"/>
				<path class="st17" d="M46.8,79c0,0-2,0.6-3,0.4c-1-0.2-1.7,0,0,0.6c1.7,0.6,3.7,1.5,3.7,1.5l0.8-1.4L46.8,79z"/>
				<path class="st6" d="M46.8,78.8c0,0-2,0.6-3,0.4c-1-0.2-1.7,0,0,0.6c1.7,0.6,3.7,1.5,3.7,1.5l0.8-1.4L46.8,78.8z"/>
				<path class="st25" d="M66.3,62.2C66.3,62.2,66.3,62.2,66.3,62.2l0-1.8c0,0,0,0,0,0c-0.2,0.4-0.8,1.1-1.8,1.4c-0.1,0-0.2,0-0.2,0
					c0,0.3,0,0.7,0,0.9c0,0,0,0.1,0,0.1c-0.4,0.3,0.1,0.7,0.7,0.7C66.4,63.5,66.3,62.2,66.3,62.2z"/>
				<path class="st25" d="M62.7,57.8c0-0.1,0-0.2,0.1-0.3c0,0,0,0,0,0c0,0,0-0.1,0-0.1c0,0,0,0,0,0c0,0,0-0.1,0.1-0.1c0,0,0,0,0,0
					c0,0,0-0.1,0.1-0.1c0,0,0,0,0,0c0,0,0-0.1,0.1-0.1c0,0,0,0,0,0c0.1-0.1,0.1-0.1,0.2-0.2c0,0,0.1,0.6,0.5,1
					c0.3,0.3,0.8,0.5,1.6,0.1c0,0.6,0.1,0.8,0.3,0.9c0.1,0.1,0.3,0.1,0.3,0.1c0-0.5,0.4-0.4,0.4-0.4s0,0,0,0c0,0,0,0,0.1,0
					c0,0,0.1,0,0.1,0c0,0,0,0,0,0c0,0,0.1,0.1,0.1,0.1c0,0,0,0,0,0c0,0,0.1,0.1,0.1,0.1c0,0,0,0,0,0c0,0,0,0.1,0,0.1
					c0,0.1,0,0.2,0,0.3c0,0,0,0,0,0c0,0,0,0.1,0,0.1c0,0,0,0,0,0c0,0,0,0.1,0,0.1c0,0,0,0,0,0c0,0,0,0-0.1,0.1c0,0,0,0,0,0
					c0,0,0,0-0.1,0c0,0,0,0,0,0c0,0,0,0,0,0c0,0,0,0,0,0c0,0,0,0,0,0c0,0,0,0,0,0c0,0,0,0,0,0c0,0,0,0,0,0c0,0,0,0,0,0c0,0,0,0,0,0
					c0,0,0,0,0,0c0,0,0,0,0,0c0,0,0,0,0,0c0,0,0,0,0,0c0,0,0,0,0,0c0,0,0,0,0,0s-0.1,0.4,0.1,0.8c0,0,0,0,0,0
					c-0.2,0.4-0.8,1.1-1.8,1.4c-0.1,0-0.2,0-0.2,0c-0.6-0.1-1.3-0.9-1.6-1.8C62.6,59.5,62.6,58.4,62.7,57.8z"/>
				<path class="st6" d="M66.6,60.8c-0.6-0.4-0.4-1.2-0.4-1.2s0.5,0.2,0.6-0.5c0.2-0.6-0.4-0.7-0.4-0.7s-0.4-0.1-0.4,0.4
					c0,0-0.5,0.2-0.5-1c-1.8,0.8-2.2-1.1-2.2-1.1c-0.7,0.4-0.6,1.6-0.6,1.6s-0.4-0.5-0.3-1.1c0,0,0.4-2.3,3.7-2
					c2.1,0.2,2.3,2.8,2.4,3.8c0.2,2.2,2.5,2.3,3.3,3.3c0.8,1,0.4,2.4-0.8,2.7c0,0-0.3,0-0.8,0"/>
				<path class="st6" d="M63.3,56.6c0,0,0.5-1,1.4-1.1"/>
				<g>
					<circle class="st18" cx="63.1" cy="58.7" r="0.1"/>
					<circle class="st18" cx="64.8" cy="58.7" r="0.1"/>
					<path class="st6" d="M63.7,58.8c0,0,0.3,0.6-0.2,0.6c0,0-0.1,0.4,0.5,0.3"/>
					<path class="st6" d="M63.5,60.4c0,0,0.7,0.2,1.1-0.2"/>
					<path class="st6" d="M64.7,60c0,0-0.1,0.2,0.2,0.4"/>
				</g>
				<g>
					<path class="st17" d="M58.8,63c0,0-0.4,0.6,1.3,0.6c1.7,0,2-0.1,2.1-0.2s0.1-0.4,0-0.5C62,62.8,58.8,62.6,58.8,63z"/>
					<path class="st6" d="M58.7,62.9c0,0-0.4,0.6,1.3,0.6c1.7,0,2-0.1,2.1-0.2s0.1-0.4,0-0.5S58.8,62.6,58.7,62.9z"/>
					<path class="st17" d="M59.1,62.1c0.1,0.2,1-0.1,1.5,0c0.6,0.1,1.4,0.2,1.5,0.1c0.1-0.2,0.5-1.2-0.9-1.1S58.6,61.2,59.1,62.1z"
						/>
					<path class="st6" d="M59,62c0.1,0.2,1-0.1,1.5,0c0.6,0.1,1.4,0.2,1.5,0.1c0.1-0.2,0.5-1.2-0.9-1.1S58.5,61.2,59,62z"/>
					<path class="st23" d="M59,62.3c-0.1,0.1-0.2,0.4,0,0.4c0.2,0,2.2,0.2,2.6,0.1c0.3-0.1,0.7,0,0.7-0.2c0-0.3,0.1-0.2-0.2-0.3
						c-0.3-0.1-1.4-0.1-2.1,0C59.3,62.2,59,62.3,59,62.3z"/>
					<path class="st6" d="M58.9,62.3c-0.1,0.1-0.2,0.4,0,0.4s2.2,0.2,2.6,0.1c0.3-0.1,0.7,0,0.7-0.2c0-0.3,0.1-0.2-0.2-0.3
						c-0.3-0.1-1.4-0.1-2.1,0S58.9,62.3,58.9,62.3z"/>
					<path class="st26" d="M58.8,62.8c0,0.1,1.6,0.2,1.6,0.1c0-0.1,0.2-0.1,0-0.2C60.3,62.7,58.8,62.6,58.8,62.8z"/>
					<path class="st6" d="M58.8,62.8c0,0.1,1.6,0.2,1.6,0.1c0-0.1,0.2-0.1,0-0.2C60.3,62.7,58.8,62.6,58.8,62.8z"/>
					<path class="st26" d="M60.2,62.9c0,0.1,1.6,0,1.6-0.1c0-0.1,0.2-0.2,0-0.2C61.7,62.7,60.2,62.8,60.2,62.9z"/>
					<path class="st6" d="M60.2,62.9c0,0.1,1.6,0,1.6-0.1c0-0.1,0.2-0.2,0-0.2C61.7,62.7,60.2,62.8,60.2,62.9z"/>
					<path class="st7" d="M58.8,62.1c-0.2,0.1-0.8,0.4-0.2,0.3c0.7-0.1,0.2,0.2,0.6,0.1c0.4-0.1,0.4-0.3,0.7-0.2
						c0.3,0.1,0.5,0.1,0.7,0c0.2-0.1,0.3,0.3,0.6,0.2c0.3-0.1,0.2-0.3,0.7-0.2c0.5,0.1,0.7,0,0.5-0.1c-0.2-0.1-1.8-0.5-2.7-0.3
						C58.8,62.1,58.8,62.1,58.8,62.1z"/>
					<path class="st6" d="M58.8,62.1c-0.2,0.1-0.8,0.4-0.2,0.3s0.2,0.2,0.6,0.1c0.4-0.1,0.4-0.3,0.7-0.2c0.3,0.1,0.5,0.1,0.7,0
						c0.2-0.1,0.3,0.3,0.6,0.2c0.3-0.1,0.2-0.3,0.7-0.2c0.5,0.1,0.7,0,0.5-0.1c-0.2-0.1-1.8-0.5-2.7-0.3
						C58.8,62,58.8,62.1,58.8,62.1z"/>
					<path class="st9" d="M59.4,61.4c0,0,0.1,0.1,0.1,0c0.1,0,0.2-0.1,0.1-0.1S59.4,61.4,59.4,61.4z"/>
					<path class="st9" d="M59.8,61.2c0,0.1,0,0.1,0.1,0.1c0.1,0,0.2,0,0.1-0.1C59.9,61.2,59.8,61.2,59.8,61.2z"/>
					<path class="st9" d="M61.7,61.4c0,0-0.1,0.1-0.1,0s-0.2-0.1-0.1-0.1C61.7,61.4,61.7,61.4,61.7,61.4z"/>
					<path class="st9" d="M60.2,61.3c0,0,0.1,0.1,0.1,0c0.1-0.1,0.2-0.1,0.1-0.1C60.3,61.3,60.2,61.3,60.2,61.3z"/>
					<path class="st9" d="M60.6,61.1c0,0.1,0,0.1,0.1,0.1c0.1,0,0.2,0.1,0.1,0C60.7,61.1,60.6,61.1,60.6,61.1z"/>
					<path class="st9" d="M61.1,61.4c0,0,0.1,0,0.1-0.1c0-0.1,0.1-0.2,0-0.1S61.1,61.4,61.1,61.4z"/>
				</g>
				<path class="st11" d="M64.8,66.2l-1.7,1c0,0,0.2-3.8,0-4.4c-0.2-0.6,0.3-0.7,0.2-1.1c0-0.4-0.4-1.7-1-1.5
					c-0.6,0.1-1.8,0.2-1.8,0.9s0.8,0,1,0.3c0.2,0.3-0.1,1.3,0.6,1.6c0,0-0.9,5.8-0.4,6.2c0.5,0.4,4.3-1.5,4.3-1.5L64.8,66.2z"/>
				<path class="st22" d="M67.6,64.1c-0.7-0.2-2.7,1.5-3.5,2c0,0,2.2,3.3,2.8,3.2c0.6-0.1,1.6-2.2,1.8-3.2
					C68.8,65.1,68.2,64.2,67.6,64.1z"/>
				<path class="st6" d="M67.6,63.9c-0.7-0.2-2.7,1.5-3.5,2c0,0,2.2,3.3,2.8,3.2c0.6-0.1,1.6-2.2,1.8-3.2
					C68.8,65,68.2,64.1,67.6,63.9z"/>
			</g>
			<g>
				<g>
					<path class="st9" d="M61.6,73.3l0,8.8c0,0.3,0.3,0.6,0.6,0.6c0.3,0,0.6-0.3,0.6-0.6l0-8.8c0,0,0,0,0,0L61.6,73.3
						C61.7,73.2,61.6,73.2,61.6,73.3z"/>
					<path class="st9" d="M71.8,81.7l-4.3-8.5l-1.4,0l4.6,9.1c0.2,0.3,0.5,0.4,0.8,0.3C71.9,82.4,72,82.1,71.8,81.7z"/>
					<path class="st9" d="M69.8,72l-10.1,0c-0.3,0-0.6,0.3-0.6,0.6s0.3,0.6,0.6,0.6l1.9,0l1.3,0l3.2,0l1.4,0l2.3,0
						c0.3,0,0.6-0.3,0.6-0.6C70.5,72.2,70.2,72,69.8,72z"/>
				</g>
				<path class="st9" d="M68.6,78l-5.7,0l0-1.3l5.7,0c0,0,0.7,0,0.7,0.7C69.3,77.4,69.2,78,68.6,78z"/>
			</g>
			<g>
				<path class="st6" d="M61.6,73.1l0,8.8c0,0.3,0.3,0.6,0.6,0.6c0.3,0,0.6-0.3,0.6-0.6l0-8.8c0,0,0,0,0,0L61.6,73.1
					C61.7,73.1,61.6,73.1,61.6,73.1z"/>
				<path class="st6" d="M71.8,81.6l-4.3-8.5l-1.4,0l1.8,3.6l0.7,0c0,0,0.7,0,0.7,0.7c0,0,0,0.6-0.7,0.6l-0.1,0l2.1,4.3
					c0.2,0.3,0.5,0.4,0.8,0.3C71.9,82.3,72,82,71.8,81.6z"/>
				<path class="st6" d="M69.9,73.1c0.3,0,0.6-0.3,0.6-0.6c0-0.3-0.3-0.6-0.6-0.6l-10.1,0c-0.3,0-0.6,0.3-0.6,0.6s0.3,0.6,0.6,0.6
					l1.9,0l1.3,0l3.2,0l1.4,0L69.9,73.1z"/>
				<path class="st6" d="M68.6,76.7l-0.7,0l-5,0l0,1.3l5.6,0l0.1,0c0.6,0,0.7-0.6,0.7-0.6C69.3,76.7,68.6,76.7,68.6,76.7z"/>
			</g>
		</g>
		<path class="st16" d="M42.1,68.4c0,0,1.7,0.6,4.4,0.6c2.7,0,3.9-0.3,4-0.5C50.5,68.3,42.3,68.1,42.1,68.4z"/>
		<path class="st6" d="M42.3,68.4c0,0,1.7,0.6,4.4,0.6c2.7,0,3.9-0.3,4-0.5C50.6,68.3,42.5,68.1,42.3,68.4z"/>
		<path class="st16" d="M31.2,68.4c0,0,1.7,0.6,4.4,0.6c2.7,0,3.9-0.3,4-0.5C39.5,68.3,31.4,68.1,31.2,68.4z"/>
		<path class="st6" d="M31.4,68.4c0,0,1.7,0.6,4.4,0.6c2.7,0,3.9-0.3,4-0.5C39.7,68.3,31.6,68.1,31.4,68.4z"/>
		<path class="st16" d="M33.6,68.5c0.1,0.2,1.3,0.3,2.2,0.2c0.9-0.1,2,0,2-0.1c0-0.1-0.5-0.4-1.5-0.3C35.2,68.4,33.5,68.3,33.6,68.5
			z"/>
		<g>
			<path class="st17" d="M34.1,68.1c0,0-0.4,0.6,1.3,0.6c1.7,0,2-0.1,2.1-0.2s0.1-0.4,0-0.5C37.4,67.9,34.2,67.7,34.1,68.1z"/>
			<path class="st6" d="M34,68c0,0-0.4,0.6,1.3,0.6c1.7,0,2-0.1,2.1-0.2s0.1-0.4,0-0.5S34.1,67.7,34,68z"/>
			<path class="st17" d="M34.4,67.2c0.1,0.2,1-0.1,1.5,0c0.6,0.1,1.4,0.2,1.5,0.1s0.5-1.2-0.9-1.1S33.9,66.3,34.4,67.2z"/>
			<path class="st6" d="M34.3,67.2c0.1,0.2,1-0.1,1.5,0c0.6,0.1,1.4,0.2,1.5,0.1s0.5-1.2-0.9-1.1S33.8,66.3,34.3,67.2z"/>
			<path class="st23" d="M34.3,67.4c-0.1,0.1-0.2,0.4,0,0.4c0.2,0,2.2,0.2,2.6,0.1c0.3-0.1,0.7,0,0.7-0.2c0-0.3,0.1-0.2-0.2-0.3
				c-0.3-0.1-1.4-0.1-2.1,0C34.6,67.3,34.3,67.4,34.3,67.4z"/>
			<path class="st6" d="M34.2,67.4c-0.1,0.1-0.2,0.4,0,0.4c0.2,0,2.2,0.2,2.6,0.1s0.7,0,0.7-0.2c0-0.3,0.1-0.2-0.2-0.3
				c-0.3-0.1-1.4-0.1-2.1,0C34.5,67.3,34.2,67.4,34.2,67.4z"/>
			<path class="st26" d="M34.1,67.9c0,0.1,1.6,0.2,1.6,0.1s0.2-0.1,0-0.2C35.6,67.8,34.2,67.8,34.1,67.9z"/>
			<path class="st6" d="M34.1,67.9c0,0.1,1.6,0.2,1.6,0.1s0.2-0.1,0-0.2C35.6,67.8,34.2,67.8,34.1,67.9z"/>
			<path class="st26" d="M35.5,68c0,0.1,1.6,0,1.6-0.1c0-0.1,0.2-0.2,0-0.2S35.5,67.9,35.5,68z"/>
			<path class="st6" d="M35.5,68c0,0.1,1.6,0,1.6-0.1c0-0.1,0.2-0.2,0-0.2S35.5,67.9,35.5,68z"/>
			<path class="st7" d="M34.2,67.2c-0.2,0.1-0.8,0.4-0.2,0.3c0.7-0.1,0.2,0.2,0.6,0.1c0.4-0.1,0.4-0.3,0.7-0.2
				c0.3,0.1,0.5,0.1,0.7,0s0.3,0.3,0.6,0.2c0.3-0.1,0.2-0.3,0.7-0.2s0.7,0,0.5-0.1c-0.2-0.1-1.8-0.5-2.7-0.3
				C34.1,67.2,34.2,67.2,34.2,67.2z"/>
			<path class="st6" d="M34.1,67.2c-0.2,0.1-0.8,0.4-0.2,0.3s0.2,0.2,0.6,0.1c0.4-0.1,0.4-0.3,0.7-0.2s0.5,0.1,0.7,0
				c0.2-0.1,0.3,0.3,0.6,0.2c0.3-0.1,0.2-0.3,0.7-0.2c0.5,0.1,0.7,0,0.5-0.1c-0.2-0.1-1.8-0.5-2.7-0.3
				C34.1,67.2,34.1,67.2,34.1,67.2z"/>
			<path class="st9" d="M34.7,66.5c0,0,0.1,0.1,0.1,0c0.1,0,0.2-0.1,0.1-0.1C34.8,66.5,34.7,66.5,34.7,66.5z"/>
			<path class="st9" d="M35.1,66.4c0,0.1,0,0.1,0.1,0.1c0.1,0,0.2,0,0.1-0.1S35.1,66.4,35.1,66.4z"/>
			<path class="st9" d="M37.1,66.5c0,0-0.1,0.1-0.1,0c-0.1,0-0.2-0.1-0.1-0.1C37,66.5,37.1,66.5,37.1,66.5z"/>
			<path class="st9" d="M35.5,66.5c0,0,0.1,0.1,0.1,0s0.2-0.1,0.1-0.1C35.6,66.4,35.5,66.5,35.5,66.5z"/>
			<path class="st9" d="M36,66.2c0,0.1,0,0.1,0.1,0.1c0.1,0,0.2,0.1,0.1,0S36,66.2,36,66.2z"/>
			<path class="st9" d="M36.5,66.5c0,0,0.1,0,0.1-0.1c0-0.1,0.1-0.2,0-0.1S36.5,66.5,36.5,66.5z"/>
		</g>
		<path class="st10" d="M0.6,50.7c0,0,12.8-2.1,20.7-0.4c0,0,15.5-2,19.6,1.5c0,0,16.5-4,22.5-1.3c0,0,15.9-3,20.6-1.2
			C88.7,51.2,44.9,38,40.4,37C40.4,37,12.1,46.9,0.6,50.7z"/>
		<path class="st6" d="M0.6,50.4c0,0,12.8-2.1,20.7-0.4c0,0,15.5-2,19.6,1.5c0,0,16.5-4,22.5-1.3c0,0,15.9-3,20.6-1.2
			c4.7,1.8-39.1-11.4-43.6-12.4C40.4,36.7,12.1,46.5,0.6,50.4z"/>
	</g>
	<g>
		
			<rect x="76" y="36" transform="matrix(1 -1.937785e-03 1.937785e-03 1 -0.1164 0.1943)" class="st27" width="48.4" height="48.4"/>
		
			<rect x="76.2" y="76.3" transform="matrix(1 -1.937785e-03 1.937785e-03 1 -0.1555 0.1566)" class="st9" width="9.1" height="8.1"/>
		
			<rect x="76.1" y="76.3" transform="matrix(1 -1.937785e-03 1.937785e-03 1 -0.1555 0.1563)" class="st6" width="9.1" height="8.1"/>
		
			<rect x="85.3" y="76.2" transform="matrix(1 -1.937785e-03 1.937785e-03 1 -0.1554 0.1924)" class="st27" width="27.9" height="8.1"/>
		
			<rect x="85.2" y="76.2" transform="matrix(1 -1.937785e-03 1.937785e-03 1 -0.1554 0.1919)" class="st6" width="27.6" height="8.1"/>
		<g>
			<g>
				<g>
					<path class="st16" d="M91.2,66.3c0,4.6,4.3,6.5,8.6,6.6c0,0,0.2,0,0.4,0c0.1,0,0.3,0,0.4,0c0.2,0,0.4,0,0.6,0
						c0.2,0,0.4,0.1,0.6,0.1c0,0,0.1,0,0.1,0c0.1,0.1,0.2,0,0.3-0.1c0.1-0.1,0.1-0.2,0.1-0.3c0,0,0-0.1,0-0.1c0,0,0-0.1,0-0.2
						c0.1-0.5,0-1.1-0.4-1.3c-0.3-0.2-0.6-0.2-0.9-0.2c-0.4,0-0.8,0.2-1,0.3c-0.2,0.1-0.4,0.3-0.4,0.3s-6-1.4-5.7-5.2
						c0,0,4.8-0.5,5.7,0c0.9,0.5,1.9,3.9,1.9,3.9s1-0.1,1.4,0.7c0,0,1,0.5,2.1,1c1,0.4,2.1,0.9,2.6,0.9c1.1,0.1,2.3,1.9,2.9,4.5
						c0.3,1.1,1,1.8,1,2.1c0,0.3-0.1,0.6-0.1,0.6c0,0,0,0,0,0l-0.1-0.1l-0.1-0.2c0,0-0.5-0.5-1.8,0.1c-0.3,0.2-0.7,0.4-1.2,0.7
						c0,0,0,0,0-0.1l-0.1-0.5l0-0.1c0,0-0.2-0.3-1.5,0.7l0,0.1c0.1,0.1,0.1,0.3,0.2,0.4l0,0c0,0-0.6,0-0.7-0.6
						c-0.1-0.7-1.3-3.7-1.6-4c0,0-0.1,0.4-0.6,0.2c0,0-2.4,0.3-4.8,0.3c-1.7,0-3.3-0.3-4.3-0.9c-2.3-1.6-2.1-3.1-2.3-4.5
						c0,0-0.7-1.1-0.6-1.3c0,0-0.6-1.2-0.6-1.5C91.3,68.7,90.7,67.3,91.2,66.3z"/>
					<g>
						<path class="st16" d="M99.5,57.5c0,0.7-0.4,1.2-0.4,1.2s0.2-1.2-0.5-1.8c0,0-0.6,2-2.5,1c-0.1,1.2-0.7,1-0.7,1
							c0.1-0.5-0.4-0.5-0.4-0.5s-0.7,0-0.6,0.7c0.1,0.7,0.6,0.6,0.6,0.6s0.1,0.5-0.2,0.9l-0.1,1c0,0-0.7,0.4-1.2-0.1
							C93,61,93,60.2,93,60.2s-1.6-1-1.1-1.7c0,0-0.9-1.2,0.9-3c1.8-1.8,3.6-1.8,5.2-0.6c0,0,1.5,0.1,1.4,1
							C99.4,55.9,100.5,56.7,99.5,57.5z"/>
						<path class="st23" d="M99.3,57.3c0,0-0.3-0.5-0.8-0.7c-1.7-0.8-3,1.3-3.3,1.9c0.1,0.1,0.1,0.2,0.1,0.4c0,0,0.5,0.2,0.7-1
							c1.9,1,2.5-1,2.5-1c0.7,0.6,0.5,1.8,0.5,1.8s0.4-0.5,0.4-1.2C99.4,57.5,99.4,57.4,99.3,57.3z"/>
						<path class="st11" d="M99.1,58c0-0.1,0-0.2,0-0.3c0,0,0,0,0,0c0,0,0-0.1,0-0.1c0,0,0,0,0,0c0,0,0-0.1,0-0.1c0,0,0,0,0,0
							c0,0,0-0.1-0.1-0.1c0,0,0,0,0,0c0,0,0-0.1-0.1-0.1c0,0,0,0,0,0c-0.1-0.1-0.1-0.2-0.2-0.2c0,0-0.2,0.6-0.7,1
							c-0.4,0.3-1,0.4-1.8,0c-0.1,0.6-0.2,0.9-0.4,1c-0.2,0.1-0.3,0-0.3,0c0.1-0.5-0.4-0.5-0.4-0.5s0,0,0,0c0,0,0,0-0.1,0
							c0,0-0.1,0-0.1,0c0,0,0,0,0,0c0,0-0.1,0-0.1,0.1c0,0,0,0,0,0c0,0-0.1,0.1-0.1,0.1c0,0,0,0,0,0c0,0-0.1,0.1-0.1,0.2
							c0,0.1,0,0.2,0,0.3c0,0,0,0,0,0c0,0.1,0,0.1,0,0.1c0,0,0,0,0,0c0,0,0,0.1,0,0.1c0,0,0,0,0,0c0,0,0,0.1,0.1,0.1c0,0,0,0,0,0
							c0,0,0,0,0.1,0.1c0,0,0,0,0,0c0,0,0,0,0,0c0,0,0,0,0,0c0,0,0,0,0,0c0,0,0,0,0,0c0,0,0,0,0,0c0,0,0,0,0,0c0,0,0,0,0,0
							c0,0,0,0,0,0c0,0,0,0,0,0c0,0,0,0,0,0c0,0,0,0,0,0c0,0,0,0,0,0c0,0,0,0,0,0c0,0,0,0,0,0s0.1,0.5-0.2,0.9c0,0,0,0,0,0
							c0.2,0.4,0.7,1.2,1.9,1.7c0.1,0,0.2,0,0.3,0c0.7-0.1,1.6-0.8,1.9-1.8C99,59.9,99.1,58.7,99.1,58z"/>
						<g>
							<circle class="st18" cx="98.5" cy="59" r="0.1"/>
							<circle class="st18" cx="96.6" cy="58.8" r="0.1"/>
							<path class="st6" d="M97.8,59c0,0-0.4,0.6,0.1,0.7c0,0,0,0.5-0.6,0.3"/>
							<path class="st6" d="M97.9,60.8c0,0-0.8,0.2-1.2-0.3"/>
						</g>
						<path class="st6" d="M99.5,57.5c0,0.7-0.4,1.2-0.4,1.2s0.2-1.2-0.5-1.8c0,0-0.6,2-2.5,1c-0.1,1.2-0.7,1-0.7,1
							c0.1-0.5-0.4-0.5-0.4-0.5s-0.7,0-0.6,0.7s0.6,0.6,0.6,0.6s0.1,0.5-0.2,0.9l-0.1,1c0,0-0.7,0.4-1.2-0.1
							C93,60.9,93,60.2,93,60.2s-1.6-1-1.1-1.7c0,0-0.9-1.2,0.9-3c1.8-1.8,3.6-1.8,5.2-0.6c0,0,1.5,0.1,1.4,1
							C99.4,55.8,100.5,56.6,99.5,57.5z"/>
						<path class="st6" d="M98,54.8c-0.2,0-2.4-0.8-4,0.8"/>
						<path class="st6" d="M99.4,55.8c0,0-0.7-0.4-2.2,0"/>
						<path class="st6" d="M93,60.2c0,0,0.1-2.6,1.5-3.8"/>
						<path class="st6" d="M95.4,58.5c0,0,1.2-2.8,3.2-1.9c0.4,0.2,0.8,0.7,0.8,0.7"/>
					</g>
					<path class="st19" d="M111.5,79.8L111.5,79.8C111.6,79.8,111.5,79.8,111.5,79.8z"/>
					<path class="st19" d="M106.7,80.6L106.7,80.6C106.8,80.6,106.8,80.6,106.7,80.6L106.7,80.6z"/>
					<path class="st19" d="M108.3,79.9l0.1,0.5C108.4,80.2,108.3,80.1,108.3,79.9z"/>
					<path class="st11" d="M111,81.5C111,81.5,111,81.5,111,81.5c-0.4-0.5-0.9-1.1-1.4-1.8c1.3-0.6,1.8-0.1,1.8-0.1l0.1,0.2
						c0,0,0,0.1,0.1,0.1l0,0c0,0,0,0,0,0c0.3,0.5,0.7,1.1,1.2,1.7c0,0,2.1,0.8,3.1,0.6c1-0.1,1.7,0.2-0.1,0.6
						c-1.8,0.4-3.5,0.9-3.5,0.9l-0.7-1.5c0,0-0.1-0.1-0.3-0.4c0.1-0.2,0.3-0.4,0.3-0.6C111.7,81.2,111.4,81.3,111,81.5z"/>
					<path class="st11" d="M106.7,80.6c1.3-1,1.5-0.7,1.5-0.7l0,0.1c0,0.2,0.1,0.3,0.1,0.5l0,0.1c0,0,0,0,0,0
						c0.3,1.4,0.5,2.1,0.5,2.2l0,0c0.2,0,1.8-1,2.1-1.2c0,0,0,0,0,0c0.4-0.2,0.7-0.3,0.6-0.1c-0.1,0.2-0.2,0.4-0.3,0.6c0,0,0,0,0,0
						c-1,1.2-3.1,1.9-3.1,1.9l-0.3-0.7c0-0.1-0.5-1-1-2.2L106.7,80.6C106.8,80.6,106.8,80.6,106.7,80.6z"/>
					<path class="st6" d="M111.6,79.9C111.6,79.9,111.6,79.9,111.6,79.9C111.6,79.9,111.6,79.9,111.6,79.9L111.6,79.9z"/>
					<path class="st11" d="M108.4,80.4L108.4,80.4C108.4,80.4,108.4,80.4,108.4,80.4C108.4,80.4,108.4,80.4,108.4,80.4z"/>
					<path class="st11" d="M107,81c-0.1-0.1-0.1-0.3-0.2-0.4L107,81z"/>
					<path class="st11" d="M94.6,62.5C94.6,62.5,94.6,62.5,94.6,62.5l0.2-1.9c0,0,0,0,0,0c0.2,0.4,0.7,1.2,1.8,1.7
						c0.1,0,0.2,0,0.2,0c0,0.2,0,0.4-0.1,0.6c0,0,2.7,0.7,4.1,3.6c1.4,2.9,4.2,5.3,4.2,5.3c-1.1-0.5-2.1-1-2.1-1
						c-0.4-0.8-1.4-0.7-1.4-0.7s-1.1-3.3-1.9-3.9c-0.9-0.5-5.7,0-5.7,0c-0.3,3.7,5.7,5.2,5.7,5.2s0.1-0.1,0.4-0.3
						c0.2-0.1,0.6-0.3,1-0.3c0.3,0,0.6,0,0.9,0.2c0.4,0.2,0.5,0.8,0.4,1.3c0,0.1,0,0.1,0,0.2c0,0,0,0.1,0,0.1c0,0.1-0.1,0.2-0.1,0.3
						c-0.1,0.1-0.2,0.1-0.3,0.1c0,0-0.1,0-0.1,0c-0.1-0.1-0.3-0.1-0.6-0.1c-0.2,0-0.4,0-0.6,0c-0.1,0-0.3,0-0.4,0
						c-0.2,0-0.4,0-0.4,0c-4.4-0.1-8.6-1.9-8.6-6.6C91.3,66.2,91.7,62.3,94.6,62.5z"/>
					<path class="st6" d="M91.3,66.2c0,4.6,4.3,6.5,8.6,6.6c0,0,0.2,0,0.4,0c0.1,0,0.3,0,0.4,0c0.2,0,0.4,0,0.6,0
						c0.2,0,0.4,0.1,0.6,0.1c0,0,0.1,0,0.1,0c0.1,0.1,0.2,0,0.3-0.1c0.1-0.1,0.1-0.2,0.1-0.3c0,0,0-0.1,0-0.1c0,0,0-0.1,0-0.2
						c0.1-0.5,0-1.1-0.4-1.3c-0.3-0.2-0.6-0.2-0.9-0.2c-0.4,0-0.8,0.2-1,0.3c-0.2,0.1-0.4,0.3-0.4,0.3s-6-1.4-5.7-5.2
						c0,0,4.8-0.5,5.7,0c0.9,0.5,1.9,3.9,1.9,3.9s1-0.1,1.4,0.7c0,0,1,0.5,2.1,1c1,0.4,2.1,0.9,2.6,0.9c1.1,0.1,2.3,1.9,2.9,4.5
						c0.3,1.1,1,1.8,1,2.1c0,0.3-0.1,0.6-0.1,0.6c0,0,0,0,0,0l-0.1-0.1l-0.1-0.2c0,0-0.5-0.5-1.8,0.1c-0.3,0.2-0.7,0.4-1.2,0.7
						c0,0,0,0,0-0.1l-0.1-0.5l0-0.1c0,0-0.2-0.3-1.5,0.7l0,0.1c0.1,0.1,0.1,0.3,0.2,0.4l0,0c0,0-0.6,0-0.7-0.6
						c-0.1-0.7-1.3-3.7-1.6-4c0,0-0.1,0.4-0.6,0.2c0,0-2.4,0.3-4.8,0.3c-1.7,0-3.3-0.3-4.3-0.9c-2.3-1.6-2.1-3.1-2.3-4.5
						c0,0-0.7-1.1-0.6-1.3c0,0-0.6-1.2-0.6-1.5C91.5,68.6,90.8,67.2,91.3,66.2z"/>
					<path class="st6" d="M108.8,79.2c0,0-0.6-3.3-0.9-4.3c-0.3-0.9,0-1.7-1.9-2.1c-1.9-0.4-3.5-0.8-3.5-0.8"/>
					<path class="st6" d="M101.7,70.1c0,0-3.1,0-3.8-0.4"/>
					<path class="st6" d="M103.1,70.8c0,0-1-0.2-1.4-0.1"/>
					<path class="st11" d="M92.6,71.4c0,0-0.1-0.8,0-1"/>
				</g>
			</g>
			<path class="st6" d="M98.7,57.5c0,0,0,0.3,0,0.4c0,0.1-0.1,0.3-0.2,0.2s0.1-0.5,0.1-0.5"/>
			<path class="st6" d="M95.6,59.1c0,0,0,0.3-0.1,0.4c-0.1,0.1,0.1,0.3,0.2,0.2c0.1-0.1,0-0.5,0-0.5"/>
		</g>
		<path class="st9" d="M73.2,33l0.1,54l54-0.1l-0.1-54L73.2,33z M124.5,84.1l-48.4,0.1L76,35.8l48.4-0.1L124.5,84.1z"/>
		<path class="st27" d="M127.3,32.9l0.1,54l52.8-0.1l-0.1-54L127.3,32.9z"/>
		<path class="st6" d="M73,32.9l0.1,54l54-0.1l-0.1-54L73,32.9z M124.3,84.1l-48.4,0.1l-0.1-48.4l48.4-0.1L124.3,84.1z"/>
		<path class="st6" d="M73,32.9l0.1,54l54-0.1l-0.1-54L73,32.9z M124.3,84.1l-48.4,0.1l-0.1-48.4l48.4-0.1L124.3,84.1z"/>
		<path class="st6" d="M127.1,32.8l0.1,54l52.8-0.1l-0.1-54L127.1,32.8z"/>
		<path class="st6" d="M129.5,32.8c0,0-0.3,29,0.2,39.9c0.5,10.9,0,14.1,0,14.1"/>
		<path class="st6" d="M136.7,32.8c0,0-0.3,29,0.2,39.9c0.5,10.9,0,14.1,0,14.1"/>
		<path class="st6" d="M132.3,32.8c0,0-1.6,19.1-1.2,30c0.5,10.9,1.3,24.1,1.3,24.1"/>
		<path class="st6" d="M134.9,32.8c0,0-0.1,1.9-0.6,12.8C133,75,135,86.9,135,86.9"/>
		<path class="st6" d="M142.2,32.8c0,0-0.1,1.9-0.5,12.8c-1.1,29.4,0.6,41.2,0.6,41.2"/>
		<path class="st6" d="M138.6,86.9c0,0,0.1-1.9,0.6-12.8c1.3-29.4-0.7-41.2-0.7-41.2"/>
		<path class="st6" d="M157.2,86.8c0,0,0.3-29-0.2-39.9c-0.5-10.9,0-14.1,0-14.1"/>
		<path class="st6" d="M149.9,86.8c0,0,0.3-29-0.2-39.9c-0.5-10.9,0-14.1,0-14.1"/>
		<path class="st6" d="M154.3,86.8c0,0,1.6-19.1,1.2-30c-0.5-10.9-1.3-24.1-1.3-24.1"/>
		<path class="st6" d="M151.7,86.8c0,0,0.1-1.9,0.6-12.8c1.3-29.4-0.7-41.2-0.7-41.2"/>
		<path class="st6" d="M144.5,86.8c0,0,0.1-1.9,0.5-12.8c1.1-29.4-0.6-41.2-0.6-41.2"/>
		<path class="st6" d="M148,32.8c0,0-0.1,1.9-0.6,12.8c-1.3,29.4,0.7,41.2,0.7,41.2"/>
		<path class="st6" d="M159.4,32.8c0,0-0.3,29,0.2,39.9c0.5,10.9,0,14.1,0,14.1"/>
		<path class="st6" d="M166.7,32.8c0,0-0.3,29,0.2,39.9c0.5,10.9,0,14.1,0,14.1"/>
		<path class="st6" d="M162.3,32.8c0,0-1.6,19.1-1.2,30c0.5,10.9,1.3,24.1,1.3,24.1"/>
		<path class="st6" d="M164.9,32.8c0,0-0.1,1.9-0.6,12.8C162.9,75,165,86.8,165,86.8"/>
		<path class="st6" d="M172.1,32.7c0,0-0.1,1.9-0.5,12.8c-1.1,29.4,0.6,41.2,0.6,41.2"/>
		<path class="st6" d="M168.6,86.8c0,0,0.1-1.9,0.6-12.8c1.3-29.4-0.7-41.2-0.7-41.2"/>
		<path class="st6" d="M176.8,86.8c0,0,1.6-19.1,1.2-30c-0.5-10.9-1.3-24.1-1.3-24.1"/>
		<path class="st6" d="M174.2,86.8c0,0,0.1-1.9,0.6-12.8c1.3-29.4-0.7-41.2-0.7-41.2"/>
		<g>
			<g>
				<path class="st16" d="M94,71.7c-1.9-0.4-3.6-0.3-4.6-0.3c0,0.2-0.1,0.3-0.1,0.3l0,0c-0.2,0-0.3,0-0.5,0c0,0-0.1,0-0.1,0
					c0,0,0,0.1,0,0.1c0,0.1-0.1,0.2-0.1,0.3c-0.1,0.1-0.2,0.1-0.3,0.1c0,0-0.1,0-0.1,0l-1.6,0.1l-0.4,0c-0.1,0-0.1,0-0.2,0
					c-1.7,0.4-6.1,0.5-6.1,0.5c-0.4-0.1-0.8-0.3-1.2-0.5c-0.1-0.1-0.2-0.1-0.3-0.2c0.1,0.5,0.5,1.6,0.9,2.1c0,0,0.7,1.7,3.6,2
					c0,0,4.8,0.2,6.1,0.1c1.3-0.1,1.3-0.1,1.3-0.1c-0.1-0.2-0.1-0.3-0.1-0.3c0,0,0-0.1,0-0.1c-0.1,0-0.2,0-0.3,0c-0.1,0-0.1,0-0.2,0
					l-0.3,0c0,0,0,0,0,0c-0.1,0-1.2-0.4-1-1.8c0.2-1.4,1.1-2,1.8-2c0,0,0,0,0.1,0c0.1,0,0.1,0,0.2,0c0.2,0,0.4,0,0.6,0
					c0,0,0.1,0,0.1,0c0.5,0,1,0.1,1.4,0.3c0,0,0.1,0,0.1,0c0,0,0.7-0.5,1.5-0.3c0,0,0,0,0,0c0,0,0,0,0,0c0.5,0.1,1,0.2,1.4,0.4
					c0.2,0.1,0.4,0.2,0.6,0.3c0,0,0.1,0,0.1,0C95.9,72.8,96.4,72.2,94,71.7z"/>
				<path class="st11" d="M80.2,57.5c-0.1-0.8,0.6-0.8,0.6-0.8s0.5,0,0.5,0.6l0,0.5l0.3,0.1c0.8-0.7,0.4-1.7,0.4-1.7
					c0.4,0.1,0.8,0.2,1.1,0.2c0.9,0,1.5-0.2,2-0.5c0.1,0.4,0.1,2.2-0.2,3c-0.4,1.2-0.8,2.1-2.2,2c0,0,0,0,0,0
					c-0.9-0.1-1.8-0.6-2.3-1.4c0.4-0.2,0.5-0.6,0.6-0.9c0-0.2,0-0.4,0-0.4S80.4,58.3,80.2,57.5z"/>
				<path class="st17" d="M79.8,59.7c1.3-0.3,1.1-1.5,1.1-1.5s-0.5,0.1-0.7-0.6c-0.1-0.8,0.6-0.8,0.6-0.8s0.5,0,0.5,0.6l0,0.5
					l0.3,0.1c0.8-0.7,0.4-1.7,0.4-1.7c2.5,0.8,3.8-0.9,3.8-0.9c0.5-0.5-0.1-1.1-0.3-1.2c0,0-0.5-0.3-0.8-0.1c0,0,0.2,0.3,0.1,0.4
					c-0.1,0-6.1-2.4-5.4,1.7S79.8,59.7,79.8,59.7z"/>
				<path class="st6" d="M85.2,54.4c0,0-4.4-1.8-5.4-0.2c-0.4,0.6-0.8,1.5-0.4,2.8c0.2,0.7,0.5,1.1,0.4,2.6c1.3-0.3,1.1-1.5,1.1-1.5
					s-0.5,0.1-0.7-0.6c-0.1-0.8,0.6-0.8,0.6-0.8s0.5,0,0.5,0.6l0,0.5l0.3,0.1c0.8-0.7,0.4-1.7,0.4-1.7c2.5,0.8,3.8-0.9,3.8-0.9
					c0.5-0.5-0.1-1.1-0.3-1.2"/>
				<g>
					<circle class="st18" cx="84.8" cy="57.6" r="0.1"/>
					<circle class="st18" cx="82.8" cy="57.4" r="0.1"/>
					<path class="st6" d="M84.1,57.6c0,0-0.4,0.6,0.1,0.7c0.5,0.1,0.5,0,0.5,0.2c0,0.1,0,0.3-0.5,0.4c-0.3,0-0.4,0-0.4,0"/>
					<path class="st6" d="M84.2,59.5c0,0-0.8,0.2-1.3-0.3"/>
				</g>
				<path class="st19" d="M89.6,75.7c-0.1,0-0.2,0-0.3,0c0,0,0,0,0,0L89.6,75.7z"/>
				<path class="st19" d="M93.8,71.9C93.9,71.9,93.9,71.9,93.8,71.9C93.9,71.9,93.9,71.9,93.8,71.9C93.9,71.9,93.8,71.9,93.8,71.9z"
					/>
				<path class="st11" d="M97.8,81c-0.7,0.3-1.6,0.9-2,1.1c0-0.2-0.6-2.3-1.4-6.1c0-0.2-0.1-0.5-0.2-0.7c-0.3-1.4-0.5-2.6-1.9-3.1
					c-0.6-0.2-1-0.2-1.4-0.3c0,0-0.1,0-0.1,0c-0.2,0-0.4,0-0.6,0c-0.1,0-0.1,0-0.2,0c-0.8,0-1.6,0.7-1.8,2c-0.2,1.4,0.9,1.8,1,1.8
					c0.1,0,0.2,0,0.3,0l0.5-0.1l0.2,0.4l0,0c0.6,1.4,2.9,6.3,3.5,7.2l0.4,0.8c0,0,2.8-1,4.1-2.5c0.2-0.2,0.4-0.5,0.5-0.7
					C98.7,80.6,98.3,80.7,97.8,81z"/>
				<path class="st6" d="M90.1,71.9c0.1,0,0.2,0,0.2,0C90.2,71.9,90.2,71.9,90.1,71.9C90.1,71.9,90.1,71.9,90.1,71.9z"/>
				<path class="st6" d="M90.9,72C90.9,72,90.9,72,90.9,72C90.9,72,90.9,72,90.9,72z"/>
				<path class="st11" d="M103.3,81.6c-1.1,0.2-3.2-0.7-3.2-0.7c-2-4-2.5-7-4.3-8.2c-0.7-0.5-1.2-0.5-1.9-0.7c0,0,0,0-0.1,0
					c-0.8-0.2-1.5,0.3-1.5,0.3c0,0-0.1,0-0.1,0c1.4,0.5,1.6,1.7,1.9,3.1c0.1,0.2,0.1,0.5,0.2,0.7c1,0.9,2.6,3.5,3.5,4.9
					c0.5-0.3,0.9-0.4,0.8-0.1c-0.1,0.3-0.3,0.5-0.5,0.7c0.1,0.2,0.2,0.3,0.2,0.3l0.7,1.6c0,0,2.3-0.8,4.2-1.3
					C105.1,81.7,104.4,81.4,103.3,81.6z"/>
				<path class="st11" d="M78.6,61.9C78.6,61.9,78.6,61.9,78.6,61.9C78.6,61.9,78.6,61.9,78.6,61.9C78.6,61.9,78.6,61.9,78.6,61.9z"
					/>
				<path class="st6" d="M79.8,72.7c0,0,4.5,0,6.1-0.5C84.5,72.6,79.8,72.7,79.8,72.7z"/>
				<path class="st11" d="M90.1,75.7C90.1,75.7,90.1,75.7,90.1,75.7c0,0.1,0.1,0.2,0.2,0.4l0,0L90.1,75.7z"/>
				<path class="st11" d="M90.1,75.7l-0.5,0.1c0.1,0,0.1,0,0.2,0C89.8,75.7,90,75.7,90.1,75.7z"/>
				<path class="st11" d="M90.9,72c-0.2,0-0.4,0-0.6,0C90.5,71.9,90.7,72,90.9,72z"/>
				<path class="st6" d="M90.1,75.7C90.1,75.7,90.1,75.7,90.1,75.7c-0.1,0-0.2,0-0.4,0c-0.1,0-0.1,0-0.2,0l-0.3,0c0,0,0,0,0,0
					c-0.1,0-1.2-0.4-1-1.8c0.2-1.4,1.1-2,1.8-2c-0.3,0-0.7,0-1.1,0c-0.2,0-0.3,0-0.5,0c-0.1,0.1-0.2,0.1-0.3,0.1c0,0-0.1,0-0.1,0
					l-1.6,0.1l-0.4,0c-0.1,0-0.1,0-0.2,0c-1.7,0.4-6.1,0.5-6.1,0.5c-0.4-0.1-0.8-0.3-1.2-0.5c-0.1-0.1-0.2-0.1-0.3-0.2
					c0.1,0.5,0.5,1.6,0.9,2.1c0,0,0.7,1.7,3.6,2c0,0,4.8,0.2,6.1,0.1c1.3-0.1,1.3-0.1,1.3-0.1C90.2,75.9,90.1,75.8,90.1,75.7z"/>
				<path class="st11" d="M91,72c0.4,0,0.8,0.1,1.4,0.3C91.9,72.1,91.5,72,91,72z"/>
				<path class="st6" d="M94,71.6c-1.9-0.4-3.6-0.3-4.6-0.3c0,0.2-0.1,0.3-0.1,0.3l0,0c-0.2,0-0.3,0-0.5,0c0,0-0.1,0-0.1,0
					c0,0,0,0.1,0,0.1c0,0.1-0.1,0.2-0.1,0.3c0.2,0,0.3,0,0.5,0c0.4,0,0.8,0,1.1,0c0,0,0,0,0.1,0c0.1,0,0.1,0,0.2,0
					c0.2,0,0.4,0,0.6,0c0,0,0.1,0,0.1,0c0.5,0,1,0.1,1.4,0.3c0,0,0.1,0,0.1,0c0,0,0.7-0.5,1.5-0.3c0,0,0,0,0,0c0,0,0,0,0,0
					c0.5,0.1,1,0.2,1.4,0.4c0.2,0.1,0.4,0.2,0.6,0.3c0,0,0.1,0,0.1,0C95.9,72.7,96.4,72.1,94,71.6z"/>
				<path class="st6" d="M93.9,71.9c0.7,0.2,1.2,0.2,1.9,0.7c-0.2-0.1-0.4-0.2-0.6-0.3C94.9,72.1,94.4,72,93.9,71.9z"/>
				<path class="st11" d="M89.2,70.3c-0.4-0.9-1.8-1.5-1.8-1.5c-0.8-3.9-3.7-6.6-3.7-6.6l0,0c-0.4-0.5-0.7-0.7-1-0.9
					c0-0.2,0-0.4,0-0.5c-0.9-0.1-1.8-0.6-2.3-1.4l-0.1,1.5c0,0,0,0.1,0,0.3c-0.2,0-0.4,0.1-0.5,0.1c-0.4,0.1-0.7,0.3-1,0.6
					c0,0,0,0,0,0c-0.3,0.3-0.7,0.8-0.9,1.3c-0.8,1.3-1.6,3.6-0.8,6.6c0.2,1,0.8,1.7,1.4,2.2c0.1,0.1,0.2,0.2,0.3,0.2
					c0.4,0.2,0.8,0.4,1.2,0.5c0,0,4.7-0.1,6.1-0.5c0.1,0,0.1,0,0.2,0l0.4,0l1.6-0.1c0,0,0.1,0,0.1,0c0.1,0.1,0.2,0,0.3-0.1
					c0.1-0.1,0.1-0.2,0.1-0.3c0,0,0-0.1,0-0.1c0,0,0.1,0,0.1,0c0.2,0,0.3,0,0.5,0l0,0c0,0,0.1-0.1,0.1-0.3
					C89.4,71.1,89.3,70.8,89.2,70.3z"/>
				<path class="st11" d="M86,72.3c0.1,0,0.1,0,0.2,0C86.1,72.2,86,72.2,86,72.3z"/>
				<path class="st6" d="M88.1,72.1C88.2,72.1,88.2,72.1,88.1,72.1c0.2,0.1,0.3,0.1,0.4,0c0.1-0.1,0.1-0.2,0.1-0.3c0,0,0-0.1,0-0.1
					c0-0.1,0-0.1,0-0.2c0.1-0.5,0-1.2-0.4-1.4c-0.4-0.2-0.7-0.2-1-0.2c-0.4,0-0.8,0.2-1.1,0.3c-0.2,0.1-0.5,0.5-0.5,0.5
					c-1.7-0.5-4.9-0.7-4.9-0.7c-1.1-1-1.6-4.1-0.9-5.2"/>
				<path class="st11" d="M84.8,66.3c0,0,1.4,2.6,1.7,3.8"/>
				<path class="st6" d="M88.7,72.1c0,0-2.3,0.7-2.3,2.4"/>
				<path class="st6" d="M80.5,72.7c0,0,0,2,0.9,2.4"/>
			</g>
			<path class="st6" d="M81.5,58.1c0,0,0,0.3-0.1,0.4c-0.1,0.1,0.1,0.3,0.2,0.2c0.1-0.1,0-0.5,0-0.5"/>
			<path class="st6" d="M84.8,56.2c0,0,0,0.3,0,0.4c0,0.1-0.1,0.3-0.2,0.2c-0.1-0.1,0.1-0.5,0.1-0.5"/>
		</g>
		<g>
			<g>
				<path class="st28" d="M109.2,69.8c0,0-0.7-1.2,0.1-1.3s0.6-1.1,1.4-0.2c0,0,0.7-0.6,1.1,0.2c0,0,0.8-0.6,1.5,0
					c0.4,0.4,0.3,0.6,0.2,0.8c0.2-0.2,0.6-0.3,1.1,0.1c0.7,0.6,0.1,0.8,0.1,0.8s0.7-0.4,1.2-0.1c0,0-0.2-1.4,0.6-1
					c0.4,0.2,0.5,0.3,0.5,0.5c-0.1,0.1-0.1,0.3-0.1,0.3s0.1-0.1,0.1-0.3c0.1-0.4,0.5-1.2,1.1-0.9c0.8,0.4,0.7,0.7,0.6,0.9
					c0,0,0.5,0.1,0.8,0.5c0.1,0.2,0.1,0.4,0,0.6c-0.1,0.2-0.2,0.4-0.2,0.4s1-0.3,1.1,0c0.1,0.3,0.1,0.6,0.1,0.6l-0.4,0l-11.2,0
					c0,0-0.2-0.4-0.3-0.9C108.3,70.3,108.5,69.8,109.2,69.8z"/>
				<path class="st6" d="M116.8,69.7c0,0,0-0.1,0.1-0.3C116.9,69.6,116.8,69.7,116.8,69.7z"/>
				<path class="st6" d="M109.2,69.7c0,0-0.7-1.2,0.1-1.3c0.8-0.1,0.6-1.1,1.4-0.2c0,0,0.7-0.6,1.1,0.2c0,0,0.8-0.6,1.5,0
					c0.4,0.4,0.3,0.6,0.2,0.8c0.2-0.2,0.6-0.3,1.1,0.1c0.7,0.6,0.1,0.8,0.1,0.8s0.7-0.4,1.2-0.1c0,0-0.2-1.4,0.6-1
					c0.4,0.2,0.5,0.3,0.5,0.5c-0.1,0.1-0.1,0.3-0.1,0.3s0.1-0.1,0.1-0.3c0.1-0.4,0.5-1.2,1.1-0.9c0.8,0.4,0.7,0.7,0.6,0.9
					c0,0,0.5,0.1,0.8,0.5c0.1,0.2,0.1,0.4,0,0.6c-0.1,0.2-0.2,0.4-0.2,0.4s1-0.3,1.1,0c0.1,0.3,0.1,0.6,0.1,0.6l-0.4,0l-11.2,0
					c0,0-0.2-0.4-0.3-0.9C108.4,70.1,108.5,69.7,109.2,69.7z"/>
				<path class="st6" d="M110.7,68.2c0,0-0.2,0.2-0.1,0.5"/>
				<path class="st6" d="M114.6,70.4c0,0,0.1-0.5-0.2-0.5s-0.6,0-0.6,0.2c0,0.2,0,0.4,0,0.4"/>
				<path class="st6" d="M109.2,69.7c0,0,0.6-0.1,0.7,0.3"/>
				<path class="st6" d="M110.1,70.8c0,0-0.1-0.8,0.4-0.6s0.4,0.4,0.4,0.4"/>
				<path class="st6" d="M113.4,69.5c0,0-0.4-0.8-0.8-0.6c-0.4,0.2-0.5,0.6-0.5,0.6"/>
				<path class="st6" d="M119.2,71.1c0,0-0.6-1-1.1-0.7c-0.4,0.4-0.2,0.7-0.2,0.7"/>
			</g>
			
				<rect x="106.5" y="71.2" transform="matrix(-1 1.937785e-03 -1.937785e-03 -1 225.1171 142.7281)" class="st29" width="12" height="0.5"/>
			
				<rect x="118.5" y="71.2" transform="matrix(1 -1.937785e-03 1.937785e-03 1 -0.1382 0.2333)" class="st29" width="3.6" height="0.5"/>
			
				<rect x="106.5" y="71.2" transform="matrix(-1 1.937785e-03 -1.937785e-03 -1 225.1171 142.7281)" class="st29" width="12" height="0.5"/>
			
				<rect x="118.5" y="71.2" transform="matrix(1 -1.937785e-03 1.937785e-03 1 -0.1382 0.2333)" class="st29" width="3.6" height="0.5"/>
			
				<rect x="106.5" y="71.2" transform="matrix(-1 1.937785e-03 -1.937785e-03 -1 225.2279 142.6544)" class="st6" width="12" height="0.5"/>
			
				<rect x="118.6" y="71.2" transform="matrix(1 -1.937785e-03 1.937785e-03 1 -0.1382 0.2334)" class="st6" width="3.6" height="0.5"/>
			<polygon class="st9" points="115.8,71.9 118.6,71.9 118.6,84 115.8,84 106.7,84 106.7,72 			"/>
			<polygon class="st27" points="121.5,71.9 122.4,71.9 122.4,84 121.5,84 118.6,84 118.6,71.9 			"/>
			
				<rect x="106.5" y="71.7" transform="matrix(-1 1.937785e-03 -1.937785e-03 -1 225.2644 155.2111)" class="st6" width="12" height="12"/>
			
				<rect x="118.6" y="71.7" transform="matrix(1 -1.937785e-03 1.937785e-03 1 -0.1503 0.2334)" class="st6" width="3.6" height="12"/>
			
				<rect x="106.5" y="71.2" transform="matrix(-1 1.937785e-03 -1.937785e-03 -1 225.2279 142.6544)" class="st6" width="12" height="0.5"/>
			
				<rect x="118.6" y="71.2" transform="matrix(1 -1.937785e-03 1.937785e-03 1 -0.1382 0.2334)" class="st6" width="3.6" height="0.5"/>
			<path class="st6" d="M117.9,71.9c0,0,0,10.3,0,11.7"/>
			<path class="st6" d="M117.5,71.9c0,0,0.2,3.7,0,6.3c-0.2,2.6,0.1,5.4,0.1,5.4"/>
			<path class="st6" d="M116.6,71.9c0,0-0.1,10.1,0.2,11.5"/>
			<path class="st6" d="M116,83.6c0,0,0.3-6.6,0.1-8.2c-0.2-1.7,0-3.4,0-3.4"/>
			<path class="st6" d="M113.1,83.6c0,0,0-10.3,0-11.7"/>
			<path class="st6" d="M113.4,83.6c0,0-0.2-3.7,0-6.3c0.2-2.6-0.1-5.4-0.1-5.4"/>
			<path class="st6" d="M114.3,83.6c0,0,0.1-10.1-0.2-11.5"/>
			<path class="st6" d="M114.9,71.9c0,0-0.3,6.6-0.1,8.2c0.2,1.7,0,3.4,0,3.4"/>
			<path class="st6" d="M121.5,70.6c0,0-0.1,10.1,0.2,11.5"/>
			<path class="st6" d="M120.7,82.6c0,0,0.3-6.6,0.1-8.2s0-3.4,0-3.4"/>
			<path class="st6" d="M119.3,83.2c0,0,0.1-10.1-0.2-11.5"/>
			<path class="st6" d="M119.9,71.4c0,0-0.3,6.6-0.1,8.2c0.2,1.7,0,3.4,0,3.4"/>
			<path class="st6" d="M112.2,71.9c0,0,0,10.3,0,11.7"/>
			<path class="st6" d="M111.8,71.9c0,0,0.2,3.7,0,6.3c-0.2,2.6,0.1,5.4,0.1,5.4"/>
			<path class="st6" d="M110.9,71.9c0,0-0.1,10.1,0.2,11.5"/>
			<path class="st6" d="M110.3,83.6c0,0,0.3-6.6,0.1-8.2c-0.2-1.7,0-3.4,0-3.4"/>
			<path class="st6" d="M107.4,83.6c0,0,0-10.3,0-11.7"/>
			<path class="st6" d="M107.8,83.6c0,0-0.2-3.7,0-6.3c0.2-2.6-0.1-5.4-0.1-5.4"/>
			<path class="st6" d="M108.6,83.6c0,0,0.1-10.1-0.2-11.5"/>
			<path class="st6" d="M109.2,71.9c0,0-0.3,6.6-0.1,8.2c0.2,1.7,0,3.4,0,3.4"/>
			<g>
				<path class="st30" d="M112.6,60.9c0,0,1-1.1,1.5,0c0,0,1.1-0.9,1.4,0.1c0.3,1.1-0.8,2.9-1.6,2.1c0,0,0.5,0.2-0.7,0.4
					c0,0-2.8-0.5-1.3-1.2c0,0-1.6-0.4,0-1.1C112.1,61.2,112.3,60.9,112.6,60.9z"/>
				<path class="st6" d="M112.8,60.9c0,0,1-1.1,1.5,0c0,0,1.1-0.9,1.4,0.1c0.3,1.1-0.8,2.9-1.6,2.1c0,0,0.5,0.2-0.7,0.4
					c0,0-2.8-0.5-1.3-1.2c0,0-1.6-0.4,0-1.1"/>
			</g>
			<g>
				<path class="st30" d="M118.7,56.3c0,0,2.2-0.5,2.4,0.8c0,0,2.4-0.2,2.2,0.9c-0.2,1.1-3.1,2.2-3.8,1c0,0,0.7,0.5-1.3,0
					c0,0-4.1-1.9-1.2-1.8c0,0-2.3-1.2,0.6-1C117.7,56.2,118.2,56,118.7,56.3z"/>
				<path class="st6" d="M118.9,56.3c0,0,2.2-0.5,2.4,0.8c0,0,2.4-0.2,2.2,0.9c-0.2,1.1-3.1,2.2-3.8,1c0,0,0.7,0.5-1.3,0
					c0,0-4.1-1.9-1.2-1.8c0,0-2.3-1.2,0.6-1"/>
			</g>
			<g>
				<path class="st30" d="M112.2,64.4c0,0,0.9-0.1,0.6,0.7c0,0,0.9,0.1,0.5,0.8s-1.8,1.1-1.7,0.3c0,0,0.1,0.3-0.5-0.1
					c0,0-0.9-1.5,0.1-1.2c0,0-0.4-0.9,0.5-0.6C111.8,64.3,112,64.2,112.2,64.4z"/>
				<path class="st6" d="M112.2,64.4c0,0,0.9-0.1,0.6,0.7c0,0,0.9,0.1,0.5,0.8s-1.8,1.1-1.7,0.3c0,0,0.1,0.3-0.5-0.1
					c0,0-0.9-1.5,0.1-1.2c0,0-0.4-0.9,0.5-0.6"/>
			</g>
			<g>
				<path class="st30" d="M106.5,57.2c0,0,0.9-0.1,0.6,0.7c0,0,0.9,0.1,0.5,0.8c-0.4,0.7-1.8,1.1-1.7,0.3c0,0,0.1,0.3-0.5-0.1
					c0,0-0.9-1.5,0.1-1.2c0,0-0.4-0.9,0.5-0.6C106.1,57.1,106.4,57,106.5,57.2z"/>
				<path class="st6" d="M106.5,57.2c0,0,0.9-0.1,0.6,0.7c0,0,0.9,0.1,0.5,0.8c-0.4,0.7-1.8,1.1-1.7,0.3c0,0,0.1,0.3-0.5-0.1
					c0,0-0.9-1.5,0.1-1.2c0,0-0.4-0.9,0.5-0.6"/>
			</g>
			<g>
				<path class="st30" d="M117.6,61.9c0,0,0.3,0,0.2,0.2c0,0,0.3,0,0.2,0.3c-0.1,0.2-0.6,0.4-0.6,0.1c0,0,0,0.1-0.2,0
					c0,0-0.3-0.5,0-0.4c0,0-0.1-0.3,0.2-0.2C117.4,61.8,117.5,61.8,117.6,61.9z"/>
				<path class="st6" d="M117.6,61.9c0,0,0.3,0,0.2,0.2c0,0,0.3,0,0.2,0.3c-0.1,0.2-0.6,0.4-0.6,0.1c0,0,0,0.1-0.2,0
					c0,0-0.3-0.5,0-0.4c0,0-0.1-0.3,0.2-0.2"/>
			</g>
		</g>
		<path class="st12" d="M107.2,36l12.7,0c0,0-7.2,5.3-13.1,8.3c-5.9,3-10,13-14.8,14.6s-6.2,7-5.7,1.4c0.5-5.6,10.3-7.9,12.9-12
			S107.2,36,107.2,36z"/>
		<path class="st12" d="M94.7,84.2l-13,0c0,0,5.8-6.3,11.9-9.1s7.7-14,12.6-15.5s10.5-2.8,10,2.3s-10.6,7.2-13.3,11
			S94.7,84.2,94.7,84.2z"/>
	</g>
	<g>
		<path class="st22" d="M54.9,95.5c0,0.1,0,0.1,0,0.1c0,0.4-0.2,0.4-0.4,0.4c-0.2,0-0.4-0.2-0.4-0.7c0-0.9,0-8.4,0-10.6
			c0-2.2-0.7-2.2-1.1-2.2c-0.4,0-0.9,1.3-0.9,2.2c0,0.9,0,2.6,0,3c0,0.4-0.5,0.3-0.5,0c0-0.4-0.6-5.5,1.5-5.5s1.8,2.3,1.8,3.6
			C54.7,87.1,54.9,95.5,54.9,95.5z"/>
		<path class="st6" d="M54.9,95.5c0,0.1,0,0.1,0,0.1c0,0.4-0.2,0.4-0.4,0.4c-0.2,0-0.4-0.2-0.4-0.7c0-0.9,0-8.4,0-10.6
			s-0.7-2.2-1.1-2.2S52,83.9,52,84.8c0,0.9,0,2.6,0,3c0,0.4-0.5,0.3-0.5,0c0-0.4-0.6-5.5,1.5-5.5c2.1,0,1.8,2.3,1.8,3.6
			C54.8,87.1,54.9,95.5,54.9,95.5z"/>
		<g>
			<path class="st22" d="M50,85.8c0,0,3.5,0,3.8,0c0.3,0,0.5,0.2,0.5,0.5c0,0.2,0,0.3-0.6,0.3c-0.6,0-3.7,0-3.7,0L50,85.8z"/>
			<path class="st6" d="M50.1,85.8c0,0,3.5,0,3.8,0c0.3,0,0.5,0.2,0.5,0.5c0,0.2,0,0.3-0.6,0.3c-0.6,0-3.7,0-3.7,0L50.1,85.8z"/>
		</g>
		<g>
			<path class="st22" d="M50,89c0,0,3.5,0,3.8,0s0.5,0.2,0.5,0.5s0,0.3-0.6,0.3c-0.6,0-3.7,0-3.7,0L50,89z"/>
			<path class="st6" d="M50.1,89c0,0,3.5,0,3.8,0s0.5,0.2,0.5,0.5s0,0.3-0.6,0.3c-0.6,0-3.7,0-3.7,0L50.1,89z"/>
		</g>
		<g>
			<path class="st22" d="M50,92.4c0,0,3.5,0,3.8,0c0.3,0,0.5,0.2,0.5,0.5s0,0.3-0.6,0.3c-0.6,0-3.7,0-3.7,0L50,92.4z"/>
			<path class="st6" d="M50.1,92.4c0,0,3.5,0,3.8,0c0.3,0,0.5,0.2,0.5,0.5s0,0.3-0.6,0.3c-0.6,0-3.7,0-3.7,0L50.1,92.4z"/>
		</g>
		<path class="st22" d="M50.3,95.5c0,0.1,0,0.1,0,0.1c0,0.4-0.2,0.4-0.4,0.4c-0.2,0-0.4-0.2-0.4-0.7c0-0.9,0-8.4,0-10.6
			s-0.7-2.2-1.1-2.2c-0.4,0-0.9,1.3-0.9,2.2c0,0.9,0,2.6,0,3c0,0.4-0.5,0.3-0.5,0c0-0.4-0.6-5.5,1.5-5.5c2.1,0,1.8,2.3,1.8,3.6
			C50.2,87.1,50.3,95.5,50.3,95.5z"/>
		<path class="st6" d="M50.4,95.5c0,0.1,0,0.1,0,0.1c0,0.4-0.2,0.4-0.4,0.4c-0.2,0-0.4-0.2-0.4-0.7c0-0.9,0-8.4,0-10.6
			s-0.7-2.2-1.1-2.2s-0.9,1.3-0.9,2.2c0,0.9,0,2.6,0,3c0,0.4-0.5,0.3-0.5,0c0-0.4-0.6-5.5,1.5-5.5c2.1,0,1.8,2.3,1.8,3.6
			C50.3,87.1,50.4,95.5,50.4,95.5z"/>
	</g>
	<path class="st31" d="M40.4,37c0,0-0.3,13.8,1,13.6s6.7-2.1,8.7-1.6C52.1,49.6,41,36.8,40.4,37z"/>
	<path class="st31" d="M40.4,37c0,0,23.5,13.6,24.5,12.7c1-0.8,0.3-2.8,2.4-3.2C69.5,46.3,40.8,36.4,40.4,37z"/>
	<g>
		<path class="st1" d="M129.7,101.4c0.6,0-3.9,1.2-3.5,1.6c0.5,0.4,2.9-0.3,1.4,1.2c-1.6,1.4-0.3,1.7,0.6,2.1
			c0.9,0.3,1.3,0.7-0.3,1.7c-1.6,1-20.2,3.2-21.5,2.5c-1.3-0.7-1-3.7,2.1-4.4c1.6-0.4,1.2-0.5,0.8-0.9c-0.5-0.4-0.1-1.3,0.7-1.3
			c0.8-0.1-0.5-0.4-0.5-0.8c0-0.4,5.7-3,6.1-3C122.6,100,126.9,101.4,129.7,101.4z"/>
		<path class="st32" d="M108.9,103.8c-3.1-0.1-7.5-0.4-7.3,0s1.8,1.2,8.1,1s15.7,0.4,18.4,0.4c2.7,0,7.4,0.1,7.1-0.5
			c-0.3-0.6-11.4-0.4-17.4-0.7S108.9,103.8,108.9,103.8z"/>
		<path class="st32" d="M94.7,102.1c-2,0-4.8,0-4.6,0.2c0.2,0.2,1.2,0.5,5.2,0.3c4-0.2,15.9,0,17.7-0.1c1.8-0.1,4.7-0.1,4.5-0.4
			c-0.2-0.3-13.2-0.1-17-0.1C96.6,102,94.7,102.1,94.7,102.1z"/>
		<g>
			<g>
				<path class="st11" d="M143.5,98.6c1.2-0.3,2-0.1,2.4,0c0.4,0,2.5,0.6,2.1,2c-0.2,0.6-0.9-1.5-2.3-0.8c-1.6,1.1-2.7,0.7-2.7,0.7
					c-0.7-0.3-9.9,1.4-11.9-0.2c-0.1,0-0.1-0.1-0.2-0.1c-2.5-2.2-4.2-2.3-4.4-2.9c-0.1-0.3-0.2-1.2-0.1-2.2c0.1-1.1,0.4-2.2,1.5-1.8
					c1.7,0.6,3.4,2.1,4.8,3.4c0.4,0.4,2.4,1.4,3.3,1.7C138.4,99,142.3,99.3,143.5,98.6z"/>
				<path class="st11" d="M130.2,100.9c-2.1-0.2-4.3-0.5-6.3-1c-3.3-0.8-6.1-0.8-8.3-0.6c0.1-0.2,0.2-0.3,0.3-0.4
					c1.3-1.3,2.6-2.5,3.7-3.4c0,0,1.3-1,2.1-1.6c0,0-5.2-1.8-5.2-3.4c0.3-3.4,5.5-5.9,5.5-5.9s3.1-1.6,5.3-1.4
					c2.2,0.2-1.3,0.7-1.7,1.2c-0.4,0.5-1.4,1.9-2.8,1.6c0,0-2.8,2.4-3.2,3.6c0,0,5.7,0.8,10.8,2.7c0.2,0.2,0.4,0.4,0.7,0.7
					c0.5,0.1,1.1,0.2,1.6,0.1l-0.9,1C131.8,94.1,132.6,97.9,130.2,100.9z"/>
				<path class="st17" d="M134.5,89.7c-1,0.5-1,1.6-1,1.6l0.3,0.2l0.4-0.4c0.4-0.5,0.9,0,0.9,0s0.5,0.5-0.2,1c-0.7,0.5-1-0.1-1-0.1
					s-1.1,0.8-0.3,2.1c1.1-1.2,1.7-1.3,2.4-1.7c0,0,1-0.5,0.8-1"/>
				<path class="st6" d="M135.9,92.4c-0.7,0.3-1.3,0.5-2.4,1.7c-0.8-1.3,0.3-2.1,0.3-2.1s0.3,0.5,1,0.1c0.7-0.5,0.2-1.1,0.2-1.1
					s-0.4-0.4-0.8,0.1l-0.4,0.4l-0.3-0.1"/>
				<path class="st11" d="M130,89.3c0.2-0.4,0.6-0.9,1.1-1.4c0,0,1.8,0.4,3.2,1.8c-0.3,0.2-0.8,0.7-0.8,1.5l0.3,0.1l0.4-0.4
					c0.4-0.5,0.8-0.1,0.8-0.1s0.5,0.6-0.2,1.1c-0.7,0.5-1-0.1-1-0.1s-0.2,0.1-0.3,0.4c-0.2,0.3-0.4,0.6-0.2,1.1
					c-1.1,0.2-2.3-0.1-3-0.8c0,0,0,0,0,0C129,91.7,129.3,90.6,130,89.3z"/>
				<path class="st21" d="M136.7,87.6c2.6,3.2-0.8,4.9-0.8,4.9c-0.4-1.1-1-2-1.6-2.7c-1.5-1.5-3.2-1.8-3.2-1.8l0,0
					C131.1,88,133.6,84.4,136.7,87.6z"/>
				<path class="st6" d="M136.7,87.5c2.6,3.2-0.8,4.9-0.8,4.9c-0.4-1.1-1-2-1.6-2.7c-1.5-1.5-3.2-1.8-3.2-1.8l0,0
					C131.1,87.9,133.6,84.3,136.7,87.5z"/>
				<g>
					
						<ellipse transform="matrix(0.5694 -0.8221 0.8221 0.5694 -18.8205 146.779)" class="st25" cx="130.7" cy="91.4" rx="0.3" ry="0.3"/>
					<path class="st6" d="M131.8,89.2c0,0-0.1,0.8-0.7,0.5c-0.5-0.3-0.4-0.3-0.6-0.2c-0.1,0.1-0.3,0.3,0.1,0.6
						c0.3,0.3,0.3,0.3,0.3,0.3"/>
					<g>
						<path class="st25" d="M131.6,89c0,0.3-0.3,0.4-0.6,0.3c-0.3-0.1-1.1-0.4-0.8-0.9S131.7,88.6,131.6,89z"/>
						<path class="st25" d="M131.4,88.9c0,0.2-0.2,0.3-0.5,0.3c-0.3-0.1-0.8-0.3-0.6-0.8S131.4,88.6,131.4,88.9z"/>
					</g>
					<path class="st25" d="M131.6,89.1c0.7,0.2,0.6,0.4,0.6,0.4l-0.1,0.1c0,0,0-0.2-0.6-0.4L131.6,89.1z"/>
					<g>
						<path class="st25" d="M132.2,89.4c-0.3,0.2-0.3,0.4-0.1,0.7c0.2,0.3,0.9,1,1.3,0.5S132.6,89.2,132.2,89.4z"/>
						<path class="st25" d="M132.2,89.5c-0.2,0.1-0.2,0.3-0.1,0.6c0.1,0.2,0.7,0.8,1.1,0.4C133.6,90.1,132.5,89.3,132.2,89.5z"/>
					</g>
				</g>
			</g>
			<path class="st6" d="M115.6,99.4c0,0-8.3,0.8-12.4,0"/>
		</g>
		<g>
			<path class="st32" d="M121.5,99c0,0-2.5-0.4-4.1-2.5c-1.5-2.1-3-1.5-3.3-0.7c-0.3,0.8,1,2.4-2.3,2s-2.2,1.1-1.9,1.7"/>
			<path class="st6" d="M121.7,98.8c0,0-2.5-0.4-4.1-2.5c-1.5-2.1-3-1.5-3.3-0.7c-0.3,0.8,1,2.4-2.3,2s-2.2,1.1-1.9,1.7"/>
		</g>
		<g>
			<path class="st32" d="M114.3,94.4c0.5-0.1,0.1-0.6-0.3-0.9s-1.2-0.2-1,0.4C113.2,94.5,113.6,94.5,114.3,94.4z"/>
			<path class="st6" d="M114.3,94.3c0.5-0.1,0.1-0.6-0.3-0.9c-0.4-0.3-1.2-0.2-1,0.4C113.2,94.4,113.6,94.4,114.3,94.3z"/>
		</g>
		<g>
			<path class="st32" d="M113.1,94.9c0.2,0.1,0.4,0,0.5-0.1s-0.1-0.3-0.5-0.3S112.9,94.7,113.1,94.9z"/>
			<path class="st6" d="M113.2,94.9c0.2,0.1,0.4,0,0.5-0.1c0.1-0.1-0.1-0.3-0.5-0.3C112.9,94.6,113,94.7,113.2,94.9z"/>
		</g>
		<g>
			<path class="st32" d="M115.9,89.2c-0.2,0.1-0.2,0.3-0.2,0.5c0,0.2,0.3,0,0.5-0.3C116.3,89.1,116.2,89.1,115.9,89.2z"/>
			<path class="st6" d="M115.9,89.2c-0.2,0.1-0.2,0.3-0.2,0.5c0,0.2,0.3,0,0.5-0.3C116.3,89.1,116.1,89.1,115.9,89.2z"/>
		</g>
		<path class="st11" d="M137,89c0,0,0,0.3,0,0.6s-0.3,0.3-0.4,0.2s0.2-0.3,0.1-0.4"/>
		<path class="st11" d="M118,89.4c0,0-0.2,0.3-0.3,0.5c-0.1,0.2-0.4,0.2-0.4,0c0-0.2,0.3-0.2,0.3-0.3"/>
		<path class="st11" d="M137.5,90.7c0,0,0,0.2,0,0.4c0,0.2-0.2,0.2-0.2,0.1c0-0.1,0.1-0.2,0.1-0.2"/>
		<path class="st11" d="M136.5,91.1c0,0-0.2,0.1-0.3,0.2c-0.1,0.1-0.1,0.2,0,0.2c0.1,0,0.1-0.2,0.2-0.2"/>
		<path class="st11" d="M118.6,89.2c0,0-0.1,0.2-0.2,0.3c-0.1,0.1-0.2,0.1-0.2,0c0-0.1,0.2-0.1,0.2-0.2"/>
		<path class="st11" d="M118.4,88c0,0-0.1,0.1-0.3,0.2c-0.1,0.1-0.1,0.2,0,0.2c0.1,0,0.1-0.2,0.2-0.2"/>
	</g>
	<g>
		<path class="st1" d="M47.9,115.2c-0.6,0,3.9,1.2,3.5,1.6c-0.5,0.4-2.9-0.3-1.4,1.2c1.6,1.4,0.3,1.7-0.6,2.1s-1.3,0.7,0.3,1.7
			c1.6,1,20.2,3.2,21.5,2.5c1.3-0.7,1-3.7-2.1-4.4c-1.6-0.4-1.2-0.5-0.8-0.9c0.5-0.4,0.1-1.3-0.7-1.3c-0.8-0.1,0.5-0.4,0.5-0.8
			s-5.7-3-6.1-3C55,113.8,50.7,115.2,47.9,115.2z"/>
		<path class="st32" d="M68.8,117.6c3.1-0.1,7.5-0.4,7.3,0c-0.2,0.4-1.8,1.2-8.1,1s-15.7,0.4-18.4,0.4c-2.7,0-7.4,0.1-7.1-0.5
			c0.3-0.6,11.4-0.4,17.4-0.7S68.8,117.6,68.8,117.6z"/>
		<path class="st32" d="M82.9,115.9c2,0,4.8,0,4.6,0.2s-1.2,0.5-5.2,0.3c-4-0.2-15.9,0-17.7-0.1c-1.8-0.1-4.7-0.1-4.5-0.4
			c0.2-0.3,13.2-0.1,17-0.1C81,115.9,82.9,115.9,82.9,115.9z"/>
		<g>
			<g>
				<g>
					<path class="st11" d="M34,113.5c-1.2-0.2-2,0.1-2.4,0.2c-0.4,0.1-2.4,0.9-1.9,2.2c0.2,0.5,0.7-1.6,2.2-1
						c1.7,0.9,2.7,0.4,2.7,0.4c0.6-0.3,10,0.3,11.9-1.4c0.1-0.1,0.1-0.1,0.2-0.2c2.3-2.4,4-2.7,4-3.3c0-0.3,0.1-1.2-0.1-2.2
						c-0.2-1.1-0.6-2.2-1.7-1.7c-1.6,0.8-3.1,2.5-4.5,3.9c-0.4,0.4-2.2,1.7-3.1,2C39.1,113.3,35.3,114,34,113.5z"/>
					<path class="st11" d="M47.8,114.6c2.1-0.2,4.3-0.5,6.3-1c3.3-0.8,6.1-0.8,8.3-0.6c-0.1-0.2-0.2-0.3-0.3-0.4
						c-1.3-1.3-2.6-2.5-3.7-3.4c0,0-1.3-1-2.1-1.6c0,0,5.2-1.8,5.2-3.4c-0.3-3.4-5.5-5.9-5.5-5.9s-3.1-1.6-5.3-1.4
						c-2.2,0.2,1.3,0.7,1.7,1.2s1.4,1.9,2.8,1.6c0,0,2.8,2.4,3.2,3.6c0,0-5.7,0.8-10.8,2.7c-0.2,0.2-0.4,0.4-0.7,0.7
						c-0.5,0.1-1.1,0.2-1.6,0.1l0.9,1C46.2,107.8,44.7,110.5,47.8,114.6z"/>
					<path class="st23" d="M43.5,103.4c1,0.5,1,1.6,1,1.6l-0.3,0.2l-0.4-0.4c-0.4-0.5-0.9,0-0.9,0s-0.5,0.5,0.2,1
						c0.7,0.5,1-0.1,1-0.1s1.4,0.2,0.6,1.5c-1.6-0.1-2-0.8-2.7-1.1c0,0-1-0.5-0.8-1"/>
					<path class="st6" d="M42.1,106.1c0.7,0.3,0.9,0.8,2.7,1.1c0.8-1.3-0.6-1.5-0.6-1.5s-0.3,0.5-1,0.1c-0.7-0.5-0.2-1.1-0.2-1.1
						s0.4-0.4,0.8,0.1l0.4,0.4l0.3-0.1"/>
					<path class="st11" d="M48,103c-0.2-0.4-0.6-0.9-1.1-1.4c0,0-1.8,0.4-3.2,1.8c0.3,0.2,0.8,0.7,0.8,1.5l-0.3,0.1l-0.4-0.4
						c-0.4-0.5-0.8-0.1-0.8-0.1s-0.5,0.6,0.2,1.1c0.7,0.5,1-0.1,1-0.1s0.2,0.1,0.3,0.4c0.2,0.3,0.4,0.6,0.2,1.1
						c1.1,0.2,2.3-0.1,3-0.8c0,0,0,0,0,0C49.1,105.3,48.7,104.2,48,103z"/>
					<path class="st21" d="M41.3,101.2c-2.6,3.2,0.8,4.9,0.8,4.9c0.4-1.1,1-2,1.6-2.7c1.5-1.5,3.2-1.8,3.2-1.8l0,0
						C47,101.7,44.4,98.1,41.3,101.2z"/>
					<path class="st6" d="M41.3,101.2c-2.4,3.5,0.8,4.9,0.8,4.9c0.4-1.1,1-2,1.6-2.7c1.5-1.5,3.2-1.8,3.2-1.8l0,0
						C47,101.6,44.4,98,41.3,101.2z"/>
					<g>
						
							<ellipse transform="matrix(0.8221 -0.5694 0.5694 0.8221 -51.3803 45.6379)" class="st25" cx="47.3" cy="105" rx="0.3" ry="0.3"/>
						<path class="st6" d="M46.2,102.9c0,0,0.1,0.8,0.7,0.5c0.5-0.3,0.4-0.3,0.6-0.2c0.1,0.1,0.3,0.3-0.1,0.6
							c-0.3,0.3-0.3,0.3-0.3,0.3"/>
						<g>
							<path class="st25" d="M46.4,102.7c0,0.3,0.3,0.4,0.6,0.3c0.3-0.1,1.1-0.4,0.8-0.9C47.5,101.5,46.3,102.2,46.4,102.7z"/>
							<path class="st25" d="M46.6,102.6c0,0.2,0.2,0.3,0.5,0.3c0.3-0.1,0.8-0.3,0.6-0.8S46.6,102.2,46.6,102.6z"/>
						</g>
						<path class="st25" d="M46.5,102.8c-0.7,0.2-0.6,0.4-0.6,0.4l0.1,0.1c0,0,0-0.2,0.6-0.4L46.5,102.8z"/>
						<g>
							<path class="st25" d="M45.8,103.1c0.3,0.2,0.3,0.4,0.1,0.7c-0.2,0.3-0.9,1-1.3,0.5C44.2,103.8,45.5,102.9,45.8,103.1z"/>
							<path class="st25" d="M45.8,103.1c0.2,0.1,0.2,0.3,0.1,0.6c-0.1,0.2-0.7,0.8-1.1,0.4C44.5,103.8,45.5,103,45.8,103.1z"/>
						</g>
					</g>
				</g>
				<path class="st6" d="M62.4,113c0,0,8.3,0.8,12.4,0"/>
			</g>
			<g>
				<path class="st32" d="M62.1,102.8c0.2,0.1,0.2,0.3,0.2,0.5c0,0.2-0.3,0-0.5-0.3C61.7,102.7,61.9,102.7,62.1,102.8z"/>
				<path class="st6" d="M62.2,102.9c0.2,0.1,0.2,0.3,0.2,0.5c0,0.2-0.3,0-0.5-0.3C61.8,102.8,61.9,102.8,62.2,102.9z"/>
			</g>
			<path class="st11" d="M41.1,102.7c0,0,0,0.3,0,0.6s0.3,0.3,0.4,0.2c0.1-0.1-0.2-0.3-0.1-0.4"/>
			<path class="st11" d="M60,103c0,0,0.2,0.3,0.3,0.5c0.1,0.2,0.4,0.2,0.4,0c0-0.2-0.3-0.2-0.3-0.3"/>
			<path class="st11" d="M40.5,104.4c0,0,0,0.2,0,0.4s0.2,0.2,0.2,0.1c0-0.1-0.1-0.2-0.1-0.2"/>
			<path class="st11" d="M41.6,104.8c0,0,0.2,0.1,0.3,0.2s0.1,0.2,0,0.2c-0.1,0-0.1-0.2-0.2-0.2"/>
			<path class="st11" d="M59.4,102.9c0,0,0.1,0.2,0.2,0.3s0.2,0.1,0.2,0c0-0.1-0.2-0.1-0.2-0.2"/>
			<path class="st11" d="M59.6,101.6c0,0,0.1,0.1,0.3,0.2s0.1,0.2,0,0.2c-0.1,0-0.1-0.2-0.2-0.2"/>
			<path class="st21" d="M46.3,108.1c0,0,0.6,1.8,3,0.3c2.4-1.5,0.4-3,0.4-3s1.8-0.6,2.4-0.7c0,0,4.3,4.4,5.4,3.7
				c0,0,4.7,3.8,4.9,4.7c0,0-3.5-0.7-9.1,0.8c-3.4,0.9-5.5,0.9-5.5,0.9S45.1,110.8,46.3,108.1z"/>
			<path class="st6" d="M46.2,108.1c0,0,0.6,1.8,3,0.3c2.4-1.5,0.4-3,0.4-3s1.8-0.6,2.4-0.7c0,0,4.3,4.4,5.4,3.7
				c0,0,4.7,3.8,4.9,4.7c0,0-3.5-0.7-9.1,0.8c-3.4,0.9-5.5,0.9-5.5,0.9S44.9,110.8,46.2,108.1z"/>
			<g>
				<path class="st32" d="M56.5,112.6c0,0,2.5-0.4,4.1-2.5c1.5-2.1,3-1.5,3.3-0.7c0.3,0.8-1,2.4,2.3,2s2.2,1.1,1.9,1.7"/>
				<path class="st6" d="M56.4,112.5c0,0,2.5-0.4,4.1-2.5s3-1.5,3.3-0.7s-1,2.4,2.3,2c3.2-0.4,2.2,1.1,1.9,1.7"/>
			</g>
			<g>
				<path class="st32" d="M63.7,108c-0.5-0.1-0.1-0.6,0.3-0.9c0.4-0.3,1.2-0.2,1,0.4C64.8,108.1,64.4,108.2,63.7,108z"/>
				<path class="st6" d="M63.7,107.9c-0.5-0.1-0.1-0.6,0.3-0.9s1.2-0.2,1,0.4C64.8,108,64.4,108.1,63.7,107.9z"/>
			</g>
			<g>
				<path class="st32" d="M64.9,108.6c-0.2,0.1-0.4,0-0.5-0.1c-0.1-0.1,0.1-0.3,0.5-0.3C65.2,108.3,65.1,108.4,64.9,108.6z"/>
				<path class="st6" d="M64.8,108.6c-0.2,0.1-0.4,0-0.5-0.1c-0.1-0.1,0.1-0.3,0.5-0.3S65,108.4,64.8,108.6z"/>
			</g>
		</g>
	</g>
</g>
</svg>
