<?xml version="1.0" encoding="utf-8"?>
<!-- Generator: Adobe Illustrator 26.4.1, SVG Export Plug-In . SVG Version: 6.00 Build 0)  -->
<svg version="1.1" id="Layer_1" xmlns="http://www.w3.org/2000/svg" xmlns:xlink="http://www.w3.org/1999/xlink" x="0px" y="0px"
	 viewBox="0 0 205.2 143.8" style="enable-background:new 0 0 205.2 143.8;" xml:space="preserve">
<style type="text/css">
	.st0{fill:#E3E1CE;}
	.st1{fill:#EEDACF;}
	.st2{fill:#FAD2CC;}
	.st3{fill:#F9C9C3;}
	.st4{fill:#F3EDD1;}
	.st5{fill:#C2CBDA;}
	.st6{fill:#A9B0C1;}
	.st7{fill:#D3D0BF;}
	.st8{fill:none;stroke:#020203;stroke-width:0.2;stroke-linecap:round;stroke-linejoin:round;stroke-miterlimit:10;}
	.st9{fill:#F3F2C5;}
	.st10{opacity:0.3;fill:#F3F2C5;}
	.st11{opacity:0.3;fill:#ECEFEF;}
	.st12{fill:#F4F3E9;}
	.st13{fill:none;stroke:#1A1A1A;stroke-width:0.2;stroke-linecap:round;stroke-linejoin:round;stroke-miterlimit:10;}
	.st14{fill:#CAB39B;}
	.st15{fill:#434342;}
	.st16{fill:#F4F3E9;stroke:#1A1A1A;stroke-width:0.2;stroke-linecap:round;stroke-linejoin:round;stroke-miterlimit:10;}
	.st17{fill:#FBFBFA;stroke:#1A1A1A;stroke-width:0.2;stroke-linecap:round;stroke-linejoin:round;stroke-miterlimit:10;}
	.st18{fill:#1A1A1A;}
	.st19{fill:#CAB39B;stroke:#1A1A1A;stroke-width:0.2;stroke-linecap:round;stroke-linejoin:round;stroke-miterlimit:10;}
	.st20{fill:none;stroke:#FBFBFA;stroke-width:0.2;stroke-linecap:round;stroke-linejoin:round;stroke-miterlimit:10;}
	.st21{opacity:0.3;fill:#A09F85;}
	.st22{fill:#BEB5B1;}
	.st23{fill:#E2E2E1;}
	.st24{fill:#BED0E7;}
	.st25{fill:#FFFFFF;stroke:#1A1A1A;stroke-width:0.2;stroke-linecap:round;stroke-linejoin:round;stroke-miterlimit:10;}
	.st26{fill:#EDD7EA;}
	.st27{fill:#816663;}
	.st28{fill:#EFE2AC;}
</style>
<g>
	<g>
		<path class="st0" d="M134.9,2.1C86.5-4.8,69.5,6.9,45.4,7C25.8,7.1,16.1,13.6,11,30.1c23.6-0.5,121.7-2.5,168.1-4
			C169.9,13.6,156,5.1,134.9,2.1z"/>
		<path class="st1" d="M197.4,87.3c-2.5-24.6-7-45.9-18.3-61.1c-46.4,1.4-144.5,3.5-168.1,4c-1.1,3.5-2,7.5-2.7,11.9
			c-7.2,44.8,18.8,73.2,48.4,69.7c29.6-3.5,49.1,6.6,60,15C127.6,135.1,202,132.1,197.4,87.3z"/>
	</g>
	<path class="st2" d="M197.4,87.3c-1.3-12.8-3.1-24.6-6.2-35.2c-1.4-0.1-2.7,0-3.8,0.2c-10.8,2.8-56,22.2-84.7,14.8
		s-82.4,45.5-41.3,25.7c41.1-19.8,73.5,6.1,113.1,1.1c11-1.4,17.4,1.2,22.6,2.2C197.6,93.4,197.7,90.5,197.4,87.3z"/>
	<path class="st3" d="M41.2,99.3c39.6,5.1,73.3-0.6,111.1,4c45.9,5.5-12.6-33.1-41.3-25.7s-73.9-12-84.7-14.8
		c-4.8-1.3-12.7,0-18.7,3.5C9.5,80.5,15.1,91.9,23,99.8C27.2,99.2,32.7,98.2,41.2,99.3z"/>
	<circle class="st4" cx="117.2" cy="93.5" r="6.3"/>
	<path class="st5" d="M197.4,94.4c-9.3-3-25.3-8.2-35.7-12.5c-15.4-6.3-27.5,12.3-37,13.3s-42.2,14-50.9,13.1
		c-1.7-0.2,0.6,1.2,5.7,3.3c12.8,1.6,22.8,5.8,30.3,10.4c11,3.2,23.5,6.2,35.7,8C168,128,195.1,118.2,197.4,94.4z"/>
	<path class="st6" d="M177.9,117.1c-10.6,0-47.9-19.8-59.1-22.2c-11.2-2.4-23-26.7-42.4-20.8C57,79.9,22.7,87,22.7,87
		s-3.9,0.7-7.4,2.8c9.1,15.7,24.7,23.9,41.4,21.9c29.6-3.5,49.1,6.6,60,15c2.1,1.6,6.7,2.8,12.6,3.4
		C159.5,124.7,182.8,117,177.9,117.1z"/>
	<g>
		<path class="st7" d="M3.3,108.7c0,0,196.2-1.1,198.4-1.6c2.2-0.5,2.4,44.1-87.9,35.6c-52.5-4.9-66.5-0.6-75.2-0.5
			C13.8,142.4-2.9,116.4,3.3,108.7z"/>
		<line class="st8" x1="0" y1="109.8" x2="205.2" y2="107.7"/>
	</g>
	<path class="st8" d="M9.1,30.1c0,0,170.9-4.2,174.8-4"/>
	<g>
		<ellipse class="st7" cx="119.8" cy="12" rx="3.3" ry="1.2"/>
		<ellipse class="st7" cx="89.4" cy="10.2" rx="3.3" ry="1.2"/>
		<ellipse class="st7" cx="57.5" cy="12" rx="3.3" ry="1.2"/>
		<ellipse class="st7" cx="26" cy="15" rx="3.3" ry="1.2"/>
		<g>
			<g>
				<circle class="st9" cx="25.7" cy="48.6" r="2.8"/>
				<g>
					<circle class="st10" cx="25.7" cy="48.6" r="8"/>
					<path class="st8" d="M26,15c0,0,0.2,23.5-0.1,27"/>
					<path class="st0" d="M21.9,48.7c-0.2-0.5-0.4-1.1-0.4-1.7c0-2.3,1.8-4.1,3.9-4.1s3.9,1.8,3.9,4.1c0,0.6-0.1,1.2-0.4,1.7
						c-1-0.2-2.3-0.3-3.6-0.3S23,48.5,21.9,48.7z"/>
					<path class="st8" d="M22.1,48.6c-0.2-0.5-0.4-1.1-0.4-1.7c0-2.3,1.8-4.1,3.9-4.1s3.9,1.8,3.9,4.1c0,0.6-0.1,1.2-0.4,1.7
						c-1-0.2-2.3-0.3-3.6-0.3S23.1,48.4,22.1,48.6z"/>
				</g>
			</g>
			<g>
				<circle class="st9" cx="57.5" cy="48.6" r="2.8"/>
				<g>
					<circle class="st10" cx="57.5" cy="48.6" r="8"/>
					<path class="st8" d="M57.8,12c0,0,0.3,26.6-0.1,30.1"/>
					<path class="st0" d="M53.8,48.7c-0.2-0.5-0.4-1.1-0.4-1.7c0-2.3,1.8-4.1,3.9-4.1s3.9,1.8,3.9,4.1c0,0.6-0.1,1.2-0.4,1.7
						c-1-0.2-2.3-0.3-3.6-0.3C56.1,48.4,54.9,48.5,53.8,48.7z"/>
					<path class="st8" d="M54,48.6c-0.2-0.5-0.4-1.1-0.4-1.7c0-2.3,1.8-4.1,3.9-4.1s3.9,1.8,3.9,4.1c0,0.6-0.1,1.2-0.4,1.7
						c-1-0.2-2.3-0.3-3.6-0.3C56.2,48.3,55,48.4,54,48.6z"/>
				</g>
			</g>
			<g>
				<circle class="st9" cx="89.4" cy="48.6" r="2.8"/>
				<g>
					<circle class="st10" cx="89.4" cy="48.6" r="8"/>
					<path class="st8" d="M89.4,10.2c0,0,0.5,28.3,0.2,31.8"/>
					<path class="st0" d="M85.7,48.7c-0.2-0.5-0.4-1.1-0.4-1.7c0-2.3,1.8-4.1,3.9-4.1s3.9,1.8,3.9,4.1c0,0.6-0.1,1.2-0.4,1.7
						c-1-0.2-2.3-0.3-3.6-0.3S86.8,48.5,85.7,48.7z"/>
					<path class="st8" d="M85.9,48.6c-0.2-0.5-0.4-1.1-0.4-1.7c0-2.3,1.8-4.1,3.9-4.1c2.2,0,3.9,1.8,3.9,4.1c0,0.6-0.1,1.2-0.4,1.7
						c-1-0.2-2.3-0.3-3.6-0.3C88.1,48.3,86.9,48.4,85.9,48.6z"/>
				</g>
			</g>
			<g>
				<circle class="st9" cx="119.4" cy="48.6" r="2.8"/>
				<g>
					<circle class="st10" cx="119.4" cy="48.6" r="8"/>
					<path class="st8" d="M119.7,12c0,0,0.2,26.6-0.2,30.1"/>
					<path class="st0" d="M115.7,48.7c-0.2-0.5-0.4-1.1-0.4-1.7c0-2.3,1.8-4.1,3.9-4.1s3.9,1.8,3.9,4.1c0,0.6-0.1,1.2-0.4,1.7
						c-1-0.2-2.3-0.3-3.6-0.3S116.7,48.5,115.7,48.7z"/>
					<path class="st8" d="M115.8,48.6c-0.2-0.5-0.4-1.1-0.4-1.7c0-2.3,1.8-4.1,3.9-4.1s3.9,1.8,3.9,4.1c0,0.6-0.1,1.2-0.4,1.7
						c-1-0.2-2.3-0.3-3.6-0.3C118.1,48.3,116.9,48.4,115.8,48.6z"/>
				</g>
			</g>
		</g>
	</g>
	<path class="st11" d="M176.9,26.1L161.6,27c0,0-15.6,36.9-25.2,49.1c-7.9,10,6.4,7.5,17.8-5.8c12-14,8.1-32.1,15.2-36.3
		S176.9,26.1,176.9,26.1z"/>
	<path class="st11" d="M63.2,28.8l-15.3,0.5c0,0-15.6,36.9-25.2,49.1c-7.9,10,6.4,7.5,17.8-5.8c12-14,8.1-32.1,15.2-36.3
		S63.2,28.8,63.2,28.8z"/>
	<path class="st11" d="M138.1,108.4l17.5-0.2c0,0,16.6-18.6,22.9-23.6c6.2-5,15-26,8.5-26.2c-6.5-0.3-27.9,20.4-32.2,30
		C150.4,97.9,138.1,108.4,138.1,108.4z"/>
	<g>
		<g>
			<path class="st12" d="M24.8,76.9c-1.2-0.9-1.4-0.4-2,1.3c-0.6,1.7,4.2,10.4,6,10.4c2,0,4.4-5.4,4.6-6l-2-1.8c0,0-1.4,1.6-2.1,2.1
				C29.9,81.6,26.2,77.9,24.8,76.9z"/>
			<path class="st13" d="M24.8,76.9c-1.2-1-1.4-0.4-2,1.3c-0.6,1.7,3.1,9.9,6,10.4c1.9,0.3,4.4-5.4,4.6-6l-2-1.8
				c0,0-1.4,1.6-2.1,2.1C28.5,80.7,26.8,78.6,24.8,76.9z"/>
			<path class="st13" d="M29.4,83c0,0-1.3,1.2-1.5,1.6"/>
		</g>
		<path class="st14" d="M28.6,127.3c2.1,0.2,4.4,1,2.1,1.2c-2.3,0.2-9.4,0.2-10.7-0.5l0.4-5.1l3.3,0C23.7,122.8,26.5,127,28.6,127.3
			z"/>
		<path class="st14" d="M28.6,127.3c2.1,0.2,4.4,1,2.1,1.2c-2.3,0.2-9.4,0.2-10.7-0.5l0.4-5.1l3.3,0C23.7,122.8,26.5,127,28.6,127.3
			z"/>
		<path class="st14" d="M28.6,127.3c2.1,0.2,4.4,1,2.1,1.2c-2.3,0.2-9.4,0.2-10.7-0.5l0.4-5.1l3.3,0C23.7,122.8,26.5,127,28.6,127.3
			z"/>
		<path class="st14" d="M28.6,127.3c2.1,0.2,4.4,1,2.1,1.2c-2.3,0.2-9.4,0.2-10.7-0.5l0.4-5.1l3.3,0C23.7,122.8,26.5,127,28.6,127.3
			z"/>
		<path class="st13" d="M28.8,127.1c2.1,0.2,4.4,1,2.1,1.2c-2.3,0.2-9.4,0.2-10.7-0.5l0.4-5.1l3.3,0
			C23.9,122.7,26.7,126.8,28.8,127.1z"/>
		<path class="st13" d="M28.8,127.1c2.1,0.2,4.4,1,2.1,1.2c-2.3,0.2-9.4,0.2-10.7-0.5l0.4-5.1l3.3,0
			C23.9,122.7,26.7,126.8,28.8,127.1z"/>
		<path class="st13" d="M28.8,127.1c2.1,0.2,4.4,1,2.1,1.2c-2.3,0.2-9.4,0.2-10.7-0.5l0.4-5.1l3.3,0
			C23.9,122.7,26.7,126.8,28.8,127.1z"/>
		<path class="st13" d="M28.8,127.1c2.1,0.2,4.4,1,2.1,1.2c-2.3,0.2-9.4,0.2-10.7-0.5l0.4-5.1l3.3,0
			C23.9,122.7,26.7,126.8,28.8,127.1z"/>
		<path class="st15" d="M19.9,123.2c0,0,1.8-20.3-0.4-29.7c0.7,0.5,1.8,0.7,2.9,0.7c1.4,0,2.9-0.3,4.3-0.8c0.2,1.4,0.6,4.7,0.5,9.4
			c-0.1,5.1-1,13-3.3,20.7L19.9,123.2z"/>
		<path class="st13" d="M20.1,123.1c0,0,1.8-20.3-0.4-29.7c0.7,0.5,1.8,0.7,2.9,0.7c1.4,0,2.9-0.3,4.3-0.8c0.2,1.4,0.6,4.7,0.5,9.4
			c-0.1,5.1-1,13-3.3,20.7L20.1,123.1z"/>
		<path class="st14" d="M24.3,127.3c2.1,0.2,4.4,1,2.1,1.2c-2.3,0.2-9.4,0.2-10.7-0.5l0.4-5.1l3.3,0C19.3,122.8,22.1,127,24.3,127.3
			z"/>
		<path class="st14" d="M24.3,127.3c2.1,0.2,4.4,1,2.1,1.2c-2.3,0.2-9.4,0.2-10.7-0.5l0.4-5.1l3.3,0C19.3,122.8,22.1,127,24.3,127.3
			z"/>
		<path class="st14" d="M24.3,127.3c2.1,0.2,4.4,1,2.1,1.2c-2.3,0.2-9.4,0.2-10.7-0.5l0.4-5.1l3.3,0C19.3,122.8,22.1,127,24.3,127.3
			z"/>
		<path class="st14" d="M24.3,127.3c2.1,0.2,4.4,1,2.1,1.2c-2.3,0.2-9.4,0.2-10.7-0.5l0.4-5.1l3.3,0C19.3,122.8,22.1,127,24.3,127.3
			z"/>
		<path class="st13" d="M24.5,127.1c2.1,0.2,4.4,1,2.1,1.2c-2.3,0.2-9.4,0.2-10.7-0.5l0.4-5.1l3.3,0
			C19.5,122.7,22.4,126.8,24.5,127.1z"/>
		<path class="st13" d="M24.5,127.1c2.1,0.2,4.4,1,2.1,1.2c-2.3,0.2-9.4,0.2-10.7-0.5l0.4-5.1l3.3,0
			C19.5,122.7,22.4,126.8,24.5,127.1z"/>
		<path class="st13" d="M24.5,127.1c2.1,0.2,4.4,1,2.1,1.2c-2.3,0.2-9.4,0.2-10.7-0.5l0.4-5.1l3.3,0
			C19.5,122.7,22.4,126.8,24.5,127.1z"/>
		<path class="st13" d="M24.5,127.1c2.1,0.2,4.4,1,2.1,1.2c-2.3,0.2-9.4,0.2-10.7-0.5l0.4-5.1l3.3,0
			C19.5,122.7,22.4,126.8,24.5,127.1z"/>
		<path class="st15" d="M15.6,123.2c0,0,1.8-20.3-0.4-29.7c0.7,0.5,1.8,0.7,2.9,0.7c1.4,0,2.9-0.3,4.3-0.8c0.2,1.4,0.6,4.7,0.5,9.4
			c-0.1,5.1-1,13-3.3,20.7L15.6,123.2z"/>
		<path class="st13" d="M15.7,123.1c0,0,1.8-20.3-0.4-29.7c0.7,0.5,1.8,0.7,2.9,0.7c1.4,0,2.9-0.3,4.3-0.8c0.2,1.4,0.6,4.7,0.5,9.4
			c-0.1,5.1-1,13-3.3,20.7L15.7,123.1z"/>
		<path class="st12" d="M19.7,74.3c-1.7,0.7-2.4,0.8-3.4,3.1c-1.7,3.3-1.9,9.4-1.9,9.4c0.1,1.9,0.2,4,0.6,6.3
			c0.1,0.5,0.3,0.9,0.6,1.2c0.6,0.6,1.6,1.1,2.7,1.3c1.4,0.3,2.9,0.2,4.4,0.1c1.2-0.2,2.3-0.4,3.1-0.8c1.2-0.6,2-1.8,2-1.8
			c0.4-0.8,0.5-1.8,0.6-3.1c0-0.9,0-2,0.1-3.3c0.6-10.8-3-12-3-12c-0.6-0.2-1.1-0.4-1.6-0.6C23.7,73.9,21.2,73.9,19.7,74.3z"/>
		<path class="st13" d="M19.5,74.1c-0.4,0.1-2.3,0.9-3.4,3.1c-1.7,3.3-1.8,9.5-1.8,9.5c0.1,1.9,0.2,4,0.6,6.3
			c0.1,0.5,0.3,0.9,0.6,1.2c0.6,0.6,1.6,1.1,2.7,1.3c1.4,0.3,2.9,0.2,4.4,0.1c1.2-0.2,2.3-0.4,3.1-0.8c1.2-0.6,2-1.8,2-1.8
			c0.4-0.8,0.5-1.8,0.6-3.1c0-0.9,0-2,0.1-3.3c0.6-10.8-3-12-3-12c-0.6-0.2-1.1-0.4-1.6-0.6C23.6,73.9,20.9,73.7,19.5,74.1z"/>
		<polyline class="st16" points="24.3,74.7 22.6,73.8 22.2,74.4 23.7,75.9 24.3,74.7 25.3,75.6 24,75.1 		"/>
		<g>
			<path class="st17" d="M19.5,69c-0.3-1,0.7-1.2,0.7-1.2s0.8-0.1,0.8,0.7l0,0.7l0.4,0.1c1-1.1,0.3-2.4,0.3-2.4
				C22.5,67,23,67,23.5,67c1.3-0.1,2.2-0.6,2.8-1.1c0.3,0.6,0.5,3.1,0.3,4.2c-0.3,1.7-0.8,3.1-2.9,3.2c0,0,0,0,0,0
				c-1.3,0.1-2.7-0.5-3.7-1.6c0.5-0.4,0.7-0.9,0.7-1.3c0-0.4-0.1-0.6-0.1-0.6S19.9,70.1,19.5,69z"/>
			<path class="st15" d="M19.3,72.2c1.8-0.6,1.3-2.3,1.3-2.3s-0.8,0.3-1.1-0.8c-0.3-1,0.7-1.2,0.7-1.2s0.8-0.1,0.8,0.7l0,0.7
				l0.4,0.1c1-1.1,0.3-2.4,0.3-2.4c3.8,0.7,5.4-2,5.4-2c0.6-0.8-0.3-1.6-0.7-1.7c0,0-0.7-0.3-1.3,0.1c0,0,0.3,0.5,0.2,0.5
				c-0.1,0-9.4-2.2-7.6,3.3C19.8,72.8,19.3,72.2,19.3,72.2z"/>
			<path class="st13" d="M26.3,63.9c0,0-6.8-1.7-8,0.7c-0.5,1-0.9,2.3,0,4c0.4,0.9,0.9,1.5,1.1,3.5c1.8-0.6,1.3-2.3,1.3-2.3
				s-0.8,0.3-1.1-0.8c-0.3-1,0.7-1.2,0.7-1.2s0.8-0.1,0.8,0.7l0,0.7l0.4,0.1c1-1.1,0.3-2.4,0.3-2.4c3.8,0.7,5.4-2,5.4-2
				c0.6-0.8-0.3-1.6-0.7-1.7"/>
			<g>
				<ellipse class="st18" cx="26.2" cy="68.4" rx="0.2" ry="0.2"/>
				<ellipse class="st18" cx="23.3" cy="68.5" rx="0.2" ry="0.2"/>
				<path class="st13" d="M25.2,68.6c0,0-0.5,0.9,0.3,1c0.8,0,0.7,0,0.7,0.2c0,0.2,0.1,0.5-0.6,0.6c-0.5,0.1-0.6,0-0.6,0"/>
				<path class="st13" d="M25.6,71.2c0,0-1.1,0.5-1.9-0.2"/>
			</g>
			<path class="st17" d="M20.1,73.9l0-0.4L20,71.7c1,1,2.4,1.6,3.7,1.6c0,0.2,0,0.4,0,0.7c0,0.3,0,0.5,0.1,0.7
				c0.1,0.7-0.1,1.1-0.1,1.1C21.5,74.9,20.1,73.9,20.1,73.9z"/>
		</g>
		<g>
			<polygon class="st16" points="19,74.3 19.5,73.2 23.1,75.1 22.2,76.9 			"/>
			<polygon class="st16" points="22.8,75.7 23.6,75.9 23.1,75.1 			"/>
		</g>
		<path class="st19" d="M23.5,76.4c0,0,0.3,6.6,0.2,9.6c0,0,0.6,1.1,1.2,1.4c0,0,0.7-1.1,1-1.8c0.3-0.8-2.1-9.5-2.1-9.5L23.5,76.4z"
			/>
		<path class="st19" d="M22.8,76.1c0.1,0.2,0.6,0.6,0.8,0.6s0.7-0.7,0.6-1C24.1,75.3,22.6,75.7,22.8,76.1z"/>
		<g>
			<path class="st20" d="M30.9,76.8c0,0-1.5,2.2-1.9,2.4"/>
			<path class="st13" d="M30.9,76.8c0,0-1.5,2.2-1.9,2.4"/>
			<path class="st20" d="M27.3,78.6c-0.1-0.1,1.2,0.3,1.7,0.7c0.5,0.4,1,1.3,0.8,1.4C29.7,80.8,27.7,79,27.3,78.6z"/>
			<path class="st13" d="M27.2,78.5c-0.1-0.1,1.2,0.3,1.7,0.7c0.5,0.4,1,1.3,0.8,1.4C29.6,80.7,27.6,78.9,27.2,78.5z"/>
			<g>
				<path class="st20" d="M31.1,73.8c0,0,2.4,1.7,3,2.5s-3.2,1.1-3.4,0.9C30.5,76.9,30.7,74.4,31.1,73.8z"/>
			</g>
			<g>
				<path class="st13" d="M31,73.7c0,0,2.4,1.7,3,2.5c0.5,0.8-3.2,1.1-3.4,0.9C30.5,76.9,30.6,74.3,31,73.7z"/>
			</g>
		</g>
		<path class="st17" d="M33.2,82.4l-1.5-1.3l0.6-1.4c0,0-0.8-1-0.3-1.7c0.5-0.7,3,0.2,3.1,1.5C35.2,80.8,34.5,81.7,33.2,82.4z"/>
		<path class="st13" d="M32.3,79.7c0,0,0.8,0.9,1.2,1"/>
		<g>
			<path class="st12" d="M18.5,76.9c-1.5-0.3-2.6,1.2-3.2,2.9c-0.6,1.7-3,11.9,2.8,10.8c1.9-0.4,8.4-8.4,8.7-8.9l-2-1.8
				c0,0-5.5,4.5-6.1,5.1C19.1,83.6,20.9,77.5,18.5,76.9z"/>
			<path class="st13" d="M18.5,76.9c-1.5-0.3-2.6,1.2-3.2,2.9c-0.6,1.7-3,11.9,2.8,10.8c1.9-0.4,8.4-8.4,8.7-8.9l-2-1.8
				c0,0-5.5,4.5-6.1,5.1C19.1,83.6,20.9,77.5,18.5,76.9z"/>
			<path class="st13" d="M18.6,85c0,0-1.3,1.2-1.5,1.6"/>
		</g>
		<g>
			<path class="st17" d="M31.4,76.5c-0.8,0.2-4.1,12.3-4.8,13.5c-0.7,1.2-0.2,0.9,1.2-0.5c1.4-1.4,2.1,0.8,3.4,1.1
				c1.3,0.2,1.9-2.8,3.7-2.3c1.7,0.5,2.3-0.5,3,0.3s1.4,1.1,1.5,0.8s-5.2-9.2-5.3-10.1C34,78.3,32.9,76.1,31.4,76.5z"/>
			<path class="st17" d="M34.1,87.7c0,0-1.6-6.2-1.7-7.1"/>
			<path class="st17" d="M34.1,82.7c0,0,2.7,4.7,2.9,5"/>
			<path class="st17" d="M29.5,88.5c0,0,1.4-6.3,1.3-6.9"/>
		</g>
		<path class="st17" d="M25,80.2l1.5,1.3c0,0,2-0.5,2-1.3s0.2-0.7,0.9-0.4s0.2,0.3,0.6,0.3c0.4-0.1,0.7-0.7,0.1-1.6
			s-2.5-2.6-3.5-0.8S25,80.2,25,80.2z"/>
	</g>
	<g>
		<path class="st0" d="M9.8,98.9c0,0,108.5-0.3,116.5-0.7c0,0-0.1,28.6,0,29.8c0,0-69.2,0.9-87.5,0.8c-18.4-0.1-29,0.3-29,0.3
			S11.1,104.6,9.8,98.9z"/>
		<path class="st13" d="M8.9,98.6c0,0,108.5-0.3,116.5-0.7c0,0-0.1,28.6,0,29.8c0,0-69.2,0.9-87.5,0.8s-29,0.3-29,0.3
			S10.3,104.4,8.9,98.6z"/>
		<g>
			<path class="st13" d="M12.1,99c0,0,0.2,24.7,0,28.8"/>
			<path class="st13" d="M15.1,99.2c0,0,1.6,10.8-0.3,28.4"/>
			<path class="st13" d="M17,99.2c0,0-0.7,25.3,0.2,28.6"/>
			<path class="st13" d="M22.8,98.8c0,0,1.2,25.1,1.4,28.4"/>
			<path class="st13" d="M20.1,99.4c0,0,1.2,25.1,1.4,28.4"/>
			<path class="st13" d="M25.4,99c0,0,0.2,24.7,0,28.8"/>
			<path class="st13" d="M28.4,99.2c0,0,1.6,10.8-0.3,28.4"/>
			<path class="st13" d="M30.3,99.2c0,0-0.7,25.3,0.2,28.6"/>
			<path class="st13" d="M36.1,98.8c0,0,1.2,25.1,1.4,28.4"/>
			<path class="st13" d="M33.4,99.4c0,0,1.2,25.1,1.4,28.4"/>
			<path class="st13" d="M38.7,99c0,0,0.2,24.7,0,28.8"/>
			<path class="st13" d="M41.7,99.2c0,0,1.6,10.8-0.3,28.4"/>
			<path class="st13" d="M43.6,99.2c0,0-0.7,25.3,0.2,28.6"/>
			<path class="st13" d="M49.4,98.8c0,0,1.2,25.1,1.4,28.4"/>
			<path class="st13" d="M46.7,99.4c0,0,1.2,25.1,1.4,28.4"/>
			<path class="st13" d="M52,99c0,0,0.2,24.7,0,28.8"/>
			<path class="st13" d="M55,99.2c0,0,1.6,10.8-0.3,28.4"/>
			<path class="st13" d="M56.9,99.2c0,0-0.7,25.3,0.2,28.6"/>
			<path class="st13" d="M62.7,98.8c0,0,1.2,25.1,1.4,28.4"/>
			<path class="st13" d="M60,99.4c0,0,1.2,25.1,1.4,28.4"/>
			<path class="st13" d="M65.3,99c0,0,0.2,24.7,0,28.8"/>
			<path class="st13" d="M68.3,99.2c0,0,1.6,10.8-0.3,28.4"/>
			<path class="st13" d="M70.2,99.2c0,0-0.7,25.3,0.2,28.6"/>
			<path class="st13" d="M76,98.8c0,0,1.2,25.1,1.4,28.4"/>
			<path class="st13" d="M73.3,99.4c0,0,1.2,25.1,1.4,28.4"/>
			<path class="st13" d="M78.6,99c0,0,0.2,24.7,0,28.8"/>
			<path class="st13" d="M81.6,99.2c0,0,1.6,10.8-0.3,28.4"/>
			<path class="st13" d="M83.5,99.2c0,0-0.7,25.3,0.2,28.6"/>
			<path class="st13" d="M89.3,98.8c0,0,1.2,25.1,1.4,28.4"/>
			<path class="st13" d="M86.6,99.4c0,0,1.2,25.1,1.4,28.4"/>
			<path class="st13" d="M92,99c0,0,0.2,24.7,0,28.8"/>
			<path class="st13" d="M94.9,99.2c0,0,1.6,10.8-0.3,28.4"/>
			<path class="st13" d="M96.8,99.2c0,0-0.7,25.3,0.2,28.6"/>
			<path class="st13" d="M102.6,98.8c0,0,1.2,25.1,1.4,28.4"/>
			<path class="st13" d="M99.9,99.4c0,0,1.2,25.1,1.4,28.4"/>
			<path class="st13" d="M105.3,99c0,0,0.2,24.7,0,28.8"/>
			<path class="st13" d="M108.3,99.2c0,0,1.6,10.8-0.3,28.4"/>
			<path class="st13" d="M110.2,99.2c0,0-0.7,25.3,0.2,28.6"/>
			<path class="st13" d="M120.4,98.7c0,0,1.6,10.8-0.3,28.4"/>
			<path class="st13" d="M122.3,98.7c0,0-0.7,25.3,0.2,28.6"/>
			<path class="st13" d="M115.9,98.8c0,0,1.2,25.1,1.4,28.4"/>
			<path class="st13" d="M113.2,99.4c0,0,1.2,25.1,1.4,28.4"/>
		</g>
	</g>
	<path class="st21" d="M80.1,129.9c0,1.1,1.5,3.9,15.5,2.4s12.3-1,12.1-2.4c-0.2-1.3-9.1-0.4-12.6-0.7
		C91.6,128.8,80.1,128.8,80.1,129.9z"/>
	<path class="st21" d="M68.8,130.1c0,1.1-1.3,3.9-14,2.8s-11.2-0.7-11.1-2.1c0.1-1.3,8.3-0.6,11.4-1.1
		C58.3,129.4,68.8,129.1,68.8,130.1z"/>
	<g>
		<g>
			<path class="st22" d="M89.8,91c0,0-4,7.9-5.8,9.1s-2.1,1.6-2.1,1.6l1.5,2.8l4.2-0.3C87.5,104.2,89.9,93.3,89.8,91z"/>
			<path class="st13" d="M89.7,91.1c0,0-4,7.9-5.8,9.1s-2.1,1.6-2.1,1.6l1.5,2.8l4.2-0.3C87.4,104.3,89.8,93.4,89.7,91.1z"/>
		</g>
		<g>
			<g>
				<path class="st23" d="M94.6,127.7c-0.3-1.6,0.3-16.6,0.3-16.6h-1.7c0,0,0.6,15.4,0.4,16.3C93.5,128.3,94.6,127.7,94.6,127.7z"/>
				<path class="st13" d="M94.7,127.5c-0.3-1.6,0.3-16.6,0.3-16.6h-1.7c0,0,0.6,15.4,0.4,16.3S94.7,127.5,94.7,127.5z"/>
				<path class="st23" d="M103.4,130.2c1-0.1-6.1-3-9.9-3c-3.8,0.1-8.7,2-8.6,3S100.1,130.6,103.4,130.2z"/>
				<path class="st13" d="M104.2,130.2c1-0.1-6.1-3-9.9-3c-3.8,0.1-8.7,2-8.6,3C85.8,131.2,100.8,130.6,104.2,130.2z"/>
				<path class="st23" d="M84.9,110.8c0,0,9.4,3.6,16.2,1.4c6.8-2.2,1.8-10.2,2.3-12.2s1-4.6-4.2-4.5c-5.2,0.1-10.8,2.2-9.1,7.6
					s0.2,7-2.7,6.7C84.4,109.5,82.2,109.9,84.9,110.8z"/>
				<path class="st13" d="M85.4,110.4c0,0,9.4,3.6,16.2,1.4c6.8-2.2,1.8-10.2,2.3-12.2c0.5-2,1-4.6-4.2-4.5
					c-5.2,0.1-10.8,2.2-9.1,7.6c1.7,5.3,0.2,7-2.7,6.7C84.9,109.1,82.7,109.6,85.4,110.4z"/>
			</g>
			<g>
				<g>
					<path class="st14" d="M84.6,125c0,0-0.7,3.5-1.8,4.7c-1.1,1.2-1.3,2.4,0.9,0.5c2.2-1.9,5.2-4.1,5.2-4.1l-1.5-2.3L84.6,125z"/>
					<path class="st13" d="M84.3,124.8c0,0-0.7,3.5-1.8,4.7c-1.1,1.2-1.3,2.4,0.9,0.5s5.2-4.1,5.2-4.1l-1.5-2.3L84.3,124.8z"/>
				</g>
				<path class="st24" d="M93.5,103.8c0,0,1.6,7-12.1,6.7c0,0,6.3,11.6,5.4,13.3l-2.5,1c0,0-4.7-6.3-7.8-14.1
					c-1.4-3.4-0.6-6.2,6-6.3L93.5,103.8z"/>
				<path class="st13" d="M93.5,103.8c0,0,1.6,7-12.1,6.7c0,0,6.3,11.6,5.4,13.3l-2.5,1c0,0-4.7-6.3-7.8-14.1
					c-1.4-3.4-0.6-6.2,6-6.3L93.5,103.8z"/>
				<g>
					<path class="st23" d="M90.2,86.1c0,0-1.3,0.1-1.5,8.1c-0.1,4-2,4.9-2.1,9.1c-0.1,3.1,10.5,5.6,12.6,1.1
						c3.5-8.5-1.1-17.6-3.8-19.3C94,84.4,91.7,85.6,90.2,86.1z"/>
					<path class="st13" d="M90.2,86.1c0,0-1.3,0.1-1.5,8.1c-0.1,4-2.1,5-2.4,9.2c-0.3,3,10.8,5.5,12.9,1.1
						c3.5-8.5-1.1-17.6-3.8-19.3C94,84.4,91.7,85.6,90.2,86.1z"/>
				</g>
				<path class="st24" d="M98.6,105.2c0,0,2.9,6.4-10.8,6.1c0,0,3.6,12.5,2.7,14.3l-2.9,0.3c0,0-3.1-6-6.3-13.8
					c-1.4-3.4-0.6-6.2,6-6.3L98.6,105.2z"/>
				<path class="st13" d="M98.6,105.2c0,0,2.9,6.4-10.8,6.1c0,0,3.6,12.5,2.7,14.3l-2.9,0.3c0,0-3.1-6-6.3-13.8
					c-1.4-3.4-0.6-6.2,6-6.3L98.6,105.2z"/>
				<g>
					<path class="st14" d="M87.9,126c0,0-0.7,3.5-1.8,4.7c-1.1,1.2-1.3,2.4,0.9,0.5c2.2-1.9,5.2-4.1,5.2-4.1l-1.5-2.3L87.9,126z"/>
					<path class="st13" d="M87.7,125.9c0,0-0.7,3.5-1.8,4.7c-1.1,1.2-1.3,2.4,0.9,0.5c2.2-1.9,5.2-4.1,5.2-4.1l-1.5-2.3L87.7,125.9z
						"/>
				</g>
				<path class="st25" d="M95.6,79.9c0.3-1.2-0.8-1.3-0.8-1.3s-0.8-0.1-0.8,0.8v0.8l-0.5,0.1c-1.2-1.2-0.5-2.7-0.5-2.7
					c-0.7,0.2-1.3,0.2-1.8,0.2c-1.4-0.1-2.4-0.6-3.1-1.1c-0.3,0.7-0.4,3.5-0.1,4.8c0.4,1.9,1,3.4,3.3,3.4c0,0,0,0,0,0
					c1.4,0,2.9-0.7,3.9-1.9c-0.6-0.4-0.8-1-0.8-1.4c0-0.4,0-0.7,0-0.7S95.3,81.1,95.6,79.9z"/>
				<path class="st25" d="M95.2,85.4V83c-1,1.2-2.5,1.9-3.9,1.9c0,0.2,0,0.5,0,0.8c0,0.3,0,0.6,0,0.8c-0.8,0.7,0.3,1.5,1.3,1.4
					c2.1,0,2.5-1.5,2.6-2.2C95.2,85.6,95.2,85.4,95.2,85.4z"/>
				<path class="st14" d="M95.9,83.5c-2-0.6-1.5-2.5-1.5-2.5s0.8,0.3,1.1-0.9c0.3-1.2-0.8-1.3-0.8-1.3s-0.8-0.1-0.8,0.8v0.8
					l-0.5,0.1c-1.2-1.2-0.5-2.7-0.5-2.7c-4.1,0.9-5.9-2-5.9-2c-0.7-0.9,0.2-1.8,0.6-1.9c0,0,0.8-0.4,1.4,0c0,0-0.3,0.5-0.2,0.6
					s10-3,8.3,3.3C95.5,84.2,95.9,83.5,95.9,83.5z"/>
				<path class="st13" d="M88.1,74.5c0,0,7.2-2.3,8.7,0.4c0.6,1.1,1.1,2.5,0.2,4.5c-0.4,1-0.9,1.7-1,4c-2-0.6-1.5-2.5-1.5-2.5
					s0.8,0.3,1.1-0.9c0.3-1.2-0.8-1.3-0.8-1.3s-0.8-0.1-0.8,0.8v0.8l-0.5,0.1c-1.2-1.2-0.5-2.7-0.5-2.7c-4.1,0.9-5.9-2-5.9-2
					c-0.7-0.9,0.2-1.8,0.6-1.9"/>
				<g>
					<path class="st18" d="M88.3,79.3c0.1,0,0.2,0.1,0.2,0.2c0,0.1-0.1,0.2-0.2,0.2c-0.1,0-0.2-0.1-0.2-0.2
						C88.1,79.4,88.2,79.3,88.3,79.3z"/>
					<circle class="st18" cx="91.5" cy="79.5" r="0.2"/>
					<path class="st13" d="M89.5,79.7c0,0,0.6,1-0.3,1.1c-0.8,0.1-0.8,0-0.8,0.3c0,0.2,0,0.5,0.7,0.6c0.5,0.1,0.6,0,0.6,0"/>
					<path class="st13" d="M89,82.9c0,0,0.3,0.1,0.8,0"/>
				</g>
				<g>
					<path class="st26" d="M84.4,82.8c0,0,2.4,1.1,3,1.7s-1.6,1.9-2.6,1.2C83.7,85.2,83.5,83.4,84.4,82.8z"/>
					<path class="st20" d="M84.7,85.4c0,0-1.4,2-1.4,2.5"/>
					<path class="st13" d="M84.7,85.4c0,0-1.4,2-1.4,2.5"/>
					<path class="st20" d="M84.5,89.1c0.2,0.1-0.6-0.9-1.2-1.2c-0.6-0.3-1.4-0.4-1.5-0.2S83.9,88.9,84.5,89.1z"/>
					<path class="st13" d="M84.6,89.1c0.2,0.1-0.6-0.9-1.2-1.2c-0.6-0.3-1.4-0.4-1.5-0.2C81.8,87.8,84.1,88.9,84.6,89.1z"/>
					<path class="st20" d="M84.6,82.2c0,0-1.7,2.2-0.1,3.3c1.6,1,2.6,0.1,3-0.5s1-1.9,1-1.9l-3.2-1.8C85.3,81.4,85,81.7,84.6,82.2z"
						/>
					<path class="st13" d="M84.6,82.2c0,0-1.7,2.2-0.1,3.3s2.6,0.1,3-0.5c0.5-0.6,1-1.9,1-1.9l-3.2-1.8
						C85.3,81.3,84.9,81.7,84.6,82.2z"/>
				</g>
				<path class="st25" d="M86.7,89.3c-0.2-0.4-0.5-0.9-1-1.3c-0.3-0.3-0.8-0.5-1.3-0.6c-0.7-0.1-1.3,0.6-1.6,1.3
					c0,0.1-0.1,0.1-0.1,0.2c0,0.1,0,0.1-0.1,0.2c0,0.2-0.1,0.3-0.1,0.5c0,0.2,0.1,0.3,0.3,0.3c0,0,0.1,0,0.2,0
					c0.2,0.1,0.5,0.2,0.8,0.3c0.2,0.1,0.5,0.3,0.7,0.5c0.2,0.1,0.4,0.3,0.5,0.4c0.3,0.2,0.6,0.5,0.6,0.5l1.2-1.4
					C86.7,90.3,86.8,89.7,86.7,89.3z"/>
				<g>
					<path class="st22" d="M93.9,90.4c1-1.8,2.4-1.9,3.4-1.7c0,0,0,0,0,0c0.1,0.2,0.5,0.8,0.8,1.7c0.5,1.7,0.9,4.4-0.9,7.4
						c-0.7,1.2-1.7,1.8-2.9,2c-0.5,0.1-1.9,0-2.4-0.2c-5.2-1.9-6-6.6-6-6.6l-0.3-0.8l1.7-1.9c2-0.5,5.6,4.7,5.6,4.7
						C92.5,93.2,92.8,92.3,93.9,90.4z"/>
					<g>
						<path class="st13" d="M93.6,90.1c1-1.8,2.4-1.9,3.4-1.7c0,0,0,0,0,0c0.1,0.2,0.5,0.8,0.8,1.7c0.5,1.7,0.9,4.4-0.9,7.4
							c-0.7,1.2-1.7,1.8-2.9,2c-0.5,0.1-1.9,0-2.4-0.2c-5.2-1.9-6-6.6-6-6.6l-0.3-0.8l1.7-1.9c2-0.5,5.6,4.7,5.6,4.7
							C92.3,92.9,92.5,92.1,93.6,90.1z"/>
						<path class="st13" d="M92.7,95c0,0,1.4,0.5,1.3,1.5"/>
						<path class="st13" d="M92.5,95.1c0,0,0.3,0.9,0.2,1.9"/>
					</g>
				</g>
			</g>
		</g>
		<path class="st25" d="M82,102.4c0,0-2,0.5-3.6,1.8c-1.2,0.9-1.7,2.3-1.3,2.6c0.4,0.3,1.1-2.4,3.6-2.2c1.7-0.1,2.4-0.2,2.4-0.2
			L82,102.4z"/>
	</g>
	<g>
		<path class="st25" d="M59.2,95.1c0,0,2.6,8.9,4.9,9.6c0,0,0.7-0.4,2.2,0.2c1.4,0.6,2.2,1.3,2.5,1.8c0.3,0.5-0.4,0.5-0.9,0.3
			c-0.5-0.2-1.1-1.3-3.3-1.3c-2.2,0-2.3,0.7-2.4-0.3S57.9,96.6,59.2,95.1z"/>
		<g>
			<g>
				<path class="st23" d="M56,128.6c0.3-1.6-0.3-16.6-0.3-16.6h1.7c0,0-0.6,15.4-0.4,16.3C57.1,129.2,56,128.6,56,128.6z"/>
				<path class="st13" d="M55.9,128.4c0.3-1.6-0.3-16.6-0.3-16.6h1.7c0,0-0.6,15.4-0.4,16.3C57,129,55.9,128.4,55.9,128.4z"/>
				<path class="st23" d="M47.2,131.1c-1-0.1,6.1-3,9.9-3c3.8,0.1,8.7,2,8.6,3C65.5,132.1,50.5,131.5,47.2,131.1z"/>
				<path class="st13" d="M46.4,131.1c-1-0.1,6.1-3,9.9-3c3.8,0.1,8.7,2,8.6,3C64.8,132.1,49.8,131.5,46.4,131.1z"/>
				<path class="st23" d="M65.7,111.7c0,0-9.4,3.6-16.2,1.4s-1.8-10.2-2.3-12.2s-1-4.6,4.2-4.5s10.8,2.2,9.1,7.6s-0.2,7,2.7,6.7
					S68.4,110.9,65.7,111.7z"/>
				<path class="st13" d="M65.2,111.4c0,0-9.4,3.6-16.2,1.4s-1.8-10.2-2.3-12.2c-0.5-2-1-4.6,4.2-4.5s10.8,2.2,9.1,7.6
					c-1.7,5.3-0.2,7,2.7,6.7S67.9,110.5,65.2,111.4z"/>
			</g>
			<g>
				<g>
					<path class="st14" d="M64.1,126.4c0,0-0.1,2.9,0.8,3.9c0.8,1,0.8,2-1,0.4c-1.8-1.6-4.2-3.5-4.2-3.5l1.9-1.8L64.1,126.4z"/>
					<path class="st13" d="M64.3,126.3c0,0-0.1,2.9,0.8,3.9c0.8,1,0.8,2-1,0.4c-1.8-1.6-4.2-3.5-4.2-3.5l1.9-1.8L64.3,126.3z"/>
				</g>
				<path class="st24" d="M55.2,105.1c0,0-1.6,7,12.1,6.7c0,0-6.3,11.6-5.4,13.3l2.5,1c0,0,4.7-6.3,7.8-14.1c1.4-3.4,0.6-6.2-6-6.3
					L55.2,105.1z"/>
				<path class="st13" d="M55.2,105.1c0,0-1.6,7,12.1,6.7c0,0-6.3,11.6-5.4,13.3l2.5,1c0,0,4.7-6.3,7.8-14.1c1.4-3.4,0.6-6.2-6-6.3
					L55.2,105.1z"/>
				<path class="st27" d="M61.6,80.7c0,0,0.7-0.8,0.6-1.9c0,0-0.5-4-6.1-3.8c-3.6,0.1-4.3,4.6-4.5,6.2c-0.5,3.8-4.5,3.7-6,5.3
					c-1.4,1.6-0.9,4.1,1,4.7c3.8,1.3,6.6,1.6,8.9-1.2c0.9-1.1,2.9,0.6,4.9-0.8s0.3-5.4,0.2-6.1C60.4,82.5,61.6,80.7,61.6,80.7"/>
				<g>
					<path class="st22" d="M58.6,87.3c0,0,1.3,0.1,1.5,8.1c0.1,4-0.1,5.4,2.1,9c1.6,2.6-10.5,5.6-12.6,1.2
						c-3.5-8.5,1.1-17.6,3.8-19.3C54.7,85.7,57,86.8,58.6,87.3z"/>
					<path class="st13" d="M58.6,87.3c0,0,1.3,0.1,1.5,8.1c0.1,4-0.1,5.4,2.1,9c1.6,2.6-10.5,5.6-12.6,1.2
						c-3.5-8.5,1.1-17.6,3.8-19.3C54.7,85.7,57,86.8,58.6,87.3z"/>
				</g>
				<path class="st24" d="M50.4,106.3c0,0-1.6,7,12.1,6.7c0,0-5.2,12.1-4.3,13.8l2.9,0.3c0,0,3.1-6,6.3-13.8c1.4-3.4,0.6-6.2-6-6.3
					L50.4,106.3z"/>
				<path class="st13" d="M50.4,106.3c0,0-1.6,7,12.1,6.7c0,0-5.2,12.1-4.3,13.8l2.9,0.3c0,0,3.1-6,6.3-13.8c1.4-3.4,0.6-6.2-6-6.3
					L50.4,106.3z"/>
				<path class="st25" d="M54.7,86.6C54.7,86.6,54.7,86.6,54.7,86.6l0.2-3c0,0,0,0,0,0c0.3,0.6,1.2,1.9,3,2.5c0.1,0,0.3,0,0.4,0
					c0,0.5-0.1,1.1-0.1,1.5c0,0.1,0,0.1,0,0.2c0.7,0.6-0.3,1.2-1.2,1.1C54.4,88.8,54.7,86.6,54.7,86.6z"/>
				<path class="st25" d="M61.4,79.4c0-0.1,0-0.3-0.1-0.5c0,0,0,0,0,0c0-0.1,0-0.1-0.1-0.2c0,0,0,0,0,0c0-0.1-0.1-0.1-0.1-0.2
					c0,0,0,0,0,0c0-0.1-0.1-0.1-0.1-0.2c0,0,0,0,0,0c0-0.1-0.1-0.1-0.1-0.2c0,0,0,0,0,0c-0.1-0.1-0.2-0.3-0.4-0.4c0,0-0.3,1-1,1.6
					c-0.6,0.5-1.5,0.7-2.8,0c-0.1,1-0.3,1.4-0.5,1.5c-0.2,0.2-0.4,0.1-0.4,0.1c0.1-0.9-0.7-0.8-0.7-0.8s0,0,0,0c0,0-0.1,0-0.1,0
					c-0.1,0-0.1,0-0.2,0.1c0,0,0,0,0,0c-0.1,0-0.1,0.1-0.2,0.1c0,0,0,0,0,0c-0.1,0-0.1,0.1-0.1,0.2c0,0,0,0,0,0
					c0,0.1-0.1,0.1-0.1,0.2c0,0.1,0,0.3,0,0.5c0,0,0,0,0,0c0,0.1,0,0.2,0.1,0.2c0,0,0,0,0,0.1c0,0.1,0,0.1,0.1,0.2c0,0,0,0,0,0
					c0,0,0.1,0.1,0.1,0.1c0,0,0,0,0,0c0,0,0.1,0.1,0.1,0.1c0,0,0,0,0,0c0,0,0,0,0.1,0c0,0,0,0,0,0c0,0,0,0,0.1,0c0,0,0,0,0,0
					c0,0,0,0,0,0c0,0,0,0,0,0c0,0,0,0,0,0c0,0,0.1,0,0.1,0c0,0,0,0,0,0c0,0,0,0,0,0c0,0,0,0,0,0c0,0,0,0,0,0c0,0,0,0,0,0
					c0,0,0,0,0,0s0.1,0.8-0.3,1.4c0,0,0,0,0,0c0.3,0.6,1.2,1.9,3,2.5c0.1,0,0.3,0,0.4,0c1.1-0.2,2.4-1.4,2.9-3
					C61.3,82.3,61.4,80.4,61.4,79.4z"/>
				<path class="st13" d="M54.3,84.1c1.1-0.7,0.8-1.9,0.8-1.9s-0.8,0.2-1-0.9c-0.2-1.1,0.8-1.2,0.8-1.2s0.8,0,0.7,0.8
					c0,0,0.9,0.3,1-1.6c3,1.5,3.8-1.7,3.8-1.7c1.1,0.8,0.9,2.7,0.9,2.7s0.7-0.8,0.6-1.9c0,0-0.5-4-6.1-3.8c-3.6,0.1-4.3,4.6-4.5,6.2
					c-0.5,3.8-4.5,3.7-6,5.3c-1.4,1.6-0.9,4.1,1,4.7c0,0,0.5,0.1,1.4,0.1"/>
				<g>
					<circle class="st18" cx="60.5" cy="80.9" r="0.2"/>
					<circle class="st18" cx="57.6" cy="80.8" r="0.2"/>
					<path class="st13" d="M59.5,81c0,0-0.6,0.9,0.2,1c0,0,0.1,0.7-1,0.5"/>
					<path class="st13" d="M59.6,83.8c0,0-1.2,0.4-1.9-0.4"/>
				</g>
				<g>
					<path class="st20" d="M62.4,92.9c0,0,0.4,2.6,0.2,3.1"/>
					<path class="st13" d="M62.4,92.9c0,0,0.4,2.6,0.2,3.1"/>
					<path class="st20" d="M60.9,96.6c-0.2,0,1.1-0.6,1.8-0.6c0.7,0,1.6,0.3,1.6,0.5C64.2,96.7,61.5,96.7,60.9,96.6z"/>
					<path class="st13" d="M60.8,96.6c-0.2,0,1.1-0.6,1.8-0.6s1.6,0.3,1.6,0.5C64.1,96.7,61.4,96.7,60.8,96.6z"/>
					<path class="st28" d="M60.8,91.1c0,0.1,0,0.2,0.1,0.3c0.5,0.9,1.3,1.8,1.5,1.8c0.1,0,1.3-0.9,1.8-1.8c0-0.1,0.2-0.3,0.2-0.4
						C63.4,90.8,61.6,91,60.8,91.1z"/>
					<g>
						<path class="st20" d="M60.6,90.5c0,0,3-0.4,3.9-0.1c0.9,0.2-1.6,3-1.9,2.9S60.6,91.2,60.6,90.5z"/>
					</g>
					<g>
						<path class="st13" d="M60.5,90.5c0,0,3-0.4,3.9-0.1c0.9,0.2-1.6,3-1.9,2.9S60.6,91.2,60.5,90.5z"/>
					</g>
				</g>
				<path class="st17" d="M63.7,92.5c-0.5-1-2.6-0.2-3.2,0.2c-0.6,0.4-0.3,1.1-1.3,1.5c-1,0.4-6.1,4.5-6.1,4.5l-0.4-3.3L49.7,95
					c0,0,1.2,7.2,2.3,7.4c1.1,0.2,8.2-6.9,8.2-6.9c1,0.8,2.2-0.7,2.8-0.7C63.7,94.7,64.2,93.5,63.7,92.5z"/>
				<path class="st13" d="M50.4,106.3c0,0-1.6,7,12.1,6.7c0,0-5.2,12.1-4.3,13.8l2.9,0.3c0,0,3.1-6,6.3-13.8c1.4-3.4,0.6-6.2-6-6.3
					L50.4,106.3z"/>
				<g>
					<path class="st23" d="M53.6,89.2c0.9,0.8,0.9,5,1.1,6.4c0,0-6.2,0-6.7-0.8c-0.5-0.8,1.2-4.2,2.2-5.3
						C51.2,88.6,52.9,88.6,53.6,89.2z"/>
					<path class="st13" d="M53.6,89c0.9,0.8,0.9,5,1.1,6.4c0,0-6.2,0-6.7-0.8s1.2-4.2,2.2-5.3C51.2,88.4,52.9,88.4,53.6,89z"/>
				</g>
				<g>
					<path class="st14" d="M60.6,127.2c0,0-0.1,2.9,0.8,3.9c0.8,1,0.8,2-1,0.4s-4.2-3.5-4.2-3.5l1.9-1.8L60.6,127.2z"/>
					<path class="st13" d="M60.9,127.1c0,0-0.1,2.9,0.8,3.9c0.8,1,0.8,2-1,0.4c-1.8-1.6-4.2-3.5-4.2-3.5l1.9-1.8L60.9,127.1z"/>
				</g>
			</g>
		</g>
	</g>
</g>
</svg>
