<svg width="24" height="24" viewBox="0 0 24 24" fill="none" xmlns="http://www.w3.org/2000/svg">
<path d="M8.75 18.9987H4.25C4.1125 18.9987 4 19.1112 4 19.2487V19.7487C4 19.8862 4.1125 19.9987 4.25 19.9987H8.75C8.8875 19.9987 9 19.8862 9 19.7487V19.2487C9 19.1112 8.8875 18.9987 8.75 18.9987ZM21.75 18.9987H11.25C11.1125 18.9987 11 19.1112 11 19.2487V19.7487C11 19.8862 11.1125 19.9987 11.25 19.9987H21.75C21.8875 19.9987 22 19.8862 22 19.7487V19.2487C22 19.1112 21.8875 18.9987 21.75 18.9987ZM20 17.2487V16.7487C20 16.6112 19.8875 16.4987 19.75 16.4987H2.25C2.1125 16.4987 2 16.6112 2 16.7487V17.2487C2 17.3862 2.1125 17.4987 2.25 17.4987H19.75C19.8875 17.4987 20 17.3862 20 17.2487ZM21.75 13.9956H17.25C17.1125 13.9956 17 14.1081 17 14.2456V14.7456C17 14.8831 17.1125 14.9956 17.25 14.9956H21.75C21.8875 14.9956 22 14.8831 22 14.7456V14.2456C22 14.1081 21.8875 13.9956 21.75 13.9956ZM4.25 14.9987H14.75C14.8875 14.9987 15 14.8862 15 14.7487V14.2487C15 14.1112 14.8875 13.9987 14.75 13.9987H4.25C4.1125 13.9987 4 14.1112 4 14.2487V14.7487C4 14.8862 4.1125 14.9987 4.25 14.9987ZM8.50938 11.7331C8.5 11.8737 8.61875 11.9956 8.7625 11.9956H9.2625C9.39687 11.9956 9.5 11.8893 9.5125 11.7581C9.63125 10.4893 10.7031 9.49558 12 9.49558C13.2969 9.49558 14.3688 10.4893 14.4875 11.7581C14.5 11.8893 14.6031 11.9956 14.7375 11.9956H15.2375C15.3813 11.9956 15.5 11.8768 15.4906 11.7331C15.3563 9.9237 13.8406 8.49558 12 8.49558C10.1594 8.49558 8.64375 9.92683 8.50938 11.7331V11.7331ZM5 11.9956C5.0875 11.9956 5.17812 11.9737 5.25625 11.9237L7.625 10.505C7.80625 10.3956 7.9 10.1862 7.85938 9.97995L7.33437 7.32683L9.98438 7.85183C10.1875 7.89245 10.3844 7.80808 10.4969 7.63933L12 5.39558L13.5031 7.64245C13.6156 7.8112 13.8125 7.89558 14.0156 7.85495L16.6656 7.32995L16.1406 9.98308C16.1 10.1893 16.1937 10.4018 16.375 10.5081L18.7437 11.9268C18.825 11.9737 18.9125 11.9987 19 11.9987C19.1688 11.9987 19.3344 11.9112 19.4281 11.755C19.5719 11.5175 19.4938 11.2112 19.2563 11.0706L17.1906 9.83308L17.7937 6.79245C17.825 6.62995 17.775 6.4612 17.6562 6.34245C17.5375 6.2237 17.3719 6.17058 17.2063 6.20495L14.15 6.8112L12.4187 4.22058L12.4156 4.21745C12.3969 4.18933 12.3719 4.1737 12.35 4.15183C12.325 4.12683 12.3094 4.0987 12.2781 4.07995C12.2219 4.04245 12.1594 4.01745 12.0969 4.00495C12.0781 4.00183 12.0594 4.00495 12.0406 4.00495C11.9969 4.00183 11.95 3.99558 11.9062 4.00495C11.8438 4.01745 11.7813 4.04245 11.725 4.07995C11.6969 4.0987 11.6781 4.12683 11.6562 4.1487C11.6344 4.17058 11.6062 4.18933 11.5875 4.21745L11.5844 4.22058L9.85313 6.80808L6.79688 6.20183C6.63125 6.16745 6.46563 6.22058 6.34688 6.33933C6.22813 6.45808 6.17812 6.62683 6.20937 6.78933L6.8125 9.82995L4.74688 11.0675C4.50938 11.2081 4.43125 11.5175 4.575 11.7518C4.66563 11.9112 4.83125 11.9956 5 11.9956V11.9956Z" fill="black"/>
</svg>
