<svg width="215" height="452" viewBox="0 0 215 452" fill="none" xmlns="http://www.w3.org/2000/svg">
<g clip-path="url(#clip0_848_107948)">
<path d="M80.7185 419.413L81.6496 423.718L91.2139 421.488L90.0995 416.917L80.6621 419.147" fill="#E1A995" fill-opacity="0.8"/>
<path d="M176.969 272.757L172.624 271.158L169.14 280.301L173.611 281.899L176.969 272.757Z" fill="#E1A995" fill-opacity="0.8"/>
<path d="M181.441 285.6L185.926 277.075L181.821 274.859L177.35 283.511L181.441 285.6Z" fill="#E1A995" fill-opacity="0.8"/>
<path d="M194.249 282.151L190.398 279.557L185.052 287.703L189.03 290.171L194.249 282.151Z" fill="#E1A995" fill-opacity="0.8"/>
<path d="M94.9521 448.425L104.023 452L105.758 447.555L96.6873 444.092L94.9521 448.425Z" fill="#E1A995" fill-opacity="0.8"/>
<path d="M108.128 435.818L107.507 431.121L97.8018 432.355L98.4224 437.052L108.128 435.818Z" fill="#E1A995" fill-opacity="0.8"/>
<path d="M99.5513 428.415L98.6766 423.844L89.1123 425.568L89.9728 430.14L99.5513 428.415Z" fill="#E1A995" fill-opacity="0.8"/>
<path d="M198.975 285.727L192.26 292.766L195.744 295.977L202.318 288.811L198.975 285.727Z" fill="#E1A995" fill-opacity="0.8"/>
<path d="M198.101 299.187L200.329 303.268L208.793 298.458L206.55 294.378L198.101 299.187Z" fill="#E1A995" fill-opacity="0.8"/>
<path d="M212.517 307.965L210.895 303.646L201.697 307.096L203.447 311.541L212.517 307.965Z" fill="#E1A995" fill-opacity="0.8"/>
<path d="M56.173 34.9568L52.8156 25.8145L48.4707 27.427L51.8281 36.5693L56.173 34.9568Z" fill="#E1A995" fill-opacity="0.8"/>
<path d="M56.2998 24.3426L62.2669 31.9986L65.9911 29.0259L60.024 21.4961L56.2998 24.3426Z" fill="#E1A995" fill-opacity="0.8"/>
<path d="M69.9692 25.3241L73.1997 21.9869L66.2451 15.2002L63.0146 18.6496L69.9692 25.3241Z" fill="#E1A995" fill-opacity="0.8"/>
<path d="M79.6602 12.9701L71.2103 8.14648L68.8545 12.1007L77.3044 17.0505L79.6602 12.9701Z" fill="#E1A995" fill-opacity="0.8"/>
<path d="M83.5118 3.46344L74.4412 0L72.7061 4.31878L81.7767 7.78222L83.5118 3.46344Z" fill="#E1A995" fill-opacity="0.8"/>
<path d="M214.125 313.519L204.561 315.383L205.435 319.941L215 318.09L214.125 313.519Z" fill="#E1A995" fill-opacity="0.8"/>
<path d="M167.644 269.797L163.172 268.563L160.562 277.944L165.161 279.178L167.644 269.797Z" fill="#E1A995" fill-opacity="0.8"/>
<path d="M106.379 444.597L116.07 444.471V439.899H106.252L106.379 444.597Z" fill="#E1A995" fill-opacity="0.8"/>
<path d="M66.9922 104.632V109.329L77.0503 109.203L76.9233 104.506L66.9922 104.632Z" fill="#E1A995" fill-opacity="0.8"/>
<path d="M66.6119 100.552L76.5571 99.0653L75.8095 94.4941L65.9912 95.9805L66.6119 100.552Z" fill="#E1A995" fill-opacity="0.8"/>
<path d="M74.1866 88.8151L72.8323 84.3701L63.2539 87.455L64.7492 91.8999L74.1866 88.8151Z" fill="#E1A995" fill-opacity="0.8"/>
<path d="M68.728 77.5838L65.7374 73.9941L58.1621 80.5424L61.1386 84.0059L68.728 77.5838Z" fill="#E1A995" fill-opacity="0.8"/>
<path d="M60.0237 69.9142L56.0457 67.4463L50.6992 75.8455L54.6773 78.3134L60.0237 69.9142Z" fill="#E1A995" fill-opacity="0.8"/>
<path d="M50.8268 64.7257L46.6089 63.001L42.6309 72.0171L46.9757 73.868L50.8268 64.7257Z" fill="#E1A995" fill-opacity="0.8"/>
<path d="M71.211 328.845L62.3943 324.147L60.1514 328.228L68.8552 332.925L71.211 328.845Z" fill="#E1A995" fill-opacity="0.8"/>
<path d="M65.2432 334.902L56.4266 330.205L54.1836 334.271L62.8874 338.969L65.2432 334.902Z" fill="#E1A995" fill-opacity="0.8"/>
<path d="M58.4155 340.819L49.7117 336.136L47.4688 340.202L56.1726 344.9L58.4155 340.819Z" fill="#E1A995" fill-opacity="0.8"/>
<path d="M51.7012 347.003L42.9974 342.306L40.7686 346.386L49.4583 351.196L51.7012 347.003Z" fill="#E1A995" fill-opacity="0.8"/>
<path d="M44.2383 352.935L35.5486 348.237L33.3057 352.318L42.0095 357.001L44.2383 352.935Z" fill="#E1A995" fill-opacity="0.8"/>
<path d="M36.7901 358.249L27.9593 353.552L25.7305 357.618L34.5471 362.316L36.7901 358.249Z" fill="#E1A995" fill-opacity="0.8"/>
<path d="M28.3403 363.675L19.6365 358.978L17.3936 363.058L26.0974 367.881L28.3403 363.675Z" fill="#E1A995" fill-opacity="0.8"/>
<path d="M20.1299 368.99L11.4402 364.166L9.19727 368.246L17.9011 373.07L20.1299 368.99Z" fill="#E1A995" fill-opacity="0.8"/>
<path d="M0 373.309L8.83079 378.132L11.0596 374.052L2.24296 369.242L0 373.309Z" fill="#E1A995" fill-opacity="0.8"/>
</g>
<defs>
<clipPath id="clip0_848_107948">
<rect width="215" height="452" fill="white"/>
</clipPath>
</defs>
</svg>
