<svg width="359" height="597" viewBox="0 0 359 597" fill="none" xmlns="http://www.w3.org/2000/svg">
<g clip-path="url(#clip0_848_91869)">
<path d="M281.092 541.589L277.614 532.288L273.15 533.906L274.15 536.383L269.687 538.127L273.277 547.414L277.614 545.684L276.755 543.207L281.092 541.589Z" fill="#E4D093" fill-opacity="0.8"/>
<path d="M266.575 548.78L261.872 539.985L257.774 542.082L259.013 544.446L254.789 546.669L259.379 555.477L261.435 552.41L259.379 555.477L263.604 553.24L262.364 551.017L266.575 548.78Z" fill="#E4D093" fill-opacity="0.8"/>
<path d="M253.184 557.953L241.398 559.937L248.847 566.635L251.945 563.159L249.959 561.429L249.537 563.37L249.959 561.429L253.184 557.953Z" fill="#E4D093" fill-opacity="0.8"/>
<path d="M253.184 557.954L245.735 551.256L242.638 554.731L244.496 556.462L241.398 559.938L253.184 557.954Z" fill="#E4D093" fill-opacity="0.8"/>
<path d="M242.272 570.477L232.5 574.853L242.272 570.477L233.457 565.89L231.232 569.984L233.584 571.222L231.472 575.317L240.16 580.017L240.033 574.684L242.272 570.477Z" fill="#E4D093" fill-opacity="0.8"/>
<path d="M242.5 575.375L240.062 573.875L238.719 574.281L240.062 579.938L242.5 575.375Z" fill="#E4D093" fill-opacity="0.8"/>
<path d="M236.555 591.667L238.047 587.334L228.627 584.111L227.135 588.572L229.613 589.444L228.12 593.778L237.554 597L239.047 592.54L236.555 591.667Z" fill="#E4D093" fill-opacity="0.8"/>
<path d="M293.13 344.117L291.272 342.133L294.736 338.911L282.95 339.91L289.653 347.213L291.258 342.133H291.272L289.653 347.213L293.13 344.117Z" fill="#E4D093" fill-opacity="0.8"/>
<path d="M294.736 338.912L288.033 331.595L284.569 334.817L286.428 336.801L282.95 339.911L294.736 338.912Z" fill="#E4D093" fill-opacity="0.8"/>
<path d="M310.127 331.72L308.381 329.863L311.732 326.641L299.946 327.626L306.775 334.942L308.381 329.863L306.775 334.942L310.127 331.72Z" fill="#E4D093" fill-opacity="0.8"/>
<path d="M311.732 326.641L304.917 319.324L301.566 322.546L303.297 324.53L299.946 327.626L311.732 326.641Z" fill="#E4D093" fill-opacity="0.8"/>
<path d="M306.521 314.737L313.351 322.054L314.956 316.974L313.351 322.054L316.688 318.958L314.956 316.974L318.434 313.752L306.521 314.737Z" fill="#E4D093" fill-opacity="0.8"/>
<path d="M318.434 313.752L311.605 306.436L308.141 309.658L309.999 311.642L306.521 314.737L318.434 313.752Z" fill="#E4D093" fill-opacity="0.8"/>
<path d="M353.537 276.07L342.132 279.658L350.313 285.23L350.721 280.911L350.313 285.23L353.044 281.389L350.806 279.912L353.537 276.07Z" fill="#E4D093" fill-opacity="0.8"/>
<path d="M353.537 276.071L345.23 270.484L342.625 274.326L344.849 275.817L342.132 279.659L353.537 276.071Z" fill="#E4D093" fill-opacity="0.8"/>
<path d="M355.649 271.104L357.874 266.896L355.522 265.658L355.649 271.104Z" fill="#E4D093" fill-opacity="0.8"/>
<path d="M355.522 265.658L357.761 261.563L346.834 266.277L355.648 271.104L355.522 265.658Z" fill="#E4D093" fill-opacity="0.8"/>
<path d="M346.722 260.944L349.073 262.182L346.834 266.277L357.761 261.563L348.946 256.85L346.722 260.944Z" fill="#E4D093" fill-opacity="0.8"/>
<path d="M341.385 284.865L333.317 278.913L330.585 282.642L332.697 284.246L329.839 287.961L337.907 293.913L340.639 290.198L338.527 288.58L341.385 284.865Z" fill="#E4D093" fill-opacity="0.8"/>
<path d="M309.746 264.533L309.901 266.728L309.746 264.533L311.732 260.199L302.678 255.978L300.692 260.325L303.058 261.437L301.073 265.658L310.126 269.866L312.112 265.658L309.746 264.533Z" fill="#E4D093" fill-opacity="0.8"/>
<path d="M311.492 248.421L312.449 251.235L311.477 248.421L312.224 243.834L302.424 241.977L301.691 246.69L304.296 247.056L303.423 251.77L313.223 253.501L314.096 248.787L311.492 248.421Z" fill="#E4D093" fill-opacity="0.8"/>
<path d="M304.409 277.802L304.17 283.135L306.648 279.167L304.409 277.802Z" fill="#E4D093" fill-opacity="0.8"/>
<path d="M306.901 273.834L298.453 268.501L295.975 272.469L298.214 273.834L295.735 277.802L304.17 283.135L304.409 277.802L306.901 273.834Z" fill="#E4D093" fill-opacity="0.8"/>
<path d="M312.478 222.63L311.859 217.931L309.254 218.296L312.478 222.63Z" fill="#E4D093" fill-opacity="0.8"/>
<path d="M299.327 219.788L302.058 219.408L302.678 223.995L312.478 222.644L309.253 218.296L308.634 213.709L298.707 215.074L299.327 219.788Z" fill="#E4D093" fill-opacity="0.8"/>
<path d="M305.155 200.2L295.229 201.804L295.975 206.391L298.58 206.026L299.326 210.613L309.253 208.995L306.493 205.533L309.253 208.995L308.507 204.421L305.902 204.787L305.155 200.2Z" fill="#E4D093" fill-opacity="0.8"/>
<path d="M314.829 238.009V233.295H312.224L313.041 234.772L312.224 233.295V228.581H302.312V233.295H304.916V238.009H314.829Z" fill="#E4D093" fill-opacity="0.8"/>
<path d="M283.57 354.403L281.838 359.497L285.316 356.387L283.57 354.403Z" fill="#E4D093" fill-opacity="0.8"/>
<path d="M275.136 352.18L281.838 359.497L283.57 354.403L287.048 351.308L275.136 352.18Z" fill="#E4D093" fill-opacity="0.8"/>
<path d="M287.048 351.307L280.219 343.878L276.755 347.1L278.614 349.084L275.136 352.18L287.048 351.307Z" fill="#E4D093" fill-opacity="0.8"/>
<path d="M331.754 142.355L334.683 146.028L333.936 141.441L331.331 141.821L330.585 137.233L320.658 138.711L321.404 143.425L324.009 142.932L324.756 147.632V147.646L334.683 146.028L331.754 142.355Z" fill="#E4D093" fill-opacity="0.8"/>
<path d="M317.814 134.743L327.614 133.265L324.517 129.213L327.614 133.265L326.995 128.678L324.39 129.044L323.644 124.457L313.717 125.949L314.463 130.536L317.068 130.156L317.814 134.743Z" fill="#E4D093" fill-opacity="0.8"/>
<path d="M330.684 156.764L333.571 160.155L332.698 155.568L330.093 156.074L329.22 151.487L323.771 162.139L333.571 160.155L330.684 156.764Z" fill="#E4D093" fill-opacity="0.8"/>
<path d="M322.897 157.552L323.77 162.139L329.219 151.487L319.419 153.471L320.292 158.058L322.897 157.552Z" fill="#E4D093" fill-opacity="0.8"/>
<path d="M320.165 119.996L329.966 118.505L329.219 113.805L326.614 114.298L325.995 109.584L316.082 111.076L316.814 115.775L319.419 115.409L320.165 119.996Z" fill="#E4D093" fill-opacity="0.8"/>
<path d="M323.769 105.124L323.15 100.41L320.545 100.776L323.769 105.124Z" fill="#E4D093" fill-opacity="0.8"/>
<path d="M313.223 101.775L313.843 106.362L323.77 105.124L320.545 100.776L319.926 96.0762L309.999 97.4411L310.619 102.141L313.223 101.775Z" fill="#E4D093" fill-opacity="0.8"/>
<path d="M324.755 86.1562L322.15 86.5221L325.375 90.87L324.755 86.1562Z" fill="#E4D093" fill-opacity="0.8"/>
<path d="M312.224 87.8866L314.829 87.5207L315.449 92.2345L325.375 90.8696L322.151 86.5217L321.531 81.9346L311.604 83.2994L312.224 87.8866Z" fill="#E4D093" fill-opacity="0.8"/>
<path d="M336.302 164.742L330.966 175.408L340.639 173.551L337.33 169.653L340.639 173.551L339.766 168.963L337.161 169.456L336.302 164.742Z" fill="#E4D093" fill-opacity="0.8"/>
<path d="M327.488 171.313L329.966 170.821L330.966 175.408L336.288 164.742L326.488 166.726L327.488 171.313Z" fill="#E4D093" fill-opacity="0.8"/>
<path d="M336.795 183.836L340.259 187.931L339.4 183.344L336.795 183.836L335.922 179.249L330.459 189.788L340.259 187.931L336.795 183.836Z" fill="#E4D093" fill-opacity="0.8"/>
<path d="M335.922 179.249L326.122 181.106L326.995 185.693L329.6 185.201L330.459 189.788L335.922 179.249Z" fill="#E4D093" fill-opacity="0.8"/>
<path d="M331.951 302.215L330.712 307.421L333.936 304.086L331.951 302.215Z" fill="#E4D093" fill-opacity="0.8"/>
<path d="M330.712 307.422L331.951 302.215L335.175 298.754L323.39 300.738L330.712 307.422Z" fill="#E4D093" fill-opacity="0.8"/>
<path d="M335.175 298.753L327.853 292.056L324.629 295.531L326.614 297.262L323.39 300.737L335.175 298.753Z" fill="#E4D093" fill-opacity="0.8"/>
<path d="M346.834 208.502L344.975 204.168L342.624 205.153L340.765 200.819L337.653 212.343L346.834 208.502Z" fill="#E4D093" fill-opacity="0.8"/>
<path d="M335.795 208.01L337.654 212.343L340.766 200.819L331.585 204.661L333.444 208.995L335.795 208.01Z" fill="#E4D093" fill-opacity="0.8"/>
<path d="M345.469 219.534L347.215 223.882L356.508 220.041H356.522L356.508 220.027L354.649 215.82L352.298 216.805L350.439 212.471L341.259 216.312L342.991 220.533L345.469 219.534Z" fill="#E4D093" fill-opacity="0.8"/>
<path d="M359 234.294L357.141 229.946L354.649 231.072L352.917 226.724L343.736 230.452L345.468 234.786L347.961 233.787L349.692 238.135L359 234.294Z" fill="#E4D093" fill-opacity="0.8"/>
<path d="M292.384 139.33L282.584 140.948L283.33 145.535L285.935 145.155L286.681 149.743L296.482 148.265L293.722 144.79L296.482 148.265L295.735 143.551L293.13 144.044L292.384 139.33Z" fill="#E4D093" fill-opacity="0.8"/>
<path d="M293.623 134.377L293.13 129.79L290.525 130.043L292.187 132.365L290.525 130.043L290.145 125.329L283.696 135.362L293.623 134.377Z" fill="#E4D093" fill-opacity="0.8"/>
<path d="M283.204 130.662L283.697 135.362L290.146 125.329L280.219 126.187L280.599 130.901L283.204 130.662Z" fill="#E4D093" fill-opacity="0.8"/>
<path d="M298.58 157.551L295.976 158.058L295.117 153.471L289.653 163.996L299.453 162.138L295.976 158.058L299.453 162.138L298.58 157.551Z" fill="#E4D093" fill-opacity="0.8"/>
<path d="M286.175 159.915L288.78 159.409L289.653 163.996L295.117 153.471L285.316 155.328L286.175 159.915Z" fill="#E4D093" fill-opacity="0.8"/>
<path d="M279.979 116.155H282.584V120.869L292.511 120.981L292.624 116.282H290.019L290.681 117.534L290.019 116.282V111.568L280.106 111.441L279.979 116.155Z" fill="#E4D093" fill-opacity="0.8"/>
<path d="M281.839 107.107L291.766 107.599L292.005 103.012L289.4 102.886L289.654 98.1719L281.839 107.107Z" fill="#E4D093" fill-opacity="0.8"/>
<path d="M279.36 102.267L282.092 102.393L281.839 107.107L289.653 98.1722L279.6 97.6797L279.36 102.267Z" fill="#E4D093" fill-opacity="0.8"/>
<path d="M301.931 171.819L299.453 172.312L298.453 167.725L288.653 169.709L289.653 174.296L292.258 173.789L293.244 178.376H293.258L302.931 176.392L299.453 172.312L302.931 176.392L301.931 171.819Z" fill="#E4D093" fill-opacity="0.8"/>
<path d="M19.6426 99.0451L22.2053 99.2843L21.8392 103.998L29.9074 95.3163L20.0791 94.458L19.6567 99.0451H19.6426ZM21.8532 98.5245L20.0509 94.6128L21.8532 98.5245Z" fill="#E4D093" fill-opacity="0.8"/>
<path d="M92.5376 78.4731V76.067L97.2546 76.0107L97.0012 85.9307L92.2842 85.8041L92.1574 88.4072L87.4404 88.2806L87.8206 78.3606L92.5376 78.4872V78.4731Z" fill="#C3B382"/>
<path d="M138.314 174.662L139.68 179.123L142.285 178.377L138.314 174.662Z" fill="#E4D093" fill-opacity="0.8"/>
<path d="M142.285 178.377L143.651 182.852L147.734 171.693L138.314 174.662L142.285 178.377Z" fill="#E4D093" fill-opacity="0.8"/>
<path d="M151.705 175.281L149.226 176.154L147.748 171.693L143.65 182.852L153.197 179.742L151.705 175.281Z" fill="#E4D093" fill-opacity="0.8"/>
<path d="M132.851 165.615L135.456 164.869L136.582 169.456L141.412 158.678L131.738 161.028L135.456 164.869L131.738 161.028L132.851 165.615Z" fill="#E4D093" fill-opacity="0.8"/>
<path d="M145.143 162.519L142.538 163.138L141.412 158.678L136.582 169.456L146.255 167.106L145.143 162.519Z" fill="#E4D093" fill-opacity="0.8"/>
<path d="M126.162 147.885L127.274 152.345L129.879 151.726L126.162 147.885Z" fill="#E4D093" fill-opacity="0.8"/>
<path d="M136.948 149.995L135.836 145.408L126.162 147.885L129.879 151.726L130.992 156.313L140.665 153.963L139.553 149.376L136.948 149.995Z" fill="#E4D093" fill-opacity="0.8"/>
<path d="M124.557 135.376L125.416 136.853V141.567L132.611 132.013L122.685 132.139V136.853H125.416L124.557 135.376Z" fill="#E4D093" fill-opacity="0.8"/>
<path d="M135.343 136.727H132.738L132.611 132.027L125.416 141.567L135.343 141.441V136.727Z" fill="#E4D093" fill-opacity="0.8"/>
<path d="M130.866 118.759L120.826 118.885L120.953 123.473H123.558L122.699 122.037L123.558 123.473V128.172L133.597 128.06L133.471 123.346L130.866 123.473V118.759Z" fill="#E4D093" fill-opacity="0.8"/>
<path d="M120.333 104.632V109.331H122.938L121.783 107.263L122.938 109.331L123.051 114.045L130.246 104.505L120.333 104.632Z" fill="#E4D093" fill-opacity="0.8"/>
<path d="M130.246 104.505L123.051 114.045L132.978 113.918V109.219H130.246V104.505Z" fill="#E4D093" fill-opacity="0.8"/>
<path d="M69.0937 73.3793L64.5034 73.126L64.3767 75.8557L59.6597 75.7291L59.4062 85.6491L63.9965 85.7757L64.1233 83.1726L68.8403 83.2992L69.0937 73.3793ZM64.3767 75.8557L65.1934 75.4195L64.3767 75.8557Z" fill="#E4D093" fill-opacity="0.8"/>
<path d="M83.2305 74.9977L78.6402 74.8711L78.5134 77.4742L73.7964 77.3476L73.543 87.2676L78.26 87.3942V84.7911L82.977 84.9177L83.2305 74.9977ZM78.5134 77.4742L79.2879 77.0662L78.5134 77.4742Z" fill="#E4D093" fill-opacity="0.8"/>
<path d="M147.114 92.1081V89.5049L151.831 89.6316L152.085 79.7116L147.495 79.585L147.368 82.1881L142.651 82.0614L142.397 91.9814L147.114 92.1081ZM147.635 82.0474L147.368 82.1881L147.635 82.0474Z" fill="#E4D093" fill-opacity="0.8"/>
<path d="M161.266 92.4743V89.8712L165.983 89.9978L166.349 80.0778L161.505 82.5543L166.349 80.0778L161.632 79.9512L161.505 82.5543L156.802 82.4417L156.549 92.3476L161.266 92.4743Z" fill="#E4D093" fill-opacity="0.8"/>
<path d="M175.896 79.458L175.783 82.0611L171.066 81.9345L170.812 91.8545L175.53 92.1077V89.378L180.247 89.5046L180.613 79.5846L175.783 82.0611L180.613 79.5846L175.896 79.458Z" fill="#E4D093" fill-opacity="0.8"/>
<path d="M16.6289 126.315L19.2338 126.934L17.7413 121.728L16.6289 126.315Z" fill="#E4D093" fill-opacity="0.8"/>
<path d="M19.2338 126.934L18.1073 131.521L27.4146 124.091L17.7412 121.728L19.2338 126.934Z" fill="#E4D093" fill-opacity="0.8"/>
<path d="M28.9073 129.297L26.3024 128.678L27.4147 124.091L18.1074 131.52L27.7808 133.884L28.9073 129.297Z" fill="#E4D093" fill-opacity="0.8"/>
<path d="M31.2591 114.298L28.5274 114.045L29.0343 109.331L19.1075 108.473L20.8816 112.398L19.1075 108.473L18.6006 113.172L21.3322 113.426L20.8394 118.013L30.7663 118.885L31.2591 114.298Z" fill="#E4D093" fill-opacity="0.8"/>
<path d="M21.8389 104.012L31.7516 104.87L32.1318 100.156L29.5269 99.9172L29.893 95.3301L21.8389 104.012Z" fill="#E4D093" fill-opacity="0.8"/>
<path d="M34.6099 68.0606L29.8929 59.3789L28.9777 60.8141L29.8929 59.3789L25.7955 61.6162L27.0486 63.8394L22.9512 66.0767L27.6682 74.871L31.7516 72.6478L30.5125 70.2839L34.6099 68.0606Z" fill="#E4D093" fill-opacity="0.8"/>
<path d="M59.5469 204.295L61.0253 208.756L63.5176 207.884L61.0957 205.703L63.5176 207.884L64.9961 212.344L68.9668 201.073L59.5469 204.295Z" fill="#E4D093" fill-opacity="0.8"/>
<path d="M70.4594 205.534L68.9668 201.073L64.9961 212.344L74.4301 209.122L72.9376 204.788L70.4594 205.534Z" fill="#E4D093" fill-opacity="0.8"/>
<path d="M93.6501 136.98H103.704V132.393L101.099 132.266V127.679L91.1719 127.553V132.266H93.7768L93.6501 136.98ZM93.0728 131.014L93.7627 132.266L93.0728 131.014Z" fill="#E4D093" fill-opacity="0.8"/>
<path d="M90.5522 122.853L100.479 122.966L100.606 118.266H97.8741L98.0008 113.552L87.9473 113.426V118.14H90.5522L90.0312 117.197L90.5522 118.14V122.853Z" fill="#E4D093" fill-opacity="0.8"/>
<path d="M97.8749 98.9186L87.8213 98.8061V98.792V103.506H90.4262L89.8207 102.394L90.4262 103.506V108.219L100.353 108.346L100.48 103.632H97.7481L97.8749 98.9186Z" fill="#E4D093" fill-opacity="0.8"/>
<path d="M54.2105 165.867L51.6056 165.614L52.0984 160.9L42.1715 160.042L44.0161 164.362L42.1715 160.042L41.6787 164.742L44.2836 164.995L43.9175 169.582L53.8303 170.567L54.2105 165.867Z" fill="#E4D093" fill-opacity="0.8"/>
<path d="M55.1964 151.853L52.5915 151.613L53.0984 146.9L43.1715 146.027L44.6922 149.601L43.1715 146.027L42.6787 150.741L45.2836 150.98L44.9035 155.567L54.8303 156.44L55.1964 151.853Z" fill="#E4D093" fill-opacity="0.8"/>
<path d="M43.0449 136.614L45.6498 136.853L45.2837 141.567L53.4646 132.885L43.5377 131.9L45.4245 136.319L43.5377 131.9L43.0449 136.614Z" fill="#E4D093" fill-opacity="0.8"/>
<path d="M55.5762 137.726L52.9712 137.473L53.4641 132.886L45.2832 141.567L55.196 142.44L55.5762 137.726Z" fill="#E4D093" fill-opacity="0.8"/>
<path d="M43.7906 127.313L51.8447 118.631L41.9319 117.646L44.0581 122.374L41.9319 117.646L41.5518 122.346L44.1567 122.599L43.7906 127.313Z" fill="#E4D093" fill-opacity="0.8"/>
<path d="M43.791 127.314L53.7179 128.172L54.084 123.472L51.479 123.219L51.8592 118.632L43.791 127.314Z" fill="#E4D093" fill-opacity="0.8"/>
<path d="M45.1567 108.585L44.7765 113.299L52.8447 104.631L42.9179 103.632L44.7061 107.6L42.9179 103.632L42.5518 108.346L45.1567 108.585Z" fill="#E4D093" fill-opacity="0.8"/>
<path d="M55.0834 109.457L52.4785 109.218L52.8446 104.631L44.7764 113.299L54.7032 114.171L55.0834 109.457Z" fill="#E4D093" fill-opacity="0.8"/>
<path d="M55.4499 90.7432L45.5231 89.7441L47.3254 93.9936L45.5231 89.7441L45.0303 94.4579L47.6352 94.7112L47.2691 99.4109V99.4249L57.1819 100.283L57.562 95.5695L54.9571 95.3303L55.4499 90.7432Z" fill="#E4D093" fill-opacity="0.8"/>
<path d="M55.5766 201.186L59.5473 189.915L50.1133 193.137L51.6058 197.471L54.084 196.725L51.4228 194.319L54.084 196.725L55.5766 201.186Z" fill="#E4D093" fill-opacity="0.8"/>
<path d="M61.0254 194.376L59.5469 189.915L55.5762 201.186L64.9961 197.964L63.5177 193.503L61.0254 194.376Z" fill="#E4D093" fill-opacity="0.8"/>
<path d="M207.661 47.1095L211.252 56.4104L215.589 54.7922L214.603 52.3158L219.066 50.571L215.476 41.2842L211.125 43.0149L211.998 45.4914L207.661 47.1095Z" fill="#E4D093" fill-opacity="0.8"/>
<path d="M217.335 36.6964L220.926 45.9973L225.276 44.3792L224.403 41.9027L228.74 40.2845L225.276 30.8711L220.813 32.6018L221.799 35.0783L223.08 33.5305L221.799 35.0783L217.335 36.6964Z" fill="#E4D093" fill-opacity="0.8"/>
<path d="M227.262 26.2844L230.613 35.6978L235.076 34.0937L234.203 31.6173L238.54 29.9991L235.189 20.6982L230.852 22.1898L231.725 24.6662L234.415 21.5988L231.725 24.6662L227.262 26.2844Z" fill="#E4D093" fill-opacity="0.8"/>
<path d="M237.062 16.2381L240.906 25.4123L245.242 23.6816L244.257 21.3177L248.594 19.4604L244.75 10.2861L240.399 12.0309L241.398 14.5074L237.062 16.2381Z" fill="#E4D093" fill-opacity="0.8"/>
<path d="M112.884 174.789L110.279 174.662V170.075L100.352 169.948L100.226 174.662H102.957L102.831 179.376H112.884V174.789Z" fill="#E4D093" fill-opacity="0.8"/>
<path d="M98.0014 165.361L107.928 165.487L108.041 160.774H105.323L105.436 156.074L95.3965 155.947V160.661H98.0014L97.5086 159.775L98.0014 160.661V165.361Z" fill="#E4D093" fill-opacity="0.8"/>
<path d="M95.27 151.234L105.324 151.361V146.647H102.719V141.933L92.7918 141.807L92.665 146.52H95.3967L95.27 151.234ZM94.932 145.676L95.3967 146.52L94.932 145.676Z" fill="#E4D093" fill-opacity="0.8"/>
<path d="M254.676 0L250.198 1.61815L251.198 4.09463L246.861 5.82535L250.452 15.1262L254.789 13.3814L253.93 10.9049L258.267 9.17422L254.676 0Z" fill="#E4D093" fill-opacity="0.8"/>
<path d="M70.0938 215.327L71.5722 219.661L74.0504 218.915L75.543 223.263L79.6404 212.104L70.0938 215.327Z" fill="#E4D093" fill-opacity="0.8"/>
<path d="M81.0063 216.565L79.6404 212.104L75.543 223.263L85.1037 220.153L83.6112 215.693L81.0063 216.565Z" fill="#E4D093" fill-opacity="0.8"/>
<path d="M81.0059 226.725L82.4984 231.185L84.9766 230.327L82.3154 227.921L84.9766 230.327L86.4551 234.787L90.4258 223.629L81.0059 226.725Z" fill="#E4D093" fill-opacity="0.8"/>
<path d="M91.9184 228.089L90.4258 223.629L86.4551 234.787L95.8891 231.692L94.3966 227.217L91.9184 228.089Z" fill="#E4D093" fill-opacity="0.8"/>
<path d="M96.8752 245.327V245.2L97.0019 245.566L100.973 234.295L91.5527 237.517L93.0312 241.978L95.5235 241.105L93.3551 239.149L95.5235 241.105L96.833 245.059" fill="#E4D093" fill-opacity="0.8"/>
<path d="M102.465 238.755L100.973 234.295L97.002 245.566L106.436 242.343L104.943 238.01L102.465 238.755Z" fill="#E4D093" fill-opacity="0.8"/>
<path d="M12.152 139.203L10.6736 143.678L20.0935 146.9L21.586 142.44L19.1079 141.567L20.5863 137.233L11.1664 133.997V134.011L9.67383 138.472L12.152 139.203Z" fill="#E4D093" fill-opacity="0.8"/>
<path d="M0.492822 154.949L9.6734 158.917L11.532 154.71L9.18058 153.584L11.0392 149.377L1.98537 145.282L0 149.503L2.47819 150.615L2.28106 148.533L2.47819 150.615L0.492822 154.949Z" fill="#E4D093" fill-opacity="0.8"/>
</g>
<defs>
<clipPath id="clip0_848_91869">
<rect width="359" height="597" fill="white"/>
</clipPath>
</defs>
</svg>
