<svg width="256" height="684" viewBox="0 0 256 684" fill="none" xmlns="http://www.w3.org/2000/svg">
<g clip-path="url(#clip0_848_87689)">
<path d="M252.916 441.119L246.233 434.848L252.916 441.119L249.344 431.859L244.888 433.585H244.902L245.519 435.072L240.699 437.05L248.335 439.59L240.699 437.05L240.083 435.437L235.768 437.163L239.34 446.436L241.778 444.963L239.34 446.436L243.656 444.711L243.417 443.967L242.395 441.371L243.417 443.967L248.223 442.115L248.601 442.859L252.916 441.119Z" fill="#E19895" fill-opacity="0.8"/>
<path d="M134.92 241.884V237.199H134.177L134.373 238.461L134.177 237.199V232.008L134.626 229.145L134.177 232.008H134.92V227.308H125.042V232.008H126.64V237.325L134.906 227.308L126.64 237.325H125.028V241.898H134.906L134.92 241.884Z" fill="#E19895" fill-opacity="0.8"/>
<path d="M98.9974 96.5234L108.749 97.758L109.365 93.0581H108.623L109.365 87.7409L109.701 86.5203L109.365 87.7409L110.108 87.8671L110.598 83.2935L100.847 81.9326L100.23 86.6325L101.828 86.8851L101.211 92.076L99.5999 91.8235L98.9834 96.5234H98.9974ZM101.225 92.076L104.924 92.5671L101.225 92.076ZM110.598 83.3075L101.225 92.076L110.598 83.3075Z" fill="#E19895" fill-opacity="0.8"/>
<path d="M115.417 65.6299L113.315 69.951L114.058 70.0773L115.417 65.6299Z" fill="#E19895" fill-opacity="0.8"/>
<path d="M101.715 76.756L111.214 79.604L104.685 72.7996L103.074 72.3086L101.715 76.756Z" fill="#E19895" fill-opacity="0.8"/>
<path d="M104.559 67.2436L106.156 67.7347L104.685 72.7994L109.574 69.5305L104.671 72.7994H104.685L111.214 79.5897L111.466 77.7659L111.214 79.6037L112.573 75.1423L111.83 74.9038L106.898 73.4447L111.83 74.9038L113.315 69.9514L115.417 65.6302L110.093 66.4159L115.417 65.6302L105.918 62.7822L104.559 67.2436Z" fill="#E19895" fill-opacity="0.8"/>
<path d="M109.127 54.505L107.516 58.9523L116.903 62.2914L118.374 57.844L117.645 57.5915L110.598 55.1223L117.645 57.5915L119.495 52.653L121.708 48.4442L112.335 45.1191L110.85 49.5665L112.335 50.0576L110.598 55.1223L109.127 54.505Z" fill="#E19895" fill-opacity="0.8"/>
<path d="M123.936 41.78L124.174 37.0801H123.445L123.936 41.78Z" fill="#E19895" fill-opacity="0.8"/>
<path d="M115.908 36.7156L114.311 36.5893L114.059 41.2892L123.936 41.7803L123.446 37.0803L123.684 31.8894H124.426L124.791 27.1895H124.805L115.908 36.7156Z" fill="#E19895" fill-opacity="0.8"/>
<path d="M114.549 31.2719L116.286 31.3982L115.908 36.7014L124.805 27.1893L119.495 29.3077L124.805 27.1893L114.801 26.6982L114.549 31.2719Z" fill="#E19895" fill-opacity="0.8"/>
<path d="M107.641 6.80407L101.715 14.7027L105.414 17.5508L106.408 16.1899L110.598 19.4027L109.617 20.6373L113.316 23.4853L119.242 15.5726L115.543 12.7246L115.053 13.3419L110.598 19.4027L119.242 15.5726L110.598 19.4027L115.053 13.3419L110.85 10.2554L111.34 9.63805L107.641 6.80407V6.79004V6.80407Z" fill="#E19895" fill-opacity="0.8"/>
<path d="M86.2899 0.870117L84.3145 10.6347L88.8819 11.4905L89.1201 9.89116L94.3039 10.8732L86.2899 0.870117L94.3039 10.8732L94.9204 7.8709L94.3039 10.8732L100.483 3.7041L95.7891 3.57783L90.6052 2.46949L90.8574 1.72592L86.2899 0.870117Z" fill="#E19895" fill-opacity="0.8"/>
<path d="M100.483 3.70444L95.9152 2.84863L95.7891 3.57817L100.483 3.70444Z" fill="#E19895" fill-opacity="0.8"/>
<path d="M94.0654 12.4866L98.6329 13.4687L100.482 3.7041L94.3036 10.8732L94.0654 12.4866Z" fill="#E19895" fill-opacity="0.8"/>
<path d="M64.5596 2.59548H69.2531L69.127 1.85191L64.5596 2.59548L66.2829 12.3601L70.8503 11.6165L70.5981 9.89088L75.6559 9.02104L76.0202 10.6204L80.5876 9.75058L78.8783 0L74.3109 0.869836L74.437 1.61341L69.2531 2.60951H64.5596V2.59548ZM64.5596 2.59548L75.6699 9.02104L64.5596 2.59548Z" fill="#E19895" fill-opacity="0.8"/>
<path d="M42.7168 43.2533L43.8236 38.6796L42.969 38.5674L42.7168 43.2533Z" fill="#E19895" fill-opacity="0.8"/>
<path d="M43.6973 28.6768L43.333 33.3767H44.0756L43.6973 28.6768L44.0756 33.3767L43.8234 38.6799L51.2349 39.0587L51.5992 33.8677L53.2104 33.994L53.5747 29.2941L43.6973 28.6768Z" fill="#E19895" fill-opacity="0.8"/>
<path d="M42.7168 43.254L51.2352 39.0591L43.8236 38.6943L42.7168 43.254Z" fill="#E19895" fill-opacity="0.8"/>
<path d="M42.7168 43.2534L52.5942 43.8708L52.9585 39.1849L51.2352 39.0586L42.7168 43.2534Z" fill="#E19895" fill-opacity="0.8"/>
<path d="M51.9775 12.7245L52.594 13.1033L54.4434 8.78223L51.9775 12.7245Z" fill="#E19895" fill-opacity="0.8"/>
<path d="M49.2598 17.1863L46.7939 21.1427L55.3123 26.3336L57.7782 22.3773L56.2931 21.5074L59.0111 17.0601L60.4962 17.9299L62.836 13.8473L54.4437 8.78258L52.5943 13.1037L49.8763 17.5511L49.2598 17.1863ZM49.8763 17.5511L48.8815 18.7015L49.8763 17.5511ZM56.2931 21.5074L54.7379 10.8169L56.2931 21.5074ZM56.3211 11.6166L54.4437 8.76855L56.3211 11.6166Z" fill="#E19895" fill-opacity="0.8"/>
<path d="M43.8241 53.3962L44.5667 53.2699L43.5859 48.6963L43.8241 53.3962Z" fill="#E19895" fill-opacity="0.8"/>
<path d="M44.9307 58.5869H44.2021L44.4403 63.2868L44.9307 58.5869Z" fill="#E19895" fill-opacity="0.8"/>
<path d="M54.0658 57.97L52.4686 58.0962L49.1341 58.3067L52.4686 58.0962L52.1043 52.779H53.7015L53.4493 48.0791L43.5859 48.6964L50.2409 51.3901L43.5859 48.6964L44.5667 53.2701L44.945 58.5873L44.4406 63.2872L54.4441 62.6699L54.0658 57.97Z" fill="#E19895" fill-opacity="0.8"/>
<path d="M54.318 76.9947H52.5947V71.6775H54.318V66.9775H44.4405V71.6775H45.1831L44.6787 68.4647L45.1831 71.6775V76.8684L44.6087 79.969L45.1831 76.8684H44.3145V81.5683H54.318V76.9947ZM44.4405 66.9775L52.5806 76.9947L44.4405 66.9775Z" fill="#E19895" fill-opacity="0.8"/>
<path d="M43.9497 94.9238H43.2072L42.7168 99.4975L43.9497 94.9238Z" fill="#E19895" fill-opacity="0.8"/>
<path d="M54.0653 86.0293L44.2019 85.0332L49.7221 93.3247L44.2019 85.0332L43.6975 89.7331H44.4401L43.9497 94.9241L42.7168 99.4977L52.5942 100.48L53.0846 95.9062L51.3613 95.7939L51.8517 90.4767L53.5749 90.7152L52.8324 90.2662L53.5749 90.7152L54.0653 86.0293Z" fill="#E19895" fill-opacity="0.8"/>
<path d="M81.7219 483.896L76.6641 478.2L78.7516 487.474L80.2367 485.678L78.7516 487.474L82.2122 484.387L81.7219 483.896Z" fill="#E19895" fill-opacity="0.8"/>
<path d="M75.5433 476.966L72.0967 480.179L78.7517 487.474L76.6641 478.2L75.5433 476.966Z" fill="#E19895" fill-opacity="0.8"/>
<path d="M89.6241 477.835L82.9551 470.413L79.4945 473.5L82.8991 474.959L79.4945 473.5L80.6014 474.734L76.6504 478.2L81.7082 483.882L85.6591 480.304L86.1495 480.921L89.6101 477.835H89.6241ZM89.6241 477.835L82.7169 478.031L89.6241 477.835Z" fill="#E19895" fill-opacity="0.8"/>
<path d="M73.3292 493.029L76.5376 489.704L72.8389 492.538L73.3292 493.029Z" fill="#E19895" fill-opacity="0.8"/>
<path d="M69.2522 496.368L66.5342 500.325L69.7426 496.873L69.2522 496.368Z" fill="#E19895" fill-opacity="0.8"/>
<path d="M76.5379 489.705L68.8041 487.236L76.5379 489.705L69.2524 482.9L66.044 486.366L67.2769 487.474L63.7042 491.304L62.4713 490.196L59.375 493.661L66.5344 500.325L69.2524 496.369L63.7042 491.304L69.2524 496.369L72.8391 492.539L76.5379 489.705Z" fill="#E19895" fill-opacity="0.8"/>
<path d="M95.5506 472.518L99.7538 469.431L100.244 470.049L103.943 467.327L94.3177 462.01L95.2985 463.371L91.1093 466.583L90.1286 465.223L86.3037 467.944L92.2302 475.983L95.9289 473.135L95.5647 472.518H95.5506ZM103.943 467.327L100.847 467.145L103.943 467.327ZM91.1093 466.583L93.1969 469.361L91.1093 466.583ZM92.2161 475.969L91.1093 466.583L92.2161 475.969L93.1969 474.945L92.2161 475.969Z" fill="#E19895" fill-opacity="0.8"/>
<path d="M94.3037 462.01L103.943 467.327L98.0165 459.288L94.3037 462.01Z" fill="#E19895" fill-opacity="0.8"/>
<path d="M48.5171 569.056V569.042V569.056L40.377 563.233L37.7851 567.078L42.2824 567.905L37.7851 567.078L39.1301 568.06L36.0478 572.381L41.8201 570.837L36.0478 572.381L34.6887 571.399L31.9707 575.229L40.1248 580.911L42.8429 577.081L42.2264 576.716L41.722 577.698L42.2264 576.716L45.1826 572.381L45.7991 572.886L48.5171 569.056Z" fill="#E19895" fill-opacity="0.8"/>
<path d="M33.2173 580.799V580.785L25.1893 574.977L22.4712 578.821L24.4888 579.185L22.4712 578.821L23.8303 579.803L20.748 584.012L26.9406 582.412L20.748 584.012L19.3889 583.016L16.6709 586.846L24.6989 592.654L27.417 588.824L26.8005 588.459H26.7865L23.494 586.032L26.8005 588.459L29.8828 584.124L31.5501 582.454L29.8828 584.124L30.4993 584.629L33.2173 580.799Z" fill="#E19895" fill-opacity="0.8"/>
<path d="M13.2106 601.801L11.4873 606.248L13.9532 602.292L13.2106 601.801Z" fill="#E19895" fill-opacity="0.8"/>
<path d="M6.91992 597.971L11.4873 606.248L13.2106 601.801L6.91992 597.971Z" fill="#E19895" fill-opacity="0.8"/>
<path d="M2.96875 601.057L11.4871 606.248L6.91971 597.971L13.2104 601.801L15.9285 597.353L16.671 597.718L19.0108 593.776H19.0248H19.0108V593.762V593.776L8.15264 592.653L9.63775 593.523L6.91971 597.971L5.4346 597.101L2.96875 601.057Z" fill="#E19895" fill-opacity="0.8"/>
<path d="M8.15234 592.654L19.0245 593.762L10.6182 588.571L8.15234 592.654Z" fill="#E19895" fill-opacity="0.8"/>
<path d="M11.4868 625.539L11.1225 620.966H10.38L10.7022 622.313L10.38 620.966L2.84232 621.583L11.4868 625.539L2.84232 621.583L1.24512 621.709L1.60939 626.283L11.4868 625.539Z" fill="#E19895" fill-opacity="0.8"/>
<path d="M0.867203 616.392L2.47841 616.265L2.84268 621.583L10.3803 620.965L10.0021 615.774L10.7446 615.648L10.3803 610.948L10.2122 613.165L10.3803 610.948L2.49242 615.466L10.3803 610.948L0.50293 611.818L0.867203 616.392Z" fill="#E19895" fill-opacity="0.8"/>
<path d="M18.1566 643.09L17.414 638.517L16.6715 638.643L15.9289 633.452L16.6715 633.326L16.055 628.752L15.999 630.688L16.055 628.752L6.30371 630.113L6.92017 634.686L7.0883 634.574L6.92017 634.686L8.51737 634.434L9.25993 639.625L7.66273 639.877L8.27919 644.577L18.1566 643.09ZM16.055 628.752L9.27394 639.625L16.055 628.752Z" fill="#E19895" fill-opacity="0.8"/>
<path d="M130.101 449.902L134.178 447.545L129.736 449.285L130.101 449.902Z" fill="#E19895" fill-opacity="0.8"/>
<path d="M124.945 452.077L125.169 451.88L121.47 445.455L125.169 451.88L129.736 449.285L134.178 447.545L129.12 439.029L125.169 441.372L125.911 442.733L121.47 445.455L120.601 443.968L116.524 446.311L121.582 454.967H121.596L125.659 452.624L125.169 451.88L124.945 452.077Z" fill="#E19895" fill-opacity="0.8"/>
<path d="M106.772 464.858L110.597 462.136L110.233 461.519L106.772 464.858Z" fill="#E19895" fill-opacity="0.8"/>
<path d="M118.752 456.581L109.238 451.011L110.233 452.372L105.918 455.458L106.773 464.858L110.233 461.519L105.918 455.458L110.233 461.519L114.548 458.559L114.927 459.176L118.752 456.581L113.596 456.132L118.752 456.581Z" fill="#E19895" fill-opacity="0.8"/>
<path d="M101.099 456.692L106.773 464.857L105.918 455.458L104.923 454.097L101.099 456.692Z" fill="#E19895" fill-opacity="0.8"/>
<path d="M113.077 448.415L109.238 451.011L118.751 456.58L113.077 448.415Z" fill="#E19895" fill-opacity="0.8"/>
<path d="M150.346 439.268L145.778 440.755L146.157 441.372L150.346 439.268Z" fill="#E19895" fill-opacity="0.8"/>
<path d="M137.26 445.819L141.463 443.715L141.085 443.098L137.26 445.819Z" fill="#E19895" fill-opacity="0.8"/>
<path d="M141.085 443.098L145.778 440.755L150.346 439.268L137.764 436.434L137.26 445.819L141.085 443.098Z" fill="#E19895" fill-opacity="0.8"/>
<path d="M150.345 439.268L141.701 432.478L142.443 433.951L137.764 436.434L150.345 439.268Z" fill="#E19895" fill-opacity="0.8"/>
<path d="M132.818 437.051L137.26 445.819L137.764 436.433L137.022 434.946L132.818 437.051Z" fill="#E19895" fill-opacity="0.8"/>
<path d="M145.904 430.373L141.715 432.477L150.345 439.268L145.904 430.373Z" fill="#E19895" fill-opacity="0.8"/>
<path d="M25.1898 645.307L15.4385 647.033L16.181 651.606L17.7782 651.354L18.6469 656.418L17.0497 656.783L17.9183 661.357L27.6696 659.631L26.801 655.058L26.0584 655.184L25.1898 649.993L25.9323 649.867L25.1898 645.293V645.307ZM25.1898 645.307L18.6469 656.432L25.1898 645.307Z" fill="#E19895" fill-opacity="0.8"/>
<path d="M43.5849 682.149L42.7163 677.575L41.8476 677.701L40.979 672.51L40.8529 667.811L40.979 672.51L41.7215 672.384L40.8529 667.811L31.1016 669.662L31.9702 674.236L33.5674 673.871L34.5622 679.062L43.5709 682.149L34.5622 679.062L32.9509 679.427L33.8196 684.001L43.5709 682.149H43.5849ZM40.8669 667.811L38.8634 671.388L40.8669 667.811Z" fill="#E19895" fill-opacity="0.8"/>
<path d="M219.333 370.325L215.761 367.463L215.27 368.081L210.577 374.015L219.432 370.438L210.577 374.015L210.549 373.861L210.577 374.015L215.27 368.081L211.193 364.868L211.698 364.251L207.985 361.276L201.82 369.063L205.519 372.037L206.542 367.604L205.519 372.037L206.514 370.676L210.577 374.015L209.596 375.25L213.295 378.21L219.446 370.452" fill="#E19895" fill-opacity="0.8"/>
<path d="M142.332 277.225L148.132 272.413L144.798 268.457L145.414 267.966L142.444 264.262V264.248V264.262L137.765 274.265L138.998 273.157L142.332 277.225Z" fill="#E19895" fill-opacity="0.8"/>
<path d="M148.763 272.96L151.705 275.499L148.749 271.922L148.132 272.413L142.332 277.225L141.085 278.347L144.055 281.925L151.705 275.499L148.763 272.96Z" fill="#E19895" fill-opacity="0.8"/>
<path d="M134.794 270.688L137.764 274.265L142.444 264.248L134.794 270.688Z" fill="#E19895" fill-opacity="0.8"/>
<path d="M151.34 293.43L150.107 294.412L153.063 298.003L160.713 291.69L158.219 289.543L160.713 291.69L157.757 288.112L157.14 288.603L153.806 284.521L154.422 284.03L151.452 280.452L146.772 290.455L148.005 289.347L151.34 293.416V293.43L153.231 291.844L151.34 293.43Z" fill="#E19895" fill-opacity="0.8"/>
<path d="M151.452 280.452L143.803 286.751L146.773 290.455L151.452 280.452Z" fill="#E19895" fill-opacity="0.8"/>
<path d="M159.859 309.984L165.533 305.284L162.198 301.215L162.815 300.71L159.859 297.133H159.845H159.859L155.165 307.024L156.398 306.028L159.859 309.984Z" fill="#E19895" fill-opacity="0.8"/>
<path d="M169.105 308.385L166.513 306.14L169.105 308.385L166.149 304.793L165.532 305.284L159.858 309.984L158.499 311.092L161.455 314.684L169.105 308.385Z" fill="#E19895" fill-opacity="0.8"/>
<path d="M159.844 297.133L152.194 303.432L155.165 307.024L159.844 297.133Z" fill="#E19895" fill-opacity="0.8"/>
<path d="M177.498 325.066L180.09 329.022L178.241 324.813L177.498 325.066Z" fill="#E19895" fill-opacity="0.8"/>
<path d="M174.051 315.792L171.571 318.753L174.051 315.792L165.042 319.987L167.017 324.182L168.503 323.438L170.73 328.265L169.245 328.882L171.221 333.203L180.103 329.008L177.511 325.052L175.284 320.352L176.026 319.987L174.051 315.778V315.792ZM170.716 328.279L171.095 328.096L170.716 328.279Z" fill="#E19895" fill-opacity="0.8"/>
<path d="M191.074 343.978L189.098 339.769L188.482 340.148L191.074 343.978L188.482 340.148L181.701 343.234L188.482 340.148L186.268 335.322L184.909 330.748L186.268 335.322L186.885 334.957L184.909 330.748L176.026 334.957L177.876 339.152L184.713 330.973L177.876 339.152L179.473 338.534L181.701 343.234L180.089 343.978L182.065 348.173L191.074 343.978Z" fill="#E19895" fill-opacity="0.8"/>
<path d="M194.17 357.447L192.685 358.191L194.66 362.385L203.669 358.191L201.693 353.996L200.951 354.248L201.693 355.342L200.951 354.248L198.723 349.548L197.49 344.975L198.723 349.548L199.466 349.183L197.49 344.975L188.481 349.169L190.457 353.364L191.942 352.621L194.17 357.447ZM194.17 357.447L196.285 356.437L194.17 357.447Z" fill="#E19895" fill-opacity="0.8"/>
<path d="M223.298 379.08L219.711 376.232L222.807 379.698L223.298 379.08Z" fill="#E19895" fill-opacity="0.8"/>
<path d="M224.895 393.04L231.074 385.253L227.361 382.419L226.997 383.037L222.303 388.845L231.074 385.253L222.303 388.845L219.712 376.232L222.303 388.845L226.997 383.037L222.794 379.698L219.712 376.232L213.547 384.019L217.12 386.867L218.24 385.632L222.303 388.845L221.197 390.206L224.895 393.04Z" fill="#E19895" fill-opacity="0.8"/>
<path d="M237.112 406.523L243.291 398.849L239.704 395.888L239.214 396.506L234.52 402.314L243.291 398.849L234.52 402.314L239.214 396.506L235.151 393.166L235.641 392.549L231.928 389.701L225.764 397.488L229.462 400.336L231.928 389.701L233.077 395.271L231.928 389.701L229.462 400.336L230.457 399.101L234.52 402.314L233.54 403.675L237.112 406.523Z" fill="#E19895" fill-opacity="0.8"/>
<path d="M248.727 405.653L245.141 402.805L248.223 406.27L248.727 405.653Z" fill="#E19895" fill-opacity="0.8"/>
<path d="M256.503 411.826H256.489L252.79 408.992L252.426 409.609L247.732 415.417L256.503 411.826L247.732 415.417L245.14 402.805L247.732 415.417L252.426 409.609L248.223 406.27L245.14 402.805L238.976 410.591L242.548 413.439L243.655 412.205L247.732 415.417L246.625 416.778L250.324 419.612L256.503 411.826Z" fill="#E19895" fill-opacity="0.8"/>
<path d="M225.147 447.558L224.895 446.815L229.841 444.837L230.079 445.58L234.408 443.841L226.506 436.307L227.123 437.906L222.191 439.758L230.583 442.564L222.191 439.758H222.177L221.56 438.285L217.245 440.01L220.832 449.158L222.177 439.758V439.772L220.832 449.158L223.886 447.39L220.832 449.158L225.147 447.558Z" fill="#E19895" fill-opacity="0.8"/>
<path d="M226.507 436.307L234.409 443.841L230.822 434.693L226.507 436.307Z" fill="#E19895" fill-opacity="0.8"/>
<path d="M206.009 447.797L205.785 447.208L206.009 447.797L210.829 445.819L211.193 446.563L215.522 444.837L207.788 437.57L215.522 444.837L211.936 435.563L207.494 437.289L208.111 438.903L203.305 440.754L211.922 443.631L203.305 440.754L202.689 439.141L198.359 440.881L201.946 450.14L204.846 448.471L201.946 450.14L206.261 448.415L206.009 447.797Z" fill="#E19895" fill-opacity="0.8"/>
<path d="M196.874 446.816L188.987 439.268L189.477 440.755L184.657 442.733L193.288 445.609L184.657 442.733L184.041 441.119L179.726 442.859L183.298 452.119L185.806 450.603L183.298 452.119L187.628 450.393L187.375 449.649L186.773 448.106L187.375 449.649L192.195 447.798L192.559 448.541L196.874 446.816Z" fill="#E19895" fill-opacity="0.8"/>
<path d="M193.302 437.542L188.986 439.268L196.874 446.816L193.302 437.542Z" fill="#E19895" fill-opacity="0.8"/>
<path d="M187.123 440.138L186.017 440.629L186.885 441.372L187.123 440.138Z" fill="#E19895" fill-opacity="0.8"/>
<path d="M138.38 245.35L128.503 245.462V250.035H130.1V255.353L138.38 245.35Z" fill="#E19895" fill-opacity="0.8"/>
<path d="M130.1 255.353L138.38 260.053V255.353H137.638L137.918 257.12L137.638 255.353V250.035L138.156 246.753L137.638 250.035H138.38V245.35L130.1 255.353H128.503V260.053H138.38L130.1 255.353Z" fill="#E19895" fill-opacity="0.8"/>
</g>
<defs>
<clipPath id="clip0_848_87689">
<rect width="256" height="684" fill="white"/>
</clipPath>
</defs>
</svg>
