<svg width="60" height="88" viewBox="0 0 60 88" fill="none" xmlns="http://www.w3.org/2000/svg">
<g clip-path="url(#clip0_240_6250)">
<path fill-rule="evenodd" clip-rule="evenodd" d="M28.419 38.5884C30.142 37.2514 34.4679 36.6501 36.3069 37.9375C38.1233 39.2302 38.3213 41.3208 39.1677 43.244C39.9663 42.8602 41.2851 43.4098 41.5167 44.1649C41.8038 44.521 41.8167 45.5216 42.0148 46.0004C50.6313 47.398 51.9394 54.2433 52.9766 62.0146C54.3486 69.9005 57.4632 77.7692 56.1111 85.8839C56.2873 86.1437 56.4262 86.3962 56.5546 86.696C56.8624 87.2296 56.466 87.985 55.8452 87.9557C55.0417 87.8838 54.2462 87.7857 53.4389 87.755C51.2011 87.6758 48.9612 87.6852 46.7225 87.7142L46.4172 87.7183C35.1349 87.8614 23.8532 88.1434 12.5704 88.2182C12.1611 88.2188 11.9607 87.8448 12.0153 87.4757C12.1254 86.7328 12.2275 85.9895 12.3341 85.2462C9.66543 85.9645 6.82839 86.1452 4.16725 85.3218C3.98109 85.1285 4.601 85.2333 4.69935 85.2039C2.25028 83.4986 2.98166 79.9061 3.19861 77.3186C4.5476 68.4525 5.02317 58.6426 10.2352 51.0769C12.49 47.9894 15.7958 45.5449 19.5944 44.9948L19.6998 44.9801C20.8104 44.8292 22.0483 44.7806 23.0194 44.1649C24.1116 43.2764 24.5771 41.6347 25.7261 41.6194C26.1055 41.6143 26.6217 42.1034 27.1771 42.4355C27.2186 41.705 27.6049 41.0885 27.6902 40.522L27.6971 40.4736C27.7862 39.8132 27.6642 39.2191 28.419 38.5884ZM46.9367 62.2488C44.5152 60.5347 38.26 61.396 38.1168 61.4919C37.8015 61.7033 37.6657 61.722 37.4952 61.9964C37.3268 62.0191 37.1586 62.0427 36.9905 62.0671C36.6533 62.1793 36.9032 62.602 37.2927 62.4512C37.0584 63.4807 37.7479 64.2129 38.0224 65.2307C38.1115 65.5611 38.0256 66.1555 38.0224 66.4932C38.049 66.9237 38.5161 67.4322 38.4382 67.8642C38.1615 69.3998 36.6595 70.8977 37.2927 72.3869C37.7122 73.228 38.974 73.6569 39.8128 73.9428C41.5509 74.6225 44.5792 73.9172 45.589 72.3869C46.1276 71.5707 46.7516 69.5117 47.0728 68.873L47.144 67.8599C47.3195 65.3415 47.4757 62.6304 46.9367 62.2488Z" fill="white"/>
<path fill-rule="evenodd" clip-rule="evenodd" d="M25.3037 41.4711C25.4708 41.3203 25.7182 41.5098 25.612 41.7136C25.3732 42.1716 25.1284 42.6056 24.808 43.0104C24.6137 43.2559 24.4056 43.488 24.1948 43.7176C24.736 44.1947 25.2001 44.787 25.6384 45.3421C26.1988 46.052 26.7287 46.792 27.3578 47.4416C27.9782 48.0823 28.6643 48.5301 29.4938 48.8288L29.6613 48.8881C30.4947 49.1862 31.3853 49.5888 31.855 50.3927C31.9476 50.5513 31.7611 50.7472 31.6043 50.6482C30.7881 50.1333 29.8291 50.0297 28.9407 49.6894C28.0825 49.3607 27.3343 48.8549 26.6733 48.2092C26.0134 47.5647 25.4593 46.8313 24.8813 46.1135C24.3098 45.4037 23.6944 44.7975 23.0184 44.197C21.9752 44.9121 20.7843 45.2233 19.5735 45.5289L19.4413 45.5623C18.229 45.8681 17.0232 46.2233 15.8858 46.756C14.883 47.2255 13.8967 47.7862 13.0799 48.5502C12.2128 49.3611 11.538 50.3967 10.9203 51.4095C9.53862 53.6754 8.56726 56.1577 7.71211 58.6703C6.82269 61.2837 6.07874 63.9494 5.47816 66.6468C5.17271 68.0189 4.92463 69.4007 4.72074 70.7921C4.6226 71.4623 4.53541 72.1339 4.45884 72.807C4.3771 73.5257 4.35833 74.2652 4.14194 74.9563C4.04917 75.2524 3.83013 75.3754 3.61088 75.3649L3.56635 75.9324C3.5073 76.6891 3.45225 77.446 3.43366 78.2073C3.40281 79.4733 3.4168 80.7356 3.50616 81.9988L3.51882 82.1711C3.58904 83.093 3.74595 84.129 4.42631 84.804C5.1309 85.5032 6.21444 85.7231 7.16409 85.7357C9.37592 85.765 11.505 84.7001 13.4623 83.7658C15.478 82.8037 17.4387 81.7357 19.3524 80.5775C20.327 79.9876 21.291 79.3781 22.2428 78.7508C22.7098 78.4429 23.1736 78.1298 23.6338 77.8116C23.8975 77.6294 24.1473 77.4296 24.4157 77.2679C24.2842 77.1432 24.2255 76.947 24.3356 76.7757C23.5598 76.0895 23.2369 74.8649 23.1991 73.874C23.1686 73.0741 23.2841 72.2766 23.3753 71.4843C23.4213 71.0848 23.4781 70.686 23.5371 70.2882C23.5604 70.1311 23.5782 69.963 23.6054 69.7971C21.5105 70.9703 19.3568 72.015 17.1461 72.9431C16.0129 73.4189 14.8652 73.8467 13.7017 74.2387L13.4659 74.3177C12.3634 74.6855 11.2346 75.0328 10.0949 75.2431C10.0339 75.2543 9.98445 75.1626 10.0495 75.1334C11.1602 74.634 12.3094 74.2128 13.4367 73.7529L13.622 73.676V73.676C13.6007 73.6748 13.5786 73.6718 13.5556 73.6661C12.8944 73.5036 12.2384 73.253 11.59 73.042C10.9881 72.8462 10.312 72.7232 9.74943 72.4276C9.70615 72.4048 9.73037 72.3435 9.77253 72.3406C10.4048 72.2959 11.0912 72.4837 11.7111 72.5942L11.944 72.6357C12.3341 72.7058 12.7329 72.7812 13.1211 72.8795C13.1351 72.747 13.2078 72.6139 13.3112 72.5359C14.4487 71.6774 14.3332 69.9436 14.4549 68.6651L14.5451 67.7159C14.7038 66.0546 14.8716 64.3936 15.1267 62.7448C15.1403 62.6568 15.274 62.682 15.2745 62.7652C15.2877 64.809 15.1363 66.8435 15.0604 68.8841L15.0486 69.2189C15.0067 70.478 14.9738 71.7855 14.1955 72.7544C14.3044 72.6896 14.4515 72.6896 14.5397 72.7965C14.648 72.9278 14.7105 73.0754 14.7086 73.2201C15.4118 72.9197 16.112 72.6114 16.8088 72.2969C19.049 71.2856 21.2421 70.1538 23.3773 68.9293C23.6071 68.7975 23.8255 68.9011 23.9392 69.0748L23.9556 69.0724C23.9583 69.0721 23.9611 69.0718 23.9639 69.0717L23.9802 69.071C23.9808 69.071 23.9815 69.0711 23.982 69.0711C24.2826 68.9028 24.692 69.0226 24.95 69.2681C24.9576 69.2755 24.9641 69.2834 24.9708 69.2913C25.2974 69.1419 25.6023 68.9403 25.879 68.6847C26.4452 68.1618 26.9248 67.5151 27.3429 66.8667C28.1129 65.6725 28.767 64.3445 29.8071 63.3614C30.6522 62.5627 31.6999 62.0654 32.7991 61.7533C32.7945 61.7205 32.8068 61.6857 32.829 61.6625C32.8854 61.6035 32.9257 61.5831 32.9986 61.6189C33.0044 61.6218 33.0079 61.6258 33.0103 61.6301L33.1176 61.4433C33.1761 61.342 33.2362 61.2399 33.2571 61.2131C33.3819 61.053 33.5103 60.8941 33.6407 60.7385C33.8617 60.4752 34.1137 60.2152 34.4054 60.0326C35.0441 59.6328 35.7155 59.859 36.3721 60.0775C36.7689 60.2096 37.1643 60.346 37.5604 60.4801L37.6012 60.4937C37.8965 60.5903 38.2421 60.6749 38.3742 60.9937C38.4265 61.1199 38.4346 61.2509 38.4102 61.3779C41.2151 60.6511 44.3305 60.985 47.0677 61.8382C47.1727 61.871 47.2777 61.959 47.2998 62.0747C47.6134 63.7135 47.7531 65.3942 47.6112 67.061C47.4887 68.4998 47.1759 69.9098 46.5863 71.227L46.5528 71.3014C45.9988 72.5221 45.1206 74.027 43.7795 74.4096C42.9697 74.6406 42.0741 74.5044 41.2482 74.4621C40.4456 74.4209 39.6251 74.4149 38.8301 74.2863C38.122 74.1718 37.5016 73.8484 37.064 73.2617C36.6865 72.7556 36.4877 72.1439 36.3249 71.5354C36.2503 71.5595 36.1762 71.5852 36.1034 71.6143C35.7958 71.7367 35.5351 71.9343 35.2995 72.1668C34.8018 72.6579 34.4158 73.2543 33.8952 73.7229C33.4239 74.1471 32.8868 74.477 32.3107 74.7307C31.117 75.2562 29.8365 75.4663 28.5738 75.7448L28.4857 75.7644C27.5352 75.9769 26.5649 76.2379 25.7259 76.7422C25.7095 76.8906 25.6431 77.0303 25.5367 77.1218C25.6847 77.2634 25.7474 77.4877 25.6173 77.698C25.2541 78.2855 24.6284 78.6197 24.0667 78.9953L24.0302 79.0199C23.4776 79.3932 22.9203 79.7591 22.3584 80.1175C21.216 80.8462 20.0499 81.5349 18.8672 82.1933C16.965 83.2522 15.022 84.251 13.0438 85.157C13.1625 85.7523 13.1192 86.3661 13.2084 86.9653L13.2221 87.0508C13.2602 87.2731 13.2087 87.4592 13.0584 87.6045L13.0425 87.6194L13.0428 87.6174L13.0287 87.6305L13.0239 87.6345L13.0255 87.6333C13.0082 87.6495 12.9903 87.6645 12.9721 87.6774L12.9489 87.6926V87.6926C12.8041 87.7823 12.6177 87.7812 12.4694 87.7021L12.4525 87.6926L12.424 87.676C12.2282 87.5612 12.0931 87.2767 12.1744 87.0508C12.3741 86.4954 12.4495 85.9027 12.6339 85.3436L12.4876 85.4103V85.4103L12.2948 85.4959C10.2092 86.4149 7.89263 87.1887 5.62028 86.5623C4.61625 86.2854 3.67783 85.6997 3.17546 84.7451C2.68112 83.8057 2.61125 82.7151 2.585 81.6702C2.55261 80.3806 2.62046 79.0712 2.78736 77.7927C2.89939 76.9345 3.03488 76.06 3.24387 75.2107C3.13637 75.114 3.05735 74.9754 3.03648 74.8037C2.93785 73.9925 3.11047 73.1491 3.21615 72.3421C3.31939 71.5541 3.43345 70.7677 3.56244 69.9838C3.82287 68.4005 4.12547 66.8206 4.47776 65.256C5.10472 62.4712 5.93264 59.736 6.92942 57.0661L7.01671 56.8336C7.93778 54.3932 9.00425 52.0049 10.4893 49.8611C11.1996 48.8355 11.9506 47.9055 12.9543 47.1664C13.8947 46.4739 14.9554 45.9753 16.05 45.5942C17.1459 45.2128 18.2722 44.9573 19.4184 44.7983C20.5825 44.6368 21.8112 44.5378 22.8972 44.0513C22.7598 43.8004 22.8777 43.4616 23.1089 43.306C23.8869 42.7822 24.6063 42.1008 25.3037 41.4711ZM50.2095 64.2479C50.2421 64.1975 50.3195 64.2293 50.3052 64.289C49.9268 65.8687 49.5715 67.4516 49.3396 69.0614C48.9209 71.967 48.9979 74.9105 49.0321 77.8375L49.0339 77.9889C49.0514 79.5655 49.0759 81.1423 49.127 82.7183C49.1529 83.5148 49.204 84.3191 49.1762 85.116C49.161 85.5483 49.048 85.9573 49.0079 86.3844C48.9728 86.7579 49.0041 87.1371 49.0216 87.5111C49.0333 87.7598 48.6731 87.7492 48.6486 87.5111L48.6173 87.2032C48.5766 86.8135 48.5263 86.4262 48.401 86.0532C48.2503 85.6046 48.1779 85.164 48.1257 84.693C48.0456 83.9713 48.01 83.2423 47.9791 82.5154L47.9579 82.0127C47.8289 78.9752 47.8334 75.9235 48.0423 72.8892L48.0576 72.6725C48.2645 69.8043 48.6235 66.7054 50.2095 64.2479ZM42.1435 46.1709C42.0446 46.1295 42.0793 45.9772 42.1887 46.0037L42.3878 46.0521C43.8462 46.4081 45.2783 46.7938 46.6396 47.4562C48.0018 48.119 49.155 49.1084 50.0714 50.3251C51.8528 52.6902 52.593 55.5645 53.1774 58.4361C53.8268 61.627 54.4181 64.8295 55.0732 68.0194L55.1949 68.6136C55.801 71.5846 56.3733 74.5573 56.795 77.5634L56.8253 77.7815C57.2506 80.8728 57.5064 84.0712 57.0423 87.1706C56.9505 87.7838 55.9492 87.6311 55.9883 87.0253C56.1014 85.2739 56.1824 83.5317 56.1041 81.7764C56.0258 80.0207 55.8642 78.2727 55.6233 76.5324C55.4206 75.0679 55.1184 73.6216 54.851 72.1687L54.8091 71.9392C54.5852 70.7035 54.3543 69.4689 54.124 68.2343L53.7798 66.3859C53.2638 63.618 52.7378 60.8478 52.1435 58.0974L52.1082 57.9355C51.5266 55.2894 50.669 52.5176 48.9243 50.4163C47.1538 48.2838 44.6192 47.2099 42.1435 46.1709ZM35.71 74.2379C35.7526 74.1412 35.9016 74.1518 35.9474 74.2379C36.1268 74.5752 36.1467 75.0058 36.1806 75.3866L36.1842 75.4258C36.2273 75.8905 36.2655 76.3567 36.2889 76.8229C36.3332 77.7077 36.3544 78.5913 36.3517 79.4772C36.3489 80.3851 36.331 81.2919 36.283 82.1984L36.2699 82.4413C36.2261 83.2291 36.1526 84.1078 35.7852 84.7965C35.6517 85.047 35.2885 84.9733 35.2111 84.7201C34.9578 83.8911 35.0879 82.9081 35.1529 82.0589L35.2033 81.3964C35.2533 80.7337 35.3009 80.0708 35.3387 79.4074C35.3905 78.4998 35.4333 77.5913 35.4744 76.6832C35.4877 76.3883 35.5022 76.0932 35.5174 75.7983L35.5409 75.356C35.5609 74.986 35.5593 74.58 35.71 74.2379ZM7.22043 75.4129L7.33259 75.3025C7.67693 74.9591 8.11206 74.4303 8.6211 74.4631C8.82408 74.4762 8.95342 74.6479 8.91133 74.8514C8.82143 75.2864 8.38593 75.5122 8.07245 75.7777C7.72902 76.0686 7.40535 76.3795 7.08231 76.6934C6.79572 76.9717 6.5201 77.2579 6.25109 77.5531L6.15052 77.6642C6.05409 77.7714 5.36744 78.4043 5.44168 78.5685L5.44573 78.5759C5.46639 78.6073 5.43197 78.6505 5.3977 78.6395C5.10118 78.5441 5.11968 78.2851 5.23178 78.0227C5.44719 77.5185 5.8244 77.0521 6.1538 76.6216C6.48231 76.1921 6.83787 75.7922 7.22043 75.4129V75.4129ZM36.7845 62.7697C36.5552 62.2174 35.7105 62.229 35.231 62.262C34.0234 62.3452 32.7169 62.6565 31.6424 63.2317C30.5284 63.8279 29.7781 64.7833 29.1067 65.8398L29.0753 65.8894C28.4209 66.9259 27.7906 68.1529 26.7659 68.8656C26.244 69.2287 25.6346 69.5603 25.0013 69.7039C24.9579 69.7818 24.8874 69.8434 24.7951 69.8658L24.7521 69.8759C24.5718 69.9164 24.2916 69.9613 24.0496 69.9345C24.0512 70.0551 24.0499 70.1748 24.0529 70.2891C24.0615 70.6167 24.0651 70.9456 24.0651 71.2734C24.0652 71.9601 24.029 72.6482 24.0571 73.3349C24.082 73.9423 24.1662 74.5769 24.4524 75.1198C24.6623 75.5181 24.9394 75.7817 25.2738 76.0334C26.0965 75.5225 27.0267 75.2111 27.9709 74.9769C29.1127 74.6937 30.2818 74.5048 31.3977 74.1208C31.9347 73.9359 32.451 73.694 32.9189 73.3655C33.4154 73.0166 33.7946 72.5446 34.1848 72.0829L34.2458 72.0112C34.644 71.5458 35.0785 71.1005 35.6413 70.8482C36.1259 70.6308 36.7647 70.5921 37.1884 70.2558C37.41 70.0799 37.4286 69.8245 37.4519 69.5631C37.1805 69.6026 36.8932 69.5392 36.6227 69.5069L36.4826 69.4902C36.2268 69.4592 35.9769 69.4252 35.7251 69.3588C35.6783 69.3465 35.6783 69.2747 35.7251 69.2624C36.0227 69.1841 36.3176 69.1507 36.6227 69.1143L36.6944 69.1052C36.9704 69.0683 37.2605 69.0126 37.5312 69.0745C37.5798 68.8862 37.65 68.7064 37.7484 68.5263C37.8865 68.2733 38.1479 67.9864 38.1833 67.6909C38.1938 67.6026 38.1736 67.4986 38.1328 67.4205L38.1187 67.3939C38.1016 67.3625 38.0812 67.3309 38.0515 67.3113C38.0482 67.3153 38.0412 67.3197 38.0261 67.3246C37.8177 67.3914 37.6359 67.2875 37.5395 67.1273C37.13 67.1791 36.683 67.1617 36.299 67.179L35.9106 67.1981C35.4957 67.2175 35.062 67.226 34.6721 67.1406C34.6176 67.1287 34.6012 67.0364 34.6557 67.0126C35.135 66.8037 35.7165 66.7371 36.2296 66.6568C36.5163 66.6119 36.805 66.5778 37.0924 66.5383C37.2838 66.512 37.4869 66.4686 37.6852 66.4581C38.1824 65.8274 37.9145 64.8325 37.2226 64.5609C36.9705 64.6738 36.7439 64.6081 36.4685 64.584C36.1936 64.56 35.918 64.5437 35.642 64.5449C35.089 64.5474 34.5029 64.6956 33.9553 64.6318C33.8662 64.6214 33.7834 64.5006 33.872 64.4269C34.2912 64.0783 34.892 63.9646 35.4242 63.8903L35.5345 63.8753C35.7129 63.8515 35.9298 63.8167 36.1549 63.796C36.2058 63.6948 36.2971 63.6184 36.4342 63.5994C36.475 63.5937 36.516 63.5904 36.5569 63.5868L36.5562 63.5827V63.5827C36.8907 63.5663 36.8762 62.9906 36.7845 62.7697ZM13.8846 73.5403C13.8787 73.5496 13.8722 73.5584 13.8653 73.5669L13.8547 73.5794L13.9097 73.5567L13.8846 73.5403V73.5403ZM42.6215 61.5357C41.2136 61.3815 39.8037 61.414 38.3916 61.4554C38.2786 61.8318 37.8855 62.1526 37.5046 62.1647C37.8029 62.6274 37.8337 63.2536 37.6245 63.7443C38.0687 63.9245 38.4513 64.2481 38.6836 64.7091C39.0057 65.348 38.9636 66.059 38.6452 66.6495C38.917 66.9002 39.0773 67.3072 39.0612 67.6909C39.0433 68.1187 38.7931 68.4842 38.5851 68.8384C38.3604 69.2215 38.3529 69.5588 38.2839 69.9878C38.1829 70.6157 37.7672 70.9966 37.2325 71.2344L37.2609 71.3484C37.3988 71.8952 37.5703 72.4722 37.9644 72.8721C38.4713 73.3865 39.2576 73.3817 39.9274 73.4143L39.9597 73.4159C40.5729 73.4472 41.1859 73.4838 41.7989 73.5192L42.2587 73.5454C42.9646 73.5849 43.6424 73.5897 44.2186 73.1142C45.1594 72.338 45.8043 71.0535 46.2125 69.9164C47.0692 67.5296 47.0795 64.9103 46.6862 62.4246C45.3673 61.9914 43.9988 61.6865 42.6215 61.5357ZM30.913 65.4955L30.9233 65.4962C31.2132 65.53 31.4124 65.7692 31.4833 66.0529C31.5863 66.4653 31.5358 66.8381 31.7836 67.2104C32.0386 67.5932 32.1954 67.8997 32.2325 68.3727C32.2477 68.5673 32.2407 68.7614 32.2832 68.9519L32.314 69.0853C32.3468 69.2276 32.3735 69.3647 32.3573 69.5175C32.3424 69.6568 32.2758 69.7654 32.1386 69.81C31.6917 69.9557 31.3466 69.6201 31.2311 69.1957C31.1314 68.8291 31.2646 68.3922 31.1239 68.048C31.0459 67.8571 30.9021 67.6975 30.8208 67.5054C30.7404 67.315 30.7 67.116 30.687 66.9091C30.6625 66.5176 31.0023 66.0472 30.8128 65.6925C30.7724 65.6168 30.8181 65.4932 30.913 65.4955ZM24.9761 61.4555C25.2788 61.3929 25.6221 61.2493 25.9206 61.3686C26.074 61.4301 26.1498 61.6207 26.0202 61.7532C25.7952 61.9831 25.4681 61.9959 25.1649 62.0501L25.1383 62.055C24.7798 62.1226 24.4208 62.1867 24.0612 62.2474C23.3848 62.3616 22.7067 62.4625 22.0263 62.5483C21.3274 62.6364 20.6266 62.7149 19.9248 62.7739L19.6531 62.7966C19.0603 62.8449 18.4435 62.8814 17.8618 62.7888C17.7773 62.7754 17.7909 62.65 17.8618 62.628C18.499 62.4315 19.198 62.3788 19.8568 62.2956C20.5572 62.2071 21.2564 62.1135 21.9538 62.0026C22.6501 61.8918 23.3455 61.7728 24.0382 61.6414C24.3514 61.5821 24.664 61.5201 24.9761 61.4555ZM35.897 60.8245C35.6314 60.7287 35.3392 60.5868 35.0514 60.6343C34.5551 60.7162 34.1134 61.2089 33.7205 61.5334L33.9178 61.4943C34.9271 61.2967 36.2637 61.0837 37.1109 61.7376C37.1131 61.7338 37.1147 61.7301 37.1172 61.7263C37.1856 61.6205 37.2648 61.5379 37.3513 61.4473C37.3596 61.4394 37.3676 61.4312 37.3754 61.4228L37.4221 61.3722L37.3154 61.3345C37.0868 61.2522 36.816 61.1459 36.7732 61.1304L36.7702 61.1293C36.4788 61.0287 36.187 60.9293 35.897 60.8245ZM27.6044 39.2674C27.5628 38.7231 28.3942 38.7276 28.4354 39.2674C28.5253 40.446 28.265 41.6134 27.7047 42.6467C27.7006 42.6543 27.6961 42.6609 27.6917 42.6681C28.0422 42.8538 28.3965 43.0321 28.7588 43.1914C29.2222 43.3953 29.6944 43.5809 30.175 43.7384C30.6097 43.8809 31.1453 43.9372 31.5108 44.2338C32.2814 44.8592 31.9919 46.157 31.8436 46.9982L31.8205 47.131C31.7467 47.5639 31.6933 48.008 31.8724 48.4235C32.0637 48.8672 32.4504 49.1964 32.7955 49.5139L32.8652 49.5783C33.1708 49.8621 33.5201 50.2069 33.7443 50.5915C33.9489 50.1603 34.2279 49.808 34.5229 49.4113C34.7334 49.1282 34.5836 49.0349 34.4324 48.7583C34.2869 48.4922 34.2158 48.2084 34.2613 47.9048C34.3453 47.344 34.7851 46.9389 35.2229 46.6346C35.7399 46.2753 36.317 46.0092 36.8515 45.6749C37.9497 44.9883 39.0193 44.2031 39.9829 43.3312C40.0095 43.3071 40.0556 43.3387 40.0343 43.3716C39.2731 44.5514 38.3805 45.5709 37.2836 46.4362C36.8388 46.7871 36.3716 47.0782 35.9012 47.3841L35.766 47.4725C35.5771 47.5972 35.3415 47.7638 35.2561 47.9761C35.1702 48.1895 35.3534 48.3507 35.4521 48.5275C35.7653 49.089 35.6142 49.613 35.2429 50.0892L35.2256 50.1111C34.8566 50.5744 34.577 51.0053 34.4432 51.5973C34.1559 52.8688 34.5561 54.1933 34.9751 55.387L34.9917 55.4341C35.2183 56.0775 35.4592 56.7162 35.6561 57.37L35.7103 57.5507C35.8887 58.1522 36.0348 58.7455 35.8347 59.3638C35.7666 59.5742 35.4851 59.6239 35.3682 59.4259C34.9557 58.7279 34.8529 57.8878 34.5943 57.1204C34.3424 56.3724 34.053 55.6379 33.8096 54.8869C33.4962 53.9199 33.2865 52.879 33.4003 51.8647C33.397 51.8588 33.3933 51.8533 33.3905 51.847L33.3107 51.6692C33.0931 51.1877 32.883 50.7671 32.4874 50.3833C32.0747 49.9829 31.6268 49.6285 31.3021 49.1438C30.5967 48.0911 31.0329 46.9199 31.1181 45.7688L31.1279 45.6277C31.1434 45.3887 31.1518 45.0638 30.9986 44.8984C30.8263 44.7122 30.4221 44.6647 30.1935 44.5823C29.6025 44.3692 29.0201 44.1208 28.4655 43.8227C27.9375 43.5389 27.4261 43.2253 26.9499 42.858L26.7085 42.673C26.3277 42.3802 25.9328 42.0605 25.6776 41.6619C25.6481 41.6161 25.6982 41.542 25.7515 41.564C26.1776 41.7402 26.5669 42.0204 26.9655 42.2643C26.9717 42.2494 26.9789 42.2344 26.9871 42.2193C27.4803 41.3097 27.6832 40.302 27.6044 39.2674ZM41.2146 45.4993C41.3844 45.025 42.1581 45.0616 42.1272 45.6252C42.1036 46.0582 41.9231 46.449 41.7582 46.8422L41.7406 46.8843C41.5703 47.294 41.3736 47.6786 41.1382 48.054C40.6884 48.7716 40.1617 49.4377 39.599 50.0663C39.0889 50.6361 38.4193 50.9846 37.6478 50.9267C37.3227 50.9023 36.9946 50.818 36.7097 50.6526C36.3714 50.456 36.004 49.8657 35.5723 50.0086C35.5306 50.0224 35.4916 49.9601 35.5277 49.9306C36.026 49.5217 36.5916 50.1557 37.0687 50.3085C37.7876 50.5386 38.5253 50.2842 38.9881 49.692C39.4712 49.0737 39.9158 48.3814 40.3218 47.7081C40.528 47.3663 40.7162 47.0115 40.8787 46.6458C41.0426 46.2768 41.0799 45.8757 41.2146 45.4993ZM40.0558 42.5801C40.0349 42.5145 40.1147 42.4522 40.1712 42.4897C40.4986 42.7069 40.7824 42.9939 41.0844 43.2455C41.4195 43.5246 41.7571 43.798 42.0999 44.0672C42.5996 44.4598 42.02 45.1824 41.5801 44.7536C40.9782 44.167 40.3189 43.4 40.0558 42.5801ZM38.258 40.2841C38.3911 39.7614 39.1779 39.9769 39.0632 40.4935L39.0594 40.5093C38.8423 41.3626 39.1516 42.2313 39.8118 42.7845L39.8361 42.8046C40.2538 43.1452 39.6621 43.7407 39.2485 43.4033C38.3456 42.667 37.97 41.4162 38.258 40.2841Z" fill="black"/>
<path fill-rule="evenodd" clip-rule="evenodd" d="M44.8458 27.6232C44.6955 26.2778 44.89 23.4657 44.903 23.2948C44.9854 22.2148 44.4888 17.9497 43.5499 18.3427C41.975 17.0723 39.8774 16.7917 37.916 16.6577C33.8418 16.3793 29.5076 17.0184 26.3616 19.8123C24.8058 21.2633 23.2912 23.3736 23.4129 25.5709C21.9993 27.6536 20.0066 30.5107 21.7678 32.9456C22.3665 33.7235 23.3179 34.0132 24.07 34.6024C25.5828 35.8457 26.5318 37.63 28.0589 38.8659C32.1047 42.5705 38.9744 43.3444 42.9493 39.1307C46.0231 36.0791 45.5261 31.5136 44.9854 27.6232C44.6219 25.0076 45.1389 30.2479 44.8458 27.6232Z" fill="white"/>
<path fill-rule="evenodd" clip-rule="evenodd" d="M32.4736 10.9525C33.5632 10.7284 34.682 10.589 35.7948 10.631L35.8806 10.6344C36.7178 10.6685 37.778 10.7439 38.5084 11.24C38.5504 11.197 38.618 11.175 38.6793 11.2048C39.5472 11.6269 40.5018 11.9321 41.4157 12.2354C42.3253 12.5372 43.269 12.7364 44.2225 12.8167C44.5812 12.847 44.8882 13.2417 44.661 13.5957C44.607 13.68 44.5544 13.7652 44.502 13.8507C44.5896 13.8413 44.6773 13.8317 44.765 13.8227C45.0535 13.7931 45.3417 14.1069 45.3246 14.3931C45.3139 14.5731 45.2948 14.751 45.2666 14.9268C45.3765 14.9244 45.4857 14.9412 45.5913 14.9867C46.1257 15.2166 46.0885 15.8652 46.0485 16.3587C45.9931 17.0435 45.7417 17.7689 45.275 18.2814C45.6235 18.6502 45.8701 19.0907 46.0173 19.6138C46.124 19.9957 46.1834 20.4026 46.1541 20.8002L46.1448 20.9192C46.1085 21.3507 46.0364 21.8284 45.7318 22.1388C45.5754 22.2988 45.3828 22.3572 45.1991 22.3387C45.3102 23.333 45.3814 24.3331 45.4484 25.3296L45.4798 25.8059C45.6293 28.109 45.7416 30.4271 45.7123 32.7341C45.685 34.8899 45.2669 36.9825 43.9693 38.733C42.7875 40.327 41.0907 41.502 39.1711 41.9487C38.1366 42.1898 37.0805 42.2069 36.0335 42.0533C35.526 41.9786 35.0151 41.8641 34.5334 41.6834C34.0002 41.4828 33.6169 41.1876 33.2582 40.7452C33.0885 40.5354 33.1701 40.0887 33.508 40.1307C34.0191 40.1938 34.4856 40.2699 34.9756 40.4239L35.0457 40.4465C35.5337 40.6058 36.0391 40.7246 36.5493 40.7751C37.5943 40.8782 38.6552 40.7744 39.6562 40.4515C41.2861 39.9251 42.6898 38.7522 43.5896 37.2784C44.6575 35.5315 44.7783 33.5485 44.7629 31.5398C44.7463 29.3357 44.676 27.1302 44.5612 24.9284L44.5416 24.5614C44.4809 23.4284 44.4222 22.2946 44.3707 21.1608C44.3546 20.8051 44.3302 20.4467 44.2861 20.0917C43.8834 19.8513 43.5226 19.5199 43.2873 19.1109C42.8148 19.31 42.3178 19.4537 41.8605 19.5682C40.8013 19.8337 39.7017 19.8981 38.6236 19.7319C38.3328 19.8543 38.0362 19.9619 37.7351 20.0545C37.6537 20.0913 37.5723 20.1274 37.491 20.1629C36.7649 20.4794 36.0285 20.7475 35.2622 20.9438L35.0739 20.9917C34.6706 21.093 34.2325 21.1928 33.8033 21.2241C33.7328 21.2518 33.6567 21.2753 33.5736 21.2959C33.1828 21.3927 32.7771 21.4233 32.3766 21.3891C31.9863 21.3557 31.7043 20.9538 31.9193 20.5775C32.0763 20.303 32.2349 20.0291 32.3947 19.756C31.8384 19.9922 31.2639 20.1885 30.6845 20.3549C30.0996 20.5228 29.5063 20.6643 28.9122 20.7945C28.5946 20.8635 28.2757 20.9246 27.9588 20.9936C27.7319 21.0427 27.3836 21.0683 27.1986 21.2205C26.9941 21.3877 26.9362 21.7775 26.8586 22.0179C26.7567 22.3301 26.6611 22.6438 26.5738 22.961C26.4001 23.5941 26.2577 24.2364 26.1474 24.8851C26.0371 25.5345 25.9631 26.1903 25.9219 26.8482C25.8808 27.5054 25.8988 28.1669 25.8326 28.8213C25.7969 29.1684 25.4312 29.3469 25.1611 29.1044C25.1294 29.0759 25.0975 29.0472 25.0658 29.0181L25.0187 28.9742C24.7876 28.7608 24.5635 28.5346 24.3786 28.28C24.3451 28.2331 24.313 28.184 24.283 28.1342C24.2781 28.1342 24.2739 28.1328 24.269 28.1292L24.2178 28.0899C23.6532 27.6617 22.7101 27.1035 22.1596 27.8148C21.9842 28.0414 21.8944 28.33 21.8199 28.6084L21.6891 29.1066C21.6045 29.4318 21.5249 29.7589 21.4783 30.0916C21.3729 30.8371 21.4259 31.6963 21.9293 32.2938C22.1303 32.5328 22.4074 32.7035 22.7166 32.7483C22.889 32.7725 23.0594 32.7426 23.2304 32.7205C23.4042 32.6985 23.5716 32.7341 23.7455 32.717C24.0219 32.6892 24.1427 33.0264 24.0394 33.2384C23.9835 33.3522 23.9179 33.4503 23.8432 33.5335C23.9032 33.5862 23.9605 33.6431 24.0157 33.7028C24.179 33.7562 24.3255 33.8707 24.4352 34.0222C24.5238 34.1445 24.5698 34.2775 24.5776 34.4177C24.5873 34.4525 24.5956 34.4881 24.6034 34.5243L24.7531 34.772C24.7861 34.8263 24.8189 34.88 24.8518 34.9326C25.2329 35.5443 25.656 36.0621 26.1816 36.5501C26.6877 37.0195 27.237 37.4399 27.7124 37.9435L27.7684 38.0033C28.2116 38.4792 28.6788 39.0553 28.5053 39.7473C28.4607 39.9251 28.217 40.0531 28.0579 39.9329C27.5462 39.546 27.2886 38.9329 26.8545 38.4634C26.4077 37.9798 25.9128 37.5452 25.4647 37.0629C25.041 36.6077 24.7066 36.092 24.4547 35.5244C24.3541 35.6375 24.2076 35.7179 24.0045 35.7492C23.6555 35.8025 23.3301 35.5941 23.178 35.2861C23.0802 35.3302 22.9805 35.3701 22.8799 35.4014C22.3508 35.5664 22.0179 34.9668 22.2175 34.5236C22.3243 34.2861 22.4576 34.0798 22.6231 33.9062C22.1058 33.8337 21.5795 33.5613 21.2395 33.2213C20.3866 32.367 20.2694 31.0832 20.4613 29.9416C20.5632 29.3363 20.7391 28.7238 20.9674 28.1555C21.0071 28.0567 21.0498 27.9571 21.0965 27.8589C21.0706 27.8582 21.0441 27.8468 21.0274 27.8248C20.8731 27.61 20.6854 27.4343 20.5708 27.1939C20.4654 26.9734 20.3482 26.75 20.2651 26.5203C20.0942 26.0501 20.0104 25.5195 19.9546 25.0223C19.8394 24.0045 19.884 22.993 20.0369 21.9816C20.2972 20.2589 20.926 18.6103 21.8523 17.1637C21.8019 17.1367 21.7536 17.1041 21.7085 17.0655L21.6863 17.0457L21.6501 17.0125C21.3858 16.7687 21.4086 16.3118 21.6501 16.065L21.7264 15.987C21.823 15.8893 21.9063 15.8118 22.0623 15.7053C22.0853 15.6896 22.1089 15.6748 22.1327 15.661C22.051 15.5072 22.0227 15.3274 22.0795 15.129C22.2778 14.438 23.2536 14.4624 23.8721 14.7638C24.5564 14.1415 25.3152 13.6013 26.1376 13.1638C28.0963 12.1225 30.311 11.3963 32.4736 10.9525ZM22.3488 29.1542C22.7146 29.0325 23.2004 29.2879 23.5291 29.4415C23.9459 29.6364 24.3005 29.9245 24.6439 30.2289C24.8149 30.3811 24.8455 30.6301 24.803 30.8428C24.7988 30.8641 24.7947 30.8861 24.7897 30.9082C24.7443 31.1351 24.4958 31.3136 24.276 31.3072C23.816 31.2944 23.5969 30.8897 23.3364 30.5469C23.3058 30.6023 23.2674 30.6536 23.2199 30.692L23.1878 30.7176C23.0797 30.8014 22.9606 30.8684 22.8178 30.862C22.7166 30.857 22.6196 30.8307 22.5302 30.783C22.3068 30.6628 22.2085 30.3683 22.2692 30.1286C22.3068 29.9778 22.3934 29.8598 22.5065 29.778L22.4643 29.7486C22.3741 29.6846 22.2919 29.6172 22.2278 29.5177L22.2133 29.4942H22.2189C22.1491 29.3718 22.1945 29.2054 22.3488 29.1542Z" fill="black"/>
<path fill-rule="evenodd" clip-rule="evenodd" d="M44.04 30.6385C42.9924 31.1526 41.5309 30.3943 40.8265 29.6C40.5702 29.3108 40.3723 28.4834 40.471 27.9586C40.7381 26.5374 41.7419 25.6844 42.8015 25.3931C44.2704 24.9893 45.7487 26.0124 45.5764 27.2197C45.413 28.3639 45.1654 30.0237 44.04 30.6385M36.9097 27.9084C36.8257 29.4573 35.6051 30.8129 34.1462 31.2145C31.7957 31.8829 30.634 30.1992 30.1079 28.3854C30.0556 28.2051 29.9327 27.655 30.2625 27.1831C31.5596 25.3271 34.7156 25.6434 36.2918 26.153C36.7532 26.6026 36.9418 27.2515 36.9097 27.9084M45.1782 25.2371C45.1775 25.238 45.1767 25.2388 45.176 25.2397C45.1706 25.2364 45.1653 25.233 45.1598 25.2297C45.1659 25.2322 45.1723 25.2344 45.1782 25.2371M47.1448 25.4161C47.0083 23.8392 42.1526 24.443 41.5849 24.5722C40.0356 25.0366 38.6974 26.2998 36.9652 25.7445C35.1704 23.7058 29.1263 24.2904 27.8593 25.329C27.6194 25.2331 27.3278 25.2845 27.0188 25.375C25.4319 25.3166 18.1875 25.874 19.6693 27.9378C19.8942 28.0968 20.1189 27.935 20.1251 27.6076C27.8496 24.7662 27.1009 27.4276 28.0169 27.1168C28.1568 27.1578 28.3028 27.1838 28.4304 27.2111C29.1395 27.4435 29.3802 27.3717 29.4736 28.1828C30.1153 34.4457 38.3 32.2841 37.6287 27.1469C38.2934 27.1097 38.8747 26.8168 39.5776 27.1028C40.0656 31.9421 43.8873 32.1374 45.0374 30.4599C45.9047 29.2955 45.5608 27.5384 46.753 26.6224C47.2236 27.0237 47.2539 25.6693 47.1448 25.4161" fill="black"/>
<path fill-rule="evenodd" clip-rule="evenodd" d="M41.0795 34.7233C40.8492 35.0302 40.4321 35.2653 39.965 35.3777C39.5199 35.4848 39.028 35.4804 38.6035 35.3156L38.567 35.3008C38.2496 35.1665 37.945 34.8952 37.8293 34.6122C37.7833 34.4996 37.7677 34.3853 37.7992 34.2785C37.8275 34.1825 37.8939 34.0941 38.0045 34.0182C38.0392 33.9944 38.0857 33.9927 38.1301 34.0006C38.1852 34.0105 38.2394 34.0368 38.2721 34.0722C38.4538 34.269 38.7173 34.4609 39.0292 34.4576C39.2698 34.4551 39.4663 34.3583 39.6569 34.2488L39.7908 34.1707C39.92 34.0956 40.051 34.025 40.1993 33.9927C40.4647 33.935 40.7865 34.0405 40.9827 34.2146C41.0682 34.2905 41.1304 34.3797 41.1472 34.4758C41.1614 34.5565 41.1415 34.6408 41.0795 34.7233ZM39.6998 29.3563C40.2269 29.6828 41.03 30.4441 40.463 31.2535C39.7955 31.9672 38.8345 31.1489 38.3609 30.7788C37.9218 30.492 37.4285 31.2297 37.8359 31.5646C41.2578 34.1462 42.6465 29.4417 39.9664 28.9725C39.6713 28.9208 39.5617 29.2553 39.6998 29.3563ZM33.7532 24.3385L33.9047 24.2962L34.0591 24.2538L34.1635 24.2256C34.8807 24.0343 35.6717 23.866 36.3829 23.9482C36.6423 23.9782 36.8529 24.1269 36.8896 24.4038C36.9205 24.6375 36.7723 24.9389 36.5201 24.9805C35.6848 25.1182 34.8296 25.0735 33.9905 25.2155C33.5726 25.2861 33.1579 25.3738 32.7416 25.4528C32.425 25.513 32.0979 25.5341 31.7787 25.5828L31.852 25.5932C31.8777 25.5967 31.8713 25.6407 31.8459 25.639C31.7407 25.6283 31.6353 25.6266 31.5298 25.6341L31.4845 25.6379C31.4156 25.6478 31.375 25.564 31.4364 25.5215C31.8254 25.2525 32.1555 24.961 32.5911 24.7628C32.9678 24.5914 33.3556 24.4501 33.7532 24.3385ZM40.2825 23.9261C40.8339 23.358 42.0066 23.5763 42.6626 23.8362C43.037 23.9845 43.393 24.1721 43.6895 24.4527L43.7184 24.4803L43.7629 24.5239C43.9631 24.7236 44.1863 24.9984 44.1545 25.2863C44.1497 25.3301 44.1262 25.3803 44.0776 25.3891C43.8149 25.4366 43.5568 25.2953 43.3142 25.2103L43.1535 25.1541C42.9122 25.0703 42.6693 24.9903 42.4206 24.9325C42.1112 24.8608 41.7956 24.8194 41.478 24.8235C41.157 24.8278 40.8122 24.9201 40.5064 24.7902C40.1653 24.6455 39.9885 24.2289 40.2825 23.9261ZM34.8347 28.5073C34.694 28.6537 34.5082 28.7363 34.2703 28.6871C34.0845 28.6488 33.7307 28.4584 33.448 28.1651C33.2547 27.9645 33.093 27.7139 33.049 27.4235C33.0388 27.3561 33.0037 27.3128 32.9576 27.2856C32.9212 27.2641 32.8732 27.2533 32.8209 27.2587C32.7765 27.2633 32.7293 27.2797 32.6929 27.3014C32.6236 27.3427 32.5952 27.4014 32.5895 27.4452C32.5339 27.8679 32.6941 28.2874 32.9439 28.6411C33.281 29.1184 33.7761 29.4682 34.0671 29.5501C34.565 29.6903 35.0897 29.5787 35.4766 29.2255C35.7859 28.9431 35.9445 28.5752 36.0916 28.1969L36.12 28.1236C36.1531 28.0378 36.1859 27.9526 36.2207 27.8683C36.2904 27.6993 36.2681 27.5533 36.2005 27.4395C36.1256 27.3134 35.9873 27.2247 35.8334 27.1974C35.6912 27.1722 35.5389 27.1998 35.4187 27.2883C35.3172 27.3631 35.2353 27.4816 35.2063 27.6569C35.159 27.9419 35.0492 28.2688 34.8557 28.4846L34.8347 28.5073ZM43.3732 26.8578C43.2572 26.7962 43.1664 26.7777 43.0377 26.817C42.9665 26.8387 42.8962 26.8805 42.8411 26.9366C42.7865 26.9922 42.7471 27.0614 42.7318 27.1381C42.6942 27.3275 42.5925 27.5047 42.4476 27.6203C42.3238 27.7191 42.1674 27.7714 41.9941 27.7419C41.807 27.7101 41.6287 27.5878 41.5059 27.4436C41.4717 27.4034 41.4437 27.3587 41.4166 27.3134L41.4004 27.2862C41.3399 27.1844 41.2811 27.0898 41.1977 27.0151C41.1661 26.9867 41.1184 26.967 41.0723 26.967C41.0535 26.967 41.0345 26.9701 41.0163 26.9758C40.8301 27.1663 40.7943 27.3108 40.8003 27.4541C40.8066 27.6044 40.8647 27.7565 40.9587 27.8985C41.1791 28.2315 41.5976 28.5046 41.88 28.5664C42.2667 28.6511 42.6508 28.5494 42.9587 28.3293C43.2756 28.1029 43.5103 27.7512 43.5835 27.355C43.6012 27.2595 43.5937 27.1565 43.558 27.0672C43.5231 26.9799 43.4624 26.9052 43.3732 26.8578Z" fill="black"/>
</g>
<defs>
<clipPath id="clip0_240_6250">
<rect width="56" height="78" fill="white" transform="translate(2 10)"/>
</clipPath>
</defs>
</svg>
