<svg width="72" height="98" viewBox="0 0 72 98" fill="none" xmlns="http://www.w3.org/2000/svg">
<path fill-rule="evenodd" clip-rule="evenodd" d="M35.0598 42.0819C36.629 40.8477 40.5686 40.2927 42.2434 41.481C43.8977 42.6743 44.078 44.6041 44.8488 46.3793C45.5761 46.0251 46.7772 46.5324 46.9881 47.2294C47.2496 47.5581 47.2613 48.4818 47.4417 48.9237C55.2888 50.2138 56.4802 56.5325 57.4247 63.706C58.6742 70.9853 61.5108 78.2487 60.2794 85.7392C60.4398 85.9789 60.5663 86.212 60.6833 86.4888C60.9636 86.9814 60.6026 87.6786 60.0372 87.6516C59.3055 87.5852 58.581 87.4946 57.8458 87.4663C55.8078 87.3932 53.7679 87.4019 51.7291 87.4287L51.4511 87.4324C41.1761 87.5646 30.9017 87.8249 20.6263 87.8939C20.2535 87.8945 20.071 87.5492 20.1208 87.2086C20.2211 86.5228 20.3141 85.8367 20.4111 85.1506C17.9807 85.8136 15.397 85.9804 12.9735 85.2203C12.8039 85.0419 13.3685 85.1386 13.4581 85.1115C11.2277 83.5374 11.8938 80.2213 12.0913 77.8328C13.3199 69.6486 13.753 60.5934 18.4997 53.6097C20.5532 50.7597 23.5637 48.5032 27.0231 47.9955L27.1191 47.9819C28.1306 47.8426 29.258 47.7977 30.1424 47.2294C31.1371 46.4093 31.5609 44.8939 32.6074 44.8797C32.9529 44.875 33.423 45.3265 33.9288 45.633C33.9666 44.9587 34.3185 44.3896 34.3962 43.8668L34.4024 43.8221C34.4835 43.2125 34.3725 42.6641 35.0598 42.0819ZM51.9241 63.9222C49.7188 62.3399 44.0222 63.135 43.8918 63.2236C43.6046 63.4186 43.481 63.4359 43.3257 63.6892C43.1723 63.7102 43.0191 63.732 42.866 63.7544C42.5589 63.8581 42.7865 64.2482 43.1412 64.109C42.9279 65.0593 43.5558 65.7352 43.8057 66.6747C43.8869 66.9797 43.8087 67.5284 43.8057 67.8401C43.83 68.2375 44.2554 68.7069 44.1845 69.1056C43.9324 70.5231 42.5645 71.9058 43.1412 73.2804C43.5233 74.0568 44.6724 74.4527 45.4364 74.7167C47.0192 75.3441 49.7771 74.693 50.6968 73.2804C51.1873 72.527 51.7556 70.6264 52.0481 70.0368L52.1129 69.1017C52.2728 66.777 52.415 64.2744 51.9241 63.9222Z" fill="white"/>
<path fill-rule="evenodd" clip-rule="evenodd" d="M32.2227 44.7425C32.3749 44.6032 32.6002 44.7782 32.5035 44.9663C32.2861 45.3891 32.0631 45.7897 31.7713 46.1634C31.5944 46.39 31.4049 46.6043 31.2128 46.8162C31.7057 47.2566 32.1284 47.8033 32.5275 48.3157C33.0379 48.971 33.5205 49.6541 34.0934 50.2537C34.6585 50.8451 35.2833 51.2585 36.0387 51.5342L36.1913 51.5889C36.9502 51.8641 37.7613 52.2357 38.1891 52.9778C38.2735 53.1242 38.1036 53.305 37.9608 53.2136C37.2175 52.7383 36.3441 52.6427 35.535 52.3286C34.7534 52.0252 34.0721 51.5582 33.4701 50.9623C32.8691 50.3673 32.3645 49.6904 31.8381 49.0278C31.3176 48.3726 30.7572 47.813 30.1415 47.2587C29.1914 47.9188 28.1069 48.206 27.0042 48.4882L26.8838 48.5189C25.7797 48.8013 24.6816 49.1292 23.6457 49.6208C22.7325 50.0542 21.8343 50.5718 21.0904 51.277C20.3007 52.0255 19.6861 52.9815 19.1236 53.9164C17.8653 56.0079 16.9807 58.2993 16.2019 60.6186C15.3919 63.031 14.7143 65.4916 14.1674 67.9815C13.8892 69.248 13.6633 70.5236 13.4776 71.808C13.3882 72.4266 13.3088 73.0465 13.2391 73.6678C13.1646 74.3313 13.1475 75.0139 12.9505 75.6518C12.866 75.9252 12.6665 76.0386 12.4668 76.029L12.4263 76.5528C12.3725 77.2513 12.3224 77.95 12.3054 78.6528C12.2773 79.8213 12.2901 80.9865 12.3715 82.1526L12.383 82.3116C12.4469 83.1626 12.5898 84.1189 13.2094 84.742C13.8511 85.3874 14.8379 85.5904 15.7028 85.602C17.7171 85.6291 19.6561 84.6461 21.4386 83.7837C23.2744 82.8956 25.06 81.9097 26.8028 80.8406C27.6904 80.2961 28.5683 79.7335 29.4351 79.1544C29.8604 78.8702 30.2828 78.5812 30.702 78.2875C30.9421 78.1193 31.1696 77.9349 31.414 77.7856C31.2943 77.6705 31.2408 77.4894 31.3411 77.3313C30.6345 76.6978 30.3405 75.5674 30.3061 74.6528C30.2783 73.9145 30.3835 73.1782 30.4665 72.4469C30.5084 72.0781 30.5602 71.71 30.6139 71.3428C30.6351 71.1978 30.6513 71.0426 30.6761 70.8895C28.7682 71.9724 26.8068 72.9368 24.7935 73.7935C23.7615 74.2327 22.7163 74.6276 21.6567 74.9894L21.4419 75.0624C20.4379 75.4018 19.4098 75.7224 18.3719 75.9165C18.3164 75.9269 18.2713 75.8423 18.3306 75.8153C19.3421 75.3543 20.3886 74.9655 21.4153 74.5409L21.5841 74.47C21.5647 74.4689 21.5446 74.4661 21.5236 74.4609C20.9215 74.3108 20.324 74.0795 19.7335 73.8848C19.1854 73.704 18.5696 73.5905 18.0573 73.3176C18.0179 73.2966 18.0399 73.24 18.0783 73.2373C18.6541 73.1961 19.2792 73.3694 19.8438 73.4714L20.0559 73.5098C20.4111 73.5745 20.7743 73.644 21.1279 73.7348C21.1407 73.6124 21.2068 73.4896 21.301 73.4176C22.337 72.6252 22.2318 71.0247 22.3426 69.8445L22.4247 68.9683C22.5693 67.4349 22.7221 65.9017 22.9544 64.3797C22.9668 64.2985 23.0886 64.3218 23.0891 64.3985C23.101 66.2851 22.9632 68.1631 22.894 70.0467L22.8833 70.3558C22.8451 71.5181 22.8152 72.725 22.1064 73.6193C22.2055 73.5595 22.3395 73.5595 22.4198 73.6581C22.5185 73.7794 22.5754 73.9156 22.5736 74.0492C23.2141 73.7718 23.8518 73.4873 24.4863 73.197C26.5265 72.2635 28.5238 71.2188 30.4684 70.0884C30.6776 69.9668 30.8765 70.0624 30.98 70.2228L30.995 70.2206C30.9975 70.2202 31 70.22 31.0026 70.2199L31.0174 70.2192C31.018 70.2192 31.0186 70.2193 31.0191 70.2193C31.2928 70.064 31.6657 70.1746 31.9006 70.4012C31.9075 70.408 31.9134 70.4154 31.9196 70.4226C32.217 70.2847 32.4946 70.0986 32.7466 69.8627C33.2623 69.3799 33.6991 68.7831 34.0799 68.1845C34.7811 67.0822 35.3768 65.8563 36.324 64.9488C37.0937 64.2116 38.0478 63.7526 39.0489 63.4644C39.0447 63.4342 39.0559 63.402 39.0761 63.3806C39.1275 63.3262 39.1642 63.3074 39.2306 63.3404C39.2359 63.3431 39.2391 63.3468 39.2412 63.3507L39.3389 63.1783C39.3922 63.0848 39.447 62.9906 39.466 62.9658C39.5796 62.818 39.6966 62.6714 39.8153 62.5278C40.0167 62.2846 40.2461 62.0447 40.5117 61.8761C41.0934 61.5071 41.7049 61.7159 42.3029 61.9176C42.6642 62.0395 43.0243 62.1654 43.385 62.2892L43.4222 62.3017C43.6912 62.391 44.0059 62.469 44.1262 62.7633C44.1738 62.8798 44.1812 63.0007 44.159 63.1179C46.7135 62.447 49.5507 62.7553 52.0435 63.5429C52.1391 63.5731 52.2347 63.6544 52.2548 63.7611C52.5405 65.2739 52.6677 66.8253 52.5384 68.3639C52.4269 69.692 52.142 70.9935 51.6051 72.2094L51.5746 72.2781C51.07 73.4049 50.2703 74.794 49.0489 75.1472C48.3114 75.3604 47.4958 75.2347 46.7436 75.1956C46.0126 75.1576 45.2654 75.1521 44.5414 75.0334C43.8965 74.9277 43.3315 74.6291 42.933 74.0876C42.5892 73.6204 42.4081 73.0557 42.2598 72.494C42.1919 72.5164 42.1245 72.5401 42.0581 72.5669C41.778 72.6799 41.5406 72.8623 41.326 73.0769C40.8728 73.5302 40.5213 74.0808 40.0471 74.5133C39.6179 74.9049 39.1288 75.2094 38.6041 75.4435C37.517 75.9287 36.3508 76.1226 35.2008 76.3797L35.1206 76.3977C34.255 76.5939 33.3713 76.8348 32.6072 77.3003C32.5923 77.4373 32.5318 77.5663 32.435 77.6507C32.5697 77.7814 32.6268 77.9884 32.5084 78.1827C32.1776 78.7249 31.6078 79.0334 31.0962 79.3801L31.0629 79.4028C30.5597 79.7474 30.0521 80.0851 29.5404 80.416C28.5001 81.0887 27.438 81.7244 26.3609 82.3321C24.6286 83.3095 22.8591 84.2315 21.0575 85.0679C21.1656 85.6173 21.1261 86.1839 21.2074 86.737L21.2199 86.8159C21.2546 87.0212 21.2077 87.1929 21.0708 87.327L21.0563 87.3408L21.0566 87.3389L21.0437 87.3511L21.0394 87.3548L21.0409 87.3536C21.0251 87.3686 21.0088 87.3824 20.9922 87.3944L20.9711 87.4084C20.8392 87.4912 20.6694 87.4902 20.5344 87.4171L20.519 87.4084L20.4931 87.393C20.3147 87.2871 20.1917 87.0245 20.2657 86.8159C20.4476 86.3033 20.5163 85.7561 20.6842 85.2401L20.551 85.3016L20.3754 85.3807C18.476 86.2289 16.3663 86.9433 14.2968 86.365C13.3824 86.1094 12.5278 85.5688 12.0703 84.6876C11.6201 83.8205 11.5564 82.8137 11.5325 81.8493C11.503 80.6588 11.5648 79.4502 11.7168 78.27C11.8189 77.4778 11.9422 76.6707 12.1326 75.8866C12.0347 75.7974 11.9627 75.6695 11.9437 75.511C11.8539 74.7621 12.0111 73.9837 12.1073 73.2387C12.2014 72.5114 12.3052 71.7855 12.4227 71.0618C12.6599 69.6004 12.9355 68.142 13.2563 66.6977C13.8273 64.1272 14.5813 61.6023 15.4891 59.1378L15.5686 58.9232C16.4074 56.6706 17.3786 54.466 18.731 52.4871C19.378 51.5403 20.0619 50.6819 20.976 49.9997C21.8324 49.3605 22.7984 48.9002 23.7953 48.5484C24.7933 48.1964 25.8191 47.9605 26.8629 47.8137C27.9231 47.6647 29.0421 47.5733 30.0311 47.1242C29.906 46.8926 30.0133 46.5798 30.2239 46.4362C30.9324 45.9527 31.5876 45.3237 32.2227 44.7425ZM54.9047 65.7671C54.9344 65.7206 55.0049 65.75 54.9919 65.8051C54.6473 67.2633 54.3238 68.7244 54.1125 70.2104C53.7312 72.8924 53.8013 75.6095 53.8325 78.3114L53.8341 78.4511C53.8501 79.9065 53.8723 81.362 53.9189 82.8167C53.9425 83.5519 53.989 84.2944 53.9637 85.03C53.9499 85.4291 53.8469 85.8065 53.8104 86.2008C53.7785 86.5456 53.8069 86.8956 53.8229 87.2409C53.8336 87.4704 53.5056 87.4606 53.4832 87.2409L53.4547 86.9566C53.4176 86.5969 53.3718 86.2394 53.2577 85.8951C53.1204 85.481 53.0546 85.0743 53.007 84.6395C52.934 83.9733 52.9016 83.3004 52.8735 82.6295L52.8542 82.1654C52.7367 79.3616 52.7408 76.5446 52.9311 73.7437L52.945 73.5437C53.1334 70.8962 53.4604 68.0356 54.9047 65.7671ZM47.5589 49.0807C47.4689 49.0425 47.5005 48.902 47.6001 48.9264L47.7814 48.9711C49.1097 49.2997 50.4138 49.6557 51.6536 50.2672C52.8941 50.8789 53.9444 51.7923 54.779 52.9154C56.4013 55.0986 57.0754 57.7517 57.6077 60.4024C58.1991 63.3479 58.7376 66.304 59.3342 69.2485L59.445 69.797C59.997 72.5395 60.5182 75.2835 60.9023 78.0584L60.9299 78.2597C61.3171 81.1132 61.5501 84.0656 61.1275 86.9265C61.0439 87.4925 60.1319 87.3516 60.1676 86.7924C60.2706 85.1757 60.3443 83.5675 60.2731 81.9473C60.2017 80.3267 60.0546 78.7131 59.8352 77.1067C59.6506 75.7548 59.3754 74.4198 59.1318 73.0786L59.0937 72.8668C58.8897 71.7261 58.6795 70.5866 58.4697 69.4469L58.1562 67.7407C57.6864 65.1858 57.2073 62.6286 56.6661 60.0898L56.6339 59.9404C56.1042 57.4978 55.3233 54.9392 53.7343 52.9996C52.1219 51.0311 49.8136 50.0398 47.5589 49.0807ZM41.6999 74.9887C41.7387 74.8995 41.8743 74.9092 41.916 74.9887C42.0794 75.3001 42.0976 75.6975 42.1285 76.049L42.1317 76.0852C42.171 76.5141 42.2058 76.9445 42.2271 77.3748C42.2675 78.1915 42.2868 79.0072 42.2843 79.8249C42.2818 80.663 42.2654 81.5 42.2217 82.3368L42.2098 82.5611C42.1699 83.2882 42.1029 84.0994 41.7684 84.7351C41.6468 84.9663 41.316 84.8983 41.2456 84.6646C41.0148 83.8993 41.1333 82.9919 41.1925 82.2081L41.2384 81.5965C41.284 80.9848 41.3274 80.3729 41.3618 79.7605C41.4089 78.9227 41.4479 78.0841 41.4853 77.2459C41.4975 76.9736 41.5106 76.7013 41.5245 76.429L41.5459 76.0207C41.5641 75.6792 41.5626 75.3044 41.6999 74.9887ZM15.7541 76.0733L15.8562 75.9714C16.1698 75.6544 16.5661 75.1663 17.0297 75.1965C17.2145 75.2086 17.3323 75.3671 17.294 75.555C17.2121 75.9565 16.8155 76.1649 16.53 76.4101C16.2173 76.6785 15.9225 76.9655 15.6283 77.2553C15.3673 77.5122 15.1163 77.7764 14.8713 78.0489L14.7797 78.1514C14.6919 78.2504 14.0665 78.8346 14.1342 78.9862L14.1378 78.9929C14.1567 79.022 14.1253 79.0619 14.0941 79.0517C13.8241 78.9636 13.8409 78.7245 13.943 78.4823C14.1392 78.017 14.4827 77.5864 14.7827 77.189C15.0819 76.7926 15.4057 76.4234 15.7541 76.0733ZM42.6784 64.4027C42.4696 63.8929 41.7004 63.9036 41.2636 63.9341C40.1639 64.0108 38.974 64.2982 37.9955 64.8291C36.981 65.3795 36.2976 66.2614 35.6862 67.2366L35.6576 67.2824C35.0616 68.2392 34.4876 69.3718 33.5544 70.0297C33.0791 70.3649 32.5241 70.6709 31.9474 70.8034C31.9078 70.8753 31.8436 70.9323 31.7595 70.9529L31.7204 70.9622C31.5562 70.9996 31.301 71.0411 31.0806 71.0163C31.0821 71.1277 31.0809 71.2382 31.0837 71.3437C31.0914 71.646 31.0947 71.9497 31.0947 72.2522C31.0948 72.8861 31.0618 73.5213 31.0875 74.1552C31.1102 74.7158 31.1868 75.3016 31.4475 75.8027C31.6386 76.1704 31.8909 76.4137 32.1955 76.646C32.9447 76.1744 33.7919 75.887 34.6518 75.6708C35.6916 75.4095 36.7564 75.235 37.7726 74.8806C38.2617 74.7099 38.7319 74.4867 39.158 74.1834C39.6101 73.8613 39.9555 73.4256 40.3109 72.9995L40.3664 72.9333C40.7291 72.5037 41.1248 72.0926 41.6373 71.8597C42.0787 71.6591 42.6604 71.6234 43.0463 71.3129C43.2481 71.1505 43.265 70.9148 43.2862 70.6734C43.0391 70.71 42.7774 70.6515 42.5311 70.6216L42.4035 70.6062C42.1705 70.5776 41.943 70.5462 41.7136 70.4849C41.6711 70.4736 41.6711 70.4073 41.7136 70.3959C41.9846 70.3236 42.2532 70.2928 42.5311 70.2592L42.5964 70.2508C42.8477 70.2168 43.1119 70.1654 43.3585 70.2225C43.4028 70.0487 43.4666 69.8827 43.5563 69.7164C43.6821 69.4829 43.9202 69.2181 43.9523 68.9453C43.9619 68.8638 43.9435 68.7678 43.9064 68.6957L43.8935 68.6712C43.8779 68.6422 43.8594 68.613 43.8323 68.595C43.8293 68.5986 43.823 68.6027 43.8092 68.6072C43.6194 68.6689 43.4539 68.573 43.366 68.4251C42.9931 68.4729 42.586 68.4568 42.2363 68.4728L41.8826 68.4904C41.5048 68.5083 41.1097 68.5162 40.7546 68.4373C40.7051 68.4264 40.6901 68.3411 40.7397 68.3192C41.1762 68.1264 41.7058 68.0648 42.1731 67.9908C42.4341 67.9494 42.6971 67.9178 42.9589 67.8814C43.1332 67.8571 43.3181 67.817 43.4987 67.8073C43.9516 67.2252 43.7076 66.3068 43.0774 66.0561C42.8479 66.1603 42.6414 66.0997 42.3907 66.0774C42.1403 66.0552 41.8894 66.0402 41.638 66.0413C41.1343 66.0436 40.6006 66.1804 40.1018 66.1215C40.0207 66.1119 39.9453 66.0004 40.026 65.9324C40.4078 65.6106 40.955 65.5057 41.4396 65.4371L41.54 65.4232C41.7025 65.4012 41.9001 65.3691 42.105 65.35C42.1514 65.2566 42.2345 65.1861 42.3595 65.1685C42.3966 65.1633 42.4339 65.1602 42.4711 65.1569L42.4706 65.1531C42.7752 65.138 42.762 64.6066 42.6784 64.4027ZM21.8232 74.3447C21.8178 74.3533 21.8119 74.3615 21.8057 74.3693L21.796 74.3809L21.8461 74.3599L21.8232 74.3447ZM47.9943 63.2636C46.7121 63.1213 45.428 63.1513 44.142 63.1895C44.0392 63.537 43.6811 63.8331 43.3342 63.8442C43.6059 64.2713 43.634 64.8494 43.4434 65.3023C43.8479 65.4687 44.1964 65.7674 44.408 66.1928C44.7014 66.7826 44.663 67.4389 44.373 67.984C44.6205 68.2154 44.7665 68.5911 44.7519 68.9453C44.7356 69.3402 44.5077 69.6776 44.3183 70.0045C44.1137 70.3582 44.1068 70.6695 44.0439 71.0655C43.9519 71.6452 43.5734 71.9967 43.0864 72.2162L43.1123 72.3214C43.2379 72.8262 43.3941 73.3588 43.753 73.7279C44.2146 74.2028 44.9308 74.1984 45.5407 74.2284L45.5701 74.2299C46.1286 74.2588 46.6869 74.2926 47.2452 74.3252L47.6639 74.3494C48.3067 74.3859 48.924 74.3903 49.4488 73.9514C50.3055 73.235 50.8929 72.0493 51.2646 70.9996C52.0449 68.7965 52.0542 66.3787 51.6961 64.0841C50.4949 63.6842 49.2486 63.4028 47.9943 63.2636ZM37.3312 66.9188L37.3406 66.9195C37.6046 66.9506 37.786 67.1714 37.8505 67.4333C37.9444 67.814 37.8984 68.1582 38.1241 68.5018C38.3563 68.8552 38.4991 69.1381 38.5328 69.5746C38.5467 69.7543 38.5403 69.9334 38.5791 70.1093L38.6071 70.2325C38.6369 70.3638 38.6613 70.4903 38.6465 70.6314C38.633 70.76 38.5723 70.8602 38.4474 70.9014C38.0404 71.0359 37.7261 70.7261 37.6209 70.3343C37.5301 69.996 37.6514 69.5927 37.5232 69.2749C37.4522 69.0988 37.3213 68.9514 37.2473 68.7741C37.174 68.5983 37.1372 68.4147 37.1254 68.2236C37.1031 67.8622 37.4126 67.4281 37.2399 67.1006C37.2031 67.0308 37.2448 66.9167 37.3312 66.9188ZM31.9244 63.1896C32.2 63.1318 32.5127 62.9992 32.7846 63.1094C32.9243 63.1661 32.9933 63.3421 32.8753 63.4644C32.6703 63.6766 32.3724 63.6884 32.0964 63.7384L32.0721 63.743C31.7456 63.8053 31.4186 63.8645 31.0912 63.9206C30.4751 64.0259 29.8576 64.1191 29.2379 64.1983C28.6015 64.2796 27.9632 64.3521 27.3241 64.4065L27.0767 64.4275C26.5368 64.4721 25.975 64.5057 25.4453 64.4203C25.3683 64.4079 25.3807 64.2922 25.4453 64.2719C26.0256 64.0905 26.6622 64.0418 27.2622 63.9651C27.9001 63.8833 28.5368 63.797 29.172 63.6946C29.8061 63.5923 30.4393 63.4825 31.0703 63.3612C31.3554 63.3064 31.6402 63.2492 31.9244 63.1896ZM41.8702 62.6071C41.6283 62.5187 41.3622 62.3877 41.1001 62.4315C40.6481 62.5071 40.2458 62.9619 39.8881 63.2615L40.0677 63.2254C40.9869 63.0429 42.2041 62.8464 42.9757 63.45C42.9777 63.4465 42.9792 63.443 42.9814 63.4395C43.0437 63.3418 43.1159 63.2656 43.1946 63.182C43.2022 63.1747 43.2094 63.1671 43.2166 63.1594L43.2591 63.1127L43.1619 63.0779C42.9537 63.0019 42.7071 62.9038 42.6681 62.8895L42.6654 62.8885C42.4 62.7956 42.1343 62.7039 41.8702 62.6071ZM34.318 42.7083C34.2801 42.2058 35.0373 42.21 35.0748 42.7083C35.1566 43.7962 34.9196 44.8739 34.4094 45.8277C34.4056 45.8346 34.4015 45.8408 34.3976 45.8474C34.7167 46.0188 35.0394 46.1834 35.3693 46.3305C35.7914 46.5186 36.2214 46.69 36.659 46.8354C37.055 46.9669 37.5427 47.0189 37.8756 47.2927C38.5775 47.8699 38.3138 49.0679 38.1787 49.8444L38.1577 49.967C38.0905 50.3666 38.0418 50.7765 38.2049 51.16C38.3791 51.5697 38.7314 51.8735 39.0456 52.1666L39.109 52.226C39.3874 52.488 39.7055 52.8062 39.9097 53.1613C40.0961 52.7633 40.3502 52.438 40.6188 52.0719C40.8105 51.8105 40.674 51.7244 40.5364 51.4691C40.4038 51.2234 40.3391 50.9615 40.3805 50.6813C40.457 50.1636 40.8576 49.7897 41.2563 49.5088C41.7271 49.1771 42.2527 48.9314 42.7394 48.6229C43.7396 47.9891 44.7137 47.2644 45.5913 46.4595C45.6155 46.4372 45.6575 46.4664 45.6381 46.4968C44.9449 47.5858 44.132 48.5269 43.133 49.3256C42.7279 49.6495 42.3024 49.9182 41.874 50.2006L41.7508 50.2822C41.5788 50.3973 41.3643 50.5511 41.2865 50.747C41.2083 50.9441 41.3752 51.0929 41.465 51.2561C41.7502 51.7744 41.6126 52.258 41.2744 52.6976L41.2587 52.7179C40.9227 53.1455 40.668 53.5433 40.5462 54.0897C40.2845 55.2634 40.649 56.486 41.0306 57.5879L41.0457 57.6313C41.2521 58.2253 41.4715 58.8149 41.6508 59.4183L41.7001 59.5851C41.8626 60.1404 41.9957 60.688 41.8134 61.2588C41.7514 61.4529 41.4951 61.4988 41.3886 61.3161C41.0129 60.6718 40.9193 59.8964 40.6838 59.1879C40.4543 58.4975 40.1909 57.8195 39.9692 57.1262C39.6838 56.2336 39.4927 55.2728 39.5964 54.3366C39.5934 54.3311 39.59 54.326 39.5875 54.3202L39.5148 54.1561C39.3167 53.7116 39.1253 53.3234 38.765 52.9691C38.3892 52.5995 37.9812 52.2724 37.6855 51.825C37.0432 50.8532 37.4404 49.7722 37.518 48.7096L37.5269 48.5793C37.541 48.3587 37.5487 48.0588 37.4092 47.9061C37.2522 47.7343 36.8841 47.6904 36.6759 47.6143C36.1377 47.4176 35.6074 47.1884 35.1022 46.9132C34.6214 46.6512 34.1556 46.3618 33.7219 46.0227L33.5021 45.8519C33.1553 45.5817 32.7957 45.2865 32.5633 44.9186C32.5364 44.8763 32.582 44.8079 32.6306 44.8282C33.0186 44.9909 33.3731 45.2495 33.7362 45.4746C33.7418 45.4609 33.7484 45.447 33.7558 45.4331C34.205 44.5935 34.3897 43.6633 34.318 42.7083ZM46.713 48.4608C46.8676 48.023 47.5722 48.0568 47.5441 48.577C47.5226 48.9767 47.3583 49.3375 47.208 49.7004L47.192 49.7393C47.0369 50.1174 46.8578 50.4724 46.6434 50.8189C46.2338 51.4814 45.7541 52.0962 45.2416 52.6764C44.7771 53.2025 44.1673 53.5241 43.4647 53.4707C43.1686 53.4482 42.8698 53.3704 42.6103 53.2176C42.3022 53.0362 41.9676 52.4913 41.5745 52.6233C41.5365 52.636 41.501 52.5785 41.5339 52.5512C41.9877 52.1738 42.5028 52.759 42.9373 52.9001C43.592 53.1125 44.2639 52.8776 44.6853 52.331C45.1252 51.7602 45.5302 51.1212 45.8999 50.4997C46.0877 50.1842 46.2591 49.8567 46.407 49.5191C46.5564 49.1785 46.5903 48.8082 46.713 48.4608ZM45.6577 45.7661C45.6386 45.7057 45.7113 45.6481 45.7627 45.6827C46.061 45.8832 46.3194 46.1481 46.5944 46.3803C46.8996 46.638 47.207 46.8904 47.5192 47.1389C47.9743 47.5012 47.4465 48.1683 47.0459 47.7725C46.4977 47.231 45.8973 46.5229 45.6577 45.7661ZM44.0204 43.6468C44.1416 43.1643 44.8581 43.3632 44.7537 43.8401L44.7503 43.8546C44.5525 44.6423 44.8342 45.4442 45.4355 45.9548L45.4576 45.9734C45.838 46.2878 45.2991 46.8375 44.9224 46.5261C44.1001 45.8464 43.7581 44.6918 44.0204 43.6468Z" fill="black"/>
<path fill-rule="evenodd" clip-rule="evenodd" d="M50.0194 31.9599C49.8825 30.718 50.0596 28.1222 50.0715 27.9645C50.1465 26.9675 49.6942 23.0306 48.8392 23.3933C47.4049 22.2206 45.4946 21.9617 43.7083 21.838C39.9979 21.581 36.0507 22.1709 33.1856 24.7499C31.7687 26.0892 30.3893 28.0372 30.5002 30.0655C29.2128 31.988 27.398 34.6252 29.0019 36.8729C29.5471 37.591 30.4137 37.8584 31.0986 38.4022C32.4763 39.5499 33.3406 41.1969 34.7313 42.3378C38.4158 45.7574 44.6722 46.4717 48.2922 42.5822C51.0915 39.7653 50.6389 35.5511 50.1465 31.9599C49.8155 29.5456 50.2863 34.3827 50.0194 31.9599Z" fill="white"/>
<path fill-rule="evenodd" clip-rule="evenodd" d="M38.7523 16.5715C39.7447 16.3646 40.7636 16.236 41.777 16.2747L41.8551 16.2778C42.6176 16.3093 43.5832 16.3789 44.2483 16.8368C44.2866 16.7972 44.3481 16.7768 44.4039 16.8043C45.1944 17.194 46.0637 17.4757 46.896 17.7557C47.7244 18.0343 48.5839 18.2182 49.4522 18.2923C49.7789 18.3202 50.0584 18.6845 49.8516 19.0113C49.8024 19.0892 49.7545 19.1678 49.7067 19.2467C49.7866 19.2381 49.8664 19.2292 49.9463 19.2209C50.209 19.1936 50.4715 19.4832 50.4559 19.7474C50.4462 19.9136 50.4288 20.0778 50.4031 20.24C50.5032 20.2379 50.6027 20.2533 50.6988 20.2953C51.1855 20.5076 51.1516 21.1063 51.1152 21.5618C51.0647 22.194 50.8358 22.8635 50.4108 23.3366C50.7281 23.6771 50.9527 24.0836 51.0868 24.5665C51.184 24.919 51.238 25.2946 51.2113 25.6616L51.2028 25.7715C51.1698 26.1698 51.1042 26.6107 50.8268 26.8973C50.6844 27.045 50.5089 27.0988 50.3417 27.0818C50.4428 27.9996 50.5076 28.9228 50.5687 29.8426L50.5973 30.2823C50.7334 32.4082 50.8357 34.548 50.809 36.6775C50.7841 38.6675 50.4034 40.5991 49.2216 42.215C48.1453 43.6863 46.6 44.771 44.8518 45.1833C43.9097 45.4059 42.9479 45.4216 41.9944 45.2798C41.5322 45.2109 41.0669 45.1052 40.6282 44.9384C40.1426 44.7532 39.7936 44.4808 39.4669 44.0724C39.3123 43.8787 39.3867 43.4664 39.6944 43.5051C40.1598 43.5634 40.5847 43.6336 41.0309 43.7758L41.0948 43.7966C41.5392 43.9437 41.9995 44.0533 42.4641 44.1C43.4158 44.1952 44.382 44.0993 45.2936 43.8012C46.778 43.3154 48.0564 42.2327 48.8758 40.8723C49.8484 39.2598 49.9584 37.4293 49.9443 35.5751C49.9293 33.5405 49.8652 31.5047 49.7606 29.4723L49.7428 29.1335C49.6875 28.0876 49.6341 27.0411 49.5871 25.9945C49.5725 25.6662 49.5503 25.3353 49.5102 25.0077C49.1434 24.7858 48.8148 24.4798 48.6005 24.1023C48.1702 24.2861 47.7176 24.4187 47.3011 24.5244C46.3365 24.7695 45.335 24.829 44.3532 24.6755C44.0884 24.7885 43.8183 24.8879 43.544 24.9733C43.4699 25.0073 43.3958 25.0406 43.3217 25.0733C42.6605 25.3655 41.9899 25.613 41.2919 25.7942L41.1205 25.8384C40.7532 25.9319 40.3542 26.024 39.9633 26.0529C39.8991 26.0785 39.8298 26.1002 39.7541 26.1192C39.3982 26.2085 39.0288 26.2368 38.664 26.2053C38.3085 26.1744 38.0517 25.8034 38.2475 25.4561C38.3906 25.2027 38.5349 24.9499 38.6805 24.6978C38.1738 24.9158 37.6507 25.097 37.123 25.2506C36.5903 25.4056 36.05 25.5362 35.5089 25.6564C35.2197 25.72 34.9292 25.7765 34.6406 25.8402C34.434 25.8855 34.1168 25.9091 33.9483 26.0496C33.7621 26.2039 33.7093 26.5637 33.6387 26.7857C33.5459 27.0739 33.4588 27.3634 33.3794 27.6563C33.2211 28.2406 33.0915 28.8335 32.991 29.4323C32.8906 30.0317 32.8231 30.6371 32.7856 31.2444C32.7482 31.8511 32.7646 32.4617 32.7043 33.0657C32.6718 33.3861 32.3388 33.5509 32.0928 33.327C32.0639 33.3008 32.0348 33.2742 32.006 33.2474L31.9631 33.2069C31.7526 33.0099 31.5486 32.8011 31.3802 32.5661C31.3496 32.5227 31.3204 32.4774 31.2931 32.4315C31.2886 32.4315 31.2848 32.4302 31.2804 32.4269L31.2337 32.3906C30.7195 31.9953 29.8606 31.4801 29.3593 32.1367C29.1995 32.3458 29.1177 32.6122 29.0499 32.8692L28.9307 33.329C28.8537 33.6293 28.7812 33.9312 28.7388 34.2383C28.6428 34.9264 28.6911 35.7196 29.1495 36.2711C29.3326 36.4917 29.5849 36.6492 29.8665 36.6906C30.0236 36.7129 30.1787 36.6854 30.3344 36.665C30.4927 36.6447 30.6452 36.6775 30.8036 36.6617C31.0553 36.6361 31.1653 36.9473 31.0712 37.143C31.0204 37.248 30.9605 37.3386 30.8926 37.4155C30.9472 37.464 30.9994 37.5166 31.0496 37.5717C31.1983 37.621 31.3318 37.7267 31.4316 37.8665C31.5124 37.9795 31.5543 38.1022 31.5613 38.2316C31.5702 38.2637 31.5778 38.2966 31.5848 38.3301L31.7212 38.5587C31.7512 38.6088 31.7811 38.6583 31.8111 38.7069C32.1582 39.2716 32.5435 39.7496 33.0222 40.2C33.483 40.6333 33.9833 41.0213 34.4162 41.4862L34.4672 41.5414C34.8709 41.9807 35.2964 42.5125 35.1384 43.1512C35.0977 43.3154 34.8758 43.4335 34.7309 43.3226C34.2649 42.9654 34.0303 42.3995 33.635 41.9661C33.2281 41.5197 32.7774 41.1185 32.3693 40.6733C31.9834 40.2531 31.6789 39.7771 31.4494 39.2532C31.3578 39.3576 31.2244 39.4318 31.0394 39.4607C30.7216 39.5099 30.4253 39.3175 30.2868 39.0332C30.1977 39.0739 30.1069 39.1107 30.0153 39.1396C29.5334 39.2919 29.2302 38.7384 29.412 38.3294C29.5092 38.1101 29.6307 37.9197 29.7814 37.7595C29.3103 37.6925 28.8309 37.4411 28.5214 37.1272C27.7446 36.3387 27.6378 35.1536 27.8126 34.0998C27.9054 33.5411 28.0656 32.9758 28.2735 32.4512C28.3097 32.3599 28.3485 32.268 28.391 32.1774C28.3675 32.1767 28.3434 32.1662 28.3281 32.1459C28.1876 31.9476 28.0167 31.7854 27.9124 31.5635C27.8164 31.36 27.7096 31.1538 27.6339 30.9417C27.4782 30.5077 27.402 30.0179 27.3511 29.559C27.2462 28.6194 27.2868 27.6858 27.4261 26.7522C27.6632 25.162 28.2358 23.6402 29.0794 22.3049C29.0335 22.2799 28.9895 22.2498 28.9485 22.2142L28.9282 22.196L28.8953 22.1653C28.6545 21.9403 28.6753 21.5186 28.8953 21.2907L28.9647 21.2187C29.0527 21.1285 29.1286 21.057 29.2707 20.9587C29.2916 20.9442 29.3131 20.9305 29.3347 20.9178C29.2604 20.7758 29.2346 20.6099 29.2864 20.4267C29.4669 19.7888 30.3556 19.8114 30.9189 20.0896C31.5421 19.5152 32.2331 19.0165 32.982 18.6127C34.7659 17.6515 36.7829 16.9812 38.7523 16.5715ZM29.5316 33.373C29.8647 33.2607 30.3071 33.4964 30.6065 33.6382C30.986 33.8181 31.309 34.084 31.6217 34.3651C31.7775 34.5056 31.8054 34.7354 31.7667 34.9317C31.7628 34.9514 31.759 34.9717 31.7545 34.9921C31.7132 35.2015 31.4869 35.3663 31.2867 35.3604C30.8677 35.3486 30.6682 34.975 30.431 34.6585C30.4031 34.7098 30.3681 34.757 30.3249 34.7925L30.2956 34.8161C30.1972 34.8935 30.0887 34.9554 29.9587 34.9494C29.8665 34.9448 29.7782 34.9205 29.6968 34.8765C29.4934 34.7656 29.4038 34.4937 29.459 34.2725C29.4934 34.1333 29.5722 34.0243 29.6752 33.9488L29.6368 33.9217C29.5546 33.8626 29.4797 33.8004 29.4214 33.7086L29.4082 33.6868H29.4133C29.3497 33.5739 29.3911 33.4203 29.5316 33.373Z" fill="black"/>
<path fill-rule="evenodd" clip-rule="evenodd" d="M49.2857 34.7432C48.3317 35.2178 47.0007 34.5178 46.3592 33.7846C46.1257 33.5177 45.9455 32.7539 46.0354 32.2695C46.2786 30.9576 47.1928 30.1702 48.1578 29.9014C49.4956 29.5286 50.8419 30.473 50.6849 31.5874C50.5361 32.6436 50.3106 34.1757 49.2857 34.7432ZM42.792 32.2232C42.7156 33.6528 41.6039 34.9042 40.2753 35.275C38.1347 35.8919 37.0767 34.3377 36.5975 32.6634C36.5499 32.497 36.438 31.9892 36.7384 31.5537C37.9197 29.8404 40.7938 30.1324 42.2294 30.6028C42.6496 31.0178 42.8213 31.6168 42.792 32.2232ZM50.3223 29.7573C50.3217 29.7582 50.3209 29.7589 50.3203 29.7597C50.3154 29.7566 50.3105 29.7535 50.3055 29.7505C50.3111 29.7528 50.3169 29.7549 50.3223 29.7573ZM52.1133 29.9226C51.989 28.4669 47.5669 29.0243 47.0499 29.1436C45.6389 29.5722 44.4202 30.7383 42.8426 30.2257C41.2081 28.3438 35.7036 28.8835 34.5497 29.8421C34.3313 29.7536 34.0657 29.8011 33.7843 29.8846C32.3391 29.8307 25.7416 30.3453 27.091 32.2503C27.2958 32.397 27.5005 32.2477 27.5061 31.9454C34.5409 29.3227 33.859 31.7793 34.6933 31.4924C34.8207 31.5303 34.9536 31.5543 35.0699 31.5795C35.7156 31.794 35.9349 31.7277 36.02 32.4764C36.6043 38.2575 44.0582 36.2622 43.4469 31.5202C44.0522 31.4858 44.5816 31.2155 45.2217 31.4795C45.6661 35.9466 49.1466 36.1268 50.1941 34.5783C50.9839 33.5035 50.6707 31.8816 51.7564 31.036C52.185 31.4065 52.2126 30.1562 52.1133 29.9226Z" fill="black"/>
<path fill-rule="evenodd" clip-rule="evenodd" d="M46.5898 38.5137C46.3801 38.797 46.0002 39.014 45.5748 39.1177C45.1695 39.2166 44.7215 39.2126 44.3349 39.0604L44.3017 39.0468C44.0126 38.9228 43.7352 38.6724 43.6298 38.4111C43.5879 38.3072 43.5737 38.2017 43.6024 38.1031C43.6282 38.0145 43.6886 37.9329 43.7893 37.8628C43.821 37.8408 43.8634 37.8392 43.9038 37.8466C43.9539 37.8557 44.0033 37.88 44.0331 37.9127C44.1985 38.0943 44.4385 38.2714 44.7225 38.2684C44.9417 38.2661 45.1207 38.1767 45.2942 38.0757L45.4162 38.0036C45.5338 37.9342 45.6532 37.8691 45.7882 37.8393C46.0299 37.786 46.323 37.8834 46.5017 38.0441C46.5795 38.1142 46.6361 38.1965 46.6515 38.2852C46.6644 38.3597 46.6463 38.4375 46.5898 38.5137ZM45.3333 33.5596C45.8133 33.8609 46.5447 34.5637 46.0283 35.3108C45.4205 35.9696 44.5453 35.2142 44.114 34.8726C43.7141 34.6079 43.2648 35.2888 43.6358 35.5979C46.7522 37.9809 48.0169 33.6384 45.5761 33.2052C45.3073 33.1575 45.2075 33.4663 45.3333 33.5596ZM39.9177 28.9278L40.0556 28.8887L40.1962 28.8495L40.2913 28.8235C40.9445 28.647 41.6649 28.4916 42.3126 28.5674C42.5488 28.5951 42.7406 28.7324 42.774 28.988C42.8022 29.2037 42.6672 29.482 42.4375 29.5203C41.6768 29.6474 40.898 29.6062 40.1338 29.7372C39.7532 29.8024 39.3755 29.8834 38.9964 29.9563C38.7081 30.0119 38.4102 30.0314 38.1194 30.0763L38.1862 30.0859C38.2096 30.0892 38.2038 30.1298 38.1807 30.1282C38.0849 30.1183 37.9889 30.1167 37.8928 30.1237L37.8515 30.1272C37.7888 30.1363 37.7518 30.059 37.8077 30.0197C38.162 29.7714 38.4626 29.5024 38.8593 29.3194C39.2024 29.1612 39.5555 29.0307 39.9177 28.9278ZM45.8639 28.547C46.3661 28.0227 47.4341 28.2242 48.0315 28.464C48.3725 28.601 48.6967 28.7741 48.9668 29.0332L48.9931 29.0586L49.0337 29.0989C49.2159 29.2832 49.4192 29.5369 49.3903 29.8026C49.3859 29.8431 49.3645 29.8894 49.3202 29.8975C49.0809 29.9413 48.8459 29.8109 48.625 29.7325L48.4786 29.6806C48.2589 29.6033 48.0377 29.5294 47.8111 29.4761C47.5294 29.4099 47.242 29.3716 46.9528 29.3754C46.6604 29.3794 46.3464 29.4646 46.0679 29.3447C45.7573 29.2111 45.5962 28.8266 45.8639 28.547ZM40.9026 32.7758C40.7744 32.911 40.6052 32.9872 40.3886 32.9419C40.2194 32.9064 39.8972 32.7307 39.6398 32.46C39.4637 32.2748 39.3164 32.0435 39.2764 31.7754C39.2671 31.7132 39.2351 31.6733 39.1931 31.6481C39.1599 31.6283 39.1162 31.6183 39.0686 31.6233C39.0281 31.6275 38.9852 31.6426 38.952 31.6627C38.8889 31.7008 38.8631 31.755 38.8578 31.7954C38.8072 32.1857 38.9531 32.5729 39.1806 32.8994C39.4877 33.34 39.9385 33.6628 40.2035 33.7384C40.657 33.8678 41.1349 33.7648 41.4872 33.4388C41.7689 33.1782 41.9133 32.8386 42.0473 32.4894L42.0731 32.4217C42.1033 32.3424 42.1332 32.2638 42.1649 32.186C42.2284 32.03 42.208 31.8952 42.1465 31.7902C42.0782 31.6738 41.9523 31.5919 41.8122 31.5667C41.6826 31.5435 41.5439 31.5689 41.4345 31.6506C41.342 31.7197 41.2675 31.8291 41.241 31.9909C41.1979 32.2539 41.098 32.5557 40.9217 32.7549L40.9026 32.7758ZM48.6787 31.2533C48.5731 31.1964 48.4904 31.1793 48.3732 31.2155C48.3084 31.2356 48.2443 31.2742 48.1941 31.326C48.1444 31.3773 48.1086 31.4412 48.0946 31.512C48.0603 31.6868 47.9677 31.8504 47.8358 31.9571C47.723 32.0483 47.5806 32.0966 47.4227 32.0693C47.2523 32.0399 47.09 31.9271 46.9782 31.794C46.947 31.7569 46.9215 31.7156 46.8968 31.6738L46.8821 31.6487C46.827 31.5547 46.7734 31.4674 46.6974 31.3984C46.6686 31.3722 46.6252 31.354 46.5832 31.354C46.5661 31.354 46.5488 31.3569 46.5323 31.3622C46.3627 31.538 46.3301 31.6714 46.3355 31.8037C46.3413 31.9424 46.3942 32.0828 46.4798 32.2139C46.6805 32.5213 47.0616 32.7733 47.3188 32.8304C47.671 32.9086 48.0208 32.8147 48.3012 32.6116C48.5898 32.4025 48.8036 32.0779 48.8703 31.7122C48.8863 31.6241 48.8795 31.529 48.847 31.4465C48.8153 31.366 48.76 31.297 48.6787 31.2533Z" fill="black"/>
</svg>
