<svg width="72" height="98" viewBox="0 0 72 98" fill="none" xmlns="http://www.w3.org/2000/svg">
<g clip-path="url(#clip0_177_6043)">
<g clip-path="url(#clip1_177_6043)">
<path d="M63.4245 50.3605L55.2115 51.4855C54.7198 51.5529 54.5531 52.1769 54.9472 52.4747L59.6385 56.0185L60.0133 58.8046L58.8187 58.9682C58.4887 59.0134 58.257 59.3157 58.3011 59.6435C58.3099 59.7091 58.3706 59.7547 58.4364 59.7457L62.4983 59.1893C62.5644 59.1802 62.6106 59.1198 62.6018 59.0543C62.5577 58.7266 62.2545 58.4975 61.9245 58.5427L60.7301 58.7064L60.3553 55.9203L62.4454 53.1933L62.8852 52.6196L63.9404 51.2429C64.2415 50.8498 63.9159 50.2932 63.4245 50.3605ZM59.9093 55.3183L55.7058 52.143L63.1218 51.1271L59.9093 55.3183ZM63.9526 47.3875C62.5514 47.5794 61.4994 48.6352 61.2246 49.9367L61.9932 49.8314C62.2825 48.9379 63.0522 48.236 64.0484 48.0995C65.4318 47.91 66.7076 48.8738 66.8925 50.248C67.0774 51.6222 66.1023 52.8943 64.7189 53.0838C64.3047 53.1406 63.9049 53.0836 63.5365 52.9535L63.08 53.549C63.6084 53.778 64.2007 53.88 64.8147 53.7959C66.5962 53.5518 67.8474 51.9194 67.6093 50.1498C67.3712 48.3802 65.7341 47.1435 63.9526 47.3875ZM64.5273 51.6597C64.5264 51.6599 64.5255 51.6598 64.5244 51.6599C64.5205 51.6652 64.5191 51.6715 64.515 51.6768L64.0042 52.3432C64.2029 52.3852 64.4103 52.4009 64.6231 52.3718C65.6114 52.2364 66.3077 51.3277 66.1757 50.3462C66.0436 49.3647 65.1325 48.6762 64.1441 48.8116C63.5606 48.8915 63.0843 49.2441 62.8148 49.7188L64.2399 49.5236C64.8329 49.4424 65.3796 49.8554 65.4589 50.4444C65.5381 51.0334 65.1203 51.5785 64.5273 51.6597Z" fill="black"/>
<path fill-rule="evenodd" clip-rule="evenodd" d="M63.7891 57.9588C64.2665 57.4137 64.7194 56.8467 65.1579 56.2694C65.4692 55.8694 64.8783 55.3935 64.5484 55.7757C64.3797 55.9711 64.2123 56.1673 64.0434 56.362C64.155 56.1528 64.2496 55.9353 64.3228 55.7099L64.3096 55.704C64.6601 55.0148 63.6283 54.3692 63.1717 55.0006C62.785 55.5995 62.3965 56.2081 61.8798 56.7038C60.8135 57.7411 59.4434 58.3744 58.0829 58.9187C57.5684 59.0742 57.124 59.3464 56.6758 59.6315C56.5735 58.7878 56.8286 58.0222 56.7978 57.1786C56.6981 56.3535 55.4261 56.2573 55.3193 57.1287C55.2931 57.3427 55.2721 57.5571 55.2534 57.7716C54.716 58.8481 53.3128 59.3143 52.7895 60.4493C52.4768 61.0572 52.4636 61.723 52.5916 62.3365C52.6785 62.7532 52.9247 63.1093 52.8216 63.548C52.3009 65.6111 51.4785 68.8717 51.2445 71.011C48.9859 67.0162 45.2663 62.4333 42.0096 59.2414C40.9487 58.2281 39.8136 57.276 38.5288 56.5662C38.4958 56.1764 37.9051 55.6906 37.7528 55.9694C36.735 55.3831 35.4257 55.6358 34.2791 55.5921C32.7311 55.5327 31.1746 54.7666 30.1171 53.6207C28.4395 51.3086 26.5992 51.6442 24.2631 52.6787C21.9849 53.5566 20.6734 55.1911 21.0651 57.7225C20.7301 59.8884 18.2352 60.5166 16.6991 61.6498C15.5525 62.4256 14.5031 63.3452 13.5601 64.362C11.802 63.6266 9.15177 70.5921 9.23838 72.0874C9.50383 72.0402 9.77151 72.0034 10.0418 71.9801C10.2826 71.9595 10.317 72.3251 10.0784 72.3568C9.78128 72.396 9.49025 72.4565 9.20323 72.5314C9.20492 72.5612 9.2076 72.5904 9.21203 72.6186C9.18035 72.6285 9.14852 72.6377 9.11683 72.6476C9.19896 72.6571 9.28071 72.6733 9.36536 72.7023C9.56998 72.7723 9.46326 73.1015 9.25896 73.0616C9.05899 73.0044 8.86252 73.1017 8.66118 73.1344C8.79702 73.5254 7.26504 73.6217 7.00392 73.5757C6.01449 73.8218 5.09175 74.3253 4.0358 74.2068C2.76834 74.4112 1.48207 74.5926 0.201875 74.7238C-0.0592456 74.9633 -0.183609 75.507 0.180682 75.7298C0.372651 75.8211 0.285849 76.1249 0.0741963 76.0891C-0.635681 75.9692 -1.2876 75.6054 -1.88712 75.1738C-2.13501 75.0609 -2.43744 75.2228 -2.70629 75.2402C-2.71628 75.3108 -2.71057 75.383 -2.685 75.4494C-3.63947 76.0127 -2.48625 76.8544 -1.84122 77.0061C-2.04509 77.2897 -1.92262 77.6433 -1.78797 77.926C-1.80603 78.0522 -1.7763 78.1885 -1.68194 78.2857C-1.32115 78.657 -0.764331 78.8719 -0.312202 79.111C0.187042 79.3751 0.649418 79.6559 1.19538 79.8153C3.27995 80.4322 5.49024 80.3729 7.59046 79.8717C8.34134 79.7073 9.42526 79.481 10.0942 79.9162C10.2592 80.676 10.323 81.4412 10.4096 82.2109C10.5117 83.2375 10.8984 84.204 11.2551 85.1529C11.2092 85.138 11.1441 85.1699 11.1546 85.228C11.2455 85.6434 11.3546 86.0618 11.2434 86.4834C11.2692 87.1774 11.3798 87.8855 11.5472 88.5603C12.3978 91.7374 13.5191 94.9132 15.3626 97.6517C16.057 98.6635 16.8997 99.5545 17.8697 100.3C18.159 100.522 18.4785 100.496 18.7146 100.34C19.7493 100.458 20.8914 100.183 21.7778 99.708C24.6046 97.5758 24.3283 100.184 28.5203 97.7967C35.8193 93.8421 44.3108 92.7809 51.5359 88.6809C52.2828 90.0779 54.5915 88.7013 55.2131 87.7481C57.0517 84.8245 56.0086 78.2235 56.1222 74.6262C56.0817 71.8412 55.9242 66.9416 57.247 64.5505C57.6554 63.8646 58.2684 63.3495 58.8995 62.881C61.2723 61.178 63.6693 59.5083 66.0543 57.8224C66.4594 57.5382 66.0866 56.7995 65.627 57.0339C65.0171 57.345 64.4026 57.6507 63.7891 57.9588Z" fill="white"/>
<path fill-rule="evenodd" clip-rule="evenodd" d="M5.00482 80.1712C4.81806 80.2179 4.61893 80.2214 4.4261 80.238C4.13129 80.2623 3.83682 80.2717 3.54151 80.2666C2.9326 80.2574 2.32463 80.2032 1.72728 80.0803C0.762184 79.8811 -0.165984 79.5064 -0.975349 78.9361L-1.03123 78.8961C-1.49853 78.5568 -2.42527 77.7603 -1.94582 77.18C-2.46509 77.0005 -3.06304 76.5487 -3.21672 76.0808C-3.43401 75.4191 -2.64058 75.1224 -2.12743 75.2401C-1.79144 75.3171 -1.49498 75.4924 -1.19948 75.6634C-0.871964 75.8536 -0.534195 76.025 -0.1909 76.1829C-0.0998933 76.2245 -0.0087339 76.2646 0.0831646 76.3032L0.175323 76.3413C0.155249 76.3201 0.1361 76.2978 0.117871 76.2745C-0.181254 75.8986 -0.230641 75.2778 0.119508 74.9172C0.333761 74.6964 0.631586 74.6654 0.922237 74.67L0.966884 74.671C1.35978 74.6815 1.75055 74.674 2.14181 74.638C3.73659 74.4911 5.26453 73.9783 6.81691 73.6125C7.41513 73.4722 8.03163 73.3483 8.65262 73.2767C8.51734 72.2697 8.70947 71.1799 9.00607 70.2297C10.4277 65.683 14.5179 62.78 18.3767 60.4324C18.7286 60.2188 19.2331 60.6022 19.4074 60.3979C19.7382 60.011 19.9832 59.5494 20.1728 59.0775C20.577 58.0709 20.7323 57.0108 20.9901 55.9636C21.1176 55.4463 21.9066 55.5599 21.8108 56.0993L21.7636 56.3631C21.5679 57.4445 21.3255 58.5746 20.8253 59.548C20.5593 60.0649 20.2201 60.5231 19.7762 60.8991C19.4399 61.1837 18.9394 61.5074 18.4657 61.5409L18.3864 61.4858C18.4127 61.5043 18.4391 61.5227 18.4657 61.5409C20.1875 62.7313 22.0969 63.5639 24.0516 64.2907C26.0243 65.0235 28.0617 65.575 30.0988 66.0968L30.2685 66.1403C32.1502 63.2075 33.4041 59.8465 33.8639 56.3827C33.5244 56.4688 33.1237 56.3831 32.7869 56.3339C32.3811 56.2738 31.9813 56.1695 31.6223 55.9631C30.8401 55.5138 30.5885 54.6421 30.1902 53.8838C30.1657 53.8367 30.2256 53.7993 30.2647 53.8125C30.6457 53.9429 30.8979 54.3006 31.1487 54.5967C31.4247 54.9222 31.6929 55.1745 32.0984 55.3218C32.4759 55.459 32.891 55.5067 33.2886 55.5384C33.4935 55.5543 34.4351 55.4346 34.6002 55.5732C35.9533 54.6459 37.6329 54.6942 39.1246 55.2946C40.5659 55.8747 41.837 56.8618 43.0103 57.8678C44.2621 58.9413 45.4029 60.1238 46.4753 61.3779C47.5631 62.6511 48.5401 64.0041 49.3526 65.4728C50.0378 66.7109 50.6584 67.9976 51.2361 69.2941L51.3081 69.4562C51.7464 67.2886 52.219 65.1287 52.7207 62.9751C52.1913 62.3714 52.2075 61.5397 52.4907 60.8058C52.8048 59.9931 53.4495 59.4227 54.0442 58.8192L54.1222 58.7395C54.4079 58.4462 54.6864 58.1372 54.8948 57.7828C55.095 57.441 55.1859 57.0417 55.4083 56.7123C55.7313 56.2326 56.5557 55.9893 56.8327 56.6569C56.9841 57.0239 56.9807 57.4918 56.9629 57.881C56.9423 58.3213 56.8513 58.7482 56.7083 59.1636C56.7018 59.1829 56.6929 59.1996 56.6829 59.2139L56.6752 59.2243C57.0607 59.1447 57.4445 59.0522 57.8233 58.9252C58.5875 58.6694 59.3254 58.3199 60 57.8756C60.6907 57.4209 61.3192 56.8731 61.8555 56.2408C62.3139 55.7007 62.6945 55.0841 63.3151 54.7335C63.3721 54.7007 63.431 54.6711 63.4926 54.6433C63.5953 54.5968 63.7475 54.6809 63.7458 54.8015C63.745 54.868 63.7428 54.9342 63.7385 55.002C63.7031 55.5949 63.5407 56.2196 63.2472 56.7596L63.2244 56.801C63.3573 56.6882 63.4854 56.5699 63.6083 56.4448C64.3309 55.7101 64.8955 54.8039 65.7402 54.2007C65.7801 54.1718 65.8209 54.1439 65.862 54.1166C66.1276 53.9416 66.4009 54.2001 66.3134 54.4834C66.2994 54.5293 66.2852 54.5746 66.2698 54.6203C66.0508 55.3051 65.7744 55.969 65.4321 56.6018C65.3146 56.8185 65.1901 57.0326 65.0597 57.2415C65.0048 57.3299 64.9491 57.4172 64.8921 57.5039L64.864 57.5464C64.9308 57.4458 64.9958 57.3445 65.0596 57.2415C65.5664 56.8445 66.0527 56.4184 66.5183 55.9747C66.7033 55.7985 66.9594 55.9571 67.0528 56.1327C67.3658 56.7211 66.8553 57.4317 66.5255 57.9004C66.195 58.3709 65.7923 58.7869 65.3611 59.1627C64.5321 59.8858 63.5819 60.4361 62.6271 60.9692L62.1631 61.2277C60.3271 62.2518 58.4252 63.3629 57.6118 65.4245C57.1559 66.5799 57.0309 67.8447 56.9443 69.0751C56.8579 70.3042 56.8408 71.5381 56.8475 72.7695C56.8539 74.0441 56.9217 75.3186 56.9632 76.5926C57.0013 77.7623 56.9654 78.9455 56.9297 80.1168L56.9241 80.3016C56.8491 82.7906 56.5537 85.2217 55.753 87.5854C55.6212 87.9756 55.0673 87.7085 55.1815 87.3284C55.9652 84.7137 56.1397 81.9187 56.1282 79.2022C56.1231 77.9661 56.0423 76.7296 56.0192 75.4937L56.0059 74.7594C55.9887 73.7803 55.9745 72.8013 55.976 71.8227C55.978 70.5845 56.0258 69.3434 56.1521 68.1118L56.1658 67.982C56.295 66.791 56.525 65.5775 57.0683 64.5039C58.0459 62.5709 59.9084 61.4774 61.7308 60.477L62.3044 60.163C63.0749 59.7402 63.8434 59.305 64.5497 58.7806C64.9576 58.4786 65.3415 58.1453 65.6754 57.7612C65.8085 57.6086 65.9342 57.4488 66.0514 57.2821C65.6532 57.5885 65.2395 57.8732 64.8086 58.1376C64.5979 58.267 64.3854 58.385 64.1699 58.4933C63.6156 58.7737 63.0431 58.9925 62.4411 59.1897C62.3898 59.206 62.3434 59.133 62.3932 59.1023C62.7762 58.8696 63.1527 58.6182 63.5245 58.3596L63.6358 58.2818C63.6121 58.2121 63.6111 58.1288 63.6408 58.0378C63.7495 57.7085 64.0883 57.4304 64.2897 57.1496C64.5007 56.8555 64.6975 56.5502 64.876 56.2356C65.0394 55.9479 65.1891 55.6526 65.3266 55.3513L65.3677 55.2606C65.3541 55.2909 65.3404 55.3211 65.3266 55.3513C64.8385 55.8571 64.4109 56.429 63.8747 56.8874C63.4486 57.2524 62.9771 57.5696 62.4721 57.8128L62.4407 57.8279L62.4092 57.8426C61.8805 58.0922 61.3274 58.288 60.8371 58.6138C60.7822 58.6506 60.7327 58.5766 60.7776 58.533C61.1709 58.1556 61.6286 57.8916 62.0855 57.6097C62.0812 57.5668 62.0949 57.5218 62.133 57.4814L62.2358 57.3721C62.5415 57.0456 62.8211 56.7272 63.0206 56.312C63.1967 55.9452 63.31 55.5521 63.3536 55.1481C62.7234 55.5666 62.3191 56.3265 61.8057 56.8642C61.2466 57.4507 60.6133 57.9613 59.9222 58.3798L59.8433 58.427C58.5469 59.1958 56.8702 59.8103 55.3534 59.5636C55.3048 59.5554 55.3131 59.4909 55.3563 59.4816C55.7303 59.4037 56.1049 59.3377 56.4765 59.2641C56.3845 59.2275 56.3113 59.1264 56.3555 59.0054C56.531 58.5225 56.6213 58.0131 56.6076 57.4994L56.6043 57.3991C56.5974 57.161 56.5966 56.7874 56.3991 56.6466C56.2105 56.5126 55.9373 56.6466 55.7974 56.7883C55.5068 57.0842 55.4248 57.5738 55.2204 57.9293C54.9977 58.3175 54.7047 58.6547 54.3953 58.9747L54.3297 59.0417C53.7918 59.5882 53.1917 60.1052 52.8784 60.8237C52.7097 61.2099 52.606 61.6513 52.6758 62.0741C52.708 62.2679 52.7783 62.4531 52.8938 62.6128C52.9846 62.7375 53.0965 62.7927 53.1048 62.9519C53.1148 63.1578 52.9876 63.4578 52.9411 63.6626C52.8867 63.8995 52.8331 64.1366 52.7795 64.3738C52.673 64.8479 52.568 65.3228 52.4628 65.7971C52.2529 66.7468 52.0496 67.698 51.8512 68.65C51.7867 68.9599 51.7229 69.27 51.6596 69.58L51.5653 70.0452L51.5152 70.2905L51.4306 70.7109C51.45 70.7391 51.4619 70.7723 51.4629 70.8049C51.4663 70.9233 51.4254 71.021 51.3605 71.1054L51.3488 71.1202C50.8587 73.5842 50.3934 76.0535 49.9128 78.5193C50.0774 79.1515 50.2463 79.7827 50.4234 80.4108C50.8238 81.8325 51.264 83.2429 51.7613 84.633C52.0022 85.306 52.3105 85.9574 52.5925 86.6137C52.7275 86.9267 52.8675 87.2374 53.0133 87.5458L53.1173 87.7641C53.2596 88.0643 53.3903 88.3664 53.3921 88.7044C53.3927 89.0014 53.1165 89.175 52.8649 89.0458C50.5262 89.8432 48.1943 90.6636 45.8726 91.511C41.7166 93.0269 37.5939 94.6357 33.4983 96.3122C31.4412 97.1544 29.3899 98.0133 27.3448 98.8852C26.337 99.3142 25.3339 99.7575 24.3179 100.167C23.7705 100.387 22.8277 100.52 22.546 99.9123L22.5376 99.8937C22.476 99.9391 22.4107 99.9818 22.3422 100.021C22.3116 100.039 22.28 100.049 22.2486 100.054L22.2329 100.055C21.5084 100.625 20.3341 100.666 19.4749 100.758L19.4041 100.766C18.5857 100.858 17.8816 100.809 17.1576 100.376C15.8903 99.6166 15.0433 98.2664 14.3797 96.9769C13.7556 95.7631 13.2566 94.474 12.9485 93.1407C12.4546 92.1483 12.1498 91.045 11.876 89.9742C11.7404 89.4447 11.6149 88.912 11.5036 88.3765C11.4415 88.0775 11.3945 87.776 11.3489 87.4747C11.3306 87.3543 11.3051 87.227 11.2916 87.0996L11.2866 87.045C11.198 87.0934 11.0882 87.1123 10.969 87.0958C10.6855 87.0564 10.5174 86.8199 10.4178 86.5699C10.1169 85.8164 9.91024 85.0016 9.70317 84.2172C9.49712 83.4337 9.31965 82.6358 9.18069 81.8372L9.14499 81.6313C9.04243 81.0334 8.9487 80.4114 8.96915 79.8044C8.09348 79.9813 7.21677 80.1485 6.32219 80.2018C5.88542 80.2271 5.44288 80.2197 5.00482 80.1712ZM50.9119 71.4672C50.9002 71.4751 50.8893 71.4833 50.8784 71.4916C50.5851 71.7116 50.2829 71.9188 49.9842 72.1315C49.4672 72.498 48.9695 72.8766 48.5334 73.3346C48.961 74.797 49.3332 76.2756 49.7138 77.7517L49.7901 78.0469C49.8598 77.502 49.9366 76.9584 50.0266 76.4159C50.3 74.7626 50.5955 73.1128 50.9119 71.4672ZM11.4573 86.8894C11.5231 87.0574 11.5548 87.2462 11.5977 87.4156C11.6675 87.6907 11.7435 87.9648 11.8127 88.2401C11.9508 88.7935 12.0984 89.344 12.2612 89.8906C12.3651 90.2396 12.4781 90.5863 12.5928 90.9324C12.4499 89.5587 12.4245 88.1707 12.3769 86.7892C12.3045 86.8087 12.2269 86.819 12.1461 86.8278L12.0099 86.8419C11.93 86.8512 11.6716 86.8839 11.4573 86.8894ZM51.5653 70.0452L51.5888 70.1001C51.6728 70.2949 51.5976 70.4521 51.4658 70.5361C51.4985 70.3724 51.5318 70.2085 51.5653 70.0452ZM10.1967 75.2763C10.5564 75.1729 10.9256 75.1158 11.2998 75.1194L11.3359 75.1196C11.612 75.1202 12.0082 75.1019 12.1853 75.3305C12.2353 75.3954 12.1989 75.4789 12.133 75.5112C11.88 75.6333 11.4651 75.4701 11.1872 75.4683C10.8778 75.4666 10.5659 75.4969 10.2645 75.5656C9.58708 75.7191 8.94548 76.0496 8.43142 76.5188C8.40124 76.5467 8.35742 76.4981 8.38299 76.4687C8.86441 75.8995 9.48169 75.4821 10.1967 75.2763ZM3.46452 79.8088C3.41067 79.7885 3.35617 79.7664 3.30228 79.7442C2.87663 79.5668 2.46781 79.3258 2.11773 79.0226L2.02451 78.9399C1.73389 78.6786 1.35267 78.2935 1.65551 77.907C1.83637 77.676 2.13175 77.6021 2.42515 77.5864C2.44406 77.5851 2.46321 77.5846 2.48232 77.5838C2.6145 77.58 2.74569 77.5858 2.86377 77.5941C3.3756 77.6274 3.871 77.7723 4.37131 77.8755C4.91344 77.9875 5.41168 78.0004 5.95429 77.9109L6.00529 77.9022C6.51298 77.8138 7.04752 77.6764 7.52545 77.9407C7.64572 78.0075 7.64031 78.2219 7.47903 78.2284C6.45128 78.2706 5.46225 78.5749 4.43356 78.3895C4.00752 78.3129 3.58831 78.1979 3.15892 78.1354C2.93108 78.102 2.70221 78.0843 2.47167 78.1007L2.34615 78.1108C2.27271 78.1168 2.18656 78.1281 2.14081 78.1678C2.05328 78.2421 2.10619 78.2841 2.17356 78.3672L2.18034 78.3756C2.71643 79.0463 3.659 79.4167 4.46792 79.59C4.65356 79.6301 4.8396 79.6607 5.02607 79.6836C6.28947 79.8421 7.56305 79.6507 8.83434 79.5165C8.83434 79.5165 9.57225 79.4464 9.81987 79.4316C10.0579 79.3158 10.3715 79.2951 10.5965 79.3281C10.8151 79.3601 11.012 79.4404 11.1826 79.5586C11.1826 79.5586 11.3217 79.6065 11.3932 79.7367C11.497 79.8429 11.5866 79.966 11.6597 80.1023C11.7021 80.1823 11.7057 80.255 11.6835 80.3162C12.5038 82.1158 12.7069 84.1422 12.8162 86.1117L12.8267 86.306L12.8329 86.4294C12.9386 88.5213 12.9506 90.6341 13.3795 92.6921C13.6659 94.0668 14.1815 95.4048 14.8266 96.6476L14.8713 96.7332C15.4873 97.9058 16.2976 99.1752 17.4489 99.8654C18.0362 100.218 18.59 100.261 19.2508 100.192L19.2869 100.188C19.8834 100.123 20.5203 100.11 21.1025 99.9559C21.6427 99.8123 22.0034 99.4496 22.4009 99.0868L22.4012 99.086C23.0507 97.828 23.0115 96.3772 22.8512 94.9597C22.4379 91.2909 21.0155 87.8666 19.2442 84.667C18.3191 82.9951 17.3089 81.3737 16.3001 79.7524C15.7958 78.9421 15.2788 78.1387 14.7914 77.3184L14.5038 76.8359C14.3443 76.5678 14.1865 76.2988 14.0351 76.0256C13.8315 75.6586 13.6695 75.283 13.5017 74.8995C12.7319 74.2943 11.8021 73.9102 10.8337 73.7514C10.1401 73.6373 9.45226 73.6384 8.76927 73.7104C6.81572 73.9137 4.8984 74.6945 2.97599 75.0132C2.33024 75.1205 1.69198 75.1557 1.04013 75.1542L0.951155 75.1538C0.651857 75.1523 0.364511 75.198 0.352862 75.5579C0.344556 75.8139 0.486423 76.0221 0.694858 76.1538C1.20578 76.4768 1.96626 76.424 2.54048 76.3894C2.88622 76.369 3.23054 76.3255 3.57077 76.2606C3.911 76.1958 4.23587 76.087 4.58427 76.0823C4.71849 76.0803 4.81349 76.26 4.6852 76.348C4.33297 76.5889 3.91406 76.6612 3.50071 76.7341C3.04634 76.8134 2.58502 76.855 2.12328 76.8603C2.03816 76.8614 1.94986 76.862 1.85944 76.8613L1.79127 76.8606C1.86944 76.8816 1.94736 76.9021 2.02587 76.9223C2.04663 76.9277 2.04856 76.9627 2.0241 76.9634C0.9374 76.9732 -0.172976 76.662 -1.13338 76.1572L-1.18127 76.1318C-1.52089 75.9502 -2.37222 75.3327 -2.73819 75.7379C-3.08194 76.1182 -2.04064 76.6687 -1.63582 76.9018L-1.58867 76.9292C-1.27208 76.8162 -0.893734 76.8957 -0.579405 76.9562C-0.0335833 77.0614 0.517509 77.1207 1.07151 77.1612C2.17307 77.2429 3.28274 77.1718 4.38286 77.2796C4.39757 77.2814 4.39426 77.3008 4.38196 77.3036C3.7581 77.4363 3.11923 77.5101 2.47994 77.5423L2.45155 77.5441L2.42297 77.5454C2.02348 77.5651 1.62286 77.5677 1.22468 77.5591C0.782056 77.5497 0.34078 77.5174 -0.0983586 77.4573C-0.495753 77.4034 -0.984433 77.2181 -1.38379 77.3173C-1.42659 77.3278 -1.46295 77.3411 -1.49328 77.3563C-1.91677 77.5625 -1.27713 78.154 -1.0717 78.3254C-0.735395 78.6073 -0.368224 78.8456 0.0235451 79.0413C0.818231 79.4393 1.68331 79.6637 2.56323 79.7583C2.86348 79.7905 3.16375 79.8051 3.46452 79.8088Z" fill="black"/>
</g>
<path fill-rule="evenodd" clip-rule="evenodd" d="M19.2329 50.6118C22.3394 49.9214 24.1818 49.9214 25.2244 48.8518C26.2669 47.7822 26.4561 45.9463 26.8886 44.5287C27.1269 43.7476 29.4615 43.0381 31.7262 43.1492C33.5718 43.2397 35.4318 44.0261 35.5755 44.5287C35.8954 45.648 36.41 50.4394 38.102 51.1756C39.7941 51.9117 43.4065 51.2406 44.4393 52.9985C45.4721 54.7565 48.864 61.9227 48.864 63.5924C48.864 65.2622 15.7031 64.7517 15.7031 64.7517C15.7031 64.7517 16.1265 51.3022 19.2329 50.6118Z" fill="white"/>
<path fill-rule="evenodd" clip-rule="evenodd" d="M5.69118 89.5074C5.7386 89.5414 5.70116 89.542 5.69118 89.5074V89.5074ZM5.50711 89.3689C5.51023 89.3714 5.51397 89.3739 5.51771 89.3764C5.48028 89.3733 5.45719 89.3349 5.50711 89.3689ZM54.5826 84.9418C54.3742 84.0433 54.1665 83.1442 53.958 82.2457C53.5231 80.3668 53.0876 78.4873 52.6527 76.6078C51.801 72.932 50.9499 69.2561 50.0981 65.5802C49.6657 63.7121 49.1715 61.8584 48.7254 59.9934C48.3348 58.3588 48.0122 56.6852 47.3414 55.1382C46.6569 53.559 45.4545 52.2393 43.8621 51.57C42.5212 51.0071 41.0131 50.6954 39.553 50.6242C39.7364 50.3976 39.7795 50.062 39.5118 49.7881C39.1799 49.4487 39.1125 48.9443 39.0239 48.4954C38.9134 47.9344 38.7418 47.3331 38.4111 46.8608C38.2713 46.6612 38.0679 46.5681 37.8283 46.6216C37.6811 46.6543 37.5362 46.6927 37.3934 46.7362C37.3472 46.6896 37.3017 46.6398 37.2618 46.5794C37.1713 46.4396 37.1126 46.235 36.9828 46.1279C36.8949 46.0549 36.795 46.0373 36.6921 46.0902C36.4156 46.2318 36.3926 46.6606 36.4518 46.9238C36.4637 46.9748 36.478 47.0258 36.4955 47.0756C36.4768 47.0844 36.4575 47.0932 36.4381 47.102H36.4375C36.0768 47.0327 35.6163 47.1788 35.2644 47.2141C34.8556 47.255 34.4451 47.2821 34.0346 47.2953C33.1941 47.3224 32.3523 47.2972 31.5156 47.2122C30.7 47.1303 29.8901 46.9987 29.0846 46.8501C28.5829 46.7576 27.9714 46.6808 27.5309 46.3766C27.524 46.2249 27.5203 46.0725 27.5172 45.9208C27.5109 45.657 27.5246 45.4498 27.3855 45.2181C27.3836 45.2156 27.3805 45.2149 27.3774 45.2162C27.2052 45.3069 27.0816 45.4618 26.9911 45.6456C26.8258 45.6009 26.6479 45.6072 26.4938 45.6721C26.276 45.7634 26.1138 45.8685 25.9447 46.0373C25.6933 46.2872 25.6197 46.5794 25.546 46.915C25.493 47.1555 25.4599 47.3274 25.3651 47.4886C25.3445 47.5232 25.3226 47.5597 25.2989 47.5931C25.2902 47.6019 25.274 47.6189 25.2465 47.6479C25.2191 47.6756 25.1916 47.7027 25.1635 47.7298C25.1473 47.7461 25.0674 47.8116 25.0799 47.8028C24.7342 48.0622 24.4216 48.1598 23.9948 48.2838C23.0763 48.5508 22.1354 48.7252 21.22 49.0086C20.2198 49.3184 19.2414 49.6949 18.2848 50.1224C14.5641 51.7853 11.2339 54.4179 8.9633 57.8463C6.3189 61.8395 5.3455 66.6897 4.86317 71.3919C4.33528 76.5455 4.3721 81.7577 4.25666 86.9328C4.24231 87.5801 4.22796 88.2273 4.21361 88.8746C4.19926 89.5074 4.16057 90.1887 4.71716 90.615C5.21322 90.994 5.81722 90.875 6.36632 90.7044C6.9541 90.5224 7.55249 90.3776 8.15837 90.2737C9.30149 90.0791 10.4808 90.0558 11.6339 90.1692C12.2535 90.2302 13.0116 90.462 13.5208 89.9721C13.7036 89.7958 13.8091 89.5723 13.8952 89.3374C14.0025 89.0478 14.1279 88.7638 14.2527 88.4792C14.3557 88.245 14.458 88.0095 14.5603 87.7746C14.7263 88.5082 14.8923 89.2417 15.0583 89.9759C15.1238 90.2649 15.4227 90.2869 15.603 90.1465C15.8975 90.3058 16.2844 90.3027 16.6188 90.3417C17.1567 90.404 17.6989 90.4254 18.2393 90.4443C19.2982 90.4808 20.3571 90.501 21.4166 90.5148C23.5768 90.5426 25.737 90.5325 27.8965 90.523C32.1751 90.5041 36.4531 90.416 40.7298 90.3039C41.9341 90.2724 43.1383 90.2441 44.3425 90.2145C44.9441 90.2 45.5462 90.1855 46.1484 90.1685C46.3287 90.1635 46.5109 90.1465 46.6819 90.1062H46.6824C46.7586 90.1736 46.8522 90.2252 46.9639 90.2561C47.3638 90.3669 47.7613 90.1201 47.8811 89.7303C47.9367 89.5515 47.9754 89.3878 47.9616 89.214C47.9823 89.083 48.0028 88.9521 48.0234 88.8211C48.6911 89.2474 49.4923 89.3632 50.2828 89.3103C51.177 89.2505 52.0711 89.0855 52.9584 88.9628C53.7914 88.8475 55.1417 88.8847 55.1817 87.7236C55.196 87.2986 55.0181 86.822 54.9233 86.4127C54.8097 85.9222 54.6962 85.4323 54.5826 84.9418Z" fill="black"/>
<path fill-rule="evenodd" clip-rule="evenodd" d="M41.7964 26.9068C41.5555 25.436 42.3462 25.1308 41.7964 23.7327C40.5745 21.1421 37.2447 21.2537 34.8012 21.0545C32.0758 20.9491 29.3173 21.3122 26.8049 22.4145C26.2047 22.6777 25.6275 22.9873 25.0741 23.3391C24.5957 23.6433 24.6614 24.2217 24.9631 24.5372C22.7877 27.6459 24.0319 31.8187 22.2961 35.0909C21.9754 35.6758 21.5513 36.2003 21.2726 36.8089C20.8489 37.7341 20.8218 39.0596 21.7826 39.674C23.1358 40.407 23.8909 38.9558 24.5558 41.0594C27.8765 48.3942 34.5529 48.8072 40.891 44.9832C41.4394 44.6754 41.999 44.3275 42.4131 43.844C43.353 42.7766 43.2423 41.2757 43.263 39.9428C43.2746 39.1617 43.2766 38.3805 43.269 37.5993C43.2395 34.4348 42.2001 30.0452 41.7964 26.9068Z" fill="white"/>
<path fill-rule="evenodd" clip-rule="evenodd" d="M28.2964 18.1098C32.1232 16.3581 36.4636 15.6938 40.638 16.1295C42.6984 16.3443 44.7317 16.8049 46.6667 17.5532L46.8363 17.6194C47.314 17.8049 47.8289 17.989 48.1918 18.3667C48.6143 18.8055 48.7328 19.4692 48.4308 20.0113C48.1962 20.4325 47.7744 20.7347 47.3245 20.896C47.483 21.0269 47.6334 21.173 47.7744 21.3361C48.0121 21.6094 48.0302 21.999 47.7744 22.2686C47.2815 22.788 46.6419 23.1639 45.953 23.344C46.0304 23.7212 45.9886 24.1386 45.8226 24.5145C45.3463 25.5936 44.0047 25.7222 42.9723 25.6581L42.9411 25.6561L42.8837 26.3191C42.8531 26.6723 42.6435 26.9462 42.2878 27.0004C42.2753 27.0023 42.2628 27.0035 42.2504 27.0047C42.8132 29.0587 43.1533 31.1761 43.4671 33.2811C43.6311 34.3799 43.7779 35.4812 43.9184 36.5833L43.965 36.9507C44.1148 38.1388 44.302 39.3389 44.3669 40.5359C44.4249 41.622 44.2196 42.6591 43.5563 43.5355C42.9611 44.3213 42.1493 44.91 41.2763 45.347C39.304 46.3349 37.228 47.0704 35.0466 47.4116L34.9011 47.4342C34.0591 47.5639 33.1915 47.6732 32.3585 47.4381C31.6266 47.2315 30.8591 46.6989 31.0245 45.8432C31.08 45.5542 31.4806 45.5416 31.6179 45.7651L31.6495 45.8163C31.8141 46.0799 31.9945 46.3248 32.2818 46.4608C32.6181 46.6208 33.0081 46.6654 33.3756 46.6699C34.402 46.6819 35.4709 46.4237 36.4593 46.1649C38.305 45.6814 40.2006 44.893 41.7125 43.6986C42.3558 43.1911 42.8725 42.5564 43.0547 41.7398C43.2799 40.733 43.0728 39.6323 42.9704 38.6205C42.7598 36.5326 42.5092 34.4486 42.2448 32.367L42.1917 31.9507C41.969 30.2103 41.735 28.4693 41.6239 26.7189C41.5777 26.6553 41.5465 26.5829 41.534 26.5036L41.5166 26.3896C41.5016 26.292 41.4991 26.2026 41.5097 26.1201C41.5103 25.8041 41.5191 25.4899 41.5372 25.1737C41.5402 25.1171 41.5428 25.0604 41.5446 25.0044C41.2189 25.0768 40.8907 25.1354 40.5613 25.1851C38.2451 25.5371 35.8927 25.6252 33.5578 25.4502C32.3928 25.3626 31.2367 25.2122 30.0841 25.0239C29.4975 24.9282 28.9129 24.8224 28.3301 24.7041C27.909 24.6191 27.4965 24.5038 27.0822 24.3955C26.6548 25.0233 26.4239 25.7959 26.4688 26.5546C26.5194 27.4204 27.0909 28.2055 26.9306 29.0902C26.7801 29.9181 26.0771 30.1748 25.3831 30.3799L25.088 30.4659C24.8609 30.5328 24.696 30.5973 24.6549 30.8727C24.5844 31.3456 24.6712 31.8776 24.6892 32.353C24.7111 32.9153 24.7397 33.4776 24.7529 34.0398C24.7598 34.3307 24.7709 34.6229 24.7704 34.9138C24.7697 35.1203 24.7392 35.2613 24.6599 35.3948C24.7211 35.4723 24.7759 35.556 24.8246 35.6448C24.8402 35.6738 24.8016 35.7045 24.7785 35.6807C24.7167 35.6158 24.6511 35.5573 24.5819 35.505C24.547 35.5485 24.5064 35.5925 24.4589 35.6398L24.4553 35.6347C24.3068 35.7839 24.0709 35.7984 23.8868 35.6398L23.8384 35.5975C23.7037 35.4783 23.6111 35.379 23.5736 35.182C23.5717 35.1719 23.5698 35.1619 23.5686 35.1518C23.226 35.1398 22.8779 35.2216 22.5696 35.3936C22.081 35.6662 21.7372 36.0547 21.5339 36.5345C21.6149 36.6302 21.7098 36.7158 21.8202 36.7876C21.8358 36.7983 21.8221 36.8216 21.8052 36.8134C21.6923 36.7599 21.5912 36.6938 21.5007 36.6163C21.4277 36.8052 21.3766 37.008 21.3454 37.2227C21.2356 37.9808 21.4315 38.907 22.1104 39.3389C22.4043 39.5259 22.74 39.6273 23.0881 39.6286C23.2578 39.6291 23.4045 39.6002 23.5692 39.5593C23.6809 39.5316 23.792 39.4913 23.9087 39.4913C24.0085 39.4913 24.1008 39.5165 24.1863 39.5669L24.1626 39.569C24.105 39.5744 24.1161 39.5769 24.1963 39.5769C24.4459 39.5876 24.5887 39.8433 24.474 40.0655L24.4589 40.0999C24.4557 40.1068 24.4531 40.1125 24.451 40.1171L24.4419 40.1761C24.441 40.1817 24.44 40.1874 24.439 40.1934L24.4356 40.2053C24.4349 40.2072 24.4342 40.2091 24.4334 40.211L24.8077 40.787C25.2667 41.4917 25.7359 42.1936 26.2698 42.8372C26.6442 43.2887 27.041 43.7313 27.4603 44.1412C27.8372 44.5096 28.289 44.6871 28.7157 44.9768C28.9436 45.1304 29.0103 45.4522 28.8032 45.6593C28.1954 46.2682 27.3349 45.7846 26.8363 45.2897C26.3646 44.8206 25.9572 44.2565 25.6059 43.6917C24.9825 42.6874 24.4865 41.6195 24.2693 40.4603C24.1788 40.5441 24.0634 40.5963 23.9467 40.6373C23.7127 40.7191 23.455 40.7531 23.2079 40.7619C22.7343 40.7777 22.2601 40.6618 21.8339 40.4566C20.0999 39.6223 19.8453 37.1238 20.9055 35.6505C20.7625 35.2321 20.6827 34.7783 20.5959 34.3912L20.5565 34.2182C20.118 32.2856 19.8238 30.2509 20.601 28.3573C20.7008 28.113 20.8131 27.875 20.946 27.647C21.0527 27.4638 21.2362 27.2686 21.2867 27.0602C21.399 26.6024 20.7058 26.1214 20.5036 25.7581C20.2659 25.3318 20.2322 24.8287 20.556 24.4389C20.5972 24.3899 20.6421 24.3445 20.6908 24.3049C20.3838 23.7432 20.3695 23.0368 20.7738 22.4827C21.0396 22.1175 21.4452 21.8618 21.8882 21.7844C22.159 21.7372 22.4847 21.7548 22.7824 21.8392C24.4121 20.3123 26.2716 19.0366 28.2964 18.1098ZM22.038 37.2151C22.4729 36.8279 22.9534 36.6252 23.5462 36.6762C24.1421 36.7277 24.8596 36.9765 25.2096 37.4922C25.4861 37.8996 24.9226 38.4971 24.5171 38.1911C24.1477 37.9122 23.9011 37.5973 23.4426 37.4475C23.0307 37.3134 22.5209 37.2271 22.0897 37.3039C22.0423 37.3121 21.995 37.2529 22.038 37.2151Z" fill="black"/>
<path fill-rule="evenodd" clip-rule="evenodd" d="M37.792 40.1763L37.8351 40.1662C38.1798 40.0842 38.5115 39.9726 38.8326 40.1882C39.1386 40.3935 39.181 40.7733 38.9427 41.0503C38.6977 41.3352 38.3722 41.3192 38.0288 41.3231L38.0073 41.3234C37.7221 41.3274 37.4321 41.3231 37.148 41.2976C36.8832 41.2738 36.6166 41.2358 36.3548 41.1858L36.2 41.1552C36.0418 41.1229 35.886 41.0809 35.8045 40.9264C35.6623 40.6571 36.7188 40.4458 36.8472 40.4088C37.1587 40.3191 37.476 40.2485 37.792 40.1763ZM38.3779 36.9291C38.2095 37.1054 37.987 37.2258 37.7373 37.3007C37.1097 37.489 36.3089 37.3887 35.7963 37.1968C35.6899 37.157 35.5905 37.0759 35.5334 36.9744C35.4813 36.8817 35.4636 36.7727 35.5033 36.6616C35.5146 36.63 35.5284 36.599 35.5422 36.5685C35.5798 36.4854 35.6564 36.4208 35.7465 36.3839C35.8399 36.3455 35.9462 36.3376 36.0315 36.3647C36.0429 36.3683 36.0547 36.3721 36.0667 36.3759C36.3915 36.4792 36.9242 36.6503 37.3655 36.6171C37.6303 36.5972 37.8633 36.5028 37.9837 36.2583C38.0472 36.1293 38.0297 36.0018 37.9733 35.8851C37.8884 35.709 37.7184 35.5558 37.5751 35.4503C37.3731 35.3015 37.1577 35.2421 36.9349 35.1793C36.8509 35.1557 36.7659 35.1317 36.6801 35.103C36.6518 35.0936 36.627 35.0751 36.6084 35.0511C36.5901 35.0273 36.5781 34.9983 36.5743 34.9691C36.5704 34.939 36.5752 34.9089 36.5891 34.883C36.6019 34.859 36.6225 34.8378 36.6532 34.824C37.0891 34.6269 37.6529 34.7571 38.0784 35.0672C38.2911 35.2221 38.4685 35.4212 38.5778 35.6436C38.6793 35.85 38.7224 36.0765 38.6826 36.3075C38.6381 36.566 38.5297 36.7703 38.3779 36.9291ZM31.2335 32.5317C31.356 32.4772 31.4566 32.7322 31.4819 32.8017L31.534 32.9459C31.619 33.1784 31.7167 33.4148 31.8955 33.5874C32.0452 33.7319 32.285 33.8544 32.4587 33.6853C32.6234 33.525 32.5431 33.3443 32.5674 33.1476C32.6112 32.7917 33.0921 32.436 33.3812 32.8074C34.0344 33.6464 33.0238 34.8133 32.093 34.6086C31.6196 34.5044 31.2385 34.1214 31.0819 33.6659L31.0739 33.6419C30.9802 33.3533 30.8854 32.6867 31.2335 32.5317ZM39.6624 33.1161L39.6579 33.1054C39.3468 32.3913 40.4566 32.0845 40.5506 32.7256L40.5566 32.7689C40.6481 33.4807 40.4553 34.4378 39.5913 34.5088C38.6216 34.5885 38.2177 33.4966 38.3043 32.6954C38.3199 32.552 38.4923 32.5321 38.5456 32.6625L38.557 32.6909C38.7135 33.0936 38.8622 33.868 39.414 33.8672C39.7826 33.8666 39.765 33.3645 39.6624 33.1161ZM40.366 31.0489C40.9234 31.029 40.9227 31.9093 40.366 31.9226C38.5064 31.9667 36.6454 32.0254 34.7853 32.0354L34.4472 32.0375C32.7 32.0493 30.9467 32.0734 29.2046 31.9254C29.0559 31.9129 29.0835 31.7022 29.2078 31.7107C31.0342 31.4484 32.8829 31.3717 34.7233 31.272C36.6025 31.1702 38.4853 31.1163 40.366 31.0489Z" fill="black"/>
</g>
<defs>
<clipPath id="clip0_177_6043">
<rect width="64" height="74" fill="white" transform="translate(4 16)"/>
</clipPath>
<clipPath id="clip1_177_6043">
<rect width="30.2356" height="46.1" fill="white" transform="matrix(0.932662 -0.360753 0.355104 0.934827 39.6475 48.1897)"/>
</clipPath>
</defs>
</svg>
