<svg width="74" height="88" viewBox="0 0 74 88" fill="none" xmlns="http://www.w3.org/2000/svg">
<g clip-path="url(#clip0_240_6285)">
<g clip-path="url(#clip1_240_6285)">
<g clip-path="url(#clip2_240_6285)">
<path d="M65.2817 48.2178L56.8121 49.4037C56.305 49.4747 56.133 50.1325 56.5395 50.4463L61.3774 54.1817L61.7639 57.1183L60.5319 57.2908C60.1917 57.3385 59.9527 57.6571 59.9982 58.0026C60.0073 58.0718 60.0698 58.1199 60.1377 58.1104L64.3266 57.5239C64.3947 57.5143 64.4423 57.4506 64.4332 57.3816C64.3878 57.0362 64.0751 56.7947 63.7348 56.8424L62.5031 57.0148L62.1166 54.0782L64.272 51.2038L64.7255 50.5991L65.8137 49.148C66.1243 48.7336 65.7885 48.1469 65.2817 48.2178V48.2178ZM61.6566 53.4437L57.3218 50.0967L64.9695 49.0259L61.6566 53.4437ZM65.8263 45.0842C64.3813 45.2865 63.2964 46.3993 63.013 47.7711L63.8056 47.6602C64.104 46.7183 64.8978 45.9785 65.9251 45.8347C67.3517 45.6349 68.6674 46.6508 68.8581 48.0993C69.0487 49.5478 68.0432 50.8886 66.6165 51.0884C66.1894 51.1482 65.7771 51.0882 65.3972 50.951L64.9265 51.5787C65.4714 51.8201 66.0821 51.9276 66.7153 51.8389C68.5525 51.5817 69.8428 49.8611 69.5973 47.9958C69.3518 46.1305 67.6635 44.8269 65.8263 45.0842ZM66.419 49.5873C66.418 49.5875 66.4171 49.5873 66.4159 49.5875C66.412 49.5931 66.4105 49.5997 66.4063 49.6053L65.8795 50.3078C66.0844 50.352 66.2983 50.3686 66.5178 50.3379C67.537 50.1951 68.255 49.2373 68.1188 48.2028C67.9827 47.1682 67.043 46.4425 66.0238 46.5852C65.4221 46.6695 64.9308 47.0411 64.653 47.5415L66.1226 47.3357C66.7341 47.2501 67.2979 47.6854 67.3796 48.3063C67.4613 48.9271 67.0304 49.5017 66.419 49.5873Z" fill="black"/>
<path fill-rule="evenodd" clip-rule="evenodd" d="M65.6579 56.2267C66.1502 55.6521 66.6173 55.0545 67.0695 54.446C67.3905 54.0243 66.7812 53.5228 66.4409 53.9256C66.267 54.1315 66.0943 54.3384 65.9202 54.5436C66.0353 54.323 66.1328 54.0939 66.2083 53.8562L66.1947 53.85C66.5562 53.1235 65.4922 52.4431 65.0213 53.1086C64.6225 53.7398 64.2218 54.3814 63.6889 54.9039C62.5894 55.9972 61.1765 56.6648 59.7734 57.2385C59.2428 57.4024 58.7845 57.6893 58.3223 57.9898C58.2168 57.1005 58.48 56.2935 58.4482 55.4044C58.3454 54.5347 57.0336 54.4332 56.9235 55.3518C56.8965 55.5773 56.8748 55.8033 56.8555 56.0293C56.3013 57.164 54.8543 57.6554 54.3146 58.8518C53.9921 59.4926 53.9785 60.1943 54.1105 60.8411C54.2001 61.2802 54.454 61.6556 54.3477 62.118C53.8107 64.2926 52.9626 67.7295 52.7213 69.9845C50.3922 65.7737 46.5563 60.943 43.1978 57.5786C42.1037 56.5105 40.9332 55.5069 39.6083 54.7588C39.5743 54.348 38.9651 53.8359 38.808 54.1298C37.7584 53.5117 36.4082 53.7781 35.2258 53.7321C33.6294 53.6694 32.0242 52.862 30.9337 51.6541C29.2037 49.217 27.3059 49.5708 24.8968 50.6612C22.5473 51.5866 21.1949 53.3094 21.5988 55.9776C21.2533 58.2606 18.6805 58.9228 17.0964 60.1173C15.914 60.9349 14.8318 61.9042 13.8593 62.976C12.0463 62.2009 9.31319 69.5429 9.4025 71.119C9.67626 71.0692 9.9523 71.0304 10.231 71.0059C10.4793 70.9842 10.5149 71.3695 10.2687 71.4029C9.96237 71.4443 9.66225 71.5081 9.36625 71.587C9.368 71.6184 9.37077 71.6492 9.37533 71.679C9.34266 71.6893 9.30984 71.6991 9.27716 71.7095C9.36185 71.7195 9.44616 71.7366 9.53345 71.7671C9.74447 71.8409 9.63442 72.1879 9.42372 72.1459C9.21751 72.0856 9.0149 72.1881 8.80726 72.2226C8.94735 72.6348 7.3675 72.7363 7.09822 72.6878C6.07787 72.9471 5.1263 73.4779 4.03735 73.353C2.73028 73.5684 1.40381 73.7597 0.0836106 73.8979C-0.18567 74.1503 -0.31392 74.7235 0.061755 74.9583C0.259723 75.0545 0.170209 75.3748 -0.0480588 75.3371C-0.78012 75.2106 -1.45241 74.8272 -2.07067 74.3722C-2.3263 74.2533 -2.63818 74.4239 -2.91544 74.4422C-2.92574 74.5167 -2.91985 74.5928 -2.89348 74.6628C-3.87777 75.2565 -2.68852 76.1437 -2.02333 76.3036C-2.23357 76.6025 -2.10728 76.9752 -1.96841 77.2732C-1.98705 77.4063 -1.95639 77.5499 -1.85907 77.6523C-1.48701 78.0438 -0.91279 78.2703 -0.446532 78.5223C0.0683136 78.8006 0.545138 79.0966 1.10817 79.2646C3.25788 79.9148 5.53724 79.8524 7.70309 79.3241C8.47744 79.1508 9.59523 78.9123 10.2851 79.371C10.4553 80.1719 10.5211 80.9784 10.6103 81.7897C10.7156 82.8718 11.1144 83.8905 11.4822 84.8907C11.4349 84.875 11.3678 84.9087 11.3787 84.9699C11.4723 85.4077 11.5849 85.8488 11.4702 86.2932C11.4967 87.0247 11.6108 87.771 11.7835 88.4823C12.6606 91.8312 13.817 95.1787 15.7182 98.0651C16.4342 99.1317 17.3032 100.071 18.3036 100.856C18.6019 101.091 18.9314 101.064 19.1749 100.898C20.2419 101.023 21.4197 100.733 22.3338 100.233C25.2489 97.9851 24.9639 100.735 29.2869 98.218C36.8141 94.0496 45.5709 92.931 53.0218 88.6094C53.7921 90.082 56.1729 88.6309 56.8139 87.6263C58.71 84.5446 57.6343 77.5868 57.7515 73.795C57.7097 70.8595 57.5472 65.695 58.9114 63.1747C59.3326 62.4517 59.9647 61.9088 60.6156 61.415C63.0625 59.6199 65.5344 57.86 67.9939 56.0829C68.4117 55.7834 68.0272 55.0047 67.5533 55.2518C66.9243 55.5797 66.2906 55.9019 65.6579 56.2267Z" fill="white"/>
<path fill-rule="evenodd" clip-rule="evenodd" d="M5.03729 79.6402C4.84469 79.6893 4.63934 79.6931 4.44048 79.7105C4.13646 79.7362 3.83279 79.7461 3.52825 79.7407C2.90031 79.731 2.27334 79.6739 1.65733 79.5443C0.662068 79.3343 -0.295104 78.9394 -1.12976 78.3383L-1.18739 78.2961C-1.6693 77.9384 -2.62499 77.0989 -2.13056 76.4872C-2.66605 76.298 -3.2827 75.8218 -3.44117 75.3287C-3.66525 74.6311 -2.84703 74.3184 -2.31785 74.4425C-1.97135 74.5237 -1.66563 74.7084 -1.36089 74.8887C-1.02315 75.0891 -0.674821 75.2699 -0.320799 75.4362C-0.226948 75.4802 -0.13294 75.5224 -0.0381696 75.5631L0.0568687 75.6032C0.0361676 75.5809 0.0164201 75.5574 -0.00237879 75.5328C-0.310851 75.1366 -0.361781 74.4823 -0.00068995 74.1021C0.220258 73.8694 0.52739 73.8367 0.827124 73.8416L0.873166 73.8426C1.27834 73.8537 1.68132 73.8458 2.08481 73.8078C3.72942 73.653 5.30512 73.1125 6.906 72.727C7.52292 72.579 8.15869 72.4484 8.79908 72.3729C8.65957 71.3115 8.85771 70.1628 9.16358 69.1613C10.6297 64.3688 14.8477 61.3089 18.827 58.8344C19.1899 58.6092 19.7102 59.0133 19.8899 58.798C20.2311 58.3902 20.4838 57.9036 20.6793 57.4062C21.0961 56.3452 21.2562 55.2278 21.5221 54.1241C21.6536 53.5788 22.4672 53.6985 22.3684 54.2671L22.3198 54.5451C22.1179 55.685 21.868 56.8762 21.3522 57.9022C21.0778 58.447 20.7281 58.93 20.2703 59.3263C19.9235 59.6263 19.4074 59.9675 18.9188 60.0028L18.837 59.9447C18.8642 59.9642 18.8914 59.9836 18.9188 60.0028C20.6944 61.2576 22.6635 62.1352 24.6793 62.9012C26.7137 63.6737 28.8147 64.255 30.9154 64.805L31.0905 64.8508C33.0309 61.7595 34.324 58.2168 34.7982 54.5658C34.4481 54.6565 34.0348 54.5662 33.6876 54.5144C33.2691 54.451 32.8568 54.341 32.4865 54.1235C31.68 53.6499 31.4205 52.7311 31.0098 51.9318C30.9844 51.8821 31.0463 51.8427 31.0866 51.8567C31.4795 51.9942 31.7395 52.3711 31.9981 52.6832C32.2828 53.0263 32.5594 53.2923 32.9775 53.4475C33.3669 53.5922 33.7949 53.6425 34.2049 53.6758C34.4162 53.6926 35.3873 53.5664 35.5575 53.7126C36.9529 52.7351 38.685 52.786 40.2233 53.4188C41.7096 54.0303 43.0204 55.0708 44.2305 56.1312C45.5213 57.2627 46.6978 58.5091 47.8038 59.831C48.9255 61.173 49.9331 62.5992 50.771 64.1472C51.4776 65.4522 52.1175 66.8085 52.7133 68.1751L52.7876 68.3459C53.2395 66.0612 53.7269 63.7846 54.2443 61.5145C53.6983 60.8782 53.7151 60.0016 54.0071 59.2279C54.331 58.3713 54.9959 57.7702 55.6091 57.1339L55.6896 57.05C55.9843 56.7408 56.2714 56.4151 56.4863 56.0416C56.6928 55.6813 56.7866 55.2604 57.0159 54.9132C57.349 54.4076 58.1991 54.1511 58.4848 54.8548C58.6409 55.2417 58.6375 55.7348 58.619 56.1451C58.5979 56.6092 58.5039 57.0592 58.3565 57.497C58.3498 57.5174 58.3406 57.5349 58.3303 57.5501L58.3224 57.561C58.7199 57.477 59.1157 57.3795 59.5063 57.2457C60.2944 56.9761 61.0554 56.6077 61.7511 56.1393C62.4633 55.6601 63.1115 55.0827 63.6646 54.4162C64.1373 53.8469 64.5298 53.197 65.1697 52.8274C65.2285 52.7928 65.2893 52.7617 65.3528 52.7323C65.4587 52.6834 65.6157 52.772 65.614 52.8991C65.6131 52.9692 65.6108 53.039 65.6064 53.1104C65.5699 53.7354 65.4024 54.3939 65.0997 54.9631L65.0762 55.0067C65.2133 54.8878 65.3454 54.7631 65.4721 54.6312C66.2173 53.8569 66.7996 52.9017 67.6707 52.2659C67.7118 52.2354 67.7539 52.206 67.7962 52.1771C68.0702 51.9928 68.352 52.2652 68.2618 52.5638C68.2473 52.6122 68.2327 52.6599 68.2168 52.7081C67.991 53.43 67.706 54.1297 67.3529 54.7967C67.2318 55.0251 67.1034 55.2508 66.9688 55.471C66.9123 55.5642 66.8548 55.6562 66.7961 55.7476L66.7671 55.7924C66.8359 55.6864 66.903 55.5795 66.9688 55.4711C67.4914 55.0526 67.9929 54.6034 68.4731 54.1357C68.6639 53.95 68.9279 54.1172 69.0243 54.3023C69.3471 54.9224 68.8206 55.6715 68.4804 56.1655C68.1396 56.6614 67.7244 57.0999 67.2797 57.496C66.4248 58.2583 65.4449 58.8383 64.4602 59.4002L63.9818 59.6727C62.0884 60.7522 60.127 61.9232 59.2882 64.0964C58.8181 65.3142 58.6892 66.6474 58.5999 67.9443C58.5108 69.2398 58.4931 70.5404 58.5 71.8383C58.5066 73.1819 58.5766 74.5253 58.6194 75.8681C58.6586 77.101 58.6217 78.3482 58.5848 79.5828L58.579 79.7776C58.5017 82.4011 58.1971 84.9637 57.3713 87.4552C57.2354 87.8664 56.6642 87.5848 56.782 87.1842C57.5901 84.4282 57.7701 81.482 57.7583 78.6187C57.753 77.3159 57.6697 76.0125 57.6459 74.7098L57.6322 73.9358C57.6144 72.9038 57.5998 71.8718 57.6013 70.8404C57.6034 69.5352 57.6527 68.2271 57.7829 66.9289L57.797 66.7921C57.9303 65.5367 58.1675 64.2576 58.7277 63.1259C59.7359 61.0884 61.6566 59.9359 63.536 58.8814L64.1275 58.5504C64.9221 58.1047 65.7146 57.6461 66.4429 57.0933C66.8635 56.775 67.2595 56.4237 67.6038 56.0188C67.7411 55.8579 67.8708 55.6895 67.9915 55.5138C67.5809 55.8368 67.1543 56.1369 66.71 56.4156C66.4926 56.552 66.2735 56.6763 66.0513 56.7905C65.4796 57.0861 64.8893 57.3166 64.2684 57.5245C64.2156 57.5417 64.1677 57.4648 64.2191 57.4324C64.614 57.1871 65.0023 56.9221 65.3857 56.6495L65.5005 56.5675C65.476 56.4941 65.4751 56.4063 65.5056 56.3104C65.6178 55.9633 65.9671 55.6701 66.1748 55.3741C66.3924 55.0641 66.5953 54.7423 66.7795 54.4107C66.9479 54.1075 67.1024 53.7962 67.2442 53.4787L67.2865 53.383C67.2725 53.4149 67.2584 53.4468 67.2441 53.4786C66.7408 54.0118 66.2998 54.6146 65.7468 55.0977C65.3075 55.4825 64.8212 55.8169 64.3004 56.0732L64.268 56.0891L64.2355 56.1046C63.6904 56.3677 63.12 56.574 62.6143 56.9175C62.5577 56.9562 62.5067 56.8783 62.553 56.8323C62.9586 56.4346 63.4305 56.1563 63.9017 55.8591C63.8973 55.8139 63.9114 55.7664 63.9507 55.7239L64.0567 55.6087C64.372 55.2645 64.6603 54.9289 64.866 54.4913C65.0476 54.1046 65.1645 53.6903 65.2095 53.2645C64.5596 53.7055 64.1426 54.5065 63.6132 55.0734C63.0366 55.6915 62.3835 56.2298 61.6708 56.6708L61.5895 56.7206C60.2526 57.531 58.5234 58.1787 56.9593 57.9186C56.9092 57.91 56.9177 57.842 56.9623 57.8322C57.348 57.75 57.7342 57.6805 58.1175 57.6029C58.0225 57.5644 57.9471 57.4577 57.9927 57.3302C58.1737 56.8212 58.2668 56.2844 58.2527 55.7428L58.2492 55.6372C58.2421 55.3862 58.2414 54.9924 58.0376 54.844C57.8432 54.7027 57.5614 54.8439 57.4171 54.9933C57.1174 55.3052 57.0329 55.8213 56.8221 56.1959C56.5924 56.6052 56.2903 56.9606 55.9712 57.2978L55.9036 57.3686C55.3489 57.9446 54.73 58.4895 54.4069 59.2468C54.233 59.6539 54.1261 60.1191 54.198 60.5648C54.2312 60.7691 54.3037 60.9643 54.4228 61.1326C54.5164 61.2641 54.6318 61.3223 54.6404 61.4901C54.6507 61.7071 54.5195 62.0234 54.4716 62.2392C54.4155 62.4889 54.3602 62.7388 54.305 62.9888C54.1951 63.4886 54.0868 63.9891 53.9784 64.489C53.7619 65.4901 53.5522 66.4927 53.3476 67.4962C53.2811 67.8229 53.2153 68.1496 53.1501 68.4765L53.0528 68.9668L53.0011 69.2254L52.9138 69.6684C52.9339 69.6983 52.9462 69.7332 52.9472 69.7675C52.9507 69.8924 52.9085 69.9953 52.8416 70.0843L52.8295 70.0998C52.3242 72.6971 51.8443 75.2998 51.3486 77.899C51.5184 78.5653 51.6926 79.2306 51.8752 79.8927C52.2881 81.3912 52.7421 82.8778 53.2549 84.3432C53.5034 85.0524 53.8213 85.7391 54.1121 86.4308C54.2513 86.7608 54.3956 87.0883 54.546 87.4134L54.6533 87.6435C54.8 87.9599 54.9348 88.2783 54.9366 88.6346C54.9372 88.9477 54.6524 89.1307 54.393 88.9945C51.9812 89.8349 49.5764 90.6997 47.1822 91.5929C42.8963 93.1907 38.6448 94.8865 34.4211 96.6537C32.2998 97.5414 30.1844 98.4467 28.0754 99.3658C27.0361 99.8179 26.0017 100.285 24.9539 100.716C24.3894 100.949 23.4171 101.089 23.1266 100.448L23.118 100.429C23.0545 100.477 22.9871 100.522 22.9164 100.563C22.8849 100.582 22.8523 100.593 22.8199 100.597L22.8037 100.599C22.0566 101.2 20.8456 101.243 19.9596 101.34L19.8865 101.348C19.0426 101.445 18.3165 101.394 17.5699 100.937C16.2629 100.137 15.3894 98.7135 14.7051 97.3542C14.0615 96.0749 13.5469 94.7161 13.2292 93.3107C12.7199 92.2647 12.4055 91.1018 12.1232 89.973C11.9833 89.4149 11.8539 88.8534 11.7392 88.2889C11.6751 87.9738 11.6267 87.6561 11.5796 87.3385C11.5608 87.2116 11.5345 87.0773 11.5205 86.9431L11.5153 86.8855C11.424 86.9366 11.3108 86.9564 11.1879 86.939C10.8954 86.8975 10.7222 86.6483 10.6194 86.3848C10.3091 85.5905 10.096 84.7316 9.88246 83.9048C9.66997 83.079 9.48696 82.238 9.34365 81.3962L9.30684 81.1792C9.20107 80.5489 9.10442 79.8934 9.1255 79.2535C8.22247 79.44 7.31836 79.6162 6.39582 79.6724C5.9454 79.6991 5.48904 79.6912 5.03729 79.6402ZM52.379 70.4656C52.3669 70.4739 52.3557 70.4827 52.3445 70.4914C52.042 70.7233 51.7304 70.9417 51.4222 71.1659C50.8891 71.5522 50.3759 71.9513 49.9261 72.434C50.3671 73.9755 50.751 75.5339 51.1435 77.0898L51.2221 77.401C51.2939 76.8267 51.3732 76.2537 51.466 75.6819C51.7479 73.9391 52.0527 72.2002 52.379 70.4656ZM11.6914 86.7215C11.7593 86.8985 11.7919 87.0975 11.8362 87.2761C11.9082 87.5662 11.9866 87.855 12.0579 88.1452C12.2003 88.7286 12.3525 89.3088 12.5205 89.8849C12.6275 90.2528 12.7441 90.6182 12.8624 90.983C12.715 89.5351 12.6888 88.0721 12.6397 86.6159C12.5651 86.6364 12.4851 86.6473 12.4018 86.6565L12.2613 86.6715C12.1788 86.6812 11.9124 86.7157 11.6914 86.7215ZM53.0528 68.9668L53.077 69.0247C53.1637 69.23 53.0861 69.3957 52.9501 69.4843C52.9839 69.3117 53.0182 69.1389 53.0528 68.9668ZM10.3914 74.4807C10.7623 74.3716 11.1431 74.3114 11.529 74.3152L11.5662 74.3155C11.8509 74.3161 12.2596 74.2968 12.4421 74.5378C12.4938 74.6062 12.4562 74.6942 12.3882 74.7283C12.1273 74.857 11.6995 74.6849 11.4128 74.6831C11.0938 74.6813 10.7721 74.7132 10.4614 74.7856C9.76274 74.9474 9.10109 75.2957 8.57097 75.7903C8.53985 75.8197 8.49465 75.7686 8.52102 75.7375C9.01749 75.1375 9.65406 74.6976 10.3914 74.4807ZM3.44886 79.2582C3.39332 79.2368 3.33712 79.2135 3.28155 79.1901C2.84259 79.0031 2.421 78.749 2.05998 78.4295L1.96384 78.3423C1.66414 78.0668 1.27101 77.6609 1.58331 77.2536C1.76983 77.01 2.07443 76.9322 2.37701 76.9156C2.3965 76.9143 2.41625 76.9137 2.43596 76.9129C2.57227 76.9089 2.70756 76.915 2.82933 76.9237C3.35716 76.9588 3.86804 77.1115 4.38398 77.2204C4.94305 77.3384 5.45686 77.352 6.01643 77.2577L6.06903 77.2485C6.59258 77.1553 7.14382 77.0105 7.63669 77.2891C7.76072 77.3595 7.75514 77.5855 7.58882 77.5923C6.52895 77.6368 5.50901 77.9575 4.44818 77.7621C4.00883 77.6814 3.57652 77.5602 3.13371 77.4943C2.89875 77.4591 2.66272 77.4405 2.42498 77.4577L2.29554 77.4683C2.2198 77.4747 2.13095 77.4866 2.08378 77.5284C1.99352 77.6068 2.04808 77.6511 2.11755 77.7386L2.12454 77.7475C2.67739 78.4544 3.64942 78.8448 4.48361 79.0275C4.67506 79.0698 4.86691 79.102 5.05921 79.1262C6.36209 79.2933 7.67546 79.0915 8.98649 78.95C8.98649 78.95 9.74746 78.8762 10.0028 78.8605C10.2483 78.7385 10.5716 78.7167 10.8037 78.7514C11.0292 78.7852 11.2322 78.8699 11.4081 78.9944C11.4081 78.9944 11.5516 79.045 11.6253 79.1821C11.7324 79.2941 11.8247 79.4238 11.9002 79.5675C11.9439 79.6518 11.9476 79.7285 11.9247 79.793C12.7706 81.6898 12.9801 83.8258 13.0928 85.9017L13.1036 86.1065L13.11 86.2366C13.219 88.4417 13.2314 90.6686 13.6737 92.8378C13.969 94.2869 14.5007 95.6972 15.166 97.0071L15.2121 97.0974C15.8474 98.3334 16.683 99.6714 17.8702 100.399C18.4759 100.77 19.047 100.816 19.7284 100.743L19.7657 100.739C20.3809 100.67 21.0376 100.657 21.638 100.494C22.1951 100.343 22.5671 99.9606 22.977 99.5782L22.9773 99.5774C23.6471 98.2514 23.6067 96.7222 23.4414 95.228C23.0152 91.3609 21.5483 87.7515 19.7216 84.379C18.7676 82.6167 17.7259 80.9077 16.6855 79.1987C16.1655 78.3446 15.6323 77.4977 15.1298 76.6331L14.8331 76.1246C14.6687 75.842 14.5058 75.5584 14.3498 75.2705C14.1398 74.8837 13.9727 74.4877 13.7997 74.0835C13.0059 73.4456 12.047 73.0407 11.0483 72.8733C10.3331 72.7531 9.62371 72.7542 8.91937 72.8301C6.90478 73.0445 4.92754 73.8674 2.94506 74.2034C2.27912 74.3164 1.62092 74.3535 0.948703 74.352L0.856948 74.3516C0.548296 74.3499 0.251971 74.3981 0.239958 74.7774C0.231391 75.0474 0.377692 75.2667 0.592641 75.4056C1.11953 75.746 1.90377 75.6904 2.49594 75.6539C2.85248 75.6324 3.20757 75.5865 3.55843 75.5182C3.90929 75.4498 4.24431 75.3351 4.6036 75.3303C4.74202 75.3282 4.83998 75.5176 4.70768 75.6103C4.34444 75.8642 3.91245 75.9404 3.48618 76.0173C3.01761 76.1008 2.54188 76.1447 2.0657 76.1503C1.97792 76.1514 1.88686 76.1521 1.79362 76.1513L1.72331 76.1506C1.80393 76.1728 1.88429 76.1943 1.96525 76.2156C1.98666 76.2213 1.98865 76.2582 1.96342 76.2589C0.842762 76.2693 -0.302313 75.9413 -1.29273 75.4091L-1.34212 75.3824C-1.69235 75.191 -2.57029 74.5401 -2.94769 74.9672C-3.30219 75.368 -2.22834 75.9483 -1.81087 76.194L-1.76224 76.223C-1.43577 76.1038 -1.04559 76.1876 -0.721443 76.2514C-0.158564 76.3623 0.40975 76.4247 0.981065 76.4674C2.11704 76.5535 3.2614 76.4786 4.39589 76.5922C4.41106 76.5941 4.40765 76.6146 4.39496 76.6175C3.75161 76.7574 3.09277 76.8352 2.4335 76.8692L2.40423 76.8711L2.37476 76.8724C1.96278 76.8932 1.54965 76.8959 1.13902 76.8869C0.682564 76.8769 0.227498 76.8429 -0.225364 76.7796C-0.635176 76.7227 -1.13913 76.5274 -1.55097 76.632C-1.5951 76.643 -1.6326 76.6571 -1.66387 76.6731C-2.1006 76.8905 -1.44097 77.5139 -1.22912 77.6945C-0.882308 77.9917 -0.503663 78.2429 -0.0996508 78.4492C0.719869 78.8687 1.61198 79.1052 2.5194 79.2049C2.82903 79.2388 3.13869 79.2543 3.44886 79.2582Z" fill="black"/>
</g>
<path fill-rule="evenodd" clip-rule="evenodd" d="M19.7094 48.4826C22.913 47.7549 24.813 47.7549 25.8881 46.6275C26.9632 45.5001 27.1583 43.5649 27.6043 42.0707C27.8501 41.2474 30.2577 40.4996 32.5932 40.6166C34.4964 40.712 36.4145 41.5409 36.5627 42.0707C36.8926 43.2505 37.4233 48.3009 39.1682 49.0768C40.9132 49.8528 44.6384 49.1454 45.7035 50.9983C46.7686 52.8513 50.2664 60.4048 50.2664 62.1649C50.2664 63.9249 16.0693 63.3868 16.0693 63.3868C16.0693 63.3868 16.5059 49.2104 19.7094 48.4826Z" fill="white"/>
<path fill-rule="evenodd" clip-rule="evenodd" d="M5.74342 89.4809C5.79232 89.5167 5.75371 89.5174 5.74342 89.4809ZM5.55359 89.3349C5.55681 89.3375 5.56067 89.3402 5.56453 89.3429C5.52592 89.3395 5.50212 89.2991 5.55359 89.3349M56.1627 84.6686C55.9478 83.7215 55.7335 82.7737 55.5186 81.8267C55.0701 79.8462 54.621 77.8652 54.1725 75.8841C53.2941 72.0095 52.4164 68.1349 51.5381 64.2604C51.0922 62.2912 50.5825 60.3373 50.1224 58.3715C49.7196 56.6486 49.387 54.8845 48.6952 53.2539C47.9893 51.5894 46.7494 50.1983 45.1072 49.4928C43.7244 48.8995 42.1691 48.5709 40.6634 48.4959C40.8526 48.257 40.897 47.9033 40.6209 47.6146C40.2786 47.2569 40.2091 46.7252 40.1177 46.252C40.0038 45.6607 39.8269 45.0269 39.4858 44.5291C39.3417 44.3187 39.1319 44.2205 38.8848 44.2769C38.733 44.3114 38.5836 44.3519 38.4363 44.3977C38.3887 44.3486 38.3418 44.2962 38.3006 44.2325C38.2073 44.0851 38.1468 43.8694 38.0129 43.7566C37.9222 43.6796 37.8192 43.661 37.7131 43.7168C37.428 43.8661 37.4042 44.3181 37.4653 44.5955C37.4776 44.6492 37.4923 44.703 37.5104 44.7554C37.4911 44.7647 37.4711 44.774 37.4512 44.7833H37.4505C37.0786 44.7103 36.6037 44.8643 36.2408 44.9014C35.8193 44.9446 35.3959 44.9731 34.9725 44.9871C34.1058 45.0156 33.2377 44.9891 32.3748 44.8995C31.5338 44.8132 30.6986 44.6745 29.8679 44.5178C29.3505 44.4203 28.7199 44.3393 28.2656 44.0187C28.2585 43.8588 28.2547 43.6982 28.2515 43.5382C28.245 43.2602 28.2592 43.0418 28.1157 42.7976C28.1137 42.7949 28.1105 42.7943 28.1073 42.7956C27.9297 42.8912 27.8023 43.0544 27.7089 43.2482C27.5385 43.2011 27.355 43.2077 27.1962 43.2761C26.9715 43.3723 26.8043 43.4832 26.6299 43.661C26.3706 43.9245 26.2947 44.2325 26.2187 44.5862C26.164 44.8397 26.1299 45.0209 26.0321 45.1908C26.0109 45.2273 25.9884 45.2658 25.9639 45.301C25.9549 45.3103 25.9382 45.3282 25.9098 45.3587C25.8815 45.3879 25.8532 45.4165 25.8243 45.445C25.8075 45.4623 25.7252 45.5313 25.738 45.522C25.3815 45.7954 25.0592 45.8983 24.619 46.029C23.6719 46.3104 22.7015 46.4943 21.7575 46.7929C20.726 47.1195 19.7171 47.5163 18.7306 47.967C14.8936 49.7198 11.4594 52.4946 9.11779 56.1084C6.39075 60.3174 5.38693 65.4298 4.88953 70.3861C4.34515 75.8184 4.38312 81.3123 4.26407 86.7671C4.24927 87.4494 4.23447 88.1316 4.21967 88.8139C4.20487 89.4809 4.16498 90.199 4.73896 90.6483C5.25052 91.0479 5.8734 90.9224 6.43966 90.7426C7.04581 90.5508 7.6629 90.3981 8.28771 90.2886C9.46655 90.0835 10.6827 90.059 11.8719 90.1784C12.5108 90.2428 13.2926 90.487 13.8177 89.9707C14.0063 89.7849 14.115 89.5493 14.2038 89.3017C14.3145 88.9964 14.4438 88.6971 14.5725 88.3971C14.6787 88.1502 14.7842 87.902 14.8897 87.6545C15.0609 88.4276 15.2321 89.2008 15.4032 89.9747C15.4708 90.2793 15.779 90.3025 15.965 90.1545C16.2687 90.3225 16.6677 90.3191 17.0126 90.3603C17.5672 90.426 18.1263 90.4486 18.6837 90.4685C19.7756 90.507 20.8676 90.5282 21.9602 90.5428C24.1879 90.572 26.4156 90.5614 28.6427 90.5514C33.0549 90.5315 37.4666 90.4386 41.877 90.3205C43.1189 90.2873 44.3608 90.2574 45.6026 90.2262C46.223 90.211 46.8439 90.1957 47.4649 90.1778C47.6509 90.1725 47.8387 90.1545 48.0151 90.1121H48.0157C48.0942 90.1831 48.1907 90.2375 48.3059 90.27C48.7183 90.3868 49.1282 90.1267 49.2518 89.7158C49.3091 89.5274 49.349 89.3548 49.3348 89.1716C49.3561 89.0336 49.3773 88.8955 49.3985 88.7575C50.0871 89.2068 50.9133 89.3289 51.7286 89.2732C52.6507 89.2101 53.5728 89.0362 54.4878 88.9068C55.3468 88.7854 56.7393 88.8245 56.7805 87.6007C56.7953 87.1527 56.6118 86.6503 56.5141 86.2189C56.3969 85.7019 56.2798 85.1856 56.1627 84.6686" fill="black"/>
<path fill-rule="evenodd" clip-rule="evenodd" d="M42.9768 23.4965C42.7283 21.9462 43.5438 21.6245 42.9768 20.1509C41.7167 17.4202 38.2828 17.5379 35.763 17.3279C32.9524 17.2168 30.1078 17.5995 27.5168 18.7614C26.8979 19.0389 26.3026 19.3652 25.732 19.736C25.2386 20.0566 25.3064 20.6663 25.6175 20.9989C23.374 24.2756 24.6572 28.6739 22.8671 32.123C22.5364 32.7396 22.0991 33.2924 21.8116 33.9339C21.3747 34.9091 21.3467 36.3063 22.3375 36.9539C23.733 37.7264 24.5118 36.1969 25.1974 38.4142C28.6219 46.1454 35.507 46.5808 42.0431 42.55C42.6086 42.2256 43.1857 41.8589 43.6127 41.3492C44.582 40.2242 44.4678 38.6421 44.4893 37.2372C44.5012 36.4139 44.5032 35.5904 44.4955 34.767C44.465 31.4315 43.3931 26.8045 42.9768 23.4965Z" fill="white"/>
<path fill-rule="evenodd" clip-rule="evenodd" d="M29.0559 14.2238C33.0023 12.3775 37.4783 11.6773 41.7832 12.1365C43.908 12.3629 46.0048 12.8484 48.0002 13.6372L48.1751 13.7069C48.6677 13.9025 49.1987 14.0966 49.5731 14.4946C50.0087 14.9572 50.1309 15.6567 49.8195 16.2281C49.5776 16.6721 49.1426 16.9906 48.6786 17.1606C48.8421 17.2987 48.9971 17.4526 49.1426 17.6245C49.3877 17.9126 49.4064 18.3233 49.1426 18.6074C48.6342 19.155 47.9747 19.5511 47.2643 19.741C47.3441 20.1385 47.3009 20.5786 47.1298 20.9748C46.6386 22.1121 45.2551 22.2477 44.1904 22.1801L44.1582 22.178L44.099 22.8769C44.0675 23.2492 43.8513 23.5379 43.4845 23.595C43.4716 23.597 43.4587 23.5983 43.4459 23.5996C44.0263 25.7646 44.377 27.9965 44.7007 30.2152C44.8698 31.3734 45.0212 32.5343 45.1661 33.6959L45.2142 34.0831C45.3686 35.3355 45.5616 36.6005 45.6286 37.8621C45.6884 39.007 45.4767 40.1001 44.7927 41.0239C44.1788 41.8522 43.3417 42.4727 42.4414 42.9333C40.4074 43.9746 38.2666 44.7498 36.017 45.1095L35.867 45.1334C34.9986 45.2701 34.1039 45.3853 33.2449 45.1374C32.4902 44.9197 31.6987 44.3583 31.8692 43.4563C31.9264 43.1517 32.3396 43.1384 32.4811 43.374L32.5138 43.428C32.6836 43.7058 32.8696 43.964 33.1658 44.1073C33.5126 44.276 33.9148 44.323 34.2938 44.3277C35.3523 44.3403 36.4546 44.0682 37.4738 43.7955C39.3772 43.2858 41.3321 42.4548 42.8912 41.1958C43.5546 40.6609 44.0874 39.9919 44.2753 39.1311C44.5076 38.0699 44.294 36.9098 44.1885 35.8432C43.9713 33.6425 43.7128 31.4459 43.4401 29.2517L43.3854 28.8129C43.1558 26.9784 42.9145 25.1434 42.7999 23.2983C42.7522 23.2313 42.7201 23.155 42.7072 23.0714L42.6892 22.9512V22.9512C42.6737 22.8484 42.6712 22.7541 42.6821 22.6672C42.6827 22.334 42.6918 22.0028 42.7104 21.6696C42.7136 21.6099 42.7162 21.5502 42.7181 21.4911C42.3822 21.5675 42.0438 21.6292 41.704 21.6816C39.3154 22.0526 36.8896 22.1455 34.4817 21.961C33.2803 21.8687 32.088 21.7101 30.8995 21.5117C30.2945 21.4108 29.6917 21.2993 29.0907 21.1746C28.6563 21.085 28.231 20.9635 27.8037 20.8493C27.3629 21.511 27.1249 22.3254 27.1712 23.1251C27.2233 24.0377 27.8127 24.8653 27.6474 25.7978C27.4921 26.6704 26.7673 26.941 26.0516 27.1571L25.7472 27.2478C25.513 27.3184 25.343 27.3864 25.3006 27.6766C25.2279 28.1751 25.3173 28.7359 25.336 29.2369C25.3585 29.8296 25.3881 30.4223 25.4016 31.0149C25.4087 31.3216 25.4202 31.6295 25.4197 31.9361C25.419 32.1538 25.3875 32.3025 25.3058 32.4431C25.3688 32.5248 25.4254 32.6131 25.4756 32.7067C25.4917 32.7372 25.4518 32.7697 25.4281 32.7445C25.3643 32.6761 25.2967 32.6144 25.2253 32.5593C25.1893 32.6051 25.1475 32.6516 25.0985 32.7014L25.0947 32.6961V32.6961C24.9416 32.8533 24.6983 32.8686 24.5084 32.7014L24.4586 32.6568C24.3196 32.5312 24.2241 32.4265 24.1855 32.2189C24.1835 32.2082 24.1815 32.1976 24.1803 32.187C23.8271 32.1744 23.468 32.2606 23.1501 32.4419C22.6463 32.7292 22.2917 33.1387 22.082 33.6445C22.1656 33.7453 22.2634 33.8356 22.3773 33.9113C22.3934 33.9225 22.3792 33.9471 22.3619 33.9385C22.2454 33.8821 22.1412 33.8124 22.0479 33.7307C21.9726 33.9298 21.9198 34.1435 21.8876 34.3699C21.7744 35.1689 21.9764 36.1452 22.6765 36.6005C22.9796 36.7976 23.3258 36.9045 23.6848 36.9058C23.8598 36.9064 24.0111 36.8759 24.181 36.8328C24.2961 36.8036 24.4107 36.7611 24.531 36.7611C24.634 36.7611 24.7292 36.7876 24.8174 36.8407L24.7929 36.8429C24.7335 36.8487 24.7449 36.8513 24.8277 36.8513C25.085 36.8626 25.2323 37.1321 25.114 37.3664L25.0985 37.4026C25.0952 37.4099 25.0924 37.4159 25.0903 37.4207L25.0809 37.4829C25.08 37.4888 25.079 37.4949 25.078 37.5011L25.0744 37.5137C25.0737 37.5157 25.073 37.5177 25.0722 37.5197L25.4582 38.1268C25.9315 38.8696 26.4153 39.6095 26.9659 40.2879C27.352 40.7638 27.7612 41.2303 28.1937 41.6624C28.5823 42.0506 29.0482 42.2378 29.4883 42.5431C29.7233 42.705 29.792 43.0442 29.5785 43.2625C28.9517 43.9043 28.0643 43.3946 27.5502 42.8729C27.0637 42.3785 26.6435 41.7838 26.2813 41.1885C25.6384 40.1299 25.1269 39.0043 24.9029 37.7825C24.8096 37.8708 24.6906 37.9259 24.5703 37.969C24.329 38.0553 24.0632 38.0911 23.8084 38.1004C23.32 38.117 22.831 37.9949 22.3915 37.7785C20.6033 36.8991 20.3407 34.2657 21.434 32.7126C21.2866 32.2717 21.2042 31.7933 21.1148 31.3853L21.0741 31.203C20.6219 29.1659 20.3185 27.0213 21.12 25.0252C21.2229 24.7677 21.3387 24.5168 21.4758 24.2766C21.5858 24.0835 21.775 23.8777 21.8271 23.658C21.943 23.1755 21.2281 22.6685 21.0196 22.2856C20.7744 21.8362 20.7397 21.306 21.0736 20.8951C21.1161 20.8434 21.1624 20.7955 21.2126 20.7538C20.896 20.1618 20.8812 19.4171 21.2982 18.8331C21.5723 18.4481 21.9906 18.1787 22.4475 18.0971C22.7267 18.0473 23.0626 18.0659 23.3695 18.1548C25.0502 16.5454 26.9678 15.2008 29.0559 14.2238ZM22.6019 34.3619C23.0504 33.9537 23.5459 33.74 24.1572 33.7938C24.7717 33.8481 25.5117 34.1104 25.8726 34.6539C26.1577 35.0833 25.5767 35.7132 25.1584 35.3906C24.7775 35.0966 24.5233 34.7648 24.0504 34.6068C23.6256 34.4654 23.0999 34.3745 22.6553 34.4555C22.6064 34.4641 22.5575 34.4017 22.6019 34.3619Z" fill="black"/>
<path fill-rule="evenodd" clip-rule="evenodd" d="M38.8476 37.4834L38.8922 37.4727C39.2476 37.3863 39.5897 37.2687 39.9208 37.4959C40.2363 37.7123 40.2801 38.1127 40.0343 38.4047C39.7817 38.7049 39.4461 38.6881 39.0919 38.6922L39.0697 38.6925C38.7756 38.6967 38.4766 38.6922 38.1836 38.6653C37.9105 38.6402 37.6356 38.6001 37.3656 38.5475L37.2059 38.5152C37.0428 38.4812 36.8821 38.4369 36.7981 38.2741C36.6515 37.9902 37.741 37.7675 37.8734 37.7285C38.1946 37.634 38.5219 37.5595 38.8476 37.4834ZM39.4519 34.0607C39.2782 34.2465 39.0488 34.3734 38.7913 34.4524C38.1441 34.6509 37.3182 34.5451 36.7896 34.3429C36.6799 34.3009 36.5774 34.2154 36.5186 34.1084C36.4648 34.0108 36.4466 33.8959 36.4875 33.7787C36.4992 33.7454 36.5133 33.7128 36.5276 33.6806C36.5664 33.593 36.6454 33.5249 36.7382 33.486C36.8346 33.4455 36.9443 33.4373 37.0322 33.4658C37.044 33.4696 37.0561 33.4735 37.0685 33.4776C37.4034 33.5865 37.9528 33.7668 38.4079 33.7319C38.681 33.7109 38.9212 33.6114 39.0454 33.3536C39.1109 33.2177 39.0928 33.0833 39.0347 32.9602C38.9471 32.7747 38.7718 32.6132 38.624 32.5019C38.4157 32.3451 38.1936 32.2824 37.9638 32.2163C37.8772 32.1914 37.7895 32.1662 37.701 32.1359C37.6719 32.126 37.6463 32.1065 37.6272 32.0811C37.6082 32.0561 37.5958 32.0255 37.5919 31.9948C37.5879 31.963 37.5929 31.9313 37.6072 31.904C37.6204 31.8786 37.6416 31.8564 37.6733 31.8418C38.1228 31.634 38.7042 31.7713 39.1431 32.0981C39.3624 32.2614 39.5453 32.4712 39.6581 32.7057C39.7627 32.9233 39.8072 33.162 39.7662 33.4055C39.7203 33.678 39.6084 33.8933 39.4519 34.0607ZM32.0843 29.4256C32.2106 29.3682 32.3144 29.6369 32.3404 29.7102L32.3941 29.8622C32.4818 30.1073 32.5825 30.3565 32.7669 30.5384C32.9213 30.6907 33.1686 30.8198 33.3477 30.6416C33.5176 30.4725 33.4348 30.2821 33.4598 30.0747C33.505 29.6996 34.0009 29.3247 34.2991 29.7162C34.9727 30.6006 33.9305 31.8305 32.9706 31.6147C32.4824 31.505 32.0894 31.1012 31.9279 30.6211L31.9197 30.5958C31.823 30.2916 31.7253 29.5889 32.0843 29.4256ZM40.7765 30.0415L40.7719 30.0303C40.451 29.2776 41.5955 28.9542 41.6925 29.63L41.6987 29.6756C41.7931 30.4258 41.5942 31.4347 40.7033 31.5095C39.7032 31.5936 39.2867 30.4427 39.376 29.5981C39.3921 29.447 39.5699 29.426 39.6249 29.5634L39.6366 29.5934C39.798 30.0178 39.9514 30.8341 40.5203 30.8332C40.9005 30.8327 40.8823 30.3034 40.7765 30.0415V30.0415ZM41.5021 27.8627C42.077 27.8416 42.0762 28.7696 41.5021 28.7835C39.5844 28.83 37.6653 28.8919 35.747 28.9025L35.3984 28.9047C33.5965 28.9172 31.7885 28.9426 29.9919 28.7866C29.8386 28.7733 29.8671 28.5512 29.9952 28.5602C31.8787 28.2837 33.7852 28.2029 35.6831 28.0978C37.621 27.9905 39.5627 27.9337 41.5021 27.8627Z" fill="black"/>
</g>
</g>
<defs>
<clipPath id="clip0_240_6285">
<rect width="66" height="78" fill="white" transform="translate(4 10)"/>
</clipPath>
<clipPath id="clip1_240_6285">
<rect width="66" height="78" fill="white" transform="translate(4 12)"/>
</clipPath>
<clipPath id="clip2_240_6285">
<rect width="31.2711" height="48.4606" fill="white" transform="matrix(0.92996 -0.367662 0.348363 0.93736 40.7617 45.9297)"/>
</clipPath>
</defs>
</svg>
