<svg width="74" height="88" viewBox="0 0 74 88" fill="none" xmlns="http://www.w3.org/2000/svg">
<g clip-path="url(#clip0_240_6872)">
<path d="M46.2782 75.56C45.5532 77.7264 43.1367 81.0541 42.917 81.1435C43.6859 80.0491 43.8177 70.1999 43.8616 69.5299C43.8968 68.9939 44.5646 68.3833 44.8942 68.1452C45.6485 67.1478 47.2404 65.0899 47.5744 64.8398C47.9083 64.5897 48.226 63.8718 48.3433 63.5444H62.1836C61.5684 64.4021 59.6427 64.7652 58.7564 64.8398C52.8249 64.7951 52.9787 65.9565 51.5727 66.6935C50.1667 67.4305 47.0032 73.3936 46.2782 75.56Z" fill="white"/>
<path fill-rule="evenodd" clip-rule="evenodd" d="M25.2463 87.6739C20.737 87.6739 16.3613 87.8557 12.0202 87.4113L12.0183 87.4023L11.7878 87.3742C11.1318 87.2911 10.4612 87.2254 9.81267 87.162C8.10188 86.9949 6.22325 86.4147 4.57313 85.9015L4.28161 85.8108L4.25306 85.885C4.21014 85.8626 4.16509 85.8389 4.11719 85.8166C4.37681 81.5062 4.83507 76.8465 5.22618 73.2646L5.24224 73.1181L5.14649 73.0068C4.59354 72.3668 4.38982 71.8303 4.52443 71.3684C5.62709 69.0283 5.86084 66.0436 6.08692 63.1563C6.55557 57.1726 6.99819 51.5204 14.6427 51.2761L14.6549 51.2752L14.7356 51.2698C16.3297 51.1586 17.9781 51.0438 19.4507 50.2987L19.6223 50.2116L19.6325 50.0173C19.6449 49.7824 19.9292 49.5032 20.1577 49.279C20.2363 49.2017 20.3105 49.1289 20.3773 49.0556L20.3912 49.0405L20.4032 49.0235C20.7479 48.5366 21.1526 48.2463 21.4859 48.2463C21.9714 48.2463 22.0469 48.2007 22.2446 48.0667L22.4863 47.3073L22.3105 46.4363C22.3105 46.0343 22.3169 45.9544 22.8817 45.275C23.1081 45.0025 25.0427 44.1807 25.7294 44.1807C26.1833 44.1807 26.6771 44.2388 27.1128 44.2901C27.2552 44.3069 27.3925 44.3231 27.5222 44.3365C28.3944 44.4299 29.2861 44.5978 30.1483 44.7604L30.2693 44.7832L30.1874 45.0101L30.3969 45.1571C30.676 45.3536 30.8839 45.7471 30.9672 46.2367L30.971 46.259L30.9776 46.2804C31.1016 46.6798 31.1486 47.126 31.1985 47.5986C31.2822 48.3932 31.377 49.0565 31.8449 49.7641L32.1525 50.0097L32.4161 50.0767C32.7084 50.1272 32.8555 50.2331 32.8555 50.2331C32.8555 50.2331 33.6464 50.6351 34.2395 50.9701L34.4904 51.0197L34.6575 51.0786C35.8058 51.4851 36.7519 51.7817 37.5867 52.0435C39.6826 52.7005 40.7347 53.0306 41.4097 53.9972C42.1041 54.9915 42.4556 56.7273 43.0402 60.181C43.6799 63.9237 43.6902 67.8196 44.1035 71.5395C43.7959 77.0783 43.0709 80.4284 42.0484 81.7237C41.6105 83.2429 42.2514 85.5249 42.6723 86.6693H42.4306H42.2514C42.3139 86.6631 42.1868 86.6751 42.2514 86.6693C42.3454 86.664 42.1516 86.6796 42.2514 86.6693L42.0232 86.6957C36.342 87.3447 30.6975 87.6739 25.2463 87.6739Z" fill="white"/>
<path fill-rule="evenodd" clip-rule="evenodd" d="M15.5252 64.1413C15.5382 64.1181 15.5814 64.1266 15.5779 64.1556C15.3896 65.4273 14.9326 66.6592 14.6545 67.9144L14.663 67.938C14.8049 68.3508 15.1311 69.84 14.3333 69.4259L14.2696 69.7654C13.2318 75.3113 12.3941 80.9162 12.511 86.5774C12.5281 87.0281 12.2961 88.3632 11.6693 87.7093C11.209 86.924 11.4117 85.9614 11.3754 85.0899C11.4545 80.3047 11.9339 75.4828 13.165 70.8535L13.2159 70.6936C14.0302 68.1484 14.0271 68.9636 13.6445 66.1219C13.6352 65.8597 13.4488 65.2897 13.6942 65.1325C13.9154 65.2741 13.9887 65.6908 14.0689 65.9378L14.0743 65.9544C14.1934 66.3077 14.2996 66.6637 14.4048 67.021C14.7543 66.0611 15.0353 65.0387 15.5252 64.1413Z" fill="black"/>
<path fill-rule="evenodd" clip-rule="evenodd" d="M39.4877 60.7527C39.5045 60.6937 39.5527 60.7478 39.5397 60.7853C39.6406 61.3048 39.5586 61.8761 39.5817 62.4157C39.6463 62.2611 39.7299 62.1133 39.8386 61.9748C39.9328 61.8551 40.1038 62.0262 40.0057 62.1445C39.7624 62.4389 39.656 62.794 39.6096 63.163C39.9667 70.8637 41.0181 78.5509 42.8218 86.0404C43.2127 87.0731 41.636 87.4916 41.809 86.3669C40.6158 81.114 39.6643 75.7498 39.4516 70.35C39.1645 67.9804 39.2776 65.5116 39.3169 63.1111C39.3185 62.329 39.3929 61.5277 39.4877 60.7527Z" fill="black"/>
<path fill-rule="evenodd" clip-rule="evenodd" d="M21.805 45.8013C22.248 45.837 22.5049 46.5847 22.5932 46.9952C22.9171 48.6028 21.7711 49.0843 20.9764 50.2336C22.6687 51.7836 23.8812 55.353 27.3362 56.2879L28.348 56.4947C32.5015 57.7838 32.5133 52.8177 32.3258 51.4656C31.1423 50.2336 30.8901 48.2763 30.8901 46.5177L30.9001 46.465C30.9247 46.3145 31.1307 46.369 31.1423 46.4981L31.1496 46.5816C31.2472 47.7202 31.2559 48.9494 31.8787 49.9442C31.8787 49.9442 33.8834 50.394 34.5348 50.9715C41.6573 53.4926 41.724 52.0069 43.1336 60.333C44.6804 67.6107 43.765 72.3463 42.9266 62.9858C42.7644 61.175 42.0543 58.3511 41.5941 55.6817C41.4377 55.1033 41.215 54.5315 40.8214 54.075C39.1808 52.2606 35.8291 52.6636 33.8561 51.4656C34.0753 54.9626 32.5955 55.9654 31.8689 57.099C31.8689 57.099 32.0074 58.7933 31.8689 59.5406L31.8175 60.1119C31.0251 68.9721 32.2809 76.4294 32.324 85.3303L32.3256 85.6175C32.3252 85.8904 32.3458 86.1736 32.3258 86.4457C32.1446 87.3305 31.2879 87.0138 31.3359 86.225C31.2978 76.2521 29.3767 66.9478 30.9954 57.099C22.2918 57.5815 21.8807 51.8533 20.264 50.6834C20.0568 50.5334 19.9351 50.574 19.3237 50.6834C18.6005 51.0528 17.7992 51.29 16.9894 51.3043C16.0736 51.5442 15.1105 51.6572 14.1969 51.7791C7.55619 52.0677 6.24329 58.771 6.30401 64.3272L6.29248 64.5925C6.22308 66.2447 6.19035 67.926 5.7874 69.5332C5.63866 69.8365 5.16803 71.7871 4.69466 71.0938C4.29556 71.6366 4.42052 71.9524 4.95242 72.2874C5.88145 73.0981 6.78796 74.389 6.96674 75.7192C7 75.9648 6.6533 76.1806 6.53003 75.9063L6.46851 75.7701C6.10853 74.9759 5.72794 74.1987 5.21385 73.5086C5.1911 73.547 5.16014 73.5796 5.12309 73.6015C4.99955 76.8935 4.74942 80.1797 4.52575 83.4659C4.40345 83.9367 4.63396 86.9263 3.69662 86.1879L3.66786 86.1642C3.45377 85.7033 3.58258 85.1463 3.62634 84.6545L3.75807 83.0791C4.04257 79.863 4.2755 76.6407 4.66858 73.4362L4.63771 73.4C4.18565 72.8676 3.76329 72.1645 3.9859 71.4543C4.10001 71.0268 4.47834 70.8142 4.73429 70.4877C6.12293 63.0416 3.72387 51.5125 14.4016 51.1502L14.8485 51.1189C18.1386 50.8818 23.0072 49.3626 21.805 45.8013Z" fill="black"/>
<path fill-rule="evenodd" clip-rule="evenodd" d="M27.2159 79.7402C28.2254 79.4097 27.9738 81.279 27.3078 81.5341C26.9053 81.7373 26.7674 81.2285 26.8409 80.9181C26.5795 80.5143 26.8189 79.9832 27.2159 79.7402Z" fill="black"/>
<path fill-rule="evenodd" clip-rule="evenodd" d="M23.7637 80.228C24.7732 79.8975 24.5217 81.7668 23.8557 82.0214C23.4532 82.2247 23.3152 81.7163 23.3887 81.4059C23.1273 81.0021 23.3668 80.4706 23.7637 80.228Z" fill="black"/>
<path fill-rule="evenodd" clip-rule="evenodd" d="M23.9278 71.7173C24.9373 71.3867 24.6857 73.2556 24.0197 73.5107C23.6173 73.7139 23.4793 73.2056 23.5528 72.8952C23.2914 72.4914 23.5308 71.9598 23.9278 71.7173Z" fill="black"/>
<path fill-rule="evenodd" clip-rule="evenodd" d="M27.3639 72.6558C27.1776 71.8549 28.3083 71.7213 28.3148 72.558C28.3513 72.9095 28.0358 73.1386 27.956 73.4442C27.9392 73.6434 27.6989 73.7836 27.5452 73.6175C27.2887 73.3401 27.2336 72.9635 27.3639 72.6558Z" fill="black"/>
<path fill-rule="evenodd" clip-rule="evenodd" d="M27.222 65.4279C27.3372 64.4903 28.381 64.8856 28.0124 65.042C28.0049 65.05 27.9972 65.058 27.9891 65.0661C28.4106 65.1076 28.381 65.611 28.3341 65.9331C28.1687 66.6536 27.0972 65.9979 27.222 65.4279Z" fill="black"/>
<path fill-rule="evenodd" clip-rule="evenodd" d="M24.1654 65.5951C24.2806 64.6575 25.3243 65.0524 24.9557 65.2087C24.9483 65.2168 24.9406 65.2248 24.9324 65.2329C25.3539 65.2744 25.3244 65.7778 25.2775 66.0998C25.112 66.8203 24.0405 66.1646 24.1654 65.5951Z" fill="black"/>
<path d="M21.8345 49.742C21.8345 49.4302 22.2879 48.6325 22.5146 48.2725C21.4899 48.3122 19.511 49.0282 19.794 51.5716C20.1476 54.7506 24.7999 56.7003 25.5617 57.21C26.3234 57.7201 28.3367 57.75 28.7448 57.8099C29.1528 57.8702 28.0646 58.6197 27.711 58.7698C27.3573 58.9199 26.0513 60.9295 26.9764 60.8692C27.9014 60.8093 29.0985 59.6395 29.4521 59.3397C29.8058 59.0396 29.9146 57.8403 30.4588 59.2799C31.0029 60.7195 33.1521 61.2591 33.8051 61.5294C34.458 61.7991 33.8051 60.6592 33.533 59.9995C33.261 59.3398 32.3087 58.7997 31.5198 58.2901C30.7308 57.78 31.0301 58.5898 32.608 56.3702C34.186 54.1512 33.9139 52.6812 33.8051 51.8115C33.6962 50.9418 32.5536 50.0118 32.2543 49.742C31.955 49.4722 31.2477 49.3222 31.2477 49.5321C31.2477 49.742 31.7374 50.672 32.0639 51.9616C32.3904 53.2511 31.2477 56.0406 30.5132 56.4305C29.7786 56.8205 27.5205 55.8606 26.8131 55.5908C26.1058 55.3206 23.8205 53.4311 23.1131 52.5011C22.4058 51.5716 21.8345 50.132 21.8345 49.742Z" fill="white"/>
<path d="M21.7694 50.5996C21.4884 49.9797 21.6523 49.767 21.7694 49.7385C22.0972 49.6924 22.188 50.169 22.267 50.4558C22.7646 52.264 24.2866 53.0099 25.7501 54.4737C27.2136 55.937 29.2039 56.339 30.1991 56.1666C31.1942 55.9946 31.8674 53.0389 31.926 52.2925C31.9845 51.5466 31.5454 51.1732 31.5454 51.0012C31.5454 50.8292 31.2235 49.7385 31.5454 50.2262C31.8674 50.7144 32.1309 51.5752 32.2772 52.2925C32.4235 53.0099 31.604 56.6548 30.1991 56.7696C28.7941 56.8844 28.1794 56.2814 26.9501 55.937C25.7208 55.5926 24.55 54.0717 23.6427 53.3543C22.7635 52.6593 22.1206 51.3742 21.7694 50.5996Z" fill="black"/>
<path fill-rule="evenodd" clip-rule="evenodd" d="M22.0786 47.9424C22.45 47.9424 22.5573 48.0474 22.5659 48.1094C22.3168 48.8514 22.0988 48.8639 21.7506 48.884C21.5626 48.8947 21.3365 48.9081 21.0471 49.0394C20.2218 49.4137 19.9408 50.6533 20.4281 52.2492C20.9181 53.8546 23.4896 55.6118 23.9871 55.9142C24.735 56.3689 26.7466 57.4124 27.5718 57.4655C28.2208 57.5079 28.4073 57.3842 28.6078 57.2516C28.6623 57.2158 28.7179 57.1792 28.7839 57.1448C29.0934 56.984 29.5318 56.9576 29.996 57.0108C30.2159 57.0363 30.3432 57.1756 30.4656 57.3096C30.6017 57.4584 30.7317 57.6009 30.9761 57.5727C31.269 57.5388 31.6851 56.9514 32.0365 56.4551C32.2421 56.1648 32.4255 55.9057 32.5492 55.807C32.8845 55.5394 33.8903 53.587 33.5292 51.9817C33.277 50.8605 32.3074 50.2615 31.7106 49.8926C31.4531 49.7335 31.265 49.6174 31.2339 49.5209C31.1514 49.2641 31.2683 49.0926 31.3371 49.0394C32.6576 49.2963 33.5894 50.7158 33.8903 51.3934C34.9219 54.2396 32.7555 56.9487 31.5434 57.947C33.4366 58.3647 33.788 59.7726 34.0722 60.9116C34.0977 61.0139 34.1227 61.114 34.1482 61.2109C34.3958 62.1525 33.8387 62.1025 33.5292 61.96C31.0328 61.0608 30.1336 59.6413 29.996 59.0441C29.1708 60.3283 27.1592 61.3712 26.7466 61.4784C26.3339 61.5852 26.4886 60.435 26.7466 59.4452C26.9227 58.7689 27.7747 58.3374 28.1374 58.1534C28.1995 58.1221 28.2472 58.098 28.2748 58.081C28.2174 58.0681 28.1308 58.0605 28.0158 58.0502C27.552 58.0091 26.625 57.9269 25.2765 57.3052C21.2534 55.7539 20.0154 53.3195 19.6028 52.49C19.1902 51.661 19.0097 49.9756 19.6028 49.0394C20.196 48.1027 21.6144 47.9424 22.0786 47.9424ZM27.5786 59.3652C27.7436 58.9159 28.5242 58.4643 28.8938 58.295C29.5143 58.2119 29.4357 58.4513 29.3212 58.8002C29.2882 58.9007 29.2522 59.0106 29.2291 59.1245C29.1259 59.6328 27.7333 60.4082 27.1917 60.4886C26.852 60.5391 27.0095 60.305 27.225 59.9852C27.3531 59.7949 27.5017 59.5743 27.5786 59.3652ZM30.6217 58.8301C30.8194 59.2938 31.4933 60.3332 32.6075 60.783C33.7863 61.2582 33.4498 60.6986 33.1154 60.1424C33.0547 60.0419 32.9942 59.941 32.9427 59.8463C32.6075 59.2312 31.679 58.6161 31.318 58.5893C31.3009 58.588 31.2834 58.5867 31.2658 58.5853C30.9109 58.5581 30.4641 58.5241 30.6217 58.8301Z" fill="black"/>
<path d="M44.2414 68.7446C45.4513 67.2219 47.7879 64.2752 49.0414 62.7891C48.8705 62.0972 49.2163 61.4504 49.7308 60.9903C50.3015 60.4807 51.0326 60.2975 51.7378 60.0675L51.831 60.0371C52.1711 59.9241 52.512 59.7955 52.8165 59.6029C53.1096 59.4167 53.3402 59.1402 53.6456 58.9727C54.0894 58.7284 54.8301 58.8762 54.7787 59.5145C54.7497 59.8651 54.5599 60.231 54.3899 60.5298C54.1974 60.867 53.9554 61.165 53.6777 61.4325C53.6649 61.445 53.6513 61.4549 53.6377 61.462L53.6276 61.4669C53.9602 61.5625 54.2963 61.6478 54.6425 61.7037C55.3411 61.8167 56.0564 61.8453 56.7608 61.7729C57.4813 61.6996 58.1909 61.5272 58.8623 61.2507C59.4361 61.0149 59.9801 60.687 60.6044 60.6665C60.662 60.6638 60.7195 60.6651 60.7788 60.6683C60.8777 60.6741 60.9625 60.8027 60.9128 60.897C60.8856 60.9488 60.8575 60.9997 60.8272 61.0511C60.5618 61.5027 60.1852 61.9266 59.7402 62.2303L59.7054 62.2535C59.8544 62.2196 60.0016 62.1794 60.1475 62.1316C61.0056 61.8511 61.8087 61.3709 62.709 61.244C62.7516 61.2378 62.7947 61.2324 62.8377 61.228C63.115 61.1998 63.2244 61.5152 63.0429 61.7019C63.0135 61.7318 62.9841 61.7617 62.9537 61.7912C62.5091 62.2392 62.0275 62.6475 61.5069 63.0039C61.3285 63.1259 61.1457 63.2429 60.9603 63.3537C61.5148 63.2501 62.0644 63.1147 62.6053 62.9575C62.8202 62.8949 62.9564 63.125 62.959 63.3014C62.9674 63.8839 62.3035 64.231 61.8584 64.4637L61.8395 64.4735C61.3935 64.7071 60.9128 64.8688 60.426 64.9867C59.4902 65.2145 58.5288 65.2565 57.5705 65.2829L57.1052 65.2954C55.2634 65.3459 53.335 65.4374 51.8749 66.723C51.0568 67.4434 50.4527 68.3859 49.8925 69.3172C49.3327 70.2472 48.8252 71.2094 48.3375 72.18C47.8318 73.1841 47.3744 74.2133 46.8967 75.2312C46.4579 76.1657 45.9561 77.0805 45.4592 77.9863L45.3807 78.1293C44.3255 80.054 43.1216 81.8425 41.5504 83.371C41.2914 83.6234 40.9664 83.1856 41.2077 82.9342C42.866 81.2015 44.1215 79.0776 45.2004 76.9384C45.6914 75.9651 46.1236 74.9606 46.6005 73.9801L46.8842 73.3976C47.2628 72.6213 47.6437 71.8463 48.037 71.078C48.5344 70.1061 49.0686 69.1506 49.6605 68.2345L49.7233 68.1385C50.3006 67.2558 50.9663 66.3969 51.82 65.7764C53.3565 64.6593 55.2467 64.5655 57.0688 64.528L57.6417 64.5168C58.4119 64.5012 59.1857 64.4753 59.9462 64.3533C60.3852 64.2837 60.8184 64.1796 61.2323 64.0148C61.3975 63.9495 61.5596 63.8758 61.7178 63.7928C61.2846 63.87 60.8478 63.9236 60.4058 63.9545C60.1896 63.9696 59.9765 63.975 59.7652 63.9714C59.2208 63.9643 58.6865 63.9009 58.1382 63.8084C58.0916 63.8004 58.0846 63.724 58.1356 63.72C58.5275 63.6945 58.922 63.6516 59.3153 63.6011L59.4335 63.586C59.4427 63.5216 59.4757 63.4555 59.535 63.3961C59.7516 63.1822 60.1272 63.1031 60.3966 62.9651C60.6791 62.8208 60.955 62.6618 61.22 62.488C61.4625 62.329 61.6976 62.1584 61.9256 61.9784C61.3426 62.1749 60.7797 62.4487 60.1782 62.5885C59.6997 62.7002 59.205 62.7556 58.7138 62.7395L58.683 62.7382L58.6527 62.7368C58.1404 62.7158 57.6307 62.6426 57.118 62.6971C57.0604 62.7033 57.0512 62.6252 57.1039 62.6091C57.5617 62.4742 58.0244 62.455 58.4937 62.421C58.5073 62.3857 58.5358 62.3558 58.582 62.3397L58.7059 62.296C59.0749 62.1651 59.4207 62.0297 59.7424 61.7854C60.0266 61.5697 60.2722 61.3075 60.4682 61.0082C59.8091 61.0779 59.1896 61.5089 58.5736 61.7202C57.9031 61.9516 57.2045 62.0923 56.498 62.1374L56.4176 62.1418C55.0986 62.2133 53.545 62.0074 52.461 61.1904C52.4263 61.1641 52.4584 61.1167 52.4962 61.127C52.8191 61.2195 53.1372 61.3218 53.4567 61.4164C53.3995 61.3499 53.3828 61.2405 53.4659 61.1636C53.7963 60.8563 54.0705 60.4932 54.2656 60.084L54.3033 60.0036C54.3934 59.8138 54.5424 59.5199 54.4444 59.3282C54.3512 59.1455 54.0845 59.1384 53.9184 59.1925C53.5735 59.3055 53.3134 59.6565 53.0116 59.8517C52.6825 60.0653 52.3191 60.21 51.9496 60.3342L51.8714 60.3596C51.2334 60.5682 50.5581 60.7277 50.026 61.1636C49.74 61.3977 49.4821 61.7019 49.3674 62.0628C49.3147 62.2285 49.2953 62.4027 49.3217 62.5756C49.3424 62.7109 49.4074 62.8002 49.3503 62.9289C49.2756 63.0946 49.0563 63.2782 48.9381 63.4198C48.8006 63.5837 48.664 63.7481 48.5273 63.912C48.2545 64.2408 47.9821 64.5709 47.7101 64.9005C47.1661 65.5603 46.6267 66.224 46.0908 66.8905C45.9164 67.1075 45.7424 67.3251 45.5689 67.5426L45.3091 67.8691L45.1718 68.0415L44.9374 68.3368C44.9412 68.3672 44.9372 68.398 44.925 68.4243C44.8802 68.5186 44.8092 68.5785 44.7248 68.6182L44.7097 68.6249C44.5128 68.8746 44.3161 69.1243 44.1198 69.3744L44.2414 68.7446Z" fill="black"/>
<path d="M43.365 80.5094C44.0775 78.364 44.3515 69.9508 44.3515 69.3934C44.3515 68.9556 44.0871 67.1381 43.9479 66.2376C43.1606 64.781 43.365 66.8027 43.502 69.1151C43.639 71.4271 43.365 71.9564 43.365 74.213C43.365 76.4696 43.0362 77.25 42.8991 78.6427C42.7621 80.0354 41.0079 81.5121 41.7478 82.2367C42.3396 82.816 43.3467 80.8341 43.365 80.5094Z" fill="black"/>
<path fill-rule="evenodd" clip-rule="evenodd" d="M44.2231 68.1402C44.4241 67.7779 44.8918 67.0592 45.1549 67.0816C45.4837 67.1093 45.5385 70.508 45.4837 71.8731C45.4628 72.393 45.6326 73.1952 45.8176 74.0694C46.1186 75.492 46.4599 77.105 46.0866 78.0019C45.4837 79.4509 44.2506 81.373 43.6203 81.4288C43.0242 81.4815 43.0899 80.6123 43.1683 79.5751C43.1728 79.5152 43.1773 79.4554 43.1818 79.3951C43.2149 78.9475 43.3894 77.4882 43.5864 75.8409C43.7835 74.1931 44.0031 72.3577 44.126 71.1579C44.1026 71.5389 44.0768 71.9677 44.0492 72.4274C43.8991 74.9247 43.6947 78.3275 43.5107 79.8409C43.2093 82.3204 45.292 78.4477 45.4837 77.3055C45.6756 76.1634 45.2372 74.3807 45.0728 73.712H45.0727C44.9412 73.1769 44.9083 70.2016 44.9083 68.7807C44.7165 68.9018 44.3164 69.21 44.2506 69.4771C44.2431 69.5079 44.2332 69.599 44.2213 69.7415C44.2166 69.4592 44.2032 69.2051 44.1916 68.9857C44.169 68.556 44.1534 68.2594 44.2231 68.1402Z" fill="black"/>
<path d="M39.2275 61.8438C39.4334 57.2318 42.297 48.0638 52.0383 47.5457C51.9579 47.4193 51.903 47.2902 51.8881 47.1624C51.8059 46.4661 51.5317 45.3235 52.5731 45.101C53.6144 44.8781 54.4364 45.4351 54.4364 46.2986C54.4364 46.7626 54.3789 47.2361 54.3213 47.5783C63.3026 48.3157 66.6546 56.1513 67.2064 60.2004L68.0834 62.6795L66.905 63.2646L56.0806 63.6269L41.8035 63.2646L39.6386 62.6795L39.2275 61.8438Z" fill="white"/>
<path d="M52.0189 47.1752C41.1672 47.9333 38.436 57.6315 38.4269 62.3863C30.9183 63.1104 38.4269 64.1136 54.4855 64.1136C67.3319 64.1136 70.6532 63.3891 70.7081 63.0269C70.5328 62.6034 68.7168 62.4976 67.8306 62.4976C67.6114 62.9992 64.4329 62.971 63.7752 63.0269C63.2488 63.0715 63.1175 62.8969 63.1175 62.804C63.0353 61.2161 62.8433 59.7398 61.4456 56.09C60.048 52.4407 57.5273 50.3511 56.7874 49.9889C56.1951 49.6994 56.3577 49.9053 56.5132 50.0447C59.7193 52.6912 61.0071 58.0679 61.4456 60.4638C61.7967 62.3805 61.5919 63.0086 61.4456 63.0827C58.3217 63.3614 41.5783 62.9992 40.5096 62.804C39.6546 62.6481 39.861 60.6961 40.0711 59.7398C41.4139 51.382 47.6071 48.7073 50.1006 48.1226C52.5944 47.5375 56.4855 47.8439 60.0757 49.7383C63.6654 51.6326 65.3644 57.2322 65.4193 57.6225C65.4743 58.0125 65.9123 59.6004 65.9949 59.9904C66.0771 60.3803 66.5156 60.5755 67.0907 60.4638C67.5512 60.375 67.6483 59.9439 67.6391 59.7398C66.9541 55.236 62.871 46.4177 52.0189 47.1752Z" fill="black"/>
<path d="M53.0596 44.8906C51.3716 45.0465 51.4792 46.5527 51.7441 47.2866H52.2099C52.0179 47.2866 51.7441 46.0328 52.0728 45.6151C52.4019 45.197 52.9107 45.1957 53.1963 45.3082C53.6897 45.5034 53.6625 45.8376 53.6348 46.3673C53.6128 46.7908 53.242 47.1566 53.0596 47.2866H54.7038C54.9503 46.8126 55.1695 44.6954 53.0596 44.8906Z" fill="black"/>
<path fill-rule="evenodd" clip-rule="evenodd" d="M27.522 23.187C30.8576 23.187 34.3078 25.8165 35.5305 27.4946C36.5585 28.9054 37.112 35.2848 37.112 39.5961C37.112 40.4978 37.6013 42.1975 37.4585 43.06C36.9353 46.2207 34.6558 48.8713 30.1441 48.8713C25.6325 48.8713 22.3977 47.0524 19.0444 42.1693C17.4173 42.1693 16.6287 40.9003 16.6172 38.8976C16.6058 36.895 18.1878 36.1664 18.1878 36.1664C18.1878 36.1664 17.6237 28.2631 19.0444 26.2055C20.4649 24.1479 24.1863 23.187 27.522 23.187Z" fill="white"/>
<path fill-rule="evenodd" clip-rule="evenodd" d="M26.1192 22.0696C28.2253 21.8527 30.289 22.0349 32.3645 22.412C32.5231 22.4412 32.613 22.547 32.6465 22.6742C33.6241 22.7196 34.6028 22.7926 35.5791 22.8469C35.9334 22.8667 36.1342 23.2227 35.9727 23.5442C35.9404 23.608 35.9069 23.6702 35.8728 23.7323L35.9156 23.7179C36.2093 23.6221 36.5266 23.5749 36.8127 23.727C37.177 23.9205 37.3198 24.3477 37.2393 24.7408C37.2187 24.8412 37.1841 24.9374 37.1447 25.0312C37.2246 25.0259 37.3051 25.0277 37.385 25.0384C37.8103 25.0958 38.1264 25.4274 38.1487 25.8689C38.1816 26.5356 37.7592 27.212 37.2616 27.6893C37.3338 27.8405 37.3615 28.0186 37.3315 28.199C37.2716 28.5557 37.0132 28.7693 36.7137 28.9086C36.8386 29.312 36.8976 29.7337 36.8628 30.1646C36.8512 30.3085 36.7275 30.4273 36.5969 30.4565C37.0836 31.8196 37.33 33.283 37.5072 34.7089C37.6335 35.7235 37.6957 36.744 37.7033 37.7662C37.707 38.2277 37.6996 38.6897 37.6805 39.1513L37.6729 39.3244C37.6494 39.8233 37.6482 40.3472 37.5601 40.8408C37.8609 41.3611 37.9819 42.007 38.033 42.5901C38.0964 43.3119 37.996 44.0563 37.7721 44.7427C36.9273 47.337 34.3778 48.9741 31.817 49.3993C29.4466 49.7933 26.7037 49.2631 25.3185 47.0734C25.2967 47.0391 25.3431 47.01 25.3702 47.0328C26.3612 47.8524 27.5108 48.2183 28.7598 48.3965C30.9194 48.7034 33.3467 48.1825 35.0797 46.801C35.9116 46.1381 36.5114 45.1724 36.7752 44.1334C36.9098 43.6023 36.9561 43.0484 36.9032 42.5018C36.8492 41.9473 36.6078 41.4741 36.4556 40.9501C36.4045 40.7732 36.4586 40.6089 36.5649 40.4919C36.5948 40.0664 36.6654 39.6375 36.6923 39.2133C36.7223 38.7311 36.7405 38.2489 36.747 37.7662C36.7594 36.7648 36.7182 35.7617 36.6354 34.7646C36.4838 32.9387 36.0814 31.157 35.8452 29.3467C35.7578 29.4264 35.6324 29.4592 35.5011 29.3895L35.4875 29.382L35.4158 29.3402C35.4117 29.3402 35.407 29.3408 35.4028 29.3413C34.9124 29.3898 34.4036 29.3205 33.9336 29.1716C33.4419 29.0164 32.9855 28.7774 32.5777 28.4589C32.5002 28.8585 32.4679 29.2624 32.4673 29.6699C32.4668 29.9244 32.2018 30.0565 31.9915 29.9478C31.0592 29.4662 30.1686 28.9112 29.3232 28.2874C29.2245 28.8019 29.1258 29.3162 29.0265 29.8312C28.9884 30.0296 28.7398 30.1097 28.5806 30.0153C27.9474 29.6406 27.4005 29.1502 26.9552 28.567C26.8663 28.7399 26.7771 28.9128 26.6873 29.0853L26.5522 29.3437C26.4188 29.5976 26.2402 29.8785 25.9482 29.9597C25.6392 30.0457 25.3813 29.842 25.2774 29.5576C25.2456 29.4692 25.2162 29.3783 25.1892 29.287C24.926 29.8982 24.6288 30.4957 24.2928 31.0657C23.7887 31.9206 23.1836 32.6824 22.5803 33.4638C22.397 33.7011 22.0833 33.4746 22.0581 33.244C22.0434 33.1084 22.031 32.9722 22.0204 32.8365C21.6689 33.558 21.302 34.2727 20.9024 34.9667L20.9596 35.1948C21.1245 35.8686 21.2614 36.5472 21.4103 37.2247C21.4584 37.4432 21.3442 37.7557 21.0931 37.7929C20.7931 37.8374 20.5093 37.9932 20.2021 37.886C19.867 37.769 19.8008 37.4745 19.6427 37.1953C19.6111 37.1397 19.5744 37.0886 19.535 37.0401L19.5249 37.0534C19.5002 37.0863 19.4415 37.0505 19.4562 37.0128L19.4734 36.9693C19.3375 36.8226 19.1749 36.7003 19.0254 36.5687C18.6701 36.5078 18.2704 36.5745 18.0257 36.7212C17.4681 37.0558 17.2121 37.7452 17.2068 38.3792C17.2003 39.1213 17.4264 39.9554 17.8083 40.5899C17.9764 40.8689 18.2066 41.121 18.5109 41.2447C18.8129 41.3677 19.1401 41.3295 19.4473 41.4454C19.6506 41.5225 19.7757 41.7519 19.653 41.9598C19.6448 41.9742 19.6353 41.9873 19.6265 42.0011L19.7179 42.1244C19.7807 42.2099 19.8462 42.3013 19.9073 42.3965C20.0636 42.5794 20.2281 42.7557 20.3873 42.9355C20.6815 43.2671 20.9671 43.6076 21.2567 43.944C21.5299 44.2613 21.819 44.5596 22.1168 44.8526C22.3982 45.1304 22.7495 45.364 23.008 45.6606C23.2594 45.9496 23.3275 46.4544 22.9139 46.6219C22.4564 46.8077 22.0513 46.3726 21.7432 46.0827L21.7302 46.0702C21.1656 45.5418 20.6557 44.9379 20.2507 44.2731C19.8496 44.5506 19.2694 44.5774 18.87 44.2996C18.6598 44.1536 18.4986 43.9081 18.4202 43.641C18.3463 43.6579 18.2724 43.6677 18.2004 43.6666C18.1634 43.6885 18.1261 43.7097 18.0885 43.7295C17.7906 43.8872 17.4247 43.8168 17.2884 43.4816C17.1643 43.1772 17.2922 42.8316 17.404 42.5384L17.4271 42.4778C17.4905 42.3105 17.5604 42.1283 17.6474 41.9569C17.4053 41.7716 17.1985 41.5415 17.0235 41.2799C16.4354 40.3987 16.1417 39.1099 16.2715 38.0584C16.3497 37.4239 16.6427 36.7667 17.1227 36.3388L17.1051 36.2922C16.9706 35.9451 16.8484 35.5968 16.7691 35.23C16.6763 34.801 16.631 34.3565 16.5899 33.9197C16.503 32.9973 16.5265 32.0539 16.6422 31.135C16.8596 29.4053 17.4106 27.7073 18.3888 26.268C18.1114 25.9304 17.8917 25.5331 18.0062 25.076C18.0586 24.8663 18.1778 24.6674 18.3576 24.5472C18.4568 24.481 18.575 24.4708 18.6743 24.4159L18.7041 24.3992C18.7477 24.3732 18.7144 24.376 18.6884 24.2557C18.5856 23.7753 18.6707 23.3111 19.1907 23.1516C19.68 23.0016 20.1429 23.3201 20.4326 23.6995C21.1904 23.1528 22.189 22.8667 23.0673 22.6235C24.066 22.348 25.0905 22.176 26.1192 22.0696ZM17.9335 38.1832C17.9299 37.7919 18.2947 37.5505 18.6537 37.6145C18.8948 37.6572 19.0959 37.8035 19.2847 37.9547L19.3768 38.0288C19.6067 38.2124 19.8707 38.4103 20.0078 38.6702C20.2087 39.0538 19.784 39.5699 19.3875 39.3011C19.1154 39.1157 18.9411 38.8187 18.7627 38.5427L18.7442 38.5142C18.6631 38.3906 18.5921 38.2591 18.4809 38.1599L18.4569 38.1385C18.4204 38.1069 18.3812 38.078 18.3341 38.0643C18.2431 38.0377 18.0746 38.075 18.0345 38.1851L18.0309 38.1963C18.0163 38.252 17.9341 38.24 17.9335 38.1832Z" fill="black"/>
<path fill-rule="evenodd" clip-rule="evenodd" d="M31.3546 42.8693C31.4439 42.7116 31.6495 42.5655 31.8377 42.5879C32.6807 42.6883 32.6792 43.7265 32.3537 44.3324C32.0651 44.8702 31.4678 45.1855 30.87 45.1395C30.242 45.0908 29.7069 44.7156 29.4714 44.119C29.3156 43.7243 29.2437 42.9955 29.658 42.7302C29.6657 42.7253 29.6783 42.7265 29.6845 42.7337C29.8831 42.9684 29.8909 43.3208 30.0648 43.5822C30.2265 43.8252 30.4778 44.026 30.7722 44.057C30.992 44.0801 31.2144 43.9996 31.3004 43.7991C31.3469 43.6906 31.3417 43.6318 31.3242 43.5571L31.3083 43.4923C31.2532 43.2651 31.2285 43.0921 31.3546 42.8693ZM31.5799 38.3164C32.0196 38.5879 32.6895 39.2209 32.2165 39.8939C31.6598 40.4872 30.8582 39.8069 30.4632 39.4992C30.097 39.2607 29.6855 39.874 30.0253 40.1525C32.8795 42.299 34.0378 38.3874 31.8023 37.9973C31.5561 37.9543 31.4647 38.2324 31.5799 38.3164ZM26.9373 36.455C27.2071 36.0437 27.8231 36.1043 27.9717 36.5923C28.0523 36.8567 27.941 37.0943 27.9468 37.3583C27.9516 37.5813 27.9373 37.8299 27.87 38.0458C27.7165 38.5384 27.2804 38.8862 26.7645 38.8718C26.2503 38.8574 25.7974 38.5268 25.582 38.0612C25.366 37.5938 25.4117 37.1101 25.5695 36.6349C25.577 36.612 25.6065 36.601 25.6243 36.6202C25.8108 36.8215 25.9473 37.0341 26.0886 37.2595L26.2333 37.4906C26.344 37.6646 26.5048 37.8868 26.7114 37.8729L26.7423 37.8698C26.7998 37.8647 26.791 37.8764 26.8353 37.7968C26.8557 37.7601 26.852 37.6917 26.8619 37.6483L26.8654 37.6336L26.8635 37.6257C26.8591 37.6047 26.8548 37.5651 26.8513 37.4963L26.8505 37.4812C26.8355 37.1596 26.7461 36.7464 26.9373 36.455ZM33.7777 36.7288C33.7293 36.2028 34.4573 36.086 34.6993 36.4752C34.8255 36.6782 34.8623 36.9331 34.8902 37.1747L34.9032 37.2893C34.9319 37.5374 34.9433 37.7955 34.8372 38.0269C34.6702 38.3914 34.3071 38.5841 33.9154 38.5536C33.5414 38.5243 33.2001 38.304 33.0202 37.9696C32.8598 37.6712 32.7003 37.0885 32.8951 36.7773C32.9069 36.7584 32.9304 36.756 32.9465 36.7706C33.1306 36.9365 33.1606 37.2393 33.27 37.4556C33.3829 37.6787 33.5542 37.8961 33.8136 37.93C34.0619 37.9624 34.1567 37.8247 34.0934 37.5843C34.0117 37.2739 33.8084 37.0628 33.7777 36.7288ZM27.1339 33.3279L27.2529 33.2815C27.6609 33.125 28.2208 32.9441 28.5525 33.281C28.7571 33.4888 28.796 33.7948 28.65 34.0483C28.4731 34.3555 28.1557 34.3631 27.8493 34.4083C27.5007 34.4597 27.1462 34.5575 26.8217 34.697C26.4561 34.8541 26.1169 35.05 25.7845 35.2688C25.4686 35.4767 25.1537 35.8164 24.7756 35.8805C24.7602 35.8831 24.7427 35.8763 24.7387 35.8591C24.6528 35.4836 24.8914 35.114 25.1044 34.821C25.3621 34.4663 25.6743 34.1752 26.0233 33.9141C26.3601 33.6621 26.7449 33.48 27.1339 33.3279ZM34.5434 34.6631L34.5798 34.6566C34.8272 34.6147 35.0513 34.6244 35.2377 34.8234C35.38 34.9752 35.4348 35.172 35.367 35.3727C35.3044 35.5578 35.1645 35.746 34.9614 35.7847C34.2756 35.9158 33.516 35.8942 32.8268 35.7949C32.5114 35.7495 32.1933 35.6939 31.8861 35.6063L31.7448 35.5647C31.4884 35.4903 31.1948 35.4125 31.0086 35.221C30.9416 35.1521 30.9802 35.0536 31.0603 35.0217C31.3853 34.8925 31.8308 34.9612 32.1773 34.9511C32.5804 34.9394 32.9842 34.9087 33.3854 34.8664C33.7774 34.825 34.1568 34.7351 34.5434 34.6631Z" fill="black"/>
<path d="M32.6947 22.7804L31.6493 20.76C31.2081 19.8644 30.2728 17.8206 30.061 16.8108C29.7963 15.5485 31.8345 15.6187 32.7845 15.0287L32.7854 15.0282C33.7365 14.4376 36.765 12.557 35.423 7.35409C34.0806 2.14954 30.2903 2.59142 28.1583 3.0665C26.0263 3.54158 25.4185 6.38204 21.9938 6.56093C18.5691 6.73987 15.8232 8.30654 14.9388 10.0115C14.0543 11.7164 11.6199 13.1428 11.0353 13.4698C10.4508 13.7968 6.94963 13.8829 5.34209 16.0293C3.73454 18.1757 4.52075 22.047 7.30087 24.1932C10.081 26.3395 14.1503 23.8354 14.7031 23.8465C15.2558 23.8576 16.8361 27.8913 17.0363 28.9341C17.1964 29.7684 17.7089 29.4827 17.9451 29.2356C19.9668 27.2148 24.722 25.1184 27.1748 23.9497C29.137 23.0146 31.6724 22.7806 32.6947 22.7804Z" fill="white"/>
<path d="M23.4947 25.9375C27.8109 23.5256 31.5873 22.9289 32.936 22.932C32.402 21.8141 28.9943 22.7195 26.2236 23.6442C23.4529 24.5689 21.8812 26.335 21.4128 26.3322C20.9445 26.3293 19.9944 23.2948 19.5673 22.4005C19.2257 21.6851 19.8262 21.4592 20.1692 21.4357C23.726 20.7579 24.2335 18.0783 24.8156 17.3247C25.2813 16.7218 25.0599 16.5383 24.8911 16.5219C24.6164 17.1774 23.4144 18.5445 20.8034 18.7683C17.5396 19.0482 16.7673 20.4655 15.6668 21.2966C14.5663 22.1278 13.4817 22.7899 10.1429 22.5082C6.80409 22.2264 5.08771 18.7337 5.92896 16.1291C6.77021 13.5246 13.0585 14.6046 14.2111 11.8598C15.3637 9.1149 18.9459 7.71471 20.4511 7.56248C21.9564 7.4103 24.9024 6.88639 26.1246 5.21426C27.3467 3.54214 29.9167 2.93906 31.5392 3.35255C33.1617 3.76603 35.2386 6.14245 35.2953 10.0708C35.3519 13.9992 31.1908 15.2152 30.3912 15.5639C29.5916 15.9126 29.5216 16.2043 29.5544 16.7618C29.5872 17.3193 30.3018 18.3268 30.7856 19.525C31.2693 20.7233 31.6333 20.9293 31.8444 20.9498C32.0132 20.9662 31.9438 20.6467 31.888 20.485C31.5911 19.717 30.8948 18.0006 30.4855 17.2786C30.0763 16.5566 30.3759 16.3299 30.5769 16.3068C32.2207 16.0401 35.861 14.4751 36.0973 10.1487C36.3336 5.82245 34.2528 3.48831 31.8759 2.48985C29.499 1.49139 27.5319 2.02512 25.4258 4.03775C23.7408 5.64785 22.2045 5.82831 21.647 5.71731C17.2896 5.84823 14.5919 9.16783 14.0164 10.3058C13.4408 11.4438 11.9654 13.0913 9.11575 13.4967C6.26611 13.902 4.81847 15.2537 4.15401 17.7902C3.48957 20.3267 4.87867 24.1287 8.18423 25.2173C11.4898 26.3061 13.518 24.6696 13.9639 24.4571C14.3207 24.2871 14.5347 24.4273 14.5971 24.5187C15.1103 25.7056 16.2205 28.2752 16.5559 29.0582C16.975 30.037 17.2397 31.2993 17.5645 30.5633C17.8893 29.8274 18.0994 28.9524 23.4947 25.9375Z" fill="black"/>
</g>
<defs>
<clipPath id="clip0_240_6872">
<rect width="68" height="86" fill="white" transform="translate(3 2)"/>
</clipPath>
</defs>
</svg>
