<svg width="60" height="88" viewBox="0 0 60 88" fill="none" xmlns="http://www.w3.org/2000/svg">
<g clip-path="url(#clip0_259_6317)">
<path fill-rule="evenodd" clip-rule="evenodd" d="M20.1986 47.3346C23.3635 46.6447 25.2405 46.6447 26.3027 45.5758C27.3648 44.507 27.5575 42.6723 27.9981 41.2557C28.2409 40.4752 30.6194 39.7662 32.9267 39.8772C34.8069 39.9677 36.7019 40.7535 36.8482 41.2557C37.1742 42.3743 37.6984 47.1623 39.4223 47.8979C41.1461 48.6335 44.8264 47.9629 45.8786 49.7196C46.9308 51.4763 50.3864 58.6375 50.3864 60.3061C50.3864 61.9747 16.6025 61.4645 16.6025 61.4645C16.6025 61.4645 17.0338 48.0245 20.1986 47.3346Z" fill="white"/>
<path fill-rule="evenodd" clip-rule="evenodd" d="M6.40168 86.2031C6.44999 86.237 6.41185 86.2377 6.40168 86.2031ZM6.21415 86.0646C6.21733 86.0672 6.22114 86.0697 6.22496 86.0722C6.18681 86.069 6.16329 86.0307 6.21415 86.0646M56.2117 81.6407C55.9994 80.7428 55.7877 79.8443 55.5754 78.9465C55.1323 77.0689 54.6886 75.1907 54.2455 73.3126C53.3778 69.6393 52.5107 65.966 51.6429 62.2927C51.2024 60.4259 50.6989 58.5735 50.2444 56.7098C49.8465 55.0764 49.5178 53.4039 48.8344 51.858C48.1371 50.28 46.9121 48.9611 45.2898 48.2923C43.9237 47.7298 42.3872 47.4183 40.8997 47.3472C41.0866 47.1207 41.1304 46.7854 40.8577 46.5117C40.5195 46.1725 40.4509 45.6685 40.3606 45.2199C40.2481 44.6593 40.0733 44.0584 39.7363 43.5865C39.594 43.387 39.3867 43.2939 39.1426 43.3474C38.9926 43.3801 38.845 43.4185 38.6995 43.4619C38.6525 43.4153 38.6061 43.3656 38.5654 43.3052C38.4732 43.1656 38.4135 42.9611 38.2812 42.8541C38.1916 42.7811 38.0898 42.7635 37.985 42.8163C37.7033 42.9579 37.6799 43.3864 37.7402 43.6494C37.7523 43.7004 37.7669 43.7513 37.7848 43.801C37.7657 43.8099 37.746 43.8187 37.7263 43.8275H37.7256C37.3582 43.7583 36.8891 43.9042 36.5305 43.9395C36.1141 43.9804 35.6959 44.0074 35.2776 44.0206C34.4213 44.0477 33.5637 44.0225 32.7113 43.9376C31.8804 43.8558 31.0553 43.7243 30.2346 43.5758C29.7235 43.4833 29.1005 43.4065 28.6517 43.1026C28.6446 42.951 28.6409 42.7987 28.6377 42.6471C28.6313 42.3835 28.6453 42.1764 28.5036 41.9449C28.5016 41.9424 28.4985 41.9418 28.4953 41.943C28.3199 42.0336 28.194 42.1884 28.1018 42.3721C27.9334 42.3275 27.7521 42.3337 27.5952 42.3986C27.3733 42.4898 27.208 42.5949 27.0358 42.7635C26.7796 43.0133 26.7046 43.3052 26.6296 43.6406C26.5755 43.881 26.5418 44.0527 26.4452 44.2138C26.4242 44.2484 26.402 44.2849 26.3778 44.3183C26.3689 44.3271 26.3524 44.3441 26.3244 44.373C26.2964 44.4007 26.2685 44.4277 26.2399 44.4548C26.2233 44.4712 26.142 44.5366 26.1546 44.5278C25.8024 44.787 25.484 44.8845 25.0492 45.0085C24.1135 45.2753 23.1548 45.4496 22.2223 45.7327C21.2032 46.0423 20.2065 46.4185 19.2319 46.8458C15.4413 48.5075 12.0486 51.1382 9.73527 54.5642C7.04119 58.5546 6.0495 63.4014 5.55811 68.1003C5.02031 73.2503 5.05782 78.4588 4.94021 83.6302C4.92559 84.2771 4.91097 84.9239 4.89635 85.5707C4.88173 86.2031 4.84232 86.8839 5.40936 87.3098C5.91474 87.6886 6.53009 87.5697 7.0895 87.3992C7.68833 87.2173 8.29796 87.0726 8.91523 86.9688C10.0798 86.7744 11.2813 86.7511 12.4561 86.8643C13.0873 86.9254 13.8597 87.1569 14.3784 86.6674C14.5647 86.4912 14.6721 86.2679 14.7598 86.0332C14.8692 85.7437 14.9969 85.46 15.1241 85.1756C15.229 84.9415 15.3332 84.7062 15.4375 84.4715C15.6066 85.2045 15.7757 85.9375 15.9448 86.6712C16.0115 86.96 16.316 86.982 16.4997 86.8417C16.7998 87.0009 17.1939 86.9977 17.5346 87.0368C18.0826 87.099 18.635 87.1204 19.1855 87.1393C20.2643 87.1758 21.3431 87.1959 22.4225 87.2098C24.6233 87.2375 26.8241 87.2274 29.0242 87.218C33.3831 87.1991 37.7415 87.111 42.0986 86.999C43.3255 86.9675 44.5524 86.9392 45.7792 86.9097C46.3921 86.8952 47.0055 86.8807 47.619 86.8637C47.8027 86.8587 47.9883 86.8417 48.1625 86.8014H48.1631C48.2407 86.8688 48.3361 86.9203 48.4498 86.9512C48.8573 87.0619 49.2622 86.8153 49.3843 86.4258C49.4409 86.2471 49.4803 86.0835 49.4663 85.9098C49.4873 85.779 49.5083 85.6481 49.5293 85.5172C50.2095 85.9432 51.0257 86.059 51.8311 86.0061C52.7421 85.9463 53.653 85.7815 54.557 85.6588C55.4056 85.5436 56.7813 85.5808 56.822 84.4205C56.8366 83.9958 56.6554 83.5195 56.5588 83.1105C56.443 82.6204 56.3274 82.1309 56.2117 81.6407" fill="black"/>
<path fill-rule="evenodd" clip-rule="evenodd" d="M43.8562 30.066C43.8277 28.4786 43.7962 26.8596 43.5579 25.2877C43.3248 23.7509 42.6838 22.3618 41.5822 21.2459C39.2423 18.8755 35.8506 18.2966 32.6935 17.766L27.2957 16.8588C25.649 16.5821 23.8921 16.1398 22.2283 16.5322C21.4085 16.7256 20.7122 17.1748 20.0759 17.7063C19.4626 18.2186 18.8031 18.7688 18.3875 19.458C17.9712 20.1482 17.828 20.955 17.6926 21.7357C17.54 22.6158 17.4214 23.5028 17.3371 24.3919C17.1683 26.1732 17.1452 27.968 17.2677 29.753C17.327 30.6188 17.4214 31.4821 17.542 32.3416C17.6017 32.7678 17.6693 33.193 17.7456 33.6166C17.7681 33.7415 17.7852 33.8798 17.8082 34.0196C17.6379 34.499 17.5412 34.9955 17.549 35.4899C17.572 36.9461 18.8135 37.8629 20.0651 38.3552C20.7908 38.6406 21.5495 38.8345 22.2626 39.1534C23.0127 39.4887 23.5233 40.0324 24.0362 40.6526C25.0143 41.8355 26.1182 42.8987 27.3786 43.7856C30.0509 45.6663 33.4356 46.5557 36.678 45.8806C37.456 45.7186 38.2408 45.4671 38.9401 45.0881C39.6785 44.6879 40.2336 44.1081 40.6999 43.4226C41.5655 42.1499 42.1863 40.7168 42.6559 39.2585C43.135 37.771 43.475 36.2807 43.6604 34.7296C43.8452 33.1835 43.8842 31.6216 43.8562 30.066V30.066Z" fill="white"/>
<path fill-rule="evenodd" clip-rule="evenodd" d="M26.6315 11.3295C28.8652 11.0254 31.9482 12.014 33.0606 14.0075C38.3716 12.7679 45.0701 12.7273 49.4474 16.8538C54.015 21.7488 48.2779 28.2028 44.4737 29.6579C44.7507 30.9905 44.3188 39.5277 41.2631 43.3358C38.838 46.5623 33.1906 48.0514 30.5774 44.1975L30.557 44.1657C30.277 43.7207 30.5181 43.7349 30.8055 44.066C33.3645 46.2939 36.8437 46.3319 39.5248 43.9808C44.5496 39.6833 44.0315 29.1462 41.6405 23.0503C34.832 22.31 27.5423 24.353 22.8398 29.427L23.1577 31.3223C23.2119 31.6452 23.2735 31.9678 23.3204 32.2918C23.3505 32.4994 23.3538 32.7059 23.2086 32.874C22.7288 33.4288 21.9203 32.5951 21.255 32.2634C21.0587 32.2361 20.8619 32.2255 20.669 32.239C17.4728 32.6466 18.1025 38.7849 21.6153 37.7089C21.9105 37.5269 22.1641 37.5825 22.2786 37.8466C23.1159 38.6059 23.668 39.9601 25.0591 41.2645C25.5499 41.7537 25.9966 42.1631 26.5487 42.5556C26.873 42.8802 27.8515 43.2113 27.5413 43.7669C26.9547 45.0311 23.4956 41.0599 22.8841 39.9617C20.9679 40.7108 18.8444 40.4564 16.8587 40.2733C6.38293 39.734 7.78142 28.8015 16.3681 21.8993C17.9845 20.7212 19.7678 19.7602 21.6216 19.0206C21.8746 18.9197 21.764 18.5083 21.5074 18.6107C20.2808 19.1001 19.0851 19.6826 17.9453 20.3568L17.9435 19.9537C17.9419 19.2748 17.9526 18.568 18.0717 17.9477C18.1313 17.5179 18.2314 17.0588 18.3856 16.7135C18.5762 15.6547 21.5617 12.0203 26.6315 11.3295ZM20.5291 33.6482C20.6909 33.4961 20.9929 33.6775 21.1368 33.673C21.5051 33.7229 21.8549 33.8768 22.1277 34.0669C22.3079 34.1668 22.4341 34.2606 22.5396 34.3469L22.5425 34.3461C22.5417 34.3461 22.5407 34.3469 22.5398 34.3471L22.5498 34.3538C22.7034 34.4618 23.2657 35.0704 22.9104 34.9067C22.884 34.8727 22.8568 34.8399 22.8295 34.8078C22.8266 34.8122 22.8225 34.8165 22.8176 34.8207L22.8376 34.85C23.1395 35.2997 22.6182 34.826 22.538 34.7001C22.5342 34.7032 22.5299 34.7052 22.5257 34.7074L22.6301 34.8333C22.6447 34.8511 22.6562 34.8654 22.6657 34.8775L22.6878 34.8985C23.0369 35.2383 23.0478 35.544 22.6422 35.0417C22.6581 35.0654 22.671 35.0905 22.6728 35.1127L22.6968 35.1431C23.0152 35.5493 22.7562 35.405 22.598 35.2315L22.5847 35.2166L22.5874 35.2207C22.7347 35.4452 22.4426 35.2876 22.3909 35.1675L22.3888 35.1621C22.3325 35.1167 22.2979 35.0657 22.286 35.0528L22.2838 35.0506C22.01 34.7729 21.6131 34.5379 21.2759 34.4311C21.227 34.4219 21.1776 34.4145 21.1276 34.4092C20.9249 34.3645 20.7199 34.3338 20.5128 34.3172C20.4874 34.3142 20.4617 34.2958 20.4425 34.272C20.1293 34.2615 20.226 34.1344 20.356 34.1108L20.3582 34.1105L20.3325 34.1083C20.1315 34.0889 19.9942 34.0175 20.1974 33.9737L20.2232 33.9686C20.22 33.9637 20.2172 33.9588 20.2145 33.9539C20.0405 33.935 20.154 33.7675 20.2507 33.808C20.21 33.6764 20.3958 33.7421 20.419 33.7226C20.4367 33.7032 20.4586 33.686 20.4713 33.6851C20.5273 33.646 20.5002 33.6495 20.5291 33.6482ZM21.5941 31.5179L21.5533 31.5415C21.5204 31.5605 21.4864 31.5732 21.4524 31.5807C21.5005 31.6009 21.548 31.6228 21.595 31.6462C21.5942 31.6176 21.5937 31.5891 21.5937 31.5606L21.5941 31.5179Z" fill="black"/>
<path fill-rule="evenodd" clip-rule="evenodd" d="M42.9225 31.5406C42.7685 30.2004 42.9679 27.399 42.9812 27.2288C43.0657 26.1528 42.5565 21.904 41.5938 22.2955C39.979 21.0299 37.8283 20.7505 35.8172 20.617C31.6398 20.3396 27.1958 20.9763 23.9701 23.7596C22.3749 25.205 20.8219 27.3072 20.9467 29.4961C19.4973 31.571 17.4541 34.4171 19.2599 36.8427C19.8738 37.6177 20.8493 37.9063 21.6205 38.4932C23.1715 39.7318 24.1446 41.5093 25.7104 42.7405C29.8586 46.4309 36.9024 47.2019 40.978 43.0043C44.1296 39.9642 43.62 35.4162 43.0657 31.5406C42.693 28.935 43.2231 34.1553 42.9225 31.5406Z" fill="white"/>
<path fill-rule="evenodd" clip-rule="evenodd" d="M30.2367 14.9336C31.3539 14.7104 32.5011 14.5716 33.642 14.6134L33.73 14.6168C34.5884 14.6507 35.6755 14.7259 36.4244 15.22C36.4675 15.1772 36.5367 15.1553 36.5996 15.185C37.4895 15.6055 38.4683 15.9096 39.4053 16.2117C40.338 16.5123 41.3056 16.7108 42.2832 16.7908C42.651 16.8209 42.9658 17.2141 42.7329 17.5668C42.6775 17.6508 42.6235 17.7357 42.5698 17.8208C42.6597 17.8115 42.7496 17.8019 42.8394 17.7929C43.1352 17.7635 43.4308 18.076 43.4132 18.3611C43.4023 18.5405 43.3827 18.7177 43.3538 18.8928C43.4665 18.8904 43.5785 18.9072 43.6867 18.9524C44.2346 19.1815 44.1965 19.8277 44.1555 20.3193C44.0987 21.0015 43.8409 21.7241 43.3624 22.2347C43.7197 22.6021 43.9726 23.0408 44.1235 23.5619C44.2329 23.9424 44.2938 24.3477 44.2638 24.7438L44.2542 24.8624C44.217 25.2922 44.1431 25.7681 43.8308 26.0773C43.6704 26.2367 43.4729 26.2948 43.2846 26.2764C43.3985 27.267 43.4715 28.2632 43.5402 29.256L43.5724 29.7304C43.7257 32.0248 43.8409 34.334 43.8107 36.6322C43.7827 38.7798 43.3541 40.8644 42.0236 42.6082C40.8119 44.1961 39.0721 45.3667 37.1039 45.8117C36.0432 46.0519 34.9603 46.0689 33.8868 45.9158C33.3664 45.8414 32.8426 45.7274 32.3487 45.5474C31.8019 45.3476 31.409 45.0535 31.0411 44.6128C30.8672 44.4037 30.9509 43.9588 31.2974 44.0006C31.8214 44.0635 32.2997 44.1393 32.8021 44.2927L32.874 44.3152C33.3743 44.4739 33.8925 44.5922 34.4156 44.6425C35.4871 44.7453 36.5749 44.6418 37.6013 44.3201C39.2725 43.7958 40.7117 42.6274 41.6343 41.1592C42.7293 39.419 42.8531 37.4435 42.8373 35.4425C42.8203 33.2467 42.7482 31.0497 42.6305 28.8562L42.6104 28.4907C42.5482 27.3619 42.488 26.2325 42.4351 25.103C42.4187 24.7487 42.3936 24.3916 42.3485 24.038C41.9356 23.7986 41.5656 23.4684 41.3244 23.0609C40.8398 23.2593 40.3303 23.4025 39.8614 23.5165C38.7754 23.781 37.6479 23.8452 36.5425 23.6796C36.2443 23.8015 35.9402 23.9087 35.6314 24.001C35.548 24.0376 35.4645 24.0736 35.3812 24.1089C34.6368 24.4242 33.8817 24.6913 33.0959 24.8869L32.9029 24.9346C32.4894 25.0355 32.0402 25.1349 31.6001 25.1661C31.5278 25.1937 31.4498 25.2171 31.3646 25.2377C30.9638 25.334 30.5479 25.3645 30.1372 25.3305C29.7371 25.2972 29.4479 24.8968 29.6683 24.522C29.8294 24.2485 29.9919 23.9757 30.1558 23.7036C29.5854 23.9388 28.9964 24.1344 28.4023 24.3002C27.8026 24.4674 27.1942 24.6084 26.5851 24.7381C26.2595 24.8068 25.9324 24.8678 25.6075 24.9365C25.3749 24.9854 25.0178 25.0109 24.828 25.1625C24.6184 25.3291 24.559 25.7174 24.4795 25.9569C24.375 26.2679 24.277 26.5804 24.1875 26.8964C24.0094 27.527 23.8633 28.1669 23.7503 28.8131C23.6372 29.46 23.5612 30.1133 23.519 30.7687C23.4769 31.4235 23.4954 32.0824 23.4275 32.7343C23.3909 33.0801 23.016 33.258 22.739 33.0163C22.7065 32.988 22.6737 32.9593 22.6413 32.9304L22.593 32.8867C22.356 32.6741 22.1263 32.4488 21.9367 32.1951C21.9023 32.1483 21.8694 32.0994 21.8386 32.0498C21.8336 32.0498 21.8293 32.0484 21.8243 32.0449L21.7717 32.0057C21.1929 31.5792 20.2259 31.0231 19.6614 31.7317C19.4816 31.9574 19.3895 32.2449 19.3131 32.5222L19.179 33.0185C19.0922 33.3425 19.0106 33.6683 18.9629 33.9998C18.8548 34.7424 18.9092 35.5984 19.4253 36.1936C19.6314 36.4316 19.9155 36.6017 20.2325 36.6463C20.4094 36.6704 20.584 36.6407 20.7593 36.6187C20.9375 36.5967 21.1092 36.6322 21.2875 36.6152C21.5709 36.5875 21.6948 36.9234 21.5888 37.1345C21.5316 37.2479 21.4642 37.3457 21.3877 37.4286C21.4492 37.481 21.508 37.5377 21.5645 37.5972C21.732 37.6504 21.8822 37.7645 21.9946 37.9154C22.0855 38.0373 22.1327 38.1698 22.1406 38.3093C22.1506 38.3441 22.1592 38.3795 22.1671 38.4156L22.3207 38.6623C22.3544 38.7165 22.3881 38.7699 22.4218 38.8223C22.8126 39.4317 23.2464 39.9476 23.7853 40.4336C24.3042 40.9013 24.8674 41.3201 25.3549 41.8217L25.4123 41.8813C25.8667 42.3554 26.3458 42.9293 26.1679 43.6187C26.1221 43.7958 25.8723 43.9233 25.7091 43.8036C25.1845 43.4181 24.9204 42.8073 24.4753 42.3397C24.0172 41.8579 23.5097 41.4249 23.0503 40.9445C22.6158 40.491 22.273 39.9773 22.0147 39.4119C21.9116 39.5245 21.7613 39.6046 21.5531 39.6358C21.1952 39.6889 20.8616 39.4813 20.7057 39.1745C20.6054 39.2184 20.5031 39.2581 20.4 39.2893C19.8575 39.4537 19.5162 38.8564 19.7209 38.4149C19.8303 38.1783 19.967 37.9728 20.1367 37.7999C19.6063 37.7276 19.0666 37.4562 18.7181 37.1175C17.8436 36.2665 17.7233 34.9876 17.9201 33.8503C18.0246 33.2473 18.2049 32.6372 18.439 32.0711C18.4798 31.9726 18.5235 31.8734 18.5714 31.7756C18.5449 31.7749 18.5177 31.7636 18.5005 31.7416C18.3423 31.5276 18.1499 31.3526 18.0324 31.1131C17.9244 30.8935 17.8042 30.671 17.719 30.4421C17.5437 29.9737 17.4578 29.4451 17.4005 28.9499C17.2825 27.9359 17.3282 26.9283 17.485 25.9207C17.7519 24.2046 18.3966 22.5622 19.3464 21.1212C19.2947 21.0942 19.2451 21.0618 19.1989 21.0234L19.1761 21.0037L19.1391 20.9705C18.868 20.7277 18.8914 20.2726 19.1391 20.0266L19.2173 19.949C19.3163 19.8516 19.4017 19.7744 19.5617 19.6684C19.5853 19.6527 19.6094 19.638 19.6338 19.6242C19.5501 19.471 19.521 19.2919 19.5794 19.0943C19.7826 18.4058 20.7832 18.4302 21.4174 18.7304C22.119 18.1105 22.8969 17.5724 23.7402 17.1366C25.7485 16.0992 28.0194 15.3758 30.2367 14.9336ZM19.8554 33.0659C20.2305 32.9448 20.7286 33.1991 21.0657 33.3522C21.493 33.5463 21.8565 33.8333 22.2087 34.1366C22.384 34.2882 22.4154 34.5362 22.3718 34.7481C22.3675 34.7693 22.3633 34.7913 22.3582 34.8133C22.3117 35.0393 22.0569 35.2171 21.8314 35.2108C21.3598 35.198 21.1351 34.7948 20.8681 34.4533C20.8367 34.5086 20.7973 34.5596 20.7486 34.5979L20.7156 34.6234C20.6048 34.7069 20.4827 34.7736 20.3363 34.7672C20.2325 34.7622 20.1331 34.736 20.0414 34.6886C19.8124 34.5688 19.7116 34.2755 19.7738 34.0367C19.8124 33.8865 19.9012 33.7688 20.0171 33.6873L19.9739 33.6581C19.8814 33.5944 19.7971 33.5272 19.7313 33.4281L19.7165 33.4046H19.7222C19.6507 33.2828 19.6973 33.1169 19.8554 33.0659Z" fill="black"/>
<path fill-rule="evenodd" clip-rule="evenodd" d="M37.1516 40.6194C36.6503 40.7625 36.1123 40.7753 35.6013 40.6275C35.1379 40.4933 34.662 40.1981 34.321 39.8075C34.018 39.4605 33.8217 39.0389 33.8294 38.5887C33.8303 38.5373 33.849 38.4944 33.8776 38.4611C33.9085 38.4253 33.9516 38.4006 33.9978 38.39C34.0453 38.379 34.0955 38.3829 34.1382 38.402C34.1769 38.4193 34.2101 38.4488 34.2308 38.4918C34.2832 38.5598 34.3355 38.6267 34.3879 38.6917C34.8093 39.205 35.2175 39.5886 35.8513 39.7262C36.1951 39.8008 36.5386 39.7677 36.8537 39.6538C37.191 39.5319 37.4959 39.3175 37.7348 39.0431C37.8428 38.9191 37.9703 38.8685 38.0949 38.8677C38.2362 38.8667 38.3758 38.9314 38.481 39.0349C38.5844 39.1366 38.6537 39.2748 38.6599 39.4194C38.6654 39.5463 38.6235 39.6789 38.5118 39.7971C38.144 40.1867 37.6673 40.472 37.1516 40.6194ZM37.1361 34.1907C37.6499 34.4988 38.4329 35.2171 37.8801 35.9807C37.2294 36.6541 36.2926 35.882 35.831 35.5329C35.403 35.2623 34.922 35.9583 35.3192 36.2742C38.655 38.71 40.0087 34.2713 37.396 33.8286C37.1083 33.7798 37.0015 34.0955 37.1361 34.1907ZM32.3295 32.8353C32.1643 32.7311 31.97 32.6954 31.7547 32.792C31.5865 32.8675 31.2914 33.119 31.086 33.4497C30.9455 33.676 30.8459 33.9414 30.8666 34.2178C30.8715 34.282 30.8474 34.3294 30.8095 34.3644C30.7795 34.392 30.7362 34.4124 30.6854 34.4187C30.6422 34.4241 30.5939 34.4192 30.5546 34.4071C30.4799 34.3841 30.4403 34.3363 30.4254 34.2973C30.2816 33.9207 30.3436 33.5004 30.5047 33.1212C30.7222 32.6095 31.1172 32.1808 31.376 32.0426C31.8188 31.8061 32.3412 31.7952 32.7846 32.0362C33.1621 32.2413 33.3981 32.5725 33.6329 32.91C33.6828 32.9818 33.7323 33.053 33.7835 33.123C33.8861 33.2632 33.8963 33.4023 33.8566 33.5215C33.8126 33.6537 33.7003 33.7652 33.56 33.8235C33.4303 33.8774 33.2798 33.885 33.1466 33.8296C33.034 33.7828 32.9308 33.6916 32.8654 33.5367C32.7554 33.276 32.572 32.9883 32.3295 32.8353V32.8353ZM40.7171 33.4154C40.604 33.4736 40.5155 33.4911 40.39 33.454C40.3206 33.4335 40.2521 33.3941 40.1984 33.3411C40.1452 33.2886 40.1068 33.2234 40.0919 33.151C40.0552 32.9723 39.956 32.8051 39.8148 32.696C39.6941 32.6029 39.5417 32.5535 39.3727 32.5813C39.1903 32.6114 39.0165 32.7267 38.8968 32.8627C38.8568 32.9083 38.8255 32.9599 38.7939 33.0113C38.735 33.1073 38.6777 33.1965 38.5963 33.2671C38.5655 33.2939 38.519 33.3125 38.4741 33.3125C38.4558 33.3125 38.4372 33.3095 38.4195 33.3041C38.238 33.1244 38.2031 32.9881 38.2089 32.8529C38.2151 32.7111 38.2717 32.5675 38.3633 32.4336C38.5782 32.1194 38.9861 31.8617 39.2614 31.8034C39.6384 31.7235 40.0128 31.8194 40.313 32.0271C40.6219 32.2407 40.8508 32.5725 40.9221 32.9464C40.9393 33.0364 40.932 33.1336 40.8972 33.2179C40.8632 33.3002 40.804 33.3708 40.7171 33.4154ZM33.1609 29.4853C32.9347 29.7027 32.6669 29.7364 32.396 29.7664C32.2455 29.7832 32.1253 29.7967 32.0071 29.823C31.6821 29.8954 31.3608 30.0044 31.0677 30.1613C30.7613 30.3254 30.4274 30.5232 30.1872 30.7767C30.1301 30.837 30.0763 30.9003 30.0224 30.9638C29.9732 31.0216 29.9258 31.0773 29.8759 31.131C29.8186 31.1927 29.7641 31.2573 29.71 31.3218C29.6765 31.3762 29.6699 31.3895 29.6632 31.4035C29.653 31.4244 29.6412 31.4478 29.6277 31.4729C29.6093 31.5073 29.5876 31.545 29.565 31.5792C29.5273 31.6416 29.5071 31.6588 29.4896 31.6665C29.4606 31.6792 29.4332 31.6855 29.4065 31.6821C29.3815 31.6789 29.3579 31.6671 29.3346 31.6477C29.2185 31.5509 29.1842 31.392 29.1877 31.2234C29.1931 30.9675 29.2888 30.6842 29.377 30.5101C29.5821 30.1054 29.8665 29.6848 30.2086 29.3827C30.5989 29.038 31.0259 28.777 31.5164 28.5972C31.8212 28.4854 32.1741 28.3828 32.5061 28.3957C32.7452 28.405 32.9733 28.4751 33.1618 28.6501C33.2775 28.7575 33.333 28.9103 33.333 29.063C33.333 29.2188 33.2753 29.3754 33.1609 29.4853ZM41.1772 31.4762C41.1628 31.4994 41.1429 31.5154 41.1207 31.5251C41.0975 31.5352 41.0716 31.5381 41.0467 31.5339C41.0219 31.5298 40.9984 31.5187 40.9797 31.5018C40.9618 31.4856 40.9482 31.4641 40.9421 31.4377C40.7918 30.787 40.5002 30.3029 39.8776 29.9907C39.5714 29.8372 39.2193 29.7396 38.8859 29.6618C38.789 29.6392 38.6867 29.6245 38.5836 29.6097C38.2605 29.5632 37.9351 29.5099 37.7245 29.2523C37.5976 29.0972 37.5444 28.8988 37.5745 28.7173C37.6028 28.5465 37.704 28.3898 37.8881 28.296C38.3462 28.0624 38.9155 28.2916 39.3781 28.4869C39.4124 28.5013 39.4461 28.5156 39.479 28.5293C39.9315 28.7176 40.3441 28.9662 40.6832 29.3218C40.9524 29.6038 41.2017 30.0208 41.3021 30.4497C41.3857 30.8066 41.366 31.1709 41.1772 31.4762Z" fill="black"/>
</g>
<defs>
<clipPath id="clip0_259_6317">
<rect width="52" height="78" fill="white" transform="translate(4 10)"/>
</clipPath>
</defs>
</svg>
