<svg width="96" height="88" viewBox="0 0 96 88" fill="none" xmlns="http://www.w3.org/2000/svg">
<g clip-path="url(#clip0_240_6690)">
<path fill-rule="evenodd" clip-rule="evenodd" d="M86.7664 84.7509C87.7263 84.705 87.3404 83.0453 87.2713 82.4357C86.5113 80.209 86.69 77.7798 86.3908 75.4458C86.2047 73.2669 85.9652 71.0954 85.7639 68.918C85.3687 64.4989 82.5302 55.5027 79.2906 54.0561C78.8821 52.286 77.197 50.6337 75.0642 50.6337C73.6096 48.9318 71.8588 47.734 69.6134 47.9759C68.6853 48.0176 67.7857 48.9905 66.8963 49.1783C66.3988 49.2462 61.9804 49.0715 61.0954 49.5911C60.4788 49.904 59.9225 50.4822 60.1037 51.2184C60.3931 52.1102 59.494 51.1452 57.6193 52.0971C53.796 54.3669 56.0806 57.4031 56.1818 57.4974C53.796 60.7789 51.7106 63.4407 50.7458 67.4517C50.1205 70.4292 50.1909 73.5033 49.6669 76.4963C49.482 77.5337 49.1982 78.5364 48.8911 79.5438C48.5583 80.8626 48.3964 84.15 48.2129 84.1795C47.8788 84.2617 48.4061 84.9399 48.7602 84.9404C58.5772 86.5502 68.5492 85.0071 78.4189 84.7548C81.2006 84.659 83.9852 84.6373 86.7664 84.7509Z" fill="white"/>
<path fill-rule="evenodd" clip-rule="evenodd" d="M71.888 57.787C71.8929 57.7425 71.9537 57.7425 71.9581 57.787L72.0276 58.4483C72.1119 59.2561 72.1932 60.0625 72.2519 60.8742C72.3254 61.886 72.3744 62.8978 72.3979 63.912C72.4801 67.4445 72.4968 70.9789 72.5036 74.5123C72.987 74.4789 73.4704 74.447 73.9542 74.4161C74.2824 74.3953 74.6105 74.3755 74.9386 74.3556L75.7756 74.3054L76.1203 74.2846C76.353 74.2701 76.6174 74.2121 76.7805 74.4161C76.8456 74.4978 76.8785 74.6036 76.8177 74.7008C76.6772 74.9242 76.4622 74.9164 76.2188 74.9261C75.9891 74.9353 75.7594 74.944 75.5297 74.9527C75.0375 74.972 74.5454 74.9894 74.0527 75.0034C73.536 75.0175 73.0193 75.0291 72.5032 75.0378C72.4978 76.5296 72.4356 78.0196 72.368 79.5095L72.3371 80.18C72.2549 81.9929 72.1657 83.8077 72.0394 85.6187C72.0291 85.7671 71.817 85.7666 71.8068 85.6187C71.6647 83.5795 71.5707 81.5361 71.4776 79.494C71.4106 78.0133 71.3709 76.5325 71.3523 75.0513C71.2842 75.0518 71.2156 75.0528 71.1476 75.0528C69.2087 75.061 67.2708 75.0697 65.3319 75.0513C65.3354 75.0552 65.3383 75.059 65.3408 75.0639C65.4808 75.3916 65.4941 75.8093 65.4906 76.1608C65.4867 76.5635 65.4319 76.9618 65.3378 77.3534C65.0019 78.7573 64.1341 80.0147 63.1458 81.0541L63.1134 81.0879C62.8803 81.3316 62.6129 81.5762 62.4699 81.8861C62.324 82.2027 62.2731 82.573 62.2011 82.9134L62.1927 82.9525L61.9107 84.2404C61.821 84.6494 61.7956 85.2459 61.4679 85.5408C61.1623 85.8164 60.7573 85.6723 60.6138 85.318C60.5012 85.0414 60.6133 84.7374 60.6795 84.4608L61.201 82.2955C61.2862 81.9421 61.3803 81.5868 61.5649 81.2697C61.7539 80.9443 62.0316 80.7089 62.3147 80.4682C62.8509 80.0118 63.3436 79.4892 63.7599 78.9236C64.1762 78.358 64.5317 77.7348 64.781 77.0793C64.9059 76.7511 65.0082 76.4102 65.0788 76.0665C65.1458 75.7402 65.1454 75.4028 65.2173 75.0798C65.2222 75.0576 65.2409 75.0426 65.2629 75.0358C65.2575 75.0213 65.2658 75.002 65.2859 75.0005L66.8717 74.9C68.2811 74.8101 69.6901 74.7177 71.0986 74.6123L71.3474 74.5949C71.3278 72.6187 71.3444 70.6419 71.3802 68.6652C71.4135 66.8518 71.414 65.0384 71.4688 63.2261C71.4958 62.3264 71.5545 61.4286 71.6192 60.5309C71.6858 59.6129 71.7925 58.7026 71.888 57.787ZM57.001 68.2987C56.9839 68.1982 57.1122 68.1358 57.171 68.2276C57.8463 69.2796 58.172 70.4224 58.3091 71.6532C58.4301 72.7395 58.3943 73.8418 58.3341 74.9309C58.27 76.0931 58.1945 77.2543 58.1186 78.4155L58.0021 80.1965L57.7092 84.6605C57.6881 84.9796 57.6147 85.2701 57.3365 85.4185C57.3017 85.4475 57.265 85.4736 57.2219 85.4963C57.0716 85.5756 56.8725 85.5355 56.7856 85.3832L56.8204 85.4059C56.8507 85.4248 56.8167 85.3982 56.7182 85.3267L56.6346 85.2198C56.5738 85.1294 56.535 85.041 56.5194 84.9336C56.4952 84.7668 56.5266 84.5841 56.5376 84.4164L56.7295 81.4892C56.8788 79.2137 57.053 76.9386 57.1847 74.6617C57.2459 73.6005 57.2885 72.5384 57.2596 71.4753C57.2307 70.4181 57.1764 69.3429 57.001 68.2987ZM62.8416 48.7032L62.8789 48.6969C64.2198 48.4767 65.6782 48.518 66.9035 49.157C66.9138 49.1622 66.9089 49.1789 66.8976 49.1784L66.5034 49.1628C65.2546 49.1144 64.0097 49.0858 62.7819 49.3759L62.656 49.4058C62.2138 49.5124 61.752 49.6429 61.3969 49.9316C61.0575 50.2076 60.8881 50.6333 60.7255 51.0252L60.7039 51.0769C60.5389 51.4639 60.3303 51.8311 59.9688 52.0731C59.5007 52.3865 58.9375 52.3481 58.4007 52.3907C57.4555 52.4658 56.6827 53.1429 56.2982 53.9716C56.0654 54.4733 55.9661 55.0357 55.9464 55.5844C55.9363 55.8639 55.9349 56.1544 55.9725 56.4319C55.9845 56.5204 56.0955 56.8438 56.1521 56.836C56.2778 56.8186 56.3928 56.8834 56.432 56.983C56.7426 56.6862 57.0623 56.3981 57.3919 56.1206C58.2141 55.4283 59.0996 54.8013 60.032 54.2622C60.7436 53.8508 61.4944 53.4433 62.2716 53.1352C62.2104 53.1339 62.1491 53.146 62.0904 53.1762C62.0649 53.1895 62.0394 53.1576 62.0595 53.1364C62.3044 52.8818 62.5977 52.8455 62.8935 52.9135C62.9567 52.8936 63.0194 52.8744 63.0831 52.8562C63.1144 52.8471 63.1301 52.8901 63.1046 52.9067L63.0321 52.9525C63.3544 53.0594 63.6713 53.2693 63.922 53.4349C64.6419 53.9107 65.2761 54.4924 65.9187 55.0633L66.0352 55.1667C66.6009 55.6656 67.1812 56.151 67.8237 56.5513C68.1602 56.7611 68.5133 56.955 68.884 57.099C69.2018 57.2233 69.7195 57.3011 69.8684 57.6332C70.0006 57.7918 69.9453 57.9948 69.7905 58.1017C69.529 58.3859 69.0064 58.2022 68.695 58.0838C68.3193 57.9412 67.9555 57.7695 67.6087 57.5684C66.9349 57.1773 66.3139 56.6915 65.7355 56.1742C65.1312 55.6342 64.5611 55.0609 63.9734 54.504C63.7188 54.2627 63.4705 54.0157 63.2153 53.7747L63.087 53.6549C62.9572 53.5342 62.7716 53.3461 62.5733 53.2323C62.1996 53.4525 61.8205 53.6637 61.4503 53.8896C60.9336 54.205 60.4321 54.5431 59.9385 54.8922C58.9879 55.5646 58.0873 56.3173 57.2513 57.1247C55.7175 58.6049 54.4109 60.295 53.2695 62.0847L53.1829 62.221C52.5343 63.2454 51.9209 64.3027 51.486 65.4349C51.0075 66.6802 50.7747 67.9898 50.6483 69.312C50.5228 70.625 50.4805 71.9443 50.3402 73.2553C50.1965 74.6007 49.9131 75.9157 49.5908 77.2287L49.5139 77.54C49.2223 78.7157 48.9213 79.8914 48.7714 81.0952C48.6913 81.7381 48.6433 82.3898 48.6541 83.0376C48.665 83.6898 48.7687 84.3269 48.8523 84.9718C48.8843 85.2193 48.6383 85.4253 48.4182 85.4582C48.1651 85.4959 47.9476 85.3358 47.8689 85.1038C47.6236 84.3791 47.579 83.5781 47.5867 82.8172C47.5945 82.0451 47.6942 81.2779 47.8345 80.5189C48.1104 79.0266 48.5361 77.5647 48.8923 76.0897C49.2062 74.7898 49.4169 73.4879 49.5305 72.156C49.6483 70.7744 49.7189 69.3884 49.934 68.0164C50.1462 66.6623 50.5456 65.3691 51.1479 64.1344C51.6964 63.01 52.38 61.9522 53.0967 60.9264C53.9671 59.681 54.923 58.4957 55.9915 57.4162C55.8956 57.4118 55.797 57.3813 55.7065 57.3253C55.4296 57.1546 55.3006 56.8206 55.261 56.5155C55.1682 55.8025 55.1906 55.0575 55.3762 54.3602C55.6756 53.2351 56.4526 52.2355 57.5789 51.8299C57.8689 51.7255 58.1769 51.6874 58.484 51.6799C58.7754 51.6727 59.0937 51.7103 59.3753 51.6189C59.8229 51.4735 60.0149 50.9523 60.1829 50.5572L60.1907 50.539C60.4062 50.0356 60.6648 49.604 61.1315 49.2897C61.6295 48.9542 62.254 48.8016 62.8416 48.7032ZM75.5831 50.6942C75.9862 50.5561 76.4901 50.6815 76.8838 50.8022C77.3231 50.9367 77.7286 51.1845 78.0764 51.4788C78.4437 51.7891 78.7468 52.1723 78.9608 52.6004L78.9814 52.6417C79.1773 53.0388 79.4001 53.5839 79.3012 54.0202C79.2987 54.0326 79.2953 54.0445 79.2919 54.0561C80.0911 54.4451 80.8297 54.9323 81.4727 55.5501C82.2215 56.269 82.8552 57.0874 83.392 57.9716C85.5223 61.4828 85.8974 65.7003 86.1492 69.7045L86.2119 70.7197C86.3485 72.9126 86.5086 75.0996 86.9239 77.262L86.9543 77.4182C87.3985 79.6816 88.0337 81.9629 87.9695 84.2853C87.9504 84.981 86.9097 84.9762 86.8799 84.2853C86.7662 81.684 86.1521 79.1726 85.7363 76.6118C85.0047 72.1072 85.371 67.4629 84.3342 63.0027C83.9277 61.2527 83.2974 59.5549 82.3973 57.9929C81.9526 57.2209 81.4443 56.4754 80.8483 55.8092C80.336 55.2364 79.8032 54.6852 79.2042 54.2036C79.0127 54.3931 78.6302 54.2965 78.5303 54.0202C78.4613 53.8303 78.4814 53.6083 78.4373 53.4094C78.3966 53.2248 78.3403 53.0418 78.2649 52.868C78.1155 52.5215 77.8956 52.1888 77.642 51.9085C77.3677 51.6054 77.0528 51.3536 76.7002 51.1457C76.3456 50.9363 75.9573 50.8738 75.5831 50.7209C75.5704 50.7157 75.5694 50.699 75.5831 50.6942ZM77.1488 74.7699C77.1493 74.7516 77.1713 74.7434 77.1845 74.7554C77.3256 74.884 77.4113 75.0682 77.5151 75.2263C77.6351 75.4086 77.761 75.5874 77.8932 75.761C78.1577 76.1095 78.452 76.4378 78.7493 76.7597C79.025 77.059 79.3193 77.3457 79.6244 77.6159C79.9555 77.9089 80.3262 78.1699 80.6264 78.4938C81.2533 79.1706 81.3547 80.0988 81.4869 80.9709L81.5016 81.0652C81.5824 81.5825 81.6544 82.1012 81.7195 82.6204C81.7513 82.8732 81.7832 83.1261 81.8086 83.3794L81.817 83.4596C81.84 83.7076 81.8459 83.9595 81.7019 84.1761C81.5476 84.4081 81.197 84.4894 80.9883 84.267C80.6303 83.8851 80.6974 83.2068 80.6509 82.7156C80.6122 82.3091 80.5686 81.9035 80.5196 81.4984L80.4952 81.2958C80.4374 80.8351 80.3904 80.3647 80.2841 79.9117C80.1901 79.5129 80.0108 79.2122 79.7165 78.9231C79.4207 78.6321 79.1126 78.3604 78.8394 78.0471C78.5494 77.7145 78.2879 77.3582 78.0524 76.986C77.8506 76.6679 77.689 76.3218 77.5411 75.9756L77.5166 75.9181C77.3736 75.5807 77.1375 75.1417 77.1488 74.7699ZM82.3204 60.2819C82.3238 60.2351 82.3939 60.2341 82.3948 60.2819C82.4042 60.6866 82.4125 61.0912 82.4208 61.4958C82.4894 64.7566 82.4473 68.0251 82.7783 71.2742C82.934 72.8067 83.2215 74.316 83.5541 75.8195C83.7245 76.5886 83.9032 77.3558 84.0727 78.1254C84.2377 78.8752 84.415 79.6284 84.5463 80.3855C84.6751 81.129 84.7906 81.8783 84.8426 82.632L84.8489 82.7301C84.871 83.0951 84.9777 83.6317 84.7745 83.9552C84.5541 84.3057 84.1324 84.3119 83.8964 83.9774C83.675 83.6632 83.7299 83.1048 83.6907 82.7301C83.651 82.3482 83.6089 81.9663 83.5609 81.5859C83.4679 80.8428 83.3449 80.1017 83.2171 79.364C82.9512 77.8277 82.5653 76.3106 82.2802 74.7767C81.9884 73.2046 81.7807 71.6218 81.7719 70.0212C81.7631 68.4075 81.936 66.7967 82.0231 65.1864C82.1118 63.5509 82.2127 61.9164 82.3204 60.2819ZM66.7385 50.1402C66.8266 49.8454 67.1396 49.6611 67.4442 49.7439C67.7238 49.8198 67.9545 50.155 67.8453 50.4419C67.7258 50.7548 67.5176 51.0217 67.3418 51.3062C67.1797 51.5691 66.9432 51.776 66.7777 52.0342L66.9598 52.2283C67.0509 52.3251 67.1425 52.4214 67.2351 52.5159L67.5524 52.8412C67.7997 53.094 68.049 53.3454 68.3046 53.5895C69.0574 54.3071 69.8219 55.0014 70.6652 55.6159C70.8572 55.7556 71.0501 55.8948 71.2489 56.0248L71.3234 56.0737C71.4595 56.1617 71.6118 56.2487 71.7764 56.2337C72.177 56.1974 72.5389 55.7768 72.8137 55.5153L72.8283 55.5018C73.5101 54.8602 74.1413 54.1594 74.6933 53.4055C74.8157 53.238 74.9347 53.0676 75.0503 52.8953C74.7834 52.5872 74.847 51.9857 74.8323 51.612C74.8221 51.3492 74.8211 51.0864 74.8196 50.8234L74.8191 50.7705C74.8157 50.6002 74.8079 50.437 74.9195 50.297C74.9259 50.2889 74.9396 50.2891 74.9479 50.2934C75.1007 50.3726 75.1482 50.5054 75.2134 50.6542L75.2202 50.6697C75.2995 50.8484 75.3759 51.0288 75.4528 51.2085C75.5336 51.3966 75.6071 51.5876 75.682 51.778C75.7173 51.8666 75.7506 51.9555 75.7829 52.0449C75.8025 52.1021 75.8231 52.1589 75.8441 52.2156L75.8495 52.2199C75.877 52.2433 75.9009 52.2679 75.921 52.2934C76.0062 52.3356 76.0743 52.4125 76.1061 52.5256C76.1752 52.7716 76.0322 52.9723 75.9039 53.1676C75.3843 53.9611 74.7922 54.7173 74.134 55.4031C73.8068 55.744 73.4625 56.0693 73.1046 56.3782L73.0419 56.4319C72.7201 56.705 72.3709 56.9642 71.9409 57.028C71.4385 57.1029 71.029 56.8554 70.6441 56.5706L70.6059 56.5421C70.2406 56.269 69.8831 55.9866 69.5368 55.6908C68.8306 55.0879 68.1587 54.4408 67.5622 53.7307C66.9819 53.04 66.4084 52.2677 66.0509 51.4365C66.0293 51.3859 66.0866 51.3329 66.1317 51.3752C66.306 51.5396 66.474 51.7129 66.64 51.8883C66.6449 51.63 66.5964 51.3695 66.6234 51.1095C66.6562 50.7935 66.6469 50.4444 66.7385 50.1402Z" fill="black"/>
<path fill-rule="evenodd" clip-rule="evenodd" d="M83.2681 32.4845C82.5893 30.0682 79.9957 29.0138 77.6596 28.8465C71.3347 28.1979 64.8971 31.676 62.0929 37.3157C59.8484 41.5981 59.7784 46.0968 64.6028 48.5419C64.8662 48.6852 65.1415 48.8384 65.4226 48.9774C65.6665 49.2013 65.9182 49.4165 66.1925 49.5971C68.8199 51.3013 72.0443 52.0384 75.1693 51.8785C79.7831 51.7868 81.4301 48.6984 82.438 44.7379C83.5012 40.7949 84.0957 36.5165 83.2681 32.4845Z" fill="white"/>
<path fill-rule="evenodd" clip-rule="evenodd" d="M86.2964 55.2605C86.081 54.618 85.8106 53.9948 85.5584 53.3652C85.505 53.0513 85.4698 52.7348 85.4605 52.4158C85.4257 51.276 85.6417 50.1265 85.8841 49.0166C86.3768 46.7611 86.8988 44.5291 87.1613 42.232C87.6295 38.1233 87.3508 33.8508 85.4565 30.1001C83.8149 26.8511 81.0332 24.194 77.4396 23.1985C76.3773 22.9041 75.2842 22.7417 74.1833 22.6768C74.0472 22.6554 73.911 22.6345 73.7754 22.6144C72.2444 22.3867 70.6944 22.2732 69.1469 22.3714C66.5801 22.5343 64.0379 23.2619 61.9002 24.7008C59.7483 26.1496 58.2194 28.1812 57.5078 30.6592C56.7676 33.2369 56.8303 36.0287 55.5522 38.4455C55.1746 39.1594 54.7339 39.8382 54.3135 40.5283C53.1983 41.7559 51.9873 43.1205 51.722 44.8084C51.3946 46.8944 52.6113 48.6573 53.7628 50.2851C54.8036 51.7549 56.2159 53.7849 55.1448 55.5946C54.6395 56.4483 53.83 57.0874 53.222 57.8657C52.5915 58.674 52.0995 59.6022 51.8452 60.5937C51.3676 62.4559 51.807 64.3969 53.0843 65.8525C53.7496 66.6101 54.6039 67.1114 55.5288 67.5015C56.4754 67.9008 57.4005 68.2793 58.1826 68.9586C58.5406 69.2684 58.8678 69.6083 59.1778 69.9646C59.4662 70.4094 59.8022 70.8256 60.1808 71.206C60.598 71.6252 61.4144 71.0518 61.0319 70.5583C61.0035 70.522 60.9761 70.4862 60.9477 70.45C60.6676 70.0898 60.3865 69.7301 60.0921 69.3816C59.214 68.0091 58.8756 66.3287 59.3125 64.7256C59.4261 64.3094 59.5852 63.914 59.7836 63.5412C59.8257 63.6495 59.8717 63.7568 59.9207 63.8627C60.1102 64.2736 60.3767 64.76 60.7151 65.1762C60.7283 65.4614 60.7719 65.7437 60.8561 66.0208C61.3777 67.7369 63.1221 68.5834 64.6952 69.2423C64.8494 69.3076 65.0012 69.37 65.1511 69.4319C65.562 69.6011 65.9969 69.0233 65.7407 68.6753C65.6732 68.5834 65.608 68.4901 65.5463 68.3954C64.8083 67.2685 64.4571 65.9207 64.6565 64.5782C64.8656 63.1583 65.7143 61.9836 66.5566 60.8562C67.3843 59.7477 68.2727 58.616 68.6429 57.2639C69.0528 55.77 68.6796 54.2807 68.0474 52.9057C67.4685 51.6475 66.6972 50.4878 66.0503 49.2642C66.2716 49.4821 66.5003 49.6928 66.7359 49.8961C67.0003 50.1247 67.2726 50.3863 67.5861 50.5475C67.8182 50.6665 68.0503 50.3814 67.8667 50.1886C67.6252 49.9354 67.3162 49.7396 67.0483 49.5136C66.7907 49.2966 66.541 49.0709 66.2971 48.8391C65.9969 48.5538 65.7114 48.255 65.4356 47.9472C65.2157 47.3935 65.0341 46.8249 64.8861 46.2478C64.6854 45.4667 64.4993 44.6356 64.514 43.826C64.5286 42.9955 64.966 42.414 65.5483 41.8564C65.7946 41.6204 66.0439 41.3871 66.2922 41.1533C66.8216 40.77 67.3211 40.3418 67.806 39.9147C68.6703 39.1537 69.5063 38.3494 70.3046 37.5214C70.5186 37.2993 70.7312 37.0747 70.9408 36.8476C71.6739 36.1057 72.3727 35.3312 73.0314 34.5299C73.6862 34.2946 74.315 33.9833 74.9057 33.6168C74.6486 33.8735 74.389 34.127 74.1309 34.3823C73.556 34.9516 72.9585 35.5234 72.2915 35.9873C72.2229 36.0355 72.2645 36.1375 72.3492 36.1212C73.1965 35.9542 73.9899 35.6761 74.7303 35.2329C75.4831 34.782 76.1467 34.1692 76.7657 33.5545C77.1163 33.3985 77.4543 33.1978 77.7633 33.0002C77.7794 32.9898 77.7961 32.9788 77.8122 32.9683C77.5081 33.9197 77.0615 34.997 76.1094 35.3363C76.0786 35.3473 76.0805 35.398 76.1178 35.396C76.9195 35.3496 77.564 34.9938 78.0728 34.475C78.4822 34.1845 78.8725 33.8767 79.2452 33.5416C79.6062 33.2169 79.948 32.8688 80.2727 32.5083C79.8192 33.3952 79.3104 34.2624 78.8094 35.1199C78.7829 35.1653 78.8382 35.2271 78.8858 35.1952C79.9441 34.4882 80.7472 33.5759 81.404 32.4972C81.5009 32.3384 81.5935 32.1769 81.6836 32.0143C81.6155 32.2688 81.5411 32.5217 81.4618 32.7733C81.3173 33.2288 81.1753 33.6853 81.0308 34.1404C80.9529 34.3859 80.8579 34.6258 80.7541 34.8615C80.6797 35.0302 80.5817 35.1985 80.5665 35.3835C80.5655 35.3958 80.5793 35.4039 80.59 35.4012C81.0122 35.2971 81.4054 34.8222 81.7061 34.5281C81.8736 34.3643 82.0303 34.1844 82.1748 33.9948C82.2018 35.087 82.2199 36.1792 82.1959 37.2746C82.1503 39.2864 82.0186 41.2976 81.8496 43.3028C81.7008 45.0755 81.5911 46.9359 80.5886 48.4766C79.8123 49.669 78.5542 50.4942 77.1873 50.894C77.0669 50.9297 76.9454 50.9615 76.8235 50.9901C74.8449 51.4534 72.8737 50.9284 71.1244 50.0004C70.5989 49.7217 70.1493 50.478 70.6567 50.7892C72.5549 51.9551 74.9615 52.3521 77.1105 51.8296C77.0424 54.3333 78.2932 56.7084 79.5376 58.8321C80.234 60.0204 80.9309 61.2014 81.4231 62.4898C81.8408 63.5843 82.1244 64.7194 82.2199 65.8868C82.3335 67.2632 82.2218 68.6472 82.0269 70.012C82.0166 70.0859 82.0059 70.1609 81.9946 70.2348C81.9515 70.5278 82.2179 70.7734 82.5073 70.6235C83.7861 69.9607 84.337 68.5477 84.6725 67.2419C84.9859 66.0183 85.1989 64.7706 85.3175 63.5146C85.4913 63.9884 85.6324 64.4738 85.7416 64.9688C85.7568 65.0394 85.7714 65.1104 85.7856 65.181C85.8689 65.5953 86.5036 65.5658 86.6055 65.181C86.6236 65.1119 86.6417 65.0423 86.6579 64.9722C87.1819 62.8828 87.3224 60.704 87.0457 58.5682C86.9003 57.4447 86.6574 56.3361 86.2964 55.2605Z" fill="black"/>
<path fill-rule="evenodd" clip-rule="evenodd" d="M75.6435 48.2732C75.2478 48.1133 74.8947 47.8468 74.6367 47.5062C74.547 47.3878 74.5235 47.2628 74.5426 47.1485C74.5637 47.0199 74.6406 46.9034 74.7454 46.8252C74.8507 46.7468 74.9819 46.7081 75.1092 46.7278C75.2194 46.7449 75.3296 46.8048 75.4163 46.929L75.4349 46.9538C75.5882 47.1594 75.788 47.328 76.0162 47.4367C76.2356 47.5415 76.4815 47.5904 76.7357 47.5619C77.22 47.5078 77.5535 47.2486 77.9081 46.8966C77.9522 46.8522 77.9962 46.8063 78.0403 46.7598C78.0682 46.7176 78.1069 46.6904 78.15 46.6762C78.198 46.6604 78.2519 46.6613 78.3013 46.6784C78.3493 46.6948 78.392 46.7261 78.4204 46.7677C78.4478 46.8072 78.463 46.856 78.4581 46.9122C78.4257 47.277 78.2328 47.6025 77.959 47.8582C77.6554 48.1421 77.2523 48.3385 76.8733 48.4074C76.455 48.4833 76.0295 48.4289 75.6435 48.2732ZM77.0702 42.6458C77.5148 42.9132 78.1921 43.537 77.7142 44.2002C77.151 44.7849 76.3404 44.1145 75.9408 43.8113C75.5706 43.5763 75.1543 44.1807 75.4981 44.4551C78.3846 46.5703 79.5556 42.7157 77.2949 42.3312C77.0462 42.2889 76.9536 42.563 77.0702 42.6458ZM71.898 40.1852C71.947 39.5816 72.8756 39.4446 72.9681 40.0418C73.0509 40.5768 72.9534 41.0683 72.71 41.55C72.4774 42.0101 71.8927 41.7955 71.8486 41.3764C71.7893 40.8147 71.8672 40.5606 71.898 40.1852ZM78.9669 39.9179C79.0962 39.7501 79.2833 39.6355 79.5071 39.7003C80.2069 39.9027 80.0007 40.886 79.7549 41.3647C79.6212 41.6246 79.1897 41.6905 78.9948 41.4616C78.6765 41.0884 78.5247 40.3431 78.9287 39.9755C78.9395 39.9565 78.9517 39.9373 78.9669 39.9179ZM72.7002 37.5442L72.8104 37.525C73.1528 37.4665 73.5778 37.4102 73.8198 37.6824C73.9481 37.8267 73.9922 38.0949 73.8198 38.233C73.5161 38.476 73.1812 38.3818 72.8173 38.4024C72.5181 38.4194 72.2301 38.4685 71.9416 38.5502C71.3084 38.7292 70.7927 39.0562 70.252 39.4152C70.181 39.4623 70.1086 39.3725 70.1423 39.3068C70.4548 38.7017 71.0596 38.2046 71.6654 37.9016C71.9886 37.7399 72.3422 37.6057 72.7002 37.5442ZM78.3288 37.2731L78.4135 37.2902C79.3342 37.4808 80.5301 37.8613 80.966 38.7564C80.9827 38.883 80.9655 38.9101 80.9508 38.9278L80.9464 38.9337C80.9347 38.9489 80.9249 38.9697 80.8695 38.9869C80.8543 38.9833 80.8387 38.9795 80.823 38.9754C80.6232 38.9236 80.465 38.8522 80.3122 38.7781L80.1462 38.6971C79.9537 38.6037 79.7593 38.5136 79.5536 38.4471C79.1143 38.3053 78.6623 38.2054 78.2034 38.152C78.104 38.1405 78.008 38.1072 77.9326 38.0502C77.8606 37.9962 77.8057 37.9214 77.7808 37.8219C77.7484 37.6931 77.7577 37.5957 77.8278 37.4796C77.8802 37.3923 77.9551 37.3319 78.0413 37.2972C78.1294 37.2618 78.2294 37.2534 78.3288 37.2731Z" fill="black"/>
<path fill-rule="evenodd" clip-rule="evenodd" d="M57.9687 86.2207C59.1901 86.1627 58.6989 84.0515 58.6112 83.2761C57.644 80.4446 57.8717 77.3555 57.4912 74.3877C57.2541 71.6172 56.9499 68.8553 56.6938 66.0867C56.191 60.4673 52.5797 49.0272 48.4587 47.1874C47.9395 44.9365 45.7954 42.8354 43.0826 42.8354C41.2323 40.6711 39.0052 39.1479 36.1488 39.4555C34.9684 39.5086 33.8236 40.7457 32.6925 40.9846C32.0592 41.0709 26.4389 40.8488 25.3131 41.5096C24.5289 41.9074 23.821 42.6427 24.0515 43.5788C24.4195 44.7129 23.2761 43.4858 20.8911 44.6963C16.0276 47.5826 18.9338 51.444 19.0626 51.5636C16.0276 55.7364 13.3749 59.1214 12.1475 64.2216C11.3521 68.0083 11.4416 71.9174 10.7751 75.7234C10.5398 77.0432 10.1788 78.3175 9.78816 79.5991C9.36477 81.2762 9.1589 85.4564 8.92554 85.4941C8.50044 85.598 9.17122 86.461 9.62165 86.4614C22.1099 88.5083 34.7949 86.546 47.3502 86.2255C50.8885 86.1042 54.4306 86.0762 57.9687 86.2207Z" fill="white"/>
<path fill-rule="evenodd" clip-rule="evenodd" d="M39.0406 51.9318C39.0464 51.8753 39.1235 51.8754 39.1295 51.9318L39.2176 52.7729C39.3249 53.8001 39.4281 54.8255 39.503 55.8571C39.5964 57.144 39.6588 58.4309 39.6889 59.7207C39.7938 64.2128 39.8146 68.7072 39.8235 73.2003C40.4384 73.1582 41.0534 73.1176 41.6687 73.0784C42.0861 73.0519 42.5036 73.0262 42.9211 73.0011L43.9857 72.9373L44.424 72.9107C44.7202 72.8928 45.0567 72.8188 45.2638 73.078C45.3467 73.1819 45.3883 73.3168 45.311 73.4401C45.1327 73.7243 44.8589 73.7142 44.5492 73.7267C44.257 73.7383 43.9648 73.7499 43.6726 73.7611C43.0465 73.7847 42.4203 73.8075 41.794 73.8249C41.1367 73.8432 40.4797 73.8577 39.8226 73.8689C39.816 75.7658 39.7365 77.6604 39.6506 79.555L39.6118 80.4078C39.5067 82.7137 39.3937 85.0212 39.2331 87.3242C39.2199 87.5128 38.95 87.5123 38.9369 87.3242C38.756 84.7306 38.6367 82.1322 38.5185 79.5352C38.4326 77.6527 38.3827 75.7692 38.359 73.8858C38.2721 73.8863 38.1852 73.8877 38.0984 73.8877C35.6323 73.8983 33.1667 73.909 30.7005 73.8863C30.7046 73.8911 30.7086 73.8959 30.7114 73.9022C30.8898 74.3184 30.9068 74.8497 30.9024 75.2964C30.8975 75.8089 30.8276 76.315 30.7082 76.8134C30.2803 78.5988 29.1766 80.1975 27.9196 81.5197L27.8786 81.5627C27.582 81.8721 27.2419 82.1829 27.0598 82.5774C26.8739 82.9801 26.8093 83.451 26.7175 83.8837L26.7068 83.9334L26.348 85.5713C26.234 86.0915 26.2017 86.85 25.785 87.2251C25.3962 87.5751 24.8812 87.3924 24.6983 86.9418C24.5554 86.5899 24.6977 86.2032 24.7823 85.8517L25.4453 83.0976C25.5542 82.649 25.6732 82.1965 25.9083 81.7933C26.1491 81.3799 26.5022 81.0807 26.8625 80.7742C27.5447 80.1936 28.1709 79.5294 28.7005 78.81C29.2299 78.0907 29.6823 77.2983 29.9996 76.4649C30.1585 76.0472 30.2887 75.614 30.3785 75.177C30.4638 74.7622 30.4631 74.333 30.5544 73.9225C30.5606 73.894 30.5848 73.8747 30.6126 73.866C30.606 73.8476 30.6161 73.8229 30.642 73.8215L32.6589 73.6934C34.4517 73.5793 36.2446 73.4618 38.0358 73.3279L38.3523 73.3052C38.3278 70.7923 38.3486 68.2789 38.3945 65.7646C38.4366 63.4591 38.4375 61.1531 38.5069 58.8481C38.5414 57.7043 38.6158 56.5629 38.6985 55.4211C38.7832 54.2536 38.9188 53.0959 39.0406 51.9318ZM20.1025 65.299C20.081 65.1709 20.244 65.0917 20.3191 65.2086C21.178 66.5463 21.5921 67.9995 21.7666 69.5649C21.9208 70.9465 21.8754 72.348 21.7986 73.733C21.7167 75.2104 21.6211 76.6878 21.5245 78.1642L21.3761 80.4286L21.0036 86.1055C20.9769 86.5116 20.8837 86.8804 20.5298 87.0695C20.485 87.1062 20.4383 87.1396 20.3839 87.1681C20.1928 87.2691 19.9392 87.2184 19.8287 87.0245L19.873 87.053C19.9116 87.0772 19.8683 87.0439 19.743 86.953L19.6366 86.8166C19.5594 86.7021 19.51 86.5889 19.4902 86.4526C19.4593 86.2409 19.4992 86.0083 19.5133 85.7951L19.7575 82.0727C19.9473 79.1789 20.1691 76.2855 20.3362 73.3903C20.414 72.041 20.4686 70.6903 20.4317 69.3386C20.3949 67.9942 20.3256 66.627 20.1025 65.299ZM27.5322 40.3802L27.5799 40.3723C29.2858 40.0923 31.1407 40.1447 32.6997 40.9573C32.7126 40.964 32.7067 40.9851 32.6922 40.9845L32.1904 40.9647C30.6018 40.9032 29.0182 40.8668 27.4562 41.2357L27.2963 41.2737C26.7338 41.4093 26.1464 41.5753 25.6946 41.9424C25.2627 42.2934 25.0477 42.8347 24.8409 43.333L24.8132 43.3988C24.6034 43.891 24.338 44.3578 23.8781 44.6656C23.2825 45.0642 22.5662 45.0153 21.8833 45.0695C20.6809 45.1649 19.6979 46.0261 19.2088 47.0798C18.9126 47.7179 18.7863 48.4332 18.7612 49.131C18.7484 49.4862 18.7465 49.8554 18.7944 50.2082C18.8098 50.321 18.9509 50.7321 19.0229 50.7222C19.1828 50.7003 19.3291 50.7828 19.3789 50.9091C19.774 50.5319 20.1804 50.1656 20.6 49.8125C21.6457 48.9325 22.7721 48.1349 23.9584 47.4495C24.8637 46.9263 25.8187 46.408 26.8075 46.0162C26.7292 46.0146 26.6519 46.03 26.5772 46.0683C26.5444 46.0853 26.5119 46.0447 26.5377 46.0178C26.8492 45.694 27.2223 45.6479 27.5984 45.7343C27.6786 45.7091 27.759 45.6846 27.8396 45.6614C27.8797 45.6499 27.8997 45.7046 27.8669 45.7256L27.7746 45.784C28.1849 45.9198 28.5877 46.1867 28.9067 46.3974C29.8228 47.0024 30.6292 47.7421 31.4467 48.4679L31.5953 48.5994C32.3148 49.2343 33.0527 49.8512 33.8702 50.3606C34.2981 50.6272 34.7476 50.8738 35.2191 51.0571C35.6234 51.2146 36.2818 51.3137 36.4712 51.736C36.6395 51.938 36.5692 52.1959 36.372 52.3319C36.0396 52.6935 35.3744 52.4599 34.9782 52.3094C34.5005 52.1277 34.0378 51.9095 33.5964 51.6535C32.7396 51.1565 31.9496 50.5385 31.2137 49.8811C30.4451 49.1944 29.7201 48.465 28.9725 47.7568C28.6486 47.45 28.3322 47.136 28.0078 46.8296L27.8449 46.677C27.6793 46.5236 27.4434 46.2845 27.1912 46.1397C26.7161 46.4198 26.2336 46.6883 25.7627 46.9756C25.1055 47.3766 24.4675 47.8065 23.8395 48.2506C22.6304 49.1056 21.4846 50.0631 20.4209 51.0894C18.47 52.9716 16.808 55.1209 15.356 57.3969L15.2458 57.5704C14.4207 58.8728 13.6404 60.2177 13.0871 61.6569C12.4784 63.2406 12.1824 64.9065 12.0216 66.5879C11.8619 68.2567 11.8081 69.9347 11.6297 71.6025C11.4468 73.3129 11.0863 74.9856 10.6763 76.6549L10.5786 77.0508C10.2076 78.5461 9.82469 80.0408 9.63399 81.5714C9.53219 82.3889 9.47096 83.218 9.4848 84.0417C9.49869 84.8708 9.63052 85.6815 9.73687 86.5014C9.77762 86.8157 9.4647 87.0782 9.1847 87.1197C8.86267 87.1676 8.58602 86.9646 8.48592 86.6687C8.17388 85.7473 8.1172 84.7287 8.12699 83.7618C8.13685 82.7795 8.26368 81.8039 8.44213 80.839C8.7931 78.941 9.33472 77.0822 9.7878 75.2065C10.1871 73.5537 10.4551 71.8979 10.5996 70.2044C10.7495 68.4472 10.8393 66.6846 11.1129 64.9403C11.3829 63.2184 11.8909 61.5737 12.6572 60.0035C13.3548 58.5735 14.2244 57.2281 15.1362 55.9238C16.2434 54.3401 17.4594 52.833 18.8186 51.4599C18.6965 51.4546 18.5711 51.4156 18.456 51.3447C18.1038 51.1276 17.9397 50.7029 17.8893 50.3151C17.7713 49.408 17.7997 48.4609 18.0358 47.5741C18.4167 46.1433 19.4051 44.8721 20.8377 44.3564C21.2064 44.2236 21.5984 44.1752 21.9892 44.1656C22.36 44.1565 22.765 44.2043 23.1228 44.0881C23.6923 43.9031 23.9364 43.2403 24.1502 42.7379L24.1601 42.7148C24.4342 42.0746 24.7633 41.5258 25.3572 41.1261C25.9909 40.6995 26.7847 40.5055 27.5322 40.3802ZM43.7408 42.9122C44.2534 42.7365 44.8943 42.896 45.3956 43.0494C45.9541 43.2205 46.4702 43.5356 46.9126 43.9099C47.3794 44.3045 47.7652 44.7918 48.0378 45.3362L48.0638 45.3887C48.3127 45.8936 48.5963 46.5869 48.4707 47.1417C48.4672 47.1574 48.463 47.1726 48.4583 47.1872C49.4754 47.682 50.4147 48.3017 51.2327 49.0871C52.1851 50.0016 52.9915 51.0422 53.674 52.1665C56.3845 56.6316 56.8616 61.9943 57.1818 67.0868L57.2616 68.378C57.4355 71.166 57.6387 73.9477 58.1672 76.6969L58.2059 76.8956C58.7705 79.7745 59.5791 82.6751 59.4973 85.6284C59.4728 86.513 58.1495 86.5072 58.1108 85.6284C57.9664 82.3207 57.1852 79.1267 56.6564 75.8708C55.7256 70.1421 56.192 64.236 54.8732 58.5648C54.3557 56.3391 53.554 54.1801 52.4091 52.1934C51.8436 51.212 51.1966 50.2636 50.4386 49.4169C49.7866 48.6884 49.1089 47.9873 48.3468 47.3748C48.1033 47.6159 47.6168 47.4931 47.4896 47.1417C47.4023 46.9002 47.4277 46.6179 47.3717 46.3649C47.3197 46.1302 47.248 45.8974 47.1524 45.6764C46.962 45.2359 46.6824 44.8128 46.3597 44.4562C46.0111 44.0708 45.6104 43.7506 45.162 43.4862C44.7106 43.22 44.2168 43.1405 43.7408 42.946C43.7247 42.9395 43.7232 42.9182 43.7408 42.9122ZM45.7323 73.5285C45.7331 73.5053 45.7608 73.4942 45.7779 73.5097C45.9576 73.6731 46.0662 73.9075 46.1985 74.1086C46.3511 74.3402 46.5113 74.5674 46.6792 74.7888C47.0158 75.2317 47.3904 75.6493 47.7681 76.0583C48.1193 76.4393 48.4937 76.8038 48.882 77.147C49.3027 77.5197 49.7742 77.8519 50.1564 78.2637C50.954 79.1243 51.0829 80.3048 51.2512 81.4133L51.2696 81.5332C51.3722 82.1911 51.4642 82.851 51.5471 83.5114C51.5874 83.8329 51.6276 84.1544 51.6604 84.4768L51.6705 84.5788C51.6998 84.894 51.7076 85.2141 51.5244 85.4896C51.3282 85.7845 50.8821 85.888 50.6169 85.6052C50.1612 85.1193 50.2466 84.2569 50.1874 83.6323C50.1384 83.1155 50.0828 82.5997 50.0207 82.0843L49.989 81.8266C49.9157 81.2407 49.8562 80.6427 49.7205 80.0669C49.6009 79.5598 49.3729 79.1769 48.999 78.8095C48.6222 78.4392 48.2308 78.0941 47.883 77.6952C47.5142 77.2727 47.1815 76.8192 46.8817 76.3465C46.6253 75.9418 46.4197 75.5014 46.2315 75.0615L46.2002 74.988C46.0182 74.5592 45.7181 74.0008 45.7323 73.5285ZM52.3114 55.1044C52.3154 55.0445 52.4048 55.0435 52.4062 55.1044C52.4175 55.6188 52.4283 56.1336 52.4392 56.648C52.5261 60.7944 52.4725 64.951 52.8935 69.0829C53.092 71.0311 53.4577 72.9508 53.8808 74.8628C54.0973 75.8408 54.3244 76.8168 54.5401 77.7948C54.7505 78.7486 54.976 79.7068 55.1428 80.6688C55.3068 81.6149 55.4535 82.5677 55.5195 83.5259L55.5276 83.6506C55.5559 84.1147 55.6914 84.7973 55.4328 85.2087C55.1526 85.654 54.6162 85.6622 54.3159 85.2368C54.034 84.8375 54.1041 84.1273 54.0543 83.6506C54.0037 83.1653 53.9502 82.6794 53.8894 82.1955C53.7708 81.2509 53.6145 80.3082 53.452 79.3703C53.1135 77.4163 52.6225 75.4874 52.2601 73.5367C51.8887 71.5377 51.6246 69.5247 51.6135 67.4895C51.6025 65.4373 51.8223 63.389 51.9333 61.3412C52.046 59.261 52.1741 57.1827 52.3114 55.1044ZM32.4894 42.2076C32.6021 41.8327 32.9996 41.5984 33.3875 41.7037C33.7429 41.8002 34.0364 42.2265 33.8975 42.5912C33.7458 42.9893 33.4808 43.3287 33.2573 43.6904C33.051 44.0247 32.7499 44.2879 32.5397 44.6162L32.7714 44.863C32.8873 44.9861 33.0035 45.1085 33.121 45.2288L33.5251 45.6424C33.8398 45.9639 34.1565 46.2836 34.4821 46.5939C35.4396 47.5065 36.4123 48.3892 37.4845 49.1707C37.7287 49.3486 37.9747 49.5254 38.2276 49.691L38.3219 49.7528C38.4953 49.865 38.6889 49.9753 38.8985 49.9563C39.4078 49.9101 39.868 49.3756 40.218 49.043L40.2363 49.0256C41.1036 48.2102 41.9067 47.3186 42.6088 46.36C42.7647 46.147 42.9157 45.9304 43.0627 45.7112C42.7232 45.3194 42.8043 44.5545 42.7856 44.0793C42.7724 43.7451 42.7714 43.4109 42.7695 43.0765L42.7686 43.0091C42.7645 42.7926 42.7546 42.5851 42.8968 42.407C42.905 42.3967 42.9221 42.397 42.9327 42.4024C43.1274 42.5033 43.1874 42.672 43.2704 42.8613L43.2791 42.881C43.3802 43.1082 43.477 43.3376 43.575 43.5661C43.6775 43.8054 43.7716 44.0482 43.8669 44.2904C43.9112 44.403 43.9536 44.5161 43.9949 44.6298C44.0202 44.7024 44.0463 44.7747 44.0731 44.8468L44.0794 44.8524C44.1148 44.882 44.1448 44.9134 44.1706 44.9457C44.2792 44.9994 44.3656 45.0973 44.4061 45.241C44.4942 45.5539 44.3118 45.8091 44.1491 46.0574C43.4881 47.0665 42.7346 48.0281 41.8971 48.9004C41.481 49.3337 41.0434 49.7476 40.5878 50.1402L40.5081 50.2084C40.0988 50.5559 39.6545 50.8852 39.1079 50.9665C38.4682 51.0616 37.9476 50.7472 37.458 50.3852L37.4091 50.3488C36.9449 50.0015 36.49 49.6421 36.0494 49.2661C35.1508 48.4996 34.296 47.6765 33.5374 46.7735C32.7995 45.8951 32.07 44.913 31.6152 43.8562C31.5874 43.7918 31.6603 43.7244 31.7175 43.7781C31.9396 43.9872 32.1535 44.2075 32.3647 44.4307C32.3706 44.1022 32.3092 43.7708 32.3433 43.4403C32.385 43.0384 32.373 42.5945 32.4894 42.2076Z" fill="black"/>
<path fill-rule="evenodd" clip-rule="evenodd" d="M39.0726 10.5459C42.2869 10.5459 46.1434 12.0838 46.4714 12.1145L46.4802 12.115C46.6527 12.115 47.3268 12.6218 48.5024 13.6355L47.2291 16.0866L47.3321 16.1837C47.8252 16.6503 48.2462 17.0756 48.5785 17.4109C51.2917 20.1482 51.7793 30.8961 51.1399 34.6442C50.5005 38.3923 49.3162 42.0599 43.8026 42.0599C38.289 42.0599 32.155 38.7881 31.2101 37.7691C30.5802 37.0899 29.8726 36.7645 29.0874 36.7929C29.0551 36.7527 29.0231 36.7126 28.9913 36.6727L28.8758 36.6565C27.7891 36.5012 27.0104 36.2921 26.5398 36.0294C25.6207 35.5161 24.6104 32.8181 24.6104 32.2237C24.6104 31.6353 23.1018 27.3548 23.0717 26.9019L23.0712 26.8893C23.0712 26.5107 21.1004 24.77 21.1004 24.2172C21.1004 23.6643 20.7031 23.6979 21.1004 21.7498L21.2158 21.1776C21.6385 19.1035 22.466 15.6691 25.6207 14.1767C29.0874 12.5368 35.8259 10.5459 39.0726 10.5459Z" fill="white"/>
<path fill-rule="evenodd" clip-rule="evenodd" d="M25.0847 14.0998C26.8137 12.2887 36.6293 9.48727 41.5954 10.0811L41.7443 10.1001C42.1406 10.1497 42.5312 10.2249 42.9166 10.3269C44.1626 10.6141 45.4495 11.0489 46.4789 11.7752C47.3383 12.3694 50.0495 13.3397 49.2504 14.8941C49.5467 15.4481 49.6572 16.1326 49.457 16.6782C49.4318 16.8667 49.373 17.0403 49.2976 17.2203C49.9307 18.1422 50.4319 19.1847 50.8376 20.1763C51.5465 22.6718 51.9877 25.2689 52.0523 27.8151C52.2672 32.6524 51.7298 38.4306 47.4608 41.5587C44.882 43.5408 40.8423 43.6074 37.9443 41.1498C37.7798 40.9577 37.0064 40.4393 37.2645 40.3484C37.3413 40.4285 37.4203 40.5064 37.5007 40.583C37.497 40.5745 37.4963 40.5659 37.4978 40.5567L37.4222 40.4891C37.2797 40.3591 37.0952 40.1705 37.3054 40.2074C37.3146 40.2181 37.3248 40.2273 37.3347 40.2379C37.3793 40.2642 37.4129 40.2871 37.439 40.3072L37.4525 40.3178L37.4483 40.3136C37.3273 40.1862 37.2547 40.0563 37.4357 40.1392L37.4597 40.1507C37.5401 40.2344 37.6219 40.3144 37.7052 40.3923C37.7038 40.3832 37.7052 40.3739 37.7103 40.364L37.6327 40.29C37.5568 40.2167 37.5684 40.2164 37.6055 40.1571C37.4443 39.9343 37.7451 40.0667 37.7662 40.1536C37.9544 40.1096 38.1196 40.4582 38.2408 40.5008C43.5534 44.5316 51.263 40.955 51.1382 29.7229L51.1362 29.5031C51.0997 25.9116 50.7935 22.2201 49.2882 18.9689C49.1418 18.6558 48.9781 18.3511 48.798 18.0564C48.6738 17.8353 48.5409 17.6199 48.3981 17.4101C47.9981 17.3783 47.6033 17.306 47.2142 17.1941C47.0806 17.1607 46.9485 17.1239 46.8165 17.0807C44.8867 17.1846 42.9999 17.2976 41.0647 17.4047L40.4603 17.4419C38.8209 17.5458 37.1256 17.7124 35.8027 18.7131C34.5047 19.6242 34.4988 21.4207 33.3876 22.4209C31.8032 23.4823 31.7916 24.4393 31.4865 26.0033C31.5091 27.1824 32.3374 28.8953 30.8174 29.3915C31.0738 29.7524 30.7164 29.579 30.6882 29.4525C30.6854 29.4532 30.6825 29.4539 30.6803 29.4539C30.9088 29.8731 30.5729 29.6091 30.5432 29.4745C30.5253 29.4695 30.5073 29.4568 30.4894 29.439C30.7196 29.8063 30.3474 29.5491 30.3695 29.4822C29.9245 28.8074 29.0089 28.7026 28.3635 28.8814C28.3556 28.9055 28.327 28.9076 28.309 28.8949C25.5646 29.4818 26.2727 35.0889 29.0851 34.5469C29.2055 34.5227 29.2026 34.5797 29.2265 34.5852C29.1615 34.4168 29.3447 34.4853 29.3427 34.5207L29.3539 34.5201C29.3628 34.5194 29.3591 34.5184 29.3657 34.5207C29.3029 34.1764 29.6564 34.6752 29.6285 34.6957C29.6393 34.6893 29.6515 34.6858 29.6623 34.6844L29.6501 34.6517C29.5915 34.4974 29.5965 34.5615 29.5969 34.4732C29.5528 34.364 29.5496 34.4118 29.5599 34.3406C29.7148 34.2222 29.7606 34.5815 29.8123 34.6078C29.7237 34.486 29.7941 34.3864 29.8777 34.4526C30.5111 35.7675 31.3294 37.003 32.3868 37.9762C32.5024 38.0662 32.6195 38.1548 32.7407 38.2384C33.1905 38.6251 33.8804 38.8737 34.3015 39.2162C34.3015 39.2219 34.2987 39.2289 34.2944 39.236L34.304 39.2446L34.3138 39.2537L34.4602 39.3232C34.5033 39.3593 34.5421 39.3997 34.5765 39.4443C34.6131 39.4862 34.6454 39.5322 34.6727 39.5811C34.6863 39.6406 34.6562 39.6654 34.5988 39.6399C34.5736 39.6314 34.5485 39.6215 34.5234 39.6122C34.5248 39.6144 34.5255 39.6158 34.527 39.6172C34.5352 39.6295 34.591 39.7571 34.5267 39.7363L34.5191 39.7334C34.4838 39.7207 34.4487 39.7065 34.4143 39.693C34.4552 39.7433 34.4925 39.7979 34.5255 39.8439C34.5607 39.8801 34.5822 39.9226 34.5909 39.9708C34.5894 39.9977 34.5743 40.009 34.5471 40.0055C34.5054 39.992 34.4645 39.9779 34.4236 39.963L34.4352 39.9849C34.4642 40.0411 34.5053 40.1355 34.4322 40.104C34.3697 40.0848 34.3094 40.0629 34.2492 40.0388C34.2441 40.0487 34.2341 40.0522 34.2139 40.043C34.0223 39.9757 33.837 39.8935 33.6597 39.7965C33.5039 39.6845 33.3466 39.5747 33.1902 39.4635C33.0429 39.3763 32.9008 39.2792 32.7652 39.1701C31.8573 38.5914 31.0625 37.8562 30.4319 37.0374C29.3774 37.9387 27.2689 37.0776 25.9646 36.3721C24.811 35.7415 24.3575 34.5755 24.2403 33.3184C23.9965 31.626 22.5952 31.0467 22.6927 27.3332C22.6905 27.334 22.6883 27.334 22.6854 27.334C22.6344 27.3191 22.585 27.2992 22.5383 27.2737C22.4902 27.2511 22.445 27.2241 22.4025 27.1915L22.3501 27.12C22.3229 27.1051 22.2985 27.0895 22.2799 27.0739L22.2702 27.0862C22.2395 27.1227 22.2601 27.0678 22.2619 27.0569L22.1708 26.9347C21.955 26.6439 21.7181 26.3175 21.5252 26.0565L21.5192 26.0671C21.5148 26.0751 21.5125 26.0809 21.5146 26.0834C21.0554 25.4324 20.6237 24.646 20.5037 23.8848C20.3621 23.2984 20.4174 22.6942 20.541 22.151C21.0707 20.2489 22.8061 15.9447 25.0847 14.0998ZM37.5442 40.4046L37.5155 40.3793L37.5407 40.4106C37.554 40.4268 37.5676 40.4413 37.5897 40.4561C37.5882 40.4512 37.5882 40.4462 37.5889 40.4405C37.5742 40.4295 37.5592 40.4174 37.5442 40.4046ZM41.5734 11.0368C38.2057 10.7511 34.8934 11.4833 31.6798 12.3696L31.4582 12.4325C29.6309 12.9471 27.6987 13.4101 26.1545 14.5115C23.9971 16.1423 22.883 18.7367 21.9107 21.1321C21.0618 22.9118 21.4958 24.9186 22.7751 26.1613C22.9082 24.9264 23.1352 23.7276 23.4899 22.5385C23.5639 22.3527 23.5079 22.2919 23.6674 22.2676C23.9083 25.4722 22.7217 27.8399 25.07 31.6378C26.0889 33.4298 24.9094 34.741 27.7868 35.684L27.8647 35.7134C28.4642 35.9366 29.1189 36.1129 29.706 35.9881L29.6534 35.9036C29.5998 35.8167 29.5835 35.7745 29.6615 35.7372C29.6595 35.733 29.6566 35.7287 29.6536 35.7238C29.5905 35.6062 29.5295 35.4871 29.4712 35.3667C29.4476 35.3745 29.4239 35.3802 29.3994 35.3865C29.4153 35.4156 29.4174 35.4446 29.373 35.4545C29.2148 35.5081 29.0523 35.5296 28.886 35.5195L28.8503 35.5169C28.6624 35.5056 28.5441 35.4718 28.4381 35.4404C28.403 35.4347 28.3679 35.429 28.3333 35.4219C27.9927 35.3474 27.6321 35.1578 27.3987 34.9699C24.7382 33.4786 25.0131 28.402 28.2925 27.9221C28.3597 24.7257 29.9002 19.3331 32.4568 16.2873C34.7676 13.4857 41.0764 12.2714 45.4655 12.6996C45.5295 12.7205 45.5934 12.7416 45.6574 12.7629C46.3345 12.8223 46.9799 13.12 47.6576 13.2583C47.171 12.8985 46.6191 12.6588 46.0505 12.4551C44.9178 11.7712 43.6192 11.4012 42.3646 11.1403C42.1047 11.0772 41.8412 11.0425 41.5734 11.0368ZM28.1424 30.4898C28.3187 30.3953 28.2985 30.4865 28.3391 30.46C29.6074 30.3579 30.975 31.4538 31.6839 32.3674C31.6279 32.4248 31.4765 32.2548 31.4499 32.2278C31.4463 32.2314 31.442 32.2342 31.4377 32.2356L31.4574 32.2631C31.7448 32.6701 31.1751 32.1912 31.1218 32.0925C31.1124 32.0975 31.1031 32.1003 31.0924 32.0982C31.1375 32.1419 31.2754 32.2559 31.2991 32.337L31.3357 32.367C31.6804 32.6584 31.6518 32.8776 31.2604 32.4638C31.2697 32.4829 31.2733 32.5006 31.2668 32.5148L31.2803 32.5237C31.4728 32.6564 31.6311 33.0265 31.2288 32.6466C31.2706 32.924 30.8301 32.3878 30.816 32.3915C30.0537 31.8009 28.9313 31.2266 27.9751 31.1495L27.9422 31.1457C27.7667 31.1234 27.6838 31.0721 27.7454 30.9588C27.5293 30.9081 27.5799 30.8031 27.6822 30.8065C27.5298 30.7076 27.667 30.613 27.7555 30.6499C27.6946 30.4838 27.9385 30.5944 27.9608 30.5713C28.0873 30.3786 28.1214 30.5393 28.1424 30.4898ZM25.4839 20.1911C26.0931 19.9709 27.8924 20.6302 27.7485 21.5032C27.6627 21.7037 27.3803 21.8185 27.1818 21.7054L26.9227 21.5336C26.4719 21.2356 26.0652 20.9744 25.5811 20.7144C25.3176 20.5854 25.2042 20.3115 25.4839 20.1911ZM28.9497 18.8938L28.7145 18.7426C27.4449 17.9226 25.6501 16.6801 28.833 17.9656C29.1958 18.1192 29.6778 18.21 29.8758 18.551C30.1867 19.1794 29.3684 19.2216 28.9497 18.8938ZM29.0924 15.2143C28.9905 14.8328 30.2582 15.2805 30.6272 15.3986L30.6833 15.4195C31.0423 15.5515 31.4538 15.674 31.6685 15.9797C31.9201 16.4021 31.4109 16.4897 31.0956 16.2989C30.4489 15.8818 29.74 15.5672 29.0924 15.2143ZM32.3159 13.437C31.6024 12.668 33.512 13.4047 33.798 13.6092L33.8062 13.6152C34.0196 13.7635 33.9763 14.0829 33.7758 14.1767C33.2053 14.1874 32.7854 13.7181 32.3159 13.437ZM35.5628 12.5945C34.4285 11.7899 35.9227 12.1726 36.4417 12.4879C36.7954 12.7958 36.4311 13.3155 35.5628 12.5945Z" fill="black"/>
<path fill-rule="evenodd" clip-rule="evenodd" d="M43.237 36.7021C42.8195 36.5336 42.447 36.2526 42.1747 35.8937C42.08 35.769 42.0554 35.6372 42.0753 35.5166C42.0976 35.3811 42.1787 35.2584 42.2892 35.176C42.4001 35.0933 42.5388 35.0526 42.6729 35.0733C42.7895 35.0914 42.9054 35.1545 42.9973 35.2854L43.0164 35.3115C43.1783 35.5282 43.3893 35.7059 43.6297 35.8205C43.8614 35.9309 44.1206 35.9824 44.3887 35.9525C44.8994 35.8954 45.2515 35.6222 45.6256 35.2512C45.672 35.2044 45.7184 35.1561 45.7651 35.107C45.7945 35.0626 45.8354 35.0339 45.8808 35.019C45.9311 35.0023 45.9881 35.0032 46.0403 35.0212C46.0907 35.0386 46.1357 35.0716 46.1659 35.1154C46.1946 35.157 46.2108 35.2085 46.2056 35.2677C46.1713 35.6522 45.9681 35.9952 45.6794 36.2647C45.3588 36.5639 44.9338 36.7709 44.5337 36.8435C44.0929 36.9234 43.6437 36.8662 43.237 36.7021ZM44.7416 30.7711C45.2106 31.053 45.9252 31.7104 45.4207 32.4094C44.8268 33.0257 43.9718 32.3191 43.5505 31.9995C43.1598 31.7518 42.7208 32.3888 43.0833 32.678C46.1279 34.9074 47.3635 30.8448 44.9788 30.4396C44.7163 30.395 44.6187 30.6839 44.7416 30.7711ZM39.2856 28.1778C39.3375 27.5417 40.317 27.3972 40.4145 28.0267C40.5018 28.5906 40.399 29.1085 40.1422 29.6162C39.8968 30.1012 39.2801 29.8749 39.2335 29.4333C39.171 28.8413 39.2534 28.5735 39.2856 28.1778ZM46.7422 27.8962C46.8788 27.7193 47.0759 27.5985 47.3122 27.6668C48.0503 27.8801 47.8327 28.9164 47.5735 29.4209C47.4327 29.6949 46.9773 29.7643 46.7716 29.5231C46.4362 29.1298 46.2757 28.3443 46.702 27.9568C46.7135 27.9368 46.7264 27.9166 46.7422 27.8962ZM40.1318 25.3943L40.2484 25.3742C40.6091 25.3125 41.0576 25.2532 41.3128 25.54C41.4481 25.692 41.4947 25.9748 41.3128 26.1203C40.9928 26.3764 40.639 26.2772 40.2556 26.2988C39.9396 26.3168 39.6359 26.3685 39.3315 26.4546C38.6638 26.6433 38.1197 26.9879 37.5494 27.3663C37.4746 27.4159 37.3982 27.3213 37.4339 27.252C37.7631 26.6143 38.4011 26.0904 39.0401 25.771C39.3812 25.6006 39.7545 25.4592 40.1318 25.3943ZM46.0693 25.1086L46.1586 25.1267C47.1297 25.3275 48.3915 25.7285 48.8513 26.672C48.8689 26.8054 48.8503 26.834 48.8353 26.8526L48.8303 26.8589C48.8179 26.8748 48.808 26.8968 48.7495 26.9149C48.7333 26.9111 48.7169 26.9071 48.7003 26.9028C48.4896 26.8482 48.3228 26.7729 48.1613 26.6948L47.9862 26.6095C47.7831 26.511 47.5782 26.4161 47.361 26.346C46.8976 26.1965 46.4209 26.0912 45.9369 26.0349C45.832 26.0228 45.7309 25.9878 45.6512 25.9277C45.5755 25.8708 45.5177 25.7919 45.4914 25.687C45.4573 25.5513 45.4671 25.4486 45.5407 25.3262C45.596 25.2343 45.6752 25.1706 45.7662 25.134C45.8589 25.0966 45.9644 25.0879 46.0693 25.1086Z" fill="black"/>
<path d="M59.7831 21.005C60.4124 20.097 61.291 18.1061 59.7831 17.5549C58.4055 17.0514 57.7517 18.0898 57.5573 18.7908C57.521 17.724 55.8399 17.0688 55.0189 17.724C53.6822 18.7908 54.8818 20.8698 56.3556 21.9522C57.8296 23.0346 59.3375 21.6477 59.7831 21.005Z" fill="black"/>
</g>
<defs>
<clipPath id="clip0_240_6690">
<rect width="80" height="78" fill="white" transform="translate(8 10)"/>
</clipPath>
</defs>
</svg>
