<svg width="162" height="88" viewBox="0 0 162 88" fill="none" xmlns="http://www.w3.org/2000/svg">
<g clip-path="url(#clip0_240_6648)">
<path fill-rule="evenodd" clip-rule="evenodd" d="M79.8905 86.178C80.816 86.133 80.444 84.5085 80.3775 83.9119C79.6441 81.7326 79.8167 79.3555 79.5285 77.0712C79.3485 74.9396 79.1182 72.8139 78.9241 70.6835C78.5426 66.3589 75.8051 57.5551 72.6807 56.1392C72.2871 54.407 70.6619 52.7901 68.6053 52.7901C67.2026 51.1246 65.5143 49.9524 63.3489 50.1891C62.454 50.23 61.5862 51.182 60.7287 51.3658C60.2486 51.4323 55.9879 51.2613 55.1344 51.7698C54.5399 52.076 54.0032 52.6418 54.1781 53.3622C54.4569 54.235 53.5902 53.2907 51.7821 54.2222C48.0952 56.4434 50.2983 59.415 50.396 59.507C48.0952 62.7181 46.0841 65.3233 45.1537 69.2483C44.5507 72.1622 44.6185 75.1703 44.1133 78.0997C43.9349 79.1147 43.6612 80.096 43.3651 81.0821C43.0441 82.3729 42.888 85.5895 42.7111 85.6184C42.3889 85.6984 42.8974 86.3623 43.2388 86.363C52.7061 87.9383 62.3224 86.4283 71.8405 86.1814C74.5229 86.0879 77.2081 86.0664 79.8905 86.178Z" fill="white"/>
<path fill-rule="evenodd" clip-rule="evenodd" d="M65.5416 59.7907C65.546 59.7473 65.6045 59.7473 65.609 59.7907L65.6758 60.438C65.7572 61.2285 65.8354 62.0175 65.8922 62.8117C65.963 63.802 66.0103 64.7921 66.0331 65.7847C66.1126 69.2416 66.1284 72.7003 66.1352 76.1581C66.6013 76.1258 67.0675 76.0948 67.5339 76.0646C67.8504 76.0437 68.1669 76.0242 68.4834 76.0047L69.2905 75.9556L69.6228 75.9354C69.8473 75.9213 70.1024 75.8648 70.2594 76.0639C70.3223 76.1439 70.3538 76.2475 70.2952 76.3424C70.1601 76.5616 69.9525 76.5536 69.7177 76.563C69.4962 76.5724 69.2747 76.5812 69.0532 76.5892C68.5785 76.6081 68.1038 76.6255 67.629 76.639C67.1306 76.6531 66.6326 76.6639 66.1345 76.6726C66.1295 78.1323 66.0692 79.5905 66.0041 81.0488L65.9746 81.7046C65.895 83.479 65.8093 85.2548 65.6875 87.0272C65.6775 87.1725 65.4729 87.1718 65.463 87.0272C65.3259 85.0315 65.2355 83.0317 65.1458 81.0333C65.0807 79.5845 65.0429 78.1349 65.0249 76.6854C64.959 76.6861 64.8932 76.6868 64.8274 76.6874C62.9578 76.6955 61.0887 76.7036 59.2191 76.6861C59.2221 76.6894 59.2252 76.6935 59.2273 76.6982C59.3626 77.0184 59.3755 77.4273 59.3722 77.771C59.3684 78.1659 59.3154 78.5553 59.2249 78.9387C58.9005 80.3123 58.0638 81.5432 57.1108 82.5602L57.0797 82.5932C56.8549 82.8313 56.5971 83.0708 56.4591 83.3741C56.3181 83.6842 56.2692 84.0467 56.1996 84.3797L56.1915 84.418L55.9195 85.6779C55.8331 86.0788 55.8086 86.6626 55.4926 86.9512C55.1979 87.2209 54.8075 87.0797 54.6688 86.7326C54.5605 86.4622 54.6684 86.1649 54.7325 85.8938L55.2351 83.775C55.3177 83.4293 55.4079 83.0815 55.5862 82.7708C55.7687 82.4533 56.0364 82.2226 56.3095 81.9865C56.8266 81.5398 57.3014 81.0286 57.7029 80.475C58.1042 79.9215 58.4472 79.3114 58.6877 78.6704C58.8082 78.3488 58.9068 78.0159 58.9749 77.6796C59.0397 77.3601 59.0391 77.0298 59.1083 76.7137C59.113 76.6921 59.1314 76.6773 59.1524 76.6706C59.1475 76.6565 59.155 76.6377 59.1747 76.6363L60.7037 76.5374C62.0628 76.4493 63.4219 76.3592 64.7799 76.2563L65.0199 76.2388C65.0012 74.305 65.017 72.3706 65.0518 70.436C65.0837 68.6619 65.0844 66.8872 65.137 65.1134C65.1632 64.233 65.2195 63.3546 65.2823 62.476C65.3465 61.5775 65.4493 60.6866 65.5416 59.7907ZM51.1848 70.0776C51.1685 69.9791 51.2921 69.918 51.349 70.0081C52.0001 71.0375 52.314 72.1557 52.4463 73.3604C52.5632 74.4236 52.5288 75.5022 52.4706 76.5684C52.4085 77.7051 52.3361 78.8419 52.2628 79.978L52.1503 81.7208L51.8679 86.0895C51.8477 86.4017 51.7769 86.6862 51.5088 86.8315C51.4748 86.8597 51.4394 86.8853 51.3981 86.9075C51.2532 86.9848 51.061 86.9458 50.9772 86.7965L51.0108 86.8187C51.0401 86.8375 51.0073 86.8113 50.9122 86.7413L50.8316 86.6371C50.773 86.5483 50.7356 86.4615 50.7205 86.3566C50.6972 86.1938 50.7275 86.0142 50.7381 85.8508L50.9232 82.986C51.0672 80.7589 51.2353 78.5325 51.3619 76.3047C51.421 75.2661 51.4624 74.2265 51.4343 73.1862C51.4065 72.1517 51.3539 71.0996 51.1848 70.0776ZM56.8172 50.9011L56.8533 50.895C58.1465 50.6795 59.5528 50.7199 60.7346 51.3452C60.7444 51.3503 60.7399 51.3666 60.729 51.3661L60.3486 51.3509C59.1443 51.3036 57.9437 51.2756 56.7596 51.5595L56.6383 51.5887C56.2119 51.693 55.7666 51.8208 55.4241 52.1033C55.0967 52.3734 54.9337 52.79 54.7769 53.1735L54.756 53.2241C54.5969 53.6029 54.3957 53.9621 54.047 54.199C53.5956 54.5057 53.0526 54.4681 52.5348 54.5098C51.6233 54.5833 50.878 55.2459 50.5072 56.0568C50.2827 56.5479 50.1869 57.0984 50.168 57.6354C50.1583 57.9088 50.1569 58.1928 50.1932 58.4644C50.2047 58.5512 50.3118 58.8675 50.3663 58.8599C50.4876 58.843 50.5984 58.9065 50.6363 59.0037C50.9357 58.7135 51.2439 58.4316 51.5619 58.1598C52.3547 57.4826 53.2086 56.8688 54.1079 56.3414C54.7942 55.9387 55.5181 55.5399 56.2678 55.2384C56.2084 55.2371 56.1499 55.2489 56.0932 55.2785C56.0683 55.2915 56.0437 55.2602 56.0633 55.2396C56.2994 54.9904 56.5823 54.9549 56.8674 55.0214C56.9282 55.002 56.9891 54.9832 57.0503 54.9654C57.0807 54.9565 57.0958 54.9985 57.071 55.0147L57.001 55.0597C57.312 55.1641 57.6174 55.3696 57.8592 55.5317C58.5537 55.9973 59.165 56.5665 59.7847 57.1251L59.8974 57.2263C60.4429 57.7149 61.0022 58.1896 61.622 58.5816C61.9464 58.7867 62.2872 58.9765 62.6445 59.1177C62.9511 59.2388 63.4502 59.315 63.5938 59.64C63.7214 59.7956 63.6681 59.9941 63.5187 60.0987C63.2666 60.377 62.7623 60.1972 62.4619 60.0813C62.0998 59.9415 61.749 59.7736 61.4145 59.5766C60.7649 59.1941 60.166 58.7185 59.6081 58.2126C59.0254 57.6842 58.4758 57.1228 57.9091 56.5779C57.6635 56.3417 57.4237 56.1 57.1777 55.8643L57.0542 55.7469C56.9287 55.6288 56.7498 55.4448 56.5587 55.3334C56.1985 55.5489 55.8327 55.7556 55.4758 55.9767C54.9775 56.2853 54.4939 56.6161 54.0178 56.9579C53.1012 57.6158 52.2326 58.3527 51.4261 59.1425C49.9472 60.591 48.6872 62.245 47.5865 63.9964L47.5029 64.1299C46.8775 65.1323 46.2859 66.1671 45.8665 67.2748C45.4051 68.4937 45.1806 69.7755 45.0587 71.0693C44.9377 72.3539 44.8968 73.645 44.7616 74.9285C44.6229 76.2448 44.3497 77.5316 44.0388 78.8163L43.9648 79.121C43.6835 80.2719 43.3932 81.4228 43.2487 82.6006C43.1715 83.2295 43.1251 83.8672 43.1356 84.5015C43.1461 85.1391 43.2461 85.7633 43.3266 86.3942C43.3575 86.6364 43.1203 86.8382 42.9081 86.8698C42.664 86.9068 42.4542 86.7507 42.3783 86.5227C42.1418 85.8138 42.0988 85.0301 42.1062 84.2855C42.1137 83.5302 42.2099 82.7795 42.3451 82.0369C42.6112 80.5759 43.0218 79.1452 43.3653 77.7024C43.668 76.4298 43.8711 75.1558 43.9807 73.8525C44.0943 72.5005 44.1624 71.1438 44.3698 69.8015C44.5745 68.4764 44.9596 67.2106 45.5405 66.0023C46.0694 64.9022 46.7287 63.8666 47.4199 62.8629C48.2592 61.6441 49.181 60.4843 50.2115 59.4276C50.1189 59.4235 50.0239 59.3935 49.9366 59.339C49.6696 59.1718 49.5452 58.8451 49.507 58.5466C49.4175 57.8485 49.4391 57.1197 49.6181 56.4372C49.9068 55.3362 50.6561 54.3579 51.7421 53.961C52.0217 53.8589 52.3188 53.8215 52.6151 53.8142C52.8962 53.8072 53.2032 53.8439 53.4745 53.7545C53.9062 53.6122 54.0912 53.1022 54.2533 52.7155L54.2608 52.6978C54.4687 52.2051 54.7182 51.7827 55.1684 51.4751C55.6487 51.1468 56.2505 50.9975 56.8172 50.9011ZM69.1048 52.8496C69.4934 52.7144 69.9793 52.8371 70.3593 52.9553C70.7827 53.087 71.1738 53.3294 71.5096 53.6174C71.8636 53.9211 72.1557 54.2961 72.3626 54.7151L72.3821 54.7554C72.5708 55.144 72.7857 55.6775 72.6903 56.1045C72.6876 56.1166 72.685 56.1283 72.6809 56.1395C73.452 56.5203 74.1645 56.9972 74.7845 57.6016C75.5065 58.3053 76.1176 59.1062 76.6354 59.9714C78.6899 63.4076 79.0519 67.5346 79.2944 71.4534L79.3548 72.447C79.4865 74.5928 79.641 76.7332 80.0412 78.8493L80.0708 79.002C80.4986 81.217 81.1118 83.4494 81.05 85.7223C81.0312 86.403 80.0278 86.399 79.9989 85.7223C79.8895 83.177 79.2971 80.7192 78.8961 78.213C78.1903 73.8045 78.5442 69.2595 77.5441 64.8951C77.1519 63.1824 76.5441 61.5209 75.6764 59.9921C75.2472 59.2368 74.7569 58.507 74.1827 57.8554C73.6884 57.2948 73.1746 56.7552 72.5963 56.2839C72.4123 56.4694 72.0429 56.3749 71.9468 56.1045C71.8804 55.9186 71.8998 55.7014 71.8575 55.5067C71.8179 55.3261 71.7635 55.147 71.691 54.9769C71.5466 54.6379 71.335 54.3123 71.0902 54.0379C70.8259 53.7413 70.5221 53.4948 70.1822 53.2914C69.84 53.0866 69.4657 53.0253 69.1048 52.8757C69.0927 52.8706 69.0915 52.8543 69.1048 52.8496ZM70.6146 76.4103C70.6152 76.3928 70.6362 76.3841 70.6491 76.3962C70.7854 76.522 70.8678 76.7022 70.968 76.8569C71.0836 77.0352 71.2054 77.2101 71.3323 77.3802C71.5875 77.7213 71.8716 78.0428 72.1577 78.3576C72.4244 78.6509 72.7078 78.9313 73.002 79.1957C73.321 79.4822 73.679 79.7378 73.9684 80.0546C74.5729 80.7172 74.6709 81.6253 74.7986 82.4788L74.8127 82.571C74.8899 83.0775 74.9597 83.5846 75.0229 84.0932C75.0531 84.3407 75.084 84.5882 75.1088 84.8358L75.1162 84.9144C75.1384 85.1573 75.1444 85.4035 75.0054 85.6153C74.857 85.842 74.5185 85.9221 74.3177 85.7041C73.9718 85.3308 74.0369 84.6669 73.9919 84.186C73.955 83.7885 73.9127 83.3916 73.8657 82.9947L73.8415 82.797C73.7857 82.3456 73.7407 81.8856 73.638 81.4423C73.5473 81.0522 73.3747 80.7575 73.0913 80.475C72.8052 80.1898 72.5083 79.9242 72.245 79.6174C71.9657 79.2919 71.7131 78.9435 71.4861 78.5789C71.2913 78.2675 71.1357 77.9291 70.9929 77.5901L70.9693 77.5343C70.8313 77.204 70.6038 76.7742 70.6146 76.4103ZM75.6018 62.2323C75.6052 62.1862 75.673 62.1856 75.6737 62.2323C75.6824 62.6283 75.6905 63.0242 75.6992 63.4203C75.765 66.6112 75.7241 69.8096 76.0437 72.9896C76.1942 74.489 76.4709 75.9664 76.7919 77.4374C76.9558 78.1901 77.1284 78.9414 77.2916 79.6941C77.4515 80.428 77.6221 81.1652 77.7483 81.9057C77.8726 82.6335 77.9841 83.3667 78.0344 84.1039L78.0405 84.2001C78.062 84.5573 78.1647 85.0826 77.9686 85.3994C77.7557 85.7425 77.3494 85.7485 77.1217 85.4209C76.9081 85.1135 76.9612 84.5667 76.9236 84.2001C76.8853 83.8268 76.8443 83.4528 76.7986 83.0802C76.7087 82.3537 76.5898 81.6279 76.4669 80.9062C76.2103 79.4029 75.8382 77.9184 75.5635 76.417C75.2815 74.8787 75.0813 73.3296 75.0732 71.7635C75.0645 70.184 75.2311 68.6077 75.3157 67.0318C75.401 65.4312 75.4984 63.8318 75.6018 62.2323ZM60.5752 52.3074C60.6606 52.0189 60.9621 51.8386 61.2561 51.9196C61.5255 51.9939 61.748 52.322 61.6427 52.6027C61.5277 52.909 61.3267 53.1702 61.1574 53.4485C61.0009 53.7058 60.7727 53.9083 60.6133 54.161L60.789 54.3509C60.8768 54.4457 60.9649 54.5398 61.0541 54.6324L61.3604 54.9507C61.599 55.1981 61.8391 55.4441 62.0859 55.6829C62.8118 56.3852 63.5491 57.0645 64.362 57.6659C64.547 57.8028 64.7335 57.9389 64.9253 58.0663L64.9968 58.1138C65.1283 58.2002 65.275 58.2852 65.4339 58.2705C65.82 58.235 66.1689 57.8237 66.4342 57.5677L66.4481 57.5543C67.1056 56.9268 67.7144 56.2406 68.2467 55.5029C68.3649 55.339 68.4793 55.1723 68.5907 55.0036C68.3334 54.7021 68.3948 54.1135 68.3807 53.7478C68.3707 53.4906 68.3699 53.2335 68.3685 52.9761L68.3678 52.9242C68.3647 52.7576 68.3572 52.5979 68.465 52.4609C68.4712 52.4529 68.4842 52.4532 68.4922 52.4574C68.6398 52.5349 68.6852 52.6648 68.7482 52.8105L68.7548 52.8256C68.8315 53.0005 68.9049 53.177 68.9791 53.3529C69.0569 53.537 69.1281 53.7239 69.2004 53.9102C69.234 53.9969 69.2661 54.0839 69.2975 54.1714C69.3166 54.2273 69.3364 54.283 69.3567 54.3385L69.3615 54.3427C69.3883 54.3656 69.4111 54.3897 69.4307 54.4145C69.513 54.4559 69.5784 54.5312 69.6091 54.6418C69.676 54.8826 69.5377 55.079 69.4144 55.2701C68.9133 56.0466 68.342 56.7867 67.7071 57.4579C67.3917 57.7914 67.0599 58.1099 66.7145 58.412L66.6541 58.4645C66.3439 58.732 66.007 58.9853 65.5926 59.0479C65.1077 59.1211 64.7131 58.8792 64.3419 58.6005L64.3048 58.5725C63.9529 58.3053 63.608 58.0287 63.274 57.7394C62.5928 57.1494 61.9448 56.5161 61.3697 55.8211C60.8103 55.1452 60.2573 54.3894 59.9124 53.576C59.8914 53.5265 59.9467 53.4747 59.99 53.516C60.1585 53.6769 60.3205 53.8464 60.4807 54.0182C60.4851 53.7654 60.4386 53.5104 60.4644 53.256C60.496 52.9468 60.4869 52.6051 60.5752 52.3074Z" fill="black"/>
<path fill-rule="evenodd" clip-rule="evenodd" d="M76.516 35.0292C75.8619 32.6645 73.3607 31.6326 71.1077 31.4688C65.0084 30.8341 58.8 34.2378 56.096 39.7569C53.9315 43.9478 53.8637 48.3502 58.5165 50.743C58.7705 50.8833 59.0359 51.0332 59.3069 51.1692C59.5424 51.3884 59.7848 51.5989 60.0494 51.7757C62.5831 53.4434 65.6927 54.1648 68.7062 54.0083C73.1559 53.9185 74.7443 50.8963 75.7161 47.0204C76.741 43.1618 77.3146 38.9749 76.516 35.0292Z" fill="white"/>
<path fill-rule="evenodd" clip-rule="evenodd" d="M79.4368 57.3182C79.2292 56.6893 78.9687 56.0795 78.7255 55.4633C78.6738 55.1562 78.6396 54.8465 78.6308 54.5342C78.5972 53.4188 78.8055 52.2939 79.0392 51.2078C79.514 49.0005 80.0177 46.8162 80.2709 44.5682C80.7223 40.5474 80.4536 36.3662 78.6268 32.6958C77.0438 29.5162 74.3613 26.916 70.8958 25.9418C69.8713 25.6536 68.817 25.4947 67.7554 25.4313C67.6239 25.4103 67.4927 25.3899 67.3621 25.3702C65.8855 25.1473 64.3907 25.0363 62.8983 25.1324C60.4233 25.2918 57.9715 26.0038 55.9102 27.412C53.8349 28.8298 52.3604 30.8179 51.6742 33.2429C50.9604 35.7655 51.021 38.4976 49.7884 40.8627C49.4242 41.5614 48.9992 42.2257 48.5938 42.901C47.5183 44.1023 46.3506 45.4378 46.0947 47.0896C45.779 49.1309 46.9523 50.8561 48.0627 52.4491C49.0664 53.8875 50.4284 55.8741 49.3955 57.6451C48.9082 58.4807 48.1275 59.1057 47.5411 59.8676C46.9333 60.6587 46.4587 61.5667 46.2135 62.5371C45.753 64.3596 46.1767 66.2591 47.4084 67.6836C48.05 68.4251 48.8739 68.9154 49.7658 69.2975C50.6787 69.6879 51.5706 70.0587 52.3253 70.7232C52.6703 71.0266 52.9859 71.3591 53.2845 71.7076C53.5628 72.1432 53.8868 72.5502 54.252 72.9229C54.6542 73.333 55.4418 72.7715 55.0728 72.2888C55.0455 72.2532 55.0188 72.2183 54.9915 72.1826C54.7215 71.8304 54.4502 71.478 54.1662 71.1372C53.3195 69.7941 52.9936 68.1497 53.4148 66.5809C53.524 66.1733 53.6778 65.7866 53.869 65.4216C53.9096 65.5278 53.9541 65.6327 54.0011 65.7364C54.184 66.1383 54.4407 66.6145 54.7672 67.0216C54.7799 67.3007 54.8219 67.5773 54.9031 67.8483C55.4063 69.5277 57.0885 70.3563 58.6055 71.0011C58.7541 71.0647 58.9008 71.1258 59.045 71.1862C59.4414 71.352 59.8607 70.7868 59.6136 70.4459C59.5488 70.3563 59.4859 70.2647 59.4262 70.1719C58.7147 69.0692 58.3761 67.7503 58.568 66.4365C58.7699 65.0471 59.5882 63.8973 60.4006 62.7941C61.1985 61.7092 62.0555 60.6021 62.4126 59.2787C62.8077 57.8168 62.4481 56.3593 61.8382 55.0137C61.2799 53.7824 60.536 52.6475 59.9123 51.4501C60.1259 51.6633 60.3462 51.8695 60.5732 52.0684C60.8286 52.2921 61.0909 52.5481 61.3934 52.7059C61.6171 52.8224 61.8413 52.5434 61.6641 52.3547C61.4312 52.1068 61.1332 51.9153 60.8746 51.694C60.6264 51.4817 60.3853 51.2608 60.1502 51.034C59.8607 50.7548 59.5853 50.4624 59.3198 50.1612C59.1073 49.6193 58.9322 49.0629 58.7897 48.4981C58.5959 47.7338 58.4167 46.9205 58.4307 46.1281C58.4447 45.3154 58.8665 44.7463 59.4281 44.2006C59.666 43.9697 59.9061 43.7414 60.1458 43.5126C60.6563 43.1375 61.1377 42.7184 61.6055 42.3005C62.4389 41.5558 63.2451 40.7686 64.015 39.9584C64.2215 39.7411 64.4263 39.5212 64.6286 39.2989C65.3353 38.573 66.0093 37.815 66.6446 37.0308C67.276 36.8006 67.8827 36.496 68.4519 36.1373C68.2042 36.3885 67.9538 36.6365 67.7048 36.8865C67.1502 37.4435 66.5741 38.0031 65.9312 38.4571C65.8652 38.5042 65.9051 38.604 65.9865 38.5881C66.804 38.4247 67.5689 38.1526 68.2829 37.7189C69.009 37.2775 69.6487 36.6779 70.2459 36.0763C70.5838 35.9237 70.9098 35.7272 71.2074 35.5339C71.2235 35.5237 71.2396 35.5129 71.2551 35.5026C70.9618 36.4336 70.5311 37.488 69.6132 37.8199C69.5833 37.8308 69.5852 37.8804 69.6207 37.8785C70.3941 37.8331 71.0156 37.4848 71.5063 36.9771C71.9012 36.6929 72.2773 36.3916 72.6366 36.0637C72.9852 35.746 73.3149 35.4052 73.6279 35.0525C73.19 35.9204 72.6997 36.7691 72.2162 37.6082C72.1913 37.6527 72.2444 37.7131 72.29 37.682C73.3109 36.9901 74.0853 36.0973 74.7186 35.0416C74.812 34.8862 74.9013 34.7282 74.9886 34.569C74.9228 34.8182 74.8509 35.0656 74.7744 35.3119C74.6353 35.7576 74.4983 36.2043 74.3593 36.6498C74.2841 36.89 74.1921 37.1246 74.092 37.3554C74.0201 37.5204 73.9261 37.6852 73.9113 37.8662C73.9107 37.8783 73.9234 37.8861 73.9342 37.8835C74.3412 37.7817 74.72 37.3169 75.0101 37.0291C75.1713 36.8688 75.3231 36.6928 75.4621 36.5072C75.4883 37.576 75.5058 38.6449 75.4823 39.7169C75.4386 41.6857 75.3117 43.6538 75.1485 45.6161C75.0054 47.3509 74.8993 49.1716 73.9322 50.6794C73.184 51.8462 71.9703 52.6537 70.6524 53.0449C70.5362 53.0799 70.4193 53.1111 70.3018 53.1391C68.3935 53.5924 66.4928 53.0786 64.8055 52.1705C64.2986 51.8977 63.8653 52.6379 64.3545 52.9424C66.1853 54.0834 68.5059 54.4719 70.5781 53.9606C70.5127 56.4107 71.7192 58.7351 72.9194 60.8132C73.5903 61.9763 74.2626 63.1317 74.7374 64.3927C75.1397 65.4636 75.4138 66.5746 75.5058 67.7172C75.6152 69.0641 75.5078 70.4186 75.3197 71.754C75.3097 71.8265 75.2996 71.8996 75.2888 71.9721C75.2465 72.259 75.5038 72.4992 75.7825 72.3524C77.0156 71.7038 77.5475 70.3213 77.8706 69.0432C78.1735 67.8457 78.3783 66.6248 78.4925 65.3956C78.6604 65.8592 78.7967 66.3342 78.9022 66.8187C78.9163 66.888 78.9304 66.9574 78.9445 67.0267C79.0244 67.4318 79.6369 67.4031 79.735 67.0267C79.7524 66.9587 79.7699 66.8906 79.7853 66.8219C80.2904 64.7775 80.4267 62.6452 80.1594 60.5549C80.0191 59.4555 79.7847 58.3707 79.4368 57.3182Z" fill="black"/>
<path fill-rule="evenodd" clip-rule="evenodd" d="M69.1641 50.48C68.7825 50.3237 68.4419 50.0627 68.1929 49.7295C68.1063 49.6136 68.0839 49.4913 68.1021 49.3794C68.1225 49.2536 68.1966 49.1395 68.2977 49.063C68.399 48.9863 68.5258 48.9485 68.6485 48.9678C68.755 48.9845 68.861 49.0431 68.9449 49.1646L68.9625 49.1889C69.1105 49.39 69.3034 49.5551 69.5232 49.6615C69.735 49.764 69.9719 49.8119 70.217 49.7841C70.684 49.7311 71.0058 49.4774 71.3479 49.133C71.3902 49.0894 71.4325 49.0446 71.4755 48.999C71.5023 48.9577 71.5399 48.9312 71.5809 48.9172C71.6273 48.9018 71.679 48.9027 71.7273 48.9194C71.773 48.9355 71.814 48.9661 71.8415 49.0068C71.8677 49.0454 71.8831 49.0933 71.8778 49.1482C71.8469 49.5052 71.6608 49.8238 71.3969 50.0739C71.1039 50.3518 70.7154 50.544 70.3496 50.6113C69.9466 50.6856 69.536 50.6324 69.1641 50.48ZM70.5397 44.973C70.9685 45.2348 71.6219 45.8452 71.1605 46.4942C70.6175 47.0664 69.8359 46.4103 69.4507 46.1136C69.0936 45.8837 68.6923 46.4751 69.0236 46.7436C71.8072 48.8137 72.9369 45.0414 70.7566 44.6652C70.5165 44.6237 70.4273 44.892 70.5397 44.973ZM65.5518 42.5651C65.5992 41.9744 66.4947 41.8402 66.5838 42.4248C66.6636 42.9483 66.5696 43.4293 66.3349 43.9007C66.1105 44.351 65.5467 44.1409 65.5041 43.7308C65.4469 43.1811 65.5223 42.9325 65.5518 42.5651ZM72.3687 42.3035C72.4936 42.1393 72.6736 42.0272 72.8899 42.0905C73.5642 42.2886 73.3654 43.2509 73.1283 43.7193C73.0001 43.9737 72.5836 44.0382 72.3956 43.8142C72.0887 43.449 71.9422 42.7196 72.3318 42.3598C72.3425 42.3412 72.3539 42.3225 72.3687 42.3035ZM66.3253 39.9805L66.4319 39.9618C66.7617 39.9045 67.1717 39.8495 67.405 40.1158C67.5287 40.257 67.5713 40.5194 67.405 40.6546C67.1125 40.8924 66.789 40.8003 66.4385 40.8204C66.1496 40.8371 65.872 40.8851 65.5937 40.965C64.9833 41.1402 64.4858 41.4602 63.9644 41.8115C63.8961 41.8576 63.8262 41.7697 63.8589 41.7054C64.1598 41.1132 64.7431 40.6269 65.3273 40.3303C65.6391 40.172 65.9804 40.0408 66.3253 39.9805ZM71.7535 39.7153L71.8348 39.7321C72.7227 39.9184 73.8765 40.2909 74.297 41.1669C74.3131 41.2907 74.2956 41.3173 74.2822 41.3346L74.2775 41.3404C74.2661 41.3552 74.2573 41.3756 74.2036 41.3925C74.1888 41.3889 74.174 41.3851 74.1586 41.3812C73.9658 41.3304 73.8134 41.2606 73.6663 41.188L73.5058 41.1088C73.3204 41.0173 73.133 40.9292 72.9342 40.8642C72.5104 40.7253 72.0752 40.6275 71.6326 40.5753C71.5366 40.564 71.4439 40.5315 71.3714 40.4758C71.3022 40.4229 71.2491 40.3497 71.2249 40.2523C71.1941 40.1263 71.2028 40.0309 71.2699 39.9173C71.321 39.8319 71.3935 39.7727 71.4761 39.7388C71.5608 39.7041 71.6575 39.696 71.7535 39.7153Z" fill="black"/>
<path fill-rule="evenodd" clip-rule="evenodd" d="M52.1876 87.1308C53.3653 87.0737 52.8916 85.008 52.8071 84.2493C51.8747 81.4787 52.0938 78.4552 51.7271 75.5507C51.4986 72.8396 51.2051 70.1368 50.9582 67.4276C50.4732 61.9282 46.9907 50.7328 43.0165 48.9323C42.5159 46.7296 40.4481 44.6733 37.832 44.6733C36.0477 42.5554 33.9 41.0648 31.1454 41.3658C30.007 41.4177 28.9031 42.6284 27.8123 42.8622C27.2016 42.9467 21.7816 42.7293 20.6959 43.3759C19.9396 43.7653 19.2569 44.4849 19.4793 45.4009C19.8341 46.5108 18.7315 45.3099 16.4315 46.4944C11.7414 49.3191 14.544 53.0978 14.6682 53.215C11.7414 57.2984 9.18319 60.6113 7.99956 65.6024C7.23246 69.3081 7.31881 73.1334 6.67608 76.8577C6.44914 78.1491 6.10099 79.3969 5.72426 80.6507C5.31597 82.2919 5.11744 86.3829 4.89239 86.4199C4.48244 86.5214 5.12931 87.3656 5.56369 87.3663C17.6068 89.3694 29.8397 87.4497 41.9475 87.1356C45.3597 87.0165 48.7756 86.9896 52.1876 87.1308Z" fill="white"/>
<path fill-rule="evenodd" clip-rule="evenodd" d="M33.9349 53.5753C33.9405 53.52 34.0148 53.5201 34.0206 53.5753L34.1056 54.3984C34.209 55.4036 34.3086 56.4069 34.3808 57.4168C34.4708 58.6762 34.5311 59.9353 34.5601 61.1975C34.6612 65.5935 34.6813 69.9919 34.6898 74.3889C35.2829 74.3477 35.8759 74.3081 36.4693 74.2697C36.8719 74.2436 37.2744 74.2186 37.6771 74.194L38.7037 74.1316L39.1264 74.1056C39.4121 74.0878 39.7365 74.0157 39.9363 74.2694C40.0162 74.371 40.0563 74.503 39.9818 74.6238C39.8099 74.9016 39.5458 74.8921 39.2471 74.9043C38.9654 74.9157 38.6836 74.9264 38.4018 74.9372C37.798 74.9608 37.1942 74.983 36.5901 75.0004C35.9563 75.0179 35.3226 75.0327 34.689 75.0435C34.6826 76.8993 34.606 78.7538 34.5232 80.6075L34.4857 81.4423C34.3844 83.699 34.2753 85.957 34.1205 88.211C34.1077 88.3953 33.8475 88.3947 33.8349 88.211C33.6604 85.6732 33.5454 83.1299 33.4314 80.5887C33.3485 78.7457 33.3005 76.9033 33.2775 75.0596C33.1937 75.0603 33.11 75.0617 33.0262 75.0617C30.6479 75.0724 28.2703 75.0825 25.892 75.0603C25.8959 75.065 25.8998 75.0697 25.9025 75.0758C26.0746 75.4834 26.091 76.0033 26.0868 76.4406C26.082 76.9417 26.0146 77.4374 25.8994 77.9251C25.4868 79.6719 24.4225 81.2365 23.2102 82.5299L23.1706 82.5723C22.8847 82.875 22.5566 83.1797 22.3811 83.5658C22.2018 83.9593 22.1395 84.4207 22.051 84.8438L22.0407 84.8922L21.6947 86.4951C21.5847 87.0043 21.5536 87.7469 21.1517 88.1142C20.7768 88.4565 20.2802 88.2776 20.1037 87.8364C19.9659 87.492 20.1032 87.114 20.1848 86.7696L20.8241 84.075C20.9292 83.6351 21.0439 83.1932 21.2707 82.7983C21.5029 82.3941 21.8434 82.1008 22.1908 81.8008C22.8486 81.2331 23.4525 80.5826 23.9633 79.8784C24.4739 79.1748 24.9101 78.3993 25.2161 77.5834C25.3693 77.1751 25.4949 76.7506 25.5814 76.3235C25.6638 75.9172 25.663 75.4975 25.7511 75.096C25.7571 75.0677 25.7805 75.0489 25.8072 75.0408C25.8009 75.0226 25.8106 74.9984 25.8356 74.9971L27.7806 74.8713C29.5096 74.7596 31.2384 74.6446 32.9658 74.5139L33.2711 74.4918C33.2474 72.0324 33.2675 69.5726 33.3118 67.1124C33.3524 64.8563 33.3532 62.5996 33.4202 60.3438C33.4534 59.2243 33.5252 58.1073 33.605 56.9901C33.6866 55.8474 33.8174 54.7145 33.9349 53.5753ZM15.6718 66.6566C15.651 66.5313 15.8082 66.4537 15.8806 66.5683C16.7089 67.8774 17.1082 69.2993 17.2765 70.8312C17.4252 72.1832 17.3815 73.5548 17.3074 74.9103C17.2284 76.3565 17.1362 77.802 17.0431 79.2468L16.9 81.4625L16.5407 87.0178C16.515 87.4153 16.4251 87.7765 16.0838 87.9615C16.0406 87.9978 15.9956 88.0301 15.9431 88.0583C15.7588 88.1572 15.5143 88.1074 15.4077 87.9178L15.4505 87.9453C15.4877 87.9689 15.4459 87.9366 15.325 87.8471L15.2225 87.7139C15.1479 87.6016 15.1004 87.4913 15.0812 87.3581C15.0515 87.1503 15.09 86.9229 15.1035 86.7144L15.339 83.0714C15.5221 80.2396 15.7359 77.4085 15.8971 74.5753C15.9722 73.2544 16.0248 71.9326 15.9892 70.6097C15.9537 69.2942 15.8869 67.9563 15.6718 66.6566ZM22.8367 42.2708L22.8826 42.2631C24.5277 41.989 26.3165 42.0403 27.8199 42.8355C27.8324 42.8421 27.8267 42.8628 27.8128 42.8621L27.3289 42.8428C25.7969 42.7826 24.2697 42.747 22.7634 43.1079L22.6092 43.1452C22.0667 43.2779 21.5002 43.4403 21.0645 43.7996C20.648 44.143 20.4406 44.6727 20.2413 45.1605L20.2146 45.2248C20.0123 45.7065 19.7562 46.1633 19.3128 46.4645C18.7384 46.8546 18.0477 46.8068 17.3891 46.8597C16.2296 46.9532 15.2815 47.7959 14.8098 48.8271C14.5242 49.4515 14.4024 50.1516 14.3783 50.8344C14.3659 51.182 14.3641 51.5432 14.4103 51.8886C14.425 51.999 14.5612 52.4013 14.6306 52.3916C14.7848 52.3702 14.9259 52.4508 14.974 52.5745C15.355 52.2054 15.7469 51.8469 16.1515 51.5013C17.1599 50.6402 18.2462 49.8596 19.3902 49.1889C20.2632 48.6769 21.1842 48.1697 22.1378 47.7862C22.0623 47.7847 21.9877 47.7997 21.9156 47.8373C21.8841 47.8538 21.8527 47.8141 21.8776 47.7878C22.178 47.4709 22.5378 47.4258 22.9005 47.5103C22.9779 47.4856 23.0553 47.4617 23.1331 47.4391C23.1718 47.4278 23.1911 47.4813 23.1595 47.5019L23.0704 47.559C23.4661 47.6919 23.8545 47.9531 24.1621 48.1593C25.0456 48.7514 25.8233 49.4752 26.6116 50.1855L26.7549 50.3143C27.4488 50.9355 28.1604 51.5393 28.9487 52.0377C29.3614 52.2986 29.7949 52.5399 30.2495 52.7193C30.6395 52.8734 31.2744 52.9704 31.457 53.3837C31.6194 53.5815 31.5515 53.8338 31.3615 53.9669C31.0408 54.3208 30.3993 54.0922 30.0172 53.9448C29.5566 53.7671 29.1103 53.5535 28.6847 53.303C27.8584 52.8166 27.0966 52.2118 26.3869 51.5685C25.6457 50.8965 24.9465 50.1827 24.2256 49.4897C23.9133 49.1893 23.6081 48.882 23.2953 48.5822L23.1381 48.433C22.9785 48.2828 22.751 48.0488 22.5078 47.9071C22.0496 48.1812 21.5843 48.4439 21.1302 48.7251C20.4964 49.1176 19.8812 49.5383 19.2756 49.9729C18.1096 50.8095 17.0046 51.7466 15.9788 52.751C14.0975 54.5929 12.4946 56.6962 11.0944 58.9235L10.9881 59.0932C10.1924 60.368 9.43996 61.6838 8.90644 63.0924C8.31941 64.6424 8.03391 66.2724 7.87882 67.9178C7.72489 69.5513 7.67296 71.1931 7.50093 72.8251C7.32451 74.499 6.97691 76.1358 6.58154 77.7697L6.48724 78.1571C6.12949 79.6201 5.76024 81.0838 5.57634 82.5811C5.47816 83.3815 5.41911 84.192 5.43246 84.9985C5.44586 85.8097 5.57299 86.6034 5.67554 87.4059C5.71485 87.7133 5.41308 87.9702 5.14305 88.0106C4.83251 88.0577 4.56572 87.8586 4.46919 87.5693C4.16827 86.668 4.11361 85.6711 4.12305 84.7241C4.13256 83.7635 4.25486 82.8091 4.42696 81.8647C4.76541 80.0069 5.28773 78.1874 5.72467 76.3524C6.10974 74.7348 6.36819 73.1142 6.5075 71.457C6.6521 69.7377 6.7387 68.0125 7.0025 66.3056C7.2629 64.6204 7.75285 63.0108 8.49175 61.4743C9.16452 60.0752 10.0032 58.7584 10.8824 57.482C11.9501 55.9321 13.1228 54.4572 14.4336 53.1134C14.3159 53.1083 14.1949 53.0702 14.0839 53.0008C13.7443 52.7883 13.586 52.3727 13.5374 51.9932C13.4236 51.1055 13.451 50.1787 13.6787 49.3108C14.046 47.9107 14.9993 46.6666 16.3807 46.1619C16.7363 46.032 17.1143 45.9846 17.4912 45.9752C17.8488 45.9663 18.2393 46.013 18.5844 45.8994C19.1336 45.7183 19.369 45.0697 19.5752 44.5781L19.5847 44.5555C19.8491 43.9289 20.1665 43.3919 20.7392 43.0007C21.3502 42.5832 22.1158 42.3934 22.8367 42.2708ZM38.4675 44.7486C38.9618 44.5767 39.5799 44.7327 40.0634 44.8829C40.6019 45.0503 41.0996 45.3587 41.5263 45.7249C41.9765 46.1112 42.3485 46.5881 42.6114 47.1208L42.6365 47.1721C42.8765 47.6663 43.1499 48.3447 43.0289 48.8877C43.0254 48.903 43.0215 48.9179 43.017 48.9323C43.9978 49.4164 44.9036 50.0229 45.6924 50.7915C46.6109 51.6864 47.3886 52.7048 48.0467 53.805C50.6607 58.1748 51.1208 63.4227 51.4294 68.4061L51.5065 69.6697C51.674 72.3981 51.8703 75.1202 52.3798 77.8107L52.417 78.0051C52.9617 80.8221 53.7415 83.6613 53.6625 86.551C53.6388 87.4173 52.3626 87.4113 52.3256 86.551C52.1863 83.3142 51.433 80.1885 50.9228 77.0022C50.0253 71.396 50.475 65.6163 49.2032 60.0663C48.7041 57.8882 47.9309 55.7755 46.8269 53.8313C46.2816 52.8709 45.6576 51.9429 44.9267 51.1142C44.2979 50.4013 43.6442 49.7151 42.9094 49.1158C42.6746 49.3517 42.2054 49.2315 42.0827 48.8877C41.9986 48.6513 42.0231 48.3751 41.969 48.1275C41.9189 47.8978 41.8497 47.6701 41.7576 47.4537C41.5739 47.0226 41.3043 46.6086 40.9931 46.2597C40.6569 45.8825 40.2705 45.5691 39.8381 45.3104C39.4027 45.0499 38.9266 44.9721 38.4675 44.7818C38.4521 44.7753 38.4506 44.7545 38.4675 44.7486ZM40.3881 74.7099C40.3888 74.687 40.4156 74.6762 40.432 74.6917C40.6054 74.8518 40.7101 75.0812 40.8377 75.2776C40.9848 75.5049 41.1392 75.7269 41.3012 75.9435C41.6258 76.3767 41.9871 76.7856 42.3513 77.1858C42.69 77.5585 43.051 77.915 43.4254 78.2513C43.8312 78.6159 44.2858 78.9407 44.6545 79.3443C45.4236 80.1858 45.548 81.3414 45.7102 82.4263L45.728 82.5441C45.827 83.1878 45.9156 83.8328 45.9956 84.4799C46.0345 84.794 46.0732 85.1088 46.1049 85.4243L46.1146 85.5238C46.1428 85.8326 46.1505 86.146 45.9737 86.4151C45.7845 86.7036 45.3543 86.8052 45.0986 86.5281C44.6591 86.0532 44.7415 85.209 44.6843 84.5976C44.6371 84.0918 44.5836 83.5873 44.5236 83.0828L44.493 82.8306C44.4224 82.2575 44.365 81.6723 44.2341 81.1087C44.1188 80.6122 43.8989 80.2376 43.5383 79.8784C43.175 79.5158 42.7975 79.1782 42.4621 78.7881C42.1064 78.3744 41.7856 77.9304 41.4965 77.4677C41.2492 77.0715 41.051 76.641 40.8694 76.2105L40.8393 76.1385C40.6638 75.7188 40.3744 75.1726 40.3881 74.7099ZM46.7326 56.6802C46.7365 56.6216 46.8228 56.6207 46.824 56.6802C46.835 57.1837 46.8455 57.6872 46.8559 58.1908C46.9398 62.2485 46.8881 66.3159 47.294 70.3597C47.4855 72.2664 47.8381 74.145 48.2461 76.0154C48.4549 76.9733 48.6739 77.9277 48.882 78.8856C49.0848 79.8185 49.3023 80.7562 49.4632 81.6979C49.6213 82.6234 49.7629 83.5564 49.8264 84.4934L49.8343 84.6158C49.8616 85.0698 49.9922 85.7377 49.7429 86.1407C49.4727 86.5765 48.9553 86.5846 48.6658 86.1682C48.394 85.7774 48.4615 85.0819 48.4135 84.6158C48.3647 84.1409 48.3131 83.6653 48.2545 83.1918C48.1401 82.2669 47.9894 81.3447 47.8326 80.4266C47.5061 78.515 47.0327 76.6269 46.6832 74.7179C46.325 72.762 46.0704 70.792 46.0597 68.8005C46.049 66.792 46.261 64.7875 46.368 62.7834C46.4767 60.7479 46.6003 58.7141 46.7326 56.6802ZM27.6171 44.0591C27.7258 43.6923 28.1092 43.4629 28.4832 43.566C28.826 43.6604 29.1091 44.0776 28.9751 44.4345C28.8288 44.8241 28.5732 45.1562 28.3577 45.5102C28.1587 45.8373 27.8684 46.0949 27.6656 46.4162L27.8891 46.6577C28.0008 46.7782 28.1129 46.8979 28.2263 47.0157L28.616 47.4204C28.9195 47.735 29.2248 48.0479 29.5388 48.3516C30.4622 49.2447 31.4002 50.1084 32.4343 50.8733C32.6697 51.0473 32.9069 51.2204 33.1508 51.3825L33.2418 51.4429C33.4091 51.5527 33.5958 51.6607 33.7979 51.6421C34.289 51.5968 34.7328 51.0738 35.0703 50.7482L35.088 50.7313C35.9243 49.9333 36.6988 49.0608 37.3759 48.1227C37.5262 47.9142 37.6718 47.7022 37.8136 47.4877C37.4862 47.1043 37.5644 46.3557 37.5464 45.8907C37.5336 45.5637 37.5327 45.2367 37.5309 44.9094L37.53 44.8434C37.526 44.6316 37.5165 44.4285 37.6536 44.2542C37.6616 44.2441 37.6781 44.2445 37.6882 44.2498C37.876 44.3484 37.9338 44.5136 38.014 44.6989L38.0223 44.7181C38.1198 44.9405 38.2132 45.165 38.3076 45.3886C38.4065 45.6228 38.4972 45.8603 38.5891 46.0973C38.6319 46.2076 38.6727 46.3183 38.7127 46.4295C38.737 46.5006 38.7621 46.5713 38.7879 46.6419L38.7941 46.6473C38.8282 46.6763 38.8571 46.707 38.882 46.7387C38.9868 46.7912 39.07 46.887 39.1091 47.0276C39.1941 47.3339 39.0182 47.5836 38.8613 47.8266C38.2238 48.8141 37.4972 49.7551 36.6895 50.6087C36.2883 51.0328 35.8663 51.4379 35.4269 51.822L35.3501 51.8888C34.9554 52.2289 34.5269 52.5511 33.9997 52.6306C33.3829 52.7237 32.8808 52.4161 32.4087 52.0618L32.3615 52.0262C31.9138 51.6863 31.4752 51.3346 31.0502 50.9667C30.1837 50.2165 29.3594 49.411 28.6278 48.5273C27.9162 47.6678 27.2127 46.7066 26.7741 45.6724C26.7474 45.6094 26.8177 45.5435 26.8728 45.5961C27.087 45.8006 27.2932 46.0163 27.4969 46.2347C27.5025 45.9131 27.4434 45.5889 27.4763 45.2654C27.5164 44.8722 27.5049 44.4377 27.6171 44.0591Z" fill="black"/>
<path fill-rule="evenodd" clip-rule="evenodd" d="M33.9648 13.0747C37.0645 13.0747 40.7836 14.5797 41.0998 14.6098L41.1084 14.6102C41.2747 14.6102 41.9248 15.1062 43.0586 16.0982L41.8306 18.4969L41.93 18.5919C42.4055 19.0486 42.8115 19.4648 43.1319 19.7929C45.7483 22.4717 46.2186 32.9897 45.602 36.6576C44.9854 40.3256 43.8433 43.9147 38.5262 43.9147C33.2091 43.9147 27.2938 40.7129 26.3826 39.7158C25.7751 39.051 25.0927 38.7326 24.3355 38.7603C24.3044 38.721 24.2735 38.6818 24.2428 38.6427L24.1314 38.6269C23.0834 38.4749 22.3325 38.2703 21.8787 38.0132C20.9923 37.5109 20.018 34.8706 20.018 34.2889C20.018 33.7131 18.5632 29.5242 18.5341 29.0809L18.5337 29.0686C18.5337 28.698 16.6332 26.9946 16.6332 26.4536C16.6332 25.9126 16.2501 25.9454 16.6332 24.039L16.7444 23.479C17.1521 21.4493 17.95 18.0883 20.9923 16.6279C24.3355 15.0231 30.8337 13.0747 33.9648 13.0747Z" fill="white"/>
<path fill-rule="evenodd" clip-rule="evenodd" d="M20.4761 16.5522C22.1434 14.7798 31.6092 12.0383 36.3982 12.6194L36.5419 12.638C36.9241 12.6866 37.3007 12.7601 37.6724 12.8599C38.874 13.141 40.115 13.5665 41.1078 14.2773C41.9366 14.8588 44.551 15.8083 43.7805 17.3295C44.0662 17.8716 44.1729 18.5415 43.9798 19.0755C43.9555 19.2599 43.8986 19.4297 43.826 19.6059C44.4365 20.508 44.9198 21.5283 45.3111 22.4987C45.9947 24.9409 46.4202 27.4824 46.4825 29.9741C46.6898 34.708 46.1715 40.3626 42.0547 43.4238C39.5677 45.3635 35.6721 45.4287 32.8773 43.0236C32.7187 42.8356 31.9728 42.3284 32.2217 42.2394C32.2958 42.3178 32.372 42.394 32.4495 42.4689C32.446 42.4606 32.4452 42.4523 32.4467 42.4433L32.3738 42.3771C32.2364 42.2499 32.0585 42.0653 32.2612 42.1014C32.2701 42.1118 32.2799 42.1208 32.2895 42.1312C32.3324 42.157 32.3649 42.1794 32.39 42.1991L32.4031 42.2095L32.399 42.2053C32.2823 42.0807 32.2123 41.9535 32.3868 42.0347L32.4099 42.0459C32.4876 42.1278 32.5664 42.2061 32.6467 42.2824C32.6454 42.2734 32.6467 42.2643 32.6516 42.2547L32.5768 42.1822C32.5037 42.1105 32.5148 42.1102 32.5506 42.0522C32.3952 41.8341 32.6852 41.9637 32.7056 42.0487C32.887 42.0057 33.0464 42.3469 33.1632 42.3885C38.2865 46.3331 45.7214 42.833 45.6009 31.8411L45.5991 31.6261C45.5639 28.1113 45.2685 24.4988 43.817 21.3172C43.6758 21.0107 43.5179 20.7125 43.3441 20.4241C43.2244 20.2078 43.0963 19.997 42.9586 19.7917C42.5728 19.7605 42.192 19.6898 41.8169 19.5802C41.688 19.5477 41.5606 19.5116 41.4333 19.4693C39.5723 19.5709 37.7527 19.6815 35.8866 19.7864L35.3036 19.8228C33.7227 19.9245 32.0877 20.0876 30.812 21.0669C29.5603 21.9584 29.5546 23.7165 28.4831 24.6953C26.9551 25.734 26.9439 26.6705 26.6497 28.2011C26.6715 29.3549 27.4703 31.0313 26.0044 31.5169C26.2517 31.87 25.907 31.7003 25.8799 31.5765C25.8771 31.5772 25.8743 31.5779 25.8723 31.5779C26.0926 31.9882 25.7686 31.7298 25.74 31.598C25.7227 31.5932 25.7054 31.5807 25.6881 31.5634C25.9101 31.9228 25.5512 31.6711 25.5725 31.6056C25.1434 30.9452 24.2604 30.8426 23.638 31.0177C23.6304 31.0412 23.6027 31.0433 23.5855 31.0308C20.9388 31.6052 21.6217 37.0924 24.3339 36.5619C24.45 36.5383 24.4472 36.5941 24.4703 36.5994C24.4076 36.4347 24.5842 36.5017 24.5824 36.5363L24.5931 36.5358C24.6016 36.535 24.5981 36.5341 24.6045 36.5363C24.5439 36.1994 24.8849 36.6875 24.8579 36.7076C24.8683 36.7013 24.8801 36.6979 24.8905 36.6965L24.8787 36.6645C24.8222 36.5136 24.827 36.5763 24.8274 36.4898C24.7849 36.383 24.7818 36.4298 24.7918 36.3601C24.9412 36.2442 24.9853 36.5958 25.0352 36.6216C24.9497 36.5023 25.0176 36.4049 25.0982 36.4696C25.7091 37.7565 26.4981 38.9655 27.5179 39.9179C27.6294 40.006 27.7423 40.0927 27.8592 40.1745C28.2929 40.5529 28.9583 40.7962 29.3643 41.1314C29.3643 41.1369 29.3616 41.1439 29.3575 41.1508L29.3668 41.1592L29.3762 41.1682L29.5174 41.2361C29.559 41.2715 29.5964 41.311 29.6295 41.3547C29.6649 41.3956 29.696 41.4406 29.7224 41.4885C29.7355 41.5467 29.7064 41.571 29.651 41.546C29.6267 41.5377 29.6026 41.528 29.5784 41.519C29.5797 41.5211 29.5804 41.5224 29.5818 41.5238C29.5898 41.5359 29.6435 41.6607 29.5816 41.6404L29.5742 41.6375C29.5402 41.6251 29.5064 41.6112 29.4731 41.598C29.5126 41.6473 29.5485 41.7007 29.5804 41.7457C29.6144 41.7811 29.635 41.8227 29.6434 41.8698C29.642 41.8962 29.6275 41.9072 29.6012 41.9038C29.561 41.8906 29.5216 41.8768 29.4821 41.8622L29.4933 41.8837C29.5212 41.9387 29.5609 42.031 29.4904 42.0002C29.4301 41.9814 29.372 41.96 29.3139 41.9364C29.309 41.9461 29.2993 41.9496 29.28 41.9405C29.0951 41.8747 28.9165 41.7942 28.7455 41.6993C28.5952 41.5897 28.4435 41.4822 28.2927 41.3734C28.1507 41.2881 28.0136 41.1931 27.8828 41.0863C27.0073 40.5199 26.2408 39.8005 25.6327 38.9992C24.6157 39.8813 22.5824 39.0386 21.3246 38.3481C20.2121 37.731 19.7748 36.59 19.6617 35.3598C19.4267 33.7036 18.0752 33.1366 18.1692 29.5026C18.1672 29.5033 18.165 29.5033 18.1623 29.5033C18.1131 29.4888 18.0654 29.4693 18.0204 29.4444C17.974 29.4222 17.9304 29.3958 17.8895 29.3639L17.8389 29.2939C17.8127 29.2793 17.7892 29.2641 17.7712 29.2488L17.7618 29.2609C17.7323 29.2966 17.7522 29.2428 17.7538 29.2321L17.6661 29.1126C17.4579 28.828 17.2295 28.5085 17.0435 28.2531L17.0376 28.2635C17.0334 28.2713 17.0312 28.277 17.0331 28.2795C16.5904 27.6424 16.174 26.8729 16.0583 26.1279C15.9217 25.554 15.9751 24.9627 16.0943 24.4311C16.6051 22.5697 18.2786 18.3576 20.4761 16.5522ZM32.4915 42.2944L32.4638 42.2697L32.4882 42.3003C32.5009 42.3161 32.514 42.3303 32.5353 42.3448C32.534 42.34 32.534 42.3351 32.5346 42.3295C32.5205 42.3188 32.506 42.3069 32.4915 42.2944ZM36.3771 13.5547C33.1294 13.2751 29.9352 13.9916 26.8361 14.859L26.6223 14.9205C24.8602 15.4241 22.9969 15.8772 21.5077 16.955C19.4272 18.551 18.3528 21.0899 17.4152 23.4341C16.5966 25.1757 17.0151 27.1396 18.2488 28.3557C18.3772 27.1472 18.596 25.9741 18.938 24.8104C19.0094 24.6286 18.9554 24.569 19.1092 24.5453C19.3416 27.6813 18.1972 29.9983 20.4619 33.7151C21.4445 35.4688 20.307 36.752 23.0819 37.6747L23.157 37.7035C23.7351 37.922 24.3664 38.0945 24.9327 37.9723L24.882 37.8897C24.8302 37.8046 24.8145 37.7633 24.8898 37.7269C24.8877 37.7227 24.885 37.7185 24.8821 37.7137C24.8213 37.5986 24.7624 37.4821 24.7063 37.3642C24.6835 37.3719 24.6607 37.3774 24.637 37.3836C24.6523 37.4121 24.6544 37.4405 24.6115 37.4502C24.4589 37.5026 24.3023 37.5236 24.1419 37.5138L24.1075 37.5112C23.9263 37.5001 23.8121 37.467 23.71 37.4363C23.6761 37.4308 23.6422 37.4252 23.6089 37.4183C23.2804 37.3454 22.9327 37.1598 22.7075 36.9759C20.1419 35.5165 20.407 30.5484 23.5695 30.0788C23.6344 26.9508 25.1199 21.6736 27.5854 18.6929C29.8139 15.9512 35.8978 14.7629 40.1304 15.1819C40.1921 15.2024 40.2538 15.223 40.3155 15.2439C40.9685 15.302 41.5909 15.5934 42.2444 15.7287C41.7752 15.3765 41.2429 15.1419 40.6947 14.9426C39.6023 14.2734 38.35 13.9113 37.1401 13.6559C36.8894 13.5942 36.6354 13.5603 36.3771 13.5547ZM23.4248 32.5916C23.5948 32.4991 23.5753 32.5884 23.6145 32.5625C24.8376 32.4626 26.1564 33.5351 26.8401 34.4291C26.7861 34.4852 26.64 34.3188 26.6144 34.2925C26.6109 34.296 26.6068 34.2987 26.6026 34.3001L26.6217 34.327C26.8988 34.7253 26.3494 34.2567 26.298 34.1601C26.289 34.1649 26.28 34.1677 26.2696 34.1656C26.3131 34.2084 26.4462 34.32 26.469 34.3993L26.5043 34.4287C26.8367 34.7138 26.8091 34.9283 26.4317 34.5234C26.4406 34.5421 26.4441 34.5594 26.4379 34.5734L26.4508 34.582C26.6365 34.7119 26.7891 35.0741 26.4011 34.7023C26.4415 34.9738 26.0167 34.449 26.003 34.4527C25.268 33.8748 24.1856 33.3127 23.2634 33.2372L23.2317 33.2335C23.0625 33.2117 22.9825 33.1615 23.0419 33.0506C22.8335 33.001 22.8824 32.8982 22.981 32.9016C22.834 32.8048 22.9663 32.7122 23.0516 32.7484C22.993 32.5857 23.2282 32.694 23.2496 32.6713C23.3717 32.4829 23.4045 32.6401 23.4248 32.5916ZM20.861 22.5132C21.4485 22.2977 23.1837 22.9429 23.0449 23.7972C22.9622 23.9934 22.6899 24.1058 22.4984 23.9951L22.2486 23.827C21.8137 23.5354 21.4216 23.2796 20.9548 23.0253C20.7007 22.8991 20.5913 22.631 20.861 22.5132ZM24.2033 21.2436L23.9764 21.0957C22.7521 20.2932 21.0213 19.0772 24.0908 20.3353C24.4406 20.4856 24.9055 20.5744 25.0964 20.9081C25.3962 21.5231 24.6071 21.5644 24.2033 21.2436ZM24.3409 17.6429C24.2427 17.2695 25.4651 17.7077 25.821 17.8231L25.8752 17.8437C26.2213 17.9729 26.6182 18.0927 26.8252 18.3919C27.0678 18.8053 26.5768 18.8909 26.2726 18.7042C25.6491 18.2961 24.9654 17.9881 24.3409 17.6429ZM27.4495 15.9035C26.7614 15.151 28.603 15.8719 28.8788 16.072L28.8867 16.0779C29.0925 16.2231 29.0508 16.5357 28.8574 16.6274C28.3072 16.6379 27.9023 16.1786 27.4495 15.9035ZM30.5807 15.079C29.4868 14.2917 30.9278 14.6662 31.4283 14.9747C31.7694 15.276 31.418 15.7846 30.5807 15.079Z" fill="black"/>
<path fill-rule="evenodd" clip-rule="evenodd" d="M37.98 38.6712C37.5774 38.5063 37.2181 38.2313 36.9555 37.8801C36.8642 37.758 36.8406 37.6291 36.8597 37.5111C36.8813 37.3785 36.9594 37.2583 37.066 37.1777C37.1729 37.0969 37.3067 37.057 37.436 37.0773C37.5485 37.095 37.6603 37.1567 37.7488 37.2848L37.7673 37.3104C37.9234 37.5224 38.1269 37.6963 38.3588 37.8084C38.5822 37.9165 38.8321 37.9669 39.0907 37.9376C39.5832 37.8818 39.9227 37.6145 40.2835 37.2514C40.3282 37.2056 40.373 37.1583 40.418 37.1102C40.4464 37.0667 40.4858 37.0387 40.5296 37.0241C40.5781 37.0077 40.6331 37.0087 40.6835 37.0263C40.732 37.0433 40.7754 37.0755 40.8045 37.1185C40.8322 37.1592 40.8479 37.2095 40.8428 37.2674C40.8097 37.6437 40.6137 37.9795 40.3354 38.2431C40.0262 38.536 39.6163 38.7385 39.2305 38.8096C38.8054 38.8878 38.3722 38.8318 37.98 38.6712ZM39.431 32.8671C39.8833 33.143 40.5724 33.7863 40.0858 34.4703C39.5131 35.0734 38.6886 34.3819 38.2823 34.0692C37.9056 33.8268 37.4822 34.4502 37.8318 34.7332C40.7679 36.9148 41.9594 32.9392 39.6598 32.5426C39.4066 32.499 39.3125 32.7817 39.431 32.8671ZM34.1695 30.3292C34.2195 29.7067 35.1641 29.5653 35.2581 30.1813C35.3422 30.7331 35.2432 31.24 34.9955 31.7368C34.7589 32.2114 34.1641 31.99 34.1192 31.5578C34.0589 30.9785 34.1384 30.7164 34.1695 30.3292ZM41.3602 30.0536C41.492 29.8805 41.6822 29.7623 41.91 29.8291C42.6218 30.0379 42.4119 31.0521 42.162 31.5457C42.0262 31.8138 41.5871 31.8818 41.3887 31.6457C41.0653 31.2609 40.9104 30.4921 41.3215 30.1129C41.3326 30.0933 41.3451 30.0735 41.3602 30.0536ZM34.9855 27.6053L35.098 27.5855C35.4458 27.5252 35.8783 27.4671 36.1243 27.7478C36.2548 27.8967 36.2998 28.1733 36.1243 28.3157C35.8158 28.5663 35.4746 28.4692 35.1049 28.4905C34.8002 28.508 34.5073 28.5586 34.2138 28.6428C33.5698 28.8275 33.0451 29.1648 32.4951 29.535C32.423 29.5836 32.3493 29.491 32.3837 29.4232C32.7012 28.7991 33.3165 28.2865 33.9328 27.974C34.2617 27.8071 34.6216 27.6688 34.9855 27.6053ZM40.7114 27.3257L40.7975 27.3434C41.734 27.5398 42.9508 27.9323 43.3943 28.8556C43.4112 28.9861 43.3933 29.0141 43.3788 29.0324L43.374 29.0385C43.362 29.0541 43.3524 29.0756 43.2961 29.0934C43.2804 29.0897 43.2646 29.0857 43.2487 29.0815C43.0454 29.028 42.8845 28.9543 42.7288 28.8779L42.56 28.7944C42.3641 28.698 42.1665 28.6052 41.9571 28.5365C41.5102 28.3903 41.0505 28.2872 40.5836 28.2322C40.4825 28.2203 40.3851 28.186 40.3081 28.1272C40.2352 28.0715 40.1795 27.9943 40.1541 27.8917C40.1211 27.7589 40.1306 27.6584 40.2016 27.5386C40.255 27.4486 40.3313 27.3863 40.419 27.3505C40.5084 27.314 40.6102 27.3054 40.7114 27.3257Z" fill="black"/>
<path fill-rule="evenodd" clip-rule="evenodd" d="M120.227 83.7359C120.348 82.6199 120.422 81.4953 120.465 80.3733C120.508 79.2527 120.452 78.118 120.428 76.9974C120.377 74.7164 120.296 72.4302 120.479 70.153C120.651 68.0009 121.048 65.8637 121.673 63.7957C121.978 62.7887 122.299 61.741 122.8 60.8105C123.303 59.8749 124.101 59.2519 124.978 58.6805C125.911 58.0722 126.837 57.4524 127.766 56.8384C128.547 56.3231 129.951 55.7232 130.591 55.0342C131.265 54.3093 131.391 52.5123 131.84 51.6535C132.277 50.817 133.513 50.2713 134.466 50.2713C136.042 50.2713 137.236 50.1913 138.533 51.6405C139.179 52.3635 138.665 53.0945 139.343 53.7885C139.966 54.4265 141.559 55.0823 142.362 55.4525C143.325 55.8959 144.31 56.2874 145.311 56.6361C146.331 56.9919 147.378 57.257 148.404 57.5927C149.388 57.9146 150.673 59.241 151.436 59.9429C152.146 60.5955 152.323 60.5224 152.862 61.3152C154.047 63.0549 155.233 64.8146 156.177 66.6982C156.646 67.6365 157.102 68.6235 157.272 69.6655C157.453 70.7769 157.273 71.8509 156.979 72.927C156.678 74.0221 155.725 75.0647 155.414 76.1573C155.271 76.6604 155.762 77.2099 155.537 77.6841C155.424 77.9209 155.281 78.1321 155.12 78.3386C154.995 78.4974 154.509 78.4624 154.446 78.6568C154.382 78.8532 154.734 79.2615 154.739 79.4653C154.747 79.7565 154.758 80.0471 154.768 80.3384L154.825 82.0603C154.862 83.1917 154.9 84.3231 154.937 85.4544C154.949 85.8237 154.967 86.1843 154.878 86.5347C154.91 86.5051 154.941 86.4728 154.968 86.4365C155.05 86.3309 155.224 86.4203 155.155 86.5448C155.038 86.7513 154.872 86.8973 154.676 87.0015C154.449 87.3345 120.03 88.0784 119.861 87.1051C119.766 86.5589 119.939 85.9737 120.008 85.4309C120.08 84.8659 120.166 84.3029 120.227 83.7359Z" fill="white"/>
<path fill-rule="evenodd" clip-rule="evenodd" d="M155.19 69.6677C155.106 69.428 154.721 69.5318 154.805 69.7731C155.241 71.0141 154.932 72.3646 154.461 73.5492C154.366 73.7869 154.752 73.8891 154.846 73.6546C155.341 72.4084 155.648 70.971 155.19 69.6677ZM152.267 76.7562C151.038 76.9284 149.808 77.0346 148.57 77.1201C148.514 77.1241 148.467 77.1154 148.425 77.0979C148.462 77.6609 148.492 78.2252 148.516 78.7889C148.853 78.7795 149.197 78.8017 149.532 78.7929C149.969 78.7808 150.405 78.7593 150.842 78.7256C151.686 78.6624 152.529 78.5615 153.365 78.4216C153.676 78.3698 154.073 78.3382 154.429 78.2346C154.764 78.1371 155.063 77.9757 155.22 77.6716C155.354 77.414 155.378 77.0985 155.378 76.8133C155.378 76.6169 155.345 76.4178 155.324 76.2201C155.299 76.2026 155.275 76.1811 155.257 76.1575C154.887 76.2739 154.502 76.3553 154.125 76.4346C153.511 76.5645 152.888 76.6694 152.267 76.7562ZM152.96 72.1749C152.954 72.5536 152.848 72.8976 152.643 73.2165C152.504 73.4323 152.85 73.6308 152.987 73.4165C153.229 73.0411 153.351 72.6197 153.359 72.1749C153.364 71.9192 152.965 71.9201 152.96 72.1749ZM121.448 76.3062C121.281 76.3156 121.114 76.3216 120.947 76.3304C120.8 76.4555 120.596 76.5194 120.409 76.4797C120.403 76.4959 120.397 76.5133 120.392 76.5342C120.359 76.662 120.342 76.7985 120.323 76.9284C120.305 77.0562 120.29 77.1853 120.28 77.3138C120.275 77.3784 120.244 77.5257 120.284 77.5822C120.319 77.6326 120.399 77.6286 120.454 77.6346C120.602 77.6508 120.751 77.6582 120.899 77.6703C121.18 77.6945 121.461 77.7194 121.741 77.7436C122.015 77.7671 122.317 77.7597 122.586 77.8317C122.632 77.2956 122.674 76.7602 122.712 76.2241C122.296 76.2853 121.861 76.2833 121.448 76.3062ZM156.35 75.418C156.183 75.7398 156.028 76.056 155.707 76.249C155.666 76.2739 155.619 76.2873 155.571 76.2907C155.607 76.4434 155.629 76.6001 155.649 76.7447C155.693 77.0636 155.703 77.3931 155.622 77.7073C155.544 78.0126 155.414 78.2857 155.16 78.4815C155.042 78.573 154.913 78.6422 154.777 78.6974C154.8 78.7613 154.813 78.8245 154.807 78.8945C154.839 79.0566 154.86 79.2214 154.884 79.3794C154.936 79.7306 154.987 80.0817 155.027 80.4341C155.108 81.1357 155.171 81.8379 155.224 82.5415C155.277 83.2437 155.316 83.9473 155.348 84.6509C155.365 85.0101 155.379 85.37 155.392 85.7305C155.406 86.1004 155.466 86.4791 155.302 86.8222C155.169 87.1 154.721 87.0838 154.583 86.8222C154.409 86.4899 154.46 86.0951 154.455 85.7305C154.451 85.3868 154.445 85.0431 154.438 84.6993C154.422 83.9964 154.401 83.2942 154.384 82.5906C154.367 81.9045 154.345 81.2184 154.332 80.5323C154.324 80.1732 154.324 79.814 154.322 79.4548C154.321 79.2557 154.312 79.0431 154.328 78.8353C154.203 78.8649 154.077 78.8898 153.953 78.9147C153.005 79.1077 152.048 79.249 151.084 79.3357C150.6 79.3795 150.115 79.4104 149.629 79.4279C149.272 79.4407 148.902 79.4649 148.54 79.4521C148.568 80.3117 148.581 81.1727 148.579 82.0337C148.579 82.6545 148.57 83.2754 148.554 83.8962C148.546 84.2224 148.539 84.5487 148.529 84.8756C148.525 85.0222 148.525 85.1702 148.515 85.3168C148.512 85.3619 148.505 85.4063 148.497 85.45C148.53 85.5428 148.557 85.6343 148.579 85.7197C148.689 86.1361 148.689 86.5356 148.64 86.9601C148.599 87.3199 148.294 87.6536 147.892 87.5271C147.826 87.5069 147.761 87.4854 147.696 87.4632C147.104 87.5305 146.508 87.5459 145.908 87.5574C145.03 87.5742 144.151 87.5796 143.273 87.5836C141.55 87.593 139.827 87.597 138.103 87.6024C134.64 87.6118 131.177 87.6213 127.713 87.6314C126.752 87.6347 125.791 87.6367 124.83 87.6401C124.332 87.6414 123.836 87.6421 123.339 87.6609C123.107 87.6697 122.875 87.6818 122.643 87.6858C122.375 87.6899 122.137 87.6132 121.88 87.5432C121.735 87.5029 121.677 87.3583 121.708 87.2358C121.476 87.291 121.195 87.174 121.115 86.9143C121.058 86.7253 121.079 86.5208 121.165 86.3459V86.3453C121.332 85.3 121.543 84.2601 121.709 83.2148C121.891 82.0693 122.066 80.9218 122.22 79.7723C122.336 78.9046 122.431 79.52 122.513 78.6476C122.154 78.6752 121.749 78.5669 121.394 78.5205C121.14 78.4882 120.883 78.462 120.628 78.427C120.647 78.6826 120.641 78.9436 120.648 79.1884C120.661 79.6761 120.655 80.1611 120.643 80.648C120.619 81.5877 120.566 81.0409 120.481 81.9772C120.394 82.9195 120.289 83.8592 120.16 84.7975C120.094 85.2812 120.025 85.7634 119.95 86.2457C119.916 86.4704 119.88 86.695 119.844 86.9197C119.8 87.1847 119.787 87.4363 119.587 87.6354C119.435 87.7867 119.124 87.774 119.023 87.5627C118.896 87.2971 118.953 87.069 119.001 86.7899C119.039 86.5652 119.076 86.3406 119.113 86.1166C119.19 85.635 119.264 85.1534 119.334 84.6711C119.467 83.7422 119.593 82.8119 119.706 81.8803C119.82 80.9413 119.937 81.4895 120.049 80.5512C120.105 80.077 120.162 79.6041 120.227 79.1326C120.261 78.8898 120.282 78.6308 120.326 78.3806C120.311 78.3786 120.297 78.3759 120.284 78.3739C119.98 78.3187 119.722 78.1485 119.646 77.8384C119.573 77.5418 119.659 77.2001 119.721 76.9089C119.773 76.6607 119.82 76.3438 119.981 76.1313C119.415 75.4145 119.047 74.5122 118.812 73.6449C118.556 72.7 118.448 71.7136 118.425 70.7371C118.399 69.6058 118.485 68.481 118.68 67.3748C118.685 67.1404 118.696 66.9061 118.714 66.672C118.885 64.3749 119.605 61.6561 121.887 60.5829C121.896 60.5784 121.905 60.5745 121.915 60.5705C122.094 60.358 122.317 60.1667 122.498 59.9879C122.817 59.6707 123.151 59.3674 123.505 59.0879C124.206 58.5346 124.974 58.0926 125.774 57.6946C126.582 57.2918 127.402 56.9138 128.192 56.4742C128.879 56.0907 129.499 55.6289 130.087 55.1077C130.747 54.5215 131.217 53.7312 131.402 52.8685C131.411 52.8235 131.478 52.8359 131.479 52.8789C131.528 54.4601 130.454 55.8573 129.218 56.7413C127.74 57.7972 125.956 58.2971 124.458 59.3209C124.085 59.5751 123.737 59.8619 123.406 60.1667C123.913 60.1151 124.43 60.1478 124.907 60.2876C125.094 60.2762 125.282 60.2727 125.47 60.2638C125.9 60.2425 126.33 60.2227 126.76 60.2039C127.637 60.1652 128.515 60.1301 129.392 60.0993C131.114 60.0389 132.835 59.9932 134.557 59.963C138.017 59.902 141.482 59.8902 144.942 59.9898C145.88 60.0166 150.813 59.8307 151.27 59.8832C150.599 59.3055 149.862 58.8338 149.051 58.4458C148.038 57.9617 146.991 57.6386 145.908 57.3433C143.68 56.7353 141.365 56.1492 139.582 54.6048C139.138 54.2207 138.744 53.7793 138.422 53.2902C138.113 52.8235 137.771 52.2258 137.763 51.6565C137.757 51.2523 138.323 51.105 138.524 51.4514C138.649 51.6659 138.711 51.9013 138.814 52.1263C138.915 52.3493 139.036 52.5643 139.17 52.7699C139.434 53.1743 139.761 53.5349 140.117 53.8605C140.876 54.5552 141.795 55.064 142.746 55.449C144.906 56.3226 147.268 56.6913 149.314 57.8428C150.209 58.3467 151.066 59.0419 151.604 59.9288C151.691 59.9423 151.777 59.9581 151.864 59.9759C151.799 59.8951 151.734 59.8144 151.669 59.7341C151.626 59.6816 151.692 59.6123 151.745 59.6587C152.762 60.5586 153.699 61.5303 154.549 62.5896C155.361 63.6034 156.119 64.6658 156.656 65.853C157.62 67.9857 157.832 70.4249 157.334 72.7052C157.198 73.3265 157.007 73.935 156.763 74.5231C156.637 74.8268 156.502 75.1262 156.35 75.418Z" fill="black"/>
<path fill-rule="evenodd" clip-rule="evenodd" d="M122.249 38.6827C122.48 34.9132 123.709 30.6395 127.329 28.7887C135.307 25.6037 145.796 33.6246 146.352 41.8186C146.545 44.6234 144.979 47.6883 142.118 48.4681C141.482 49.3064 140.521 49.8184 139.571 50.2627C128.263 56.0991 120.958 51.3548 122.249 38.6827Z" fill="white"/>
<path fill-rule="evenodd" clip-rule="evenodd" d="M119.673 36.3375C120.072 35.2334 120.495 34.1377 120.939 33.0506C121.371 31.9924 121.762 30.9115 122.299 29.9035C125.507 23.8834 131.341 23.8834 134.356 24.67C135.921 23.9998 138.85 24.1888 140.478 24.7936C143.114 25.7728 146.327 29.6245 147.426 31.355C149.852 35.1758 151.366 40.2613 149.755 44.6764C149.544 45.2535 149.275 45.7879 148.973 46.303C149.164 46.5598 149.383 46.8031 149.626 47.0421C150.347 47.7524 151.069 48.4394 151.692 49.2406C152.312 50.0369 152.826 50.8836 153.208 51.8171C153.93 53.5777 153.964 55.5712 153.011 57.2512C152.181 58.7129 150.712 59.8013 149.057 59.9051C148.972 59.9169 148.887 59.9277 148.802 59.9363C148.582 60.2956 148.315 60.6264 148.009 60.9149C147.074 61.7997 144.845 62.2536 143.574 62.2827C143.509 62.3348 143.443 62.3869 143.377 62.4385C142.599 63.0475 141.783 63.662 140.889 64.0953C140.285 64.3892 139.492 64.6346 138.86 64.4225C138.574 64.6128 138.104 64.5728 137.821 64.4171C137.354 64.1614 136.974 63.7008 136.743 63.2293C136.183 62.0845 136.318 60.8319 136.462 59.609C136.621 58.2582 136.773 56.9068 136.927 55.556C137.048 54.4997 137.175 53.4259 137.498 52.4084C137.665 51.8812 137.884 51.3745 138.167 50.8982C138.159 50.8581 138.161 50.8182 138.172 50.7806C138.265 50.4813 138.456 50.3243 138.682 50.1207C138.712 50.0946 138.741 50.0679 138.77 50.0407C138.883 49.9122 139.004 49.7928 139.134 49.6916C139.184 49.6413 139.233 49.5904 139.283 49.5395C139.693 49.1123 140.08 48.6632 140.424 48.1821C140.758 47.7154 141.06 47.2282 141.347 46.7319C141.638 46.227 141.832 45.6701 142.122 45.1689C142.148 45.1259 142.211 45.1175 142.247 45.1532C142.337 45.2459 142.394 45.3489 142.384 45.4574L142.429 45.4641C142.445 45.3004 142.597 45.1671 142.803 45.2029C143.112 45.2562 143.365 45.2762 143.632 45.1744C143.585 44.8648 143.542 44.5545 143.499 44.2436C143.421 43.6715 143.348 43.0976 143.286 42.5237C143.136 42.5595 142.987 42.6109 142.84 42.6764C142.632 42.7692 142.435 42.894 142.267 43.0473C142.102 43.1988 141.987 43.403 141.785 43.5084C141.552 43.6291 141.271 43.4297 141.339 43.1679C141.478 42.6389 142.26 42.3358 142.745 42.2358C142.911 42.2013 143.081 42.1868 143.251 42.1904C143.212 41.8219 143.178 41.4535 143.151 41.0844C143.137 40.9099 143.125 40.7354 143.113 40.5602C142.737 40.4469 142.333 40.413 141.942 40.4663C141.813 40.5687 141.683 40.6699 141.558 40.7724C141.162 41.0984 140.767 41.4262 140.378 41.7601C140.342 41.7899 140.307 41.8195 140.272 41.8498C140.04 42.048 139.752 41.8516 139.791 41.5711C140.109 39.2718 138.693 37.4429 137.035 36.026C135.2 34.4571 131.864 34.2744 129.682 31.5567C128.677 31.7602 126.433 32.3645 125.507 33.8323C124.211 35.8891 124.38 37.732 124.281 40.0651C124.183 42.4001 123.932 44.8356 124.465 47.1379C124.956 49.2607 126.288 51.0745 128.353 51.9084C128.404 51.929 128.456 51.949 128.507 51.9684C129.575 52.369 130.741 52.4823 131.864 52.2714C133.108 52.0375 134.146 51.4715 135.18 50.7751C135.24 50.7358 135.327 50.817 135.282 50.8764C133.919 52.6738 131.24 53.2743 129.116 52.7999C129.017 52.7775 128.918 52.7532 128.82 52.7265C129.295 54.0858 129.2 55.5778 128.581 56.9013C128.208 57.6977 127.641 58.3866 126.949 58.9303C126.187 59.529 125.242 60.0126 124.713 60.8531C124.228 61.6234 124.372 62.4888 125.202 62.9336C125.41 63.0463 125.491 63.4105 125.284 63.5705C125.204 63.6311 125.125 63.6929 125.044 63.7535C124.58 64.102 123.305 64.7564 123.098 64.7806C121.265 64.997 120.031 63.6578 119.242 62.0779C118.313 60.2235 118.555 57.9637 119.577 56.1977C120.397 54.7809 122.012 53.3846 121.37 51.5915C121.141 50.9509 120.673 50.4049 120.217 49.9116C119.698 49.3498 119.14 48.8238 118.643 48.2421C118.148 47.6645 117.71 47.0361 117.464 46.3113C117.107 45.252 117.284 44.1066 117.553 43.0491C118.129 40.779 118.876 38.5392 119.673 36.3375Z" fill="black"/>
<path fill-rule="evenodd" clip-rule="evenodd" d="M129.152 48.9758C129.6 49.106 130.081 49.1176 130.539 48.9831C130.953 48.8611 131.378 48.5925 131.684 48.2371C131.954 47.9215 132.13 47.5378 132.123 47.1283C132.122 47.0815 132.106 47.0425 132.08 47.0122C132.053 46.9796 132.014 46.9572 131.973 46.9474C131.93 46.9375 131.885 46.941 131.847 46.9585C131.812 46.9742 131.783 47.001 131.764 47.0402C131.717 47.1019 131.67 47.1628 131.623 47.222C131.247 47.6889 130.882 48.038 130.315 48.1631C130.007 48.231 129.7 48.2009 129.418 48.0973C129.117 47.9864 128.844 47.7913 128.631 47.5417C128.534 47.4289 128.42 47.3828 128.309 47.3821C128.182 47.3812 128.058 47.4401 127.963 47.5342C127.871 47.6268 127.809 47.7525 127.803 47.8841C127.798 47.9995 127.836 48.1201 127.936 48.2276C128.265 48.5821 128.691 48.8417 129.152 48.9758ZM129.166 43.1271C128.706 43.4073 128.007 44.0608 128.501 44.7556C129.083 45.3682 129.92 44.6658 130.333 44.3482C130.716 44.102 131.146 44.7351 130.791 45.0226C127.808 47.2387 126.597 43.2004 128.934 42.7976C129.191 42.7532 129.286 43.0404 129.166 43.1271ZM133.464 41.8939C133.612 41.7992 133.786 41.7666 133.978 41.8546C134.129 41.9232 134.392 42.1521 134.576 42.4529C134.702 42.6588 134.791 42.9002 134.773 43.1517C134.768 43.2101 134.79 43.2532 134.824 43.285C134.85 43.3102 134.889 43.3287 134.934 43.3345C134.973 43.3394 135.016 43.335 135.051 43.3239C135.118 43.303 135.154 43.2596 135.167 43.224C135.296 42.8814 135.24 42.499 135.096 42.154C134.902 41.6885 134.548 41.2985 134.317 41.1728C133.921 40.9575 133.454 40.9476 133.057 41.1669C132.72 41.3535 132.509 41.6548 132.299 41.9619C132.254 42.0272 132.21 42.092 132.164 42.1557C132.073 42.2832 132.063 42.4097 132.099 42.5182C132.138 42.6384 132.239 42.7399 132.364 42.7929C132.48 42.842 132.615 42.8489 132.734 42.7985C132.834 42.756 132.927 42.6729 132.985 42.532C133.083 42.2949 133.247 42.0331 133.464 41.8939ZM125.964 42.4217C126.065 42.4746 126.144 42.4905 126.256 42.4568C126.318 42.4381 126.379 42.4023 126.428 42.3541C126.475 42.3064 126.51 42.247 126.523 42.1811C126.556 42.0185 126.645 41.8664 126.771 41.7672C126.878 41.6824 127.015 41.6375 127.166 41.6628C127.329 41.6902 127.485 41.7952 127.592 41.9189C127.627 41.9603 127.655 42.0073 127.684 42.0541C127.736 42.1414 127.788 42.2226 127.86 42.2867C127.888 42.3111 127.929 42.328 127.97 42.328C127.986 42.328 128.003 42.3254 128.018 42.3204C128.181 42.1569 128.212 42.0329 128.207 41.9099C128.201 41.7809 128.15 41.6503 128.068 41.5284C127.876 41.2426 127.512 41.0082 127.265 40.9551C126.928 40.8824 126.594 40.9696 126.325 41.1586C126.049 41.353 125.844 41.6548 125.78 41.995C125.765 42.0769 125.772 42.1653 125.802 42.242C125.833 42.3169 125.886 42.3811 125.964 42.4217ZM132.721 38.8462C132.923 39.0439 133.163 39.0746 133.405 39.1019C133.539 39.1171 133.647 39.1294 133.752 39.1534C134.043 39.2192 134.331 39.3184 134.593 39.4612C134.867 39.6104 135.165 39.7904 135.38 40.0211C135.431 40.076 135.479 40.1335 135.527 40.1913C135.572 40.2439 135.614 40.2945 135.658 40.3433C135.71 40.3994 135.759 40.4583 135.807 40.5169C135.837 40.5664 135.842 40.5786 135.849 40.5913C135.858 40.6103 135.869 40.6316 135.88 40.6544C135.897 40.6858 135.916 40.72 135.937 40.7511C135.97 40.8079 135.988 40.8235 136.004 40.8305C136.03 40.8421 136.055 40.8478 136.078 40.8447C136.1 40.8418 136.122 40.8311 136.143 40.8134C136.246 40.7254 136.277 40.5808 136.274 40.4274C136.269 40.1946 136.184 39.9369 136.104 39.7785C135.921 39.4103 135.667 39.0276 135.361 38.7528C135.012 38.4392 134.63 38.2017 134.192 38.0381C133.919 37.9364 133.603 37.8431 133.306 37.8549C133.093 37.8633 132.889 37.9271 132.72 38.0863C132.617 38.184 132.567 38.3231 132.567 38.462C132.567 38.6036 132.619 38.7462 132.721 38.8462ZM125.553 40.6574C125.565 40.6786 125.583 40.6931 125.603 40.7019C125.624 40.7111 125.647 40.7137 125.669 40.7099C125.691 40.7062 125.712 40.6961 125.729 40.6807C125.745 40.666 125.757 40.6464 125.763 40.6224C125.897 40.0304 126.158 39.59 126.714 39.306C126.988 39.1663 127.303 39.0775 127.601 39.0067C127.688 38.9862 127.78 38.9728 127.872 38.9593C128.16 38.917 128.451 38.8685 128.64 38.6342C128.754 38.493 128.801 38.3126 128.774 38.1474C128.749 37.992 128.658 37.8495 128.494 37.7641C128.084 37.5516 127.575 37.7601 127.161 37.9378C127.13 37.951 127.101 37.9639 127.071 37.9764C126.666 38.1477 126.297 38.3739 125.994 38.6973C125.753 38.9539 125.53 39.3333 125.44 39.7236C125.366 40.0483 125.383 40.3797 125.553 40.6574Z" fill="black"/>
<path fill-rule="evenodd" clip-rule="evenodd" d="M127.684 87.718C123.849 87.8257 120.226 87.944 116.399 87.718C110.274 87.3387 92.2983 88.0227 88.3472 87.718C88.049 87.6952 87.0234 88.0227 87.0019 87.718C86.8286 85.5979 86.7158 64.1463 87.2316 62.6703C87.7474 61.1942 90.2949 54.0988 93.5402 50.7903C94.4455 49.8964 95.8223 49.5502 96.5833 48.5172C97.2395 47.3908 97.1884 46.7298 97.8359 46.1372C98.1173 45.88 98.7802 45.7758 99.2725 45.4188C99.7681 44.9259 99.2986 43.8409 99.5021 43.1545C99.9212 41.4407 101.465 40.3412 103.152 40.0822C105.497 39.5203 107.973 40.0515 109.096 41.8961C109.515 42.5826 109.292 43.4172 109.806 44.5174C109.769 45.3489 110.739 45.5498 111.318 45.8792L112.469 47.0437C116.014 49.041 120.184 50.1195 123.29 52.8029C125.931 55.4855 128.558 58.5861 129.729 62.2156C129.972 63.2045 130.051 64.2267 130.152 65.2372C130.438 68.1905 131.238 71.0568 131.925 73.9334C132.71 77.5579 133.441 81.4053 132.384 85.0638C132.079 85.838 128.378 87.6817 127.684 87.718Z" fill="white"/>
<path fill-rule="evenodd" clip-rule="evenodd" d="M109.299 42.1915C109.268 42.0911 109.136 42.1193 109.126 42.2147C109.026 43.1605 109.151 44.1489 109.271 45.0884C109.329 45.5418 109.363 46.0135 109.45 46.4606C109.461 46.5083 109.472 46.5565 109.482 46.6042C109.453 46.6556 109.368 46.7133 109.327 46.7528L109.15 46.9249L108.796 47.2685C108.103 47.9408 107.41 48.6137 106.716 49.286L105.698 50.2738C105.35 50.6124 104.953 50.9368 104.646 51.3143C104.481 51.5193 104.443 51.7708 104.607 51.9903C104.687 52.0988 104.833 52.1778 104.98 52.1942C104.923 52.2744 104.878 52.3654 104.85 52.4664C104.792 52.6721 105 52.9248 105.221 52.8389C105.473 52.7423 105.679 52.5692 105.935 52.4864C106.193 52.4024 106.474 52.3862 106.741 52.4312C106.864 52.4519 106.984 52.4827 107.101 52.5216C105.848 53.0992 104.492 53.431 103.109 53.4786C102.827 53.4881 102.546 53.4842 102.266 53.4655C101.795 53.4347 101.327 53.3633 100.867 53.2479C100.506 53.1569 100.149 53.0427 99.8014 52.9048C99.6315 52.837 99.4629 52.7624 99.2997 52.6777L99.2856 52.6693C99.2486 52.6463 98.5683 52.2598 98.5562 52.2017C98.5448 52.1437 98.5448 52.1234 98.567 52.0729C98.5891 52.0223 98.6502 51.9875 98.6502 51.9875C98.8605 51.8975 99.0781 51.8137 99.3077 51.8122C99.8363 51.8091 100.413 52.2005 100.85 52.4671C101.331 52.7599 101.773 53.1023 102.235 53.4197C102.245 53.4272 102.258 53.4304 102.269 53.4304C102.317 53.4304 102.362 53.3701 102.331 53.3231C102 52.8347 101.553 52.428 101.085 52.0729L100.897 51.9314C100.468 51.6115 99.9673 51.2573 99.4461 51.18C98.8081 51.0859 98.1418 51.4843 97.5723 51.7175L96.5642 52.1308C96.3842 52.2042 96.1887 52.2669 96.0081 52.3503L96.4305 51.0264C96.6414 50.3644 96.8523 49.7022 97.0605 49.0396L97.1015 48.9098C97.309 48.2371 97.4997 47.5374 97.8456 46.9229C97.9282 46.7755 98.0229 46.6369 98.1163 46.4969C98.213 46.3521 98.2493 46.1922 98.3715 46.063C98.6133 45.8064 98.9599 45.6559 99.2903 45.5575C99.3716 45.5337 99.3474 45.427 99.2715 45.4189C98.9323 45.3831 98.6086 45.4624 98.3023 45.6057L98.1747 45.6666C97.8846 45.8039 97.6018 45.9317 97.3862 46.1783C96.8953 46.7415 96.6407 47.4507 96.4063 48.1505L96.3439 48.3384C96.2559 48.3095 95.6602 48.4914 95.5856 48.5346C93.3531 49.4798 91.6331 51.2396 90.3752 53.3017C88.9977 55.5614 88.2475 58.1434 87.6276 60.6987C87.4368 61.4872 87.2535 62.2781 87.0782 63.0709C87.8606 63.3724 88.6921 63.5301 89.4248 63.9548C89.7035 64.1166 89.4517 64.5503 89.1716 64.3881C88.4859 63.9903 87.7041 63.8434 86.97 63.564C86.5718 65.3993 86.2178 67.2446 85.921 69.0977C85.0096 74.7849 84.434 80.5647 84.4703 86.3298C84.4709 86.457 84.5085 86.5996 84.5784 86.722C84.5374 86.7018 84.5052 86.6776 84.4871 86.6493C84.256 86.2861 83.6771 86.6224 83.9095 86.9877L83.943 87.0408C84.1177 87.3099 84.2802 87.5157 84.5871 87.6677C84.8954 87.8204 85.2299 87.8466 85.5711 87.8554C86.7289 87.8856 87.8875 87.9058 89.0474 87.9199C89.2059 86.6783 89.2703 85.4245 89.49 84.1902C89.5457 83.8727 90.0286 84.0072 89.9729 84.3233C89.7613 85.5159 89.6935 86.7253 89.5457 87.926C92.024 87.9522 94.5043 87.9529 96.9806 87.9596C100.337 87.9697 103.692 87.963 107.048 87.961L108.487 87.9603C112.363 87.9603 116.241 87.9475 120.117 87.922L121.039 87.9159C121.406 85.7507 121.656 83.5673 121.661 81.3671C121.661 81.0442 122.162 81.0436 122.162 81.3671C122.157 83.5646 121.91 85.7487 121.547 87.9125C122.465 87.9085 123.382 87.9119 124.3 87.9448L124.768 87.9616C125.703 87.9933 126.639 88.0134 127.572 87.9388C128.608 87.8554 129.656 87.6643 130.585 87.176C131.003 86.9554 131.371 86.6735 131.686 86.3426C131.366 86.1556 131.041 85.9774 130.732 85.7742C130.463 85.598 130.713 85.1635 130.985 85.341C131.319 85.5597 131.67 85.75 132.014 85.9525C132.262 85.6202 132.467 85.2509 132.622 84.852C132.867 84.2231 132.961 83.5465 133.043 82.8805C133.141 82.0956 133.181 81.3046 133.181 80.5149C133.181 78.8528 133.006 77.1954 132.763 75.5538C132.53 73.9807 132.221 72.4204 131.896 70.8651L131.851 70.653C131.53 69.124 131.223 67.5906 130.855 66.0722C130.515 64.6681 130.121 63.2706 129.652 61.9003C129.235 62.1587 128.798 62.3848 128.387 62.654C128.116 62.8314 127.865 62.3971 128.134 62.2208C128.572 61.9336 129.04 61.6948 129.482 61.4141C128.958 59.9466 128.343 58.5134 127.605 57.1407C126.126 54.3918 124.135 51.9326 121.583 50.1177C120.307 49.2094 118.906 48.4663 117.434 47.9256C115.934 47.3738 114.38 47.0714 112.791 46.9473C112.745 46.9437 112.719 46.9858 112.721 47.0247L112.722 47.0319L112.66 47.0421C112.636 46.8846 112.588 46.7322 112.498 46.5923C112.291 46.2738 111.899 46.0693 111.586 45.8736L111.512 45.8273C111.139 45.5961 110.745 45.3683 110.312 45.2872C110.298 45.2847 110.288 45.3003 110.298 45.3123C110.584 45.6403 110.949 45.891 111.284 46.1686L111.361 46.2328C111.639 46.4616 112.026 46.7211 112.036 47.1034C112.048 47.5538 111.956 48.0222 111.923 48.4713C111.889 48.919 111.866 49.3662 111.854 49.8153C111.811 51.4241 111.863 53.0334 112.005 54.6358L111.377 54.2142C110.398 53.5583 109.416 52.9042 108.414 52.2901C107.808 51.9183 107.126 51.6002 106.4 51.6147C106.197 51.6184 105.966 51.6479 105.746 51.7107C105.983 51.4855 106.211 51.246 106.443 51.0196C106.826 50.6463 107.209 50.2732 107.591 49.9007L108.694 48.8244L109.798 47.7481C110.14 47.4139 110.541 47.106 110.505 46.5791C110.475 46.1589 110.262 45.7406 110.116 45.3355C110.095 45.2772 110.077 45.2195 110.059 45.1624C109.764 44.1827 109.597 43.1673 109.299 42.1915ZM95.0376 84.2238C95.2659 83.9951 95.6205 84.3503 95.3922 84.579L95.2713 84.6994C95.0698 84.9005 94.8697 85.1083 94.73 85.3572L94.7098 85.3949C94.5594 85.6807 94.1269 85.4278 94.2773 85.1419C94.4627 84.7888 94.7588 84.5036 95.0376 84.2238ZM104.816 84.1592C105.543 84.0207 106.244 84.0207 106.97 84.1592C107.287 84.2198 107.152 84.7034 106.837 84.6435C106.201 84.5218 105.585 84.5218 104.95 84.6435C104.634 84.7034 104.5 84.2204 104.816 84.1592ZM114.629 79.1017C114.942 79.023 115.075 79.5066 114.762 79.586L114.609 79.6243C114.085 79.7541 113.586 79.8503 113.042 79.7306C112.731 79.6613 112.857 79.1898 113.163 79.2443L113.175 79.2463C113.678 79.3579 114.143 79.2254 114.629 79.1017ZM97.2022 75.8427C97.4332 75.6181 97.7885 75.9719 97.5568 76.1979C97.2674 76.4791 96.9268 76.6936 96.5138 76.7051C96.1961 76.7138 96.1914 76.2268 96.499 76.2039L96.5138 76.2033C96.7905 76.1952 97.0108 76.0291 97.2022 75.8427ZM126.691 74.503C126.402 74.3586 126.656 73.9257 126.944 74.0698L128.676 74.9368C128.964 75.0812 128.711 75.5142 128.423 75.37L126.691 74.503ZM92.4733 74.6136C92.7957 74.6045 92.795 75.1062 92.4733 75.1153C92.1697 75.1238 91.8595 75.2387 91.5895 75.37C91.3007 75.5105 91.0461 75.078 91.3363 74.9368C91.6895 74.7652 92.0771 74.6246 92.4733 74.6136ZM108.653 72.1911C108.388 72.0107 108.638 71.5756 108.906 71.7578C109.271 72.0063 109.602 72.3 109.962 72.556L110.06 72.6249C110.326 72.8053 110.075 73.2401 109.807 73.0581C109.409 72.787 109.052 72.4621 108.653 72.1911ZM90.0199 68.5445C90.3423 68.5444 90.3429 69.0462 90.0199 69.0463L89.9588 69.0461C89.6928 69.0446 89.4121 69.0372 89.1649 69.1437L89.136 69.1565C88.8459 69.2933 88.5913 68.8609 88.8835 68.7234C89.2462 68.5522 89.6256 68.5447 90.0199 68.5445ZM117.846 68.1861L117.804 68.1703C117.503 68.062 117.633 67.5769 117.937 67.6866C118.396 67.8517 118.753 68.1636 119.152 68.4343C119.417 68.6147 119.166 69.0496 118.898 68.8676C118.556 68.6343 118.236 68.3389 117.846 68.1861ZM99.0519 66.8808L98.9847 66.8446C98.6979 66.6968 98.9511 66.2637 99.2372 66.4114C99.4649 66.5285 99.6684 66.6844 99.8914 66.8086L99.9592 66.8448C100.246 66.9926 99.9928 67.4256 99.706 67.2781C99.479 67.1609 99.2755 67.005 99.0519 66.8808ZM106.675 62.021L106.726 61.9711C106.957 61.745 107.311 62.0996 107.08 62.3259C106.504 62.891 105.822 63.32 105.135 63.7348L105.01 63.8101C104.732 63.9766 104.481 63.543 104.757 63.3768L104.94 63.2663C105.552 62.8971 106.156 62.5161 106.675 62.021ZM120.54 61.5526C120.346 61.2999 120.769 61.0527 120.966 61.2907L120.973 61.2993C121.175 61.5623 121.416 61.8002 121.666 62.0175L121.713 62.0579C121.863 62.1851 122.134 62.4577 122.344 62.4756C122.663 62.5027 122.666 63.0047 122.344 62.9774C122.019 62.9496 121.74 62.7209 121.495 62.5249C121.138 62.2398 120.819 61.9146 120.54 61.5526ZM93.8831 59.7248C93.6507 59.5058 93.9945 59.1572 94.2289 59.3626L94.2377 59.3701C94.6729 59.7794 95.2982 59.8892 95.8583 60.028C96.1713 60.1057 96.039 60.5896 95.7253 60.5119L95.4701 60.4488C94.8979 60.3057 94.3236 60.1392 93.8831 59.7248ZM103.806 56.5601C104.119 56.4805 104.252 56.9643 103.94 57.0439C103.408 57.1791 102.905 57.3539 102.412 57.5966C102.124 57.7386 101.87 57.3061 102.159 57.1634C102.689 56.9022 103.234 56.7057 103.806 56.5601ZM98.6878 45.9833C98.6952 45.9608 98.6717 45.935 98.6482 45.9432C98.0861 46.1531 98.3849 46.8905 98.5596 47.332L98.5918 47.4127C98.8652 48.1201 99.248 48.8087 99.6651 49.4422C100.102 50.1051 100.587 50.7398 101.111 51.3356C101.339 51.5943 101.575 51.8456 101.819 52.0893L101.911 52.1803C102.157 52.4231 102.476 52.8496 102.859 52.8026C103.271 52.7529 103.501 52.3121 103.2 51.9772C102.988 51.7402 102.693 51.5513 102.456 51.3356C102.221 51.1223 101.992 50.9022 101.77 50.6758C101.315 50.2111 100.885 49.72 100.49 49.2026C100.11 48.7023 99.745 48.188 99.4132 47.6534L99.3474 47.5463C99.0948 47.1304 98.5125 46.5189 98.6878 45.9833ZM118.61 51.2389C118.877 51.0561 119.128 51.4908 118.863 51.6721C118.376 52.0055 117.947 52.4094 117.42 52.6836C117.137 52.8305 116.886 52.4096 117.157 52.2559L117.167 52.2504C117.694 51.9762 118.123 51.5721 118.61 51.2389Z" fill="black"/>
<path fill-rule="evenodd" clip-rule="evenodd" d="M91.4251 30.4308C91.581 29.0545 91.3788 26.1777 91.3654 26.003C91.2794 24.898 91.7959 20.535 92.7724 20.937C94.4105 19.6373 96.5926 19.3504 98.6323 19.2133C102.87 18.9285 107.378 19.5822 110.65 22.4404C112.268 23.9247 113.844 26.0835 113.717 28.3313C115.187 30.4619 117.26 33.3846 115.428 35.8755C114.806 36.6713 113.816 36.9676 113.033 37.5703C111.46 38.8422 110.473 40.6675 108.885 41.9319C104.677 45.7216 97.5315 46.5132 93.397 42.2028C90.2001 39.081 90.7173 34.4106 91.2794 30.4308C91.6575 27.7551 91.1202 33.1158 91.4251 30.4308Z" fill="white"/>
<path fill-rule="evenodd" clip-rule="evenodd" d="M104.294 13.3765C103.16 13.1473 101.997 13.0047 100.839 13.0476L100.75 13.0511C99.879 13.086 98.7762 13.1632 98.0166 13.6706C97.9729 13.6267 97.9024 13.6041 97.8386 13.6346C96.9359 14.0665 95.9433 14.3787 94.9929 14.689C94.0466 14.9977 93.0654 15.2015 92.0734 15.2837C91.7007 15.3146 91.381 15.7183 91.6174 16.0805C91.6738 16.1668 91.7282 16.2539 91.7826 16.3413C91.6913 16.3318 91.6006 16.322 91.5092 16.3127C91.209 16.2825 90.9095 16.6034 90.9269 16.8962C90.9384 17.0804 90.9578 17.2624 90.9874 17.4421C90.8732 17.4397 90.7597 17.4569 90.6496 17.5034C90.0941 17.7386 90.1324 18.4022 90.1741 18.907C90.2318 19.6076 90.4931 20.3496 90.9787 20.8739C90.616 21.2512 90.3594 21.7018 90.207 22.2368C90.0955 22.6276 90.0337 23.0438 90.0646 23.4505L90.074 23.5723C90.1116 24.0137 90.1868 24.5024 90.5038 24.82C90.6664 24.9837 90.8665 25.0433 91.0579 25.0244C90.9424 26.0416 90.8678 27.0647 90.7987 28.0841L90.7658 28.5713C90.6099 30.9274 90.4931 33.2988 90.524 35.6587C90.5522 37.8641 90.9874 40.0048 92.3367 41.7955C93.5658 43.4261 95.3308 44.6282 97.3275 45.0851C98.4034 45.3318 99.5016 45.3492 100.591 45.1921C101.119 45.1156 101.65 44.9985 102.151 44.8137C102.706 44.6085 103.104 44.3065 103.478 43.854C103.654 43.6393 103.569 43.1823 103.218 43.2253C102.686 43.2899 102.201 43.3677 101.691 43.5253L101.618 43.5483C101.111 43.7114 100.585 43.8329 100.054 43.8845C98.9676 43.99 97.8641 43.8838 96.8224 43.5534C95.1273 43.015 93.6678 41.8151 92.7316 40.3075C91.6207 38.5204 91.4951 36.4918 91.5113 34.437C91.5287 32.1822 91.6019 29.9261 91.7215 27.6736L91.7416 27.2982C91.8048 26.1391 91.8659 24.9793 91.9196 23.8195C91.9357 23.4557 91.9612 23.0889 92.0069 22.7258C92.426 22.4799 92.8014 22.1408 93.0459 21.7224C93.5375 21.9261 94.0547 22.0731 94.5302 22.1903C95.6317 22.4618 96.7754 22.5278 97.897 22.3577C98.1993 22.483 98.5075 22.5931 98.8212 22.6878C98.9058 22.7254 98.9904 22.7624 99.0751 22.7986C99.83 23.1224 100.596 23.3967 101.393 23.5975L101.589 23.6465C102.008 23.7501 102.464 23.8522 102.91 23.8842C102.984 23.9126 103.062 23.9366 103.149 23.9577C103.555 24.0567 103.978 24.0879 104.394 24.053C104.8 24.0189 105.093 23.6077 104.87 23.2228C104.707 22.942 104.541 22.6618 104.376 22.3824C104.954 22.6239 105.552 22.8248 106.154 22.995C106.762 23.1668 107.38 23.3116 107.998 23.4447C108.328 23.5153 108.66 23.5779 108.989 23.6484C109.225 23.6987 109.587 23.7248 109.78 23.8806C109.992 24.0515 110.053 24.4503 110.133 24.6963C110.239 25.0157 110.339 25.3365 110.43 25.6611C110.61 26.3086 110.759 26.9657 110.873 27.6293C110.988 28.2937 111.065 28.9645 111.108 29.6376C111.151 30.3099 111.132 30.9866 111.201 31.656C111.237 32.0111 111.618 32.1937 111.899 31.9456C111.932 31.9165 111.966 31.8871 111.998 31.8573L112.047 31.8124C112.287 31.5942 112.52 31.3628 112.713 31.1023C112.748 31.0542 112.781 31.0041 112.812 30.9531C112.817 30.9531 112.822 30.9517 112.827 30.948L112.88 30.9078C113.467 30.4698 114.449 29.8987 115.021 30.6264C115.203 30.8582 115.297 31.1534 115.374 31.4382L115.51 31.9478C115.598 32.2806 115.681 32.6151 115.729 32.9556C115.839 33.7181 115.784 34.5971 115.261 35.2083C115.052 35.4527 114.763 35.6274 114.442 35.6732C114.262 35.698 114.085 35.6674 113.907 35.6448C113.727 35.6223 113.552 35.6587 113.371 35.6412C113.084 35.6128 112.958 35.9578 113.066 36.1745C113.124 36.291 113.192 36.3914 113.27 36.4766C113.207 36.5304 113.148 36.5886 113.09 36.6497C112.921 36.7043 112.768 36.8214 112.654 36.9764C112.562 37.1016 112.514 37.2376 112.506 37.381C112.496 37.4166 112.487 37.453 112.479 37.4902L112.324 37.7435C112.289 37.799 112.255 37.8539 112.221 37.9078C111.824 38.5335 111.385 39.0633 110.838 39.5624C110.311 40.0426 109.74 40.4727 109.245 40.9878L109.187 41.049C108.726 41.5359 108.24 42.1252 108.421 42.8331C108.467 43.015 108.721 43.146 108.886 43.023C109.418 42.6272 109.686 42 110.138 41.5197C110.602 41.0249 111.117 40.5804 111.583 40.087C112.024 39.6213 112.372 39.0938 112.634 38.5132C112.739 38.6289 112.891 38.7111 113.102 38.7431C113.465 38.7977 113.804 38.5845 113.962 38.2694C114.063 38.3145 114.167 38.3553 114.272 38.3873C114.822 38.5561 115.168 37.9427 114.96 37.4894C114.849 37.2464 114.711 37.0354 114.539 36.8578C115.077 36.7836 115.625 36.5049 115.978 36.1571C116.865 35.2832 116.987 33.9698 116.787 32.802C116.681 32.1828 116.498 31.5563 116.261 30.9749C116.22 30.8738 116.175 30.7719 116.127 30.6715C116.154 30.6708 116.181 30.6591 116.199 30.6366C116.359 30.4168 116.554 30.2371 116.674 29.9912C116.783 29.7656 116.905 29.5372 116.991 29.3021C117.169 28.8211 117.257 28.2783 117.314 27.7697C117.434 26.7285 117.388 25.6939 117.228 24.6591C116.958 22.8968 116.304 21.2103 115.34 19.7305C115.393 19.7028 115.443 19.6695 115.49 19.63L115.513 19.6099L115.551 19.5758C115.826 19.3264 115.802 18.8591 115.551 18.6065L115.471 18.5268C115.371 18.4268 115.284 18.3475 115.122 18.2386C115.098 18.2225 115.074 18.2074 115.049 18.1933C115.134 18.036 115.163 17.8521 115.104 17.6491C114.898 16.9421 113.883 16.9671 113.24 17.2755C112.528 16.6389 111.739 16.0862 110.884 15.6387C108.847 14.5735 106.543 13.8306 104.294 13.3765ZM114.824 31.9965C114.444 31.8721 113.938 32.1333 113.596 32.2905C113.163 32.4898 112.794 32.7845 112.437 33.096C112.259 33.2517 112.227 33.5063 112.272 33.7239C112.276 33.7457 112.28 33.7683 112.285 33.7909C112.332 34.023 112.591 34.2056 112.82 34.1991C113.298 34.186 113.526 33.772 113.797 33.4212C113.829 33.478 113.869 33.5303 113.918 33.5697L113.952 33.5959C114.064 33.6816 114.188 33.7502 114.336 33.7436C114.442 33.7385 114.543 33.7116 114.635 33.6628C114.868 33.5398 114.97 33.2386 114.907 32.9934C114.868 32.8391 114.778 32.7183 114.66 32.6347L114.704 32.6046C114.798 32.5392 114.883 32.4702 114.95 32.3684L114.965 32.3443H114.959C115.031 32.2192 114.984 32.0489 114.824 31.9965Z" fill="black"/>
<path fill-rule="evenodd" clip-rule="evenodd" d="M97.679 40.3128C98.2156 40.4652 98.7912 40.4789 99.3385 40.3214C99.8342 40.1786 100.343 39.8642 100.709 39.4482C101.033 39.0787 101.243 38.6296 101.235 38.1503C101.234 38.0955 101.214 38.0499 101.183 38.0144C101.15 37.9762 101.104 37.95 101.055 37.9386C101.003 37.9269 100.95 37.931 100.904 37.9514C100.862 37.9699 100.828 38.0012 100.805 38.0471C100.749 38.1194 100.693 38.1906 100.637 38.2599C100.186 38.8066 99.7489 39.2151 99.0706 39.3616C98.7025 39.4411 98.3351 39.4058 97.998 39.2845C97.6366 39.1547 97.3102 38.9263 97.055 38.6342C96.9395 38.5021 96.8025 38.4482 96.6695 38.4473C96.5184 38.4463 96.3686 38.5152 96.2565 38.6254C96.1456 38.7337 96.0711 38.8809 96.0644 39.0349C96.059 39.17 96.104 39.3112 96.2229 39.4371C96.6171 39.852 97.1269 40.1559 97.679 40.3128ZM97.6957 33.4667C97.1457 33.7947 96.3075 34.5596 96.8992 35.3729C97.5957 36.09 98.5984 35.2678 99.0927 34.8959C99.5508 34.6078 100.065 35.349 99.6401 35.6855C96.0698 38.2794 94.6211 33.5525 97.4177 33.081C97.7253 33.029 97.8395 33.3652 97.6957 33.4667ZM102.84 32.0232C103.017 31.9123 103.225 31.8742 103.455 31.9771C103.636 32.0575 103.951 32.3254 104.171 32.6775C104.321 32.9185 104.428 33.2011 104.406 33.4955C104.401 33.5639 104.426 33.6143 104.467 33.6516C104.499 33.681 104.546 33.7027 104.6 33.7094C104.646 33.7152 104.697 33.71 104.74 33.6971C104.82 33.6726 104.862 33.6217 104.878 33.5801C105.032 33.179 104.965 32.7315 104.793 32.3277C104.56 31.7827 104.137 31.3263 103.861 31.1791C103.386 30.9271 102.828 30.9155 102.353 31.1722C101.949 31.3906 101.697 31.7433 101.445 32.1028C101.392 32.1792 101.339 32.255 101.284 32.3296C101.174 32.4789 101.163 32.627 101.206 32.754C101.253 32.8947 101.373 33.0134 101.523 33.0756C101.662 33.133 101.823 33.1411 101.965 33.0821C102.086 33.0323 102.196 32.9351 102.266 32.7702C102.384 32.4925 102.58 32.1862 102.84 32.0232ZM93.8628 32.641C93.9837 32.7029 94.0784 32.7216 94.2127 32.6821C94.2873 32.6602 94.3605 32.6183 94.4182 32.5619C94.4753 32.506 94.5163 32.4365 94.5324 32.3594C94.5714 32.1691 94.6775 31.991 94.8286 31.8749C94.9575 31.7756 95.1208 31.723 95.3021 31.7527C95.4969 31.7847 95.6829 31.9075 95.8112 32.0524C95.8542 32.1009 95.8877 32.156 95.9213 32.2106C95.9845 32.3129 96.0456 32.4079 96.1329 32.483C96.1658 32.5116 96.2155 32.5314 96.2639 32.5314C96.2833 32.5314 96.3028 32.5283 96.3223 32.5225C96.5164 32.331 96.5533 32.1859 96.5473 32.0419C96.5406 31.8909 96.4801 31.738 96.3821 31.5954C96.1524 31.2607 95.7158 30.9864 95.421 30.9243C95.0173 30.8392 94.6164 30.9413 94.2953 31.1625C93.9649 31.39 93.7197 31.7434 93.6432 32.1415C93.625 32.2374 93.6331 32.3409 93.67 32.4307C93.7063 32.5184 93.7701 32.5934 93.8628 32.641ZM101.95 28.4557C102.192 28.6872 102.479 28.7231 102.769 28.755C102.93 28.7729 103.059 28.7873 103.185 28.8153C103.533 28.8924 103.877 29.0084 104.19 29.1756C104.519 29.3503 104.876 29.561 105.133 29.8309C105.194 29.8952 105.252 29.9626 105.309 30.0302C105.362 30.0918 105.413 30.151 105.466 30.2082C105.528 30.2739 105.586 30.3427 105.644 30.4114C105.679 30.4693 105.687 30.4836 105.694 30.4984C105.705 30.5206 105.718 30.5456 105.732 30.5724C105.751 30.609 105.775 30.6491 105.799 30.6855C105.839 30.752 105.861 30.7703 105.879 30.7785C105.91 30.792 105.94 30.7987 105.969 30.7951C105.995 30.7917 106.021 30.7791 106.045 30.7584C106.17 30.6554 106.207 30.4862 106.203 30.3066C106.197 30.0341 106.094 29.7324 106 29.547C105.781 29.116 105.476 28.6681 105.11 28.3464C104.692 27.9793 104.235 27.7013 103.71 27.5098C103.384 27.3908 103.006 27.2815 102.651 27.2953C102.395 27.3052 102.151 27.3799 101.949 27.5662C101.826 27.6806 101.766 27.8433 101.766 28.006C101.766 28.1718 101.828 28.3386 101.95 28.4557ZM93.3705 30.5758C93.386 30.6005 93.4074 30.6176 93.4309 30.6279C93.4558 30.6386 93.4833 30.6417 93.5102 30.6373C93.5364 30.633 93.5619 30.6211 93.5821 30.6031C93.6009 30.5858 93.6156 30.5629 93.6224 30.5348C93.7829 29.8419 94.0952 29.3264 94.7614 28.994C95.0892 28.8304 95.466 28.7264 95.8226 28.6436C95.9267 28.6196 96.0362 28.604 96.1463 28.5882C96.4922 28.5386 96.8401 28.4819 97.0658 28.2076C97.2014 28.0424 97.2585 27.831 97.2263 27.6379C97.1961 27.4559 97.0879 27.289 96.8905 27.1891C96.4002 26.9403 95.791 27.1844 95.296 27.3923C95.2591 27.4078 95.2235 27.4229 95.1879 27.4375C94.7037 27.6381 94.2624 27.9029 93.8991 28.2815C93.6109 28.5819 93.3443 29.0259 93.2369 29.4827C93.1475 29.8627 93.1683 30.2507 93.3705 30.5758Z" fill="black"/>
<path d="M53.2042 24.9308C53.691 24.2158 54.3705 22.6478 53.2042 22.2137C52.1387 21.8171 51.6332 22.6349 51.4825 23.187C51.4546 22.3468 50.1544 21.8309 49.5194 22.3468C48.4856 23.187 49.4134 24.8243 50.5533 25.6767C51.6932 26.5292 52.8595 25.437 53.2042 24.9308Z" fill="black"/>
<path d="M123.891 22.0881C124.378 21.373 125.058 19.805 123.891 19.3709C122.826 18.9743 122.32 19.7922 122.17 20.3442C122.142 19.5041 120.842 18.988 120.207 19.5041C119.173 20.3442 120.101 21.9815 121.241 22.834C122.381 23.6864 123.547 22.5942 123.891 22.0881Z" fill="black"/>
</g>
<defs>
<clipPath id="clip0_240_6648">
<rect width="154" height="76" fill="white" transform="translate(4 12)"/>
</clipPath>
</defs>
</svg>
