<svg width="84" height="74" viewBox="0 0 84 74" fill="none" xmlns="http://www.w3.org/2000/svg">
<path fill-rule="evenodd" clip-rule="evenodd" d="M80.0991 70.091C81.1302 70.042 80.7155 68.2667 80.6415 67.6146C79.8252 65.2332 80.0171 62.635 79.696 60.1389C79.496 57.8088 79.239 55.4859 79.0229 53.1575C78.5983 48.4312 75.5495 38.8096 72.0703 37.2622C71.632 35.3691 69.8218 33.6019 67.5315 33.6019C65.9695 31.7817 64.0893 30.5006 61.6777 30.7593C60.6811 30.8039 59.7147 31.8444 58.7598 32.0454C58.2251 32.1179 53.4802 31.9311 52.5297 32.4868C51.8676 32.8215 51.2699 33.4399 51.4646 34.2272C51.7752 35.181 50.81 34.1489 48.7964 35.167C44.6904 37.5946 47.144 40.8422 47.2527 40.9428C44.6904 44.4522 42.4509 47.2994 41.4147 51.5889C40.7431 54.7736 40.8187 58.0612 40.256 61.2622C40.0573 62.3722 39.7525 63.4441 39.4227 64.522C39.0653 65.9326 38.8915 69.4484 38.6945 69.4798C38.3356 69.5675 38.9019 70.2929 39.2822 70.2935C49.8253 72.0151 60.5346 70.3648 71.1345 70.0952C74.1217 69.9929 77.1121 69.9694 80.0991 70.091Z" fill="white"/>
<path fill-rule="evenodd" clip-rule="evenodd" d="M64.1192 41.2526C64.1241 41.2051 64.1892 41.2052 64.1942 41.2526L64.2687 41.96C64.3592 42.8239 64.4464 43.6862 64.5096 44.5541C64.5884 45.6365 64.6411 46.7186 64.6665 47.8033C64.7551 51.5814 64.7727 55.3614 64.7802 59.1404C65.2993 59.105 65.8185 59.0709 66.338 59.0379C66.6904 59.0155 67.0428 58.994 67.3953 58.9728L68.2941 58.9192V58.9192L68.6642 58.8968C68.9142 58.8816 69.1983 58.8196 69.3731 59.0377C69.4431 59.125 69.4782 59.2384 69.413 59.342C69.2625 59.581 69.0313 59.5727 68.7699 59.583C68.5232 59.5929 68.2765 59.6025 68.0298 59.6118C67.5012 59.632 66.9726 59.6511 66.4438 59.6657C65.8888 59.681 65.3341 59.6935 64.7794 59.7028C64.7738 61.2981 64.7067 62.8915 64.6342 64.485L64.6014 65.2022C64.5127 67.1415 64.4173 69.0825 64.2817 71.0192C64.2706 71.1777 64.0427 71.1774 64.0317 71.0192C63.879 68.8381 63.7783 66.6524 63.6784 64.4684C63.6059 62.8849 63.5638 61.301 63.5437 59.7169C63.4704 59.7174 63.3971 59.7184 63.3238 59.7186C61.2417 59.7276 59.1601 59.7365 57.0781 59.7173C57.0815 59.7213 57.0849 59.7254 57.0872 59.7307C57.2379 60.0809 57.2523 60.5277 57.2486 60.9035C57.2444 61.3344 57.1854 61.7602 57.0846 62.1792C56.7233 63.6807 55.7915 65.0254 54.7303 66.1372L54.6956 66.1734C54.4453 66.4338 54.1581 66.6954 54.0044 67.027C53.8474 67.3657 53.7929 67.7618 53.7155 68.1256L53.7064 68.1675L53.4035 69.5448C53.3073 69.9823 53.2799 70.6204 52.9282 70.936C52.6 71.2305 52.1652 71.0767 52.0107 70.6975C51.8901 70.4016 52.0102 70.0765 52.0817 69.7807L52.6414 67.4647C52.7333 67.087 52.8338 66.7068 53.0323 66.3675C53.2356 66.02 53.5337 65.7681 53.8378 65.5103C54.4137 65.0222 54.9424 64.4634 55.3896 63.8584C55.8365 63.2536 56.2185 62.5869 56.4864 61.8859C56.6205 61.5349 56.7304 61.1704 56.8062 60.8028C56.8783 60.4541 56.8776 60.0928 56.9547 59.7478C56.96 59.724 56.9804 59.7076 57.0039 59.7004C56.9983 59.685 57.0068 59.6642 57.0287 59.6628L58.7315 59.5551C60.2451 59.459 61.7586 59.3604 63.2709 59.2478L63.5381 59.2288V59.2288C63.5174 57.1151 63.535 55.0011 63.5738 52.8867C63.6093 50.9478 63.61 49.0083 63.6686 47.0696C63.6977 46.1075 63.7605 45.1475 63.8304 44.1873C63.9019 43.2053 64.0164 42.2316 64.1192 41.2526ZM48.1307 52.495C48.1126 52.3873 48.2502 52.3206 48.3136 52.4191C49.0387 53.5441 49.3883 54.7662 49.5356 56.0828C49.6658 57.2448 49.6275 58.4235 49.5626 59.5885C49.4935 60.8311 49.4128 62.0734 49.3313 63.3153L49.2059 65.2198V65.2198L48.8915 69.9942C48.8689 70.3357 48.7902 70.6462 48.4915 70.805C48.4537 70.8361 48.4142 70.864 48.3683 70.8881C48.2069 70.9731 47.9929 70.9302 47.8996 70.7671L47.937 70.7914C47.9696 70.8116 47.933 70.7834 47.8272 70.7069L47.7374 70.5925V70.5925C47.6721 70.4959 47.6305 70.401 47.6137 70.2863C47.5877 70.108 47.6214 69.9124 47.6333 69.7332L47.8394 66.6025V66.6025C47.9997 64.1686 48.1869 61.7354 48.328 59.3003C48.3938 58.1654 48.4398 57.0293 48.4086 55.8924C48.3776 54.7618 48.3191 53.612 48.1307 52.495ZM54.4033 31.5372L54.4435 31.5305C55.8837 31.295 57.4497 31.3391 58.7659 32.0225C58.7768 32.0281 58.7718 32.0459 58.7596 32.0454L58.3359 32.0287C56.9948 31.977 55.6578 31.9464 54.3391 32.2566L54.2041 32.2886C53.7292 32.4027 53.2333 32.5423 52.8518 32.851C52.4872 33.1462 52.3057 33.6015 52.1311 34.0206L52.1078 34.0759C51.9307 34.4899 51.7065 34.8825 51.3183 35.1414C50.8155 35.4766 50.2107 35.4355 49.6342 35.4811C48.619 35.5614 47.7891 36.2856 47.3762 37.1718C47.1261 37.7085 47.0195 38.3101 46.9983 38.897C46.9875 39.1958 46.986 39.5062 47.0264 39.803C47.0393 39.8979 47.1585 40.2436 47.2193 40.2353C47.3543 40.2169 47.4777 40.2862 47.5198 40.3924C47.8534 40.0752 48.1965 39.7672 48.5507 39.4702C49.4336 38.73 50.3845 38.0592 51.386 37.4828C52.1504 37.0428 52.9566 36.6068 53.7915 36.2773C53.7253 36.2759 53.6601 36.2888 53.5969 36.3211C53.5693 36.3354 53.5418 36.3012 53.5637 36.2787C53.8266 36.0063 54.1416 35.9675 54.4591 36.0402C54.5269 36.019 54.5947 35.9984 54.6628 35.9789C54.6966 35.9692 54.7135 36.0152 54.6859 36.0329L54.6079 36.082V36.082C54.9543 36.1962 55.2944 36.4207 55.5636 36.5979C56.3371 37.1068 57.0179 37.7289 57.708 38.3393L57.8335 38.4499C58.441 38.9839 59.0639 39.5028 59.7541 39.9311C60.1154 40.1553 60.4948 40.3627 60.8929 40.517C61.2343 40.6494 61.7901 40.7327 61.95 41.0879C62.0921 41.2578 62.0328 41.4747 61.8663 41.5891C61.5856 41.8933 61.024 41.6968 60.6895 41.5701C60.2862 41.4174 59.8956 41.2338 59.523 41.0186C58.7996 40.6005 58.1326 40.0807 57.5113 39.5278C56.8624 38.9503 56.2503 38.3369 55.6192 37.7413C55.3458 37.4832 55.0786 37.219 54.8047 36.9613L54.6672 36.8331C54.5274 36.7041 54.3283 36.5029 54.1153 36.3812C53.7142 36.6167 53.3069 36.8426 52.9094 37.0842C52.3545 37.4215 51.8159 37.7831 51.2857 38.1566C50.2649 38.8756 49.2975 39.6809 48.3995 40.5441C46.7525 42.1271 45.3493 43.9348 44.1235 45.8489L44.0304 45.9948C43.3338 47.0904 42.6751 48.2213 42.208 49.4318C41.6941 50.764 41.4442 52.1648 41.3084 53.5789C41.1736 54.9828 41.1282 56.3938 40.9776 57.7964C40.8231 59.235 40.5188 60.6417 40.1727 62.0459L40.0901 62.3788C39.7769 63.6363 39.4537 64.8938 39.2927 66.181C39.2067 66.8686 39.155 67.5656 39.1667 68.2587C39.1785 68.9559 39.2897 69.6376 39.3795 70.3275C39.4139 70.5917 39.1497 70.8123 38.9134 70.8473C38.6415 70.8875 38.4079 70.7168 38.3234 70.4682C38.06 69.6931 38.0121 68.8364 38.0204 68.023C38.0287 67.1971 38.1358 66.3767 38.2864 65.565C38.5827 63.9686 39.04 62.4051 39.4225 60.8278C39.7596 59.4375 39.9859 58.0448 40.1079 56.6206C40.2345 55.1429 40.3103 53.6603 40.5412 52.1933C40.7692 50.7451 41.1981 49.3617 41.845 48.0411C42.434 46.8388 43.1682 45.7071 43.9379 44.6101C44.8726 43.2781 45.8992 42.0105 47.0468 40.8557C46.9437 40.8512 46.8379 40.8185 46.7407 40.7588C46.4433 40.5762 46.3048 40.219 46.2622 39.8929C46.1626 39.1299 46.1866 38.3334 46.3859 37.5875C46.7075 36.3842 47.542 35.315 48.7514 34.8813C49.0627 34.7696 49.3936 34.7289 49.7235 34.7209C50.0366 34.7132 50.3785 34.7534 50.6806 34.6557C51.1614 34.5001 51.3675 33.9427 51.548 33.5201L51.5563 33.5007C51.7878 32.9622 52.0657 32.5007 52.567 32.1645C53.1019 31.8057 53.7722 31.6425 54.4033 31.5372V31.5372ZM68.0873 33.6667C68.5201 33.5189 69.0612 33.653 69.4844 33.7821C69.9559 33.926 70.3916 34.191 70.7652 34.5058C71.1593 34.8377 71.485 35.2475 71.7151 35.7054L71.7371 35.7495C71.9472 36.1742 72.1866 36.7573 72.0806 37.2239C72.0776 37.2371 72.0741 37.2499 72.0701 37.2622C72.9288 37.6783 73.7218 38.1995 74.4124 38.8601C75.2164 39.6292 75.8973 40.5044 76.4735 41.45C78.7618 45.2055 79.1646 49.7158 79.4349 53.9986L79.5023 55.0845C79.649 57.4294 79.8208 59.7688 80.2669 62.0813L80.2994 62.2482C80.7763 64.6695 81.459 67.1092 81.3898 69.593C81.369 70.3372 80.2518 70.3322 80.2194 69.593C80.0975 66.811 79.4379 64.1248 78.9914 61.3863C78.2056 56.5681 78.5993 51.6009 77.4859 46.8311C77.049 44.9592 76.3721 43.1435 75.4056 41.4726C74.9281 40.6472 74.3819 39.8496 73.742 39.1375C73.1915 38.5247 72.6193 37.9351 71.976 37.42C71.7704 37.6227 71.3596 37.5194 71.2523 37.2239C71.1786 37.0208 71.2001 36.7833 71.1527 36.5706C71.1088 36.3732 71.0483 36.1774 70.9676 35.9915C70.8068 35.621 70.5708 35.2652 70.2984 34.9653C70.004 34.6412 69.6657 34.3718 69.2872 34.1495C68.9061 33.9256 68.4893 33.8587 68.0873 33.6951C68.0738 33.6896 68.0725 33.6718 68.0873 33.6667ZM69.7687 59.4163C69.7694 59.3967 69.7928 59.3875 69.8072 59.4006C69.9589 59.538 70.0506 59.7353 70.1623 59.9043C70.2911 60.0993 70.4263 60.2902 70.5681 60.4763C70.8522 60.8489 71.1686 61.2002 71.4874 61.5443C71.7839 61.8644 72.0999 62.1709 72.4278 62.4599C72.783 62.7731 73.181 63.0524 73.5037 63.3991C74.1771 64.1226 74.2859 65.1156 74.428 66.048L74.4435 66.1488C74.5302 66.7022 74.6078 67.257 74.6778 67.8126C74.7118 68.0828 74.7458 68.3534 74.7735 68.6243L74.782 68.7102C74.8067 68.9754 74.8134 69.2445 74.6586 69.4763C74.493 69.7242 74.1164 69.8111 73.8925 69.5734C73.5078 69.1649 73.5799 68.4394 73.5299 67.914C73.4885 67.4795 73.4416 67.0455 73.3891 66.6122L73.3624 66.3956C73.3005 65.9027 73.2503 65.3999 73.1357 64.9156C73.0347 64.489 72.8423 64.1671 72.5266 63.858C72.2085 63.5468 71.878 63.2562 71.5844 62.9209C71.273 62.5654 70.9921 62.1842 70.739 61.7863C70.5226 61.446 70.349 61.0756 70.1901 60.7057L70.1637 60.6441C70.0101 60.2833 69.7567 59.8137 69.7687 59.4163ZM75.3231 43.921C75.3264 43.8706 75.402 43.8699 75.4031 43.921C75.4126 44.3537 75.4218 44.7865 75.4309 45.2193C75.5044 48.7066 75.4591 52.2022 75.8145 55.6776C75.9822 57.3162 76.2908 58.9307 76.648 60.5385C76.8308 61.3612 77.0225 62.182 77.2047 63.0048C77.3823 63.8067 77.5727 64.6125 77.7135 65.4219C77.8519 66.2173 77.9759 67.0189 78.0315 67.8246L78.0384 67.9297C78.0623 68.32 78.1766 68.894 77.9583 69.24C77.7218 69.6147 77.2689 69.6215 77.0154 69.2637C76.7774 68.9278 76.8366 68.3304 76.7946 67.9297C76.7518 67.5215 76.7066 67.113 76.6553 66.7057C76.5552 65.9112 76.4232 65.1186 76.286 64.3295C76.0002 62.6863 75.5857 61.0638 75.2797 59.4232C74.9662 57.7422 74.7433 56.0491 74.7339 54.3375C74.7245 52.6114 74.9101 50.8886 75.0038 49.1662C75.099 47.417 75.2072 45.669 75.3231 43.921ZM58.5883 33.0741C58.6835 32.7588 59.0191 32.5617 59.3466 32.6503C59.6467 32.7315 59.8944 33.09 59.7771 33.3968C59.6491 33.7315 59.4253 34.017 59.2367 34.3212C59.0624 34.6023 58.8083 34.8237 58.6308 35.0998L58.8264 35.3074C58.9242 35.411 59.0224 35.5139 59.1216 35.615L59.4628 35.9629C59.7284 36.2333 59.9958 36.5022 60.2707 36.7632C61.0791 37.5307 61.9002 38.2731 62.8055 38.9304C63.0116 39.08 63.2193 39.2287 63.4328 39.368L63.5124 39.4199C63.6589 39.5143 63.8223 39.6071 63.9993 39.5911C64.4292 39.5523 64.8177 39.1027 65.1132 38.823L65.1287 38.8084C65.8609 38.1225 66.5389 37.3727 67.1317 36.5664C67.2633 36.3873 67.3908 36.2051 67.5148 36.0208C67.2283 35.6912 67.2967 35.0479 67.2809 34.6482C67.2698 34.3672 67.2689 34.0861 67.2674 33.8049L67.2666 33.7482C67.2631 33.5661 67.2548 33.3916 67.3748 33.2418C67.3817 33.2331 67.3962 33.2334 67.4051 33.2379C67.5695 33.3227 67.6201 33.4647 67.6902 33.6239L67.6976 33.6405C67.7829 33.8316 67.8647 34.0245 67.9474 34.2167C68.0339 34.4179 68.1133 34.6221 68.1938 34.8258C68.2312 34.9205 68.267 35.0157 68.3019 35.1113C68.3232 35.1724 68.3452 35.2331 68.3679 35.2938L68.3732 35.2985C68.4031 35.3234 68.4284 35.3498 68.4502 35.377C68.5419 35.4221 68.6148 35.5044 68.649 35.6253C68.7234 35.8885 68.5694 36.1031 68.432 36.312C67.874 37.1607 67.2379 37.9694 66.5308 38.703C66.1795 39.0675 65.8101 39.4156 65.4254 39.7458L65.3582 39.8031C65.0126 40.0954 64.6375 40.3723 64.176 40.4407C63.636 40.5207 63.1965 40.2563 62.7831 39.9518L62.7418 39.9212C62.3499 39.6291 61.9659 39.3269 61.5938 39.0106C60.8353 38.3659 60.1136 37.6737 59.4731 36.9142C58.8501 36.1755 58.2343 35.3495 57.8503 34.4606C57.8269 34.4064 57.8884 34.3498 57.9367 34.395C58.1242 34.5708 58.3047 34.7561 58.4831 34.9438C58.488 34.6675 58.4362 34.3888 58.465 34.1108C58.5002 33.7729 58.4901 33.3995 58.5883 33.0741Z" fill="black"/>
<path fill-rule="evenodd" clip-rule="evenodd" d="M73.5876 22.8335C73.3885 19.6242 72.3284 15.9856 69.2084 14.4099C62.3301 11.6981 53.2866 18.5271 52.8078 25.5034C52.6409 27.8915 53.9906 30.5009 56.4571 31.1649C57.0055 31.8786 57.8348 32.3145 58.6534 32.6928C68.4029 37.6618 74.7007 33.6225 73.5876 22.8335V22.8335Z" fill="white"/>
<path fill-rule="evenodd" clip-rule="evenodd" d="M75.8084 20.8372C75.4639 19.8971 75.0999 18.9643 74.717 18.0386C74.3441 17.1378 74.0073 16.2174 73.5442 15.3593C70.7783 10.2338 65.7488 10.2338 63.1489 10.9035C61.8007 10.3328 59.2754 10.4938 57.8715 11.0087C55.5987 11.8424 52.8282 15.1217 51.881 16.595C49.7896 19.8481 48.4844 24.1778 49.8736 27.9369C50.0552 28.4282 50.2868 28.8832 50.5475 29.3217C50.3833 29.5404 50.1942 29.7475 49.9848 29.951C49.3626 30.5558 48.7403 31.1407 48.2027 31.8228C47.6685 32.5007 47.2256 33.2216 46.8959 34.0164C46.2743 35.5154 46.2443 37.2127 47.0662 38.643C47.7813 39.8875 49.0479 40.8142 50.475 40.9025C50.5483 40.9126 50.6217 40.9217 50.6954 40.929C50.8844 41.235 51.115 41.5167 51.3781 41.7623C52.1844 42.5156 54.1062 42.902 55.2023 42.9268C55.2585 42.9712 55.3152 43.0155 55.372 43.0594C56.0427 43.5779 56.7465 44.1011 57.5164 44.47C58.038 44.7203 58.7218 44.9292 59.266 44.7486C59.5128 44.9106 59.9178 44.8766 60.1625 44.744C60.5648 44.5263 60.8921 44.1341 61.0911 43.7327C61.5738 42.7581 61.4577 41.6916 61.3338 40.6504C61.1972 39.5003 61.0659 38.3498 60.9325 37.1997C60.828 36.3004 60.7187 35.3861 60.4404 34.5198C60.2964 34.0709 60.1079 33.6396 59.8642 33.234C59.8705 33.2 59.8694 33.1659 59.8595 33.134C59.7796 32.8791 59.6147 32.7454 59.4193 32.5721C59.3941 32.5499 59.3689 32.5272 59.3442 32.504C59.2465 32.3946 59.142 32.2929 59.0301 32.2068C58.9871 32.164 58.9445 32.1206 58.902 32.0773C58.5485 31.7135 58.2145 31.3312 57.9177 30.9215C57.6299 30.5242 57.3699 30.1094 57.1225 29.6869C56.8709 29.2571 56.7044 28.7829 56.4534 28.3562C56.4319 28.3196 56.3772 28.3123 56.3468 28.3428C56.269 28.4217 56.2191 28.5094 56.2286 28.6018L56.1897 28.6075C56.175 28.4682 56.0442 28.3547 55.8667 28.3851C55.6009 28.4305 55.3825 28.4475 55.1524 28.3608C55.1928 28.0972 55.2301 27.833 55.2669 27.5683C55.3341 27.0813 55.3966 26.5927 55.4502 26.1041C55.5799 26.1345 55.7086 26.1784 55.8347 26.2341C56.0143 26.313 56.1839 26.4193 56.3289 26.5498C56.4718 26.6788 56.5705 26.8527 56.7449 26.9425C56.9455 27.0452 57.1876 26.8754 57.1288 26.6525C57.0096 26.2021 56.3347 25.9441 55.9171 25.859C55.7737 25.8296 55.6272 25.8172 55.4807 25.8203C55.5138 25.5066 55.5432 25.1929 55.5673 24.8787C55.5789 24.7301 55.5894 24.5815 55.5994 24.4324C55.924 24.3359 56.2717 24.307 56.6094 24.3524C56.7207 24.4396 56.8321 24.5257 56.9397 24.6129C57.2817 24.8905 57.622 25.1697 57.9582 25.4539C57.9886 25.4792 58.0186 25.5045 58.049 25.5303C58.2486 25.699 58.4976 25.5319 58.4639 25.293C58.1898 23.3354 59.4104 21.7783 60.8395 20.572C62.4215 19.2362 65.2976 19.0806 67.179 16.7668C68.0454 16.94 69.98 17.4546 70.7783 18.7042C71.896 20.4554 71.75 22.0244 71.8351 24.0108C71.9202 25.9988 72.1366 28.0724 71.677 30.0325C71.2531 31.8399 70.1055 33.3842 68.325 34.0941C68.2809 34.1117 68.2363 34.1287 68.1916 34.1452C67.2709 34.4863 66.2661 34.5828 65.2976 34.4032C64.2256 34.204 63.3307 33.7221 62.4388 33.1293C62.3874 33.0958 62.3123 33.1649 62.3511 33.2155C63.5266 34.7458 65.8355 35.2571 67.6669 34.8531C67.7525 34.834 67.8376 34.8134 67.9222 34.7907C67.5125 35.948 67.595 37.2183 68.1286 38.3451C68.4495 39.0231 68.939 39.6097 69.5351 40.0725C70.1922 40.5823 71.0073 40.994 71.4632 41.7097C71.8808 42.3654 71.7568 43.1022 71.042 43.4809C70.8619 43.5769 70.7925 43.887 70.9711 44.0232C71.0394 44.0748 71.1077 44.1274 71.1775 44.179C71.5777 44.4757 72.677 45.0329 72.8551 45.0536C74.436 45.2378 75.4991 44.0975 76.1803 42.7524C76.9802 41.1736 76.7722 39.2496 75.8909 37.7461C75.1839 36.5398 73.7915 35.351 74.3451 33.8243C74.5426 33.2789 74.9465 32.8141 75.3389 32.3941C75.7863 31.9158 76.2675 31.4679 76.6966 30.9726C77.123 30.4809 77.5012 29.9459 77.7123 29.3288C78.0206 28.4269 77.8673 27.4517 77.6357 26.5514C77.1393 24.6186 76.4949 22.7116 75.8084 20.8372Z" fill="black"/>
<path fill-rule="evenodd" clip-rule="evenodd" d="M66.2774 31.5224C65.9237 31.3808 65.6081 31.1446 65.3774 30.8429C65.2972 30.738 65.2764 30.6273 65.2932 30.526C65.3122 30.4121 65.3808 30.3088 65.4745 30.2396C65.5684 30.1701 65.6859 30.1359 65.7995 30.1533C65.8983 30.1685 65.9965 30.2216 66.0743 30.3316L66.0906 30.3536C66.2277 30.5357 66.4064 30.6851 66.6101 30.7814C66.8064 30.8742 67.0259 30.9175 67.2531 30.8923C67.6858 30.8444 67.984 30.6147 68.301 30.3029C68.3403 30.2635 68.3796 30.2229 68.4191 30.1817C68.4441 30.1443 68.4787 30.1202 68.5171 30.1076C68.5598 30.0936 68.6081 30.0944 68.6523 30.1095C68.695 30.1242 68.7331 30.1518 68.7587 30.1887C68.783 30.2237 68.7967 30.2669 68.7923 30.3167C68.7633 30.6399 68.5911 30.9283 68.3465 31.1547C68.0749 31.4062 67.7149 31.5802 67.3759 31.6413C67.0025 31.7085 66.622 31.6603 66.2774 31.5224V31.5224ZM67.5521 26.537C67.9494 26.774 68.5547 27.3266 68.1273 27.9141C67.6242 28.4321 66.8999 27.8382 66.543 27.5696C66.212 27.3614 65.8401 27.8968 66.1472 28.1399C68.7265 30.0138 69.7732 26.599 67.753 26.2584C67.5306 26.2208 67.448 26.4637 67.5521 26.537ZM62.93 24.3571C62.9739 23.8224 63.8037 23.701 63.8863 24.2301C63.9602 24.7041 63.8732 25.1395 63.6556 25.5662C63.4477 25.9739 62.9253 25.7837 62.8858 25.4125C62.8328 24.9149 62.9027 24.6897 62.93 24.3571ZM69.2469 24.1204C69.3626 23.9717 69.5296 23.8702 69.7298 23.9276C70.3551 24.1069 70.1708 24.978 69.9512 25.4021C69.8318 25.6324 69.4461 25.6907 69.2718 25.488C68.9877 25.1574 68.8517 24.4971 69.2128 24.1714C69.2226 24.1545 69.2335 24.1375 69.2469 24.1204ZM63.6468 22.0175L63.7456 22.0005C64.0511 21.9486 64.4311 21.8988 64.6472 22.1399C64.7619 22.2677 64.8013 22.5053 64.6472 22.6277C64.3762 22.843 64.0765 22.7595 63.7517 22.7778C63.484 22.7928 63.2267 22.8363 62.9688 22.9086C62.4031 23.0673 61.9422 23.357 61.459 23.675C61.3957 23.7167 61.3309 23.6371 61.3612 23.579C61.6401 23.0429 62.1806 22.6025 62.722 22.3341C63.0109 22.1908 63.3271 22.072 63.6468 22.0175ZM68.6769 21.7773L68.7525 21.7925C69.5752 21.9613 70.6441 22.2984 71.0337 23.0914C71.0485 23.2035 71.0329 23.2275 71.0201 23.2433L71.0159 23.2485C71.0054 23.2619 70.997 23.2804 70.9474 23.2956C70.9337 23.2924 70.9198 23.289 70.9058 23.2854C70.7272 23.2395 70.5859 23.1762 70.4491 23.1106L70.3008 23.0389C70.1287 22.9561 69.9551 22.8763 69.7712 22.8174C69.3786 22.6917 68.9747 22.6032 68.5646 22.5559C68.4758 22.5457 68.3902 22.5162 68.3226 22.4658C68.2586 22.4179 68.2096 22.3516 68.1873 22.2635C68.1583 22.1494 68.1667 22.0631 68.229 21.9602C68.2759 21.8829 68.343 21.8293 68.42 21.7986C68.4986 21.7672 68.588 21.7598 68.6769 21.7773Z" fill="black"/>
<path fill-rule="evenodd" clip-rule="evenodd" d="M50.2484 69.9798C51.4032 69.9249 50.9387 67.9329 50.8559 67.2014C49.9416 64.5295 50.1565 61.6144 49.7969 58.8139C49.5729 56.1996 49.2851 53.5934 49.043 50.981C48.5675 45.6782 45.1529 34.8831 41.2561 33.147C40.7653 31.023 38.7379 29.0403 36.1727 29.0403C34.4232 26.9981 32.3174 25.5608 29.6164 25.851C28.5003 25.9011 27.4178 27.0685 26.3483 27.2939C25.7495 27.3753 20.4352 27.1657 19.3706 27.7892C18.6291 28.1647 17.9597 28.8585 18.1777 29.7418C18.5256 30.812 17.4445 29.6541 15.1893 30.7963C10.5907 33.5199 13.3386 37.1636 13.4604 37.2765C10.5907 41.214 8.08235 44.4084 6.9218 49.2211C6.16964 52.7942 6.25431 56.4828 5.62411 60.0742C5.4016 61.3195 5.06024 62.5222 4.69085 63.7315C4.29051 65.3142 4.09585 69.2588 3.87519 69.294C3.47324 69.3925 4.1075 70.2063 4.5334 70.207C16.3418 72.1386 28.3362 70.287 40.208 69.9845C43.5537 69.8698 46.9029 69.8433 50.2484 69.9798Z" fill="white"/>
<path fill-rule="evenodd" clip-rule="evenodd" d="M32.3508 37.6242C32.3563 37.5709 32.4292 37.571 32.4348 37.6242L32.5182 38.4179C32.6196 39.3872 32.7172 40.3546 32.788 41.3284C32.8763 42.5428 32.9353 43.7569 32.9638 44.974C33.063 49.2128 33.0827 53.4538 33.091 57.6937C33.6725 57.654 34.254 57.6158 34.8358 57.5788C35.2305 57.5536 35.6253 57.5295 36.02 57.5058L37.0267 57.4456V57.4456L37.4411 57.4205C37.7212 57.4034 38.0394 57.3339 38.2352 57.5785C38.3136 57.6764 38.3529 57.8037 38.2798 57.92C38.1113 58.1881 37.8524 58.1788 37.5595 58.1904C37.2832 58.2014 37.0069 58.2122 36.7306 58.2227C36.1386 58.2454 35.5465 58.2668 34.9543 58.2831C34.3327 58.3003 33.7115 58.3143 33.0902 58.3247C33.0839 60.1146 33.0088 61.9023 32.9276 63.6902L32.8909 64.4948C32.7915 66.6707 32.6846 68.8484 32.5328 71.0213C32.5203 71.1992 32.2651 71.1989 32.2527 71.0213C32.0817 68.5743 31.9689 66.122 31.8571 63.6716C31.7759 61.895 31.7287 60.1179 31.7062 58.3406C31.6241 58.3411 31.542 58.3422 31.4599 58.3425C29.128 58.3525 26.7966 58.3626 24.4647 58.341C24.4686 58.3455 24.4724 58.3501 24.475 58.3561C24.6437 58.7489 24.6598 59.2503 24.6557 59.6719C24.6509 60.1554 24.5849 60.633 24.472 61.1032C24.0674 62.7878 23.0238 64.2965 21.8352 65.5439L21.7964 65.5845C21.516 65.8767 21.1944 66.1702 21.0222 66.5423C20.8464 66.9222 20.7854 67.3666 20.6986 67.7749L20.6885 67.8218L20.3492 69.3672C20.2414 69.858 20.2108 70.5739 19.8168 70.928C19.4492 71.2584 18.9622 71.0859 18.7893 70.6604C18.6542 70.3284 18.7887 69.9637 18.8687 69.6318L19.4956 67.0333C19.5986 66.6095 19.7111 66.183 19.9334 65.8023C20.1612 65.4124 20.495 65.1298 20.8356 64.8406C21.4806 64.2929 22.0728 63.666 22.5736 62.9872C23.0742 62.3086 23.502 61.5606 23.802 60.7741C23.9522 60.3804 24.0753 59.9713 24.1602 59.559C24.2409 59.1676 24.2402 58.7624 24.3266 58.3752C24.3325 58.3485 24.3554 58.3302 24.3816 58.322C24.3754 58.3048 24.3849 58.2814 24.4094 58.2799L26.3165 58.159C28.0118 58.0512 29.7069 57.9406 31.4007 57.8142L31.7 57.7929V57.7929C31.6767 55.4215 31.6964 53.0496 31.7399 50.6773C31.7797 48.5019 31.7805 46.3259 31.8461 44.1508C31.8787 43.0712 31.9491 41.9942 32.0273 40.9169C32.1074 39.8152 32.2356 38.7227 32.3508 37.6242ZM14.4437 50.2378C14.4234 50.117 14.5775 50.0422 14.6485 50.1527C15.4606 51.415 15.8522 52.7861 16.0172 54.2632C16.163 55.5669 16.12 56.8894 16.0474 58.1965C15.97 59.5907 15.8796 60.9844 15.7883 62.3778L15.6479 64.5146V64.5146L15.2957 69.8713C15.2705 70.2545 15.1823 70.6029 14.8477 70.781C14.8054 70.8159 14.7612 70.8472 14.7098 70.8743C14.529 70.9696 14.2893 70.9215 14.1848 70.7386L14.2267 70.7657C14.2632 70.7884 14.2222 70.7568 14.1037 70.6709L14.0031 70.5426V70.5426C13.9301 70.4343 13.8834 70.3278 13.8646 70.199C13.8355 69.999 13.8732 69.7796 13.8865 69.5785L14.1174 66.0659V66.0659C14.2969 63.3352 14.5066 60.6053 14.6647 57.8731C14.7383 56.5998 14.7898 55.3252 14.7549 54.0496C14.7202 52.7811 14.6546 51.4911 14.4437 50.2378ZM21.4689 26.7239L21.514 26.7164C23.127 26.4522 24.8809 26.5016 26.3551 27.2684C26.3672 27.2747 26.3617 27.2947 26.348 27.2941L25.8735 27.2754C24.3714 27.2174 22.874 27.1831 21.397 27.5311L21.2459 27.567C20.714 27.695 20.1585 27.8516 19.7313 28.198C19.3229 28.5292 19.1196 29.04 18.9241 29.5102L18.898 29.5723C18.6996 30.0368 18.4485 30.4773 18.0137 30.7677C17.4506 31.1438 16.7733 31.0977 16.1276 31.1488C14.9906 31.2389 14.061 32.0515 13.5986 33.0458C13.3185 33.6479 13.1991 34.3229 13.1754 34.9813C13.1633 35.3166 13.1615 35.6649 13.2068 35.9978C13.2213 36.1043 13.3548 36.4922 13.4228 36.4829C13.5741 36.4622 13.7123 36.54 13.7595 36.6592C14.133 36.3033 14.5174 35.9577 14.9141 35.6244C15.9029 34.794 16.968 34.0414 18.0896 33.3946C18.9457 32.901 19.8486 32.4119 20.7837 32.0422C20.7096 32.0406 20.6365 32.0551 20.5658 32.0914C20.5349 32.1073 20.5041 32.069 20.5286 32.0437C20.8231 31.7381 21.1758 31.6946 21.5315 31.7761C21.6074 31.7523 21.6833 31.7293 21.7596 31.7074C21.7975 31.6965 21.8164 31.7481 21.7854 31.768L21.6981 31.823V31.823C22.086 31.9512 22.467 32.2031 22.7685 32.4019C23.6348 32.9728 24.3973 33.6708 25.1702 34.3556L25.3108 34.4798C25.9911 35.0789 26.6888 35.661 27.4618 36.1416C27.8665 36.3932 28.2915 36.6259 28.7373 36.7989C29.1196 36.9475 29.7422 37.041 29.9213 37.4395C30.0805 37.6302 30.0139 37.8735 29.8275 38.0018C29.5131 38.3431 28.8842 38.1226 28.5095 37.9805C28.0579 37.8092 27.6203 37.6032 27.203 37.3617C26.3928 36.8927 25.6458 36.3095 24.9499 35.6891C24.2232 35.0412 23.5377 34.3529 22.8308 33.6847C22.5245 33.3951 22.2253 33.0988 21.9186 32.8096L21.7645 32.6657C21.608 32.521 21.3849 32.2953 21.1465 32.1587C20.6972 32.423 20.241 32.6764 19.7958 32.9475C19.1743 33.3259 18.5711 33.7316 17.9772 34.1506C16.8339 34.9574 15.7505 35.8609 14.7447 36.8294C12.9001 38.6055 11.3285 40.6336 9.95557 42.7812L9.85131 42.9448C9.07115 44.174 8.33337 45.4429 7.81025 46.8011C7.23466 48.2957 6.95472 49.8674 6.80265 51.4539C6.65172 53.0291 6.60081 54.6122 6.43213 56.1859C6.25915 57.7998 5.91833 59.3782 5.53066 60.9536L5.4382 61.3271C5.08743 62.738 4.72537 64.1489 4.54506 65.5931C4.4488 66.3645 4.3909 67.1465 4.40399 67.9242C4.41713 68.7064 4.54177 69.4713 4.64233 70.2452C4.68087 70.5418 4.38498 70.7892 4.12022 70.8285C3.81573 70.8736 3.55414 70.6821 3.45949 70.4031C3.16444 69.5336 3.11084 68.5723 3.1201 67.6597C3.12942 66.7331 3.24934 65.8126 3.41808 64.902C3.74994 63.1108 4.26207 61.3567 4.69049 59.587C5.06806 58.0271 5.32147 56.4646 5.45806 54.8666C5.59985 53.2087 5.68476 51.5453 5.94343 49.8994C6.19874 48.2745 6.67915 46.7224 7.40364 45.2408C8.06329 43.8918 8.8856 42.622 9.74769 41.3913C10.7946 39.8968 11.9444 38.4747 13.2297 37.1789C13.1142 37.174 12.9957 37.1372 12.8868 37.0703C12.5537 36.8654 12.3986 36.4646 12.351 36.0987C12.2393 35.2427 12.2663 34.3491 12.4895 33.5122C12.8496 32.1621 13.7843 30.9625 15.1388 30.4759C15.4875 30.3506 15.8581 30.3049 16.2276 30.2959C16.5783 30.2873 16.9612 30.3324 17.2995 30.2228C17.838 30.0482 18.0688 29.4228 18.271 28.9487L18.2803 28.9269C18.5396 28.3227 18.8508 27.8049 19.4123 27.4277C20.0114 27.0251 20.7621 26.8421 21.4689 26.7239V26.7239ZM36.7951 29.1131C37.2798 28.9473 37.8858 29.0978 38.3598 29.2426C38.8879 29.4041 39.3759 29.7014 39.7942 30.0546C40.2356 30.427 40.6004 30.8868 40.8581 31.4005L40.8828 31.45C41.1182 31.9265 41.3862 32.5807 41.2675 33.1042C41.2641 33.119 41.2603 33.1333 41.2558 33.1472C42.2175 33.614 43.1057 34.1988 43.8791 34.9399C44.7797 35.8029 45.5422 36.7849 46.1876 37.8457C48.7505 42.0592 49.2016 47.1196 49.5043 51.9248L49.5798 53.1432C49.7442 55.7741 49.9365 58.3988 50.4362 60.9933L50.4726 61.1806C51.0067 63.8972 51.7713 66.6345 51.6938 69.4212C51.6706 70.2562 50.4193 70.2505 50.383 69.4212C50.2464 66.2998 49.5078 63.2861 49.0076 60.2135C48.1275 54.8078 48.5685 49.2347 47.3215 43.8831C46.8321 41.783 46.074 39.7458 44.9915 37.8711C44.4568 36.945 43.845 36.0501 43.1283 35.2512C42.5117 34.5637 41.8709 33.9021 41.1504 33.3242C40.9201 33.5516 40.4601 33.4357 40.3398 33.1042C40.2573 32.8763 40.2813 32.6099 40.2283 32.3712C40.1792 32.1497 40.1113 31.9301 40.021 31.7215C39.8409 31.3058 39.5766 30.9066 39.2714 30.5701C38.9418 30.2065 38.5629 29.9043 38.1389 29.6548C37.7121 29.4036 37.2452 29.3286 36.7951 29.1451C36.7799 29.1389 36.7785 29.1188 36.7951 29.1131ZM38.6782 58.0033C38.6789 57.9814 38.7052 57.971 38.7213 57.9857C38.8912 58.1399 38.9939 58.3612 39.119 58.5509C39.2633 58.7696 39.4147 58.9838 39.5735 59.1925C39.8918 59.6107 40.246 60.0047 40.6031 60.3909C40.9352 60.75 41.2892 61.0939 41.6564 61.4181C42.0542 61.7695 42.5 62.0829 42.8614 62.4719C43.6156 63.2836 43.7375 64.3977 43.8966 65.4438L43.914 65.557C44.0111 66.1778 44.098 66.8003 44.1764 67.4236C44.2145 67.7269 44.2525 68.0304 44.2836 68.3344L44.2931 68.4307C44.3208 68.7283 44.3282 69.0302 44.1549 69.2902C43.9694 69.5684 43.5476 69.6659 43.2968 69.3992C42.866 68.9409 42.9468 68.127 42.8907 67.5374C42.8444 67.0499 42.7919 66.5631 42.7331 66.0769L42.7032 65.8339C42.6338 65.2808 42.5776 64.7167 42.4493 64.1733C42.3362 63.6947 42.1206 63.3335 41.767 62.9868C41.4108 62.6375 41.0406 62.3115 40.7118 61.9354C40.363 61.5365 40.0484 61.1087 39.765 60.6623C39.5225 60.2805 39.3282 59.865 39.1502 59.45L39.1206 59.3808C38.9485 58.9761 38.6648 58.4492 38.6782 58.0033ZM44.8991 40.6181C44.9029 40.5616 44.9875 40.5607 44.9887 40.6181C44.9994 41.1036 45.0097 41.5891 45.0199 42.0747C45.1021 45.9874 45.0515 49.9093 45.4495 53.8086C45.6373 55.6471 45.983 57.4585 46.383 59.2624C46.5877 60.1854 46.8025 61.1063 47.0065 62.0295C47.2054 62.9292 47.4186 63.8332 47.5764 64.7413C47.7314 65.6338 47.8702 66.5332 47.9325 67.4371L47.9402 67.5551C47.967 67.9929 48.0951 68.637 47.8506 69.0251C47.5857 69.4456 47.0784 69.4531 46.7945 69.0517C46.528 68.6749 46.5943 68.0046 46.5472 67.5551C46.4993 67.0971 46.4487 66.6387 46.3912 66.1817C46.2791 65.2904 46.1313 64.401 45.9776 63.5158C45.6575 61.6722 45.1933 59.8518 44.8506 58.0111C44.4994 56.125 44.2497 54.2254 44.2392 52.3051C44.2288 50.3684 44.4366 48.4355 44.5415 46.5031C44.6481 44.5405 44.7693 42.5793 44.8991 40.6181ZM26.1562 28.4483C26.2627 28.0945 26.6387 27.8734 27.0054 27.9728C27.3415 28.0638 27.619 28.4661 27.4876 28.8103C27.3442 29.1859 27.0936 29.5061 26.8824 29.8475C26.6872 30.1629 26.4026 30.4113 26.2038 30.7211L26.4228 30.954C26.5324 31.0702 26.6423 31.1856 26.7535 31.2991L27.1356 31.6894C27.4331 31.9928 27.7326 32.2945 28.0405 32.5873C28.9458 33.4484 29.8655 34.2813 30.8794 35.0188C31.1103 35.1866 31.3429 35.3535 31.582 35.5098L31.6712 35.5681C31.8352 35.674 32.0183 35.7781 32.2164 35.7602C32.698 35.7165 33.1331 35.2122 33.4641 34.8983L33.4814 34.8819C34.3015 34.1125 35.0609 33.2711 35.7248 32.3665C35.8722 32.1656 36.0149 31.9611 36.1539 31.7543C35.8329 31.3846 35.9096 30.6628 35.8919 30.2144C35.8794 29.8991 35.8784 29.5837 35.8767 29.2682L35.8758 29.2046C35.8719 29.0003 35.8626 28.8045 35.997 28.6364C36.0048 28.6267 36.021 28.627 36.031 28.6321C36.2151 28.7272 36.2718 28.8865 36.3503 29.0652L36.3585 29.0837C36.4541 29.2981 36.5457 29.5146 36.6383 29.7302C36.7353 29.956 36.8242 30.1851 36.9143 30.4136C36.9562 30.5199 36.9963 30.6266 37.0354 30.7339C37.0593 30.8025 37.0839 30.8706 37.1093 30.9387L37.1152 30.9439C37.1487 30.9719 37.1771 31.0015 37.2015 31.032C37.3042 31.0827 37.3859 31.175 37.4242 31.3107C37.5075 31.6059 37.335 31.8467 37.1811 32.0811C36.5561 33.0333 35.8437 33.9406 35.0517 34.7637C34.6583 35.1727 34.2445 35.5632 33.8137 35.9337L33.7384 35.998C33.3514 36.326 32.9312 36.6366 32.4144 36.7134C31.8096 36.8031 31.3173 36.5065 30.8543 36.1648L30.8081 36.1305C30.3692 35.8028 29.9391 35.4636 29.5224 35.1089C28.6728 34.3855 27.8645 33.6088 27.1472 32.7567C26.4494 31.9279 25.7597 31.0012 25.3296 30.0039C25.3034 29.9431 25.3723 29.8795 25.4263 29.9303C25.6364 30.1275 25.8386 30.3354 26.0383 30.546C26.0439 30.236 25.9858 29.9234 26.0181 29.6114C26.0575 29.2323 26.0461 28.8134 26.1562 28.4483Z" fill="black"/>
<path fill-rule="evenodd" clip-rule="evenodd" d="M32.0436 6.43457C35.4363 6.43457 39.8157 8.53332 40.1892 10.6828C40.6293 13.216 42.9859 22.9359 42.4538 26.053C41.9216 29.17 39.0539 31.4139 34.4651 31.4139C29.8762 31.4139 26.4512 28.9461 25.6648 28.0987C24.8783 27.2514 23.4209 24.2262 23.4209 24.2262C23.4209 24.2262 20.964 23.904 20.9523 21.9289C20.9407 19.9538 22.5497 19.2352 22.5497 19.2352C22.5497 19.2352 21.976 11.4408 23.4209 9.41153C24.8658 7.38223 28.6509 6.43457 32.0436 6.43457Z" fill="white"/>
<path fill-rule="evenodd" clip-rule="evenodd" d="M39.9815 10.3361C39.9791 10.2908 40.046 10.2855 40.0585 10.3255C40.7905 12.7102 41.2417 14.5686 41.7166 17.0134L41.8569 17.7326C42.2318 19.6507 42.6105 21.5717 42.9303 23.4992L42.949 23.6142C43.1092 24.612 43.2016 25.6194 43.0008 26.6192C42.8131 27.5537 42.3005 28.4105 41.6348 29.0928C40.3484 30.4116 38.5606 31.2353 36.7621 31.6036C35.8527 31.7898 34.9146 31.8617 33.9878 31.7968C33.5259 31.765 33.0647 31.7007 32.6124 31.6059L32.5624 31.5954C32.1065 31.4983 31.7018 31.3825 31.4597 30.9595C31.3988 30.8529 31.4233 30.6702 31.5512 30.6154C31.7926 30.5128 31.97 30.4699 32.2335 30.4993C32.485 30.5276 32.7307 30.6025 32.9792 30.649C33.4543 30.738 33.937 30.7827 34.4204 30.7934C35.3699 30.814 36.3217 30.6967 37.2294 30.4174C38.7888 29.9372 40.3735 29.0186 41.2847 27.6445C42.3566 26.028 41.9298 24.0662 41.6457 22.281L41.6372 22.227C41.3496 20.4023 41.0653 18.5777 40.7893 16.7518L40.6716 15.9693C40.3621 13.9016 40.07 12.4256 39.9815 10.3361ZM24.1479 5.27513C24.9263 4.76922 25.8935 4.6449 26.8077 4.65189L26.9222 4.65331C28.0928 4.6709 33.9853 4.80919 35.9582 4.85174L36.4275 4.86149C37.0487 4.87305 38.3015 4.88511 38.947 4.89675L38.9843 4.89743C39.3009 4.90332 39.6176 4.90568 39.9343 4.9157L39.9807 4.91735C40.218 4.92733 40.4153 4.96234 40.6011 5.12724C40.6956 5.21081 40.7325 5.33827 40.7238 5.45968L40.7224 5.47548L41.1927 5.51613C41.512 5.54397 41.6808 5.82638 41.554 6.11217L41.5476 6.126C41.3223 6.59975 41.1503 7.97857 41.0296 8.48826C40.9662 8.75637 40.9154 9.0286 40.8855 9.30259C40.8617 9.51831 40.8593 9.73451 40.7374 9.92424C40.4774 10.329 39.7461 10.3255 39.7329 9.75218C39.7323 9.73392 39.7329 9.71624 39.7347 9.69915C37.8944 9.6196 35.3818 9.62726 33.5439 9.73568C31.8272 9.83703 30.1183 10.0668 28.4363 10.4186C28.0103 10.5076 27.5854 10.6048 27.1636 10.7103C26.8176 10.7963 26.3928 10.8476 26.0833 11.032C25.7367 11.2394 25.7433 11.6112 25.7809 11.9654C25.8213 12.3407 25.8887 12.1473 25.9842 12.4894L25.9901 12.511C26.0887 12.8822 26.2106 13.2493 26.3719 13.5982C26.4639 13.7973 26.6121 13.9888 26.5559 14.218C26.5242 14.3471 26.4208 14.485 26.3259 14.5751C25.8932 14.9846 25.1619 14.7236 24.8679 15.2846C24.5603 15.8711 24.5526 16.6657 24.5265 17.3148L24.525 17.3528C24.5059 17.8 24.5112 18.2484 24.5411 18.6945C24.568 19.101 24.6779 19.5035 24.5369 19.8942C24.4341 20.1782 24.0983 20.2047 23.9227 19.9737C23.9025 19.9472 23.884 19.92 23.8667 19.8927L23.8498 19.8653L23.8486 19.8659C23.8653 19.8918 23.8808 19.9184 23.8958 19.9455C23.9119 19.9755 23.8719 20.0085 23.8474 19.9826C23.4339 19.5389 22.8298 19.6273 22.3619 19.9378C21.8881 20.2536 21.7011 20.8535 21.6766 21.3915C21.6491 21.9883 21.7029 22.6878 21.955 23.2393C22.0614 23.4726 22.2131 23.6871 22.4647 23.7761C22.5789 23.8162 22.6876 23.8109 22.8065 23.8203C22.9301 23.8297 23.079 23.891 23.199 23.8828C23.3551 23.8718 23.4952 24.0475 23.4509 24.1947L23.4476 24.2045C23.4453 24.2116 23.4429 24.2186 23.4405 24.2251C23.4464 24.2304 23.4524 24.2369 23.4566 24.2463C23.9107 25.1614 24.5333 25.9757 25.2217 26.7311C25.5665 27.1088 25.9488 27.4559 26.3486 27.777C26.5458 27.9355 26.7537 28.0941 26.973 28.2219C27.0459 28.2637 27.1127 28.292 27.1947 28.3151C27.2329 28.3256 27.2765 28.3309 27.3136 28.3433L27.352 28.3563C27.3547 28.3571 27.3572 28.3579 27.3596 28.3586C27.4695 28.371 27.5621 28.4429 27.5986 28.5554C27.6936 28.8489 27.5209 29.1081 27.2257 29.1889C26.9059 29.2771 26.6046 29.1222 26.3511 28.9444L26.3342 28.9325C25.8174 28.5655 25.3412 28.1536 24.9289 27.6727C24.1133 26.7235 23.6023 25.6245 23.3658 24.4089C23.3072 24.5333 23.2283 24.6417 23.0915 24.7171C22.8788 24.835 22.6249 24.835 22.3918 24.7955C21.9228 24.7171 21.523 24.4349 21.2559 24.053C20.9786 23.6571 20.8753 23.1763 20.8126 22.7078C20.7504 22.2387 20.72 21.768 20.7821 21.2978C20.8712 20.6225 21.1586 19.9549 21.7172 19.5848C21.299 18.6862 21.2255 17.6786 21.2553 16.6946C21.2918 15.4831 21.5039 14.2581 21.667 13.0578L22.1308 9.64553V9.64553L22.1497 9.50797C22.2616 8.70522 22.3979 7.89823 22.7025 7.14185C23.0031 6.39646 23.4596 5.72237 24.1479 5.27513ZM22.1964 21.418C22.9625 21.0514 23.79 21.3891 24.2023 22.1003C24.5608 22.7186 23.495 23.1274 23.3171 22.49L23.312 22.4703C23.1949 21.9877 22.718 21.5706 22.2203 21.5057C22.1791 21.4999 22.1486 21.441 22.1964 21.418Z" fill="black"/>
<path fill-rule="evenodd" clip-rule="evenodd" d="M34.048 26.0366C33.6463 25.875 33.2879 25.6055 33.0259 25.2611C32.9348 25.1414 32.9112 25.015 32.9303 24.8994C32.9518 24.7694 33.0298 24.6516 33.1362 24.5726C33.2428 24.4933 33.3763 24.4542 33.5053 24.4741C33.6174 24.4915 33.729 24.552 33.8174 24.6775L33.8358 24.7026C33.9916 24.9105 34.1946 25.081 34.4259 25.1909C34.6488 25.2968 34.8981 25.3463 35.1561 25.3175C35.6475 25.2628 35.9862 25.0007 36.3462 24.6448C36.3908 24.5999 36.4355 24.5535 36.4803 24.5065C36.5087 24.4638 36.548 24.4363 36.5916 24.422C36.6401 24.406 36.6949 24.4069 36.7452 24.4242C36.7936 24.4408 36.8369 24.4724 36.8659 24.5145C36.8935 24.5544 36.9092 24.6038 36.9041 24.6606C36.8712 25.0294 36.6756 25.3585 36.3979 25.617C36.0894 25.904 35.6805 26.1026 35.2956 26.1723C34.8715 26.249 34.4393 26.194 34.048 26.0366V26.0366ZM35.4956 20.3469C35.9469 20.6174 36.6344 21.2481 36.149 21.9186C35.5776 22.5098 34.755 21.8319 34.3496 21.5253C33.9737 21.2877 33.5514 21.8988 33.9001 22.1763C36.8294 24.3149 38.0181 20.4176 35.7239 20.0289C35.4713 19.9861 35.3774 20.2633 35.4956 20.3469ZM30.2464 17.8591C30.2963 17.2489 31.2387 17.1103 31.3325 17.7142C31.4164 18.2551 31.3176 18.752 31.0705 19.239C30.8344 19.7043 30.2411 19.4872 30.1962 19.0635C30.136 18.4956 30.2154 18.2387 30.2464 17.8591ZM37.4204 17.5889C37.5518 17.4192 37.7415 17.3034 37.9688 17.3689C38.679 17.5735 38.4696 18.5677 38.2202 19.0517C38.0847 19.3145 37.6467 19.3811 37.4487 19.1497C37.1261 18.7724 36.9716 18.0188 37.3818 17.6471C37.3929 17.6279 37.4052 17.6085 37.4204 17.5889ZM31.0605 15.1889L31.1727 15.1696C31.5197 15.1104 31.9512 15.0535 32.1967 15.3286C32.3269 15.4745 32.3717 15.7457 32.1967 15.8853C31.8888 16.131 31.5485 16.0358 31.1796 16.0566C30.8756 16.0738 30.5834 16.1234 30.2905 16.206C29.6481 16.3871 29.1246 16.7176 28.5759 17.0806C28.5039 17.1282 28.4304 17.0374 28.4648 16.971C28.7815 16.3592 29.3953 15.8566 30.0102 15.5503C30.3383 15.3868 30.6974 15.2511 31.0605 15.1889ZM36.7731 14.9149L36.8589 14.9322C37.7933 15.1248 39.0072 15.5095 39.4497 16.4146C39.4665 16.5425 39.4487 16.57 39.4342 16.5879L39.4294 16.5938C39.4175 16.6091 39.4079 16.6302 39.3517 16.6477C39.3361 16.644 39.3203 16.6401 39.3044 16.636C39.1016 16.5836 38.9411 16.5114 38.7858 16.4364L38.6173 16.3546C38.4219 16.2601 38.2247 16.1691 38.0158 16.1018C37.5699 15.9584 37.1113 15.8574 36.6456 15.8034C36.5447 15.7918 36.4475 15.7582 36.3708 15.7006C36.298 15.6459 36.2424 15.5703 36.217 15.4697C36.1842 15.3395 36.1936 15.241 36.2644 15.1235C36.3177 15.0354 36.3939 14.9742 36.4814 14.9391C36.5706 14.9033 36.6721 14.8949 36.7731 14.9149Z" fill="black"/>
</svg>
