<svg width="74" height="88" viewBox="0 0 74 88" fill="none" xmlns="http://www.w3.org/2000/svg">
<g clip-path="url(#clip0_259_6231)">
<path fill-rule="evenodd" clip-rule="evenodd" d="M30.5096 43.5707C33.7237 43.3367 38.1304 43.9845 39.06 47.7107C39.3483 49.0667 39.9164 49.6618 40.8707 50.5486C46.9285 58.4321 25.7928 59.7572 24.7063 52.0697C22.4173 52.9174 19.9256 53.0969 17.6353 53.9536C16.3931 54.4202 15.2667 55.1564 14.1873 55.9261C9.78574 59.1048 5.44649 62.3741 1.06063 65.5755C2.75784 66.3702 5.98465 69.4042 4.66979 71.443C4.3635 71.8401 3.90885 72.1139 3.50666 72.4042L3.29458 72.5581C2.83833 72.8905 2.07029 73.4572 1.64557 73.7651L1.56725 73.8231C1.53653 73.8457 1.50189 73.871 1.4706 73.8938C4.5334 78.4467 8.11789 82.6477 12.094 86.3985C12.4325 86.7185 12.2938 87.434 11.8038 87.5173L11.2201 87.6045C9.33517 87.8836 7.41444 88.1348 5.51496 87.9832C3.665 87.7786 2.55022 86.1136 1.28556 84.9075C-1.23986 82.2829 -3.59072 79.4833 -5.73198 76.5257L-5.77657 76.4633C-6.443 75.5374 -7.32755 74.591 -7.39229 73.3954C-7.51036 73.0359 -7.19965 72.5208 -6.90109 72.2757L-6.79917 72.1261C-5.1979 69.7846 -3.38565 67.5265 -1.11514 65.8307C-1.12359 65.578 -1.00869 65.3124 -0.781186 65.145L8.7078 58.1629V58.1629C11.1561 56.4498 13.4318 54.4365 16.0855 53.0531C18.7991 51.7247 21.8614 51.6725 24.6422 50.5638C24.7011 49.7647 26.3534 49.5607 26.3013 49.6841C28.0446 48.6142 28.942 47.3413 29.2189 46.1713C29.4956 45.0013 29.1516 43.9344 30.5096 43.5707ZM53.9752 68.638C56.9093 64.1491 59.7061 69.1157 60.9276 72.1091C62.3708 76.2055 59.3821 81.2446 57.4513 84.7761C56.7401 85.7568 55.8048 87.8254 54.5513 87.9754C51.3933 87.9623 48.2308 87.7362 45.0709 87.6688C43.0305 87.1541 45.8932 84.0365 47.8707 85.1753C48.4698 85.4032 48.7692 86.0948 49.3534 86.3167C49.5663 86.3629 49.5809 86.2663 49.6675 86.0508L49.6798 86.0207C49.8342 85.6477 49.9839 85.2728 50.1359 84.8988C51.4224 81.6775 52.7825 78.4846 54.1349 75.2931C54.4238 74.6001 54.0186 74.0292 53.4919 73.6168C53.0885 73.2793 51.3548 72.4553 52.9883 72.818C52.3593 71.3335 53.1151 69.8267 53.9752 68.638ZM46.6905 62.4932C46.973 62.4573 47.3358 62.7467 47.3793 63.0272C47.7397 65.3517 47.3382 67.6499 46.8569 69.9238L46.7683 70.3401C46.5907 71.1695 46.3924 72.0151 45.9496 72.742C45.4977 73.4839 44.8142 74.043 44.0295 74.3829C41.5121 75.4029 38.3814 74.3942 36.5295 72.4872C35.3447 70.8372 36.3863 68.7645 36.5851 66.9561C36.3971 66.4688 36.3279 65.9052 36.2192 65.4028L36.206 65.3428L35.7837 63.4686C35.6906 63.0552 35.9869 62.4895 36.4738 62.5463C39.8686 62.9422 43.2999 62.9244 46.6905 62.4932Z" fill="white"/>
<path fill-rule="evenodd" clip-rule="evenodd" d="M58.5466 68.0507C58.5364 68.0045 58.5909 67.9691 58.6262 68.0039C59.2235 68.5891 59.6452 69.3371 60.1082 70.0302C60.5491 70.6904 61.0289 71.3251 61.3578 72.0536C61.6633 72.7308 61.8604 73.4178 61.9191 74.1621C61.9778 74.9009 61.9017 75.6416 61.7735 76.3693C61.5213 77.8031 60.9822 79.1607 60.3904 80.4794C59.8149 81.7613 59.1648 83.0067 58.4782 84.2295L58.2321 84.666C57.932 85.1975 57.6285 85.728 57.3036 86.2429C56.8993 86.8837 56.5303 87.5451 55.9971 88.0799C55.6185 88.4606 54.9051 88.0799 55.0776 87.5359C55.1525 87.2991 55.2112 87.0761 55.3274 86.8562C55.4155 86.6887 55.5149 86.5261 55.6084 86.3611C55.7953 86.031 55.9804 85.6997 56.1672 85.3695C56.5596 84.6758 56.9729 83.9949 57.3617 83.2987C58.0362 82.0916 58.673 80.8618 59.236 79.5962L59.3023 79.4468C59.8204 78.2749 60.3114 77.0609 60.5389 75.7932C60.7785 74.4575 60.5641 73.1986 60.0974 71.9433C59.856 71.294 59.5847 70.6594 59.3025 70.0271L59.2483 69.9064C58.9758 69.303 58.687 68.7028 58.5466 68.0507ZM29.5449 44.9477C29.5503 44.924 29.5898 44.9221 29.5934 44.9477C29.7612 46.0819 29.388 47.2817 28.78 48.2251C28.4481 48.7404 28.039 49.2057 27.5568 49.5797L27.5192 49.6085C27.0266 49.9829 26.361 50.3445 25.7495 50.1017C25.7303 50.0943 25.7124 50.0858 25.6956 50.0761C25.7645 50.1845 25.828 50.2984 25.8927 50.4122C26.085 50.7515 26.2575 51.1029 26.445 51.4452C26.7804 52.0573 27.18 52.6049 27.6849 53.0842C29.7042 55.0005 32.5396 55.456 35.2023 55.4342L35.3904 55.4324C36.56 55.424 38.0897 55.4847 38.9927 54.624C39.4779 54.1617 39.7451 53.5045 39.9865 52.8875C40.2237 52.2827 40.386 51.6584 40.5831 51.0432C40.1716 50.7564 39.7942 50.4062 39.4977 49.9969C39.1886 49.5705 38.9549 49.0906 38.8202 48.5784L38.8003 48.5018C38.6961 48.0934 38.5913 47.553 38.7591 47.1672C38.7782 47.1227 38.8501 47.1257 38.8705 47.1672C38.9609 47.3517 38.9783 47.56 39.034 47.7573C39.0987 47.987 39.1718 48.2154 39.2682 48.4328C39.4545 48.8543 39.7007 49.255 39.996 49.6058C40.2399 49.8963 40.504 50.1631 40.8059 50.3873C40.9838 50.0748 41.3966 50.0328 41.7422 50.1357C42.2055 50.2733 42.6625 50.45 43.1092 50.6367L43.1984 50.6741C43.6399 50.8605 44.1389 51.0317 44.5522 51.2856C44.8032 51.4075 45.044 51.5299 45.2704 51.6383C46.3987 52.1772 47.5102 52.749 48.6167 53.3319L48.8538 53.457C49.3174 53.7024 49.7769 53.9503 50.18 54.2926C50.5904 54.641 50.909 55.1173 51.2085 55.5637C51.8932 56.5845 52.5384 57.6345 53.2153 58.6608C54.5822 60.7316 55.9492 62.8025 57.324 64.8684C57.6564 65.3685 58.0314 65.8563 58.3297 66.3777C58.6155 66.8759 58.6077 67.3875 58.552 67.9436L58.5415 68.0457C58.4347 69.0657 58.2511 70.0454 57.6882 70.9201C56.8022 72.2953 55.4065 73.1517 53.9299 73.7412C54.1102 73.8777 54.2797 74.0251 54.4948 74.1189C54.8254 74.2626 55.1783 74.337 55.5359 74.3668C55.9175 74.3979 56.3475 74.301 56.6566 74.5647C56.7806 74.67 56.7842 74.9234 56.6566 75.0288C56.3595 75.2754 55.9754 75.2047 55.6133 75.1634L55.5916 75.161C55.2555 75.1232 54.9243 75.0599 54.6086 74.9344C54.5307 74.9033 54.4534 74.8686 54.3786 74.8303C54.381 74.837 54.3822 74.8449 54.381 74.8534C54.327 75.273 54.2101 75.6698 54.0867 76.0708L54.0084 76.3249C53.849 76.8438 53.6885 77.3615 53.5232 77.8792C53.2085 78.8648 52.8658 79.841 52.5219 80.816L52.2251 81.6574C51.9202 82.5205 51.6114 83.3824 51.2702 84.2312C51.0594 84.7549 50.8473 85.2788 50.6359 85.802C50.4292 86.313 50.2573 86.8648 50.0009 87.3514C49.7901 87.7522 49.215 87.4652 49.3072 87.0536C49.4283 86.5134 49.6565 85.9774 49.8308 85.4517C50.0081 84.9182 50.1818 84.384 50.3621 83.8517C50.6757 82.9269 51.023 82.0145 51.3721 81.1029L51.7181 80.1992C52.0574 79.3138 52.4008 78.4292 52.7678 77.5553L52.8079 77.4595C53.1892 76.5453 53.5828 75.5174 54.2755 74.809C54.2845 74.7993 54.2971 74.7943 54.3097 74.7931C54.1396 74.6993 53.9802 74.5854 53.84 74.4508L53.8332 74.4438C53.7778 74.3842 53.5489 74.0902 53.4752 73.9142C53.3794 73.9489 53.2836 73.9824 53.1877 74.0153C53.0206 74.0726 52.8822 74.0312 52.7846 73.9404L52.5986 74.0574C52.3997 74.1809 52.1859 74.298 51.9663 74.304C51.6896 74.3113 51.4721 74.156 51.3242 73.927C51.1912 73.7224 51.1121 73.5013 50.9438 73.318C50.7783 73.1378 50.5867 72.9857 50.3909 72.8405L50.1602 72.6698C49.7371 72.3557 49.3269 72.0384 48.9862 71.6235C48.8148 71.414 48.5854 71.1655 48.4812 70.9139C48.4608 70.8653 48.4482 70.8196 48.4459 70.7751C48.4231 70.9322 48.3997 71.09 48.3764 71.2471C48.0493 73.4586 47.7851 75.6854 47.7007 77.9219C47.6593 79.0248 47.6408 80.1291 47.6893 81.2327C47.7132 81.784 47.7528 82.3345 47.8073 82.8839C47.8343 83.1592 47.8624 83.4339 47.8954 83.708L47.903 83.7715C47.9125 83.8555 47.9187 83.9367 47.9115 84.0137C48.1751 84.1458 48.3266 84.4797 48.4321 84.7404C48.5123 84.9389 48.45 85.132 48.3207 85.2715C48.4752 85.4146 48.613 85.5827 48.7286 85.7751C48.752 85.8141 48.7016 85.8446 48.6717 85.8202C48.4818 85.6667 48.2775 85.5407 48.0643 85.4438C47.9523 85.4871 47.8301 85.4986 47.7174 85.467C47.5952 85.4329 47.4898 85.35 47.4137 85.2447C46.8081 85.1436 46.1786 85.2672 45.6334 85.6527C45.5202 85.7331 45.4178 85.8239 45.3202 85.9225C45.3034 85.9397 45.286 85.9615 45.2686 85.9828L45.3876 86.0293C45.4368 86.0483 45.4773 86.0632 45.4927 86.0663C45.5965 86.0878 45.7019 86.0993 45.8074 86.1086L45.9653 86.1217C46.5721 86.1729 47.1771 86.1899 47.7414 86.4482C47.86 86.5024 47.8187 86.6881 47.7067 86.7191C47.2946 86.8328 46.8857 86.824 46.4663 86.7936L46.3762 86.7868C45.9863 86.7564 45.5676 86.7582 45.1872 86.6486C45.2782 86.9019 45.1542 87.2326 44.7738 87.2844C43.6315 87.4391 42.482 87.3661 41.3385 87.2637C40.1835 87.1602 39.0292 87.0621 37.8713 87.0007C34.1258 86.8003 30.3746 86.8388 26.6258 86.8932L24.5073 86.9243C22.8179 86.9486 21.1281 86.9674 19.4387 86.9543L18.6479 86.9468C18.3137 86.9435 17.9793 86.9393 17.6455 86.9294L17.4453 86.9226C17.0475 86.908 16.521 86.9689 16.1753 86.7295C15.8902 86.5322 15.8267 86.1704 15.9986 85.8788C16.0483 85.7946 16.1166 85.7197 16.1879 85.6466C16.3341 84.3768 16.4161 83.1008 16.5 81.8254C16.7911 77.3622 16.621 72.9221 15.9495 68.5039C14.1477 69.0637 12.3733 69.7659 10.6446 70.5193C9.7095 70.9268 8.77922 71.3495 7.85972 71.7929C7.02049 72.1979 6.17766 72.704 5.28093 72.9671C5.19941 73.0407 5.08544 73.0757 4.98434 73.043L4.97123 73.0384H4.97063C4.87839 73.0603 4.77595 73.0469 4.67532 72.9854C4.65495 72.9729 4.63458 72.9603 4.61422 72.9473L4.58367 72.9275C4.26798 72.7253 3.9505 72.4762 3.72706 72.1717C3.45571 72.4275 3.16398 72.6621 2.87705 72.8995C2.56556 73.1578 2.25527 73.4172 1.94737 73.6791C1.82517 73.7833 1.69039 73.8826 1.58257 74.0025L1.5669 74.0202C1.5644 74.023 1.562 74.0259 1.5598 74.0287C2.02644 74.3357 2.43497 74.8016 2.80098 75.2067C3.194 75.6414 3.57343 76.0899 3.94975 76.5402L4.31407 76.977C6.89024 80.07 9.49277 83.2752 12.828 85.5486C13.3551 85.9079 12.8526 86.7832 12.329 86.4159C11.3382 85.7222 10.4008 84.9517 9.50044 84.141C7.92261 82.7213 6.50293 81.1286 5.1737 79.4689C4.501 78.6289 3.84807 77.7684 3.20831 76.9023L2.99118 76.6085C2.70183 76.2167 2.41401 75.8236 2.13846 75.4217L2.08081 75.3374C1.83911 74.9828 1.58208 74.5844 1.42622 74.1761C1.36632 74.2376 1.29863 74.2893 1.19979 74.3284C1.03087 74.3954 0.823605 74.2547 0.782272 74.0872C0.681637 73.681 1.02907 73.4392 1.31181 73.2235C1.65505 72.9629 2.00488 72.7113 2.3553 72.461L2.48048 72.371C2.91869 72.055 3.35921 71.7307 3.83669 71.481C3.85106 71.4615 3.86843 71.4433 3.8882 71.4274C3.91096 71.4091 3.93313 71.3915 3.95589 71.3738C3.38562 70.4334 2.76024 69.5296 2.06238 68.6756C1.53764 68.0332 0.980549 67.4198 0.391111 66.8387L0.12632 66.578C-0.274209 66.1847 -0.690668 65.7858 -1.1352 65.444L-1.27436 65.6044C-1.46018 65.8181 -1.64784 66.0301 -1.84624 66.2309C-2.2368 66.6256 -2.62197 67.0282 -3.00534 67.4307C-3.64202 68.1005 -4.25713 68.7909 -4.87029 69.4823L-5.1768 69.828C-5.81536 70.5485 -6.49944 71.2557 -7.07989 72.0255L-7.10888 72.0644C-7.36229 72.41 -7.54268 72.7925 -7.42493 73.2315C-7.31131 73.6547 -7.04117 74.03 -6.80832 74.3954L-6.78517 74.4319C-5.83452 75.9375 -4.81619 77.4048 -3.72537 78.8087C-1.54073 81.6208 0.951197 84.286 3.92474 86.2411C4.33687 86.5121 3.9517 87.1857 3.53897 86.9117C1.80241 85.7575 0.207212 84.3713 -1.26039 82.8827C-2.60759 81.5166 -3.8284 80.0122 -4.97253 78.4682C-5.53022 77.7148 -6.06455 76.9455 -6.57671 76.1593C-7.0733 75.3961 -7.64776 74.6111 -8.00778 73.7693C-8.19645 73.3265 -8.26595 72.8471 -8.11141 72.3806C-7.96967 71.9518 -7.68938 71.5958 -7.39778 71.2608L-7.37042 71.2295C-6.70011 70.4639 -6.01782 69.7074 -5.32955 68.9583C-4.63888 68.2067 -3.91646 67.4819 -3.17906 66.7784C-2.59981 66.2248 -1.99599 65.7369 -1.35025 65.285C-1.40835 65.243 -1.46646 65.2028 -1.52576 65.1638C-1.70606 65.0444 -1.75159 64.7892 -1.59345 64.6272C-1.16155 64.1837 -0.663766 63.7982 -0.195331 63.3945C0.24495 63.015 0.685231 62.635 1.12551 62.2549C2.02165 61.4826 2.91779 60.7097 3.81392 59.9368C5.42349 58.5487 7.02408 57.1509 8.62826 55.7568C9.29717 55.1756 9.97232 54.6017 10.6457 54.0261L11.8422 53.0024V53.0024L12.4273 52.5028C12.7272 52.2475 13.0334 51.995 13.3743 51.8003C14.1765 51.3421 15.141 51.1439 16.0249 50.9011L16.0837 50.8849C17.0751 50.609 18.0718 50.3495 19.074 50.1181C20.0774 49.8866 21.0849 49.6759 22.0967 49.4852C23.006 49.3135 23.9369 49.1661 24.8642 49.1442C25.0942 49.0553 25.3829 49.0242 25.6093 49.1192C25.7028 49.1588 25.8004 49.2167 25.8873 49.2897C26.3407 49.1277 26.7882 49.0504 27.2117 48.7763C27.6346 48.5029 28.009 48.1435 28.3241 47.7476C28.9752 46.9278 29.3161 45.9594 29.5449 44.9477ZM39.9685 72.7083C39.6091 72.6828 39.2856 72.8337 38.9645 72.9945C39.1454 73.0743 39.3263 73.1535 39.5072 73.2321L40.7113 73.7547V73.7547C41.109 73.927 41.5301 74.0769 41.9081 74.2894C41.9351 74.3046 41.9566 74.3229 41.9728 74.3442C42.3658 74.0885 42.7815 73.8601 43.1798 73.617C43.2709 73.5616 43.3626 73.5062 43.4542 73.4507C42.9798 73.6121 42.4934 73.6931 41.9782 73.5415C41.2911 73.3399 40.6945 72.7601 39.9685 72.7083ZM40.9533 71.4828L40.8887 71.4382C40.5401 71.1951 40.1241 70.8826 39.7007 71.101C39.5013 71.2039 39.3377 71.3702 39.1412 71.481C38.9436 71.5931 38.7261 71.679 38.5057 71.7307C38.1397 71.8166 37.7204 71.8294 37.3268 71.7465L37.3328 72.2874V72.2874C37.6305 72.4123 37.9264 72.5402 38.2223 72.6693C38.4145 72.6025 38.5994 72.5223 38.7938 72.4343L38.925 72.3745C39.2994 72.2033 39.6774 72.0889 40.0913 72.1431C40.8706 72.2448 41.4595 72.8338 42.2046 73.0299C43.1182 73.2711 43.9424 72.5779 44.8056 72.4068C44.9479 72.3783 45.0946 72.3616 45.2404 72.359L45.289 72.3587L45.3106 72.3459C45.4963 72.235 45.7742 72.1291 45.9036 71.9427C46.0444 71.7405 46.0564 71.4018 46.1025 71.1643C46.1073 71.1406 46.1121 71.1162 46.1163 71.0924C46.0348 71.0924 45.9521 71.0966 45.8683 71.1125C45.6047 71.1619 45.3567 71.2569 45.1111 71.3629C44.6469 71.5632 44.1928 71.7916 43.704 71.925C43.2254 72.0559 42.7252 72.1181 42.2322 72.0456C41.7512 71.9749 41.3516 71.7545 40.9533 71.4828ZM41.0283 69.5813L40.9561 69.534C40.7657 69.4105 40.5474 69.2825 40.3141 69.328C40.1057 69.3688 39.9266 69.5375 39.7451 69.6416C39.3467 69.87 38.8998 69.9949 38.444 70.0266C38.0648 70.0528 37.6712 70.0059 37.3064 69.8914L37.319 71.0888V71.0888C37.4526 71.132 37.591 71.1631 37.7365 71.174C38.1786 71.2075 38.6099 71.0997 38.9807 70.8519L39.1683 70.7252C39.4893 70.5108 39.7905 70.3406 40.2153 70.4189C40.6358 70.4968 40.9886 70.7708 41.3325 71.0096L41.3888 71.0481C41.7837 71.3131 42.184 71.4843 42.6683 71.4883C43.1912 71.4925 43.7082 71.3446 44.1952 71.1625C44.6786 70.9823 45.1381 70.766 45.655 70.6996C45.8131 70.6795 46.006 70.6734 46.1875 70.7051C46.2115 70.5692 46.2343 70.4341 46.2558 70.2982C46.3026 70.0065 46.3427 69.7153 46.3774 69.4236C45.4603 69.1727 44.6133 69.9845 43.7615 70.2349C43.2673 70.3798 42.7294 70.3781 42.2352 70.2379C41.7779 70.1082 41.4185 69.8388 41.0283 69.5813ZM41.0306 67.5647C40.8347 67.5264 40.6412 67.6183 40.4747 67.7127C40.05 67.9522 39.6834 68.2853 39.2023 68.4113C38.5836 68.5733 37.9067 68.4339 37.2921 68.1689C37.2945 68.5386 37.2975 68.9083 37.3004 69.278C37.4161 69.3226 37.5347 69.3584 37.6557 69.3871C38.0858 69.4869 38.5416 69.4735 38.9651 69.3475C39.397 69.2189 39.7283 68.8718 40.1614 68.7634C40.6042 68.6521 41.0217 68.8685 41.3786 69.1145L41.486 69.189C41.894 69.4705 42.2896 69.7151 42.8001 69.7628C43.3398 69.8134 43.8088 69.6416 44.291 69.4139L44.4033 69.3611C45.0138 69.076 45.8063 68.7514 46.4158 69.0758C46.4637 68.6154 46.4984 68.155 46.5218 67.6939C46.4379 67.6622 46.3511 67.639 46.251 67.6384C46.012 67.6373 45.761 67.714 45.5382 67.7937C45.0512 67.9685 44.5977 68.2292 44.1155 68.4162C43.6585 68.594 43.1523 68.6866 42.6647 68.6069C42.213 68.5331 41.874 68.2932 41.5619 67.9643L41.5166 67.9157C41.3797 67.7676 41.2333 67.6047 41.0306 67.5647ZM41.3882 65.8551C41.1623 65.7339 40.8874 65.6212 40.6262 65.6565C40.377 65.6899 40.211 65.8618 40.0575 66.0456L39.9744 66.1461C39.6999 66.4764 39.4297 66.754 39.0065 66.8899C38.568 67.03 38.1031 66.9752 37.6952 66.7699C37.5502 66.6968 37.4155 66.6061 37.2801 66.5165L37.2873 67.4879V67.4879C37.558 67.625 37.8336 67.7487 38.1361 67.8236C38.6944 67.9618 39.1688 67.8595 39.6462 67.5465L39.6963 67.5133C40.0559 67.2732 40.4246 66.9873 40.8688 66.9605C41.3023 66.9342 41.6276 67.1785 41.9131 67.4775L41.9465 67.513C42.3065 67.899 42.6701 68.0873 43.2056 68.0428C43.7248 67.9997 44.2107 67.7666 44.6863 67.5658L44.7295 67.5477C45.1644 67.3661 45.6658 67.1792 46.1432 67.2486C46.2576 67.2651 46.4056 67.301 46.5374 67.3637C46.5565 66.9093 46.5655 66.4544 46.5673 65.9988C46.296 65.7595 45.8737 65.7199 45.534 65.8179C45.0021 65.9714 44.5666 66.3673 44.0586 66.5823C43.6082 66.7729 43.1385 66.8156 42.6791 66.6352C42.2046 66.4489 41.8326 66.0938 41.3882 65.8551ZM46.5374 63.9414C45.7425 63.9694 44.9649 64.495 44.206 64.6954C43.3582 64.9191 42.6662 64.6142 41.911 64.2757L41.8135 64.232C41.4259 64.059 41.0096 63.9036 40.5801 63.9743C40.1614 64.0438 39.7912 64.2794 39.4312 64.4926L39.3622 64.533C38.7063 64.9126 38.0385 65.1725 37.2729 65.1077C37.2771 65.352 37.2753 65.5956 37.2759 65.8344C37.4017 65.9075 37.5227 65.9903 37.6377 66.0658L37.679 66.0924C38.044 66.3245 38.4203 66.477 38.8555 66.3338C39.276 66.1949 39.4737 65.8228 39.7624 65.5164C40.0278 65.2351 40.374 65.064 40.7622 65.0804C41.1797 65.0973 41.5745 65.2844 41.9195 65.5128C42.2645 65.7412 42.5982 66.0365 43.0019 66.1511C43.9077 66.4068 44.6834 65.433 45.54 65.2813C45.8994 65.2174 46.296 65.2984 46.5673 65.5188C46.5643 64.9939 46.5529 64.4676 46.5374 63.9414ZM39.6953 63.7209C39.5833 63.7252 39.4713 63.7301 39.3593 63.7349C38.9448 63.7532 38.5302 63.7739 38.1157 63.7977C37.8288 63.8134 37.476 63.903 37.1944 63.8141C37.1872 63.8433 37.1777 63.8714 37.1651 63.8988C37.2076 64.1144 37.234 64.3373 37.2501 64.5627C37.5101 64.5913 37.7743 64.5815 38.0307 64.5273C38.6459 64.3976 39.1454 64.0029 39.6953 63.7209ZM46.5254 63.54C45.0117 63.646 43.4864 63.6096 41.9702 63.6429L41.7883 63.6472C41.7811 63.6472 41.7739 63.6479 41.7668 63.6479C41.9406 63.7164 42.1131 63.7948 42.2851 63.8747L42.4568 63.9548C42.863 64.1448 43.2763 64.3001 43.731 64.2666C44.218 64.2307 44.6768 64.0286 45.1321 63.8653C45.5664 63.7094 46.0665 63.6046 46.5296 63.6728C46.5284 63.6283 46.5272 63.5845 46.5254 63.54Z" fill="black"/>
<path fill-rule="evenodd" clip-rule="evenodd" d="M46.8253 33.1094C46.7972 31.494 46.7661 29.8464 46.5309 28.2467C46.3009 26.6829 45.6682 25.2692 44.5811 24.1336C42.2718 21.7214 38.9245 21.1322 35.8088 20.5923L30.4817 19.6691C28.8565 19.3875 27.1227 18.9374 25.4807 19.3367C24.6716 19.5335 23.9845 19.9907 23.3565 20.5316C22.7512 21.0529 22.1003 21.6127 21.6902 22.3141C21.2793 23.0165 21.138 23.8376 21.0044 24.632C20.8537 25.5277 20.7367 26.4303 20.6536 27.3351C20.4869 29.1479 20.4642 30.9743 20.5851 32.7909C20.6436 33.672 20.7368 34.5505 20.8557 35.4252C20.9147 35.8589 20.9814 36.2916 21.0567 36.7227C21.0788 36.8498 21.0957 36.9906 21.1185 37.1328C20.9504 37.6207 20.8549 38.1259 20.8626 38.629C20.8853 40.111 22.1106 41.044 23.3458 41.5449C24.062 41.8354 24.8108 42.0327 25.5145 42.3572C26.2548 42.6985 26.7587 43.2518 27.2649 43.8829C28.2302 45.0867 29.3196 46.1686 30.5635 47.0713C33.2008 48.9851 36.5412 49.8902 39.7411 49.2032C40.5089 49.0384 41.2835 48.7824 41.9736 48.3967C42.7023 47.9895 43.2502 47.3994 43.7103 46.7018C44.5646 45.4066 45.1773 43.9483 45.6408 42.4642C46.1135 40.9504 46.4491 39.4338 46.6321 37.8553C46.8145 36.2819 46.8529 34.6925 46.8253 33.1094V33.1094Z" fill="white"/>
<path fill-rule="evenodd" clip-rule="evenodd" d="M29.8265 14.0419C32.031 13.7324 35.0736 14.7385 36.1715 16.7672C41.4129 15.5057 48.0236 15.4644 52.3436 19.6637C56.8513 24.6451 51.1894 31.213 47.435 32.6938C47.7084 34.05 47.2822 42.7379 44.2665 46.6132C41.8732 49.8967 36.2997 51.412 33.7207 47.4901L33.7006 47.4578C33.4243 47.0048 33.6623 47.0194 33.9459 47.3563C36.4713 49.6235 39.905 49.6622 42.551 47.2696C47.51 42.8962 46.9987 32.1731 44.6389 25.9696C37.9196 25.2162 30.7254 27.2953 26.0844 32.4588L26.3983 34.3876C26.4517 34.7162 26.5125 35.0445 26.5588 35.3742C26.5885 35.5855 26.5918 35.7956 26.4484 35.9667C25.975 36.5313 25.177 35.6828 24.5205 35.3454C24.3267 35.3175 24.1325 35.3068 23.9421 35.3205C20.7877 35.7353 21.4092 41.982 24.8761 40.887C25.1673 40.7018 25.4176 40.7583 25.5306 41.0271C26.3569 41.7998 26.9018 43.1779 28.2747 44.5053C28.7591 45.0032 29.1999 45.4198 29.7448 45.8192C30.0648 46.1496 31.0305 46.4865 30.7244 47.0519C30.1455 48.3384 26.7317 44.2971 26.1282 43.1795C24.2371 43.9419 22.1414 43.6829 20.1817 43.4966C9.84317 42.9478 11.2233 31.8223 19.6976 24.7982C21.2928 23.5994 23.0527 22.6214 24.8822 21.8688C25.132 21.766 25.0228 21.3474 24.7695 21.4516C23.559 21.9496 22.379 22.5424 21.2541 23.2285L21.2524 22.8183C21.2507 22.1275 21.2613 21.4082 21.3789 20.7769C21.4376 20.3395 21.5365 19.8723 21.6886 19.5209C21.8767 18.4434 24.8231 14.7448 29.8265 14.0419ZM23.8041 36.7546C23.9637 36.5998 24.2617 36.7844 24.4038 36.7798C24.7673 36.8306 25.1125 36.9872 25.3818 37.1806C25.5595 37.2823 25.6841 37.3778 25.7883 37.4656L25.7911 37.4648C25.7903 37.4648 25.7893 37.4656 25.7885 37.4658L25.7983 37.4726C25.9499 37.5825 26.5048 38.2019 26.1542 38.0353C26.1281 38.0006 26.1013 37.9673 26.0743 37.9347C26.0714 37.9391 26.0674 37.9435 26.0626 37.9478L26.0823 37.9776C26.3803 38.4353 25.8658 37.9531 25.7866 37.8251C25.7829 37.8282 25.7786 37.8303 25.7745 37.8325L25.8776 37.9606C25.892 37.9788 25.9033 37.9933 25.9127 38.0056L25.9344 38.027C26.279 38.3727 26.2898 38.6839 25.8895 38.1727C25.9052 38.1968 25.9179 38.2223 25.9196 38.245L25.9433 38.2758C26.2576 38.6893 26.002 38.5424 25.8458 38.3659L25.8328 38.3507L25.8354 38.3548C25.9807 38.5833 25.6924 38.423 25.6415 38.3007L25.6394 38.2952C25.5838 38.249 25.5497 38.1971 25.538 38.184L25.5358 38.1818C25.2656 37.8991 24.8738 37.6599 24.5411 37.5513C24.4928 37.5419 24.444 37.5344 24.3947 37.5291C24.1946 37.4835 23.9923 37.4523 23.7879 37.4354C23.7629 37.4324 23.7376 37.4136 23.7186 37.3894C23.4095 37.3788 23.5049 37.2494 23.6332 37.2254L23.6354 37.225L23.61 37.2228C23.4116 37.203 23.2762 37.1304 23.4767 37.0858L23.5021 37.0806C23.499 37.0757 23.4963 37.0707 23.4936 37.0657C23.3218 37.0464 23.4339 36.876 23.5293 36.9172C23.4891 36.7833 23.6725 36.8502 23.6954 36.8303C23.7128 36.8105 23.7345 36.7931 23.747 36.7921C23.8023 36.7523 23.7755 36.7559 23.8041 36.7546ZM24.8551 34.5867L24.8149 34.6107C24.7823 34.6301 24.7488 34.643 24.7152 34.6505C24.7627 34.6712 24.8096 34.6935 24.856 34.7172C24.8552 34.6882 24.8547 34.6591 24.8547 34.6301L24.8551 34.5867Z" fill="black"/>
<path fill-rule="evenodd" clip-rule="evenodd" d="M40.0223 43.8024C39.495 43.9531 38.9289 43.9665 38.3913 43.8109C37.9038 43.6698 37.4031 43.3592 37.0443 42.9482C36.7255 42.5832 36.5191 42.1395 36.5272 41.6659C36.5281 41.6118 36.5477 41.5666 36.5779 41.5316C36.6104 41.4939 36.6557 41.468 36.7043 41.4567C36.7543 41.4452 36.8071 41.4493 36.8521 41.4694C36.8928 41.4877 36.9277 41.5186 36.9495 41.5639C37.0046 41.6354 37.0596 41.7058 37.1147 41.7742C37.5581 42.3143 37.9875 42.7179 38.6543 42.8626C39.0161 42.9412 39.3774 42.9063 39.7089 42.7865C40.0637 42.6582 40.3845 42.4326 40.6359 42.1439C40.7495 42.0135 40.8836 41.9602 41.0148 41.9593C41.1634 41.9583 41.3103 42.0264 41.421 42.1353C41.5298 42.2423 41.6026 42.3878 41.6092 42.5399C41.615 42.6734 41.5708 42.8129 41.4534 42.9373C41.0664 43.3471 40.5649 43.6474 40.0223 43.8024ZM40.006 37.0385C40.5466 37.3626 41.3703 38.1184 40.7888 38.9219C40.1042 39.6303 39.1186 38.818 38.633 38.4506C38.1826 38.1659 37.6766 38.8982 38.0945 39.2307C41.604 41.7935 43.0282 37.1233 40.2795 36.6574C39.9768 36.6061 39.8644 36.9382 40.006 37.0385ZM34.9491 35.6124C34.7754 35.5028 34.571 35.4652 34.3445 35.5668C34.1675 35.6462 33.857 35.9109 33.6409 36.2588C33.4931 36.4969 33.3883 36.7761 33.4101 37.067C33.4152 37.1346 33.3899 37.1844 33.35 37.2212C33.3184 37.2503 33.2729 37.2717 33.2194 37.2783C33.174 37.284 33.1232 37.2789 33.0818 37.2662C33.0032 37.242 32.9616 37.1917 32.9459 37.1506C32.7947 36.7543 32.8598 36.3121 33.0294 35.9132C33.2582 35.3748 33.6737 34.9238 33.946 34.7784C34.4118 34.5295 34.9614 34.518 35.428 34.7716C35.8251 34.9874 36.0734 35.3358 36.3204 35.691C36.3729 35.7665 36.425 35.8414 36.4789 35.9151C36.5868 36.0626 36.5975 36.2089 36.5557 36.3344C36.5094 36.4734 36.3914 36.5907 36.2437 36.6521C36.1073 36.7089 35.9489 36.7168 35.8088 36.6585C35.6904 36.6093 35.5817 36.5133 35.513 36.3504C35.3972 36.076 35.2043 35.7733 34.9491 35.6124V35.6124ZM43.7735 36.2228C43.6545 36.2839 43.5614 36.3023 43.4294 36.2633C43.3564 36.2417 43.2842 36.2003 43.2277 36.1446C43.1718 36.0893 43.1314 36.0207 43.1157 35.9445C43.0771 35.7565 42.9728 35.5806 42.8242 35.4658C42.6972 35.3678 42.5369 35.3158 42.359 35.3451C42.1671 35.3767 41.9843 35.4981 41.8584 35.6412C41.8163 35.6891 41.7833 35.7435 41.7502 35.7975C41.6881 35.8985 41.6278 35.9924 41.5423 36.0666C41.5098 36.0949 41.461 36.1144 41.4136 36.1144C41.3944 36.1144 41.3749 36.1113 41.3563 36.1056C41.1653 35.9165 41.1286 35.7731 41.1347 35.6308C41.1412 35.4816 41.2008 35.3306 41.2972 35.1897C41.5232 34.8591 41.9524 34.588 42.242 34.5266C42.6386 34.4425 43.0326 34.5435 43.3484 34.762C43.6733 34.9868 43.9141 35.3359 43.9892 35.7292C44.0072 35.824 43.9996 35.9262 43.963 36.0149C43.9272 36.1016 43.8649 36.1758 43.7735 36.2228ZM35.8239 32.0877C35.5858 32.3164 35.3041 32.3519 35.0191 32.3834C34.8607 32.401 34.7343 32.4153 34.6099 32.443C34.268 32.5191 33.93 32.6338 33.6217 32.7989C33.2993 32.9715 32.9481 33.1797 32.6953 33.4464C32.6352 33.5099 32.5786 33.5765 32.5219 33.6432C32.4701 33.7041 32.4203 33.7627 32.3678 33.8192C32.3075 33.884 32.2502 33.952 32.1933 34.0199C32.158 34.0771 32.1511 34.0912 32.144 34.1058C32.1333 34.1279 32.1209 34.1525 32.1067 34.1789C32.0873 34.2151 32.0645 34.2548 32.0407 34.2907C32.0011 34.3564 31.9798 34.3745 31.9614 34.3826C31.9309 34.396 31.902 34.4026 31.8739 34.399C31.8476 34.3956 31.8228 34.3832 31.7984 34.3628C31.6762 34.2609 31.6401 34.0938 31.6438 33.9164C31.6494 33.6472 31.7501 33.3491 31.8429 33.1659C32.0587 32.7401 32.358 32.2975 32.7178 31.9797C33.1284 31.617 33.5777 31.3424 34.0937 31.1532C34.4144 31.0356 34.7856 30.9276 35.135 30.9412C35.3865 30.951 35.6265 31.0248 35.8248 31.2089C35.9465 31.3219 36.0049 31.4827 36.0049 31.6433C36.0049 31.8072 35.9442 31.972 35.8239 32.0877ZM44.2575 34.1823C44.2424 34.2068 44.2215 34.2237 44.1981 34.2338C44.1737 34.2444 44.1464 34.2475 44.1202 34.2431C44.0942 34.2388 44.0694 34.2271 44.0497 34.2093C44.0309 34.1923 44.0166 34.1696 44.0101 34.1419C43.8521 33.4573 43.5453 32.9479 42.8903 32.6194C42.5681 32.4579 42.1977 32.3552 41.8469 32.2733C41.745 32.2496 41.6373 32.2341 41.5289 32.2185C41.189 32.1696 40.8467 32.1135 40.6251 31.8425C40.4916 31.6793 40.4355 31.4705 40.4672 31.2796C40.497 31.0999 40.6035 30.935 40.7971 30.8363C41.2791 30.5905 41.878 30.8317 42.3647 31.0371C42.4008 31.0524 42.4363 31.0673 42.471 31.0818C42.9469 31.2799 43.381 31.5415 43.7379 31.9156C44.021 32.2123 44.2833 32.6511 44.389 33.1024C44.4769 33.4779 44.4562 33.8612 44.2575 34.1823Z" fill="black"/>
<g clip-path="url(#clip1_259_6231)">
<mask id="mask0_259_6231" style="mask-type:alpha" maskUnits="userSpaceOnUse" x="31" y="44" width="49" height="45">
<path d="M33.8102 44.2387L79.5547 47.3247L76.8514 88.315L31.1068 85.2289L33.8102 44.2387Z" fill="#D9D9D9"/>
</mask>
<g mask="url(#mask0_259_6231)">
<path d="M50.1706 60.8159C48.1074 52.8106 50.3455 51.7754 50.3455 51.7754L53.9129 59.8319C52.8698 59.9648 51.2263 60.1596 50.1836 60.8643L50.1706 60.8159Z" fill="white"/>
<path d="M-14.187 98.5562C-14.1673 96.16 -12.7736 93.9029 -10.8315 92.5338C-8.88927 91.1646 -6.44641 90.6964 -4.05083 90.813C0.957762 91.0898 5.65573 94.208 7.90723 98.7303C8.57355 100.053 9.02695 101.539 9.96704 102.735C10.5241 103.464 11.3681 104.114 12.2508 104.337C13.1759 103.197 15.2177 101.437 19.7986 99.7535C27.3392 97.0426 39.8382 91.7643 43.4594 86.3439C47.0937 80.972 46.1836 69.0611 46.1836 69.0611C46.1836 69.0611 41.5593 60.5173 39.937 54.521C39.937 54.521 46.3219 57.7958 49.1336 61.5395C49.3072 61.2316 49.5417 60.9586 49.8981 60.7562C50.9538 60.0999 52.584 59.8567 53.6275 59.7238C55.8705 59.4671 58.245 60.2654 58.5201 61.8523L65.9047 59.7046C65.9047 59.7046 65.6656 59.7708 65.6571 59.9291C65.6353 60.039 65.7093 60.1224 65.7354 60.2193C66.0014 60.8214 66.5886 61.2824 67.2541 61.4623C67.8717 61.6551 68.6016 61.505 69.1229 61.1529C69.0205 63.0526 68.171 65.9904 64.791 69.2645C58.8445 75.0168 60.9277 76.2593 60.9277 76.2593C60.9277 76.2593 68.8782 90.068 66.9776 99.3784C65.077 108.688 63.923 111.451 64.3413 112.998C64.7602 114.546 71.0429 130.739 71.0429 130.739C71.0429 130.739 75.9033 130.277 74.3997 131.369C72.8833 132.412 69.6665 132.679 69.6665 132.679L56.3671 111.827C56.3671 111.827 50.3229 125.766 50.9026 127.529C51.4822 129.292 52.4332 133.187 52.4332 133.187C52.4332 133.187 55.7676 132.784 54.6074 133.625C53.4473 134.465 50.4218 134.679 50.4218 134.679L47.9882 125.685L47.6273 110.295L38.6766 111.213L30.7691 111.998C30.7691 111.998 32.1889 125.224 21.7936 129.92C21.6981 129.946 21.6502 129.96 21.5546 129.986C10.9288 134.59 11.5344 146.325 11.5344 146.325C11.5344 146.325 15.1036 146.221 14.5701 147.668L10.1187 148.121C10.1187 148.121 4.00279 134.064 14.5043 126.531C14.5043 126.531 15.3464 124.895 15.3012 122.829C15.2735 121.017 12.3634 108.932 11.6393 106.066C8.6207 104.406 6.04003 101.327 2.58355 101.088C0.318324 100.883 -1.84578 102.002 -3.94046 102.997C-6.00036 103.931 -8.38645 104.799 -10.5304 104.093C-12.783 103.365 -14.3154 100.931 -14.2479 98.5211L-14.187 98.5562Z" fill="white"/>
<path d="M50.2806 60.6192C48.1696 52.6271 50.4557 51.5786 50.4557 51.5786L54.023 59.6353C52.9795 59.7682 51.3365 59.963 50.2937 60.6677L50.2806 60.6192Z" stroke="black" stroke-linecap="round" stroke-linejoin="round"/>
<path d="M-13.8657 98.3844C-13.846 95.9877 -12.4523 93.7311 -10.5102 92.362C-8.56798 90.9929 -6.12512 90.5247 -3.72954 90.6413C1.27905 90.9181 5.97703 94.0358 8.22853 98.5586C8.89484 99.8816 9.34824 101.367 10.2883 102.562C10.8454 103.292 11.6894 103.942 12.5721 104.166C13.4972 103.026 15.539 101.265 20.1199 99.5813C27.6605 96.8709 40.1595 91.5921 43.7807 86.1717C47.415 80.7998 46.5049 68.8893 46.5049 68.8893C46.5049 68.8893 41.8806 60.3455 40.2583 54.3491C40.2583 54.3491 46.6432 57.6236 49.4548 61.3678C49.6285 61.0598 49.863 60.7869 50.2193 60.5844C51.2753 59.9282 52.9055 59.685 53.9486 59.5521C56.1916 59.2949 58.566 60.0932 58.8416 61.6806L66.2262 59.5329C66.2262 59.5329 65.9872 59.5986 65.9786 59.7569C65.9568 59.8672 66.0308 59.9507 66.0569 60.0471C66.3225 60.6492 66.9097 61.1107 67.5752 61.2901C68.1927 61.4834 68.9232 61.3333 69.4444 60.9807C69.3415 62.8804 68.492 65.8186 65.1125 69.0927C59.1656 74.8451 61.2492 76.0875 61.2492 76.0875C61.2492 76.0875 69.1992 89.8963 67.2986 99.2062C65.3981 108.517 64.2441 111.279 64.6629 112.826C65.0812 114.373 71.3645 130.567 71.3645 130.567C71.3645 130.567 76.2243 130.105 74.7212 131.197C73.2048 132.241 69.988 132.507 69.988 132.507L56.6882 111.655C56.6882 111.655 50.644 125.594 51.2241 127.357C51.8037 129.12 52.7547 133.015 52.7547 133.015C52.7547 133.015 56.0887 132.611 54.929 133.452C53.7688 134.293 50.7431 134.507 50.7431 134.507L48.3095 125.513L47.9486 110.124L38.9978 111.041L31.0904 111.827C31.0904 111.827 32.5102 125.052 22.1149 129.748C22.0193 129.774 21.9715 129.788 21.8759 129.814C11.2501 134.418 11.8557 146.153 11.8557 146.153C11.8557 146.153 15.4249 146.049 14.8914 147.496L10.44 147.949C10.44 147.949 4.32408 133.892 14.8256 126.36C14.8256 126.36 15.6676 124.723 15.6224 122.657C15.5948 120.845 12.6847 108.76 11.9606 105.894C8.94199 104.235 6.36131 101.154 2.90483 100.915C0.639604 100.711 -1.52451 101.83 -3.61917 102.825C-5.67907 103.759 -8.06516 104.627 -10.2091 103.921C-12.4617 103.194 -13.9941 100.759 -13.9266 98.3494L-13.8657 98.3844Z" stroke="black" stroke-linecap="round" stroke-linejoin="round"/>
<path d="M66.0523 59.8401C66.0523 59.8401 66.2174 59.6904 66.2999 59.6161C67.2168 59.2059 68.2209 58.9281 69.225 58.6504C69.5646 59.3359 69.6306 60.1495 69.5139 60.8576L69.5528 61.0025L69.5054 61.0159C68.9362 61.381 68.2404 61.4697 67.6361 61.3253C66.9706 61.1454 66.4313 60.671 66.1178 60.0819C66.0917 59.9854 66.0651 59.8885 66.0391 59.7921L66.0523 59.8401Z" fill="#A5A4A4" stroke="black" stroke-linecap="round" stroke-linejoin="round"/>
<path d="M53.6697 63.2671C54.0221 63.4297 54.1616 63.7549 54.3489 64.0668C54.4011 64.2606 54.4665 64.5023 54.2536 64.665C54.2536 64.665 54.1711 64.7398 54.1364 64.8017C53.9714 64.9509 53.6583 64.9336 53.4971 64.7187C53.4582 64.5733 53.3709 64.4414 53.3794 64.2831C53.3533 64.1867 53.4226 64.0634 53.4444 63.9535C53.405 63.8082 53.3657 63.6633 53.3268 63.5184C53.2741 63.3246 53.4525 63.2234 53.6223 63.2805L53.6697 63.2671Z" fill="black"/>
<path d="M65.1385 69.1895C65.1385 69.1895 58.7903 73.0776 55.7148 71.0181" stroke="black" stroke-linecap="round" stroke-linejoin="round"/>
<path d="M62.6209 78.3064C62.6209 78.3064 50.2022 80.6522 45.9562 77.3052L45.8408 79.7282C45.8408 79.7282 54.1696 83.3482 63.1398 80.0338L62.6688 78.2934L62.6209 78.3064Z" fill="#E5B3B3"/>
<path d="M62.5157 77.9201C62.5157 77.9201 50.0967 80.2655 45.8507 76.9189L45.7354 79.3415C45.7354 79.3415 54.0639 82.962 63.0342 79.6476L62.5632 77.9067L62.5157 77.9201Z" stroke="black" stroke-linecap="round" stroke-linejoin="round"/>
</g>
</g>
</g>
<defs>
<clipPath id="clip0_259_6231">
<rect width="74" height="88" fill="white"/>
</clipPath>
<clipPath id="clip1_259_6231">
<rect width="68" height="78" fill="white" transform="translate(3 10)"/>
</clipPath>
</defs>
</svg>
