<svg width="162" height="88" viewBox="0 0 162 88" fill="none" xmlns="http://www.w3.org/2000/svg">
<path fill-rule="evenodd" clip-rule="evenodd" d="M87.0554 86.9077C88.0422 86.8603 87.6451 85.1418 87.5746 84.5105C86.7928 82.2056 86.977 79.6909 86.6694 77.2755C86.478 75.02 86.2318 72.7717 86.0247 70.5182C85.6185 65.9437 82.699 56.6313 79.368 55.1337C78.948 53.3014 77.2146 51.591 75.022 51.591C73.5264 49.8293 71.7259 48.5894 69.4168 48.8398C68.4626 48.883 67.5371 49.89 66.6228 50.0845C66.1109 50.1547 61.5676 49.9739 60.6575 50.5118C60.0236 50.8357 59.4513 51.4342 59.6377 52.1962C59.9351 53.1194 59.0109 52.1204 57.0829 53.1058C53.1514 55.4554 55.5007 58.5986 55.6048 58.6959C53.1514 62.0926 51.007 64.8483 50.0149 69C49.3719 72.0823 49.4442 75.2642 48.9055 78.3627C48.7153 79.4369 48.4234 80.4741 48.1077 81.5172C47.7654 82.883 47.599 86.2855 47.4103 86.316C47.0667 86.4011 47.6089 87.1031 47.973 87.1031C58.0681 88.7697 68.3223 87.1726 78.4719 86.9116C81.332 86.8128 84.1953 86.7895 87.0554 86.9077Z" fill="white"/>
<path fill-rule="evenodd" clip-rule="evenodd" d="M71.7541 58.9956C71.7588 58.9495 71.8211 58.9497 71.8259 58.9956L71.8972 59.6802C71.9839 60.5164 72.0674 61.3509 72.1279 62.191C72.2034 63.2386 72.2538 64.2859 72.2782 65.3358C72.3632 68.9924 72.3795 72.651 72.3867 76.3083C72.8838 76.2745 73.3814 76.2414 73.8785 76.2096C74.2161 76.1875 74.5532 76.1667 74.8908 76.1466L75.7517 76.0946L76.1057 76.0725C76.3454 76.0582 76.6171 75.9978 76.7849 76.2089C76.8515 76.2933 76.8855 76.4031 76.8228 76.5038C76.6785 76.735 76.4577 76.7272 76.2069 76.7369C75.9711 76.7467 75.7347 76.7558 75.4983 76.7648C74.9921 76.7843 74.4859 76.8025 73.9797 76.8168C73.4487 76.8317 72.9171 76.8441 72.3861 76.8525C72.3808 78.3969 72.3168 79.9387 72.2472 81.4812L72.2158 82.1755C72.1309 84.0524 72.0395 85.9313 71.9097 87.8056C71.899 87.9589 71.6808 87.9589 71.6703 87.8056C71.5241 85.6949 71.4276 83.579 71.332 81.4656C71.2626 79.9329 71.2223 78.3995 71.2031 76.8668C71.1328 76.8668 71.0626 76.8681 70.9925 76.8681C68.9989 76.8765 67.0058 76.8856 65.0122 76.8668C65.0155 76.8707 65.0188 76.8746 65.021 76.8798C65.1652 77.2188 65.179 77.6514 65.1755 78.0151C65.1714 78.432 65.115 78.8438 65.0184 79.2497C64.6726 80.7032 63.7803 82.0047 62.7642 83.0802L62.731 83.1153C62.4914 83.3672 62.2164 83.6205 62.0692 83.942C61.9189 84.2693 61.8667 84.6525 61.7925 85.0052L61.7838 85.0454L61.4938 86.3788C61.4017 86.8022 61.3755 87.4199 61.0387 87.7251C60.7244 88.0102 60.3081 87.8615 60.1602 87.4939C60.0447 87.2075 60.1597 86.8932 60.2281 86.6067L60.764 84.3655C60.8521 83.9998 60.9483 83.6316 61.1384 83.3036C61.333 82.9672 61.6185 82.723 61.9097 82.4736C62.4611 82.0014 62.9673 81.4604 63.3954 80.8746C63.8234 80.2895 64.1892 79.6445 64.4457 78.9659C64.5741 78.6262 64.6793 78.2735 64.7519 77.9176C64.8209 77.5799 64.8203 77.2305 64.8941 76.8967C64.8991 76.8733 64.9187 76.8577 64.9411 76.8506C64.9358 76.8356 64.9439 76.8155 64.9649 76.8142L66.5953 76.7096C68.0446 76.6168 69.4939 76.5213 70.9419 76.4122L71.1977 76.394C71.1778 74.3483 71.1947 72.3023 71.2319 70.2558C71.2659 68.3792 71.2665 66.502 71.3226 64.6257C71.3505 63.6944 71.4107 62.7653 71.4776 61.836C71.546 60.8856 71.6556 59.9431 71.7541 58.9956ZM56.4451 69.8767C56.4277 69.7724 56.5595 69.7079 56.6202 69.8032C57.3145 70.8921 57.6492 72.0749 57.7903 73.3491C57.915 74.4738 57.8782 75.6147 57.8162 76.7421C57.75 77.9449 57.6727 79.1471 57.5946 80.3492L57.4746 82.1924L57.1735 86.8133C57.1519 87.1438 57.0766 87.4445 56.7906 87.5985C56.7543 87.6283 56.7166 87.6556 56.6726 87.679C56.5181 87.7608 56.3131 87.7193 56.2238 87.5614L56.2596 87.5848C56.2908 87.6043 56.2558 87.577 56.1545 87.503L56.0685 87.3926C56.006 87.2991 55.9661 87.2075 55.9501 87.0964C55.9252 86.9237 55.9574 86.734 55.9688 86.5606L56.1662 83.5309C56.3196 81.1753 56.4989 78.8204 56.6341 76.4635C56.697 75.3646 56.741 74.2653 56.7112 73.1649C56.6815 72.0706 56.6254 70.9578 56.4451 69.8767ZM62.4511 49.5923L62.4896 49.5859C63.8686 49.358 65.368 49.4007 66.6283 50.0621C66.6387 50.0675 66.634 50.0847 66.6222 50.0843L66.2166 50.0681C64.9324 50.0181 63.6523 49.9885 62.3896 50.2887L62.2603 50.3197C61.8056 50.4301 61.3308 50.5652 60.9656 50.864C60.6165 51.1497 60.4426 51.5903 60.2755 51.996L60.2531 52.0496C60.0835 52.4502 59.8689 52.8302 59.4972 53.0808C59.0158 53.4052 58.4367 53.3654 57.8847 53.4095C56.9127 53.4873 56.118 54.1882 55.7226 55.046C55.4832 55.5653 55.3811 56.1476 55.3608 56.7157C55.3505 57.0049 55.349 57.3053 55.3878 57.5926C55.4001 57.6844 55.5142 58.019 55.5724 58.011C55.7017 57.9931 55.8199 58.0602 55.8602 58.163C56.1795 57.856 56.5081 57.5579 56.8472 57.2704C57.6926 56.5541 58.6031 55.9048 59.5621 55.3469C60.294 54.921 61.0659 54.4991 61.8653 54.1802C61.8019 54.1789 61.7395 54.1913 61.679 54.2226C61.6525 54.2364 61.6263 54.2034 61.6471 54.1815C61.8989 53.9179 62.2005 53.8804 62.5046 53.9507C62.5694 53.9301 62.6344 53.9103 62.6995 53.8914C62.732 53.882 62.7481 53.9265 62.7217 53.9436L62.647 53.9911C62.9787 54.1017 63.3043 54.319 63.5621 54.4905C64.3027 54.983 64.9546 55.5851 65.6154 56.1759L65.7355 56.283C66.3172 56.7998 66.9137 57.302 67.5745 57.7165C67.9204 57.9336 68.2837 58.1343 68.6649 58.2836C68.9917 58.4117 69.524 58.4924 69.6771 58.8361C69.8132 59.0006 69.7563 59.2106 69.5969 59.3213C69.3282 59.6157 68.7904 59.4255 68.4701 59.3029C68.084 59.1551 67.71 58.9774 67.3532 58.7691C66.6606 58.3644 66.0219 57.8614 65.4271 57.3262C64.8057 56.7673 64.2197 56.1736 63.6153 55.5971C63.3535 55.3473 63.0977 55.0916 62.8355 54.8422L62.7038 54.7181C62.5699 54.5932 62.3793 54.3985 62.1754 54.2807C61.7913 54.5087 61.4013 54.7273 61.0207 54.9611C60.4894 55.2876 59.9737 55.6376 59.466 55.999C58.4886 56.6949 57.5624 57.4744 56.7025 58.3099C55.1255 59.842 53.7819 61.5916 52.6082 63.4442L52.5191 63.5854C51.8521 64.6457 51.2214 65.7403 50.7742 66.912C50.2821 68.2013 50.0427 69.5571 49.9127 70.9257C49.7837 72.2846 49.7402 73.6502 49.596 75.0081C49.4481 76.3998 49.1567 77.7618 48.8253 79.1204L48.7462 79.4426C48.4464 80.6596 48.1369 81.8767 47.9827 83.123C47.9004 83.7881 47.8509 84.4629 47.8621 85.1338C47.8733 85.8086 47.9799 86.4684 48.0659 87.136C48.0988 87.3919 47.8458 87.6056 47.6195 87.6394C47.3592 87.6783 47.1355 87.5127 47.0546 87.2724C46.8024 86.5223 46.7565 85.693 46.7645 84.9058C46.7725 84.1063 46.8749 83.312 47.0192 82.5268C47.3029 80.9818 47.7407 79.4685 48.107 77.9417C48.4298 76.596 48.6464 75.2484 48.7632 73.8697C48.8844 72.4395 48.957 71.0045 49.1782 69.5847C49.3964 68.183 49.8071 66.8441 50.4265 65.566C50.9905 64.4023 51.6934 63.3069 52.4305 62.2452C53.3255 60.956 54.3085 59.7291 55.4072 58.6114C55.3085 58.6071 55.2072 58.5754 55.1142 58.5176C54.8294 58.3409 54.6968 57.9952 54.6561 57.6796C54.5606 56.9412 54.5836 56.1702 54.7745 55.4483C55.0823 54.2836 55.8814 53.2488 57.0394 52.829C57.3375 52.721 57.6543 52.6815 57.9702 52.6738C58.27 52.6663 58.5974 52.7052 58.8866 52.6107C59.347 52.4601 59.5443 51.9206 59.7172 51.5115L59.7251 51.4928C59.9468 50.9717 60.2128 50.525 60.6929 50.1995C61.2051 49.8522 61.8468 49.6943 62.4511 49.5923ZM75.5538 51.6535C75.9679 51.5104 76.4858 51.6402 76.8914 51.7652C77.3427 51.9045 77.7601 52.1609 78.1173 52.4655C78.4948 52.7868 78.807 53.1835 79.0271 53.6266L79.048 53.6693C79.2492 54.0804 79.4784 54.6447 79.3772 55.0963C79.3739 55.1091 79.3707 55.1215 79.3674 55.1334C80.1891 55.5362 80.9486 56.0406 81.6096 56.6799C82.3797 57.4244 83.0315 58.2714 83.5834 59.1866C85.7747 62.8214 86.16 67.1868 86.4186 71.3319L86.4833 72.383C86.6237 74.6525 86.7883 76.9168 87.2155 79.1549L87.2468 79.3166C87.7034 81.6598 88.3571 84.0212 88.2905 86.4255C88.2709 87.1458 87.2011 87.1406 87.1697 86.4255C87.0535 83.7329 86.4219 81.1325 85.9941 78.482C85.2417 73.819 85.6185 69.0113 84.5526 64.3948C84.1346 62.5831 83.4861 60.8257 82.5606 59.2085C82.1034 58.4096 81.5809 57.6376 80.9682 56.9484C80.4405 56.3554 79.8932 55.7847 79.2773 55.2861C79.08 55.4823 78.6868 55.3823 78.5843 55.0963C78.5131 54.8998 78.534 54.6699 78.489 54.4641C78.4465 54.273 78.3884 54.0835 78.3113 53.9036C78.1578 53.5449 77.9318 53.2006 77.6706 52.9103C77.3891 52.5966 77.0651 52.336 76.7026 52.1207C76.3375 51.904 75.9385 51.8393 75.5538 51.681C75.5407 51.6757 75.5394 51.6584 75.5538 51.6535ZM77.1637 76.5759C77.1644 76.5564 77.1866 76.5479 77.2003 76.5603C77.3453 76.6934 77.4335 76.8843 77.5406 77.048C77.6634 77.2364 77.7934 77.4214 77.9292 77.6013C78.2009 77.9624 78.504 78.3021 78.809 78.6353C79.0931 78.9451 79.3955 79.2419 79.7097 79.5211C80.0499 79.8244 80.4307 80.0946 80.7396 80.4304C81.3843 81.1305 81.4888 82.0917 81.6246 82.9945L81.6397 83.0919C81.7226 83.627 81.7971 84.1641 81.8637 84.7019C81.8963 84.9636 81.929 85.2253 81.9558 85.4877L81.9636 85.5709C81.9871 85.8274 81.9937 86.0878 81.8454 86.3125C81.6867 86.5522 81.3262 86.6366 81.1119 86.4061C80.7436 86.0112 80.8128 85.3085 80.7651 84.7999C80.7253 84.3797 80.6802 83.9595 80.6299 83.54L80.6044 83.3309C80.545 82.8535 80.4973 82.3671 80.3876 81.8982C80.2909 81.4851 80.1068 81.1734 79.8044 80.8746C79.4993 80.5733 79.1832 80.2921 78.9017 79.9673C78.6039 79.6238 78.3348 79.2542 78.0925 78.8691C77.8855 78.5398 77.7189 78.1813 77.5667 77.8235L77.5419 77.7637C77.3943 77.415 77.152 76.9603 77.1637 76.5759ZM82.4815 61.5782C82.4848 61.5295 82.5573 61.5287 82.5586 61.5782C82.5678 61.9971 82.5763 62.4159 82.5854 62.8348C82.6553 66.21 82.6122 69.5933 82.9525 72.9569C83.1131 74.5429 83.4083 76.1056 83.7506 77.6617C83.9256 78.458 84.1092 79.2523 84.2835 80.0485C84.4534 80.8246 84.6356 81.6046 84.7708 82.3879C84.9034 83.1581 85.0216 83.9336 85.0751 84.7136L85.0817 84.8155C85.1045 85.1929 85.2143 85.7488 85.0053 86.0833C84.7786 86.4463 84.3449 86.4528 84.102 86.1067C83.874 85.7813 83.9309 85.2033 83.891 84.8155C83.8499 84.42 83.8068 84.0251 83.7571 83.6309C83.6618 82.862 83.5351 82.0943 83.4038 81.3312C83.1301 79.7407 82.733 78.1703 82.4404 76.5823C82.14 74.9554 81.9264 73.3165 81.9179 71.66C81.9088 69.9893 82.0864 68.3219 82.1759 66.6549C82.2673 64.9618 82.3705 63.2701 82.4815 61.5782ZM66.4583 51.0799C66.5493 50.7747 66.8708 50.584 67.1843 50.6697C67.4716 50.7483 67.7089 51.0953 67.5965 51.3922C67.4739 51.7162 67.2597 51.9925 67.0791 52.2869C66.9122 52.5591 66.6689 52.7732 66.4989 53.0406L66.6862 53.2414C66.7799 53.3417 66.8739 53.4413 66.9689 53.5392L67.2955 53.8759C67.5499 54.1376 67.806 54.3978 68.0692 54.6504C68.8432 55.3933 69.6294 56.1118 70.4962 56.748C70.6935 56.8928 70.8924 57.0367 71.0968 57.1715L71.1731 57.2218C71.3134 57.3132 71.4698 57.403 71.6393 57.3875C72.0509 57.3499 72.4226 56.9148 72.7061 56.644L72.7205 56.6299C73.4219 55.9661 74.0712 55.2403 74.6387 54.46C74.7648 54.2866 74.8869 54.1103 75.0051 53.9319C74.7308 53.6129 74.7968 52.9903 74.7811 52.6035C74.7707 52.3315 74.77 52.0594 74.7687 51.7872L74.7674 51.7323C74.7641 51.5562 74.7563 51.3872 74.8712 51.2422C74.8778 51.2338 74.8915 51.2341 74.9006 51.2385C75.058 51.3205 75.1064 51.458 75.1736 51.6121L75.1802 51.6281C75.2618 51.813 75.3402 51.9997 75.4192 52.1857C75.5022 52.3806 75.5786 52.5782 75.6557 52.7753C75.6916 52.867 75.7255 52.9591 75.7589 53.0516C75.7791 53.1108 75.8006 53.1695 75.8222 53.2283L75.8274 53.2328C75.8562 53.257 75.8803 53.2824 75.9012 53.3088C75.9887 53.3525 76.0586 53.4321 76.0913 53.5492C76.1625 53.8039 76.0149 54.0116 75.8836 54.2137C75.3493 55.0351 74.74 55.8179 74.0633 56.528C73.727 56.8807 73.373 57.2176 73.0046 57.5372L72.9406 57.5927C72.6094 57.8756 72.2503 58.1436 71.8085 58.2098C71.2914 58.2872 70.8705 58.0313 70.4747 57.7365L70.4352 57.707C70.06 57.4243 69.6923 57.1317 69.3361 56.8257C68.6097 56.2017 67.9187 55.5317 67.3055 54.7966C66.7089 54.0816 66.1193 53.2822 65.7516 52.4218C65.7292 52.3694 65.7881 52.3146 65.8343 52.3584C66.0139 52.5285 66.1867 52.7078 66.3575 52.8895C66.3622 52.6221 66.3126 52.3524 66.3402 52.0833C66.3739 51.7562 66.3642 51.3948 66.4583 51.0799Z" fill="black"/>
<path fill-rule="evenodd" clip-rule="evenodd" d="M65.8465 24.3366C75.505 23.8638 82.0579 31.4457 82.3401 34.4692C82.5353 36.568 82.4028 39.3669 82.4028 41.2424C82.4028 42.1996 82.888 45.1094 82.3401 46.5046C81.12 49.6101 79.7412 52.0425 75.9224 52.0425C72.1028 52.0425 66.2805 50.0721 64.2812 47.5306C63.9161 47.0666 59.3801 43.6699 59.3801 41C59.3801 35.3037 58.9549 24.674 65.8465 24.3366Z" fill="white"/>
<path fill-rule="evenodd" clip-rule="evenodd" d="M59.2575 18.1843C59.8079 18.013 60.1593 18.2596 60.4099 18.6415C60.4651 18.6308 60.5185 18.6315 60.578 18.6458C60.5928 18.6493 60.6284 18.6627 60.6554 18.6733C60.6762 18.6819 60.695 18.6925 60.7131 18.7037L60.7239 18.698C60.7652 18.6531 60.8085 18.6122 60.8554 18.5792C60.9606 18.5052 61.0691 18.4836 61.172 18.4988L61.2197 18.4813C61.6271 18.34 62.0688 18.4056 62.345 18.755C62.3985 18.8225 62.4418 18.8977 62.4786 18.9769C62.5615 19.004 62.6392 19.0431 62.7061 19.0911C62.7532 19.0691 62.8029 19.0506 62.8561 19.037C63.1567 18.9602 63.4725 19.0326 63.7175 19.2161C63.8367 19.3053 63.9244 19.4171 63.991 19.5447C64.0668 19.5624 64.1416 19.5943 64.2117 19.637C64.272 19.6071 64.3333 19.5791 64.3961 19.5598C64.6255 19.4897 64.8717 19.4639 65.1105 19.4816C65.6251 19.5196 66.1229 20.1047 65.7789 20.6072L65.7682 20.6224C65.7246 20.6829 65.6866 20.7456 65.6514 20.8092C65.7746 20.8625 65.8932 20.9339 66.0028 21.0233C66.5389 21.4607 66.5872 22.1349 66.4869 22.771L66.4827 22.7975H66.4839C66.7688 22.8244 67.0147 23.1205 66.8464 23.399L66.8383 23.4121C66.6104 23.7624 66.4152 24.1494 66.1976 24.5181C65.5953 24.7341 65.0146 25.0003 64.4679 25.3228C64.1273 25.6198 63.803 25.9338 63.5177 26.283C63.3753 26.4575 63.2445 26.6421 63.1242 26.8336C63.2204 26.8796 63.3393 26.8772 63.4397 26.7846C64.333 25.9606 65.4123 25.3823 66.5615 24.9948C66.6442 24.9668 66.6985 24.9141 66.729 24.8518C67.2392 24.7071 67.7583 24.595 68.2825 24.5155C68.4271 24.3784 68.5785 24.2474 68.7224 24.1109C68.9061 23.9367 69.1362 23.9393 69.3081 24.0487C69.3934 24.0099 69.4808 23.9757 69.5695 23.945L69.6245 23.9263C69.6474 23.9188 69.6693 23.9102 69.6919 23.9033C70.3071 23.7161 70.8697 23.7856 71.4749 23.9394L71.5524 23.9595C71.8345 24.034 72.012 24.0221 72.2852 23.9535L72.3156 23.9457C72.6063 23.8703 72.9165 23.8145 73.213 23.8939C73.5239 23.9769 73.7297 24.1616 73.9413 24.3847L73.9622 24.4072C74.0608 24.5123 74.1183 24.5237 74.2469 24.5212L74.3854 24.5171C74.9079 24.5028 75.4187 24.5248 75.8099 24.9268C75.9549 25.0754 76.1097 25.2858 76.2031 25.4778L76.2161 25.5065C76.2207 25.5158 76.2246 25.5236 76.2279 25.5306C76.2841 25.5216 76.3716 25.4863 76.4127 25.4782C76.9823 25.3683 77.4571 25.5377 77.8222 25.984C77.9019 26.0817 78.0227 26.2735 78.1063 26.3789C78.1357 26.4036 78.1638 26.4301 78.1899 26.458C78.3271 26.5452 78.5211 26.5397 78.6752 26.5703C79.0945 26.6534 79.5425 26.8121 79.7555 27.2092C79.8449 27.375 79.8776 27.5563 79.9155 27.7374C80.0559 27.8296 80.1663 27.9624 80.2525 28.1063C80.3564 28.2808 80.4008 28.4946 80.5209 28.6595C80.6085 28.7792 80.7417 28.8431 80.8684 28.9163L80.9167 28.9446C81.2923 29.1673 81.5862 29.4143 81.7096 29.8506L81.7208 29.8894C81.741 29.9562 81.8109 30.1469 81.7495 30.1182C81.8024 30.1473 81.8925 30.1574 81.9402 30.1733C82.2008 30.2591 82.4274 30.3977 82.5666 30.6413C82.6717 30.8266 82.6913 31.0198 82.7214 31.2241L82.7344 31.3066C82.7377 31.3265 82.7416 31.3497 82.7455 31.3722L82.7494 31.3943L82.7501 31.3948C82.7978 31.4151 82.8441 31.4371 82.8892 31.4608C83.1054 31.5874 83.253 31.8071 83.253 32.0613C83.253 32.1848 83.2145 32.2809 83.1576 32.3668C83.2034 32.4355 83.2386 32.5088 83.2654 32.5904C83.3177 32.7498 83.3216 32.9241 83.3039 33.089C83.283 33.2869 83.2321 33.4672 83.172 33.6561C83.1485 33.7291 83.1394 33.831 83.1041 33.9007C83.1687 33.9823 83.2073 34.0821 83.1949 34.1805C83.1779 34.3214 83.1132 34.486 82.9852 34.5649C82.9225 34.8726 82.788 35.1869 82.6554 35.4384C82.6397 35.4676 82.6214 35.4936 82.6012 35.5152C82.6195 36.5193 82.5457 37.5304 82.5404 38.5332C82.5346 39.6248 82.5574 40.7171 82.596 41.8074C82.66 43.6146 82.8905 45.4832 82.3543 47.2454C81.916 48.6877 81.0376 49.9258 79.8606 50.8646C78.6549 51.8249 77.2011 52.3806 75.6577 52.4675C74.8726 52.5112 74.0745 52.4225 73.3149 52.2201L73.2339 52.1982C72.4992 51.9973 71.6477 51.6902 71.1069 51.1526C70.8215 50.8684 71.1101 50.2665 71.5288 50.432C71.9436 50.5964 72.3156 50.8392 72.7271 51.0105C73.0948 51.1633 73.4789 51.2807 73.8675 51.367C74.6467 51.5414 75.4729 51.5795 76.2651 51.471C79.1252 51.0815 81.353 48.7175 81.7933 45.9145C81.9147 45.1383 81.9128 44.3493 81.9043 43.5649L81.8951 42.7054C81.888 41.9865 81.8853 41.2671 81.9121 40.5484C81.9461 39.6236 82.0114 38.6994 82.0996 37.7784L82.1453 37.2992C82.1995 36.7385 82.2609 36.1735 82.3667 35.6205C82.2798 35.625 81.598 34.4632 81.2191 33.814C81.0807 33.7049 80.9644 33.5693 80.9194 33.394C80.9096 33.3573 80.905 33.3204 80.9024 33.2834C80.8201 33.1549 80.7332 33.0296 80.6418 32.9081L80.6215 32.8992C80.6065 32.8922 80.5941 32.8864 80.5876 32.8824C80.3877 32.7698 80.2212 32.599 80.1069 32.4011C80.0683 32.3344 80.037 32.2647 80.0108 32.1935C79.8482 32.0344 79.6778 31.8827 79.4988 31.7404C79.4812 31.7265 79.4635 31.7134 79.4459 31.6997C79.2179 31.615 79.0181 31.4875 78.8718 31.3039C78.811 31.2664 78.7496 31.2296 78.6876 31.1936C78.5021 31.1918 78.3147 31.1488 78.1318 31.0741C77.798 30.9376 77.5316 30.6679 77.1958 30.5428C76.8412 30.4107 76.4676 30.711 76.0907 30.6568C75.9947 30.643 75.8994 30.6139 75.8106 30.5716C75.5983 30.7954 75.373 31.0064 75.1248 31.191C74.7642 31.4591 74.3959 31.5816 73.9779 31.7026C73.7708 31.8982 73.539 32.0878 73.2594 32.1156C72.6122 32.6305 71.9204 33.0647 71.1923 33.4679C71.0752 33.5327 70.9588 33.5619 70.8483 33.5627C70.6199 33.7054 70.3707 33.8152 70.1073 33.8912C70.0248 33.915 69.9397 33.92 69.8561 33.9098L69.6275 34.0951C69.4685 34.2239 69.2989 34.2855 69.1366 34.2895C69.0378 34.3648 68.9355 34.436 68.8301 34.5045C68.7173 34.5781 68.5709 34.6085 68.4238 34.5996C68.1992 34.8184 67.908 34.8413 67.664 34.7405C67.6305 34.7601 67.596 34.7786 67.5573 34.7969C67.5047 34.8216 67.4497 34.8426 67.3937 34.8595C67.1394 35.1324 66.767 35.2754 66.3939 35.238C66.1153 35.4079 65.791 35.4963 65.4741 35.4764C65.4257 35.7182 65.3856 35.9609 65.3518 36.2044L65.3483 36.3828C65.348 36.4117 65.3479 36.4342 65.3483 36.4491L65.3485 36.4549C65.3795 37.237 65.3965 38.0194 65.4272 38.8015L65.43 38.8632C65.4648 39.5466 65.6338 40.7925 64.6247 40.7653C64.2487 40.7552 63.8756 40.4796 63.5828 40.253L63.5416 40.221C63.5191 40.2036 63.4961 40.1858 63.473 40.1676C63.2542 40.1394 63.0384 40.0864 62.8174 40.0783C62.5447 40.0688 62.258 40.0967 61.9922 40.1583C61.5233 40.2667 61.0695 40.4793 60.7637 40.8642C60.7369 40.8979 60.7121 40.9333 60.6885 40.9689C60.6668 41.0419 60.6299 41.1091 60.5808 41.1674C60.2915 41.815 60.4585 42.6708 60.7784 43.2631C61.1594 43.9688 61.7624 44.4566 62.5207 44.7023L62.5587 44.7144C63.0768 44.8755 63.275 45.1876 63.5566 45.6214C63.8204 46.0287 64.1231 46.408 64.4481 46.7683C65.077 47.4654 65.9596 48.0407 66.3253 48.923C66.3992 49.1007 66.1877 49.268 66.0239 49.2224C65.3822 49.0429 64.9324 48.5882 64.4659 48.1359C64.1431 47.8227 63.8326 47.4969 63.5414 47.1547C63.4802 47.1828 63.413 47.2017 63.343 47.2102C63.034 47.2478 62.7152 47.2322 62.4446 47.0664C62.3199 47.0777 62.19 47.0345 62.0936 46.9466C62.0051 46.8657 61.9287 46.7781 61.8642 46.6849C61.7662 46.6935 61.67 46.6961 61.5782 46.681C61.5339 46.6768 61.491 46.6652 61.4517 46.6462C61.3787 46.6175 61.3094 46.5732 61.2458 46.5052C61.1169 46.3676 61.0676 46.1731 61.0913 45.9883C61.0659 45.9829 61.0405 45.9764 61.0156 45.968C60.8441 45.9102 60.712 45.7954 60.6276 45.6393C60.4767 45.555 60.3408 45.4407 60.2378 45.3193C60.1125 45.1716 60.018 45.005 59.9624 44.8212C59.905 44.7946 59.8492 44.7638 59.7958 44.7278C59.4132 44.4701 59.1941 43.9862 59.3443 43.5389L59.3494 43.5248C59.3571 43.5047 59.3709 43.4704 59.3878 43.4316C59.3854 43.4001 59.3829 43.3685 59.3811 43.337L59.3758 43.2417L59.2992 43.2093C58.9169 43.058 58.6584 42.8537 58.6124 42.4254C58.6029 42.3369 58.6375 42.2465 58.6919 42.1711L58.6917 42.1474C58.6668 42.1345 58.6431 42.1214 58.6223 42.1082C58.4139 41.9757 58.2858 41.7382 58.3002 41.4926C58.3133 41.2688 58.4379 41.0903 58.578 40.9252L58.618 40.879C58.6213 40.8752 58.625 40.871 58.629 40.8665L58.5364 40.8375C58.4763 40.8184 58.4213 40.7995 58.3817 40.7775C58.2285 40.692 58.0987 40.5765 58.0185 40.4297C58.0069 40.4115 57.995 40.3936 57.9843 40.3742C57.8809 40.1864 57.8674 39.9458 57.9342 39.7441C57.9421 39.7203 57.9523 39.6979 57.9627 39.6757C57.681 39.5769 57.4642 39.3726 57.438 38.9962C57.4278 38.8482 57.4604 38.7007 57.5312 38.5744C57.5155 38.4894 57.5122 38.4012 57.5224 38.3139C57.4233 38.2208 57.3463 38.1085 57.3119 37.9715C57.2469 37.7129 57.3659 37.4666 57.5429 37.2409C57.4774 37.0624 57.4741 36.861 57.5489 36.6813C57.5201 36.5916 57.5037 36.4968 57.5028 36.3995C57.5008 36.1838 57.5676 36.0037 57.6753 35.8506C57.5239 35.6663 57.4519 35.4213 57.5414 35.1917C57.605 35.0286 57.6778 34.8793 57.7617 34.7411C57.7176 34.6359 57.692 34.5181 57.692 34.3863C57.692 34.149 57.7813 33.9611 57.918 33.8073C57.8587 33.5263 57.9793 33.1842 58.2422 33.0605C58.3413 33.0138 58.474 32.9651 58.6201 32.9272C58.675 32.7565 58.7323 32.5866 58.7928 32.4179C58.8881 32.1523 58.9905 31.8904 59.0991 31.6315C59.0366 31.686 58.971 31.7369 58.9032 31.7829C58.6888 32.0543 58.4045 32.2893 58.1656 32.43C57.692 32.7088 57.1504 32.5434 56.9166 32.0768C56.6969 32.2401 56.4333 32.3368 56.1519 32.3037C55.8329 32.2662 55.5413 32.0606 55.4616 31.7398C55.4501 31.6934 55.4431 31.6432 55.4425 31.5928C55.2595 31.7224 55.0681 31.8417 54.8581 31.91C54.5906 31.997 54.3177 31.7883 54.2824 31.5282C54.2684 31.4251 54.2878 31.3341 54.3291 31.2571L54.3029 31.2469C54.2986 31.2451 54.2942 31.2432 54.29 31.2412C54.1497 31.1758 54.0408 31.0559 53.9891 30.9176C53.6854 31.0346 53.3377 30.8975 53.2414 30.5651C53.1266 30.1699 53.1197 29.7697 53.2095 29.3847C52.8877 29.152 52.6781 28.7606 52.6424 28.3514C52.6163 28.0577 52.6868 27.7867 52.8108 27.536C52.5065 27.4227 52.4019 27.0256 52.5465 26.7395C52.3544 26.6301 52.2291 26.398 52.2263 26.172C52.1405 26.0427 52.113 25.876 52.1842 25.6893C52.278 25.4432 52.4692 25.2374 52.6881 25.076C52.5926 24.9105 52.5217 24.7302 52.4777 24.5437C52.2963 24.4909 52.1499 24.3449 52.1201 24.1256C52.0828 23.8507 52.2646 23.6177 52.5093 23.5562C52.5364 23.4724 52.5696 23.3905 52.6105 23.3119C52.4894 23.0265 52.5073 22.6656 52.6634 22.3534C52.8017 22.0775 53.0266 21.9088 53.2974 21.7921C53.2286 21.5574 53.3198 21.3234 53.5492 21.1489C53.8292 20.9357 54.1363 20.7728 54.4591 20.6576C54.4304 20.2756 54.5908 19.8844 54.97 19.7512C55.0715 19.7156 55.177 19.7025 55.2842 19.7029C55.3621 19.5344 55.492 19.3973 55.6616 19.2761C55.9181 19.0926 56.3977 19.2047 56.54 19.4924L56.5469 19.5072C56.5542 19.5235 56.562 19.5383 56.5695 19.5542C56.5982 19.4145 56.6652 19.2825 56.773 19.1744C57.0423 18.904 57.3267 18.8989 57.6003 19.0146C57.6506 18.8906 57.7114 18.7728 57.7853 18.665C58.0536 18.274 58.4969 18.2242 58.8215 18.4359C58.9516 18.3221 59.0969 18.2343 59.2575 18.1843ZM61.176 41.6958C61.7163 41.4852 62.372 41.5475 62.906 41.7497L62.9451 41.7648C63.4168 41.9505 64.183 42.3634 64.2754 42.8914C64.3232 43.1649 64.0619 43.4014 63.7968 43.2575C63.5661 43.1325 63.4368 42.8807 63.2533 42.698C63.0717 42.5173 62.8684 42.372 62.6467 42.2445C62.1841 41.9787 61.6978 41.8753 61.176 41.7986C61.1174 41.7904 61.1333 41.7123 61.176 41.6958Z" fill="black"/>
<path fill-rule="evenodd" clip-rule="evenodd" d="M75.4554 48.5512C75.0491 48.3861 74.6866 48.1107 74.4214 47.7588C74.3294 47.6365 74.3052 47.5074 74.3248 47.3892C74.3463 47.2564 74.4254 47.136 74.5331 47.0552C74.6409 46.9742 74.7761 46.9343 74.9061 46.9547C75.0197 46.9723 75.1327 47.0342 75.2222 47.1625L75.2405 47.1881C75.3985 47.4005 75.6036 47.5748 75.8374 47.6871C76.0628 47.7953 76.3155 47.8458 76.5761 47.8164C77.0732 47.7605 77.4161 47.4927 77.7798 47.129C77.8249 47.0831 77.8706 47.0358 77.9157 46.9877C77.9444 46.9441 77.9843 46.916 78.028 46.9013C78.0777 46.885 78.1325 46.8859 78.1835 46.9036C78.2325 46.9206 78.2762 46.9529 78.3056 46.9958C78.3337 47.0367 78.3494 47.0872 78.3442 47.1451C78.3108 47.522 78.1136 47.8584 77.8321 48.1225C77.5206 48.4158 77.1065 48.6187 76.7172 48.6899C76.2881 48.7683 75.8511 48.7121 75.4554 48.5512ZM76.9197 42.7373C77.3762 43.0137 78.0718 43.6581 77.5806 44.3433C77.0026 44.9474 76.1705 44.2547 75.7604 43.9414C75.3802 43.6987 74.9531 44.3231 75.3058 44.6065C78.269 46.792 79.4715 42.8096 77.1502 42.4123C76.8949 42.3686 76.8002 42.6518 76.9197 42.7373ZM71.6098 40.1952C71.6603 39.5716 72.6136 39.43 72.7083 40.047C72.7932 40.5998 72.6933 41.1075 72.4438 41.6051C72.2046 42.0806 71.6044 41.8588 71.559 41.4258C71.4982 40.8455 71.5785 40.583 71.6098 40.1952ZM78.8667 39.9191C78.9999 39.7457 79.1913 39.6273 79.4212 39.6942C80.1396 39.9033 79.928 40.9192 79.6759 41.4137C79.5387 41.6823 79.0953 41.7504 78.8954 41.514C78.5688 41.1284 78.4127 40.3583 78.8275 39.9785C78.8386 39.9589 78.8516 39.9391 78.8667 39.9191ZM72.4333 37.4666L72.547 37.4468C72.8977 37.3864 73.334 37.3283 73.5828 37.6094C73.7141 37.7585 73.7598 38.0356 73.5828 38.1783C73.2713 38.4293 72.9271 38.3321 72.5535 38.3533C72.2462 38.3708 71.9507 38.4216 71.6544 38.5059C71.0046 38.6909 70.4751 39.0287 69.92 39.3996C69.8472 39.4483 69.7729 39.3555 69.8076 39.2876C70.128 38.6624 70.7489 38.1489 71.3709 37.8359C71.7028 37.6688 72.0661 37.5302 72.4333 37.4666ZM78.2116 37.1865L78.2984 37.2043C79.2435 37.4011 80.4721 37.7942 80.9195 38.719C80.9364 38.8498 80.9182 38.8778 80.9038 38.8961L80.8986 38.9022C80.8868 38.9179 80.877 38.9394 80.8202 38.9572C80.8045 38.9535 80.7888 38.9495 80.7725 38.9453C80.5674 38.8918 80.4048 38.8179 80.248 38.7414L80.0776 38.6578C79.8797 38.5612 79.6805 38.4682 79.4689 38.3995C79.0182 38.253 78.5538 38.1497 78.0829 38.0946C77.981 38.0826 77.8824 38.0483 77.8047 37.9895C77.7315 37.9336 77.6753 37.8563 77.6492 37.7535C77.6159 37.6205 77.6257 37.5198 77.6976 37.3998C77.7511 37.3097 77.8282 37.2473 77.917 37.2114C78.0071 37.1748 78.1097 37.1662 78.2116 37.1865Z" fill="black"/>
<path fill-rule="evenodd" clip-rule="evenodd" d="M128.391 86.7948C120.338 88.0119 112.14 88.073 104.021 87.6313C100.808 87.3917 97.5852 87.3488 94.3744 87.6547C92.4771 87.795 84.1594 88.4276 83.4795 86.737C83.9073 77.7349 84.774 68.6566 87.4316 59.999C88.5243 56.9249 89.4628 54.3735 91.596 51.8296C92.2687 51.1351 93.718 49.6783 94.5488 49.2032C95.2685 48.7917 95.5696 48.9385 95.9831 48.2434C96.3939 47.4756 96.6963 46.1931 97.2795 45.6513C97.8732 45.0996 98.753 45.297 99.8437 45.4747C99.6432 42.7809 100.893 42.0949 102.615 41.5826C105.642 40.4335 108.63 41.0108 109.393 44.6762C110.805 44.6762 111.598 45.2809 112.456 45.8619C112.806 46.0994 112.563 46.7046 112.982 46.8912C113.756 47.1657 115.125 47.0985 115.872 47.4363C119.264 48.9723 122.285 51.1997 124.27 54.4528C128.719 61.3981 131.775 76.0288 131.246 84.26C131.478 84.6217 131.157 85.14 131.076 85.529C130.973 85.8667 130.64 86.0921 130.293 86.0531C129.808 86.5721 129.058 86.6877 128.391 86.7948Z" fill="white"/>
<path fill-rule="evenodd" clip-rule="evenodd" d="M95.0615 48.9995C95.1111 48.9721 95.0674 48.9018 95.0177 48.925C92.6299 50.0396 90.7978 51.995 89.5092 54.2543C88.1742 56.5936 87.4133 59.2497 86.7576 61.8457L86.734 61.9396C86.0345 64.7167 85.4402 67.5225 84.9046 70.3352C84.3625 73.1835 83.9275 76.0494 83.5774 78.9272C83.4044 80.3501 83.2496 81.7757 83.1294 83.2039C83.0693 83.9176 83.0144 84.632 82.9655 85.3464C82.9459 85.6322 82.9269 85.9179 82.9112 86.2043L82.9001 86.4187C82.8903 86.6135 82.8668 86.8083 82.9152 87.0006C82.957 87.1662 83.0451 87.3162 83.1222 87.4675C83.2757 87.7682 83.6957 87.7189 83.8609 87.4675L83.9086 87.3948C84.0183 87.2266 84.1091 87.0701 84.1437 86.8603C84.177 86.6577 84.1783 86.4447 84.1927 86.2401C84.2201 85.8627 84.2436 85.4854 84.2704 85.1081C84.3266 84.3144 84.3893 83.5208 84.4585 82.7278C84.5963 81.1626 84.7439 79.5994 84.9249 78.0381C85.2469 75.2642 85.6505 72.4974 86.1266 69.7454C86.5917 67.0571 87.1801 64.396 87.7934 61.7383L87.8568 61.4633C88.9312 56.8231 90.5869 51.4793 95.0615 48.9995ZM120.497 67.1696C120.479 67.1232 120.404 67.1125 120.391 67.1696C120.231 67.8901 120.214 68.6323 120.19 69.3701C120.166 70.0978 120.167 70.8288 120.178 71.557C120.217 74.2331 120.291 76.9067 120.355 79.5825C120.386 80.921 120.416 82.2595 120.439 83.5981C120.448 84.1001 120.455 84.6021 120.461 85.1042L120.469 85.7666C120.472 86.0595 120.48 86.3485 120.516 86.6408C120.54 86.833 120.59 87.0168 120.697 87.1818C120.773 87.2987 120.88 87.3584 120.986 87.4377L121.006 87.4526C121.14 87.5585 121.282 87.5591 121.414 87.4526L121.453 87.4227C121.58 87.3234 121.69 87.2467 121.771 87.0902C121.883 86.8726 121.901 86.6369 121.92 86.3972C121.95 86.0348 121.93 85.6659 121.927 85.3022C121.919 84.5716 121.909 83.8416 121.896 83.1116C121.849 80.4333 121.755 77.7555 121.585 75.0824C121.505 73.8231 121.396 72.5599 121.25 71.3059L121.222 71.0709C121.178 70.7019 121.138 70.3264 121.092 69.9497C121.771 69.4745 122.368 68.898 122.877 68.244C122.914 68.1958 122.853 68.1283 122.808 68.1749C122.287 68.7107 121.691 69.1377 121.031 69.4736C120.923 68.685 120.774 67.9006 120.497 67.1696ZM109.153 43.2991C109.144 43.2919 109.129 43.2888 109.121 43.2991C108.975 43.4684 109.005 43.7272 108.999 43.9417V43.9617C108.989 44.2754 108.986 44.588 108.988 44.9018L108.991 45.9008C108.992 46.0381 109.003 46.1811 108.995 46.3193L108.992 46.3728C108.915 46.4508 108.879 46.5638 108.905 46.6771C108.91 46.8226 108.986 46.9439 109.098 47.0202L108.859 47.3575L108.62 47.6946C108.127 48.3903 107.628 49.0797 107.109 49.7563C106.579 50.4461 106.015 51.1098 105.423 51.748C105.134 52.0599 104.84 52.3674 104.54 52.668C104.418 52.7902 104.292 52.9094 104.168 53.0299L104.045 53.151C103.972 53.2234 103.881 53.295 103.832 53.3868C103.804 53.441 103.798 53.5744 103.787 53.5964C103.697 53.7959 103.852 54.114 104.111 54.0144L104.099 54.0067C104.052 53.9741 104.082 53.9737 104.189 54.0053C104.257 54.0051 104.321 53.9896 104.38 53.9588L104.398 53.9492C104.482 53.9069 104.556 53.8251 104.624 53.7596L104.641 53.7436C104.796 53.5988 104.944 53.4452 105.093 53.2938C105.404 52.9779 105.708 52.6553 106.002 52.3241C106.589 51.6632 107.145 50.9755 107.672 50.2665C108.208 49.5443 108.707 48.7851 109.136 47.9947C109.298 47.6947 109.448 47.389 109.591 47.0797C109.869 46.9908 109.934 46.6961 109.915 46.3642C110.018 46.1262 110.11 45.8832 110.165 45.635C110.172 45.601 110.129 45.5689 110.102 45.5987C110.013 45.6994 109.931 45.8065 109.851 45.9165C109.803 45.6838 109.743 45.4696 109.715 45.333L109.591 44.7304C110.287 44.6943 111.049 44.9787 111.528 45.4765C111.554 45.6061 111.654 45.6988 111.752 45.82C111.864 45.9586 111.961 46.114 112.034 46.2765C112.195 46.6369 112.104 47.1678 112.417 47.4322C112.45 47.4597 112.486 47.4788 112.524 47.4906C112.375 48.2147 112.443 49.0125 112.446 49.747V49.8117C112.445 50.6338 112.473 51.4565 112.505 52.278L112.537 53.091C112.579 54.1752 112.607 55.2599 112.501 56.3382C112.017 55.9122 111.517 55.5055 111 55.1182C110.66 54.8635 110.313 54.6177 109.96 54.3813L109.673 54.1905C109.329 53.9611 108.977 53.725 108.6 53.5608C108.108 53.346 107.64 53.4198 107.164 53.6401C106.691 53.8596 106.231 54.1145 105.767 54.3524C105.295 54.5941 104.821 54.834 104.348 55.0744C104.035 55.2337 103.576 55.3775 103.346 55.6708C103.331 55.6059 103.314 55.5412 103.294 55.4768C103.317 55.3784 103.308 55.2722 103.252 55.171C102.48 53.7593 101.766 52.3138 101.057 50.8701C100.697 50.1395 100.356 49.4002 99.9959 48.67L99.6465 47.9589C99.5877 47.8404 99.5289 47.722 99.4701 47.6038C99.382 47.4268 99.2899 47.2516 99.201 47.0751C99.1632 47.0005 99.1161 46.9264 99.0789 46.8511L99.0619 46.8134C99.0606 46.8114 98.9764 46.5463 99.0417 46.5715L99.0476 46.5742C99.0809 46.5931 99.1076 46.5513 99.0854 46.5246C98.9934 46.4107 98.864 46.5116 98.8111 46.617C98.6661 46.9071 98.9326 47.3624 99.0352 47.6402L99.041 47.6557C99.3591 48.5522 99.7196 49.4317 100.089 50.3083C100.797 51.9888 101.558 53.6436 102.316 55.3012L102.326 55.3297C102.164 55.2063 101.991 55.0943 101.843 54.9853C101.469 54.7101 101.085 54.4485 100.702 54.1878C99.9985 53.7097 99.2755 53.263 98.5414 52.834L98.3944 52.7485C98.0274 52.5358 97.6636 52.3633 97.2286 52.4272C96.8236 52.4865 96.4474 52.7027 96.0823 52.8783L96.0445 52.8964L94.9152 53.4306C95.0354 52.9516 95.1666 52.4749 95.3025 52C95.569 51.0736 95.8616 50.1551 96.179 49.2448C96.4755 48.3942 96.7956 47.5529 97.1345 46.7184L97.2371 46.4679C97.3749 46.1242 97.5127 45.7495 97.9072 45.6438C98.3023 45.538 98.755 45.6948 99.1161 45.4709C99.1488 45.4505 99.1449 45.3968 99.105 45.3868L98.8823 45.331C98.4643 45.2276 97.9745 45.1235 97.5787 45.2241C97.1489 45.3338 96.7929 45.6929 96.5839 46.0663C96.3521 46.4816 96.1888 46.9464 96.0124 47.3893L95.9844 47.4591C95.7825 47.9603 95.5879 48.4645 95.4018 48.9719C95.0301 49.9861 94.6918 51.0126 94.3848 52.0482C94.2372 52.5474 94.0975 53.0489 93.9629 53.5516C93.9237 53.6962 93.8604 53.8716 93.8075 54.0544C93.748 54.1126 93.6912 54.1777 93.6377 54.2518C93.5488 54.3748 93.6128 54.519 93.7226 54.5927C93.7271 54.7185 93.7552 54.8368 93.8218 54.9382C94.0844 55.3343 94.7774 55.2322 94.7493 54.6998C94.7454 54.6183 94.7134 54.5405 94.665 54.4748L94.6663 54.4641L94.6716 54.4446C94.7924 54.3872 94.9132 54.3233 95.0406 54.2607L96.226 53.678C96.5689 53.5092 96.9497 53.2483 97.3311 53.184C97.6871 53.1241 98.0626 53.3879 98.3689 53.547L98.3885 53.5573C99.1279 53.9342 99.8614 54.3238 100.592 54.7164C100.949 54.9082 101.302 55.1079 101.657 55.3019C101.954 55.4642 102.275 55.6971 102.609 55.7886C102.751 55.899 102.921 55.8842 103.057 55.8007C102.995 56.1843 102.999 56.5779 102.98 56.97C102.954 57.4942 102.95 58.02 102.942 58.5449L102.938 58.7417C102.916 59.9022 102.904 61.0631 102.899 62.2238C102.883 66.3572 102.93 70.4918 102.94 74.6251C102.945 76.7021 102.987 78.7804 103.041 80.8561C103.064 81.7361 103.112 82.6148 103.164 83.4929L103.193 83.9722C103.253 84.9827 103.289 86.005 103.477 87.0019C103.501 87.1324 103.723 87.1357 103.744 87.0019C103.917 85.9335 103.927 84.8418 103.96 83.7604L103.968 83.5442C104.007 82.3836 104.026 81.2237 104.022 80.0624C104.007 75.9273 103.9 71.7947 103.812 67.6609C103.767 65.5839 103.737 63.506 103.668 61.4297C103.633 60.3908 103.594 59.3525 103.548 58.314C103.527 57.8503 103.507 57.3871 103.476 56.9241L103.463 56.7257C103.453 56.5963 103.445 56.4684 103.435 56.3418C103.856 56.4946 104.241 56.2116 104.619 56.0181C105.055 55.7949 105.491 55.5714 105.927 55.3487L106.363 55.1264L107.237 54.6829C107.63 54.4832 107.933 54.2845 108.353 54.5187C109.865 55.3623 111.253 56.4848 112.512 57.6627C112.754 57.8886 113.264 57.8279 113.324 57.4493C113.586 55.832 113.427 54.1913 113.294 52.5691L113.245 51.9668C113.185 51.2474 113.12 50.5281 113.034 49.8117C112.995 49.4912 112.957 49.1709 112.914 48.8511L112.881 48.6113C112.828 48.2321 112.793 47.8552 112.68 47.4916C112.716 47.4801 112.75 47.4612 112.78 47.4322C113.122 47.11 112.957 46.5509 112.802 46.1677C112.648 45.7894 112.413 45.4592 112.119 45.1751C112.055 45.1131 111.965 45.0731 111.874 45.0711C111.163 44.6018 110.381 44.3675 109.568 44.6237C109.545 44.5151 109.523 44.4066 109.498 44.2984L109.473 44.1903C109.41 43.922 109.386 43.4786 109.153 43.2991ZM101.855 85.6835C101.635 85.6231 101.393 85.6867 101.231 85.8478C101.069 86.0089 101.005 86.2498 101.066 86.4693C101.096 86.5778 101.151 86.672 101.231 86.7518C101.305 86.8252 101.392 86.8772 101.491 86.909L101.514 86.9155L101.55 86.9304C101.661 86.9603 101.772 86.9603 101.883 86.9304C101.989 86.9012 102.08 86.848 102.158 86.7707C102.236 86.6934 102.29 86.6018 102.319 86.4966C102.349 86.3862 102.349 86.2758 102.319 86.166L102.304 86.1297C102.273 86.0218 102.219 85.9277 102.139 85.8478C102.059 85.7692 101.964 85.714 101.855 85.6835ZM88.7359 63.7783C88.6993 63.7368 88.6405 63.79 88.6627 63.8341C89.0069 64.5053 89.391 65.1718 89.7678 65.826C89.7378 66.0073 89.7078 66.1872 89.6731 66.3625C89.5262 67.1097 89.3466 67.8434 89.229 68.5978C88.8077 71.3092 88.5889 74.0501 88.4008 76.7859C88.2127 79.5318 88.1886 82.2784 88.1605 85.0295C88.1579 85.2678 88.342 85.5451 88.5889 85.59C88.7019 85.6101 88.7868 85.6062 88.8998 85.59C89.1565 85.5523 89.3178 85.2594 89.3283 85.0295C89.4021 83.4916 89.5014 81.9562 89.6163 80.4209C89.8201 77.6997 89.9442 74.9707 90.1088 72.2466L90.1669 71.2944C90.229 70.2626 90.2858 69.2302 90.3047 68.1969C90.3165 67.5123 90.2799 66.8279 90.3028 66.1442C90.3237 65.5129 90.3877 64.8265 90.2479 64.2063C90.2427 64.183 90.2061 64.1771 90.195 64.1994C90.05 64.504 89.9572 64.8351 89.8867 65.1731C89.5118 64.7015 89.1297 64.2287 88.7359 63.7783ZM113.29 47.103C113.238 47.0991 113.239 47.1777 113.29 47.1836C114.026 47.2685 114.736 47.5663 115.431 47.8194L115.491 47.841C116.192 48.0943 116.877 48.3889 117.535 48.74C118.822 49.4265 120.005 50.3117 121.05 51.3251C125.223 55.3704 127.124 61.2039 128.518 66.6859C129.292 69.7317 129.843 72.8289 130.199 75.95C130.376 77.4932 130.501 79.0428 130.574 80.595C130.611 81.3899 130.634 82.1861 130.644 82.9824C130.649 83.3896 130.651 83.7975 130.65 84.2053C130.65 84.3924 130.616 84.6275 130.666 84.8093C130.713 84.9775 130.845 85.1249 130.942 85.2652C131.057 85.4315 131.264 85.4224 131.381 85.2652L131.424 85.2081C131.548 85.0438 131.67 84.8866 131.688 84.6716C131.707 84.4411 131.694 84.204 131.694 83.9728C131.696 83.5065 131.691 83.0402 131.681 82.5745C131.663 81.6809 131.628 80.7885 131.576 79.8968C131.468 78.0868 131.293 76.2806 131.041 74.485C130.594 71.2934 129.924 68.1322 129.046 65.0304C128.217 62.1044 127.236 59.1869 125.838 56.4765C124.54 53.96 122.837 51.6189 120.591 49.8602C119.545 49.0423 118.408 48.3607 117.182 47.8474C116.563 47.5885 115.913 47.3772 115.253 47.2566C114.6 47.1375 113.949 47.1541 113.29 47.103ZM101.729 80.5118C101.612 80.5105 101.482 80.5365 101.382 80.6008L101.249 80.7034C101.212 80.7495 101.176 80.7963 101.14 80.8431C101.057 80.9509 101.045 81.1269 101.063 81.2561C101.067 81.3419 101.093 81.4224 101.14 81.4964L101.242 81.6276C101.34 81.7075 101.422 81.764 101.54 81.8023C101.602 81.8218 101.661 81.8263 101.721 81.8231L101.741 81.8218L101.729 81.8238L101.75 81.8212C101.769 81.8199 101.789 81.8173 101.808 81.8147C101.821 81.8134 101.834 81.8121 101.848 81.8101C101.861 81.8095 101.873 81.8088 101.886 81.8101C102.036 81.8237 102.188 81.7393 102.295 81.6412C102.391 81.5536 102.478 81.3672 102.464 81.2347L102.458 81.1795C102.448 81.086 102.44 81.0496 102.4 80.9554C102.362 80.8645 102.308 80.784 102.234 80.7164C102.094 80.5865 101.922 80.5131 101.729 80.5118ZM102.195 73.688C101.995 73.4712 101.652 73.4553 101.404 73.5864C101.343 73.6184 101.288 73.6697 101.235 73.7125C101.101 73.8204 101.048 74.0151 101.04 74.1792C101.033 74.3413 101.119 74.534 101.235 74.6459L101.263 74.6729C101.332 74.7398 101.431 74.7979 101.528 74.8156C101.684 74.8441 101.814 74.8432 101.959 74.7823C102.084 74.7299 102.192 74.6458 102.265 74.5316L102.277 74.5123C102.282 74.5043 102.286 74.4961 102.291 74.4878L102.298 74.4752C102.436 74.2094 102.399 73.9086 102.195 73.688ZM102.092 66.8283C102.002 66.8001 101.912 66.7962 101.821 66.8162C101.76 66.8164 101.703 66.8318 101.65 66.8622C101.593 66.8783 101.543 66.9072 101.501 66.9491C101.45 66.979 101.409 67.0193 101.379 67.0701C101.319 67.1353 101.279 67.2117 101.257 67.2995L101.233 67.4789L101.257 67.6583L101.326 67.8195C101.345 67.8439 101.364 67.8683 101.383 67.8926C101.413 67.9434 101.454 67.984 101.505 68.014C101.538 68.0468 101.576 68.0715 101.618 68.0885C101.769 68.1962 101.97 68.2313 102.149 68.1823C102.256 68.1527 102.348 68.0992 102.426 68.0218C102.504 67.944 102.558 67.8522 102.588 67.7465L102.6 67.6622C102.616 67.549 102.618 67.4863 102.586 67.3424C102.572 67.2791 102.531 67.1899 102.509 67.1523C102.418 66.9919 102.268 66.8819 102.092 66.8283ZM94.2621 61.8932C94.0034 61.8914 93.7441 61.8919 93.4855 61.8948L93.2915 61.8973C92.9662 61.9024 92.688 61.8691 92.432 62.0935C92.2465 62.2563 92.3281 62.5296 92.5045 62.6523C92.7709 62.8381 93.106 62.7447 93.4123 62.7241C93.7363 62.7026 94.0596 62.6847 94.3835 62.6702C95.0105 62.6423 95.6375 62.6245 96.2652 62.6217C96.8916 62.6191 97.5192 62.625 98.1449 62.635C98.7824 62.6454 99.446 62.7044 100.08 62.6388C100.166 62.6298 100.186 62.5159 100.1 62.4863C99.5028 62.2808 98.8314 62.2143 98.2057 62.1357C97.5604 62.0545 96.9151 61.9971 96.2652 61.9599C95.5984 61.9219 94.9302 61.8979 94.2621 61.8932ZM102.093 59.875L102.072 59.8754C101.957 59.8757 101.851 59.9024 101.752 59.9554L101.73 59.9672L101.593 60.0723C101.51 60.1563 101.452 60.2552 101.42 60.3691L101.396 60.5479C101.392 60.6405 101.411 60.7269 101.454 60.8071C101.481 60.8905 101.528 60.9625 101.593 61.0235C101.655 61.0891 101.727 61.1354 101.811 61.1626C101.885 61.2014 101.965 61.2209 102.05 61.221L102.072 61.2206C102.194 61.2201 102.307 61.1895 102.413 61.1287L102.55 61.0235C102.633 60.9396 102.691 60.8407 102.723 60.7267L102.748 60.5479C102.751 60.4553 102.732 60.3689 102.689 60.2888C102.662 60.2054 102.616 60.1333 102.55 60.0723C102.488 60.0067 102.416 59.9604 102.332 59.9333C102.258 59.8944 102.178 59.875 102.093 59.875ZM100.089 44.075C99.943 43.8651 99.6791 44.0517 99.717 44.2205C99.7066 44.6944 99.6824 45.1543 99.574 45.6186C99.5243 45.8311 99.4597 46.0439 99.3591 46.2386L99.3173 46.3206C99.1873 46.5757 99.0867 46.8163 99.2611 47.0962C99.3434 47.2282 99.4923 47.3272 99.6537 47.3203C100.37 47.2896 100.468 46.2983 100.512 45.7449C100.556 45.1749 100.417 44.5485 100.089 44.075Z" fill="black"/>
<path fill-rule="evenodd" clip-rule="evenodd" d="M91.6319 31.936C91.7959 30.5711 91.5836 27.7183 91.5692 27.545C91.4791 26.4493 92.0218 22.1226 93.0479 22.5213C94.7683 21.2324 97.0601 20.9479 99.2037 20.8119C103.655 20.5295 108.391 21.1778 111.828 24.0122C113.528 25.4841 115.183 27.6249 115.049 29.854C116.594 31.9669 118.772 34.8652 116.847 37.3354C116.193 38.1245 115.153 38.4184 114.332 39.0161C112.678 40.2774 111.642 42.0875 109.973 43.3413C105.553 47.0995 98.047 47.8845 93.7043 43.61C90.3459 40.5141 90.8886 35.8827 91.4791 31.936C91.8768 29.2826 91.3119 34.5987 91.6319 31.936Z" fill="white"/>
<path fill-rule="evenodd" clip-rule="evenodd" d="M105.15 15.0241C103.96 14.7968 102.738 14.6554 101.522 14.698L101.428 14.7014C100.513 14.736 99.3552 14.8125 98.557 15.3158C98.5113 15.2722 98.4375 15.2498 98.3702 15.2801C97.4219 15.7083 96.3788 16.0179 95.3802 16.3256C94.3868 16.6318 93.3555 16.8339 92.3137 16.9154C91.9219 16.946 91.5862 17.3464 91.8343 17.7056C91.8938 17.7911 91.9513 17.8776 92.0081 17.9643C91.9127 17.9548 91.8167 17.945 91.7207 17.9359C91.4059 17.9059 91.0911 18.2242 91.1094 18.5145C91.1211 18.6971 91.142 18.8776 91.1727 19.0559C91.0525 19.0535 90.9337 19.0705 90.8181 19.1167C90.2342 19.3499 90.2747 20.0079 90.3184 20.5086C90.3792 21.2033 90.6541 21.9391 91.1636 22.4591C90.7828 22.8332 90.5137 23.28 90.353 23.8107C90.2361 24.1981 90.1715 24.6109 90.2035 25.0143L90.2133 25.135C90.2531 25.5727 90.3321 26.0574 90.6646 26.3722C90.8357 26.5346 91.046 26.5937 91.2465 26.575C91.125 27.5838 91.0473 28.5983 90.9742 29.6092L90.9402 30.0924C90.7769 32.4288 90.6541 34.7804 90.6861 37.1207C90.7155 39.3078 91.1727 41.4306 92.5907 43.2064C93.8819 44.8235 95.7355 46.0155 97.8327 46.4687C98.9633 46.7133 100.117 46.7306 101.261 46.5747C101.816 46.4989 102.374 46.3827 102.9 46.1995C103.483 45.996 103.902 45.6965 104.294 45.2478C104.479 45.0349 104.39 44.5817 104.021 44.6243C103.462 44.6884 102.952 44.7656 102.417 44.9218L102.34 44.9447C101.807 45.1063 101.255 45.2268 100.697 45.2781C99.5557 45.3827 98.3964 45.2773 97.303 44.9497C95.5219 44.4158 93.9884 43.2259 93.0054 41.7308C91.8383 39.9586 91.7063 37.9469 91.7233 35.9092C91.7416 33.6732 91.818 31.4358 91.9434 29.2022L91.965 28.8299C92.0316 27.6804 92.0956 26.5303 92.1518 25.3801C92.1694 25.0193 92.1962 24.6556 92.2445 24.2956C92.6841 24.0517 93.0786 23.7154 93.3352 23.3005C93.8519 23.5026 94.3946 23.6483 94.8943 23.7645C96.0516 24.0338 97.2534 24.0992 98.431 23.9305C98.7491 24.0547 99.073 24.1639 99.4022 24.2578C99.491 24.2951 99.5798 24.3318 99.6687 24.3677C100.462 24.6888 101.266 24.9609 102.104 25.16L102.309 25.2085C102.75 25.3113 103.229 25.4125 103.698 25.4443C103.775 25.4725 103.858 25.4962 103.949 25.5172C104.376 25.6153 104.819 25.6463 105.257 25.6117C105.683 25.5778 105.991 25.1701 105.757 24.7884C105.585 24.5099 105.412 24.2321 105.237 23.955C105.845 24.1945 106.472 24.3937 107.105 24.5626C107.745 24.7328 108.393 24.8764 109.042 25.0085C109.389 25.0785 109.737 25.1405 110.084 25.2105C110.331 25.2603 110.712 25.2863 110.914 25.4407C111.138 25.6103 111.201 26.0057 111.285 26.2496C111.397 26.5663 111.501 26.8846 111.597 27.2064C111.786 27.8486 111.942 28.5002 112.063 29.1582C112.183 29.817 112.264 30.4823 112.309 31.1498C112.354 31.8165 112.334 32.4875 112.407 33.1514C112.445 33.5035 112.845 33.6846 113.14 33.4386C113.175 33.4097 113.209 33.3805 113.244 33.351L113.296 33.3065C113.548 33.09 113.793 32.8606 113.995 32.6023C114.032 32.5546 114.067 32.5049 114.1 32.4543C114.105 32.4543 114.109 32.4529 114.115 32.4493L114.171 32.4094C114.788 31.975 115.818 31.4088 116.42 32.1304C116.612 32.3602 116.71 32.6529 116.791 32.9354L116.934 33.4408C117.026 33.7707 117.113 34.1025 117.164 34.4401C117.279 35.1963 117.221 36.068 116.671 36.6741C116.452 36.9165 116.149 37.0897 115.811 37.1352C115.623 37.1597 115.437 37.1294 115.25 37.107C115.06 37.0846 114.877 37.1207 114.687 37.1034C114.385 37.0753 114.253 37.4173 114.366 37.6323C114.427 37.7477 114.499 37.8474 114.58 37.9317C114.514 37.9852 114.452 38.0429 114.392 38.1035C114.213 38.1576 114.053 38.2738 113.933 38.4275C113.836 38.5516 113.786 38.6865 113.778 38.8287C113.767 38.864 113.758 38.9001 113.75 38.9369L113.586 39.1882C113.55 39.2433 113.514 39.2977 113.478 39.3511C113.062 39.9716 112.599 40.497 112.025 40.9919C111.472 41.4682 110.872 41.8946 110.353 42.4055L110.291 42.4661C109.807 42.9489 109.297 43.5334 109.487 44.2354C109.535 44.4158 109.801 44.5457 109.975 44.4237C110.534 44.0312 110.816 43.4092 111.29 42.933C111.778 42.4423 112.319 42.0014 112.808 41.5122C113.271 41.0504 113.637 40.5272 113.912 39.9514C114.022 40.0662 114.182 40.1477 114.404 40.1794C114.785 40.2335 115.141 40.0221 115.307 39.7097C115.414 39.7544 115.523 39.7948 115.633 39.8266C116.211 39.994 116.574 39.3857 116.356 38.9362C116.24 38.6952 116.094 38.4859 115.913 38.3098C116.478 38.2363 117.054 37.9599 117.425 37.615C118.357 36.7484 118.485 35.4459 118.275 34.2878C118.164 33.6738 117.972 33.0525 117.723 32.476C117.679 32.3757 117.632 32.2747 117.582 32.1751C117.61 32.1743 117.638 32.1629 117.657 32.1404C117.825 31.9226 118.03 31.7443 118.156 31.5004C118.271 31.2767 118.399 31.0501 118.489 30.8171C118.676 30.3401 118.768 29.8019 118.829 29.2975C118.955 28.2649 118.906 27.2389 118.739 26.2128C118.455 24.4651 117.768 22.7927 116.755 21.3251C116.811 21.2977 116.863 21.2647 116.913 21.2256L116.937 21.2055L116.976 21.1717C117.265 20.9245 117.24 20.461 116.976 20.2105L116.893 20.1315C116.787 20.0323 116.697 19.9537 116.526 19.8457C116.501 19.8298 116.475 19.8148 116.449 19.8008C116.538 19.6448 116.569 19.4624 116.507 19.2611C116.29 18.56 115.224 18.5849 114.548 18.8906C113.801 18.2593 112.972 17.7112 112.074 17.2675C109.933 16.2111 107.513 15.4744 105.15 15.0241ZM116.213 33.489C115.813 33.3656 115.282 33.6247 114.923 33.7806C114.468 33.9783 114.081 34.2705 113.705 34.5794C113.518 34.7338 113.485 34.9863 113.531 35.2021C113.536 35.2238 113.541 35.2461 113.546 35.2684C113.595 35.4987 113.867 35.6797 114.107 35.6732C114.61 35.6603 114.849 35.2497 115.134 34.9019C115.168 34.9582 115.209 35.0101 115.261 35.0491L115.296 35.0751C115.414 35.1601 115.544 35.2281 115.7 35.2215C115.811 35.2165 115.917 35.1898 116.015 35.1415C116.259 35.0195 116.366 34.7208 116.3 34.4776C116.259 34.3246 116.164 34.2049 116.041 34.1219L116.086 34.0921C116.185 34.0272 116.275 33.9588 116.345 33.8579L116.361 33.834H116.355C116.431 33.7099 116.382 33.541 116.213 33.489Z" fill="black"/>
<path fill-rule="evenodd" clip-rule="evenodd" d="M98.3121 40.8663C98.7543 40.8699 100.02 40.6189 100.353 40.4906L100.439 40.4567C100.727 40.343 101.023 40.2123 101.243 39.9931C101.313 39.9219 101.388 39.8413 101.426 39.7565C101.448 39.7069 101.458 39.6554 101.436 39.6044C101.356 39.5967 101.281 39.5866 101.209 39.5737C101.175 39.5675 101.143 39.5611 101.118 39.561C101.026 39.5604 100.934 39.572 100.844 39.5833C100.831 39.585 100.817 39.5867 100.804 39.5883C100.733 39.5969 100.662 39.6063 100.592 39.6156C100.353 39.7565 99.2468 39.9196 99.0384 39.9295C98.8882 39.9366 98.7308 39.9283 98.5721 39.9197C98.1599 39.8976 97.7576 39.7163 97.4402 40.0012C97.3572 40.0758 97.3226 40.1698 97.3226 40.2656C97.3226 40.3819 97.3723 40.5004 97.4474 40.5933C97.6191 40.8037 98.0267 40.864 98.3121 40.8663ZM95.7577 37.2084C95.9497 37.4934 96.2704 37.6766 96.7093 37.6567C97.5819 37.6173 98.6237 37.2921 99.3545 36.822C99.5446 36.6996 99.668 36.5039 99.6902 36.2942L99.7294 35.9212L100.043 36.1973C100.11 36.269 100.144 36.3025 100.172 36.3303C100.234 36.3916 100.307 36.465 100.388 36.5449C100.697 36.8516 100.857 37.2895 101.006 37.5876C101.138 37.85 101.249 38.1501 101.346 38.4462C101.509 38.9462 101.518 39.0902 101.757 39.5255C101.809 39.5787 101.89 39.5976 101.964 39.5883C102.029 39.58 102.093 39.5485 102.124 39.4856C102.539 38.6517 102.019 37.988 101.566 37.2895L101.518 37.2165C101.098 36.5852 100.412 35.7497 99.6262 35.6361L99.5361 35.7778L99.4055 35.6917C99.1912 35.5508 98.9091 35.5574 98.6616 35.6676L98.4147 35.7778C97.9542 35.9817 97.5003 36.1699 97.0026 36.2729C96.9667 36.2805 96.9301 36.2875 96.8942 36.294C96.8596 36.3001 96.8256 36.3059 96.791 36.3112C96.7982 36.2777 96.806 36.2443 96.8145 36.211C96.8223 36.1758 96.8308 36.1406 96.84 36.1054C96.8498 36.0691 96.8596 36.033 96.87 35.997C96.9098 35.8536 96.9549 35.7114 97.0078 35.5722C97.209 35.0491 97.5303 34.5598 97.8425 34.093L97.8791 34.0381C97.9242 33.9712 97.9731 33.9015 98.0234 33.8293C98.2671 33.483 98.5375 33.1071 98.5564 32.7298C98.2331 32.7499 97.9627 32.9483 97.7243 33.1209C97.3977 33.3578 97.0947 33.6286 96.8204 33.9228C96.2874 34.4936 95.8093 35.2233 95.5997 35.9777C95.4795 36.4097 95.5324 36.8745 95.7577 37.2084ZM104.283 32.905V32.8896C104.282 32.454 104.026 31.4595 103.39 31.4595C102.994 31.4595 102.753 32.1363 102.711 32.834L102.71 32.8625C102.691 33.2963 102.812 34.2445 103.39 34.2445C103.975 34.2445 104.277 33.3465 104.283 32.905ZM94.9348 32.7684V32.753C94.9361 32.3174 95.1928 31.3229 95.8276 31.3229C96.2143 31.3229 96.4533 31.9663 96.5036 32.6452L96.5069 32.6975C96.5317 33.1166 96.4193 34.1079 95.8276 34.1079C95.2431 34.1079 94.9413 33.2098 94.9348 32.7684ZM102.145 29.9571C102.229 29.9669 102.313 29.9796 102.396 29.9927C102.64 30.0312 102.883 30.0773 103.124 30.131C103.582 30.2332 104.037 30.3621 104.483 30.5078C104.9 30.6442 105.31 30.7984 105.721 30.9525C105.743 30.9607 105.764 30.9689 105.787 30.9772C105.932 31.0316 106.076 31.0926 106.221 31.1538C106.441 31.2469 106.663 31.3406 106.889 31.4113C106.293 30.598 105.376 29.9954 104.493 29.5641C103.988 29.3181 103.454 29.1197 102.917 28.9572L102.617 28.8683C102.176 28.7399 101.694 28.6212 101.28 28.8773C101.116 28.9787 101.012 29.1362 100.979 29.3064C100.946 29.4734 100.983 29.6524 101.1 29.8018C101.202 29.9319 101.328 30.006 101.463 30.0315C101.612 30.0595 101.77 30.0287 101.913 29.953C102.028 29.9445 102.062 29.9475 102.096 29.9513L102.145 29.9571ZM95.5121 30.0399C95.8067 29.9765 96.0993 29.951 96.4017 29.9602C96.5389 29.9642 96.6714 29.9851 96.8034 30.0062C97.0085 30.0388 97.2129 30.0725 97.4343 30.0329C97.5493 30.0122 97.6479 29.9456 97.7237 29.8587C97.8118 29.757 97.8706 29.6271 97.8895 29.5036C97.9091 29.3759 97.8895 29.2643 97.8419 29.1658C97.7857 29.0493 97.6903 28.9512 97.5754 28.8653C97.2273 28.6051 96.6303 28.6677 96.2195 28.7202C95.8139 28.7724 95.4103 28.8966 95.0517 29.094C94.6977 29.2888 94.3901 29.5514 94.1497 29.8721C93.9472 30.1426 93.8519 30.4537 93.7539 30.7706C94.217 30.3869 94.9256 30.1656 95.5121 30.0399Z" fill="black"/>
<path fill-rule="evenodd" clip-rule="evenodd" d="M151.501 87.1513C145.681 87.9774 139.755 88.019 133.886 87.7189C131.563 87.5566 129.233 87.5273 126.913 87.7352C125.542 87.8306 119.529 88.2599 119.038 87.1123C119.347 81.0003 119.973 74.8369 121.894 68.9589C122.685 66.8718 123.362 65.1396 124.905 63.4125C125.39 62.9409 126.439 61.9519 127.039 61.6294C127.56 61.35 127.777 61.4497 128.075 60.9777C128.373 60.4564 128.591 59.5857 129.013 59.2179C129.442 58.8433 130.078 58.9773 130.866 59.0979C130.721 57.2691 131.625 56.8033 132.869 56.4555C135.057 55.6753 137.217 56.0672 137.768 58.5558C138.789 58.5558 139.363 58.9664 139.983 59.3608C140.236 59.5221 140.06 59.9329 140.362 60.0597C140.923 60.246 141.912 60.2004 142.452 60.4297C144.903 61.4726 147.088 62.9849 148.522 65.1934C151.738 69.9088 153.947 79.8416 153.565 85.4309C153.732 85.6764 153.501 86.0277 153.442 86.2921C153.367 86.5213 153.126 86.674 152.876 86.648C152.525 87 151.983 87.0786 151.501 87.1513Z" fill="white"/>
<path fill-rule="evenodd" clip-rule="evenodd" d="M127.411 61.4909C127.446 61.4722 127.415 61.4246 127.379 61.4403C125.652 62.197 124.329 63.5246 123.397 65.0585C122.432 66.6468 121.882 68.4501 121.408 70.2126L121.391 70.2763C120.885 72.1617 120.456 74.0667 120.069 75.9765C119.677 77.9099 119.362 79.8557 119.109 81.8099C118.984 82.7756 118.872 83.7433 118.785 84.713C118.742 85.1981 118.703 85.6826 118.667 86.1678C118.653 86.362 118.639 86.5561 118.628 86.7503L118.62 86.8958C118.612 87.0283 118.596 87.1608 118.631 87.2907C118.661 87.403 118.725 87.505 118.78 87.6083C118.891 87.8122 119.195 87.7784 119.314 87.6083L119.349 87.5583C119.428 87.444 119.494 87.3381 119.519 87.1959C119.542 87.0582 119.544 86.914 119.554 86.7744C119.574 86.5185 119.591 86.2626 119.61 86.0061C119.651 85.467 119.696 84.9286 119.746 84.3902C119.845 83.3277 119.953 82.2658 120.083 81.2059C120.316 79.3225 120.608 77.4442 120.952 75.5757C121.288 73.7507 121.713 71.944 122.157 70.1396L122.203 69.9529C122.979 66.8025 124.176 63.1745 127.411 61.4909ZM145.796 73.8271C145.783 73.7956 145.728 73.7883 145.719 73.8271C145.603 74.3163 145.591 74.8202 145.574 75.3212C145.556 75.8154 145.557 76.3116 145.565 76.8058C145.593 78.623 145.647 80.4382 145.693 82.2548C145.716 83.1634 145.738 84.072 145.754 84.9812C145.761 85.3215 145.766 85.6625 145.77 86.0035L145.776 86.4529C145.778 86.6516 145.783 86.8484 145.809 87.0465C145.826 87.1777 145.863 87.3017 145.94 87.4141C145.995 87.4933 146.073 87.5336 146.149 87.5875L146.163 87.5979C146.26 87.6693 146.363 87.67 146.459 87.5979L146.487 87.5771C146.578 87.5102 146.658 87.4576 146.716 87.3517C146.798 87.2043 146.811 87.0439 146.825 86.8815C146.846 86.6354 146.832 86.3847 146.829 86.1379C146.824 85.6417 146.817 85.1462 146.807 84.6506C146.773 82.8322 146.706 81.0143 146.582 79.1991C146.524 78.3444 146.446 77.4865 146.34 76.6357L146.32 76.4759C146.288 76.2252 146.259 75.9706 146.226 75.7147C146.717 75.3919 147.148 75.0003 147.516 74.5565C147.544 74.5238 147.498 74.478 147.466 74.5097C147.09 74.8734 146.659 75.1633 146.182 75.3913C146.103 74.8559 145.996 74.3234 145.796 73.8271ZM137.596 57.6207C137.59 57.6158 137.579 57.6137 137.573 57.6207C137.467 57.7356 137.489 57.9114 137.485 58.057L137.485 58.0706C137.477 58.2835 137.476 58.4958 137.477 58.7088L137.479 59.3871C137.479 59.4803 137.487 59.5774 137.482 59.6712L137.479 59.7075C137.424 59.7605 137.398 59.8372 137.417 59.9142C137.421 60.0129 137.476 60.0953 137.557 60.1471L137.383 60.3761L137.211 60.6049C136.854 61.0772 136.494 61.5454 136.118 62.0047C135.736 62.473 135.327 62.9236 134.9 63.3569C134.691 63.5687 134.479 63.7774 134.261 63.9815C134.173 64.0645 134.082 64.1454 133.993 64.2272L133.904 64.3095C133.851 64.3586 133.785 64.4072 133.75 64.4695C133.73 64.5063 133.725 64.5969 133.717 64.6119C133.652 64.7473 133.764 64.9633 133.951 64.8957L133.943 64.8904C133.909 64.8683 133.93 64.868 134.008 64.8895C134.057 64.8894 134.103 64.8788 134.146 64.8579L134.159 64.8514C134.219 64.8227 134.273 64.7671 134.322 64.7226L134.335 64.7118C134.447 64.6135 134.554 64.5092 134.662 64.4064C134.886 64.192 135.106 63.9729 135.318 63.7481C135.743 63.2994 136.144 62.8325 136.525 62.3511C136.913 61.8608 137.274 61.3453 137.584 60.8087C137.701 60.605 137.809 60.3974 137.912 60.1875C138.114 60.1271 138.161 59.927 138.147 59.7017C138.221 59.5401 138.288 59.3751 138.327 59.2067C138.333 59.1835 138.301 59.1618 138.282 59.1819C138.217 59.2503 138.158 59.3231 138.101 59.3977C138.066 59.2397 138.022 59.0943 138.002 59.0016L137.912 58.5925C138.415 58.568 138.967 58.761 139.313 59.099C139.332 59.187 139.404 59.25 139.475 59.3323C139.556 59.4263 139.626 59.5318 139.679 59.6422C139.795 59.8868 139.729 60.2473 139.955 60.4267C139.979 60.4454 140.005 60.4584 140.033 60.4665C139.925 60.9581 139.974 61.4997 139.976 61.9984V62.0423C139.976 62.6005 139.996 63.1591 140.019 63.7168L140.042 64.2687C140.072 65.0048 140.093 65.7413 140.016 66.4733C139.666 66.1841 139.305 65.908 138.931 65.6451C138.685 65.4721 138.434 65.3053 138.18 65.1447L137.972 65.0152C137.723 64.8595 137.469 64.6992 137.197 64.5877C136.841 64.4418 136.502 64.492 136.159 64.6415C135.817 64.7905 135.484 64.9636 135.148 65.125C134.807 65.2893 134.465 65.4521 134.123 65.6153C133.896 65.7235 133.565 65.8211 133.399 66.0202C133.388 65.9762 133.376 65.9322 133.361 65.8885C133.378 65.8217 133.371 65.7496 133.331 65.6809C132.773 64.7224 132.256 63.741 131.744 62.7609C131.484 62.2648 131.237 61.7629 130.977 61.2672L130.724 60.7844C130.682 60.7039 130.64 60.6236 130.597 60.5433C130.533 60.4232 130.467 60.3042 130.402 60.1844C130.375 60.1337 130.341 60.0834 130.315 60.0323L130.301 60.0067C130.301 60.0053 130.24 59.8253 130.287 59.8425L130.291 59.8443C130.315 59.8571 130.335 59.8287 130.319 59.8106C130.253 59.7332 130.159 59.8018 130.121 59.8733C130.015 60.0702 130.209 60.3794 130.283 60.568L130.286 60.5786C130.517 61.1871 130.777 61.7844 131.044 62.3795C131.556 63.5204 132.106 64.6439 132.655 65.7693L132.661 65.7887C132.544 65.7049 132.419 65.6288 132.312 65.5548C132.042 65.368 131.765 65.1904 131.488 65.0134C130.979 64.6887 130.456 64.3855 129.925 64.0942L129.819 64.0361C129.554 63.8917 129.291 63.7747 128.976 63.818C128.684 63.8583 128.412 64.0051 128.148 64.1244L128.121 64.1366L127.304 64.4993C127.392 64.174 127.486 63.8504 127.584 63.528C127.777 62.8991 127.989 62.2754 128.218 61.6574C128.432 61.0799 128.664 60.5088 128.909 59.9421L128.983 59.7721C129.083 59.5388 129.182 59.2844 129.467 59.2126C129.753 59.1407 130.08 59.2472 130.341 59.0952C130.365 59.0814 130.362 59.0449 130.333 59.0381L130.172 59.0003C129.87 58.93 129.516 58.8593 129.23 58.9276C128.919 59.0021 128.662 59.246 128.511 59.4994C128.343 59.7814 128.225 60.097 128.098 60.3977L128.078 60.445C127.931 60.7853 127.791 61.1276 127.656 61.4722C127.388 62.1607 127.143 62.8576 126.922 63.5608C126.814 63.8996 126.713 64.2401 126.616 64.5814C126.588 64.6796 126.542 64.7986 126.504 64.9228C126.46 64.9624 126.42 65.0065 126.381 65.0568C126.317 65.1403 126.363 65.2382 126.443 65.2883C126.445 65.3737 126.466 65.454 126.515 65.5228C126.704 65.7918 127.205 65.7225 127.185 65.361C127.181 65.3057 127.159 65.2529 127.124 65.2082L127.125 65.201L127.129 65.1877C127.215 65.1487 127.303 65.1054 127.395 65.0628L128.252 64.6672C128.5 64.5526 128.775 64.3756 129.051 64.3319C129.308 64.2911 129.58 64.4703 129.801 64.5783L129.815 64.5853C130.35 64.8412 130.88 65.1057 131.409 65.3723C131.666 65.5024 131.921 65.6381 132.178 65.7698C132.393 65.8799 132.624 66.0381 132.866 66.1002C132.969 66.1752 133.092 66.1651 133.19 66.1085C133.145 66.3688 133.148 66.6361 133.134 66.9023C133.115 67.2582 133.113 67.6151 133.106 67.9716L133.104 68.1052C133.088 68.8931 133.079 69.6812 133.076 70.4692C133.064 73.2755 133.098 76.0823 133.105 78.8886C133.109 80.2986 133.139 81.7099 133.179 83.1192C133.195 83.7167 133.229 84.3129 133.267 84.9098L133.288 85.2345C133.331 85.921 133.358 86.6146 133.493 87.292C133.511 87.3803 133.671 87.3823 133.687 87.292C133.812 86.5665 133.819 85.8249 133.843 85.091L133.848 84.9442C133.877 84.1564 133.89 83.3686 133.888 82.5802C133.877 79.7732 133.799 76.9675 133.735 74.1606C133.703 72.7505 133.681 71.3398 133.631 69.9301C133.606 69.2248 133.578 68.5198 133.544 67.8148C133.53 67.5 133.515 67.1855 133.493 66.8712L133.483 66.7364C133.476 66.6485 133.471 66.5618 133.463 66.4757C133.767 66.5795 134.045 66.3874 134.319 66.256C134.634 66.1045 134.949 65.9527 135.264 65.8015L135.579 65.6506L136.211 65.3495C136.496 65.2139 136.715 65.079 137.018 65.238C138.11 65.8108 139.114 66.5729 140.024 67.3726C140.198 67.526 140.567 67.4847 140.611 67.2277C140.8 66.1296 140.686 65.0157 140.589 63.9143L140.554 63.5054C140.511 63.0171 140.464 62.5287 140.401 62.0423C140.373 61.8247 140.345 61.6073 140.315 61.3901L140.291 61.2273C140.253 60.9699 140.227 60.714 140.145 60.4671C140.171 60.4593 140.196 60.4465 140.218 60.4267C140.465 60.208 140.346 59.8284 140.234 59.5683C140.122 59.3115 139.953 59.0873 139.741 58.8944C139.694 58.8522 139.629 58.8252 139.564 58.8237C139.049 58.5051 138.484 58.3461 137.896 58.52C137.88 58.4463 137.863 58.3726 137.845 58.2992L137.827 58.2258C137.782 58.0436 137.765 57.7426 137.596 57.6207ZM132.321 86.397C132.162 86.3561 131.987 86.399 131.87 86.5087C131.753 86.6178 131.706 86.7809 131.75 86.9302C131.772 87.0036 131.812 87.0679 131.87 87.1218C131.923 87.1718 131.986 87.2076 132.058 87.229L132.075 87.2335L132.101 87.2433C132.181 87.2634 132.261 87.2634 132.341 87.2433C132.418 87.2238 132.484 87.1874 132.54 87.1348C132.596 87.0822 132.635 87.0205 132.656 86.9484C132.678 86.8737 132.678 86.799 132.656 86.7244L132.646 86.6997C132.623 86.6263 132.584 86.5626 132.526 86.5087C132.468 86.4548 132.4 86.4178 132.321 86.397ZM122.838 71.5247C122.811 71.4965 122.769 71.5325 122.785 71.5625C123.034 72.0182 123.312 72.4707 123.584 72.9148C123.562 73.038 123.54 73.1601 123.515 73.2791C123.41 73.7864 123.28 74.2846 123.195 74.7967C122.89 76.6376 122.732 78.4983 122.596 80.3558C122.46 82.2197 122.442 84.085 122.422 85.9528C122.42 86.1145 122.553 86.3029 122.732 86.3334C122.814 86.347 122.875 86.3444 122.956 86.3334C123.143 86.3074 123.259 86.1087 123.267 85.9528C123.32 84.9085 123.391 83.8661 123.474 82.8237C123.622 80.976 123.711 79.1237 123.83 77.2741L123.872 76.6272C123.917 75.9271 123.958 75.2263 123.972 74.5245C123.98 74.0598 123.954 73.5952 123.971 73.1309C123.986 72.7023 124.032 72.2363 123.931 71.8152C123.927 71.7994 123.901 71.7954 123.893 71.8105C123.788 72.0174 123.721 72.2421 123.67 72.4717C123.399 72.1514 123.123 71.8304 122.838 71.5247ZM140.586 60.2033C140.549 60.2006 140.55 60.254 140.586 60.258C141.119 60.3156 141.632 60.5178 142.134 60.6897L142.177 60.7044C142.684 60.8764 143.179 61.0763 143.655 61.3147C144.586 61.7808 145.44 62.3818 146.195 63.0698C149.212 65.8163 150.587 69.7768 151.594 73.4987C152.153 75.5667 152.551 77.6696 152.809 79.7881C152.936 80.8364 153.027 81.8885 153.08 82.9419C153.106 83.4816 153.123 84.022 153.13 84.563C153.134 84.8396 153.135 85.1163 153.134 85.3936C153.134 85.5203 153.11 85.68 153.147 85.8034C153.18 85.9171 153.275 86.0177 153.345 86.1126C153.429 86.2256 153.579 86.2197 153.663 86.1126L153.694 86.0736C153.784 85.9625 153.872 85.8554 153.885 85.7099C153.899 85.5534 153.889 85.3923 153.889 85.2351C153.891 84.9189 153.887 84.6019 153.88 84.2856C153.867 83.6797 153.842 83.0731 153.803 82.4678C153.726 81.239 153.599 80.0128 153.417 78.7938C153.094 76.6266 152.61 74.4806 151.975 72.3748C151.376 70.3881 150.667 68.4074 149.656 66.5672C148.718 64.8587 147.487 63.2693 145.863 62.0753C145.108 61.52 144.286 61.0572 143.399 60.7087C142.952 60.5329 142.483 60.3894 142.006 60.3076C141.533 60.2267 141.063 60.238 140.586 60.2033ZM132.23 82.8854C132.145 82.8848 132.051 82.9023 131.979 82.9458L131.882 83.0153C131.856 83.0471 131.83 83.0783 131.804 83.1101C131.744 83.1835 131.736 83.303 131.748 83.3907C131.751 83.4491 131.77 83.5037 131.804 83.5543L131.878 83.6433C131.949 83.6972 132.007 83.7355 132.093 83.7615C132.138 83.7752 132.181 83.7778 132.224 83.7758L132.238 83.7752L132.23 83.7758L132.245 83.7745C132.259 83.7732 132.273 83.7719 132.287 83.77C132.296 83.7693 132.306 83.7687 132.316 83.7674C132.325 83.7667 132.334 83.7661 132.343 83.7667C132.452 83.7765 132.561 83.7187 132.639 83.6524C132.708 83.5927 132.771 83.466 132.761 83.3764L132.757 83.3387C132.749 83.2751 132.744 83.2504 132.715 83.1868C132.687 83.1251 132.648 83.0705 132.595 83.0244C132.493 82.9361 132.369 82.8861 132.23 82.8854ZM132.567 78.2528C132.422 78.1054 132.174 78.0943 131.995 78.1833C131.951 78.2054 131.911 78.2405 131.872 78.2691C131.776 78.3424 131.738 78.4749 131.732 78.586C131.727 78.6964 131.789 78.8269 131.872 78.9029L131.893 78.9211C131.943 78.9666 132.015 79.0062 132.084 79.0179C132.197 79.0374 132.292 79.0367 132.397 78.9958C132.487 78.9601 132.564 78.9029 132.617 78.8256L132.626 78.812C132.629 78.8068 132.633 78.8016 132.636 78.7958L132.64 78.7873C132.741 78.6068 132.714 78.4022 132.567 78.2528ZM132.492 73.5953C132.427 73.5763 132.361 73.5735 132.296 73.5872C132.252 73.5873 132.211 73.5978 132.173 73.6184C132.131 73.6293 132.095 73.6489 132.064 73.6774C132.028 73.6977 131.998 73.7251 131.977 73.7595C131.933 73.8038 131.904 73.8557 131.889 73.9153L131.872 74.037L131.889 74.1589L131.938 74.2683C131.952 74.2849 131.966 74.3014 131.979 74.3179C132.001 74.3525 132.03 74.38 132.068 74.4004C132.092 74.4227 132.119 74.4394 132.15 74.4509C132.259 74.5241 132.405 74.5479 132.534 74.5146C132.61 74.4945 132.677 74.4582 132.734 74.4057C132.79 74.3528 132.829 74.2905 132.85 74.2188L132.859 74.1615C132.871 74.0847 132.872 74.0421 132.849 73.9444C132.839 73.9014 132.81 73.8408 132.794 73.8153C132.727 73.7064 132.619 73.6318 132.492 73.5953ZM126.833 70.2448C126.645 70.2436 126.458 70.2439 126.271 70.2458L126.131 70.2476C125.896 70.251 125.694 70.2284 125.509 70.3808C125.376 70.4913 125.435 70.6769 125.562 70.7601C125.755 70.8863 125.997 70.8229 126.219 70.809C126.453 70.7943 126.686 70.7822 126.92 70.7723C127.373 70.7534 127.827 70.7413 128.281 70.7394C128.733 70.7376 129.187 70.7416 129.639 70.7484C130.1 70.7555 130.579 70.7955 131.038 70.751C131.1 70.7449 131.115 70.6676 131.053 70.6475C130.621 70.508 130.136 70.4628 129.683 70.4094C129.217 70.3544 128.75 70.3154 128.281 70.2901C127.799 70.2643 127.315 70.248 126.833 70.2448ZM132.493 68.8746L132.477 68.8748C132.395 68.875 132.318 68.8931 132.246 68.9292L132.231 68.9372L132.132 69.0085C132.071 69.0656 132.029 69.1327 132.006 69.2101L131.989 69.3315C131.986 69.3943 132 69.4529 132.031 69.5074C132.051 69.564 132.084 69.6129 132.132 69.6544C132.176 69.6989 132.228 69.7303 132.289 69.7487C132.343 69.7751 132.401 69.7884 132.462 69.7884L132.477 69.7881C132.565 69.7878 132.648 69.7671 132.724 69.7257L132.823 69.6544C132.883 69.5973 132.925 69.5302 132.949 69.4528L132.966 69.3315C132.968 69.2686 132.955 69.2099 132.924 69.1555C132.904 69.0989 132.87 69.0499 132.823 69.0085C132.779 68.964 132.726 68.9326 132.666 68.9141C132.612 68.8877 132.554 68.8746 132.493 68.8746ZM131.044 58.1475C130.939 58.005 130.748 58.1317 130.775 58.2462C130.768 58.568 130.75 58.8803 130.672 59.1955C130.637 59.3398 130.59 59.4842 130.517 59.6164L130.486 59.6721C130.392 59.8453 130.32 60.0087 130.446 60.1986C130.505 60.2883 130.613 60.3556 130.73 60.3508C131.247 60.33 131.318 59.6569 131.35 59.2812C131.382 58.8943 131.281 58.469 131.044 58.1475Z" fill="black"/>
<path d="M123.382 38.4721C124.286 35.6385 127.184 34.8165 128.52 34.7598H129.513C129.776 35.3842 130.965 36.8441 133.623 37.6888C136.945 38.7445 138.589 40.4815 139.72 41.9119C140.85 43.3423 140.884 43.138 143.282 44.0916C145.679 45.0452 144.926 48.2466 144.72 49.8814C144.514 51.5161 140.61 54.2066 139.206 55.1943C137.801 56.182 135.952 56.0458 135.13 56.1139C134.308 56.182 133.109 57.7487 131.328 57.953C129.547 58.1574 126.02 58.0892 123.793 55.1943C121.567 52.2994 122.081 47.0546 122.423 45.0792C122.766 43.1039 122.252 42.014 123.382 38.4721Z" fill="white"/>
<path fill-rule="evenodd" clip-rule="evenodd" d="M118.049 40.2627C118.482 39.0666 118.939 37.8797 119.421 36.702C119.89 35.5558 120.314 34.3849 120.896 33.293C124.374 26.7716 130.699 26.7716 133.968 27.6237C135.664 26.8976 138.84 27.1025 140.605 27.7577C143.463 28.8183 146.947 32.9907 148.138 34.8653C150.769 39.0043 152.41 44.5132 150.663 49.2959C150.434 49.921 150.144 50.4999 149.816 51.0579C150.022 51.3361 150.26 51.5996 150.523 51.8586C151.305 52.628 152.088 53.3722 152.764 54.2401C153.436 55.1027 153.993 56.0199 154.407 57.0312C155.189 58.9384 155.227 61.0979 154.194 62.9177C153.294 64.501 151.701 65.6801 149.906 65.7926C149.814 65.8054 149.722 65.817 149.63 65.8263C149.392 66.2155 149.102 66.574 148.771 66.8865C147.757 67.8449 145.34 68.3366 143.962 68.3681C143.891 68.4246 143.82 68.4811 143.748 68.5368C142.905 69.1966 142.02 69.8623 141.051 70.3316C140.396 70.6501 139.536 70.9159 138.852 70.6862C138.541 70.8922 138.032 70.8489 137.724 70.6803C137.218 70.4032 136.807 69.9043 136.556 69.3935C135.949 68.1535 136.095 66.7966 136.251 65.4718C136.423 64.0086 136.588 62.5446 136.756 61.0813C136.887 59.9371 137.025 58.7739 137.375 57.6717C137.556 57.1005 137.793 56.5517 138.099 56.0357C138.091 55.9924 138.093 55.949 138.105 55.9084C138.206 55.584 138.413 55.414 138.659 55.1935C138.69 55.1652 138.722 55.1364 138.753 55.1068C138.876 54.9676 139.008 54.8383 139.148 54.7287C139.202 54.6742 139.256 54.6191 139.309 54.5639C139.754 54.1011 140.173 53.6146 140.547 53.0934C140.909 52.588 141.236 52.0601 141.547 51.5225C141.863 50.9756 142.073 50.3723 142.388 49.8294C142.416 49.7828 142.484 49.7737 142.523 49.8124C142.62 49.9128 142.683 50.0244 142.671 50.1419L142.72 50.1492C142.738 49.9719 142.903 49.8275 143.126 49.8662C143.461 49.924 143.735 49.9456 144.024 49.8354C143.973 49.4999 143.927 49.1638 143.881 48.827C143.796 48.2073 143.717 47.5856 143.65 46.964C143.487 47.0027 143.325 47.0585 143.167 47.1294C142.941 47.2299 142.727 47.3651 142.545 47.5311C142.365 47.6953 142.241 47.9165 142.022 48.0307C141.77 48.1614 141.465 47.9454 141.539 47.6618C141.689 47.0887 142.538 46.7604 143.063 46.6522C143.243 46.6147 143.427 46.599 143.612 46.6029C143.57 46.2038 143.533 45.8046 143.503 45.4048C143.488 45.2158 143.475 45.0267 143.463 44.837C143.054 44.7142 142.617 44.6775 142.192 44.7352C142.053 44.8462 141.912 44.9558 141.777 45.0668C141.347 45.4199 140.919 45.7751 140.496 46.1368C140.458 46.169 140.42 46.2011 140.382 46.234C140.131 46.4486 139.818 46.2359 139.86 45.932C140.205 43.4414 138.67 41.4601 136.873 39.9253C134.883 38.2257 131.266 38.0278 128.9 35.0838C127.811 35.3042 125.378 35.9589 124.374 37.5489C122.969 39.7769 123.152 41.7732 123.045 44.3007C122.938 46.8301 122.666 49.4684 123.244 51.9623C123.777 54.2619 125.22 56.2267 127.459 57.13C127.514 57.1524 127.571 57.174 127.627 57.195C128.785 57.6289 130.049 57.7517 131.266 57.5233C132.614 57.2698 133.74 56.6568 134.862 55.9025C134.926 55.8598 135.02 55.9477 134.972 56.0121C133.493 57.9592 130.59 58.6097 128.286 58.0957C128.179 58.0714 128.072 58.0452 127.966 58.0163C128.481 59.4887 128.377 61.105 127.706 62.5387C127.303 63.4013 126.687 64.1477 125.937 64.7365C125.111 65.3852 124.086 65.909 123.513 66.8195C122.988 67.6539 123.144 68.5913 124.042 69.0732C124.269 69.1953 124.356 69.5898 124.131 69.7632C124.046 69.8288 123.96 69.8958 123.872 69.9614C123.368 70.3388 121.986 71.0478 121.762 71.0741C119.774 71.3085 118.437 69.8576 117.581 68.1463C116.574 66.1375 116.836 63.6895 117.945 61.7765C118.834 60.2417 120.585 58.7292 119.888 56.7867C119.64 56.0928 119.132 55.5014 118.639 54.967C118.076 54.3584 117.471 53.7886 116.932 53.1584C116.395 52.5328 115.919 51.8521 115.654 51.0669C115.266 49.9194 115.459 48.6787 115.75 47.5331C116.375 45.074 117.185 42.6477 118.049 40.2627Z" fill="black"/>
<path fill-rule="evenodd" clip-rule="evenodd" d="M130.096 54.0185C130.535 53.8399 130.928 53.5421 131.215 53.1618C131.315 53.0295 131.341 52.8899 131.32 52.7622C131.296 52.6186 131.211 52.4885 131.094 52.4011C130.978 52.3136 130.831 52.2704 130.69 52.2924C130.567 52.3116 130.445 52.3784 130.349 52.5171L130.328 52.5448C130.158 52.7744 129.935 52.9628 129.682 53.0842C129.438 53.2012 129.165 53.2558 128.882 53.224C128.345 53.1636 127.974 52.8741 127.579 52.4809C127.531 52.4313 127.482 52.3801 127.433 52.3281C127.402 52.281 127.359 52.2506 127.311 52.2347C127.258 52.2171 127.198 52.2181 127.143 52.2372C127.09 52.2556 127.043 52.2905 127.011 52.337C126.98 52.3811 126.963 52.4356 126.969 52.4983C127.005 52.9058 127.219 53.2694 127.523 53.5549C127.861 53.872 128.308 54.0914 128.73 54.1683C129.195 54.253 129.667 54.1923 130.096 54.0185Z" fill="black"/>
<path fill-rule="evenodd" clip-rule="evenodd" d="M134.259 44.9848C134.204 44.3107 133.172 44.1576 133.069 44.8247C132.977 45.4223 133.086 45.9712 133.356 46.5092C133.615 47.0232 134.265 46.7834 134.314 46.3153C134.38 45.688 134.293 45.4042 134.259 44.9848Z" fill="black"/>
<path fill-rule="evenodd" clip-rule="evenodd" d="M126.404 44.6865C126.26 44.499 126.052 44.3711 125.803 44.4433C125.026 44.6694 125.255 45.7677 125.528 46.3024C125.676 46.5927 126.156 46.6663 126.373 46.4107C126.726 45.9938 126.895 45.1613 126.446 44.7507C126.434 44.7295 126.42 44.7081 126.404 44.6865Z" fill="black"/>
<path fill-rule="evenodd" clip-rule="evenodd" d="M133.367 42.0349L133.244 42.0135C132.864 41.9481 132.392 41.8853 132.123 42.1893C131.981 42.3504 131.932 42.65 132.123 42.8042C132.46 43.0757 132.833 42.9705 133.236 42.9935C133.57 43.0125 133.89 43.0673 134.21 43.1585C134.914 43.3585 135.487 43.7237 136.087 44.1247C136.166 44.1773 136.247 44.0769 136.209 44.0036C135.862 43.3277 135.19 42.7726 134.517 42.4341C134.157 42.2535 133.765 42.1037 133.367 42.0349Z" fill="black"/>
<path fill-rule="evenodd" clip-rule="evenodd" d="M127.113 41.7324L127.019 41.7515C125.996 41.9642 124.667 42.3893 124.182 43.3891C124.164 43.5305 124.183 43.5607 124.199 43.5805L124.204 43.5871C124.217 43.604 124.228 43.6273 124.289 43.6466C124.307 43.6425 124.324 43.6382 124.342 43.6337C124.564 43.5758 124.739 43.496 124.909 43.4132L125.093 43.3228C125.308 43.2185 125.523 43.1179 125.752 43.0436C126.24 42.8852 126.742 42.7736 127.253 42.714C127.363 42.7011 127.469 42.6639 127.553 42.6004C127.633 42.54 127.694 42.4564 127.722 42.3453C127.757 42.2015 127.747 42.0926 127.67 41.9629C127.611 41.8654 127.528 41.798 127.432 41.7592C127.334 41.7196 127.223 41.7103 127.113 41.7324Z" fill="black"/>
<path d="M127.878 50.3275C127.501 50.3448 127.225 50.1858 127.06 49.9387C126.866 49.6491 126.826 49.3608 126.929 48.9861C127.109 48.3318 127.52 47.6988 127.978 47.2037C128.215 46.9485 128.475 46.7136 128.755 46.5082L128.761 46.5037C128.964 46.355 129.195 46.1862 129.47 46.1689C129.454 46.4962 129.088 46.8113 128.879 47.1117C128.836 47.1743 128.794 47.2348 128.755 47.2928L128.724 47.3404C128.456 47.7452 128.168 48.1673 127.996 48.6211C127.949 48.7418 127.912 48.8556 127.878 48.98C127.869 49.0112 127.855 49.0757 127.855 49.0939V49.1814C127.855 49.1814 127.855 49.2604 127.953 49.2754C127.983 49.2707 128.012 49.2657 128.041 49.2604C128.073 49.2547 128.104 49.2487 128.135 49.2421C128.563 49.1528 128.953 48.9895 129.348 48.8126L129.561 48.717C129.773 48.6214 130.016 48.6158 130.199 48.7379L130.312 48.8127L130.389 48.6898C131.064 48.7883 131.636 49.5574 131.998 50.105L132.039 50.1683C132.428 50.7742 132.852 51.2817 132.495 52.005C132.468 52.0595 132.414 52.0869 132.357 52.0941C132.294 52.1023 132.243 52.0512 132.198 52.005C132.039 51.6017 132.068 51.4743 131.945 51.092C131.862 50.8352 131.769 50.5551 131.656 50.3275C131.528 50.0689 131.309 49.744 131.044 49.4781L130.858 49.2919C130.834 49.2678 130.805 49.2387 130.747 49.1765L130.478 48.9371L130.369 49.2001C130.312 49.3704 130.224 49.5026 130.061 49.6087C129.433 50.0166 128.627 50.2933 127.878 50.3275Z" fill="black"/>
<path fill-rule="evenodd" clip-rule="evenodd" d="M54.6773 86.7477C55.8425 86.6918 55.3738 84.6629 55.2902 83.9173C54.3676 81.1955 54.5845 78.2255 54.2216 75.3724C53.9956 72.7089 53.7052 70.0538 53.4609 67.3924C52.9811 61.99 49.5355 50.9922 45.6034 49.2234C45.108 47.0596 43.0622 45.0396 40.4738 45.0396C38.7084 42.959 36.5835 41.4948 33.858 41.7904C32.7317 41.8414 31.6394 43.0308 30.5603 43.2604C29.956 43.3434 24.5934 43.1299 23.5192 43.7651C22.771 44.1476 22.0955 44.8545 22.3156 45.7544C22.6666 46.8446 21.5757 45.6649 19.3 46.8286C14.6596 49.6034 17.4325 53.3155 17.5554 53.4305C14.6596 57.442 12.1285 60.6963 10.9574 65.5994C10.1985 69.2396 10.2839 72.9975 9.64798 76.6564C9.42345 77.9248 9.07899 79.1503 8.70625 80.3823C8.30228 81.9949 8.10586 86.0131 7.88319 86.0495C7.47759 86.1495 8.1176 86.9789 8.54737 86.9795C20.4629 88.9474 32.5662 87.0607 44.5457 86.7529C47.9217 86.636 51.3014 86.6087 54.6773 86.7477Z" fill="white"/>
<path fill-rule="evenodd" clip-rule="evenodd" d="M36.617 53.7847C36.6226 53.7303 36.6961 53.7305 36.7018 53.7847L36.7859 54.5932C36.8883 55.5808 36.9868 56.5663 37.0583 57.5584C37.1473 58.7956 37.2069 60.0325 37.2356 61.2724C37.3357 65.5908 37.3556 69.9115 37.364 74.231C37.9507 74.1906 38.5375 74.1516 39.1246 74.1139C39.5229 74.0883 39.9212 74.0637 40.3196 74.0396L41.3354 73.9782L41.7536 73.9527C42.0362 73.9353 42.3573 73.8644 42.5548 74.1137C42.6339 74.2134 42.6736 74.3431 42.5999 74.4615C42.4298 74.7347 42.1685 74.7252 41.873 74.737C41.5942 74.7482 41.3155 74.7592 41.0366 74.7699C40.4392 74.793 39.8418 74.8148 39.2442 74.8315C38.617 74.849 37.9901 74.8633 37.3632 74.8739C37.3568 76.6974 37.2811 78.5185 37.1991 80.3402L37.1621 81.1598C37.0617 83.3764 36.9539 85.595 36.8007 87.809C36.7881 87.9902 36.5305 87.9896 36.5181 87.809C36.3455 85.3157 36.2317 82.8173 36.1188 80.3214C36.037 78.5113 35.9893 76.7007 35.9666 74.89C35.8837 74.8905 35.8009 74.8917 35.718 74.892C33.3649 74.9022 31.0125 74.9124 28.6594 74.8905C28.6633 74.8951 28.6671 74.8997 28.6698 74.9058C28.84 75.3063 28.8562 75.8167 28.8521 76.246C28.8473 76.739 28.7807 77.2254 28.6668 77.7047C28.2585 79.4206 27.2054 80.9579 26.006 82.2288L25.9668 82.2698C25.684 82.5679 25.3594 82.8666 25.1857 83.2459C25.0082 83.633 24.9466 84.0857 24.8591 84.5013L24.8489 84.5494L24.5066 86.1237C24.3977 86.6237 24.3669 87.3531 23.9693 87.7135C23.5984 88.0506 23.107 87.8746 22.9324 87.4414C22.7961 87.103 22.9319 86.7315 23.0126 86.3932L23.6452 83.746C23.7491 83.3141 23.8627 82.8796 24.087 82.4919C24.3168 82.0944 24.6536 81.8067 24.9974 81.5118C25.6482 80.954 26.2458 80.3155 26.7511 79.6239C27.2562 78.9328 27.688 78.1704 27.9907 77.369C28.1422 76.9682 28.2664 76.5513 28.3521 76.1311C28.4336 75.7323 28.4329 75.3199 28.52 74.9254C28.5259 74.8981 28.5491 74.8794 28.5755 74.8711C28.5692 74.8535 28.5788 74.8298 28.6035 74.8282L30.528 74.7051C32.2386 74.5952 33.9492 74.4826 35.6583 74.3538L35.9603 74.3321C35.9368 71.9161 35.9568 69.4997 36.0006 67.0829C36.0408 64.8666 36.0416 62.6497 36.1078 60.4338C36.1407 59.3339 36.2117 58.2367 36.2906 57.1392C36.3714 56.0168 36.5008 54.9038 36.617 53.7847ZM18.5474 66.6351C18.5269 66.5121 18.6824 66.4358 18.7541 66.5484C19.5736 67.8344 19.9687 69.2312 20.1352 70.7361C20.2823 72.0643 20.239 73.4116 20.1657 74.7432C20.0876 76.1636 19.9964 77.5833 19.9043 79.003L19.7626 81.18L19.4072 86.6374C19.3817 87.0277 19.2927 87.383 18.9551 87.5642C18.9124 87.5999 18.8679 87.6317 18.8159 87.659C18.6335 87.7564 18.3917 87.707 18.2862 87.5206L18.3284 87.5486C18.3653 87.5713 18.3239 87.5395 18.2043 87.4518L18.1029 87.3213C18.0292 87.2108 17.9821 87.1024 17.9631 86.9712C17.9337 86.7673 17.9718 86.5439 17.9852 86.3393L18.2182 82.7608C18.3994 79.9785 18.6109 77.1975 18.7704 74.4138C18.8447 73.1166 18.8967 71.818 18.8615 70.5185C18.8265 69.2262 18.7603 67.9119 18.5474 66.6351ZM25.6364 42.6796L25.6819 42.672C27.3095 42.4029 29.0794 42.4532 30.5669 43.2344C30.5792 43.2408 30.5736 43.2611 30.5598 43.2605L30.081 43.2415C28.5653 43.1824 27.0542 43.1474 25.5639 43.502L25.4113 43.5386C24.8746 43.6689 24.3141 43.8285 23.883 44.1814C23.4709 44.5188 23.2658 45.0392 23.0685 45.5183L23.0421 45.5815C22.842 46.0547 22.5886 46.5035 22.1499 46.7994C21.5816 47.1826 20.8982 47.1356 20.2466 47.1876C19.0993 47.2794 18.1613 48.1073 17.6946 49.1203C17.412 49.7336 17.2915 50.4213 17.2676 51.0921C17.2554 51.4337 17.2536 51.7885 17.2994 52.1277C17.3139 52.2362 17.4487 52.6314 17.5173 52.6219C17.6699 52.6008 17.8095 52.6801 17.857 52.8015C18.234 52.439 18.6218 52.0868 19.0221 51.7473C20.0199 50.9013 21.0946 50.1345 22.2265 49.4756C23.0903 48.9727 24.0014 48.4745 24.945 48.0978C24.8702 48.0962 24.7965 48.111 24.7252 48.1478C24.6939 48.1642 24.6628 48.1251 24.6875 48.0993C24.9847 47.788 25.3407 47.7437 25.6996 47.8267C25.7761 47.8025 25.8528 47.779 25.9297 47.7567C25.968 47.7456 25.987 47.7981 25.9558 47.8184L25.8677 47.8745C26.2592 48.005 26.6435 48.2617 26.9478 48.4643C27.822 49.0459 28.5914 49.7569 29.3714 50.4547L29.5131 50.5812C30.1997 51.1915 30.9037 51.7846 31.6837 52.2742C32.092 52.5305 32.5209 52.7675 32.9708 52.9438C33.3566 53.0952 33.9848 53.1904 34.1655 53.5964C34.3261 53.7907 34.259 54.0386 34.0709 54.1694C33.7536 54.517 33.119 54.2924 32.7409 54.1476C32.2852 53.973 31.8436 53.7633 31.4225 53.5172C30.605 53.0394 29.8512 52.4453 29.149 51.8132C28.4157 51.1532 27.724 50.4519 27.0107 49.7711C26.7016 49.4761 26.3997 49.1742 26.0901 48.8797L25.9347 48.7331C25.7767 48.5856 25.5516 48.3557 25.311 48.2165C24.8577 48.4858 24.3974 48.7439 23.9481 49.0201C23.321 49.4056 22.7123 49.8189 22.113 50.2458C20.9594 51.0677 19.8661 51.9882 18.8512 52.9749C16.9898 54.7843 15.404 56.8506 14.0186 59.0384L13.9134 59.2051C13.1261 60.4574 12.3817 61.7501 11.8538 63.1338C11.273 64.6565 10.9905 66.2577 10.8371 67.8741C10.6848 69.4788 10.6334 71.0916 10.4632 72.6949C10.2886 74.3392 9.94471 75.9473 9.55352 77.5521L9.46022 77.9327C9.10627 79.3699 8.74093 80.8072 8.55897 82.2789C8.46185 83.0647 8.40342 83.8616 8.41662 84.6533C8.42989 85.4508 8.55566 86.2295 8.65713 87.018C8.69603 87.3206 8.39745 87.5726 8.13029 87.6122C7.82303 87.6583 7.55906 87.4635 7.46356 87.179C7.16583 86.2932 7.11174 85.3138 7.12109 84.3844C7.13049 83.4401 7.2515 82.5023 7.42177 81.5748C7.75664 79.7499 8.27342 77.9626 8.70573 76.1597C9.08673 74.5707 9.34243 72.9788 9.48026 71.3508C9.62334 69.6618 9.70902 67.9671 9.97003 66.2903C10.2277 64.6349 10.7124 63.0537 11.4435 61.5442C12.1091 60.1699 12.9389 58.8763 13.8088 57.6224C14.8653 56.0999 16.0255 54.6511 17.3224 53.331C17.2059 53.3259 17.0863 53.2884 16.9765 53.2203C16.6403 53.0116 16.4838 52.6033 16.4357 52.2305C16.3231 51.3584 16.3503 50.448 16.5756 49.5954C16.9389 48.22 17.882 46.9979 19.2489 46.5021C19.6007 46.3744 19.9747 46.3279 20.3476 46.3187C20.7014 46.3099 21.0878 46.3559 21.4292 46.2442C21.9726 46.0663 22.2055 45.4291 22.4095 44.9461L22.4189 44.924C22.6805 44.3085 22.9946 43.781 23.5611 43.3967C24.1658 42.9865 24.9232 42.8 25.6364 42.6796ZM41.1017 45.1137C41.5908 44.9448 42.2023 45.0981 42.6806 45.2457C43.2135 45.4102 43.7059 45.7131 44.1281 46.0728C44.5734 46.4522 44.9415 46.9207 45.2016 47.444L45.2264 47.4945C45.464 47.9799 45.7345 48.6464 45.6147 49.1797C45.6113 49.1948 45.6073 49.2095 45.6029 49.2235C46.5733 49.6991 47.4695 50.2949 48.25 51.05C49.1587 51.9291 49.9282 52.9296 50.5794 54.0103C53.1656 58.3029 53.6208 63.4584 53.9262 68.3538L54.0024 69.5951C54.1683 72.2754 54.3624 74.9491 54.8665 77.5924L54.9034 77.7833C55.4423 80.5513 56.2138 83.3394 56.1356 86.1789C56.1122 87.0296 54.8495 87.0238 54.8129 86.1789C54.675 82.9985 53.9298 79.9285 53.425 76.7981C52.5369 71.2909 52.9819 65.6132 51.7236 60.1611C51.2298 58.0215 50.4648 55.946 49.3724 54.0362C48.8329 53.0927 48.2156 52.181 47.4924 51.367C46.8702 50.6666 46.2236 49.9926 45.4965 49.4038C45.2641 49.6356 44.7999 49.5175 44.6786 49.1797C44.5952 48.9476 44.6196 48.6762 44.5661 48.433C44.5165 48.2073 44.448 47.9836 44.3568 47.7711C44.1751 47.3476 43.9084 46.9409 43.6005 46.5981C43.2678 46.2276 42.8855 45.9198 42.4577 45.6656C42.027 45.4097 41.5559 45.3332 41.1017 45.1462C41.0863 45.1399 41.0849 45.1196 41.1017 45.1137ZM43.0019 74.5464C43.0026 74.5241 43.0291 74.5135 43.0454 74.5285C43.2169 74.6856 43.3205 74.911 43.4467 75.1043C43.5922 75.327 43.7451 75.5453 43.9053 75.7583C44.2265 76.1837 44.5839 76.5857 44.9443 76.9786C45.2794 77.3449 45.6365 77.695 46.0071 78.0256C46.4085 78.3834 46.8583 78.7029 47.2231 79.0991C47.9841 79.9259 48.1071 81.0611 48.2676 82.1269L48.2852 82.2418C48.3831 82.8744 48.4709 83.5083 48.55 84.1435C48.5884 84.4526 48.6268 84.7617 48.6581 85.0715L48.6677 85.1696C48.6957 85.4729 48.7032 85.7801 48.5283 86.0451C48.3411 86.3289 47.9155 86.4282 47.6624 86.1561C47.2276 85.6892 47.3092 84.8605 47.2526 84.2597C47.2059 83.7629 47.1529 83.2667 47.0935 82.7718L47.0634 82.5243C46.9934 81.9606 46.9366 81.3859 46.8071 80.8325C46.693 80.3448 46.4755 79.9765 46.1187 79.6232C45.7593 79.268 45.3857 78.9354 45.0539 78.5523C44.702 78.1457 44.3845 77.7099 44.0985 77.2553C43.8539 76.8663 43.6578 76.4428 43.4781 76.02L43.4483 75.9499C43.2747 75.5375 42.9883 75.0004 43.0019 74.5464ZM49.2792 56.8347C49.283 56.7772 49.3684 56.7763 49.3696 56.8347C49.3805 57.3294 49.3908 57.824 49.4011 58.3187C49.4841 62.3049 49.433 66.3005 49.8347 70.2729C50.0241 72.1459 50.373 73.9914 50.7766 75.8291C50.9832 76.7695 51.1999 77.708 51.4058 78.6484C51.6064 79.5648 51.8216 80.4857 51.9808 81.4112C52.1372 82.3204 52.2773 83.2368 52.3402 84.1571L52.3479 84.2772C52.375 84.7234 52.5042 85.38 52.2575 85.7749C51.9901 86.2035 51.4783 86.2113 51.1919 85.8022C50.9229 85.4183 50.9897 84.7358 50.9423 84.2772C50.894 83.8109 50.8429 83.344 50.7849 82.8783C50.6717 81.9704 50.5226 81.0644 50.3676 80.1623C50.0445 78.284 49.576 76.4298 49.2303 74.5543C48.8759 72.6328 48.624 70.6976 48.6133 68.7411C48.6028 66.7682 48.8126 64.799 48.9185 62.8303C49.026 60.8307 49.1483 58.8327 49.2792 56.8347ZM30.3662 44.4364C30.4737 44.076 30.8531 43.8507 31.2232 43.952C31.5624 44.0448 31.8424 44.4546 31.7098 44.8052C31.565 45.1879 31.3122 45.5141 31.099 45.8619C30.902 46.1832 30.6149 46.4363 30.4142 46.7519L30.6353 46.9891C30.7459 47.1075 30.8568 47.2252 30.9689 47.3408L31.3545 47.7384C31.6548 48.0474 31.9569 48.3548 32.2676 48.6531C33.1811 49.5305 34.1092 50.379 35.1323 51.1304C35.3653 51.3013 35.6 51.4713 35.8413 51.6305L35.9312 51.6899C36.0968 51.7978 36.2815 51.9039 36.4815 51.8856C36.9674 51.8411 37.4065 51.3273 37.7404 51.0075L37.7579 50.9909C38.5854 50.207 39.3517 49.3498 40.0216 48.4282C40.1704 48.2234 40.3144 48.0152 40.4546 47.8045C40.1307 47.4278 40.2081 46.6925 40.1902 46.2356C40.1776 45.9144 40.1767 45.5931 40.175 45.2717L40.174 45.2069C40.1701 44.9988 40.1607 44.7992 40.2963 44.628C40.3042 44.6182 40.3205 44.6184 40.3307 44.6237C40.5164 44.7206 40.5736 44.8828 40.6529 45.0649L40.6612 45.0838C40.7576 45.3022 40.85 45.5227 40.9434 45.7424C41.0413 45.9724 41.131 46.2058 41.2219 46.4387C41.2643 46.5469 41.3047 46.6557 41.3442 46.765C41.3682 46.8348 41.3931 46.9043 41.4187 46.9736L41.4247 46.9789C41.4585 47.0074 41.4871 47.0375 41.5118 47.0686C41.6154 47.1203 41.6978 47.2144 41.7365 47.3525C41.8205 47.6533 41.6465 47.8987 41.4912 48.1374C40.8606 49.1075 40.1416 50.0319 39.3425 50.8704C38.9455 51.2871 38.528 51.6849 38.0932 52.0623L38.0173 52.1279C37.6268 52.462 37.2027 52.7785 36.6812 52.8567C36.0709 52.9481 35.5742 52.6459 35.107 52.2978L35.0603 52.2629C34.6175 51.9291 34.1834 51.5835 33.763 51.2221C32.9057 50.4851 32.09 49.6939 31.3662 48.8258C30.6621 47.9814 29.9661 47.0372 29.5322 46.0212C29.5056 45.9593 29.5753 45.8946 29.6297 45.9462C29.8417 46.1471 30.0457 46.359 30.2473 46.5736C30.2529 46.2577 30.1944 45.9392 30.2269 45.6214C30.2666 45.2351 30.2552 44.8083 30.3662 44.4364Z" fill="black"/>
<path fill-rule="evenodd" clip-rule="evenodd" d="M36.6476 13.9985C39.7144 13.9985 43.3941 15.477 43.707 15.5065L43.7154 15.507C43.8801 15.507 44.5232 15.9942 45.645 16.9687L44.43 19.3251L44.5283 19.4184C44.9988 19.867 45.4005 20.2758 45.7175 20.5981C48.3063 23.2297 48.7716 33.5621 48.1615 37.1653C47.5514 40.7685 46.4214 44.2944 41.1607 44.2944C35.8999 44.2944 30.0472 41.149 29.1456 40.1695C28.5446 39.5165 27.8695 39.2036 27.1203 39.2309C27.0894 39.1923 27.0589 39.1538 27.0286 39.1154L26.9184 39.0999C25.8815 38.9505 25.1385 38.7495 24.6895 38.497C23.8125 38.0036 22.8485 35.4098 22.8485 34.8384C22.8485 34.2728 21.4091 30.1577 21.3804 29.7223L21.3799 29.7102C21.3799 29.3462 19.4995 27.6728 19.4995 27.1413C19.4995 26.6099 19.1205 26.6421 19.4995 24.7694L19.6096 24.2192C20.013 22.2253 20.8024 18.9237 23.8125 17.4891C27.1203 15.9125 33.5497 13.9985 36.6476 13.9985Z" fill="white"/>
<path fill-rule="evenodd" clip-rule="evenodd" d="M23.3015 17.415C24.9511 15.6739 34.3167 12.9807 39.0549 13.5516L39.1971 13.5699C39.5752 13.6176 39.9479 13.6898 40.3156 13.7879C41.5044 14.064 42.7323 14.482 43.7146 15.1802C44.5346 15.7514 47.1214 16.6843 46.359 18.1786C46.6416 18.7112 46.7471 19.3691 46.5561 19.8937C46.532 20.0749 46.4759 20.2418 46.404 20.4148C47.008 21.301 47.4862 22.3033 47.8733 23.2565C48.5498 25.6556 48.9706 28.1524 49.0323 30.6C49.2374 35.2504 48.7246 40.8053 44.6515 43.8124C42.1909 45.7179 38.3365 45.782 35.5713 43.4193C35.4143 43.2347 34.6764 42.7363 34.9227 42.6489C34.9959 42.726 35.0713 42.8008 35.148 42.8744C35.1445 42.8662 35.1438 42.8581 35.1452 42.8492L35.0731 42.7842C34.9372 42.6593 34.7612 42.4779 34.9617 42.5134C34.9705 42.5236 34.9802 42.5325 34.9897 42.5427C35.0322 42.568 35.0643 42.59 35.0892 42.6094L35.1021 42.6196L35.0981 42.6155C34.9826 42.493 34.9134 42.3681 35.0861 42.4479L35.1089 42.4589C35.1857 42.5393 35.2637 42.6163 35.3431 42.6912C35.3419 42.6823 35.3431 42.6735 35.348 42.6639L35.274 42.5927C35.2016 42.5223 35.2126 42.522 35.248 42.4651C35.0943 42.2508 35.3813 42.378 35.4014 42.4616C35.581 42.4194 35.7386 42.7545 35.8542 42.7954C40.9232 46.6705 48.2792 43.2321 48.1601 32.4341L48.1583 32.2228C48.1235 28.7701 47.8313 25.2214 46.3951 22.0959C46.2554 21.7948 46.0991 21.5019 45.9272 21.2185C45.8088 21.006 45.682 20.799 45.5457 20.5973C45.1641 20.5667 44.7873 20.4973 44.4161 20.3896C44.2887 20.3576 44.1626 20.3222 44.0367 20.2806C42.1954 20.3805 40.3951 20.4891 38.5487 20.5921L37.9719 20.6279C36.4078 20.7278 34.7901 20.888 33.5279 21.85C32.2894 22.7258 32.2838 24.4528 31.2236 25.4144C29.7118 26.4347 29.7008 27.3548 29.4096 28.8584C29.4312 29.9918 30.2216 31.6386 28.7713 32.1156C29.0159 32.4626 28.6749 32.2958 28.648 32.1742C28.6453 32.1749 28.6425 32.1756 28.6405 32.1756C28.8585 32.5786 28.538 32.3248 28.5096 32.1953C28.4925 32.1906 28.4754 32.1783 28.4583 32.1613C28.6779 32.5144 28.3228 32.2671 28.3438 32.2028C27.9194 31.554 27.0457 31.4533 26.4299 31.6252C26.4223 31.6483 26.395 31.6504 26.3779 31.6381C23.7593 32.2024 24.435 37.5928 27.1184 37.0717C27.2333 37.0484 27.2305 37.1032 27.2533 37.1085C27.1913 36.9466 27.3661 37.0125 27.3642 37.0465L27.3749 37.046C27.3833 37.0452 27.3799 37.0443 27.3862 37.0465C27.3262 36.7155 27.6635 37.195 27.6369 37.2147C27.6472 37.2086 27.6588 37.2052 27.6692 37.2038L27.6575 37.1724C27.6016 37.0241 27.6063 37.0857 27.6067 37.0008C27.5647 36.8959 27.5616 36.9418 27.5714 36.8734C27.7193 36.7595 27.7629 37.105 27.8123 37.1303C27.7277 37.0131 27.7949 36.9174 27.8746 36.981C28.479 38.2451 29.2597 39.4328 30.2686 40.3685C30.379 40.455 30.4907 40.5401 30.6064 40.6205C31.0355 40.9922 31.6938 41.2312 32.0956 41.5605C32.0956 41.566 32.0929 41.5727 32.0888 41.5795L32.098 41.5878L32.1073 41.5965L32.247 41.6633C32.2881 41.6981 32.3251 41.7369 32.3579 41.7798C32.3929 41.82 32.4237 41.8643 32.4498 41.9113C32.4628 41.9685 32.434 41.9923 32.3792 41.9678C32.3552 41.9597 32.3313 41.9501 32.3073 41.9412C32.3087 41.9433 32.3093 41.9447 32.3107 41.946C32.3186 41.9578 32.3718 42.0805 32.3105 42.0605L32.3032 42.0577C32.2696 42.0454 32.2361 42.0318 32.2032 42.0189C32.2422 42.0673 32.2778 42.1197 32.3093 42.164C32.3429 42.1987 32.3634 42.2396 32.3717 42.2859C32.3703 42.3118 32.3559 42.3227 32.3299 42.3193C32.2902 42.3063 32.2511 42.2927 32.212 42.2784L32.2231 42.2995C32.2508 42.3536 32.2901 42.4442 32.2203 42.414C32.1606 42.3956 32.1031 42.3745 32.0456 42.3513C32.0408 42.3608 32.0312 42.3642 32.012 42.3554C31.8292 42.2907 31.6524 42.2116 31.4833 42.1183C31.3346 42.0107 31.1845 41.9052 31.0353 41.7982C30.8947 41.7144 30.7591 41.6211 30.6297 41.5162C29.7635 40.9598 29.0051 40.2531 28.4035 39.4659C27.3973 40.3324 25.3855 39.5046 24.141 38.8263C23.0403 38.2201 22.6076 37.0992 22.4958 35.8907C22.2632 34.2637 20.9261 33.7068 21.0191 30.1369C21.0171 30.1376 21.0149 30.1376 21.0122 30.1376C20.9636 30.1233 20.9163 30.1042 20.8718 30.0797C20.826 30.0579 20.7828 30.032 20.7423 30.0007L20.6923 29.9319C20.6663 29.9175 20.643 29.9026 20.6252 29.8876L20.616 29.8994C20.5868 29.9345 20.6064 29.8817 20.6081 29.8712L20.5212 29.7537C20.3153 29.4741 20.0893 29.1604 19.9052 28.9094L19.8994 28.9196C19.8952 28.9274 19.893 28.9329 19.895 28.9353C19.4569 28.3095 19.045 27.5536 18.9305 26.8217C18.7954 26.258 18.8482 25.6771 18.9661 25.1549C19.4715 23.3264 21.1273 19.1885 23.3015 17.415ZM35.1896 42.703L35.1622 42.6787L35.1863 42.7087C35.1989 42.7243 35.2119 42.7382 35.233 42.7525C35.2316 42.7477 35.2316 42.743 35.2322 42.7375C35.2182 42.7269 35.2039 42.7153 35.1896 42.703ZM39.034 14.4704C35.8208 14.1957 32.6603 14.8996 29.5941 15.7516L29.3826 15.8121C27.6391 16.3068 25.7956 16.752 24.3222 17.8108C22.2637 19.3786 21.2007 21.8727 20.2731 24.1755C19.4631 25.8863 19.8771 27.8156 21.0978 29.0102C21.2248 27.8231 21.4413 26.6706 21.7797 25.5274C21.8503 25.3488 21.7969 25.2903 21.9491 25.2671C22.179 28.3478 21.0468 30.6239 23.2874 34.275C24.2597 35.9978 23.1342 37.2583 25.8797 38.1649L25.954 38.1931C26.526 38.4077 27.1506 38.5771 27.7108 38.4571L27.6607 38.3759C27.6095 38.2924 27.5939 38.2518 27.6684 38.216C27.6664 38.212 27.6637 38.2079 27.6609 38.2031C27.6006 38.09 27.5424 37.9755 27.4869 37.8598C27.4643 37.8673 27.4417 37.8727 27.4184 37.8788C27.4335 37.9068 27.4355 37.9347 27.3931 37.9442C27.2421 37.9957 27.0871 38.0164 26.9284 38.0067L26.8944 38.0042C26.7151 37.9933 26.6021 37.9608 26.5011 37.9306C26.4677 37.9252 26.4341 37.9197 26.4011 37.9129C26.0761 37.8412 25.732 37.659 25.5093 37.4783C22.9708 36.0446 23.2331 31.1643 26.3621 30.7029C26.4263 27.6301 27.8961 22.446 30.3354 19.5179C32.5404 16.8246 38.5598 15.6572 42.7476 16.0689C42.8087 16.0889 42.8697 16.1092 42.9307 16.1297C43.5768 16.1868 44.1926 16.473 44.8391 16.606C44.3749 16.2601 43.8482 16.0296 43.3058 15.8338C42.225 15.1764 40.986 14.8207 39.789 14.5698C39.541 14.5092 39.2896 14.4758 39.034 14.4704ZM26.2189 33.1714C26.3872 33.0805 26.3679 33.1683 26.4066 33.1428C27.6168 33.0447 28.9216 34.0982 29.5981 34.9765C29.5446 35.0316 29.4001 34.8682 29.3747 34.8422C29.3713 34.8457 29.3672 34.8484 29.3631 34.8498L29.3819 34.8762C29.6561 35.2674 29.1126 34.807 29.0617 34.7121C29.0528 34.717 29.0439 34.7197 29.0336 34.7176C29.0767 34.7596 29.2083 34.8693 29.2309 34.9472L29.2658 34.976C29.5947 35.2561 29.5674 35.4669 29.194 35.0691C29.2028 35.0875 29.2062 35.1045 29.2 35.1181L29.2129 35.1266C29.3966 35.2543 29.5476 35.61 29.1638 35.2448C29.2037 35.5116 28.7834 34.996 28.7699 34.9996C28.0426 34.4318 26.9717 33.8797 26.0593 33.8056L26.0279 33.802C25.8605 33.7806 25.7813 33.7312 25.8401 33.6224C25.6339 33.5736 25.6822 33.4726 25.7798 33.4759C25.6344 33.3808 25.7653 33.2898 25.8497 33.3254C25.7917 33.1656 26.0244 33.272 26.0456 33.2498C26.1664 33.0645 26.199 33.219 26.2189 33.1714ZM23.6824 23.2709C24.2636 23.0592 25.9804 23.6929 25.8431 24.5322C25.7613 24.7249 25.4918 24.8353 25.3024 24.7265L25.0552 24.5614C24.625 24.275 24.237 24.0237 23.7751 23.7739C23.5237 23.6499 23.4155 23.3865 23.6824 23.2709ZM26.9892 22.0236L26.7648 21.8783C25.5534 21.09 23.8409 19.8955 26.8779 21.1314C27.224 21.2789 27.6839 21.3663 27.8728 21.6941C28.1695 22.2981 27.3887 22.3388 26.9892 22.0236ZM27.1254 18.4865C27.0281 18.1196 28.2376 18.55 28.5897 18.6636L28.6434 18.6837C28.9859 18.8106 29.3785 18.9283 29.5834 19.2222C29.8234 19.6283 29.3376 19.7124 29.0366 19.529C28.4197 19.1281 27.7432 18.8256 27.1254 18.4865ZM30.201 16.7778C29.5202 16.0385 31.3422 16.7467 31.6152 16.9433L31.623 16.9491C31.8266 17.0917 31.7853 17.3987 31.594 17.4889C31.0496 17.4992 30.649 17.048 30.201 16.7778ZM33.299 15.9678C32.2167 15.1944 33.6425 15.5623 34.1376 15.8654C34.4751 16.1613 34.1275 16.661 33.299 15.9678Z" fill="black"/>
<path fill-rule="evenodd" clip-rule="evenodd" d="M40.6208 39.1436C40.2224 38.9817 39.8671 38.7116 39.6072 38.3665C39.5169 38.2465 39.4934 38.1199 39.5124 38.004C39.5337 37.8738 39.611 37.7557 39.7165 37.6765C39.8223 37.5971 39.9547 37.5579 40.0826 37.5779C40.1938 37.5952 40.3045 37.6559 40.3921 37.7817L40.4104 37.8069C40.5649 38.0151 40.7662 38.186 40.9956 38.2961C41.2166 38.4023 41.4638 38.4518 41.7197 38.423C42.207 38.3682 42.543 38.1055 42.9 37.7489C42.9442 37.7039 42.9885 37.6574 43.033 37.6103C43.0611 37.5675 43.1001 37.54 43.1434 37.5256C43.1915 37.5095 43.2458 37.5104 43.2956 37.5278C43.3436 37.5445 43.3866 37.5762 43.4154 37.6183C43.4428 37.6583 43.4583 37.7078 43.4532 37.7647C43.4206 38.1343 43.2267 38.4641 42.9512 38.7231C42.6453 39.0108 42.2398 39.2098 41.858 39.2796C41.4375 39.3565 41.0089 39.3014 40.6208 39.1436ZM42.0564 33.4419C42.5039 33.7129 43.1857 34.345 42.7043 35.0169C42.1378 35.6093 41.3219 34.9301 40.9199 34.6228C40.5472 34.3847 40.1283 34.9971 40.4742 35.2751C43.3792 37.4183 44.5581 33.5128 42.2828 33.1232C42.0323 33.0804 41.9392 33.3581 42.0564 33.4419ZM36.8507 30.9488C36.9001 30.3373 37.8348 30.1984 37.9278 30.8036C38.011 31.3457 37.913 31.8436 37.668 32.3317C37.4339 32.7979 36.8454 32.5803 36.8009 32.1558C36.7412 31.5867 36.8199 31.3292 36.8507 30.9488ZM43.9653 30.6781C44.0956 30.508 44.2837 30.392 44.5091 30.4576C45.2134 30.6626 45.0058 31.659 44.7584 32.144C44.6241 32.4073 44.1897 32.4741 43.9934 32.2422C43.6734 31.864 43.5201 31.1089 43.9269 30.7364C43.938 30.7172 43.9502 30.6977 43.9653 30.6781ZM37.658 28.273L37.7693 28.2536C38.1135 28.1943 38.5413 28.1373 38.7848 28.413C38.9139 28.5592 38.9584 28.8309 38.7848 28.9709C38.4796 29.2171 38.142 29.1217 37.7761 29.1426C37.4746 29.1598 37.1849 29.2095 36.8945 29.2923C36.2573 29.4737 35.7382 29.8049 35.194 30.1687C35.1226 30.2164 35.0498 30.1254 35.0838 30.0589C35.3979 29.4458 36.0067 28.9421 36.6164 28.6351C36.9419 28.4713 37.298 28.3353 37.658 28.273ZM43.3233 27.9983L43.4084 28.0157C44.335 28.2087 45.5389 28.5943 45.9777 29.5013C45.9944 29.6295 45.9767 29.657 45.9624 29.6749L45.9576 29.6809C45.9458 29.6962 45.9363 29.7174 45.8805 29.7348C45.8651 29.7312 45.8494 29.7273 45.8336 29.7231C45.6325 29.6706 45.4734 29.5982 45.3193 29.5231L45.1523 29.4412C44.9584 29.3465 44.763 29.2552 44.5557 29.1879C44.1135 29.0442 43.6588 28.9429 43.1969 28.8888C43.0967 28.8771 43.0003 28.8435 42.9243 28.7857C42.8521 28.731 42.797 28.6551 42.7719 28.5543C42.7393 28.4239 42.7486 28.3251 42.8188 28.2075C42.8717 28.1191 42.9472 28.0579 43.034 28.0227C43.1225 27.9868 43.2232 27.9784 43.3233 27.9983Z" fill="black"/>
<path fill-rule="evenodd" clip-rule="evenodd" d="M46.7841 34.7839C45.777 35.2691 44.3721 34.5534 43.6949 33.8038C43.4484 33.5309 43.2583 32.75 43.3531 32.2547C43.6099 30.9134 44.5748 30.1084 45.5935 29.8336C47.0057 29.4524 48.4267 30.4179 48.261 31.5574C48.104 32.6373 47.866 34.2037 46.7841 34.7839ZM39.9295 32.2074C39.8488 33.6691 38.6754 34.9485 37.2729 35.3275C35.0133 35.9583 33.8966 34.3693 33.3908 32.6575C33.3405 32.4874 33.2224 31.9682 33.5394 31.5229C34.7864 29.7712 37.8203 30.0698 39.3356 30.5506C39.7791 30.975 39.9604 31.5874 39.9295 32.2074ZM47.8783 29.6863C47.8776 29.6871 47.8768 29.6879 47.8762 29.6887C47.871 29.6856 47.8659 29.6824 47.8606 29.6793C47.8664 29.6817 47.8726 29.6838 47.8783 29.6863ZM49.7689 29.8552C49.6376 28.367 44.9698 28.9369 44.424 29.0588C42.9346 29.497 41.6481 30.6892 39.983 30.1652C38.2575 28.241 32.4472 28.7929 31.2292 29.773C30.9986 29.6825 30.7182 29.731 30.4212 29.8164C28.8956 29.7613 21.9315 30.2874 23.356 32.2351C23.5721 32.3852 23.7881 32.2325 23.7941 31.9235C31.2199 29.2418 30.5001 31.7536 31.3807 31.4603C31.5152 31.499 31.6555 31.5235 31.7782 31.5492C32.4599 31.7686 32.6913 31.7008 32.7811 32.4663C33.3979 38.377 41.2661 36.337 40.6208 31.4887C41.2597 31.4535 41.8186 31.1772 42.4943 31.447C42.9633 36.0142 46.6373 36.1985 47.743 34.6153C48.5767 33.5164 48.2461 31.8581 49.3921 30.9936C49.8446 31.3724 49.8737 30.0941 49.7689 29.8552Z" fill="black"/>
</svg>
