<svg width="96" height="88" viewBox="0 0 96 88" fill="none" xmlns="http://www.w3.org/2000/svg">
<g clip-path="url(#clip0_240_6485)">
<path fill-rule="evenodd" clip-rule="evenodd" d="M35.198 87.7319C44.1482 89.106 53.2607 89.1751 62.2852 88.6761C65.8568 88.4059 69.4393 88.3572 73.008 88.7027C75.1167 88.8612 84.3625 89.5755 85.1179 87.6665C84.6425 77.501 83.6795 67.2489 80.7255 57.4722C79.5107 54.0008 78.4673 51.1195 76.0962 48.2468C75.3489 47.4625 73.7373 45.8175 72.814 45.281C72.0139 44.8163 71.6796 44.982 71.2202 44.1971C70.7637 43.3299 70.427 41.8818 69.7788 41.2699C69.1189 40.6469 68.1409 40.8698 66.9286 41.0704C67.1513 38.0285 65.7621 37.2537 63.8483 36.6753C60.4843 35.3775 57.1619 36.0295 56.3152 40.1687C54.7453 40.1687 53.8634 40.8516 52.9101 41.5077C52.5204 41.776 52.7915 42.4593 52.326 42.6701C51.4647 42.9801 49.9428 42.9041 49.1135 43.2856C45.3426 45.0202 41.984 47.5355 39.7783 51.2091C34.8335 59.0522 31.4367 75.5738 32.0245 84.8696C31.767 85.2778 32.1231 85.8632 32.2136 86.3021C32.3279 86.6839 32.6979 86.9379 33.084 86.8945C33.6229 87.4803 34.4564 87.6106 35.198 87.7319Z" fill="white"/>
<path fill-rule="evenodd" clip-rule="evenodd" d="M72.244 45.0512C72.1891 45.0202 72.2374 44.9409 72.2926 44.9671C74.947 46.2257 76.9832 48.4339 78.416 50.9852C79.8996 53.627 80.7452 56.6264 81.4742 59.558L81.5005 59.6639C82.2778 62.8001 82.9388 65.9686 83.5338 69.1448C84.1365 72.3613 84.6202 75.5978 85.0093 78.8476C85.2018 80.4544 85.3735 82.0641 85.5073 83.677C85.5742 84.483 85.6349 85.2897 85.6895 86.0966C85.7114 86.4194 85.7319 86.7421 85.7495 87.0651L85.7622 87.3075C85.7731 87.5272 85.7989 87.7476 85.7452 87.9644C85.6988 88.1513 85.6009 88.3205 85.5148 88.4921C85.3445 88.8313 84.8776 88.7754 84.6941 88.4921L84.6408 88.4096C84.5191 88.2195 84.4179 88.0428 84.3798 87.8062C84.3428 87.577 84.3415 87.337 84.3249 87.1055C84.2944 86.6798 84.2684 86.2536 84.2388 85.8276C84.1767 84.931 84.1069 84.035 84.0296 83.1397C83.8768 81.3721 83.7128 79.6062 83.5115 77.8435C83.1537 74.7108 82.7048 71.5865 82.1756 68.4788C81.6585 65.4429 81.0048 62.4379 80.3229 59.4366L80.2522 59.1261C79.0582 53.8861 77.218 47.8515 72.244 45.0512ZM43.9718 65.57C43.9913 65.5176 44.0753 65.5056 44.0895 65.57C44.2683 66.3837 44.286 67.2218 44.3133 68.0549C44.3402 68.8767 44.3392 69.7022 44.3273 70.5245C44.2836 73.5466 44.2015 76.5661 44.1305 79.5876C44.0951 81.099 44.0618 82.6107 44.0362 84.1223C44.0266 84.6892 44.0184 85.2562 44.0117 85.8231L44.0034 86.5709C43.9993 86.9015 43.9907 87.2281 43.9509 87.5584C43.9245 87.7756 43.8685 87.9828 43.7499 88.169C43.6656 88.3011 43.5456 88.3682 43.4287 88.458L43.4068 88.4752C43.2576 88.5943 43.1004 88.5952 42.9526 88.4752L42.9097 88.4408C42.7686 88.3293 42.6466 88.2421 42.5565 88.0657C42.4311 87.8203 42.411 87.5538 42.3897 87.2835C42.3574 86.8735 42.3788 86.4576 42.383 86.0465C42.3913 85.2218 42.4027 84.3972 42.417 83.5725C42.4695 80.5485 42.5734 77.524 42.7627 74.5054C42.8518 73.0835 42.9727 71.6571 43.1349 70.241L43.1658 69.9756C43.215 69.559 43.2599 69.1349 43.3104 68.7095C42.5557 68.1729 41.8923 67.5218 41.3265 66.7833C41.2849 66.7289 41.3535 66.6527 41.4037 66.7053C41.9818 67.3103 42.6446 67.7926 43.3784 68.1718C43.4986 67.2813 43.6639 66.3955 43.9718 65.57ZM56.5808 38.6139C56.5911 38.6058 56.6073 38.6023 56.6172 38.6139C56.7794 38.8051 56.7465 39.0974 56.7517 39.3396L56.7523 39.3622C56.764 39.7164 56.7662 40.0694 56.765 40.4238L56.7614 41.5519V41.5519C56.7609 41.707 56.7484 41.8685 56.7563 42.0245L56.7604 42.0849V42.0849C56.8456 42.1731 56.8852 42.3006 56.8563 42.4286C56.8511 42.5929 56.7662 42.7299 56.6422 42.816L56.9079 43.1969V43.1969L57.1737 43.5776C57.7217 44.3632 58.2757 45.1418 58.8531 45.9058C59.4419 46.6847 60.0699 47.4343 60.7272 48.155C61.0483 48.5071 61.3749 48.8544 61.7091 49.1939C61.8449 49.3319 61.984 49.4665 62.1217 49.6025L62.2586 49.7393C62.3395 49.8211 62.4413 49.9019 62.495 50.0056C62.5266 50.0668 62.5338 50.2174 62.5451 50.2424C62.6465 50.4676 62.4735 50.8268 62.1861 50.7144L62.1991 50.7056C62.2515 50.6688 62.2179 50.6683 62.0985 50.7041C62.0231 50.7038 61.9524 50.6863 61.8864 50.6516L61.8668 50.6407C61.7738 50.5929 61.6908 50.5005 61.6153 50.4266L61.5966 50.4085C61.4239 50.245 61.2592 50.0715 61.0937 49.9006C60.7482 49.5439 60.4106 49.1796 60.0836 48.8055C59.4315 48.0592 58.8132 47.2826 58.2276 46.4819C57.6312 45.6664 57.0769 44.809 56.6001 43.9165C56.4192 43.5777 56.2533 43.2325 56.0943 42.8832C55.7848 42.7828 55.7129 42.4501 55.7345 42.0753C55.6203 41.8064 55.5174 41.5321 55.4566 41.2518C55.4483 41.2134 55.4971 41.1771 55.5264 41.2107C55.6254 41.3244 55.7171 41.4455 55.8052 41.5696C55.8583 41.3068 55.9256 41.065 55.9572 40.9108L56.0945 40.2302V40.2302C55.3212 40.1895 54.4739 40.5106 53.9409 41.0727C53.9122 41.2191 53.8008 41.3239 53.6921 41.4607C53.568 41.6171 53.4597 41.7927 53.3789 41.9762C53.1997 42.3831 53.3009 42.9827 52.9532 43.2812C52.9169 43.3123 52.8765 43.3339 52.8347 43.3473C52.9996 44.1649 52.9248 45.0659 52.9212 45.8953L52.9211 45.9683C52.9219 46.8967 52.8912 47.8258 52.8557 48.7535L52.8196 49.6715C52.7728 50.8959 52.7424 52.1209 52.8602 53.3385C53.3976 52.8574 53.9533 52.3982 54.5282 51.9608C54.9061 51.6731 55.2917 51.3957 55.6843 51.1286L56.0032 50.9132C56.3854 50.6541 56.777 50.3876 57.1954 50.2021C57.7428 49.9595 58.2633 50.0429 58.7918 50.2917C59.3181 50.5395 59.8287 50.8273 60.3449 51.0959C60.8699 51.369 61.396 51.6399 61.9218 51.9114C62.2701 52.0913 62.7805 52.2536 63.036 52.5848C63.0523 52.5115 63.0713 52.4385 63.0935 52.3657C63.0681 52.2547 63.0779 52.1348 63.1395 52.0204C63.9979 50.4262 64.7921 48.7939 65.5808 47.1636C65.98 46.3385 66.3595 45.5037 66.7594 44.6791L67.1482 43.8761C67.2132 43.7423 67.2784 43.6086 67.3439 43.4751C67.442 43.2753 67.5441 43.0774 67.6433 42.878C67.6852 42.7938 67.7378 42.7101 67.7786 42.6251L67.7979 42.5825C67.7989 42.5802 67.8931 42.2808 67.8203 42.3094L67.814 42.3124C67.7769 42.3337 67.7472 42.2865 67.7712 42.2563C67.8741 42.1277 68.0174 42.2417 68.0761 42.3607C68.2379 42.6883 67.9415 43.2025 67.8275 43.5162L67.8212 43.5337C67.4674 44.546 67.0668 45.5393 66.6563 46.5292C65.8692 48.427 65.0237 50.2956 64.18 52.1675L64.17 52.1997V52.1997C64.3499 52.0603 64.542 51.9338 64.7065 51.8107C65.1214 51.5 65.5485 51.2046 65.9749 50.9102C66.7568 50.3702 67.56 49.8658 68.3764 49.3813L68.5399 49.2847C68.9477 49.0446 69.3517 48.8498 69.8358 48.9219C70.2855 48.9889 70.7036 49.2331 71.1099 49.4314L71.1519 49.4518L72.4073 50.0551C72.2731 49.5141 72.1277 48.9758 71.9761 48.4395C71.6805 47.3934 71.3551 46.3561 71.0023 45.3281C70.6728 44.3676 70.3166 43.4176 69.9398 42.4751L69.8263 42.1923C69.6727 41.8042 69.52 41.3811 69.0809 41.2616C68.6421 41.1422 68.1388 41.3193 67.7377 41.0665C67.7013 41.0435 67.7058 40.9828 67.75 40.9716L67.9974 40.9085C68.4621 40.7917 69.0068 40.6742 69.4462 40.7878C69.9243 40.9116 70.3198 41.3172 70.5518 41.7388C70.8097 42.2078 70.9915 42.7327 71.1873 43.2329L71.2183 43.3116C71.4429 43.8776 71.659 44.447 71.8658 45.02C72.2791 46.1654 72.6555 47.3244 72.9961 48.494C73.1602 49.0576 73.3159 49.624 73.4656 50.1917C73.5087 50.355 73.5796 50.553 73.6379 50.7595C73.7046 50.8253 73.7677 50.8987 73.827 50.9824C73.9253 51.1213 73.8548 51.2842 73.7325 51.3673C73.7278 51.5094 73.6966 51.643 73.6219 51.7576C73.3304 52.2048 72.5598 52.0896 72.5911 51.4884C72.5958 51.3963 72.6313 51.3085 72.685 51.2342L72.6835 51.2222V51.2222L72.6774 51.2002V51.2002C72.5436 51.1353 72.4092 51.0631 72.2676 50.9924L70.9501 50.3344V50.3344C70.5685 50.1438 70.1456 49.8493 69.7212 49.7766C69.3256 49.7089 68.9082 50.0068 68.5683 50.1866L68.5462 50.1981C67.7245 50.6238 66.9088 51.0637 66.0964 51.5071C65.6998 51.7236 65.3084 51.9492 64.9133 52.1683C64.5829 52.3515 64.2264 52.6145 63.8551 52.7179C63.6965 52.8425 63.5081 52.8258 63.3567 52.7316C63.4259 53.1647 63.4217 53.6092 63.4429 54.052C63.4715 54.644 63.4758 55.2377 63.4853 55.8305L63.4891 56.0527C63.514 57.3632 63.5274 58.6741 63.5323 59.9849C63.5499 64.6526 63.4988 69.3216 63.4869 73.9893C63.4809 76.3345 63.4349 78.6817 63.3746 81.026C63.349 82.0194 63.2956 83.0115 63.2379 84.0034L63.2062 84.5444C63.1389 85.6859 63.0993 86.84 62.8902 87.9661C62.8629 88.113 62.617 88.1168 62.5929 87.9661C62.4005 86.7595 62.3898 85.5263 62.3528 84.3055L62.3449 84.0615C62.3005 82.7507 62.2794 81.4407 62.2839 80.1292C62.3003 75.4597 62.4204 70.793 62.5187 66.1248C62.5681 63.7793 62.6013 61.4328 62.678 59.0881C62.7164 57.9149 62.7598 56.7425 62.8113 55.5697C62.8344 55.0461 62.8565 54.523 62.8909 54.0002L62.9064 53.7761C62.9171 53.63 62.9258 53.4856 62.9362 53.3425C62.4688 53.5151 62.0413 53.1956 61.6208 52.977C61.1362 52.725 60.6518 52.4726 60.167 52.2211L59.6817 51.97V51.97L58.7107 51.4692C58.2735 51.2437 57.9366 51.0193 57.4703 51.2838C55.7903 52.2365 54.2465 53.5041 52.8474 54.8342C52.5791 55.0893 52.0122 55.0207 51.9443 54.5932C51.654 52.7669 51.8305 50.914 51.9787 49.0821L52.0334 48.402C52.0996 47.5897 52.1717 46.7774 52.2678 45.9683C52.3107 45.6064 52.3535 45.2448 52.4009 44.8836L52.4373 44.6127C52.4965 44.1846 52.5352 43.759 52.6613 43.3484C52.6215 43.3354 52.5832 43.314 52.549 43.2812C52.1696 42.9174 52.3525 42.2861 52.5256 41.8533C52.6966 41.4262 52.9572 41.0533 53.2837 40.7325C53.3548 40.6624 53.4552 40.6173 53.556 40.6149C54.3475 40.0849 55.2158 39.8204 56.1195 40.1097C56.1448 39.9871 56.1707 39.8646 56.198 39.7424L56.2257 39.6204C56.296 39.3173 56.3221 38.8167 56.5808 38.6139ZM64.6925 86.4774C64.9381 86.4091 65.207 86.481 65.3869 86.6629C65.5668 86.8448 65.6381 87.1166 65.5704 87.3648C65.5366 87.487 65.4754 87.5931 65.3869 87.6832C65.3042 87.7662 65.2078 87.8254 65.0976 87.8609L65.0719 87.8687L65.0318 87.8856C64.9087 87.919 64.7855 87.919 64.6625 87.8856C64.5448 87.8522 64.4426 87.792 64.3559 87.7051C64.2698 87.6174 64.2102 87.5142 64.1772 87.3951C64.1441 87.2707 64.1441 87.1463 64.1772 87.0218L64.194 86.9813V86.9813C64.2279 86.859 64.289 86.7529 64.3775 86.6629C64.4665 86.5735 64.5716 86.5116 64.6925 86.4774ZM79.2756 61.7404C79.316 61.6936 79.3814 61.7535 79.3563 61.8033C78.9738 62.5613 78.5474 63.314 78.1283 64.0527C78.1619 64.2575 78.1952 64.4606 78.2335 64.6586C78.3967 65.5024 78.5967 66.331 78.7271 67.1828C79.1957 70.2448 79.4389 73.3399 79.6477 76.4294C79.857 79.5299 79.8838 82.6318 79.9153 85.7384C79.918 86.0076 79.7131 86.3205 79.4385 86.3713C79.3128 86.3945 79.2187 86.39 79.0933 86.3713C78.8076 86.3288 78.6288 85.9979 78.6166 85.7384C78.5346 84.0022 78.4244 82.2681 78.2967 80.5346C78.0704 77.4612 77.932 74.3798 77.7492 71.3032L77.6848 70.228C77.6157 69.0629 77.5525 67.8969 77.5319 66.7301C77.5182 65.957 77.5591 65.1842 77.5339 64.412C77.5107 63.6992 77.4392 62.924 77.5947 62.2236C77.6005 62.1974 77.6415 62.1907 77.6534 62.2159C77.815 62.5599 77.9174 62.9338 77.9964 63.3155C78.413 62.7828 78.8374 62.249 79.2756 61.7404ZM51.9825 42.9095C52.041 42.9051 52.0386 42.9939 51.9825 43.0005C51.1648 43.0964 50.3748 43.4327 49.6027 43.7186L49.5366 43.743C48.7566 44.029 47.9961 44.3617 47.2642 44.7582C45.8333 45.5334 44.5193 46.533 43.3576 47.6774C38.7193 52.2456 36.6055 58.8332 35.0566 65.0238C34.196 68.4633 33.584 71.9609 33.1874 75.4854C32.9912 77.2284 32.8526 78.9781 32.7717 80.7305C32.7303 81.6286 32.7042 82.5275 32.6934 83.4265C32.6877 83.887 32.6861 84.3476 32.6866 84.8081C32.6869 85.0191 32.7242 85.2848 32.6683 85.4897C32.6166 85.6795 32.4705 85.8467 32.3625 86.0048C32.2344 86.1925 32.0043 86.1826 31.8745 86.0048L31.8266 85.9402C31.6882 85.7545 31.5527 85.577 31.5329 85.3344C31.5117 85.0743 31.5267 84.8062 31.5257 84.545C31.5235 84.0186 31.53 83.4922 31.5404 82.966C31.5604 81.9574 31.5998 80.9492 31.6582 79.9421C31.7769 77.8983 31.9722 75.8587 32.2518 73.831C32.7489 70.2268 33.494 66.657 34.47 63.1543C35.3907 59.85 36.4815 56.5555 38.0354 53.4947C39.4781 50.6529 41.3709 48.0092 43.8684 46.0231C45.0298 45.0995 46.2941 44.3298 47.6572 43.7502C48.3446 43.4578 49.0666 43.2191 49.8008 43.083C50.5268 42.9485 51.2497 42.9673 51.9825 42.9095ZM64.8332 80.6368C64.9629 80.6358 65.1075 80.6646 65.2188 80.7371L65.3674 80.8533V80.8533C65.4077 80.9055 65.4478 80.958 65.4877 81.0106C65.5807 81.1331 65.593 81.3312 65.5737 81.4771C65.5693 81.5745 65.5406 81.6651 65.4877 81.7491L65.3746 81.8972V81.8972C65.2658 81.9869 65.1751 82.0508 65.0433 82.094C64.9745 82.1165 64.9081 82.1212 64.842 82.1178L64.82 82.1164L64.8332 82.1182L64.8101 82.1155V82.1155C64.7886 82.1137 64.767 82.1113 64.7453 82.1083C64.7306 82.1065 64.7158 82.1053 64.7011 82.1033C64.6869 82.1021 64.6732 82.1015 64.6589 82.1029C64.4914 82.1188 64.3231 82.0228 64.2043 81.9126C64.0972 81.8132 64.0011 81.6025 64.016 81.4531L64.0224 81.3907C64.0337 81.2854 64.0429 81.244 64.087 81.1382C64.1299 81.0353 64.1899 80.9445 64.2715 80.8678C64.4277 80.7209 64.6189 80.6383 64.8332 80.6368ZM64.3149 72.931C64.5372 72.6862 64.9188 72.6682 65.1944 72.8162C65.2616 72.8524 65.3232 72.9104 65.3824 72.9587C65.5316 73.0806 65.5901 73.3004 65.5984 73.4856C65.6065 73.6688 65.5109 73.8863 65.3824 74.0127L65.3513 74.0433V74.0433C65.2745 74.1187 65.1644 74.1844 65.057 74.2043C64.8838 74.2365 64.7383 74.2356 64.5769 74.1667C64.4383 74.1076 64.3188 74.0126 64.2376 73.8837L64.2244 73.8618C64.2188 73.8528 64.2135 73.8436 64.2086 73.8342L64.2014 73.82C64.047 73.5198 64.0885 73.1801 64.3149 72.931ZM64.4301 65.1846C64.5303 65.1528 64.6304 65.1483 64.7307 65.171C64.7987 65.1711 64.8621 65.1885 64.9209 65.2229C64.9848 65.241 65.0402 65.2737 65.0872 65.321C65.1438 65.3548 65.189 65.4004 65.2225 65.4576C65.2891 65.5312 65.3341 65.6176 65.3574 65.7167L65.3843 65.9193L65.3574 66.1219L65.2814 66.3039V66.3039C65.2605 66.3315 65.2395 66.359 65.2182 66.3865C65.1847 66.4439 65.1394 66.4896 65.0827 66.5236C65.0457 66.5607 65.0034 66.5885 64.9561 66.6077C64.7882 66.7293 64.5646 66.769 64.3657 66.7136C64.2476 66.6802 64.1451 66.6198 64.0581 66.5324C63.9717 66.4445 63.9119 66.3408 63.8789 66.2215L63.8653 66.1262C63.8477 65.9984 63.8449 65.9276 63.8808 65.7651C63.8964 65.6937 63.942 65.5929 63.9658 65.5505C64.0678 65.3693 64.2343 65.2452 64.4301 65.1846ZM73.1327 59.6116C73.4205 59.6095 73.7083 59.6101 73.9961 59.6133L74.2119 59.6162C74.5732 59.622 74.8828 59.5843 75.1669 59.8378C75.3731 60.0217 75.2822 60.3302 75.0865 60.4688C74.7899 60.6786 74.4179 60.5731 74.077 60.5499C73.7175 60.5256 73.3577 60.5053 72.9978 60.489C72.3008 60.4575 71.6036 60.4374 70.906 60.4343C70.2099 60.4313 69.5128 60.438 68.8168 60.4493C68.1085 60.461 67.3711 60.5276 66.6669 60.4535C66.5701 60.4434 66.5483 60.3148 66.6438 60.2813C67.3075 60.0493 68.054 59.9741 68.7495 59.8854C69.4668 59.7938 70.1842 59.729 70.906 59.6869C71.6475 59.6439 72.39 59.6169 73.1327 59.6116ZM64.4287 57.3325L64.4525 57.3329C64.5791 57.3333 64.6977 57.3634 64.8082 57.4233L64.8318 57.4366L64.9839 57.5553C65.077 57.6502 65.1415 57.7618 65.1771 57.8905L65.2039 58.0924V58.0924C65.2079 58.197 65.1863 58.2945 65.1393 58.385C65.1089 58.4792 65.0571 58.5607 64.9839 58.6295C64.9158 58.7035 64.8352 58.7559 64.7421 58.7865C64.6593 58.8304 64.5708 58.8524 64.4762 58.8524L64.4525 58.852C64.3169 58.8515 64.1904 58.8169 64.0733 58.7482L63.9211 58.6295V58.6295C63.828 58.5347 63.7636 58.423 63.7279 58.2943L63.701 58.0924V58.0924C63.6972 57.9879 63.7187 57.8902 63.7658 57.7998C63.7961 57.7056 63.8479 57.6241 63.9211 57.5553C63.9892 57.4813 64.0698 57.4289 64.163 57.3983C64.2457 57.3544 64.3342 57.3324 64.4287 57.3325V57.3325ZM66.6565 39.4901C66.8184 39.253 67.1118 39.4638 67.0698 39.6544C67.0809 40.1896 67.108 40.709 67.2285 41.2332C67.2836 41.4733 67.3559 41.7135 67.4674 41.9334L67.5142 42.026C67.6585 42.3141 67.7705 42.5858 67.5762 42.9018C67.4846 43.0509 67.319 43.1628 67.1396 43.1549C66.3439 43.1202 66.2346 42.0008 66.1862 41.3758C66.1363 40.7322 66.2914 40.0249 66.6565 39.4901Z" fill="black"/>
<path fill-rule="evenodd" clip-rule="evenodd" d="M61.873 13.2114C65.7629 13.2114 69.7864 16.259 71.2122 18.2038C72.4111 19.8389 73.0565 27.2325 73.0565 32.2292C73.0565 33.2743 73.6271 35.2442 73.4606 36.2439C72.8504 39.9069 70.1922 42.9789 64.9309 42.9789C59.6696 42.9789 55.8974 40.871 51.9868 35.2115C50.0894 35.2115 49.1698 33.7407 49.1564 31.4197C49.1431 29.0987 50.9879 28.2542 50.9879 28.2542C50.9879 28.2542 50.3302 19.0946 51.9868 16.7098C53.6434 14.3251 57.9831 13.2114 61.873 13.2114Z" fill="white"/>
<path fill-rule="evenodd" clip-rule="evenodd" d="M60.2361 11.9164C62.6921 11.665 65.0987 11.8762 67.5191 12.3132C67.7041 12.3471 67.8089 12.4697 67.8479 12.6171C68.9879 12.6698 70.1292 12.7543 71.2678 12.8173C71.6809 12.8402 71.9152 13.2528 71.7268 13.6254C71.6892 13.6994 71.65 13.7714 71.6103 13.8435L71.6602 13.8268C72.0027 13.7158 72.3727 13.661 72.7064 13.8373C73.1312 14.0616 73.2977 14.5567 73.2039 15.0123C73.1798 15.1286 73.1395 15.2401 73.0936 15.3489C73.1867 15.3427 73.2806 15.3448 73.3738 15.3572C73.8698 15.4237 74.2383 15.808 74.2644 16.3197C74.3027 17.0924 73.8101 17.8764 73.2299 18.4296C73.3141 18.6048 73.3464 18.8112 73.3113 19.0203C73.2415 19.4337 72.9402 19.6812 72.5909 19.8427C72.7366 20.3102 72.8054 20.7989 72.7648 21.2984C72.7512 21.4651 72.607 21.6028 72.4547 21.6366C73.0223 23.2164 73.3096 24.9125 73.5163 26.5651C73.6635 27.741 73.7362 28.9237 73.745 30.1084C73.7493 30.6433 73.7406 31.1788 73.7184 31.7137L73.7094 31.9143C73.682 32.4926 73.6807 33.0998 73.5779 33.6718C73.9287 34.2749 74.0698 35.0235 74.1294 35.6993C74.2034 36.5357 74.0862 37.3985 73.8252 38.1942C72.84 41.2008 69.8669 43.0981 66.8805 43.5912C64.1163 44.0475 60.9177 43.4333 59.3023 40.8954C59.277 40.8552 59.3311 40.8221 59.3626 40.8484C60.5183 41.7984 61.859 42.2221 63.3155 42.4285C65.8338 42.7845 68.6645 42.1806 70.6855 40.5797C71.6555 39.8111 72.355 38.6921 72.6626 37.4879C72.8195 36.8723 72.8737 36.2304 72.8119 35.5968C72.7489 34.9543 72.4674 34.4058 72.29 33.7986C72.2304 33.5935 72.2934 33.4031 72.4174 33.2674C72.4523 32.7743 72.5345 32.2772 72.566 31.7856C72.6009 31.2267 72.6222 30.6679 72.6298 30.1084C72.6442 28.9479 72.5962 27.7852 72.4996 26.6296C72.3229 24.5134 71.8536 22.4486 71.5782 20.3504C71.4762 20.4428 71.33 20.4808 71.1768 20.4L71.161 20.3913L71.0774 20.3429C71.0726 20.3429 71.0671 20.3436 71.0622 20.3442C70.4903 20.4003 69.897 20.32 69.3489 20.1475C68.7755 19.9676 68.2432 19.6906 67.7677 19.3215C67.6774 19.7847 67.6396 20.2528 67.639 20.725C67.6383 21.02 67.3293 21.1731 67.0841 21.0471C65.9969 20.4889 64.9583 19.8457 63.9725 19.1228C63.8573 19.719 63.7423 20.3151 63.6264 20.912C63.582 21.1419 63.2921 21.2347 63.1065 21.1253C62.368 20.6911 61.7302 20.1227 61.2109 19.4468C61.1073 19.6472 61.0033 19.8475 60.8986 20.0474L60.741 20.3469C60.5855 20.6412 60.3772 20.9668 60.0367 21.0609C59.6764 21.1606 59.3756 20.9245 59.2544 20.5948C59.2174 20.4924 59.1831 20.3871 59.1516 20.2812C58.8446 20.9896 58.498 21.6821 58.1062 22.3427C57.5184 23.3335 56.8127 24.2164 56.1092 25.1221C55.8954 25.3971 55.5296 25.1345 55.5002 24.8673C55.483 24.7101 55.4686 24.5523 55.4562 24.395C55.0463 25.2312 54.6185 26.0596 54.1525 26.8639L54.2192 27.1282V27.1282C54.4115 27.9092 54.5712 28.6957 54.7448 29.4808C54.8008 29.7341 54.6676 30.0962 54.3748 30.1394C54.025 30.1909 53.6941 30.3715 53.3358 30.2473C52.9451 30.1117 52.8679 29.7704 52.6835 29.4468C52.6467 29.3824 52.6039 29.3232 52.5578 29.267L52.5461 29.2823V29.2823C52.5173 29.3205 52.4488 29.2789 52.466 29.2353L52.486 29.1849V29.1849C52.3276 29.0149 52.1379 28.8731 51.9636 28.7205C51.5493 28.65 51.0832 28.7273 50.7977 28.8974C50.1476 29.2851 49.849 30.0842 49.8428 30.8189C49.8353 31.679 50.099 32.6456 50.5443 33.381C50.7403 33.7044 51.0088 33.9965 51.3636 34.1399C51.7158 34.2825 52.0974 34.2383 52.4557 34.3725C52.6927 34.4619 52.8386 34.7278 52.6955 34.9687C52.6859 34.9854 52.6749 35.0006 52.6646 35.0166L52.7711 35.1595C52.8444 35.2586 52.9208 35.3646 52.9921 35.4749C53.1743 35.6869 53.3661 35.8911 53.5518 36.0996C53.895 36.4838 54.228 36.8786 54.5656 37.2684C54.8843 37.6361 55.2213 37.9816 55.5687 38.3216C55.8968 38.6436 56.3065 38.9143 56.6079 39.2578C56.9011 39.593 56.9806 40.178 56.4982 40.372C55.9646 40.5871 55.4922 40.083 55.133 39.7469L55.1179 39.7328C54.4594 39.1203 53.8647 38.4204 53.3925 37.6498C52.9248 37.9716 52.2482 38.0023 51.7824 37.6806C51.5373 37.5113 51.3492 37.2267 51.2578 36.9172C51.1716 36.9367 51.0855 36.9482 51.0015 36.9468C50.9583 36.9722 50.9149 36.9968 50.8711 37.0198C50.5237 37.2026 50.097 37.1209 49.938 36.7324C49.7933 36.3797 49.9424 35.9791 50.0728 35.6393L50.0997 35.5691C50.1737 35.3753 50.2552 35.1641 50.3566 34.9653C50.0744 34.7507 49.8331 34.484 49.6291 34.1808C48.9433 33.1594 48.6008 31.6657 48.7522 30.4471C48.8433 29.7117 49.1851 28.95 49.7448 28.4542L49.7243 28.4001V28.4001C49.5674 27.9979 49.4248 27.5941 49.3324 27.169C49.2242 26.6719 49.1714 26.1567 49.1235 25.6505C49.0221 24.5813 49.0495 23.488 49.1844 22.423C49.4379 20.4183 50.0805 18.4504 51.2212 16.7823C50.8978 16.391 50.6416 15.9305 50.7751 15.4008C50.8362 15.1577 50.9752 14.9272 51.1849 14.788C51.3006 14.7112 51.4383 14.6994 51.5541 14.6357L51.5889 14.6163C51.6398 14.5863 51.6009 14.5895 51.5706 14.4501C51.4507 13.8933 51.55 13.3553 52.1563 13.1705C52.727 12.9967 53.2668 13.3657 53.6046 13.8054C54.4883 13.1718 55.6529 12.8402 56.6771 12.5583C57.8417 12.239 59.0364 12.0397 60.2361 11.9164ZM50.6903 30.5918C50.6861 30.1382 51.1115 29.8585 51.5302 29.9326C51.8113 29.9821 52.0458 30.1516 52.266 30.3269L52.3734 30.4128C52.6415 30.6256 52.9493 30.8549 53.1092 31.1562C53.3435 31.6007 52.8483 32.1989 52.3858 31.8873C52.0686 31.6725 51.8653 31.3282 51.6572 31.0084L51.6357 30.9754C51.5411 30.832 51.4582 30.6797 51.3287 30.5648L51.3007 30.54C51.2581 30.5033 51.2124 30.4698 51.1574 30.454C51.0513 30.4231 50.8549 30.4663 50.8081 30.594L50.8039 30.607C50.7868 30.6715 50.691 30.6575 50.6903 30.5918Z" fill="black"/>
<path fill-rule="evenodd" clip-rule="evenodd" d="M67.1476 37.4736C66.7097 37.4772 66.2174 37.3111 65.8883 37.1811L65.8024 37.1467C65.5175 37.0314 65.2249 36.8989 65.0067 36.6767C64.9369 36.6045 64.8626 36.5228 64.8249 36.4369C64.8027 36.3866 64.7936 36.3344 64.8149 36.2827C64.8938 36.2748 64.9686 36.2646 65.0395 36.2515C65.0732 36.2453 65.1055 36.2389 65.1303 36.2387C65.2216 36.2381 65.3119 36.2498 65.4021 36.2614C65.4152 36.263 65.4283 36.2647 65.4413 36.2663C65.5116 36.2751 65.5815 36.2846 65.6513 36.2941C65.8543 36.3217 66.0563 36.349 66.2623 36.359C66.411 36.3662 66.5669 36.3577 66.7242 36.3491C67.1322 36.3266 67.554 36.296 67.8684 36.5848C67.9507 36.6605 67.9851 36.7558 67.9851 36.8528C67.9851 36.9708 67.936 37.0909 67.8611 37.1851C67.6914 37.3983 67.4302 37.4712 67.1476 37.4736ZM69.5352 33.7537C69.3447 34.0426 69.0274 34.2283 68.5925 34.2082C67.7281 34.1682 66.6966 33.8386 65.9727 33.362C65.7842 33.2379 65.6619 33.0395 65.64 32.827L65.601 32.4488L65.3902 32.7637C65.3683 32.7965 65.3461 32.8293 65.324 32.862C65.2629 32.9521 65.202 33.0423 65.1444 33.1346C64.9236 33.4893 64.7211 33.8475 64.5373 34.2232C64.4072 34.4892 64.312 34.7868 64.2166 35.087C64.0555 35.5938 63.8998 36.0923 63.5556 36.4485C63.5036 36.5024 63.4236 36.5217 63.3504 36.5121C63.2858 36.5037 63.2226 36.4718 63.1916 36.408C62.7803 35.5627 63.3335 34.544 63.7822 33.8359L63.8296 33.7619C64.2457 33.1219 64.9253 32.275 65.7035 32.1599L65.7926 32.3035L65.9221 32.2162C66.134 32.0734 66.4137 32.08 66.6585 32.1917L66.9034 32.3034C67.3591 32.5102 67.8087 32.7009 68.3019 32.8054C68.3378 32.813 68.3737 32.8201 68.4096 32.8267C68.4434 32.833 68.4775 32.8388 68.5117 32.8442C68.5043 32.8102 68.4964 32.7764 68.4885 32.7427C68.4802 32.707 68.4718 32.6712 68.4627 32.6356C68.4534 32.5987 68.4435 32.5621 68.4336 32.5257C68.394 32.3803 68.3494 32.2362 68.2965 32.0951C68.0974 31.5648 67.7795 31.0687 67.4701 30.5956L67.4337 30.54C67.3894 30.4722 67.3408 30.4014 67.2906 30.3283C67.0494 29.9772 66.7819 29.5962 66.7629 29.2137C67.0831 29.2341 67.351 29.4351 67.5869 29.6102C67.9105 29.8503 68.2105 30.1248 68.4826 30.4231C69.0104 31.0017 69.4841 31.7414 69.6918 32.5062C69.8107 32.944 69.7584 33.4152 69.5352 33.7537V33.7537ZM61.0906 29.3913L61.0906 29.3757C61.0915 28.9341 61.346 27.9259 61.9749 27.9259C62.3678 27.9259 62.6063 28.6121 62.6476 29.3194L62.649 29.3482C62.6672 29.788 62.5479 30.7492 61.9749 30.7492C61.3958 30.7492 61.0966 29.8388 61.0906 29.3913V29.3913ZM70.3498 29.2528L70.3499 29.2372C70.3489 28.7956 70.0945 27.7874 69.4656 27.7874C69.0825 27.7874 68.8462 28.4397 68.7963 29.1279L68.7929 29.1809C68.7681 29.6058 68.8797 30.6107 69.4656 30.6107C70.0446 30.6107 70.3438 29.7003 70.3498 29.2528V29.2528ZM63.2087 26.4029C63.1253 26.4128 63.0424 26.4258 62.9595 26.4391C62.7177 26.478 62.4772 26.5248 62.2383 26.5792C61.7846 26.6828 61.3345 26.8135 60.8931 26.9612C60.48 27.0995 60.0733 27.2557 59.6667 27.412C59.645 27.4203 59.6233 27.4287 59.6016 27.437C59.4581 27.4922 59.315 27.554 59.1715 27.616C58.9531 27.7104 58.7337 27.8054 58.5098 27.877C59.0997 27.0526 60.0087 26.4418 60.8833 26.0046C61.3824 25.7552 61.9118 25.5541 62.4443 25.3893L62.7409 25.2992C63.1776 25.169 63.6551 25.0487 64.0654 25.3084C64.2276 25.4111 64.3311 25.5707 64.3637 25.7433C64.3957 25.9126 64.3592 26.094 64.2436 26.2455C64.1429 26.3774 64.0173 26.4526 63.8837 26.4783C63.7362 26.5068 63.5799 26.4755 63.4377 26.3987C63.3237 26.3902 63.2901 26.3933 63.2563 26.397L63.2087 26.4029ZM69.7784 26.4868C69.4861 26.4226 69.1967 26.3968 68.8968 26.4061C68.7612 26.4102 68.63 26.4314 68.4992 26.4527C68.296 26.4858 68.0935 26.5199 67.8746 26.4798C67.7604 26.4588 67.6631 26.3913 67.588 26.3031C67.5001 26.2001 67.442 26.0684 67.4234 25.9431C67.4041 25.8138 67.4233 25.7006 67.4706 25.6007C67.5266 25.4827 67.6208 25.3833 67.7347 25.2961C68.0794 25.0324 68.6707 25.0958 69.0775 25.1491C69.4794 25.202 69.8792 25.3279 70.2345 25.528C70.5851 25.7255 70.8898 25.9916 71.1276 26.3168C71.3281 26.5909 71.4225 26.9064 71.52 27.2276C71.0613 26.8387 70.3594 26.6143 69.7784 26.4868Z" fill="black"/>
<path fill-rule="evenodd" clip-rule="evenodd" d="M42.2437 85.8224C42.1415 84.8639 42.0786 83.8986 42.0424 82.9353C42.0063 81.973 42.0536 80.999 42.0743 80.0364C42.1165 78.0782 42.1852 76.1154 42.0308 74.1602C41.885 72.3123 41.5501 70.4774 41.0216 68.7019C40.7643 67.8372 40.4931 66.9378 40.0699 66.1388C39.6443 65.3355 38.9702 64.8006 38.2297 64.3101C37.4413 63.7878 36.6592 63.2556 35.8739 62.7285C35.2147 62.286 34.0284 61.771 33.4875 61.1794C32.9184 60.557 32.8114 59.0141 32.4324 58.2767C32.0633 57.5585 31.0184 57.09 30.2139 57.09C28.8823 57.09 27.8733 57.0213 26.7784 58.2655C26.2321 58.8864 26.6667 59.514 26.0941 60.1098C25.5677 60.6576 24.2213 61.2206 23.5427 61.5385C22.73 61.9192 21.8968 62.2553 21.0516 62.5548C20.1893 62.8602 19.3053 63.0879 18.4382 63.3761C17.6071 63.6524 16.5218 64.7913 15.8765 65.3939C15.2767 65.9542 15.1278 65.8915 14.6718 66.5721C13.6709 68.0658 12.6689 69.5767 11.8719 71.1939C11.4749 71.9995 11.0905 72.8469 10.9465 73.7416C10.7928 74.6958 10.9452 75.618 11.1943 76.5419C11.4479 77.4821 12.2533 78.3773 12.5157 79.3151C12.6367 79.7473 12.2216 80.219 12.4125 80.6263C12.5079 80.8297 12.6279 81.0108 12.7646 81.188C12.87 81.3246 13.2808 81.2943 13.3339 81.4614C13.3876 81.6303 13.0904 81.9806 13.086 82.1553C13.0797 82.4053 13.0699 82.6553 13.0617 82.9054L13.0137 84.3835C12.9822 85.3548 12.9506 86.3262 12.9191 87.2975C12.9088 87.6146 12.8937 87.9244 12.969 88.2252C12.9418 88.1998 12.916 88.1721 12.8924 88.141C12.8234 88.05 12.677 88.1271 12.7356 88.2336C12.8334 88.4113 12.974 88.5364 13.1392 88.6263C13.3312 88.9122 42.4099 89.5508 42.5529 88.7149C42.6332 88.2458 42.4871 87.7437 42.4287 87.2777C42.3679 86.7923 42.2956 86.309 42.2437 85.8224Z" fill="white"/>
<path fill-rule="evenodd" clip-rule="evenodd" d="M12.7051 73.7434C12.7762 73.5376 13.1016 73.6267 13.03 73.8338C12.6617 74.8994 12.9229 76.0589 13.3211 77.076C13.401 77.2801 13.075 77.3678 12.9962 77.1665C12.5774 76.0965 12.3183 74.8624 12.7051 73.7434M15.1743 79.8296C16.213 79.9772 17.2524 80.0682 18.2982 80.1418C18.3449 80.1452 18.3854 80.138 18.4203 80.1227C18.3891 80.6064 18.3639 81.0905 18.3441 81.5747C18.0589 81.5666 17.7679 81.5857 17.4853 81.5781C17.1159 81.5679 16.747 81.5491 16.3785 81.5207C15.665 81.4662 14.9528 81.3794 14.2474 81.2594C13.9837 81.2148 13.6489 81.1875 13.3486 81.099C13.0647 81.0153 12.812 80.8765 12.6793 80.6153C12.5665 80.3941 12.5458 80.1232 12.5458 79.8785C12.5458 79.71 12.5745 79.539 12.5917 79.3693C12.6132 79.354 12.6326 79.3357 12.6482 79.3153C12.9615 79.4152 13.2867 79.4854 13.6051 79.5535C14.1235 79.6649 14.6496 79.7552 15.1743 79.8296M14.5886 75.896C14.5943 76.2212 14.6834 76.5165 14.8567 76.7903C14.974 76.9756 14.6822 77.146 14.5658 76.9621C14.3617 76.6397 14.2584 76.2779 14.2516 75.896C14.2478 75.6765 14.5847 75.6773 14.5886 75.896M41.2119 79.4433C41.3526 79.4512 41.4941 79.4561 41.6351 79.4637C41.7596 79.5711 41.9318 79.6262 42.0891 79.592C42.0945 79.6058 42.0995 79.6212 42.104 79.639C42.1318 79.7483 42.1457 79.8657 42.1617 79.9772C42.1777 80.087 42.1899 80.1976 42.1983 80.3082C42.2025 80.3639 42.2291 80.4898 42.1954 80.5384C42.1651 80.5821 42.0981 80.5783 42.0518 80.5838C41.9271 80.5975 41.8007 80.6039 41.6752 80.6145C41.4381 80.6353 41.201 80.6562 40.9643 80.677C40.7322 80.6975 40.4774 80.6911 40.2504 80.7528C40.2117 80.2929 40.1763 79.833 40.1434 79.3727C40.4951 79.425 40.8628 79.4237 41.2119 79.4433M11.725 78.6805C11.8665 78.9566 11.997 79.228 12.2678 79.3939C12.3032 79.4152 12.3428 79.4267 12.3833 79.4297C12.3529 79.5611 12.334 79.6956 12.3171 79.8198C12.2801 80.0934 12.2721 80.3762 12.3399 80.646C12.406 80.9084 12.5155 81.1429 12.7303 81.3109C12.8301 81.3892 12.9392 81.4487 13.0538 81.496C13.0344 81.5508 13.023 81.6053 13.0289 81.6653C13.0015 81.8044 12.9834 81.9461 12.9636 82.0818C12.9202 82.383 12.8769 82.6846 12.8427 82.9875C12.7745 83.5899 12.721 84.1923 12.676 84.7968C12.6309 85.3997 12.5985 86.0034 12.5715 86.6075C12.5576 86.9163 12.5454 87.2251 12.534 87.5344C12.5227 87.8523 12.4717 88.1773 12.6107 88.4721C12.7227 88.7103 13.1013 88.6967 13.2176 88.4721C13.365 88.1866 13.3216 87.8475 13.3254 87.5344C13.3292 87.2396 13.3343 86.9444 13.3406 86.6496C13.3532 86.0459 13.3717 85.4426 13.3865 84.839C13.4008 84.2498 13.4185 83.6609 13.4303 83.0717C13.4362 82.7633 13.4366 82.4549 13.4383 82.1464C13.4391 81.9754 13.4463 81.7929 13.4336 81.6147C13.5389 81.6398 13.6451 81.661 13.7499 81.6827C14.5506 81.8486 15.3597 81.9695 16.1738 82.0443C16.5827 82.0818 16.993 82.1081 17.4032 82.1231C17.7047 82.1341 18.0172 82.1554 18.3234 82.1439C18.2994 82.8824 18.2885 83.6214 18.2897 84.3604C18.2906 84.8934 18.2977 85.4265 18.3108 85.9595C18.318 86.2399 18.3239 86.5202 18.3323 86.8006C18.3361 86.9265 18.3361 87.0537 18.3445 87.1792C18.347 87.2183 18.3525 87.2562 18.3597 87.2937C18.3319 87.3732 18.3087 87.4519 18.2897 87.5255C18.1971 87.8829 18.1971 88.2262 18.2384 88.5903C18.2737 88.8992 18.5311 89.1855 18.871 89.0771C18.9261 89.0596 18.9813 89.0413 19.0361 89.0226C19.5364 89.08 20.0397 89.0932 20.5472 89.103C21.2889 89.1175 22.031 89.1221 22.7731 89.1259C24.2287 89.1336 25.6847 89.1375 27.1406 89.1417C30.0665 89.1502 32.9924 89.1583 35.9183 89.1668C36.7303 89.1694 37.5423 89.1715 38.3543 89.1741C38.7746 89.1753 39.1941 89.1757 39.614 89.1919C39.8099 89.1996 40.0061 89.2102 40.202 89.2132C40.429 89.217 40.6299 89.151 40.8468 89.0911C40.9694 89.0566 41.0178 88.9324 40.9917 88.8273C41.1879 88.8745 41.4259 88.7742 41.4929 88.5508C41.5417 88.3887 41.5236 88.213 41.4508 88.0628V88.0624C41.3101 87.1652 41.1315 86.2722 40.9913 85.3746C40.8375 84.3914 40.6897 83.4062 40.5596 82.4192C40.4618 81.6738 40.3814 82.2022 40.3119 81.4534C40.6147 81.4772 40.9571 81.3841 41.257 81.3445C41.4722 81.3165 41.6891 81.2939 41.9048 81.2641C41.8888 81.4836 41.8934 81.7074 41.8875 81.918C41.8761 82.3362 41.8812 82.7527 41.8917 83.1709C41.9119 83.9779 41.957 83.5082 42.029 84.3118C42.1019 85.1214 42.1912 85.928 42.2994 86.7338C42.355 87.1486 42.4144 87.5629 42.4771 87.9769C42.5062 88.17 42.5361 88.3628 42.5669 88.5559C42.6035 88.7835 42.6153 88.9992 42.7842 89.1702C42.9126 89.2999 43.175 89.2889 43.2601 89.1081C43.3679 88.8796 43.3191 88.6839 43.2791 88.444C43.2466 88.2513 43.2155 88.0586 43.1847 87.8659C43.119 87.4528 43.0567 87.0392 42.9981 86.6253C42.8853 85.8277 42.7787 85.0287 42.6835 84.2289C42.5875 83.4227 42.4881 83.8937 42.3938 83.0875C42.3462 82.6808 42.2986 82.2749 42.243 81.8695C42.2148 81.661 42.1971 81.439 42.16 81.2241C42.1718 81.2225 42.1836 81.2203 42.1954 81.2182C42.4515 81.1709 42.67 81.025 42.7345 80.7587C42.796 80.5039 42.7227 80.2108 42.6709 79.9606C42.6267 79.7476 42.5867 79.4756 42.4509 79.2931C42.9294 78.6775 43.2406 77.9029 43.4391 77.1582C43.6553 76.3468 43.7458 75.4999 43.765 74.6615C43.7872 73.6902 43.7147 72.7245 43.5499 71.7748C43.546 71.5735 43.5368 71.3723 43.5221 71.1713C43.3772 69.1991 42.769 66.8648 40.8409 65.9433C40.8333 65.9395 40.8253 65.9361 40.8173 65.9327C40.6661 65.7501 40.4774 65.5859 40.325 65.4324C40.055 65.1601 39.7728 64.8997 39.4738 64.6598C38.8816 64.1846 38.2322 63.8051 37.557 63.4635C36.8743 63.1176 36.1815 62.7931 35.5144 62.4157C34.9331 62.0864 34.41 61.6899 33.9135 61.2423C33.3554 60.7391 32.9583 60.0605 32.8024 59.3199C32.7944 59.2812 32.7376 59.2918 32.7367 59.3288C32.6959 60.6863 33.6031 61.886 34.6472 62.645C35.8955 63.5516 37.4029 63.9808 38.6689 64.8598C38.9835 65.078 39.2779 65.3243 39.558 65.5859C39.1288 65.5417 38.6921 65.5698 38.2899 65.6897C38.1315 65.68 37.9723 65.677 37.8135 65.6693C37.4505 65.651 37.087 65.634 36.7235 65.6178C35.9827 65.5847 35.2414 65.5545 34.5002 65.5281C33.0459 65.4762 31.5911 65.437 30.1364 65.4111C27.2131 65.3588 24.2859 65.3485 21.363 65.4341C20.5704 65.4571 16.4025 65.2975 16.0167 65.3426C16.584 64.8465 17.2065 64.4416 17.8909 64.1084C18.7471 63.6928 19.632 63.4154 20.5464 63.1619C22.4294 62.6399 24.3849 62.1366 25.8919 60.8105C26.2663 60.4808 26.599 60.1018 26.8715 59.6819C27.1318 59.2812 27.4211 58.7681 27.4283 58.2793C27.4334 57.9322 26.9549 57.8058 26.7848 58.1031C26.679 58.2873 26.6268 58.4894 26.5405 58.6826C26.4546 58.874 26.3526 59.0586 26.2393 59.2352C26.0165 59.5824 25.7403 59.8921 25.4395 60.1716C24.7985 60.768 24.0219 61.2049 23.2183 61.5355C21.3938 62.2855 19.3983 62.602 17.6694 63.5907C16.9129 64.0233 16.1889 64.6203 15.7345 65.3817C15.6612 65.3933 15.5884 65.4068 15.5155 65.4221C15.5698 65.3528 15.6246 65.2835 15.6798 65.2145C15.716 65.1694 15.66 65.1099 15.6157 65.1499C14.7561 65.9224 13.9643 66.7567 13.2466 67.6663C12.5601 68.5367 11.92 69.4488 11.4668 70.4681C10.6522 72.2992 10.4728 74.3935 10.8936 76.3513C11.0081 76.8848 11.1699 77.4072 11.3758 77.9122C11.4819 78.173 11.5969 78.4299 11.725 78.6805" fill="black"/>
<path fill-rule="evenodd" clip-rule="evenodd" d="M38.9616 42.7678C38.8386 42.4541 38.621 42.0596 38.2574 42.0439C37.9761 41.1747 37.2768 40.2896 36.304 40.3131C33.4489 37.3619 29.8544 37.501 26.0962 38.1257C24.1135 38.4974 22.1003 39.2252 20.6216 40.6615C18.8505 42.3523 18.1608 45.3027 19.5477 47.4408C18.3491 48.0901 18.3258 49.6308 18.8384 50.7426C18.2222 51.1733 18.1848 52.2186 18.8786 52.5471C18.8418 52.6999 18.8678 52.8577 18.9382 52.9934C18.5942 53.2829 18.1464 53.4967 17.7762 53.6805C17.6126 53.7617 17.5182 53.8944 17.479 54.0439C16.2636 54.8499 13.2328 56.8196 13.2689 58.3872C13.2511 59.205 13.8513 59.7433 14.5807 59.9576C14.1467 60.8345 13.8173 61.8587 14.2327 62.8046C14.3475 63.0904 15.2078 63.9304 15.2511 63.9459C15.3269 64.0115 16.5611 63.4388 17.1609 63.1466C17.2773 63.9114 18.0863 64.3121 18.7837 64.05C19.445 63.8485 19.8515 63.2827 20.2686 62.768C20.8222 63.9886 22.451 64.0027 23.5037 63.4764C24.4491 63.035 25.1678 62.2259 25.5682 61.2509C27.6941 62.3028 30.1814 62.6094 32.4911 62.1893C32.6393 62.4544 32.9674 62.6325 33.2597 62.5299C34.4879 62.1567 35.8459 62.1358 36.8869 61.2807C39.057 59.7064 39.2397 56.8039 39.0884 54.3297C38.9542 51.8629 39.0717 49.3755 38.628 46.9353C38.8206 46.2168 39.1408 45.5817 39.4371 44.9067C39.7591 44.1989 39.7523 43.1468 38.9616 42.7678Z" fill="white"/>
<path fill-rule="evenodd" clip-rule="evenodd" d="M18.7855 53.2389C18.9134 53.2064 18.9821 53.3801 18.8735 53.4499C18.1842 53.8931 17.4722 54.2888 16.8064 54.771C16.1731 55.2293 15.5882 55.7514 15.0427 56.3127L14.9823 56.3753C14.4892 56.888 13.943 57.5404 13.9375 58.2968C13.9332 58.8847 14.3817 59.5265 15.0074 59.4492C15.2432 59.4201 15.4598 59.7224 15.3776 59.9404L15.2911 60.1701C14.9429 61.0997 14.5887 62.153 14.8637 63.1311L14.8738 63.166C14.9403 63.3899 15.0104 63.5878 15.2676 63.5833C15.5063 63.5791 15.7546 63.4977 15.9781 63.4201C16.4417 63.2589 16.8619 62.9901 17.2185 62.6521C17.534 62.3531 17.937 62.6568 17.8946 63.0368L17.8931 63.0489C17.835 63.4753 18.507 63.6733 18.8125 63.6123C19.4158 63.4917 19.8459 62.8808 20.1884 62.4151C20.3531 62.1913 20.7531 62.1032 20.8977 62.4151C21.1844 63.0329 21.7754 63.4946 22.4667 63.514C22.8258 63.524 23.1703 63.4207 23.4744 63.2292C23.5986 63.1509 23.7096 63.0579 23.8114 62.9524L23.8367 62.9258C23.9873 62.7644 24.0913 62.6786 24.2837 62.5732C24.4733 62.4693 24.7186 62.5981 24.7174 62.8247C24.7158 63.1181 24.6308 63.3132 24.4305 63.5261C24.2649 63.7024 24.068 63.8571 23.8611 63.9808C23.4452 64.2292 22.9508 64.3689 22.4667 64.3527C21.7035 64.3272 20.9751 63.9427 20.5029 63.3448C20.0208 63.9275 19.4228 64.4628 18.6456 64.4484C18.0638 64.4377 17.5216 64.1315 17.2619 63.6572C16.8951 63.9128 16.4926 64.1126 16.062 64.2431L16.0237 64.2546C15.4142 64.4338 14.7128 64.5051 14.3204 63.8935C13.9521 63.3194 13.9246 62.5242 14.0091 61.8679C14.0844 61.2816 14.2629 60.7248 14.4678 60.1757C13.8845 59.9996 13.4317 59.4458 13.2761 58.8487C13.0409 57.9459 13.4973 57.0704 14.0616 56.3996C14.6746 55.6709 15.4461 55.0545 16.2234 54.515C16.9986 53.9771 17.867 53.4715 18.7855 53.2389ZM38.7182 46.1774C38.7196 46.1523 38.7603 46.1435 38.7641 46.171C39.0318 48.1349 39.1868 50.0947 39.3152 52.0721C39.3803 53.0738 39.4541 54.0745 39.535 55.075C39.6126 56.0345 39.7418 57.0194 39.7126 57.9827C39.6669 59.4912 38.9422 60.7177 37.7539 61.6004C36.6153 62.4463 35.2027 62.8645 33.8169 63.0411C33.012 63.1438 32.196 63.1487 31.3902 63.0523C30.9717 63.0022 30.5538 62.9356 30.1439 62.8355L29.9667 62.7907C29.6439 62.7074 29.2835 62.5943 29.2375 62.2078C29.2152 62.0207 29.3135 61.8826 29.4724 61.7886C29.6795 61.6662 29.9169 61.7383 30.1304 61.7941C30.49 61.8881 30.8535 61.9689 31.221 62.0247C32.0105 62.1447 32.822 62.1518 33.6155 62.0687C34.9503 61.9289 36.3583 61.4913 37.3874 60.5876C37.8346 60.1949 38.2235 59.7164 38.4281 59.148C38.6911 58.4171 38.6521 57.6198 38.6433 56.8545C38.6229 55.075 38.6409 53.2956 38.6164 51.5159C38.5918 49.7308 38.6132 47.9598 38.7182 46.1774ZM25.2956 37.8611C26.8553 37.4545 28.4381 37.3489 30.0402 37.4713C31.551 37.5866 33.2721 37.9283 34.5061 38.8675C34.5659 38.9131 34.5301 38.9994 34.456 38.9875C33.631 38.8546 32.8269 38.6128 32.0055 38.4529C31.2154 38.299 30.4111 38.1835 29.6067 38.1568C26.8859 38.0661 23.8584 38.6893 21.6644 40.4038C20.6357 41.2077 19.8506 42.2887 19.5382 43.5748C19.2177 44.894 19.3911 46.3206 20.0346 47.5139C20.1272 47.6857 20.089 47.9575 19.8957 48.049C19.3091 48.3266 18.8913 48.9415 18.9004 49.6051C18.9048 49.927 19.0146 50.2356 19.191 50.5017C19.3775 50.783 19.6615 50.9798 19.8702 51.2426C19.9523 51.346 19.9555 51.4885 19.8904 51.5838C20.0124 51.6378 20.144 51.6668 20.2641 51.7306C20.3659 51.7848 20.3688 51.9538 20.2641 52.0071C19.9993 52.1419 19.7131 51.9988 19.5344 51.7815C19.5025 51.7427 19.4749 51.7024 19.4498 51.6612C19.2357 51.6153 19.044 51.5068 18.8765 51.3583C18.5575 51.5514 18.5138 51.9812 18.7879 52.3097C18.9278 52.4774 19.1267 52.5809 19.3277 52.6553L19.3518 52.6641C19.5474 52.7343 19.7265 52.7735 19.8535 52.9316C19.9373 52.7551 20.0336 52.5886 20.1408 52.4369C20.5307 51.8857 21.13 51.3966 21.8411 51.4587C22.3982 51.5072 22.8808 51.9103 22.9949 52.4665C23.0033 52.5076 22.942 52.5397 22.9237 52.4968C22.6564 51.8669 21.8108 51.8438 21.3071 52.172C20.7147 52.5581 20.391 53.2856 20.2611 53.9632C20.1333 54.6307 20.2071 55.4424 20.7014 55.9501C20.9036 56.1579 21.1787 56.3015 21.4659 56.3394C21.6062 56.358 21.73 56.3397 21.8642 56.3124L21.9532 56.2936C22.0149 56.2807 22.0763 56.2703 22.141 56.2761L22.2374 56.2892V56.2892L22.2922 56.3151C22.3397 56.3367 22.3354 56.3307 22.2793 56.2973C22.4432 56.2837 22.5279 56.4061 22.5368 56.5403C22.5421 56.5437 22.5471 56.5473 22.5513 56.5525C23.1731 57.3216 23.6348 58.2057 24.2946 58.9496L24.4878 59.1676C24.9843 59.7259 25.5512 60.3312 26.2258 60.6208L26.3061 60.6544C26.5024 60.7382 26.6994 60.8529 26.7245 61.092C26.7469 61.3062 26.5798 61.4674 26.3872 61.5174C25.9487 61.6311 25.4487 61.2371 25.1275 60.9786C24.4368 60.423 23.8564 59.7147 23.377 58.9694L23.3296 58.8952C22.9355 58.2731 22.5651 57.5636 22.4501 56.8253L22.4293 56.8593C22.4277 56.8618 22.4265 56.8636 22.4257 56.8647C22.4023 56.8969 22.3764 56.9241 22.3464 56.9502C22.2657 57.0206 22.1674 57.0617 22.0652 57.0896C21.8733 57.1419 21.663 57.1522 21.4659 57.1318C21.0653 57.0905 20.691 56.9364 20.3744 56.6855C19.4104 55.9213 19.2966 54.4994 19.6864 53.3459C19.3665 53.4231 19.0021 53.2055 18.7523 53.019C18.4658 52.805 18.2296 52.4961 18.1732 52.1328C18.1171 51.7722 18.3445 51.2948 18.6819 51.1557C18.3319 50.7309 18.1281 50.1281 18.107 49.6455C18.0705 48.8059 18.5118 48.0124 19.1893 47.5543C18.5521 46.1742 18.4294 44.5731 18.8584 43.1078C19.7096 40.2 22.5613 38.5739 25.2956 37.8611ZM22.8685 59.9541L22.8764 59.9285C22.9443 59.7037 23.0319 59.2563 23.3643 59.4266C23.6819 59.5893 23.4791 60.0707 23.3681 60.305C23.2352 60.5855 23.0057 60.8103 22.6975 60.8705C22.4469 60.9195 22.1716 60.8566 21.9962 60.6608C21.9451 60.6038 21.9162 60.5412 21.8859 60.4721C21.8741 60.4452 21.8688 60.4268 21.8666 60.4148C21.8637 60.428 21.8555 60.4476 21.8346 60.4706C21.6947 60.6252 21.5625 60.805 21.461 60.9878C21.437 61.0311 21.3612 61.0008 21.3803 60.9535C21.4986 60.6611 21.4787 60.209 21.7423 59.9976C21.9746 59.8112 22.193 59.9579 22.3158 60.175L22.3221 60.1862C22.5017 60.5159 22.788 60.2028 22.8685 59.9541ZM20.3411 58.8977L20.3654 58.8637C20.6138 58.5205 21.0328 58.1077 21.452 58.4269C21.5853 58.5284 21.5903 58.6978 21.452 58.7985L21.3997 58.8362C21.2166 58.9675 21.0342 59.0914 20.8997 59.2796C20.7535 59.4842 20.6222 59.7009 20.4257 59.8614C20.0782 60.1453 19.5165 60.2012 19.2149 59.8186L19.1852 59.7806C19.16 59.7478 19.131 59.7082 19.1075 59.6688L19.0892 59.6944C19.0874 59.697 19.0857 59.6994 19.0842 59.7017L19.08 59.7082C18.956 59.9084 18.7995 60.0733 18.6044 60.2034C18.2338 60.4506 17.8161 60.485 17.3967 60.3541C17.3557 60.3413 17.3667 60.2857 17.4064 60.282C17.9033 60.2351 18.3875 59.8783 18.5896 59.4188L18.6124 59.3672C18.6942 59.1845 18.7858 59.0108 18.9879 58.939C19.1846 58.8691 19.3911 58.9429 19.5259 59.0933C19.6387 59.219 19.6677 59.4688 19.8712 59.4138C20.0939 59.3534 20.2193 59.0714 20.3411 58.8977ZM18.9179 55.8453C19.028 55.7607 19.2004 55.8514 19.2307 55.9739C19.368 56.5285 18.7977 57.182 18.2497 57.1992C18.1086 57.2036 17.9729 57.1691 17.8479 57.1031C17.751 57.0519 17.6363 56.9211 17.5299 56.8995C17.3925 56.8715 17.2707 57.0565 17.174 57.1514C17.0539 57.2693 16.9352 57.3787 16.8007 57.4791C16.747 57.5193 16.6636 57.4519 16.6863 57.3902L16.7318 57.2677C16.8965 56.8314 17.1801 56.1946 17.7108 56.3757C17.9709 56.4643 18.1666 56.7634 18.4405 56.5266C18.6598 56.337 18.6802 56.0278 18.9179 55.8453ZM21.2597 53.6126C21.7545 53.0386 22.9176 53.3418 23.1381 54.0402C23.1869 54.1944 23.136 54.3949 23.0168 54.5041C22.8598 54.6479 22.6358 54.6915 22.4452 54.5786C22.2811 54.4816 22.2138 54.3229 22.0932 54.1866C21.9163 53.9871 21.6758 53.8763 21.4279 53.7969C21.3659 53.8298 21.3083 53.8731 21.2565 53.9252C21.2301 53.952 21.18 53.9153 21.2035 53.8839C21.2354 53.8411 21.2744 53.8008 21.3188 53.7637L21.2975 53.7574V53.7574C21.2322 53.739 21.2181 53.661 21.2597 53.6126ZM24.4754 47.2743C24.5863 47.2745 24.7155 47.3797 24.7013 47.5026L24.697 47.5368C24.6651 47.7707 24.5907 47.9032 24.359 48.0119C24.1625 48.104 23.956 48.1549 23.7405 48.175C23.659 48.1826 23.5727 48.1831 23.4852 48.1765L23.4668 48.2839C23.4302 48.4987 23.3964 48.7136 23.39 48.9325C23.3782 49.3384 23.528 49.6728 23.6887 50.0352C23.9971 50.7312 24.0318 51.4259 23.696 52.1209C23.6468 52.2226 23.5078 52.3054 23.3955 52.2951C23.25 52.2818 23.1798 52.2392 23.0951 52.1209C23.024 52.0216 23.0403 51.8812 23.0895 51.7773L23.0951 51.7659C23.2643 51.4346 23.3177 51.0602 23.2313 50.696C23.1501 50.3536 22.9661 50.0459 22.884 49.7046C22.7502 49.1487 22.8927 48.5973 23.1712 48.1203C22.961 48.0591 22.7666 47.9501 22.6368 47.7837L22.6374 47.7835V47.7835C22.5879 47.73 22.6149 47.6184 22.7018 47.6251L22.8001 47.6331C23.0812 47.6568 23.34 47.6816 23.6243 47.6023C23.77 47.5617 23.8958 47.4939 24.0209 47.4119L24.0477 47.3941C24.2043 47.2889 24.2911 47.2741 24.4754 47.2743ZM25.1482 43.1654C25.853 43.125 26.4547 43.5951 26.7472 44.2209C27.0649 44.9003 26.9316 45.6798 26.6512 46.3483L26.5715 46.5354C26.432 46.8595 26.2489 47.245 25.9633 47.4189C25.6425 47.6143 25.3652 47.3877 25.4598 47.0276C25.5162 46.8131 25.6688 46.6476 25.7922 46.4706C25.9074 46.3053 26.015 46.1342 26.1092 45.9557C26.2939 45.6057 26.4318 45.2157 26.4303 44.8147C26.4277 44.0828 25.9492 43.2439 25.1482 43.2547C25.091 43.2553 25.092 43.1686 25.1482 43.1654ZM28.7127 41.9844C28.6687 41.9507 28.708 41.8757 28.7571 41.9074C29.5744 42.4327 30.1846 43.4196 30.3075 44.3891C30.3756 44.927 30.3236 45.5018 30.0969 45.9982C29.9669 46.2831 29.7438 46.555 29.4319 46.6331C29.1451 46.7048 28.8495 46.5393 28.7605 46.2563C28.7259 46.1465 28.7853 46.0317 28.875 45.9718C29.1658 45.7774 29.3999 45.5322 29.5369 45.2024C29.6794 44.8594 29.7362 44.4954 29.738 44.1255C29.7422 43.2591 29.4001 42.5125 28.7127 41.9844ZM38.6959 42.3599C38.6581 42.3175 38.7057 42.255 38.7557 42.2816C39.3466 42.5957 39.722 43.1973 39.8296 43.8562C39.935 44.5012 39.7932 45.3794 39.2992 45.8459C39.0204 46.1093 38.521 45.759 38.7528 45.4198C38.9162 45.1806 39.0928 44.9836 39.1863 44.7009C39.2698 44.4487 39.2993 44.1944 39.2947 43.9293C39.2848 43.3511 39.0804 42.791 38.6959 42.3599ZM31.4723 41.5521C32.4817 41.5035 33.0935 42.6683 33.2336 43.5365C33.3202 44.0729 33.2551 44.6253 32.9621 45.0906L32.9448 45.1176C32.703 45.4893 32.2635 45.9172 31.7899 45.7412C31.5894 45.6668 31.5361 45.4498 31.6707 45.2851C31.8768 45.0331 32.1953 44.9303 32.389 44.6612C32.6064 44.3594 32.6776 43.9813 32.665 43.6142L32.6633 43.5737C32.6296 42.8985 32.311 41.6027 31.4723 41.6256C31.4253 41.6269 31.4258 41.5543 31.4723 41.5521ZM34.6298 41.3586C35.6062 41.2325 36.2008 42.3935 36.3842 43.1933C36.4987 43.6933 36.5238 44.2511 36.3773 44.7473L36.3663 44.7827C36.2471 45.153 35.8952 45.7876 35.4359 45.5983C35.3101 45.5465 35.1816 45.4053 35.2419 45.253C35.3188 45.0583 35.4299 45.0078 35.5779 44.8833C35.6919 44.7874 35.7715 44.6497 35.8301 44.5141C35.9862 44.1527 36.0209 43.7305 35.9996 43.3411L35.9967 43.295C35.9415 42.5343 35.5335 41.4007 34.6298 41.4216C34.5885 41.4225 34.5914 41.3635 34.6298 41.3586ZM36.4174 40.2671C36.9608 40.058 37.406 40.5832 37.7184 40.958C38.1097 41.4276 38.4647 41.9336 38.6654 42.5182C38.8441 43.0392 38.8756 43.6184 38.7146 44.1487C38.6348 44.4112 38.5107 44.6547 38.3412 44.869L38.3195 44.8961C38.1431 45.1135 37.9728 45.247 37.6839 45.1692C37.5663 45.1375 37.5166 45.02 37.5369 44.9077C37.5805 44.6677 37.7028 44.6054 37.8613 44.4379C38.001 44.2901 38.1047 44.1082 38.1745 43.9169C38.3182 43.5222 38.3257 43.0947 38.2292 42.6881C38.1212 42.233 37.9086 41.8127 37.6626 41.4188L37.6096 41.3345C37.349 40.9181 36.9774 40.2769 36.4277 40.3444C36.3806 40.3503 36.38 40.2814 36.4174 40.2671Z" fill="black"/>
<path fill-rule="evenodd" clip-rule="evenodd" d="M32.4649 59.141C32.0925 58.9875 31.7603 58.7314 31.5174 58.4042C31.433 58.2905 31.4111 58.1704 31.4288 58.0605C31.4487 57.937 31.521 57.8251 31.6196 57.75C31.7185 57.6747 31.8422 57.6375 31.9618 57.6565C32.0658 57.6729 32.1692 57.7304 32.2511 57.8497L32.2682 57.8736C32.4126 58.071 32.6008 58.233 32.8152 58.3375C33.0218 58.4381 33.2529 58.4851 33.4921 58.4578C33.9476 58.4058 34.2615 58.1568 34.5953 57.8186C34.6366 57.7759 34.678 57.7319 34.7196 57.6872C34.7459 57.6466 34.7823 57.6206 34.8228 57.6069C34.8677 57.5917 34.9185 57.5926 34.9651 57.609C35.01 57.6248 35.0501 57.6548 35.0771 57.6948C35.1026 57.7328 35.1171 57.7797 35.1124 57.8336C35.0819 58.184 34.9006 58.4968 34.6432 58.7423C34.3572 59.015 33.9782 59.2037 33.6214 59.2699C33.2282 59.3428 32.8276 59.2906 32.4649 59.141V59.141ZM33.8068 53.7351C34.2251 53.9921 34.8624 54.5913 34.4124 55.2284C33.8828 55.7901 33.1202 55.146 32.7445 54.8548C32.396 54.629 32.0045 55.2096 32.3278 55.4732C35.0432 57.5052 36.1451 53.8023 34.0184 53.433C33.7842 53.3923 33.6972 53.6556 33.8068 53.7351ZM28.9409 51.3714C28.9871 50.7916 29.8607 50.6599 29.9476 51.2337C30.0254 51.7476 29.9338 52.2197 29.7048 52.6824C29.486 53.1245 28.9359 52.9183 28.8943 52.5157C28.8386 51.9762 28.9121 51.7321 28.9409 51.3714ZM35.591 51.1147C35.7128 50.9535 35.8887 50.8434 36.0994 50.9056C36.7577 51.1 36.5637 52.0447 36.3325 52.5045C36.2069 52.7542 35.8008 52.8175 35.6173 52.5976C35.3182 52.2391 35.175 51.5231 35.5552 51.17C35.5655 51.1517 35.577 51.1333 35.591 51.1147ZM29.6955 48.8344L29.7995 48.816C30.1212 48.7598 30.5212 48.7057 30.7487 48.9671C30.8694 49.1057 30.911 49.3634 30.7487 49.4961C30.4634 49.7295 30.1479 49.6391 29.8059 49.6588C29.5241 49.6752 29.2532 49.7223 28.9818 49.8007C28.3862 49.9728 27.901 50.2869 27.3924 50.6317C27.3256 50.677 27.2575 50.5907 27.2893 50.5276C27.5829 49.9463 28.152 49.4688 28.7219 49.1777C29.0261 49.0224 29.359 48.8935 29.6955 48.8344ZM34.991 48.574L35.0705 48.5905C35.9367 48.7734 37.062 49.139 37.4721 49.9989C37.4877 50.1205 37.4712 50.1465 37.4578 50.1636L37.4533 50.1692C37.4423 50.1838 37.4334 50.2038 37.3813 50.2204C37.3668 50.2169 37.3522 50.2132 37.3374 50.2093C37.1494 50.1595 37.0007 50.0909 36.8567 50.0197L36.7005 49.9419C36.5194 49.8522 36.3366 49.7656 36.143 49.7018C35.7297 49.5655 35.3045 49.4695 34.8728 49.4183C34.7792 49.4072 34.6891 49.3752 34.618 49.3205C34.5506 49.2686 34.499 49.1967 34.4755 49.1012C34.4451 48.9775 34.4538 48.8838 34.5195 48.7723C34.5688 48.6885 34.6395 48.6304 34.7206 48.5971C34.8032 48.5631 34.8974 48.555 34.991 48.574Z" fill="black"/>
</g>
<defs>
<clipPath id="clip0_240_6485">
<rect width="76" height="78" fill="white" transform="translate(10 10)"/>
</clipPath>
</defs>
</svg>
