<svg width="84" height="74" viewBox="0 0 84 74" fill="none" xmlns="http://www.w3.org/2000/svg">
<path fill-rule="evenodd" clip-rule="evenodd" d="M31.5506 69.4656C39.2053 70.6283 46.9989 70.6868 54.7172 70.2646C57.7719 70.0359 60.8359 69.9947 63.888 70.2871C65.6916 70.4212 73.5992 71.0256 74.2452 69.4103C73.8386 60.8087 73.015 52.1339 70.4886 43.8613C69.4496 40.9239 68.5572 38.4859 66.5293 36.0552C65.8902 35.3915 64.5119 33.9996 63.7221 33.5456C63.0379 33.1524 62.7519 33.2927 62.359 32.6285C61.9686 31.8947 61.6806 30.6693 61.1263 30.1516C60.5619 29.6245 59.7254 29.8131 58.6886 29.9829C58.8791 27.4089 57.6909 26.7533 56.0541 26.2638C53.177 25.1658 50.3355 25.7174 49.6114 29.2199C48.2687 29.2199 47.5144 29.7977 46.6991 30.3529C46.3658 30.5798 46.5976 31.158 46.1995 31.3364C45.4629 31.5987 44.1612 31.5344 43.452 31.8572C40.2269 33.3249 37.3544 35.4533 35.468 38.5617C31.2388 45.1982 28.3337 59.178 28.8364 67.0437C28.6161 67.3891 28.9207 67.8844 28.9981 68.2558C29.0959 68.5789 29.4123 68.7938 29.7426 68.7571C30.2035 69.2527 30.9163 69.363 31.5506 69.4656Z" fill="white"/>
<path fill-rule="evenodd" clip-rule="evenodd" d="M63.2347 33.3509C63.1877 33.3247 63.2291 33.2576 63.2763 33.2798C65.5465 34.3448 67.288 36.2132 68.5134 38.372C69.7822 40.6074 70.5054 43.1454 71.1289 45.626L71.1514 45.7156C71.8163 48.3692 72.3816 51.0503 72.8905 53.7379C73.4059 56.4595 73.8196 59.1981 74.1524 61.9479C74.3171 63.3075 74.4639 64.6696 74.5783 66.0343C74.6355 66.7164 74.6875 67.3989 74.7342 68.0817C74.7529 68.3548 74.7704 68.6279 74.7855 68.9012L74.7963 69.1063C74.8056 69.2922 74.8277 69.4787 74.7818 69.6621C74.7421 69.8203 74.6584 69.9635 74.5847 70.1086C74.4391 70.3956 74.0398 70.3483 73.8828 70.1086L73.8372 70.0388C73.7331 69.8779 73.6466 69.7284 73.614 69.5282C73.5824 69.3344 73.5812 69.1312 73.567 68.9354C73.541 68.5751 73.5188 68.2145 73.4935 67.8541C73.4403 67.0954 73.3806 66.3373 73.3145 65.5797C73.1838 64.084 73.0436 62.5898 72.8714 61.0983C72.5654 58.4476 72.1815 55.8039 71.7288 53.1743C71.2866 50.6055 70.7275 48.0628 70.1443 45.5232L70.0839 45.2605C69.0627 40.8266 67.4888 35.7205 63.2347 33.3509ZM39.0546 50.713C39.0713 50.6687 39.1431 50.6585 39.1552 50.713C39.3081 51.4016 39.3233 52.1107 39.3466 52.8156C39.3697 53.511 39.3687 54.2095 39.3586 54.9053C39.3212 57.4624 39.251 60.0174 39.1903 62.5741C39.16 63.853 39.1315 65.132 39.1096 66.4111C39.1014 66.8908 39.0944 67.3705 39.0887 67.8503L39.0816 68.483C39.0781 68.7628 39.0707 69.0391 39.0366 69.3186C39.0141 69.5024 38.9662 69.6777 38.8647 69.8352C38.7927 69.9471 38.6901 70.0038 38.59 70.0798L38.5713 70.0943C38.4437 70.1951 38.3093 70.1959 38.1829 70.0943L38.1462 70.0653C38.0255 69.9709 37.9211 69.8971 37.8441 69.7478C37.7368 69.5402 37.7197 69.3147 37.7014 69.0859C37.6738 68.7391 37.6921 68.3871 37.6957 68.0393C37.7028 67.3414 37.7125 66.6437 37.7248 65.9459C37.7697 63.3872 37.8585 60.8279 38.0204 58.2737C38.0967 57.0706 38.2001 55.8636 38.3388 54.6654L38.3652 54.4408C38.4073 54.0883 38.4457 53.7295 38.4889 53.3695C37.8434 52.9154 37.276 52.3646 36.7921 51.7396C36.7565 51.6936 36.8152 51.6291 36.8582 51.6737C37.3526 52.1856 37.9195 52.5937 38.547 52.9146C38.6499 52.161 38.7912 51.4115 39.0546 50.713ZM49.8386 27.904C49.8474 27.8972 49.8612 27.8942 49.8697 27.904C50.0084 28.0658 49.9803 28.3131 49.9847 28.5181L49.9853 28.5372C49.9952 28.8369 49.9971 29.1356 49.9961 29.4355L49.993 30.39V30.39C49.9926 30.5213 49.9819 30.6579 49.9887 30.7899L49.9922 30.841V30.841C50.0651 30.9156 50.0989 31.0235 50.0742 31.1318C50.0698 31.2708 49.9971 31.3868 49.8911 31.4597L50.1183 31.782V31.782L50.3457 32.1041C50.8143 32.7688 51.2882 33.4276 51.782 34.074C52.2855 34.7331 52.8227 35.3674 53.3848 35.9772C53.6595 36.2752 53.9388 36.5691 54.2246 36.8563C54.3407 36.9731 54.4598 37.087 54.5775 37.2021L54.6946 37.3178C54.7638 37.387 54.8509 37.4554 54.8968 37.5432C54.9238 37.5949 54.93 37.7224 54.9396 37.7435C55.0263 37.9341 54.8784 38.238 54.6325 38.1429L54.6437 38.1355C54.6885 38.1043 54.6598 38.1039 54.5576 38.1342C54.4932 38.134 54.4327 38.1191 54.3763 38.0897L54.3594 38.0805C54.2799 38.0401 54.209 37.9619 54.1444 37.8994L54.1284 37.8841C53.9807 37.7457 53.8399 37.5989 53.6983 37.4543C53.4028 37.1525 53.114 36.8442 52.8344 36.5277C52.2766 35.8962 51.7478 35.2391 51.247 34.5616C50.7369 33.8715 50.2628 33.1461 49.8551 32.3908C49.7003 32.1042 49.5585 31.812 49.4225 31.5165C49.1578 31.4315 49.0963 31.15 49.1148 30.8329C49.0171 30.6054 48.9291 30.3733 48.8771 30.1361C48.87 30.1036 48.9117 30.0729 48.9368 30.1013C49.0214 30.1975 49.0998 30.3 49.1752 30.405C49.2206 30.1827 49.2782 29.978 49.3052 29.8475L49.4226 29.2717V29.2717C48.7613 29.2372 48.0366 29.5089 47.5807 29.9846C47.5562 30.1084 47.4609 30.1971 47.368 30.3128C47.2618 30.4452 47.1692 30.5937 47.1001 30.7491C46.9469 31.0934 47.0333 31.6007 46.736 31.8533C46.705 31.8796 46.6704 31.8979 46.6346 31.9092C46.7757 32.601 46.7117 33.3634 46.7086 34.0652L46.7085 34.127C46.7092 34.9126 46.683 35.6987 46.6526 36.4836L46.6217 37.2604C46.5817 38.2965 46.5557 39.333 46.6564 40.3633C47.1161 39.9562 47.5914 39.5677 48.083 39.1976C48.4063 38.9541 48.736 38.7194 49.0718 38.4934L49.3446 38.3111C49.6715 38.0919 50.0063 37.8664 50.3642 37.7094C50.8324 37.5041 51.2776 37.5747 51.7295 37.7852C52.1797 37.9949 52.6163 38.2385 53.0578 38.4657C53.5069 38.6968 53.9569 38.926 54.4066 39.1557C54.7044 39.3079 55.1409 39.4453 55.3594 39.7255C55.3734 39.6635 55.3896 39.6017 55.4086 39.5401C55.3869 39.4462 55.3953 39.3447 55.448 39.248C56.1821 37.899 56.8614 36.5179 57.5359 35.1384C57.8773 34.4402 58.2019 33.7339 58.544 33.0361L58.8765 32.3566C58.9321 32.2434 58.9878 32.1303 59.0438 32.0173C59.1277 31.8483 59.2151 31.6808 59.2999 31.5121C59.3358 31.4408 59.3807 31.3701 59.4156 31.2981L59.4322 31.262C59.433 31.2602 59.5135 31.0068 59.4513 31.031L59.4459 31.0335C59.4142 31.0515 59.3887 31.0116 59.4093 30.9861C59.4973 30.8773 59.6199 30.9736 59.6701 31.0744C59.8085 31.3516 59.555 31.7867 59.4574 32.0521L59.4521 32.0669C59.1495 32.9235 58.8068 33.764 58.4557 34.6015C57.7826 36.2074 57.0594 37.7885 56.3379 39.3725L56.3293 39.3997V39.3997C56.4832 39.2818 56.6475 39.1747 56.7881 39.0705C57.143 38.8076 57.5083 38.5577 57.873 38.3085C58.5417 37.8516 59.2286 37.4249 59.9269 37.0149L60.0667 36.9332C60.4155 36.73 60.761 36.5652 61.175 36.6262C61.5597 36.6829 61.9173 36.8895 62.2647 37.0573L62.3006 37.0745L63.3743 37.585C63.2596 37.1273 63.1353 36.6718 63.0056 36.218C62.7527 35.3328 62.4745 34.4551 62.1727 33.5853C61.8909 32.7725 61.5863 31.9687 61.264 31.1712L61.167 30.9319C61.0356 30.6035 60.9049 30.2455 60.5294 30.1444C60.1541 30.0433 59.7237 30.1932 59.3807 29.9793C59.3495 29.9598 59.3534 29.9084 59.3911 29.899L59.6028 29.8456C60.0002 29.7468 60.466 29.6473 60.8418 29.7435C61.2507 29.8482 61.589 30.1914 61.7874 30.5482C62.008 30.945 62.1635 31.3892 62.3309 31.8124L62.3575 31.879C62.5496 32.3579 62.7344 32.8397 62.9112 33.3246C63.2648 34.2937 63.5866 35.2745 63.8779 36.2641C64.0183 36.741 64.1515 37.2203 64.2795 37.7006C64.3163 37.8388 64.377 38.0063 64.4268 38.181C64.4839 38.2367 64.5379 38.2988 64.5886 38.3697C64.6727 38.4872 64.6123 38.625 64.5078 38.6954C64.5038 38.8156 64.477 38.9287 64.4132 39.0256C64.1639 39.404 63.5048 39.3065 63.5315 38.7978C63.5356 38.7199 63.5659 38.6456 63.6119 38.5828L63.6106 38.5726V38.5726L63.6054 38.5539V38.5539C63.4909 38.4991 63.376 38.438 63.2549 38.3781L62.1281 37.8213V37.8213C61.8017 37.66 61.44 37.4109 61.0771 37.3494C60.7387 37.2921 60.3818 37.5442 60.091 37.6963L60.0722 37.706C59.3694 38.0663 58.6718 38.4384 57.9769 38.8137C57.6377 38.9969 57.3029 39.1877 56.965 39.3731C56.6825 39.5281 56.3776 39.7507 56.06 39.8381C55.9244 39.9436 55.7633 39.9295 55.6338 39.8497C55.6929 40.2162 55.6893 40.5923 55.7075 40.967C55.7319 41.468 55.7356 41.9703 55.7437 42.4719L55.747 42.6599C55.7683 43.7688 55.7797 44.878 55.7839 45.9872C55.7989 49.9368 55.7553 53.8875 55.7451 57.8371C55.7399 59.8214 55.7006 61.8075 55.6491 63.7912C55.6272 64.6317 55.5815 65.4712 55.5321 66.3105L55.505 66.7683C55.4475 67.7342 55.4136 68.7107 55.2348 69.6636C55.2114 69.7879 55.0011 69.791 54.9805 69.6636C54.8159 68.6426 54.8067 67.5991 54.7751 66.5661L54.7684 66.3597C54.7304 65.2505 54.7123 64.1421 54.7162 63.0323C54.7303 59.0812 54.833 55.1325 54.917 51.1825C54.9593 49.1979 54.9877 47.2123 55.0533 45.2284C55.0861 44.2356 55.1233 43.2436 55.1673 42.2512C55.187 41.8082 55.2059 41.3656 55.2354 40.9232L55.2486 40.7336C55.2578 40.6099 55.2652 40.4877 55.2741 40.3667C54.8744 40.5127 54.5087 40.2424 54.1491 40.0574C53.7346 39.8442 53.3203 39.6306 52.9057 39.4178L52.4907 39.2054V39.2054L51.6602 38.7816C51.2862 38.5908 50.9981 38.4009 50.5993 38.6247C49.1625 39.4308 47.8421 40.5034 46.6455 41.6289C46.4161 41.8447 45.9312 41.7867 45.8731 41.425C45.6248 39.8796 45.7758 38.3118 45.9026 36.7617L45.9493 36.1863C46.0059 35.4989 46.0676 34.8116 46.1498 34.127C46.1865 33.8208 46.2231 33.5147 46.2636 33.2091L46.2948 32.98C46.3454 32.6177 46.3785 32.2576 46.4864 31.9101C46.4523 31.8991 46.4196 31.8811 46.3903 31.8533C46.0658 31.5454 46.2223 31.0113 46.3703 30.6451C46.5165 30.2836 46.7394 29.9682 47.0186 29.6966C47.0795 29.6373 47.1654 29.5992 47.2516 29.5972C47.9285 29.1487 48.6711 28.9249 49.444 29.1697C49.4657 29.0659 49.4878 28.9623 49.5111 28.8589L49.5349 28.7557C49.595 28.4992 49.6173 28.0756 49.8386 27.904ZM56.7762 68.4039C56.9862 68.3461 57.2162 68.407 57.3701 68.5609C57.524 68.7148 57.5849 68.9447 57.527 69.1548C57.4981 69.2582 57.4458 69.348 57.3701 69.4242C57.2994 69.4944 57.2169 69.5446 57.1227 69.5746L57.1007 69.5811L57.0664 69.5954C56.9611 69.6237 56.8557 69.6237 56.7505 69.5954C56.6498 69.5672 56.5625 69.5163 56.4883 69.4427C56.4147 69.3685 56.3637 69.2812 56.3355 69.1804C56.3072 69.0751 56.3072 68.9699 56.3355 68.8646L56.3499 68.8302V68.8302C56.3788 68.7268 56.4311 68.637 56.5068 68.5609C56.5829 68.4852 56.6728 68.4329 56.7762 68.4039ZM69.2486 47.4726C69.2831 47.433 69.3391 47.4837 69.3176 47.5258C68.9904 48.1672 68.6258 48.8041 68.2674 49.4292C68.2961 49.6024 68.3245 49.7743 68.3573 49.9418C68.4969 50.6558 68.668 51.3569 68.7795 52.0777C69.1802 54.6686 69.3883 57.2876 69.5668 59.9017C69.7459 62.5252 69.7688 65.1499 69.7957 67.7786C69.798 68.0064 69.6228 68.2712 69.3879 68.3141C69.2804 68.3338 69.2 68.3299 69.0927 68.3141C68.8483 68.2781 68.6954 67.9982 68.6849 67.7786C68.6149 66.3095 68.5206 64.8422 68.4114 63.3753C68.2178 60.7748 68.0995 58.1675 67.9431 55.5642L67.888 54.6544C67.8289 53.6685 67.7749 52.682 67.7573 51.6946C67.7455 51.0405 67.7805 50.3866 67.759 49.7332C67.7392 49.13 67.678 48.4741 67.811 47.8815C67.8159 47.8593 67.851 47.8536 67.8611 47.8749C67.9994 48.166 68.087 48.4824 68.1545 48.8053C68.5109 48.3547 68.8738 47.903 69.2486 47.4726ZM45.9058 31.5387C45.9558 31.535 45.9538 31.6102 45.9058 31.6158C45.2064 31.6969 44.5308 31.9815 43.8705 32.2234L43.8139 32.244C43.1468 32.486 42.4964 32.7675 41.8704 33.103C40.6466 33.759 39.5228 34.6048 38.5292 35.5731C34.5623 39.4385 32.7544 45.0126 31.4297 50.2509C30.6937 53.1612 30.1703 56.1207 29.831 59.1029C29.6633 60.5778 29.5447 62.0583 29.4755 63.5411C29.4401 64.301 29.4178 65.0617 29.4085 65.8224C29.4037 66.212 29.4023 66.6018 29.4028 66.9914C29.403 67.17 29.4349 67.3948 29.3871 67.5682C29.3428 67.7288 29.2179 67.8702 29.1255 68.004C29.016 68.1628 28.8192 68.1544 28.7082 68.004L28.6672 67.9493C28.5488 67.7922 28.4329 67.642 28.416 67.4368C28.3979 67.2167 28.4107 66.9898 28.4099 66.7687C28.408 66.3234 28.4135 65.878 28.4224 65.4327C28.4396 64.5793 28.4732 63.7262 28.5232 62.874C28.6247 61.1447 28.7917 59.4189 29.0309 57.7031C29.456 54.6534 30.0933 51.6328 30.928 48.669C31.7154 45.873 32.6483 43.0854 33.9773 40.4955C35.2113 38.0909 36.8301 35.8539 38.9661 34.1734C39.9594 33.3919 41.0407 32.7405 42.2065 32.2501C42.7945 32.0027 43.4119 31.8007 44.0399 31.6856C44.6608 31.5718 45.2791 31.5876 45.9058 31.5387ZM56.8966 63.4619C57.0075 63.461 57.1312 63.4854 57.2263 63.5467L57.3535 63.645V63.645C57.3879 63.6892 57.4222 63.7337 57.4563 63.7782C57.5359 63.8818 57.5464 64.0494 57.5298 64.1729C57.5261 64.2553 57.5016 64.3319 57.4563 64.403L57.3595 64.5283V64.5283C57.2665 64.6042 57.1889 64.6584 57.0763 64.6949C57.0174 64.7139 56.9606 64.7179 56.9041 64.715L56.8852 64.7138L56.8966 64.7153L56.8768 64.7131V64.7131C56.8584 64.7115 56.8399 64.7095 56.8214 64.707C56.8088 64.7054 56.7961 64.7045 56.7835 64.7027C56.7714 64.7017 56.7597 64.7012 56.7474 64.7024C56.6042 64.7158 56.4603 64.6346 56.3586 64.5413C56.267 64.4573 56.1848 64.279 56.1976 64.1526L56.2031 64.0998C56.2127 64.0107 56.2206 63.9756 56.2584 63.8861C56.2951 63.799 56.3463 63.7222 56.4161 63.6573C56.5497 63.533 56.7132 63.4631 56.8966 63.4619ZM56.4533 56.9415C56.6434 56.7344 56.9698 56.7192 57.2055 56.8445C57.2629 56.875 57.3156 56.9241 57.3663 56.965C57.4938 57.0681 57.5439 57.2541 57.551 57.4109C57.5579 57.5658 57.4762 57.7499 57.3663 57.8569L57.3396 57.8827V57.8827C57.2739 57.9466 57.1798 58.0021 57.088 58.019C56.9398 58.0462 56.8153 58.0454 56.6773 57.9872C56.5588 57.9372 56.4566 57.8568 56.3871 57.7477L56.3758 57.7292C56.3711 57.7215 56.3666 57.7138 56.3623 57.7058L56.3562 57.6938C56.2241 57.4398 56.2596 57.1524 56.4533 56.9415ZM56.5517 50.3869C56.6375 50.36 56.7231 50.3562 56.8088 50.3754C56.867 50.3755 56.9213 50.3902 56.9715 50.4194C57.0262 50.4346 57.0736 50.4623 57.1138 50.5023C57.1622 50.5309 57.2008 50.5695 57.2295 50.6179C57.2865 50.6802 57.3249 50.7533 57.3449 50.8372L57.3679 51.0086L57.3449 51.18L57.2799 51.334V51.334C57.262 51.3574 57.244 51.3807 57.2258 51.4039C57.1971 51.4525 57.1585 51.4912 57.1099 51.5199C57.0783 51.5513 57.0421 51.5748 57.0016 51.5911C56.8581 51.694 56.6668 51.7275 56.4967 51.6807C56.3957 51.6524 56.308 51.6013 56.2336 51.5274C56.1598 51.453 56.1086 51.3653 56.0804 51.2643L56.0687 51.1837C56.0537 51.0755 56.0513 51.0156 56.0819 50.8781C56.0954 50.8177 56.1343 50.7324 56.1547 50.6965C56.2419 50.5432 56.3843 50.4382 56.5517 50.3869ZM63.9948 45.6713C64.241 45.6696 64.4871 45.67 64.7332 45.6728L64.9178 45.6752C65.2268 45.6801 65.4916 45.6482 65.7345 45.8627C65.9109 46.0183 65.8332 46.2794 65.6658 46.3966C65.4122 46.5741 65.094 46.4848 64.8025 46.4653C64.495 46.4447 64.1872 46.4275 63.8794 46.4137C63.2833 46.3871 62.687 46.3701 62.0904 46.3674C61.4951 46.3649 60.8988 46.3705 60.3035 46.3801C59.6978 46.39 59.0671 46.4464 58.4648 46.3837C58.3821 46.3751 58.3634 46.2663 58.4451 46.238C59.0127 46.0417 59.6512 45.978 60.246 45.903C60.8595 45.8255 61.473 45.7706 62.0904 45.735C62.7245 45.6987 63.3596 45.6757 63.9948 45.6713ZM56.5506 43.7428L56.5709 43.7432C56.6793 43.7435 56.7806 43.769 56.8752 43.8197L56.8953 43.8309L57.0254 43.9313C57.105 44.0116 57.1602 44.1061 57.1906 44.215L57.2136 44.3858V44.3858C57.217 44.4743 57.1985 44.5568 57.1583 44.6334C57.1323 44.7131 57.0881 44.782 57.0254 44.8403C56.9672 44.9029 56.8982 44.9472 56.8186 44.9732C56.7478 45.0103 56.6721 45.0289 56.5912 45.0289L56.5709 45.0285C56.455 45.0281 56.3468 44.9989 56.2466 44.9408L56.1165 44.8403V44.8403C56.0369 44.7601 55.9817 44.6656 55.9512 44.5567L55.9282 44.3858V44.3858C55.9249 44.2974 55.9433 44.2147 55.9837 44.1382C56.0095 44.0585 56.0538 43.9896 56.1165 43.9313C56.1747 43.8687 56.2436 43.8244 56.3234 43.7985C56.3941 43.7614 56.4698 43.7428 56.5506 43.7428V43.7428ZM58.4559 28.6454C58.5944 28.4448 58.8453 28.6232 58.8094 28.7844C58.8189 29.2373 58.8421 29.6768 58.9451 30.1204C58.9923 30.3235 59.0541 30.5268 59.1494 30.7128L59.1895 30.7911C59.3129 31.0349 59.4087 31.2648 59.2425 31.5323C59.1641 31.6584 59.0226 31.7531 58.8691 31.7464C58.1886 31.7171 58.0951 30.7698 58.0537 30.241C58.0111 29.6964 58.1437 29.0979 58.4559 28.6454Z" fill="black"/>
<path fill-rule="evenodd" clip-rule="evenodd" d="M54.3654 6.40967C57.6923 6.40967 61.1334 8.98842 62.3529 10.634C63.3782 12.0175 63.9303 18.2737 63.9303 22.5017C63.9303 23.3859 64.4183 25.0528 64.2759 25.8987C63.754 28.9981 61.4805 31.5975 56.9807 31.5975C52.481 31.5975 49.2547 29.8139 45.9101 25.0251C44.2873 25.0251 43.5008 23.7806 43.4894 21.8167C43.478 19.8527 45.0558 19.1382 45.0558 19.1382C45.0558 19.1382 44.4933 11.3877 45.9101 9.36985C47.327 7.35199 51.0386 6.40967 54.3654 6.40967Z" fill="white"/>
<path fill-rule="evenodd" clip-rule="evenodd" d="M52.9653 5.3136C55.0658 5.10091 57.1242 5.27962 59.1942 5.64939C59.3524 5.67804 59.442 5.78181 59.4754 5.90655C60.4504 5.95108 61.4266 6.02262 62.4003 6.07594C62.7537 6.09528 62.954 6.44443 62.7929 6.75971C62.7607 6.82235 62.7272 6.88328 62.6933 6.94422L62.7359 6.93014C63.0289 6.83617 63.3453 6.78984 63.6307 6.939C63.994 7.12884 64.1364 7.54771 64.0562 7.93325C64.0356 8.03168 64.0011 8.12602 63.9618 8.21806C64.0415 8.21279 64.1218 8.21455 64.2015 8.22509C64.6257 8.28134 64.9409 8.60653 64.9632 9.03952C64.996 9.69335 64.5747 10.3567 64.0784 10.8248C64.1504 10.9731 64.178 11.1477 64.1481 11.3246C64.0883 11.6744 63.8306 11.8839 63.5319 12.0205C63.6565 12.4161 63.7154 12.8296 63.6806 13.2522C63.669 13.3933 63.5457 13.5099 63.4154 13.5384C63.9009 14.8752 64.1466 16.3103 64.3233 17.7087C64.4493 18.7037 64.5114 19.7044 64.519 20.7069C64.5227 21.1595 64.5152 21.6126 64.4962 22.0652L64.4886 22.235C64.4651 22.7243 64.464 23.238 64.3761 23.7221C64.6761 24.2324 64.7968 24.8658 64.8477 25.4376C64.911 26.1454 64.8108 26.8754 64.5875 27.5487C63.745 30.0927 61.2021 31.6981 58.6481 32.1154C56.2839 32.5015 53.5483 31.9818 52.1667 29.8343C52.145 29.8003 52.1913 29.7723 52.2182 29.7945C53.2067 30.5984 54.3533 30.957 55.599 31.1316C57.7528 31.4328 60.1738 30.9218 61.9023 29.5672C62.7319 28.9168 63.3301 27.97 63.5933 26.951C63.7275 26.4302 63.7737 25.887 63.721 25.3509C63.6671 24.8072 63.4263 24.3432 63.2745 23.8293C63.2236 23.6558 63.2775 23.4947 63.3835 23.3799C63.4134 22.9627 63.4837 22.542 63.5106 22.126C63.5405 21.6531 63.5587 21.1803 63.5652 20.7069C63.5775 19.7249 63.5365 18.7411 63.4538 17.7633C63.3027 15.9726 62.9013 14.2255 62.6658 12.4501C62.5786 12.5283 62.4535 12.5604 62.3225 12.4921L62.309 12.4847L62.2375 12.4437C62.2334 12.4437 62.2287 12.4443 62.2245 12.4448C61.7353 12.4923 61.2279 12.4244 60.7592 12.2784C60.2687 12.1261 59.8135 11.8918 59.4068 11.5795C59.3296 11.9714 59.2973 12.3675 59.2967 12.7671C59.2962 13.0167 59.0319 13.1462 58.8221 13.0396C57.8923 12.5673 57.004 12.023 56.1609 11.4113C56.0624 11.9158 55.964 12.4202 55.865 12.9253C55.8269 13.1199 55.579 13.1984 55.4202 13.1058C54.7887 12.7384 54.2432 12.2574 53.7991 11.6855C53.7104 11.855 53.6215 12.0246 53.5319 12.1937L53.3971 12.4472C53.2641 12.6962 53.086 12.9716 52.7948 13.0513C52.4866 13.1356 52.2293 12.9359 52.1257 12.6569C52.094 12.5703 52.0647 12.4812 52.0378 12.3915C51.7752 12.991 51.4788 13.5769 51.1437 14.1359C50.641 14.9742 50.0374 15.7213 49.4357 16.4877C49.2529 16.7203 48.94 16.4982 48.9148 16.2721C48.9002 16.1391 48.8879 16.0055 48.8773 15.8725C48.5267 16.58 48.1608 17.2809 47.7622 17.9616L47.8193 18.1852V18.1852C47.9838 18.846 48.1203 19.5115 48.2688 20.1758C48.3167 20.3901 48.2028 20.6966 47.9524 20.7331C47.6532 20.7767 47.3702 20.9295 47.0637 20.8244C46.7296 20.7096 46.6636 20.4208 46.5058 20.1471C46.4744 20.0925 46.4377 20.0424 46.3984 19.9949L46.3884 20.0079V20.0079C46.3637 20.0402 46.3052 20.005 46.3198 19.9681L46.337 19.9254V19.9254C46.2014 19.7816 46.0393 19.6616 45.8901 19.5325C45.5358 19.4728 45.1372 19.5382 44.893 19.6822C44.337 20.0102 44.0816 20.6864 44.0763 21.3081C44.0699 22.0358 44.2954 22.8537 44.6762 23.476C44.8439 23.7496 45.0735 23.9968 45.377 24.1182C45.6782 24.2388 46.0046 24.2014 46.311 24.315C46.5137 24.3906 46.6385 24.6156 46.5161 24.8194C46.5079 24.8336 46.4985 24.8464 46.4897 24.8599L46.5808 24.9809C46.6435 25.0647 46.7088 25.1544 46.7698 25.2478C46.9256 25.4271 47.0897 25.5999 47.2485 25.7763C47.542 26.1014 47.8268 26.4355 48.1156 26.7653C48.3881 27.0765 48.6764 27.3688 48.9734 27.6565C49.2541 27.929 49.6045 28.158 49.8623 28.4487C50.113 28.7323 50.181 29.2273 49.7685 29.3914C49.3121 29.5734 48.908 29.1469 48.6008 28.8625L48.5879 28.8506C48.0247 28.3323 47.5161 27.7401 47.1123 27.088C46.7122 27.3603 46.1335 27.3864 45.7352 27.1141C45.5255 26.9708 45.3647 26.7301 45.2865 26.4682C45.2128 26.4847 45.1392 26.4944 45.0673 26.4932C45.0304 26.5147 44.9933 26.5355 44.9558 26.555C44.6587 26.7096 44.2937 26.6405 44.1578 26.3118C44.034 26.0133 44.1615 25.6744 44.273 25.3868L44.296 25.3274C44.3593 25.1634 44.429 24.9847 44.5158 24.8166C44.2744 24.6349 44.0681 24.4093 43.8935 24.1527C43.307 23.2885 43.014 22.0246 43.1435 20.9935C43.2215 20.3712 43.5138 19.7267 43.9925 19.3071L43.9749 19.2614V19.2614C43.8408 18.9211 43.7188 18.5794 43.6398 18.2197C43.5472 17.799 43.5021 17.3631 43.4611 16.9348C43.3744 16.0301 43.3978 15.105 43.5132 14.2038C43.73 12.5076 44.2796 10.8424 45.2552 9.43092C44.9786 9.09981 44.7595 8.71018 44.8737 8.26201C44.9259 8.05629 45.0448 7.86124 45.2241 7.74341C45.3231 7.67843 45.4409 7.66847 45.5399 7.61457L45.5697 7.59817C45.6132 7.57279 45.5799 7.57548 45.554 7.45754C45.4515 6.9864 45.5364 6.5312 46.055 6.37476C46.543 6.2277 47.0047 6.53999 47.2936 6.91205C48.0494 6.37587 49.0455 6.09528 49.9214 5.85681C50.9175 5.58664 51.9393 5.41795 52.9653 5.3136ZM44.8011 21.1159C44.7975 20.7321 45.1614 20.4954 45.5195 20.5581C45.7599 20.6 45.9604 20.7435 46.1488 20.8918L46.2406 20.9644C46.4699 21.1445 46.7332 21.3386 46.8699 21.5934C47.0703 21.9696 46.6468 22.4758 46.2513 22.2121C45.98 22.0303 45.8061 21.739 45.6281 21.4684L45.6097 21.4405C45.5288 21.3192 45.4579 21.1903 45.3471 21.093L45.3232 21.0721C45.2868 21.041 45.2477 21.0127 45.2007 20.9993C45.1099 20.9732 44.9419 21.0097 44.9019 21.1177L44.8983 21.1288C44.8837 21.1833 44.8017 21.1715 44.8011 21.1159Z" fill="black"/>
<path fill-rule="evenodd" clip-rule="evenodd" d="M58.8759 26.9393C58.5014 26.9424 58.0803 26.8018 57.7988 26.6918L57.7254 26.6627C57.4818 26.5651 57.2315 26.4531 57.0448 26.2651C56.9852 26.204 56.9216 26.1348 56.8893 26.0621C56.8704 26.0195 56.8626 25.9755 56.8808 25.9316C56.9483 25.925 57.0123 25.9164 57.0729 25.9053C57.1017 25.9 57.1294 25.8946 57.1505 25.8944C57.2286 25.8939 57.3059 25.9039 57.3831 25.9136C57.3942 25.915 57.4054 25.9164 57.4166 25.9178C57.4767 25.9253 57.5365 25.9333 57.5962 25.9413C57.7698 25.9646 57.9426 25.9878 58.1187 25.9962C58.2459 26.0023 58.3792 25.9951 58.5138 25.9878C58.8627 25.9688 59.2235 25.9429 59.4923 26.1873C59.5628 26.2513 59.5922 26.332 59.5922 26.4141C59.5922 26.5139 59.5502 26.6155 59.4861 26.6952C59.341 26.8757 59.1176 26.9373 58.8759 26.9393ZM60.9179 23.7918C60.755 24.0362 60.4836 24.1934 60.1117 24.1763C59.3724 24.1425 58.4902 23.8636 57.871 23.4603C57.7098 23.3553 57.6053 23.1874 57.5865 23.0076L57.5531 22.6876L57.3729 22.9541C57.3541 22.9818 57.3352 23.0095 57.3162 23.0372C57.264 23.1135 57.2119 23.1898 57.1627 23.2679C56.9738 23.568 56.8006 23.8711 56.6434 24.189C56.5321 24.4141 56.4507 24.6659 56.3691 24.9199C56.2313 25.3488 56.0982 25.7705 55.8038 26.072C55.7593 26.1175 55.6909 26.1339 55.6283 26.1258C55.5731 26.1187 55.519 26.0916 55.4925 26.0377C55.1407 25.3224 55.6138 24.4605 55.9976 23.8613L56.0382 23.7987C56.394 23.2572 56.9752 22.5405 57.6408 22.4431L57.717 22.5647L57.8278 22.4908C58.009 22.3699 58.2482 22.3755 58.4576 22.4701L58.667 22.5646C59.0568 22.7395 59.4414 22.9009 59.8631 22.9894C59.8939 22.9958 59.9246 23.0018 59.9552 23.0074C59.9842 23.0127 60.0133 23.0176 60.0426 23.0222C60.0362 22.9934 60.0295 22.9648 60.0228 22.9363C60.0156 22.9061 60.0084 22.8758 60.0007 22.8456C59.9927 22.8145 59.9842 22.7835 59.9757 22.7526C59.9419 22.6296 59.9038 22.5077 59.8585 22.3883C59.6882 21.9396 59.4163 21.5199 59.1518 21.1195L59.1206 21.0724C59.0827 21.0151 59.0412 20.9552 58.9982 20.8933C58.7919 20.5962 58.5631 20.2738 58.5469 19.9502C58.8207 19.9674 59.0499 20.1376 59.2516 20.2857C59.5284 20.4888 59.785 20.7211 60.0177 20.9735C60.4691 21.4631 60.8742 22.0891 61.0519 22.7361C61.1536 23.1066 61.1089 23.5053 60.9179 23.7918V23.7918ZM53.6956 20.1005L53.6955 20.0873C53.6964 19.7136 53.914 18.8606 54.4519 18.8606C54.7879 18.8606 54.9919 19.4411 55.0272 20.0396L55.0284 20.064C55.044 20.4361 54.9419 21.2494 54.4519 21.2494C53.9566 21.2494 53.7007 20.4791 53.6956 20.1005V20.1005ZM61.6146 19.9833L61.6147 19.9701C61.6139 19.5964 61.3963 18.7434 60.8584 18.7434C60.5308 18.7434 60.3286 19.2953 60.286 19.8776L60.283 19.9224C60.2618 20.282 60.3573 21.1322 60.8584 21.1322C61.3536 21.1322 61.6095 20.3619 61.6146 19.9833V19.9833ZM55.5071 17.5719C55.4358 17.5802 55.3649 17.5912 55.294 17.6024C55.0872 17.6354 54.8815 17.6749 54.6772 17.721C54.2891 17.8086 53.9042 17.9192 53.5266 18.0442C53.1733 18.1612 52.8255 18.2935 52.4778 18.4257C52.4592 18.4327 52.4407 18.4398 52.4221 18.4469C52.2993 18.4935 52.177 18.5458 52.0542 18.5983C51.8674 18.6782 51.6798 18.7586 51.4883 18.8192C51.9928 18.1216 52.7702 17.6047 53.5183 17.2348C53.9451 17.0238 54.3979 16.8536 54.8534 16.7142L55.107 16.638C55.4805 16.5278 55.8889 16.426 56.2398 16.6457C56.3785 16.7326 56.4671 16.8677 56.495 17.0137C56.5223 17.1569 56.4911 17.3105 56.3922 17.4386C56.3061 17.5503 56.1987 17.6139 56.0844 17.6357C55.9583 17.6597 55.8246 17.6333 55.7029 17.5683C55.6055 17.561 55.5767 17.5637 55.5479 17.5669L55.5071 17.5719ZM61.1259 17.6428C60.876 17.5885 60.6284 17.5667 60.372 17.5745C60.256 17.578 60.1438 17.5959 60.0319 17.6139C59.8581 17.6419 59.6849 17.6709 59.4977 17.6369C59.4 17.6191 59.3168 17.562 59.2525 17.4874C59.1774 17.4002 59.1277 17.2888 59.1118 17.1828C59.0953 17.0733 59.1117 16.9776 59.1522 16.8931C59.2 16.7932 59.2806 16.7091 59.378 16.6353C59.6728 16.4122 60.1786 16.4658 60.5265 16.511C60.8702 16.5557 61.2121 16.6623 61.516 16.8316C61.8158 16.9987 62.0765 17.2238 62.2799 17.499C62.4513 17.7309 62.532 17.9979 62.6154 18.2697C62.2232 17.9406 61.6229 17.7507 61.1259 17.6428Z" fill="black"/>
<path fill-rule="evenodd" clip-rule="evenodd" d="M37.577 67.8497C37.4896 67.0386 37.4358 66.2219 37.4048 65.4067C37.374 64.5925 37.4144 63.7683 37.4321 62.9538C37.4682 61.2969 37.5269 59.636 37.3949 57.9816C37.2702 56.4181 36.9838 54.8654 36.5318 53.3631C36.3117 52.6315 36.0798 51.8704 35.7178 51.1944C35.3538 50.5146 34.7772 50.062 34.1439 49.6469C33.4696 49.205 32.8008 48.7547 32.1291 48.3087C31.5653 47.9342 30.5507 47.4985 30.0881 46.9979C29.6014 46.4713 29.5099 45.1657 29.1857 44.5418C28.87 43.9341 27.9764 43.5377 27.2884 43.5377C26.1495 43.5377 25.2865 43.4795 24.3501 44.5323C23.8828 45.0577 24.2546 45.5887 23.7648 46.0929C23.3146 46.5564 22.1631 47.0328 21.5827 47.3018C20.8877 47.6239 20.1751 47.9083 19.4521 48.1617C18.7147 48.4201 17.9586 48.6128 17.217 48.8567C16.5062 49.0905 15.578 50.0542 15.0261 50.5641C14.5131 51.0382 14.3857 50.9851 13.9957 51.561C13.1397 52.8249 12.2828 54.1033 11.6011 55.4718C11.2616 56.1534 10.9328 56.8704 10.8096 57.6275C10.6782 58.4349 10.8085 59.2152 11.0216 59.9969C11.2385 60.7925 11.9273 61.55 12.1517 62.3435C12.2552 62.7092 11.9002 63.1083 12.0635 63.453C12.145 63.6251 12.2477 63.7783 12.3646 63.9283C12.4547 64.0438 12.806 64.0182 12.8515 64.1597C12.8974 64.3025 12.6433 64.5989 12.6395 64.7467C12.6341 64.9583 12.6257 65.1699 12.6187 65.3814L12.5777 66.6322C12.5507 67.454 12.5237 68.276 12.4967 69.0979C12.4879 69.3662 12.475 69.6283 12.5394 69.8829C12.5162 69.8613 12.4941 69.8379 12.4739 69.8116C12.4149 69.7346 12.2897 69.7999 12.3398 69.89C12.4234 70.0403 12.5437 70.1462 12.685 70.2222C12.8492 70.4641 37.7191 71.0045 37.8415 70.2972C37.9101 69.9003 37.7852 69.4754 37.7352 69.0811C37.6832 68.6704 37.6214 68.2615 37.577 67.8497Z" fill="white"/>
<path fill-rule="evenodd" clip-rule="evenodd" d="M12.3134 57.6287C12.3743 57.4546 12.6526 57.5299 12.5913 57.7052C12.2763 58.6068 12.4998 59.5879 12.8403 60.4486C12.9086 60.6213 12.6298 60.6955 12.5624 60.5251C12.2042 59.6198 11.9826 58.5756 12.3134 57.6287M14.4253 62.7786C15.3136 62.9035 16.2026 62.9805 17.097 63.0428C17.137 63.0456 17.1716 63.0396 17.2015 63.0266C17.1748 63.4359 17.1532 63.8455 17.1363 64.2552C16.8924 64.2484 16.6435 64.2645 16.4018 64.258C16.0859 64.2494 15.7703 64.2336 15.4551 64.2095C14.8449 64.1634 14.2358 64.0899 13.6325 63.9884C13.407 63.9506 13.1206 63.9276 12.8638 63.8527C12.621 63.7818 12.4049 63.6644 12.2914 63.4434C12.1949 63.2562 12.1772 63.027 12.1772 62.82C12.1772 62.6774 12.2017 62.5327 12.2165 62.3891C12.2349 62.3761 12.2514 62.3606 12.2648 62.3434C12.5327 62.4279 12.8108 62.4874 13.0832 62.5449C13.5266 62.6392 13.9765 62.7156 14.4253 62.7786M13.9243 59.4501C13.9292 59.7253 14.0054 59.9752 14.1536 60.2069C14.2539 60.3636 14.0044 60.5079 13.9048 60.3522C13.7303 60.0795 13.6419 59.7733 13.6361 59.4501C13.6328 59.2644 13.921 59.2651 13.9243 59.4501M36.6943 62.4517C36.8146 62.4584 36.9356 62.4625 37.0562 62.4689C37.1626 62.5599 37.31 62.6065 37.4445 62.5775C37.4492 62.5892 37.4534 62.6022 37.4572 62.6173C37.481 62.7098 37.4929 62.8091 37.5066 62.9035C37.5203 62.9963 37.5307 63.09 37.5379 63.1836C37.5415 63.2307 37.5642 63.3372 37.5354 63.3783C37.5095 63.4153 37.4522 63.4121 37.4126 63.4168C37.3059 63.4283 37.1979 63.4337 37.0905 63.4427C36.8877 63.4603 36.6849 63.478 36.4825 63.4956C36.284 63.5129 36.0661 63.5075 35.8719 63.5597C35.8388 63.1706 35.8085 62.7815 35.7804 62.3919C36.0812 62.4362 36.3957 62.4351 36.6943 62.4517M11.4752 61.8063C11.5962 62.0399 11.7079 62.2695 11.9395 62.4099C11.9697 62.4279 12.0036 62.4377 12.0382 62.4402C12.0122 62.5514 11.996 62.6652 11.9816 62.7703C11.9499 63.0018 11.9431 63.2411 12.0011 63.4693C12.0576 63.6914 12.1513 63.8898 12.335 64.032C12.4204 64.0983 12.5137 64.1486 12.6116 64.1886C12.5951 64.235 12.5853 64.2811 12.5904 64.3319C12.567 64.4496 12.5515 64.5695 12.5345 64.6843C12.4974 64.9391 12.4603 65.1943 12.4312 65.4506C12.3728 65.9604 12.3271 66.4701 12.2885 66.9816C12.25 67.4917 12.2222 68.0025 12.1992 68.5137C12.1873 68.775 12.1769 69.0363 12.1671 69.298C12.1574 69.567 12.1138 69.842 12.2327 70.0915C12.3285 70.2931 12.6523 70.2815 12.7518 70.0915C12.8778 69.8499 12.8407 69.563 12.844 69.298C12.8472 69.0486 12.8515 68.7988 12.8569 68.5493C12.8677 68.0385 12.8836 67.5281 12.8962 67.0173C12.9084 66.5187 12.9236 66.0205 12.9337 65.5219C12.9387 65.2609 12.9391 65 12.9405 64.739C12.9412 64.5943 12.9474 64.4399 12.9365 64.289C13.0266 64.3102 13.1174 64.3282 13.2071 64.3466C13.8918 64.487 14.5838 64.5892 15.2801 64.6526C15.6298 64.6843 15.9807 64.7066 16.3315 64.7192C16.5895 64.7285 16.8567 64.7465 17.1186 64.7368C17.0981 65.3617 17.0887 65.987 17.0898 66.6123C17.0905 67.0633 17.0966 67.5144 17.1078 67.9654C17.1139 68.2026 17.119 68.4399 17.1262 68.6771C17.1294 68.7837 17.1294 68.8913 17.1366 68.9975C17.1388 69.0306 17.1435 69.0627 17.1496 69.0943C17.1258 69.1617 17.106 69.2282 17.0898 69.2905C17.0105 69.5929 17.0105 69.8834 17.0458 70.1915C17.0761 70.4528 17.2962 70.6951 17.5869 70.6034C17.6341 70.5886 17.6813 70.5731 17.7281 70.5572C18.156 70.6058 18.5865 70.617 19.0205 70.6253C19.6549 70.6375 20.2895 70.6415 20.9242 70.6447C22.1691 70.6512 23.4144 70.6545 24.6596 70.658C27.162 70.6652 29.6644 70.6721 32.1668 70.6793C32.8613 70.6815 33.5558 70.6832 34.2503 70.6854C34.6098 70.6865 34.9685 70.6868 35.3277 70.7005C35.4952 70.707 35.663 70.716 35.8305 70.7185C36.0247 70.7218 36.1965 70.666 36.382 70.6152C36.4868 70.586 36.5282 70.4809 36.5059 70.392C36.6738 70.432 36.8773 70.347 36.9346 70.1581C36.9763 70.0209 36.9609 69.8722 36.8985 69.7451V69.7448C36.7782 68.9856 36.6255 68.23 36.5055 67.4705C36.3741 66.6386 36.2476 65.8049 36.1363 64.9697C36.0528 64.339 35.984 64.7861 35.9245 64.1526C36.1835 64.1727 36.4764 64.0939 36.7328 64.0604C36.9169 64.0367 37.1024 64.0176 37.2868 63.9924C37.2732 64.1781 37.2771 64.3675 37.2721 64.5457C37.2624 64.8995 37.2667 65.2519 37.2757 65.6058C37.293 66.2887 37.3315 65.8912 37.3931 66.5712C37.4554 67.2563 37.5318 67.9388 37.6244 68.6206C37.6719 68.9716 37.7227 69.3222 37.7764 69.6724C37.8012 69.8358 37.8268 69.999 37.8531 70.1624C37.8844 70.3549 37.8945 70.5375 38.039 70.6822C38.1488 70.7919 38.3732 70.7826 38.446 70.6296C38.5382 70.4363 38.4964 70.2707 38.4622 70.0677C38.4345 69.9046 38.4078 69.7415 38.3815 69.5785C38.3253 69.2289 38.272 68.879 38.222 68.5288C38.1254 67.8539 38.0343 67.1778 37.9529 66.5011C37.8708 65.8189 37.7857 66.2174 37.7051 65.5353C37.6644 65.1911 37.6236 64.8477 37.5761 64.5047C37.552 64.3282 37.5368 64.1404 37.5051 63.9585C37.5152 63.9571 37.5253 63.9553 37.5354 63.9535C37.7544 63.9135 37.9414 63.7901 37.9965 63.5647C38.0491 63.3491 37.9864 63.1011 37.9421 62.8895C37.9043 62.7092 37.8701 62.479 37.7539 62.3246C38.1631 61.8037 38.4293 61.1483 38.5991 60.5181C38.784 59.8316 38.8614 59.115 38.8778 58.4056C38.8968 57.5837 38.8348 56.7665 38.6939 55.9629C38.6906 55.7926 38.6827 55.6224 38.6701 55.4523C38.5461 53.7835 38.026 51.8084 36.377 51.0286C36.3705 51.0254 36.3636 51.0225 36.3568 51.0196C36.2275 50.8652 36.0661 50.7262 35.9357 50.5963C35.7048 50.3659 35.4635 50.1456 35.2077 49.9426C34.7013 49.5405 34.1458 49.2194 33.5684 48.9303C32.9845 48.6377 32.3919 48.363 31.8214 48.0437C31.3243 47.7651 30.8769 47.4296 30.4522 47.0509C29.9749 46.625 29.6352 46.0509 29.502 45.4242C29.4951 45.3915 29.4465 45.4005 29.4458 45.4317C29.4108 46.5804 30.1867 47.5955 31.0797 48.2377C32.1473 49.0049 33.4365 49.3681 34.5193 50.1118C34.7884 50.2965 35.0402 50.5049 35.2797 50.7262C34.9127 50.6888 34.5392 50.7126 34.1952 50.8141C34.0597 50.8058 33.9236 50.8033 33.7878 50.7968C33.4773 50.7813 33.1664 50.767 32.8555 50.7532C32.2219 50.7252 31.5879 50.6996 30.954 50.6773C29.7102 50.6334 28.466 50.6002 27.2218 50.5783C24.7216 50.534 22.2181 50.5254 19.7182 50.5978C19.0403 50.6172 15.4757 50.4822 15.1457 50.5203C15.6309 50.1006 16.1633 49.7579 16.7487 49.476C17.481 49.1244 18.2378 48.8896 19.0198 48.6751C20.6303 48.2334 22.3028 47.8076 23.5916 46.6855C23.9118 46.4065 24.1964 46.0858 24.4295 45.7305C24.6521 45.3915 24.8995 44.9573 24.9057 44.5437C24.91 44.25 24.5008 44.143 24.3553 44.3946C24.2648 44.5505 24.2202 44.7215 24.1463 44.8849C24.0728 45.0469 23.9857 45.2031 23.8888 45.3526C23.6982 45.6463 23.4619 45.9083 23.2047 46.1448C22.6565 46.6495 21.9923 47.0192 21.305 47.2989C19.7445 47.9336 18.0379 48.2014 16.5592 49.038C15.9123 49.4041 15.293 49.9091 14.9044 50.5535C14.8417 50.5632 14.7794 50.5747 14.7171 50.5876C14.7635 50.529 14.8104 50.4703 14.8576 50.412C14.8885 50.3738 14.8406 50.3235 14.8028 50.3573C14.0676 51.011 13.3904 51.7169 12.7766 52.4865C12.1895 53.223 11.6419 53.9948 11.2544 54.8573C10.5577 56.4067 10.4043 58.1788 10.7641 59.8354C10.8621 60.2868 11.0004 60.7289 11.1766 61.1561C11.2673 61.3768 11.3657 61.5942 11.4752 61.8063" fill="black"/>
<path fill-rule="evenodd" clip-rule="evenodd" d="M34.7702 31.4192C34.665 31.1537 34.4789 30.8199 34.1679 30.8066C33.9274 30.0712 33.3292 29.3222 32.4973 29.3421C30.0554 26.8449 26.9811 26.9626 23.7669 27.4912C22.0712 27.8057 20.3494 28.4216 19.0847 29.6369C17.5699 31.0676 16.9801 33.564 18.1663 35.3732C17.1411 35.9226 17.1212 37.2263 17.5596 38.167C17.0326 38.5314 17.0006 39.416 17.594 39.694C17.5625 39.8232 17.5848 39.9568 17.6449 40.0716C17.3507 40.3165 16.9677 40.4974 16.6512 40.6529C16.5112 40.7217 16.4305 40.834 16.397 40.9605C15.3574 41.6425 12.7653 43.3091 12.7962 44.6355C12.781 45.3276 13.2943 45.783 13.9181 45.9643C13.5469 46.7063 13.2652 47.573 13.6205 48.3734C13.7187 48.6152 14.4545 49.3259 14.4915 49.3391C14.5563 49.3946 15.6119 48.91 16.1249 48.6628C16.2244 49.3099 16.9164 49.6489 17.5128 49.4272C18.0784 49.2567 18.426 48.7779 18.7828 48.3424C19.2562 49.3752 20.6493 49.3871 21.5497 48.9418C22.3582 48.5683 22.9729 47.8836 23.3153 47.0587C25.1335 47.9487 27.2608 48.2082 29.2362 47.8527C29.363 48.077 29.6436 48.2277 29.8936 48.1409C30.944 47.8251 32.1054 47.8074 32.9958 47.0839C34.8518 45.7518 35.0081 43.2958 34.8787 41.2023C34.7639 39.115 34.8644 37.0102 34.4849 34.9454C34.6496 34.3375 34.9235 33.8001 35.1769 33.229C35.4523 32.6301 35.4465 31.7398 34.7702 31.4192Z" fill="white"/>
<path fill-rule="evenodd" clip-rule="evenodd" d="M17.5141 40.2793C17.6235 40.2519 17.6822 40.3989 17.5894 40.4579C16.9999 40.8329 16.3909 41.1678 15.8214 41.5757C15.2798 41.9635 14.7795 42.4053 14.313 42.8803L14.2613 42.9332C13.8396 43.3671 13.3725 43.9191 13.3678 44.5591C13.3641 45.0566 13.7477 45.5996 14.2829 45.5343C14.4845 45.5096 14.6698 45.7654 14.5994 45.9499L14.5254 46.1442C14.2277 46.9308 13.9247 47.8221 14.1599 48.6497L14.1685 48.6792C14.2254 48.8687 14.2854 49.0361 14.5054 49.0323C14.7095 49.0287 14.9219 48.9599 15.113 48.8942C15.5095 48.7578 15.8689 48.5304 16.1739 48.2444C16.4437 47.9914 16.7884 48.2484 16.7521 48.5699L16.7508 48.5802C16.7011 48.941 17.2759 49.1085 17.5372 49.0569C18.0531 48.9548 18.421 48.4379 18.714 48.0438C18.8548 47.8545 19.1969 47.7799 19.3206 48.0438C19.5658 48.5666 20.0712 48.9573 20.6625 48.9737C20.9696 48.9822 21.2642 48.8948 21.5244 48.7327C21.6305 48.6665 21.7255 48.5877 21.8126 48.4985L21.8342 48.476C21.963 48.3394 22.0519 48.2668 22.2165 48.1776C22.3787 48.0897 22.5884 48.1987 22.5874 48.3904C22.5861 48.6387 22.5133 48.8038 22.3421 48.9839C22.2004 49.1331 22.032 49.264 21.8551 49.3687C21.4994 49.5788 21.0765 49.6971 20.6625 49.6834C20.0098 49.6618 19.3868 49.3365 18.9829 48.8305C18.5706 49.3235 18.0591 49.7765 17.3945 49.7643C16.8969 49.7552 16.4332 49.4962 16.211 49.0949C15.8973 49.3111 15.5531 49.4802 15.1848 49.5906L15.152 49.6003C14.6307 49.752 14.0308 49.8123 13.6953 49.2948C13.3803 48.809 13.3568 48.1362 13.429 47.5808C13.4934 47.0847 13.6461 46.6136 13.8214 46.149C13.3224 46 12.9352 45.5313 12.8021 45.0261C12.6009 44.2622 12.9913 43.5214 13.4739 42.9538C13.9982 42.3372 14.658 41.8157 15.3228 41.3592C15.9858 40.904 16.7286 40.4762 17.5141 40.2793ZM34.5618 34.3042C34.563 34.283 34.5978 34.2756 34.601 34.2989C34.83 35.9606 34.9626 37.6189 35.0724 39.2921C35.128 40.1397 35.1912 40.9865 35.2604 41.833C35.3268 42.6448 35.4372 43.4783 35.4123 44.2934C35.3732 45.5698 34.7534 46.6076 33.7371 47.3545C32.7632 48.0702 31.5551 48.4241 30.3699 48.5736C29.6815 48.6604 28.9836 48.6646 28.2944 48.583C27.9365 48.5406 27.5791 48.4842 27.2285 48.3996L27.077 48.3616C26.8009 48.2911 26.4927 48.1954 26.4533 47.8684C26.4342 47.7101 26.5183 47.5933 26.6542 47.5138C26.8313 47.4101 27.0344 47.4711 27.2169 47.5184C27.5245 47.598 27.8354 47.6663 28.1497 47.7135C28.8249 47.8151 29.519 47.8211 30.1977 47.7508C31.3392 47.6324 32.5434 47.2622 33.4236 46.4975C33.8061 46.1652 34.1387 45.7604 34.3137 45.2793C34.5386 44.6609 34.5053 43.9863 34.4977 43.3387C34.4803 41.833 34.4957 40.3273 34.4747 38.8215C34.4537 37.311 34.472 35.8124 34.5618 34.3042ZM23.082 27.2674C24.4159 26.9234 25.7696 26.834 27.1398 26.9375C28.432 27.0351 29.904 27.3242 30.9593 28.119C31.0105 28.1576 30.9799 28.2306 30.9165 28.2205C30.2109 28.108 29.5232 27.9034 28.8207 27.7681C28.1449 27.6379 27.4571 27.5402 26.769 27.5176C24.442 27.4409 21.8527 27.9682 19.9763 29.4189C19.0965 30.0991 18.425 31.0138 18.1578 32.1021C17.8838 33.2183 18.032 34.4254 18.5824 35.4351C18.6616 35.5805 18.6289 35.8105 18.4636 35.8879C17.9619 36.1228 17.6046 36.6431 17.6124 37.2046C17.6161 37.477 17.71 37.7381 17.8609 37.9632C18.0204 38.2013 18.2633 38.3678 18.4418 38.5902C18.512 38.6777 18.5147 38.7983 18.4591 38.8789C18.5634 38.9246 18.676 38.9491 18.7787 39.0032C18.8657 39.049 18.8682 39.192 18.7787 39.2371C18.5522 39.3511 18.3074 39.2301 18.1546 39.0462C18.1273 39.0134 18.1037 38.9792 18.0822 38.9444C17.8992 38.9056 17.7352 38.8137 17.592 38.6881C17.3191 38.8515 17.2817 39.2152 17.5161 39.4931C17.6358 39.635 17.8059 39.7226 17.9778 39.7855L17.9984 39.793C18.1657 39.8524 18.3189 39.8855 18.4276 40.0194C18.4992 39.87 18.5815 39.7291 18.6732 39.6008C19.0067 39.1343 19.5192 38.7205 20.1274 38.773C20.6039 38.8141 21.0166 39.1552 21.1143 39.6258C21.1215 39.6606 21.069 39.6878 21.0533 39.6514C20.8248 39.1185 20.1015 39.0989 19.6707 39.3766C19.1641 39.7033 18.8872 40.3189 18.7761 40.8922C18.6668 41.457 18.73 42.1439 19.1527 42.5735C19.3256 42.7493 19.5609 42.8708 19.8065 42.9029C19.9265 42.9186 20.0324 42.9031 20.1472 42.88L20.2233 42.8641C20.2761 42.8532 20.3286 42.8444 20.3839 42.8493L20.4664 42.8604V42.8604L20.5133 42.8823C20.5539 42.9005 20.5502 42.8955 20.5023 42.8672C20.6424 42.8558 20.7148 42.9593 20.7225 43.0729C20.7269 43.0757 20.7312 43.0788 20.7348 43.0832C21.2666 43.734 21.6615 44.482 22.2258 45.1115L22.391 45.2959C22.8157 45.7684 23.3006 46.2805 23.8775 46.5256L23.9462 46.554C24.114 46.6249 24.2826 46.722 24.304 46.9243C24.3232 47.1055 24.1803 47.2419 24.0156 47.2842C23.6405 47.3804 23.2129 47.0471 22.9382 46.8284C22.3475 46.3582 21.851 45.7589 21.441 45.1282L21.4005 45.0654C21.0635 44.5391 20.7467 43.9388 20.6483 43.314L20.6305 43.3428C20.6292 43.3449 20.6281 43.3464 20.6275 43.3473C20.6074 43.3746 20.5852 43.3977 20.5596 43.4197C20.4906 43.4793 20.4065 43.514 20.3191 43.5376C20.155 43.5819 19.9751 43.5906 19.8065 43.5734C19.464 43.5384 19.1438 43.408 18.873 43.1957C18.0485 42.5491 17.9512 41.346 18.2846 40.3699C18.011 40.4352 17.6994 40.2511 17.4857 40.0933C17.2407 39.9122 17.0387 39.6509 16.9904 39.3434C16.9424 39.0383 17.137 38.6344 17.4255 38.5166C17.1261 38.1572 16.9518 37.6472 16.9338 37.2388C16.9026 36.5284 17.28 35.8569 17.8594 35.4694C17.3145 34.3016 17.2095 32.9468 17.5764 31.7069C18.3045 29.2464 20.7434 27.8705 23.082 27.2674ZM21.0061 45.9614L21.0129 45.9398C21.071 45.7495 21.1459 45.371 21.4302 45.5151C21.7018 45.6528 21.5284 46.0601 21.4334 46.2584C21.3198 46.4957 21.1235 46.6859 20.8599 46.7369C20.6455 46.7784 20.4101 46.7251 20.2601 46.5595C20.2164 46.5112 20.1917 46.4582 20.1658 46.3998C20.1557 46.377 20.1511 46.3614 20.1492 46.3513C20.1468 46.3624 20.1398 46.379 20.1219 46.3985C20.0022 46.5293 19.8892 46.6815 19.8023 46.8362C19.7818 46.8727 19.717 46.8471 19.7334 46.8071C19.8345 46.5597 19.8175 46.1772 20.0429 45.9982C20.2417 45.8405 20.4284 45.9647 20.5335 46.1483L20.5388 46.1579C20.6925 46.4368 20.9373 46.1719 21.0061 45.9614ZM18.8446 45.0676L18.8653 45.0388C19.0778 44.7484 19.4361 44.3991 19.7947 44.6692C19.9087 44.7551 19.9129 44.8984 19.7947 44.9836L19.7499 45.0156C19.5933 45.1266 19.4373 45.2315 19.3223 45.3907C19.1973 45.5639 19.085 45.7472 18.9169 45.883C18.6197 46.1232 18.1393 46.1706 17.8813 45.8468L17.8559 45.8147C17.8344 45.7869 17.8096 45.7534 17.7895 45.72L17.7738 45.7417C17.7723 45.7439 17.7709 45.746 17.7696 45.7479L17.766 45.7534C17.6599 45.9228 17.526 46.0623 17.3592 46.1724C17.0422 46.3816 16.685 46.4107 16.3263 46.3C16.2912 46.2891 16.3007 46.242 16.3346 46.2389C16.7596 46.1992 17.1737 45.8973 17.3465 45.5085L17.3661 45.4649C17.436 45.3102 17.5144 45.1633 17.6872 45.1025C17.8554 45.0434 18.032 45.1059 18.1474 45.2331C18.2438 45.3394 18.2686 45.5509 18.4426 45.5042C18.6332 45.4532 18.7404 45.2146 18.8446 45.0676ZM17.6274 42.4848C17.7215 42.4132 17.8689 42.49 17.8948 42.5936C18.0123 43.0629 17.5245 43.6158 17.0558 43.6304C16.9352 43.6341 16.8191 43.6049 16.7122 43.5491C16.6293 43.5058 16.5312 43.3951 16.4402 43.3768C16.3227 43.3531 16.2186 43.5096 16.1358 43.59C16.0331 43.6897 15.9316 43.7823 15.8166 43.8673C15.7706 43.9012 15.6993 43.8442 15.7187 43.792L15.7576 43.6883C15.8985 43.3192 16.141 42.7804 16.595 42.9336C16.8174 43.0086 16.9848 43.2616 17.219 43.0613C17.4066 42.9008 17.424 42.6392 17.6274 42.4848ZM19.6302 40.5956C20.0533 40.1098 21.0481 40.3664 21.2367 40.9574C21.2784 41.0879 21.2349 41.2575 21.133 41.3499C20.9987 41.4716 20.8071 41.5085 20.6441 41.413C20.5038 41.3309 20.4462 41.1966 20.343 41.0813C20.1918 40.9124 19.986 40.8187 19.774 40.7515C19.721 40.7794 19.6717 40.816 19.6275 40.8601C19.6048 40.8827 19.5621 40.8517 19.5821 40.8251C19.6094 40.7889 19.6428 40.7549 19.6807 40.7235L19.6625 40.7181V40.7181C19.6067 40.7026 19.5946 40.6365 19.6302 40.5956ZM22.3805 35.2324C22.4753 35.2326 22.5858 35.3216 22.5736 35.4256L22.57 35.4545C22.5427 35.6524 22.4791 35.7645 22.2809 35.8565C22.1128 35.9344 21.9362 35.9775 21.7519 35.9945C21.6822 36.001 21.6084 36.0014 21.5336 35.9958L21.5178 36.0867C21.4865 36.2684 21.4576 36.4503 21.4522 36.6355C21.442 36.9789 21.5702 37.2619 21.7076 37.5685C21.9714 38.1574 22.0011 38.7453 21.7138 39.3334C21.6718 39.4194 21.5529 39.4895 21.4569 39.4808C21.3324 39.4695 21.2723 39.4335 21.2 39.3334C21.1392 39.2494 21.1531 39.1306 21.1952 39.0427L21.2 39.033C21.3447 38.7526 21.3903 38.4359 21.3164 38.1277C21.2469 37.838 21.0896 37.5776 21.0194 37.2888C20.9049 36.8184 21.0268 36.3518 21.265 35.9483C21.0852 35.8965 20.9189 35.8042 20.808 35.6635L20.8085 35.6633V35.6633C20.7661 35.618 20.7892 35.5235 20.8636 35.5292L20.9476 35.536C21.1881 35.5561 21.4094 35.577 21.6525 35.51C21.7772 35.4756 21.8848 35.4182 21.9918 35.3488L22.0147 35.3338C22.1486 35.2448 22.2228 35.2322 22.3805 35.2324ZM22.9559 31.7557C23.5587 31.7214 24.0733 32.1192 24.3234 32.6487C24.5952 33.2236 24.4812 33.8832 24.2413 34.4488L24.1732 34.6071C24.0539 34.8814 23.8973 35.2076 23.653 35.3547C23.3787 35.5201 23.1415 35.3284 23.2224 35.0236C23.2706 34.8421 23.4011 34.7022 23.5067 34.5524C23.6052 34.4125 23.6972 34.2677 23.7778 34.1167C23.9357 33.8205 24.0537 33.4905 24.0524 33.1512C24.0501 32.5319 23.6409 31.8221 22.9559 31.8312C22.907 31.8318 22.9078 31.7584 22.9559 31.7557ZM26.0044 30.7563C25.9669 30.7278 26.0004 30.6644 26.0425 30.6912C26.7414 31.1357 27.2633 31.9707 27.3684 32.7911C27.4267 33.2462 27.3822 33.7326 27.1883 34.1527C27.0772 34.3937 26.8863 34.6238 26.6195 34.6899C26.3743 34.7505 26.1214 34.6105 26.0453 34.371C26.0158 34.2781 26.0666 34.181 26.1433 34.1303C26.392 33.9658 26.5922 33.7583 26.7094 33.4792C26.8312 33.189 26.8799 32.8811 26.8813 32.568C26.8849 31.8349 26.5924 31.2031 26.0044 30.7563ZM34.5427 31.0741C34.5104 31.0382 34.5511 30.9853 34.5939 31.0078C35.0992 31.2735 35.4203 31.7826 35.5123 32.3401C35.6025 32.8859 35.4812 33.629 35.0587 34.0238C34.8203 34.2466 34.3931 33.9502 34.5914 33.6632C34.7311 33.4608 34.8822 33.2941 34.9622 33.0549C35.0335 32.8415 35.0588 32.6263 35.0549 32.402C35.0464 31.9128 34.8716 31.4388 34.5427 31.0741ZM28.3646 30.3906C29.228 30.3495 29.7512 31.335 29.8711 32.0696C29.945 32.5235 29.8894 32.991 29.6388 33.3846L29.624 33.4075C29.4172 33.722 29.0413 34.0841 28.6363 33.9352C28.4648 33.8722 28.4192 33.6886 28.5344 33.5492C28.7106 33.336 28.983 33.249 29.1487 33.0213C29.3346 32.7659 29.3955 32.446 29.3847 32.1354L29.3833 32.1011C29.3545 31.5298 29.082 30.4334 28.3646 30.4528C28.3244 30.4538 28.3249 30.3924 28.3646 30.3906ZM31.0651 30.2268C31.9002 30.1201 32.4088 31.1025 32.5656 31.7792C32.6636 32.2023 32.685 32.6743 32.5597 33.0942L32.5503 33.1241C32.4483 33.4375 32.1474 33.9744 31.7546 33.8143C31.647 33.7704 31.5371 33.6509 31.5887 33.5221C31.6545 33.3573 31.7494 33.3146 31.876 33.2092C31.9735 33.1281 32.0416 33.0116 32.0917 32.8968C32.2252 32.5911 32.2549 32.2338 32.2367 31.9043L32.2342 31.8653C32.187 31.2217 31.838 30.2625 31.0651 30.2801C31.0299 30.2809 31.0323 30.231 31.0651 30.2268ZM32.594 29.3032C33.0587 29.1263 33.4395 29.5707 33.7067 29.8878C34.0414 30.2852 34.345 30.7133 34.5166 31.208C34.6695 31.6488 34.6964 32.1389 34.5587 32.5876C34.4905 32.8098 34.3843 33.0158 34.2393 33.1972L34.2208 33.22C34.07 33.404 33.9243 33.517 33.6772 33.4512C33.5766 33.4243 33.5341 33.3249 33.5515 33.2299C33.5887 33.0268 33.6934 32.9741 33.8289 32.8324C33.9484 32.7073 34.0371 32.5534 34.0968 32.3915C34.2197 32.0576 34.2261 31.6958 34.1436 31.3518C34.0512 30.9667 33.8694 30.611 33.659 30.2778L33.6136 30.2064C33.3908 29.8541 33.073 29.3115 32.6028 29.3687C32.5626 29.3736 32.562 29.3154 32.594 29.3032Z" fill="black"/>
<path fill-rule="evenodd" clip-rule="evenodd" d="M29.2136 45.2735C28.8952 45.1436 28.6111 44.9269 28.4033 44.6501C28.3311 44.5539 28.3124 44.4522 28.3275 44.3593C28.3446 44.2548 28.4064 44.1601 28.4907 44.0965C28.5753 44.0328 28.6811 44.0014 28.7834 44.0174C28.8723 44.0313 28.9608 44.08 29.0308 44.1809L29.0454 44.2011C29.1689 44.3682 29.3298 44.5053 29.5132 44.5936C29.69 44.6788 29.8876 44.7185 30.0922 44.6954C30.4817 44.6514 30.7503 44.4407 31.0357 44.1546C31.071 44.1185 31.1064 44.0812 31.142 44.0434C31.1645 44.0091 31.1957 43.987 31.2303 43.9754C31.2687 43.9626 31.3122 43.9633 31.352 43.9772C31.3904 43.9906 31.4247 44.016 31.4477 44.0498C31.4696 44.0819 31.482 44.1216 31.478 44.1673C31.4519 44.4638 31.2969 44.7284 31.0767 44.9362C30.8321 45.167 30.5079 45.3266 30.2027 45.3826C29.8665 45.4443 29.5239 45.4001 29.2136 45.2735V45.2735ZM30.3614 40.6993C30.7191 40.9168 31.2641 41.4238 30.8793 41.9628C30.4263 42.4382 29.7741 41.8932 29.4528 41.6467C29.1548 41.4557 28.8199 41.947 29.0964 42.17C31.4188 43.8894 32.3612 40.7562 30.5423 40.4437C30.342 40.4092 30.2676 40.6321 30.3614 40.6993ZM26.1997 38.6992C26.2392 38.2087 26.9864 38.0972 27.0607 38.5827C27.1273 39.0176 27.0489 39.4171 26.853 39.8086C26.6659 40.1826 26.1954 40.0081 26.1599 39.6675C26.1122 39.211 26.1751 39.0044 26.1997 38.6992ZM31.8873 38.4821C31.9915 38.3456 32.1419 38.2525 32.3221 38.3051C32.8851 38.4696 32.7192 39.2689 32.5215 39.658C32.414 39.8693 32.0667 39.9229 31.9098 39.7368C31.654 39.4335 31.5315 38.8276 31.8567 38.5288C31.8655 38.5134 31.8753 38.4978 31.8873 38.4821ZM26.8451 36.5525L26.934 36.537C27.2092 36.4894 27.5513 36.4437 27.7459 36.6649C27.8491 36.7822 27.8846 37.0002 27.7459 37.1124C27.5018 37.31 27.232 37.2334 26.9395 37.2501C26.6985 37.264 26.4668 37.3039 26.2347 37.3702C25.7253 37.5158 25.3103 37.7816 24.8753 38.0734C24.8182 38.1117 24.7599 38.0387 24.7872 37.9853C25.0383 37.4934 25.525 37.0894 26.0124 36.8431C26.2726 36.7116 26.5573 36.6026 26.8451 36.5525ZM31.3741 36.3322L31.4422 36.3461C32.1829 36.501 33.1454 36.8103 33.4961 37.5379C33.5095 37.6408 33.4954 37.6628 33.4839 37.6772L33.4801 37.682C33.4706 37.6943 33.4631 37.7113 33.4185 37.7253C33.4061 37.7224 33.3936 37.7192 33.381 37.7159C33.2202 37.6738 33.093 37.6157 32.9698 37.5555L32.8363 37.4897C32.6813 37.4137 32.525 37.3405 32.3594 37.2865C32.0059 37.1712 31.6423 37.09 31.273 37.0466C31.193 37.0372 31.116 37.0102 31.0552 36.9639C30.9975 36.92 30.9534 36.8591 30.9333 36.7783C30.9072 36.6736 30.9147 36.5944 30.9709 36.5C31.0131 36.4291 31.0735 36.38 31.1428 36.3517C31.2136 36.323 31.2941 36.3162 31.3741 36.3322Z" fill="black"/>
</svg>
