<svg width="96" height="88" viewBox="0 0 96 88" fill="none" xmlns="http://www.w3.org/2000/svg">
<g clip-path="url(#clip0_242_6962)">
<path fill-rule="evenodd" clip-rule="evenodd" d="M53.145 82.2923C53.2682 81.1444 53.3441 79.9884 53.3876 78.8347C53.431 77.6825 53.3742 76.5163 53.3489 75.3636C53.2983 73.0183 53.2157 70.6683 53.4014 68.3269C53.5771 66.114 53.9806 63.9167 54.617 61.7906C54.9269 60.7552 55.2535 59.6781 55.7634 58.7214C56.2758 57.7595 57.0879 57.1189 57.9798 56.5314C58.9295 55.906 59.8711 55.2687 60.817 54.6375C61.611 54.1076 63.0401 53.4909 63.6913 52.7825C64.377 52.0372 64.5059 50.1896 64.9623 49.3066C65.4069 48.4466 66.6655 47.8856 67.6342 47.8856C69.2381 47.8856 70.4532 47.8033 71.7725 49.2932C72.4304 50.0367 71.9066 50.7882 72.5966 51.5017C73.2306 52.1577 74.8521 52.8319 75.6696 53.2125C76.6484 53.6684 77.652 54.071 78.67 54.4295C79.7085 54.7953 80.7732 55.0679 81.8174 55.413C82.8187 55.7439 84.126 57.1078 84.9028 57.8294C85.6257 58.5003 85.8048 58.4252 86.3539 59.2402C87.5595 61.0289 88.7665 62.8381 89.7262 64.7748C90.2046 65.7395 90.6673 66.7542 90.8411 67.8256C91.0259 68.968 90.8425 70.0723 90.5427 71.1789C90.2371 72.3047 89.2669 73.3768 88.9508 74.4998C88.8052 75.0171 89.3051 75.5819 89.0754 76.07C88.9603 76.3133 88.8157 76.5302 88.6509 76.7423C88.5244 76.906 88.0293 76.87 87.9653 77.0701C87.9008 77.2721 88.2589 77.6916 88.2642 77.9008C88.2718 78.2003 88.2833 78.4997 88.2933 78.7992L88.3511 80.569C88.3893 81.7323 88.427 82.8956 88.4652 84.0584C88.4776 84.4384 88.4958 84.8094 88.405 85.1693C88.4375 85.1391 88.4686 85.106 88.4972 85.0685C88.5803 84.9596 88.7565 85.0522 88.6863 85.1794C88.5683 85.3925 88.3988 85.5422 88.1997 85.6497C87.9686 85.9923 52.945 86.7568 52.7726 85.7558C52.6757 85.1943 52.8518 84.593 52.922 84.0348C52.9956 83.4537 53.0825 82.8749 53.145 82.2923Z" fill="white"/>
<path fill-rule="evenodd" clip-rule="evenodd" d="M88.7224 67.8279C88.6365 67.5815 88.2445 67.6881 88.3309 67.9362C88.7745 69.2122 88.4598 70.6005 87.9804 71.8185C87.884 72.0632 88.2769 72.1678 88.3715 71.9269C88.8762 70.6456 89.188 69.168 88.7224 67.8279ZM85.7483 75.1158C84.4973 75.2929 83.2454 75.4019 81.9858 75.4902C81.9295 75.494 81.8808 75.4854 81.8388 75.4671C81.876 76.0464 81.9066 76.6261 81.9304 77.2058C82.2737 77.1962 82.6242 77.2188 82.9646 77.2096C83.4096 77.1976 83.8542 77.1751 84.2977 77.141C85.1572 77.0757 86.0152 76.9721 86.8646 76.8281C87.1821 76.7749 87.5856 76.7422 87.947 76.6362C88.2894 76.5359 88.5935 76.3698 88.7535 76.0569C88.8891 75.792 88.9139 75.4676 88.9139 75.1749C88.9139 74.9728 88.8795 74.7679 88.859 74.5649C88.8327 74.5467 88.8098 74.5246 88.7907 74.5001C88.4135 74.6196 88.022 74.7041 87.6381 74.7852C87.014 74.9191 86.3804 75.0271 85.7483 75.1158ZM86.4535 70.4057C86.4468 70.7949 86.3394 71.1485 86.1307 71.4763C85.9894 71.6985 86.3408 71.9025 86.4812 71.6822C86.7271 71.2963 86.8512 70.863 86.8593 70.4057C86.8641 70.1427 86.4583 70.1436 86.4535 70.4057ZM54.3872 74.6532C54.2177 74.6628 54.0473 74.6686 53.8773 74.6777C53.7274 74.8063 53.5202 74.8725 53.3306 74.8317C53.3239 74.8481 53.3182 74.8663 53.3129 74.8879C53.279 75.0189 53.2623 75.1595 53.2432 75.2929C53.2241 75.4244 53.2093 75.5569 53.1993 75.6893C53.194 75.756 53.162 75.9067 53.2026 75.9648C53.2394 76.0171 53.3196 76.0128 53.3755 76.019C53.5259 76.0353 53.6782 76.043 53.8291 76.056C54.1146 76.0809 54.4001 76.1059 54.6856 76.1308C54.965 76.1553 55.272 76.1476 55.5451 76.2215C55.5919 75.6706 55.6344 75.1202 55.674 74.5688C55.2505 74.6316 54.8079 74.6302 54.3872 74.6532ZM89.9027 73.74C89.7323 74.0706 89.5752 74.3955 89.2491 74.5942C89.2061 74.6196 89.1588 74.6335 89.1101 74.6369C89.1464 74.7943 89.1693 74.9556 89.1894 75.1043C89.2343 75.4321 89.2438 75.7704 89.1622 76.0934C89.0824 76.4077 88.9506 76.6885 88.6919 76.89C88.5715 76.9836 88.4402 77.0551 88.3023 77.1113C88.3256 77.177 88.3395 77.2423 88.3323 77.3143C88.3653 77.4808 88.3872 77.6507 88.4111 77.8129C88.4632 78.1737 88.5152 78.5346 88.5563 78.8974C88.6389 79.6187 88.7028 80.3405 88.7573 81.0642C88.8117 81.7859 88.8509 82.5091 88.8833 83.2323C88.9 83.6023 88.9148 83.9719 88.9282 84.3423C88.9421 84.7229 89.0032 85.1121 88.8361 85.4653C88.7009 85.7508 88.245 85.734 88.1051 85.4653C87.9274 85.1236 87.9795 84.7176 87.9752 84.3423C87.9704 83.9896 87.9647 83.6359 87.957 83.2827C87.9418 82.56 87.9193 81.8378 87.9017 81.1146C87.8845 80.4091 87.863 79.7041 87.8487 78.9982C87.8415 78.6292 87.841 78.2597 87.8391 77.8906C87.8381 77.6857 87.8296 77.4673 87.8448 77.2538C87.7178 77.2835 87.5899 77.309 87.4638 77.3349C86.4993 77.5336 85.5248 77.6785 84.5446 77.7682C84.0518 77.8129 83.5576 77.8445 83.0635 77.8623C82.7006 77.8757 82.3239 77.9012 81.9553 77.8872C81.9844 78.7717 81.9973 79.6566 81.9959 80.5416C81.9949 81.1798 81.9863 81.8181 81.9705 82.4563C81.962 82.7923 81.9548 83.1277 81.9448 83.4636C81.94 83.6143 81.94 83.7669 81.93 83.9171C81.9266 83.9642 81.9204 84.0093 81.9118 84.0544C81.9452 84.1494 81.9729 84.2435 81.9959 84.3318C82.1076 84.7598 82.1076 85.1706 82.0579 85.6069C82.015 85.9769 81.7051 86.3195 81.2959 86.1899C81.2295 86.1688 81.1627 86.1467 81.0968 86.1247C80.4942 86.1933 79.8883 86.2091 79.2767 86.2207C78.3833 86.2379 77.4895 86.2437 76.5957 86.2485C74.8429 86.2576 73.0892 86.2619 71.3354 86.2672C67.8112 86.2773 64.2871 86.2869 60.7633 86.297C59.785 86.3003 58.8072 86.3027 57.8288 86.3061C57.3227 86.3075 56.8175 86.308 56.3119 86.3272C56.076 86.3363 55.8397 86.3493 55.6038 86.3526C55.3302 86.3574 55.0882 86.2782 54.827 86.2067C54.6794 86.1655 54.6212 86.0167 54.6522 85.8905C54.4159 85.9471 54.1294 85.8271 54.0487 85.5594C53.99 85.3655 54.0119 85.1548 54.0993 84.9753V84.9748C54.2688 83.9004 54.4842 82.8311 54.6532 81.7562C54.838 80.5785 55.0161 79.3989 55.1731 78.2169C55.2906 77.3243 55.3875 77.9573 55.4711 77.0604C55.1063 77.0892 54.6942 76.9774 54.3328 76.9303C54.0735 76.8967 53.8124 76.8694 53.5526 76.8339C53.5717 77.0969 53.5665 77.3646 53.5736 77.6171C53.587 78.1176 53.5813 78.6162 53.5684 79.1172C53.544 80.0837 53.4896 79.5213 53.4032 80.4835C53.3153 81.4529 53.2079 82.4189 53.0775 83.3835C53.0102 83.8807 52.9391 84.3764 52.8632 84.8721C52.8283 85.1035 52.7925 85.3343 52.7552 85.5656C52.7113 85.8382 52.697 86.0964 52.4936 86.3013C52.3389 86.4568 52.0228 86.4433 51.9202 86.2269C51.7903 85.9534 51.849 85.7192 51.8972 85.4317C51.9364 85.2009 51.9741 84.97 52.0109 84.7392C52.0901 84.2444 52.1651 83.7497 52.2358 83.2539C52.3718 82.2985 52.5003 81.342 52.6149 80.3842C52.7304 79.4186 52.8503 79.9825 52.9639 79.0174C53.0212 78.5303 53.0785 78.0442 53.1453 77.559C53.1792 77.309 53.2007 77.0431 53.2451 76.7859C53.2313 76.784 53.217 76.7816 53.2026 76.7787C52.8942 76.7221 52.6311 76.5474 52.5533 76.2287C52.4793 75.9235 52.5676 75.5722 52.6301 75.2728C52.6831 75.0179 52.7314 74.6921 52.8947 74.4737C52.3188 73.7366 51.9436 72.809 51.7048 71.9169C51.4441 70.9455 51.3353 69.9315 51.3123 68.9271C51.2856 67.7642 51.3725 66.6078 51.5711 65.4705C51.5759 65.2294 51.5869 64.9885 51.6045 64.7479C51.7793 62.3862 52.5117 59.5909 54.8341 58.4874C54.8432 58.4829 54.8528 58.4787 54.8623 58.4747C55.0447 58.2561 55.272 58.0595 55.4553 57.8756C55.7805 57.5495 56.1204 57.2377 56.4809 56.9504C57.1938 56.3814 57.9764 55.927 58.7895 55.5179C59.6117 55.1037 60.4463 54.7151 61.2494 54.2631C61.9498 53.8688 62.5796 53.394 63.1779 52.8581C63.8502 52.2554 64.3281 51.4429 64.5162 50.5559C64.5258 50.5096 64.5941 50.5223 64.595 50.5666C64.6442 52.1922 63.5517 53.6289 62.2941 54.5377C60.7906 55.6234 58.9752 56.1374 57.4502 57.1899C57.0711 57.4512 56.7168 57.7462 56.3792 58.0595C56.8963 58.0065 57.422 58.0401 57.9066 58.1837C58.0972 58.172 58.2891 58.1685 58.4806 58.1593C58.9174 58.1374 59.3553 58.1171 59.7931 58.0977C60.6855 58.058 61.5784 58.0218 62.4712 57.9903C64.2226 57.928 65.9749 57.8812 67.7272 57.8501C71.2481 57.7874 74.7737 57.7752 78.294 57.8777C79.249 57.9052 84.2691 57.7141 84.7337 57.7681C84.0504 57.174 83.3008 56.6891 82.4762 56.2902C81.4449 55.7925 80.3791 55.4603 79.2776 55.1567C77.0097 54.5316 74.6543 53.9289 72.8395 52.341C72.3882 51.9462 71.9877 51.4924 71.6596 50.9895C71.3459 50.5096 70.9974 49.8952 70.9888 49.3098C70.9826 48.8942 71.5589 48.7428 71.7642 49.0989C71.8912 49.3195 71.9542 49.5615 72.0583 49.7928C72.1619 50.0221 72.2846 50.2431 72.4207 50.4546C72.689 50.8703 73.0218 51.2411 73.3842 51.5758C74.1563 52.2901 75.0917 52.8133 76.0595 53.2091C78.2573 54.1072 80.6609 54.4862 82.7431 55.6702C83.6541 56.1883 84.526 56.9031 85.0736 57.8149C85.1619 57.8287 85.2493 57.845 85.3372 57.8633C85.2718 57.7803 85.2059 57.6973 85.1395 57.6147C85.0956 57.5607 85.1634 57.4894 85.2164 57.5373C86.252 58.4624 87.2055 59.4614 88.0702 60.5506C88.8967 61.5929 89.6678 62.6852 90.2136 63.9058C91.1947 66.0985 91.411 68.6065 90.904 70.9508C90.766 71.5896 90.5712 72.2154 90.3234 72.82C90.1954 73.1324 90.0569 73.44 89.9027 73.74Z" fill="black"/>
<path fill-rule="evenodd" clip-rule="evenodd" d="M55.2028 36.8259C55.4377 32.9503 56.6887 28.5564 60.3714 26.6536C68.4898 23.3789 79.1636 31.6255 79.7284 40.0501C79.9256 42.9339 78.3328 46.0851 75.4212 46.8868C74.7742 47.7487 73.7954 48.2751 72.829 48.7319C61.322 54.7325 53.8888 49.8547 55.2028 36.8259Z" fill="white"/>
<path fill-rule="evenodd" clip-rule="evenodd" d="M52.5811 34.4151C52.9879 33.2799 53.4176 32.1534 53.8693 31.0356C54.3095 29.9477 54.7068 28.8363 55.2535 27.8C58.5179 21.6105 64.4543 21.6105 67.523 22.4192C69.1144 21.7301 72.0947 21.9245 73.7516 22.5463C76.4344 23.553 79.7041 27.5131 80.8224 29.2923C83.2909 33.2207 84.8312 38.4493 83.1916 42.9887C82.9772 43.582 82.7041 44.1315 82.3961 44.661C82.59 44.9251 82.8129 45.1751 83.0603 45.4209C83.7946 46.1512 84.5294 46.8576 85.1635 47.6813C85.7942 48.5 86.3171 49.3705 86.7062 50.3303C87.4396 52.1405 87.4749 54.1901 86.5052 55.9173C85.661 57.4201 84.1661 58.5392 82.4816 58.6459C82.3952 58.658 82.3087 58.6691 82.2218 58.6779C81.9984 59.0474 81.7262 59.3876 81.4159 59.6841C80.4643 60.5938 78.1958 61.0605 76.9024 61.0904C76.836 61.144 76.7687 61.1976 76.7018 61.2506C75.9102 61.8767 75.0799 62.5085 74.1708 62.954C73.5553 63.2562 72.7479 63.5085 72.1057 63.2905C71.8145 63.4861 71.3365 63.445 71.0477 63.2849C70.5731 63.0219 70.1868 62.5484 69.9519 62.0637C69.3822 60.8867 69.5188 59.5988 69.6654 58.3414C69.8263 56.9527 69.9815 55.5632 70.139 54.1744C70.2622 53.0884 70.3911 51.9843 70.7196 50.9382C70.8896 50.3961 71.1121 49.8752 71.4 49.3855C71.3924 49.3444 71.3938 49.3033 71.4053 49.2646C71.4998 48.9568 71.6941 48.7955 71.9248 48.5861C71.9548 48.5593 71.9844 48.5319 72.0136 48.5039C72.1286 48.3718 72.2523 48.249 72.3841 48.145C72.4352 48.0933 72.4853 48.0409 72.5354 47.9886C72.9527 47.5493 73.3471 47.0876 73.6971 46.5929C74.0371 46.1132 74.3436 45.6122 74.6358 45.102C74.9328 44.5829 75.129 44.0103 75.4256 43.4951C75.4509 43.4508 75.5153 43.4421 75.5516 43.4788C75.6433 43.5742 75.702 43.6801 75.691 43.7916L75.7369 43.7985C75.7541 43.6303 75.9083 43.4932 76.1179 43.53C76.4316 43.5848 76.6894 43.6053 76.9611 43.5006C76.9133 43.1823 76.8694 42.8632 76.826 42.5436C76.7467 41.9555 76.6727 41.3654 76.6097 40.7754C76.4564 40.8121 76.3046 40.8651 76.1556 40.9324C75.9436 41.0277 75.7435 41.1561 75.5726 41.3137C75.4041 41.4695 75.2871 41.6794 75.0813 41.7878C74.8445 41.9118 74.559 41.7068 74.6282 41.4377C74.769 40.8937 75.5655 40.5822 76.0587 40.4794C76.2277 40.4439 76.4005 40.429 76.5734 40.4327C76.5347 40.0539 76.4999 39.675 76.4712 39.2956C76.4578 39.1162 76.4454 38.9367 76.4335 38.7566C76.0506 38.6401 75.6399 38.6052 75.2413 38.6601C75.1099 38.7654 74.9786 38.8694 74.8516 38.9747C74.4482 39.3099 74.0462 39.647 73.6494 39.9903C73.6136 40.0209 73.5782 40.0514 73.5424 40.0825C73.3066 40.2862 73.0129 40.0844 73.0525 39.7959C73.3763 37.432 71.9353 35.5516 70.2488 34.0949C68.3815 32.4817 64.9867 32.2939 62.7664 29.4998C61.7437 29.7089 59.4605 30.3303 58.5179 31.8393C57.1987 33.9541 57.3711 35.8488 57.2708 38.2476C57.1705 40.6483 56.9151 43.1524 57.4575 45.5194C57.9579 47.702 59.312 49.5668 61.4138 50.4242C61.4658 50.4454 61.5183 50.4659 61.5713 50.4859C62.6581 50.8977 63.8436 51.0142 64.9867 50.7974C66.252 50.5569 67.3086 49.9749 68.3609 49.259C68.4216 49.2185 68.5104 49.302 68.4645 49.3631C67.077 51.2111 64.3521 51.8286 62.1906 51.3407C62.0894 51.3176 61.9891 51.2927 61.8893 51.2653C62.3725 52.6628 62.2751 54.1968 61.6454 55.5576C61.2667 56.3763 60.689 57.0847 59.9852 57.6436C59.2098 58.2592 58.2477 58.7564 57.7096 59.6206C57.2168 60.4125 57.3629 61.3023 58.2066 61.7596C58.4196 61.8755 58.5012 62.25 58.2907 62.4144C58.21 62.4768 58.1293 62.5403 58.0472 62.6026C57.5745 62.9609 56.2772 63.6338 56.0671 63.6587C54.2012 63.8811 52.9464 62.5042 52.1423 60.8798C51.1984 58.9733 51.4438 56.6498 52.4837 54.8342C53.3183 53.3775 54.9618 51.942 54.3081 50.0983C54.0751 49.4397 53.5986 48.8784 53.1354 48.3712C52.6074 47.7936 52.0392 47.2528 51.5331 46.6546C51.0293 46.0608 50.5832 45.4147 50.334 44.6695C49.9701 43.5804 50.1511 42.4028 50.4245 41.3156C51.0102 38.9815 51.7708 36.6787 52.5811 34.4151Z" fill="black"/>
<path fill-rule="evenodd" clip-rule="evenodd" d="M62.1554 43.3051C61.6517 42.5961 62.365 41.9293 62.8329 41.6432C62.9556 41.5548 62.8582 41.2617 62.5961 41.307C60.2159 41.7181 61.4492 45.839 64.4883 43.5776C64.8502 43.2843 64.4119 42.6381 64.0223 42.8893C64.0023 42.9046 63.9817 42.9206 63.9602 42.9374L63.9598 42.9375C63.5219 43.2779 62.7203 43.9009 62.1554 43.3051ZM66.9463 36.1687L67.0623 36.1891C67.4391 36.2549 67.812 36.3984 68.1524 36.5713C68.7903 36.8952 69.4268 37.4266 69.7557 38.0735C69.7911 38.1437 69.7152 38.2398 69.6402 38.1894C69.0711 37.8056 68.5277 37.4561 67.8611 37.2646C67.5575 37.1773 67.2543 37.1249 66.9392 37.1067C66.8413 37.1011 66.7453 37.1034 66.6517 37.1058C66.3781 37.1126 66.1217 37.119 65.884 36.9255C65.702 36.7779 65.7488 36.4911 65.884 36.3369C66.1384 36.046 66.5863 36.1061 66.9463 36.1687ZM60.7369 35.9177L60.8257 35.8994C60.9307 35.8782 61.0358 35.8872 61.1284 35.925C61.2191 35.9621 61.2984 36.0268 61.3537 36.12C61.4273 36.2442 61.4368 36.3484 61.4029 36.486C61.3767 36.5924 61.3189 36.6724 61.2434 36.7302C61.1637 36.7911 61.063 36.8266 60.9579 36.839C60.4747 36.896 59.9992 37.0028 59.5365 37.1545C59.3197 37.2256 59.1154 37.3218 58.9124 37.4217L58.7377 37.5083C58.5768 37.5875 58.4102 37.6638 58.1996 37.7193C58.1834 37.7236 58.1666 37.7278 58.1504 37.7316C58.0993 37.7154 58.0855 37.6961 58.0745 37.6807L58.0726 37.6783C58.0716 37.6771 58.0707 37.6759 58.0702 37.6747L58.0649 37.6684C58.0501 37.6494 58.0315 37.6205 58.0492 37.4851C58.508 36.5282 59.7676 36.1213 60.7369 35.9177ZM65.7799 40.625C65.968 40.7355 66.1695 40.682 66.3299 40.5536C66.4292 40.4743 66.5042 40.3729 66.5801 40.2711C66.6684 40.1519 66.7572 40.0324 66.8847 39.9479C67.0853 39.8153 67.3536 39.8083 67.5842 39.8466C67.9299 39.9041 68.2283 40.0681 68.5282 40.2326C68.6977 40.3258 68.8672 40.4191 69.0462 40.4933C69.1155 40.5221 69.156 40.4327 69.1331 40.38C68.8333 39.7031 68.2078 39.0994 67.4634 38.9784C66.6851 38.8519 65.8429 39.3671 65.5712 40.1098C65.5029 40.2971 65.6166 40.5292 65.7799 40.625ZM58.3853 39.8361C58.3691 39.842 58.3529 39.8238 58.3576 39.8084C58.5543 39.165 59.2959 38.8942 59.918 38.9478C60.3028 38.981 60.6566 39.1225 60.9484 39.3808C61.2267 39.6272 61.4435 40.0936 61.1919 40.4345C60.9326 40.785 60.4007 40.6717 60.3706 40.211C60.3511 39.9123 59.8397 39.7279 59.5804 39.6819C59.1779 39.6105 58.7616 39.6958 58.3853 39.8361ZM65.5903 46.0072C65.4084 46.0797 63.8671 46.151 62.9571 46.1092C62.3364 46.0812 60.7268 45.7031 60.7268 45.5409C60.7268 45.3787 60.7956 45.2322 60.8543 45.2383C61.094 45.2643 63.001 45.2854 64.3441 45.3003C64.9371 45.3068 65.4203 45.3122 65.6008 45.3162C65.6896 45.3181 65.7827 45.3162 65.8768 45.3137C65.9422 45.5167 65.7727 45.9346 65.5903 46.0072ZM62.5054 44.8266C61.7887 44.8204 60.9188 44.8128 60.299 44.8496C60.0775 44.8627 59.9686 45.1804 59.9529 45.3312C59.8058 46.7325 60.9192 47.8503 62.1487 48.2833C63.2894 48.6852 64.7958 48.7612 65.8128 48.0104C66.255 47.6845 66.5897 47.2328 66.8079 46.73C66.9258 46.459 67.0117 46.1779 67.0595 45.8863C67.0643 45.8588 67.069 45.83 67.0743 45.8003C67.111 45.5908 67.1555 45.3371 67.0843 45.1455C66.9812 44.8699 66.7085 44.8669 66.4579 44.8641C66.4373 44.8639 66.4168 44.8636 66.3963 44.8633C66.2955 44.8612 66.1948 44.859 66.0936 44.8568C65.8276 44.851 65.5617 44.8452 65.2962 44.8421C64.7242 44.8356 64.1527 44.8339 63.5811 44.8322C63.3825 44.8316 63.1834 44.8311 62.9848 44.8302C62.8372 44.8295 62.6759 44.8281 62.5054 44.8266Z" fill="black"/>
<path d="M46.6448 28.6854C47.0144 27.6989 48.0002 27.6105 48.502 27.7244C48.3952 27.4231 48.2587 26.8176 48.1523 26.3633C47.9788 25.622 47.5168 25.0251 47.3908 24.7631C47.2096 24.3863 47.4459 24.2146 47.5443 24.143C47.6309 24.0801 47.9922 23.9795 48.1421 24.3578C48.3525 24.2869 48.6726 24.2259 48.9562 24.3133C49.4186 24.4559 50.1014 24.9466 49.6839 25.9082C49.3499 26.6774 49.4289 26.5123 49.2042 26.8251C49.1415 26.8907 48.8986 26.9336 48.97 26.6663C49.0594 26.3321 49.2841 26.0193 49.3033 25.7959C49.3225 25.5726 49.1636 25.06 48.8228 25.1281C48.6228 25.1682 48.448 25.2002 48.3188 25.1851C48.5013 26.0195 48.8154 27.283 49.0208 27.9455C49.2933 28.8243 48.2606 29.3057 47.8835 29.4901C47.4678 29.6933 46.3676 29.4253 46.6448 28.6854Z" fill="black"/>
<path fill-rule="evenodd" clip-rule="evenodd" d="M60.9035 66.9349C61.4401 66.6536 61.9634 66.348 62.4791 66.0298C62.842 65.8116 62.5207 65.262 62.1487 65.4606C61.9582 65.5622 61.7686 65.6647 61.5781 65.7657C61.7281 65.6361 61.867 65.495 61.9911 65.3412L61.9825 65.3326C62.4624 64.9006 61.846 64.0855 61.3002 64.4403C60.819 64.7909 60.3334 65.1486 59.7809 65.3794C58.6365 65.8669 57.3745 65.9476 56.146 65.9617C55.6967 65.9277 55.2674 66.006 54.8315 66.0932C55.0024 65.404 55.4303 64.8836 55.6571 64.2161C55.8246 63.5422 54.8563 63.0831 54.5135 63.7309C54.429 63.89 54.3488 64.0509 54.2705 64.2126C53.529 64.8904 52.2904 64.8307 51.5422 65.5584C51.1163 65.9383 50.9077 66.4538 50.8256 66.9712C50.7697 67.3225 50.8566 67.6747 50.6452 67.986C49.623 69.4387 48.0079 71.7345 47.1877 73.3335C46.6069 69.5346 45.0563 64.8358 43.4544 61.3623C42.9246 60.2514 42.3186 59.1659 41.5231 58.2243C41.6132 57.9103 41.2949 57.3528 41.0925 57.5245C40.4695 56.7598 39.3682 56.5618 38.4827 56.1817C37.2873 55.6681 36.2956 54.6005 35.8081 53.3873C35.1817 51.0768 33.6396 50.7833 31.501 50.8854C29.4543 50.8828 27.94 51.7624 27.4934 53.8558C26.5862 55.4447 24.4441 55.1819 22.903 55.6025C21.7735 55.8618 20.6774 56.2626 19.6357 56.7714C18.4769 55.667 14.3266 60.3022 13.9493 61.4951C14.1715 61.5384 14.3922 61.5904 14.6109 61.6539C14.8057 61.7104 14.7239 62.0061 14.5275 61.9587C14.2829 61.8998 14.0369 61.8591 13.7896 61.8309C13.7821 61.8547 13.7755 61.8783 13.7706 61.9016C13.7428 61.8998 13.7151 61.8974 13.6874 61.8955C13.7489 61.9277 13.8082 61.965 13.8658 62.0132C14.0053 62.1296 13.8237 62.3542 13.6755 62.2615C13.5358 62.1565 13.3529 62.1731 13.1854 62.1378C13.1754 62.4839 11.9462 62.0967 11.7553 61.982C10.9067 61.8753 10.0337 61.9898 9.24151 61.5786C8.1874 61.3556 7.12541 61.1089 6.08315 60.8248C5.80723 60.9329 5.54791 61.3197 5.76707 61.6035C5.89034 61.7326 5.73187 61.9435 5.57666 61.8517C5.05609 61.5438 4.65349 61.0632 4.31216 60.5455C4.1515 60.3826 3.86631 60.4177 3.65046 60.3501C3.62161 60.4022 3.60458 60.4602 3.60485 60.5198C2.68922 60.6712 3.34238 61.676 3.80269 61.9891C3.5585 62.1489 3.54924 62.4617 3.5706 62.7229C3.51886 62.816 3.50158 62.9314 3.54661 63.0356C3.7188 63.4343 4.09118 63.77 4.37432 64.093C4.68695 64.4497 4.9657 64.8084 5.34609 65.0976C6.79602 66.2081 8.54574 66.8289 10.3408 67.0717C10.9781 67.1701 11.8949 67.3206 12.2896 67.8621C12.1927 68.5048 12.0149 69.121 11.8536 69.7477C11.6281 70.5798 11.6435 71.4504 11.6404 72.2984C11.6089 72.2729 11.5484 72.2782 11.5394 72.3267C11.4869 72.6784 11.4479 73.0379 11.2353 73.3335C11.0488 73.8825 10.9248 74.4685 10.8551 75.0453C10.5758 77.7812 10.5092 80.5977 11.1387 83.2909C11.3817 84.29 11.7768 85.2397 12.3151 86.1141C12.4756 86.3747 12.7337 86.451 12.9654 86.4001C13.7409 86.8047 14.718 86.9347 15.5539 86.8315C18.4037 86.021 17.4107 87.9732 21.4065 87.3753C28.3035 86.4927 35.2738 88.2271 42.1561 87.2087C42.3257 88.5241 44.5447 88.1469 45.3154 87.5907C47.6266 85.8646 48.7741 80.399 49.934 77.6262C50.7313 75.4407 52.0665 71.5704 53.8145 70.1038C54.3388 69.692 54.9728 69.4751 55.6069 69.3C57.9733 68.6871 60.3487 68.1079 62.7193 67.5122C63.1213 67.4127 63.0492 66.7237 62.619 66.7679C62.0484 66.8265 61.476 66.8797 60.9035 66.9349Z" fill="white"/>
<path fill-rule="evenodd" clip-rule="evenodd" d="M8.22593 66.5248C8.06569 66.5048 7.90856 66.4474 7.75253 66.4022C7.51426 66.3322 7.2807 66.2507 7.05082 66.1575C6.57637 65.9666 6.11607 65.7409 5.68457 65.4646C4.98757 65.0179 4.37174 64.4454 3.90725 63.7561L3.87536 63.7081C3.61018 63.3023 3.12103 62.4011 3.6695 62.093C3.31601 61.7962 2.98191 61.2632 3.00076 60.8517C3.02747 60.2698 3.73756 60.2777 4.10465 60.5244C4.34501 60.686 4.52516 60.9122 4.70582 61.1348C4.90586 61.3821 5.11952 61.6178 5.34155 61.8446C5.40046 61.9046 5.45997 61.9633 5.5205 62.0212L5.58139 62.0787C5.57197 62.0561 5.56359 62.033 5.55626 62.0092C5.43372 61.6257 5.57982 61.1264 5.96158 60.9507C6.19519 60.843 6.43782 60.9087 6.6642 61.0001L6.6989 61.0143C7.00367 61.1411 7.31211 61.2532 7.62945 61.3432C8.92289 61.7099 10.2729 61.771 11.5983 61.954C12.1089 62.0251 12.6289 62.1145 13.1368 62.246C13.3306 61.4194 13.8056 60.6271 14.3209 59.9752C16.7884 56.8565 20.8578 55.8258 24.5805 55.1586C24.9199 55.0981 25.2011 55.5496 25.3985 55.4427C25.687 55.3588 26.3069 55.1269 26.7105 54.8787C27.3918 54.4599 27.7771 53.2727 27.8791 51.9008C27.9321 51.5904 28.3664 51.7675 28.3664 52.2134V52.446C28.18 53.6465 28.0736 54.8553 27.0508 55.3588C26.4619 55.6487 25.9981 55.7858 25.5383 55.9452C25.1901 56.0657 24.7015 56.1673 24.3203 56.0504L24.2745 55.9835C24.2897 56.0059 24.3049 56.0282 24.3203 56.0504C25.3153 57.499 26.5637 58.725 27.8791 59.882C29.2069 61.0492 30.6393 62.0944 32.0803 63.1164L32.2004 63.2016C34.548 61.481 36.5311 59.237 37.9225 56.673C37.6308 56.6377 37.3423 56.4499 37.0931 56.3099C36.793 56.1405 36.5107 55.9384 36.2908 55.669C35.8116 55.0823 35.8739 54.3262 35.7876 53.6143C35.7823 53.5701 35.8404 53.5591 35.8672 53.5812C36.1269 53.798 36.218 54.1531 36.3264 54.4599C36.4458 54.7971 36.5809 55.075 36.8548 55.3123C37.1098 55.5333 37.4208 55.6958 37.723 55.8405C37.8788 55.9148 38.6524 56.1056 38.7405 56.2636C40.0769 55.9484 41.3787 56.493 42.369 57.4117C43.3257 58.2993 44.0279 59.4532 44.648 60.5923C45.3094 61.8078 45.8514 63.0747 46.3185 64.377C46.7919 65.6988 47.1548 67.0494 47.3543 68.4406C47.5227 69.6135 47.626 70.8046 47.6928 71.9909L47.701 72.1392C48.6896 70.58 49.7029 69.0371 50.7372 67.5082C50.502 66.8773 50.7625 66.2333 51.2028 65.7461C51.6907 65.2068 52.3659 64.9563 53.0114 64.6648L53.0964 64.6262C53.4077 64.4836 53.7176 64.3265 53.9864 64.1129C54.2452 63.9066 54.4352 63.6225 54.7074 63.4325C55.1037 63.1558 55.8218 63.2147 55.8404 63.8193C55.85 64.1513 55.7077 64.5154 55.5778 64.8137C55.4307 65.1511 55.2321 65.4567 54.9967 65.7377C54.9857 65.7508 54.9738 65.7611 54.9619 65.7693L54.9528 65.775C55.2784 65.8292 55.6069 65.8729 55.9412 65.8882C56.6163 65.9192 57.2986 65.8692 57.9594 65.7261C58.636 65.5798 59.292 65.3421 59.9003 65.0105C60.4203 64.7275 60.902 64.3612 61.4927 64.275C61.5471 64.2665 61.602 64.2613 61.6588 64.2581C61.7529 64.2528 61.8474 64.3644 61.8102 64.458C61.7897 64.5096 61.7682 64.5606 61.7448 64.6122C61.5404 65.0641 61.2272 65.5026 60.8366 65.8354L60.8061 65.8608C60.9441 65.8129 61.0797 65.7592 61.2134 65.6988C61.9983 65.3436 62.7102 64.8069 63.552 64.5912C63.5916 64.5806 63.6317 64.5711 63.6723 64.5622C63.9325 64.5059 64.0696 64.79 63.9168 64.9847C63.8924 65.0163 63.8676 65.0473 63.8418 65.0784C63.4665 65.5466 63.0521 65.9813 62.5956 66.3717C62.439 66.5053 62.2776 66.6348 62.1134 66.7585C62.0441 66.8109 61.9744 66.8622 61.9038 66.9126L61.8694 66.9373C61.9515 66.879 62.0327 66.8195 62.1134 66.7585C62.6286 66.6016 63.1366 66.4159 63.6336 66.2102C63.8308 66.1286 63.9846 66.3296 64.0051 66.4948C64.0753 67.0484 63.4637 67.4488 63.0659 67.715C62.6668 67.9823 62.2275 68.1853 61.7777 68.3485C60.9125 68.6623 60.0044 68.8053 59.0972 68.933L58.657 68.9944C56.9133 69.2396 55.0922 69.5324 53.8408 70.8958C53.1399 71.6598 52.6652 72.609 52.2312 73.5429C51.7977 74.4758 51.4167 75.4332 51.0557 76.3963C50.6811 77.3926 50.3549 78.4076 50.0082 79.4144C49.6899 80.3382 49.3096 81.251 48.9329 82.1541L48.8734 82.2967C48.0738 84.2162 47.1186 86.024 45.7875 87.6264C45.5681 87.8913 45.2135 87.5155 45.4162 87.2535C46.8086 85.4501 47.7774 83.3217 48.577 81.1987C48.941 80.2326 49.2458 79.2431 49.5956 78.2718L49.8037 77.6949C50.0817 76.9257 50.362 76.1573 50.6544 75.3943C51.0247 74.4288 51.4315 73.4747 51.897 72.5519L51.9467 72.4549C52.4022 71.5643 52.9436 70.687 53.6889 70.0132C55.0306 68.8 56.8159 68.5087 58.5414 68.2784L59.0843 68.2064C59.8144 68.109 60.5459 68.0015 61.2554 67.8055C61.665 67.6929 62.0652 67.5487 62.4409 67.3498C62.5908 67.2709 62.737 67.1841 62.8783 67.0894C62.4753 67.2083 62.0661 67.3056 61.6498 67.3819C61.4464 67.4193 61.2444 67.4472 61.0434 67.4667C60.5258 67.5181 60.012 67.5161 59.4816 67.4882C59.4362 67.4856 59.4219 67.4146 59.4696 67.4056C59.8392 67.3396 60.2092 67.2571 60.5774 67.1675L60.6881 67.1404C60.69 67.0789 60.7139 67.0136 60.7645 66.9516C60.9479 66.7274 61.296 66.6127 61.5371 66.4543C61.7901 66.2886 62.0351 66.1097 62.269 65.9181C62.4825 65.743 62.6878 65.5577 62.8854 65.3641L62.9442 65.3057C62.9246 65.3253 62.905 65.3447 62.8854 65.3641C62.3521 65.6115 61.847 65.9287 61.2902 66.1245C60.8476 66.2807 60.3835 66.3859 59.9156 66.4233L59.8865 66.4256L59.8573 66.4275C59.3689 66.4628 58.8771 66.4486 58.3958 66.5548C58.3419 66.5669 58.3251 66.4943 58.3734 66.4738C58.794 66.2981 59.2309 66.2302 59.673 66.1481C59.6826 66.1133 59.7065 66.0823 59.7485 66.0623L59.8616 66.0081C60.1983 65.8456 60.512 65.6815 60.7922 65.4178C61.0391 65.1846 61.2449 64.9122 61.3996 64.6101C60.7812 64.7464 60.2379 65.2173 59.6754 65.4819C59.0628 65.7708 58.4144 65.9781 57.7484 66.096L57.6725 66.1091C56.4277 66.3177 54.9308 66.2911 53.8159 65.6408C53.7801 65.6198 53.8059 65.572 53.8427 65.5777C54.1588 65.6298 54.472 65.6914 54.7852 65.7461C54.7236 65.6898 54.6964 65.5888 54.7675 65.5077C55.0488 65.1839 55.2708 64.8137 55.4131 64.4087L55.4403 64.3295C55.5057 64.1416 55.6165 63.8499 55.5038 63.6804C55.3959 63.5188 55.1419 63.541 54.99 63.6093C54.674 63.7524 54.4639 64.1098 54.1979 64.3254C53.9081 64.5612 53.5782 64.7358 53.2401 64.8921L53.169 64.9247C52.5846 65.1887 51.9605 65.411 51.5012 65.8771C51.2539 66.1275 51.0414 66.4406 50.9702 66.7916C50.9378 66.9526 50.9378 67.1183 50.9807 67.2778C51.0146 67.4024 51.0858 67.4793 51.0452 67.6061C50.9917 67.7697 50.8026 67.9655 50.7052 68.1114C50.5921 68.2798 50.4795 68.4483 50.367 68.6172C50.1423 68.9551 49.9187 69.2939 49.6951 69.6322C49.2479 70.3098 48.8053 70.9908 48.3665 71.6737C48.2237 71.8963 48.0814 72.119 47.9396 72.3417L47.7271 72.6762L47.6149 72.8523L47.4234 73.1551C47.4302 73.1829 47.4297 73.2122 47.4208 73.2381C47.3882 73.3317 47.327 73.3955 47.251 73.4416L47.2375 73.4498C46.12 75.2244 45.0203 77.0106 43.9096 78.7896C43.8504 79.3328 43.7949 79.8761 43.7467 80.4198C43.6373 81.6498 43.5624 82.8831 43.5383 84.1183C43.5268 84.7158 43.5745 85.3171 43.6001 85.9146C43.6127 86.1997 43.6299 86.4842 43.6523 86.7688L43.6688 86.9704C43.691 87.2478 43.7035 87.5227 43.6043 87.7872C43.5163 88.0189 43.2482 88.0713 43.0895 87.8947C41.0195 87.8107 38.9479 87.7473 36.8762 87.7075C33.1681 87.636 29.4585 87.647 25.7499 87.719C23.8872 87.7555 22.024 87.8064 20.1619 87.8697C19.2444 87.9004 18.3264 87.9431 17.4084 87.9561C16.9138 87.9628 16.1354 87.7819 16.0955 87.2228L16.0945 87.2055C16.0327 87.2223 15.9688 87.2362 15.9034 87.2463C15.8743 87.2506 15.8463 87.2492 15.8204 87.2434L15.8075 87.2401C15.0703 87.4656 14.1377 87.1436 13.4372 86.956L13.3793 86.9406C12.7106 86.7655 12.1733 86.515 11.735 85.9583C10.9678 84.9831 10.706 83.674 10.5699 82.4675C10.4421 81.3321 10.4347 80.1755 10.5903 79.0425C10.4986 78.1187 10.5882 77.1661 10.6924 76.2476C10.7437 75.7936 10.8039 75.3401 10.8762 74.8885C10.9165 74.6365 10.9694 74.3875 11.0233 74.1384C11.0449 74.0391 11.0628 73.9321 11.0901 73.8284L11.1024 73.7843C11.0186 73.7953 10.927 73.7771 10.8385 73.7281C10.628 73.612 10.5667 73.3763 10.563 73.1513C10.5515 72.4727 10.6322 71.7744 10.7034 71.0997C10.7751 70.4264 10.8736 69.7502 11.0024 69.0851L11.0357 68.9138C11.1333 68.4161 11.245 67.9025 11.4417 67.435C10.7028 67.3088 9.96606 67.1746 9.24915 66.9463C8.89935 66.8342 8.55476 66.6948 8.22593 66.5248ZM46.7919 73.5885C46.7804 73.5913 46.7693 73.5942 46.7583 73.5976C46.463 73.6806 46.1645 73.7511 45.8671 73.827C45.3528 73.957 44.8501 74.1019 44.372 74.328C44.2718 75.5978 44.1233 76.8642 43.9822 78.1307L43.9541 78.3841C44.1709 77.98 44.3929 77.5788 44.6249 77.1829C45.3313 75.975 46.054 74.7772 46.7919 73.5885ZM11.2825 73.7142C11.2841 73.8654 11.2527 74.0223 11.2359 74.1672C11.2087 74.4028 11.1867 74.6399 11.159 74.8755C11.1024 75.3492 11.0542 75.8233 11.0191 76.2989C10.9966 76.6022 10.982 76.9069 10.9689 77.2117C11.2658 76.0969 11.6591 75.0061 12.033 73.9138C11.9705 73.9071 11.9066 73.8917 11.8407 73.874L11.7297 73.8442C11.6643 73.827 11.4521 73.7747 11.2825 73.7142ZM47.7271 72.6762L47.7292 72.7261C47.7371 72.9036 47.6313 73.0035 47.503 73.0294C47.5774 72.9113 47.6523 72.7937 47.7271 72.6762ZM13.7516 64.2723C14.0643 64.3002 14.3706 64.367 14.6628 64.4828L14.691 64.4938C14.9071 64.5777 15.2231 64.683 15.2938 64.9148C15.3138 64.9805 15.2603 65.0347 15.1991 65.04C14.9644 65.059 14.6879 64.8063 14.4706 64.7211C14.2287 64.6264 13.9752 64.5559 13.7186 64.5185C13.1421 64.4338 12.5409 64.4981 11.9984 64.709C11.9665 64.7217 11.9466 64.6706 11.9753 64.6553C12.522 64.3564 13.1301 64.2171 13.7516 64.2723ZM7.12674 65.7771C7.09059 65.745 7.05446 65.7113 7.01885 65.6777C6.73809 65.4108 6.48946 65.0994 6.30538 64.7572L6.25693 64.6645C6.10699 64.3729 5.92288 63.9573 6.27524 63.7472C6.48575 63.6215 6.73921 63.653 6.97381 63.7293C6.989 63.734 7.00418 63.7393 7.01937 63.7445C7.1241 63.7814 7.22517 63.8256 7.31524 63.8677C7.70642 64.0482 8.05151 64.3107 8.41286 64.5423C8.80434 64.7932 9.19094 64.9537 9.64282 65.0476L9.68536 65.0563C10.1095 65.1405 10.5693 65.1946 10.8652 65.5451C10.9395 65.6335 10.8715 65.7992 10.7431 65.7555C9.92519 65.4783 9.05959 65.4172 8.30863 64.9621C7.99756 64.7737 7.70328 64.5575 7.38541 64.3791C7.21679 64.2843 7.0427 64.2014 6.85717 64.1446L6.75581 64.1146C6.69644 64.0972 6.62557 64.08 6.57792 64.0971C6.48721 64.1287 6.51616 64.1774 6.54422 64.2626L6.54702 64.2712C6.76749 64.9564 7.39589 65.5298 7.97822 65.9092C8.11172 65.9965 8.24842 66.0765 8.3877 66.1507C9.3306 66.6557 10.3856 66.8907 11.4218 67.1697C11.4218 67.1697 12.0209 67.3378 12.2194 67.4009C12.4404 67.3824 12.6923 67.4608 12.8588 67.5545C13.0206 67.6455 13.151 67.7676 13.2495 67.9113C13.2495 67.9113 13.3442 67.9909 13.3615 68.1138C13.4113 68.228 13.4448 68.3509 13.4616 68.4795C13.471 68.5548 13.4521 68.6124 13.4165 68.6537C13.5236 70.3055 13.0796 71.9477 12.579 73.5174L12.5294 73.6724L12.4975 73.7703C11.9576 75.4346 11.3381 77.0869 11.0616 78.8222C10.8767 79.9816 10.8825 81.1809 11.0181 82.3456L11.0277 82.4257C11.1613 83.5266 11.4184 84.7619 12.1152 85.6478C12.4706 86.0998 12.8917 86.3009 13.4299 86.4463L13.4595 86.4545C13.9464 86.5831 14.4492 86.7659 14.9514 86.8211C15.4174 86.872 15.8081 86.6978 16.2275 86.5346L16.2281 86.5341C17.1115 85.7486 17.5126 84.605 17.809 83.4503C18.5772 80.463 18.4819 77.3619 18.0463 74.3304C17.819 72.7467 17.51 71.1765 17.2021 69.6072C17.0481 68.8226 16.8821 68.0394 16.7444 67.2525L16.6626 66.7892C16.6175 66.5319 16.5738 66.2743 16.5365 66.0155C16.4862 65.6677 16.471 65.3257 16.4538 64.9758C16.0306 64.2713 15.4164 63.6909 14.7047 63.2747C14.1952 62.9764 13.6558 62.7696 13.0992 62.6196C11.5077 62.1887 9.77283 62.2192 8.17145 61.8878C7.63348 61.7765 7.12282 61.6114 6.61244 61.4135L6.54284 61.3863C6.30876 61.2947 6.06997 61.2437 5.95371 61.521C5.87098 61.7183 5.9202 61.9235 6.04431 62.0893C6.34856 62.4955 6.9602 62.6838 7.4205 62.8301C7.69752 62.9185 7.98032 62.9884 8.26623 63.0406C8.55214 63.0926 8.8391 63.1058 9.1135 63.2073C9.2193 63.2463 9.24027 63.4152 9.1135 63.4451C8.76581 63.5267 8.41601 63.4567 8.07037 63.3889C7.69072 63.3136 7.31682 63.2068 6.9534 63.0716C6.88636 63.0468 6.81699 63.0206 6.74634 62.9928L6.69313 62.9716C6.74812 63.0116 6.8031 63.0511 6.85861 63.0906C6.87327 63.101 6.86437 63.1289 6.845 63.1221C5.99047 62.8018 5.21296 62.2238 4.61063 61.5401L4.58066 61.5058C4.36858 61.2616 3.88523 60.5228 3.47782 60.7286C3.09525 60.9215 3.74739 61.6653 3.99523 61.9694L4.02401 62.0051C4.30575 62.0124 4.57858 62.1887 4.8069 62.3308C5.20331 62.5776 5.61753 62.7901 6.0396 62.989C6.87852 63.3852 7.76928 63.6646 8.59926 64.0807C8.61029 64.0866 8.60189 64.1008 8.59143 64.0992C8.06307 64.0145 7.54043 63.8792 7.02986 63.7115L7.00708 63.7043L6.9843 63.6966C6.66539 63.5914 6.35066 63.4726 6.04117 63.3457C5.69713 63.2047 5.36094 63.0464 5.03469 62.8669C4.73934 62.7049 4.41152 62.4129 4.06905 62.3697C4.03239 62.365 3.99992 62.3644 3.97165 62.3671C3.57838 62.4002 3.90357 63.0548 4.01354 63.2505C4.19316 63.572 4.40996 63.8687 4.6587 64.1397C5.16299 64.6901 5.77411 65.1262 6.4355 65.4656C6.6612 65.5814 6.89214 65.6835 7.12674 65.7771Z" fill="black"/>
<path fill-rule="evenodd" clip-rule="evenodd" d="M26.8954 26.4715C36.2914 26.007 42.6666 33.4547 42.9408 36.4246C43.1312 38.4861 43.002 41.2356 43.002 43.0778C43.002 44.0181 43.4741 46.8763 42.9408 48.2468C41.7539 51.2973 40.413 53.6867 36.6974 53.6867C32.9818 53.6867 27.3176 51.7511 25.3726 49.2547C25.0175 48.7989 20.6046 45.4623 20.6046 42.8397C20.6046 37.2442 20.1909 26.8028 26.8954 26.4715Z" fill="white"/>
<path fill-rule="evenodd" clip-rule="evenodd" d="M20.4854 20.4284C21.0209 20.2602 21.3627 20.5024 21.6065 20.8776C21.6602 20.8671 21.7122 20.8677 21.7702 20.8818C21.7845 20.8853 21.8191 20.8984 21.8454 20.9087C21.8656 20.9173 21.8839 20.9276 21.9015 20.9386L21.912 20.933C21.9522 20.889 21.9944 20.8488 22.0399 20.8164C22.1423 20.7436 22.2479 20.7224 22.3479 20.7374L22.3943 20.7203C22.7907 20.5814 23.2204 20.6459 23.4891 20.9891C23.5412 21.0553 23.5832 21.1292 23.6191 21.2071C23.6997 21.2336 23.7753 21.272 23.8405 21.3192C23.8862 21.2976 23.9346 21.2794 23.9863 21.266C24.2787 21.1906 24.586 21.2618 24.8243 21.442C24.9403 21.5296 25.0257 21.6394 25.0904 21.7648C25.1641 21.7822 25.2369 21.8134 25.3052 21.8554C25.3638 21.8261 25.4234 21.7985 25.4845 21.7797C25.7077 21.7107 25.9472 21.6854 26.1795 21.7028C26.6802 21.7401 27.1644 22.3149 26.8298 22.8084L26.8194 22.8234C26.7769 22.8829 26.74 22.9444 26.7057 23.0068C26.8256 23.0592 26.941 23.1293 27.0477 23.2172C27.5692 23.6468 27.6161 24.3091 27.5186 24.9339L27.5144 24.9599H27.5157C27.7928 24.9863 28.032 25.2772 27.8683 25.5508L27.8603 25.5636C27.6387 25.9078 27.4488 26.2879 27.2371 26.65C26.6512 26.8623 26.0863 27.1237 25.5543 27.4405C25.223 27.7323 24.9075 28.0407 24.63 28.3838C24.4914 28.5551 24.3641 28.7365 24.2472 28.9246C24.3407 28.9697 24.4564 28.9674 24.5541 28.8764C25.4232 28.067 26.4731 27.499 27.5911 27.1183C27.6716 27.0908 27.7244 27.0391 27.754 26.9779C28.2503 26.8358 28.7554 26.7256 29.2654 26.6475C29.406 26.5129 29.5533 26.3842 29.6933 26.2501C29.872 26.079 30.0959 26.0815 30.2631 26.189C30.3462 26.1509 30.4311 26.1173 30.5174 26.0871L30.5709 26.0688C30.5932 26.0614 30.6145 26.0529 30.6365 26.0462C31.235 25.8623 31.7824 25.9305 32.3711 26.0816L32.4465 26.1014C32.7209 26.1746 32.8936 26.1628 33.1594 26.0955L33.1893 26.0878C33.4716 26.0138 33.7737 25.9589 34.0623 26.0369C34.3643 26.1185 34.5647 26.2999 34.7704 26.5191L34.791 26.5411C34.887 26.6443 34.9424 26.6556 35.0681 26.6531L35.2027 26.6491C35.7106 26.6351 36.2081 26.6566 36.5885 27.0515C36.7292 27.1975 36.8801 27.4042 36.9707 27.5928L36.9838 27.621C36.988 27.6301 36.9917 27.6378 36.9952 27.6446C37.0497 27.6358 37.1347 27.6011 37.1751 27.5932C37.7287 27.4852 38.1906 27.6515 38.5461 28.09C38.6238 28.1859 38.7413 28.3744 38.8227 28.4779C38.8512 28.5022 38.8781 28.5283 38.9036 28.5556C39.0371 28.6413 39.2262 28.6359 39.3758 28.6659C39.7837 28.7475 40.2196 28.9034 40.427 29.2935C40.5136 29.4563 40.5457 29.6345 40.5822 29.8124C40.7194 29.9029 40.8268 30.0334 40.9103 30.1747C41.0117 30.3462 41.0548 30.5562 41.1716 30.7181C41.2564 30.8357 41.386 30.8986 41.5093 30.9704L41.5564 30.9982C41.9218 31.2169 42.2079 31.4596 42.3282 31.8881L42.3387 31.9262C42.3581 31.9919 42.4266 32.1792 42.367 32.151C42.4183 32.1795 42.5057 32.1895 42.5525 32.2051C42.806 32.2894 43.0263 32.4256 43.1614 32.6648C43.2641 32.8468 43.2828 33.0366 43.3122 33.2373L43.3247 33.3183C43.3279 33.3379 43.3317 33.3607 43.3357 33.3828L43.3397 33.4045L43.3404 33.405C43.3864 33.4249 43.4314 33.4466 43.4757 33.4698C43.6858 33.5942 43.8294 33.8099 43.8294 34.0597C43.8294 34.181 43.7918 34.2754 43.7369 34.3597C43.7813 34.4273 43.8157 34.4992 43.8416 34.5794C43.8926 34.736 43.8961 34.9072 43.879 35.0692C43.8584 35.2636 43.8088 35.4406 43.7503 35.6263C43.7278 35.698 43.7187 35.7981 43.6848 35.8665C43.7473 35.9467 43.7847 36.0447 43.7731 36.1414C43.7565 36.2797 43.6937 36.4414 43.569 36.519C43.5081 36.8212 43.377 37.1299 43.2478 37.377C43.2329 37.4057 43.2149 37.4312 43.1951 37.4524C43.2131 38.4387 43.1412 39.4319 43.1362 40.4169C43.1306 41.4892 43.153 42.5622 43.1902 43.6332C43.2528 45.4083 43.4766 47.2438 42.9552 48.9748C42.5287 50.3916 41.6744 51.6078 40.5289 52.5299C39.356 53.4733 37.942 54.0191 36.4405 54.1045C35.6768 54.1474 34.9001 54.0602 34.1611 53.8614L34.0822 53.8399C33.3673 53.6425 32.5392 53.3409 32.0131 52.8128C31.7354 52.5337 32.0162 51.9425 32.4235 52.105C32.8271 52.2664 33.1892 52.505 33.5896 52.6732C33.9473 52.8234 34.3205 52.9387 34.6986 53.0234C35.4568 53.1947 36.2608 53.2322 37.0313 53.1256C39.8135 52.743 41.9813 50.4209 42.4091 47.6675C42.5274 46.905 42.5252 46.13 42.5173 45.3595L42.5084 44.5153C42.5017 43.8091 42.4992 43.1024 42.525 42.3965C42.5579 41.4881 42.6217 40.5802 42.7073 39.6755L42.7518 39.2048C42.8047 38.654 42.8643 38.0991 42.967 37.5558C42.8829 37.5602 42.2191 36.419 41.8508 35.7813C41.7163 35.6742 41.6028 35.541 41.559 35.3687C41.5499 35.3328 41.5451 35.2965 41.5423 35.2602C41.4624 35.1339 41.378 35.0108 41.2889 34.8914L41.2695 34.8827C41.2546 34.8759 41.243 34.8701 41.2361 34.8663C41.0418 34.7556 40.8796 34.5878 40.7686 34.3935C40.7312 34.3279 40.7005 34.2595 40.6755 34.1895C40.5172 34.0333 40.3514 33.8843 40.1774 33.7445C40.1603 33.7308 40.1426 33.718 40.1253 33.7045C39.9038 33.6213 39.7092 33.4961 39.5674 33.3157C39.5081 33.2788 39.4484 33.2427 39.3882 33.2073C39.2076 33.2056 39.0251 33.1633 38.8475 33.09C38.5227 32.9559 38.2633 32.6909 37.937 32.5681C37.5919 32.4383 37.2283 32.7333 36.8616 32.6801C36.768 32.6665 36.6752 32.6379 36.5889 32.5964C36.3824 32.8162 36.1633 33.0234 35.9217 33.2048C35.571 33.4681 35.2124 33.5884 34.806 33.7074C34.6045 33.8995 34.379 34.0857 34.1071 34.1131C33.4777 34.6187 32.8045 35.0453 32.0962 35.4413C31.9823 35.505 31.869 35.5337 31.7615 35.5345C31.5393 35.6746 31.2968 35.7825 31.0406 35.8571C30.9604 35.8805 30.8776 35.8855 30.7962 35.8754L30.5739 36.0574C30.4191 36.184 30.2541 36.2445 30.0962 36.2484C30.0002 36.3224 29.9006 36.3924 29.7981 36.4597C29.6883 36.5319 29.546 36.5618 29.4029 36.553C29.1844 36.7679 28.901 36.7904 28.6637 36.6915C28.6311 36.7107 28.5976 36.7289 28.5598 36.7468C28.5087 36.7711 28.4552 36.7917 28.4007 36.8083C28.1532 37.0764 27.791 37.2169 27.4281 37.1802C27.157 37.347 26.8416 37.4338 26.5332 37.4143C26.4861 37.6518 26.4472 37.8902 26.4143 38.1294L26.4109 38.3046C26.4106 38.333 26.4105 38.3551 26.4109 38.3697L26.411 38.3755C26.4412 39.1437 26.4577 39.9123 26.4875 40.6805L26.4903 40.7412C26.5242 41.4124 26.6885 42.6362 25.7069 42.6096C25.3411 42.5996 24.9782 42.3289 24.6933 42.1063L24.6531 42.0748C24.6313 42.0578 24.609 42.0403 24.5864 42.0224C24.3736 41.9946 24.1637 41.9426 23.9487 41.9347C23.6834 41.9254 23.4044 41.9528 23.1459 42.0132C22.6897 42.1197 22.2483 42.3285 21.9507 42.7067C21.9247 42.7397 21.9005 42.7746 21.8776 42.8095C21.8565 42.8811 21.8205 42.9472 21.7728 43.0045C21.4914 43.6407 21.6538 44.4813 21.965 45.0631C22.3357 45.7563 22.9223 46.2355 23.66 46.4768L23.697 46.4887C24.201 46.6469 24.3938 46.9535 24.6678 47.3797C24.9244 47.7797 25.2189 48.1523 25.535 48.5062C26.1469 49.1909 27.0055 49.7561 27.3613 50.6227C27.4332 50.7973 27.2274 50.9617 27.0681 50.9169C26.4438 50.7406 26.0062 50.2938 25.5524 49.8496C25.2384 49.5419 24.9363 49.2219 24.653 48.8858C24.5935 48.9134 24.5281 48.9319 24.46 48.9403C24.1594 48.9772 23.8492 48.9618 23.5861 48.7989C23.4647 48.8101 23.3383 48.7677 23.2445 48.6813C23.1584 48.6018 23.0841 48.5159 23.0214 48.4243C22.926 48.4327 22.8324 48.4353 22.7431 48.4204C22.7 48.4163 22.6583 48.4049 22.62 48.3862C22.549 48.358 22.4816 48.3145 22.4197 48.2478C22.2944 48.1126 22.2463 47.9215 22.2695 47.74C22.2447 47.7348 22.2201 47.7283 22.1958 47.7201C22.0289 47.6633 21.9005 47.5506 21.8184 47.3972C21.6715 47.3144 21.5393 47.2021 21.4392 47.0829C21.3172 46.9378 21.2252 46.7742 21.1712 46.5936C21.1153 46.5675 21.0611 46.5372 21.0091 46.5019C20.6369 46.2487 20.4237 45.7734 20.5699 45.334L20.5749 45.3202C20.5823 45.3004 20.5958 45.2667 20.6122 45.2286C20.6099 45.1977 20.6074 45.1667 20.6057 45.1357L20.6005 45.0421L20.526 45.0102C20.154 44.8616 19.9026 44.6609 19.8579 44.2403C19.8486 44.1533 19.8822 44.0645 19.9352 43.9904L19.935 43.9671C19.9107 43.9545 19.8878 43.9416 19.8675 43.9287C19.6647 43.7985 19.5401 43.5652 19.5541 43.3239C19.5669 43.1041 19.6881 42.9288 19.8244 42.7666L19.8633 42.7211C19.8665 42.7175 19.8701 42.7134 19.874 42.709L19.7839 42.6805C19.7255 42.6617 19.6719 42.6431 19.6334 42.6215C19.4844 42.5375 19.3581 42.424 19.2802 42.2799C19.2688 42.262 19.2572 42.2444 19.2468 42.2254C19.1462 42.0409 19.1331 41.8045 19.198 41.6064C19.2057 41.5831 19.2156 41.561 19.2258 41.5392C18.9518 41.4421 18.7408 41.2415 18.7154 40.8718C18.7054 40.7264 18.7371 40.5815 18.806 40.4574C18.7907 40.3739 18.7876 40.2873 18.7974 40.2016C18.701 40.1101 18.6261 39.9998 18.5927 39.8653C18.5293 39.6111 18.6452 39.3693 18.8174 39.1476C18.7537 38.9722 18.7504 38.7744 18.8232 38.5979C18.7952 38.5098 18.7792 38.4166 18.7784 38.321C18.7765 38.1092 18.8414 37.9323 18.9462 37.7819C18.7988 37.6008 18.7288 37.3602 18.8159 37.1347C18.8778 36.9744 18.9486 36.8278 19.0302 36.692C18.9873 36.5887 18.9624 36.473 18.9624 36.3435C18.9624 36.1104 19.0493 35.9258 19.1823 35.7747C19.1246 35.4988 19.242 35.1627 19.4977 35.0412C19.5941 34.9953 19.7232 34.9474 19.8654 34.9102C19.9188 34.7426 19.9745 34.5757 20.0333 34.41C20.126 34.1491 20.2257 33.8918 20.3313 33.6375C20.2705 33.6911 20.2067 33.741 20.1407 33.7862C19.9321 34.0527 19.6556 34.2837 19.4232 34.4218C18.9625 34.6957 18.4356 34.5332 18.2081 34.0749C17.9944 34.2353 17.7378 34.3303 17.4642 34.2978C17.1538 34.261 16.8701 34.059 16.7926 33.7439C16.7814 33.6983 16.7746 33.649 16.7739 33.5994C16.596 33.7267 16.4098 33.844 16.2055 33.9111C15.9453 33.9965 15.6798 33.7915 15.6454 33.536C15.6318 33.4348 15.6507 33.3453 15.6908 33.2697L15.6654 33.2597C15.6611 33.2579 15.6569 33.2561 15.6528 33.2541C15.5163 33.1899 15.4104 33.0721 15.3601 32.9363C15.0646 33.0512 14.7264 32.9165 14.6326 32.59C14.521 32.2018 14.5143 31.8086 14.6016 31.4305C14.2886 31.2019 14.0846 30.8174 14.0499 30.4155C14.0246 30.1271 14.0931 29.8607 14.2138 29.6145C13.9177 29.5033 13.8159 29.1132 13.9566 28.8322C13.7697 28.7247 13.6479 28.4967 13.6451 28.2747C13.5616 28.1477 13.5349 27.984 13.6042 27.8005C13.6955 27.5589 13.8814 27.3566 14.0944 27.1981C14.0015 27.0356 13.9325 26.8584 13.8897 26.6753C13.7133 26.6234 13.5709 26.48 13.5419 26.2645C13.5055 25.9945 13.6824 25.7656 13.9204 25.7052C13.9468 25.6229 13.9791 25.5425 14.0189 25.4652C13.9011 25.1848 13.9185 24.8303 14.0704 24.5238C14.2049 24.2527 14.4237 24.087 14.6872 23.9724C14.6203 23.7418 14.7089 23.5119 14.932 23.3406C15.2045 23.1312 15.5033 22.9711 15.8173 22.858C15.7894 22.4827 15.9455 22.0984 16.3144 21.9676C16.4131 21.9326 16.5157 21.9197 16.62 21.9202C16.6958 21.7546 16.8222 21.62 16.9871 21.5009C17.2368 21.3207 17.7033 21.4308 17.8417 21.7134L17.8485 21.7279C17.8555 21.7439 17.8631 21.7585 17.8704 21.7741C17.8983 21.6369 17.9635 21.5073 18.0683 21.401C18.3304 21.1354 18.607 21.1304 18.8733 21.244C18.9222 21.1223 18.9813 21.0065 19.0532 20.9006C19.3142 20.5166 19.7455 20.4677 20.0613 20.6757C20.1879 20.5638 20.3292 20.4776 20.4854 20.4284ZM22.3519 43.5235C22.8774 43.3167 23.5153 43.3778 24.0348 43.5765L24.0729 43.5914C24.5317 43.7737 25.2772 44.1793 25.367 44.698C25.4135 44.9666 25.1594 45.199 24.9015 45.0576C24.6771 44.9348 24.5512 44.6874 24.3727 44.508C24.1961 44.3305 23.9983 44.1878 23.7826 44.0625C23.3325 43.8014 22.8595 43.6999 22.3519 43.6246C22.2948 43.6164 22.3103 43.5398 22.3519 43.5235Z" fill="black"/>
<path fill-rule="evenodd" clip-rule="evenodd" d="M37.5915 50.2287C37.1349 50.3616 36.6447 50.3735 36.1792 50.2362C35.757 50.1117 35.3235 49.8376 35.0127 49.475C34.7367 49.1528 34.5579 48.7613 34.5649 48.3434C34.5657 48.2957 34.5827 48.2559 34.6088 48.2249C34.6369 48.1917 34.6762 48.1688 34.7183 48.1589C34.7616 48.1487 34.8073 48.1523 34.8462 48.1701C34.8815 48.1862 34.9117 48.2135 34.9306 48.2535C34.9783 48.3166 35.0259 48.3787 35.0737 48.4391C35.4577 48.9156 35.8295 49.2717 36.4069 49.3994C36.7201 49.4688 37.033 49.438 37.3201 49.3323C37.6274 49.2191 37.9052 49.02 38.1228 48.7653C38.2213 48.6502 38.3374 48.6032 38.451 48.6024C38.5796 48.6015 38.7068 48.6616 38.8027 48.7577C38.8969 48.8521 38.9599 48.9804 38.9657 49.1147C38.9707 49.2325 38.9324 49.3555 38.8307 49.4653C38.4957 49.827 38.0614 50.0919 37.5915 50.2287ZM37.5774 44.2603C38.0455 44.5463 38.7588 45.2131 38.2552 45.9221C37.6625 46.5473 36.809 45.8305 36.3884 45.5063C35.9984 45.2551 35.5603 45.9012 35.9221 46.1946C38.9611 48.4561 40.1945 44.3351 37.8142 43.924C37.5521 43.8787 37.4548 44.1718 37.5774 44.2603ZM33.1984 43.0018C33.0479 42.9052 32.8709 42.8719 32.6748 42.9616C32.5215 43.0317 32.2527 43.2653 32.0656 43.5723C31.9376 43.7824 31.8468 44.0287 31.8657 44.2854C31.8701 44.345 31.8482 44.389 31.8136 44.4215C31.7863 44.4472 31.7469 44.466 31.7006 44.4719C31.6612 44.4769 31.6173 44.4724 31.5814 44.4612C31.5134 44.4398 31.4774 44.3954 31.4637 44.3592C31.3328 44.0095 31.3892 43.6193 31.536 43.2673C31.7341 42.7922 32.094 42.3942 32.3297 42.2659C32.7331 42.0463 33.2091 42.0362 33.6131 42.2599C33.9569 42.4504 34.172 42.7578 34.3858 43.0712C34.4313 43.1379 34.4764 43.204 34.5231 43.269C34.6165 43.3991 34.6258 43.5282 34.5896 43.639C34.5495 43.7616 34.4473 43.8651 34.3195 43.9193C34.2013 43.9694 34.0642 43.9764 33.9428 43.925C33.8403 43.8815 33.7462 43.7968 33.6866 43.6531C33.5864 43.411 33.4194 43.1439 33.1984 43.0018ZM40.8398 43.5404C40.7367 43.5944 40.6561 43.6107 40.5418 43.5763C40.4786 43.5572 40.4162 43.5206 40.3672 43.4714C40.3188 43.4227 40.2838 43.3622 40.2702 43.2949C40.2368 43.129 40.1465 42.9738 40.0178 42.8726C39.9078 42.786 39.769 42.7402 39.615 42.766C39.4488 42.7939 39.2905 42.901 39.1815 43.0273C39.1451 43.0696 39.1165 43.1176 39.0878 43.1652C39.034 43.2544 38.9818 43.3372 38.9077 43.4027C38.8796 43.4276 38.8373 43.4448 38.7963 43.4448C38.7796 43.4448 38.7627 43.4421 38.7467 43.4371C38.5813 43.2703 38.5495 43.1437 38.5548 43.0181C38.5604 42.8865 38.612 42.7532 38.6955 42.6289C38.8912 42.3371 39.2628 42.098 39.5137 42.0438C39.8571 41.9696 40.1982 42.0587 40.4717 42.2514C40.7531 42.4498 40.9616 42.7579 41.0266 43.105C41.0422 43.1886 41.0356 43.2788 41.0039 43.3571C40.9729 43.4335 40.919 43.499 40.8398 43.5404ZM33.9559 39.8917C33.7498 40.0935 33.5058 40.1248 33.259 40.1526C33.1219 40.1682 33.0124 40.1807 32.9047 40.2052C32.6086 40.2723 32.3159 40.3736 32.0489 40.5192C31.7698 40.6716 31.4656 40.8553 31.2467 41.0906C31.1947 41.1466 31.1457 41.2054 31.0965 41.2643C31.0517 41.318 31.0086 41.3697 30.9631 41.4195C30.9109 41.4768 30.8613 41.5368 30.812 41.5966C30.7815 41.6471 30.7754 41.6596 30.7693 41.6725C30.7601 41.6919 30.7493 41.7137 30.737 41.737C30.7202 41.7689 30.7005 41.8039 30.6799 41.8356C30.6456 41.8936 30.6271 41.9096 30.6112 41.9167C30.5848 41.9285 30.5598 41.9343 30.5355 41.9312C30.5127 41.9282 30.4912 41.9172 30.47 41.8992C30.3642 41.8094 30.333 41.6619 30.3362 41.5053C30.341 41.2677 30.4282 41.0048 30.5086 40.843C30.6955 40.4674 30.9546 40.0768 31.2662 39.7964C31.6218 39.4763 32.0108 39.234 32.4576 39.0671C32.7353 38.9633 33.0568 38.868 33.3593 38.88C33.5771 38.8887 33.785 38.9538 33.9567 39.1162C34.0621 39.2159 34.1127 39.3578 34.1127 39.4996C34.1127 39.6442 34.0601 39.7896 33.9559 39.8917ZM41.259 41.74C41.2459 41.7616 41.2277 41.7765 41.2076 41.7854C41.1864 41.7948 41.1628 41.7975 41.1401 41.7936C41.1175 41.7898 41.0961 41.7795 41.079 41.7638C41.0628 41.7487 41.0503 41.7288 41.0448 41.7043C40.9079 41.1002 40.6422 40.6507 40.0751 40.3609C39.796 40.2183 39.4752 40.1277 39.1716 40.0555C39.0833 40.0345 38.99 40.0209 38.8962 40.0072C38.6018 39.9639 38.3053 39.9145 38.1135 39.6754C37.9978 39.5313 37.9493 39.3471 37.9768 39.1787C38.0026 39.02 38.0948 38.8746 38.2625 38.7874C38.6798 38.5705 39.1985 38.7834 39.6199 38.9647C39.6512 38.9781 39.6819 38.9913 39.7119 39.004C40.1241 39.1789 40.5 39.4097 40.809 39.7398C41.0542 40.0017 41.2813 40.3888 41.3728 40.787C41.4489 41.1184 41.431 41.4566 41.259 41.74Z" fill="black"/>
<path fill-rule="evenodd" clip-rule="evenodd" d="M40.6549 23.9503C41.3745 23.4218 42.1133 23.825 42.4155 24.1434C42.4412 24.0377 42.4815 23.8947 42.5262 23.7365C42.5936 23.4978 42.6709 23.2243 42.7223 22.9905C42.9294 22.0492 42.9711 21.7535 43.0035 21.5072C43.0502 21.1529 43.2971 21.1423 43.4 21.1378C43.4498 21.1357 43.5638 21.1647 43.6447 21.2481C44.0253 21.3036 44.5848 21.3874 44.7945 21.4268C44.9546 21.4569 45.3144 21.4973 45.6512 21.535C45.8032 21.5521 45.9505 21.5686 46.0727 21.5834C46.1496 21.5051 46.2508 21.4853 46.3075 21.4742C46.4086 21.4544 46.8 21.5254 46.6643 22.016C46.5285 22.5066 46.2009 24.1735 46.1 24.9525C46.0013 25.7148 45.0747 25.7303 44.7019 25.7365H44.7017C44.6936 25.7367 44.6858 25.7368 44.6782 25.7369C44.2864 25.7439 43.5341 25.1383 44.0091 24.6657C44.6424 24.0356 45.4327 24.3238 45.7787 24.5936C45.7877 24.4924 45.8109 24.3551 45.8366 24.2019V24.2019V24.2019C45.8802 23.9435 45.9312 23.6403 45.9348 23.3903C45.9406 22.994 45.9509 22.677 45.9589 22.4286V22.4286C45.9637 22.2798 45.9678 22.1557 45.9696 22.054C45.6932 21.9928 45.3094 21.9262 44.9181 21.8583C44.8426 21.8452 44.7668 21.8321 44.6914 21.8189C44.1844 21.7303 43.9798 21.7093 43.6917 21.6806C43.686 21.6957 43.6797 21.7111 43.6726 21.7269C43.4658 22.1917 42.8952 23.7912 42.6801 24.5464C42.4697 25.2855 41.5511 25.1623 41.1816 25.1127C41.1735 25.1116 41.1657 25.1106 41.1581 25.1096C40.7696 25.0578 40.1153 24.3466 40.6549 23.9503Z" fill="black"/>
</g>
<defs>
<clipPath id="clip0_242_6962">
<rect width="89" height="68" fill="white" transform="translate(3 20)"/>
</clipPath>
</defs>
</svg>
