<svg width="60" height="88" viewBox="0 0 60 88" fill="none" xmlns="http://www.w3.org/2000/svg">
<g clip-path="url(#clip0_240_6327)">
<path fill-rule="evenodd" clip-rule="evenodd" d="M7.97663 88.8401C16.4512 90.1542 25.0794 90.2202 33.6244 89.7431C37.0062 89.4846 40.3983 89.438 43.7774 89.7685C45.7741 89.9201 54.5285 90.6032 55.2438 88.7776C54.7936 79.0559 53.8819 69.2515 51.0848 59.9017C49.9345 56.5818 48.9466 53.8264 46.7015 51.0791C45.9939 50.329 44.468 48.7558 43.5937 48.2428C42.8362 47.7983 42.5196 47.9569 42.0846 47.2062C41.6524 46.3769 41.3336 44.992 40.7198 44.4068C40.095 43.811 39.1689 44.0242 38.0211 44.2161C38.232 41.3069 36.9166 40.566 35.1045 40.0128C31.9192 38.7718 28.7734 39.3952 27.9717 43.3538C26.4852 43.3538 25.6502 44.0068 24.7475 44.6343C24.3785 44.8908 24.6352 45.5443 24.1944 45.7459C23.379 46.0423 21.9379 45.9697 21.1527 46.3345C17.5822 47.9933 14.402 50.3989 12.3136 53.912C7.63146 61.4127 4.41521 77.2128 4.97177 86.1028C4.72792 86.4932 5.06512 87.0529 5.15083 87.4727C5.25902 87.8379 5.60937 88.0808 5.97501 88.0392C6.48525 88.5994 7.27444 88.7241 7.97663 88.8401Z" fill="white"/>
<path fill-rule="evenodd" clip-rule="evenodd" d="M43.0536 48.0227C43.0016 47.9931 43.0474 47.9172 43.0997 47.9423C45.613 49.1459 47.541 51.2577 48.8976 53.6976C50.3024 56.224 51.1031 59.0925 51.7933 61.8961L51.8182 61.9974C52.5543 64.9966 53.1801 68.0267 53.7435 71.0643C54.3142 74.1404 54.7722 77.2355 55.1406 80.3434C55.3229 81.88 55.4854 83.4194 55.6122 84.9619C55.6755 85.7327 55.733 86.5042 55.7847 87.2759C55.8054 87.5845 55.8248 87.8932 55.8415 88.2021L55.8535 88.4339C55.8638 88.644 55.8882 88.8548 55.8374 89.0621C55.7935 89.2408 55.7008 89.4027 55.6192 89.5668C55.458 89.8911 55.0159 89.8377 54.8421 89.5668L54.7917 89.4878C54.6764 89.306 54.5807 89.137 54.5445 88.9108C54.5095 88.6917 54.5083 88.4621 54.4926 88.2407C54.4637 87.8336 54.4391 87.426 54.4111 87.0186C54.3522 86.1612 54.2861 85.3043 54.213 84.448C54.0683 82.7577 53.913 81.0688 53.7224 79.3831C53.3837 76.3872 52.9586 73.3993 52.4575 70.4273C51.9679 67.524 51.3489 64.6502 50.7032 61.78L50.6363 61.4831C49.5058 56.4718 47.7633 50.7008 43.0536 48.0227ZM16.2838 67.6456C16.3023 67.5955 16.3819 67.5839 16.3953 67.6456C16.5646 68.4238 16.5813 69.2252 16.6072 70.0219C16.6327 70.8079 16.6317 71.5973 16.6204 72.3837C16.5791 75.2738 16.5013 78.1615 16.4341 81.0511C16.4005 82.4965 16.369 83.9421 16.3448 85.3878C16.3357 85.93 16.328 86.4721 16.3216 87.0143L16.3138 87.7295C16.3099 88.0456 16.3018 88.3579 16.264 88.6738C16.2391 88.8815 16.186 89.0797 16.0737 89.2577C15.9939 89.3841 15.8803 89.4483 15.7695 89.5342L15.7488 89.5506C15.6075 89.6645 15.4587 89.6653 15.3188 89.5506L15.2782 89.5178C15.1445 89.411 15.029 89.3277 14.9437 89.1589C14.825 88.9243 14.806 88.6694 14.7858 88.4109C14.7552 88.0189 14.7755 87.6211 14.7794 87.2279C14.7874 86.4392 14.7981 85.6507 14.8116 84.862C14.8614 81.9701 14.9597 79.0776 15.1389 76.1908C15.2234 74.831 15.3379 73.4669 15.4914 72.1126L15.5207 71.8588C15.5673 71.4603 15.6097 71.0548 15.6576 70.6479C14.943 70.1348 14.3148 69.5122 13.7791 68.8058C13.7397 68.7539 13.8046 68.681 13.8522 68.7313C14.3996 69.3099 15.0272 69.7711 15.722 70.1338C15.8358 69.2821 15.9923 68.435 16.2838 67.6456ZM28.2228 41.8665C28.2326 41.8588 28.2479 41.8554 28.2572 41.8665C28.4108 42.0493 28.3797 42.3289 28.3846 42.5605L28.3852 42.5821C28.3962 42.9208 28.3983 43.2585 28.3972 43.5974L28.3938 44.6762V44.6762C28.3933 44.8246 28.3815 44.979 28.389 45.1282L28.3929 45.1859V45.1859C28.4736 45.2703 28.511 45.3922 28.4837 45.5146C28.4787 45.6717 28.3983 45.8028 28.281 45.8852L28.5325 46.2494V46.2494L28.7842 46.6135C29.3031 47.3647 29.8277 48.1093 30.3744 48.84C30.9318 49.5849 31.5265 50.3017 32.1489 50.991C32.4529 51.3278 32.7621 51.6599 33.0785 51.9845C33.2071 52.1165 33.3389 52.2452 33.4692 52.3753L33.5989 52.5061C33.6755 52.5843 33.7719 52.6617 33.8227 52.7608C33.8527 52.8193 33.8595 52.9634 33.8702 52.9872C33.9662 53.2026 33.8024 53.5461 33.5302 53.4386L33.5426 53.4302C33.5921 53.3951 33.5604 53.3946 33.4472 53.4288C33.3759 53.4285 33.309 53.4118 33.2465 53.3786L33.2279 53.3681C33.1398 53.3224 33.0613 53.2341 32.9898 53.1634L32.972 53.1461C32.8085 52.9897 32.6526 52.8238 32.4959 52.6603C32.1688 52.3192 31.849 51.9708 31.5395 51.6131C30.922 50.8994 30.3365 50.1567 29.7821 49.391C29.2174 48.6111 28.6925 47.7911 28.2411 46.9375C28.0698 46.6136 27.9127 46.2834 27.7622 45.9494C27.4691 45.8534 27.401 45.5352 27.4215 45.1767C27.3133 44.9196 27.2159 44.6573 27.1583 44.3892C27.1505 44.3525 27.1967 44.3178 27.2244 44.3499C27.3181 44.4587 27.4049 44.5744 27.4884 44.6932C27.5387 44.4419 27.6024 44.2105 27.6324 44.0631L27.7623 43.4122V43.4122C27.0301 43.3733 26.2279 43.6804 25.7231 44.218C25.696 44.358 25.5905 44.4582 25.4876 44.589C25.3701 44.7386 25.2675 44.9065 25.191 45.082C25.0214 45.4711 25.1171 46.0446 24.7879 46.33C24.7536 46.3598 24.7153 46.3804 24.6757 46.3932C24.8319 47.1751 24.761 48.0367 24.7576 48.83L24.7575 48.8998C24.7583 49.7877 24.7292 50.6762 24.6956 51.5633L24.6614 52.4413C24.6172 53.6122 24.5884 54.7837 24.6999 55.9482C25.2087 55.4881 25.7349 55.0489 26.2792 54.6306C26.6371 54.3555 27.0022 54.0902 27.3739 53.8348L27.6759 53.6288C28.0378 53.381 28.4085 53.1261 28.8048 52.9487C29.3231 52.7167 29.8159 52.7964 30.3163 53.0344C30.8146 53.2714 31.2981 53.5466 31.7868 53.8035C32.284 54.0647 32.7822 54.3237 33.28 54.5833C33.6098 54.7554 34.0931 54.9107 34.3349 55.2273C34.3504 55.1573 34.3683 55.0874 34.3894 55.0178C34.3654 54.9117 34.3746 54.797 34.433 54.6876C35.2457 53.163 35.9977 51.602 36.7445 50.0429C37.1225 49.2538 37.4818 48.4555 37.8605 47.6669L38.2287 46.8989C38.2902 46.7709 38.3519 46.6431 38.4139 46.5155C38.5068 46.3243 38.6035 46.1351 38.6974 45.9444C38.7371 45.8639 38.7869 45.7839 38.8255 45.7026L38.8438 45.6618C38.8447 45.6597 38.9339 45.3733 38.865 45.4006L38.8591 45.4035C38.8239 45.4239 38.7958 45.3787 38.8185 45.3499C38.916 45.2269 39.0517 45.3358 39.1073 45.4497C39.2605 45.763 38.9798 46.2547 38.8718 46.5547L38.8659 46.5715C38.5309 47.5396 38.1515 48.4895 37.7628 49.4361C37.0176 51.2511 36.217 53.0381 35.4182 54.8283L35.4087 54.8591V54.8591C35.579 54.7258 35.7609 54.6048 35.9167 54.4871C36.3096 54.1899 36.7139 53.9074 37.1177 53.6258C37.8581 53.1094 38.6185 52.6271 39.3916 52.1638L39.5464 52.0714C39.9325 51.8417 40.315 51.6555 40.7734 51.7244C41.1992 51.7885 41.5951 52.022 41.9798 52.2117L42.0195 52.2312L43.2082 52.8081C43.0812 52.2908 42.9436 51.7759 42.8 51.2631C42.5201 50.2627 42.212 49.2707 41.8779 48.2875C41.5659 47.369 41.2286 46.4605 40.8719 45.5591L40.7645 45.2886C40.619 44.9175 40.4744 44.5129 40.0586 44.3986C39.6431 44.2844 39.1666 44.4538 38.7868 44.212C38.7523 44.19 38.7566 44.1319 38.7984 44.1212L39.0328 44.0609C39.4727 43.9492 39.9885 43.8368 40.4045 43.9455C40.8572 44.0639 41.2317 44.4517 41.4514 44.8549C41.6956 45.3035 41.8677 45.8055 42.0531 46.2838L42.0825 46.3591C42.2952 46.9004 42.4998 47.4449 42.6955 47.9929C43.0869 49.0882 43.4432 50.1967 43.7658 51.3152C43.9212 51.8542 44.0686 52.3958 44.2104 52.9388C44.2511 53.0949 44.3183 53.2843 44.3734 53.4817C44.4366 53.5447 44.4964 53.6149 44.5525 53.6949C44.6456 53.8278 44.5788 53.9835 44.4631 54.063C44.4586 54.1989 44.429 54.3267 44.3583 54.4363C44.0823 54.864 43.3526 54.7538 43.3823 54.1788C43.3867 54.0908 43.4203 54.0068 43.4712 53.9358L43.4698 53.9242V53.9242L43.464 53.9032V53.9032C43.3373 53.8412 43.2101 53.7721 43.076 53.7045L41.8285 53.0752V53.0752C41.4672 52.8929 41.0667 52.6113 40.6649 52.5418C40.2904 52.4771 39.8951 52.7619 39.5733 52.9338L39.5524 52.9449C38.7743 53.352 38.002 53.7727 37.2327 54.1967C36.8572 54.4038 36.4866 54.6195 36.1125 54.829C35.7997 55.0042 35.4621 55.2558 35.1106 55.3546C34.9604 55.4738 34.782 55.4579 34.6386 55.3677C34.7042 55.7819 34.7001 56.207 34.7202 56.6305C34.7473 57.1967 34.7514 57.7644 34.7603 58.3313L34.764 58.5438C34.7876 59.7972 34.8002 61.0508 34.8049 62.3044C34.8215 66.7682 34.7732 71.2334 34.7619 75.6972C34.7562 77.94 34.7127 80.1847 34.6556 82.4267C34.6314 83.3767 34.5808 84.3255 34.5261 85.2741L34.4961 85.7914C34.4324 86.8831 34.3949 87.9868 34.1969 89.0638C34.1711 89.2042 33.9382 89.2078 33.9154 89.0638C33.7332 87.9098 33.7231 86.7305 33.688 85.563L33.6806 85.3296C33.6385 84.0761 33.6185 82.8233 33.6228 81.569C33.6384 77.1034 33.7521 72.6405 33.8451 68.1762C33.8919 65.9331 33.9234 63.6891 33.996 61.4467C34.0323 60.3247 34.0735 59.2035 34.1222 58.082C34.144 57.5812 34.165 57.081 34.1976 56.581L34.2123 56.3667C34.2224 56.2269 34.2306 56.0888 34.2405 55.952C33.7979 56.117 33.3931 55.8115 32.995 55.6024C32.5361 55.3614 32.0774 55.1201 31.6184 54.8795L31.1589 54.6395V54.6395L30.2395 54.1605C29.8255 53.9448 29.5066 53.7302 29.065 53.9832C27.4743 54.8942 26.0125 56.1065 24.6878 57.3785C24.4338 57.6225 23.897 57.5569 23.8326 57.1481C23.5578 55.4015 23.7249 53.6296 23.8653 51.8776L23.917 51.2272C23.9797 50.4504 24.048 49.6735 24.1389 48.8998C24.1796 48.5537 24.2201 48.2078 24.265 47.8624L24.2995 47.6034C24.3555 47.194 24.3921 46.787 24.5116 46.3943C24.4739 46.3818 24.4377 46.3614 24.4052 46.33C24.046 45.9821 24.2192 45.3784 24.3831 44.9645C24.5449 44.556 24.7918 44.1994 25.1009 43.8926C25.1683 43.8255 25.2633 43.7824 25.3588 43.7802C26.1082 43.2733 26.9303 43.0204 27.786 43.297C27.81 43.1797 27.8345 43.0626 27.8603 42.9458L27.8866 42.829C27.9531 42.5392 27.9778 42.0604 28.2228 41.8665ZM35.9034 87.64C36.136 87.5747 36.3906 87.6435 36.561 87.8175C36.7313 87.9914 36.7988 88.2513 36.7347 88.4887C36.7026 88.6056 36.6447 88.707 36.561 88.7932C36.4827 88.8726 36.3913 88.9292 36.287 88.9632L36.2627 88.9706L36.2247 88.9867C36.1081 89.0187 35.9915 89.0187 35.875 88.9867C35.7636 88.9548 35.6668 88.8973 35.5847 88.8141C35.5032 88.7303 35.4468 88.6315 35.4155 88.5177C35.3842 88.3987 35.3842 88.2797 35.4155 88.1607L35.4314 88.1219V88.1219C35.4635 88.005 35.5214 87.9035 35.6051 87.8175C35.6895 87.732 35.7889 87.6728 35.9034 87.64ZM49.7116 63.9831C49.7498 63.9384 49.8118 63.9957 49.788 64.0433C49.4258 64.7683 49.0221 65.488 48.6253 66.1945C48.6571 66.3904 48.6886 66.5846 48.7248 66.7739C48.8794 67.5809 49.0688 68.3733 49.1922 69.188C49.6359 72.1162 49.8662 75.0762 50.0639 78.0308C50.2621 80.9959 50.2875 83.9623 50.3173 86.9333C50.3199 87.1908 50.1258 87.49 49.8659 87.5386C49.7468 87.5608 49.6578 87.5565 49.539 87.5386C49.2684 87.4979 49.0992 87.1815 49.0876 86.9333C49.01 85.2729 48.9056 83.6146 48.7847 81.9567C48.5704 79.0175 48.4394 76.0707 48.2663 73.1285L48.2053 72.1001C48.1399 70.9859 48.08 69.8709 48.0605 68.755C48.0476 68.0157 48.0863 67.2766 48.0625 66.5382C48.0405 65.8564 47.9728 65.1151 48.12 64.4453C48.1255 64.4202 48.1643 64.4139 48.1756 64.4379C48.3286 64.7669 48.4256 65.1245 48.5003 65.4895C48.8949 64.9801 49.2966 64.4696 49.7116 63.9831ZM23.8688 45.9745C23.9242 45.9703 23.922 46.0553 23.8688 46.0616C23.0945 46.1532 22.3466 46.4749 21.6155 46.7483L21.5529 46.7716C20.8143 47.0452 20.0943 47.3633 19.4013 47.7425C18.0464 48.4839 16.8023 49.4399 15.7022 50.5342C11.3104 54.903 9.30894 61.2029 7.84236 67.1232C7.02751 70.4125 6.44805 73.7574 6.07247 77.128C5.88675 78.7949 5.75546 80.4682 5.67892 82.144C5.63974 83.0029 5.61503 83.8626 5.60471 84.7224C5.59939 85.1627 5.59784 85.6032 5.59836 86.0436C5.59861 86.2455 5.6339 86.4996 5.58104 86.6955C5.532 86.877 5.3937 87.0369 5.2914 87.1881C5.17017 87.3676 4.95228 87.3581 4.82936 87.1881L4.78403 87.1263C4.65293 86.9487 4.52466 86.779 4.50593 86.547C4.48589 86.2982 4.50003 86.0418 4.49912 85.792C4.49704 85.2886 4.50314 84.7852 4.513 84.282C4.53201 83.3174 4.56924 82.3532 4.62457 81.3901C4.73692 79.4356 4.92186 77.485 5.18664 75.5459C5.65732 72.099 6.36281 68.6851 7.28691 65.3354C8.15872 62.1754 9.19153 59.0247 10.6628 56.0976C12.0289 53.3798 13.8211 50.8516 16.1859 48.9522C17.2856 48.0689 18.4827 47.3328 19.7734 46.7785C20.4243 46.4989 21.1079 46.2706 21.803 46.1405C22.4905 46.0118 23.175 46.0298 23.8688 45.9745ZM36.0367 82.0545C36.1595 82.0535 36.2964 82.0811 36.4018 82.1504L36.5425 82.2615V82.2615C36.5807 82.3115 36.6186 82.3617 36.6564 82.412C36.7444 82.5291 36.7561 82.7185 36.7378 82.8581C36.7336 82.9512 36.7065 83.0379 36.6564 83.1182L36.5493 83.2598V83.2598C36.4462 83.3456 36.3604 83.4068 36.2356 83.448C36.1704 83.4695 36.1076 83.4741 36.045 83.4708L36.0242 83.4694L36.0367 83.4711L36.0148 83.4686V83.4686C35.9944 83.4668 35.974 83.4646 35.9535 83.4617C35.9395 83.46 35.9255 83.4589 35.9116 83.4569C35.8981 83.4558 35.8852 83.4552 35.8716 83.4565C35.7131 83.4717 35.5537 83.38 35.4411 83.2745C35.3397 83.1795 35.2487 82.978 35.2629 82.8352L35.2689 82.7755C35.2796 82.6747 35.2884 82.6351 35.3301 82.534C35.3708 82.4356 35.4275 82.3488 35.5048 82.2754C35.6527 82.1349 35.8337 82.0559 36.0367 82.0545ZM35.5459 74.6851C35.7564 74.451 36.1177 74.4338 36.3787 74.5754C36.4423 74.61 36.5007 74.6654 36.5567 74.7116C36.6979 74.8282 36.7534 75.0384 36.7612 75.2156C36.7689 75.3907 36.6784 75.5987 36.5567 75.7196L36.5272 75.7488V75.7488C36.4545 75.821 36.3503 75.8838 36.2486 75.9029C36.0845 75.9337 35.9468 75.9327 35.794 75.8669C35.6627 75.8104 35.5496 75.7195 35.4727 75.5962L35.4602 75.5753C35.4549 75.5667 35.4499 75.5579 35.4452 75.5489L35.4385 75.5353C35.2922 75.2483 35.3316 74.9234 35.5459 74.6851ZM35.6549 67.277C35.7498 67.2466 35.8447 67.2423 35.9396 67.264C36.004 67.2641 36.064 67.2807 36.1197 67.3137C36.1802 67.3309 36.2327 67.3622 36.2772 67.4074C36.3308 67.4397 36.3735 67.4833 36.4052 67.5381C36.4684 67.6085 36.5109 67.6911 36.533 67.7859L36.5585 67.9796L36.533 68.1733L36.461 68.3474V68.3474C36.4412 68.3738 36.4213 68.4002 36.4012 68.4264C36.3694 68.4813 36.3266 68.5251 36.2729 68.5575C36.2379 68.593 36.1978 68.6195 36.153 68.638C35.9941 68.7542 35.7823 68.7922 35.594 68.7392C35.4822 68.7073 35.3851 68.6495 35.3028 68.566C35.221 68.4819 35.1643 68.3827 35.1331 68.2686L35.1202 68.1775C35.1036 68.0553 35.1009 67.9876 35.1348 67.8322C35.1497 67.7638 35.1928 67.6675 35.2154 67.6269C35.3119 67.4537 35.4696 67.3349 35.6549 67.277ZM43.8952 61.9473C44.1677 61.9454 44.4401 61.9459 44.7126 61.949L44.9169 61.9518C45.2591 61.9573 45.5522 61.9212 45.8212 62.1636C46.0164 62.3395 45.9304 62.6346 45.7451 62.7671C45.4643 62.9677 45.1121 62.8668 44.7893 62.8447C44.4489 62.8214 44.1082 62.8021 43.7674 62.7864C43.1075 62.7563 42.4473 62.7371 41.7868 62.7341C41.1277 62.7313 40.4676 62.7376 39.8085 62.7485C39.1379 62.7596 38.4397 62.8234 37.7729 62.7525C37.6813 62.7428 37.6607 62.6198 37.7511 62.5878C38.3795 62.3659 39.0863 62.294 39.7448 62.2092C40.4241 62.1216 41.1033 62.0596 41.7868 62.0194C42.4888 61.9783 43.1919 61.9524 43.8952 61.9473ZM35.6537 59.7677L35.6762 59.7682C35.7961 59.7685 35.9084 59.7973 36.013 59.8546L36.0353 59.8673L36.1793 59.9808C36.2675 60.0715 36.3285 60.1784 36.3623 60.3014L36.3877 60.4945V60.4945C36.3915 60.5945 36.371 60.6877 36.3265 60.7743C36.2977 60.8644 36.2487 60.9423 36.1793 61.0081C36.1149 61.0789 36.0385 61.129 35.9504 61.1583C35.872 61.2002 35.7882 61.2213 35.6987 61.2213L35.6762 61.2209C35.5478 61.2204 35.4281 61.1874 35.3171 61.1217L35.1731 61.0081V61.0081C35.0849 60.9174 35.0239 60.8106 34.9901 60.6876L34.9646 60.4945V60.4945C34.961 60.3945 34.9814 60.3011 35.026 60.2146C35.0547 60.1246 35.1037 60.0466 35.1731 59.9808C35.2375 59.91 35.3138 59.86 35.4021 59.8307C35.4804 59.7887 35.5642 59.7677 35.6537 59.7677V59.7677ZM37.7631 42.7044C37.9164 42.4777 38.1942 42.6793 38.1544 42.8616C38.1649 43.3734 38.1906 43.8701 38.3047 44.3715C38.3569 44.601 38.4253 44.8308 38.5308 45.041L38.5752 45.1296C38.7118 45.4051 38.8178 45.665 38.6339 45.9672C38.5471 46.1097 38.3904 46.2167 38.2205 46.2093C37.4671 46.1761 37.3636 45.1055 37.3178 44.5078C37.2705 43.8923 37.4174 43.2158 37.7631 42.7044Z" fill="black"/>
<path fill-rule="evenodd" clip-rule="evenodd" d="M44.4914 29.7534C44.4656 28.2699 44.4371 26.7568 44.2211 25.2877C44.0099 23.8515 43.4289 22.5533 42.4304 21.5104C40.3097 19.2951 37.2357 18.754 34.3743 18.2581L29.4821 17.4103C27.9895 17.1517 26.3972 16.7383 24.8893 17.1051C24.1462 17.2858 23.5152 17.7056 22.9385 18.2024C22.3826 18.6811 21.7849 19.1953 21.4082 19.8394C21.0309 20.4845 20.9011 21.2386 20.7784 21.9681C20.64 22.7907 20.5325 23.6196 20.4562 24.4506C20.3032 26.1154 20.2823 27.7927 20.3933 29.4609C20.4471 30.2701 20.5326 31.0769 20.6418 31.8802C20.696 32.2785 20.7572 32.6759 20.8264 33.0718C20.8468 33.1885 20.8623 33.3178 20.8832 33.4484C20.7288 33.8964 20.6411 34.3605 20.6482 34.8225C20.669 36.1835 21.7943 37.0403 22.9287 37.5004C23.5864 37.7671 24.2741 37.9483 24.9203 38.2463C25.6002 38.5598 26.063 39.0679 26.5278 39.6475C27.4144 40.753 28.4148 41.7466 29.5572 42.5756C31.9792 44.3331 35.0469 45.1644 37.9856 44.5335C38.6907 44.3821 39.402 44.147 40.0359 43.7928C40.705 43.4188 41.2082 42.8769 41.6307 42.2362C42.4153 41.0468 42.978 39.7075 43.4036 38.3446C43.8378 36.9544 44.146 35.5616 44.314 34.1119C44.4815 32.667 44.5168 31.2073 44.4914 29.7534V29.7534Z" fill="white"/>
<path fill-rule="evenodd" clip-rule="evenodd" d="M28.8807 12.2425C30.9052 11.9582 33.6995 12.8822 34.7077 14.7453C39.5212 13.5868 45.5923 13.5489 49.5596 17.4054C53.6994 21.9801 48.4997 28.0119 45.0518 29.3718C45.3028 30.6172 44.9114 38.5959 42.1419 42.1549C39.944 45.1703 34.8255 46.562 32.457 42.9602L32.4385 42.9305C32.1848 42.5146 32.4033 42.5279 32.6638 42.8373C34.9831 44.9195 38.1364 44.955 40.5664 42.7577C45.1206 38.7413 44.651 28.8936 42.484 23.1965C36.3132 22.5046 29.7062 24.4139 25.4441 29.156L25.7323 30.9273C25.7814 31.2291 25.8372 31.5306 25.8797 31.8334C25.907 32.0274 25.91 32.2204 25.7784 32.3775C25.3436 32.896 24.6108 32.1168 24.0078 31.8069C23.8298 31.7813 23.6515 31.7715 23.4766 31.7841C20.5798 32.165 21.1506 37.9017 24.3344 36.8962C24.6019 36.726 24.8317 36.7779 24.9355 37.0248C25.6944 37.7344 26.1947 39.0001 27.4556 40.2191C27.9004 40.6763 28.3053 41.0589 28.8056 41.4257C29.0996 41.7291 29.9864 42.0385 29.7053 42.5578C29.1736 43.7393 26.0385 40.0279 25.4843 39.0015C23.7476 39.7016 21.823 39.4638 20.0232 39.2927C10.5286 38.7888 11.7961 28.5715 19.5786 22.1208C21.0436 21.0198 22.6599 20.1216 24.34 19.4304C24.5694 19.3361 24.4691 18.9516 24.2365 19.0473C23.1248 19.5047 22.0411 20.0491 21.008 20.6792L21.0065 20.3025C21.005 19.668 21.0147 19.0074 21.1227 18.4277C21.1766 18.026 21.2674 17.597 21.4071 17.2742C21.5798 16.2847 24.2858 12.888 28.8807 12.2425ZM23.3499 33.1011C23.4965 32.9589 23.7702 33.1285 23.9007 33.1242C24.2344 33.1708 24.5515 33.3147 24.7988 33.4923C24.962 33.5857 25.0765 33.6734 25.1721 33.7541L25.1747 33.7533C25.174 33.7533 25.1731 33.7541 25.1723 33.7543L25.1813 33.7605C25.3205 33.8614 25.8302 34.4302 25.5082 34.2773C25.4842 34.2454 25.4596 34.2148 25.4348 34.1848C25.4321 34.1889 25.4284 34.193 25.424 34.1969L25.4421 34.2243C25.7158 34.6446 25.2433 34.2018 25.1706 34.0842C25.1672 34.087 25.1633 34.0889 25.1594 34.091L25.2541 34.2086C25.2673 34.2253 25.2777 34.2386 25.2864 34.2499L25.3063 34.2696C25.6228 34.5871 25.6327 34.8729 25.265 34.4034C25.2795 34.4255 25.2911 34.449 25.2927 34.4698L25.3145 34.4981C25.6032 34.8778 25.3684 34.743 25.225 34.5808L25.213 34.5669L25.2154 34.5706C25.3488 34.7805 25.0841 34.6333 25.0373 34.521L25.0353 34.5159C24.9844 34.4735 24.953 34.4258 24.9422 34.4138L24.9403 34.4118C24.6921 34.1522 24.3323 33.9325 24.0267 33.8327C23.9824 33.8241 23.9376 33.8172 23.8923 33.8123C23.7086 33.7705 23.5228 33.7418 23.3351 33.7263C23.3121 33.7235 23.2888 33.7063 23.2714 33.6841C22.9875 33.6743 23.0752 33.5555 23.193 33.5334L23.195 33.5331L23.1716 33.5311C22.9895 33.5129 22.8651 33.4462 23.0493 33.4052L23.0726 33.4005C23.0697 33.3959 23.0672 33.3914 23.0648 33.3868C22.907 33.3691 23.0099 33.2126 23.0975 33.2504C23.0607 33.1275 23.2291 33.1889 23.2501 33.1706C23.2661 33.1524 23.286 33.1364 23.2975 33.1355C23.3482 33.099 23.3236 33.1023 23.3499 33.1011ZM24.3152 31.1101L24.2782 31.1322C24.2483 31.15 24.2175 31.1618 24.1867 31.1688C24.2302 31.1877 24.2733 31.2082 24.3159 31.23C24.3152 31.2033 24.3148 31.1767 24.3148 31.15L24.3152 31.1101Z" fill="black"/>
<path fill-rule="evenodd" clip-rule="evenodd" d="M36.6429 40.1326C36.2069 39.9509 35.8178 39.648 35.5334 39.2611C35.4345 39.1265 35.4088 38.9845 35.4296 38.8545C35.4529 38.7084 35.5376 38.576 35.653 38.4872C35.7689 38.3981 35.9137 38.3542 36.0538 38.3766C36.1755 38.3961 36.2967 38.4641 36.3926 38.6052L36.4126 38.6334C36.5817 38.867 36.8021 39.0586 37.0532 39.1821C37.2952 39.3012 37.5658 39.3567 37.8459 39.3244C38.3794 39.2629 38.7471 38.9684 39.1379 38.5684C39.1863 38.5179 39.2348 38.4658 39.2835 38.4129C39.3143 38.365 39.3569 38.3341 39.4043 38.3179C39.457 38.3 39.5165 38.301 39.571 38.3204C39.6236 38.3392 39.6706 38.3747 39.7021 38.4219C39.7321 38.4668 39.7491 38.5223 39.7436 38.5861C39.7078 39.0006 39.4955 39.3705 39.194 39.661C38.8591 39.9836 38.4152 40.2068 37.9973 40.285C37.5369 40.3712 37.0678 40.3095 36.6429 40.1326V40.1326ZM38.2145 33.7382C38.7044 34.0422 39.4507 34.751 38.9238 35.5045C38.3035 36.169 37.4104 35.4071 36.9704 35.0626C36.5623 34.7956 36.1038 35.4823 36.4824 35.7941C39.6625 38.1977 40.953 33.8177 38.4623 33.3809C38.188 33.3327 38.0862 33.6442 38.2145 33.7382ZM32.5159 30.9423C32.57 30.2565 33.5931 30.1008 33.6949 30.7794C33.7861 31.3873 33.6788 31.9458 33.4105 32.4931C33.1542 33.016 32.5101 32.772 32.4614 32.2959C32.3961 31.6577 32.4822 31.3689 32.5159 30.9423ZM40.3041 30.6387C40.4467 30.448 40.6527 30.3178 40.8994 30.3914C41.6704 30.6214 41.4431 31.7387 41.1724 32.2826C41.0253 32.5779 40.5497 32.6528 40.3348 32.3928C39.9845 31.9687 39.8168 31.1218 40.2621 30.7041C40.2742 30.6825 40.2876 30.6607 40.3041 30.6387ZM33.3997 27.9414L33.5215 27.9197C33.8982 27.8532 34.3666 27.7893 34.6331 28.0985C34.7745 28.2624 34.8231 28.5672 34.6331 28.7241C34.2989 29.0003 33.9294 28.8932 33.529 28.9166C33.1989 28.936 32.8817 28.9917 32.5638 29.0845C31.8664 29.288 31.2981 29.6595 30.7024 30.0674C30.6242 30.1209 30.5444 30.0189 30.5817 29.9442C30.9256 29.2567 31.592 28.6919 32.2594 28.3476C32.6157 28.1638 33.0055 28.0114 33.3997 27.9414ZM39.6013 27.6334L39.6945 27.6529C40.7088 27.8694 42.0267 28.3018 42.507 29.3189C42.5254 29.4627 42.506 29.4935 42.4903 29.5137L42.4851 29.5204C42.4721 29.5376 42.4618 29.5613 42.4007 29.5808C42.3837 29.5767 42.3666 29.5724 42.3493 29.5677C42.1292 29.5088 41.9549 29.4277 41.7863 29.3435L41.6034 29.2515C41.3913 29.1453 41.1773 29.043 40.9505 28.9674C40.4664 28.8063 39.9685 28.6927 39.4629 28.6321C39.3533 28.619 39.2478 28.5812 39.1646 28.5165C39.0855 28.4551 39.0252 28.37 38.9977 28.257C38.962 28.1107 38.9722 28 39.0491 27.868C39.1069 27.7689 39.1897 27.7002 39.2846 27.6607C39.3815 27.6205 39.4917 27.611 39.6013 27.6334Z" fill="black"/>
</g>
<defs>
<clipPath id="clip0_240_6327">
<rect width="52" height="78" fill="white" transform="translate(4 10)"/>
</clipPath>
</defs>
</svg>
