<svg width="72" height="98" viewBox="0 0 72 98" fill="none" xmlns="http://www.w3.org/2000/svg">
<path fill-rule="evenodd" clip-rule="evenodd" d="M15.9373 88.8191C24.2423 90.0822 32.698 90.1458 41.0721 89.6871C44.3862 89.4387 47.7105 89.3939 51.022 89.7115C52.9787 89.8572 61.5581 90.5139 62.2591 88.7591C61.8179 79.4147 60.9244 69.9908 58.1833 61.0038C57.056 57.8128 56.0878 55.1643 53.8876 52.5236C53.1942 51.8026 51.6988 50.2905 50.842 49.7973C50.0996 49.3702 49.7893 49.5226 49.3631 48.801C48.9395 48.0039 48.6271 46.6727 48.0256 46.1103C47.4132 45.5376 46.5057 45.7425 45.3808 45.9269C45.5875 43.1307 44.2984 42.4185 42.5225 41.8868C39.4009 40.6939 36.3181 41.2932 35.5324 45.0981C34.0756 45.0981 33.2573 45.7258 32.3727 46.3289C32.0111 46.5755 32.2626 47.2036 31.8307 47.3974C31.0315 47.6823 29.6193 47.6125 28.8498 47.9632C25.3507 49.5576 22.2342 51.8698 20.1875 55.2466C15.599 62.4562 12.4471 77.6431 12.9925 86.1881C12.7535 86.5633 13.084 87.1014 13.168 87.5049C13.274 87.8558 13.6173 88.0893 13.9757 88.0494C14.4757 88.5878 15.2491 88.7077 15.9373 88.8191Z" fill="white"/>
<path fill-rule="evenodd" clip-rule="evenodd" d="M50.3127 49.586C50.2618 49.5575 50.3066 49.4846 50.3579 49.5087C52.8209 50.6657 54.7104 52.6954 56.0399 55.0407C57.4165 57.4691 58.2012 60.2262 58.8776 62.921L58.902 63.0184C59.6234 65.9011 60.2367 68.8137 60.7888 71.7334C61.3481 74.6901 61.7969 77.6651 62.158 80.6524C62.3366 82.1294 62.4959 83.6091 62.6201 85.0917C62.6821 85.8326 62.7385 86.5741 62.7892 87.3159C62.8094 87.6125 62.8285 87.9092 62.8448 88.2061L62.8566 88.4289C62.8667 88.6309 62.8906 88.8334 62.8408 89.0327C62.7978 89.2045 62.7069 89.3601 62.627 89.5178C62.469 89.8296 62.0358 89.7782 61.8655 89.5178L61.816 89.442C61.7031 89.2672 61.6092 89.1048 61.5738 88.8873C61.5395 88.6767 61.5383 88.456 61.5229 88.2433C61.4946 87.8519 61.4705 87.4601 61.443 87.0686C61.3854 86.2444 61.3206 85.4208 61.2489 84.5978C61.1071 82.973 60.9549 81.3497 60.7681 79.7294C60.4362 76.8498 60.0196 73.9778 59.5285 71.1211C59.0487 68.3305 58.4421 65.5682 57.8093 62.8094L57.7438 62.524C56.6358 57.7072 54.9282 52.1601 50.3127 49.586ZM24.0783 68.4474C24.0965 68.3992 24.1744 68.3881 24.1876 68.4474C24.3535 69.1953 24.3699 69.9657 24.3952 70.7315C24.4202 71.4869 24.4192 72.2458 24.4082 73.0016C24.3676 75.7796 24.2915 78.5552 24.2256 81.3326C24.1927 82.722 24.1618 84.1115 24.1381 85.501C24.1291 86.0222 24.1216 86.5433 24.1153 87.0645L24.1077 87.7518C24.1039 88.0557 24.0959 88.3559 24.0589 88.6595C24.0345 88.8592 23.9825 89.0496 23.8724 89.2208C23.7942 89.3423 23.6829 89.404 23.5743 89.4865L23.554 89.5023C23.4156 89.6118 23.2697 89.6126 23.1326 89.5023L23.0928 89.4707C22.9618 89.3681 22.8486 89.288 22.765 89.1258C22.6487 88.9003 22.63 88.6553 22.6103 88.4068C22.5803 88.03 22.6002 87.6476 22.604 87.2697C22.6118 86.5117 22.6223 85.7537 22.6356 84.9957C22.6843 82.2159 22.7807 79.4357 22.9563 76.6609C23.0391 75.354 23.1513 74.0427 23.3018 72.741L23.3304 72.4971C23.3761 72.1141 23.4177 71.7243 23.4646 71.3332C22.7643 70.84 22.1487 70.2415 21.6237 69.5626C21.5851 69.5126 21.6487 69.4426 21.6954 69.4909C22.2318 70.047 22.8468 70.4904 23.5277 70.839C23.6393 70.0204 23.7927 69.2061 24.0783 68.4474ZM35.7785 43.6687C35.7881 43.6613 35.8031 43.658 35.8123 43.6687C35.9628 43.8444 35.9323 44.1131 35.9371 44.3358L35.9377 44.3565C35.9485 44.6821 35.9505 45.0067 35.9494 45.3324L35.9461 46.3694C35.9456 46.512 35.9341 46.6604 35.9414 46.8038L35.9452 46.8593C36.0243 46.9404 36.061 47.0576 36.0342 47.1753C36.0293 47.3263 35.9505 47.4522 35.8355 47.5314L36.082 47.8815L36.3287 48.2315C36.8372 48.9536 37.3513 49.6693 37.887 50.3715C38.4334 51.0876 39.0162 51.7766 39.6261 52.4391C39.924 52.7628 40.227 53.082 40.5371 53.3941C40.6631 53.5209 40.7923 53.6446 40.92 53.7697L41.0471 53.8954C41.1222 53.9706 41.2166 54.0449 41.2665 54.1402C41.2958 54.1964 41.3025 54.3349 41.3129 54.3578C41.407 54.5649 41.2465 54.8951 40.9798 54.7918L40.9919 54.7837C41.0404 54.7499 41.0093 54.7494 40.8985 54.7823C40.8285 54.782 40.763 54.7659 40.7017 54.734L40.6835 54.724C40.5972 54.6801 40.5202 54.5951 40.4501 54.5272L40.4328 54.5106C40.2725 54.3603 40.1197 54.2008 39.9662 54.0437C39.6456 53.7158 39.3322 53.3809 39.0289 53.0371C38.4237 52.351 37.85 51.6372 37.3067 50.9012C36.7532 50.1516 36.2388 49.3634 35.7964 48.543C35.6285 48.2316 35.4746 47.9142 35.3271 47.5932C35.0399 47.5009 34.9732 47.195 34.9932 46.8505C34.8873 46.6034 34.7918 46.3512 34.7353 46.0935C34.7276 46.0582 34.773 46.0249 34.8001 46.0558C34.892 46.1603 34.977 46.2716 35.0588 46.3857C35.1081 46.1441 35.1705 45.9218 35.1999 45.78L35.3272 45.1545C34.6097 45.117 33.8235 45.4122 33.3288 45.9289C33.3023 46.0635 33.1988 46.1598 33.098 46.2856C32.9828 46.4294 32.8823 46.5907 32.8074 46.7594C32.6411 47.1335 32.735 47.6846 32.4124 47.959C32.3787 47.9876 32.3412 48.0075 32.3024 48.0197C32.4555 48.7713 32.386 49.5995 32.3827 50.362L32.3825 50.4291C32.3833 51.2825 32.3548 52.1365 32.3219 52.9892L32.2884 53.8331C32.245 54.9586 32.2168 56.0846 32.326 57.2039C32.8247 56.7616 33.3404 56.3396 33.8738 55.9375C34.2246 55.673 34.5823 55.418 34.9466 55.1725L35.2426 54.9745C35.5972 54.7364 35.9605 54.4913 36.3488 54.3208C36.8568 54.0978 37.3398 54.1745 37.8301 54.4032C38.3185 54.631 38.7923 54.8956 39.2713 55.1425C39.7585 55.3935 40.2467 55.6425 40.7346 55.892C41.0578 56.0574 41.5314 56.2067 41.7684 56.511C41.7835 56.4437 41.8012 56.3766 41.8218 56.3097C41.7982 56.2076 41.8073 56.0974 41.8645 55.9923C42.661 54.5268 43.398 53.0264 44.1298 51.5278C44.5002 50.7694 44.8524 50.002 45.2235 49.244L45.5843 48.5058C45.6445 48.3828 45.705 48.2599 45.7658 48.1372C45.8568 47.9535 45.9516 47.7716 46.0437 47.5884C46.0826 47.511 46.1313 47.4341 46.1692 47.3559L46.1871 47.3167C46.188 47.3147 46.2754 47.0394 46.2079 47.0657L46.2021 47.0685C46.1676 47.088 46.14 47.0446 46.1624 47.0169C46.2578 46.8987 46.3908 47.0034 46.4453 47.1128C46.5954 47.414 46.3204 47.8866 46.2146 48.175L46.2088 48.1911C45.8804 49.1216 45.5087 50.0347 45.1278 50.9446C44.3974 52.6891 43.6128 54.4068 42.83 56.1275L42.8207 56.1571C42.9876 56.029 43.1659 55.9127 43.3185 55.7995C43.7035 55.5139 44.0998 55.2423 44.4955 54.9717C45.2211 54.4753 45.9663 54.0117 46.7239 53.5664L46.8756 53.4775C47.254 53.2568 47.6289 53.0778 48.0781 53.1441C48.4954 53.2057 48.8834 53.4301 49.2604 53.6124L49.2993 53.6311L50.4642 54.1857C50.3397 53.6884 50.2049 53.1936 50.0642 52.7006C49.7898 51.739 49.4879 50.7855 49.1606 49.8406C48.8548 48.9577 48.5242 48.0844 48.1746 47.2181L48.0693 46.958C47.9268 46.6013 47.785 46.2124 47.3776 46.1026C46.9705 45.9928 46.5034 46.1556 46.1313 45.9232C46.0974 45.9021 46.1016 45.8462 46.1426 45.8359L46.3723 45.778C46.8034 45.6706 47.3089 45.5626 47.7166 45.667C48.1602 45.7808 48.5273 46.1536 48.7425 46.5412C48.9818 46.9723 49.1506 47.4548 49.3322 47.9146L49.361 47.987C49.5694 48.5073 49.7699 49.0307 49.9618 49.5574C50.3454 50.6102 50.6945 51.6756 51.0106 52.7507C51.1629 53.2688 51.3074 53.7894 51.4463 54.3113C51.4862 54.4614 51.5521 54.6434 51.6061 54.8332C51.6681 54.8937 51.7267 54.9611 51.7817 55.0381C51.8729 55.1658 51.8074 55.3155 51.694 55.3919C51.6896 55.5225 51.6606 55.6454 51.5913 55.7507C51.3208 56.1618 50.6057 56.0559 50.6348 55.5032C50.6392 55.4186 50.6721 55.3378 50.722 55.2696L50.7206 55.2585L50.7149 55.2383C50.5907 55.1787 50.4661 55.1123 50.3347 55.0473L49.1121 54.4424C48.758 54.2672 48.3656 53.9965 47.9718 53.9297C47.6047 53.8675 47.2174 54.1413 46.902 54.3066L46.8815 54.3172C46.119 54.7085 45.3621 55.1128 44.6083 55.5204C44.2403 55.7195 43.877 55.9268 43.5104 56.1282C43.2039 56.2966 42.8731 56.5384 42.5285 56.6334C42.3814 56.748 42.2065 56.7326 42.066 56.646C42.1303 57.0441 42.1263 57.4527 42.146 57.8598C42.1725 58.4039 42.1766 58.9496 42.1853 59.4945L42.1889 59.6988C42.212 60.9035 42.2244 62.1085 42.229 63.3134C42.2453 67.604 42.1979 71.8959 42.1868 76.1866C42.1812 78.3423 42.1386 80.4999 42.0826 82.6548C42.0589 83.5679 42.0093 84.48 41.9558 85.3917L41.9263 85.889C41.864 86.9383 41.8272 87.9992 41.6331 89.0344C41.6078 89.1694 41.3796 89.1728 41.3572 89.0344C41.1787 87.9251 41.1688 86.7916 41.1344 85.6694L41.1272 85.4451C41.0859 84.2402 41.0664 83.036 41.0705 81.8305C41.0858 77.5381 41.1972 73.2485 41.2884 68.9573C41.3342 66.8013 41.3651 64.6444 41.4363 62.4891C41.4719 61.4106 41.5122 60.3329 41.56 59.2549C41.5813 58.7736 41.6019 58.2927 41.6338 57.8121L41.6482 57.6062C41.6581 57.4718 41.6661 57.3391 41.6759 57.2076C41.2421 57.3662 40.8454 57.0725 40.4553 56.8716C40.0056 56.6399 39.5561 56.4079 39.1062 56.1768L38.6559 55.946L37.7549 55.4856C37.3492 55.2783 37.0366 55.072 36.6039 55.3152C35.045 56.1909 33.6124 57.3561 32.3142 58.5788C32.0653 58.8133 31.5392 58.7502 31.4762 58.3573C31.2068 56.6784 31.3706 54.9753 31.5082 53.2913L31.5588 52.6662C31.6203 51.9195 31.6872 51.1727 31.7763 50.4291C31.8162 50.0964 31.8559 49.764 31.8999 49.4319L31.9337 49.183C31.9886 48.7894 32.0245 48.3982 32.1416 48.0208C32.1046 48.0088 32.0691 47.9892 32.0373 47.959C31.6852 47.6246 31.855 47.0443 32.0156 46.6465C32.1742 46.2538 32.4161 45.9111 32.719 45.6161C32.7851 45.5517 32.8782 45.5103 32.9718 45.5081C33.7062 45.0209 34.5119 44.7778 35.3504 45.0437C35.374 44.931 35.398 44.8184 35.4233 44.7061L35.449 44.5939C35.5142 44.3153 35.5385 43.8551 35.7785 43.6687ZM43.3055 87.6658C43.5334 87.6031 43.7829 87.6692 43.9499 87.8364C44.1168 88.0036 44.183 88.2534 44.1202 88.4816C44.0888 88.5939 44.032 88.6914 43.9499 88.7743C43.8732 88.8506 43.7837 88.905 43.6814 88.9376L43.6576 88.9448L43.6204 88.9603C43.5061 88.9911 43.3918 88.9911 43.2777 88.9603C43.1685 88.9296 43.0737 88.8743 42.9932 88.7944C42.9133 88.7138 42.858 88.6189 42.8274 88.5095C42.7967 88.3951 42.7967 88.2807 42.8274 88.1663L42.843 88.129C42.8744 88.0167 42.9311 87.9191 43.0132 87.8364C43.0959 87.7542 43.1933 87.6973 43.3055 87.6658ZM56.8375 64.9271C56.875 64.884 56.9357 64.9391 56.9124 64.9849C56.5575 65.6817 56.1618 66.3735 55.7729 67.0526C55.8041 67.2409 55.835 67.4275 55.8705 67.6095C56.022 68.3852 56.2076 69.1468 56.3285 69.9299C56.7634 72.7445 56.9891 75.5896 57.1828 78.4295C57.3771 81.2796 57.4019 84.1309 57.4311 86.9866C57.4336 87.234 57.2435 87.5217 56.9887 87.5683C56.8721 87.5897 56.7848 87.5855 56.6684 87.5683C56.4032 87.5293 56.2374 87.2251 56.226 86.9866C56.15 85.3906 56.0477 83.7966 55.9292 82.2031C55.7192 79.378 55.5908 76.5455 55.4211 73.7175L55.3614 72.729C55.2973 71.6581 55.2386 70.5863 55.2195 69.5137C55.2068 68.8031 55.2447 68.0927 55.2214 67.3829C55.1999 66.7276 55.1335 66.0151 55.2778 65.3713C55.2831 65.3472 55.3212 65.341 55.3322 65.3642C55.4822 65.6804 55.5773 66.0241 55.6505 66.3749C56.0371 65.8853 56.4309 65.3946 56.8375 64.9271ZM31.5116 47.6173C31.5659 47.6133 31.5637 47.6949 31.5116 47.701C30.7528 47.7891 30.0198 48.0983 29.3034 48.361L29.242 48.3835C28.5182 48.6464 27.8125 48.9522 27.1334 49.3166C25.8056 50.0293 24.5864 50.9482 23.5084 52.0001C19.2044 56.1993 17.2429 62.2547 15.8057 67.9453C15.0071 71.1069 14.4393 74.322 14.0712 77.5617C13.8892 79.164 13.7605 80.7723 13.6855 82.3832C13.6471 83.2087 13.6229 84.035 13.6128 84.8614C13.6076 85.2847 13.6061 85.7081 13.6066 86.1314C13.6068 86.3254 13.6414 86.5696 13.5896 86.758C13.5415 86.9325 13.406 87.0861 13.3058 87.2315C13.1869 87.404 12.9734 87.3949 12.8529 87.2315L12.8085 87.172C12.68 87.0014 12.5543 86.8382 12.536 86.6152C12.5163 86.3761 12.5302 86.1297 12.5293 85.8895C12.5273 85.4057 12.5333 84.9218 12.5429 84.4381C12.5615 83.511 12.598 82.5842 12.6523 81.6585C12.7624 79.7798 12.9436 77.905 13.2031 76.041C13.6643 72.728 14.3557 69.4466 15.2613 66.2268C16.1157 63.1894 17.1279 60.161 18.5698 57.3475C19.9085 54.7352 21.6648 52.3051 23.9823 50.4794C25.06 49.6304 26.2332 48.9229 27.4981 48.3901C28.136 48.1213 28.8059 47.9019 29.4872 47.7769C30.1609 47.6532 30.8317 47.6704 31.5116 47.6173ZM43.4361 82.2971C43.5565 82.2962 43.6907 82.3227 43.7939 82.3893L43.9318 82.496C43.9692 82.5441 44.0064 82.5923 44.0435 82.6407C44.1297 82.7533 44.1412 82.9354 44.1232 83.0695C44.1191 83.159 44.0925 83.2423 44.0435 83.3195L43.9384 83.4557C43.8375 83.5381 43.7533 83.5969 43.6311 83.6365C43.5672 83.6572 43.5056 83.6616 43.4443 83.6584L43.4239 83.6571L43.4361 83.6588L43.4146 83.6563C43.3947 83.6546 43.3746 83.6525 43.3546 83.6497C43.3409 83.648 43.3272 83.647 43.3135 83.6451C43.3003 83.644 43.2876 83.6435 43.2743 83.6447C43.119 83.6593 42.9628 83.5711 42.8525 83.4698C42.7531 83.3784 42.6639 83.1847 42.6778 83.0475L42.6837 82.9901C42.6942 82.8933 42.7028 82.8552 42.7437 82.758C42.7835 82.6634 42.8391 82.5799 42.9149 82.5094C43.0598 82.3744 43.2372 82.2985 43.4361 82.2971ZM42.9552 75.2137C43.1614 74.9887 43.5156 74.9722 43.7713 75.1082C43.8336 75.1415 43.8908 75.1947 43.9457 75.2392C44.0841 75.3512 44.1385 75.5533 44.1461 75.7236C44.1537 75.8919 44.065 76.0919 43.9457 76.2081L43.9168 76.2362C43.8456 76.3055 43.7435 76.3659 43.6438 76.3842C43.483 76.4138 43.348 76.4129 43.1983 76.3496C43.0697 76.2953 42.9588 76.208 42.8834 76.0894L42.8712 76.0694C42.866 76.0611 42.8611 76.0526 42.8565 76.044L42.8499 76.0309C42.7066 75.755 42.7451 75.4427 42.9552 75.2137ZM43.062 68.0931C43.155 68.0638 43.2479 68.0597 43.341 68.0806C43.4041 68.0807 43.4629 68.0967 43.5175 68.1283C43.5767 68.1449 43.6282 68.175 43.6718 68.2184C43.7243 68.2495 43.7662 68.2914 43.7973 68.344C43.8592 68.4117 43.9009 68.4911 43.9225 68.5822L43.9475 68.7684L43.9225 68.9546L43.852 69.122C43.8326 69.1473 43.8131 69.1726 43.7934 69.1979C43.7622 69.2506 43.7203 69.2927 43.6676 69.3239C43.6333 69.358 43.594 69.3835 43.5501 69.4012C43.3943 69.513 43.1869 69.5495 43.0023 69.4985C42.8927 69.4679 42.7976 69.4123 42.7169 69.332C42.6367 69.2512 42.5812 69.1559 42.5506 69.0462L42.5379 68.9586C42.5217 68.8412 42.5191 68.7761 42.5523 68.6267C42.5669 68.561 42.6091 68.4684 42.6313 68.4294C42.7259 68.2629 42.8804 68.1488 43.062 68.0931ZM51.1374 62.9703C51.4045 62.9684 51.6715 62.9689 51.9385 62.9718L52.1388 62.9745C52.4741 62.9798 52.7613 62.9452 53.0249 63.1781C53.2163 63.3472 53.132 63.6308 52.9504 63.7582C52.6752 63.9511 52.33 63.8541 52.0137 63.8328C51.6801 63.8104 51.3462 63.7918 51.0122 63.7768C50.3655 63.7478 49.7186 63.7294 49.0712 63.7265C48.4253 63.7238 47.7784 63.7299 47.1325 63.7403C46.4754 63.751 45.7911 63.8123 45.1376 63.7442C45.0478 63.7348 45.0276 63.6166 45.1162 63.5859C45.732 63.3726 46.4248 63.3035 47.0701 63.2219C47.7358 63.1377 48.4014 63.0781 49.0712 63.0395C49.7592 63 50.4483 62.9751 51.1374 62.9703ZM43.0608 60.8752L43.0828 60.8757C43.2004 60.876 43.3104 60.9036 43.4129 60.9587L43.4348 60.9709L43.5759 61.08C43.6623 61.1672 43.7221 61.2699 43.7552 61.3882L43.7801 61.5738C43.7838 61.6699 43.7637 61.7595 43.7201 61.8428C43.6919 61.9293 43.6439 62.0042 43.5759 62.0675C43.5127 62.1355 43.4379 62.1836 43.3515 62.2118C43.2748 62.2521 43.1926 62.2724 43.1049 62.2724L43.0828 62.272C42.957 62.2715 42.8397 62.2398 42.731 62.1766L42.5898 62.0675C42.5034 61.9803 42.4436 61.8777 42.4105 61.7594L42.3855 61.5738C42.382 61.4777 42.4019 61.3879 42.4457 61.3048C42.4738 61.2182 42.5218 61.1433 42.5898 61.08C42.653 61.012 42.7277 60.9639 42.8142 60.9357C42.8909 60.8954 42.9731 60.8752 43.0608 60.8752ZM45.128 44.4741C45.2782 44.2562 45.5505 44.45 45.5115 44.6252C45.5218 45.1171 45.5469 45.5946 45.6587 46.0765C45.7099 46.2971 45.777 46.518 45.8804 46.7201L45.9238 46.8052C46.0577 47.07 46.1616 47.3198 45.9813 47.6103C45.8964 47.7473 45.7428 47.8501 45.5763 47.8429C44.8379 47.811 44.7365 46.782 44.6916 46.2075C44.6453 45.6159 44.7892 44.9657 45.128 44.4741Z" fill="black"/>
<path fill-rule="evenodd" clip-rule="evenodd" d="M51.7219 32.0255C51.6966 30.5996 51.6687 29.1451 51.457 27.7331C51.25 26.3526 50.6806 25.1048 49.7021 24.1024C47.6239 21.973 44.6113 21.4529 41.8071 20.9763L37.0127 20.1614C35.5501 19.9128 33.9896 19.5155 32.5118 19.868C31.7836 20.0417 31.1652 20.4453 30.6 20.9227C30.0552 21.3829 29.4695 21.8771 29.1004 22.4962C28.7306 23.1163 28.6034 23.8411 28.4832 24.5423C28.3476 25.3329 28.2422 26.1297 28.1674 26.9284C28.0174 28.5286 27.997 30.1408 28.1057 31.7444C28.1584 32.5221 28.2423 33.2976 28.3493 34.0697C28.4024 34.4526 28.4624 34.8345 28.5302 35.2151C28.5502 35.3273 28.5654 35.4515 28.5858 35.5771C28.4346 36.0077 28.3486 36.4537 28.3556 36.8978C28.376 38.206 29.4787 39.0296 30.5904 39.4718C31.235 39.7282 31.9089 39.9024 32.5423 40.1888C33.2085 40.4901 33.6621 40.9785 34.1176 41.5356C34.9864 42.5982 35.9668 43.5532 37.0864 44.35C39.4599 46.0394 42.4663 46.8384 45.3462 46.2319C46.0372 46.0864 46.7343 45.8605 47.3555 45.52C48.0113 45.1606 48.5044 44.6397 48.9185 44.0239C49.6873 42.8806 50.2387 41.5933 50.6559 40.2833C51.0814 38.947 51.3834 37.6082 51.5481 36.2149C51.7122 34.826 51.7468 33.423 51.7219 32.0255Z" fill="white"/>
<path fill-rule="evenodd" clip-rule="evenodd" d="M36.423 15.1944C38.407 14.9211 41.1454 15.8093 42.1334 17.6C46.8507 16.4865 52.8003 16.4501 56.6883 20.1569C60.7453 24.5541 55.6495 30.3518 52.2706 31.6589C52.5166 32.856 52.1331 40.5251 49.419 43.9459C47.265 46.8444 42.2489 48.182 39.9277 44.72L39.9096 44.6915C39.661 44.2917 39.8751 44.3045 40.1304 44.6019C42.4033 46.6032 45.4936 46.6374 47.875 44.5253C52.3381 40.6649 51.8779 31.1993 49.7542 25.7233C43.7068 25.0582 37.2319 26.8935 33.0551 31.4515L33.3375 33.1541C33.3857 33.4441 33.4403 33.7339 33.482 34.025C33.5087 34.2115 33.5117 34.397 33.3827 34.548C32.9566 35.0464 32.2384 34.2974 31.6475 33.9995C31.4731 33.975 31.2984 33.9655 31.127 33.9776C28.2881 34.3437 28.8474 39.8578 31.9675 38.8913C32.2297 38.7278 32.4549 38.7777 32.5566 39.015C33.3004 39.6971 33.7907 40.9136 35.0263 42.0853C35.4623 42.5248 35.859 42.8925 36.3494 43.2451C36.6374 43.5367 37.5066 43.8341 37.2311 44.3332C36.71 45.4688 33.6377 41.9015 33.0944 40.915C31.3925 41.5879 29.5064 41.3593 27.7426 41.1948C18.438 40.7104 19.6801 30.8897 27.3069 24.6893C28.7426 23.631 30.3266 22.7677 31.9731 22.1034C32.1979 22.0127 32.0996 21.6431 31.8717 21.7351C30.7822 22.1747 29.7202 22.698 28.7078 23.3037L28.7062 22.9416C28.7047 22.3317 28.7143 21.6968 28.8201 21.1396C28.873 20.7535 28.9619 20.3411 29.0988 20.0308C29.2681 19.0797 31.9199 15.8149 36.423 15.1944ZM31.0028 35.2435C31.1465 35.1069 31.4147 35.2698 31.5426 35.2657C31.8696 35.3105 32.1804 35.4489 32.4227 35.6196C32.5827 35.7093 32.6948 35.7936 32.7885 35.8711L32.7911 35.8704C32.7904 35.8704 32.7895 35.8711 32.7887 35.8713L32.7975 35.8773C32.934 35.9743 33.4334 36.5211 33.1179 36.374C33.0944 36.3434 33.0703 36.314 33.046 36.2852C33.0434 36.2891 33.0398 36.293 33.0354 36.2968L33.0532 36.3231C33.3214 36.7271 32.8583 36.3015 32.7871 36.1884C32.7837 36.1912 32.7799 36.193 32.7761 36.195L32.8689 36.308C32.8819 36.3241 32.8921 36.3369 32.9005 36.3477L32.9201 36.3667C33.2302 36.6718 33.2399 36.9465 32.8796 36.4953C32.8938 36.5165 32.9052 36.5391 32.9068 36.5591L32.9281 36.5863C33.211 36.9513 32.9809 36.8217 32.8403 36.6658L32.8286 36.6524L32.831 36.656C32.9618 36.8577 32.7023 36.7162 32.6565 36.6083L32.6545 36.6034C32.6046 36.5626 32.5738 36.5168 32.5633 36.5052L32.5613 36.5033C32.3181 36.2538 31.9656 36.0427 31.6661 35.9467C31.6227 35.9385 31.5787 35.9318 31.5344 35.9271C31.3543 35.8869 31.1722 35.8593 30.9882 35.8445C30.9657 35.8418 30.9429 35.8252 30.9259 35.8038C30.6477 35.7944 30.7336 35.6803 30.849 35.6591L30.851 35.6587L30.8281 35.6568C30.6496 35.6393 30.5276 35.5752 30.7082 35.5358L30.731 35.5313C30.7282 35.5269 30.7258 35.5225 30.7233 35.5181C30.5687 35.5011 30.6696 35.3506 30.7554 35.3871C30.7193 35.2689 30.8844 35.3279 30.905 35.3103C30.9207 35.2928 30.9402 35.2774 30.9514 35.2766C31.0011 35.2415 30.977 35.2447 31.0028 35.2435ZM31.9487 33.3298L31.9125 33.351C31.8832 33.3681 31.8531 33.3795 31.8228 33.3862C31.8655 33.4044 31.9077 33.4241 31.9495 33.4451C31.9488 33.4194 31.9483 33.3938 31.9483 33.3682L31.9487 33.3298Z" fill="black"/>
<path fill-rule="evenodd" clip-rule="evenodd" d="M44.0303 42.002C43.603 41.8274 43.2217 41.5363 42.9429 41.1643C42.846 41.035 42.8209 40.8985 42.8412 40.7736C42.8641 40.6332 42.9471 40.5059 43.0602 40.4205C43.1737 40.3349 43.3157 40.2927 43.453 40.3142C43.5722 40.3329 43.691 40.3983 43.7849 40.5339L43.8046 40.561C43.9703 40.7855 44.1863 40.9697 44.4323 41.0884C44.6695 41.2029 44.9348 41.2563 45.2092 41.2252C45.732 41.1661 46.0924 40.883 46.4754 40.4986C46.5228 40.45 46.5703 40.4 46.6181 40.3491C46.6482 40.303 46.69 40.2734 46.7365 40.2578C46.7881 40.2406 46.8464 40.2415 46.8998 40.2602C46.9514 40.2782 46.9974 40.3123 47.0283 40.3578C47.0577 40.4009 47.0743 40.4543 47.0689 40.5156C47.0339 40.914 46.8259 41.2696 46.5304 41.5487C46.2022 41.8588 45.7672 42.0733 45.3576 42.1486C44.9064 42.2314 44.4466 42.1721 44.0303 42.002ZM45.5705 35.8559C46.0505 36.148 46.7819 36.8293 46.2655 37.5536C45.6577 38.1922 44.7825 37.46 44.3512 37.1288C43.9513 36.8722 43.502 37.5323 43.873 37.832C46.9894 40.1422 48.2541 35.9323 45.8133 35.5123C45.5445 35.4661 45.4447 35.7655 45.5705 35.8559ZM39.9858 33.1684C40.0388 32.5092 41.0415 32.3596 41.1413 33.0119C41.2306 33.5962 41.1254 34.1329 40.8626 34.659C40.6114 35.1616 39.9801 34.9271 39.9324 34.4695C39.8684 33.856 39.9528 33.5785 39.9858 33.1684ZM47.6182 32.8766C47.758 32.6933 47.9598 32.5681 48.2017 32.6389C48.9572 32.8599 48.7345 33.9339 48.4692 34.4567C48.325 34.7406 47.859 34.8126 47.6484 34.5626C47.3051 34.155 47.1407 33.3409 47.5771 32.9394C47.5889 32.9187 47.6021 32.8977 47.6182 32.8766ZM40.8519 30.284L40.9713 30.2631C41.3405 30.1992 41.7995 30.1377 42.0607 30.4349C42.1992 30.5925 42.2469 30.8855 42.0607 31.0363C41.7332 31.3017 41.3711 31.1989 40.9786 31.2213C40.6552 31.2399 40.3443 31.2935 40.0328 31.3827C39.3493 31.5783 38.7923 31.9354 38.2086 32.3275C38.132 32.3789 38.0538 32.2808 38.0903 32.2091C38.4273 31.5482 39.0804 31.0053 39.7345 30.6744C40.0836 30.4978 40.4657 30.3512 40.8519 30.284ZM46.9295 29.988L47.0208 30.0067C48.0149 30.2147 49.3064 30.6303 49.7771 31.608C49.7951 31.7462 49.7761 31.7759 49.7607 31.7952L49.7556 31.8017C49.7429 31.8182 49.7327 31.841 49.6729 31.8598C49.6563 31.8558 49.6395 31.8516 49.6226 31.8472C49.4068 31.7906 49.2361 31.7126 49.0708 31.6316L48.8916 31.5432C48.6837 31.4412 48.474 31.3428 48.2517 31.2702C47.7773 31.1153 47.2894 31.0061 46.7939 30.9479C46.6865 30.9352 46.5831 30.8989 46.5015 30.8367C46.4241 30.7777 46.3649 30.696 46.3379 30.5873C46.303 30.4467 46.313 30.3403 46.3884 30.2134C46.445 30.1181 46.5261 30.0521 46.6192 30.0142C46.7141 29.9755 46.8221 29.9664 46.9295 29.988Z" fill="black"/>
</svg>
