<svg width="96" height="88" viewBox="0 0 96 88" fill="none" xmlns="http://www.w3.org/2000/svg">
<g clip-path="url(#clip0_240_6551)">
<path fill-rule="evenodd" clip-rule="evenodd" d="M46.4399 24.5993C46.163 20.0669 44.6881 14.9283 40.3472 12.703C30.7778 8.87332 20.0323 19.1315 19.3662 28.9839C18.2681 32.2979 19.842 34.2644 22.6069 36.3652C23.3698 37.3732 24.5236 37.9887 25.6625 38.523C39.2267 45.5405 47.9886 39.836 46.4399 24.5993Z" fill="white"/>
<path fill-rule="evenodd" clip-rule="evenodd" d="M7.53497 87.1C16.1399 88.401 24.9009 88.4665 33.5773 87.994C37.0111 87.7383 40.4555 87.6922 43.8865 88.0193C45.9139 88.1697 54.803 88.8458 55.5294 87.0384C55.0724 77.4126 54.1464 67.7049 51.3064 58.4479C50.1384 55.1603 49.1352 52.4323 46.8556 49.7122C46.1372 48.9695 44.5878 47.4118 43.7 46.9039C42.9308 46.4638 42.6094 46.6208 42.1677 45.8775C41.7288 45.0564 41.4051 43.6852 40.782 43.1058C40.1475 42.5159 39.2071 42.7269 38.0417 42.917C38.2558 40.0365 36.9202 39.303 35.0801 38.7552C31.8459 37.5264 28.6516 38.1437 27.8377 42.0631C26.3282 42.0631 25.4804 42.7097 24.5639 43.331C24.1891 43.585 24.4498 44.232 24.0023 44.4317C23.1742 44.7251 21.711 44.6533 20.9138 45.0144C17.2883 46.6569 14.0592 49.0386 11.9386 52.5171C7.18446 59.9434 3.91873 75.5879 4.48385 84.3897C4.23625 84.7764 4.57864 85.3309 4.66567 85.7464C4.77552 86.1077 5.13126 86.3485 5.50253 86.3073C6.02061 86.8617 6.82195 86.9853 7.53497 87.1Z" fill="white"/>
<path fill-rule="evenodd" clip-rule="evenodd" d="M43.1518 46.6864C43.099 46.6571 43.1455 46.582 43.1985 46.6069C45.7505 47.7986 47.7082 49.8895 49.0857 52.3053C50.5121 54.8067 51.325 57.647 52.0259 60.4228L52.0512 60.5231C52.7986 63.4924 53.4342 66.493 54.0059 69.5006C54.5856 72.5459 55.0506 75.6106 55.4248 78.6876C55.6099 80.2096 55.775 81.7334 55.9037 83.2608C55.9676 84.0238 56.0265 84.7877 56.0788 85.5521C56.0998 85.8574 56.1192 86.1632 56.1362 86.4689L56.1487 86.6983C56.1592 86.9067 56.1836 87.1152 56.1322 87.3202C56.0878 87.4974 55.9935 87.6578 55.9107 87.8201C55.7471 88.1412 55.2981 88.0881 55.1215 87.8201L55.0706 87.7421C54.9533 87.562 54.856 87.3947 54.8196 87.1708C54.7837 86.9539 54.7827 86.7265 54.7667 86.5071C54.7373 86.1041 54.7124 85.7005 54.6839 85.297C54.6241 84.4482 54.5572 83.5998 54.4829 82.752C54.3357 81.0782 54.178 79.4059 53.9845 77.7371C53.6407 74.7707 53.2092 71.8123 52.7003 68.8697C52.2032 65.9952 51.5747 63.1499 50.9191 60.3076L50.8511 60.0138C49.7032 55.0519 47.9339 49.338 43.1518 46.6864ZM15.9701 66.1153C15.9889 66.0657 16.0696 66.0542 16.0833 66.1153C16.2552 66.8862 16.2721 67.6794 16.2984 68.4681C16.3243 69.2465 16.3233 70.0283 16.3119 70.8066C16.2698 73.6682 16.191 76.5274 16.1227 79.3885C16.0886 80.8196 16.0566 82.2512 16.032 83.6822C16.0227 84.2193 16.0149 84.7559 16.0084 85.293L16.0005 86.0008C15.9966 86.3141 15.9883 86.6233 15.95 86.936C15.9247 87.1415 15.8708 87.3381 15.7567 87.5143C15.6758 87.6394 15.5604 87.7029 15.4479 87.7878L15.4269 87.8042C15.2834 87.9169 15.1323 87.9179 14.9902 87.8042L14.949 87.7714C14.8133 87.6657 14.696 87.5833 14.6093 87.4165C14.4888 87.1842 14.4695 86.9316 14.449 86.6759C14.4179 86.2877 14.4386 85.8936 14.4425 85.5045C14.4506 84.7236 14.4615 83.9428 14.4752 83.162C14.5258 80.2984 14.6256 77.4348 14.8076 74.5761C14.8933 73.2299 15.0095 71.8793 15.1655 70.5386L15.1952 70.2869C15.2425 69.8928 15.2856 69.4912 15.3342 69.0881C14.6086 68.5803 13.9707 67.9638 13.4269 67.2644C13.3868 67.2128 13.4527 67.1408 13.5011 67.1905C14.0569 67.7633 14.6941 68.22 15.3996 68.5793C15.5152 67.736 15.6741 66.8971 15.9701 66.1153ZM28.0927 40.5911C28.1027 40.5834 28.1182 40.58 28.1277 40.5911C28.2837 40.7721 28.252 41.0488 28.2571 41.2782L28.2577 41.2996C28.2688 41.6349 28.2709 41.9693 28.2698 42.3049L28.2663 43.373C28.2659 43.5199 28.2539 43.6727 28.2615 43.8205L28.2655 43.8777C28.3474 43.9612 28.3854 44.0819 28.3576 44.2032C28.3527 44.3587 28.2709 44.4884 28.1518 44.57L28.4072 44.9307L28.6628 45.2911C29.1897 46.035 29.7223 46.7722 30.2774 47.4956C30.8434 48.2332 31.4473 48.943 32.0792 49.6254C32.3879 49.9589 32.7019 50.2877 33.0232 50.6091C33.1538 50.7398 33.2876 50.8672 33.4199 50.9961L33.5516 51.1256C33.6294 51.203 33.7272 51.2796 33.7789 51.3777C33.8092 51.4356 33.8161 51.5783 33.827 51.6019C33.9245 51.8152 33.7582 52.1553 33.4818 52.0489L33.4944 52.0406C33.5446 52.0057 33.5124 52.0052 33.3976 52.0391C33.3251 52.0389 33.2572 52.0223 33.1937 51.9894L33.1748 51.979C33.0854 51.9338 33.0056 51.8463 32.9331 51.7764L32.915 51.7592C32.749 51.6044 32.5907 51.4402 32.4316 51.2783C32.0995 50.9405 31.7748 50.5956 31.4605 50.2414C30.8335 49.5347 30.239 48.7994 29.6761 48.0412C29.1026 47.269 28.5697 46.4571 28.1113 45.612C27.9374 45.2912 27.7779 44.9643 27.625 44.6336C27.3274 44.5385 27.2583 44.2235 27.2791 43.8686C27.1693 43.614 27.0704 43.3543 27.0119 43.0888C27.0039 43.0525 27.0509 43.0182 27.079 43.05C27.1742 43.1576 27.2623 43.2722 27.347 43.3898C27.3981 43.141 27.4628 42.9119 27.4932 42.7659L27.6252 42.1215C26.8817 42.083 26.0671 42.387 25.5546 42.9193C25.5271 43.0579 25.4199 43.1571 25.3155 43.2867C25.1961 43.4348 25.092 43.601 25.0143 43.7748C24.8421 44.1601 24.9393 44.7278 24.6051 45.0105C24.5702 45.0399 24.5313 45.0604 24.4911 45.073C24.6497 45.8472 24.5777 46.7003 24.5743 47.4857L24.5741 47.5549C24.5749 48.4339 24.5455 49.3137 24.5113 50.1921L24.4766 51.0614C24.4317 52.2207 24.4024 53.3806 24.5156 54.5336C25.0323 54.078 25.5666 53.6433 26.1193 53.2291C26.4827 52.9567 26.8534 52.6939 27.2308 52.4411L27.5375 52.2371C27.9049 51.9918 28.2813 51.7394 28.6837 51.5637C29.21 51.334 29.7104 51.413 30.2185 51.6486C30.7245 51.8832 31.2153 52.1558 31.7116 52.4101C32.2164 52.6688 32.7223 52.9252 33.2277 53.1823C33.5626 53.3526 34.0533 53.5064 34.2989 53.8199C34.3146 53.7505 34.3329 53.6814 34.3542 53.6124C34.3298 53.5074 34.3392 53.3938 34.3985 53.2855C35.2237 51.776 35.9873 50.2304 36.7456 48.6866C37.1294 47.9054 37.4942 47.1149 37.8788 46.3341L38.2526 45.5737C38.315 45.4471 38.3777 45.3205 38.4406 45.1941C38.535 45.0048 38.6332 44.8174 38.7286 44.6287C38.7689 44.549 38.8194 44.4697 38.8586 44.3892L38.8772 44.3489C38.8781 44.3467 38.9687 44.0632 38.8987 44.0902L38.8927 44.0931C38.857 44.1133 38.8284 44.0686 38.8515 44.04C38.9505 43.9183 39.0883 44.0261 39.1447 44.1388C39.3002 44.449 39.0153 44.9359 38.9056 45.2329L38.8996 45.2495C38.5594 46.2081 38.1742 47.1487 37.7796 48.0859C37.0228 49.8829 36.2099 51.6523 35.3988 53.4248L35.3892 53.4553C35.5622 53.3233 35.7469 53.2035 35.905 53.0869C36.3039 52.7928 36.7145 52.513 37.1245 52.2342C37.8762 51.7229 38.6484 51.2453 39.4334 50.7866L39.5905 50.6951C39.9826 50.4677 40.371 50.2834 40.8364 50.3516C41.2688 50.415 41.6708 50.6463 42.0614 50.834L42.1018 50.8533L43.3087 51.4245C43.1797 50.9123 43.04 50.4026 42.8943 49.8948C42.61 48.9043 42.2972 47.9221 41.958 46.9487C41.6412 46.0392 41.2987 45.1396 40.9365 44.2472L40.8274 43.9794C40.6797 43.6119 40.5328 43.2113 40.1107 43.0981C39.6888 42.9851 39.2049 43.1528 38.8193 42.9134C38.7843 42.8916 38.7886 42.8341 38.8311 42.8235L39.069 42.7638C39.5158 42.6532 40.0394 42.5419 40.4619 42.6495C40.9215 42.7667 41.3018 43.1507 41.5249 43.55C41.7728 43.9941 41.9476 44.4911 42.1358 44.9647L42.1657 45.0393C42.3816 45.5752 42.5893 46.1144 42.7882 46.6569C43.1856 47.7414 43.5474 48.839 43.8748 49.9464C44.0326 50.4801 44.1824 51.0164 44.3263 51.554C44.3677 51.7086 44.4359 51.896 44.4919 52.0916C44.556 52.1539 44.6167 52.2234 44.6737 52.3026C44.7683 52.4341 44.7004 52.5884 44.5829 52.6671C44.5784 52.8016 44.5484 52.9282 44.4765 53.0366C44.1963 53.4601 43.4554 53.351 43.4855 52.7817C43.49 52.6946 43.5241 52.6114 43.5758 52.5411L43.5743 52.5297L43.5685 52.5088C43.4398 52.4475 43.3106 52.3791 43.1745 52.3121L41.9078 51.6891C41.5409 51.5085 41.1343 51.2297 40.7263 51.1609C40.346 51.0968 39.9447 51.3789 39.6179 51.5491L39.5967 51.56C38.8066 51.9631 38.0224 52.3796 37.2413 52.7995C36.86 53.0045 36.4837 53.2181 36.1038 53.4255C35.7862 53.599 35.4435 53.8481 35.0865 53.946C34.934 54.0639 34.7529 54.0482 34.6073 53.9589C34.6738 54.369 34.6698 54.7899 34.6902 55.2093C34.7176 55.7697 34.7218 56.3321 34.7309 56.893L34.7346 57.1035C34.7586 58.3444 34.7714 59.5859 34.7761 60.8268C34.793 65.2466 34.7439 69.6679 34.7325 74.0877C34.7267 76.3085 34.6825 78.5308 34.6245 80.7506C34.5999 81.6913 34.5486 82.6304 34.4931 83.5701L34.4626 84.0823C34.3979 85.1629 34.3598 86.256 34.1588 87.3222C34.1325 87.4612 33.8961 87.4647 33.8729 87.3222C33.6879 86.1795 33.6777 85.012 33.6421 83.856L33.6345 83.6247C33.5918 82.3837 33.5715 81.1432 33.5759 79.9013C33.5917 75.48 33.7071 71.0612 33.8016 66.641C33.8491 64.4201 33.881 62.1979 33.9548 59.978C33.9917 58.8671 34.0334 57.7567 34.083 56.6463C34.1051 56.1504 34.1264 55.655 34.1594 55.1602L34.1744 54.9482C34.1847 54.8097 34.193 54.6727 34.203 54.5374C33.7536 54.701 33.3426 54.3983 32.9383 54.1913C32.4724 53.9527 32.0067 53.7137 31.5406 53.4755L31.0741 53.2378L30.1405 52.7636C29.7201 52.5501 29.3962 52.3376 28.9479 52.5881C27.3327 53.4901 25.8485 54.6906 24.5033 55.9499C24.2454 56.1916 23.7004 56.1266 23.6351 55.7216C23.3559 53.9923 23.5257 52.2379 23.6682 50.5033L23.7207 49.8593C23.7844 49.0901 23.8537 48.321 23.9461 47.5549C23.9874 47.2122 24.0285 46.8697 24.074 46.5277L24.1091 46.2713C24.166 45.8659 24.2032 45.4629 24.3244 45.0741C24.2862 45.0618 24.2494 45.0416 24.2164 45.0105C23.8517 44.666 24.0275 44.0682 24.194 43.6584C24.3583 43.2539 24.6089 42.9009 24.9228 42.5971C24.9912 42.5307 25.0877 42.488 25.1847 42.4858C25.9456 41.984 26.7804 41.7335 27.6492 42.0074C27.6736 41.8913 27.6985 41.7753 27.7247 41.6597L27.7513 41.5441C27.8189 41.2571 27.844 40.7831 28.0927 40.5911ZM35.8915 85.9125C36.1277 85.848 36.3862 85.916 36.5592 86.0882C36.7322 86.2604 36.8007 86.5176 36.7356 86.7529C36.703 86.8685 36.6442 86.9688 36.5592 87.0542C36.4797 87.1326 36.3869 87.1887 36.281 87.2224L36.2563 87.2299L36.2178 87.2458C36.0994 87.2775 35.981 87.2775 35.8627 87.2458C35.7495 87.214 35.6513 87.1574 35.568 87.075C35.4851 86.9921 35.4279 86.8943 35.3961 86.7816C35.3644 86.6635 35.3644 86.5459 35.3961 86.4277L35.4123 86.3895C35.4448 86.2738 35.5037 86.1731 35.5887 86.0882C35.6743 86.0033 35.7753 85.9447 35.8915 85.9125ZM49.9122 62.4892C49.951 62.445 50.0139 62.5016 49.9898 62.5488C49.622 63.2666 49.212 63.9794 48.8092 64.6788C48.8414 64.8729 48.8734 65.065 48.9102 65.2526C49.0672 66.0513 49.2595 66.836 49.3848 67.6427C49.8353 70.542 50.0692 73.4727 50.2699 76.3978C50.4712 79.3339 50.4969 82.271 50.5271 85.2126C50.5298 85.4677 50.3328 85.7641 50.0688 85.8122C49.9479 85.8341 49.8575 85.8296 49.7369 85.8122C49.4622 85.7715 49.2903 85.4583 49.2786 85.2126C49.1998 83.5686 49.0938 81.9265 48.971 80.285C48.7534 77.3752 48.6204 74.4575 48.4446 71.5442L48.3828 70.5261C48.3163 69.4227 48.2555 68.3187 48.2357 67.2138C48.2226 66.4821 48.2619 65.75 48.2377 65.0188C48.2154 64.3442 48.1466 63.6101 48.2961 62.9469C48.3016 62.9221 48.3411 62.9156 48.3525 62.9394C48.5079 63.2651 48.6064 63.6195 48.6823 63.9809C49.0828 63.4765 49.4908 62.9707 49.9122 62.4892ZM23.6718 44.6585C23.728 44.6543 23.7258 44.7385 23.6718 44.7447C22.8856 44.8355 22.1262 45.1539 21.3839 45.4246L21.3203 45.4477C20.5703 45.7185 19.8391 46.0335 19.1355 46.409C17.7598 47.143 16.4965 48.0896 15.3796 49.1731C10.9202 53.4988 8.88791 59.7363 7.39877 65.5981C6.57135 68.8553 5.98298 72.1672 5.60162 75.5044C5.41305 77.1548 5.27974 78.8112 5.20202 80.4706C5.16223 81.3209 5.13714 82.1722 5.12667 83.0235C5.12127 83.4594 5.11968 83.8957 5.12021 84.332C5.12048 84.5315 5.15631 84.7832 5.10263 84.9773C5.05283 85.157 4.91241 85.3153 4.80854 85.4647C4.68544 85.6424 4.4642 85.6335 4.33938 85.4647L4.29336 85.4037C4.16024 85.228 4.02999 85.0597 4.01098 84.8304C3.99063 84.5837 4.00499 84.33 4.00406 84.0828C4.00196 83.5845 4.00815 83.0856 4.01816 82.5877C4.03746 81.6327 4.07526 80.6776 4.13144 79.7241C4.24552 77.7892 4.43331 75.8578 4.70216 73.9378C5.18008 70.5251 5.89643 67.1448 6.83475 63.828C7.71995 60.6993 8.76868 57.5795 10.2626 54.6816C11.6497 51.9907 13.4695 49.4874 15.8706 47.6068C16.9873 46.7322 18.2028 46.0034 19.5133 45.4545C20.1742 45.1777 20.8684 44.9517 21.5742 44.8229C22.2722 44.6954 22.9672 44.7132 23.6718 44.6585ZM36.0268 80.3818C36.1515 80.3813 36.2906 80.4086 36.3975 80.4771L36.5405 80.5868C36.5792 80.6364 36.6177 80.6861 36.6561 80.7362C36.7455 80.8519 36.7574 81.0395 36.7387 81.1775C36.7345 81.2698 36.707 81.3557 36.6561 81.4351L36.5473 81.5756C36.4427 81.6605 36.3555 81.721 36.2288 81.7617C36.1626 81.7831 36.0989 81.7875 36.0353 81.7846L36.0141 81.7831L36.0268 81.7846L36.0046 81.7821C35.9839 81.7806 35.9632 81.7781 35.9423 81.7756C35.9282 81.7737 35.9139 81.7727 35.8998 81.7707C35.8862 81.7697 35.873 81.7692 35.8592 81.7702C35.6983 81.7851 35.5364 81.6942 35.4221 81.59C35.3192 81.4962 35.2268 81.2966 35.2411 81.1552L35.2473 81.0961C35.2581 80.9963 35.267 80.9571 35.3094 80.8568C35.3507 80.7595 35.4083 80.6732 35.4867 80.6007C35.637 80.4617 35.8208 80.3833 36.0268 80.3818ZM35.5286 73.0855C35.7422 72.8537 36.1092 72.8368 36.3741 72.9768C36.4387 73.011 36.4979 73.0661 36.5549 73.1118C36.6983 73.227 36.7546 73.4354 36.7625 73.6107C36.7703 73.7839 36.6784 73.9899 36.5549 74.11L36.5249 74.1388C36.4511 74.2103 36.3453 74.2723 36.242 74.2912C36.0754 74.3215 35.9355 74.321 35.7804 74.2555C35.6471 74.1999 35.5323 74.1095 35.4542 73.9874L35.4415 73.9671C35.4362 73.9581 35.4311 73.9497 35.4263 73.9408L35.4194 73.9273C35.271 73.6429 35.3109 73.3213 35.5286 73.0855ZM35.6393 65.7505C35.7356 65.7202 35.8319 65.7162 35.9283 65.7376C35.9937 65.738 36.0546 65.7544 36.1112 65.7867C36.1726 65.8041 36.2259 65.8348 36.2711 65.8795C36.3255 65.9118 36.3689 65.955 36.4011 66.0091C36.4652 66.0786 36.5084 66.1605 36.5309 66.2543L36.5567 66.4464L36.5309 66.638L36.4577 66.8102C36.4376 66.8365 36.4174 66.8628 36.397 66.8887C36.3647 66.9428 36.3213 66.9864 36.2667 67.0182C36.2312 67.0535 36.1905 67.0798 36.1449 67.0981C35.9836 67.2133 35.7686 67.2505 35.5774 67.1984C35.4638 67.1666 35.3653 67.1095 35.2816 67.0267C35.1986 66.9438 35.1411 66.8455 35.1093 66.7323L35.0963 66.642C35.0794 66.5213 35.0767 66.4543 35.1111 66.3004C35.1262 66.2324 35.17 66.1371 35.1929 66.0969C35.2909 65.9257 35.4511 65.808 35.6393 65.7505ZM44.0063 60.4734C44.2829 60.4714 44.5596 60.4719 44.8363 60.4754L45.0438 60.4779C45.3912 60.4833 45.6888 60.4476 45.9619 60.6879C46.1602 60.8616 46.0728 61.154 45.8846 61.285C45.5995 61.4841 45.2419 61.3838 44.9141 61.3619C44.5685 61.3391 44.2225 61.3198 43.8765 61.3044C43.2064 61.2746 42.5361 61.2557 41.8654 61.2527C41.1962 61.2498 40.5259 61.2562 39.8568 61.2666C39.1758 61.2776 38.4669 61.3411 37.7898 61.2706C37.6968 61.2612 37.6758 61.1396 37.7676 61.1078C38.4057 60.8879 39.1234 60.8169 39.792 60.7325C40.4817 60.6462 41.1714 60.5846 41.8654 60.5449C42.5783 60.5042 43.2922 60.4784 44.0063 60.4734ZM35.638 58.3157H35.6608C35.7826 58.3161 35.8965 58.3449 36.0028 58.4015L36.0255 58.4139L36.1717 58.5266C36.2612 58.6165 36.3232 58.7222 36.3575 58.8438L36.3833 59.0349C36.3871 59.1342 36.3663 59.2265 36.3211 59.3119C36.2919 59.4012 36.2421 59.4782 36.1717 59.5437C36.1062 59.6137 36.0287 59.6633 35.9392 59.6921C35.8597 59.7338 35.7746 59.7547 35.6837 59.7547L35.6608 59.7542C35.5304 59.7537 35.4089 59.7209 35.2962 59.6559L35.1499 59.5437C35.0604 59.4539 34.9985 59.3481 34.9642 59.226L34.9383 59.0349C34.9346 58.9361 34.9553 58.8438 35.0006 58.7579C35.0298 58.6686 35.0795 58.5916 35.1499 58.5266C35.2154 58.4561 35.2929 58.407 35.3825 58.3777C35.462 58.336 35.5471 58.3157 35.638 58.3157ZM37.7798 41.4207C37.9355 41.1962 38.2175 41.3958 38.1772 41.5763C38.1879 42.083 38.2138 42.5749 38.3297 43.0713C38.3828 43.2985 38.4522 43.5261 38.5594 43.7342L38.6044 43.8219C38.7431 44.0947 38.8508 44.352 38.664 44.6513C38.5759 44.7924 38.4168 44.8983 38.2443 44.8909C37.4793 44.858 37.3742 43.798 37.3277 43.2063C37.2797 42.5968 37.4288 41.9271 37.7798 41.4207Z" fill="black"/>
<path fill-rule="evenodd" clip-rule="evenodd" d="M46.8182 28.4404C46.6427 26.981 46.8697 23.9305 46.885 23.7452C46.9811 22.5736 46.4013 17.9471 45.3051 18.3734C43.4662 16.9953 41.017 16.691 38.7268 16.5456C33.9697 16.2436 28.9091 16.9369 25.2358 19.9676C23.4192 21.5415 21.6507 23.8306 21.7928 26.2142C20.1423 28.4734 17.8156 31.5726 19.872 34.2139C20.571 35.0577 21.682 35.372 22.5601 36.0111C24.3264 37.3598 25.4345 39.2953 27.2176 40.636C31.9414 44.6545 39.9626 45.494 44.6038 40.9232C48.1928 37.6129 47.6124 32.6606 46.9811 28.4404C46.5567 25.6032 47.1604 31.2876 46.8182 28.4404Z" fill="white"/>
<path fill-rule="evenodd" clip-rule="evenodd" d="M32.3719 10.3568C33.6441 10.1137 34.9505 9.96255 36.2497 10.0081L36.3499 10.0117C37.3274 10.0487 38.5654 10.1305 39.4182 10.6687C39.4672 10.6221 39.5462 10.5982 39.6177 10.6305C40.6311 11.0884 41.7457 11.4195 42.8127 11.7485C43.8749 12.0758 44.9768 12.292 46.09 12.3791C46.5088 12.4118 46.8673 12.84 46.6021 13.224C46.539 13.3155 46.4775 13.4079 46.4163 13.5006C46.5187 13.4905 46.6211 13.4801 46.7234 13.4703C47.0603 13.4382 47.3968 13.7785 47.3768 14.089C47.3644 14.2843 47.3421 14.4773 47.3092 14.6679C47.4375 14.6654 47.565 14.6836 47.6883 14.7329C48.3122 14.9824 48.2688 15.6859 48.2221 16.2212C48.1574 16.9641 47.8639 17.7509 47.319 18.3069C47.7258 18.707 48.0138 19.1847 48.1857 19.7521C48.3103 20.1665 48.3796 20.6078 48.3454 21.0391L48.3345 21.1683C48.2922 21.6363 48.208 22.1545 47.8523 22.4912C47.6697 22.6648 47.4448 22.728 47.2304 22.708C47.36 23.7866 47.4432 24.8715 47.5214 25.9524L47.5581 26.4691C47.7327 28.9674 47.8638 31.482 47.8295 33.9844C47.7976 36.323 47.3095 38.5929 45.7944 40.4918C44.4145 42.2209 42.4333 43.4955 40.192 43.98C38.9841 44.2416 37.751 44.2601 36.5284 44.0935C35.9359 44.0124 35.3393 43.8882 34.7769 43.6922C34.1543 43.4747 33.7069 43.1544 33.2879 42.6745C33.0898 42.4469 33.1852 41.9624 33.5797 42.0079C34.1764 42.0764 34.7212 42.159 35.2932 42.326L35.3751 42.3505C35.9449 42.5233 36.535 42.6522 37.1307 42.707C38.3509 42.8188 39.5896 42.7062 40.7584 42.3559C42.6614 41.7849 44.3005 40.5126 45.351 38.9139C46.598 37.019 46.739 34.8679 46.721 32.6889C46.7017 30.298 46.6196 27.9057 46.4855 25.5172L46.4626 25.1191C46.3917 23.89 46.3233 22.6602 46.263 21.4303C46.2443 21.0445 46.2158 20.6557 46.1643 20.2706C45.6941 20.0099 45.2728 19.6503 44.9981 19.2067C44.4463 19.4227 43.8661 19.5786 43.3322 19.7027C42.0955 19.9907 40.8115 20.0606 39.5526 19.8803C39.2131 20.0131 38.8668 20.1298 38.5152 20.2303C38.4202 20.2702 38.3252 20.3094 38.2302 20.3478C37.3825 20.6911 36.5227 20.982 35.6278 21.195L35.408 21.2468C34.9371 21.3567 34.4256 21.465 33.9245 21.499C33.8422 21.529 33.7533 21.5545 33.6563 21.5769C33.1999 21.6818 32.7263 21.715 32.2586 21.678C31.8029 21.6417 31.4736 21.2058 31.7246 20.7976C31.908 20.4998 32.0931 20.2028 32.2798 19.9065C31.6302 20.1626 30.9594 20.3755 30.2829 20.5561C29.6 20.7382 28.9072 20.8917 28.2135 21.033C27.8427 21.1078 27.4703 21.1741 27.1003 21.249C26.8354 21.3022 26.4287 21.33 26.2127 21.4951C25.9739 21.6764 25.9063 22.0992 25.8157 22.36C25.6968 22.6988 25.5851 23.039 25.4832 23.3831C25.2804 24.0698 25.1141 24.7665 24.9853 25.4702C24.8566 26.1746 24.7701 26.886 24.722 27.5997C24.674 28.3126 24.6951 29.0302 24.6178 29.74C24.5761 30.1165 24.1491 30.3102 23.8337 30.0471C23.7967 30.0163 23.7595 29.985 23.7225 29.9535L23.6675 29.9059C23.3976 29.6745 23.136 29.4291 22.9201 29.1529C22.881 29.1019 22.8435 29.0487 22.8084 28.9947C22.8027 28.9947 22.7978 28.9932 22.7922 28.9893L22.7323 28.9467C22.0731 28.4822 20.9719 27.8767 20.3292 28.6483C20.1243 28.8941 20.0195 29.2071 19.9324 29.5091L19.7797 30.0495C19.6809 30.4023 19.588 30.7571 19.5336 31.118C19.4105 31.9266 19.4725 32.8587 20.0602 33.5068C20.2949 33.766 20.6185 33.9512 20.9795 33.9998C21.1808 34.0261 21.3797 33.9937 21.5794 33.9697C21.7823 33.9458 21.9779 33.9844 22.1809 33.9659C22.5036 33.9358 22.6446 34.3015 22.524 34.5315C22.4588 34.6549 22.3821 34.7614 22.295 34.8517C22.365 34.9088 22.4319 34.9705 22.4963 35.0353C22.687 35.0932 22.8581 35.2174 22.9861 35.3817C23.0896 35.5144 23.1433 35.6587 23.1524 35.8107C23.1637 35.8485 23.1735 35.8871 23.1825 35.9264L23.3574 36.1951C23.3959 36.254 23.4342 36.3122 23.4726 36.3693C23.9176 37.0329 24.4116 37.5946 25.0253 38.1239C25.6162 38.6331 26.2575 39.0891 26.8126 39.6354L26.878 39.7002C27.3955 40.2165 27.941 40.8414 27.7385 41.592C27.6863 41.7849 27.4018 41.9238 27.216 41.7934C26.6187 41.3737 26.3178 40.7086 25.811 40.1993C25.2893 39.6747 24.7114 39.2033 24.1883 38.6802C23.6935 38.1864 23.3031 37.6269 23.0089 37.0113C22.8915 37.1339 22.7204 37.2211 22.4832 37.2551C22.0757 37.3129 21.6958 37.0869 21.5183 36.7528C21.4041 36.8006 21.2876 36.8438 21.1701 36.8778C20.5524 37.0568 20.1637 36.4063 20.3968 35.9256C20.5214 35.668 20.6771 35.4442 20.8703 35.2559C20.2663 35.1772 19.6518 34.8818 19.2549 34.5129C18.259 33.5863 18.1221 32.1936 18.3462 30.9553C18.4652 30.2987 18.6705 29.6344 18.9371 29.0178C18.9835 28.9106 19.0333 28.8026 19.0878 28.6961C19.0576 28.6953 19.0267 28.683 19.0071 28.6591C18.827 28.4261 18.6078 28.2355 18.4741 27.9747C18.351 27.7355 18.2142 27.4933 18.1171 27.244C17.9175 26.734 17.8197 26.1584 17.7545 25.6191C17.62 24.515 17.6721 23.4178 17.8507 22.3207C18.1546 20.4519 18.8888 18.6636 19.9704 17.0944C19.9115 17.0651 19.8551 17.0297 19.8025 16.9879L19.7765 16.9665L19.7343 16.9304C19.4256 16.666 19.4523 16.1704 19.7343 15.9026L19.8233 15.8181C19.9361 15.712 20.0334 15.628 20.2155 15.5125C20.2425 15.4954 20.2699 15.4794 20.2977 15.4644C20.2023 15.2976 20.1693 15.1025 20.2357 14.8874C20.4672 14.1377 21.6065 14.1642 22.3287 14.4911C23.1277 13.8161 24.0136 13.2301 24.9739 12.7556C27.2609 11.626 29.8469 10.8383 32.3719 10.3568ZM20.55 30.1012C20.9771 29.9692 21.5444 30.2462 21.9282 30.4128C22.4148 30.6242 22.8288 30.9367 23.2298 31.267C23.4295 31.4321 23.4653 31.7021 23.4157 31.9328C23.4107 31.956 23.4059 31.9799 23.4001 32.0038C23.3471 32.2499 23.057 32.4436 22.8002 32.4367C22.2631 32.4228 22.0073 31.9837 21.7032 31.6118C21.6674 31.672 21.6226 31.7276 21.5671 31.7692L21.5297 31.797C21.4035 31.888 21.2644 31.9606 21.0977 31.9536C20.9795 31.9482 20.8663 31.9197 20.7619 31.868C20.5011 31.7376 20.3862 31.4182 20.457 31.1582C20.5011 30.9946 20.6021 30.8665 20.7342 30.7778L20.6849 30.7459C20.5797 30.6766 20.4836 30.6034 20.4087 30.4955L20.3919 30.47H20.3984C20.3169 30.3372 20.3699 30.1567 20.55 30.1012Z" fill="black"/>
<path fill-rule="evenodd" clip-rule="evenodd" d="M39.5179 37.7811C39.0323 37.785 37.642 37.5087 37.277 37.3674L37.1818 37.3301C36.8659 37.2049 36.5415 37.0611 36.2995 36.8197C36.2221 36.7413 36.1397 36.6525 36.0979 36.5592C36.0734 36.5045 36.0632 36.4479 36.0869 36.3917C36.1744 36.3832 36.2573 36.3721 36.3359 36.3579C36.3732 36.3511 36.409 36.3441 36.4365 36.3439C36.5378 36.3433 36.6379 36.356 36.738 36.3686C36.7525 36.3704 36.7669 36.3722 36.7815 36.374C36.8593 36.3835 36.9369 36.3938 37.0143 36.4041C37.277 36.5592 38.4919 36.7389 38.7203 36.7496C38.8852 36.7575 39.0581 36.7483 39.2325 36.7389C39.6849 36.7145 40.127 36.5149 40.4755 36.8286C40.5668 36.9108 40.605 37.0142 40.605 37.1197C40.605 37.2478 40.5505 37.3782 40.4674 37.4805C40.2793 37.7122 39.8313 37.7786 39.5179 37.7811ZM42.3237 33.7537C42.1125 34.0674 41.7606 34.2692 41.2784 34.2473C40.32 34.2039 39.1763 33.8459 38.3736 33.3282C38.1646 33.1935 38.029 32.978 38.0047 32.7472L37.9615 32.3364L37.6171 32.6404C37.5436 32.7193 37.5064 32.7563 37.4758 32.7869C37.4079 32.8544 37.3267 32.9351 37.2382 33.0232C36.8989 33.3608 36.7234 33.8429 36.5595 34.1712C36.4152 34.4601 36.2921 34.7905 36.1862 35.1165C36.0076 35.667 35.9974 35.8256 35.7351 36.3049C35.6774 36.3634 35.5887 36.3843 35.5075 36.374C35.436 36.3648 35.3659 36.3301 35.3315 36.2609C34.8754 35.3428 35.4472 34.6121 35.9447 33.8429L35.9974 33.7626C36.4587 33.0675 37.2122 32.1476 38.0751 32.0226L38.1739 32.1786L38.3176 32.0837C38.5524 31.9286 38.8626 31.9358 39.134 32.0572L39.4055 32.1785C39.9109 32.4031 40.4094 32.6103 40.9562 32.7237C40.9961 32.732 41.0359 32.7397 41.0756 32.7469C41.1132 32.7537 41.1509 32.76 41.1888 32.7659C41.1807 32.729 41.1719 32.6922 41.1632 32.6556C41.1539 32.6168 41.1446 32.578 41.1346 32.5392C41.1242 32.4993 41.1132 32.4595 41.1022 32.4199C41.0584 32.262 41.0089 32.1055 40.9502 31.9522C40.7295 31.3762 40.3769 30.8375 40.034 30.3236L39.9936 30.2632C39.9444 30.1895 39.8906 30.1127 39.8348 30.0332C39.5674 29.652 39.2708 29.2381 39.2498 28.8227C39.6048 28.8448 39.9019 29.0632 40.1634 29.2533C40.5223 29.5141 40.8549 29.8122 41.1566 30.1362C41.7418 30.7647 42.2671 31.5681 42.4974 32.3987C42.6293 32.8743 42.5712 33.386 42.3237 33.7537ZM32.9603 29.0156L32.9602 28.9986C32.9613 28.519 33.2434 27.4241 33.9408 27.4241C34.3764 27.4241 34.6409 28.1693 34.6867 28.9375L34.6883 28.9688C34.7085 29.4464 34.5761 30.4904 33.9408 30.4904C33.2987 30.4904 32.9669 29.5016 32.9603 29.0156ZM43.227 28.8652L43.2271 28.8482C43.226 28.3686 42.9439 27.2736 42.2466 27.2736C41.8218 27.2736 41.5597 27.982 41.5044 28.7295L41.5006 28.7871C41.4731 29.2486 41.5969 30.34 42.2466 30.34C42.8886 30.34 43.2203 29.3512 43.227 28.8652ZM35.3088 25.7699C35.2164 25.7806 35.1245 25.7947 35.0325 25.8091C34.7644 25.8514 34.4977 25.9022 34.2329 25.9614C33.7298 26.0738 33.2307 26.2158 32.7413 26.3762C32.2832 26.5264 31.8323 26.6961 31.3815 26.8658C31.3574 26.8749 31.3333 26.8839 31.3093 26.893C31.1502 26.9529 30.9915 27.0201 30.8324 27.0875C30.5902 27.19 30.3469 27.2932 30.0986 27.3709C30.7527 26.4755 31.7607 25.8121 32.7305 25.3373C33.2838 25.0664 33.8708 24.8479 34.4613 24.669L34.7902 24.5712C35.2744 24.4297 35.8038 24.299 36.2587 24.5811C36.4386 24.6926 36.5534 24.866 36.5896 25.0534C36.625 25.2373 36.5846 25.4344 36.4564 25.5989C36.3446 25.7422 36.2054 25.8238 36.0573 25.8518C35.8938 25.8826 35.7205 25.8487 35.5627 25.7653C35.4364 25.756 35.3991 25.7593 35.3617 25.7635L35.3088 25.7699ZM42.5934 25.861C42.2693 25.7913 41.9484 25.7632 41.6159 25.7733C41.4655 25.7778 41.3201 25.8007 41.175 25.8239C40.9497 25.8598 40.7252 25.8969 40.4825 25.8534C40.3558 25.8306 40.2479 25.7573 40.1646 25.6615C40.0672 25.5496 40.0028 25.4065 39.9821 25.2705C39.9608 25.13 39.982 25.0071 40.0345 24.8986C40.0965 24.7704 40.201 24.6624 40.3273 24.5678C40.7095 24.2813 41.3652 24.3502 41.8162 24.4081C42.2619 24.4655 42.7051 24.6023 43.0991 24.8196C43.4879 25.0342 43.8258 25.3231 44.0894 25.6763C44.3117 25.974 44.4163 26.3167 44.5245 26.6656C44.0159 26.2432 43.2377 25.9994 42.5934 25.861Z" fill="black"/>
<path fill-rule="evenodd" clip-rule="evenodd" d="M87.6642 87.3359C81.444 88.2195 75.1116 88.2636 68.84 87.943C66.358 87.7693 63.8685 87.738 61.3885 87.9599C59.9227 88.0621 53.4975 88.5213 52.9727 87.2937C53.3029 80.7589 53.9719 74.1679 56.0249 67.8827C56.869 65.651 57.5944 63.799 59.2423 61.952C59.7616 61.4481 60.8811 60.3903 61.5232 60.0453C62.079 59.7465 62.3115 59.8532 62.6307 59.3489C62.948 58.7915 63.182 57.8603 63.6325 57.4671C64.091 57.0666 64.7705 57.2095 65.6131 57.3386C65.4585 55.3833 66.2407 54.0466 67.5708 53.6747C70.7547 51.8165 77.38 51.781 72.9888 56.7588C74.0799 56.7588 74.6925 57.1981 75.355 57.62C75.6259 57.7923 75.4378 58.2316 75.7611 58.3671C76.3598 58.5661 77.4175 58.5175 77.9937 58.7627C80.6144 59.8781 82.9482 61.4948 84.4808 63.8566C87.9177 68.8988 90.2779 79.5199 89.8693 85.4958C90.0485 85.7584 89.801 86.1347 89.7381 86.4166C89.6588 86.6623 89.4014 86.8256 89.133 86.7978C88.7588 87.1741 88.1796 87.258 87.6642 87.3359Z" fill="white"/>
<path fill-rule="evenodd" clip-rule="evenodd" d="M61.9193 59.8983C61.9572 59.8779 61.9238 59.8273 61.8853 59.8442C60.0404 60.6533 58.6256 62.0724 57.6298 63.713C56.5991 65.4111 56.0114 67.3395 55.5045 69.2243L55.4865 69.2923C54.9462 71.3081 54.4867 73.3453 54.0732 75.3874C53.6546 77.4548 53.3183 79.5356 53.0479 81.6249C52.9142 82.6579 52.795 83.6923 52.7017 84.7293C52.6553 85.2475 52.6129 85.7662 52.575 86.2849C52.56 86.4924 52.5455 86.6999 52.5336 86.9074L52.5246 87.0633C52.5171 87.2047 52.4992 87.3462 52.5366 87.4857C52.5685 87.6058 52.6368 87.7145 52.6967 87.8247C52.815 88.0431 53.1392 88.0069 53.267 87.8247L53.3039 87.7721C53.3887 87.6495 53.459 87.5363 53.4855 87.3839C53.5109 87.2365 53.5119 87.0821 53.5234 86.9337C53.5448 86.6597 53.5628 86.3857 53.5833 86.1122C53.6267 85.5354 53.675 84.9596 53.7289 84.3838C53.8347 83.2476 53.9489 82.1124 54.0886 80.9791C54.3376 78.9653 54.6494 76.9569 55.0171 74.959C55.3763 73.0072 55.8308 71.0753 56.3047 69.1459L56.3536 68.9463C57.1838 65.5779 58.4624 61.6982 61.9193 59.8983ZM81.5667 73.0891C81.5532 73.0554 81.4949 73.0474 81.4849 73.0891C81.3607 73.6123 81.3482 74.1509 81.3292 74.6865C81.3108 75.2146 81.3113 75.7453 81.3198 76.2739C81.3502 78.2168 81.4071 80.1581 81.4564 82.1004C81.4809 83.0724 81.5043 84.0438 81.5218 85.0157C81.5288 85.38 81.5343 85.7449 81.5388 86.1092L81.5448 86.5897C81.5477 86.8022 81.5537 87.0121 81.5812 87.2246C81.5996 87.3641 81.6385 87.4976 81.7209 87.6172C81.7792 87.7021 81.863 87.7453 81.9444 87.8029L81.9593 87.8143C82.0631 87.8907 82.1724 87.8912 82.2751 87.8143L82.3046 87.7919C82.4028 87.7205 82.4877 87.6644 82.5505 87.5507C82.6373 87.3929 82.6513 87.2216 82.6663 87.0479C82.6887 86.7843 82.6737 86.5172 82.6708 86.2527C82.6653 85.7225 82.6573 85.1924 82.6473 84.6623C82.6109 82.7184 82.5386 80.7741 82.4068 78.8333C82.345 77.9194 82.2612 77.0021 82.1484 76.0917L82.127 75.921C82.0925 75.6534 82.0616 75.3809 82.0262 75.1074C82.551 74.7624 83.012 74.344 83.4051 73.8689C83.4341 73.8342 83.3862 73.7851 83.3512 73.8188C82.9496 74.208 82.4892 74.5177 81.9793 74.7614C81.8955 74.1891 81.7807 73.6198 81.5667 73.0891ZM72.8041 55.76C72.7971 55.7545 72.7857 55.752 72.7787 55.76C72.6659 55.8826 72.6889 56.0707 72.6854 56.2261L72.6849 56.2409C72.6769 56.4683 72.6754 56.6956 72.6759 56.9235L72.6784 57.6487C72.6789 57.748 72.6874 57.8522 72.6824 57.9525L72.6794 57.9912C72.62 58.0478 72.5926 58.1297 72.6126 58.2121C72.616 58.3178 72.6754 58.4057 72.7612 58.4613L72.5766 58.706L72.392 58.9507C72.0114 59.4555 71.6262 59.9564 71.2251 60.4473C70.816 60.9481 70.3795 61.4301 69.9225 61.8932C69.6995 62.1196 69.4725 62.343 69.24 62.5614C69.1457 62.6502 69.049 62.7366 68.9537 62.824L68.8584 62.9118C68.802 62.9644 68.7312 63.0166 68.6942 63.0831C68.6723 63.1223 68.6673 63.2191 68.6593 63.2355C68.589 63.3799 68.7092 63.6112 68.9088 63.5387L68.8998 63.5333C68.8634 63.5095 68.8868 63.509 68.9696 63.5323C69.022 63.5318 69.0709 63.5209 69.1168 63.4985L69.1308 63.4916C69.1951 63.4608 69.253 63.4012 69.3054 63.3536L69.3184 63.3422C69.4386 63.2369 69.5528 63.1253 69.6681 63.0156C69.9081 62.7862 70.1425 62.5519 70.37 62.3117C70.823 61.8317 71.2526 61.3328 71.6597 60.8181C72.0743 60.2934 72.4594 59.7424 72.7907 59.1686C72.9164 58.9507 73.0316 58.7288 73.1424 58.5044C73.3574 58.4399 73.4073 58.226 73.3923 57.9847C73.4717 57.812 73.543 57.6358 73.5854 57.4556C73.5914 57.4308 73.557 57.4074 73.537 57.4293C73.4682 57.5023 73.4043 57.5802 73.3429 57.6601C73.306 57.4908 73.2596 57.3355 73.2377 57.2362L73.1419 56.7989C73.6797 56.7726 74.2684 56.9791 74.6386 57.3404C74.6585 57.4347 74.7364 57.5018 74.8117 57.5896C74.898 57.6904 74.9733 57.8031 75.0292 57.9212C75.1539 58.1828 75.0836 58.5685 75.325 58.7601C75.3505 58.7804 75.3784 58.7938 75.4074 58.8028C75.2926 59.3284 75.345 59.9077 75.3475 60.4408V60.4875C75.347 61.0846 75.3684 61.6818 75.3929 62.2779L75.4178 62.8681C75.4503 63.6554 75.4717 64.4432 75.3899 65.2259C75.0162 64.9162 74.6301 64.6214 74.2305 64.3399C73.9681 64.1553 73.7001 63.9766 73.4273 63.8053L73.2057 63.6668C72.9398 63.5 72.6679 63.3288 72.3771 63.2096C71.9964 63.0533 71.6347 63.1069 71.2675 63.2672C70.9019 63.4266 70.5471 63.6112 70.1884 63.784C69.8232 63.9597 69.4576 64.1339 69.0924 64.3081C68.8504 64.4238 68.4957 64.5285 68.3181 64.741C68.3066 64.6943 68.2936 64.6472 68.2782 64.6005C68.2956 64.529 68.2891 64.4521 68.2462 64.3786C67.6496 63.3536 67.0978 62.3042 66.5495 61.2559C66.2721 60.7258 66.0087 60.1892 65.7303 59.659L65.4604 59.1428C65.415 59.0564 65.3701 58.9705 65.3242 58.8847C65.2564 58.7566 65.185 58.629 65.1162 58.501C65.0872 58.4469 65.0508 58.3933 65.0224 58.3382L65.0089 58.3109C65.0084 58.3094 64.9426 58.1173 64.9935 58.1356L64.9974 58.1376C65.0234 58.151 65.0443 58.1207 65.0274 58.1014C64.956 58.0185 64.8563 58.092 64.8153 58.1684C64.7031 58.3789 64.9091 58.7095 64.9885 58.9115L64.9925 58.9224C65.2384 59.5732 65.5168 60.212 65.8022 60.8484C66.3494 62.0685 66.9366 63.2697 67.5233 64.4729L67.5298 64.4938C67.4051 64.4039 67.2714 64.3225 67.1572 64.2436C66.8688 64.0436 66.5719 63.8539 66.2756 63.6648C65.7323 63.3174 65.1741 62.9932 64.6068 62.682L64.4931 62.6194C64.2097 62.4651 63.9288 62.34 63.5926 62.3866C63.2803 62.4293 62.9894 62.5867 62.707 62.7138L62.6781 62.7272L61.8055 63.1148C61.8988 62.7674 62.0001 62.4209 62.1054 62.0764C62.3109 61.4038 62.5369 60.7372 62.7819 60.076C63.0108 59.4585 63.2583 58.8479 63.5202 58.2419L63.599 58.0602C63.7058 57.8105 63.8121 57.5385 64.1174 57.462C64.4222 57.3851 64.7719 57.4988 65.0508 57.3365C65.0758 57.3216 65.0728 57.2824 65.0423 57.2754L64.8702 57.2347C64.5474 57.1597 64.1688 57.0843 63.8635 57.1573C63.5312 57.2367 63.2563 57.4978 63.0952 57.7688C62.9156 58.0701 62.7893 58.4076 62.6536 58.7293L62.6317 58.7799C62.4755 59.1438 62.3254 59.5096 62.1817 59.8779C61.8948 60.6146 61.6329 61.3596 61.3964 62.1112C61.2822 62.4735 61.1739 62.8379 61.0701 63.2027C61.0402 63.3079 60.9908 63.435 60.9504 63.5675C60.904 63.6102 60.8601 63.6574 60.8187 63.711C60.7509 63.8003 60.7997 63.9051 60.8846 63.9587C60.8881 64.05 60.9095 64.1359 60.9614 64.2094C61.1639 64.4968 61.6998 64.4228 61.6778 64.0361C61.6748 63.9771 61.6499 63.9205 61.6124 63.8728L61.6134 63.8654L61.6179 63.851C61.7107 63.8093 61.804 63.7631 61.9028 63.7174L62.8183 63.2945C63.0832 63.1719 63.3775 62.9828 63.6724 62.9361C63.9473 62.8925 64.2371 63.0841 64.4736 63.1992L64.4886 63.2067C65.0598 63.4807 65.6265 63.7631 66.1913 64.0485C66.4667 64.1875 66.7391 64.3325 67.0135 64.4734C67.243 64.5911 67.4909 64.7603 67.7488 64.8269C67.8591 64.9068 67.9898 64.8963 68.0951 64.8358C68.0472 65.1138 68.0502 65.3997 68.0352 65.6846C68.0152 66.0648 68.0123 66.4465 68.0058 66.8278L68.0033 66.9707C67.9858 67.8131 67.9768 68.6559 67.9733 69.4983C67.9609 72.4994 67.9963 75.501 68.0048 78.5017C68.0088 80.0092 68.0407 81.5182 68.0826 83.0252C68.1006 83.664 68.1375 84.3019 68.1779 84.9392L68.1998 85.2872C68.2467 86.0209 68.2742 86.763 68.4194 87.4867C68.4383 87.5815 68.6094 87.5835 68.6259 87.4867C68.7596 86.7113 68.7671 85.9181 68.793 85.1333L68.7985 84.9765C68.8294 84.1341 68.8439 83.2918 68.8409 82.4489C68.8294 79.4468 68.7461 76.4467 68.6778 73.4455C68.6434 71.938 68.6204 70.4295 68.567 68.922C68.5401 68.168 68.5102 67.414 68.4742 66.66C68.4583 66.3234 68.4428 65.9874 68.4189 65.6513L68.4084 65.5069C68.4009 65.4131 68.3949 65.3203 68.3874 65.2284C68.7122 65.3391 69.0095 65.1336 69.3014 64.9931C69.6382 64.8313 69.9749 64.669 70.3122 64.5072L70.6489 64.3459L71.3239 64.0242C71.6277 63.8793 71.8617 63.7348 72.186 63.9046C73.3534 64.5171 74.4265 65.3322 75.3989 66.1874C75.585 66.3512 75.9791 66.3071 76.0265 66.0326C76.228 64.8581 76.1053 63.6673 76.0025 62.4894L75.9641 62.0521C75.9182 61.5299 75.8683 61.0077 75.8015 60.4875C75.7716 60.2552 75.7416 60.0224 75.7092 59.7901L75.6838 59.6163C75.6423 59.3408 75.6154 59.0673 75.5281 58.8033C75.5555 58.7948 75.582 58.7814 75.6059 58.7601C75.8698 58.5263 75.7426 58.1202 75.6224 57.8423C75.5037 57.5678 75.3225 57.328 75.0956 57.1215C75.0462 57.0768 74.9763 57.0476 74.906 57.0461C74.3562 56.7056 73.7525 56.5353 73.1249 56.7214C73.107 56.6425 73.089 56.5636 73.07 56.4852L73.0511 56.4067C73.0022 56.2122 72.9837 55.89 72.8041 55.76ZM67.1671 86.5297C66.9965 86.486 66.8094 86.5321 66.6842 86.6488C66.5595 86.7659 66.5096 86.9407 66.557 87.1C66.5804 87.1789 66.6228 87.2469 66.6842 87.305C66.7416 87.3581 66.8089 87.3963 66.8853 87.4192L66.9032 87.4241L66.9312 87.4351C67.0165 87.4564 67.1023 87.4564 67.1876 87.4351C67.2694 87.4137 67.3407 87.375 67.4006 87.3189C67.4605 87.2628 67.5019 87.1963 67.5248 87.1199C67.5478 87.0399 67.5478 86.9595 67.5248 86.8796L67.5134 86.8538C67.4899 86.7749 67.4475 86.7069 67.3856 86.6488C67.3238 86.5917 67.2509 86.552 67.1671 86.5297ZM57.0326 70.6271C57.0047 70.5968 56.9588 70.6355 56.9762 70.6673C57.2421 71.1547 57.5385 71.6387 57.8298 72.1137C57.8064 72.2453 57.7834 72.3758 57.7565 72.5029C57.6432 73.0454 57.5041 73.5781 57.4138 74.1261C57.088 76.0942 56.9189 78.0842 56.7737 80.0702C56.6285 82.0632 56.61 84.0577 56.5881 86.0546C56.5861 86.2279 56.7283 86.4289 56.9194 86.4617C57.0067 86.4765 57.072 86.4736 57.1593 86.4617C57.3579 86.4343 57.4821 86.2214 57.4906 86.0546C57.5475 84.9383 57.6238 83.8239 57.7126 82.7095C57.8702 80.7334 57.966 78.7523 58.0932 76.7748L58.1381 76.0833C58.186 75.3343 58.2299 74.5847 58.2444 73.8347C58.2539 73.3378 58.2255 72.8409 58.2429 72.3446C58.2589 71.8864 58.3088 71.388 58.2005 70.9378C58.1965 70.9209 58.1681 70.9165 58.1596 70.9328C58.0474 71.1537 57.9765 71.3945 57.9216 71.6397C57.6318 71.2972 57.3369 70.9542 57.0326 70.6271ZM75.9995 58.5213C75.9591 58.5183 75.9606 58.5754 75.9995 58.5799C76.5678 58.6414 77.1171 58.8574 77.6534 59.0415L77.6993 59.0569C78.2416 59.2411 78.7699 59.455 79.2788 59.7097C80.2731 60.208 81.186 60.8508 81.9938 61.5865C85.2171 64.5231 86.6859 68.7582 87.7625 72.7377C88.3601 74.9491 88.7857 77.1977 89.0611 79.4632C89.1978 80.584 89.2941 81.7088 89.3499 82.8351C89.3789 83.4124 89.3968 83.9907 89.4048 84.5684C89.4083 84.8643 89.4098 85.1606 89.4093 85.4565C89.4093 85.5925 89.3834 85.7632 89.4218 85.8948C89.4582 86.0169 89.5595 86.1241 89.6343 86.2259C89.7236 86.3465 89.8833 86.34 89.9736 86.2259L90.007 86.1842C90.1033 86.065 90.1971 85.9509 90.211 85.795C90.226 85.6277 90.2155 85.4555 90.216 85.2872C90.2175 84.9492 90.213 84.6106 90.206 84.2726C90.1921 83.6238 90.1646 82.9761 90.1237 82.3283C90.0414 81.0144 89.9057 79.7034 89.7116 78.3999C89.3659 76.0828 88.8481 73.788 88.1701 71.5359C87.53 69.4119 86.7722 67.2939 85.6921 65.3262C84.6898 63.499 83.3742 61.7999 81.6385 60.5227C80.8313 59.9291 79.9528 59.4342 79.0054 59.0619C78.5279 58.8738 78.0261 58.7204 77.5157 58.633C77.0113 58.5461 76.5089 58.5586 75.9995 58.5213ZM67.0693 82.775C66.979 82.7745 66.8783 82.7929 66.8014 82.8395L66.6977 82.914C66.6697 82.9478 66.6418 82.9815 66.6144 83.0153C66.5495 83.0942 66.541 83.2213 66.5545 83.3151C66.5575 83.3776 66.5774 83.4362 66.6144 83.4898L66.6932 83.5851C66.7685 83.6427 66.8314 83.6839 66.9232 83.7117C66.9711 83.7261 67.017 83.7291 67.0629 83.7271L67.0783 83.7261L67.0693 83.7271L67.0853 83.7256C67.1003 83.7246 67.1152 83.7231 67.1302 83.7211C67.1407 83.7196 67.1507 83.7191 67.1611 83.7177C67.1706 83.7172 67.1806 83.7167 67.1901 83.7177C67.3068 83.7276 67.4236 83.666 67.5064 83.595C67.5807 83.5315 67.6476 83.396 67.6371 83.2997L67.6326 83.2595C67.6246 83.192 67.6181 83.1652 67.5877 83.0972C67.5578 83.0312 67.5164 82.9726 67.4595 82.9234C67.3512 82.8291 67.218 82.776 67.0693 82.775ZM67.4295 77.8211C67.2749 77.6638 67.0095 77.6524 66.8179 77.7472C66.7715 77.7705 66.7286 77.8077 66.6877 77.839C66.5839 77.9174 66.543 78.0584 66.5375 78.1775C66.5315 78.2957 66.5984 78.4352 66.6877 78.5166L66.7091 78.5364C66.7625 78.5846 66.8389 78.6268 66.9137 78.6397C67.0339 78.6605 67.1352 78.66 67.2475 78.6153C67.3437 78.5776 67.4266 78.5166 67.4829 78.4337L67.4924 78.4198C67.4959 78.4138 67.4999 78.4079 67.5034 78.4019L67.5084 78.3925C67.6156 78.1999 67.5867 77.9815 67.4295 77.8211ZM67.3492 72.8414C67.2799 72.8206 67.21 72.8181 67.1402 72.8325C67.0933 72.8325 67.0489 72.8439 67.008 72.8658C66.9641 72.8777 66.9252 72.8985 66.8927 72.9288C66.8533 72.9506 66.8219 72.9799 66.7985 73.0167C66.7526 73.0643 66.7211 73.1194 66.7047 73.1834L66.6862 73.3135L66.7047 73.4435L66.7575 73.5607C66.772 73.5786 66.787 73.5964 66.8014 73.6138C66.8249 73.651 66.8563 73.6803 66.8957 73.7022C66.9217 73.726 66.9511 73.7439 66.9835 73.7563C67.1003 73.8342 67.2559 73.86 67.3941 73.8243C67.4759 73.8029 67.5473 73.7637 67.6077 73.7076C67.668 73.651 67.7094 73.5845 67.7324 73.5081L67.7419 73.4465C67.7538 73.3646 67.7558 73.319 67.7309 73.2142C67.7199 73.1686 67.6885 73.1035 67.672 73.0762C67.6012 72.9601 67.4854 72.8802 67.3492 72.8414ZM61.3016 69.2585C61.1016 69.2571 60.9015 69.2576 60.7015 69.2595L60.5513 69.2615C60.3004 69.265 60.0853 69.2412 59.8878 69.404C59.7446 69.5221 59.8075 69.7207 59.9436 69.8095C60.1497 69.9445 60.4081 69.8765 60.6451 69.8617C60.895 69.8463 61.145 69.8329 61.3954 69.8224C61.8794 69.8021 62.3643 69.7892 62.8487 69.7872C63.3326 69.7857 63.8171 69.7897 64.301 69.7971C64.7929 69.8046 65.3053 69.8473 65.7947 69.7996C65.862 69.7932 65.877 69.7108 65.8106 69.6889C65.3497 69.54 64.8308 69.4914 64.3474 69.4348C63.849 69.3757 63.3506 69.334 62.8487 69.3072C62.3333 69.2794 61.8175 69.262 61.3016 69.2585ZM67.3502 67.7932L67.3338 67.7937C67.246 67.7937 67.1631 67.8131 67.0863 67.8518L67.0703 67.8602L66.9646 67.9367C66.8997 67.9977 66.8548 68.0692 66.8304 68.1521L66.8114 68.2817C66.8089 68.3492 66.8239 68.4117 66.8563 68.4698C66.8778 68.5304 66.9137 68.583 66.9646 68.6272C67.012 68.6748 67.0679 68.7086 67.1327 68.7279C67.1901 68.7562 67.2514 68.7706 67.3173 68.7706L67.3338 68.7701C67.4281 68.7696 67.5159 68.7478 67.5972 68.7036L67.7029 68.6272C67.7678 68.5661 67.8127 68.4946 67.8371 68.4117L67.8561 68.2817C67.8586 68.2147 67.8436 68.1521 67.8107 68.0935C67.7897 68.033 67.7538 67.9809 67.7029 67.9367C67.6555 67.889 67.5997 67.8553 67.5348 67.8354C67.4774 67.8076 67.4161 67.7932 67.3502 67.7932ZM65.8022 56.3228C65.6894 56.1705 65.4859 56.306 65.5148 56.4286C65.5073 56.7726 65.4884 57.1066 65.4045 57.4437C65.3661 57.598 65.3162 57.7524 65.2384 57.8939L65.206 57.9535C65.1057 58.1386 65.0279 58.3133 65.1631 58.5164C65.2264 58.6122 65.3417 58.6841 65.4664 58.6792C66.0192 58.6568 66.0955 57.9371 66.1289 57.5355C66.1634 57.1215 66.0556 56.6668 65.8022 56.3228Z" fill="black"/>
<path d="M57.6146 35.284C58.5809 32.254 61.6776 31.3752 63.1049 31.3145H64.1666C64.4469 31.9821 65.7181 33.5432 68.5588 34.4464C72.109 35.5753 73.8661 37.4326 75.0739 38.9621C76.2817 40.4916 76.3181 40.2731 78.8804 41.2928C81.4423 42.3125 80.637 45.7357 80.4175 47.4837C80.198 49.2318 76.0253 52.1088 74.5246 53.1649C73.0239 54.221 71.0473 54.0753 70.1693 54.1481C69.2907 54.221 68.0095 55.8961 66.1063 56.1145C64.203 56.3329 60.4328 56.2605 58.0541 53.1649C55.6749 50.0694 56.2237 44.4611 56.5899 42.3489C56.956 40.2367 56.4068 39.0714 57.6146 35.284Z" fill="white"/>
<path fill-rule="evenodd" clip-rule="evenodd" d="M51.9141 37.199C52.3771 35.9201 52.8661 34.6509 53.3809 33.3916C53.8818 32.166 54.3348 30.9139 54.9569 29.7464C58.6742 22.7732 65.4332 22.7732 68.927 23.6843C70.7389 22.9079 74.1329 23.1269 76.0192 23.8275C79.074 24.9617 82.7972 29.4231 84.0699 31.4276C86.8807 35.8534 88.6348 41.744 86.7679 46.8582C86.5234 47.5265 86.2126 48.1456 85.8619 48.7422C86.0829 49.0397 86.3369 49.3214 86.6182 49.5983C87.4544 50.4211 88.291 51.2168 89.0134 52.1449C89.7313 53.0672 90.3265 54.048 90.7695 55.1292C91.6047 57.1688 91.6451 59.478 90.5405 61.4238C89.5797 63.1169 87.8774 64.3777 85.9597 64.4979C85.8609 64.5113 85.7626 64.5242 85.6633 64.5336C85.4094 64.9501 85.0996 65.3333 84.7459 65.6673C83.6623 66.6924 81.0795 67.218 79.6068 67.2518C79.5309 67.3124 79.4546 67.3724 79.3788 67.432C78.4773 68.1378 77.5314 68.8496 76.4967 69.3515C75.7957 69.692 74.8768 69.9759 74.1454 69.7302C73.8136 69.9506 73.2693 69.9045 72.9406 69.7243C72.3998 69.4279 71.9602 68.8943 71.6928 68.3483C71.0438 67.0225 71.1999 65.5715 71.3665 64.1549C71.5501 62.5903 71.7262 61.0247 71.9058 59.4601C72.046 58.2365 72.1932 56.9926 72.5674 55.8142C72.7605 55.2036 73.0139 54.6166 73.3417 54.0649C73.3332 54.0186 73.3342 53.9722 73.3477 53.9287C73.4549 53.5819 73.6769 53.4001 73.9393 53.1643C73.9733 53.1341 74.0072 53.1032 74.0401 53.0716C74.1713 52.9228 74.312 52.7845 74.4622 52.6673C74.5201 52.609 74.5774 52.5501 74.6348 52.4911C75.1097 51.9963 75.5588 51.4761 75.9574 50.9187C76.344 50.3782 76.6937 49.8139 77.026 49.2389C77.3642 48.6542 77.5878 48.0091 77.925 47.4286C77.9539 47.3788 78.0278 47.3689 78.0687 47.4104C78.173 47.5177 78.2398 47.6371 78.2273 47.7628L78.2797 47.7705C78.2992 47.5809 78.4753 47.4265 78.7138 47.4679C79.071 47.5297 79.3643 47.5528 79.6736 47.4349C79.6192 47.0762 79.5694 46.7168 79.52 46.3567C79.4292 45.6941 79.3454 45.0293 79.2735 44.3646C79.0989 44.406 78.9263 44.4656 78.7567 44.5415C78.5152 44.6489 78.2872 44.7935 78.0926 44.9711C77.9006 45.1466 77.7679 45.3831 77.5334 45.5053C77.264 45.6449 76.9387 45.414 77.0175 45.1107C77.1777 44.498 78.0847 44.147 78.6459 44.0312C78.8385 43.9912 79.0355 43.9743 79.2326 43.9785C79.1882 43.5517 79.1483 43.1249 79.1159 42.6974C79.1004 42.4953 79.0864 42.2931 79.073 42.0903C78.6369 41.959 78.1695 41.9197 77.7155 41.9815C77.5658 42.1001 77.4161 42.2173 77.2715 42.3359C76.812 42.7136 76.3545 43.0933 75.903 43.4801C75.8621 43.5145 75.8217 43.5489 75.7808 43.584C75.5129 43.8135 75.1781 43.5861 75.223 43.2611C75.5917 40.5979 73.9513 38.4794 72.0306 36.8382C69.9048 35.0209 66.0394 34.8092 63.511 31.6613C62.3465 31.897 59.7468 32.597 58.6742 34.2972C57.172 36.6796 57.3681 38.8142 57.2538 41.5167C57.1396 44.2214 56.8487 47.0426 57.4664 49.7093C58.0361 52.1682 59.5782 54.2692 61.9709 55.2349C62.0302 55.2587 62.0901 55.282 62.1505 55.3044C63.3877 55.7685 64.7377 55.9 66.0394 55.6553C67.4802 55.3848 68.683 54.7291 69.8813 53.9224C69.9507 53.8767 70.0515 53.9708 69.9991 54.0396C68.4196 56.1214 65.3165 56.8174 62.8554 56.2679C62.7402 56.2416 62.6259 56.2138 62.5122 56.1825C63.063 57.757 62.9522 59.4854 62.2348 61.0182C61.8037 61.941 61.1457 62.7387 60.3445 63.3686C59.4619 64.062 58.3664 64.6225 57.7537 65.5959C57.1925 66.4879 57.3591 67.4906 58.3195 68.0058C58.5619 68.1363 58.6547 68.5583 58.4148 68.7434C58.323 68.8134 58.2317 68.8854 58.1374 68.9554C57.5996 69.3589 56.1223 70.1174 55.8829 70.1452C53.7586 70.3959 52.3298 68.8447 51.4144 67.0145C50.3394 64.8667 50.6189 62.2488 51.8033 60.2037C52.7533 58.5621 54.6247 56.9449 53.8808 54.8681C53.6154 54.126 53.0726 53.4935 52.5453 52.9221C51.9438 52.2714 51.2972 51.6621 50.7205 50.9882C50.1474 50.3193 49.6392 49.5913 49.3554 48.7518C48.9411 47.5248 49.1472 46.1981 49.4585 44.9732C50.1255 42.3437 50.9916 39.7492 51.9141 37.199Z" fill="black"/>
<path fill-rule="evenodd" clip-rule="evenodd" d="M64.79 51.9075C65.2599 51.7167 65.679 51.3983 65.9858 50.9916C66.0926 50.8501 66.12 50.7008 66.0976 50.5643C66.0726 50.4107 65.9813 50.2716 65.8566 50.1782C65.7319 50.0846 65.5757 50.0384 65.4251 50.0619C65.2939 50.0824 65.1631 50.1539 65.0599 50.3022L65.0384 50.3318C64.8558 50.5773 64.6184 50.7788 64.348 50.9086C64.087 51.0337 63.7952 51.0921 63.4934 51.0581C62.9186 50.9935 62.522 50.6839 62.1009 50.2635C62.0491 50.2105 61.9967 50.1557 61.9443 50.1001C61.9109 50.0497 61.865 50.0173 61.8141 50.0003C61.7572 49.9814 61.6928 49.9825 61.634 50.0029C61.5776 50.0226 61.5267 50.0599 61.4928 50.1095C61.4609 50.1567 61.4424 50.2151 61.4484 50.2821C61.4868 50.7178 61.7158 51.1066 62.0406 51.4119C62.4013 51.751 62.8797 51.9856 63.3302 52.0678C63.8266 52.1585 64.332 52.0935 64.79 51.9075Z" fill="black"/>
<path fill-rule="evenodd" clip-rule="evenodd" d="M69.2379 42.2484C69.1796 41.5275 68.0765 41.3638 67.9668 42.0771C67.869 42.7161 67.9842 43.303 68.2736 43.8783C68.5495 44.4279 69.2439 44.1715 69.2963 43.6711C69.3667 43.0002 69.2739 42.6968 69.2379 42.2484Z" fill="black"/>
<path fill-rule="evenodd" clip-rule="evenodd" d="M60.8439 41.9289C60.6902 41.7284 60.4682 41.5916 60.2023 41.6689C59.3711 41.9106 59.6161 43.0851 59.9079 43.6567C60.0666 43.9671 60.579 44.0459 60.8105 43.7725C61.1881 43.3268 61.3692 42.4367 60.8893 41.9976C60.8758 41.9749 60.8613 41.952 60.8439 41.9289Z" fill="black"/>
<path fill-rule="evenodd" clip-rule="evenodd" d="M68.2842 39.0938L68.153 39.071C67.7469 39.0011 67.242 38.9339 66.9552 39.2589C66.8025 39.4312 66.7501 39.7515 66.9552 39.9165C67.3154 40.2067 67.7135 40.0942 68.145 40.1188C68.5007 40.1392 68.8425 40.1977 69.1852 40.2953C69.9371 40.5092 70.5492 40.8996 71.1913 41.3284C71.2756 41.3846 71.3614 41.2774 71.3215 41.1989C70.9508 40.4762 70.2324 39.8826 69.513 39.5207C69.1293 39.3276 68.7093 39.1674 68.2842 39.0938Z" fill="black"/>
<path fill-rule="evenodd" clip-rule="evenodd" d="M61.6006 38.7703L61.5004 38.7908C60.4068 39.0183 58.9869 39.4727 58.4691 40.5418C58.4491 40.6929 58.4701 40.7254 58.487 40.7465L58.4925 40.7536C58.5065 40.7716 58.518 40.7965 58.5838 40.8171C58.6018 40.8128 58.6202 40.8082 58.6392 40.8033C58.8762 40.7414 59.0643 40.6561 59.2459 40.5676L59.4429 40.471C59.6714 40.3593 59.9024 40.2518 60.1469 40.1724C60.6682 40.003 61.205 39.8836 61.7498 39.8199C61.868 39.8061 61.9818 39.7664 62.0716 39.6984C62.1564 39.6339 62.2218 39.5445 62.2512 39.4257C62.2896 39.2719 62.2786 39.1555 62.1958 39.0168C62.1335 38.9126 62.0441 38.8404 61.9419 38.7989C61.8376 38.7567 61.7189 38.7467 61.6006 38.7703Z" fill="black"/>
<path d="M62.419 47.9608C62.0159 47.9793 61.7215 47.8094 61.5449 47.5451C61.3384 47.2354 61.2955 46.9271 61.4057 46.5265C61.5983 45.8269 62.0373 45.15 62.5267 44.6206C62.7787 44.3477 63.0571 44.0966 63.3569 43.8769L63.3634 43.8721C63.5804 43.7131 63.8269 43.5326 64.1207 43.5142C64.1032 43.8641 63.7131 44.201 63.4896 44.5222C63.4432 44.5892 63.3983 44.6539 63.3569 44.7159L63.323 44.7668C63.0366 45.1997 62.7298 45.651 62.5452 46.1362C62.4958 46.2653 62.4559 46.3869 62.419 46.5199C62.41 46.5533 62.395 46.6224 62.395 46.6418V46.7353C62.395 46.7353 62.395 46.8198 62.4998 46.8358C62.5312 46.8308 62.5627 46.8255 62.5941 46.8198C62.6275 46.8138 62.6609 46.8073 62.6939 46.8003C63.1514 46.7047 63.5679 46.5302 63.9905 46.341L64.2175 46.2388C64.4445 46.1366 64.7039 46.1305 64.9005 46.2612L65.0202 46.3411L65.103 46.2097C65.8244 46.315 66.4361 47.1373 66.8217 47.7229L66.8656 47.7905C67.2817 48.4385 67.7347 48.9812 67.3535 49.7546C67.3251 49.8129 67.2662 49.8422 67.2064 49.8498C67.1385 49.8586 67.0841 49.8039 67.0362 49.7546C66.8656 49.3233 66.8971 49.1871 66.7653 48.7783C66.677 48.5037 66.5778 48.2042 66.457 47.9608C66.3198 47.6844 66.0863 47.3369 65.8025 47.0525L65.6039 46.8535C65.5785 46.8278 65.5475 46.7966 65.4857 46.7301L65.1978 46.474L65.0816 46.7553C65.0202 46.9374 64.9269 47.0788 64.7518 47.1923C64.0808 47.6284 63.2202 47.9243 62.419 47.9608Z" fill="black"/>
</g>
<defs>
<clipPath id="clip0_240_6551">
<rect width="88" height="78" fill="white" transform="translate(4 10)"/>
</clipPath>
</defs>
</svg>
