<svg width="96" height="88" viewBox="0 0 96 88" fill="none" xmlns="http://www.w3.org/2000/svg">
<g clip-path="url(#clip0_240_6708)">
<path fill-rule="evenodd" clip-rule="evenodd" d="M43.4083 84.3754C42.2239 84.3179 42.7003 82.2335 42.7853 81.4683C43.723 78.673 43.5026 75.6232 43.8714 72.6931C44.1012 69.9575 44.3964 67.2307 44.6447 64.4976C45.1324 58.9495 48.6347 47.6553 52.6315 45.8389C53.1349 43.6167 55.2144 41.5423 57.8451 41.5423C59.64 39.4056 61.7995 37.9018 64.5698 38.2055C65.7149 38.2579 66.8251 39.4792 67.9218 39.7151C68.5362 39.8003 73.9868 39.5811 75.0788 40.2334C75.8394 40.6262 76.5261 41.3521 76.3024 42.2763C75.9455 43.396 77.0542 42.1844 79.3672 43.3795C84.0842 46.2291 81.2655 50.0413 81.1407 50.1594C84.0842 54.279 86.6568 57.6214 87.8472 62.6563C88.6187 66.3949 88.5318 70.2538 89.1779 74.0113C89.4063 75.3143 89.7565 76.5729 90.1352 77.8378C90.5462 79.4936 90.7454 83.6206 90.9717 83.6577C91.3843 83.7607 90.7335 84.6121 90.297 84.6127C78.1852 86.6338 65.8829 84.6968 53.7065 84.3801C50.275 84.2599 46.8397 84.2322 43.4083 84.3754Z" fill="white"/>
<path fill-rule="evenodd" clip-rule="evenodd" d="M61.7652 50.5229C61.7595 50.4671 61.6846 50.4672 61.6789 50.5229L61.5935 51.3532C61.4895 52.3674 61.3891 53.3795 61.3168 54.3984C61.2262 55.6689 61.1654 56.9391 61.1362 58.2124C61.0348 62.6472 61.0145 67.0847 61.0057 71.5206C60.4095 71.4788 59.8133 71.4391 59.2165 71.4004C58.8113 71.3737 58.4065 71.3487 58.0018 71.3241L56.9691 71.2608L56.544 71.2347C56.2569 71.2169 55.9305 71.1443 55.7296 71.3999C55.6493 71.5023 55.6089 71.6356 55.6839 71.7574C55.8567 72.0381 56.1221 72.0281 56.4228 72.0402C56.7058 72.0517 56.9894 72.0631 57.2729 72.0741C57.88 72.0976 58.4872 72.1201 59.0948 72.1374C59.7321 72.1551 60.3694 72.1698 61.0067 72.1808C61.0129 74.0535 61.0899 75.9236 61.1737 77.7942L61.2112 78.6363C61.3131 80.9125 61.4229 83.1913 61.5784 85.4644C61.5915 85.6505 61.8531 85.6505 61.8656 85.4644C62.0409 82.9044 62.157 80.3386 62.2714 77.7749C62.3547 75.9163 62.403 74.0566 62.4264 72.1975C62.5102 72.198 62.5945 72.199 62.6788 72.1996C65.0709 72.21 67.4619 72.2205 69.8535 72.198C69.8498 72.2027 69.8457 72.2074 69.8431 72.2137C69.6698 72.6245 69.6537 73.1493 69.6579 73.5904C69.6625 74.0958 69.7302 74.596 69.8462 75.0878C70.2613 76.8503 71.3315 78.4288 72.5504 79.7339L72.5905 79.7762C72.8782 80.082 73.208 80.3888 73.3844 80.7782C73.5649 81.1759 73.6273 81.6406 73.7163 82.0681L73.7267 82.1173L74.0747 83.7339C74.1855 84.2471 74.2168 84.9961 74.621 85.3667C74.9976 85.7127 75.4971 85.5319 75.675 85.0871C75.8134 84.7395 75.6755 84.3579 75.5933 84.0109L74.9503 81.292C74.8447 80.8487 74.7292 80.4024 74.5013 80.0041C74.2677 79.5964 73.9254 79.3006 73.5758 78.998C72.9141 78.4251 72.3069 77.7692 71.7935 77.0588C71.28 76.3491 70.8409 75.5661 70.5334 74.7434C70.3794 74.3315 70.253 73.9035 70.1661 73.4723C70.0829 73.0625 70.0839 72.6386 69.9955 72.2335C69.9892 72.2058 69.9658 72.1865 69.9388 72.1781C69.945 72.1598 69.9357 72.1353 69.9102 72.1337L67.9541 72.0072C66.2154 71.8943 64.4767 71.7788 62.7396 71.6466L62.4327 71.6241C62.4566 69.143 62.4363 66.6619 62.3916 64.1797C62.351 61.9035 62.35 59.6272 62.2829 57.3513C62.249 56.2218 62.1772 55.095 62.0966 53.9678C62.0149 52.8151 61.8833 51.6721 61.7652 50.5229ZM80.1319 63.7197C80.1528 63.5933 79.9946 63.5154 79.9218 63.6309C79.0889 64.9512 78.6872 66.3859 78.5181 67.9314C78.3683 69.2956 78.4125 70.6791 78.4869 72.0464C78.5665 73.5052 78.6591 74.9635 78.7528 76.4212L78.8969 78.6567L79.2579 84.2613C79.2839 84.6621 79.3745 85.027 79.7173 85.213C79.761 85.2496 79.8063 85.2826 79.8588 85.3108C80.0445 85.4106 80.2901 85.3599 80.3973 85.1686L80.3546 85.1974C80.3172 85.2209 80.3593 85.188 80.4805 85.0981L80.5835 84.9637C80.6584 84.8503 80.7063 84.739 80.7255 84.6041C80.7557 84.3951 80.7167 84.1656 80.7032 83.955L80.4665 80.2801C80.2823 77.4231 80.0674 74.5667 79.9051 71.7083C79.8297 70.376 79.7766 69.0426 79.8125 67.7077C79.8484 66.3807 79.9155 65.0311 80.1319 63.7197ZM72.9266 39.1184L72.8802 39.1105C71.2259 38.8342 69.4269 38.8859 67.9145 39.6881C67.902 39.6947 67.9078 39.7156 67.9218 39.715L68.4087 39.6954C69.9492 39.6347 71.485 39.5988 72.9999 39.9629L73.1549 40.0005C73.7007 40.1344 74.2703 40.2982 74.7084 40.6607C75.1272 41.0072 75.3358 41.5416 75.5366 42.0336L75.5632 42.0986C75.7666 42.5845 76.0241 43.0453 76.4699 43.3492C77.0479 43.7427 77.7425 43.6945 78.4047 43.748C79.5711 43.8422 80.5242 44.6924 80.9987 45.7327C81.2858 46.3626 81.4086 47.0688 81.4326 47.7577C81.445 48.1084 81.4471 48.4728 81.4003 48.8213C81.3857 48.9326 81.2489 49.3385 81.1787 49.3287C81.0236 49.3071 80.8821 49.3885 80.8338 49.5132C80.4503 49.1408 80.0565 48.7792 79.6497 48.4306C78.6352 47.5618 77.5427 46.7743 76.3924 46.0977C75.5142 45.5812 74.5882 45.0695 73.6289 44.6826C73.7054 44.681 73.7803 44.6962 73.8526 44.7341C73.8843 44.7508 73.9161 44.7107 73.8906 44.6842C73.5888 44.3645 73.2267 44.319 72.862 44.4043C72.7845 44.3793 72.7065 44.3552 72.6285 44.3324C72.5894 44.321 72.5697 44.3749 72.6019 44.3957L72.6914 44.4533C72.2934 44.5874 71.9027 44.851 71.5932 45.059C70.7046 45.6563 69.9227 46.3866 69.1298 47.1031L68.9857 47.233C68.288 47.8598 67.5722 48.4688 66.7793 48.9717C66.3647 49.2348 65.9287 49.4783 65.4714 49.6594C65.0792 49.8148 64.4408 49.9126 64.2572 50.3295C64.0938 50.529 64.162 50.7837 64.3529 50.918C64.6755 51.2749 65.3206 51.0443 65.705 50.8956C66.168 50.7164 66.617 50.5009 67.0452 50.2482C67.876 49.7575 68.6423 49.1473 69.3561 48.4982C70.1011 47.8204 70.8045 47.1003 71.5297 46.4011C71.8434 46.0981 72.1503 45.7881 72.4651 45.4856L72.6233 45.335C72.7835 45.1836 73.0124 44.9475 73.2569 44.8045C73.7178 45.0811 74.1855 45.3461 74.6423 45.6298C75.2796 46.0257 75.8987 46.4502 76.5074 46.8886C77.68 47.7326 78.7913 48.678 79.8229 49.6912C81.715 51.5494 83.3273 53.6714 84.7351 55.9183L84.8422 56.0895C85.6424 57.3756 86.3988 58.7031 86.9357 60.1243C87.5262 61.6881 87.8128 63.3324 87.9689 64.9919C88.1239 66.6399 88.176 68.2963 88.3492 69.9432C88.5266 71.6314 88.8762 73.2831 89.2737 74.931L89.3684 75.322C89.7284 76.798 90.0998 78.2741 90.2845 79.7851C90.3834 80.5921 90.4427 81.4106 90.4292 82.2244C90.4156 83.0424 90.2882 83.8426 90.1846 84.6527C90.1451 84.9627 90.4489 85.2219 90.7205 85.2627C91.0326 85.3103 91.3011 85.1096 91.3979 84.8179C91.7006 83.9079 91.7558 82.9023 91.7459 81.9474C91.7365 80.9778 91.6138 80.0151 91.4405 79.0622C91.1003 77.1879 90.5748 75.3528 90.1352 73.5015C89.7482 71.8692 89.488 70.2343 89.3481 68.5628C89.2029 66.8281 89.1155 65.0876 88.8502 63.3659C88.5885 61.6656 88.0959 60.0417 87.3524 58.4915C86.6761 57.0803 85.8328 55.7518 84.9484 54.4641C83.8746 52.9005 82.6952 51.4126 81.3769 50.057C81.4955 50.0518 81.6172 50.0133 81.7286 49.9433C82.0704 49.7289 82.2296 49.3096 82.2785 48.9268C82.3929 48.0312 82.3654 47.0962 82.1364 46.2207C81.7671 44.8081 80.8083 43.5531 79.4187 43.0439C79.0613 42.9128 78.681 42.865 78.3022 42.8556C77.9428 42.8466 77.55 42.8937 77.203 42.7791C76.6505 42.5965 76.4138 41.9421 76.2062 41.4461L76.1968 41.4233C75.931 40.7912 75.6115 40.2494 75.0356 39.8547C74.4212 39.4336 73.6513 39.2421 72.9266 39.1184ZM57.2068 41.6181C56.7095 41.4446 56.0878 41.6021 55.6018 41.7536C55.0602 41.9225 54.5597 42.2336 54.1306 42.6031C53.6778 42.9927 53.3037 43.4738 53.0394 44.0113L53.0141 44.0631C52.7727 44.5616 52.4977 45.246 52.6195 45.7937C52.623 45.8093 52.6269 45.8243 52.6315 45.8387C51.6451 46.3272 50.7341 46.939 49.9408 47.7144C49.0171 48.6173 48.235 49.6447 47.5731 50.7546C44.9444 55.163 44.4817 60.4572 44.1713 65.4848L44.0938 66.7596C43.9252 69.512 43.7279 72.2581 43.2155 74.9729L43.1781 75.1689C42.6302 78.0112 41.8461 80.8749 41.9255 83.7903C41.9493 84.6642 43.2328 84.658 43.27 83.7903C43.4101 80.5247 44.1677 77.3714 44.6807 74.157C45.5834 68.5011 45.1311 62.6702 46.4101 57.0713C46.9121 54.874 47.6896 52.7425 48.7999 50.7812C49.3483 49.8122 49.9758 48.876 50.7109 48.0401C51.3433 47.3208 52.0006 46.6286 52.7396 46.0239C52.9758 46.2619 53.4476 46.1406 53.571 45.7937C53.6557 45.5553 53.631 45.2766 53.6853 45.0269C53.7358 44.7952 53.8053 44.5654 53.898 44.3471C54.0827 43.9122 54.3538 43.4946 54.6668 43.1425C55.0049 42.762 55.3935 42.4459 55.8283 42.1848C56.2662 41.922 56.7448 41.8436 57.2068 41.6515C57.2224 41.6451 57.224 41.6241 57.2068 41.6181ZM55.2752 71.8447C55.2745 71.8217 55.2476 71.8107 55.231 71.8259C55.0568 71.9874 54.9514 72.2189 54.8231 72.4175C54.6752 72.6459 54.5198 72.8702 54.3569 73.0886C54.0305 73.5261 53.6672 73.9385 53.3009 74.3425C52.9603 74.7183 52.5972 75.0779 52.2206 75.4171C51.8126 75.7846 51.3554 76.1128 50.9846 76.52C50.2111 77.3688 50.0861 78.5349 49.9229 79.6293L49.905 79.7475C49.8055 80.3971 49.7163 81.0484 49.6359 81.7007C49.5968 82.0179 49.5579 82.3352 49.526 82.6535L49.5163 82.7539C49.4878 83.0654 49.4802 83.3811 49.6579 83.6534C49.8482 83.9445 50.2809 84.0464 50.5381 83.7673C50.98 83.288 50.8971 82.4361 50.9546 81.8193C51.0021 81.3097 51.056 80.8001 51.1163 80.2916L51.147 80.037C51.2181 79.4584 51.2758 78.8683 51.4074 78.2997C51.5234 77.7989 51.7445 77.4211 52.1071 77.0583C52.4725 76.693 52.8522 76.3517 53.1894 75.9586C53.5472 75.541 53.8698 75.0936 54.1606 74.6263C54.4093 74.227 54.6086 73.7921 54.7912 73.3578L54.8215 73.2857C54.998 72.8623 55.289 72.3109 55.2752 71.8447ZM48.8947 53.6551C48.8908 53.5961 48.804 53.5952 48.8027 53.6551C48.7918 54.1632 48.7813 54.6712 48.7707 55.1792C48.6864 59.2729 48.7384 63.3763 48.3301 67.4558C48.1376 69.3792 47.783 71.2744 47.3726 73.1618C47.1627 74.1277 46.9424 75.091 46.7332 76.0569C46.5292 76.9982 46.3105 77.9443 46.1487 78.8939C45.9897 79.828 45.8473 80.7688 45.7834 81.7148L45.7755 81.8382C45.748 82.296 45.6167 82.9697 45.8674 83.3759C46.1391 83.8159 46.6594 83.8238 46.9506 83.4041C47.224 83.0095 47.156 82.308 47.2043 81.8382C47.2534 81.3589 47.3053 80.879 47.3643 80.4013C47.4793 79.4684 47.6308 78.538 47.7885 77.6118C48.1168 75.6832 48.593 73.7786 48.9445 71.8525C49.3047 69.8794 49.5607 67.8917 49.5715 65.8826C49.5822 63.8567 49.369 61.8339 49.2614 59.8123C49.1521 57.7592 49.0278 55.7071 48.8947 53.6551ZM68.1184 40.9225C68.0092 40.5524 67.6237 40.3211 67.2476 40.425C66.9032 40.5203 66.6181 40.9412 66.7533 41.3013C66.9 41.6942 67.157 42.0293 67.374 42.3864C67.5743 42.7165 67.8661 42.9763 68.0701 43.3004L67.8453 43.5441C67.7329 43.6657 67.62 43.7865 67.5061 43.9052L67.1144 44.3136C66.809 44.631 66.502 44.9466 66.1863 45.2529C65.2576 46.154 64.3144 47.0254 63.2744 47.797C63.0372 47.9725 62.7989 48.1471 62.5534 48.3106L62.4623 48.3716C62.2938 48.4824 62.106 48.5913 61.9031 48.5726C61.4088 48.5269 60.9625 47.9993 60.6233 47.6709L60.6056 47.6538C59.7644 46.8486 58.9855 45.9684 58.3045 45.022C58.1532 44.8117 58.007 44.5979 57.8644 44.3815C58.1937 43.9946 58.1152 43.2395 58.1329 42.7703C58.1459 42.4404 58.1469 42.1105 58.1485 41.7804L58.1495 41.7138C58.1537 41.5001 58.163 41.2952 58.0252 41.1194C58.0174 41.1092 58.0007 41.1095 57.9903 41.1148C57.8015 41.2144 57.7432 41.381 57.6631 41.5679L57.6542 41.5873C57.5564 41.8117 57.4623 42.0381 57.3676 42.2638C57.2682 42.5 57.1767 42.7397 57.0846 42.9788C57.0414 43.09 57.0003 43.2016 56.9602 43.3139C56.9358 43.3856 56.9103 43.4569 56.8843 43.5281L56.8786 43.5336C56.8442 43.5629 56.8151 43.5938 56.7896 43.6257C56.6845 43.6788 56.6007 43.7754 56.5617 43.9173C56.4759 44.2262 56.6528 44.4781 56.8109 44.7233C57.4519 45.7196 58.1828 46.6689 58.9949 47.5301C59.3981 47.9579 59.8226 48.3665 60.2648 48.7541L60.3418 48.8214C60.7388 49.1646 61.1695 49.4896 61.6997 49.5699C62.3203 49.6638 62.825 49.3534 63.2999 48.9959L63.3473 48.96C63.7978 48.6172 64.239 48.2624 64.6661 47.8912C65.5375 47.1343 66.3668 46.3217 67.1024 45.4302C67.8177 44.5631 68.5253 43.5934 68.9664 42.55C68.9935 42.4865 68.9227 42.42 68.8671 42.473C68.6517 42.6794 68.4446 42.8969 68.2397 43.1173C68.2339 42.793 68.2932 42.4658 68.2605 42.1395C68.2199 41.7428 68.2313 41.3045 68.1184 40.9225Z" fill="black"/>
<path fill-rule="evenodd" clip-rule="evenodd" d="M49.4016 27.8776C49.5617 26.4627 49.3545 23.5054 49.3406 23.3257C49.2528 22.1898 49.7821 17.7045 50.7828 18.1178C52.4614 16.7818 54.6972 16.4868 56.788 16.3459C61.1305 16.0531 65.7503 16.7252 69.1032 19.6634C70.7618 21.1892 72.3761 23.4085 72.246 25.7192C73.7527 27.9096 75.8768 30.9141 73.9998 33.4747C73.3614 34.2928 72.3475 34.5975 71.5458 35.2171C69.9335 36.5246 68.9217 38.4011 67.2943 39.7008C62.982 43.5966 55.6597 44.4105 51.423 39.9793C48.1468 36.77 48.6765 31.9689 49.2528 27.8776C49.6402 25.1269 49.0892 30.6378 49.4016 27.8776Z" fill="white"/>
<path fill-rule="evenodd" clip-rule="evenodd" d="M62.5894 10.3459C61.4282 10.1103 60.2358 9.96369 59.0497 10.0078L58.9581 10.0114C58.0659 10.0472 56.9359 10.1266 56.1571 10.6483C56.1124 10.6031 56.0406 10.5799 55.9751 10.6112C55.05 11.0552 54.0326 11.3762 53.0585 11.6951C52.089 12.0125 51.0831 12.222 50.0668 12.3065C49.6845 12.3382 49.3573 12.7533 49.5994 13.1256C49.657 13.2143 49.713 13.3039 49.7689 13.3938C49.6755 13.3839 49.582 13.3739 49.4886 13.3643C49.1811 13.3332 48.8739 13.6632 48.8921 13.9642C48.9035 14.1535 48.9238 14.3406 48.9539 14.5254C48.8368 14.523 48.7203 14.5406 48.6078 14.5884C48.0382 14.8302 48.0779 15.5123 48.1205 16.0313C48.1796 16.7515 48.4475 17.5143 48.945 18.0533C48.5736 18.4412 48.3106 18.9043 48.1538 19.4544C48.04 19.8561 47.9767 20.2839 48.0079 20.7021L48.0179 20.8273C48.0566 21.281 48.1334 21.7834 48.4581 22.1098C48.6247 22.2781 48.8301 22.3395 49.0258 22.3201C48.9074 23.3658 48.8315 24.4174 48.7602 25.4654L48.7267 25.9663C48.5673 28.3883 48.4476 30.8262 48.4789 33.2522C48.508 35.5194 48.9536 37.72 50.3367 39.5609C51.5963 41.2372 53.4049 42.4729 55.4509 42.9426C56.5535 43.1962 57.6793 43.2142 58.7953 43.0526C59.3363 42.974 59.8805 42.8536 60.394 42.6636C60.9626 42.4527 61.371 42.1423 61.7534 41.677C61.9344 41.4564 61.847 40.9866 61.487 41.0307C60.9423 41.0971 60.445 41.1772 59.9226 41.3391L59.8483 41.3629C59.328 41.5304 58.789 41.6553 58.2454 41.7084C57.1315 41.8169 56.0008 41.7077 54.9339 41.3681C53.1966 40.8145 51.7004 39.5811 50.7414 38.0312C49.6031 36.1941 49.4744 34.1087 49.4908 31.9963C49.5084 29.6783 49.5834 27.359 49.7058 25.0434L49.7267 24.6576C49.7914 23.466 49.8539 22.2736 49.9089 21.0813C49.926 20.7074 49.952 20.3304 49.999 19.9571C50.4282 19.7042 50.8128 19.3557 51.0635 18.9256C51.5673 19.135 52.097 19.2861 52.5844 19.4065C53.7133 19.6857 54.8854 19.7535 56.0343 19.5786C56.3444 19.7074 56.6607 19.8206 56.9817 19.918C57.0681 19.9566 57.1549 19.9946 57.2418 20.0319C58.0154 20.3647 58.8005 20.6467 59.6173 20.8532L59.8181 20.9035C60.2478 21.01 60.715 21.115 61.1723 21.1479C61.2472 21.1771 61.3283 21.2018 61.4173 21.2234C61.8335 21.3252 62.2658 21.3574 62.693 21.3214C63.1091 21.2863 63.4093 20.8637 63.1804 20.468C63.0129 20.1792 62.8438 19.8913 62.6737 19.604C63.2668 19.8524 63.8791 20.0588 64.4966 20.2339C65.1199 20.4104 65.7525 20.5592 66.3857 20.6961C66.7243 20.7687 67.0641 20.833 67.4017 20.9056C67.6436 20.9572 68.0151 20.9841 68.2122 21.1442C68.4302 21.32 68.4916 21.7299 68.5743 21.9827C68.6831 22.3111 68.785 22.6409 68.8781 22.9745C69.0634 23.6403 69.2147 24.3157 69.3323 24.9979C69.4499 25.6808 69.529 26.3705 69.5727 27.0624C69.6169 27.7536 69.5976 28.4492 69.6679 29.1374C69.7059 29.5024 70.096 29.6901 70.3837 29.4351C70.4176 29.4052 70.4514 29.3749 70.4852 29.3443L70.5356 29.2982C70.7817 29.0738 71.0205 28.8359 71.2177 28.5682C71.2536 28.5188 71.2879 28.4672 71.3197 28.4148C71.3249 28.4148 71.3295 28.4133 71.3347 28.4096L71.3894 28.3683C71.9908 27.9179 72.9964 27.3309 73.5827 28.079C73.77 28.3173 73.8657 28.6207 73.9448 28.9135L74.0842 29.4374C74.1748 29.7794 74.2596 30.1234 74.309 30.4733C74.4214 31.2573 74.3652 32.1609 73.8283 32.7892C73.6139 33.0405 73.319 33.22 72.9891 33.2671C72.8055 33.2926 72.6239 33.2611 72.4418 33.238C72.2566 33.2148 72.0777 33.2522 71.8924 33.2342C71.598 33.2051 71.469 33.5596 71.5793 33.7825C71.6391 33.9022 71.7088 34.0054 71.7884 34.093C71.7244 34.1483 71.6635 34.2081 71.6047 34.271C71.4305 34.3271 71.2744 34.4475 71.1573 34.6068C71.0632 34.7355 71.0137 34.8754 71.0059 35.0227C70.9955 35.0594 70.9867 35.0968 70.9784 35.1349L70.8187 35.3954C70.7833 35.4525 70.7484 35.5089 70.7136 35.5643C70.3073 36.2075 69.8562 36.7521 69.2959 37.2653C68.7564 37.7589 68.1711 38.201 67.6644 38.7306L67.6046 38.7935C67.1322 39.294 66.6343 39.8998 66.819 40.6276C66.8669 40.8146 67.1265 40.9492 67.2961 40.8228C67.8413 40.4159 68.116 39.7711 68.579 39.2774C69.055 38.7687 69.5826 38.3117 70.0601 37.8046C70.5117 37.3259 70.8681 36.7835 71.1365 36.1866C71.2437 36.3055 71.3998 36.3901 71.6167 36.423C71.9887 36.4791 72.3352 36.2599 72.4975 35.936C72.6015 35.9824 72.7082 36.0243 72.8154 36.0572C73.3793 36.2307 73.7341 35.6002 73.5213 35.1342C73.4074 34.8843 73.2654 34.6674 73.089 34.4849C73.6405 34.4086 74.2013 34.1221 74.5634 33.7646C75.4728 32.8662 75.5976 31.516 75.3932 30.3155C75.2844 29.679 75.0972 29.0349 74.8537 28.4372C74.8115 28.3333 74.7658 28.2285 74.7163 28.1253C74.7434 28.1246 74.772 28.1126 74.7897 28.0894C74.9541 27.8635 75.1544 27.6788 75.2761 27.4259C75.3885 27.1941 75.5134 26.9592 75.6023 26.7176C75.7844 26.2232 75.8739 25.6652 75.9332 25.1423C76.056 24.0719 76.0086 23.0082 75.8453 21.9445C75.568 20.1329 74.8979 18.3991 73.9105 16.8778C73.9641 16.8494 74.0156 16.8151 74.0639 16.7746L74.0874 16.7538L74.1259 16.7188C74.4078 16.4625 74.3834 15.982 74.1259 15.7224L74.0447 15.6404C73.9417 15.5376 73.8527 15.4561 73.6868 15.3442C73.6623 15.3277 73.6368 15.3121 73.6119 15.2976C73.6987 15.1359 73.7289 14.9468 73.668 14.7381C73.4568 14.0114 72.4169 14.0371 71.7577 14.354C71.0283 13.6996 70.2193 13.1315 69.3427 12.6715C67.255 11.5764 64.8946 10.8127 62.5894 10.3459ZM73.3814 29.4875C72.9912 29.3596 72.4736 29.6281 72.1234 29.7897C71.6791 29.9946 71.3009 30.2975 70.9352 30.6177C70.7526 30.7778 70.7198 31.0396 70.7656 31.2632C70.7698 31.2857 70.7744 31.3089 70.7796 31.3321C70.828 31.5707 71.0928 31.7584 71.3269 31.7517C71.8175 31.7382 72.0511 31.3126 72.3284 30.9521C72.3612 31.0104 72.4023 31.0642 72.4527 31.1046L72.4871 31.1316C72.6021 31.2197 72.729 31.2902 72.8814 31.2834C72.9891 31.2782 73.0927 31.2505 73.1879 31.2004C73.4261 31.074 73.5307 30.7643 73.4662 30.5123C73.4261 30.3537 73.3335 30.2295 73.2133 30.1435L73.2581 30.1126C73.3543 30.0453 73.4417 29.9744 73.5104 29.8698L73.5255 29.845H73.5198C73.5942 29.7163 73.5458 29.5413 73.3814 29.4875Z" fill="black"/>
<path fill-rule="evenodd" clip-rule="evenodd" d="M55.81 38.0364C56.3599 38.1931 56.9499 38.2071 57.5102 38.0452C58.0185 37.8984 58.5408 37.5752 58.9149 37.1476C59.2468 36.7677 59.4622 36.3061 59.4538 35.8133C59.4528 35.757 59.4325 35.71 59.4008 35.6736C59.3669 35.6343 59.3196 35.6074 59.2691 35.5956C59.2171 35.5836 59.162 35.5879 59.1152 35.6089C59.0725 35.6278 59.0361 35.6601 59.0137 35.7072C58.956 35.7816 58.8987 35.8548 58.8415 35.926C58.379 36.4879 57.9311 36.9079 57.236 37.0585C56.8588 37.1402 56.4822 37.104 56.1367 36.9793C55.7668 36.8458 55.4324 36.6111 55.1703 36.3107C55.0519 36.175 54.912 36.1196 54.7753 36.1186C54.6204 36.1176 54.4672 36.1885 54.3518 36.3017C54.2384 36.4131 54.1625 36.5644 54.1556 36.7227C54.1496 36.8616 54.1956 37.0067 54.3181 37.1362C54.7215 37.5626 55.2443 37.8751 55.81 38.0364ZM55.827 30.9985C55.2634 31.3357 54.4047 32.1221 55.0109 32.9581C55.7246 33.6953 56.7522 32.8501 57.2584 32.4678C57.7282 32.1716 58.2552 32.9335 57.8197 33.2794C54.1611 35.946 52.6763 31.0867 55.5419 30.602C55.8574 30.5486 55.9746 30.8942 55.827 30.9985ZM61.0988 29.5146C61.2799 29.4006 61.4932 29.3614 61.7294 29.4672C61.9141 29.5498 62.2377 29.8252 62.4629 30.1872C62.6169 30.4349 62.7262 30.7255 62.7033 31.0282C62.6981 31.0984 62.7246 31.1503 62.7662 31.1886C62.799 31.2188 62.8463 31.2411 62.902 31.2481C62.9494 31.254 63.0024 31.2486 63.0456 31.2354C63.1278 31.2102 63.171 31.1578 63.1871 31.1151C63.3453 30.7028 63.2771 30.2427 63.1002 29.8276C62.862 29.2673 62.4286 28.7981 62.1445 28.6468C61.6591 28.3878 61.0864 28.3759 60.5999 28.6397C60.1858 28.8643 59.9267 29.2268 59.6692 29.5964C59.6146 29.675 59.5605 29.753 59.5043 29.8295C59.3914 29.983 59.3805 30.1353 59.4242 30.2659C59.472 30.4105 59.5953 30.5326 59.7493 30.5964C59.8914 30.6555 60.0568 30.6638 60.203 30.6031C60.3263 30.5519 60.4397 30.452 60.511 30.2825C60.6317 29.997 60.833 29.6821 61.0988 29.5146ZM51.8993 30.1497C52.0234 30.2133 52.1205 30.2325 52.2581 30.192C52.3342 30.1694 52.4093 30.1263 52.4682 30.0683C52.5266 30.0109 52.5687 29.9394 52.5851 29.8602C52.6254 29.6646 52.734 29.4815 52.889 29.3621C53.0214 29.2601 53.1885 29.206 53.3739 29.2366C53.574 29.2694 53.7645 29.3957 53.8958 29.5446C53.9397 29.5944 53.9741 29.651 54.0086 29.7072C54.0734 29.8123 54.1362 29.9101 54.2254 29.9873C54.2592 30.0166 54.3102 30.037 54.3595 30.037C54.3796 30.037 54.3999 30.0337 54.4193 30.0278C54.6184 29.8311 54.6567 29.6818 54.6503 29.5338C54.6435 29.3786 54.5814 29.2214 54.4809 29.0748C54.2453 28.7308 53.7978 28.4487 53.4959 28.3849C53.0824 28.2974 52.6718 28.4024 52.3425 28.6297C52.0037 28.8637 51.7527 29.2269 51.6744 29.6362C51.6556 29.7348 51.6636 29.8412 51.7018 29.9334C51.739 30.0236 51.8039 30.1008 51.8993 30.1497ZM60.1869 25.8471C60.435 26.0852 60.729 26.122 61.026 26.1548C61.1909 26.1732 61.3231 26.188 61.4526 26.2168C61.809 26.2961 62.1612 26.4153 62.4827 26.5872C62.8188 26.7668 63.185 26.9834 63.4488 27.2609C63.5112 27.327 63.5705 27.3962 63.6293 27.4657C63.6834 27.529 63.7354 27.59 63.7901 27.6487C63.853 27.7163 63.9129 27.787 63.9722 27.8576C64.0086 27.9172 64.0159 27.9318 64.0231 27.9471C64.0346 27.97 64.0476 27.9956 64.0622 28.0231C64.0824 28.0608 64.1064 28.102 64.1308 28.1394C64.1724 28.2077 64.1943 28.2266 64.2136 28.235C64.2453 28.2489 64.2755 28.2558 64.3051 28.2521C64.3322 28.2486 64.3582 28.2356 64.3837 28.2144C64.5111 28.1084 64.5486 27.9345 64.5449 27.7499C64.5392 27.4698 64.4341 27.1597 64.3374 26.969C64.1121 26.526 63.8005 26.0655 63.4254 25.7348C62.9972 25.3574 62.5285 25.0717 61.9905 24.8748C61.6565 24.7524 61.2695 24.6401 60.9053 24.6542C60.6431 24.6645 60.3929 24.7412 60.1858 24.9328C60.0594 25.0504 59.998 25.2176 59.998 25.3848C59.998 25.5553 60.0615 25.7268 60.1869 25.8471ZM51.3947 28.0266C51.4104 28.0521 51.4323 28.0696 51.4566 28.0802C51.4821 28.0912 51.5105 28.0944 51.5378 28.0899C51.565 28.0854 51.5908 28.0733 51.6113 28.0547C51.6309 28.037 51.6459 28.0134 51.6525 27.9846C51.8173 27.2722 52.1372 26.7422 52.82 26.4004C53.1559 26.2323 53.5421 26.1255 53.9078 26.0403C54.014 26.0156 54.1263 25.9996 54.2394 25.9833C54.5937 25.9324 54.9506 25.8741 55.1816 25.5921C55.3208 25.4222 55.3792 25.205 55.3462 25.0064C55.3151 24.8193 55.2041 24.6478 55.0022 24.5451C54.4997 24.2893 53.8753 24.5403 53.3679 24.754C53.3303 24.7699 53.2933 24.7855 53.2572 24.8005C52.761 25.0067 52.3085 25.2788 51.9364 25.6681C51.6413 25.9769 51.3678 26.4333 51.2576 26.9029C51.166 27.2936 51.1876 27.6925 51.3947 28.0266Z" fill="black"/>
<path fill-rule="evenodd" clip-rule="evenodd" d="M42.0962 83.6939C43.0272 83.6489 42.6527 82.0098 42.5859 81.4082C41.8488 79.2099 42.0221 76.8113 41.7321 74.5074C41.5515 72.3561 41.3194 70.2121 41.1242 68.0628C40.7408 63.7001 37.9876 54.8182 34.8458 53.3898C34.45 51.6423 32.8153 50.0111 30.7471 50.0111C29.3364 48.3308 27.6385 47.1483 25.4607 47.3871C24.5608 47.4283 23.6881 48.3888 22.8257 48.5743C22.3429 48.6413 18.058 48.4688 17.1997 48.9818C16.6018 49.2907 16.0621 49.8615 16.2378 50.5883C16.5184 51.4688 15.6467 50.516 13.8283 51.4558C10.1204 53.6967 12.3361 56.6945 12.4343 56.7874C10.1204 60.0268 8.09804 62.6553 7.16229 66.615C6.55584 69.5545 6.6241 72.5892 6.11598 75.5444C5.93657 76.5688 5.66133 77.5582 5.3635 78.5534C5.04071 79.8554 4.88376 83.1006 4.70584 83.1299C4.38175 83.2109 4.89315 83.8804 5.23655 83.881C14.7575 85.4699 24.4285 83.9468 34.0006 83.698C36.6982 83.6034 39.3987 83.5815 42.0962 83.6939Z" fill="white"/>
<path fill-rule="evenodd" clip-rule="evenodd" d="M27.6649 57.0731C27.6693 57.0292 27.7281 57.0293 27.7326 57.0731L27.7999 57.7262C27.8816 58.5233 27.9604 59.3193 28.0175 60.1206C28.0886 61.1199 28.1362 62.1188 28.1591 63.1202C28.2391 66.6075 28.255 70.0968 28.2618 73.5851C28.7306 73.5527 29.1994 73.5209 29.6685 73.4905C29.9868 73.4702 30.3051 73.4503 30.6234 73.4304L31.4351 73.3808L31.7692 73.3604C31.995 73.3463 32.2515 73.2893 32.4094 73.4905C32.4726 73.571 32.5043 73.6756 32.4454 73.7712C32.3095 73.9918 32.1008 73.9845 31.8646 73.9939C31.6419 74.0028 31.4191 74.0116 31.1963 74.0205C30.719 74.0388 30.2416 74.0566 29.7641 74.0702C29.2629 74.0843 28.7621 74.0958 28.2611 74.1042C28.256 75.577 28.1955 77.0478 28.13 78.5186L28.1004 79.1809C28.0202 80.971 27.9341 82.7627 27.8117 84.5503C27.8016 84.6966 27.5958 84.6966 27.5858 84.5503C27.448 82.5369 27.357 80.5194 27.2668 78.5035C27.2014 77.0416 27.1633 75.5797 27.1452 74.1172C27.079 74.1177 27.0128 74.1188 26.9466 74.1188C25.0664 74.1271 23.1866 74.1355 21.3064 74.1177C21.3095 74.1214 21.3127 74.1251 21.3147 74.1303C21.4508 74.4533 21.4637 74.8657 21.4604 75.2127C21.4566 75.6105 21.4033 76.0035 21.3123 76.3903C20.9861 77.7764 20.1446 79.0178 19.1863 80.0438L19.155 80.0772C18.929 80.3177 18.6696 80.5591 18.5308 80.8654C18.389 81.178 18.3398 81.5433 18.2699 81.8794L18.2617 81.9181L17.9881 83.1892C17.9012 83.5933 17.8765 84.1823 17.5589 84.4734C17.2625 84.7457 16.8698 84.6036 16.7303 84.2534C16.6215 83.9806 16.7299 83.6805 16.7944 83.4072L17.2999 81.2695C17.3829 80.9208 17.4737 80.5696 17.6529 80.2565C17.8365 79.9356 18.1057 79.703 18.3804 79.4652C18.9004 79.0147 19.3779 78.4988 19.7816 77.9406C20.1852 77.3818 20.5302 76.7666 20.7721 76.1196C20.8932 75.7955 20.9925 75.4589 21.0609 75.1197C21.126 74.7977 21.1254 74.4643 21.195 74.146C21.1998 74.124 21.2182 74.1089 21.2394 74.1021C21.2344 74.0879 21.2421 74.0686 21.2618 74.0676L22.7995 73.9683C24.1664 73.8794 25.5332 73.7885 26.8988 73.6844L27.1401 73.6667C27.1214 71.7155 27.1373 69.7644 27.1723 67.8122C27.2044 66.0226 27.2051 64.2325 27.258 62.4428C27.2843 61.5548 27.341 60.6684 27.4041 59.7819C27.4687 58.8756 27.572 57.9766 27.6649 57.0731ZM13.2266 67.4511C13.2102 67.3512 13.3344 67.2901 13.3917 67.381C14.0465 68.4196 14.3622 69.5475 14.4953 70.7627C14.6128 71.8352 14.5782 72.9234 14.5197 73.9991C14.4572 75.1458 14.3844 76.2926 14.3107 77.4388L14.1975 79.1971L13.9135 83.6042C13.8932 83.9194 13.8221 84.2063 13.5524 84.3527C13.5182 84.3814 13.4826 84.4071 13.4411 84.4295C13.2954 84.5079 13.1021 84.4682 13.0178 84.3177L13.0516 84.3402C13.081 84.359 13.048 84.3328 12.9524 84.2623L12.8714 84.1567C12.8124 84.0673 12.7748 83.98 12.7597 83.8739C12.7362 83.7093 12.7667 83.529 12.7773 83.3633L12.9635 80.4734C13.1082 78.2265 13.2773 75.9805 13.4047 73.7331C13.4641 72.6851 13.5057 71.6366 13.4775 70.5871C13.4495 69.5433 13.3967 68.4818 13.2266 67.4511ZM18.891 48.1049L18.9273 48.0987C20.2278 47.8813 21.642 47.922 22.8306 48.5529C22.8404 48.5581 22.8359 48.5745 22.8249 48.574L22.4424 48.5586C21.2312 48.5109 20.0239 48.4826 18.833 48.769L18.7111 48.7985C18.2822 48.9038 17.8344 49.0326 17.4899 49.3177C17.1607 49.5901 16.9967 50.0104 16.8391 50.3973L16.818 50.4484C16.6581 50.8305 16.4557 51.1929 16.1051 51.4319C15.651 51.7413 15.1049 51.7034 14.5843 51.7454C13.6676 51.8196 12.918 52.4881 12.5452 53.3062C12.3193 53.8016 12.223 54.3569 12.204 54.8986C12.1942 55.1745 12.1928 55.461 12.2293 55.735C12.241 55.8226 12.3486 56.1417 12.4035 56.134C12.5254 56.117 12.6369 56.181 12.6749 56.2791C12.9761 55.9863 13.286 55.7019 13.6059 55.4277C14.4031 54.7445 15.2618 54.1253 16.1662 53.5932C16.8565 53.1871 17.5845 52.7846 18.3385 52.4805C18.2787 52.4792 18.2198 52.4911 18.1628 52.5209C18.1379 52.5341 18.1131 52.5026 18.1328 52.4817C18.3702 52.2303 18.6547 52.1945 18.9414 52.2616C19.0026 52.242 19.0638 52.223 19.1253 52.205C19.1559 52.1961 19.1711 52.2385 19.1462 52.2549L19.0757 52.3001C19.3885 52.4056 19.6957 52.6128 19.9388 52.7764C20.6373 53.2461 21.2521 53.8204 21.8753 54.3839L21.9886 54.486C22.5372 54.9789 23.0998 55.4578 23.723 55.8532C24.0493 56.0602 24.3919 56.2517 24.7514 56.3941C25.0597 56.5163 25.5616 56.5932 25.706 56.9211C25.8344 57.078 25.7807 57.2782 25.6304 57.3839C25.3769 57.6646 24.8698 57.4832 24.5677 57.3661C24.2036 57.2252 23.8508 57.0558 23.5143 56.8571C22.8611 56.4712 22.2587 55.9914 21.6977 55.481C21.1117 54.9479 20.5589 54.3816 19.989 53.8318C19.7421 53.5936 19.5009 53.3498 19.2535 53.1119L19.1293 52.9935C19.0031 52.8744 18.8232 52.6887 18.631 52.5763C18.2687 52.7937 17.9009 53.0022 17.5419 53.2253C17.0408 53.5366 16.5544 53.8704 16.0756 54.2152C15.1538 54.8789 14.2803 55.6223 13.4693 56.4191C11.982 57.8804 10.7148 59.5488 9.60783 61.316L9.52381 61.4508C8.89475 62.4616 8.29988 63.5059 7.8781 64.6234C7.41401 65.8527 7.1883 67.1458 7.06569 68.4515C6.94399 69.7472 6.90294 71.0497 6.76694 72.3448C6.62747 73.6724 6.35266 74.9713 6.04009 76.267L5.96554 76.5743C5.68271 77.7352 5.39079 78.896 5.24541 80.0846C5.1678 80.7191 5.12111 81.3625 5.13166 82.0022C5.14226 82.6457 5.24276 83.2749 5.32384 83.9121C5.35491 84.1556 5.11634 84.3595 4.90287 84.3919C4.65736 84.429 4.44644 84.2712 4.37012 84.0417C4.13223 83.3262 4.08901 82.5354 4.09648 81.7848C4.10399 81.0222 4.20069 80.2649 4.33674 79.5159C4.60431 78.042 5.01724 76.5989 5.36267 75.1427C5.6671 73.8595 5.87142 72.5738 5.98155 71.2593C6.09588 69.8951 6.16434 68.5267 6.3729 67.1725C6.57876 65.8355 6.9661 64.5586 7.55025 63.3397C8.08213 62.2296 8.74514 61.1848 9.44026 60.1723C10.2844 58.943 11.2114 57.7728 12.2477 56.7067C12.1546 56.7026 12.0591 56.6724 11.9713 56.6173C11.7027 56.4487 11.5777 56.119 11.5392 55.818C11.4492 55.1137 11.471 54.3785 11.6509 53.6899C11.9413 52.5791 12.6949 51.5922 13.7871 51.1918C14.0682 51.0887 14.367 51.0511 14.665 51.0437C14.9477 51.0366 15.2564 51.0737 15.5292 50.9835C15.9634 50.8399 16.1495 50.3254 16.3125 49.9353L16.32 49.9174C16.5291 49.4203 16.78 48.9943 17.2327 48.6839C17.7158 48.3527 18.321 48.2021 18.891 48.1049ZM31.2483 50.0706C31.6391 49.9342 32.1277 50.058 32.5099 50.1771C32.9357 50.31 33.3292 50.5546 33.6665 50.8452C34.0224 51.1516 34.3165 51.5299 34.5243 51.9525L34.5442 51.9932C34.7339 52.3853 34.9501 52.9235 34.8544 53.3542C34.8517 53.3664 34.8485 53.3782 34.845 53.3896C35.6204 53.7737 36.3365 54.2548 36.9601 54.8646C37.6862 55.5746 38.3011 56.3825 38.8214 57.2553C40.8879 60.7222 41.2516 64.8853 41.4956 68.8388L41.5565 69.8412C41.689 72.0056 41.8441 74.1653 42.247 76.2999L42.2764 76.4541C42.707 78.689 43.3235 80.9412 43.261 83.2342C43.2423 83.921 42.2334 83.9163 42.2041 83.2342C42.094 80.6658 41.4984 78.1862 41.0951 75.6586C40.3855 71.2106 40.7411 66.6258 39.7356 62.2228C39.341 60.4948 38.7298 58.8186 37.857 57.2762C37.4258 56.5143 36.9326 55.778 36.3547 55.1207C35.8576 54.555 35.3409 54.0107 34.7599 53.5353C34.5742 53.7224 34.2033 53.627 34.1064 53.3542C34.0398 53.1667 34.0592 52.9476 34.0165 52.7512C33.9768 52.5689 33.9222 52.3883 33.8493 52.2167C33.7041 51.8746 33.491 51.5462 33.2449 51.2694C32.9792 50.9701 32.6737 50.7215 32.3319 50.5163C31.9877 50.3096 31.6113 50.2479 31.2483 50.0969C31.2361 50.0918 31.2349 50.0753 31.2483 50.0706ZM32.7666 73.8397C32.7673 73.8219 32.7884 73.8135 32.8014 73.8256C32.9384 73.9521 33.0212 74.1345 33.1221 74.2902C33.2383 74.4705 33.3605 74.6467 33.4885 74.8181C33.7451 75.1626 34.0308 75.4866 34.3187 75.8044C34.5865 76.0997 34.8719 76.3825 35.1679 76.6496C35.4887 76.9386 35.8481 77.1963 36.1395 77.5167C36.7476 78.1841 36.8459 79.1009 36.9742 79.9617L36.9882 80.0548C37.0665 80.5654 37.1366 81.0776 37.1997 81.5904C37.2305 81.8397 37.2611 82.0895 37.2862 82.3399L37.2939 82.4188C37.3162 82.6639 37.3222 82.9122 37.1825 83.126C37.0329 83.3549 36.6928 83.4354 36.4906 83.2159C36.1432 82.839 36.2083 82.169 36.1632 81.6839C36.1258 81.283 36.0835 80.8822 36.0361 80.4823L36.0119 80.2827C35.956 79.8274 35.9106 79.3633 35.8072 78.9164C35.716 78.5223 35.5422 78.2254 35.2571 77.94C34.9699 77.6526 34.6715 77.3844 34.4063 77.075C34.1251 76.7468 33.8715 76.395 33.6429 76.0276C33.4474 75.7135 33.2907 75.3716 33.1471 75.0303L33.1234 74.9734C32.9846 74.6404 32.7558 74.2066 32.7666 73.8397ZM37.7825 59.5363C37.7855 59.4897 37.8537 59.4892 37.8547 59.5363C37.8634 59.9356 37.8716 60.3354 37.8799 60.7347C37.9462 63.9539 37.9054 67.1808 38.2263 70.3885C38.3777 71.9011 38.6564 73.3918 38.979 74.8756C39.144 75.6351 39.3172 76.3929 39.4817 77.1524C39.642 77.8925 39.814 78.6362 39.9412 79.3837C40.0661 80.118 40.1781 80.8576 40.2283 81.6014L40.2345 81.6986C40.2561 82.0587 40.3594 82.5887 40.1622 82.908C39.9486 83.254 39.5397 83.2603 39.3107 82.93C39.0958 82.62 39.1493 82.0686 39.1113 81.6986C39.0727 81.3217 39.0319 80.9449 38.9856 80.5686C38.8951 79.8352 38.776 79.1035 38.6521 78.3754C38.394 76.8586 38.0197 75.3607 37.7434 73.8465C37.4602 72.2947 37.2589 70.7319 37.2504 69.1518C37.242 67.5582 37.4096 65.9682 37.4942 64.3783C37.5802 62.7632 37.6779 61.1497 37.7825 59.5363ZM22.6702 49.5236C22.7562 49.2326 23.0593 49.0506 23.355 49.1324C23.626 49.2073 23.8497 49.5383 23.7438 49.8215C23.6282 50.1305 23.4261 50.3939 23.2558 50.6748C23.0984 50.9343 22.8689 51.1386 22.7086 51.3936L22.8853 51.5852C22.9736 51.6807 23.0622 51.7757 23.1518 51.8691L23.4599 52.1903C23.6999 52.4398 23.9413 52.688 24.1895 52.929C24.9195 53.6374 25.661 54.3227 26.4786 54.9295C26.6647 55.0676 26.8522 55.2049 27.045 55.3334L27.1169 55.3814C27.2492 55.4685 27.3968 55.5542 27.5566 55.5394C27.9449 55.5035 28.2957 55.0886 28.5625 54.8303L28.5765 54.8169C29.2377 54.1838 29.85 53.4916 30.3853 52.7473C30.5041 52.582 30.6193 52.4138 30.7313 52.2436C30.4725 51.9394 30.5343 51.3456 30.5201 50.9767C30.51 50.7173 30.5092 50.4578 30.5078 50.1982L30.5071 50.1458C30.504 49.9778 30.4964 49.8167 30.6048 49.6784C30.6111 49.6704 30.6242 49.6706 30.6322 49.6749C30.7807 49.7531 30.8264 49.8841 30.8897 50.0311L30.8963 50.0464C30.9734 50.2228 31.0472 50.4008 31.1219 50.5783C31.2001 50.7641 31.2718 50.9526 31.3444 51.1406C31.3783 51.228 31.4105 51.3158 31.4421 51.4041C31.4613 51.4605 31.4812 51.5166 31.5016 51.5726L31.5064 51.5769C31.5334 51.5999 31.5563 51.6243 31.576 51.6494C31.6588 51.6911 31.7246 51.767 31.7555 51.8786C31.8227 52.1215 31.6836 52.3196 31.5596 52.5124C31.0557 53.2959 30.4812 54.0424 29.8427 54.7196C29.5255 55.0561 29.1918 55.3774 28.8445 55.6822L28.7837 55.7351C28.4717 56.0049 28.1329 56.2605 27.7162 56.3237C27.2285 56.3975 26.8316 56.1535 26.4583 55.8723L26.4211 55.8441C26.0671 55.5745 25.7203 55.2955 25.3844 55.0035C24.6994 54.4084 24.0476 53.7694 23.4693 53.0684C22.9066 52.3864 22.3506 51.6239 22.0038 50.8035C21.9826 50.7534 22.0382 50.7012 22.0818 50.7429C22.2512 50.9052 22.4142 51.0762 22.5752 51.2495C22.5797 50.9944 22.5329 50.7372 22.5589 50.4806C22.5907 50.1686 22.5815 49.824 22.6702 49.5236Z" fill="black"/>
<path fill-rule="evenodd" clip-rule="evenodd" d="M40.2059 30.9152C40.2818 30.207 39.86 28.2222 39.8799 28.6054C38.5569 26.5559 35.9749 25.7499 33.7471 25.0733C29.018 23.5049 25.3252 25.3991 22.0024 28.7563C20.0407 30.5972 18.1742 32.6536 17.1894 35.202C15.2522 40.0636 18.156 45.607 22.572 47.9293C22.9283 48.1231 23.3166 48.3071 23.656 48.5411C25.4814 49.6007 27.6251 49.9672 29.6592 50.4284C33.4648 51.3023 38.2441 50.8858 40.4869 47.2458C42.008 44.6625 41.6039 41.5308 41.4848 38.6639C41.3059 36.152 40.5885 33.4087 40.2059 30.9152Z" fill="white"/>
<path fill-rule="evenodd" clip-rule="evenodd" d="M19.9195 23.6507C22.385 21.3352 26.029 20.2129 29.3609 20.4092C31.1654 20.5155 32.9045 20.9698 34.5353 21.7502C35.0453 21.9943 35.5423 22.28 36.0006 22.6164C36.3098 22.7613 36.612 22.9181 36.9048 23.0887C38.3711 23.9421 39.5046 25.2347 40.2302 26.7681C40.5765 27.4999 40.987 29.5294 41.1417 30.3246L41.1667 30.4555C41.2456 30.8545 41.4018 31.3802 41.2043 31.7536C41.0734 32.0012 40.799 32.1572 40.5393 32.1362C40.5957 32.3657 40.6633 32.595 40.7064 32.826L40.8387 33.4332C40.8582 33.5382 40.8736 33.6643 40.9084 33.783C41.0045 34.1104 41.0462 34.3928 41.0462 34.3928C41.221 35.7052 41.379 37.0203 41.5183 38.3375C41.6181 39.2795 41.7116 40.2225 41.8025 41.1652L41.8567 41.7308C41.9499 42.7045 42.0231 43.6867 41.9596 44.6646C41.8642 46.1316 41.4151 47.47 40.5434 48.5587C40.6265 48.7594 40.6545 48.9854 40.717 49.2349C40.8035 49.5802 40.9163 49.9183 41.0362 50.2534C41.0924 50.3851 41.1486 50.5169 41.2043 50.649L41.3506 50.9988L41.4647 51.2282C41.5884 51.4777 41.708 51.7309 41.784 51.9891C42.2765 52.2533 42.6788 52.6844 42.6985 53.275C42.7159 53.8087 42.4401 54.3739 41.9743 54.646C41.5147 54.9148 41.0415 54.8089 40.6014 54.6037C40.2177 54.7159 39.807 54.7301 39.4269 54.6103C39.1343 54.8764 38.7568 55.0601 38.3384 55.1097C37.7077 55.185 37.1088 55.0076 36.5301 54.7743L36.4898 54.758C36.4717 54.7509 36.4536 54.7432 36.4362 54.7356C35.7706 54.7034 35.1077 54.4389 34.6356 53.9703C34.4818 53.8185 34.3488 53.645 34.2416 53.4506C33.8523 52.7433 33.7918 51.8752 34.1747 51.1736C34.0925 51.1771 34.0097 51.1806 33.9276 51.1827C32.832 51.2141 31.7345 51.1579 30.6417 51.0856L30.3841 51.068C29.677 51.0169 28.6341 50.8964 28.6143 50.0159C28.6114 49.9033 28.7271 49.8187 28.8329 49.8487C29.2347 49.9627 29.6295 50.1419 30.0458 50.2062C30.5903 50.2908 31.1542 50.2999 31.7043 50.3307L31.8626 50.3396C32.9718 50.4005 34.1208 50.4377 35.2121 50.2167C36.0267 50.0523 36.8755 49.7528 37.6219 49.3821C38.3384 49.0254 38.9894 48.5588 39.5144 47.9496C40.6709 46.6093 40.8241 44.7185 40.7677 43.0229C40.6995 40.9977 40.4627 38.9755 40.3291 36.9531L40.2686 36.0446C40.2187 35.287 40.1774 34.9956 40.1585 34.2376C40.1445 33.6843 40.1077 34.0978 40.1773 33.2583C40.1773 33.2583 40.3442 32.6675 39.8291 31.9642C39.6871 31.7705 39.3745 31.3976 39.2025 31.2297C38.8362 30.873 38.3322 29.9356 37.427 29.2711C36.5129 28.7458 35.7066 28.1904 34.697 27.9022C33.1512 27.4615 31.1667 27.5616 29.598 27.2075C29.1656 27.8133 29.211 28.0819 28.5495 29.2011C27.4355 31.5096 26.3521 32.9825 24.5152 34.3928C24.1414 34.6803 23.7625 34.9636 23.3783 35.2385C22.7397 35.8116 22.419 36.0926 21.8997 36.8593L21.6766 37.1874L21.6732 37.1938C21.6425 37.2406 21.6132 37.2875 21.5841 37.3344C21.5221 37.4337 21.4168 37.4904 21.2427 37.5604C21.0024 37.6381 20.9138 37.6304 20.7902 37.6304C20.6161 37.6653 20.6392 37.673 20.5243 37.8058C20.1539 38.2353 19.5677 37.6757 19.1415 37.5267C18.6799 37.6679 18.2949 38.2199 18.1034 38.6417C17.8276 39.2496 17.7169 39.9827 17.8416 40.6409C17.9557 41.2425 18.2636 41.7623 18.7753 42.0883C18.7934 42.0994 18.8128 42.1114 18.8317 42.1218C18.8324 42.1232 18.8324 42.1232 18.8331 42.1225C18.8505 42.1337 18.8686 42.1443 18.8867 42.154C19.1269 42.2869 19.3908 42.3653 19.6644 42.3841C19.821 42.3954 19.9847 42.3869 20.1414 42.4058C20.3022 42.4247 20.4345 42.4989 20.5891 42.5381C20.7596 42.5821 20.8697 42.8123 20.7624 42.9668C20.7095 43.043 20.6594 43.1159 20.6057 43.1809C20.782 43.3894 20.9351 43.6195 21.0737 43.8384C21.263 44.1385 21.4309 44.4569 21.5841 44.7814C21.7254 44.9682 21.8605 45.1585 21.9914 45.3529C22.7329 46.4568 23.3004 47.6866 23.6492 48.9715C23.9945 50.2425 24.2104 51.6702 23.8908 52.9679C23.5963 54.1613 22.7364 55.1497 21.4636 55.2133C21.1979 55.2265 20.9367 55.1967 20.6911 55.1289C20.1515 55.4638 19.4828 55.6322 18.8843 55.6519C18.4001 55.6678 17.8701 55.5654 17.4747 55.2713C17.0057 55.4763 16.4968 55.5927 16.0543 55.6193C15.5592 55.6489 15.0411 55.5134 14.6374 55.2449C14.2534 55.5754 13.8389 55.8544 13.3681 56.0458C12.5583 56.3745 11.5946 56.3339 10.8531 55.8422C10.1102 55.3498 9.73211 54.4656 9.9591 53.5883C10.168 52.7797 10.8246 52.1865 11.4415 51.6758L11.5634 51.5754C12.1736 51.0751 12.7898 50.5908 13.1814 49.8858C13.5971 49.138 13.7489 48.2692 13.79 47.4228C13.8791 45.5593 13.5018 43.7126 13.3868 41.8588C13.2685 39.9443 13.3347 38.024 13.5944 36.1234C14.0992 32.4314 15.4276 28.8122 17.8311 25.9342C18.1789 25.5178 18.5511 25.1209 18.9434 24.7447C19.2432 24.3507 19.5672 23.9815 19.9195 23.6507ZM51.8865 44.7311C51.8997 44.7317 51.9123 44.7325 51.9241 44.7373C51.932 44.7407 51.9387 44.7461 51.9449 44.752L52.0035 44.8108C52.0243 44.8318 52.023 44.864 52.0035 44.8849C51.9864 44.904 51.9555 44.9046 51.9354 44.8898L51.9297 44.8849L51.869 44.824C51.8624 44.8168 51.8567 44.8089 51.8538 44.7989C51.851 44.7891 51.851 44.7779 51.8503 44.7674C51.8496 44.7485 51.8677 44.7311 51.8865 44.7311ZM19.2189 39.016C19.7773 38.8459 20.4471 39.2503 20.7799 39.677C20.947 39.8911 20.9944 40.1842 20.7799 40.3948C20.5975 40.5738 20.241 40.6066 20.0649 40.3948C19.865 40.1534 19.7021 39.819 19.4166 39.6644C19.1068 39.4966 18.6918 39.5385 18.6187 39.9477C18.6061 40.017 18.5073 39.9939 18.5031 39.9317C18.476 39.5176 18.8373 39.1314 19.2189 39.016Z" fill="black"/>
<path fill-rule="evenodd" clip-rule="evenodd" d="M33.6079 46.9643C33.1399 46.7724 32.7223 46.4525 32.4169 46.0437C32.3108 45.9016 32.2833 45.7515 32.3056 45.6143C32.3306 45.46 32.4215 45.3201 32.5454 45.2263C32.6697 45.1321 32.8252 45.0857 32.9756 45.1094C33.1062 45.13 33.2363 45.2018 33.3392 45.3508L33.3607 45.3807C33.5422 45.6274 33.7787 45.8298 34.0483 45.9603C34.308 46.086 34.5986 46.1447 34.8992 46.1106C35.4718 46.0456 35.8665 45.7345 36.286 45.312C36.338 45.2587 36.39 45.2036 36.4423 45.1478C36.4753 45.0971 36.5211 45.0645 36.572 45.0474C36.6285 45.0284 36.6924 45.0295 36.7509 45.0501C36.8073 45.0698 36.8578 45.1074 36.8916 45.1573C36.9238 45.2047 36.942 45.2633 36.9361 45.3307C36.8977 45.7686 36.6699 46.1593 36.3462 46.4662C35.9868 46.8069 35.5103 47.0427 35.0617 47.1254C34.5675 47.2164 34.0639 47.1512 33.6079 46.9643ZM35.2949 40.2098C35.8206 40.5309 36.6218 41.2795 36.0562 42.0756C35.3904 42.7774 34.4318 41.9727 33.9594 41.6087C33.5214 41.3267 33.0293 42.0521 33.4356 42.3815C36.849 44.9204 38.2343 40.2937 35.5608 39.8323C35.2664 39.7814 35.1571 40.1104 35.2949 40.2098ZM29.1781 37.2563C29.2362 36.5319 30.3343 36.3674 30.4436 37.0843C30.5414 37.7264 30.4263 38.3163 30.1384 38.8945C29.8633 39.4468 29.1718 39.1891 29.1195 38.6861C29.0494 38.012 29.1419 37.707 29.1781 37.2563ZM37.5377 36.9356C37.6908 36.7342 37.9119 36.5967 38.1768 36.6743C39.0043 36.9173 38.7604 38.0976 38.4698 38.6721C38.3118 38.9841 37.8014 39.0632 37.5707 38.7885C37.1948 38.3406 37.0147 37.4459 37.4927 37.0047C37.5056 36.9819 37.5201 36.9589 37.5377 36.9356ZM30.1267 34.0864L30.2574 34.0634C30.6618 33.9932 31.1646 33.9257 31.4506 34.2523C31.6024 34.4255 31.6546 34.7474 31.4506 34.9132C31.0919 35.2049 30.6953 35.0918 30.2655 35.1165C29.9112 35.1369 29.5707 35.1959 29.2295 35.2939C28.4809 35.5088 27.8708 35.9012 27.2315 36.3321C27.1475 36.3887 27.0619 36.2809 27.102 36.202C27.471 35.4757 28.1863 34.8791 28.9028 34.5154C29.2852 34.3213 29.7037 34.1603 30.1267 34.0864ZM36.7834 33.7611L36.8835 33.7817C37.9722 34.0103 39.3868 34.467 39.9024 35.5414C39.922 35.6934 39.9012 35.7259 39.8844 35.7472L39.8788 35.7543C39.8649 35.7725 39.8537 35.7975 39.7882 35.8181C39.77 35.8138 39.7517 35.8092 39.7331 35.8043C39.4967 35.7421 39.3098 35.6564 39.1287 35.5674L38.9324 35.4703C38.7047 35.3581 38.475 35.25 38.2316 35.1702C37.712 35 37.1775 34.88 36.6349 34.816C36.5173 34.8021 36.404 34.7622 36.3146 34.6939C36.2298 34.629 36.165 34.5392 36.1354 34.4197C36.0972 34.2652 36.1082 34.1482 36.1907 34.0088C36.2528 33.9041 36.3416 33.8316 36.4435 33.7899C36.5474 33.7474 36.6658 33.7374 36.7834 33.7611Z" fill="black"/>
<path fill-rule="evenodd" clip-rule="evenodd" d="M58.1189 87.0326C57.7641 87.0545 57.4099 87.0713 57.055 87.0843C52.4167 87.2542 47.7821 86.7341 43.1467 86.6202C41.5324 86.5784 39.9264 86.5993 38.3163 86.7268C38.1586 86.7394 37.9781 86.5726 37.9975 86.4132C38.295 83.8871 38.6671 81.3679 38.86 78.8313C38.8602 78.697 38.8426 78.5632 38.7957 78.4367C38.7868 78.4268 38.7411 78.3155 38.7003 78.3087C38.7136 78.3186 38.6533 78.3013 38.6917 78.3045C38.4589 78.2669 38.2306 78.0196 38.3995 77.7829C40.1399 75.1585 42.5156 72.7636 43.2799 69.647C43.4605 68.8039 44.1128 68.7521 44.8076 68.404C45.0244 68.2776 45.5546 67.9258 45.6409 67.6817C45.8469 66.801 45.484 65.9386 46.5443 65.5821C47.2443 65.3914 48.4815 65.2299 49.1898 65.4311C50.0537 65.7144 49.989 66.6719 50.4901 67.331C50.7493 67.712 51.1911 68.2336 51.5991 68.2922C51.7968 68.3204 51.9424 67.9268 52.1399 67.954C55.2173 68.6894 59.4102 73.7055 60.7327 76.4825C61.0308 77.3564 60.0693 77.0924 60.1287 77.971C60.2015 79.6373 60.3607 81.7708 60.266 83.4392C60.1776 84.4072 60.2431 85.4217 59.9372 86.3536C60.0194 86.4524 59.9013 86.5517 59.8045 86.5941C59.6828 86.7979 58.4862 87.0044 58.1189 87.0326Z" fill="white"/>
<path fill-rule="evenodd" clip-rule="evenodd" d="M51.6043 68.5253C51.5053 68.622 51.4001 68.7119 51.2917 68.7981C51.0688 68.9753 50.8371 69.1347 50.584 69.2685C49.5733 69.8017 48.4315 69.925 47.3026 69.8006C46.7668 69.7416 46.2231 69.6417 45.7194 69.4494C45.4858 69.36 45.2589 69.2429 45.0585 69.0945L45.0061 69.0558C44.9008 68.9779 44.7602 68.8671 44.6944 68.7464C44.5903 68.5556 44.5749 68.5556 44.5749 68.5556L44.525 68.5096L44.4793 68.4986C44.5012 68.4563 44.5127 68.4067 44.5106 68.3476C44.5033 68.1312 44.1675 68.1072 44.1388 68.323C44.1576 68.3152 44.1469 68.2917 44.1396 68.3178L44.1385 68.323H44.1388C44.1385 68.3241 44.1383 68.3251 44.1381 68.3262C44.1361 68.335 44.137 68.3314 44.1385 68.323C44.1355 68.3246 44.1314 68.3251 44.1266 68.3251L44.1247 68.3262C44.1172 68.3293 44.0911 68.3413 44.0834 68.3445C44.0303 68.3633 43.971 68.3695 43.9168 68.3863C43.7991 68.4218 43.6955 68.4809 43.6237 68.5807C43.5722 68.6528 43.5434 68.7354 43.5316 68.8211C43.011 69.0673 42.5182 69.3877 42.1054 69.7839C41.1841 70.6677 40.5417 71.7742 40.0146 72.9194C39.7463 73.5022 39.5072 74.0975 39.2733 74.6944L39.2364 74.7885C38.9858 75.4303 38.7641 76.0789 38.7096 76.7689C38.7045 76.8305 38.7253 76.8886 38.7611 76.9366C38.7484 76.9884 38.7418 77.0407 38.7437 77.0914C38.744 77.0992 38.7446 77.107 38.7452 77.1149C38.661 77.1133 38.5786 77.1478 38.5004 77.2455C38.4687 77.2356 38.4343 77.234 38.4005 77.245C38.1946 77.3098 38.1614 77.5325 38.1226 77.7186C38.0825 77.9109 38.0651 78.108 38.0648 78.304C38.0648 78.3745 38.1057 78.4628 38.175 78.4932C38.3054 78.5496 38.4458 78.5867 38.5807 78.6379C38.682 78.6766 38.7837 78.7127 38.8862 78.7472C38.8293 78.8449 38.8109 78.9803 38.7801 79.0833C38.7318 79.2442 38.693 79.4052 38.6604 79.5699C38.4394 80.6879 38.2862 81.8179 38.0793 82.938C37.9759 83.4993 37.8556 84.0565 37.7329 84.6142C37.6725 84.888 37.6082 85.1614 37.5391 85.4337C37.5024 85.579 37.4642 85.7243 37.4247 85.8686C37.4133 85.9104 37.4017 85.9527 37.39 85.9945L37.3693 86.0682C37.3243 86.0928 37.2858 86.1294 37.2591 86.1801C37.1616 86.3656 37.2176 86.5747 37.4046 86.6792C37.6079 86.7927 37.8505 86.6855 37.9626 86.501C38.0414 86.3709 38.0672 86.1979 38.106 86.0531C38.1499 85.8905 38.1916 85.7269 38.2319 85.5633C38.5057 84.4521 38.689 83.3216 38.8272 82.1869L38.837 82.1059C38.9072 81.5215 38.9751 80.9361 39.0189 80.3492C39.0406 80.0612 39.0578 79.7727 39.0685 79.4836C39.0738 79.3352 39.0652 79.1857 39.0566 79.0373C39.0527 78.9719 39.0471 78.9066 39.045 78.8418L39.0444 78.8324C39.0438 78.8261 39.0431 78.8172 39.0424 78.8083L39.0418 78.7974C39.2462 78.8601 39.4536 78.9129 39.6631 78.9568C40.1088 79.0519 40.5648 79.1047 41.0197 79.0775C40.9563 79.8187 40.8736 80.5577 40.7581 81.2921C40.6466 81.9998 40.518 82.7054 40.3729 83.4068C40.3002 83.7591 40.2217 84.1108 40.1391 84.461C40.0946 84.6481 40.0439 84.8342 40.0039 85.0224C39.9802 85.1342 39.9728 85.2278 40.0205 85.3328C39.968 85.4734 39.9213 85.6146 39.8755 85.7478L39.8617 85.7876C39.7805 86.0207 39.6264 86.2595 39.7873 86.4885C39.8706 86.6066 40.0062 86.6745 40.1429 86.6787C40.1453 86.6798 40.1479 86.6819 40.1506 86.6834C40.2241 86.7221 40.3088 86.7294 40.3894 86.7127C40.5118 86.7367 40.6345 86.7592 40.7575 86.7801C41.0612 86.8319 41.3664 86.8742 41.6722 86.9103C42.2545 86.9782 42.8406 87.0153 43.4264 87.0362C45.5712 87.1125 47.7183 86.9787 49.864 87.0174C50.9571 87.0367 52.0502 87.0854 53.1416 87.1491C53.6862 87.1815 54.2312 87.216 54.7761 87.2422L54.9448 87.2505C55.4321 87.2735 55.9198 87.2913 56.4067 87.2563C56.416 87.2552 56.4238 87.2516 56.4285 87.2463C56.5966 87.2275 56.7656 87.0754 56.7485 86.8998C56.6761 86.1513 56.6033 85.4024 56.5305 84.6534C56.4009 83.3195 56.2704 81.9851 56.1382 80.6508L56.119 80.4584C56.0747 80.0089 56.0326 79.5584 56.0109 79.1068C56.1195 79.0995 56.2272 79.0901 56.3354 79.078C57.5075 78.9521 58.6312 78.6029 59.7102 78.1451L59.7539 78.1262C59.8512 78.0844 59.9573 78.0431 60.0666 77.9982C60.065 78.202 60.0718 78.4064 60.0723 78.6081C60.0739 78.9432 60.0713 79.2777 60.0702 79.6127C60.0681 80.3021 60.0416 80.9926 60.0068 81.6809C59.9454 82.8972 59.8736 84.1119 59.7643 85.325C59.7368 85.6302 59.6993 85.935 59.6733 86.2402C59.6572 86.42 59.6951 86.57 59.8627 86.6641C59.9449 86.7111 60.0083 86.6913 60.0905 86.6536C60.2898 86.5616 60.2955 86.3437 60.3147 86.1545C60.3293 86.0113 60.3423 85.8686 60.3553 85.7254C60.3834 85.4201 60.4073 85.1149 60.4271 84.8091C60.5041 83.5944 60.527 82.3803 60.4734 81.164C60.4484 80.5948 60.4131 80.0246 60.3657 79.4564L60.3543 79.3253C60.3153 78.8716 60.2898 78.3954 60.2091 77.9381C60.5353 77.7959 60.8584 77.6151 61.0088 77.314C61.2028 76.9236 60.9895 76.5896 60.6852 76.3596C60.6878 76.3204 60.6852 76.2823 60.6768 76.2472C60.5894 75.8751 60.4427 75.5071 60.3017 75.1517C60.1592 74.7953 60.0016 74.444 59.8288 74.1001C59.1343 72.7234 58.1854 71.4648 57.0544 70.4048C56.4925 69.8785 55.8775 69.3919 55.2212 68.9837C54.8958 68.7819 54.5621 68.5953 54.2166 68.4291L54.1656 68.4046C53.925 68.2896 53.6552 68.1678 53.3878 68.104C53.36 68.0831 53.3318 68.0643 53.3033 68.046C53.1982 67.977 53.0554 68.0267 52.9931 68.1249C52.9629 68.1019 52.9279 68.0815 52.8879 68.0633L52.8484 68.0455C52.6084 67.9394 52.3202 67.8396 52.0597 67.9096C51.463 68.299 51.868 68.2697 51.6043 68.5253ZM38.6428 77.6511C38.6653 77.6574 38.689 77.6595 38.7136 77.6569C38.6692 77.6621 38.7582 77.6877 38.7826 77.7003L38.7845 77.7013C38.8289 77.7259 38.8736 77.7504 38.9189 77.7734C39.0248 77.8283 39.1329 77.878 39.2428 77.924C39.4595 78.0149 39.6832 78.0844 39.9128 78.1357C40.1375 78.1853 40.373 78.2146 40.6032 78.2193C40.7573 78.2219 40.9401 78.2151 41.0996 78.1702C41.0812 78.4451 41.0608 78.72 41.0379 78.9944L40.7231 78.9233C40.4082 78.8522 40.0937 78.7796 39.783 78.6907C39.5498 78.6244 39.3199 78.5465 39.0926 78.4623C38.9735 78.4184 38.8553 78.3719 38.7385 78.3217C38.6804 78.2966 38.6259 78.2668 38.5721 78.2371L38.526 78.2114C38.5367 78.0886 38.5563 77.9679 38.5847 77.8466C38.5995 77.7829 38.6247 77.717 38.6428 77.6511ZM60.2024 76.3565C60.2424 76.484 60.3038 76.6032 60.4438 76.6319C60.4932 76.6424 60.5348 76.6366 60.5691 76.6199L60.5775 76.6366C60.6924 76.8687 60.7263 77.1138 60.4615 77.2926C60.3418 77.3736 60.2117 77.4431 60.0775 77.5058C59.8366 77.6187 59.5807 77.7092 59.3393 77.8011L59.2909 77.82C58.8591 77.9867 58.42 78.1383 57.9747 78.2653C57.5221 78.3939 57.0622 78.4973 56.596 78.5627C56.3999 78.5904 56.2017 78.6097 56.0036 78.6223C56.0004 78.3599 56.0018 78.097 56.0027 77.8346C56.0732 77.8257 56.1434 77.8163 56.2105 77.8085C56.4165 77.7849 56.6215 77.7562 56.8255 77.7201C57.251 77.6454 57.6724 77.5419 58.0834 77.4097C58.8451 77.164 59.5536 76.8123 60.2024 76.3565ZM51.8531 68.3194C52.0261 68.1396 52.3571 68.2044 52.566 68.2917C52.6291 68.3183 52.6928 68.345 52.7533 68.3774L52.765 68.3842C52.8354 68.4239 52.835 68.4474 52.8006 68.5269C52.7559 68.6319 52.6937 68.7328 52.6345 68.83C52.3807 69.2466 52.0469 69.6093 51.6655 69.9156C50.3149 71.0001 48.3745 71.3827 46.6855 71.0195C45.8749 70.8454 45.093 70.4937 44.4962 69.9172L44.4419 69.8639C44.2013 69.6271 43.871 69.2842 43.8942 68.933C43.9052 68.7642 44.0453 68.7547 44.1884 68.7223C44.2471 68.7088 44.3031 68.6899 44.3517 68.6628C44.3126 68.829 44.5209 69.0757 44.6285 69.1792C44.8539 69.3961 45.1254 69.5659 45.4125 69.6924C45.9589 69.9344 46.5533 70.0484 47.1451 70.121C47.8166 70.2031 48.5026 70.1958 49.169 70.074C49.7489 69.9684 50.3205 69.7682 50.8195 69.4562C51.0482 69.3135 51.2738 69.1504 51.4646 68.9607L51.5051 68.9204C51.6745 68.7516 52.0816 68.3669 51.8531 68.3194Z" fill="black"/>
<path d="M47.3446 69.4808C51.0879 69.0924 51.4716 69.5952 53.8257 65.8529C54.0292 65.6527 54.5291 65.1959 54.9011 64.967C55.3661 64.6816 56.1797 64.3957 56.6448 63.053C57.1099 61.7102 56.5288 60.7961 55.7439 59.9964C54.9592 59.1962 54.0292 53.74 47.1993 52.5972C40.3693 51.4545 39.9043 54.5398 39.4684 56.1397C39.0324 57.7395 38.8289 61.4248 39.2358 63.653C39.6427 65.8811 42.6653 69.9663 47.3446 69.4808Z" fill="white"/>
<path fill-rule="evenodd" clip-rule="evenodd" d="M48.644 49.0707C46.7834 48.9001 44.9601 49.0435 43.1264 49.3402C42.9862 49.3632 42.9069 49.4465 42.8773 49.5466C42.0136 49.5824 41.149 49.6397 40.2864 49.6826C39.9734 49.6981 39.7959 49.9783 39.9387 50.2313C39.9672 50.2815 39.9968 50.3305 40.0269 50.3794L39.9891 50.3681C39.7296 50.2927 39.4493 50.2555 39.1965 50.3752C38.8747 50.5275 38.7485 50.8637 38.8197 51.1731C38.8379 51.2521 38.8685 51.3278 38.9032 51.4017C38.8326 51.3974 38.7615 51.3989 38.6909 51.4073C38.3152 51.4525 38.036 51.7134 38.0162 52.0609C37.9872 52.5856 38.3603 53.118 38.7999 53.4936C38.7362 53.6126 38.7117 53.7528 38.7382 53.8948C38.7911 54.1755 39.0194 54.3436 39.284 54.4532C39.1737 54.7707 39.1215 55.1026 39.1523 55.4418C39.1625 55.555 39.2719 55.6485 39.3872 55.6715C38.9572 56.7442 38.7395 57.8961 38.583 59.0183C38.4714 59.8169 38.4638 60.5936 38.5046 61.4393C38.5014 61.8026 38.5661 62.3242 38.583 62.6875L38.5898 62.8239C38.6105 63.2164 38.6861 63.5452 38.7639 63.9335C38.9273 64.5257 39.0987 64.8686 39.3029 65.3128C39.6905 66.0153 40.0172 66.3854 40.4256 66.8662C40.9156 67.3842 42.0182 68.4201 43.8966 69.1602C45.2851 69.4932 47.1227 69.7895 49.4739 68.5644C49.4931 68.5372 49.4521 68.5147 49.4282 68.5325C47.8577 69.0123 47.4902 68.8273 46.6326 68.9015C45.6526 68.9015 44.1412 68.498 42.7941 67.7913C41.814 67.2776 41.5689 66.9775 41.0789 66.4596C40.6706 66.0895 40.5072 65.8674 40.058 65.2208C39.7313 64.6835 39.7209 64.5915 39.5424 64.0971C39.4944 63.9638 39.4591 63.7647 39.4307 63.6121C39.4043 63.277 39.3267 62.897 39.3029 62.5631C39.2764 62.1836 39.2603 61.8041 39.2546 61.4242C39.2437 60.6365 39.28 59.8467 39.3532 59.0622C39.4871 57.6249 39.8426 56.2228 40.0513 54.798C40.1285 54.8608 40.2392 54.8866 40.3553 54.8318L40.3673 54.8257L40.4306 54.7929C40.4343 54.7929 40.4385 54.7934 40.4421 54.7938C40.8755 54.8319 41.3249 54.7774 41.7401 54.6603C42.1746 54.5381 42.5778 54.35 42.9381 54.0993C43.0065 54.4139 43.0351 54.7317 43.0356 55.0524C43.0361 55.2527 43.2701 55.3567 43.456 55.2711C44.2796 54.8921 45.0664 54.4553 45.8133 53.9644C45.9006 54.3692 45.9877 54.7741 46.0755 55.1794C46.1091 55.3356 46.3287 55.3985 46.4694 55.3243C47.0288 55.0294 47.512 54.6434 47.9054 54.1844C47.984 54.3205 48.0627 54.4565 48.1421 54.5923L48.2615 54.7957C48.3793 54.9955 48.5371 55.2165 48.795 55.2805C49.068 55.3482 49.2959 55.1879 49.3878 54.964C49.4157 54.8945 49.4417 54.823 49.4656 54.751C49.6981 55.2321 49.9607 55.7023 50.2576 56.1509C50.7029 56.8238 51.2375 57.4231 51.7705 58.0383C51.9324 58.2249 52.2096 58.0467 52.2319 57.8653C52.2449 57.7587 52.2558 57.6515 52.2652 57.5444C52.5758 58.1125 52.8998 58.6749 53.2529 59.2211L53.2023 59.4009C53.0567 59.9309 52.9357 60.4651 52.8042 60.9982C52.7617 61.1701 52.8626 61.4163 53.0844 61.4456C53.3494 61.4806 53.6002 61.6029 53.8716 61.5188C54.1676 61.4268 54.2261 61.1947 54.3658 60.9752C54.3937 60.9313 54.4261 60.891 54.461 60.8529L54.4699 60.8633C54.4917 60.8895 54.5436 60.8612 54.5306 60.8315L54.5154 60.7975C54.6355 60.682 54.7791 60.5853 54.9112 60.4818C55.2251 60.4342 55.5782 60.4865 55.7945 60.602C56.2869 60.8654 56.5132 61.408 56.5179 61.9071C56.5236 62.4909 56.3238 63.1474 55.9865 63.6466C55.838 63.8661 55.6345 64.0647 55.3657 64.1619C55.0989 64.2591 54.8099 64.2288 54.5384 64.3198C54.3588 64.3809 54.2482 64.5612 54.3567 64.7248C54.364 64.7363 54.3723 64.7463 54.3801 64.7572L54.2994 64.8545C54.2439 64.9219 54.186 64.9935 54.132 65.0688C53.994 65.2125 53.8487 65.351 53.708 65.4926C53.448 65.754 53.1957 66.0216 52.9399 66.2866C52.6985 66.5364 52.4432 66.7706 52.18 67.0016C51.9314 67.2206 51.621 67.404 51.3927 67.6377C51.1706 67.865 51.1103 68.2623 51.4758 68.394C51.88 68.5403 52.2379 68.198 52.5101 67.9696L52.5215 67.9602C53.0204 67.5441 53.4709 67.069 53.8286 66.5453C54.183 66.7638 54.6956 66.7847 55.0485 66.5662C55.2342 66.4512 55.3767 66.2584 55.4459 66.0482C55.5111 66.0613 55.5764 66.0691 55.6401 66.0681C55.6728 66.0853 55.7057 66.1021 55.7389 66.1178C56.002 66.2416 56.3254 66.1862 56.4456 65.9223C56.5553 65.6829 56.4424 65.4111 56.3436 65.1801L56.3233 65.1325C56.2671 65.0008 56.2052 64.8576 56.1287 64.7227C56.3425 64.5769 56.5252 64.3955 56.6797 64.1896C57.1994 63.496 57.459 62.482 57.344 61.6541C57.2753 61.155 57.0163 60.6375 56.5923 60.3009L56.6079 60.2644C56.7265 59.991 56.8347 59.7171 56.9044 59.4286C56.9866 59.091 57.0267 58.7408 57.0631 58.3974C57.1396 57.6714 57.1188 56.9287 57.0168 56.2054C56.8248 54.8441 56.3379 53.5078 55.4736 52.375C55.7187 52.1093 55.9127 51.7966 55.8116 51.437C55.7653 51.2718 55.66 51.1153 55.5012 51.0208C55.4135 50.9686 55.3091 50.9606 55.2214 50.9174L55.195 50.9042C55.1565 50.8838 55.186 50.886 55.2089 50.7913C55.2998 50.4132 55.2245 50.0479 54.7652 49.9224C54.3328 49.8043 53.9239 50.055 53.668 50.3536C52.9985 49.9232 52.1162 49.6981 51.3402 49.5067C50.458 49.2899 49.5528 49.1545 48.644 49.0707Z" fill="black"/>
<path fill-rule="evenodd" clip-rule="evenodd" d="M56.0922 62.0717C56.0953 61.7309 55.766 61.5208 55.4421 61.5762C55.2246 61.6133 55.0431 61.7409 54.8728 61.8726L54.7897 61.9369C54.5822 62.0968 54.344 62.2693 54.2203 62.4956C54.039 62.8296 54.4222 63.2791 54.78 63.0449C55.0254 62.8834 55.1828 62.6252 55.3438 62.3848L55.3605 62.3597C55.4336 62.252 55.4978 62.1376 55.598 62.0513L55.6197 62.0325C55.6526 62.0053 55.688 61.9797 55.7305 61.9682C55.8126 61.9447 55.9646 61.9771 56.0008 62.0733L56.004 62.0832C56.0173 62.1313 56.0916 62.1208 56.0922 62.0717Z" fill="black"/>
<path fill-rule="evenodd" clip-rule="evenodd" d="M44.0845 61.1006C43.7413 61.3055 43.2183 61.7837 43.5875 62.2918C44.0222 62.7397 44.648 62.2259 44.9563 61.9938C45.2423 61.8135 45.5636 62.2771 45.2983 62.4873C43.0699 64.1081 42.1655 61.1544 43.9109 60.8597C44.1031 60.8272 44.1745 61.0374 44.0845 61.1006ZM47.1858 57.1918L47.1005 57.1771L47.0567 57.1698C46.8011 57.1283 46.498 57.1005 46.3215 57.2976C46.2224 57.4085 46.1883 57.6139 46.3215 57.7194C46.5556 57.9055 46.8146 57.8334 47.0952 57.8496C47.3265 57.8627 47.5488 57.8998 47.7715 57.9625C48.2603 58.0999 48.6585 58.3503 49.076 58.6252C49.1307 58.6613 49.1866 58.5928 49.1605 58.5421C48.9195 58.0785 48.4525 57.698 47.9848 57.4654C47.7352 57.3417 47.462 57.239 47.1858 57.1918ZM44.925 63.5974C44.178 63.6507 42.5594 63.3 41.8873 63.8258C39.3541 66.9331 49.3967 67.7317 48.3121 64.2941C47.6213 63.1824 46.0324 63.6293 44.925 63.5974ZM45.053 65.4733C45.2377 65.4581 45.4619 65.6019 45.5162 65.7132C45.5704 65.824 45.5494 66.0592 45.5478 66.0994C45.2248 66.1318 44.8991 66.1365 44.5752 66.1156C44.6593 65.8423 44.662 65.5146 45.053 65.4733ZM43.5618 65.9317C43.6137 65.5924 43.8608 65.512 44.0608 65.5632C44.2654 65.6149 44.3855 65.8465 44.3725 66.0524C44.3716 66.0665 44.38 66.0785 44.3855 66.09C44.1074 66.0576 43.8319 66.0048 43.5618 65.9317ZM45.8525 65.5344C45.9689 65.3604 46.2472 65.2767 46.4255 65.3071C46.7165 65.3672 46.751 65.731 46.751 65.8046C46.4826 65.905 46.1978 65.9719 45.9254 66.0252C45.8707 66.0357 45.8159 66.0451 45.761 66.054L45.7574 66.0101C45.7508 65.9155 45.7459 65.6938 45.8525 65.5344ZM42.5601 65.5057C42.8586 65.0525 43.5001 65.3771 43.4471 65.8726C43.39 65.8548 43.3333 65.8365 43.2769 65.8172C43.0424 65.7367 42.7852 65.6416 42.5601 65.5057ZM44.9095 63.9429C45.311 63.9073 45.6404 63.9194 45.9022 63.9675L45.9101 64.0532C45.9391 64.3511 45.9764 64.6438 45.8172 64.764C45.6879 64.8612 45.2587 64.8518 44.9708 64.7813C44.8997 64.764 44.8073 64.1462 44.9095 63.9429ZM44.2888 63.9073C44.3531 64.2011 44.3834 64.5576 44.2542 64.6637C44.1178 64.7755 43.6786 64.7603 43.5638 64.6856C43.4632 64.6208 43.4658 64.3208 43.5031 63.9842C43.7255 63.9324 44.1128 63.9073 44.2888 63.9073ZM46.0797 63.9701L46.2112 63.9711L46.2856 63.9722C46.4737 63.9758 46.6767 63.9863 46.8686 64.0276C47.2498 64.8367 45.8577 64.9762 46.0727 63.9999L46.0797 63.9701ZM43.326 63.9899L43.3284 64.0354C43.3398 64.2628 43.3323 64.5623 43.2041 64.6433C43.0155 64.7619 42.6612 64.7389 42.4693 64.1891C42.5328 64.0249 43.2063 64.002 43.326 63.9899ZM47.0205 59.1641C46.9399 59.1641 46.8628 59.1913 46.7927 59.2409C46.7235 59.2896 46.661 59.3612 46.6089 59.4505C46.5103 59.6188 46.4487 59.8519 46.4487 60.1091C46.4487 60.3668 46.5103 60.5994 46.6089 60.7682C46.661 60.857 46.7235 60.9286 46.7927 60.9773C46.8628 61.0269 46.9399 61.0541 47.0205 61.0541C47.1011 61.0541 47.1782 61.0269 47.2484 60.9773C47.3175 60.9286 47.3801 60.857 47.4322 60.7682C47.5308 60.5994 47.5924 60.3668 47.5924 60.1091C47.5924 59.8519 47.5308 59.6188 47.4322 59.4505C47.3801 59.3612 47.3175 59.2896 47.2484 59.2409C47.1782 59.1913 47.1011 59.1641 47.0205 59.1641ZM41.9186 59.1641C41.8379 59.1641 41.7608 59.1913 41.6907 59.2409C41.6216 59.2896 41.559 59.3612 41.5069 59.4505C41.4083 59.6188 41.3467 59.8519 41.3467 60.1091C41.3467 60.3668 41.4083 60.5994 41.5069 60.7682C41.559 60.857 41.6216 60.9286 41.6907 60.9773C41.7608 61.0269 41.8379 61.0541 41.9186 61.0541C41.9992 61.0541 42.0763 61.0269 42.1465 60.9773C42.2155 60.9286 42.2781 60.857 42.3302 60.7682C42.4288 60.5994 42.4904 60.3668 42.4904 60.1091C42.4904 59.8519 42.4288 59.6188 42.3302 59.4505C42.2781 59.3612 42.2155 59.2896 42.1465 59.2409C42.0763 59.1913 41.9992 59.1641 41.9186 59.1641ZM42.6127 56.9841L42.5474 56.9972L42.5041 57.0063C41.7995 57.1551 40.9063 57.4487 40.5765 58.1209C40.5637 58.2175 40.5772 58.2385 40.5883 58.252L40.5919 58.2567C40.601 58.2682 40.6082 58.2839 40.6511 58.2975C40.6629 58.2944 40.6749 58.2918 40.687 58.2886C40.8413 58.2489 40.9634 58.194 41.0816 58.1371L41.2097 58.0754C41.3584 58.0038 41.5084 57.9348 41.6673 57.8836C42.0065 57.7748 42.3554 57.6985 42.7097 57.6572C42.7865 57.6489 42.8604 57.6233 42.9188 57.5794C42.9742 57.5381 43.0165 57.4806 43.0357 57.4048C43.0607 57.3059 43.0535 57.2312 42.9997 57.1422C42.9591 57.0754 42.9012 57.0291 42.8346 57.0025C42.7668 56.9754 42.6895 56.9689 42.6127 56.9841Z" fill="black"/>
</g>
<defs>
<clipPath id="clip0_240_6708">
<rect width="88" height="78" fill="white" transform="translate(4 10)"/>
</clipPath>
</defs>
</svg>
