<svg width="1689" height="1573" viewBox="0 0 1689 1573" fill="none" xmlns="http://www.w3.org/2000/svg">
<path fill-rule="evenodd" clip-rule="evenodd" d="M757.49 1516.93C734.723 1515.83 743.88 1475.95 745.514 1461.31C763.539 1407.83 759.302 1349.48 766.391 1293.42C770.807 1241.08 776.482 1188.91 781.255 1136.62C790.63 1030.47 857.949 814.385 934.774 779.632C944.451 737.116 984.422 697.428 1034.99 697.428C1069.49 656.547 1111 627.776 1164.25 633.586C1186.26 634.588 1207.6 657.956 1228.68 662.469C1240.49 664.099 1345.26 659.904 1366.25 672.384C1380.87 679.9 1394.07 693.788 1389.77 711.47C1382.91 732.893 1404.22 709.713 1448.68 732.578C1539.35 787.098 1485.17 860.034 1482.77 862.294C1539.35 941.112 1588.8 1005.06 1611.68 1101.39C1626.51 1172.92 1624.84 1246.75 1637.26 1318.64C1641.65 1343.57 1648.38 1367.65 1655.66 1391.85C1663.56 1423.53 1667.39 1502.49 1671.74 1503.2C1679.67 1505.17 1667.16 1521.46 1658.77 1521.47C1425.96 1560.14 1189.49 1523.08 955.438 1517.02C889.478 1514.72 823.447 1514.19 757.49 1516.93Z" fill="white"/>
<path fill-rule="evenodd" clip-rule="evenodd" d="M1110.34 869.251C1110.23 868.184 1108.79 868.186 1108.68 869.251L1107.04 885.138C1105.04 904.541 1103.11 923.906 1101.72 943.399C1099.98 967.708 1098.81 992.01 1098.25 1016.37C1096.3 1101.22 1095.91 1186.12 1095.74 1270.99C1084.28 1270.19 1072.82 1269.43 1061.35 1268.69C1053.56 1268.18 1045.78 1267.7 1038 1267.23L1018.15 1266.02V1266.02L1009.98 1265.52C1004.46 1265.18 998.186 1263.79 994.326 1268.68C992.781 1270.64 992.005 1273.19 993.446 1275.52C996.769 1280.89 1001.87 1280.7 1007.65 1280.93C1013.09 1281.15 1018.54 1281.37 1023.99 1281.58C1035.66 1282.03 1047.33 1282.46 1059.01 1282.79C1071.26 1283.13 1083.51 1283.41 1095.76 1283.62C1095.88 1319.45 1097.36 1355.23 1098.97 1391.02L1099.69 1407.13C1101.65 1450.68 1103.76 1494.28 1106.75 1537.77C1107 1541.33 1112.03 1541.33 1112.27 1537.77C1115.64 1488.79 1117.87 1439.7 1120.07 1390.65C1121.67 1355.09 1122.6 1319.51 1123.05 1283.94C1124.66 1283.95 1126.28 1283.97 1127.9 1283.98C1173.88 1284.18 1219.84 1284.38 1265.81 1283.95C1265.74 1284.04 1265.66 1284.13 1265.61 1284.25C1262.28 1292.11 1261.97 1302.15 1262.05 1310.59C1262.14 1320.26 1263.44 1329.83 1265.67 1339.24C1273.65 1372.96 1294.22 1403.16 1317.65 1428.13L1318.42 1428.94C1323.95 1434.79 1330.29 1440.66 1333.68 1448.11C1337.15 1455.72 1338.35 1464.61 1340.06 1472.79L1340.26 1473.73L1346.95 1504.66C1349.08 1514.48 1349.68 1528.81 1357.45 1535.9C1364.69 1542.52 1374.29 1539.06 1377.71 1530.55C1380.37 1523.9 1377.72 1516.6 1376.14 1509.96L1363.78 1457.94C1361.75 1449.46 1359.53 1440.92 1355.15 1433.3C1350.66 1425.5 1344.08 1419.84 1337.36 1414.05C1324.64 1403.09 1312.97 1390.54 1303.1 1376.95C1293.23 1363.37 1284.79 1348.39 1278.88 1332.65C1275.92 1324.77 1273.49 1316.58 1271.82 1308.33C1270.22 1300.49 1270.24 1292.38 1268.54 1284.63C1268.42 1284.1 1267.97 1283.73 1267.45 1283.57C1267.57 1283.22 1267.39 1282.75 1266.9 1282.72L1229.3 1280.3C1195.88 1278.14 1162.46 1275.93 1129.07 1273.4L1123.17 1272.97V1272.97C1123.63 1225.5 1123.24 1178.03 1122.38 1130.54C1121.6 1086.99 1121.58 1043.44 1120.29 999.895C1119.64 978.286 1118.26 956.727 1116.71 935.162C1115.14 913.107 1112.61 891.239 1110.34 869.251ZM1463.38 1121.74C1463.78 1119.32 1460.74 1117.83 1459.34 1120.04C1443.33 1145.3 1435.61 1172.75 1432.36 1202.32C1429.48 1228.42 1430.33 1254.89 1431.76 1281.05C1433.29 1308.96 1435.07 1336.86 1436.87 1364.75L1439.64 1407.52V1407.52L1446.58 1514.75C1447.08 1522.42 1448.82 1529.4 1455.41 1532.96C1456.25 1533.66 1457.12 1534.29 1458.13 1534.83C1461.7 1536.74 1466.42 1535.77 1468.48 1532.11L1467.66 1532.66C1466.94 1533.11 1467.75 1532.48 1470.08 1530.76L1472.06 1528.19V1528.19C1473.5 1526.02 1474.42 1523.89 1474.79 1521.31C1475.37 1517.31 1474.62 1512.92 1474.36 1508.89L1469.81 1438.58V1438.58C1466.27 1383.92 1462.14 1329.27 1459.02 1274.58C1457.57 1249.09 1456.55 1223.58 1457.24 1198.04C1457.93 1172.65 1459.22 1146.83 1463.38 1121.74ZM1324.88 651.055L1323.99 650.905C1292.19 645.617 1257.61 646.606 1228.54 661.955C1228.3 662.081 1228.41 662.481 1228.68 662.469L1238.04 662.095C1267.65 660.934 1297.17 660.247 1326.29 667.213L1329.27 667.932C1339.76 670.493 1350.71 673.628 1359.13 680.563C1367.18 687.192 1371.19 697.417 1375.05 706.83L1375.56 708.073C1379.47 717.37 1384.42 726.187 1392.99 732.001C1404.1 739.53 1417.45 738.607 1430.18 739.63C1452.6 741.433 1470.92 757.699 1480.04 777.603C1485.56 789.655 1487.92 803.167 1488.38 816.347C1488.62 823.057 1488.66 830.029 1487.76 836.695C1487.48 838.826 1484.85 846.591 1483.5 846.404C1480.52 845.99 1477.8 847.547 1476.87 849.933C1469.5 842.809 1461.93 835.89 1454.11 829.22C1434.61 812.598 1413.61 797.532 1391.5 784.586C1374.62 774.704 1356.82 764.914 1338.38 757.512C1339.85 757.482 1341.29 757.772 1342.68 758.497C1343.29 758.817 1343.9 758.05 1343.41 757.543C1337.61 751.426 1330.65 750.556 1323.64 752.187C1322.15 751.71 1320.65 751.249 1319.15 750.812C1318.4 750.593 1318.02 751.625 1318.64 752.024L1320.36 753.126V753.126C1312.71 755.691 1305.2 760.734 1299.25 764.713C1282.17 776.141 1267.14 790.113 1251.9 803.822L1249.13 806.307C1235.72 818.299 1221.96 829.952 1206.72 839.573C1198.75 844.608 1190.37 849.266 1181.58 852.73C1174.04 855.704 1161.77 857.575 1158.24 865.552C1155.1 869.369 1156.41 874.241 1160.08 876.81C1166.28 883.64 1178.68 879.228 1186.07 876.383C1194.97 872.953 1203.6 868.83 1211.83 863.996C1227.8 854.607 1242.53 842.933 1256.25 830.515C1270.57 817.546 1284.09 803.768 1298.03 790.391C1304.06 784.595 1309.96 778.663 1316.01 772.875L1319.05 769.995C1322.13 767.097 1326.53 762.58 1331.23 759.845C1340.09 765.136 1349.08 770.207 1357.86 775.634C1370.11 783.209 1382.01 791.33 1393.71 799.719C1416.25 815.867 1437.61 833.954 1457.44 853.34C1493.81 888.892 1524.8 929.491 1551.86 972.479L1553.92 975.755C1569.3 1000.36 1583.84 1025.76 1594.16 1052.95C1605.51 1082.87 1611.02 1114.33 1614.02 1146.08C1617 1177.61 1618 1209.3 1621.33 1240.81C1624.74 1273.11 1631.46 1304.71 1639.1 1336.24L1640.92 1343.72C1647.84 1371.96 1654.98 1400.2 1658.53 1429.11C1660.43 1444.55 1661.57 1460.21 1661.31 1475.78C1661.05 1491.43 1658.6 1506.74 1656.61 1522.24C1655.85 1528.17 1661.69 1533.13 1666.91 1533.91C1672.91 1534.82 1678.07 1530.98 1679.93 1525.4C1685.75 1507.99 1686.81 1488.75 1686.62 1470.48C1686.44 1451.93 1684.08 1433.51 1680.75 1415.28C1674.21 1379.42 1664.11 1344.31 1655.66 1308.89C1648.22 1277.66 1643.22 1246.38 1640.53 1214.4C1637.74 1181.21 1636.06 1147.91 1630.96 1114.97C1625.93 1082.44 1616.46 1051.37 1602.17 1021.71C1589.17 994.71 1572.96 969.293 1555.96 944.657C1535.32 914.741 1512.65 886.274 1487.31 860.337C1489.59 860.238 1491.93 859.502 1494.07 858.162C1500.64 854.061 1503.7 846.039 1504.64 838.714C1506.84 821.579 1506.31 803.691 1501.91 786.939C1494.81 759.914 1476.38 735.902 1449.67 726.16C1442.8 723.652 1435.49 722.737 1428.21 722.557C1421.3 722.384 1413.75 723.287 1407.08 721.093C1396.46 717.599 1391.91 705.079 1387.92 695.589L1387.74 695.153C1382.63 683.06 1376.49 672.694 1365.42 665.143C1353.61 657.085 1338.81 653.421 1324.88 651.055V651.055ZM1022.72 698.881C1013.16 695.562 1001.21 698.574 991.869 701.474C981.458 704.705 971.837 710.657 963.589 717.726C954.887 725.18 947.695 734.385 942.614 744.668L942.129 745.659C937.488 755.197 932.203 768.292 934.543 778.771C934.61 779.068 934.686 779.355 934.774 779.632C915.814 788.977 898.304 800.683 883.055 815.519C865.3 832.792 850.267 852.449 837.544 873.685C787.015 958.028 778.121 1059.32 772.154 1155.51L770.665 1179.9C767.425 1232.56 763.632 1285.1 753.782 1337.04L753.063 1340.79C742.533 1395.17 727.46 1449.96 728.987 1505.74C729.445 1522.46 754.115 1522.34 754.83 1505.74C757.523 1443.26 772.086 1382.93 781.947 1321.43C799.298 1213.22 790.604 1101.66 815.189 994.538C824.837 952.498 839.782 911.719 861.124 874.193C871.666 855.655 883.728 837.742 897.857 821.749C910.013 807.987 922.647 794.744 936.853 783.175C941.393 787.728 950.462 785.408 952.833 778.771C954.461 774.21 953.986 768.877 955.031 764.099C956 759.666 957.337 755.27 959.118 751.094C962.669 742.773 967.88 734.782 973.897 728.047C980.396 720.767 987.865 714.718 996.223 709.724C1004.64 704.696 1013.84 703.195 1022.72 699.52C1023.02 699.397 1023.05 698.995 1022.72 698.881ZM985.591 1277.19C985.577 1276.75 985.06 1276.54 984.742 1276.83C981.392 1279.92 979.367 1284.35 976.901 1288.15C974.058 1292.52 971.071 1296.81 967.94 1300.99C961.666 1309.36 954.682 1317.25 947.642 1324.98C941.094 1332.17 934.116 1339.05 926.877 1345.54C919.034 1352.57 910.245 1358.85 903.119 1366.64C888.25 1382.88 885.848 1405.19 882.711 1426.13L882.367 1428.39C880.454 1440.82 878.74 1453.28 877.194 1465.76C876.443 1471.83 875.694 1477.9 875.081 1483.99L874.894 1485.91C874.348 1491.87 874.201 1497.91 877.617 1503.12C881.275 1508.69 889.591 1510.64 894.535 1505.3C903.029 1496.13 901.437 1479.83 902.542 1468.03C903.455 1458.28 904.49 1448.53 905.65 1438.8L906.239 1433.93C907.606 1422.86 908.716 1411.57 911.245 1400.69C913.475 1391.11 917.724 1383.88 924.695 1376.94C931.719 1369.95 939.016 1363.42 945.499 1355.9C952.375 1347.91 958.577 1339.35 964.166 1330.41C968.946 1322.77 972.777 1314.45 976.287 1306.14L976.87 1304.76C980.262 1296.66 985.857 1286.11 985.591 1277.19ZM862.946 929.179C862.872 928.049 861.204 928.032 861.179 929.179C860.968 938.899 860.766 948.618 860.564 958.338C858.943 1036.66 859.942 1115.17 852.094 1193.22C848.393 1230.02 841.577 1266.28 833.69 1302.39C829.654 1320.87 825.42 1339.3 821.398 1357.78C817.477 1375.79 813.273 1393.89 810.163 1412.06C807.107 1429.93 804.37 1447.93 803.142 1466.03L802.99 1468.39C802.461 1477.15 799.937 1490.04 804.757 1497.81C809.98 1506.23 819.98 1506.38 825.577 1498.35C830.832 1490.8 829.526 1477.38 830.454 1468.39C831.398 1459.22 832.395 1450.04 833.529 1440.9C835.74 1423.05 838.653 1405.25 841.683 1387.53C847.994 1350.63 857.147 1314.19 863.903 1277.34C870.827 1239.59 875.749 1201.56 875.956 1163.12C876.162 1124.36 872.064 1085.66 869.995 1046.98C867.894 1007.7 865.505 968.438 862.946 929.179ZM1232.46 685.572C1230.36 678.492 1222.95 674.065 1215.72 676.054C1209.1 677.877 1203.62 685.93 1206.22 692.819C1209.04 700.337 1213.98 706.748 1218.15 713.581C1222 719.895 1227.61 724.866 1231.53 731.068L1227.21 735.73C1225.05 738.056 1222.88 740.367 1220.69 742.639L1213.16 750.452C1207.29 756.524 1201.39 762.563 1195.32 768.424C1177.47 785.663 1159.34 802.335 1139.35 817.098C1134.79 820.457 1130.21 823.797 1125.49 826.925L1123.74 828.092C1120.5 830.212 1116.89 832.296 1112.99 831.937C1103.49 831.064 1094.91 820.968 1088.39 814.685L1088.05 814.358C1071.88 798.954 1056.91 782.113 1043.82 764.006C1040.91 759.982 1038.1 755.891 1035.36 751.751C1041.69 744.349 1040.18 729.902 1040.52 720.926C1040.77 714.614 1040.79 708.301 1040.82 701.985L1040.84 700.712C1040.92 696.623 1041.1 692.702 1038.45 689.339C1038.3 689.144 1037.98 689.15 1037.78 689.252C1034.15 691.157 1033.03 694.345 1031.49 697.921L1031.32 698.292C1029.44 702.584 1027.63 706.917 1025.81 711.234C1023.9 715.754 1022.14 720.339 1020.37 724.914C1019.54 727.041 1018.75 729.177 1017.98 731.325C1017.51 732.697 1017.02 734.062 1016.52 735.424L1016.41 735.529C1015.75 736.089 1015.19 736.681 1014.7 737.292C1012.68 738.307 1011.07 740.155 1010.32 742.87C1008.67 748.781 1012.07 753.6 1015.11 758.291C1027.43 777.352 1041.48 795.515 1057.09 811.991C1064.84 820.177 1073 827.995 1081.5 835.41L1082.98 836.698C1090.61 843.263 1098.89 849.482 1109.08 851.018C1121.01 852.814 1130.71 846.876 1139.84 840.037L1140.75 839.35C1149.41 832.791 1157.89 826.002 1166.1 818.9C1182.85 804.42 1198.79 788.873 1212.93 771.816C1226.68 755.226 1240.28 736.674 1248.76 716.711C1249.28 715.495 1247.92 714.223 1246.85 715.238C1242.71 719.186 1238.73 723.348 1234.79 727.564C1234.68 721.359 1235.82 715.1 1235.19 708.856C1234.41 701.266 1234.63 692.881 1232.46 685.572Z" fill="black"/>
<path fill-rule="evenodd" clip-rule="evenodd" d="M872.7 435.988C875.779 408.918 871.795 352.337 871.528 348.9C869.84 327.168 880.015 241.353 899.25 249.26C931.516 223.699 974.492 218.055 1014.68 215.358C1098.15 209.757 1186.95 222.616 1251.4 278.83C1283.28 308.024 1314.31 350.484 1311.81 394.694C1340.77 436.601 1381.6 494.085 1345.52 543.076C1333.25 558.728 1313.76 564.557 1298.35 576.411C1267.36 601.428 1247.91 637.329 1216.63 662.196C1133.74 736.733 992.993 752.304 911.555 667.524C848.581 606.123 858.763 514.265 869.84 435.988C877.287 383.362 866.695 488.798 872.7 435.988Z" fill="white"/>
<path fill-rule="evenodd" clip-rule="evenodd" d="M1126.18 100.564C1103.86 96.056 1080.94 93.251 1058.14 94.0954L1056.38 94.1637C1039.23 94.8497 1017.51 96.3673 1002.54 106.349C1001.68 105.484 1000.3 105.041 999.042 105.64C981.26 114.134 961.703 120.275 942.98 126.377C924.343 132.45 905.008 136.458 885.474 138.074C878.125 138.682 871.835 146.623 876.489 153.746C877.596 155.443 878.674 157.158 879.748 158.877C877.952 158.689 876.156 158.496 874.36 158.314C868.449 157.719 862.544 164.032 862.894 169.79C863.113 173.413 863.504 176.992 864.081 180.528C861.831 180.481 859.592 180.819 857.43 181.733C846.481 186.36 847.244 199.41 848.063 209.34C849.198 223.119 854.348 237.713 863.91 248.026C856.771 255.446 851.717 264.308 848.702 274.832C846.516 282.517 845.299 290.703 845.899 298.703L846.091 301.099C846.834 309.78 848.31 319.392 854.551 325.637C857.755 328.857 861.702 330.031 865.464 329.659C863.189 349.666 861.73 369.787 860.358 389.838L859.714 399.421C856.651 445.76 854.35 492.402 854.952 538.818C855.511 582.195 864.076 624.299 890.661 659.519C914.874 691.59 949.638 715.233 988.966 724.22C1010.16 729.072 1031.8 729.415 1053.25 726.324C1063.65 724.821 1074.11 722.517 1083.98 718.882C1094.91 714.846 1102.76 708.907 1110.11 700.005C1113.59 695.784 1111.91 686.796 1104.99 687.64C1094.52 688.911 1084.96 690.442 1074.92 693.541L1073.49 693.995C1063.49 697.2 1053.13 699.59 1042.68 700.606C1021.27 702.682 999.536 700.592 979.027 694.095C945.634 683.504 916.875 659.905 898.441 630.252C876.56 595.104 874.086 555.204 874.402 514.789C874.741 470.441 876.182 426.067 878.535 381.764L878.936 374.381C880.18 351.584 881.381 328.771 882.438 305.959C882.767 298.804 883.268 291.591 884.17 284.449C892.42 279.612 899.814 272.943 904.633 264.714C914.315 268.721 924.497 271.612 933.866 273.916C955.566 279.257 978.096 280.554 1000.18 277.209C1006.14 279.672 1012.22 281.838 1018.39 283.701C1020.05 284.441 1021.72 285.168 1023.39 285.881C1038.26 292.249 1053.35 297.644 1069.05 301.594L1072.91 302.557C1081.17 304.595 1090.15 306.603 1098.94 307.233C1100.38 307.791 1101.94 308.263 1103.65 308.678C1111.65 310.625 1119.96 311.24 1128.17 310.553C1136.17 309.881 1141.94 301.795 1137.54 294.224C1134.32 288.7 1131.07 283.19 1127.8 277.694C1139.2 282.446 1150.97 286.396 1162.84 289.745C1174.82 293.122 1186.98 295.97 1199.15 298.589C1205.66 299.977 1212.19 301.208 1218.68 302.596C1223.33 303.584 1230.47 304.099 1234.26 307.161C1238.45 310.525 1239.63 318.367 1241.22 323.204C1243.31 329.487 1245.27 335.798 1247.06 342.181C1250.62 354.918 1253.53 367.841 1255.79 380.893C1258.05 393.959 1259.57 407.154 1260.41 420.392C1261.26 433.616 1260.89 446.925 1262.24 460.091C1262.97 467.075 1270.47 470.667 1276 465.787C1276.65 465.215 1277.3 464.636 1277.95 464.051L1278.92 463.168C1283.65 458.875 1288.24 454.324 1292.03 449.201C1292.72 448.256 1293.38 447.269 1293.99 446.267C1294.09 446.267 1294.18 446.238 1294.28 446.167L1295.33 445.376C1306.89 436.76 1326.22 425.529 1337.49 439.841C1341.09 444.401 1342.93 450.206 1344.45 455.807L1347.13 465.831C1348.87 472.375 1350.5 478.956 1351.45 485.651C1353.61 500.65 1352.53 517.938 1342.21 529.959C1338.09 534.768 1332.42 538.202 1326.08 539.104C1322.55 539.591 1319.06 538.989 1315.56 538.546C1312 538.102 1308.56 538.818 1305 538.474C1299.34 537.916 1296.86 544.7 1298.98 548.964C1300.13 551.254 1301.47 553.229 1303 554.904C1301.77 555.963 1300.6 557.107 1299.47 558.31C1296.12 559.383 1293.12 561.687 1290.87 564.735C1289.06 567.197 1288.11 569.873 1287.96 572.692C1287.76 573.394 1287.59 574.109 1287.43 574.839L1284.36 579.822C1283.68 580.915 1283.01 581.995 1282.34 583.054C1274.53 595.361 1265.86 605.78 1255.09 615.598C1244.72 625.043 1233.47 633.501 1223.73 643.633L1222.58 644.836C1213.5 654.412 1203.93 666.003 1207.48 679.927C1208.4 683.505 1213.39 686.081 1216.65 683.662C1227.13 675.877 1232.41 663.54 1241.31 654.095C1250.46 644.363 1260.6 635.619 1269.78 625.916C1278.46 616.757 1285.31 606.381 1290.47 594.961C1292.53 597.236 1295.53 598.853 1299.7 599.483C1306.85 600.556 1313.51 596.363 1316.63 590.166C1318.63 591.054 1320.68 591.855 1322.74 592.485C1333.58 595.805 1340.4 583.741 1336.31 574.825C1334.12 570.045 1331.39 565.895 1328 562.403C1338.6 560.943 1349.38 555.462 1356.34 548.621C1373.82 531.433 1376.22 505.601 1372.29 482.632C1370.2 470.453 1366.6 458.131 1361.92 446.696C1361.11 444.707 1360.23 442.703 1359.28 440.728C1359.8 440.714 1360.35 440.485 1360.69 440.041C1363.85 435.719 1367.7 432.185 1370.04 427.347C1372.2 422.911 1374.6 418.417 1376.31 413.795C1379.81 404.335 1381.53 393.659 1382.67 383.655C1385.03 363.176 1384.12 342.825 1380.98 322.474C1375.65 287.813 1362.77 254.642 1343.79 225.536C1344.82 224.992 1345.81 224.336 1346.74 223.561L1347.19 223.163L1347.93 222.493C1353.35 217.589 1352.88 208.397 1347.93 203.429L1346.37 201.861C1344.39 199.894 1342.68 198.335 1339.49 196.193C1339.02 195.877 1338.53 195.579 1338.05 195.302C1339.72 192.208 1340.3 188.59 1339.13 184.598C1335.07 170.694 1315.08 171.186 1302.41 177.249C1288.39 164.729 1272.84 153.859 1255.99 145.058C1215.86 124.106 1170.49 109.494 1126.18 100.564ZM1333.62 466.789C1326.12 464.342 1316.17 469.48 1309.44 472.571C1300.9 476.492 1293.63 482.288 1286.6 488.413C1283.09 491.476 1282.46 496.485 1283.34 500.764C1283.42 501.193 1283.51 501.637 1283.61 502.081C1284.54 506.646 1289.63 510.238 1294.13 510.109C1303.56 509.852 1308.05 501.709 1313.38 494.811C1314.01 495.927 1314.8 496.957 1315.77 497.73L1316.43 498.245C1318.64 499.932 1321.08 501.281 1324.01 501.15C1326.08 501.05 1328.07 500.521 1329.9 499.562C1334.48 497.143 1336.49 491.218 1335.25 486.396C1334.48 483.362 1332.7 480.986 1330.39 479.34L1331.25 478.749C1333.1 477.462 1334.78 476.106 1336.1 474.104L1336.39 473.63H1336.28C1337.71 471.168 1336.78 467.82 1333.62 466.789Z" fill="black"/>
<path fill-rule="evenodd" clip-rule="evenodd" d="M995.889 630.355C1006.46 633.354 1017.8 633.622 1028.57 630.525C1038.34 627.715 1048.38 621.532 1055.57 613.35C1061.95 606.082 1066.09 597.25 1065.93 587.822C1065.91 586.745 1065.52 585.846 1064.91 585.149C1064.26 584.398 1063.35 583.882 1062.38 583.658C1061.38 583.428 1060.32 583.51 1059.42 583.911C1058.6 584.274 1057.9 584.891 1057.47 585.792C1056.36 587.215 1055.26 588.616 1054.16 589.979C1045.27 600.73 1036.66 608.764 1023.3 611.646C1016.05 613.21 1008.81 612.516 1002.17 610.13C995.059 607.576 988.631 603.086 983.593 597.339C981.317 594.742 978.629 593.682 976.001 593.664C973.023 593.644 970.079 595 967.861 597.167C965.681 599.298 964.222 602.193 964.089 605.221C963.973 607.879 964.858 610.655 967.212 613.132C974.966 621.291 985.016 627.269 995.889 630.355ZM996.216 495.703C985.383 502.155 968.877 517.2 980.53 533.196C994.248 547.299 1014 531.129 1023.73 523.815C1032.76 518.147 1042.89 532.725 1034.52 539.343C964.194 590.362 935.654 497.39 990.736 488.117C996.801 487.095 999.054 493.707 996.216 495.703ZM1097.55 467.313C1101.03 465.131 1105.13 464.382 1109.67 466.405C1113.22 467.986 1119.44 473.255 1123.77 480.182C1126.73 484.921 1128.83 490.48 1128.39 496.271C1128.29 497.615 1128.8 498.607 1129.6 499.34C1130.23 499.919 1131.14 500.345 1132.21 500.478C1133.12 500.591 1134.14 500.489 1134.97 500.236C1136.55 499.754 1137.38 498.752 1137.69 497.935C1140.73 490.046 1139.42 481.243 1136.02 473.301C1131.44 462.582 1123.11 453.604 1117.65 450.71C1108.32 445.754 1097.31 445.526 1087.96 450.574C1080 454.871 1075.02 461.807 1070.07 468.878C1069.02 470.381 1067.98 471.873 1066.9 473.338C1064.73 476.275 1064.52 479.188 1065.36 481.686C1066.28 484.453 1068.65 486.789 1071.61 488.011C1074.34 489.141 1077.52 489.3 1080.33 488.139C1082.7 487.158 1084.88 485.247 1086.25 482.004C1088.57 476.543 1092.44 470.517 1097.55 467.313V467.313ZM920.72 479.464C923.104 480.681 924.97 481.048 927.615 480.272C929.078 479.841 930.523 479.016 931.655 477.907C932.777 476.808 933.586 475.441 933.901 473.925C934.675 470.182 936.764 466.679 939.742 464.395C942.287 462.444 945.5 461.409 949.063 461.993C952.909 462.622 956.572 465.038 959.095 467.887C959.939 468.84 960.6 469.923 961.264 470.998C962.508 473.009 963.716 474.879 965.43 476.356C966.08 476.918 967.06 477.307 968.008 477.307C968.394 477.307 968.785 477.245 969.158 477.132C972.985 473.368 973.721 470.512 973.598 467.68C973.468 464.71 972.273 461.703 970.342 458.898C965.813 452.316 957.212 446.92 951.408 445.698C943.46 444.024 935.567 446.033 929.238 450.383C922.726 454.859 917.901 461.808 916.397 469.639C916.035 471.525 916.189 473.561 916.922 475.326C917.638 477.051 918.886 478.528 920.72 479.464ZM1080.02 397.145C1084.79 401.699 1090.44 402.404 1096.15 403.032C1099.32 403.383 1101.86 403.667 1104.35 404.218C1111.2 405.734 1117.97 408.016 1124.15 411.304C1130.61 414.74 1137.65 418.885 1142.72 424.194C1143.92 425.458 1145.06 426.783 1146.19 428.112C1147.23 429.323 1148.23 430.49 1149.28 431.614C1150.49 432.906 1151.64 434.26 1152.78 435.61C1153.48 436.75 1153.62 437.03 1153.76 437.322C1153.98 437.76 1154.23 438.25 1154.51 438.777C1154.9 439.498 1155.36 440.286 1155.83 441.002C1156.63 442.309 1157.05 442.669 1157.42 442.831C1158.03 443.097 1158.61 443.229 1159.18 443.158C1159.7 443.091 1160.2 442.843 1160.69 442.436C1163.14 440.409 1163.86 437.082 1163.79 433.55C1163.68 428.191 1161.66 422.257 1159.8 418.609C1155.47 410.133 1149.48 401.322 1142.27 394.996C1134.04 387.775 1125.03 382.309 1114.69 378.542C1108.27 376.2 1100.83 374.051 1093.83 374.322C1088.79 374.518 1083.98 375.985 1080 379.651C1077.57 381.901 1076.39 385.101 1076.39 388.3C1076.39 391.562 1077.61 394.843 1080.02 397.145ZM911.019 438.844C911.322 439.331 911.742 439.667 912.209 439.869C912.699 440.08 913.246 440.141 913.77 440.054C914.293 439.968 914.789 439.736 915.183 439.382C915.56 439.042 915.848 438.591 915.976 438.039C919.143 424.41 925.292 414.27 938.417 407.731C944.873 404.515 952.297 402.471 959.325 400.841C961.368 400.368 963.526 400.061 965.699 399.75C972.51 398.776 979.37 397.66 983.81 392.265C986.486 389.015 987.609 384.86 986.974 381.059C986.376 377.48 984.242 374.199 980.363 372.233C970.704 367.34 958.702 372.141 948.949 376.231C948.226 376.535 947.515 376.833 946.82 377.12C937.283 381.065 928.584 386.272 921.433 393.719C915.759 399.627 910.502 408.36 908.385 417.345C906.624 424.82 907.038 432.451 911.019 438.844Z" fill="black"/>
<path fill-rule="evenodd" clip-rule="evenodd" d="M732.271 1503.89C750.168 1503.03 742.969 1471.67 741.685 1460.16C727.516 1418.1 730.847 1372.21 725.274 1328.13C721.802 1286.97 717.341 1245.95 713.589 1204.83C706.219 1121.36 653.298 951.428 592.906 924.099C585.298 890.665 553.877 859.455 514.122 859.455C487.007 827.308 454.37 804.683 412.51 809.252C395.212 810.04 378.436 828.416 361.86 831.965C352.579 833.247 270.216 829.948 253.718 839.762C242.226 845.672 231.851 856.594 235.23 870.498C240.622 887.344 223.867 869.116 188.915 887.097C117.643 929.97 160.232 987.326 162.12 989.103C117.643 1051.08 78.769 1101.37 60.7824 1177.13C49.1253 1233.37 50.4375 1291.43 40.6705 1347.97C37.2219 1367.57 31.9314 1386.5 26.2066 1405.54C20.002 1430.45 16.9851 1492.54 13.5652 1493.1C7.33571 1494.65 17.1656 1507.46 23.7664 1507.47C206.776 1537.87 392.669 1508.73 576.661 1503.97C628.514 1502.16 680.421 1501.74 732.271 1503.89Z" fill="white"/>
<path fill-rule="evenodd" clip-rule="evenodd" d="M454.893 994.574C454.978 993.734 456.108 993.736 456.195 994.574L457.487 1007.07C459.059 1022.32 460.572 1037.55 461.67 1052.88C463.037 1072 463.952 1091.11 464.393 1110.27C465.93 1176.99 466.236 1243.75 466.366 1310.49C475.377 1309.87 484.389 1309.26 493.406 1308.68C499.524 1308.29 505.642 1307.91 511.76 1307.53L527.362 1306.58V1306.58L533.785 1306.19C538.125 1305.92 543.056 1304.83 546.091 1308.68C547.306 1310.22 547.915 1312.22 546.783 1314.05C544.17 1318.27 540.158 1318.13 535.619 1318.31C531.337 1318.48 527.055 1318.65 522.773 1318.82C513.597 1319.17 504.422 1319.51 495.243 1319.77C485.61 1320.04 475.982 1320.26 466.353 1320.42C466.255 1348.6 465.091 1376.74 463.833 1404.88L463.263 1417.55C461.723 1451.8 460.067 1486.08 457.714 1520.28C457.52 1523.08 453.565 1523.08 453.373 1520.28C450.723 1481.76 448.974 1443.16 447.241 1404.59C445.983 1376.62 445.252 1348.65 444.904 1320.67C443.63 1320.68 442.358 1320.7 441.085 1320.7C404.945 1320.86 368.813 1321.02 332.672 1320.68C332.732 1320.75 332.792 1320.82 332.831 1320.92C335.447 1327.1 335.696 1334.99 335.632 1341.63C335.559 1349.24 334.535 1356.76 332.785 1364.16C326.514 1390.68 310.34 1414.43 291.919 1434.06L291.318 1434.7C286.973 1439.3 281.988 1443.92 279.32 1449.78C276.595 1455.76 275.649 1462.75 274.304 1469.18L274.147 1469.92L268.889 1494.24C267.218 1501.97 266.744 1513.24 260.638 1518.81C254.941 1524.02 247.393 1521.3 244.712 1514.6C242.619 1509.38 244.704 1503.64 245.944 1498.41L255.659 1457.51C257.256 1450.84 259 1444.12 262.445 1438.13C265.974 1431.99 271.148 1427.54 276.428 1422.99C286.424 1414.37 295.602 1404.5 303.363 1393.82C311.121 1383.13 317.752 1371.36 322.401 1358.98C324.729 1352.78 326.637 1346.34 327.953 1339.85C329.204 1333.69 329.193 1327.31 330.531 1321.22C330.623 1320.8 330.977 1320.51 331.384 1320.38C331.288 1320.11 331.435 1319.74 331.815 1319.72L361.372 1317.82C387.645 1316.12 413.918 1314.38 440.168 1312.39L444.806 1312.05V1312.05C444.446 1274.72 444.752 1237.39 445.425 1200.04C446.042 1165.8 446.055 1131.55 447.071 1097.31C447.577 1080.32 448.667 1063.36 449.88 1046.4C451.121 1029.06 453.107 1011.86 454.893 994.574ZM177.364 1193.13C177.049 1191.22 179.437 1190.05 180.538 1191.79C193.124 1211.66 199.192 1233.24 201.75 1256.49C204.01 1277.01 203.344 1297.83 202.219 1318.41C201.019 1340.35 199.618 1362.29 198.203 1384.22L196.027 1417.86V1417.86L190.568 1502.18C190.177 1508.21 188.811 1513.7 183.626 1516.5C182.969 1517.05 182.285 1517.54 181.487 1517.97C178.686 1519.47 174.971 1518.71 173.351 1515.83L174.001 1516.26C174.566 1516.62 173.931 1516.12 172.094 1514.77L170.536 1512.75V1512.75C169.403 1511.04 168.68 1509.37 168.389 1507.34C167.937 1504.19 168.523 1500.74 168.728 1497.57L172.307 1442.28V1442.28C175.089 1399.29 178.339 1356.32 180.788 1313.32C181.929 1293.27 182.728 1273.21 182.187 1253.13C181.648 1233.16 180.633 1212.85 177.364 1193.13ZM286.243 822.989L286.941 822.871C311.94 818.712 339.123 819.491 361.969 831.561C362.158 831.66 362.072 831.974 361.86 831.965L354.507 831.671C331.227 830.758 308.019 830.217 285.129 835.696L282.786 836.261C274.542 838.275 265.934 840.74 259.312 846.193C252.984 851.406 249.832 859.447 246.802 866.85L246.397 867.826C243.323 875.138 239.432 882.071 232.693 886.643C223.965 892.564 213.468 891.838 203.461 892.642C185.84 894.061 171.433 906.851 164.266 922.503C159.925 931.981 158.074 942.607 157.707 952.971C157.519 958.248 157.493 963.73 158.194 968.972C158.419 970.648 160.487 976.754 161.542 976.607C163.886 976.282 166.029 977.506 166.76 979.383C172.549 973.78 178.506 968.339 184.654 963.094C199.979 950.022 216.485 938.175 233.869 927.994C247.137 920.224 261.131 912.525 275.623 906.705C274.475 906.681 273.342 906.909 272.247 907.479C271.767 907.731 271.29 907.128 271.669 906.729C276.233 901.919 281.701 901.234 287.212 902.517C288.388 902.142 289.565 901.78 290.747 901.435C291.335 901.264 291.628 902.075 291.148 902.389L289.794 903.255V903.255C295.807 905.273 301.711 909.238 306.384 912.367C319.81 921.354 331.627 932.341 343.607 943.122L345.785 945.076C356.329 954.506 367.143 963.67 379.123 971.235C385.394 975.195 391.981 978.858 398.89 981.582C404.816 983.92 414.464 985.392 417.24 991.665C419.707 994.667 418.676 998.497 415.787 1000.52C410.914 1005.89 401.166 1002.42 395.36 1000.18C388.36 997.484 381.579 994.243 375.111 990.441C362.555 983.058 350.977 973.878 340.193 964.113C328.929 953.913 318.304 943.079 307.349 932.56C302.603 928.002 297.966 923.337 293.212 918.786L290.824 916.521C288.398 914.242 284.941 910.689 281.245 908.539C274.282 912.699 267.212 916.688 260.312 920.955C250.68 926.912 241.331 933.298 232.127 939.895C214.408 952.594 197.617 966.816 182.029 982.061C153.44 1010.02 129.083 1041.94 107.805 1075.75L106.19 1078.33C94.0984 1097.67 82.6641 1117.65 74.5566 1139.03C65.636 1162.55 61.2975 1187.29 58.9407 1212.27C56.6015 1237.06 55.8125 1261.98 53.1983 1286.76C50.5174 1312.16 45.2352 1337.01 39.227 1361.8L37.7941 1367.68C32.3576 1389.89 26.7464 1412.1 23.9518 1434.84C22.46 1446.98 21.5626 1459.29 21.7654 1471.53C21.9692 1483.84 23.9009 1495.88 25.4594 1508.07C26.0567 1512.73 21.4709 1516.63 17.3676 1517.25C12.6485 1517.96 8.59425 1514.94 7.12739 1510.55C2.55457 1496.86 1.7239 1481.73 1.86744 1467.37C2.0119 1452.78 3.87048 1438.29 6.48564 1423.96C11.6289 1395.76 19.5661 1368.15 26.2058 1340.29C32.0575 1315.74 35.9849 1291.14 38.1018 1265.99C40.2993 1239.89 41.6153 1213.71 45.6241 1187.8C49.5811 1162.22 57.0265 1137.79 68.2549 1114.47C78.4784 1093.23 91.2227 1073.24 104.584 1053.87C120.809 1030.35 138.629 1007.96 158.548 987.563C156.759 987.486 154.922 986.907 153.235 985.853C148.073 982.628 145.669 976.32 144.93 970.56C143.2 957.086 143.618 943.019 147.077 929.845C152.659 908.593 167.144 889.71 188.137 882.05C193.541 880.078 199.285 879.358 205.012 879.216C210.446 879.081 216.381 879.79 221.624 878.065C229.97 875.318 233.547 865.473 236.681 858.01L236.825 857.667C240.843 848.157 245.666 840.006 254.369 834.068C263.654 827.731 275.288 824.849 286.243 822.989V822.989ZM523.772 860.598C531.284 857.988 540.676 860.357 548.022 862.637C556.207 865.179 563.77 869.859 570.254 875.418C577.095 881.28 582.748 888.518 586.742 896.604L587.124 897.383C590.772 904.884 594.927 915.182 593.087 923.422C593.035 923.656 592.974 923.881 592.906 924.099C607.811 931.448 621.575 940.653 633.562 952.319C647.52 965.903 659.338 981.361 669.339 998.06C709.061 1064.39 716.052 1144.04 720.743 1219.68L721.913 1238.86C724.461 1280.27 727.442 1321.59 735.186 1362.43L735.751 1365.38C744.028 1408.14 755.878 1451.23 754.677 1495.1C754.317 1508.24 734.924 1508.15 734.362 1495.1C732.245 1445.96 720.797 1398.52 713.045 1350.16C699.405 1265.06 706.239 1177.34 686.913 1093.1C679.328 1060.04 667.58 1027.97 650.802 998.46C642.515 983.882 633.033 969.795 621.926 957.219C612.37 946.397 602.439 935.983 591.271 926.886C587.702 930.466 580.573 928.641 578.71 923.422C577.43 919.835 577.803 915.642 576.982 911.885C576.219 908.398 575.168 904.941 573.768 901.658C570.977 895.114 566.88 888.83 562.151 883.534C557.042 877.809 551.17 873.052 544.6 869.125C537.984 865.171 530.749 863.99 523.772 861.101C523.537 861.004 523.514 860.688 523.772 860.598ZM552.957 1315.36C552.969 1315.02 553.375 1314.86 553.625 1315.09C556.259 1317.51 557.851 1321 559.789 1323.98C562.024 1327.43 564.372 1330.8 566.833 1334.08C571.765 1340.67 577.256 1346.87 582.79 1352.95C587.937 1358.6 593.423 1364.01 599.113 1369.12C605.279 1374.65 612.188 1379.58 617.79 1385.71C629.478 1398.48 631.367 1416.02 633.833 1432.49L634.103 1434.27C635.607 1444.04 636.955 1453.84 638.169 1463.65C638.76 1468.42 639.349 1473.2 639.831 1477.99L639.978 1479.5C640.407 1484.19 640.523 1488.94 637.837 1493.03C634.962 1497.41 628.425 1498.95 624.538 1494.75C617.86 1487.54 619.112 1474.72 618.244 1465.44C617.526 1457.77 616.712 1450.1 615.801 1442.45L615.337 1438.63C614.263 1429.92 613.39 1421.04 611.402 1412.49C609.649 1404.95 606.309 1399.27 600.828 1393.81C595.307 1388.31 589.571 1383.18 584.474 1377.26C579.069 1370.98 574.194 1364.25 569.8 1357.22C566.043 1351.21 563.031 1344.67 560.271 1338.14L559.814 1337.05C557.147 1330.68 552.749 1322.38 552.957 1315.36ZM649.37 1041.7C649.429 1040.81 650.74 1040.8 650.759 1041.7C650.925 1049.34 651.084 1056.99 651.243 1064.63C652.517 1126.22 651.732 1187.96 657.901 1249.33C660.811 1278.27 666.169 1306.79 672.369 1335.18C675.541 1349.71 678.87 1364.21 682.032 1378.74C685.114 1392.9 688.419 1407.13 690.864 1421.43C693.266 1435.48 695.418 1449.63 696.383 1463.86L696.502 1465.72C696.918 1472.61 698.903 1482.75 695.113 1488.86C691.007 1495.48 683.146 1495.6 678.746 1489.28C674.615 1483.35 675.642 1472.8 674.913 1465.72C674.171 1458.51 673.386 1451.3 672.496 1444.1C670.757 1430.07 668.467 1416.07 666.086 1402.14C661.125 1373.12 653.929 1344.46 648.618 1315.49C643.175 1285.8 639.306 1255.9 639.143 1225.67C638.981 1195.18 642.203 1164.76 643.829 1134.34C645.481 1103.44 647.359 1072.57 649.37 1041.7ZM358.887 850.133C360.539 844.565 366.365 841.084 372.049 842.648C377.258 844.082 381.559 850.414 379.522 855.832C377.3 861.744 373.416 866.785 370.142 872.158C367.117 877.123 362.705 881.033 359.625 885.91L363.02 889.576C364.718 891.404 366.422 893.222 368.144 895.009L374.066 901.153C378.678 905.927 383.319 910.676 388.09 915.286C402.122 928.841 416.375 941.952 432.09 953.561C435.667 956.203 439.272 958.83 442.978 961.289L444.36 962.207C446.903 963.874 449.739 965.513 452.811 965.23C460.274 964.544 467.018 956.605 472.147 951.664L472.415 951.407C485.125 939.294 496.894 926.051 507.184 911.811C509.468 908.647 511.681 905.43 513.835 902.174C508.86 896.354 510.048 884.992 509.774 877.934C509.58 872.971 509.566 868.006 509.539 863.039L509.525 862.038C509.465 858.823 509.32 855.74 511.403 853.094C511.524 852.941 511.775 852.946 511.93 853.027C514.783 854.524 515.662 857.031 516.879 859.843L517.006 860.135C518.488 863.511 519.907 866.917 521.342 870.312C522.845 873.867 524.223 877.473 525.619 881.07C526.27 882.743 526.89 884.423 527.497 886.112C527.866 887.191 528.249 888.264 528.641 889.335L528.734 889.418C529.252 889.858 529.692 890.324 530.071 890.804C531.663 891.602 532.928 893.055 533.521 895.191C534.813 899.838 532.14 903.628 529.755 907.317C520.069 922.306 509.027 936.589 496.753 949.546C490.656 955.983 484.243 962.131 477.566 967.962L476.399 968.975C470.401 974.137 463.889 979.027 455.879 980.235C446.505 981.648 438.876 976.979 431.7 971.6L430.984 971.06C424.181 965.902 417.515 960.563 411.057 954.978C397.89 943.592 385.363 931.366 374.246 917.953C363.431 904.906 352.742 890.318 346.076 874.62C345.67 873.663 346.739 872.663 347.576 873.461C350.832 876.566 353.965 879.839 357.06 883.154C357.146 878.274 356.247 873.353 356.747 868.442C357.358 862.474 357.182 855.88 358.887 850.133Z" fill="black"/>
<path fill-rule="evenodd" clip-rule="evenodd" d="M695.943 494.105C697.402 480.554 689.295 442.58 689.677 449.913C664.246 410.7 614.616 395.28 571.795 382.335C480.893 352.327 409.91 388.568 346.041 452.799C308.334 488.021 272.456 527.364 253.527 576.122C216.29 669.135 272.106 775.194 356.989 819.627C363.838 823.334 371.302 826.854 377.825 831.332C412.914 851.604 454.118 858.617 493.218 867.441C566.367 884.161 658.235 876.192 701.344 806.55C730.583 757.124 722.815 697.208 720.526 642.357C717.088 594.298 703.297 541.811 695.943 494.105Z" fill="white"/>
<path fill-rule="evenodd" clip-rule="evenodd" d="M306.011 355.122C353.402 310.82 423.447 289.348 487.49 293.103C522.176 295.137 555.605 303.829 586.952 318.761C596.755 323.43 606.309 328.896 615.118 335.332C621.06 338.105 626.87 341.106 632.497 344.369C660.683 360.696 682.471 385.428 696.417 414.765C703.074 428.767 710.964 467.596 713.939 482.809L714.418 485.314C715.936 492.948 718.937 503.006 715.141 510.15C712.625 514.887 707.351 517.872 702.359 517.471C703.443 521.861 704.742 526.249 705.571 530.667L708.114 542.285C708.489 544.293 708.784 546.707 709.453 548.977C711.3 555.242 712.103 560.645 712.103 560.645C715.462 585.754 718.5 610.915 721.177 636.116C723.095 654.139 724.892 672.181 726.639 690.218L727.681 701.039C729.474 719.668 730.88 738.46 729.66 757.17C727.826 785.236 719.193 810.843 702.438 831.674C704.035 835.514 704.573 839.837 705.775 844.611C707.438 851.217 709.605 857.685 711.911 864.097C712.99 866.617 714.071 869.139 715.141 871.666L717.953 878.359L720.147 882.747C722.524 887.521 724.823 892.365 726.284 897.306C735.751 902.361 743.483 910.608 743.862 921.907C744.196 932.119 738.896 942.933 729.943 948.138C721.108 953.281 712.013 951.256 703.553 947.329C696.178 949.476 688.283 949.748 680.977 947.455C675.352 952.546 668.096 956.062 660.054 957.011C647.93 958.451 636.419 955.057 625.296 950.594L624.521 950.281C624.173 950.145 623.825 949.998 623.49 949.852C610.696 949.237 597.955 944.176 588.879 935.211C585.923 932.306 583.367 928.987 581.306 925.267C573.823 911.735 572.66 895.126 580.021 881.703C578.441 881.77 576.849 881.836 575.27 881.877C554.211 882.478 533.115 881.403 512.111 880.019L507.159 879.683C493.567 878.704 473.521 876.4 473.14 859.554C473.085 857.399 475.308 855.78 477.342 856.355C485.065 858.535 492.653 861.963 500.656 863.194C511.122 864.813 521.962 864.987 532.536 865.576L535.577 865.746C556.899 866.912 578.985 867.623 599.962 863.395C615.62 860.25 631.935 854.52 646.282 847.427C660.054 840.603 672.568 831.676 682.659 820.019C704.889 794.376 707.833 758.2 706.749 725.759C705.438 687.012 700.886 648.322 698.318 609.63L697.155 592.248C696.197 577.753 695.402 572.178 695.039 557.676C694.771 547.09 694.062 555 695.4 538.939C695.4 538.939 698.609 527.636 688.708 514.18C685.978 510.473 679.969 503.339 676.663 500.127C669.623 493.302 659.934 475.368 642.535 462.653C624.964 452.604 609.466 441.977 590.06 436.463C560.347 428.032 522.202 429.946 492.048 423.172C483.737 434.763 484.61 439.901 471.895 461.315C450.482 505.481 429.656 533.662 394.349 560.645C387.163 566.146 379.881 571.566 372.495 576.824C360.221 587.79 354.055 593.166 344.073 607.834L339.786 614.113L339.72 614.234C339.131 615.13 338.567 616.027 338.007 616.924C336.815 618.824 334.792 619.91 331.446 621.249C326.827 622.736 325.123 622.587 322.747 622.587C319.401 623.256 319.844 623.402 317.637 625.944C310.517 634.162 299.248 623.455 291.057 620.604C282.184 623.306 274.783 633.867 271.102 641.936C265.802 653.568 263.674 667.593 266.07 680.186C268.264 691.696 274.181 701.642 284.017 707.878C284.365 708.091 284.739 708.32 285.101 708.519C285.115 708.547 285.115 708.547 285.128 708.533C285.463 708.747 285.811 708.949 286.159 709.136C290.776 711.679 295.848 713.178 301.107 713.538C304.118 713.754 307.265 713.592 310.276 713.954C313.367 714.314 315.91 715.734 318.881 716.484C322.16 717.326 324.275 721.73 322.213 724.687C321.197 726.145 320.233 727.539 319.201 728.783C322.589 732.772 325.532 737.175 328.196 741.362C331.835 747.104 335.062 753.195 338.007 759.405C340.723 762.978 343.32 766.619 345.836 770.339C360.089 791.458 370.997 814.987 377.702 839.571C384.34 863.889 388.489 891.204 382.346 916.032C376.685 938.864 360.156 957.775 335.691 958.993C330.585 959.245 325.564 958.675 320.842 957.378C310.47 963.784 297.616 967.007 286.113 967.383C276.806 967.688 266.619 965.729 259.018 960.101C250.002 964.025 240.221 966.252 231.716 966.76C222.199 967.327 212.239 964.733 204.48 959.597C197.098 965.921 189.132 971.258 180.081 974.92C164.516 981.208 145.993 980.432 131.74 971.025C117.46 961.603 110.192 944.686 114.555 927.902C118.57 912.432 131.191 901.083 143.049 891.311L145.392 889.391C157.121 879.818 168.966 870.552 176.494 857.064C184.484 842.757 187.402 826.135 188.191 809.941C189.905 774.287 182.651 738.955 180.442 703.488C178.167 666.858 179.439 630.119 184.431 593.756C194.134 523.119 219.669 453.873 265.869 398.811C272.553 390.844 279.708 383.25 287.248 376.053C293.011 368.515 299.24 361.45 306.011 355.122ZM920.472 758.441C920.726 758.454 920.967 758.468 921.194 758.561C921.347 758.626 921.475 758.728 921.594 758.841L922.72 759.967C923.121 760.368 923.095 760.984 922.72 761.385C922.391 761.75 921.797 761.761 921.411 761.479L921.301 761.385L920.135 760.219C920.008 760.081 919.899 759.931 919.843 759.739C919.789 759.552 919.789 759.338 919.776 759.137C919.762 758.775 920.11 758.441 920.472 758.441ZM292.544 649.098C303.278 645.844 316.152 653.581 322.55 661.745C325.762 665.84 326.672 671.448 322.55 675.477C319.043 678.903 312.191 679.53 308.805 675.477C304.964 670.859 301.832 664.461 296.345 661.504C290.389 658.292 282.413 659.095 281.007 666.923C280.766 668.25 278.866 667.807 278.786 666.617C278.264 658.694 285.21 651.305 292.544 649.098Z" fill="black"/>
<path fill-rule="evenodd" clip-rule="evenodd" d="M569.12 801.158C560.124 797.488 552.096 791.366 546.227 783.545C544.187 780.826 543.658 777.955 544.086 775.329C544.567 772.377 546.314 769.701 548.696 767.906C551.086 766.105 554.075 765.217 556.965 765.67C559.476 766.063 561.976 767.438 563.954 770.289L564.368 770.86C567.857 775.58 572.403 779.453 577.584 781.949C582.577 784.355 588.162 785.478 593.941 784.825C604.947 783.582 612.533 777.63 620.596 769.546C621.596 768.526 622.596 767.473 623.601 766.404C624.235 765.434 625.116 764.811 626.094 764.484C627.18 764.121 628.408 764.142 629.533 764.535C630.618 764.913 631.588 765.631 632.238 766.586C632.856 767.493 633.207 768.615 633.093 769.904C632.355 778.281 627.976 785.757 621.755 791.628C614.845 798.147 605.687 802.658 597.064 804.24C587.565 805.982 577.885 804.734 569.12 801.158V801.158ZM601.546 671.928C611.652 678.071 627.051 692.395 616.179 707.625C603.381 721.053 584.956 705.657 575.876 698.693C567.457 693.297 557.997 707.176 565.808 713.478C631.419 762.053 658.046 673.534 606.657 664.705C600.999 663.732 598.898 670.027 601.546 671.928ZM483.97 615.421C485.087 601.561 506.196 598.414 508.296 612.129C510.176 624.415 507.963 635.701 502.429 646.763C497.141 657.331 483.85 652.4 482.845 642.777C481.498 629.879 483.275 624.043 483.97 615.421ZM644.657 609.285C647.6 605.431 651.85 602.8 656.941 604.286C672.847 608.935 668.159 631.517 662.573 642.508C659.537 648.477 649.726 649.991 645.292 644.735C638.065 636.165 634.604 619.048 643.792 610.606C644.04 610.17 644.318 609.73 644.657 609.285ZM502.205 554.773L504.717 554.333C512.49 552.989 522.155 551.697 527.653 557.946C530.57 561.26 531.573 567.419 527.653 570.591C520.758 576.172 513.135 574.009 504.872 574.481C498.062 574.872 491.518 575.999 484.959 577.874C470.569 581.987 458.843 589.495 446.553 597.739C444.94 598.821 443.294 596.758 444.064 595.25C451.158 581.354 464.907 569.939 478.679 562.981C486.029 559.267 494.073 556.186 502.205 554.773ZM630.158 548.548L632.081 548.942C653.009 553.316 680.199 562.055 690.11 582.611C690.487 585.518 690.088 586.141 689.764 586.548L689.656 586.683C689.389 587.031 689.175 587.51 687.915 587.905C687.566 587.822 687.213 587.734 686.856 587.64C682.313 586.45 678.719 584.81 675.239 583.108L671.466 581.249C667.089 579.103 662.673 577.035 657.994 575.508C648.007 572.251 637.734 569.956 627.303 568.731C625.042 568.465 622.865 567.702 621.147 566.395C619.517 565.153 618.271 563.435 617.703 561.15C616.967 558.194 617.179 555.955 618.765 553.288C619.958 551.285 621.665 549.897 623.624 549.099C625.622 548.287 627.897 548.095 630.158 548.548Z" fill="black"/>
<path fill-rule="evenodd" clip-rule="evenodd" d="M1040.26 1567.77C1033.44 1568.19 1026.63 1568.51 1019.81 1568.76C930.653 1572.01 841.569 1562.06 752.467 1559.88C721.439 1559.08 690.569 1559.48 659.619 1561.92C656.587 1562.16 653.119 1558.97 653.492 1555.92C659.21 1507.59 666.363 1459.39 670.071 1410.86C670.073 1408.29 669.735 1405.73 668.834 1403.31C668.664 1403.12 667.784 1400.99 667.001 1400.86C667.256 1401.05 666.097 1400.72 666.835 1400.78C662.361 1400.06 657.972 1395.33 661.219 1390.8C694.672 1340.59 740.337 1294.77 755.029 1235.14C758.5 1219.01 771.037 1218.02 784.394 1211.36C788.561 1208.94 798.751 1202.21 800.41 1197.54C804.371 1180.69 797.395 1164.19 817.776 1157.37C831.231 1153.72 855.012 1150.63 868.626 1154.48C885.232 1159.9 883.989 1178.22 893.621 1190.83C898.603 1198.12 907.095 1208.1 914.937 1209.22C918.738 1209.76 921.537 1202.23 925.332 1202.75C984.485 1216.82 1065.08 1312.79 1090.5 1365.92C1096.23 1382.64 1077.75 1377.59 1078.89 1394.4C1080.29 1426.28 1083.35 1467.1 1081.53 1499.02C1079.83 1517.54 1081.09 1536.95 1075.21 1554.78C1076.79 1556.67 1074.52 1558.57 1072.66 1559.38C1070.32 1563.28 1047.32 1567.23 1040.26 1567.77Z" fill="white"/>
<path fill-rule="evenodd" clip-rule="evenodd" d="M915.04 1213.68C913.137 1215.53 911.115 1217.25 909.031 1218.9C904.747 1222.29 900.293 1225.34 895.429 1227.9C876.001 1238.1 854.054 1240.46 832.354 1238.08C822.056 1236.95 811.604 1235.04 801.922 1231.36C797.433 1229.65 793.07 1227.41 789.219 1224.57L788.212 1223.83C786.187 1222.34 783.486 1220.22 782.22 1217.91C780.22 1214.26 779.924 1214.26 779.924 1214.26L778.964 1213.38L778.085 1213.17C778.506 1212.36 778.728 1211.41 778.688 1210.28C778.547 1206.14 772.093 1205.68 771.54 1209.81C771.902 1209.66 771.697 1209.21 771.557 1209.71L771.534 1209.81L771.54 1209.81C771.535 1209.83 771.531 1209.85 771.527 1209.87C771.489 1210.04 771.506 1209.97 771.534 1209.81C771.477 1209.84 771.398 1209.85 771.307 1209.85L771.269 1209.87C771.126 1209.93 770.623 1210.16 770.475 1210.22C769.456 1210.58 768.316 1210.7 767.274 1211.02C765.012 1211.7 763.019 1212.83 761.64 1214.74C760.649 1216.12 760.097 1217.7 759.87 1219.34C749.862 1224.05 740.39 1230.18 732.455 1237.76C714.747 1254.67 702.399 1275.84 692.266 1297.75C687.109 1308.9 682.513 1320.29 678.018 1331.71L677.309 1333.51C672.491 1345.79 668.23 1358.2 667.182 1371.4C667.085 1372.58 667.484 1373.69 668.173 1374.61C667.928 1375.6 667.802 1376.6 667.837 1377.57C667.843 1377.72 667.854 1377.87 667.866 1378.02C666.248 1377.99 664.665 1378.65 663.161 1380.52C662.551 1380.33 661.891 1380.3 661.241 1380.51C657.283 1381.75 656.645 1386.01 655.899 1389.57C655.129 1393.25 654.794 1397.02 654.788 1400.77C654.788 1402.12 655.574 1403.81 656.907 1404.39C659.413 1405.47 662.112 1406.18 664.704 1407.16C666.652 1407.9 668.606 1408.59 670.577 1409.25C669.483 1411.12 669.13 1413.71 668.538 1415.68C667.609 1418.76 666.863 1421.84 666.236 1424.99C661.988 1446.38 659.043 1468 655.067 1489.43C653.079 1500.17 650.766 1510.83 648.409 1521.5C647.247 1526.74 646.011 1531.97 644.684 1537.18C643.977 1539.96 643.243 1542.74 642.485 1545.5C642.265 1546.3 642.042 1547.11 641.817 1547.91L641.42 1549.32C640.554 1549.79 639.814 1550.49 639.301 1551.46C637.427 1555.01 638.504 1559.01 642.098 1561.01C646.005 1563.18 650.669 1561.13 652.823 1557.6C654.338 1555.11 654.834 1551.8 655.58 1549.03C656.423 1545.92 657.226 1542.79 658 1539.66C663.263 1518.4 666.787 1496.77 669.443 1475.06L669.631 1473.51C670.981 1462.33 672.286 1451.13 673.128 1439.9C673.544 1434.39 673.875 1428.87 674.08 1423.34C674.182 1420.5 674.017 1417.64 673.852 1414.8C673.778 1413.55 673.67 1412.3 673.63 1411.06L673.617 1410.88C673.606 1410.76 673.592 1410.59 673.58 1410.42L673.567 1410.21C677.497 1411.41 681.484 1412.42 685.511 1413.26C694.078 1415.08 702.843 1416.09 711.586 1415.57C710.368 1429.75 708.778 1443.89 706.557 1457.94C704.415 1471.48 701.943 1484.98 699.153 1498.4C697.756 1505.14 696.248 1511.87 694.659 1518.57C693.804 1522.15 692.83 1525.71 692.061 1529.31C691.606 1531.45 691.463 1533.24 692.38 1535.25C691.371 1537.94 690.474 1540.64 689.592 1543.19L689.327 1543.95C687.767 1548.41 684.805 1552.98 687.898 1557.36C689.498 1559.62 692.106 1560.92 694.733 1561C694.778 1561.02 694.829 1561.06 694.881 1561.09C696.293 1561.83 697.922 1561.97 699.471 1561.65C701.824 1562.11 704.182 1562.54 706.546 1562.94C712.384 1563.93 718.25 1564.74 724.129 1565.43C735.321 1566.73 746.587 1567.44 757.847 1567.84C799.074 1569.3 840.345 1566.74 881.588 1567.48C902.6 1567.85 923.612 1568.78 944.59 1570C955.058 1570.62 965.533 1571.28 976.007 1571.78L979.25 1571.94C988.617 1572.38 997.991 1572.72 1007.35 1572.05C1007.53 1572.03 1007.68 1571.96 1007.77 1571.86C1011 1571.5 1014.25 1568.59 1013.92 1565.23C1012.53 1550.91 1011.13 1536.58 1009.73 1522.25C1007.24 1496.73 1004.73 1471.2 1002.19 1445.67L1001.82 1441.99C1000.97 1433.39 1000.16 1424.77 999.742 1416.13C1001.83 1415.99 1003.9 1415.81 1005.98 1415.58C1028.51 1413.17 1050.11 1406.49 1070.85 1397.73L1071.69 1397.37C1073.56 1396.57 1075.6 1395.78 1077.7 1394.92C1077.67 1398.82 1077.8 1402.73 1077.81 1406.59C1077.84 1413 1077.79 1419.4 1077.77 1425.81C1077.73 1439 1077.22 1452.21 1076.55 1465.38C1075.37 1488.65 1073.99 1511.89 1071.89 1535.1C1071.36 1540.94 1070.64 1546.77 1070.14 1552.61C1069.83 1556.05 1070.56 1558.92 1073.78 1560.72C1075.36 1561.62 1076.58 1561.24 1078.16 1560.52C1081.99 1558.76 1082.1 1554.59 1082.47 1550.97C1082.75 1548.23 1083 1545.5 1083.25 1542.76C1083.79 1536.92 1084.25 1531.08 1084.63 1525.23C1086.11 1501.99 1086.55 1478.76 1085.52 1455.49C1085.04 1444.6 1084.36 1433.69 1083.45 1422.82L1083.23 1420.31C1082.48 1411.63 1081.99 1402.52 1080.44 1393.77C1086.71 1391.05 1092.92 1387.59 1095.81 1381.83C1099.54 1374.36 1095.44 1367.97 1089.59 1363.57C1089.64 1362.82 1089.59 1362.09 1089.43 1361.42C1087.75 1354.3 1084.93 1347.26 1082.22 1340.46C1079.48 1333.64 1076.45 1326.92 1073.13 1320.34C1059.78 1294 1041.54 1269.92 1019.8 1249.64C1009 1239.57 997.179 1230.26 984.563 1222.45C978.309 1218.59 971.895 1215.02 965.254 1211.84L964.272 1211.37C959.649 1209.17 954.463 1206.84 949.322 1205.62C948.787 1205.22 948.246 1204.86 947.699 1204.51C945.677 1203.19 942.932 1204.14 941.736 1206.02C941.154 1205.58 940.483 1205.19 939.714 1204.84L938.954 1204.5C934.341 1202.47 928.802 1200.56 923.794 1201.9C912.325 1209.35 920.11 1208.79 915.04 1213.68ZM665.898 1388.28C666.331 1388.4 666.787 1388.44 667.259 1388.39C666.405 1388.49 668.116 1388.98 668.585 1389.22L668.621 1389.24C669.475 1389.71 670.334 1390.18 671.206 1390.62C673.24 1391.67 675.318 1392.62 677.432 1393.5C681.596 1395.24 685.896 1396.57 690.31 1397.55C694.628 1398.5 699.156 1399.06 703.581 1399.15C706.543 1399.2 710.057 1399.07 713.122 1398.21C712.768 1403.47 712.376 1408.73 711.937 1413.98L705.885 1412.62C699.833 1411.26 693.787 1409.87 687.815 1408.17C683.333 1406.9 678.913 1405.41 674.544 1403.8C672.254 1402.96 669.982 1402.07 667.738 1401.11C666.621 1400.63 665.574 1400.06 664.539 1399.49L663.654 1399C663.859 1396.65 664.235 1394.34 664.781 1392.02C665.066 1390.8 665.551 1389.54 665.898 1388.28ZM1080.31 1363.51C1081.08 1365.95 1082.26 1368.23 1084.95 1368.78C1085.9 1368.98 1086.7 1368.87 1087.36 1368.55L1087.52 1368.87C1089.73 1373.31 1090.38 1378 1085.29 1381.42C1082.99 1382.97 1080.49 1384.3 1077.91 1385.5C1073.28 1387.66 1068.36 1389.39 1063.72 1391.15L1062.79 1391.51C1054.49 1394.7 1046.05 1397.6 1037.49 1400.03C1028.79 1402.49 1019.95 1404.47 1010.99 1405.72C1007.22 1406.25 1003.41 1406.62 999.602 1406.86C999.54 1401.84 999.568 1396.81 999.585 1391.79C1000.94 1391.62 1002.29 1391.44 1003.58 1391.29C1007.54 1390.84 1011.48 1390.29 1015.4 1389.6C1023.58 1388.17 1031.68 1386.19 1039.58 1383.66C1054.22 1378.96 1067.84 1372.23 1080.31 1363.51ZM919.822 1209.74C923.148 1206.3 929.51 1207.54 933.525 1209.21C934.739 1209.72 935.964 1210.23 937.126 1210.85L937.351 1210.98C938.704 1211.74 938.697 1212.19 938.036 1213.71C937.177 1215.72 935.981 1217.65 934.842 1219.51C929.965 1227.48 923.547 1234.42 916.216 1240.28C890.255 1261.03 852.959 1268.35 820.493 1261.4C804.912 1258.07 789.882 1251.34 778.411 1240.31L777.367 1239.29C772.742 1234.76 766.393 1228.2 766.839 1221.48C767.05 1218.25 769.744 1218.07 772.495 1217.45C773.622 1217.19 774.699 1216.83 775.633 1216.31C774.881 1219.49 778.885 1224.21 780.953 1226.19C785.287 1230.34 790.505 1233.59 796.023 1236.01C806.527 1240.64 817.952 1242.82 829.327 1244.21C842.234 1245.78 855.42 1245.64 868.229 1243.31C879.376 1241.29 890.363 1237.46 899.955 1231.49C904.352 1228.76 908.687 1225.64 912.355 1222.01L913.134 1221.24C916.389 1218.01 924.214 1210.65 919.822 1209.74Z" fill="black"/>
<path d="M833.153 1231.96C905.107 1224.53 912.481 1234.15 957.732 1162.55C961.643 1158.72 971.252 1149.98 978.402 1145.6C987.341 1140.14 1002.98 1134.67 1011.92 1108.98C1020.86 1083.29 1009.69 1065.8 994.603 1050.5C979.52 1035.19 961.643 930.799 830.36 908.936C699.077 887.073 690.138 946.103 681.759 976.712C673.379 1007.32 669.468 1077.83 677.289 1120.46C685.11 1163.09 743.21 1241.25 833.153 1231.96Z" fill="white"/>
<path fill-rule="evenodd" clip-rule="evenodd" d="M858.141 841.468C822.376 838.203 787.329 840.947 752.083 846.624C749.389 847.064 747.863 848.658 747.295 850.573C730.694 851.257 714.073 852.355 697.494 853.174C691.477 853.471 688.066 858.832 690.81 863.673C691.357 864.634 691.927 865.57 692.506 866.506L691.779 866.29C686.791 864.847 681.403 864.135 676.544 866.426C670.358 869.34 667.933 875.772 669.3 881.692C669.65 883.203 670.238 884.652 670.906 886.065C669.549 885.984 668.183 886.011 666.826 886.173C659.603 887.037 654.236 892.03 653.857 898.678C653.298 908.717 660.471 918.902 668.921 926.089C667.695 928.366 667.225 931.047 667.735 933.764C668.752 939.135 673.14 942.352 678.226 944.449C676.105 950.523 675.102 956.873 675.694 963.362C675.891 965.528 677.992 967.318 680.21 967.757C671.944 988.281 667.76 1010.32 664.751 1031.79C662.606 1047.07 662.46 1061.93 663.245 1078.11C663.182 1085.06 664.427 1095.04 664.751 1101.99L664.881 1104.6C665.28 1112.11 666.733 1118.4 668.229 1125.83C671.369 1137.16 674.664 1143.72 678.589 1152.22C686.039 1165.66 692.319 1172.74 700.168 1181.94C709.587 1191.85 730.781 1211.67 766.888 1225.83C793.576 1232.2 828.898 1237.87 874.093 1214.43C874.462 1213.91 873.674 1213.48 873.215 1213.82C843.027 1223 835.963 1219.46 819.479 1220.88C800.641 1220.88 771.589 1213.16 745.695 1199.64C726.856 1189.81 722.146 1184.07 712.727 1174.16C704.878 1167.08 701.738 1162.83 693.104 1150.46C686.824 1140.18 686.624 1138.42 683.193 1128.96C682.269 1126.41 681.592 1122.6 681.046 1119.68C680.538 1113.27 679.047 1106 678.589 1099.61C678.08 1092.35 677.77 1085.09 677.66 1077.82C677.45 1062.75 678.149 1047.64 679.555 1032.63C682.129 1005.13 688.963 978.306 692.974 951.046C694.459 952.247 696.587 952.74 698.818 951.691L699.049 951.576L700.266 950.948C700.336 950.948 700.416 950.957 700.487 950.965C708.816 951.694 717.455 950.651 725.436 948.41C733.787 946.072 741.538 942.473 748.463 937.678C749.778 943.696 750.328 949.777 750.337 955.913C750.347 959.745 754.846 961.734 758.418 960.097C774.25 952.845 789.374 944.488 803.73 935.096C805.407 942.842 807.082 950.587 808.769 958.342C809.416 961.33 813.637 962.535 816.341 961.114C827.094 955.472 836.382 948.087 843.944 939.305C845.454 941.909 846.968 944.512 848.493 947.11L850.788 951.001C853.053 954.824 856.085 959.053 861.044 960.276C866.291 961.572 870.672 958.505 872.437 954.221C872.975 952.891 873.474 951.523 873.933 950.146C878.403 959.35 883.45 968.347 889.157 976.93C897.716 989.803 907.993 1001.27 918.238 1013.04C921.35 1016.61 926.677 1013.2 927.106 1009.73C927.356 1007.69 927.565 1005.64 927.746 1003.59C933.716 1014.46 939.945 1025.22 946.732 1035.67L945.76 1039.11C942.96 1049.25 940.634 1059.47 938.106 1069.67C937.29 1072.96 939.23 1077.67 943.493 1078.23C948.587 1078.9 953.407 1081.24 958.624 1079.63C964.314 1077.87 965.438 1073.43 968.124 1069.23C968.66 1068.39 969.283 1067.62 969.954 1066.89L970.124 1067.09C970.543 1067.59 971.541 1067.05 971.291 1066.48L970.999 1065.83C973.307 1063.62 976.068 1061.77 978.607 1059.79C984.641 1058.88 991.427 1059.88 995.585 1062.09C1005.05 1067.13 1009.4 1077.51 1009.49 1087.06C1009.6 1098.23 1005.76 1110.79 999.276 1120.34C996.422 1124.54 992.511 1128.34 987.344 1130.2C982.215 1132.06 976.659 1131.48 971.441 1133.22C967.989 1134.39 965.864 1137.84 967.949 1140.97C968.089 1141.19 968.249 1141.38 968.399 1141.59L966.847 1143.45C965.78 1144.74 964.667 1146.11 963.63 1147.55C960.976 1150.3 958.183 1152.95 955.479 1155.66C950.482 1160.66 945.632 1165.78 940.715 1170.85C936.075 1175.63 931.167 1180.11 926.109 1184.53C921.33 1188.72 915.364 1192.23 910.975 1196.7C906.706 1201.05 905.548 1208.65 912.572 1211.17C920.343 1213.97 927.222 1207.42 932.453 1203.05L932.673 1202.87C942.262 1194.91 950.922 1185.82 957.798 1175.8C964.61 1179.98 974.463 1180.38 981.246 1176.2C984.815 1174 987.554 1170.31 988.884 1166.29C990.139 1166.54 991.394 1166.69 992.617 1166.67C993.246 1167 993.878 1167.32 994.516 1167.62C999.575 1169.99 1005.79 1168.93 1008.1 1163.88C1010.21 1159.3 1008.04 1154.1 1006.14 1149.68L1005.75 1148.77C1004.67 1146.25 1003.48 1143.51 1002.01 1140.93C1006.12 1138.14 1009.63 1134.67 1012.6 1130.73C1022.59 1117.46 1027.58 1098.06 1025.37 1082.22C1024.05 1072.67 1019.07 1062.77 1010.92 1056.33L1011.22 1055.63C1013.5 1050.4 1015.58 1045.16 1016.92 1039.64C1018.5 1033.18 1019.27 1026.48 1019.97 1019.91C1021.44 1006.02 1021.04 991.81 1019.08 977.973C1015.39 951.928 1006.03 926.36 989.418 904.688C994.128 899.604 997.858 893.621 995.914 886.74C995.025 883.581 993.001 880.586 989.947 878.777C988.262 877.779 986.256 877.626 984.57 876.799L984.063 876.547C983.322 876.157 983.889 876.198 984.33 874.387C986.076 867.153 984.63 860.164 975.801 857.762C967.49 855.504 959.629 860.299 954.711 866.012C941.841 857.779 924.882 853.471 909.967 849.809C893.008 845.661 875.61 843.071 858.141 841.468Z" fill="black"/>
<path fill-rule="evenodd" clip-rule="evenodd" d="M1001.31 1090.21C1001.37 1083.69 995.041 1079.67 988.815 1080.73C984.634 1081.44 981.146 1083.88 977.871 1086.4L976.274 1087.63C972.286 1090.69 967.707 1093.99 965.33 1098.32C961.845 1104.71 969.211 1113.31 976.088 1108.83C980.806 1105.74 983.83 1100.8 986.925 1096.2L987.246 1095.72C988.652 1093.66 989.885 1091.47 991.811 1089.82L992.228 1089.46C992.861 1088.94 993.541 1088.45 994.359 1088.23C995.936 1087.78 998.859 1088.4 999.554 1090.24L999.616 1090.43C999.871 1091.35 1001.3 1091.15 1001.31 1090.21Z" fill="black"/>
<path fill-rule="evenodd" clip-rule="evenodd" d="M770.497 1071.63C763.899 1075.55 753.846 1084.7 760.944 1094.42C769.299 1102.99 781.328 1093.16 787.255 1088.72C792.752 1085.27 798.927 1094.14 793.828 1098.16C750.994 1129.17 733.611 1072.66 767.16 1067.02C770.854 1066.4 772.226 1070.42 770.497 1071.63ZM830.109 996.844L828.469 996.564L827.628 996.424C822.714 995.63 816.889 995.098 813.495 998.87C811.591 1000.99 810.936 1004.92 813.495 1006.94C817.996 1010.5 822.973 1009.12 828.368 1009.43C832.813 1009.68 837.086 1010.39 841.368 1011.59C850.762 1014.22 858.417 1019.01 866.441 1024.27C867.494 1024.96 868.568 1023.65 868.066 1022.68C863.434 1013.81 854.458 1006.53 845.468 1002.08C840.669 999.713 835.418 997.747 830.109 996.844ZM786.652 1119.4C772.294 1120.42 741.181 1113.71 728.262 1123.77C679.571 1183.22 872.606 1198.5 851.758 1132.73C838.48 1111.46 807.939 1120.01 786.652 1119.4ZM789.113 1155.29C792.664 1155 796.973 1157.75 798.016 1159.88C799.058 1162 798.655 1166.5 798.624 1167.27C792.416 1167.89 786.154 1167.98 779.928 1167.58C781.546 1162.35 781.598 1156.08 789.113 1155.29ZM760.449 1164.06C761.447 1157.57 766.197 1156.03 770.041 1157.01C773.974 1158 776.282 1162.43 776.032 1166.37C776.016 1166.64 776.176 1166.87 776.282 1167.09C770.937 1166.47 765.641 1165.46 760.449 1164.06ZM804.48 1156.46C806.719 1153.13 812.068 1151.53 815.494 1152.11C821.088 1153.26 821.751 1160.22 821.751 1161.63C816.593 1163.55 811.117 1164.83 805.882 1165.85C804.831 1166.05 803.777 1166.23 802.721 1166.4L802.653 1165.56C802.525 1163.75 802.431 1159.51 804.48 1156.46ZM741.196 1155.91C746.932 1147.24 759.263 1153.45 758.244 1162.93C757.148 1162.59 756.058 1162.24 754.973 1161.87C750.466 1160.33 745.522 1158.51 741.196 1155.91ZM786.355 1126.01C794.072 1125.33 800.403 1125.56 805.435 1126.48L805.588 1128.12C806.145 1133.82 806.863 1139.42 803.802 1141.72C801.317 1143.58 793.066 1143.4 787.533 1142.05C786.167 1141.72 784.39 1129.9 786.355 1126.01ZM774.423 1125.33C775.66 1130.95 776.242 1137.77 773.758 1139.8C771.136 1141.94 762.694 1141.65 760.487 1140.22C758.555 1138.98 758.604 1133.24 759.321 1126.8C763.596 1125.81 771.041 1125.33 774.423 1125.33ZM808.848 1126.53L811.375 1126.55L812.805 1126.57C816.422 1126.64 820.324 1126.84 824.012 1127.63C831.339 1143.11 804.581 1145.78 808.713 1127.1L808.848 1126.53ZM755.917 1126.91L755.964 1127.78C756.183 1132.13 756.038 1137.86 753.574 1139.41C749.948 1141.68 743.139 1141.24 739.45 1130.72C740.671 1127.58 753.617 1127.14 755.917 1126.91ZM826.932 1034.58C825.383 1034.58 823.901 1035.1 822.552 1036.05C821.223 1036.98 820.021 1038.35 819.019 1040.06C817.124 1043.28 815.94 1047.74 815.94 1052.66C815.94 1057.59 817.124 1062.04 819.019 1065.27C820.021 1066.97 821.223 1068.34 822.552 1069.27C823.901 1070.22 825.383 1070.74 826.932 1070.74C828.481 1070.74 829.963 1070.22 831.313 1069.27C832.641 1068.34 833.843 1066.97 834.845 1065.27C836.74 1062.04 837.925 1057.59 837.925 1052.66C837.925 1047.74 836.74 1043.28 834.845 1040.06C833.843 1038.35 832.641 1036.98 831.313 1036.05C829.963 1035.1 828.481 1034.58 826.932 1034.58ZM728.864 1034.58C727.314 1034.58 725.832 1035.1 724.483 1036.05C723.155 1036.98 721.952 1038.35 720.951 1040.06C719.056 1043.28 717.871 1047.74 717.871 1052.66C717.871 1057.59 719.056 1062.04 720.951 1065.27C721.952 1066.97 723.155 1068.34 724.483 1069.27C725.832 1070.22 727.314 1070.74 728.864 1070.74C730.413 1070.74 731.895 1070.22 733.244 1069.27C734.572 1068.34 735.775 1066.97 736.776 1065.27C738.671 1062.04 739.856 1057.59 739.856 1052.66C739.856 1047.74 738.671 1043.28 736.776 1040.06C735.775 1038.35 734.572 1036.98 733.244 1036.05C731.895 1035.1 730.413 1034.58 728.864 1034.58ZM742.207 992.871L740.951 993.122L740.118 993.295C726.576 996.143 709.406 1001.76 703.067 1014.62C702.82 1016.47 703.081 1016.87 703.293 1017.13L703.363 1017.22C703.538 1017.44 703.677 1017.74 704.5 1018C704.728 1017.94 704.958 1017.89 705.191 1017.83C708.157 1017.07 710.504 1016.02 712.775 1014.93L715.238 1013.75C718.096 1012.38 720.979 1011.06 724.034 1010.08C730.554 1008 737.26 1006.54 744.07 1005.75C745.546 1005.59 746.968 1005.1 748.089 1004.26C749.154 1003.47 749.967 1002.37 750.337 1000.92C750.818 999.028 750.68 997.599 749.644 995.896C748.865 994.618 747.751 993.732 746.472 993.223C745.168 992.704 743.683 992.581 742.207 992.871Z" fill="black"/>
</svg>
