<svg width="60" height="88" viewBox="0 0 60 88" fill="none" xmlns="http://www.w3.org/2000/svg">
<g clip-path="url(#clip0_240_6827)">
<path fill-rule="evenodd" clip-rule="evenodd" d="M52.7738 77.7404C52.5083 76.2201 52.2649 74.6955 52.0436 73.1679C51.9385 72.4425 51.8364 71.7167 51.7441 70.9891C51.6798 70.4799 51.5815 69.8973 51.9232 69.5197C52.4045 68.9885 52.8415 68.5341 52.9002 67.7734C52.9559 67.0574 52.7172 66.2772 52.5679 65.5825C52.2547 64.1252 51.8649 62.6861 51.4343 61.2607C50.9969 59.8125 50.5169 58.3777 50.0305 56.9459C49.5752 55.6072 49.1382 54.2561 48.5455 52.9719C47.4208 50.5342 45.5182 48.7291 43.1669 47.5238C42.582 47.224 41.3893 46.1539 40.7783 45.9143C40.2166 45.694 40.2186 46.3373 39.6658 46.095C39.2239 45.9012 38.8124 45.643 38.565 45.2104C38.2963 44.7407 37.6226 44.0837 37.52 43.5369C37.3027 42.378 37.5381 41.3916 36.7223 40.5193C35.998 39.7448 35.0245 39.2141 34.0172 38.9292C31.8013 38.3027 28.8461 38.7407 27.5091 40.8283C26.8705 41.8253 26.6474 43.0303 25.7858 43.8439C25.0334 44.5543 25.2018 45.04 24.2272 45.4061C24.1721 45.4269 22.6761 45.1016 22.6209 45.1224C21.5548 44.8911 20.5359 45.5385 19.5579 45.9143C18.0997 46.4743 16.7115 47.2033 15.4073 48.0696C12.7775 49.8166 10.5251 52.085 8.66812 54.6518C6.79585 57.2402 5.34314 60.1409 4.30877 63.1728C4.05757 63.9094 3.83194 64.6547 3.63291 65.4077C3.52151 65.8289 3.40247 66.2656 3.53811 66.6971C3.64906 67.0497 3.89584 67.3125 4.18565 67.5239C4.57848 67.8109 5.36647 67.9977 5.35112 68.5747C5.33939 69.0136 5.19255 69.4757 5.12087 69.909C5.03555 70.4255 4.96546 70.9451 4.89536 71.4638C4.57651 73.8251 4.32834 76.1994 4.21858 78.5806C4.11054 80.9251 4.02088 83.3175 4.1813 85.6611C4.1919 85.8156 4.23736 85.9576 4.31068 86.0775C4.24223 86.1043 4.23696 86.2333 4.32215 86.2519C4.38183 86.2648 4.44139 86.2773 4.50108 86.2903C4.62506 86.3852 4.77968 86.4435 4.95762 86.4495C5.07824 86.4534 5.1988 86.4586 5.3193 86.465C6.59083 86.7343 7.86215 86.9889 9.15031 87.1818C10.7161 87.4161 12.2866 87.6069 13.8619 87.7622C17.0988 88.0815 20.3103 87.9754 23.5516 87.8036C26.7879 87.6319 30.0222 87.5918 33.2618 87.6772C36.5043 87.7626 39.7456 87.9055 42.9887 87.9642C46.6119 88.0293 50.2296 87.9292 53.8427 87.6371C54.338 87.5974 54.6444 87.1978 54.5469 86.6989C53.9614 83.7106 53.298 80.7421 52.7738 77.7404Z" fill="white"/>
<path fill-rule="evenodd" clip-rule="evenodd" d="M21.6101 45.0487C21.9452 45.034 22.2868 45.0889 22.6211 45.1223C22.6502 45.1251 22.6613 45.1707 22.6285 45.1777C22.0302 45.3044 21.4385 45.4777 20.851 45.6537L20.5994 45.7292C19.9369 45.9279 19.2938 46.1329 18.6524 46.3979C17.374 46.9261 16.1599 47.6391 15.0426 48.4581C10.7399 51.6121 7.62573 56.3873 5.66056 61.3313C5.12687 62.6738 4.67467 64.0499 4.30838 65.449C4.21931 65.7894 4.13552 66.1312 4.05606 66.4743C4.03274 66.5748 3.93109 66.832 3.98682 66.9351C4.0361 67.0258 4.22768 67.0819 4.31668 67.1293L4.61717 67.2873C5.20329 67.5937 6.17961 68.0968 6.27752 68.146L6.43021 68.2224C8.92773 69.4635 11.5963 70.5164 14.4068 70.5889L14.4288 70.346C13.7069 78.3297 13.0102 86.0942 14.3204 71.5443C11.3432 71.4472 8.5617 70.3291 5.90819 69.0229L5.34974 68.7441C5.14386 68.6406 4.93858 68.5361 4.73409 68.4308C4.37136 68.2448 3.99631 68.0701 3.64372 67.8647C3.364 67.7015 3.12275 67.478 3.04488 67.1479C2.95804 66.7802 3.09084 66.378 3.17906 66.0194L3.18672 65.9879C3.27322 65.6268 3.36637 65.2669 3.46467 64.9091C3.86323 63.457 4.35608 62.0334 4.93285 60.6443C6.08772 57.8635 7.57838 55.2222 9.3992 52.8336C11.0382 50.6835 12.9744 48.7337 15.2437 47.2714C16.3531 46.5564 17.5354 45.9694 18.7857 45.5543C19.3701 45.3604 20.006 45.1917 20.6179 45.1222C20.9479 45.0848 21.2785 45.0634 21.6101 45.0487ZM27.5467 40.6425C27.9449 40.209 28.736 40.6576 28.5448 41.2316C28.0951 42.5821 27.379 43.8139 26.2614 44.7013C25.2109 45.5355 23.9582 46.0773 22.6091 45.9617C22.5987 45.9607 22.5897 45.958 22.5817 45.9542L22.698 46.1141C23.6107 47.3659 24.5736 48.6003 25.7342 49.6234C28.0988 51.7081 31.3183 52.8323 34.4271 52.0326C36.8731 51.4034 39.028 49.4424 39.6618 46.9434C39.5709 46.9846 39.463 46.9988 39.3445 46.9726C38.8374 46.861 38.3354 46.3204 38.0083 45.9327C37.6546 45.5133 37.3783 45.0605 37.1757 44.5486C36.8051 43.6117 36.6863 42.4056 37.1924 41.4981C37.2548 41.3862 37.3988 41.4489 37.4111 41.5581L37.4304 41.7286C37.5279 42.579 37.6495 43.4017 38.045 44.1771C38.2385 44.5564 38.4705 44.9267 38.753 45.2445C38.9041 45.4144 39.068 45.5769 39.2449 45.7194C39.4172 45.8583 39.6258 45.9587 39.7803 46.118L39.8086 46.1486L39.8094 46.1431C39.8485 45.8064 40.0814 45.6581 40.3092 45.6674C40.5298 45.6764 40.7888 45.7748 40.8891 45.8219L40.8986 45.8265C42.437 46.5752 43.8539 47.5511 45.1873 48.6338C47.9448 50.8729 50.0107 53.8003 51.012 57.2469C51.503 58.9389 51.7851 60.6819 52.0826 62.417L52.266 63.4799C52.5438 65.0817 52.854 66.7151 53.4808 68.2051C53.6433 68.5905 53.5182 68.9521 53.1204 69.1036C52.6238 69.293 52.1255 69.4764 51.626 69.6572C51.8711 70.7235 52.0209 71.8265 52.2043 72.898C52.5949 75.1756 53.0732 77.4386 53.4834 79.7132C53.6931 80.8761 53.8821 82.043 54.0918 83.206C54.1927 83.7661 54.2978 84.3253 54.4003 84.885C54.4552 85.1871 54.5054 85.49 54.5582 85.7921L54.5671 85.8426C54.5973 86.0018 54.6352 86.1667 54.5918 86.3263C54.5425 86.5085 54.4025 86.637 54.2774 86.7674C54.1744 86.8748 54.0255 86.8757 53.8995 86.817L53.8578 86.7976C53.6327 86.6906 53.4561 86.584 53.3761 86.3263C53.3255 86.1632 53.3072 85.9794 53.2744 85.8115C53.2106 85.4892 53.1506 85.1664 53.094 84.8427C52.9804 84.1955 52.8693 83.5477 52.7612 82.8991L52.66 82.292C52.3128 80.1995 51.983 78.0941 51.8162 75.9796C51.7421 75.0414 51.6638 74.1041 51.5847 73.1664L51.5256 72.4635C51.4502 71.5737 51.3588 70.661 51.3456 69.7591L51.0473 69.8665L49.5903 70.3887C49.2295 70.5177 48.7695 70.7831 48.381 70.7348C48.1904 70.711 48.0453 70.6506 47.9334 70.5401C48.0674 72.4592 48.2491 74.3751 48.4912 76.2812C48.7112 78.0155 48.9554 79.7472 49.2435 81.4712C49.3865 82.3252 49.5333 83.1779 49.6924 84.0289C49.772 84.4539 49.8546 84.879 49.9392 85.3032C49.9814 85.5151 50.0316 85.727 50.0643 85.9406C50.1022 86.1848 50.0358 86.3354 49.9009 86.5365C49.7903 86.7018 49.569 86.7864 49.3899 86.6724C49.152 86.5214 49.0282 86.3902 48.9584 86.1149C48.895 85.865 48.8563 85.604 48.8074 85.3507C48.7163 84.8833 48.6286 84.4155 48.544 83.9469C48.367 82.9669 48.204 81.9847 48.058 80.9991C47.5449 77.5283 47.2189 74.0282 47.0542 70.522C46.973 68.7924 46.9479 67.0612 46.9623 65.3299C46.9696 64.4422 46.9985 63.552 47.0602 62.6669C47.1228 61.7706 47.2534 60.8924 47.37 60.0048C47.3738 59.9737 47.4176 59.972 47.4193 60.0048C47.4742 60.9999 47.561 61.9937 47.6032 62.9914C47.6436 63.9434 47.6615 64.897 47.6934 65.8494C47.7359 67.1013 47.7942 68.3536 47.8721 69.6055C48.0121 69.4497 48.224 69.3599 48.4355 69.3949C48.7423 69.3297 49.0725 69.1666 49.3648 69.0673L50.4673 68.6941C51.0469 68.4977 51.6264 68.3031 52.2081 68.1141C51.6881 66.3405 51.3319 64.5406 51.0277 62.7144L50.892 61.8927C50.6235 60.2762 50.3341 58.6588 49.8477 57.0933C49.3363 55.4474 48.5712 53.9172 47.5564 52.5316C46.556 51.166 45.3386 49.9634 44.0853 48.8386C43.0123 47.8758 41.8645 47.0064 40.7701 46.07C40.7816 46.132 40.784 46.2004 40.7739 46.2755C40.5412 48.002 39.6528 49.6099 38.4148 50.8058C35.9275 53.2082 32.2457 53.7066 29.0622 52.5803C25.9829 51.4904 23.2603 48.9094 22.2983 45.7157C22.2819 45.661 22.3541 45.6393 22.3831 45.6795C22.4365 45.7536 22.4901 45.8278 22.5438 45.9019C22.5401 45.8724 22.5552 45.8404 22.5911 45.8263C23.7134 45.387 24.8155 44.7639 25.6568 43.8824C26.0668 43.4528 26.4246 42.966 26.7071 42.441C26.8425 42.1895 26.964 41.9291 27.061 41.66L27.0856 41.5904C27.2032 41.2533 27.3014 40.9096 27.5467 40.6425Z" fill="black"/>
<path fill-rule="evenodd" clip-rule="evenodd" d="M38.1799 45.472C38.3159 47.4216 38.4706 49.6392 40.2732 53.9247C42.1146 58.3026 41.4347 65.7348 38.8467 69.3536C38.8384 69.3601 38.8307 69.3662 38.8236 69.3722C38.7482 69.2626 38.4494 69.0093 37.9999 68.6287C36.5029 67.3608 33.3343 64.6767 31.1794 61.1546C29.1695 57.8698 27.1938 51.1638 26.8009 48.289C26.4079 45.4141 25.3133 44.5887 24.6116 44.5602C23.91 44.5317 23.2925 44.8849 23.91 45.4141C24.4619 45.8221 25.6221 46.9056 25.8466 47.9759C26.4557 50.8792 27.7321 56.693 29.8883 60.4145C32.2306 64.4575 35.6212 67.2538 37.3046 68.6425C37.719 68.9843 38.0299 69.2406 38.1962 69.4093C38.8699 70.0924 38.8979 69.7226 38.8418 69.4093C38.8403 69.4011 38.8358 69.3912 38.8283 69.3791C38.8344 69.3709 38.8406 69.3623 38.8467 69.3536C38.9223 69.2963 39.0495 69.2311 39.2343 69.2099C39.7395 69.153 40.5062 67.7471 40.8062 66.9328C41.7608 64.3427 42.9394 58.2513 40.4694 52.1316C39.6409 50.079 39.4401 48.4569 39.2878 47.2274C39.1187 45.8622 39.0096 44.981 38.1678 44.5317C38.1653 44.75 38.1617 45.2092 38.1678 45.3002C38.1719 45.3573 38.1759 45.4145 38.1799 45.472Z" fill="black"/>
<path d="M37.2475 72.459C36.9962 71.2719 37.2877 70.4041 37.6005 70.0722C37.9792 69.5747 39.2529 68.6754 40.3702 69.1207C42.1858 69.8439 42.1771 72.1738 41.9797 72.67C41.7823 73.1663 41.6714 72.6536 42.1485 74.0815C42.5302 75.2238 42.1769 75.1332 41.9526 74.9446L41.4755 73.5167C41.3471 73.1322 41.0579 73.354 40.6235 73.5033C40.189 73.6526 39.9703 73.3605 40.4048 73.2112C40.7523 73.0916 41.0677 72.7792 41.182 72.6381C41.5408 71.7185 41.1019 70.7674 40.6102 70.2017C40.1185 69.6359 39.2855 69.8608 38.8511 70.0101C38.4166 70.1594 38.6889 70.2496 39.1446 70.8887C39.6004 71.5282 39.5674 72.3356 39.2797 72.9242C38.9921 73.5128 39.0845 73.9706 39.7238 75.1595C40.363 76.3479 40.617 76.3833 41.2686 76.1594C41.9203 75.9354 41.9005 75.5138 42.2814 75.5664C42.6622 75.6195 42.8274 76.1136 42.6836 76.4079C42.5397 76.7022 40.5113 77.1545 40.1855 77.2662C39.9248 77.356 39.702 77.2693 39.6232 77.2144C39.0588 76.6125 37.5616 73.943 37.2475 72.459Z" fill="black"/>
<path d="M51.7117 44.5176C49.5701 41.5858 47.1106 41.6562 46.1485 42.0578C43.7862 43.3757 33.7544 54.1948 32.9447 55.4946C32.1349 56.7948 30.1192 57.3644 29.2266 58.6572C28.3341 59.9501 29.0494 61.1618 29.7655 61.9679C30.4815 62.774 30.7008 63.537 30.8061 66.2521C30.9114 68.9673 31.6047 70.8371 33.034 70.3012C34.4632 69.7648 34.5451 66.6095 34.4089 65.6506C34.2999 64.8833 34.1461 63.5534 34.0828 62.9842C35.5559 61.1325 34.5873 62.5371 38.8586 62.3144C43.1299 62.0918 54.2491 60.1611 55.3384 56.9238C56.4277 53.686 54.3891 48.1824 51.7117 44.5176Z" fill="white"/>
<path fill-rule="evenodd" clip-rule="evenodd" d="M55.5898 56.917C56.3366 54.913 56.8562 49.7881 52.9623 45.3247C48.0948 39.7455 45.3736 41.1676 44.2264 42.117C43.0793 43.0664 32.6056 53.9826 31.9415 54.9402C31.7041 55.2819 31.6265 55.4977 31.5696 55.6556C31.4673 55.9396 31.432 56.0376 30.6555 56.3508C29.4471 56.8385 27.786 59.536 27.9713 60.1103L27.9765 60.1267C28.1181 60.566 28.5786 61.9952 29.7746 62.7271C29.7617 62.7478 29.7522 62.772 29.7463 62.8005C29.7052 62.9964 29.9076 65.028 30.0441 66.399V66.3994L30.0443 66.4003C30.0931 66.8909 30.1335 67.297 30.1514 67.5037C30.2188 68.2874 30.9919 71.7875 32.6691 71.4759C34.3463 71.1644 35.1929 68.633 35.1606 67.4295C35.1349 66.4663 34.7457 64.2983 34.5543 63.3347C34.5452 63.3114 34.5328 63.2842 34.5173 63.254C35.159 63.2342 35.5296 63.0913 35.5862 62.6063C35.6337 62.1998 35.9796 62.2904 36.4903 62.4242C36.873 62.5243 37.3481 62.6486 37.8596 62.6063C40.1908 62.4134 46.9536 61.5534 52.224 59.8566C56.5243 58.4722 54.1456 56.9153 52.8167 56.5761C50.1249 55.8891 47.7267 52.6803 48.2501 52.3756C50.0407 51.3347 50.4479 50.68 49.9569 49.4276C49.502 48.268 47.7876 48.7265 46.7195 49.0122V49.0123L46.7191 49.0123C46.634 49.0352 46.5527 49.0569 46.4766 49.0766C46.0417 47.9003 45.3245 45.2022 45.9345 43.8207C46.6966 42.0939 50.0522 44.4304 51.2092 45.7481C51.2938 45.8448 51.387 45.9487 51.4866 46.0597V46.0599L51.487 46.0599C52.7453 47.4624 55.0345 50.0141 54.6503 53.8087C54.4975 55.3195 54.5252 58.0765 55.5898 56.917ZM44.2454 46.0439C44.3503 45.542 44.3009 44.7806 43.2644 45.7502C41.9687 46.9623 34.5135 53.9438 33.1932 55.896C31.968 57.7071 32.9548 58.5913 33.8398 59.3841L33.84 59.3845C33.9087 59.4458 33.9767 59.507 34.0431 59.5679C34.1786 59.6917 34.324 59.8303 34.4767 59.9761H34.4769C35.3635 60.8215 36.4988 61.9038 37.3924 61.7851C37.5135 61.7691 37.7019 61.7462 37.9449 61.7165H37.945H37.9453C39.8045 61.4882 44.8628 60.8681 47.5199 60.0115C48.3382 59.7474 49.1169 59.5239 49.8062 59.3258C51.6483 58.7963 52.8542 58.4498 52.481 58.0101C52.3453 57.85 52.0198 57.7205 51.5742 57.5436C50.3381 57.0529 48.1786 56.1959 46.5778 53.2948C44.5412 49.6039 44.3669 47.5019 44.266 46.285L44.266 46.2849V46.2845C44.259 46.2001 44.2523 46.12 44.2454 46.0439ZM30.7761 61.858C31.3769 62.3292 33.3443 62.255 34.253 62.1588C32.5128 61.4649 32.1106 59.7094 31.8578 58.6056C31.7801 58.2664 31.7164 57.9885 31.6324 57.8224C31.2749 57.1151 30.4382 58.1417 29.7187 59.1618C28.9991 60.1824 30.0251 61.269 30.7761 61.858ZM31.5032 64.1197C31.8902 63.8012 33.063 63.8823 33.601 63.9626C33.8696 63.995 33.8529 65.3525 33.811 66.0275C34.0209 68.0919 32.9057 70.4476 32.1006 69.3127C31.2954 68.1773 31.0194 64.5175 31.5032 64.1197Z" fill="black"/>
<path fill-rule="evenodd" clip-rule="evenodd" d="M5.01329 72.0981C4.92111 72.7247 4.83923 73.3525 4.76731 73.9817C4.69055 74.654 4.67291 75.3453 4.46967 75.9913C4.38254 76.2679 4.17682 76.3832 3.9709 76.3732L3.92907 76.904C3.87361 77.6113 3.82191 78.319 3.80444 79.0306C3.77548 80.2143 3.78861 81.3945 3.87254 82.5756L3.88443 82.7366C3.95038 83.5983 4.09776 84.5671 4.73676 85.198C5.39852 85.8518 6.41619 86.0572 7.30813 86.0693C9.38549 86.0965 11.3852 85.1009 13.2235 84.2275C15.1167 83.3278 16.9582 82.3296 18.7555 81.2465C19.6709 80.695 20.5763 80.1254 21.4702 79.5389C21.9089 79.2511 22.3445 78.9581 22.7767 78.6608C23.0243 78.4903 23.259 78.3035 23.5111 78.1524C23.3876 78.0359 23.3324 77.8525 23.4359 77.6924C22.7072 77.0507 22.4039 75.9059 22.3685 74.9794C22.3398 74.2316 22.4483 73.4859 22.5339 72.7454C22.5771 72.3717 22.6305 71.9988 22.6859 71.6269C22.7078 71.4801 22.7245 71.3231 22.7501 71.1677C20.7824 72.2646 18.7597 73.2412 16.6834 74.109C15.6191 74.5539 14.5412 74.9539 13.4483 75.3203L13.2268 75.3941C12.1914 75.738 11.1312 76.063 10.0607 76.2593C10.0035 76.2697 9.95704 76.1842 10.0181 76.157C11.0613 75.6901 12.1406 75.2961 13.1995 74.8663L13.3735 74.7943C13.3535 74.793 13.3327 74.7904 13.3111 74.7852C12.6901 74.6329 12.074 74.399 11.465 74.2018C10.8997 74.0184 10.2646 73.9036 9.73633 73.627C9.69565 73.6058 9.71841 73.5484 9.75803 73.5459C10.3518 73.504 10.9965 73.6796 11.5787 73.7828L11.7974 73.8216C12.1638 73.8872 12.5384 73.9575 12.903 74.0495C12.9162 73.9256 12.9845 73.8013 13.0815 73.7284C14.1499 72.9258 14.0414 71.3049 14.1557 70.1096L14.2404 69.2219C14.3895 67.6689 14.5472 66.1162 14.7867 64.5744C14.7995 64.4924 14.9251 64.5157 14.9256 64.5938C14.9379 66.5046 14.7957 68.4063 14.7245 70.3141L14.7134 70.6274C14.674 71.8046 14.6431 73.0267 13.9122 73.9325C14.0144 73.8721 14.1526 73.8721 14.2354 73.9722C14.3371 74.0948 14.3958 74.2329 14.394 74.3679C15.0545 74.087 15.7122 73.7992 16.3666 73.5049C18.4706 72.5594 20.5304 71.5013 22.5358 70.3564C22.7516 70.2334 22.9568 70.3301 23.0635 70.4928L23.0789 70.4902C23.0815 70.4902 23.0841 70.4898 23.0868 70.4898L23.102 70.4889C23.1026 70.4889 23.1032 70.4889 23.1038 70.4889C23.3861 70.3318 23.7706 70.4436 24.0129 70.6732C24.02 70.6801 24.0261 70.6878 24.0325 70.6947C24.3391 70.5554 24.6255 70.3668 24.8854 70.1277C25.4172 69.6388 25.8677 69.0342 26.2604 68.4284C26.9836 67.3116 27.5979 66.0701 28.5748 65.1509C29.3685 64.4043 29.3377 64.2261 30.37 63.9344C30.8062 63.811 31.4518 63.7126 31.7324 63.5987C32.3219 63.4865 32.9112 63.3997 33.4726 63.3428C34.034 63.2858 33.8663 63.3091 34.483 63.5137C35.1286 63.8265 35.7461 64.2537 35.9886 65.5086C36.3781 65.8469 37.4072 67.1446 36.8787 68.273C36.6642 69.5262 37.2403 69.4576 35.9886 71.9117C35.6549 72.4476 34.6461 72.8041 34.4883 72.8666C34.1994 72.9814 33.9546 73.1661 33.7333 73.3832C33.2659 73.8423 32.9034 74.3999 32.4144 74.8383C31.9717 75.2349 31.4673 75.543 30.9262 75.7803C29.8051 76.2718 28.6023 76.4682 27.4164 76.7284L27.3337 76.7469C26.4409 76.9454 25.5297 77.1893 24.7416 77.6609C24.7262 77.7999 24.6639 77.9302 24.5639 78.0156C24.703 78.1481 24.7618 78.3578 24.6397 78.5546C24.2985 79.104 23.7109 79.4164 23.1833 79.7676L23.149 79.7905C22.63 80.1392 22.1066 80.4814 21.5788 80.8167C20.5059 81.4981 19.4106 82.1419 18.2999 82.7573C16.5133 83.7472 14.6884 84.681 12.8305 85.5281C12.9419 86.0848 12.9012 86.6583 12.985 87.2189L12.9979 87.2987C13.0337 87.5067 12.9853 87.6806 12.8441 87.8161L12.8292 87.8303L12.8294 87.8282L12.8162 87.8407L12.8118 87.8446L12.8133 87.8433C12.797 87.8584 12.7802 87.8722 12.7631 87.8843L12.7413 87.8985C12.6053 87.9827 12.4302 87.9814 12.291 87.9076L12.2751 87.8985L12.2484 87.883C12.0644 87.776 11.9375 87.5097 12.0139 87.2987C12.2014 86.7796 12.2723 86.2251 12.4455 85.7025L12.3081 85.765L12.127 85.8449C10.1682 86.704 7.9924 87.4277 5.85815 86.8417C4.91515 86.5832 4.03377 86.0356 3.56194 85.1428C3.09765 84.2646 3.03203 83.2449 3.00738 82.2684C2.97696 81.0627 3.04068 79.8384 3.19743 78.6431C3.30266 77.8409 3.42991 77.0231 3.62619 76.2291C3.52523 76.1389 3.45102 76.009 3.43141 75.8485C3.33878 75.0903 3.50091 74.3019 3.60016 73.5472C6.64876 61.5248 4.85245 72.6543 5.01329 72.0981Z" fill="black"/>
<path fill-rule="evenodd" clip-rule="evenodd" d="M35.1074 64.5699C34.892 64.0533 34.0986 64.0641 33.6483 64.0952C32.5141 64.1729 31.2869 64.4637 30.2778 65.0018C29.2315 65.559 28.5268 66.4522 27.8962 67.44L27.8667 67.4866C27.2521 68.4554 26.6602 69.6028 25.6978 70.2691C25.2076 70.6083 24.6352 70.9185 24.0404 71.0528C23.9996 71.1257 23.9334 71.1831 23.8467 71.2042L23.8064 71.2133C23.637 71.2513 23.3738 71.2935 23.1465 71.2681C23.148 71.3811 23.1468 71.4929 23.1497 71.5999C23.1577 71.9059 23.1611 72.2136 23.1611 72.52C23.1612 73.1621 23.1272 73.8055 23.1536 74.4472C23.177 75.0151 23.2561 75.6084 23.5249 76.1159C23.722 76.4883 23.9822 76.7351 24.2963 76.9703C25.069 76.4926 25.9427 76.2013 26.8294 75.9825C27.9019 75.7176 28.9999 75.5411 30.0479 75.1821C30.5523 75.0094 31.0373 74.7833 31.4767 74.4761C31.943 74.1498 32.2992 73.7084 32.6657 73.2769L32.7229 73.21C33.0969 72.7746 33.505 72.3586 34.0336 72.1225C34.4888 71.9193 35.0887 71.883 35.4867 71.5689C35.6948 71.404 35.7123 71.1654 35.7341 70.9211C35.4792 70.9578 35.2094 70.8987 34.9554 70.8685L34.8237 70.853C34.5835 70.824 34.3488 70.7921 34.1123 70.73C34.0684 70.7187 34.0684 70.6514 34.1123 70.6398C34.3918 70.5668 34.6688 70.5353 34.9554 70.5013L35.0227 70.4931C35.2819 70.4585 35.5544 70.4063 35.8087 70.4641C35.8543 70.2881 35.9202 70.1202 36.0126 69.9515C36.1424 69.715 36.3879 69.447 36.4211 69.1708C36.431 69.088 36.412 68.9909 36.3737 68.918L36.3604 68.8929C36.3444 68.8636 36.3253 68.8343 36.2973 68.8157C36.2942 68.8196 36.2877 68.8235 36.2734 68.8282C36.0777 68.8908 35.907 68.7937 35.8164 68.644C35.4318 68.6923 35.012 68.6759 34.6513 68.6923L34.2866 68.71C33.8969 68.7281 33.4895 68.7359 33.1233 68.656C33.0722 68.6452 33.0567 68.5589 33.1079 68.5365C33.5581 68.341 34.1042 68.2789 34.5862 68.2038C34.8554 68.1619 35.1265 68.13 35.3965 68.0933C35.5763 68.0687 35.7671 68.0277 35.9533 68.0182C36.4203 67.4283 36.1687 66.4984 35.5188 66.2442C35.2821 66.3499 35.0692 66.2887 34.8106 66.2658C34.5524 66.2434 34.2936 66.2283 34.0343 66.2296C33.5149 66.2317 32.9645 66.3702 32.4501 66.3107C32.3664 66.3008 32.2887 66.1881 32.3719 66.1191C32.7656 65.7933 33.3299 65.6871 33.8297 65.6176L33.9333 65.6034C34.1009 65.581 34.3046 65.5486 34.516 65.5292C34.5638 65.4347 34.6495 65.363 34.7783 65.3453C34.8166 65.3402 34.8551 65.3371 34.8935 65.3337L34.893 65.3298C35.2071 65.3147 35.1935 64.7762 35.1074 64.5699Z" fill="white"/>
<path fill-rule="evenodd" clip-rule="evenodd" d="M45.7811 18.758C45.7585 17.9451 44.5924 17.6077 44.2555 18.4127C44.2346 18.4342 44.2119 18.455 44.1905 18.4735C44.296 18.3818 44.0754 18.5335 44.0396 18.5523C44.0089 18.5683 43.9775 18.5828 43.9462 18.5978C43.7295 16.5386 42.9937 14.3188 41.0927 13.2852C38.4411 11.9817 35.3773 11.7273 32.4683 11.8568C30.9947 11.9454 29.293 12.1843 27.9838 11.4286C27.5758 11.1931 27.2488 10.8225 26.7878 10.6769C25.3326 10.2779 24.6725 11.7927 24.8707 13.0384C24.25 13.0434 23.6343 13.3918 23.3664 13.9653C23.2091 14.3048 23.2118 14.6711 23.0761 15.0117C22.66 15.8757 22.0645 16.4967 22.4012 17.5441C21.809 18.2272 22.1466 19.2612 22.6244 19.9152C22.8604 20.2553 23.1414 20.5819 23.3143 20.9626C23.482 21.3271 23.2288 21.7594 23.0879 22.105C22.0459 24.6097 22.1054 27.3681 22.6661 29.9807C21.5409 30.4756 21.2032 32.0227 21.9369 32.9968C22.1894 33.3411 22.4974 33.4689 22.8466 33.6808C23.2887 33.9274 22.9276 34.9152 23.0692 35.3922C23.2615 36.5567 24.3075 37.2739 25.3418 36.5176C25.9982 36.417 26.5275 38.3528 27.0041 38.8387C27.2978 39.2302 27.6238 39.5817 27.9782 39.9061C29.0343 42.6607 34.4459 44.0576 37.1215 43.8981C39.9233 43.6007 41.8134 41.1886 43.3873 39.0479C44.1955 37.9073 44.7211 36.6306 44.9123 35.2382C45.1043 33.8388 45.0203 32.4369 44.8905 31.0358C44.6178 28.0589 44.1876 23.7701 43.9098 20.761C44.9137 20.6772 45.8117 19.8107 45.7811 18.758Z" fill="white"/>
<path fill-rule="evenodd" clip-rule="evenodd" d="M23.8958 16.9678C23.8949 16.972 23.8963 16.9752 23.8972 16.9797C23.8975 16.9784 23.8977 16.9777 23.898 16.9761C23.8972 16.9727 23.8966 16.9705 23.8958 16.9678Z" fill="#4F66AF"/>
<path fill-rule="evenodd" clip-rule="evenodd" d="M23.8963 17.0111C23.8926 17.0073 23.8873 17.0044 23.8821 17.0005C23.882 17.0006 23.8819 17.0007 23.8818 17.0009C23.8867 17.0041 23.8915 17.0078 23.8963 17.0111Z" fill="#4F66AF"/>
<path fill-rule="evenodd" clip-rule="evenodd" d="M45.6217 19.1425C45.9515 18.8648 46.4711 19.1205 46.3592 19.5778C46.2379 20.0757 45.7111 20.416 45.2766 20.6206C44.8292 20.8311 44.3934 20.8717 43.9053 20.8487L43.8993 20.8474C44.0348 21.3981 44.1117 21.9707 44.2153 22.5247C44.3469 23.2278 44.4763 23.9311 44.6038 24.6347C44.7271 25.3148 44.883 25.9958 44.9777 26.6794C45.0733 27.3694 45.165 28.0598 45.2589 28.75C45.4155 29.9028 45.542 31.0608 45.6754 32.2168L45.7388 32.7641C45.8724 33.9223 45.98 35.0819 45.7268 36.2345C45.4897 37.3147 44.9554 38.3224 44.3357 39.2241C43.7288 40.1071 43.0508 40.956 42.3066 41.724C40.8711 43.2052 39.1009 44.3915 37.0251 44.6116C36.1314 44.7063 35.1768 44.6009 34.3366 44.2716L34.2808 44.2495C33.4303 43.909 32.3887 43.3262 32.1673 42.3697C32.0314 41.783 32.6278 41.3249 33.1507 41.6033C33.3931 41.7324 33.5752 41.8798 33.7741 42.0646L33.8094 42.0976C33.9719 42.2506 34.0345 42.2977 34.2221 42.4174C34.6068 42.6627 34.8951 42.7788 35.332 42.8902C36.1376 43.0957 37.007 43.0632 37.8248 42.8202C39.561 42.3044 40.908 40.9586 42.0619 39.6092C42.6885 38.8763 43.2832 38.1077 43.7418 37.2536C44.223 36.3575 44.4452 35.4167 44.4318 34.3971C44.4168 33.2467 44.2599 32.0918 44.157 30.9467C44.0521 29.7794 43.9552 28.6126 43.8697 27.4437C43.7897 26.3474 43.782 25.2463 43.754 24.1467L43.7485 23.9406C43.7321 23.3568 43.7207 22.7729 43.7076 22.189C43.6947 21.6068 43.6492 21.0172 43.7083 20.4375C43.7126 20.3953 43.7687 20.3846 43.7824 20.4273C43.8173 20.5359 43.8477 20.6462 43.8766 20.7572C43.881 20.7538 43.886 20.7507 43.892 20.7486C44.2745 20.6154 44.6267 20.3494 44.9137 20.0625C45.1875 19.7888 45.3306 19.3878 45.6217 19.1425ZM24.6961 10.986C24.9363 9.98573 26.0175 9.76231 26.817 10.244C27.2015 10.4757 27.5094 10.8098 27.8686 11.0753C28.2257 11.3393 28.6204 11.5513 29.0369 11.701C29.8642 11.9985 30.737 12.1066 31.6114 12.1105C33.7397 12.1199 35.8245 11.5136 37.9559 11.5813C39.6051 11.6336 41.3556 12.1277 42.5519 13.3362C43.1963 13.9872 43.6116 14.8243 43.8344 15.7129C43.9384 16.1282 44.0161 16.5536 44.0773 16.978L44.0922 17.084C44.1265 17.3321 44.1815 17.5946 44.1866 17.8453C44.1912 18.0704 44.135 18.306 44.1046 18.5288C44.0404 18.9986 43.3227 18.945 43.2196 18.5288C42.9848 17.5812 43.0831 16.6033 42.7961 15.6589C42.5417 14.8215 42.0485 14.0893 41.3339 13.5886C38.3192 11.476 34.4533 13.2451 31.1318 13.0807C30.3199 13.0405 29.4962 12.9134 28.7305 12.63C28.3356 12.4839 27.9468 12.3056 27.5888 12.0815C27.2608 11.8762 26.9766 11.6183 26.673 11.381L26.539 11.2778C26.3308 11.119 25.9765 10.8708 25.7665 11.0808C25.6751 11.1722 25.6696 11.3789 25.6713 11.5368L25.6723 11.6081C25.6818 12.2782 25.8165 12.947 25.5691 13.5944C25.4563 13.8897 25.1427 14.0758 24.8444 13.9086L24.829 13.8996C24.1981 13.5192 23.3692 14.2837 23.8539 14.9164L23.8689 14.9355C24.1416 15.2715 23.9963 15.8631 23.5082 15.8616L23.4906 15.8612C22.6211 15.8338 22.2353 16.9354 22.9848 17.4167L23.0079 17.4311C23.6164 17.8002 23.0826 18.6878 22.459 18.3831C22.5118 18.4089 22.4199 18.4085 22.3673 18.48C22.3169 18.5487 22.3131 18.6081 22.3251 18.6948C22.3615 18.9576 22.5895 19.1791 22.7742 19.3453C23.1937 19.723 23.7137 19.9839 24.2495 20.1426C26.3959 20.7787 28.5979 20.0006 30.6891 19.5308C32.8694 19.0409 35.3318 18.8435 37.2332 20.2337C37.2558 20.2501 37.236 20.2869 37.211 20.2722C35.8465 19.4689 34.1752 19.5402 32.6836 19.8695C30.7277 20.3014 28.7888 21.1053 26.7856 21.3171C27.348 22.3235 27.5834 23.5122 27.4331 24.6633C27.3297 25.4557 27.0187 26.143 26.6512 26.8396L26.5811 26.9723C26.2535 27.5975 25.9997 28.1881 25.9957 28.9124C25.9917 29.6321 24.9364 29.7838 24.7575 29.0824C24.3514 27.4894 25.8309 26.2347 26.4346 24.9212C26.9506 23.7983 26.9665 22.4891 26.5489 21.3393C26.0778 21.3777 25.603 21.3817 25.1235 21.3383C24.7116 21.301 24.2878 21.2258 23.8747 21.1067L23.7095 21.8109C23.4906 22.7488 23.2877 23.6862 23.2263 24.6604C23.181 25.3763 23.1834 26.0957 23.2523 26.8098C23.3118 27.4266 23.4375 28.0214 23.5653 28.6236C23.675 28.7703 23.7311 28.9948 23.7002 29.1737C24.4124 29.3815 24.9724 29.9511 25.1771 30.7055C25.1896 30.7515 25.1261 30.7773 25.1024 30.7375C24.6169 29.9209 23.3666 29.6204 22.5757 30.1599C21.8204 30.675 21.5225 31.7149 21.95 32.5382C22.1749 32.9711 22.5083 33.2753 22.9383 33.4848L23.0247 33.5259C23.25 33.634 23.4568 33.7518 23.6017 33.9688C23.7896 34.2504 23.796 34.548 23.7782 34.8697L23.7705 35.0001C23.7587 35.2158 23.756 35.4377 23.8193 35.6452L23.8337 35.6913C23.8504 35.743 23.868 35.7887 23.8985 35.8381C23.9076 35.8527 23.9932 35.9378 24.0211 35.9687L24.0562 35.9794L24.0955 35.981C24.1391 35.9817 24.1964 35.9626 24.1776 35.9758L24.1827 35.9728C24.1993 35.9624 24.2145 35.9514 24.2273 35.9416L24.2516 35.9223C24.3085 35.8389 24.3799 35.77 24.4674 35.7174L24.551 35.6797C24.7682 35.4472 25.1403 35.5694 25.296 35.801C25.4081 35.9675 25.4684 36.1368 25.4734 36.3038C25.4908 36.2753 25.5297 36.2598 25.5545 36.2916L25.7021 36.4823C26.2669 37.2139 26.822 37.9501 27.4638 38.6169C27.8174 38.9844 28.1977 39.3297 28.5953 39.6477C28.9347 39.9193 29.5785 40.1805 29.5884 40.6752C29.5915 40.8357 29.479 40.9494 29.3414 41.004C28.8936 41.1813 28.3403 40.5781 28.0168 40.2846L27.9904 40.2609C27.5945 39.9094 27.2332 39.5236 26.8998 39.111C26.2523 38.3096 25.7108 37.3871 25.4722 36.3723C25.461 36.5494 25.386 36.7229 25.2401 36.8867C25.0459 37.1046 24.78 37.2574 24.496 37.3203C23.8527 37.4629 23.2245 37.2282 22.8417 36.6847C22.5182 36.2253 22.4229 35.6186 22.4646 35.0636L22.4698 34.997C22.4756 34.908 22.4831 34.7447 22.5059 34.6751L22.3033 34.5624C22.0549 34.4284 21.8247 34.2528 21.6181 34.0597C20.7878 33.2837 20.3712 32.0227 20.7508 30.9191C20.9882 30.2288 21.4872 29.6281 22.126 29.3159C22.0193 29.0657 21.9835 28.7687 21.9432 28.5058L21.9365 28.4623C21.8682 28.0311 21.8109 27.5944 21.7892 27.1581C21.7484 26.3431 21.798 25.5205 21.9243 24.7149C22.1295 23.4065 22.5542 22.019 23.3329 20.9213C22.7388 20.6822 22.1921 20.336 21.7701 19.8553C21.3291 19.353 21.0479 18.6339 21.3889 17.9959C21.4759 17.8333 21.5891 17.6967 21.7192 17.5881C21.4936 17.1561 21.4205 16.6455 21.5598 16.1574C21.7262 15.5739 22.1781 15.1189 22.724 14.9064C22.5914 14.3536 22.6998 13.759 23.1048 13.2982C23.5066 12.8412 24.1305 12.6747 24.708 12.7792C24.7393 12.1912 24.5567 11.5659 24.6961 10.986ZM23.0764 31.6292C23.6059 31.3666 24.2333 31.4083 24.7622 31.6572L24.798 31.6745C25.3754 31.9583 26.1401 32.6214 25.9566 33.3267C25.8492 33.7392 25.3971 33.88 25.0466 33.702C24.7537 33.5532 24.6869 33.2872 24.54 33.02C24.4362 32.831 24.3077 32.6833 24.1569 32.5314C23.839 32.2113 23.482 31.9736 23.0764 31.7833C23.0179 31.7558 23.0199 31.6573 23.0764 31.6292ZM36.4169 17.3734C36.3673 17.3505 36.4033 17.2717 36.4533 17.2861C37.7836 17.6712 39.024 18.5357 39.7653 19.7356C39.8104 19.8088 39.8174 19.9293 39.7653 20.0018L39.7413 20.0347C39.7073 20.0797 39.6737 20.1128 39.6098 20.1229C39.4897 20.1418 39.3853 20.11 39.3161 20.0018C38.5858 18.858 37.6504 17.9453 36.4169 17.3734ZM45.3232 17.5999C45.436 17.4064 45.7349 17.4453 45.7945 17.6623L45.803 17.6812C45.8349 17.7551 45.8205 17.7703 45.7605 17.7284C45.909 17.8523 45.9758 18.0368 45.9307 18.2351C45.6856 19.3063 44.4888 20.0713 43.4453 19.966C43.3543 19.9568 43.3418 19.8434 43.4244 19.8095C43.8258 19.6448 44.1821 19.3772 44.4687 19.0488C44.7471 18.7296 44.8643 18.3644 45.0141 17.9789C45.0703 17.8342 45.1577 17.73 45.2809 17.6731C45.2972 17.6502 45.3114 17.6259 45.3232 17.5999ZM39.3892 16.9115L39.3965 16.9119C39.9326 16.9821 40.3964 17.2504 40.7729 17.6434C41.1355 18.0218 41.5932 18.6464 41.5539 19.2018C41.528 19.57 41.0116 19.7805 40.8189 19.4037C40.7039 19.1788 40.6778 18.9324 40.5973 18.6946C40.5233 18.4767 40.4213 18.2697 40.2991 18.0757C40.0476 17.6759 39.7018 17.3372 39.3476 17.0316C39.3061 16.9958 39.335 16.9117 39.3892 16.9115ZM25.6376 16.7483C25.5188 16.6336 25.6424 16.4379 25.7936 16.4767C26.5911 16.6813 27.3808 16.9303 28.21 16.955C28.6241 16.9673 29.0358 16.9342 29.4461 16.8799L29.6538 16.852C29.9737 16.8096 30.2991 16.7764 30.6153 16.843C30.8261 16.8874 30.8673 17.1627 30.7359 17.3063C30.1156 17.9846 28.9191 17.9197 28.0964 17.8054C27.2031 17.6811 26.3017 17.3896 25.6376 16.7483ZM40.0383 14.6341C39.9838 14.5573 40.0756 14.4362 40.1625 14.4703C40.955 14.7807 41.7856 15.5891 42.0039 16.4349C42.0616 16.6584 41.7836 16.8271 41.6205 16.6612C41.3163 16.3522 41.1016 15.987 40.8445 15.6397C40.5883 15.2933 40.2885 14.9858 40.0383 14.6341ZM27.0533 15.0118C26.9897 14.9474 27.0537 14.8192 27.145 14.852C27.661 15.0372 28.1809 15.1975 28.7229 15.2816C29.2781 15.3676 29.8385 15.3022 30.3966 15.3371C30.6224 15.3512 30.7762 15.7072 30.5252 15.818C29.41 16.3102 27.8952 15.8639 27.0533 15.0118ZM28.478 13.9078C28.3893 13.8413 28.4397 13.6589 28.5604 13.7098C29.0517 13.9172 29.5487 13.9682 30.076 13.9468C30.2708 13.9389 30.3117 14.2492 30.1219 14.291C29.539 14.4196 28.9543 14.2648 28.478 13.9078Z" fill="black"/>
<path fill-rule="evenodd" clip-rule="evenodd" d="M36.6725 38.1006C36.2481 37.9253 35.8695 37.6329 35.5927 37.2594C35.4964 37.1295 35.4715 36.9924 35.4917 36.867C35.5144 36.7259 35.5968 36.5981 35.7091 36.5124C35.8219 36.4264 35.9628 36.384 36.0992 36.4056C36.2176 36.4244 36.3355 36.4901 36.4288 36.6263L36.4483 36.6535C36.6129 36.879 36.8274 37.0639 37.0717 37.1831C37.3072 37.2981 37.5706 37.3517 37.8432 37.3205C38.3624 37.2611 38.7202 36.9768 39.1005 36.5907C39.1476 36.542 39.1948 36.4917 39.2422 36.4407C39.2722 36.3944 39.3137 36.3646 39.3598 36.349C39.411 36.3317 39.469 36.3326 39.522 36.3514C39.5732 36.3695 39.619 36.4038 39.6496 36.4494C39.6788 36.4927 39.6953 36.5463 39.69 36.6079C39.6552 37.0079 39.4486 37.365 39.1551 37.6454C38.8292 37.9568 38.3973 38.1722 37.9905 38.2478C37.5425 38.331 37.0859 38.2714 36.6725 38.1006ZM38.2019 31.9283C38.6786 32.2217 39.405 32.9058 38.8921 33.6333C38.2885 34.2746 37.4194 33.5392 36.9911 33.2066C36.594 32.9489 36.1479 33.6118 36.5163 33.9128C39.611 36.2329 40.8669 32.005 38.443 31.5833C38.1762 31.5368 38.0771 31.8375 38.2019 31.9283ZM32.6561 29.2294C32.7088 28.5674 33.7045 28.4171 33.8035 29.0722C33.8922 29.659 33.7878 30.198 33.5268 30.7263C33.2774 31.2311 32.6505 30.9956 32.6031 30.536C32.5395 29.9199 32.6234 29.6412 32.6561 29.2294ZM40.2354 28.9363C40.3742 28.7522 40.5747 28.6266 40.8148 28.6976C41.5651 28.9196 41.3439 29.9981 41.0805 30.5231C40.9373 30.8083 40.4745 30.8805 40.2653 30.6295C39.9245 30.2202 39.7612 29.4026 40.1946 28.9994C40.2063 28.9786 40.2194 28.9576 40.2354 28.9363ZM33.5162 26.3327L33.6347 26.3117C34.0013 26.2475 34.4572 26.1858 34.7166 26.4842C34.8541 26.6425 34.9015 26.9367 34.7166 27.0882C34.3913 27.3548 34.0318 27.2515 33.642 27.274C33.3208 27.2927 33.0122 27.3465 32.7028 27.4361C32.024 27.6325 31.4709 27.9911 30.8913 28.3849C30.8152 28.4365 30.7376 28.338 30.7739 28.266C31.1085 27.6022 31.757 27.0571 32.4066 26.7247C32.7533 26.5473 33.1327 26.4002 33.5162 26.3327ZM39.5515 26.0354L39.6422 26.0542C40.6293 26.2631 41.9119 26.6805 42.3793 27.6623C42.3971 27.8011 42.3783 27.8309 42.363 27.8503L42.3579 27.8568C42.3453 27.8734 42.3352 27.8963 42.2758 27.9152C42.2593 27.9112 42.2427 27.907 42.2258 27.9025C42.0116 27.8457 41.842 27.7673 41.6779 27.6861L41.4999 27.5973C41.2935 27.4948 41.0852 27.396 40.8645 27.323C40.3934 27.1675 39.9089 27.0579 39.4168 26.9994C39.3102 26.9867 39.2075 26.9503 39.1265 26.8878C39.0496 26.8285 38.9908 26.7464 38.964 26.6373C38.9293 26.4961 38.9393 26.3892 39.0141 26.2618C39.0704 26.1661 39.1509 26.0998 39.2433 26.0617C39.3376 26.0229 39.4449 26.0137 39.5515 26.0354Z" fill="black"/>
</g>
<defs>
<clipPath id="clip0_240_6827">
<rect width="54" height="78" fill="white" transform="translate(3 10)"/>
</clipPath>
</defs>
</svg>
