<svg width="60" height="88" viewBox="0 0 60 88" fill="none" xmlns="http://www.w3.org/2000/svg">
<g clip-path="url(#clip0_240_6891)">
<path fill-rule="evenodd" clip-rule="evenodd" d="M7.31682 86.6933C16.2607 88.0906 25.3669 88.1609 34.3851 87.6535C37.9542 87.3787 41.5342 87.3292 45.1004 87.6805C47.2076 87.8417 56.447 88.5681 57.2019 86.6268C56.7268 76.2893 55.7645 65.8638 52.8126 55.9217C51.5985 52.3915 50.5559 49.4614 48.1865 46.5401C47.4397 45.7425 45.8293 44.0697 44.9065 43.5241C44.107 43.0516 43.7729 43.2201 43.3138 42.4219C42.8577 41.5401 42.5212 40.0674 41.8735 39.4452C41.214 38.8116 40.2367 39.0383 39.0253 39.2424C39.2478 36.1489 37.8596 35.3611 35.9471 34.7728C32.5854 33.4531 29.2654 34.1161 28.4193 38.3254C26.8505 38.3254 25.9692 39.0198 25.0165 39.6871C24.6271 39.9598 24.898 40.6547 24.4328 40.8691C23.5722 41.1843 22.0513 41.1071 21.2226 41.495C17.4544 43.2589 14.0981 45.8168 11.894 49.5526C6.95253 57.5284 3.55815 74.3295 4.14553 83.7826C3.88818 84.1977 4.24406 84.793 4.33451 85.2393C4.44869 85.6276 4.81845 85.8859 5.20434 85.8417C5.74283 86.4374 6.57574 86.57 7.31682 86.6933Z" fill="white"/>
<path fill-rule="evenodd" clip-rule="evenodd" d="M44.3367 43.2901C44.2817 43.2586 44.3301 43.1779 44.3853 43.2046C47.0377 44.4845 49.0726 46.73 50.5043 49.3245C51.9869 52.011 52.8319 55.0612 53.5604 58.0424L53.5866 58.1501C54.3635 61.3393 55.024 64.5614 55.6186 67.7914C56.2208 71.0623 56.7042 74.3535 57.0931 77.6583C57.2855 79.2923 57.4569 80.9293 57.5907 82.5695C57.6575 83.3891 57.7183 84.2094 57.7728 85.03C57.7946 85.3582 57.8151 85.6864 57.8328 86.0149L57.8454 86.2613C57.8563 86.4848 57.8821 86.7089 57.8284 86.9294C57.7821 87.1194 57.6842 87.2915 57.5982 87.466C57.428 87.8109 56.9614 87.7541 56.778 87.466L56.7248 87.3821C56.6031 87.1888 56.5021 87.0091 56.4639 86.7685C56.427 86.5355 56.4257 86.2913 56.4091 86.056C56.3786 85.623 56.3527 85.1896 56.3231 84.7565C56.261 83.8447 56.1913 82.9335 56.114 82.023C55.9613 80.2256 55.7975 78.4297 55.5963 76.6372C55.2388 73.4516 54.7902 70.2744 54.2613 67.1141C53.7446 64.0269 53.0914 60.971 52.4099 57.9189L52.3393 57.6032C51.1461 52.2745 49.3072 46.1378 44.3367 43.2901ZM16.0842 64.1561C16.1037 64.1028 16.1877 64.0906 16.2018 64.1561C16.3805 64.9836 16.3982 65.8358 16.4255 66.683C16.4524 67.5187 16.4513 68.3582 16.4395 69.1944C16.3958 72.2676 16.3138 75.3382 16.2428 78.4109C16.2074 79.9479 16.1741 81.4851 16.1486 83.0223C16.1389 83.5988 16.1308 84.1753 16.1241 84.7519L16.1158 85.5123C16.1117 85.8485 16.1031 86.1806 16.0633 86.5165C16.037 86.7374 15.981 86.9481 15.8624 87.1374C15.7783 87.2718 15.6583 87.34 15.5414 87.4314L15.5196 87.4488C15.3705 87.57 15.2134 87.5708 15.0657 87.4488L15.0229 87.4139C14.8818 87.3004 14.7599 87.2118 14.6698 87.0324C14.5446 86.7829 14.5245 86.5118 14.5032 86.2369C14.4709 85.8201 14.4923 85.3971 14.4965 84.979C14.5049 84.1403 14.5161 83.3018 14.5305 82.4632C14.583 79.3881 14.6867 76.3123 14.8759 73.2427C14.965 71.7968 15.0858 70.3462 15.2479 68.9061L15.2788 68.6362C15.3279 68.2125 15.3728 67.7813 15.4233 67.3487C14.6691 66.803 14.0061 66.1409 13.4408 65.3899C13.3992 65.3346 13.4677 65.2571 13.5179 65.3106C14.0956 65.9258 14.7579 66.4163 15.4912 66.8019C15.6114 65.8963 15.7766 64.9955 16.0842 64.1561ZM28.6844 36.7439C28.6947 36.7357 28.7109 36.7321 28.7207 36.7439C28.8829 36.9383 28.85 37.2355 28.8552 37.4819L28.8558 37.5048C28.8674 37.865 28.8696 38.2241 28.8685 38.5845L28.8648 39.7316V39.7316C28.8644 39.8894 28.8519 40.0535 28.8598 40.2122L28.8639 40.2736V40.2736C28.9491 40.3633 28.9886 40.493 28.9597 40.6232C28.9545 40.7902 28.8696 40.9295 28.7458 41.0171L29.0112 41.4045V41.4045L29.2769 41.7916C29.8245 42.5905 30.3781 43.3822 30.9551 44.1591C31.5435 44.9513 32.1711 45.7135 32.8279 46.4464C33.1488 46.8045 33.4751 47.1577 33.8091 47.5029C33.9448 47.6433 34.0839 47.7801 34.2214 47.9185L34.3583 48.0575C34.4391 48.1407 34.5408 48.2229 34.5945 48.3284C34.6261 48.3905 34.6333 48.5438 34.6446 48.5691C34.7459 48.7982 34.573 49.1634 34.2858 49.0491L34.2988 49.0402C34.3511 49.0028 34.3176 49.0023 34.1982 49.0387C34.1229 49.0384 34.0523 49.0206 33.9863 48.9853L33.9667 48.9742C33.8738 48.9256 33.7909 48.8316 33.7154 48.7565L33.6967 48.7381C33.5241 48.5718 33.3596 48.3954 33.1942 48.2215C32.8489 47.8588 32.5115 47.4884 32.1848 47.108C31.5331 46.349 30.9152 45.5593 30.3301 44.7451C29.7341 43.9158 29.1801 43.0439 28.7037 42.1362C28.5229 41.7917 28.3572 41.4406 28.1983 41.0854C27.889 40.9833 27.8171 40.645 27.8387 40.2638C27.7246 39.9905 27.6218 39.7115 27.561 39.4264C27.5527 39.3874 27.6015 39.3505 27.6307 39.3847C27.7297 39.5003 27.8212 39.6234 27.9093 39.7496C27.9624 39.4824 28.0296 39.2364 28.0613 39.0796L28.1984 38.3876V38.3876C27.4257 38.3462 26.579 38.6727 26.0463 39.2443C26.0177 39.3932 25.9063 39.4997 25.7977 39.6389C25.6737 39.798 25.5654 39.9765 25.4847 40.1631C25.3057 40.5769 25.4067 41.1866 25.0593 41.4902C25.0231 41.5218 24.9826 41.5438 24.9409 41.5574C25.1057 42.3888 25.0309 43.305 25.0273 44.1486L25.0272 44.2228C25.028 45.1669 24.9974 46.1117 24.9619 47.055L24.9258 47.9886C24.8791 49.2337 24.8487 50.4794 24.9663 51.7177C25.5034 51.2284 26.0588 50.7615 26.6332 50.3166C27.0109 50.0241 27.3962 49.7419 27.7885 49.4704L28.1072 49.2513C28.4892 48.9879 28.8804 48.7168 29.2986 48.5281C29.8456 48.2815 30.3658 48.3662 30.8939 48.6193C31.4198 48.8713 31.93 49.164 32.4458 49.4371C32.9705 49.7149 33.4963 49.9903 34.0217 50.2664C34.3698 50.4493 34.8798 50.6144 35.1351 50.9512C35.1514 50.8767 35.1703 50.8024 35.1925 50.7284C35.1672 50.6155 35.177 50.4935 35.2385 50.3773C36.0963 48.7561 36.89 47.0961 37.6781 45.4383C38.077 44.5992 38.4563 43.7503 38.8559 42.9118L39.2444 42.0951C39.3094 41.9591 39.3745 41.8231 39.4399 41.6874C39.538 41.4841 39.6401 41.2829 39.7392 41.0802C39.7811 40.9945 39.8336 40.9094 39.8744 40.823L39.8937 40.7796C39.8946 40.7774 39.9888 40.4729 39.9161 40.5019L39.9098 40.505C39.8727 40.5266 39.843 40.4786 39.867 40.448C39.9698 40.3172 40.113 40.433 40.1717 40.5541C40.3334 40.8872 40.0372 41.4101 39.9232 41.7291L39.917 41.7469C39.5634 42.7764 39.163 43.7865 38.7528 44.7931C37.9663 46.723 37.1214 48.6233 36.2783 50.5268L36.2683 50.5596V50.5596C36.4481 50.4178 36.64 50.2892 36.8044 50.164C37.219 49.848 37.6458 49.5476 38.0719 49.2482C38.8533 48.6991 39.6559 48.1862 40.4718 47.6935L40.6351 47.5953C41.0427 47.351 41.4464 47.153 41.9301 47.2263C42.3795 47.2945 42.7973 47.5428 43.2033 47.7445L43.2453 47.7652L44.4998 48.3786C44.3657 47.8285 44.2205 47.2811 44.069 46.7357C43.7735 45.672 43.4484 44.6171 43.0958 43.5717C42.7665 42.595 42.4106 41.6289 42.0341 40.6705L41.9207 40.3828C41.7672 39.9882 41.6145 39.5579 41.1757 39.4364C40.7373 39.315 40.2343 39.4951 39.8335 39.238C39.7971 39.2146 39.8016 39.1529 39.8458 39.1415L40.0931 39.0773C40.5574 38.9585 41.1017 38.839 41.5408 38.9546C42.0185 39.0805 42.4138 39.4929 42.6456 39.9217C42.9034 40.3986 43.0851 40.9324 43.2807 41.441L43.3117 41.5211C43.5362 42.0967 43.7521 42.6757 43.9587 43.2584C44.3718 44.4231 44.7478 45.6018 45.0882 46.7912C45.2522 47.3644 45.4078 47.9403 45.5574 48.5176C45.6004 48.6837 45.6714 48.885 45.7295 49.095C45.7962 49.1619 45.8593 49.2365 45.9186 49.3217C46.0168 49.4629 45.9463 49.6285 45.8242 49.7131C45.8194 49.8576 45.7882 49.9935 45.7136 50.11C45.4223 50.5648 44.6522 50.4476 44.6835 49.8362C44.6882 49.7426 44.7237 49.6532 44.7773 49.5778L44.7758 49.5655V49.5655L44.7697 49.5431V49.5431C44.636 49.4772 44.5018 49.4038 44.3603 49.3319L43.0437 48.6627V48.6627C42.6623 48.4688 42.2397 48.1694 41.8156 48.0955C41.4203 48.0266 41.0032 48.3296 40.6635 48.5124L40.6415 48.5241C39.8203 48.957 39.0052 49.4043 38.1934 49.8553C37.7971 50.0755 37.4059 50.3048 37.0111 50.5276C36.681 50.7139 36.3247 50.9814 35.9536 51.0865C35.7952 51.2133 35.6069 51.1963 35.4556 51.1005C35.5247 51.5409 35.5205 51.9929 35.5417 52.4432C35.5703 53.0452 35.5746 53.6489 35.584 54.2518L35.5879 54.4778C35.6128 55.8105 35.6261 57.1435 35.6311 58.4765C35.6486 63.2232 35.5976 67.9712 35.5857 72.7179C35.5796 75.1027 35.5337 77.4896 35.4735 79.8736C35.4479 80.8838 35.3945 81.8927 35.3369 82.9014L35.3051 83.4515C35.238 84.6123 35.1983 85.786 34.9894 86.9312C34.9621 87.0805 34.7164 87.0843 34.6923 86.9312C34.5 85.7041 34.4893 84.4501 34.4523 83.2086L34.4445 82.9604C34.4001 81.6275 34.379 80.2953 34.3835 78.9616C34.3999 74.2131 34.52 69.4675 34.6181 64.7203C34.6675 62.3351 34.7007 59.9489 34.7774 57.5646C34.8157 56.3715 34.8591 55.1792 34.9106 53.9866C34.9336 53.4541 34.9557 52.9222 34.9901 52.3905L35.0056 52.1627C35.0163 52.014 35.0249 51.8672 35.0354 51.7217C34.5683 51.8972 34.1411 51.5723 33.7209 51.35C33.2366 51.0938 32.7525 50.8371 32.268 50.5813L31.7832 50.326V50.326L30.8128 49.8168C30.3759 49.5874 30.0393 49.3592 29.5733 49.6282C27.8944 50.597 26.3517 51.886 24.9536 53.2387C24.6855 53.4981 24.119 53.4284 24.0511 52.9936C23.761 51.1363 23.9374 49.2522 24.0856 47.3893L24.1401 46.6976C24.2063 45.8716 24.2784 45.0455 24.3744 44.2228C24.4173 43.8548 24.4601 43.487 24.5074 43.1196L24.5438 42.8442C24.603 42.4089 24.6416 41.9761 24.7677 41.5585C24.7279 41.5453 24.6896 41.5236 24.6554 41.4902C24.2763 41.1202 24.4591 40.4782 24.6321 40.0381C24.8029 39.6037 25.0634 39.2246 25.3896 38.8983C25.4607 38.827 25.561 38.7812 25.6618 38.7788C26.4527 38.2398 27.3203 37.9709 28.2234 38.2651C28.2487 38.1403 28.2746 38.0158 28.3018 37.8915L28.3296 37.7674C28.3998 37.4592 28.4259 36.9501 28.6844 36.7439ZM36.7904 85.4172C37.0358 85.3478 37.3045 85.4209 37.4844 85.6059C37.6641 85.7909 37.7353 86.0672 37.6677 86.3196C37.6339 86.4439 37.5728 86.5518 37.4844 86.6434C37.4017 86.7278 37.3053 86.7881 37.1952 86.8242L37.1696 86.8321L37.1295 86.8493C37.0065 86.8833 36.8834 86.8833 36.7604 86.8493C36.6428 86.8153 36.5407 86.7541 36.4541 86.6657C36.368 86.5765 36.3085 86.4715 36.2755 86.3505C36.2424 86.224 36.2424 86.0974 36.2755 85.9709L36.2923 85.9296V85.9296C36.3261 85.8053 36.3872 85.6974 36.4756 85.6059C36.5646 85.515 36.6696 85.452 36.7904 85.4172ZM51.3634 60.2617C51.4037 60.2141 51.4691 60.275 51.444 60.3257C51.0617 61.0965 50.6356 61.8619 50.2169 62.6131C50.2504 62.8214 50.2837 63.0279 50.322 63.2292C50.4851 64.0873 50.6849 64.9299 50.8152 65.7962C51.2835 68.9099 51.5266 72.0575 51.7352 75.1992C51.9444 78.3522 51.9711 81.5066 52.0026 84.6657C52.0053 84.9395 51.8005 85.2577 51.5262 85.3093C51.4005 85.3329 51.3065 85.3284 51.1812 85.3093C50.8956 85.2661 50.717 84.9297 50.7048 84.6657C50.6229 82.9001 50.5127 81.1367 50.3851 79.3739C50.1589 76.2485 50.0207 73.1149 49.838 69.9863L49.7737 68.8929C49.7046 67.708 49.6414 66.5224 49.6209 65.3358C49.6072 64.5497 49.648 63.7638 49.6229 62.9785C49.5997 62.2536 49.5282 61.4654 49.6836 60.7531C49.6894 60.7264 49.7304 60.7196 49.7422 60.7452C49.9038 61.095 50.0061 61.4753 50.085 61.8634C50.5014 61.3218 50.9254 60.7789 51.3634 60.2617ZM24.0893 41.1122C24.1477 41.1077 24.1454 41.198 24.0893 41.2047C23.2721 41.3022 22.4828 41.6442 21.7112 41.935L21.6451 41.9597C20.8656 42.2506 20.1057 42.5889 19.3743 42.9921C17.9444 43.7805 16.6313 44.797 15.4704 45.9607C10.8353 50.6063 8.72302 57.3053 7.17521 63.6007C6.31522 67.0983 5.70367 70.6551 5.30729 74.2392C5.11129 76.0117 4.97273 77.791 4.89195 79.5731C4.8506 80.4864 4.82451 81.4005 4.81363 82.3147C4.80801 82.783 4.80637 83.2514 4.80692 83.7197C4.80719 83.9343 4.84443 84.2045 4.78864 84.4129C4.73688 84.6059 4.59093 84.7759 4.48297 84.9367C4.35502 85.1275 4.12506 85.1174 3.99533 84.9367L3.94749 84.8709C3.80913 84.6821 3.67375 84.5016 3.65399 84.2549C3.63284 83.9904 3.64776 83.7178 3.6468 83.4521C3.64461 82.9169 3.65105 82.3815 3.66145 81.8465C3.68151 80.8208 3.72081 79.7955 3.7792 78.7714C3.89777 76.693 4.09295 74.6189 4.3724 72.5569C4.86915 68.8917 5.61372 65.2615 6.58899 61.6996C7.50909 58.3393 8.5991 54.9891 10.1519 51.8765C11.5937 48.9866 13.4851 46.2982 15.9808 44.2785C17.1414 43.3393 18.4049 42.5565 19.767 41.9671C20.454 41.6698 21.1754 41.427 21.9091 41.2887C22.6346 41.1519 23.357 41.1709 24.0893 41.1122ZM36.9311 79.4778C37.0607 79.4768 37.2052 79.5061 37.3163 79.5798L37.4649 79.6979V79.6979C37.5052 79.7511 37.5452 79.8045 37.5851 79.858C37.678 79.9825 37.6903 80.1839 37.671 80.3323C37.6666 80.4314 37.638 80.5235 37.5851 80.6089L37.472 80.7595V80.7595C37.3633 80.8507 37.2727 80.9158 37.141 80.9597C37.0722 80.9825 37.0059 80.9873 36.9399 80.9839L36.9178 80.9824L36.9311 80.9842L36.9079 80.9816V80.9816C36.8864 80.9797 36.8649 80.9773 36.8432 80.9742C36.8285 80.9723 36.8137 80.9712 36.799 80.9691C36.7848 80.9679 36.7711 80.9673 36.7568 80.9687C36.5895 80.9849 36.4213 80.8873 36.3025 80.7752C36.1955 80.6741 36.0995 80.4598 36.1144 80.308L36.1208 80.2445C36.132 80.1374 36.1413 80.0953 36.1854 79.9877C36.2283 79.8831 36.2882 79.7907 36.3697 79.7127C36.5258 79.5634 36.7168 79.4794 36.9311 79.4778ZM36.4131 71.6416C36.6352 71.3927 37.0166 71.3744 37.292 71.5249C37.3591 71.5617 37.4207 71.6206 37.4799 71.6698C37.6289 71.7937 37.6874 72.0173 37.6957 72.2057C37.7038 72.3919 37.6083 72.6131 37.4799 72.7417L37.4487 72.7727V72.7727C37.372 72.8495 37.262 72.9162 37.1547 72.9365C36.9816 72.9693 36.8362 72.9683 36.6749 72.8983C36.5364 72.8382 36.417 72.7415 36.3358 72.6104L36.3226 72.5882C36.3171 72.579 36.3118 72.5697 36.3069 72.5601L36.2997 72.5456C36.1454 72.2404 36.1869 71.895 36.4131 71.6416ZM36.5282 63.7642C36.6283 63.7318 36.7284 63.7273 36.8286 63.7503C36.8965 63.7505 36.9599 63.7682 37.0187 63.8032C37.0825 63.8215 37.1379 63.8548 37.1849 63.9029C37.2414 63.9372 37.2866 63.9836 37.32 64.0418C37.3866 64.1167 37.4316 64.2045 37.4549 64.3053L37.4817 64.5113L37.4549 64.7173L37.3789 64.9024V64.9024C37.358 64.9305 37.337 64.9585 37.3158 64.9864C37.2822 65.0447 37.2371 65.0913 37.1803 65.1258C37.1434 65.1635 37.1011 65.1918 37.0538 65.2114C36.8861 65.335 36.6626 65.3754 36.4639 65.319C36.3459 65.2851 36.2434 65.2236 36.1565 65.1348C36.0702 65.0454 36.0104 64.94 35.9774 64.8186L35.9638 64.7217C35.9463 64.5918 35.9435 64.5198 35.9793 64.3545C35.9949 64.2819 36.0405 64.1794 36.0643 64.1362C36.1662 63.952 36.3326 63.8258 36.5282 63.7642ZM45.2248 58.0969C45.5124 58.0948 45.7999 58.0954 46.0875 58.0986L46.3031 58.1016C46.6643 58.1074 46.9736 58.0691 47.2575 58.3269C47.4635 58.5139 47.3728 58.8277 47.1772 58.9686C46.8808 59.1819 46.5091 59.0746 46.1684 59.0511C45.8091 59.0263 45.4496 59.0057 45.0899 58.9891C44.3935 58.9571 43.6968 58.9367 42.9996 58.9335C42.304 58.9305 41.6074 58.9372 40.9118 58.9488C40.2041 58.9606 39.4672 59.0284 38.7634 58.9531C38.6667 58.9427 38.645 58.812 38.7404 58.7779C39.4036 58.542 40.1496 58.4655 40.8446 58.3753C41.5614 58.2821 42.2783 58.2162 42.9996 58.1735C43.7406 58.1298 44.4826 58.1022 45.2248 58.0969ZM36.5268 55.7792L36.5506 55.7797C36.6772 55.78 36.7956 55.8106 36.9061 55.8716L36.9296 55.8851L37.0816 56.0058C37.1747 56.1022 37.2391 56.2158 37.2747 56.3467L37.3015 56.552V56.552C37.3055 56.6583 37.2839 56.7575 37.2369 56.8496C37.2066 56.9453 37.1548 57.0281 37.0816 57.0981C37.0136 57.1734 36.933 57.2267 36.84 57.2578C36.7573 57.3024 36.6688 57.3248 36.5743 57.3249L36.5506 57.3244C36.4151 57.3239 36.2887 57.2888 36.1717 57.2189L36.0196 57.0981V57.0981C35.9266 57.0017 35.8621 56.8882 35.8265 56.7573L35.7996 56.552V56.552C35.7958 56.4457 35.8173 56.3464 35.8644 56.2544C35.8947 56.1586 35.9464 56.0758 36.0196 56.0058C36.0877 55.9305 36.1682 55.8773 36.2613 55.8461C36.3439 55.8015 36.4324 55.7791 36.5268 55.7792V55.7792ZM38.7531 37.6349C38.9148 37.3939 39.2081 37.6082 39.1661 37.802C39.1772 38.3463 39.2042 38.8745 39.3246 39.4076C39.3797 39.6516 39.452 39.896 39.5634 40.1196L39.6101 40.2137C39.7543 40.5067 39.8662 40.783 39.6721 41.1044C39.5805 41.2559 39.4151 41.3697 39.2358 41.3618C38.4407 41.3265 38.3314 40.1881 38.2831 39.5526C38.2333 38.898 38.3882 38.1787 38.7531 37.6349Z" fill="black"/>
<path fill-rule="evenodd" clip-rule="evenodd" d="M36.8325 11.0137C39.8976 11.0137 43.5751 12.542 43.8877 12.5726L43.8962 12.5731C44.0607 12.5731 44.7035 13.0768 45.8245 14.0842L44.6103 16.5202L44.7086 16.6167C45.1788 17.0804 45.5802 17.5031 45.8971 17.8363C48.4843 20.5568 48.9493 31.2382 48.3396 34.9632C47.7298 38.6882 46.6005 42.3331 41.3429 42.3331C36.0853 42.3331 30.2361 39.0815 29.3351 38.0689C28.7344 37.3938 28.0597 37.0704 27.3109 37.0986C27.2801 37.0587 27.2496 37.0189 27.2193 36.9792L27.1092 36.9631C26.0729 36.8087 25.3304 36.6009 24.8816 36.3398C24.0051 35.8298 23.0418 33.1483 23.0418 32.5577C23.0418 31.9729 21.6032 27.7189 21.5745 27.2687L21.574 27.2562C21.574 26.8799 19.6947 25.1499 19.6947 24.6005C19.6947 24.0511 19.3159 24.0845 19.6947 22.1484L19.8048 21.5797C20.2079 19.5184 20.9969 16.1052 24.0051 14.6221C27.3109 12.9923 33.7365 11.0137 36.8325 11.0137Z" fill="white"/>
<path fill-rule="evenodd" clip-rule="evenodd" d="M23.4941 14.5457C25.1428 12.7458 34.5027 9.96163 39.2382 10.5518L39.3803 10.5707C39.7582 10.62 40.1306 10.6947 40.4981 10.7961C41.6862 11.0815 42.9134 11.5136 43.895 12.2354C44.7146 12.826 47.2998 13.7903 46.5378 15.3351C46.8204 15.8857 46.9258 16.5659 46.7349 17.1082C46.7108 17.2955 46.6547 17.468 46.5829 17.6469C47.1865 18.5631 47.6644 19.5992 48.0513 20.5847C48.7273 23.0648 49.148 25.6459 49.2096 28.1763C49.4146 32.9838 48.9021 38.7263 44.8314 41.8351C42.3722 43.805 38.5201 43.8712 35.7566 41.4287C35.5998 41.2378 34.8623 40.7226 35.1084 40.6323C35.1816 40.7118 35.2569 40.7893 35.3336 40.8654C35.3301 40.8569 35.3294 40.8485 35.3309 40.8393L35.2587 40.7721C35.1229 40.6429 34.947 40.4555 35.1474 40.4921C35.1562 40.5027 35.1659 40.5119 35.1754 40.5224C35.2178 40.5486 35.2499 40.5713 35.2748 40.5913L35.2877 40.6019L35.2837 40.5976C35.1683 40.471 35.0991 40.3419 35.2717 40.4244L35.2945 40.4358C35.3713 40.5189 35.4492 40.5985 35.5286 40.6759C35.5273 40.6668 35.5286 40.6576 35.5335 40.6478L35.4595 40.5742C35.3872 40.5013 35.3982 40.501 35.4336 40.4421C35.2799 40.2207 35.5667 40.3522 35.5868 40.4386C35.7663 40.395 35.9238 40.7414 36.0394 40.7837C41.1053 44.7897 48.457 41.2351 48.3379 30.0723L48.3361 29.8539C48.3013 26.2845 48.0093 22.6159 46.5739 19.3848C46.4343 19.0735 46.2782 18.7707 46.1064 18.4778C45.988 18.2581 45.8613 18.044 45.7251 17.8356C45.3437 17.8039 44.9672 17.7321 44.5962 17.6208C44.4688 17.5877 44.3428 17.5511 44.2169 17.5082C42.3767 17.6114 40.5775 17.7237 38.7322 17.8302L38.1558 17.8671C36.5926 17.9705 34.9759 18.136 33.7145 19.1306C32.4767 20.036 32.4711 21.8214 31.4116 22.8155C29.9006 23.8702 29.8896 24.8214 29.5987 26.3757C29.6202 27.5475 30.4101 29.2499 28.9606 29.7431C29.2052 30.1017 28.8643 29.9294 28.8375 29.8036C28.8347 29.8043 28.832 29.805 28.8299 29.805C29.0478 30.2217 28.7275 29.9593 28.6992 29.8254C28.6821 29.8205 28.6649 29.8078 28.6478 29.7902C28.8674 30.1553 28.5125 29.8997 28.5335 29.8332C28.1093 29.1625 27.2361 29.0583 26.6207 29.2361C26.6131 29.26 26.5858 29.2621 26.5687 29.2494C23.9517 29.8328 24.6269 35.4052 27.3088 34.8666C27.4236 34.8425 27.4208 34.8992 27.4436 34.9046C27.3817 34.7373 27.5563 34.8054 27.5545 34.8405L27.5651 34.84C27.5735 34.8392 27.5701 34.8383 27.5764 34.8405C27.5165 34.4984 27.8536 34.9941 27.8269 35.0144C27.8373 35.0081 27.8489 35.0046 27.8592 35.0032L27.8476 34.9707C27.7916 34.8174 27.7964 34.8811 27.7968 34.7933C27.7548 34.6848 27.7517 34.7323 27.7616 34.6616C27.9093 34.5438 27.9529 34.901 28.0022 34.9271C27.9177 34.806 27.9849 34.7071 28.0646 34.7728C28.6686 36.0796 29.4488 37.3075 30.4572 38.2747C30.5674 38.3642 30.679 38.4522 30.7947 38.5353C31.2236 38.9195 31.8815 39.1666 32.283 39.507C32.283 39.5127 32.2803 39.5197 32.2762 39.5267L32.2854 39.5353V39.5353L32.2947 39.5443L32.4343 39.6133C32.4754 39.6493 32.5124 39.6894 32.5452 39.7338C32.5802 39.7753 32.6109 39.8211 32.637 39.8697C32.65 39.9288 32.6212 39.9535 32.5665 39.9281C32.5424 39.9197 32.5185 39.9098 32.4946 39.9006C32.496 39.9028 32.4966 39.9042 32.498 39.9056C32.5059 39.9178 32.559 40.0446 32.4978 40.024L32.4905 40.0211C32.4569 40.0084 32.4234 39.9943 32.3905 39.9809C32.4295 40.0309 32.4651 40.0851 32.4966 40.1309C32.5302 40.1668 32.5507 40.2091 32.5589 40.257C32.5575 40.2837 32.5432 40.295 32.5172 40.2915C32.4775 40.2781 32.4384 40.264 32.3994 40.2492L32.4105 40.271C32.4381 40.3269 32.4773 40.4206 32.4076 40.3893C32.348 40.3703 32.2906 40.3485 32.2331 40.3246C32.2282 40.3344 32.2187 40.3379 32.1995 40.3288C32.0167 40.2619 31.8401 40.1802 31.671 40.0837C31.5225 39.9725 31.3725 39.8633 31.2233 39.7528C31.0829 39.6662 30.9473 39.5697 30.818 39.4612C29.9523 38.8861 29.1943 38.1554 28.5931 37.3417C27.5875 38.2375 25.5769 37.3817 24.3332 36.6805C23.2331 36.0538 22.8007 34.895 22.6889 33.6457C22.4565 31.9637 21.1201 31.388 21.2131 27.6974C21.2111 27.6982 21.2089 27.6982 21.2062 27.6982C21.1576 27.6834 21.1104 27.6636 21.0659 27.6383C21.0201 27.6158 20.9769 27.589 20.9365 27.5566L20.8865 27.4855V27.4855C20.8605 27.4707 20.8373 27.4552 20.8195 27.4397L20.8102 27.452C20.781 27.4882 20.8007 27.4337 20.8024 27.4228L20.7155 27.3014C20.5097 27.0123 20.2839 26.6879 20.0999 26.4285L20.0941 26.4391C20.0899 26.447 20.0877 26.4528 20.0897 26.4553C19.6519 25.8083 19.2402 25.0268 19.1258 24.2703C18.9907 23.6875 19.0435 23.087 19.1613 22.5472C19.6665 20.6568 21.3213 16.3792 23.4941 14.5457ZM35.3751 40.6881L35.3477 40.663L35.3718 40.6941C35.3845 40.7101 35.3974 40.7246 35.4185 40.7393C35.4171 40.7344 35.4171 40.7294 35.4177 40.7238C35.4038 40.7128 35.3895 40.7008 35.3751 40.6881ZM39.2173 11.5016C36.0059 11.2176 32.8474 11.9453 29.783 12.8262L29.5716 12.8887C27.8292 13.4001 25.9867 13.8602 24.5142 14.9549C22.457 16.5756 21.3946 19.154 20.4675 21.5346C19.658 23.3033 20.0718 25.2977 21.2918 26.5328C21.4187 25.3055 21.6351 24.1141 21.9733 22.9323C22.0439 22.7477 21.9905 22.6872 22.1426 22.6631C22.3723 25.8479 21.2408 28.2009 23.4801 31.9754C24.4517 33.7564 23.3269 35.0595 26.0708 35.9967L26.1451 36.0259C26.7167 36.2477 27.341 36.4229 27.9009 36.2988L27.8507 36.2149C27.7996 36.1285 27.784 36.0865 27.8584 36.0496C27.8564 36.0453 27.8537 36.0411 27.8509 36.0362C27.7907 35.9193 27.7325 35.801 27.677 35.6813C27.6545 35.689 27.6319 35.6947 27.6085 35.701C27.6237 35.7299 27.6257 35.7587 27.5833 35.7686C27.4324 35.8218 27.2775 35.8432 27.1189 35.8332L27.0849 35.8306C26.9057 35.8193 26.7929 35.7857 26.6919 35.7545C26.6584 35.7489 26.6249 35.7432 26.5919 35.7362C26.2671 35.6621 25.9232 35.4737 25.7006 35.2869C23.1637 33.8048 23.4259 28.7595 26.553 28.2826C26.6171 25.106 28.0861 19.7467 30.5239 16.7197C32.7275 13.9354 38.7433 12.7286 42.9287 13.1541C42.9897 13.1749 43.0506 13.1959 43.1116 13.217C43.7574 13.2761 44.3727 13.5719 45.0189 13.7094C44.555 13.3518 44.0287 13.1135 43.4865 12.9111C42.4064 12.2315 41.1681 11.8638 39.9717 11.6044C39.7239 11.5418 39.4727 11.5073 39.2173 11.5016ZM26.4098 30.8345C26.578 30.7406 26.5587 30.8313 26.5974 30.8049C27.8068 30.7035 29.1109 31.7926 29.787 32.7005C29.7336 32.7576 29.5891 32.5886 29.5638 32.5618C29.5604 32.5653 29.5562 32.5682 29.5521 32.5696L29.571 32.5969C29.845 33.0013 29.3018 32.5254 29.2509 32.4273C29.242 32.4323 29.2331 32.4351 29.2228 32.433C29.2659 32.4764 29.3974 32.5897 29.42 32.6703L29.4549 32.7001C29.7836 32.9897 29.7564 33.2075 29.3831 32.7963C29.3919 32.8153 29.3954 32.8329 29.3892 32.847L29.4021 32.8558C29.5856 32.9877 29.7365 33.3555 29.3529 32.978C29.3928 33.2537 28.9728 32.7207 28.9593 32.7245C28.2324 32.1376 27.1621 31.5668 26.2503 31.4901L26.2189 31.4864C26.0516 31.4643 25.9725 31.4132 26.0313 31.3007C25.8252 31.2502 25.8735 31.1459 25.971 31.1493C25.8257 31.051 25.9565 30.957 26.0408 30.9936C25.9829 30.8285 26.2154 30.9385 26.2366 30.9155C26.3573 30.724 26.3899 30.8837 26.4098 30.8345ZM23.8748 20.5994C24.4557 20.3806 26.1715 21.0357 26.0342 21.9034C25.9525 22.1026 25.6831 22.2168 25.4939 22.1043L25.2468 21.9336C24.8169 21.6375 24.4291 21.3778 23.9675 21.1195C23.7162 20.9912 23.6081 20.719 23.8748 20.5994ZM27.1797 19.31L26.9553 19.1599C25.7447 18.3449 24.0333 17.11 27.0684 18.3876C27.4143 18.5402 27.874 18.6305 28.0627 18.9694C28.3592 19.5939 27.5789 19.6359 27.1797 19.31ZM27.3157 15.6534C27.2186 15.2742 28.4274 15.7191 28.7792 15.8365L28.8328 15.8573C29.1751 15.9885 29.5675 16.1102 29.7722 16.414C30.0121 16.8338 29.5266 16.9208 29.2259 16.7312C28.6093 16.3167 27.9332 16.004 27.3157 15.6534ZM30.3896 13.887C29.7092 13.1227 31.5301 13.8549 31.8029 14.0581L31.8107 14.0641C32.0142 14.2115 31.9729 14.5289 31.7817 14.6221C31.2376 14.6328 30.8373 14.1663 30.3896 13.887ZM33.4857 13.0496C32.4041 12.2501 33.8289 12.6304 34.3238 12.9437C34.6611 13.2497 34.3137 13.7662 33.4857 13.0496Z" fill="black"/>
<path fill-rule="evenodd" clip-rule="evenodd" d="M40.0348 37.2948C39.5746 37.1017 39.164 36.7795 38.8638 36.3681C38.7594 36.225 38.7324 36.074 38.7543 35.9358C38.7789 35.7804 38.8682 35.6396 38.9901 35.5452C39.1123 35.4505 39.2652 35.4037 39.4131 35.4276C39.5415 35.4483 39.6694 35.5206 39.7706 35.6706L39.7917 35.7006C39.9702 35.949 40.2028 36.1528 40.4678 36.2841C40.7232 36.4107 41.0088 36.4698 41.3044 36.4354C41.8674 36.37 42.2555 36.0568 42.6679 35.6315C42.7191 35.5778 42.7702 35.5225 42.8216 35.4662C42.8541 35.4152 42.8991 35.3824 42.9492 35.3652C43.0047 35.3461 43.0675 35.3472 43.1251 35.3678C43.1806 35.3878 43.2302 35.4255 43.2635 35.4758C43.2951 35.5235 43.313 35.5825 43.3072 35.6504C43.2694 36.0911 43.0454 36.4845 42.7272 36.7933C42.3738 37.1363 41.9053 37.3737 41.4642 37.4569C40.9783 37.5486 40.4832 37.4829 40.0348 37.2948V37.2948ZM41.6935 30.4954C42.2104 30.8186 42.9981 31.5723 42.442 32.3736C41.7874 33.0801 40.8448 32.27 40.3804 31.9036C39.9497 31.6197 39.4659 32.35 39.8654 32.6815C43.2216 35.2373 44.5836 30.5799 41.9549 30.1154C41.6655 30.0642 41.558 30.3954 41.6935 30.4954ZM35.6792 27.5223C35.7363 26.7931 36.8161 26.6275 36.9235 27.3491C37.0197 27.9955 36.9065 28.5894 36.6234 29.1713C36.3529 29.7274 35.6731 29.468 35.6217 28.9617C35.5527 28.283 35.6437 27.976 35.6792 27.5223ZM43.8987 27.1995C44.0493 26.9967 44.2666 26.8582 44.527 26.9365C45.3407 27.181 45.1009 28.3692 44.8151 28.9475C44.6599 29.2616 44.158 29.3412 43.9312 29.0647C43.5615 28.6137 43.3845 27.7132 43.8544 27.269C43.8672 27.246 43.8813 27.2229 43.8987 27.1995ZM36.6119 24.3313L36.7405 24.3082C37.1381 24.2375 37.6324 24.1695 37.9137 24.4983C38.0629 24.6726 38.1142 24.9967 37.9137 25.1636C37.561 25.4572 37.171 25.3434 36.7484 25.3683C36.4001 25.3889 36.0653 25.4481 35.7298 25.5468C34.9937 25.7632 34.3939 26.1582 33.7652 26.592C33.6828 26.6489 33.5986 26.5404 33.6379 26.461C34.0008 25.7299 34.7041 25.1293 35.4086 24.7632C35.7845 24.5678 36.196 24.4057 36.6119 24.3313ZM43.157 24.0038L43.2554 24.0245C44.3259 24.2547 45.7168 24.7145 46.2237 25.796C46.243 25.949 46.2226 25.9817 46.206 26.0032L46.2005 26.0103C46.1868 26.0286 46.1759 26.0538 46.1115 26.0746C46.0936 26.0702 46.0755 26.0656 46.0573 26.0606C45.8249 25.998 45.641 25.9117 45.463 25.8222L45.2701 25.7244C45.0462 25.6115 44.8203 25.5027 44.5809 25.4223C44.07 25.2509 43.5446 25.1302 43.011 25.0657C42.8953 25.0518 42.784 25.0116 42.6961 24.9428C42.6127 24.8775 42.549 24.7871 42.52 24.6669C42.4823 24.5113 42.4931 24.3936 42.5743 24.2532C42.6353 24.1478 42.7226 24.0748 42.8228 24.0328C42.925 23.9901 43.0414 23.98 43.157 24.0038Z" fill="black"/>
</g>
<defs>
<clipPath id="clip0_240_6891">
<rect width="56" height="78" fill="white" transform="translate(2 10)"/>
</clipPath>
</defs>
</svg>
