<svg width="1828" height="1938" viewBox="0 0 1828 1938" fill="none" xmlns="http://www.w3.org/2000/svg">
<path fill-rule="evenodd" clip-rule="evenodd" d="M1018.49 1648.79C1043.39 1647.59 1033.37 1603.99 1031.59 1587.98C1011.88 1529.5 1016.51 1465.7 1008.76 1404.41C1003.93 1347.19 997.728 1290.15 992.509 1232.97C982.259 1116.91 908.653 880.643 824.655 842.645C814.074 796.159 770.37 752.764 715.076 752.764C677.363 708.067 631.97 676.609 573.748 682.961C549.688 684.057 526.354 709.608 503.3 714.542C490.392 716.324 375.836 711.737 352.889 725.382C336.904 733.6 322.475 748.786 327.175 768.119C334.673 791.541 311.369 766.197 262.756 791.197C163.626 850.808 222.862 930.555 225.487 933.026C163.626 1019.2 109.557 1089.12 84.5402 1194.45C68.3267 1272.66 70.1518 1353.39 56.5672 1431.99C51.7706 1459.24 44.4122 1485.57 36.4497 1512.03C27.82 1546.67 23.6239 1633.01 18.8672 1633.78C10.2028 1635.93 23.8748 1653.75 33.0558 1653.76C287.598 1696.04 546.151 1655.51 802.061 1648.89C874.181 1646.38 946.378 1645.8 1018.49 1648.79Z" fill="white"/>
<path fill-rule="evenodd" clip-rule="evenodd" d="M632.697 940.633C632.815 939.466 634.387 939.468 634.508 940.633L636.305 958.003C638.491 979.218 640.596 1000.39 642.122 1021.7C644.025 1048.28 645.297 1074.85 645.911 1101.49C648.049 1194.27 648.474 1287.09 648.654 1379.88C661.188 1379.01 673.723 1378.18 686.264 1377.37C694.773 1376.82 703.282 1376.29 711.792 1375.77L733.491 1374.45V1374.45L742.425 1373.9C748.462 1373.53 755.321 1372.01 759.542 1377.36C761.231 1379.51 762.079 1382.29 760.504 1384.84C756.87 1390.71 751.289 1390.5 744.977 1390.75C739.021 1391 733.065 1391.23 727.109 1391.46C714.346 1391.96 701.585 1392.43 688.818 1392.78C675.42 1393.16 662.029 1393.47 648.636 1393.69C648.5 1432.87 646.882 1472 645.131 1511.13L644.339 1528.74C642.197 1576.36 639.893 1624.02 636.62 1671.58C636.351 1675.47 630.85 1675.46 630.583 1671.58C626.897 1618.02 624.465 1564.35 622.054 1510.72C620.305 1471.84 619.287 1432.94 618.803 1394.04C617.032 1394.05 615.262 1394.08 613.493 1394.08C563.225 1394.3 512.971 1394.52 462.704 1394.05C462.787 1394.15 462.87 1394.25 462.925 1394.38C466.562 1402.98 466.909 1413.95 466.82 1423.18C466.718 1433.76 465.295 1444.22 462.861 1454.51C454.139 1491.38 431.643 1524.4 406.021 1551.7L405.185 1552.59C399.141 1558.98 392.208 1565.4 388.497 1573.55C384.707 1581.86 383.391 1591.59 381.521 1600.53L381.303 1601.55L373.989 1635.37C371.666 1646.12 371.006 1661.79 362.513 1669.54C354.589 1676.77 344.092 1672.99 340.363 1663.68C337.451 1656.41 340.351 1648.43 342.076 1641.17L355.589 1584.29C357.809 1575.02 360.235 1565.68 365.027 1557.35C369.936 1548.82 377.132 1542.63 384.475 1536.3C398.379 1524.32 411.143 1510.6 421.938 1495.74C432.729 1480.89 441.951 1464.52 448.418 1447.3C451.656 1438.69 454.31 1429.73 456.14 1420.71C457.88 1412.14 457.865 1403.27 459.726 1394.8C459.853 1394.21 460.347 1393.81 460.912 1393.64C460.778 1393.26 460.983 1392.75 461.511 1392.71L502.621 1390.07C539.164 1387.71 575.706 1385.29 612.216 1382.52L618.668 1382.05V1382.05C618.167 1330.15 618.592 1278.24 619.528 1226.32C620.386 1178.71 620.404 1131.08 621.818 1083.48C622.521 1059.85 624.037 1036.28 625.725 1012.7C627.451 988.584 630.213 964.674 632.697 940.633ZM246.69 1216.7C246.252 1214.06 249.574 1212.42 251.105 1214.84C268.61 1242.46 277.051 1272.47 280.608 1304.8C283.751 1333.34 282.825 1362.28 281.26 1390.89C279.591 1421.4 277.643 1451.91 275.674 1482.4L272.648 1529.17V1529.17L265.055 1646.41C264.512 1654.8 262.611 1662.42 255.399 1666.32C254.486 1667.08 253.534 1667.77 252.425 1668.36C248.529 1670.45 243.361 1669.39 241.109 1665.39L242.012 1665.99C242.799 1666.48 241.915 1665.79 239.361 1663.91L237.193 1661.1V1661.1C235.618 1658.73 234.612 1656.4 234.208 1653.58C233.579 1649.2 234.393 1644.4 234.679 1640L239.656 1563.12V1563.12C243.526 1503.36 248.046 1443.61 251.453 1383.81C253.04 1355.94 254.151 1328.05 253.399 1300.13C252.649 1272.36 251.236 1244.13 246.69 1216.7ZM398.126 702.061L399.098 701.898C433.867 696.115 471.676 697.197 503.452 713.98C503.715 714.118 503.595 714.555 503.3 714.542L493.072 714.133C460.693 712.863 428.414 712.112 396.577 719.729L393.318 720.515C381.852 723.315 369.879 726.743 360.67 734.325C351.867 741.573 347.484 752.753 343.27 763.045L342.706 764.404C338.43 774.569 333.018 784.21 323.646 790.566C311.506 798.798 296.907 797.79 282.987 798.908C258.479 800.88 238.441 818.664 228.472 840.426C222.435 853.604 219.86 868.378 219.35 882.789C219.089 890.125 219.051 897.748 220.028 905.036C220.339 907.367 223.217 915.856 224.684 915.653C227.944 915.2 230.924 916.902 231.941 919.511C239.993 911.722 248.278 904.157 256.829 896.864C278.144 878.689 301.103 862.216 325.282 848.061C343.735 837.256 363.199 826.552 383.355 818.46C381.758 818.426 380.183 818.744 378.659 819.537C377.992 819.886 377.329 819.048 377.856 818.493C384.204 811.805 391.809 810.854 399.475 812.637C401.111 812.116 402.748 811.612 404.391 811.133C405.209 810.895 405.616 812.023 404.949 812.459L403.066 813.664V813.664C411.429 816.469 419.64 821.982 426.141 826.333C444.814 838.829 461.251 854.104 477.912 869.094L480.942 871.811C495.608 884.923 510.647 897.664 527.31 908.183C536.033 913.688 545.194 918.781 554.804 922.569C563.046 925.82 576.466 927.867 580.326 936.589C583.757 940.762 582.324 946.088 578.305 948.897C571.528 956.365 557.97 951.541 549.894 948.43C540.158 944.68 530.726 940.173 521.731 934.886C504.266 924.621 488.164 911.857 473.163 898.28C457.497 884.099 442.72 869.035 427.483 854.409C420.881 848.071 414.431 841.585 407.819 835.258L404.498 832.108C401.124 828.94 396.315 824 391.175 821.011C381.49 826.795 371.656 832.34 362.06 838.274C348.663 846.556 335.66 855.435 322.859 864.607C298.214 882.264 274.86 902.039 253.179 923.236C213.415 962.108 179.538 1006.5 149.943 1053.5L147.696 1057.08C130.878 1083.98 114.975 1111.76 103.698 1141.48C91.291 1174.19 85.2566 1208.59 81.9786 1243.32C78.7251 1277.79 77.6277 1312.44 73.9917 1346.88C70.2629 1382.21 62.916 1416.75 54.5594 1451.23L52.5664 1459.41C45.005 1490.29 37.2005 1521.17 33.3137 1552.77C31.2387 1569.66 29.9906 1586.77 30.2727 1603.79C30.556 1620.91 33.2428 1637.65 35.4105 1654.59C36.2413 1661.08 29.8631 1666.5 24.1559 1667.36C17.5922 1668.35 11.9533 1664.15 9.91305 1658.05C3.55284 1639.02 2.3975 1617.98 2.59714 1598C2.79807 1577.72 5.38311 1557.58 9.02046 1537.65C16.1741 1498.44 27.2136 1460.05 36.4487 1421.32C44.5876 1387.18 50.0501 1352.98 52.9945 1318.01C56.0509 1281.72 57.8812 1245.32 63.457 1209.29C68.9607 1173.73 79.3163 1139.76 94.9335 1107.33C109.153 1077.81 126.879 1050.02 145.462 1023.08C168.029 990.371 192.815 959.245 220.52 930.886C218.031 930.778 215.476 929.973 213.129 928.508C205.95 924.024 202.606 915.253 201.578 907.244C199.172 888.509 199.753 868.951 204.565 850.634C212.328 821.086 232.475 794.831 261.674 784.18C269.19 781.438 277.179 780.437 285.145 780.24C292.703 780.052 300.957 781.038 308.25 778.64C319.858 774.819 324.834 761.131 329.192 750.754L329.393 750.278C334.982 737.055 341.69 725.722 353.794 717.465C366.709 708.655 382.89 704.648 398.126 702.061V702.061ZM728.498 754.354C738.947 750.725 752.01 754.018 762.228 757.188C773.611 760.722 784.13 767.23 793.149 774.958C802.663 783.109 810.527 793.173 816.082 804.416L816.613 805.5C821.687 815.929 827.466 830.246 824.907 841.704C824.834 842.029 824.75 842.342 824.655 842.645C845.386 852.863 864.531 865.662 881.203 881.883C900.615 900.769 917.053 922.261 930.964 945.48C986.211 1037.7 995.935 1148.45 1002.46 1253.62L1004.09 1280.29C1007.63 1337.87 1011.78 1395.31 1022.55 1452.1L1023.33 1456.2C1034.85 1515.66 1051.33 1575.57 1049.66 1636.56C1049.16 1654.83 1022.18 1654.71 1021.4 1636.56C1018.46 1568.24 1002.53 1502.28 991.753 1435.03C972.782 1316.72 982.287 1194.75 955.406 1077.62C944.857 1031.65 928.516 987.066 905.181 946.036C893.655 925.767 880.467 906.181 865.019 888.695C851.728 873.648 837.914 859.168 822.382 846.519C817.418 851.497 807.501 848.961 804.91 841.704C803.13 836.717 803.649 830.886 802.506 825.662C801.446 820.814 799.984 816.008 798.037 811.442C794.155 802.344 788.457 793.607 781.879 786.243C774.773 778.283 766.606 771.67 757.467 766.209C748.265 760.712 738.202 759.07 728.498 755.053C728.171 754.917 728.14 754.479 728.498 754.354ZM769.092 1386.66C769.107 1386.18 769.673 1385.95 770.02 1386.27C773.684 1389.65 775.898 1394.49 778.593 1398.64C781.703 1403.43 784.968 1408.12 788.391 1412.69C795.251 1421.84 802.888 1430.46 810.585 1438.92C817.744 1446.77 825.374 1454.3 833.289 1461.4C841.864 1469.09 851.474 1475.95 859.266 1484.46C875.523 1502.23 878.15 1526.61 881.579 1549.51L881.955 1551.98C884.047 1565.57 885.921 1579.19 887.611 1592.84C888.433 1599.47 889.252 1606.12 889.922 1612.77L890.126 1614.88C890.723 1621.39 890.884 1628 887.148 1633.69C883.149 1639.78 874.057 1641.91 868.651 1636.08C859.363 1626.05 861.105 1608.23 859.897 1595.33C858.899 1584.66 857.766 1574 856.499 1563.36L855.854 1558.04C854.359 1545.94 853.146 1533.59 850.381 1521.7C847.943 1511.22 843.297 1503.32 835.674 1495.73C827.995 1488.09 820.016 1480.95 812.928 1472.72C805.41 1463.99 798.628 1454.63 792.518 1444.86C787.292 1436.5 783.103 1427.41 779.265 1418.32L778.628 1416.81C774.919 1407.95 768.802 1396.42 769.092 1386.66ZM903.19 1006.16C903.271 1004.92 905.095 1004.9 905.122 1006.16C905.352 1016.78 905.574 1027.41 905.794 1038.04C907.566 1123.67 906.474 1209.51 915.055 1294.85C919.102 1335.09 926.554 1374.74 935.177 1414.22C939.59 1434.42 944.219 1454.57 948.618 1474.78C952.904 1494.47 957.501 1514.26 960.902 1534.13C964.243 1553.67 967.235 1573.35 968.579 1593.13L968.744 1595.71C969.323 1605.3 972.083 1619.39 966.812 1627.89C961.101 1637.09 950.167 1637.26 944.048 1628.47C938.302 1620.22 939.731 1605.55 938.716 1595.71C937.684 1585.69 936.593 1575.66 935.354 1565.66C932.936 1546.15 929.751 1526.68 926.438 1507.31C919.538 1466.96 909.531 1427.12 902.144 1386.83C894.573 1345.55 889.192 1303.97 888.965 1261.94C888.739 1219.56 893.22 1177.25 895.482 1134.96C897.78 1092 900.392 1049.08 903.19 1006.16ZM499.166 739.802C501.462 732.061 509.566 727.221 517.472 729.395C524.717 731.389 530.699 740.193 527.866 747.726C524.775 755.946 519.373 762.955 514.819 770.426C510.612 777.33 504.476 782.765 500.191 789.546L504.913 794.644C507.276 797.186 509.645 799.714 512.041 802.198L520.277 810.74C526.691 817.379 533.146 823.982 539.783 830.391C559.299 849.239 579.124 867.468 600.98 883.609C605.956 887.282 610.97 890.934 616.125 894.354L618.047 895.63C621.583 897.948 625.529 900.227 629.801 899.834C640.182 898.88 649.561 887.841 656.695 880.971L657.068 880.613C674.746 863.772 691.115 845.358 705.427 825.56C708.604 821.161 711.681 816.687 714.677 812.16C707.758 804.068 709.41 788.271 709.029 778.457C708.76 771.556 708.739 764.654 708.702 757.748L708.683 756.355C708.599 751.885 708.398 747.598 711.295 743.92C711.464 743.707 711.813 743.714 712.028 743.826C715.996 745.908 717.218 749.394 718.912 753.304L719.089 753.71C721.149 758.403 723.123 763.14 725.119 767.86C727.209 772.802 729.126 777.816 731.068 782.817C731.973 785.144 732.836 787.479 733.679 789.828C734.193 791.327 734.725 792.82 735.271 794.309L735.4 794.424C736.121 795.036 736.733 795.684 737.26 796.352C739.474 797.461 741.233 799.482 742.059 802.451C743.856 808.913 740.137 814.182 736.821 819.311C723.348 840.152 707.99 860.011 690.918 878.026C682.438 886.976 673.519 895.524 664.232 903.632L662.609 905.04C654.266 912.218 645.209 919.017 634.068 920.697C621.03 922.661 610.419 916.169 600.439 908.69L599.442 907.939C589.981 900.768 580.71 893.345 571.727 885.58C553.413 869.748 535.99 852.749 520.527 834.1C505.486 815.96 490.618 795.676 481.347 773.849C480.782 772.519 482.268 771.128 483.432 772.238C487.961 776.555 492.318 781.106 496.624 785.715C496.744 778.93 495.493 772.087 496.189 765.26C497.038 756.961 496.793 747.793 499.166 739.802Z" fill="black"/>
<path fill-rule="evenodd" clip-rule="evenodd" d="M633.329 85.9062C698.844 85.9062 777.451 117.667 784.134 118.302L784.314 118.312C787.831 118.312 801.57 128.779 825.533 149.714L799.579 200.337L801.679 202.342C811.73 211.979 820.311 220.762 827.083 227.686C882.385 284.221 892.324 506.192 879.292 583.6C866.259 661.009 842.12 736.755 729.739 736.755C617.358 736.755 492.331 669.182 473.071 648.14C460.232 634.111 445.809 627.39 429.804 627.977C429.147 627.147 428.494 626.319 427.847 625.494L425.492 625.161C403.341 621.953 387.47 617.635 377.878 612.208C359.143 601.609 338.551 545.886 338.551 533.611C338.551 521.459 307.802 433.056 307.187 423.701L307.178 423.442C307.178 415.622 267.008 379.671 267.008 368.254C267.008 356.837 258.911 357.53 267.008 317.298L269.361 305.479C277.977 262.643 294.842 191.714 359.143 160.893C429.804 127.024 567.152 85.9062 633.329 85.9062Z" fill="white"/>
<path fill-rule="evenodd" clip-rule="evenodd" d="M348.236 159.302C383.477 121.897 583.545 64.0398 684.766 76.3041L687.802 76.6973C695.88 77.7216 703.84 79.2727 711.697 81.3799C737.092 87.3108 763.323 96.2912 784.306 111.292C801.823 123.563 857.083 143.603 840.796 175.706C846.835 187.148 849.089 201.283 845.007 212.552C844.494 216.445 843.294 220.03 841.759 223.747C854.661 242.786 864.876 264.317 873.146 284.797C887.596 336.337 896.588 389.973 897.905 442.558C902.286 542.462 891.332 661.798 804.32 726.4C751.756 767.337 669.417 768.712 610.347 717.956C606.995 713.989 591.23 703.283 596.491 701.405C598.057 703.059 599.666 704.669 601.305 706.249C601.231 706.073 601.216 705.898 601.247 705.708L599.705 704.312C596.802 701.626 593.042 697.731 597.325 698.493C597.514 698.713 597.72 698.903 597.923 699.123C598.831 699.667 599.516 700.139 600.049 700.554L600.323 700.774L600.239 700.686C597.771 698.055 596.292 695.371 599.981 697.085L600.47 697.323C602.11 699.049 603.777 700.703 605.474 702.313C605.446 702.122 605.474 701.932 605.578 701.727L603.995 700.198C602.451 698.685 602.686 698.678 603.442 697.454C600.158 692.852 606.288 695.586 606.718 697.381C610.553 696.474 613.921 703.674 616.391 704.552C724.675 787.8 881.817 713.933 879.273 481.959L879.234 477.421C878.49 403.245 872.247 327.007 841.567 259.862C838.583 253.394 835.246 247.101 831.574 241.014C829.042 236.448 826.335 232 823.423 227.669C815.271 227.01 807.223 225.517 799.293 223.205C796.57 222.518 793.877 221.757 791.186 220.864C751.852 223.009 713.394 225.343 673.95 227.556L661.63 228.323C628.216 230.471 593.66 233.912 566.696 254.579C540.239 273.395 540.119 310.497 517.471 331.155C485.176 353.074 484.94 372.839 478.721 405.141C479.182 429.49 496.066 464.869 465.083 475.117C470.31 482.57 463.024 478.989 462.45 476.375C462.392 476.39 462.333 476.405 462.289 476.405C466.947 485.063 460.1 479.611 459.494 476.829C459.128 476.726 458.763 476.463 458.397 476.097C463.09 483.683 455.504 478.371 455.953 476.99C446.885 463.052 428.222 460.887 415.066 464.581C414.905 465.078 414.321 465.122 413.956 464.859C358.017 476.981 372.45 592.783 429.774 581.588C432.228 581.088 432.17 582.266 432.657 582.379C431.333 578.902 435.066 580.317 435.026 581.047L435.254 581.036C435.434 581.02 435.36 581 435.494 581.047C434.214 573.937 441.419 584.238 440.85 584.661C441.071 584.53 441.32 584.456 441.539 584.427L441.291 583.752C440.095 580.567 440.198 581.891 440.206 580.066C439.308 577.812 439.242 578.798 439.453 577.329C442.61 574.882 443.543 582.304 444.596 582.847C442.79 580.33 444.226 578.274 445.929 579.641C458.84 606.797 475.518 632.313 497.071 652.413C499.428 654.272 501.814 656.101 504.285 657.828C513.453 665.813 527.516 670.948 536.098 678.021C536.098 678.139 536.041 678.285 535.953 678.431L536.15 678.609V678.609L536.348 678.797L539.333 680.231C540.211 680.977 541.002 681.811 541.702 682.733C542.45 683.597 543.107 684.548 543.665 685.558C543.943 686.787 543.328 687.299 542.158 686.772C541.644 686.597 541.133 686.392 540.621 686.201C540.65 686.245 540.664 686.275 540.694 686.304C540.862 686.558 541.999 689.193 540.689 688.764L540.533 688.704C539.815 688.44 539.099 688.148 538.397 687.87C539.231 688.909 539.99 690.035 540.664 690.987C541.382 691.733 541.82 692.611 541.997 693.606C541.966 694.162 541.66 694.396 541.104 694.323C540.255 694.045 539.421 693.752 538.586 693.445L538.823 693.898C539.414 695.059 540.253 697.007 538.763 696.357C537.488 695.962 536.26 695.508 535.031 695.011C534.927 695.216 534.724 695.289 534.314 695.098C530.407 693.708 526.632 692.011 523.017 690.006C519.842 687.694 516.636 685.426 513.447 683.128C510.446 681.329 507.548 679.324 504.784 677.07C486.279 665.118 470.079 649.934 457.226 633.024C435.731 651.639 392.755 633.855 366.171 619.284C342.657 606.26 333.414 582.18 331.025 556.217C326.057 521.264 297.492 509.3 299.48 432.607C299.436 432.622 299.39 432.622 299.332 432.622C298.293 432.315 297.285 431.905 296.334 431.378C295.353 430.91 294.431 430.354 293.566 429.681L292.498 428.203V428.203C291.944 427.895 291.446 427.573 291.066 427.251L290.868 427.506C290.244 428.26 290.664 427.126 290.7 426.9L288.844 424.377C284.444 418.369 279.617 411.629 275.685 406.238L275.561 406.457C275.472 406.622 275.425 406.742 275.467 406.794C266.109 393.349 257.308 377.109 254.863 361.387C251.976 349.277 253.104 336.797 255.622 325.58C266.42 286.297 301.792 197.403 348.236 159.302ZM602.193 702.566L601.607 702.044L602.122 702.69C602.392 703.024 602.669 703.324 603.12 703.63C603.09 703.527 603.09 703.425 603.104 703.308C602.805 703.08 602.499 702.83 602.193 702.566ZM684.318 96.0424C615.677 90.1408 548.163 105.263 482.662 123.568L478.143 124.866C440.898 135.494 401.516 145.057 370.041 167.804C326.067 201.485 303.359 255.066 283.543 304.537C266.239 341.293 275.085 382.739 301.161 408.404C303.874 382.9 308.5 358.142 315.728 333.583C317.237 329.746 316.096 328.489 319.347 327.988C324.258 394.172 300.071 443.07 347.936 521.507C368.705 558.518 344.663 585.598 403.313 605.073L404.9 605.68C417.119 610.29 430.463 613.93 442.43 611.352L441.358 609.608C440.265 607.812 439.933 606.94 441.523 606.172C441.481 606.084 441.422 605.997 441.362 605.894C440.076 603.465 438.832 601.007 437.645 598.519C437.164 598.68 436.681 598.797 436.182 598.929C436.505 599.529 436.548 600.129 435.642 600.334C432.418 601.44 429.106 601.883 425.717 601.676L424.989 601.621C421.16 601.387 418.747 600.689 416.588 600.041C415.873 599.924 415.156 599.807 414.452 599.66C407.508 598.121 400.158 594.205 395.401 590.324C341.173 559.524 346.777 454.679 413.619 444.767C414.99 378.754 446.389 267.383 498.498 204.479C545.599 146.618 674.188 121.539 763.649 130.382C764.953 130.814 766.257 131.25 767.561 131.69C781.363 132.917 794.517 139.066 808.329 141.922C798.412 134.49 787.162 129.539 775.574 125.332C752.486 111.21 726.017 103.568 700.446 98.1789C695.148 96.8765 689.778 96.1595 684.318 96.0424ZM410.56 497.798C414.154 495.846 413.742 497.731 414.569 497.184C440.42 495.075 468.295 517.708 482.746 536.576C481.604 537.762 478.517 534.25 477.975 533.694C477.902 533.767 477.814 533.825 477.726 533.855L478.129 534.422C483.986 542.827 472.375 532.937 471.288 530.899C471.097 531.001 470.907 531.06 470.688 531.016C471.608 531.919 474.419 534.273 474.902 535.947L475.647 536.567C482.675 542.585 482.092 547.112 474.113 538.566C474.302 538.962 474.375 539.327 474.244 539.62L474.518 539.803C478.442 542.545 481.668 550.187 473.468 542.342C474.321 548.072 465.342 536.996 465.054 537.074C449.516 524.877 426.64 513.015 407.15 511.422L406.479 511.345C402.903 510.885 401.212 509.824 402.467 507.485C398.063 506.438 399.095 504.269 401.18 504.339C398.073 502.296 400.87 500.343 402.672 501.105C401.433 497.674 406.404 499.96 406.857 499.481C409.437 495.502 410.132 498.821 410.56 497.798ZM356.373 285.104C368.789 280.556 405.465 294.171 402.531 312.202C400.783 316.341 395.027 318.714 390.981 316.377L385.7 312.83C376.51 306.675 368.221 301.278 358.354 295.911C352.984 293.246 350.672 287.589 356.373 285.104ZM427.015 258.309L422.22 255.188C396.342 238.252 359.76 212.59 424.637 239.141C432.031 242.312 441.856 244.188 445.89 251.229C452.228 264.207 435.549 265.079 427.015 258.309ZM429.923 182.32C427.846 174.44 453.684 183.686 461.206 186.124L462.351 186.557C469.668 189.283 478.055 191.812 482.431 198.126C487.559 206.851 477.181 208.658 470.752 204.717C457.572 196.104 443.122 189.606 429.923 182.32ZM495.626 145.612C481.083 129.73 520.005 144.945 525.836 149.168L526.002 149.293C530.353 152.355 529.47 158.952 525.383 160.889C513.754 161.11 505.197 151.417 495.626 145.612ZM561.807 128.212C538.686 111.596 569.142 119.499 579.721 126.011C586.931 132.369 579.504 143.102 561.807 128.212Z" fill="black"/>
<path fill-rule="evenodd" clip-rule="evenodd" d="M718.207 626.095C709.698 622.616 702.105 616.814 696.554 609.401C694.625 606.824 694.124 604.102 694.529 601.614C694.984 598.815 696.636 596.278 698.89 594.577C701.15 592.87 703.977 592.029 706.71 592.458C709.086 592.831 711.45 594.134 713.321 596.837L713.712 597.377C717.012 601.851 721.312 605.522 726.212 607.888C730.935 610.169 736.217 611.233 741.683 610.614C752.093 609.436 759.268 603.794 766.895 596.132C767.84 595.165 768.786 594.167 769.736 593.154C770.337 592.235 771.17 591.644 772.095 591.334C773.122 590.99 774.283 591.01 775.347 591.382C776.373 591.741 777.291 592.421 777.906 593.326C778.491 594.186 778.822 595.249 778.715 596.472C778.017 604.412 773.874 611.498 767.99 617.062C761.455 623.241 752.793 627.517 744.637 629.016C735.653 630.668 726.497 629.484 718.207 626.095V626.095ZM748.876 503.605C758.435 509.428 773 523.005 762.717 537.44C750.612 550.168 733.185 535.575 724.597 528.975C716.634 523.86 707.687 537.015 715.075 542.988C777.132 589.03 802.316 505.128 753.711 496.759C748.359 495.837 746.372 501.804 748.876 503.605ZM637.67 450.046C638.726 436.908 658.692 433.925 660.678 446.925C662.456 458.571 660.362 469.268 655.128 479.753C650.127 489.769 637.556 485.096 636.606 475.975C635.331 463.749 637.013 458.218 637.67 450.046ZM789.652 444.23C792.436 440.576 796.455 438.082 801.27 439.492C816.315 443.897 811.881 465.302 806.597 475.72C803.726 481.378 794.446 482.813 790.252 477.831C783.417 469.707 780.143 453.484 788.833 445.482C789.069 445.068 789.331 444.651 789.652 444.23ZM654.916 392.56L657.293 392.144C664.645 390.869 673.786 389.645 678.986 395.568C681.745 398.709 682.694 404.547 678.986 407.553C672.465 412.843 665.254 410.793 657.439 411.241C650.998 411.612 644.808 412.68 638.604 414.457C624.994 418.355 613.904 425.472 602.28 433.286C600.754 434.311 599.197 432.356 599.925 430.926C606.635 417.755 619.639 406.936 632.665 400.34C639.617 396.82 647.225 393.9 654.916 392.56ZM775.938 386.66L777.757 387.033C797.551 391.18 823.269 399.463 832.643 418.947C833 421.702 832.622 422.292 832.316 422.678L832.213 422.807C831.96 423.136 831.759 423.59 830.567 423.965C830.236 423.886 829.902 423.802 829.565 423.714C825.268 422.585 821.869 421.031 818.578 419.418L815.009 417.656C810.869 415.622 806.693 413.662 802.266 412.214C792.82 409.127 783.104 406.952 773.238 405.791C771.099 405.539 769.04 404.816 767.416 403.576C765.873 402.4 764.695 400.77 764.158 398.605C763.462 395.803 763.662 393.681 765.163 391.153C766.291 389.255 767.905 387.939 769.759 387.183C771.648 386.413 773.8 386.231 775.938 386.66Z" fill="black"/>
<mask id="mask0_488_16152" style="mask-type:alpha" maskUnits="userSpaceOnUse" x="592" y="778" width="1022" height="919">
<rect width="966.575" height="856.361" transform="matrix(-0.997783 -0.0665541 -0.0665541 0.997783 1613.99 842.42)" fill="#D9D9D9"/>
</mask>
<g mask="url(#mask0_488_16152)">
<path d="M994.492 1123.65C950.994 956.777 998.179 935.197 998.179 935.197L1073.39 1103.14C1051.4 1105.91 1016.75 1109.97 994.767 1124.66L994.492 1123.65Z" fill="white"/>
<path d="M-362.354 1910.36C-361.938 1860.41 -332.556 1813.36 -291.609 1784.82C-250.662 1756.28 -199.159 1746.52 -148.653 1748.95C-43.0568 1754.72 55.9906 1819.72 103.459 1913.99C117.507 1941.57 127.066 1972.54 146.886 1997.46C158.631 2012.66 176.424 2026.21 195.035 2030.87C214.538 2007.11 257.586 1970.41 354.164 1935.32C513.144 1878.81 776.659 1768.78 853.006 1655.79C929.628 1543.81 910.441 1295.52 910.441 1295.52C910.441 1295.52 812.946 1117.42 778.742 992.425C778.742 992.425 913.355 1060.69 972.634 1138.73C976.295 1132.31 981.239 1126.62 988.752 1122.4C1011.01 1108.72 1045.38 1103.65 1067.38 1100.88C1114.67 1095.53 1164.73 1112.17 1170.53 1145.25L1326.22 1100.48C1326.22 1100.48 1321.18 1101.86 1321 1105.16C1320.54 1107.45 1322.1 1109.19 1322.65 1111.21C1328.26 1123.76 1340.64 1133.37 1354.67 1137.12C1367.69 1141.14 1383.08 1138.01 1394.07 1130.67C1391.91 1170.27 1374 1231.51 1302.74 1299.76C1177.37 1419.67 1221.29 1445.57 1221.29 1445.57C1221.29 1445.57 1388.91 1733.42 1348.84 1927.5C1308.77 2121.57 1284.44 2179.15 1293.26 2211.41C1302.09 2243.67 1434.55 2581.22 1434.55 2581.22C1434.55 2581.22 1537.02 2571.6 1505.32 2594.36C1473.35 2616.11 1405.53 2621.67 1405.53 2621.67L1125.14 2186.99C1125.14 2186.99 997.708 2477.57 1009.93 2514.31C1022.15 2551.06 1042.2 2632.25 1042.2 2632.25C1042.2 2632.25 1112.5 2623.85 1088.04 2641.38C1063.58 2658.9 999.793 2663.36 999.793 2663.36L948.486 2475.87L940.878 2155.07L752.169 2174.2L585.455 2190.57C585.455 2190.57 615.39 2466.26 396.226 2564.15C394.211 2564.7 393.202 2564.98 391.186 2565.53C167.163 2661.51 179.931 2906.13 179.931 2906.13C179.931 2906.13 255.181 2903.96 243.933 2934.13L150.083 2943.56C150.083 2943.56 21.1415 2650.54 242.546 2493.52C242.546 2493.52 260.298 2459.41 259.345 2416.33C258.762 2378.57 197.409 2126.65 182.142 2066.9C118.501 2032.31 64.0927 1968.11 -8.78029 1963.13C-56.5381 1958.86 -102.164 1982.18 -146.326 2002.93C-189.755 2022.4 -240.061 2040.5 -285.261 2025.78C-332.753 2010.61 -365.061 1959.86 -363.637 1909.63L-362.354 1910.36Z" fill="white"/>
<path d="M996.819 1119.55C952.313 952.95 1000.51 931.094 1000.51 931.094L1075.72 1099.04C1053.72 1101.81 1019.08 1105.87 997.095 1120.56L996.819 1119.55Z" stroke="black" stroke-width="16" stroke-linecap="round" stroke-linejoin="round"/>
<path d="M-355.579 1906.78C-355.163 1856.82 -325.781 1809.78 -284.834 1781.24C-243.887 1752.7 -192.384 1742.94 -141.878 1745.37C-36.2818 1751.14 62.7656 1816.13 110.234 1910.41C124.282 1937.99 133.841 1968.96 153.661 1993.87C165.406 2009.08 183.199 2022.63 201.81 2027.29C221.313 2003.53 264.361 1966.83 360.939 1931.73C519.919 1875.23 783.435 1765.19 859.781 1652.2C936.403 1540.22 917.216 1291.94 917.216 1291.94C917.216 1291.94 819.721 1113.84 785.517 988.842C785.517 988.842 920.13 1057.1 979.409 1135.15C983.07 1128.73 988.015 1123.04 995.527 1118.82C1017.79 1105.14 1052.16 1100.07 1074.15 1097.3C1121.44 1091.94 1171.5 1108.58 1177.31 1141.67L1333 1096.9C1333 1096.9 1327.96 1098.27 1327.78 1101.57C1327.32 1103.87 1328.88 1105.61 1329.43 1107.62C1335.03 1120.17 1347.41 1129.79 1361.44 1133.53C1374.46 1137.56 1389.86 1134.43 1400.85 1127.08C1398.68 1166.68 1380.77 1227.93 1309.52 1296.18C1184.14 1416.09 1228.07 1441.99 1228.07 1441.99C1228.07 1441.99 1395.68 1729.84 1355.61 1923.91C1315.54 2117.99 1291.21 2175.57 1300.04 2207.83C1308.86 2240.08 1441.33 2577.64 1441.33 2577.64C1441.33 2577.64 1543.79 2568.02 1512.1 2590.78C1480.13 2612.53 1412.31 2618.09 1412.31 2618.09L1131.91 2183.41C1131.91 2183.41 1004.48 2473.98 1016.71 2510.73C1028.93 2547.47 1048.98 2628.67 1048.98 2628.67C1048.98 2628.67 1119.27 2620.26 1094.82 2637.79C1070.36 2655.32 1006.57 2659.77 1006.57 2659.77L955.261 2472.28L947.653 2151.49L758.944 2170.62L592.231 2186.99C592.231 2186.99 622.165 2462.67 403.001 2560.57C400.985 2561.12 399.978 2561.4 397.962 2561.95C173.938 2657.92 186.706 2902.55 186.706 2902.55C186.706 2902.55 261.956 2900.38 250.708 2930.54L156.858 2939.97C156.858 2939.97 27.9165 2646.96 249.321 2489.94C249.321 2489.94 267.073 2455.83 266.12 2412.75C265.537 2374.99 204.184 2123.07 188.917 2063.32C125.276 2028.73 70.8675 1964.52 -2.00546 1959.54C-49.7633 1955.28 -95.3893 1978.6 -139.551 1999.35C-182.98 2018.82 -233.286 2036.92 -278.486 2022.2C-325.978 2007.03 -358.286 1956.28 -356.862 1906.05L-355.579 1906.78Z" stroke="black" stroke-width="16" stroke-linecap="round" stroke-linejoin="round"/>
<path d="M1329.34 1103.31C1329.34 1103.31 1332.82 1100.19 1334.56 1098.64C1353.89 1090.09 1375.06 1084.3 1396.23 1078.51C1403.39 1092.8 1404.78 1109.76 1402.32 1124.52L1403.14 1127.54L1402.14 1127.82C1390.14 1135.43 1375.47 1137.28 1362.73 1134.27C1348.7 1130.52 1337.33 1120.63 1330.72 1108.35C1330.17 1106.34 1329.61 1104.32 1329.06 1102.31L1329.34 1103.31Z" fill="#A5A4A4" stroke="black" stroke-width="16" stroke-linecap="round" stroke-linejoin="round"/>
<path d="M1068.27 1174.75C1075.7 1178.14 1078.64 1184.92 1082.59 1191.42C1083.69 1195.46 1085.07 1200.5 1080.58 1203.89C1080.58 1203.89 1078.84 1205.45 1078.11 1206.74C1074.63 1209.85 1068.03 1209.49 1064.63 1205.01C1063.81 1201.98 1061.97 1199.23 1062.15 1195.93C1061.6 1193.92 1063.06 1191.35 1063.52 1189.06C1062.69 1186.03 1061.86 1183.01 1061.04 1179.99C1059.93 1175.95 1063.69 1173.84 1067.27 1175.03L1068.27 1174.75Z" fill="black"/>
<path d="M1310.07 1298.2C1310.07 1298.2 1176.23 1379.25 1111.39 1336.32" stroke="black" stroke-width="16" stroke-linecap="round" stroke-linejoin="round"/>
<path d="M1256.98 1488.25C1256.98 1488.25 995.156 1537.15 905.637 1467.38L903.205 1517.89C903.205 1517.89 1078.8 1593.35 1267.92 1524.26L1257.99 1487.98L1256.98 1488.25Z" fill="#E5B3B3"/>
<path d="M1254.78 1480.19C1254.78 1480.19 992.949 1529.08 903.43 1459.32L900.999 1509.82C900.999 1509.82 1076.59 1585.29 1265.71 1516.2L1255.78 1479.91L1254.78 1480.19Z" stroke="black" stroke-width="16" stroke-linecap="round" stroke-linejoin="round"/>
</g>
</svg>
