<svg width="72" height="98" viewBox="0 0 72 98" fill="none" xmlns="http://www.w3.org/2000/svg">
<path fill-rule="evenodd" clip-rule="evenodd" d="M14.7475 88.8405C22.7331 90.0808 30.8636 90.1431 38.9156 89.6928C42.1022 89.4488 45.2987 89.4049 48.4828 89.7168C50.3643 89.8598 58.6137 90.5046 59.2877 88.7815C58.8635 79.6062 58.0043 70.3528 55.3687 61.5284C54.2847 58.3951 53.3538 55.7945 51.2382 53.2016C50.5715 52.4936 49.1336 51.0089 48.3097 50.5246C47.5959 50.1052 47.2975 50.2548 46.8877 49.5463C46.4804 48.7637 46.18 47.4565 45.6017 46.9043C45.0128 46.3419 44.1402 46.5431 43.0586 46.7242C43.2573 43.9786 42.0178 43.2793 40.3102 42.7572C37.3087 41.5859 34.3444 42.1743 33.589 45.9104C32.1882 45.9104 31.4014 46.5267 30.5508 47.1189C30.2031 47.361 30.445 47.9778 30.0296 48.1681C29.2612 48.4479 27.9033 48.3793 27.1634 48.7236C23.7989 50.2892 20.8022 52.5596 18.8342 55.8753C14.4222 62.9544 11.3915 77.8667 11.916 86.2571C11.6862 86.6255 12.0039 87.1538 12.0847 87.55C12.1866 87.8946 12.5168 88.1239 12.8613 88.0847C13.3421 88.6134 14.0858 88.7311 14.7475 88.8405Z" fill="white"/>
<path fill-rule="evenodd" clip-rule="evenodd" d="M47.8008 50.317C47.7518 50.289 47.7949 50.2174 47.8442 50.2411C50.2125 51.3771 52.0293 53.3701 53.3076 55.673C54.6314 58.0574 55.3858 60.7647 56.0363 63.4107L56.0597 63.5063C56.7533 66.337 57.343 69.1968 57.874 72.0637C58.4117 74.9669 58.8433 77.8881 59.1905 80.8213C59.3622 82.2717 59.5153 83.7245 59.6348 85.1803C59.6944 85.9078 59.7487 86.6359 59.7974 87.3643C59.8168 87.6556 59.8352 87.9469 59.8509 88.2384L59.8622 88.4572C59.8719 88.6555 59.8949 88.8544 59.847 89.0501C59.8056 89.2188 59.7183 89.3715 59.6414 89.5264C59.4895 89.8325 59.0729 89.7821 58.9092 89.5264L58.8616 89.4519C58.753 89.2803 58.6628 89.1208 58.6287 88.9073C58.5958 88.7005 58.5946 88.4838 58.5798 88.2749C58.5526 87.8906 58.5294 87.5059 58.503 87.1215C58.4476 86.3122 58.3853 85.5035 58.3163 84.6953C58.18 83.1 58.0337 81.506 57.854 79.915C57.5348 77.0875 57.1343 74.2675 56.6621 71.4625C56.2007 68.7224 55.6175 66.0101 55.0091 63.3011L54.946 63.0209C53.8807 58.2913 52.2388 52.8445 47.8008 50.317ZM22.5754 68.8371C22.5928 68.7898 22.6678 68.7789 22.6804 68.8371C22.8399 69.5716 22.8557 70.328 22.8801 71.0799C22.9041 71.8217 22.9032 72.5668 22.8926 73.309C22.8536 76.0367 22.7804 78.7621 22.717 81.4893C22.6854 82.8535 22.6557 84.2179 22.6329 85.5822C22.6242 86.094 22.617 86.6057 22.611 87.1174L22.6036 87.7923C22.5999 88.0908 22.5923 88.3855 22.5567 88.6836C22.5332 88.8797 22.4832 89.0667 22.3774 89.2347C22.3022 89.354 22.1951 89.4146 22.0908 89.4957L22.0712 89.5111C21.9381 89.6187 21.7979 89.6194 21.666 89.5111L21.6278 89.4801C21.5018 89.3794 21.393 89.3008 21.3126 89.1415C21.2007 88.9201 21.1828 88.6795 21.1638 88.4355C21.1349 88.0655 21.1541 87.6901 21.1578 87.319C21.1653 86.5746 21.1753 85.8304 21.1881 85.0861C21.235 82.3566 21.3277 79.6267 21.4966 76.9021C21.5761 75.6188 21.684 74.3313 21.8287 73.0531L21.8563 72.8136C21.9002 72.4375 21.9402 72.0547 21.9853 71.6707C21.3119 71.1864 20.72 70.5988 20.2152 69.9322C20.178 69.8831 20.2392 69.8143 20.2841 69.8618C20.7999 70.4079 21.3912 70.8432 22.0459 71.1855C22.1532 70.3817 22.3007 69.5822 22.5754 68.8371ZM33.8256 44.5067C33.8348 44.4994 33.8492 44.4962 33.858 44.5067C34.0028 44.6793 33.9734 44.9431 33.9781 45.1617L33.9786 45.1821C33.989 45.5018 33.991 45.8205 33.9899 46.1404L33.9867 47.1585V47.1585C33.9862 47.2985 33.9751 47.4443 33.9822 47.5851L33.9858 47.6396V47.6396C34.0619 47.7192 34.0972 47.8343 34.0714 47.9499C34.0668 48.0981 33.991 48.2218 33.8804 48.2995L34.1174 48.6433V48.6433L34.3546 48.9869C34.8435 49.696 35.3378 50.3987 35.853 51.0883C36.3783 51.7914 36.9387 52.4679 37.5251 53.1184C37.8116 53.4363 38.103 53.7497 38.4012 54.0562C38.5223 54.1807 38.6465 54.3022 38.7693 54.425L38.8915 54.5484C38.9637 54.6222 39.0545 54.6952 39.1024 54.7888C39.1306 54.844 39.137 54.98 39.1471 55.0025C39.2376 55.2058 39.0833 55.53 38.8268 55.4285L38.8384 55.4206C38.8851 55.3874 38.8552 55.3869 38.7486 55.4192C38.6814 55.419 38.6183 55.4032 38.5594 55.3718L38.5419 55.362C38.4589 55.3189 38.3849 55.2355 38.3175 55.1688L38.3008 55.1525C38.1467 55.0049 37.9998 54.8483 37.8521 54.694C37.5439 54.372 37.2426 54.0432 36.9509 53.7056C36.369 53.032 35.8174 52.331 35.2949 51.6084C34.7628 50.8723 34.2682 50.0984 33.8428 49.2928C33.6814 48.987 33.5334 48.6754 33.3915 48.3602C33.1153 48.2695 33.0512 47.9692 33.0705 47.6309C32.9686 47.3883 32.8768 47.1407 32.8225 46.8877C32.8151 46.853 32.8587 46.8203 32.8848 46.8506C32.9731 46.9532 33.0549 47.0625 33.1335 47.1745C33.1809 46.9374 33.241 46.719 33.2692 46.5799L33.3916 45.9656V45.9656C32.7017 45.9289 31.9457 46.2187 31.4701 46.726C31.4446 46.8582 31.3451 46.9527 31.2482 47.0762C31.1374 47.2174 31.0408 47.3759 30.9687 47.5415C30.8089 47.9088 30.8991 48.45 30.5889 48.7194C30.5565 48.7475 30.5204 48.767 30.4831 48.779C30.6303 49.517 30.5635 50.3302 30.5603 51.0789L30.5602 51.1448C30.5609 51.9827 30.5336 52.8214 30.5019 53.6586L30.4697 54.4872C30.4279 55.5923 30.4008 56.698 30.5059 57.797C30.9854 57.3628 31.4812 56.9484 31.9941 56.5535C32.3314 56.2939 32.6754 56.0434 33.0256 55.8024L33.3102 55.608C33.6513 55.3742 34.0006 55.1336 34.374 54.9661C34.8624 54.7472 35.3268 54.8224 35.7983 55.047C36.2679 55.2707 36.7234 55.5305 37.184 55.7729C37.6525 56.0194 38.1219 56.2639 38.591 56.5089C38.9018 56.6713 39.3572 56.8179 39.5851 57.1167C39.5996 57.0506 39.6166 56.9847 39.6364 56.919C39.6138 56.8188 39.6225 56.7105 39.6774 56.6074C40.4433 55.1684 41.152 53.6951 41.8556 52.2236C42.2118 51.4789 42.5504 50.7254 42.9073 49.9812L43.2542 49.2563C43.3121 49.1356 43.3703 49.0149 43.4287 48.8944C43.5163 48.714 43.6074 48.5354 43.6959 48.3555C43.7333 48.2795 43.7802 48.204 43.8166 48.1272L43.8339 48.0887C43.8347 48.0867 43.9188 47.8165 43.8538 47.8422L43.8482 47.845C43.8151 47.8642 43.7886 47.8215 43.81 47.7944C43.9018 47.6783 44.0297 47.7811 44.0821 47.8885C44.2264 48.1842 43.962 48.6483 43.8602 48.9315L43.8547 48.9473C43.5389 49.861 43.1815 50.7575 42.8152 51.651C42.113 53.3639 41.3586 55.0505 40.6058 56.7401L40.5969 56.7692V56.7692C40.7574 56.6434 40.9288 56.5292 41.0756 56.418C41.4458 56.1376 41.8268 55.871 42.2073 55.6052C42.905 55.1179 43.6216 54.6626 44.35 54.2253L44.4958 54.1381C44.8597 53.9214 45.2202 53.7456 45.6521 53.8107C46.0533 53.8711 46.4264 54.0915 46.7889 54.2706L46.8264 54.2889L47.9465 54.8334C47.8267 54.3452 47.6971 53.8593 47.5618 53.3752C47.298 52.431 47.0077 51.4948 46.6929 50.5669C46.3989 49.7 46.0811 48.8425 45.7449 47.9919L45.6437 47.7366C45.5066 47.3863 45.3703 47.0044 44.9786 46.8965C44.587 46.7887 44.138 46.9486 43.7801 46.7204C43.7476 46.6997 43.7517 46.6449 43.7911 46.6347L44.0119 46.5778C44.4264 46.4724 44.9124 46.3663 45.3045 46.4689C45.7311 46.5806 46.084 46.9467 46.291 47.3272C46.5211 47.7506 46.6833 48.2243 46.8579 48.6758L46.8856 48.7469C47.0861 49.2577 47.2789 49.7717 47.4633 50.2889C47.8322 51.3226 48.1679 52.3688 48.4718 53.4244C48.6183 53.9332 48.7572 54.4444 48.8908 54.9568C48.9292 55.1042 48.9925 55.2829 49.0444 55.4692C49.104 55.5286 49.1603 55.5949 49.2132 55.6704C49.3009 55.7958 49.238 55.9428 49.1289 56.0179C49.1247 56.1461 49.0968 56.2667 49.0302 56.3701C48.7701 56.7738 48.0825 56.6698 48.1105 56.1271C48.1147 56.044 48.1463 55.9647 48.1943 55.8977L48.1929 55.8869V55.8869L48.1875 55.867V55.867C48.0681 55.8085 47.9482 55.7433 47.8219 55.6795L46.6463 55.0855V55.0855C46.3059 54.9135 45.9285 54.6477 45.5499 54.5821C45.1969 54.521 44.8245 54.7899 44.5212 54.9521L44.5015 54.9625C43.7683 55.3468 43.0406 55.7438 42.3157 56.144C41.9619 56.3395 41.6126 56.543 41.2601 56.7408C40.9653 56.9062 40.6473 57.1435 40.316 57.2369C40.1745 57.3494 40.0064 57.3343 39.8713 57.2492C39.933 57.6402 39.9292 58.0414 39.9482 58.441C39.9737 58.9754 39.9775 59.5112 39.986 60.0463L39.9894 60.2469C40.0116 61.4297 40.0235 62.6129 40.0279 63.796C40.0436 68.0091 39.998 72.2233 39.9874 76.4363C39.982 78.5531 39.941 80.6716 39.8872 82.7876C39.8644 83.6842 39.8168 84.5797 39.7653 85.4749L39.7369 85.9632C39.677 86.9936 39.6416 88.0352 39.455 89.0517C39.4307 89.1842 39.2113 89.1876 39.1897 89.0517C39.0181 87.9625 39.0085 86.8495 38.9755 85.7476L38.9685 85.5274C38.9289 84.3442 38.91 83.1619 38.9141 81.9781C38.9287 77.7634 39.0359 73.5514 39.1235 69.3379C39.1676 67.2209 39.1973 65.1029 39.2657 62.9866C39.2999 61.9277 39.3387 60.8694 39.3847 59.8109C39.4052 59.3383 39.4249 58.8662 39.4556 58.3943L39.4695 58.192C39.479 58.0601 39.4867 57.9298 39.4961 57.8007C39.079 57.9564 38.6976 57.668 38.3224 57.4707C37.89 57.2433 37.4578 57.0155 37.0252 56.7885L36.5923 56.5619V56.5619L35.7259 56.1099C35.3358 55.9063 35.0353 55.7037 34.6192 55.9425C33.1202 56.8024 31.7428 57.9465 30.4945 59.147C30.2551 59.3773 29.7493 59.3154 29.6887 58.9295C29.4297 57.2811 29.5872 55.6087 29.7194 53.9553L29.7682 53.3414C29.8273 52.6082 29.8916 51.875 29.9773 51.1448C30.0157 50.8181 30.0538 50.4917 30.0961 50.1657L30.1286 49.9212C30.1814 49.5348 30.2159 49.1507 30.3285 48.78C30.293 48.7683 30.2588 48.749 30.2282 48.7194C29.8897 48.391 30.0529 47.8212 30.2074 47.4306C30.3599 47.045 30.5925 46.7085 30.8837 46.4189C30.9473 46.3557 31.0368 46.315 31.1268 46.3129C31.833 45.8345 32.6076 45.5957 33.4139 45.8569C33.4366 45.7461 33.4597 45.6356 33.484 45.5253L33.5087 45.4152C33.5715 45.1416 33.5947 44.6897 33.8256 44.5067ZM41.0631 87.7079C41.2822 87.6463 41.5221 87.7112 41.6827 87.8754C41.8432 88.0396 41.9068 88.2848 41.8464 88.5089C41.8162 88.6192 41.7616 88.715 41.6827 88.7963C41.6089 88.8712 41.5228 88.9247 41.4245 88.9567L41.4016 88.9637L41.3658 88.979C41.256 89.0092 41.1461 89.0092 41.0363 88.979C40.9313 88.9488 40.8401 88.8945 40.7628 88.816C40.6859 88.7369 40.6328 88.6437 40.6033 88.5363C40.5738 88.424 40.5738 88.3117 40.6033 88.1993L40.6183 88.1627V88.1627C40.6485 88.0524 40.7031 87.9566 40.782 87.8754C40.8615 87.7947 40.9552 87.7389 41.0631 87.7079ZM54.0746 65.3805C54.1106 65.3382 54.169 65.3924 54.1466 65.4373C53.8053 66.1215 53.4249 66.8008 53.051 67.4676C53.0809 67.6524 53.1106 67.8357 53.1448 68.0144C53.2905 68.7761 53.4689 69.5239 53.5852 70.2928C54.0033 73.0565 54.2204 75.8502 54.4066 78.6387C54.5934 81.4372 54.6173 84.2369 54.6454 87.0409C54.6478 87.2839 54.465 87.5664 54.22 87.6122C54.1078 87.6331 54.0239 87.6291 53.912 87.6122C53.657 87.5738 53.4976 87.2752 53.4866 87.0409C53.4135 85.4738 53.3152 83.9087 53.2012 82.344C52.9993 79.57 52.8759 76.7887 52.7127 74.0119L52.6553 73.0413C52.5936 71.9897 52.5372 70.9374 52.5188 69.8842C52.5066 69.1864 52.5431 68.4889 52.5207 67.7919C52.4999 67.1485 52.4361 66.4489 52.5749 65.8167C52.58 65.793 52.6166 65.787 52.6272 65.8097C52.7715 66.1202 52.8628 66.4577 52.9333 66.8022C53.305 66.3214 53.6836 65.8396 54.0746 65.3805ZM29.7228 48.3839C29.775 48.3799 29.7729 48.4601 29.7228 48.466C28.9932 48.5526 28.2884 48.8561 27.5995 49.1142L27.5405 49.1362C26.8445 49.3944 26.166 49.6946 25.513 50.0525C24.2363 50.7522 23.0639 51.6545 22.0274 52.6874C17.8889 56.8106 16.0029 62.7565 14.6209 68.3441C13.8531 71.4486 13.3071 74.6055 12.9531 77.7866C12.7781 79.3599 12.6544 80.9391 12.5823 82.5208C12.5454 83.3314 12.5221 84.1428 12.5124 84.9542C12.5074 85.3699 12.5059 85.7856 12.5064 86.2012C12.5066 86.3917 12.5399 86.6316 12.4901 86.8165C12.4439 86.9878 12.3135 87.1387 12.2171 87.2814C12.1029 87.4508 11.8976 87.4419 11.7818 87.2814L11.739 87.223C11.6155 87.0555 11.4946 86.8953 11.477 86.6763C11.4581 86.4416 11.4714 86.1996 11.4706 85.9637C11.4686 85.4887 11.4744 85.0136 11.4836 84.5386C11.5016 83.6282 11.5366 82.7182 11.5888 81.8092C11.6947 79.9646 11.8689 78.1236 12.1184 76.2934C12.5619 73.0403 13.2267 69.8182 14.0975 66.6567C14.919 63.6743 15.8923 60.7007 17.2787 57.938C18.566 55.373 20.2547 52.9869 22.4831 51.1942C23.5193 50.3606 24.6474 49.6659 25.8636 49.1427C26.477 48.8788 27.1211 48.6634 27.7762 48.5405C28.424 48.4191 29.069 48.436 29.7228 48.3839ZM41.1887 82.4363C41.3044 82.4354 41.4334 82.4614 41.5327 82.5268L41.6653 82.6316V82.6316C41.7012 82.6788 41.737 82.7262 41.7726 82.7737C41.8556 82.8842 41.8666 83.063 41.8493 83.1947C41.8454 83.2826 41.8198 83.3644 41.7726 83.4402L41.6717 83.5739V83.5739C41.5746 83.6548 41.4937 83.7126 41.3761 83.7515C41.3147 83.7718 41.2555 83.7761 41.1965 83.773L41.1769 83.7717L41.1887 83.7733L41.168 83.771V83.771C41.1488 83.7693 41.1295 83.7671 41.1102 83.7645C41.0971 83.7628 41.0839 83.7618 41.0707 83.7599C41.0581 83.7588 41.0459 83.7583 41.0331 83.7595C40.8837 83.7739 40.7335 83.6873 40.6275 83.5878C40.5319 83.4981 40.4462 83.3079 40.4595 83.1731L40.4652 83.1167C40.4753 83.0217 40.4835 82.9843 40.5229 82.8888C40.5611 82.796 40.6146 82.714 40.6874 82.6448C40.8268 82.5122 40.9974 82.4376 41.1887 82.4363ZM40.7262 75.4811C40.9245 75.2601 41.265 75.2439 41.5109 75.3775C41.5708 75.4101 41.6259 75.4624 41.6787 75.5061C41.8117 75.6161 41.864 75.8145 41.8713 75.9817C41.8786 76.147 41.7933 76.3433 41.6787 76.4574L41.6509 76.485V76.485C41.5823 76.5531 41.4842 76.6124 41.3883 76.6304C41.2337 76.6594 41.1039 76.6586 40.96 76.5964C40.8363 76.5431 40.7297 76.4573 40.6572 76.3409L40.6454 76.3213C40.6404 76.3131 40.6357 76.3048 40.6313 76.2963L40.6249 76.2834C40.4872 76.0126 40.5242 75.7059 40.7262 75.4811ZM40.8289 68.4892C40.9184 68.4605 41.0077 68.4565 41.0971 68.477C41.1578 68.4771 41.2144 68.4928 41.2669 68.5238C41.3239 68.5402 41.3734 68.5697 41.4153 68.6123C41.4658 68.6428 41.5061 68.684 41.536 68.7357C41.5954 68.8021 41.6355 68.88 41.6564 68.9695L41.6803 69.1523L41.6564 69.3352L41.5885 69.4995V69.4995C41.5699 69.5244 41.5511 69.5493 41.5322 69.574C41.5022 69.6258 41.4619 69.6672 41.4112 69.6978C41.3783 69.7313 41.3405 69.7563 41.2982 69.7737C41.1485 69.8835 40.949 69.9193 40.7715 69.8693C40.6662 69.8392 40.5746 69.7846 40.4971 69.7058C40.42 69.6264 40.3666 69.5328 40.3372 69.4252L40.325 69.3391C40.3094 69.2238 40.3069 69.1599 40.3388 69.0132C40.3528 68.9487 40.3935 68.8578 40.4147 68.8195C40.5057 68.656 40.6543 68.5439 40.8289 68.4892ZM48.5938 63.4591C48.8505 63.4572 49.1073 63.4577 49.364 63.4606L49.5566 63.4633C49.879 63.4685 50.1552 63.4345 50.4087 63.6632C50.5927 63.8292 50.5116 64.1077 50.337 64.2328C50.0724 64.4222 49.7405 64.3269 49.4363 64.306C49.1155 64.284 48.7945 64.2658 48.4733 64.251C47.8515 64.2226 47.2295 64.2045 46.607 64.2016C45.9859 64.199 45.3639 64.205 44.7429 64.2152C44.111 64.2257 43.4531 64.2859 42.8247 64.219C42.7384 64.2098 42.7189 64.0938 42.8042 64.0636C43.3963 63.8541 44.0623 63.7863 44.6829 63.7062C45.3229 63.6235 45.963 63.565 46.607 63.5271C47.2686 63.4883 47.9311 63.4638 48.5938 63.4591ZM40.8278 61.402L40.8489 61.4024C40.962 61.4027 41.0677 61.4299 41.1664 61.4839L41.1874 61.4959L41.3231 61.6031C41.4062 61.6887 41.4637 61.7895 41.4955 61.9056L41.5194 62.0879V62.0879C41.523 62.1823 41.5036 62.2703 41.4617 62.352C41.4346 62.437 41.3884 62.5105 41.3231 62.5726C41.2623 62.6395 41.1904 62.6867 41.1073 62.7144C41.0335 62.754 40.9545 62.7738 40.8701 62.7739L40.8489 62.7735C40.728 62.773 40.6151 62.7418 40.5106 62.6798L40.3749 62.5726V62.5726C40.2918 62.4871 40.2343 62.3863 40.2025 62.2701L40.1785 62.0879V62.0879C40.175 61.9935 40.1942 61.9054 40.2363 61.8238C40.2633 61.7388 40.3095 61.6652 40.3749 61.6031C40.4356 61.5363 40.5075 61.489 40.5907 61.4614C40.6644 61.4218 40.7434 61.4019 40.8278 61.402V61.402ZM42.8155 45.2976C42.9599 45.0836 43.2217 45.2739 43.1842 45.4459C43.1941 45.9289 43.2183 46.3977 43.3258 46.8709C43.375 47.0876 43.4395 47.3044 43.5389 47.5029L43.5807 47.5864C43.7094 47.8465 43.8094 48.0917 43.636 48.377C43.5543 48.5115 43.4066 48.6125 43.2465 48.6054C42.5365 48.5741 42.439 47.5637 42.3958 46.9996C42.3513 46.4187 42.4897 45.7802 42.8155 45.2976Z" fill="black"/>
<path fill-rule="evenodd" clip-rule="evenodd" d="M41.1004 21.6692C43.837 21.6692 47.1205 23.0257 47.3997 23.0529L47.4072 23.0533C47.5541 23.0533 48.128 23.5003 49.1289 24.3945L48.0448 26.5566L48.1325 26.6423C48.5524 27.0539 48.9108 27.429 49.1937 27.7247C51.5037 30.1394 51.9189 39.62 51.3745 42.9262C50.8301 46.2324 49.8218 49.4676 45.1275 49.4676C40.4332 49.4676 35.2107 46.5815 34.4062 45.6827C33.8699 45.0835 33.2675 44.7965 32.5989 44.8215C32.5714 44.7861 32.5442 44.7507 32.5172 44.7155L32.4188 44.7013C31.4935 44.5642 30.8306 44.3798 30.4299 44.148C29.6473 43.6953 28.7872 41.3154 28.7872 40.7911C28.7872 40.2721 27.5028 36.4963 27.4771 36.0967L27.4767 36.0857C27.4767 35.7516 25.7988 34.2162 25.7988 33.7285C25.7988 33.2409 25.4605 33.2705 25.7988 31.5521L25.897 31.0473C26.2569 29.2178 26.9614 26.1883 29.6473 24.872C32.5989 23.4254 38.3361 21.6692 41.1004 21.6692Z" fill="white"/>
<path fill-rule="evenodd" clip-rule="evenodd" d="M29.1914 24.804C30.6634 23.2064 39.0205 20.7352 43.2486 21.259L43.3754 21.2758C43.7128 21.3196 44.0453 21.3858 44.3735 21.4758C45.4343 21.7292 46.53 22.1127 47.4065 22.7534C48.1382 23.2775 50.4464 24.1335 49.7661 25.5046C50.0184 25.9933 50.1125 26.597 49.942 27.0783C49.9206 27.2446 49.8705 27.3977 49.8063 27.5565C50.3453 28.3697 50.772 29.2893 51.1174 30.164C51.721 32.3653 52.0966 34.6562 52.1516 36.9021C52.3346 41.1691 51.8771 46.266 48.2425 49.0253C46.0468 50.7737 42.6074 50.8325 40.14 48.6646C40 48.4952 39.3415 48.0379 39.5612 47.9577C39.6266 48.0283 39.6939 48.0971 39.7623 48.1646C39.7592 48.1571 39.7586 48.1496 39.7599 48.1415L39.6955 48.0818C39.5742 47.9671 39.4171 47.8008 39.5961 47.8333C39.6039 47.8427 39.6126 47.8508 39.6211 47.8602C39.659 47.8835 39.6876 47.9036 39.7099 47.9214L39.7213 47.9308L39.7178 47.927C39.6147 47.8146 39.5529 47.7 39.707 47.7732L39.7274 47.7833C39.7959 47.8571 39.8656 47.9277 39.9365 47.9965C39.9353 47.9883 39.9365 47.9802 39.9408 47.9715L39.8747 47.9062C39.8102 47.8415 39.82 47.8412 39.8516 47.789C39.7144 47.5924 39.9705 47.7092 39.9884 47.7858C40.1486 47.7471 40.2893 48.0546 40.3925 48.0921C44.9156 51.6477 51.4796 48.4928 51.3733 38.585L51.3717 38.3911C51.3406 35.223 51.0799 31.9668 49.7983 29.099C49.6737 28.8227 49.5343 28.554 49.3809 28.294C49.2752 28.099 49.1621 27.909 49.0404 27.724C48.6999 27.6958 48.3637 27.6321 48.0325 27.5333C47.9187 27.504 47.8063 27.4715 47.6939 27.4333C46.0508 27.525 44.4444 27.6247 42.7968 27.7192L42.2822 27.7519C40.8864 27.8437 39.443 27.9906 38.3167 28.8733C37.2115 29.677 37.2065 31.2617 36.2605 32.144C34.9115 33.0802 34.9016 33.9243 34.6418 35.304C34.6611 36.344 35.3664 37.855 34.0722 38.2927C34.2905 38.611 33.9862 38.4581 33.9622 38.3465C33.9598 38.3471 33.9573 38.3477 33.9555 38.3477C34.15 38.7175 33.864 38.4847 33.8387 38.3658C33.8234 38.3615 33.8082 38.3502 33.7929 38.3346C33.9889 38.6586 33.672 38.4317 33.6908 38.3727C33.312 37.7774 32.5324 37.685 31.9829 37.8427C31.9762 37.864 31.9518 37.8658 31.9365 37.8546C29.5999 38.3723 30.2028 43.3183 32.5973 42.8402C32.6998 42.8188 32.6973 42.8692 32.7177 42.874C32.6624 42.7255 32.8183 42.7859 32.8167 42.8171L32.8262 42.8166C32.8337 42.8159 32.8306 42.8151 32.8362 42.8171C32.7827 42.5134 33.0837 42.9534 33.0599 42.9715C33.0692 42.9658 33.0796 42.9627 33.0887 42.9615L33.0784 42.9326C33.0284 42.7966 33.0327 42.8531 33.033 42.7752C32.9955 42.6789 32.9928 42.721 33.0016 42.6583C33.1335 42.5538 33.1724 42.8708 33.2164 42.894C33.141 42.7865 33.201 42.6987 33.2721 42.757C33.8114 43.9169 34.508 45.0067 35.4083 45.8652C35.5068 45.9446 35.6065 46.0227 35.7097 46.0965C36.0926 46.4375 36.68 46.6568 37.0385 46.959C37.0385 46.964 37.0362 46.9702 37.0325 46.9765L37.0407 46.984V46.984L37.049 46.9921L37.1737 47.0533C37.2104 47.0852 37.2434 47.1208 37.2727 47.1602C37.3039 47.1971 37.3313 47.2377 37.3546 47.2808C37.3662 47.3333 37.3406 47.3552 37.2917 47.3327C37.2702 47.3252 37.2489 47.3165 37.2275 47.3083C37.2287 47.3102 37.2293 47.3115 37.2305 47.3127C37.2376 47.3236 37.285 47.4361 37.2303 47.4178L37.2238 47.4152C37.1938 47.404 37.1639 47.3915 37.1346 47.3796C37.1694 47.424 37.2011 47.4721 37.2293 47.5127C37.2593 47.5446 37.2775 47.5821 37.2849 47.6246C37.2837 47.6483 37.2709 47.6583 37.2477 47.6552C37.2122 47.6433 37.1774 47.6308 37.1425 47.6177L37.1524 47.6371C37.177 47.6867 37.2121 47.7699 37.1499 47.7421C37.0966 47.7252 37.0453 47.7058 36.994 47.6846C36.9896 47.6933 36.9811 47.6965 36.964 47.6883C36.8008 47.629 36.6431 47.5565 36.4922 47.4708C36.3595 47.3721 36.2256 47.2752 36.0924 47.1771C35.967 47.1002 35.846 47.0146 35.7305 46.9183C34.9576 46.4078 34.2808 45.7593 33.744 45.0371C32.8461 45.8322 31.051 45.0726 29.9405 44.4502C28.9583 43.894 28.5722 42.8655 28.4724 41.7566C28.2649 40.2637 27.0717 39.7527 27.1547 36.4771C27.1529 36.4777 27.151 36.4777 27.1486 36.4777C27.1052 36.4646 27.0631 36.4471 27.0233 36.4246C26.9824 36.4046 26.9439 36.3808 26.9077 36.3521L26.8631 36.289V36.289C26.84 36.2758 26.8192 36.2621 26.8033 36.2483L26.795 36.2592C26.7689 36.2914 26.7865 36.243 26.788 36.2333L26.7105 36.1256C26.5267 35.869 26.325 35.5811 26.1608 35.3508L26.1556 35.3602C26.1519 35.3673 26.1499 35.3724 26.1517 35.3746C25.7608 34.8003 25.3932 34.1067 25.2911 33.4352C25.1705 32.918 25.2176 32.385 25.3228 31.9058C25.7738 30.228 27.2513 26.4313 29.1914 24.804ZM39.7994 48.0073L39.7749 47.985L39.7965 48.0126C39.8077 48.0268 39.8193 48.0396 39.8381 48.0527C39.8369 48.0483 39.8369 48.044 39.8374 48.039C39.825 48.0292 39.8122 48.0186 39.7994 48.0073ZM43.2299 22.1021C40.3626 21.85 37.5425 22.4959 34.8065 23.2777L34.6177 23.3332C33.062 23.7871 31.4169 24.1955 30.1022 25.1671C28.2653 26.6057 27.3168 28.8942 26.489 31.0071C25.7662 32.577 26.1357 34.3472 27.225 35.4433C27.3383 34.354 27.5315 33.2966 27.8335 32.2477C27.8965 32.0838 27.8488 32.0301 27.9846 32.0087C28.1898 34.8355 27.1794 36.924 29.1788 40.2741C30.0464 41.8548 29.0421 43.0115 31.492 43.8433L31.5583 43.8692C32.0687 44.0661 32.626 44.2216 33.126 44.1115L33.0812 44.037C33.0355 43.9603 33.0216 43.923 33.0881 43.8902C33.0863 43.8865 33.0838 43.8827 33.0813 43.8783C33.0276 43.7746 32.9756 43.6696 32.9261 43.5633C32.906 43.5702 32.8858 43.5752 32.865 43.5808C32.8785 43.6065 32.8802 43.6321 32.8424 43.6408C32.7077 43.6881 32.5694 43.707 32.4278 43.6982L32.3974 43.6958C32.2374 43.6858 32.1366 43.656 32.0465 43.6283C32.0166 43.6233 31.9866 43.6183 31.9572 43.6121C31.6672 43.5463 31.3602 43.3791 31.1615 43.2133C28.8963 41.8978 29.1304 37.4198 31.9225 36.9965C31.9797 34.177 33.2913 29.4202 35.4679 26.7335C37.4354 24.2622 42.8067 23.1911 46.5436 23.5688C46.5981 23.5872 46.6525 23.6058 46.707 23.6247C47.2835 23.677 47.833 23.9397 48.4099 24.0617C47.9957 23.7442 47.5258 23.5328 47.0417 23.3531C46.0773 22.7499 44.9717 22.4235 43.9035 22.1933C43.6822 22.1377 43.4579 22.1071 43.2299 22.1021ZM31.7947 39.2615C31.9448 39.1781 31.9276 39.2586 31.9622 39.2352C33.042 39.1451 34.2064 40.1118 34.81 40.9177C34.7623 40.9683 34.6333 40.8183 34.6107 40.7946C34.6076 40.7977 34.604 40.8002 34.6003 40.8015L34.6171 40.8257C34.8618 41.1847 34.3768 40.7623 34.3314 40.6752C34.3234 40.6796 34.3155 40.6821 34.3063 40.6802C34.3447 40.7188 34.4622 40.8193 34.4823 40.8908L34.5135 40.9173C34.807 41.1744 34.7826 41.3677 34.4494 41.0027C34.4573 41.0196 34.4603 41.0352 34.4548 41.0477L34.4663 41.0555C34.6302 41.1726 34.7649 41.499 34.4224 41.164C34.4581 41.4087 34.083 40.9356 34.071 40.939C33.4219 40.418 32.4664 39.9114 31.6523 39.8433L31.6242 39.84C31.4748 39.8204 31.4042 39.7751 31.4567 39.6752C31.2727 39.6305 31.3158 39.5378 31.4029 39.5408C31.2731 39.4536 31.3899 39.3701 31.4652 39.4027C31.4134 39.2561 31.6211 39.3538 31.64 39.3333C31.7478 39.1634 31.7768 39.3051 31.7947 39.2615ZM29.5312 30.1771C30.0499 29.9828 31.5818 30.5643 31.4593 31.3345C31.3863 31.5113 31.1458 31.6126 30.9768 31.5128L30.7562 31.3613C30.3724 31.0984 30.0261 30.8679 29.614 30.6386C29.3897 30.5248 29.2931 30.2832 29.5312 30.1771ZM32.482 29.0326L32.2817 28.8994C31.2008 28.176 29.6727 27.08 32.3827 28.2139C32.6916 28.3494 33.1019 28.4295 33.2705 28.7303C33.5352 29.2846 32.8385 29.3218 32.482 29.0326ZM32.6035 25.7871C32.5168 25.4505 33.596 25.8454 33.9102 25.9496L33.9581 25.9681C34.2637 26.0845 34.614 26.1925 34.7968 26.4622C35.011 26.8348 34.5775 26.912 34.309 26.7437C33.7584 26.3758 33.1548 26.0983 32.6035 25.7871ZM35.348 24.2193C34.7405 23.5409 36.3663 24.1908 36.6099 24.3711L36.6168 24.3765C36.7986 24.5073 36.7617 24.789 36.591 24.8718C36.1052 24.8812 35.7478 24.4672 35.348 24.2193ZM38.1124 23.4761C37.1467 22.7664 38.4188 23.1039 38.8607 23.3821C39.1619 23.6536 38.8517 24.1121 38.1124 23.4761Z" fill="black"/>
<path fill-rule="evenodd" clip-rule="evenodd" d="M43.9597 44.9956C43.5488 44.8242 43.1822 44.5383 42.9141 44.1731C42.821 44.0462 42.7968 43.9121 42.8163 43.7895C42.8383 43.6516 42.9181 43.5266 43.0269 43.4428C43.1361 43.3587 43.2726 43.3172 43.4046 43.3384C43.5192 43.3567 43.6334 43.4209 43.7238 43.5541L43.7426 43.5807C43.902 43.8012 44.1096 43.982 44.3463 44.0986C44.5743 44.211 44.8293 44.2634 45.0933 44.2329C45.596 44.1749 45.9424 43.8969 46.3107 43.5194C46.3563 43.4717 46.402 43.4226 46.4479 43.3726C46.4769 43.3274 46.5171 43.2983 46.5618 43.283C46.6114 43.2661 46.6675 43.267 46.7188 43.2854C46.7684 43.303 46.8127 43.3365 46.8424 43.3811C46.8706 43.4235 46.8866 43.4759 46.8814 43.5361C46.8477 43.9273 46.6477 44.2764 46.3636 44.5506C46.048 44.855 45.6298 45.0657 45.236 45.1395C44.8021 45.2209 44.36 45.1626 43.9597 44.9956V44.9956ZM45.4406 38.9607C45.9022 39.2476 46.6055 39.9165 46.1089 40.6277C45.5245 41.2548 44.6829 40.5358 44.2682 40.2106C43.8837 39.9586 43.4517 40.6068 43.8084 40.901C46.805 43.1695 48.0211 39.0357 45.6741 38.6234C45.4157 38.5779 45.3197 38.8719 45.4406 38.9607ZM40.0708 36.3219C40.1218 35.6746 41.0859 35.5276 41.1818 36.1681C41.2676 36.7419 41.1665 37.2689 40.9138 37.7855C40.6723 38.279 40.0653 38.0488 40.0194 37.5994C39.9578 36.997 40.039 36.7245 40.0708 36.3219ZM47.4096 36.0353C47.544 35.8553 47.7381 35.7324 47.9706 35.8019C48.6971 36.0189 48.483 37.0735 48.2278 37.5868C48.0892 37.8656 47.6411 37.9363 47.4386 37.6908C47.1085 37.2906 46.9504 36.4913 47.3701 36.097C47.3814 36.0766 47.3941 36.0561 47.4096 36.0353ZM40.9036 33.4896L41.0183 33.4691C41.3733 33.4063 41.8147 33.346 42.0658 33.6378C42.199 33.7926 42.2449 34.0802 42.0658 34.2283C41.7509 34.4889 41.4028 34.3879 41.0254 34.41C40.7144 34.4283 40.4155 34.4809 40.1159 34.5684C39.4587 34.7605 38.9232 35.1111 38.3619 35.4961C38.2882 35.5466 38.213 35.4503 38.2482 35.3799C38.5722 34.7309 39.2001 34.1979 39.8291 33.8729C40.1648 33.6995 40.5322 33.5556 40.9036 33.4896ZM46.7474 33.1989L46.8352 33.2173C47.791 33.4216 49.0329 33.8297 49.4855 34.7897C49.5027 34.9254 49.4845 34.9545 49.4697 34.9735L49.4648 34.9798C49.4526 34.9961 49.4428 35.0184 49.3853 35.0369C49.3693 35.033 49.3532 35.0289 49.3369 35.0245C49.1294 34.9689 48.9652 34.8923 48.8063 34.8129L48.634 34.7261C48.4341 34.6258 48.2324 34.5293 48.0187 34.458C47.5626 34.3058 47.0934 34.1987 46.617 34.1415C46.5137 34.1291 46.4143 34.0934 46.3358 34.0324C46.2614 33.9744 46.2045 33.8941 46.1786 33.7874C46.145 33.6494 46.1546 33.5449 46.2271 33.4203C46.2815 33.3268 46.3595 33.2619 46.449 33.2247C46.5402 33.1867 46.6441 33.1778 46.7474 33.1989Z" fill="black"/>
</svg>
