<svg width="84" height="74" viewBox="0 0 84 74" fill="none" xmlns="http://www.w3.org/2000/svg">
<path fill-rule="evenodd" clip-rule="evenodd" d="M40.947 70.0195C47.6621 71.0683 54.499 71.1211 61.2699 70.7402C63.9496 70.5339 66.6375 70.4968 69.315 70.7605C70.8971 70.8815 77.834 71.4267 78.4008 69.9696C78.0441 62.2105 77.3216 54.3853 75.1053 46.923C74.1938 44.2733 73.411 42.0741 71.632 39.8814C71.0713 39.2827 69.8622 38.0271 69.1694 37.6176C68.5692 37.2629 68.3183 37.3895 67.9736 36.7903C67.6311 36.1285 67.3785 35.0231 66.8922 34.5561C66.3971 34.0805 65.6633 34.2507 64.7538 34.4038C64.9209 32.082 63.8786 31.4906 62.4427 31.0491C59.9187 30.0586 57.426 30.5562 56.7908 33.7156C55.6129 33.7156 54.9513 34.2368 54.236 34.7376C53.9436 34.9423 54.147 35.4639 53.7978 35.6248C53.1516 35.8614 52.0097 35.8035 51.3875 36.0946C48.5583 37.4186 46.0384 39.3385 44.3835 42.1424C40.6735 48.1289 38.125 60.7395 38.566 67.8348C38.3728 68.1464 38.64 68.5932 38.7079 68.9282C38.7936 69.2196 39.0712 69.4135 39.361 69.3804C39.7653 69.8274 40.3906 69.927 40.947 70.0195Z" fill="white"/>
<path fill-rule="evenodd" clip-rule="evenodd" d="M68.7417 37.4423C68.7004 37.4187 68.7367 37.3581 68.7781 37.3782C70.7696 38.3388 72.2974 40.0242 73.3723 41.9716C74.4855 43.988 75.1199 46.2774 75.6668 48.5151L75.6866 48.5959C76.2698 50.9897 76.7657 53.4081 77.2122 55.8325C77.6643 58.2876 78.0273 60.7579 78.3192 63.2384C78.4636 64.4649 78.5924 65.6935 78.6928 66.9246C78.743 67.5398 78.7886 68.1555 78.8295 68.7714C78.8459 69.0178 78.8613 69.2641 78.8745 69.5107L78.884 69.6956C78.8922 69.8634 78.9116 70.0316 78.8713 70.1971C78.8365 70.3397 78.763 70.4689 78.6984 70.5998C78.5706 70.8587 78.2204 70.8161 78.0827 70.5998L78.0427 70.5369C77.9514 70.3917 77.8755 70.2569 77.8468 70.0763C77.8191 69.9014 77.8181 69.7181 77.8057 69.5415C77.7828 69.2165 77.7633 68.8912 77.7411 68.5661C77.6945 67.8818 77.6421 67.1978 77.5841 66.5144C77.4695 65.1653 77.3465 63.8174 77.1954 62.472C76.927 60.0809 76.5902 57.6961 76.1931 55.3241C75.8052 53.0069 75.3147 50.7132 74.8031 48.4224L74.7501 48.1854C73.8542 44.1858 72.4735 39.5798 68.7417 37.4423ZM47.5297 53.1039C47.5443 53.0639 47.6073 53.0547 47.618 53.1039C47.7521 53.725 47.7654 54.3647 47.7859 55.0006C47.8061 55.6278 47.8053 56.2579 47.7964 56.8856C47.7636 59.1922 47.702 61.497 47.6488 63.8033C47.6221 64.9569 47.5972 66.1107 47.578 67.2645C47.5707 67.6972 47.5647 68.1299 47.5596 68.5627L47.5534 69.1334C47.5503 69.3858 47.5439 69.635 47.5139 69.8871C47.4942 70.0529 47.4522 70.2111 47.3631 70.3532C47.3 70.4541 47.2099 70.5053 47.1222 70.5738L47.1057 70.5869C46.9938 70.6779 46.8759 70.6785 46.765 70.5869L46.7328 70.5607C46.6269 70.4756 46.5354 70.409 46.4678 70.2743C46.3737 70.0871 46.3586 69.8837 46.3427 69.6773C46.3184 69.3644 46.3345 69.0469 46.3376 68.7331C46.3439 68.1037 46.3524 67.4743 46.3631 66.8449C46.4025 64.5367 46.4805 62.2281 46.6225 59.9241C46.6894 58.8388 46.7801 57.75 46.9018 56.6692L46.925 56.4666C46.9619 56.1486 46.9955 55.8249 47.0335 55.5002C46.4672 55.0906 45.9694 54.5937 45.545 54.03C45.5137 53.9885 45.5652 53.9303 45.6029 53.9704C46.0366 54.4322 46.5339 54.8003 47.0845 55.0898C47.1747 54.4101 47.2987 53.734 47.5297 53.1039ZM56.9899 32.5289C56.9977 32.5227 57.0098 32.52 57.0172 32.5289C57.1389 32.6748 57.1142 32.8979 57.1182 33.0828L57.1186 33.1C57.1273 33.3704 57.129 33.6399 57.1281 33.9104L57.1254 34.7714C57.125 34.8898 57.1157 35.013 57.1216 35.1321L57.1247 35.1782C57.1886 35.2455 57.2183 35.3428 57.1966 35.4406C57.1927 35.5659 57.129 35.6705 57.036 35.7363L57.2353 36.027L57.4348 36.3176C57.8459 36.9172 58.2616 37.5115 58.6948 38.0946C59.1365 38.6891 59.6077 39.2613 60.1009 39.8114C60.3418 40.0802 60.5868 40.3452 60.8375 40.6044C60.9394 40.7097 61.0438 40.8124 61.1471 40.9163L61.2499 41.0207C61.3106 41.0831 61.3869 41.1448 61.4272 41.2239C61.4509 41.2706 61.4563 41.3856 61.4648 41.4046C61.5409 41.5766 61.4111 41.8507 61.1954 41.7649L61.2052 41.7582C61.2445 41.7302 61.2193 41.7298 61.1297 41.7571C61.0731 41.7569 61.0201 41.7435 60.9706 41.717L60.9559 41.7087C60.8861 41.6722 60.8238 41.6017 60.7672 41.5453L60.7531 41.5315C60.6236 41.4066 60.5 41.2743 60.3759 41.1438C60.1166 40.8715 59.8633 40.5934 59.618 40.3079C59.1287 39.7383 58.6648 39.1455 58.2255 38.5344C57.778 37.9119 57.3621 37.2575 57.0044 36.5762C56.8687 36.3177 56.7442 36.0541 56.6249 35.7876C56.3927 35.7109 56.3388 35.457 56.355 35.1709C56.2693 34.9657 56.1921 34.7563 56.1464 34.5423C56.1402 34.513 56.1769 34.4854 56.1988 34.511C56.2731 34.5978 56.3419 34.6902 56.408 34.7849C56.4478 34.5843 56.4983 34.3997 56.5221 34.282L56.625 33.7626C56.0449 33.7315 55.4092 33.9766 55.0092 34.4057C54.9877 34.5174 54.9041 34.5974 54.8226 34.7018C54.7295 34.8212 54.6482 34.9552 54.5876 35.0953C54.4532 35.4058 54.529 35.8635 54.2682 36.0914C54.241 36.1151 54.2106 36.1316 54.1793 36.1418C54.3031 36.7659 54.2469 37.4535 54.2442 38.0867L54.2441 38.1424C54.2447 38.851 54.2217 39.5602 54.1951 40.2682L54.168 40.9689C54.1329 41.9035 54.1101 42.8385 54.1984 43.7679C54.6016 43.4006 55.0186 43.0502 55.4499 42.7163C55.7335 42.4967 56.0227 42.2849 56.3173 42.0811L56.5566 41.9167C56.8433 41.7189 57.1371 41.5155 57.4511 41.3739C57.8617 41.1887 58.2523 41.2524 58.6488 41.4423C59.0436 41.6314 59.4267 41.8511 59.814 42.0562C60.2079 42.2646 60.6027 42.4713 60.9972 42.6786C61.2585 42.8159 61.6414 42.9398 61.8331 43.1926C61.8453 43.1366 61.8596 43.0809 61.8762 43.0253C61.8572 42.9406 61.8645 42.8491 61.9108 42.7618C62.5548 41.545 63.1507 40.2991 63.7424 39.0547C64.0419 38.4249 64.3266 37.7877 64.6267 37.1584L64.9184 36.5454C64.9672 36.4433 65.016 36.3412 65.0652 36.2393C65.1388 36.0868 65.2154 35.9358 65.2899 35.7836C65.3213 35.7193 65.3607 35.6554 65.3914 35.5906L65.4059 35.558C65.4066 35.5563 65.4773 35.3278 65.4227 35.3496L65.418 35.3519C65.3901 35.3681 65.3678 35.3321 65.3858 35.3091C65.463 35.2109 65.5706 35.2979 65.6146 35.3887C65.736 35.6388 65.5136 36.0312 65.428 36.2707L65.4233 36.2841C65.1579 37.0567 64.8573 37.8149 64.5493 38.5704C63.9588 40.019 63.3244 41.4453 62.6914 42.8741L62.6839 42.8986C62.8189 42.7922 62.963 42.6957 63.0864 42.6017C63.3977 42.3646 63.7182 42.1391 64.0381 41.9144C64.6248 41.5022 65.2273 41.1172 65.8399 40.7474L65.9625 40.6737C66.2685 40.4904 66.5716 40.3418 66.9348 40.3968C67.2722 40.4479 67.5859 40.6343 67.8907 40.7857L67.9222 40.8012L68.8641 41.2617C68.7635 40.8488 68.6544 40.4379 68.5407 40.0286C68.3188 39.2301 68.0747 38.4384 67.81 37.6537C67.5628 36.9206 67.2955 36.1955 67.0129 35.4761L66.9277 35.2602C66.8125 34.964 66.6979 34.641 66.3684 34.5498C66.0392 34.4587 65.6616 34.5939 65.3607 34.4009C65.3333 34.3833 65.3367 34.337 65.3699 34.3284L65.5556 34.2803C65.9042 34.1911 66.3128 34.1014 66.6425 34.1882C67.0012 34.2827 67.298 34.5922 67.472 34.914C67.6655 35.272 67.802 35.6727 67.9488 36.0544L67.9721 36.1146C68.1406 36.5466 68.3028 36.9812 68.4579 37.4186C68.768 38.2927 69.0504 39.1775 69.3059 40.0701C69.4291 40.5004 69.5459 40.9327 69.6582 41.366C69.6905 41.4906 69.7437 41.6417 69.7874 41.7993C69.8375 41.8496 69.8849 41.9056 69.9293 41.9695C70.0031 42.0755 69.9502 42.1998 69.8585 42.2633C69.8549 42.3717 69.8315 42.4738 69.7755 42.5612C69.5568 42.9026 68.9786 42.8146 69.002 42.3557C69.0056 42.2854 69.0322 42.2184 69.0725 42.1617L69.0714 42.1525L69.0668 42.1357C68.9664 42.0862 68.8656 42.0311 68.7594 41.9771L67.7709 41.4749C67.4846 41.3294 67.1672 41.1046 66.8489 41.0491C66.5521 40.9975 66.2389 41.2249 65.9839 41.3621L65.9673 41.3709C65.3508 41.6958 64.7388 42.0315 64.1293 42.37C63.8317 42.5353 63.538 42.7074 63.2416 42.8746C62.9937 43.0145 62.7263 43.2152 62.4477 43.2941C62.3287 43.3893 62.1873 43.3765 62.0737 43.3046C62.1257 43.6352 62.1225 43.9745 62.1384 44.3125C62.1598 44.7643 62.1631 45.2174 62.1702 45.6699L62.173 45.8396C62.1918 46.8399 62.2018 47.8404 62.2055 48.8409C62.2186 52.4037 62.1803 55.9675 62.1714 59.5302C62.1669 61.3202 62.1324 63.1118 62.0872 64.9011C62.068 65.6594 62.0279 66.4167 61.9846 67.1737L61.9608 67.5867C61.9103 68.4579 61.8806 69.3389 61.7237 70.1984C61.7033 70.3105 61.5187 70.3134 61.5006 70.1984C61.3563 69.2774 61.3482 68.3361 61.3205 67.4043L61.3146 67.2181C61.2813 66.2176 61.2654 65.2177 61.2688 64.2166C61.2812 60.6525 61.3713 57.0905 61.445 53.5274C61.482 51.7371 61.507 49.9461 61.5645 48.1564C61.5933 47.2609 61.6259 46.366 61.6645 45.4709C61.6818 45.0712 61.6984 44.672 61.7242 44.2729L61.7359 44.1019C61.7439 43.9903 61.7504 43.8801 61.7582 43.7709C61.4075 43.9026 61.0868 43.6588 60.7713 43.4919C60.4077 43.2996 60.0443 43.1069 59.6805 42.915L59.3165 42.7233L58.5879 42.3411C58.2599 42.169 58.0072 41.9977 57.6573 42.1996C56.3968 42.9267 55.2385 43.8942 54.1888 44.9095C53.9876 45.1042 53.5622 45.0519 53.5112 44.7256C53.2934 43.3315 53.4259 41.9173 53.5371 40.5191L53.5781 39.9999C53.6278 39.3799 53.6819 38.7599 53.7539 38.1424C53.7862 37.8661 53.8183 37.5901 53.8538 37.3144L53.8812 37.1077C53.9256 36.7809 53.9546 36.456 54.0492 36.1426C54.0194 36.1327 53.9906 36.1164 53.9649 36.0914C53.6803 35.8137 53.8175 35.3318 53.9474 35.0015C54.0757 34.6754 54.2712 34.3909 54.5161 34.1459C54.5696 34.0924 54.6449 34.058 54.7205 34.0562C55.3143 33.6517 55.9658 33.4498 56.6438 33.6706C56.6628 33.577 56.6822 33.4835 56.7027 33.3903L56.7235 33.2971C56.7762 33.0658 56.7958 32.6836 56.9899 32.5289ZM63.0759 69.062C63.2602 69.0099 63.4619 69.0648 63.597 69.2037C63.7319 69.3425 63.7854 69.5499 63.7346 69.7394C63.7092 69.8327 63.6633 69.9137 63.597 69.9824C63.5349 70.0458 63.4625 70.091 63.3799 70.1181L63.3606 70.124L63.3305 70.1369C63.2381 70.1624 63.1457 70.1624 63.0534 70.1369C62.9651 70.1114 62.8885 70.0655 62.8234 69.9991C62.7588 69.9322 62.7141 69.8534 62.6893 69.7626C62.6645 69.6676 62.6645 69.5726 62.6893 69.4776L62.7019 69.4467C62.7273 69.3534 62.7732 69.2723 62.8396 69.2037C62.9064 69.1355 62.9852 69.0882 63.0759 69.062ZM74.0173 50.1808C74.0476 50.1451 74.0967 50.1909 74.0779 50.2289C73.7908 50.8074 73.4709 51.3819 73.1565 51.9458C73.1817 52.1021 73.2067 52.2571 73.2354 52.4082C73.3579 53.0523 73.5079 53.6847 73.6058 54.3349C73.9573 56.672 74.1398 59.0345 74.2965 61.3926C74.4535 63.7592 74.4736 66.1268 74.4972 68.498C74.4993 68.7035 74.3455 68.9423 74.1395 68.9811C74.0452 68.9988 73.9747 68.9954 73.8805 68.9811C73.6662 68.9486 73.532 68.6961 73.5228 68.498C73.4614 67.1728 73.3787 65.8492 73.2829 64.526C73.113 62.1802 73.0093 59.8282 72.8721 57.48L72.8238 56.6592C72.7719 55.7699 72.7245 54.88 72.709 53.9894C72.6988 53.3993 72.7294 52.8094 72.7106 52.2201C72.6932 51.6759 72.6395 51.0843 72.7562 50.5497C72.7605 50.5296 72.7913 50.5246 72.8002 50.5438C72.9215 50.8063 72.9983 51.0917 73.0575 51.3831C73.3701 50.9765 73.6885 50.5691 74.0173 50.1808ZM53.5399 35.8076C53.5838 35.8043 53.582 35.8721 53.5399 35.8771C52.9264 35.9503 52.3337 36.207 51.7544 36.4252L51.7048 36.4438C51.1196 36.6621 50.549 36.916 49.9999 37.2187C48.9263 37.8104 47.9405 38.5734 47.0688 39.4468C43.5888 42.9337 42.0029 47.9618 40.8408 52.687C40.1951 55.3123 39.7359 57.982 39.4383 60.6721C39.2912 62.0025 39.1872 63.338 39.1265 64.6756C39.0955 65.3611 39.0759 66.0472 39.0677 66.7334C39.0635 67.0849 39.0623 67.4364 39.0627 67.7879C39.0629 67.949 39.0908 68.1518 39.0489 68.3082C39.0101 68.4531 38.9005 68.5807 38.8194 68.7014C38.7234 68.8446 38.5507 68.8371 38.4533 68.7014L38.4174 68.652C38.3135 68.5103 38.2119 68.3748 38.197 68.1897C38.1812 67.9911 38.1924 67.7865 38.1916 67.5871C38.19 67.1853 38.1948 66.7835 38.2026 66.3819C38.2177 65.6121 38.2472 64.8425 38.2911 64.0738C38.3801 62.5139 38.5266 60.9571 38.7364 59.4094C39.1094 56.6583 39.6684 53.9336 40.4006 51.2601C41.0915 48.738 41.9098 46.2233 43.0757 43.8871C44.1582 41.718 45.5782 39.7001 47.4521 38.1842C48.3234 37.4792 49.272 36.8917 50.2947 36.4493C50.8105 36.2261 51.3522 36.0439 51.903 35.9401C52.4477 35.8374 52.9901 35.8517 53.5399 35.8076ZM63.1815 64.6041C63.2788 64.6033 63.3873 64.6253 63.4708 64.6806L63.5823 64.7693C63.6126 64.8092 63.6426 64.8492 63.6726 64.8894C63.7423 64.9829 63.7516 65.1341 63.737 65.2454C63.7338 65.3198 63.7123 65.3889 63.6726 65.453L63.5877 65.5661C63.5061 65.6345 63.438 65.6834 63.3392 65.7163C63.2875 65.7335 63.2377 65.7371 63.1881 65.7345L63.1716 65.7334L63.1815 65.7348L63.1641 65.7327C63.148 65.7313 63.1318 65.7295 63.1156 65.7272C63.1045 65.7258 63.0934 65.725 63.0824 65.7234C63.0717 65.7225 63.0614 65.7221 63.0507 65.7231C62.9251 65.7352 62.7988 65.662 62.7096 65.5778C62.6293 65.502 62.5572 65.3412 62.5684 65.2272L62.5732 65.1795C62.5816 65.0991 62.5886 65.0675 62.6217 64.9868C62.6539 64.9082 62.6988 64.8389 62.76 64.7804C62.8772 64.6683 63.0207 64.6052 63.1815 64.6041ZM62.7927 58.7224C62.9594 58.5355 63.2458 58.5218 63.4525 58.6348C63.5029 58.6624 63.5492 58.7066 63.5936 58.7435C63.7055 58.8365 63.7494 59.0044 63.7556 59.1457C63.7617 59.2855 63.69 59.4515 63.5936 59.5481L63.5702 59.5714C63.5126 59.629 63.43 59.6791 63.3494 59.6943C63.2194 59.7189 63.1103 59.7181 62.9892 59.6656C62.8852 59.6205 62.7956 59.548 62.7346 59.4495L62.7247 59.4329C62.7205 59.426 62.7166 59.419 62.7129 59.4118L62.7075 59.4009C62.5916 59.1718 62.6228 58.9126 62.7927 58.7224ZM62.879 52.8097C62.9542 52.7855 63.0294 52.782 63.1046 52.7994C63.1556 52.7995 63.2032 52.8127 63.2473 52.839C63.2952 52.8528 63.3368 52.8777 63.3721 52.9138C63.4146 52.9396 63.4484 52.9744 63.4736 53.0181C63.5236 53.0743 63.5573 53.1402 63.5748 53.2159L63.595 53.3705L63.5748 53.5251L63.5178 53.6641C63.5021 53.6851 63.4863 53.7062 63.4704 53.7271C63.4452 53.7709 63.4113 53.8058 63.3687 53.8317C63.341 53.8601 63.3092 53.8813 63.2737 53.896C63.1477 53.9888 62.98 54.0191 62.8308 53.9768C62.7422 53.9513 62.6652 53.9052 62.6 53.8385C62.5352 53.7714 62.4903 53.6923 62.4655 53.6012L62.4553 53.5285C62.4421 53.4309 62.44 53.3769 62.4669 53.2528C62.4787 53.1983 62.5129 53.1214 62.5307 53.089C62.6072 52.9507 62.7322 52.856 62.879 52.8097ZM69.4085 48.556C69.6244 48.5544 69.8403 48.5548 70.0562 48.5573L70.2181 48.5595C70.4892 48.5639 70.7215 48.5352 70.9346 48.7286C71.0893 48.869 71.0212 49.1045 70.8743 49.2102C70.6518 49.3704 70.3727 49.2898 70.1169 49.2722C69.8472 49.2536 69.5773 49.2382 69.3072 49.2257C68.7843 49.2016 68.2612 49.1863 67.7378 49.1839C67.2155 49.1817 66.6925 49.1867 66.1703 49.1954C65.6389 49.2043 65.0856 49.2552 64.5573 49.1986C64.4847 49.1909 64.4683 49.0927 64.54 49.0672C65.0379 48.8901 65.598 48.8327 66.1198 48.765C66.658 48.695 67.1962 48.6456 67.7378 48.6135C68.2941 48.5807 68.8512 48.56 69.4085 48.556ZM62.878 46.8164L62.8959 46.8167C62.9909 46.817 63.0798 46.84 63.1628 46.8857L63.1805 46.8958L63.2946 46.9864C63.3644 47.0588 63.4128 47.1441 63.4395 47.2423L63.4597 47.3964C63.4626 47.4762 63.4464 47.5506 63.4111 47.6198C63.3884 47.6917 63.3495 47.7538 63.2946 47.8064C63.2435 47.8629 63.183 47.9028 63.1131 47.9262C63.0511 47.9597 62.9846 47.9765 62.9137 47.9765L62.8959 47.9762C62.7941 47.9758 62.6993 47.9494 62.6114 47.897L62.4972 47.8064C62.4273 47.734 62.379 47.6487 62.3523 47.5505L62.3321 47.3964C62.3292 47.3166 62.3453 47.2421 62.3807 47.1731C62.4034 47.1012 62.4423 47.039 62.4972 46.9864C62.5483 46.9299 62.6087 46.89 62.6787 46.8666C62.7407 46.8331 62.8071 46.8163 62.878 46.8164V46.8164ZM64.5495 33.1976C64.6709 33.0167 64.8911 33.1776 64.8596 33.3231C64.8679 33.7316 64.8882 34.128 64.9786 34.5282C65.02 34.7114 65.0742 34.8948 65.1579 35.0626L65.193 35.1332C65.3012 35.3531 65.3853 35.5605 65.2395 35.8018C65.1708 35.9155 65.0466 36.0009 64.912 35.995C64.315 35.9685 64.2329 35.114 64.1966 34.637C64.1592 34.1457 64.2756 33.6058 64.5495 33.1976Z" fill="black"/>
<path fill-rule="evenodd" clip-rule="evenodd" d="M71.5971 13.5832C69.7532 10.9707 66.358 10.2194 63.4138 10.8548C57.6578 11.9349 52.1585 16.4554 51.1415 22.6032C49.5547 26.3225 50.568 32.1808 55.1826 32.6185C55.8396 32.6566 56.4903 32.5009 57.1485 32.585C61.1653 33.2455 65.9119 36.0728 69.4676 32.7385C69.6458 32.87 69.8805 32.9335 70.0804 32.854C71.5938 32.2519 71.6649 30.5103 71.7939 29.0786C71.9606 27.2287 72.1169 25.3778 72.2627 23.5261C72.3148 20.3329 73.5444 16.3425 71.5971 13.5832V13.5832Z" fill="white"/>
<path fill-rule="evenodd" clip-rule="evenodd" d="M60.4369 6.92627C62.8603 6.79365 67.3255 7.93626 69.4397 9.27586C72.8845 11.4585 73.1515 15.8123 73.011 16.5651C72.9576 16.8524 72.787 17.1183 72.5201 17.0299C72.7465 19.0079 72.7287 20.1385 72.7668 22.1279L72.7929 23.456C72.8099 24.3415 72.8245 25.2271 72.8281 26.1129C72.9153 26.0795 73.0012 26.1205 73.0331 26.2065C73.041 26.2273 73.0134 26.2387 72.9999 26.2267C72.8465 26.0889 72.9557 26.4028 73.0085 26.4667C73.0815 26.5544 73.203 26.6372 73.2883 26.7123L73.5199 26.9188L73.7515 27.1247C74.0507 27.3905 74.3401 27.6567 74.6192 27.943L74.6951 28.0216C75.2037 28.5533 75.8411 29.068 76.1577 29.7558C76.4602 30.4126 76.3669 31.1572 75.8644 31.6807C75.6816 31.8708 75.4681 32.0162 75.2362 32.126C75.6491 32.8258 75.7092 33.751 75.2785 34.471C74.8472 35.1935 74.0177 35.5718 73.2189 35.5137C73.1944 35.6167 73.1564 35.7171 73.1061 35.8124C72.7893 36.4116 72.1593 36.4894 71.5618 36.4573L71.5385 36.456C70.1937 36.3764 68.8998 36.0297 67.7218 35.3558C67.3132 35.3843 66.9488 35.0387 66.869 34.6598C66.6543 34.6516 66.4383 34.6333 66.2181 34.6074C65.5647 34.5298 64.8947 34.3851 64.3186 34.0435C64.2303 33.991 64.2714 33.8527 64.3695 33.8501C65.0714 33.8337 65.7739 33.8837 66.4745 33.8054C67.1175 33.7339 67.8028 33.5515 68.4022 33.3033C69.4795 32.8561 70.4035 32.0976 70.9133 31.0467C71.5735 29.6863 71.5134 28.0525 71.5851 26.5747C71.6647 24.9388 71.7626 23.3045 71.8672 21.6703L71.918 20.887C72.0196 19.3601 72.1038 18.5433 72.3612 16.9586C71.5851 17.0299 68.3612 15.8354 67.3586 13.8816C65.4558 18.0381 55.8152 16.337 55.3876 22.7361C55.384 22.7903 55.3005 22.7752 55.2974 22.7234L55.2895 22.5775C55.2856 22.5055 55.2821 22.4345 55.2798 22.3642L55.2778 22.294L55.1263 22.2959C55.1263 22.3154 55.0993 22.3224 55.0925 22.3015C54.9496 21.884 54.2686 22.0185 53.9722 22.1178C53.7054 22.2074 53.4538 22.3451 53.228 22.515C52.7747 22.856 52.4231 23.3152 52.3065 23.8892C52.0851 24.9793 52.7593 26.0896 53.6544 26.6157C54.2189 26.9473 54.8373 27.1614 55.3784 27.5371C55.8564 27.8687 56.3018 28.2571 56.6877 28.6986C58.2166 30.4474 59.116 33.0999 58.3926 35.4083C58.3374 35.5845 58.1914 35.7859 57.9982 35.8143C57.6785 35.8617 57.3589 35.8137 57.1797 35.5005C57.1098 35.3779 57.0766 35.2384 57.084 35.1007C56.9601 35.5389 56.5582 35.9722 56.1877 36.1352C55.6827 36.3575 55.114 36.2911 54.6686 36.0044L54.6123 36.0472C53.888 36.5961 53.0788 37.0963 52.1507 36.9954C51.4783 36.9221 50.8181 36.5697 50.4463 36.0139C49.9519 36.3 49.4236 36.5279 48.8788 36.6833L48.8208 36.6997C48.0713 36.9098 47.1152 37.1024 46.4155 36.6757C45.7437 36.2658 45.5204 35.3709 45.6781 34.6238C45.6971 34.5348 45.721 34.4483 45.7505 34.3643C45.2449 34.392 44.74 34.3422 44.2602 34.1893C43.77 34.0333 43.3025 33.7333 43.0676 33.2471C42.8025 32.6969 42.8731 32.0717 43.0706 31.5115C43.3866 30.6128 43.8946 29.8132 44.5271 29.1167C45.1354 28.4463 45.8691 27.8775 46.6317 27.4034L46.7602 27.3242C47.4467 26.9028 48.2745 26.4089 49.0856 26.4414C49.0831 26.4307 49.0813 26.4205 49.08 26.4098C48.9573 25.4795 48.9714 24.5309 48.9426 23.5931C48.9162 22.7304 48.8862 21.8677 48.8665 21.0043C48.8346 19.5365 48.8451 18.0625 49.031 16.6049C49.196 15.3115 49.4929 14.0502 50.0347 12.866C50.6034 11.6219 51.4599 10.5603 52.5176 9.72534C54.7373 7.97276 57.6693 7.07785 60.4369 6.92627ZM52.8974 24.1659C53.1391 23.6966 53.6894 23.5488 54.1722 23.6335C54.849 23.7522 55.3091 24.3611 55.7042 24.8846C56.1189 25.4334 55.2539 25.9507 55.0312 25.4189L54.9784 25.2933C54.7997 24.8716 54.5885 24.427 54.2238 24.152C53.836 23.8602 53.2888 23.8173 52.9464 24.205C52.9219 24.2334 52.8808 24.1968 52.8974 24.1659Z" fill="black"/>
<path fill-rule="evenodd" clip-rule="evenodd" d="M65.4972 30.4005C65.0857 30.2271 64.7186 29.9379 64.4501 29.5683C64.3568 29.4399 64.3326 29.3042 64.3522 29.1801C64.3742 29.0406 64.4541 28.9142 64.5631 28.8294C64.6724 28.7443 64.8091 28.7023 64.9413 28.7237C65.0561 28.7423 65.1704 28.8073 65.2609 28.942L65.2798 28.9689C65.4394 29.192 65.6474 29.375 65.8843 29.4929C66.1127 29.6066 66.3681 29.6597 66.6324 29.6288C67.1358 29.5701 67.4828 29.2888 67.8516 28.9069C67.8973 28.8587 67.943 28.8089 67.989 28.7584C68.018 28.7126 68.0583 28.6832 68.103 28.6677C68.1527 28.6506 68.2088 28.6515 68.2603 28.6701C68.3099 28.688 68.3543 28.7219 68.384 28.767C68.4123 28.8099 68.4283 28.8629 68.4231 28.9238C68.3894 29.3196 68.1891 29.6729 67.9045 29.9502C67.5885 30.2583 67.1696 30.4714 66.7753 30.5461C66.3408 30.6285 65.8981 30.5695 65.4972 30.4005ZM66.9802 24.2944C67.4425 24.5847 68.1468 25.2615 67.6495 25.9811C67.0642 26.6156 66.2215 25.8881 65.8062 25.5591C65.4211 25.3041 64.9885 25.9599 65.3457 26.2576C68.3466 28.5528 69.5644 24.3703 67.214 23.9531C66.9552 23.9071 66.8591 24.2046 66.9802 24.2944ZM61.6027 21.6245C61.6537 20.9696 62.6192 20.8209 62.7153 21.4689C62.8013 22.0494 62.7 22.5827 62.4469 23.1054C62.2051 23.6047 61.5972 23.3717 61.5512 22.9171C61.4896 22.3076 61.5709 22.0319 61.6027 21.6245ZM68.952 21.3345C69.0867 21.1524 69.281 21.0281 69.5139 21.0983C70.2414 21.318 70.0269 22.385 69.7714 22.9043C69.6326 23.1864 69.1839 23.2579 68.9811 23.0096C68.6505 22.6046 68.4922 21.7959 68.9124 21.397C68.9238 21.3763 68.9365 21.3555 68.952 21.3345ZM62.4367 18.7588L62.5516 18.738C62.9071 18.6745 63.3491 18.6135 63.6006 18.9088C63.734 19.0653 63.7799 19.3563 63.6006 19.5062C63.2853 19.7699 62.9366 19.6677 62.5587 19.6901C62.2472 19.7085 61.9479 19.7618 61.6479 19.8504C60.9897 20.0447 60.4534 20.3994 59.8913 20.789C59.8176 20.8401 59.7423 20.7426 59.7775 20.6714C60.102 20.0148 60.7308 19.4754 61.3607 19.1467C61.6969 18.9712 62.0647 18.8256 62.4367 18.7588ZM68.2889 18.4647L68.3768 18.4833C69.334 18.69 70.5776 19.1029 71.0309 20.0742C71.0482 20.2115 71.0299 20.241 71.0151 20.2602L71.0102 20.2666C70.9979 20.283 70.9882 20.3056 70.9305 20.3243C70.9145 20.3204 70.8984 20.3162 70.8821 20.3118C70.6743 20.2556 70.5099 20.1781 70.3508 20.0977L70.1782 20.0098C69.978 19.9084 69.776 19.8107 69.562 19.7386C69.1052 19.5847 68.6354 19.4762 68.1583 19.4183C68.0549 19.4058 67.9553 19.3697 67.8767 19.308C67.8022 19.2493 67.7452 19.1681 67.7192 19.0601C67.6856 18.9205 67.6953 18.8147 67.7678 18.6887C67.8224 18.594 67.9004 18.5284 67.9901 18.4908C68.0814 18.4523 68.1855 18.4433 68.2889 18.4647Z" fill="black"/>
<path fill-rule="evenodd" clip-rule="evenodd" d="M48.8959 70.0255C49.9687 69.973 49.5372 68.07 49.4602 67.3711C48.6108 64.8186 48.8105 62.0338 48.4764 59.3583C48.2683 56.8608 48.0009 54.371 47.776 51.8753C47.3342 46.8094 44.1619 36.4965 40.5417 34.838C40.0857 32.8089 38.2021 30.9147 35.819 30.9147C34.1936 28.9637 32.2373 27.5906 29.728 27.8679C28.691 27.9157 27.6854 29.031 26.6918 29.2463C26.1354 29.3241 21.1982 29.1239 20.2092 29.7195C19.5203 30.0782 18.8984 30.7411 19.101 31.5849C19.4242 32.6073 18.4198 31.5011 16.3246 32.5923C12.0523 35.1943 14.6053 38.6752 14.7184 38.783C12.0523 42.5446 9.72198 45.5963 8.64378 50.1941C7.945 53.6076 8.02366 57.1314 7.43818 60.5624C7.23145 61.752 6.91432 62.901 6.57114 64.0563C6.19922 65.5682 6.01837 69.3366 5.81336 69.3703C5.43994 69.4643 6.02918 70.2419 6.42487 70.2425C17.3953 72.0878 28.5386 70.3189 39.568 70.0299C42.6762 69.9203 45.7878 69.895 48.8959 70.0255Z" fill="white"/>
<path fill-rule="evenodd" clip-rule="evenodd" d="M32.2687 39.1151C32.2738 39.0642 32.3415 39.0643 32.3467 39.1151L32.4242 39.8733C32.5184 40.7994 32.6091 41.7236 32.6749 42.6539C32.7569 43.814 32.8117 44.9738 32.8382 46.1365C32.9303 50.186 32.9486 54.2376 32.9564 58.2881C33.4966 58.2502 34.0368 58.2136 34.5773 58.1783C34.944 58.1543 35.3108 58.1312 35.6776 58.1085L36.6128 58.051L36.9978 58.0271C37.258 58.0107 37.5536 57.9443 37.7355 58.178C37.8083 58.2716 37.8449 58.3932 37.777 58.5043C37.6204 58.7604 37.3798 58.7515 37.1078 58.7626C36.8511 58.7731 36.5944 58.7834 36.3377 58.7934C35.7877 58.8151 35.2376 58.8355 34.6874 58.8512C34.11 58.8676 33.5328 58.881 32.9556 58.8909C32.9498 60.6009 32.88 62.3087 32.8046 64.0168L32.7704 64.7854C32.6781 66.8641 32.5788 68.9445 32.4377 71.0204C32.4261 71.1903 32.1891 71.19 32.1776 71.0204C32.0187 68.6826 31.9139 66.3399 31.81 63.999C31.7346 62.3017 31.6907 60.604 31.6699 58.9061C31.5935 58.9066 31.5173 58.9076 31.441 58.9079C29.2745 58.9175 27.1086 58.9271 24.9422 58.9065C24.9458 58.9108 24.9493 58.9151 24.9517 58.9209C25.1085 59.2962 25.1234 59.7751 25.1196 60.1779C25.1152 60.6398 25.0539 61.0961 24.949 61.5453C24.5731 63.1546 23.6035 64.596 22.4993 65.7877L22.4632 65.8264C22.2027 66.1055 21.9039 66.3859 21.744 66.7414C21.5806 67.1044 21.5239 67.5289 21.4433 67.9189L21.4339 67.9638L21.1187 69.4401C21.0186 69.909 20.9901 70.5929 20.6241 70.9312C20.2826 71.2469 19.8302 71.082 19.6695 70.6756C19.544 70.3584 19.669 70.01 19.7433 69.6929L20.3257 67.2105C20.4214 66.8056 20.5259 66.3982 20.7325 66.0345C20.944 65.662 21.2542 65.392 21.5706 65.1157C22.1699 64.5925 22.72 63.9936 23.1852 63.3451C23.6503 62.6968 24.0478 61.9823 24.3265 61.2309C24.4661 60.8547 24.5804 60.4639 24.6593 60.07C24.7343 59.6962 24.7336 59.309 24.8138 58.9392C24.8193 58.9136 24.8406 58.8961 24.865 58.8883C24.8592 58.8718 24.868 58.8496 24.8908 58.8481L26.6626 58.7326C28.2375 58.6296 29.8124 58.5239 31.386 58.4032L31.664 58.3828C31.6424 56.1174 31.6608 53.8515 31.7011 51.5851C31.7381 49.5069 31.7389 47.4281 31.7998 45.3501C31.8301 44.3188 31.8955 43.2899 31.9682 42.2607C32.0426 41.2082 32.1616 40.1645 32.2687 39.1151ZM15.6323 51.1653C15.6134 51.0499 15.7566 50.9784 15.8226 51.0839C16.577 52.2898 16.9408 53.5997 17.0941 55.0108C17.2296 56.2563 17.1897 57.5197 17.1222 58.7684C17.0503 60.1003 16.9663 61.4318 16.8815 62.763L16.7511 64.8043L16.4238 69.9217C16.4004 70.2878 16.3185 70.6206 16.0076 70.7908C15.9683 70.8241 15.9273 70.854 15.8795 70.8799C15.7115 70.9709 15.4888 70.925 15.3917 70.7502L15.4307 70.7762C15.4646 70.7978 15.4265 70.7676 15.3164 70.6856L15.223 70.563C15.1551 70.4595 15.1117 70.3578 15.0943 70.2348C15.0672 70.0437 15.1023 69.8341 15.1146 69.642L15.3291 66.2863C15.4959 63.6776 15.6907 61.0696 15.8376 58.4595C15.9059 57.243 15.9539 56.0254 15.9214 54.8068C15.8891 53.5949 15.8282 52.3625 15.6323 51.1653ZM22.159 28.7017L22.2009 28.6946C23.6994 28.4422 25.3289 28.4894 26.6984 29.2219C26.7097 29.2279 26.7046 29.247 26.6918 29.2465L26.251 29.2286C24.8555 29.1732 23.4644 29.1404 22.0922 29.4729L21.9517 29.5072C21.4576 29.6294 20.9416 29.779 20.5447 30.11C20.1653 30.4263 19.9764 30.9143 19.7948 31.3636L19.7705 31.4229C19.5862 31.8666 19.3529 32.2874 18.949 32.5649C18.4258 32.9242 17.7966 32.8802 17.1966 32.929C16.1404 33.015 15.2768 33.7913 14.8471 34.7412C14.5869 35.3164 14.476 35.9613 14.454 36.5903C14.4427 36.9105 14.4411 37.2433 14.4832 37.5614C14.4966 37.6631 14.6206 38.0337 14.6839 38.0248C14.8244 38.005 14.9528 38.0793 14.9966 38.1932C15.3437 37.8532 15.7007 37.523 16.0693 37.2047C16.9879 36.4113 17.9774 35.6923 19.0195 35.0745C19.8148 34.6029 20.6537 34.1356 21.5224 33.7824C21.4536 33.7809 21.3857 33.7948 21.32 33.8294C21.2912 33.8447 21.2627 33.8081 21.2854 33.7839C21.559 33.4919 21.8867 33.4504 22.2171 33.5282C22.2876 33.5055 22.3582 33.4835 22.429 33.4626C22.4643 33.4522 22.4818 33.5014 22.453 33.5205L22.3719 33.573C22.7323 33.6955 23.0862 33.9361 23.3664 34.1261C24.1712 34.6715 24.8796 35.3382 25.5977 35.9925L25.7282 36.1111C26.3603 36.6834 27.0085 37.2396 27.7266 37.6987C28.1026 37.939 28.4974 38.1613 28.9116 38.3267C29.2668 38.4686 29.8452 38.5579 30.0116 38.9386C30.1594 39.1208 30.0977 39.3533 29.9245 39.4759C29.6324 39.8019 29.048 39.5913 28.7 39.4555C28.2804 39.2918 27.8739 39.0951 27.4862 38.8643C26.7335 38.4162 26.0395 37.8591 25.393 37.2665C24.7178 36.6475 24.0809 35.9899 23.4242 35.3515C23.1397 35.0749 22.8617 34.7918 22.5767 34.5156L22.4336 34.3781C22.2882 34.2398 22.0809 34.0242 21.8594 33.8937C21.442 34.1462 21.0182 34.3883 20.6046 34.6473C20.0272 35.0088 19.4668 35.3963 18.9151 35.7967C17.8529 36.5674 16.8464 37.4306 15.9119 38.3558C14.1982 40.0525 12.7381 41.9901 11.4626 44.0417L11.3658 44.1981C10.641 45.3723 9.95555 46.5845 9.46955 47.882C8.9348 49.3099 8.67473 50.8114 8.53346 52.327C8.39323 53.8318 8.34594 55.3442 8.18923 56.8476C8.02852 58.3895 7.71188 59.8973 7.35173 61.4023L7.26583 61.7592C6.93994 63.107 6.60358 64.4549 6.43606 65.8346C6.34663 66.5716 6.29284 67.3186 6.305 68.0616C6.31721 68.8088 6.43301 69.5396 6.52643 70.279C6.56224 70.5622 6.28735 70.7986 6.04137 70.8362C5.75849 70.8792 5.51546 70.6962 5.42753 70.4298C5.15341 69.5991 5.10362 68.6808 5.11222 67.8089C5.12088 66.9237 5.23229 66.0443 5.38906 65.1744C5.69737 63.4632 6.17316 61.7874 6.57118 60.0968C6.92195 58.6066 7.15738 57.1139 7.28428 55.5873C7.41601 54.0035 7.49489 52.4143 7.7352 50.8419C7.9724 49.2896 8.41871 47.8069 9.09179 46.3914C9.70464 45.1027 10.4686 43.8897 11.2695 42.7139C12.2421 41.2862 13.3103 39.9276 14.5044 38.6897C14.3971 38.685 14.287 38.6498 14.1859 38.5859C13.8764 38.3902 13.7323 38.0073 13.688 37.6578C13.5843 36.84 13.6094 35.9863 13.8168 35.1868C14.1513 33.897 15.0197 32.751 16.2781 32.2861C16.602 32.1664 16.9463 32.1227 17.2896 32.1141C17.6154 32.1059 17.9711 32.149 18.2855 32.0443C18.7857 31.8775 19.0002 31.28 19.188 30.8271L19.1967 30.8063C19.4375 30.2291 19.7266 29.7344 20.2483 29.3741C20.8049 28.9895 21.5023 28.8146 22.159 28.7017ZM36.3976 30.9842C36.8479 30.8258 37.4109 30.9696 37.8513 31.1079C38.3419 31.2622 38.7952 31.5462 39.1839 31.8836C39.594 32.2394 39.9329 32.6787 40.1723 33.1694L40.1952 33.2167C40.4139 33.6719 40.6629 34.2969 40.5527 34.797C40.5495 34.8112 40.5459 34.8248 40.5418 34.8381C41.4353 35.2841 42.2604 35.8427 42.9789 36.5507C43.8156 37.3751 44.524 38.3132 45.1236 39.3267C47.5047 43.352 47.9237 48.1864 48.205 52.7769L48.2751 53.9408C48.4278 56.4542 48.6065 58.9616 49.0707 61.4403L49.1046 61.6193C49.6008 64.2145 50.3111 66.8295 50.2391 69.4917C50.2175 70.2894 49.055 70.284 49.0213 69.4917C48.8944 66.5098 48.2082 63.6307 47.7435 60.6953C46.9258 55.5311 47.3355 50.207 46.177 45.0944C45.7224 43.0881 45.0181 41.1419 44.0124 39.351C43.5156 38.4662 42.9472 37.6113 42.2814 36.8481C41.7086 36.1913 41.1132 35.5593 40.4438 35.0072C40.2299 35.2245 39.8025 35.1137 39.6908 34.797C39.6141 34.5793 39.6365 34.3248 39.5872 34.0968C39.5415 33.8852 39.4785 33.6754 39.3946 33.4761C39.2273 33.0789 38.9817 32.6976 38.6982 32.3761C38.3919 32.0287 38.0399 31.74 37.6461 31.5017C37.2495 31.2617 36.8158 31.1901 36.3976 31.0147C36.3835 31.0088 36.3821 30.9897 36.3976 30.9842ZM38.1471 58.5838C38.1478 58.5629 38.1721 58.553 38.1871 58.567C38.345 58.7143 38.4404 58.9257 38.5566 59.107C38.6906 59.3159 38.8313 59.5206 38.9789 59.72C39.2745 60.1194 39.6037 60.4959 39.9354 60.8648C40.2439 61.2078 40.5728 61.5364 40.9139 61.8461C41.2835 62.1818 41.6977 62.4812 42.0335 62.8528C42.7341 63.6283 42.8473 64.6927 42.9952 65.692L43.0114 65.8001C43.1015 66.3932 43.1823 66.9879 43.2551 67.5834C43.2905 67.8731 43.3258 68.163 43.3547 68.4534L43.3635 68.5454C43.3892 68.8298 43.3962 69.1182 43.2352 69.3666C43.0628 69.6323 42.671 69.7255 42.438 69.4707C42.0377 69.0329 42.1127 68.2553 42.0607 67.6921C42.0176 67.2264 41.9688 66.7612 41.9142 66.2968L41.8864 66.0646C41.822 65.5363 41.7697 64.9974 41.6505 64.4782C41.5455 64.021 41.3452 63.6759 41.0167 63.3447C40.6858 63.0111 40.3419 62.6996 40.0364 62.3403C39.7124 61.9592 39.4201 61.5506 39.1567 61.1241C38.9315 60.7593 38.7509 60.3624 38.5855 59.9659L38.5581 59.8998C38.3982 59.5132 38.1346 59.0098 38.1471 58.5838ZM43.9265 41.9752C43.93 41.9213 44.0086 41.9205 44.0098 41.9752C44.0197 42.4391 44.0293 42.9029 44.0388 43.3668C44.1152 47.1047 44.0681 50.8514 44.4379 54.5765C44.6123 56.3329 44.9335 58.0634 45.3052 59.7867C45.4953 60.6685 45.6949 61.5482 45.8844 62.4302C46.0692 63.2897 46.2673 64.1534 46.4138 65.0209C46.5578 65.8735 46.6868 66.7327 46.7447 67.5963L46.7519 67.7089C46.7768 68.1272 46.8957 68.7425 46.6686 69.1133C46.4224 69.515 45.9512 69.5222 45.6875 69.1388C45.4398 68.7788 45.5014 68.1384 45.4577 67.7089C45.4132 67.2714 45.3662 66.8335 45.3128 66.3969C45.2086 65.5454 45.0713 64.6958 44.9285 63.8501C44.6311 62.0888 44.1998 60.3497 43.8815 58.5913C43.5552 56.7894 43.3232 54.9747 43.3135 53.1402C43.3037 51.29 43.4969 49.4435 43.5944 47.5974C43.6934 45.7224 43.806 43.8488 43.9265 41.9752ZM26.5136 30.3491C26.6126 30.0111 26.9619 29.7999 27.3026 29.8948C27.6149 29.9818 27.8727 30.3661 27.7506 30.6949C27.6174 31.0537 27.3846 31.3597 27.1883 31.6858C27.007 31.9871 26.7425 32.2244 26.5578 32.5203L26.7614 32.7428C26.8632 32.8538 26.9653 32.9641 27.0685 33.0726L27.4235 33.4454C27.7 33.7352 27.9782 34.0234 28.2642 34.3032C29.1053 35.1259 29.9597 35.9216 30.9017 36.6261C31.1162 36.7864 31.3323 36.9458 31.5544 37.0951L31.6373 37.1508C31.7897 37.252 31.9597 37.3515 32.1439 37.3343C32.5913 37.2927 32.9955 36.8108 33.3029 36.511L33.319 36.4953C34.0809 35.7602 34.7864 34.9565 35.4032 34.0923C35.5402 33.9003 35.6728 33.705 35.8019 33.5074C35.5037 33.1542 35.5749 32.4647 35.5585 32.0363C35.5469 31.7351 35.546 31.4338 35.5444 31.1324L35.5436 31.0716C35.5399 30.8765 35.5313 30.6893 35.6561 30.5288C35.6634 30.5195 35.6784 30.5198 35.6877 30.5247C35.8587 30.6156 35.9114 30.7677 35.9844 30.9384L35.992 30.9561C36.0808 31.161 36.1659 31.3677 36.2519 31.5737C36.342 31.7895 36.4246 32.0083 36.5083 32.2266C36.5473 32.3282 36.5845 32.4301 36.6209 32.5326C36.643 32.5981 36.6659 32.6632 36.6895 32.7282L36.695 32.7332C36.7261 32.76 36.7525 32.7882 36.7752 32.8174C36.8706 32.8658 36.9464 32.954 36.982 33.0836C37.0595 33.3657 36.8992 33.5957 36.7563 33.8196C36.1756 34.7292 35.5137 35.5961 34.7779 36.3824C34.4124 36.7731 34.028 37.1462 33.6278 37.5001L33.5578 37.5615C33.1983 37.8749 32.8079 38.1716 32.3278 38.2449C31.7658 38.3307 31.3085 38.0473 30.8784 37.7209L30.8354 37.6881C30.4277 37.3751 30.0281 37.0511 29.6409 36.7121C28.8516 36.0211 28.1007 35.2791 27.4343 34.4651C26.786 33.6733 26.1453 32.7879 25.7457 31.8352C25.7213 31.7771 25.7854 31.7164 25.8356 31.7649C26.0308 31.9533 26.2185 32.1519 26.4041 32.3531C26.4093 32.0569 26.3554 31.7583 26.3854 31.4603C26.4219 31.098 26.4114 30.6978 26.5136 30.3491Z" fill="black"/>
<path fill-rule="evenodd" clip-rule="evenodd" d="M43.6123 22.2551C43.9834 19.5385 43.1909 16.9169 42.1643 14.4342C42.108 14.283 42.0185 14.152 41.9036 14.0589C39.0063 8.13536 34.7493 7.59895 28.8103 8.00689C28.6348 8.00294 28.6244 8.0061 28.4912 7.94564C28.4691 5.53932 25.7599 4.26469 23.6982 5.05864C14.5547 9.3689 17.4298 21.5035 19.2493 29.4256C19.8985 32.4923 20.5478 35.5588 21.1971 38.6254C21.2189 38.728 21.2648 38.8166 21.3259 38.8914C21.2316 38.9276 21.1373 38.9617 21.0447 38.9936C20.8335 39.0666 20.9174 39.386 21.1373 39.3342C21.3527 39.2835 21.5604 39.2155 21.7658 39.1414C22.0861 39.2119 22.3545 38.9997 22.606 38.8304C25.5501 37.6494 26.7861 33.768 27.5412 30.9087C30.6115 33.1061 35.5173 34.7518 39.0277 32.7758C42.317 30.7665 43.5016 26.5749 43.2679 22.8754C43.5079 22.7634 43.6048 22.5191 43.6111 22.2644H43.6125C43.6125 22.2613 43.6123 22.2582 43.6123 22.2551V22.2551Z" fill="white"/>
<path fill-rule="evenodd" clip-rule="evenodd" d="M22.8551 5.28492C23.5339 4.83887 24.4051 4.67285 25.2048 4.70537C25.6314 4.72268 26.0295 4.83055 26.4228 4.99256C26.7872 5.14278 27.1086 5.35857 27.4635 5.52301C27.485 5.53297 27.4687 5.56366 27.4484 5.55947C27.0281 5.47343 26.5347 5.52541 26.1086 5.58701L26.0662 5.5932C25.6474 5.65488 25.2212 5.68678 24.8084 5.78468C24.048 5.96498 23.3407 6.35785 22.9233 7.04119C22.3784 7.93364 22.2387 9.08885 22.2969 10.1185C22.3264 10.6395 22.4277 11.152 22.5853 11.6487C22.68 11.9467 22.8999 12.2466 23.0026 12.5594C23.0808 12.4114 23.1615 12.2648 23.2451 12.12C22.8644 11.938 22.7576 11.4322 22.7379 10.9757C22.6793 10.9182 22.6415 10.835 22.6403 10.7586C22.6369 10.5533 22.6845 10.3674 22.7655 10.1973C22.8118 9.7155 22.9098 9.23519 23.0785 8.78373C23.7406 7.01129 25.4874 5.41381 27.4683 5.57162C28.0127 5.61501 28.5425 5.84952 28.824 6.34806C29.0501 6.74841 29.0516 7.23134 28.8956 7.65714C28.8494 7.78354 28.7892 7.89767 28.7185 8.00176C28.9326 7.94671 29.147 7.8939 29.361 7.84158C30.1036 7.66 30.85 7.51774 31.6103 7.43862C32.6458 7.33094 33.7026 7.49386 34.6514 7.9131C34.9116 7.98098 35.1706 8.0539 35.428 8.13181C36.5608 8.47442 37.723 8.92192 38.6379 9.70396C39.0588 10.0638 39.3601 10.4823 39.6046 10.942C40.5205 11.7703 41.3964 12.7093 42.0146 13.7835C43.2884 15.9966 43.5926 18.7342 43.6449 21.2502C43.693 23.5615 43.4929 25.8964 43.0659 28.1674C42.872 29.1981 42.5587 30.1559 41.9247 31.0011C41.2188 31.9424 40.2773 32.6839 39.2208 33.1815C37.0699 34.1945 34.4077 34.3419 32.317 33.0868C31.6882 32.7094 32.2544 31.7255 32.8896 32.0932C34.9536 33.288 37.5878 33.0151 39.5738 31.7484C40.4128 31.2133 41.1358 30.4816 41.5951 29.5856C41.9305 28.9311 42.0744 28.1806 42.1991 27.4499L42.2653 27.059C42.6501 24.8119 42.824 22.507 42.7315 20.2274C42.6391 17.9534 42.2836 15.4905 41.0138 13.5572C40.3441 12.5375 39.49 11.6442 38.5929 10.8297C38.5299 10.7725 38.4667 10.7154 38.4035 10.6586C38.0529 10.4449 37.6895 10.2583 37.3319 10.099L37.2559 10.0656C37.0502 9.97671 36.7625 9.86182 36.4957 9.76995C36.1142 9.63863 35.7265 9.52195 35.3373 9.41682C35.1332 9.36171 34.9282 9.31115 34.7227 9.26284C34.7943 9.3295 34.8656 9.39677 34.9355 9.46574C35.2671 9.7925 35.53 10.1808 35.8444 10.5234C35.8799 10.5621 35.8351 10.6185 35.7899 10.5949C35.3119 10.3462 34.7819 10.1851 34.2828 9.98355C33.8109 9.79298 33.3524 9.57361 32.8889 9.36335C32.7728 9.3106 32.657 9.25427 32.5416 9.19854C32.0858 9.20328 31.6299 9.21416 31.1751 9.24047C31.725 9.63747 32.2271 10.1067 32.643 10.6212C32.6773 10.6636 32.6461 10.7314 32.5884 10.7164C31.7177 10.4903 30.8897 10.1579 30.0621 9.80959L29.6662 9.6424V9.6424C29.3752 9.62745 29.0837 9.62046 28.7922 9.62483L28.6509 9.62722C28.3449 9.63314 28.0395 9.64544 27.7362 9.69247C27.6641 9.70359 27.5934 9.71416 27.5232 9.72389C27.0963 9.9006 26.6856 10.1137 26.3161 10.3945L26.4123 10.3887V10.3887C26.9967 10.355 27.5924 10.406 28.1583 10.559C29.2578 10.8565 30.196 11.5728 30.8787 12.4861C30.8991 12.5134 30.8594 12.5515 30.8326 12.5329C29.9737 11.9364 28.9776 11.636 27.957 11.4728C27.4636 11.3939 26.9556 11.3667 26.4575 11.406C26.0451 11.4385 25.6185 11.5859 25.2082 11.5144C25.0964 11.6557 24.989 11.8012 24.8856 11.95C24.9399 11.9464 24.9945 11.9432 25.0494 11.9406C25.6387 11.9125 26.2387 11.9509 26.8141 12.0885C27.9632 12.3634 28.9235 13.0632 29.802 13.8315C29.8194 13.8467 29.797 13.8738 29.7781 13.8629C28.8255 13.3052 27.7182 13.1385 26.639 13.0378C26.0955 12.9872 25.5459 12.9642 25.0013 13.0082C24.7518 13.0283 24.505 13.0701 24.2562 13.096C24.2361 13.0981 24.2152 13.0987 24.1945 13.0996C24.0141 13.4446 23.8507 13.7957 23.7032 14.1458C24.1533 14.0233 24.639 13.959 25.1037 13.9907C26.0477 14.0552 26.984 14.4942 27.7376 15.0558C27.7612 15.0734 27.748 15.1201 27.716 15.1079C26.8957 14.7935 26.0826 14.791 25.2266 14.9123C24.8253 14.9691 24.4281 15.0463 24.0404 15.1674C23.8454 15.2283 23.6527 15.2947 23.4677 15.3821C23.3838 15.4217 23.302 15.4679 23.2193 15.5115C23.1532 15.7393 23.0941 15.9691 23.0407 16.2004C24.4399 16.2805 25.758 16.9504 26.9051 17.7192C26.9329 17.7378 26.9156 17.7896 26.8813 17.7765C26.1965 17.5144 25.4516 17.3932 24.7252 17.3226C24.0901 17.261 23.4668 17.2945 22.8354 17.3125C22.8015 17.5559 22.7742 17.8 22.7543 18.0446C22.8559 18.0734 22.9555 18.1046 23.0513 18.1338C23.3663 18.2298 23.6808 18.3591 23.9747 18.5089C24.5719 18.8133 25.0557 19.2248 25.5426 19.6822C25.568 19.7061 25.5415 19.7582 25.5071 19.744C24.942 19.5123 24.3245 19.3639 23.7297 19.2326C23.4218 19.1647 23.1138 19.102 22.8038 19.0444C22.7738 19.0388 22.7433 19.0341 22.7129 19.0295C22.7099 19.5872 22.741 20.145 22.8096 20.6982L22.8229 20.8019C22.86 21.0819 22.8296 21.3528 22.6469 21.5462C22.8997 21.3757 23.1889 21.2577 23.5094 21.2124C24.3536 21.0932 25.1352 21.4354 25.6664 22.0971C25.6913 22.1281 25.6529 22.1686 25.6227 22.1414C25.1072 21.6761 24.3128 21.5938 23.6726 21.8128C23.0799 22.0156 22.6343 22.4998 22.4558 23.1056C22.266 23.7494 22.3529 24.4601 22.699 25.034C22.8714 25.3199 23.1204 25.5755 23.432 25.7013C23.4705 25.7168 23.5097 25.7298 23.5493 25.741C23.7374 25.6712 23.9398 25.7028 24.1332 25.7913L24.1583 25.8032V25.8032C24.2817 25.8025 24.4046 25.7987 24.524 25.7998C24.7564 25.802 24.8681 26.0523 24.7706 26.2385C24.8259 26.3413 24.8664 26.4567 24.9149 26.5574C25.0027 26.7391 25.0946 26.9197 25.187 27.0991C25.3176 27.2511 25.4424 27.4085 25.5271 27.592C25.5619 27.6673 25.5947 27.7489 25.6199 27.8306C25.6925 27.9414 25.7663 28.0516 25.8419 28.1612C26.0863 28.5154 26.3437 28.8509 26.6291 29.1724C26.8007 29.3657 26.9981 29.5382 27.1797 29.7234C27.2348 29.7308 27.2888 29.7689 27.3058 29.8236L27.3206 29.8759V29.8759C27.3792 29.9428 27.4352 30.0117 27.4856 30.0851C27.5975 30.2479 27.5668 30.4131 27.4685 30.5321C27.6242 31.5175 27.5182 32.5659 27.3099 33.5215C27.1752 34.1389 27.018 34.7557 26.8069 35.3513C26.6997 35.6541 26.5697 35.9449 26.3902 36.2108C26.2918 36.3566 26.1636 36.5263 26.0198 36.665C25.9979 36.8264 25.9695 36.9864 25.9288 37.1433C25.4465 39.0027 23.4723 39.5687 21.8193 39.8062C21.5002 39.852 21.1844 39.7738 21.0107 39.4724C20.9705 39.4028 20.9436 39.3277 20.9291 39.2506C20.8571 39.2312 20.7878 39.1969 20.7257 39.1478C20.7153 39.2643 20.7033 39.3812 20.6882 39.4994C20.6504 39.7949 20.2572 39.8837 20.1587 39.5721C19.7428 38.2569 19.5169 36.8702 19.2319 35.5188C18.9476 34.1702 18.63 32.8288 18.3362 31.4823L17.9641 29.7829C17.0563 25.6217 16.206 21.4073 16.4147 17.1275C16.5286 14.7913 16.9512 12.4612 17.8557 10.3023C18.6091 8.5039 19.8807 6.4834 21.9348 6.11569C21.9489 6.11319 21.9615 6.11465 21.9732 6.11769C22.2172 5.79592 22.5086 5.51256 22.8551 5.28492ZM24.0945 27.9045C24.2602 28.462 24.3784 29.0334 24.4428 29.6166C24.5499 30.5886 24.4968 31.5843 24.4503 32.5589C24.4074 33.4543 24.3058 34.3574 24.1327 35.2367C23.9666 36.0808 23.7062 36.9085 23.3192 37.6765C23.2566 37.8007 23.1893 37.9216 23.1186 38.0402C23.3327 37.9678 23.5259 37.8836 23.7272 37.7668C23.9805 37.6198 24.2124 37.4302 24.3392 37.2302C24.5428 36.9094 24.611 36.553 24.6408 36.1706C24.7174 35.1872 24.7528 34.201 24.8016 33.216L24.8124 33.0015C24.8914 31.4625 24.9949 29.8841 24.8403 28.3435C24.6228 28.2855 24.4265 28.1717 24.2454 28.0289C24.1955 27.9895 24.145 27.9478 24.0945 27.9045ZM22.4402 26.0409C22.486 26.5091 22.5297 26.9773 22.5693 27.4459C22.7098 29.1092 22.7966 30.7817 22.7167 32.4508C22.6751 33.3199 22.5916 34.1916 22.4473 35.0497C22.3822 35.4364 22.3035 35.8231 22.2156 36.2057L22.186 36.3331C22.0968 36.7121 22.04 37.1857 21.7543 37.4613L21.7565 37.5185V37.5185C21.957 37.2098 22.1425 36.8627 22.2753 36.5396C22.8671 35.1 22.9752 33.5329 23.0821 31.998C23.148 31.052 23.1969 30.1048 23.2731 29.1596L23.3101 28.7047C23.3526 28.1754 23.3892 27.6499 23.3842 27.1211C23.2702 26.9487 23.1776 26.7674 23.1201 26.5813C23.1109 26.5513 23.1045 26.5211 23.1001 26.4908C22.859 26.3749 22.6321 26.2168 22.4402 26.0409ZM25.6796 29.3347C25.7986 29.7361 25.8956 30.1426 25.9647 30.5508C26.0748 31.2005 26.1409 31.8543 26.17 32.5103L26.2307 32.2786C26.3837 31.6989 26.5462 31.1184 26.7476 30.5559C26.429 30.3296 26.1628 29.9742 25.9312 29.6772C25.8446 29.5662 25.7607 29.4517 25.6796 29.3347ZM21.1166 11.4846C20.9942 11.8856 20.8871 12.2911 20.7765 12.6953C20.5167 13.6449 20.348 14.6204 20.2309 15.5978C19.7638 19.5003 20.1529 23.4185 20.6616 27.2955C20.8725 28.9018 21.1017 30.5058 21.2984 32.1141C21.3036 31.9562 21.308 31.7984 21.3108 31.6408C21.3706 28.2272 20.8042 24.8613 20.5774 21.4653L20.5637 21.2584C20.461 19.6705 20.3981 18.053 20.5841 16.471C20.6799 15.6567 20.8485 14.8598 21.073 14.0729L21.2066 13.6107C21.297 13.3 21.3929 12.9809 21.5069 12.6715C21.4916 12.6419 21.4771 12.612 21.4637 12.582C21.306 12.2305 21.1964 11.8611 21.1166 11.4846ZM21.5112 6.88447C20.3355 8.4221 19.3489 10.0555 18.752 11.9342C17.3859 16.234 17.6909 20.8318 18.4826 25.2146C18.8556 27.2796 19.3367 29.3206 19.7756 31.3713C19.3057 27.6888 18.6999 24.0143 18.6034 20.2964C18.5507 18.2672 18.6542 16.2285 19.0227 14.2307L19.0445 14.1132C19.2024 13.2689 19.3981 12.3743 19.7985 11.6156C20.016 11.2035 20.256 10.8191 20.5407 10.451C20.6607 10.2958 20.7955 10.1714 20.9385 10.0576C20.8966 8.99758 21.0546 7.84814 21.5112 6.88447ZM23.4294 23.2675C24.0143 23.2909 24.5987 23.4563 25.0593 23.8419C25.4196 24.1435 24.9058 24.6533 24.5484 24.3602C24.1597 24.0415 23.8111 23.6795 23.3968 23.3896C23.3475 23.3551 23.361 23.2648 23.4294 23.2675ZM22.4591 21.6866C22.329 21.7546 22.1998 21.7684 22.0525 21.7317C22.0471 21.7303 22.0419 21.7288 22.0368 21.7272L22.0067 21.7173C22.0196 21.8587 22.0331 22.0002 22.0465 22.1417C22.1654 21.9719 22.3032 21.8181 22.4591 21.6866ZM21.8768 13.1492C21.8251 13.5879 21.7913 14.0288 21.7734 14.4703C21.7559 14.9005 21.7486 15.332 21.7467 15.7636L21.7461 15.9486L21.7469 15.9451C21.948 15.0748 22.2324 14.2182 22.5957 13.3986C22.5332 13.4091 22.4697 13.4074 22.4071 13.3998C22.2641 13.3822 22.1269 13.3179 22.0041 13.2426C21.9594 13.2151 21.9174 13.1831 21.8768 13.1492ZM27.8431 8.06375C27.5931 8.17836 27.3517 8.3101 27.1008 8.4221C26.6033 8.64427 26.1165 8.90254 25.6561 9.19575C25.1902 9.49248 24.7413 9.80489 24.3285 10.175C24.2801 10.2184 24.2322 10.2622 24.1843 10.3061C24.1747 10.4018 24.1677 10.4978 24.1645 10.5947C24.1628 10.6468 24.1627 10.7012 24.1634 10.7572C24.9423 9.7784 25.8841 9.00615 27.0789 8.52036C27.286 8.43614 27.4965 8.36115 27.7089 8.29175C27.7594 8.22053 27.8048 8.14493 27.8431 8.06375ZM27.8209 7.12481C27.682 6.93776 27.2827 6.95302 27.0309 6.9947C26.6238 7.06216 26.2652 7.20654 25.9162 7.41559C25.5038 7.66255 25.148 7.99714 24.8696 8.39068C25.0066 8.31229 25.1462 8.23834 25.2887 8.16967L25.3863 8.12289C25.9261 7.86621 26.5109 7.62218 27.1013 7.54259C27.3744 7.50577 27.6682 7.45247 27.9442 7.48249C27.9306 7.34643 27.8907 7.21882 27.8209 7.12481Z" fill="black"/>
<path fill-rule="evenodd" clip-rule="evenodd" d="M36.1855 27.9713C35.7828 27.8046 35.4234 27.5267 35.1608 27.1715C35.0694 27.0481 35.0457 26.9177 35.0649 26.7985C35.0864 26.6644 35.1646 26.5429 35.2713 26.4614C35.3782 26.3797 35.512 26.3394 35.6414 26.3599C35.7538 26.3778 35.8657 26.4402 35.9542 26.5697L35.9727 26.5956C36.1289 26.8099 36.3324 26.9857 36.5643 27.0991C36.7878 27.2083 37.0378 27.2593 37.2964 27.2297C37.7891 27.1732 38.1286 26.903 38.4896 26.5359C38.5343 26.4896 38.5791 26.4418 38.624 26.3932C38.6525 26.3492 38.6919 26.3209 38.7356 26.3061C38.7842 26.2896 38.8392 26.2905 38.8896 26.3084C38.9381 26.3256 38.9816 26.3581 39.0107 26.4015C39.0383 26.4427 39.054 26.4936 39.0489 26.5522C39.0159 26.9325 38.8199 27.272 38.5414 27.5385C38.2322 27.8346 37.8222 28.0394 37.4363 28.1112C37.0111 28.1903 36.5778 28.1336 36.1855 27.9713ZM37.6368 22.1035C38.0892 22.3824 38.7785 23.0328 38.2918 23.7243C37.719 24.3341 36.8943 23.635 36.4878 23.3188C36.111 23.0738 35.6876 23.704 36.0372 23.9901C38.974 26.1957 40.1658 22.1764 37.8656 21.7755C37.6124 21.7314 37.5183 22.0172 37.6368 22.1035ZM32.3741 19.5378C32.424 18.9085 33.3689 18.7655 33.4629 19.3883C33.5471 19.9462 33.448 20.4586 33.2003 20.9609C32.9636 21.4407 32.3687 21.2168 32.3237 20.7799C32.2634 20.1942 32.343 19.9293 32.3741 19.5378ZM39.5666 19.2592C39.6983 19.0842 39.8885 18.9647 40.1164 19.0322C40.8284 19.2433 40.6185 20.2686 40.3685 20.7677C40.2326 21.0387 39.7934 21.1075 39.595 20.8688C39.2715 20.4797 39.1166 19.7025 39.5278 19.3192C39.5389 19.2993 39.5513 19.2794 39.5666 19.2592ZM33.1903 16.784L33.3027 16.764C33.6506 16.703 34.0832 16.6443 34.3294 16.9281C34.4599 17.0786 34.5048 17.3582 34.3294 17.5022C34.0207 17.7556 33.6795 17.6574 33.3097 17.6789C33.0049 17.6966 32.7119 17.7478 32.4183 17.8329C31.7742 18.0197 31.2494 18.3606 30.6993 18.7349C30.6271 18.784 30.5534 18.6904 30.5878 18.6219C30.9054 17.9909 31.5208 17.4726 32.1372 17.1567C32.4662 16.9881 32.8263 16.8482 33.1903 16.784ZM38.9175 16.5014L39.0036 16.5192C39.9404 16.7179 41.1574 17.1146 41.601 18.048C41.6179 18.18 41.6001 18.2083 41.5856 18.2268L41.5807 18.2329C41.5688 18.2487 41.5592 18.2705 41.5028 18.2884C41.4872 18.2846 41.4714 18.2806 41.4554 18.2764C41.2521 18.2223 41.0912 18.1479 40.9354 18.0706L40.7666 17.9862C40.5706 17.8887 40.373 17.7948 40.1635 17.7255C39.7165 17.5776 39.2567 17.4734 38.7898 17.4178C38.6885 17.4057 38.5911 17.3711 38.5142 17.3117C38.4412 17.2553 38.3855 17.1773 38.3601 17.0736C38.3271 16.9393 38.3366 16.8377 38.4076 16.7166C38.461 16.6256 38.5374 16.5626 38.6251 16.5264C38.7145 16.4895 38.8163 16.4808 38.9175 16.5014Z" fill="black"/>
</svg>
