<svg width="96" height="88" viewBox="0 0 96 88" fill="none" xmlns="http://www.w3.org/2000/svg">
<g clip-path="url(#clip0_240_6390)">
<path fill-rule="evenodd" clip-rule="evenodd" d="M46.1783 89.0229C54.0574 90.2439 62.0793 90.3053 70.0239 89.8619C73.168 89.6218 76.3218 89.5785 79.4634 89.8855C81.3198 90.0264 89.4591 90.6611 90.1241 88.9648C89.7055 79.9318 88.8578 70.8219 86.2573 62.1344C85.1879 59.0496 84.2693 56.4894 82.182 53.9367C81.5242 53.2397 80.1055 51.778 79.2926 51.3013C78.5883 50.8883 78.2939 51.0357 77.8896 50.3381C77.4877 49.5676 77.1913 48.2808 76.6207 47.7371C76.0397 47.1835 75.1787 47.3815 74.1116 47.5598C74.3076 44.8568 73.0847 44.1683 71.3999 43.6543C68.4384 42.5012 65.5137 43.0805 64.7683 46.7586C63.3863 46.7586 62.61 47.3654 61.7707 47.9484C61.4276 48.1867 61.6663 48.794 61.2565 48.9813C60.4983 49.2567 59.1585 49.1892 58.4285 49.5282C55.1089 51.0695 52.1522 53.3047 50.2105 56.569C45.8574 63.5383 42.8672 78.2193 43.3846 86.4795C43.1579 86.8422 43.4714 87.3623 43.5511 87.7524C43.6517 88.0917 43.9774 88.3174 44.3173 88.2788C44.7917 88.7993 45.5255 88.9151 46.1783 89.0229Z" fill="white"/>
<path fill-rule="evenodd" clip-rule="evenodd" d="M78.7905 51.0969C78.7421 51.0694 78.7847 50.9988 78.8333 51.0222C81.17 52.1405 82.9625 54.1027 84.2238 56.3698C85.5299 58.7173 86.2743 61.3825 86.916 63.9875L86.9392 64.0817C87.6235 66.8684 88.2053 69.6839 88.7292 72.5063C89.2597 75.3645 89.6856 78.2404 90.0281 81.1281C90.1976 82.5559 90.3487 83.9863 90.4665 85.4195C90.5254 86.1357 90.5789 86.8525 90.6269 87.5696C90.6461 87.8564 90.6642 88.1431 90.6797 88.4302L90.6909 88.6455C90.7004 88.8408 90.7232 89.0366 90.6759 89.2292C90.6351 89.3953 90.5489 89.5457 90.4731 89.6982C90.3232 89.9995 89.9121 89.9499 89.7506 89.6982L89.7037 89.6248C89.5965 89.4559 89.5075 89.2989 89.4739 89.0886C89.4414 88.885 89.4402 88.6717 89.4256 88.4661C89.3987 88.0877 89.3759 87.709 89.3498 87.3305C89.2951 86.5338 89.2337 85.7376 89.1656 84.942C89.0311 83.3714 88.8868 81.8022 88.7095 80.2359C88.3946 77.4522 87.9994 74.6759 87.5335 71.9145C87.0783 69.2168 86.5029 66.5465 85.9025 63.8796L85.8403 63.6038C84.7892 58.9475 83.1692 53.5852 78.7905 51.0969ZM53.9017 69.3298C53.9189 69.2832 53.9929 69.2725 54.0054 69.3298C54.1628 70.0528 54.1783 70.7975 54.2024 71.5378C54.2261 72.268 54.2251 73.0016 54.2147 73.7323C54.1762 76.4177 54.104 79.1008 54.0415 81.7857C54.0102 83.1287 53.9809 84.472 53.9584 85.8152C53.9499 86.319 53.9428 86.8227 53.9368 87.3265L53.9296 87.991C53.926 88.2848 53.9184 88.575 53.8833 88.8685C53.8601 89.0615 53.8108 89.2456 53.7063 89.411C53.6322 89.5285 53.5266 89.5881 53.4236 89.6679L53.4043 89.6831C53.273 89.789 53.1346 89.7897 53.0045 89.6831L52.9668 89.6526C52.8425 89.5535 52.7351 89.476 52.6558 89.3192C52.5454 89.1012 52.5277 88.8644 52.509 88.6242C52.4805 88.2599 52.4994 87.8903 52.5031 87.525C52.5104 86.7922 52.5204 86.0595 52.533 85.3267C52.5792 82.6396 52.6707 79.952 52.8373 77.2697C52.9158 76.0062 53.0222 74.7387 53.165 73.4804L53.1922 73.2445C53.2355 72.8743 53.275 72.4975 53.3195 72.1194C52.6551 71.6426 52.0711 71.0641 51.573 70.4078C51.5364 70.3595 51.5967 70.2918 51.641 70.3386C52.1499 70.8762 52.7334 71.3047 53.3794 71.6417C53.4852 70.8504 53.6307 70.0633 53.9017 69.3298ZM65.0018 45.3767C65.0109 45.3695 65.0251 45.3664 65.0338 45.3767C65.1766 45.5466 65.1476 45.8063 65.1522 46.0216L65.1528 46.0416C65.163 46.3564 65.1649 46.6701 65.1639 46.985L65.1607 47.9874V47.9874C65.1603 48.1253 65.1493 48.2687 65.1563 48.4074L65.1599 48.461V48.461C65.2349 48.5394 65.2698 48.6527 65.2443 48.7665C65.2397 48.9124 65.1649 49.0342 65.0558 49.1107L65.2897 49.4492V49.4492L65.5237 49.7874C66.0061 50.4855 66.4939 51.1774 67.0021 51.8562C67.5204 52.5484 68.0733 53.2145 68.6519 53.8549C68.9346 54.1678 69.2221 54.4764 69.5163 54.7781C69.6358 54.9007 69.7584 55.0203 69.8795 55.1412L70.0001 55.2627C70.0713 55.3354 70.1609 55.4072 70.2082 55.4993C70.236 55.5537 70.2424 55.6876 70.2523 55.7097C70.3416 55.9099 70.1893 56.229 69.9362 56.1292L69.9477 56.1214C69.9938 56.0887 69.9643 56.0882 69.8591 56.12C69.7927 56.1198 69.7305 56.1042 69.6724 56.0733L69.6551 56.0636C69.5733 56.0212 69.5002 55.9391 69.4338 55.8734L69.4173 55.8574C69.2652 55.712 69.1203 55.5579 68.9746 55.406C68.6705 55.0891 68.3732 54.7653 68.0854 54.4329C67.5113 53.7698 66.967 53.0797 66.4515 52.3682C65.9265 51.6436 65.4384 50.8817 65.0188 50.0886C64.8595 49.7876 64.7135 49.4808 64.5735 49.1704C64.301 49.0812 64.2378 48.7855 64.2568 48.4525C64.1562 48.2136 64.0656 47.9698 64.0121 47.7208C64.0048 47.6866 64.0478 47.6544 64.0735 47.6843C64.1607 47.7853 64.2414 47.8929 64.3189 48.0032C64.3657 47.7697 64.425 47.5547 64.4528 47.4177L64.5736 46.813V46.813C63.8929 46.7768 63.147 47.0621 62.6777 47.5616C62.6525 47.6917 62.5544 47.7848 62.4588 47.9064C62.3495 48.0454 62.2541 48.2014 62.183 48.3645C62.0253 48.726 62.1143 49.2588 61.8083 49.5241C61.7764 49.5517 61.7407 49.5709 61.7039 49.5828C61.8492 50.3093 61.7833 51.1099 61.7801 51.847L61.78 51.9119C61.7807 52.7368 61.7537 53.5624 61.7225 54.3867L61.6907 55.2025C61.6495 56.2904 61.6227 57.3789 61.7264 58.4609C62.1995 58.0334 62.6887 57.6254 63.1948 57.2367C63.5275 56.9811 63.8669 56.7345 64.2125 56.4972L64.4933 56.3058C64.8298 56.0756 65.1744 55.8387 65.5428 55.6739C66.0247 55.4584 66.4829 55.5324 66.9482 55.7535C67.4115 55.9737 67.8609 56.2295 68.3154 56.4682C68.7776 56.7109 69.2407 56.9515 69.7036 57.1928C70.0102 57.3526 70.4595 57.4969 70.6844 57.7912C70.6988 57.7261 70.7155 57.6612 70.735 57.5965C70.7127 57.4979 70.7213 57.3913 70.7755 57.2897C71.5312 55.8731 72.2304 54.4226 72.9247 52.9739C73.2761 52.2408 73.6102 51.499 73.9623 50.7663L74.3045 50.0527C74.3617 49.9338 74.4191 49.815 74.4768 49.6964C74.5631 49.5188 74.653 49.3429 74.7404 49.1658C74.7773 49.091 74.8235 49.0166 74.8595 48.9411L74.8765 48.9032C74.8773 48.9012 74.9602 48.6352 74.8962 48.6605L74.8907 48.6632C74.858 48.6821 74.8318 48.6401 74.853 48.6134C74.9436 48.4991 75.0697 48.6003 75.1214 48.7061C75.2638 48.9972 75.0029 49.4541 74.9025 49.7329L74.897 49.7484C74.5855 50.648 74.2328 51.5306 73.8714 52.4102C73.1786 54.0966 72.4342 55.757 71.6915 57.4204L71.6827 57.449V57.449C71.8411 57.3251 72.0102 57.2127 72.155 57.1033C72.5203 56.8272 72.8962 56.5647 73.2716 56.3031C73.96 55.8233 74.667 55.3751 75.3857 54.9446L75.5296 54.8587C75.8887 54.6454 76.2443 54.4723 76.6704 54.5364C77.0663 54.5959 77.4344 54.8129 77.7921 54.9891L77.829 55.0072L78.9342 55.5433C78.816 55.0626 78.6881 54.5843 78.5547 54.1077C78.2944 53.1782 78.008 52.2564 77.6974 51.3429C77.4073 50.4894 77.0937 49.6453 76.762 48.8078L76.6621 48.5565C76.5269 48.2117 76.3924 47.8357 76.0059 47.7295C75.6196 47.6234 75.1765 47.7807 74.8235 47.5561C74.7914 47.5357 74.7954 47.4817 74.8343 47.4717L75.0521 47.4157C75.4611 47.3119 75.9407 47.2075 76.3275 47.3084C76.7484 47.4185 77.0966 47.7788 77.3008 48.1535C77.5278 48.5703 77.6879 49.0367 77.8602 49.4811L77.8875 49.5511C78.0853 50.0541 78.2755 50.56 78.4575 51.0692C78.8214 52.0869 79.1527 53.1169 79.4525 54.1561C79.597 54.657 79.7341 55.1602 79.8659 55.6647C79.9038 55.8098 79.9663 55.9857 80.0175 56.1692C80.0763 56.2277 80.1319 56.2929 80.184 56.3673C80.2706 56.4907 80.2085 56.6354 80.1009 56.7093C80.0967 56.8356 80.0692 56.9544 80.0035 57.0561C79.7469 57.4536 79.0684 57.3512 79.096 56.8169C79.1002 56.7351 79.1314 56.657 79.1787 56.5911L79.1774 56.5804V56.5804L79.172 56.5608V56.5608C79.0542 56.5032 78.9359 56.439 78.8113 56.3762L77.6514 55.7915V55.7915C77.3155 55.6221 76.9432 55.3604 76.5696 55.2959C76.2213 55.2357 75.8539 55.5004 75.5547 55.6601L75.5352 55.6704C74.8118 56.0487 74.0938 56.4395 73.3786 56.8336C73.0295 57.026 72.6849 57.2264 72.3371 57.4211C72.0463 57.5839 71.7324 57.8176 71.4055 57.9094C71.2659 58.0202 71.1001 58.0054 70.9668 57.9216C71.0277 58.3065 71.024 58.7015 71.0427 59.0949C71.0678 59.621 71.0716 60.1485 71.0799 60.6753L71.0833 60.8727C71.1053 62.0373 71.117 63.2021 71.1214 64.3669C71.1368 68.5145 71.0919 72.6634 71.0814 76.8111C71.0761 78.895 71.0356 80.9807 70.9825 83.0638C70.96 83.9465 70.913 84.8282 70.8622 85.7095L70.8342 86.1903C70.7751 87.2046 70.7401 88.2301 70.5561 89.2308C70.5321 89.3613 70.3156 89.3646 70.2943 89.2308C70.1249 88.1586 70.1155 87.0628 70.083 85.978L70.0761 85.7612C70.0369 84.5964 70.0184 83.4323 70.0223 82.267C70.0368 78.1176 70.1425 73.9709 70.229 69.8228C70.2725 67.7386 70.3018 65.6535 70.3693 63.57C70.4031 62.5275 70.4413 61.4857 70.4867 60.4436C70.5069 59.9783 70.5264 59.5135 70.5567 59.0489L70.5704 58.8498C70.5798 58.7199 70.5874 58.5916 70.5966 58.4645C70.1851 58.6178 69.8088 58.3339 69.4386 58.1397C69.012 57.9158 68.5855 57.6915 68.1587 57.468L67.7316 57.2449V57.2449L66.8768 56.7999C66.4919 56.5995 66.1953 56.4001 65.7848 56.6351C64.3058 57.4817 62.9468 58.6081 61.7152 59.79C61.479 60.0167 60.9799 59.9558 60.9201 59.5759C60.6646 57.953 60.82 56.3066 60.9504 54.6787L60.9985 54.0744C61.0568 53.3526 61.1203 52.6307 61.2049 51.9119C61.2427 51.5903 61.2804 51.2689 61.3221 50.9479L61.3541 50.7073C61.4063 50.3268 61.4403 49.9487 61.5514 49.5838C61.5163 49.5722 61.4826 49.5533 61.4525 49.5241C61.1185 49.2008 61.2795 48.6398 61.4319 48.2553C61.5824 47.8757 61.8118 47.5444 62.0992 47.2593C62.1619 47.197 62.2502 47.1569 62.339 47.1549C63.0357 46.6839 63.8001 46.4489 64.5956 46.7059C64.618 46.5969 64.6408 46.4881 64.6648 46.3795L64.6892 46.2711C64.751 46.0018 64.774 45.5569 65.0018 45.3767ZM72.1427 87.9079C72.3589 87.8472 72.5956 87.9111 72.754 88.0728C72.9124 88.2344 72.9751 88.4759 72.9155 88.6965C72.8857 88.8051 72.8319 88.8993 72.754 88.9794C72.6812 89.0531 72.5963 89.1058 72.4993 89.1373L72.4767 89.1442L72.4414 89.1592C72.333 89.1889 72.2246 89.1889 72.1163 89.1592C72.0126 89.1296 71.9227 89.0761 71.8464 88.9988C71.7706 88.9209 71.7182 88.8292 71.6891 88.7234C71.66 88.6128 71.66 88.5023 71.6891 88.3917L71.7039 88.3556V88.3556C71.7337 88.247 71.7875 88.1527 71.8654 88.0728C71.9438 87.9933 72.0362 87.9383 72.1427 87.9079ZM84.9806 65.9268C85.0161 65.8852 85.0737 65.9384 85.0516 65.9827C84.7149 66.6563 84.3395 67.325 83.9706 67.9815C84.0001 68.1635 84.0294 68.3439 84.0632 68.5198C84.2069 69.2697 84.3829 70.0059 84.4977 70.7629C84.9102 73.4837 85.1243 76.2341 85.3081 78.9793C85.4924 81.7344 85.516 84.4907 85.5437 87.2512C85.5461 87.4905 85.3657 87.7685 85.124 87.8136C85.0133 87.8343 84.9305 87.8303 84.8201 87.8136C84.5685 87.7759 84.4112 87.4819 84.4004 87.2512C84.3283 85.7084 84.2312 84.1676 84.1188 82.6272C83.9196 79.8962 83.7978 77.1581 83.6368 74.4243L83.5801 73.4688C83.5193 72.4335 83.4637 71.3974 83.4455 70.3606C83.4335 69.6737 83.4695 68.9869 83.4473 68.3008C83.4269 67.6673 83.3639 66.9786 83.5008 66.3562C83.5059 66.3329 83.542 66.327 83.5525 66.3493C83.6948 66.655 83.785 66.9872 83.8544 67.3264C84.2212 66.8531 84.5948 66.3788 84.9806 65.9268ZM60.9537 49.1938C61.0052 49.1899 61.0032 49.2688 60.9537 49.2746C60.2339 49.3598 59.5385 49.6587 58.8588 49.9127L58.8006 49.9344C58.1139 50.1886 57.4444 50.4842 56.8001 50.8365C55.5405 51.5254 54.3837 52.4136 53.361 53.4305C49.2778 57.4898 47.417 63.3434 46.0534 68.8444C45.2958 71.9007 44.7571 75.0087 44.4079 78.1405C44.2353 79.6893 44.1132 81.2441 44.042 82.8012C44.0056 83.5993 43.9826 84.3981 43.973 85.1969C43.9681 85.6061 43.9666 86.0154 43.9671 86.4246C43.9674 86.6121 44.0002 86.8482 43.951 87.0303C43.9054 87.1989 43.7768 87.3475 43.6817 87.488C43.569 87.6548 43.3664 87.646 43.2522 87.488L43.21 87.4305C43.0881 87.2656 42.9689 87.1079 42.9515 86.8923C42.9328 86.6612 42.946 86.4229 42.9451 86.1908C42.9432 85.7231 42.9489 85.2553 42.958 84.7877C42.9757 83.8915 43.0103 82.9956 43.0618 82.1007C43.1662 80.2846 43.3382 78.4722 43.5843 76.6704C44.0219 73.4678 44.6779 70.2957 45.537 67.1832C46.3476 64.247 47.3078 61.3195 48.6757 58.5997C49.9458 56.0745 51.6121 53.7253 53.8107 51.9605C54.8331 51.1398 55.9461 50.4559 57.1461 49.9408C57.7513 49.681 58.3868 49.4689 59.0331 49.348C59.6723 49.2284 60.3087 49.2451 60.9537 49.1938ZM72.2666 82.718C72.3807 82.7171 72.5081 82.7427 72.606 82.8072L72.7369 82.9103V82.9103C72.7723 82.9568 72.8076 83.0034 72.8428 83.0502C72.9246 83.159 72.9355 83.335 72.9184 83.4647C72.9145 83.5512 72.8893 83.6317 72.8428 83.7064L72.7431 83.838V83.838C72.6474 83.9177 72.5675 83.9745 72.4515 84.0128C72.3909 84.0328 72.3325 84.037 72.2743 84.034L72.2549 84.0327L72.2666 84.0343L72.2462 84.032V84.032C72.2273 84.0303 72.2083 84.0282 72.1892 84.0256C72.1762 84.0239 72.1632 84.0229 72.1502 84.0211C72.1378 84.02 72.1257 84.0196 72.1131 84.0207C71.9657 84.0349 71.8175 83.9496 71.7129 83.8516C71.6186 83.7633 71.534 83.5761 71.5472 83.4434L71.5528 83.3879C71.5627 83.2943 71.5708 83.2575 71.6097 83.1635C71.6474 83.0721 71.7002 82.9914 71.772 82.9233C71.9095 82.7928 72.0779 82.7194 72.2666 82.718ZM71.8103 75.8707C72.006 75.6532 72.3419 75.6372 72.5846 75.7687C72.6437 75.8008 72.6979 75.8523 72.7501 75.8953C72.8813 76.0036 72.9329 76.1989 72.9401 76.3635C72.9473 76.5263 72.8632 76.7195 72.7501 76.8319L72.7226 76.859V76.859C72.655 76.9261 72.5582 76.9844 72.4636 77.0022C72.3111 77.0308 72.183 77.0299 72.0409 76.9687C71.9189 76.9162 71.8138 76.8318 71.7422 76.7172L71.7306 76.6978C71.7257 76.6898 71.7211 76.6816 71.7167 76.6733L71.7104 76.6606C71.5745 76.3939 71.611 76.0921 71.8103 75.8707ZM71.9117 68.9873C71.9999 68.959 72.0881 68.955 72.1763 68.9752C72.2362 68.9753 72.292 68.9908 72.3438 69.0214C72.4 69.0374 72.4488 69.0665 72.4902 69.1085C72.54 69.1385 72.5798 69.179 72.6092 69.2299C72.6679 69.2953 72.7075 69.372 72.7281 69.4601L72.7517 69.6401L72.7281 69.8201L72.6611 69.9819V69.9819C72.6427 70.0064 72.6242 70.0309 72.6055 70.0553C72.576 70.1063 72.5362 70.1469 72.4862 70.1771C72.4536 70.2101 72.4164 70.2347 72.3747 70.2518C72.2269 70.3599 72.0301 70.3952 71.855 70.3459C71.751 70.3163 71.6608 70.2626 71.5842 70.185C71.5082 70.1068 71.4555 70.0147 71.4265 69.9087L71.4145 69.824C71.399 69.7104 71.3966 69.6475 71.4281 69.5031C71.4419 69.4396 71.482 69.3501 71.503 69.3124C71.5927 69.1514 71.7393 69.0411 71.9117 68.9873ZM79.5728 64.0352C79.8262 64.0333 80.0795 64.0338 80.3329 64.0367L80.5228 64.0393C80.841 64.0444 81.1134 64.0109 81.3635 64.2361C81.5451 64.3995 81.4651 64.6737 81.2928 64.7968C81.0317 64.9833 80.7042 64.8895 80.4041 64.869C80.0876 64.8473 79.7709 64.8293 79.454 64.8148C78.8405 64.7868 78.2268 64.769 77.6126 64.7662C76.9998 64.7636 76.3861 64.7695 75.7734 64.7795C75.1499 64.7899 74.5007 64.8491 73.8808 64.7833C73.7956 64.7743 73.7764 64.66 73.8605 64.6303C74.4447 64.4241 75.1019 64.3573 75.7142 64.2784C76.3457 64.197 76.9772 64.1394 77.6126 64.1021C78.2654 64.0639 78.919 64.0398 79.5728 64.0352ZM71.9105 62.0099L71.9314 62.0103C72.0429 62.0106 72.1473 62.0374 72.2446 62.0906L72.2653 62.1025L72.3992 62.2079C72.4812 62.2922 72.5379 62.3915 72.5693 62.5058L72.5929 62.6852V62.6852C72.5964 62.7781 72.5774 62.8648 72.536 62.9452C72.5093 63.0289 72.4637 63.1013 72.3992 63.1624C72.3393 63.2282 72.2683 63.2747 72.1863 63.302C72.1135 63.341 72.0356 63.3605 71.9523 63.3605L71.9314 63.3601C71.812 63.3597 71.7007 63.329 71.5976 63.268L71.4636 63.1624V63.1624C71.3817 63.0782 71.3249 62.979 71.2936 62.8646L71.2699 62.6852V62.6852C71.2665 62.5923 71.2854 62.5055 71.3269 62.4252C71.3536 62.3415 71.3992 62.2691 71.4636 62.2079C71.5236 62.1421 71.5945 62.0956 71.6766 62.0684C71.7494 62.0294 71.8273 62.0099 71.9105 62.0099V62.0099ZM73.8717 46.1553C74.0142 45.9447 74.2725 46.132 74.2355 46.3013C74.2453 46.7769 74.2691 47.2384 74.3752 47.7043C74.4237 47.9175 74.4874 48.1311 74.5855 48.3264L74.6267 48.4087C74.7537 48.6647 74.8523 48.9061 74.6813 49.187C74.6006 49.3194 74.4549 49.4188 74.297 49.4119C73.5965 49.381 73.5002 48.3863 73.4576 47.831C73.4137 47.259 73.5503 46.6305 73.8717 46.1553Z" fill="black"/>
<path fill-rule="evenodd" clip-rule="evenodd" d="M82.141 23.3208C79.9775 20.2793 75.9939 19.4047 72.5393 20.1444C65.7856 21.4018 59.3331 26.6645 58.1398 33.8217C56.278 38.1516 57.4669 44.9717 62.8814 45.4812C63.6522 45.5256 64.4158 45.3444 65.188 45.4422C69.9011 46.2112 75.4704 49.5027 79.6424 45.621C79.8515 45.774 80.1269 45.848 80.3614 45.7554C82.1372 45.0545 82.2206 43.0269 82.372 41.3602C82.5675 39.2066 82.7509 37.0518 82.922 34.8961C82.9831 31.1786 84.4258 26.533 82.141 23.3208V23.3208Z" fill="white"/>
<path fill-rule="evenodd" clip-rule="evenodd" d="M69.0469 15.5708C71.8904 15.4164 77.1296 16.7466 79.6102 18.3062C83.652 20.8471 83.9653 25.9157 83.8005 26.7921C83.7379 27.1266 83.5377 27.4361 83.2246 27.3333C83.4902 29.636 83.4693 30.9522 83.514 33.2682L83.5446 34.8144C83.5645 35.8453 83.5816 36.8763 83.586 37.9075C83.6882 37.8686 83.789 37.9163 83.8264 38.0164C83.8358 38.0407 83.8034 38.0539 83.7875 38.0399C83.6076 37.8796 83.7357 38.245 83.7976 38.3193C83.8833 38.4215 84.0258 38.5178 84.1259 38.6053L84.3976 38.8456V38.8456L84.6694 39.0855C85.0204 39.3948 85.36 39.7048 85.6875 40.038L85.7765 40.1295C86.3733 40.7486 87.1212 41.3477 87.4927 42.1485C87.8475 42.9131 87.7381 43.7799 87.1486 44.3894C86.934 44.6108 86.6835 44.7799 86.4114 44.9079C86.8959 45.7225 86.9664 46.7997 86.4611 47.6378C85.955 48.479 84.9818 48.9194 84.0445 48.8517C84.0157 48.9716 83.9711 49.0885 83.9121 49.1994C83.5404 49.897 82.8011 49.9876 82.1001 49.9502L82.0728 49.9487C80.4949 49.856 78.9767 49.4524 77.5946 48.6679C77.1151 48.701 76.6875 48.2987 76.5939 47.8576C76.342 47.8481 76.0886 47.8267 75.8302 47.7966C75.0635 47.7062 74.2774 47.5378 73.6015 47.1401C73.4978 47.079 73.546 46.918 73.6612 46.915C74.4847 46.8959 75.309 46.9541 76.1311 46.8629C76.8855 46.7797 77.6896 46.5673 78.3929 46.2784C79.657 45.7578 80.7411 44.8748 81.3393 43.6513C82.1138 42.0675 82.0433 40.1655 82.1275 38.4451C82.2208 36.5406 82.3357 34.638 82.4585 32.7355L82.5181 31.8236C82.6373 30.0461 82.7361 29.0952 83.0382 27.2502C82.1275 27.3333 78.3447 25.9427 77.1684 23.668C74.9357 28.507 63.6241 26.5266 63.1224 33.9762C63.1182 34.0394 63.0202 34.0218 63.0166 33.9615L63.0073 33.7917C63.0028 33.7078 62.9987 33.6252 62.9959 33.5433L62.9936 33.4616L62.8158 33.4638C62.8158 33.4865 62.7841 33.4946 62.7762 33.4704C62.6085 32.9843 61.8094 33.1409 61.4617 33.2564C61.1486 33.3608 60.8534 33.521 60.5885 33.7189C60.0565 34.1159 59.6441 34.6505 59.5073 35.3187C59.2474 36.5878 60.0385 37.8804 61.0888 38.4928C61.7511 38.8789 62.4767 39.1281 63.1116 39.5656C63.6724 39.9516 64.195 40.4038 64.6478 40.9177C66.4417 42.9536 67.497 46.0416 66.6483 48.7289C66.5835 48.9341 66.4122 49.1685 66.1855 49.2017C65.8104 49.2568 65.4354 49.201 65.2252 48.8363C65.1431 48.6937 65.1042 48.5312 65.1129 48.3709C64.9674 48.8811 64.4959 49.3855 64.0611 49.5752C63.4687 49.834 62.8014 49.7567 62.2788 49.4229L62.2127 49.4728C61.3628 50.1118 60.4134 50.6941 59.3244 50.5766C58.5355 50.4913 57.7609 50.0811 57.3247 49.434C56.7445 49.7671 56.1247 50.0325 55.4854 50.2133L55.4174 50.2324C54.5379 50.477 53.4161 50.7012 52.5952 50.2045C51.8069 49.7273 51.5449 48.6855 51.7299 47.8157C51.7522 47.7121 51.7803 47.6114 51.8148 47.5136C51.2217 47.5459 50.6292 47.4878 50.0663 47.3099C49.4911 47.1282 48.9426 46.779 48.6669 46.2129C48.3559 45.5725 48.4387 44.8446 48.6705 44.1925C49.0412 43.1461 49.6373 42.2153 50.3794 41.4044C51.0931 40.6239 51.9541 39.9618 52.8488 39.4099L52.9996 39.3177C53.805 38.827 54.7763 38.2521 55.728 38.2899C55.7251 38.2774 55.723 38.2656 55.7215 38.2532C55.5776 37.1701 55.5941 36.0658 55.5603 34.974C55.5293 33.9696 55.4941 32.9653 55.471 31.9602C55.4336 30.2514 55.4458 28.5354 55.6639 26.8385C55.8576 25.3327 56.206 23.8643 56.8416 22.4857C57.509 21.0374 58.5139 19.8014 59.7549 18.8294C62.3594 16.7891 65.7996 15.7473 69.0469 15.5708ZM60.2005 35.6408C60.4841 35.0945 61.1299 34.9225 61.6964 35.021C62.4904 35.1592 63.0303 35.8681 63.4939 36.4776C63.9805 37.1164 62.9655 37.7186 62.7042 37.0996L62.6423 36.9534C62.4326 36.4624 62.1848 35.9448 61.7569 35.6246C61.3019 35.2849 60.6598 35.2349 60.2581 35.6864C60.2293 35.7195 60.1811 35.6768 60.2005 35.6408Z" fill="black"/>
<path fill-rule="evenodd" clip-rule="evenodd" d="M74.9833 42.8989C74.5005 42.697 74.0697 42.3602 73.7548 41.93C73.6453 41.7805 73.6169 41.6226 73.6399 41.4781C73.6657 41.3157 73.7594 41.1685 73.8873 41.0697C74.0155 40.9707 74.1759 40.9219 74.331 40.9468C74.4658 40.9684 74.5999 41.044 74.7061 41.2009L74.7283 41.2322C74.9155 41.4919 75.1595 41.7049 75.4375 41.8423C75.7055 41.9746 76.0052 42.0364 76.3153 42.0005C76.906 41.9321 77.3131 41.6046 77.7458 41.16C77.7994 41.1039 77.8531 41.046 77.907 40.9871C77.9411 40.9338 77.9883 40.8995 78.0408 40.8816C78.0991 40.8616 78.165 40.8627 78.2254 40.8843C78.2836 40.9051 78.3356 40.9446 78.3705 40.9971C78.4037 41.0471 78.4225 41.1088 78.4164 41.1797C78.3768 41.6405 78.1418 42.0517 77.8079 42.3746C77.4372 42.7333 76.9457 42.9814 76.4829 43.0684C75.9732 43.1642 75.4537 43.0956 74.9833 42.8989V42.8989ZM76.7234 35.7902C77.2658 36.1282 78.0922 36.9161 77.5087 37.7538C76.8219 38.4925 75.8331 37.6456 75.3459 37.2625C74.894 36.9657 74.3864 37.7292 74.8056 38.0758C78.3266 40.7478 79.7555 35.8786 76.9977 35.3929C76.6941 35.3394 76.5813 35.6857 76.7234 35.7902ZM70.4138 32.682C70.4737 31.9195 71.6065 31.7464 71.7192 32.5009C71.8201 33.1767 71.7013 33.7975 71.4043 34.406C71.1206 34.9873 70.4073 34.7161 70.3534 34.1868C70.2811 33.4772 70.3765 33.1562 70.4138 32.682ZM79.037 32.3444C79.195 32.1324 79.423 31.9877 79.6962 32.0695C80.5498 32.3251 80.2982 33.5673 79.9984 34.172C79.8355 34.5003 79.309 34.5836 79.0711 34.2945C78.6832 33.823 78.4975 32.8815 78.9906 32.4171C79.0039 32.3931 79.0188 32.3689 79.037 32.3444ZM71.3923 29.3458L71.5271 29.3216C71.9443 29.2477 72.4629 29.1766 72.758 29.5204C72.9145 29.7027 72.9684 30.0415 72.758 30.2159C72.388 30.5229 71.9789 30.404 71.5354 30.43C71.17 30.4515 70.8188 30.5134 70.4668 30.6166C69.6946 30.8428 69.0653 31.2558 68.4058 31.7093C68.3192 31.7688 68.2309 31.6553 68.2722 31.5724C68.6529 30.808 69.3908 30.1801 70.1298 29.7973C70.5243 29.593 70.9559 29.4236 71.3923 29.3458ZM78.2589 29.0034L78.3621 29.0251C79.4852 29.2657 80.9444 29.7464 81.4762 30.8771C81.4965 31.037 81.4751 31.0713 81.4577 31.0937L81.4519 31.1011C81.4375 31.1203 81.4261 31.1466 81.3584 31.1684C81.3397 31.1638 81.3207 31.1589 81.3016 31.1538C81.0578 31.0883 80.8649 30.9981 80.6782 30.9045L80.4757 30.8022C80.2408 30.6842 80.0038 30.5704 79.7527 30.4864C79.2168 30.3073 78.6655 30.181 78.1057 30.1136C77.9843 30.099 77.8675 30.0571 77.7753 29.9851C77.6878 29.9168 77.621 29.8223 77.5905 29.6966C77.551 29.534 77.5624 29.4109 77.6475 29.2642C77.7115 29.154 77.8031 29.0776 77.9083 29.0338C78.0155 28.989 78.1376 28.9785 78.2589 29.0034Z" fill="black"/>
<path fill-rule="evenodd" clip-rule="evenodd" d="M55.5043 89.0296C56.7631 88.9685 56.2568 86.7531 56.1664 85.9395C55.1698 82.9679 55.4041 79.7258 55.0121 76.6112C54.7679 73.7035 54.4542 70.805 54.1903 67.8996C53.6719 62.002 49.9498 49.9959 45.702 48.065C45.167 45.7028 42.9569 43.4977 40.1607 43.4977C38.2536 41.2264 35.9581 39.6279 33.0139 39.9506C31.7972 40.0063 30.6173 41.3047 29.4514 41.5554C28.7987 41.646 23.0057 41.4129 21.8453 42.1063C21.037 42.5239 20.3073 43.2955 20.5449 44.2779C20.9241 45.4682 19.7457 44.1803 17.2873 45.4507C12.2745 48.4799 15.2699 52.5322 15.4027 52.6578C12.2745 57.037 9.54022 60.5897 8.27513 65.9423C7.45523 69.9162 7.54753 74.0186 6.86056 78.0129C6.61801 79.3979 6.2459 80.7355 5.84324 82.0804C5.40685 83.8406 5.19465 88.2277 4.95411 88.2669C4.51596 88.3764 5.20734 89.2815 5.67161 89.2823C18.5436 91.4305 31.6184 89.3712 44.5595 89.0348C48.2065 88.9072 51.8575 88.8778 55.5043 89.0296Z" fill="white"/>
<path fill-rule="evenodd" clip-rule="evenodd" d="M35.9945 53.0445C36.0005 52.9852 36.0799 52.9853 36.0861 53.0445L36.1769 53.9272C36.2875 55.0052 36.394 56.0812 36.4711 57.1642C36.5673 58.5148 36.6317 59.8651 36.6627 61.2187C36.7708 65.933 36.7923 70.6498 36.8014 75.3653C37.4352 75.3211 38.0691 75.2786 38.7033 75.2374C39.1336 75.2094 39.5639 75.1826 39.9942 75.1562L41.0916 75.0893V75.0893L41.5433 75.0614C41.8486 75.0424 42.1955 74.965 42.4089 75.2371C42.4944 75.3461 42.5372 75.4876 42.4576 75.6169C42.2738 75.9152 41.9916 75.9047 41.6724 75.9176C41.3712 75.9299 41.07 75.9419 40.7688 75.9536C40.1234 75.9788 39.4781 76.0026 38.8325 76.0208C38.155 76.0399 37.4778 76.0555 36.8005 76.0671C36.7937 78.0578 36.7118 80.046 36.6233 82.0345L36.5832 82.9293C36.4749 85.3492 36.3584 87.7712 36.1929 90.1879C36.1793 90.3857 35.9011 90.3854 35.8876 90.1879C35.7012 87.4663 35.5782 84.739 35.4563 82.0137C35.3678 80.0378 35.3164 78.0614 35.2919 76.0847C35.2023 76.0853 35.1128 76.0865 35.0233 76.0869C32.4814 76.098 29.9401 76.1091 27.3981 76.0851C27.4023 76.0902 27.4065 76.0952 27.4093 76.1019C27.5932 76.5388 27.6107 77.0964 27.6063 77.5653C27.6011 78.1031 27.5291 78.6343 27.406 79.1572C26.965 81.0307 25.8274 82.7088 24.5317 84.0961L24.4894 84.1412C24.1838 84.4661 23.8332 84.7926 23.6455 85.2064C23.4539 85.629 23.3873 86.1232 23.2928 86.5773L23.2817 86.6295L22.9119 88.3482C22.7944 88.8941 22.761 89.6902 22.3315 90.0841C21.9308 90.4516 21.4 90.2597 21.2114 89.7865C21.0642 89.4172 21.2109 89.0116 21.2981 88.6425L21.9814 85.7525C22.0937 85.2812 22.2164 84.8068 22.4587 84.3834C22.7069 83.9498 23.0708 83.6354 23.4421 83.3138C24.1453 82.7047 24.7907 82.0074 25.3366 81.2525C25.8823 80.4978 26.3487 79.6659 26.6757 78.7912C26.8394 78.3533 26.9736 77.8983 27.0662 77.4397C27.1542 77.0045 27.1534 76.5538 27.2475 76.1232C27.2539 76.0935 27.2789 76.0731 27.3075 76.064C27.3007 76.0448 27.3111 76.0189 27.3378 76.0172L29.4167 75.8828C31.2646 75.7628 33.1125 75.6398 34.9588 75.4993L35.285 75.4756V75.4756C35.2597 72.8381 35.2812 70.2002 35.3286 67.5618C35.3719 65.1424 35.3728 62.7223 35.4444 60.3032C35.4799 59.1025 35.5566 57.9047 35.6419 56.7065C35.7292 55.4812 35.8689 54.2662 35.9945 53.0445ZM16.4745 67.073C16.4523 66.9387 16.6203 66.8554 16.6977 66.9783C17.583 68.3822 18.0098 69.9071 18.1897 71.55C18.3486 72.9999 18.3018 74.4707 18.2226 75.9245C18.1382 77.475 18.0398 79.0251 17.9402 80.5748L17.7872 82.9513V82.9513L17.4032 88.9089C17.3757 89.335 17.2796 89.7226 16.9149 89.9207C16.8687 89.9595 16.8206 89.9943 16.7645 90.0244C16.5675 90.1304 16.3062 90.0768 16.1922 89.8734L16.2379 89.9036C16.2777 89.9288 16.233 89.8936 16.1039 89.7982L15.9942 89.6554V89.6554C15.9146 89.535 15.8637 89.4166 15.8433 89.2734C15.8115 89.0509 15.8526 88.8068 15.8671 88.5832L16.1188 84.6766V84.6766C16.3145 81.6396 16.543 78.6034 16.7153 75.5648C16.7956 74.1486 16.8518 72.7311 16.8137 71.3124C16.7758 69.9016 16.7044 68.4669 16.4745 67.073ZM24.1325 40.9214L24.1816 40.9131C25.9399 40.6192 27.8518 40.6742 29.4587 41.527C29.472 41.534 29.4659 41.5562 29.451 41.5556L28.9338 41.5348C27.2964 41.4703 25.6641 41.4321 24.0541 41.8192L23.8893 41.8591C23.3095 42.0014 22.704 42.1756 22.2383 42.5609C21.7932 42.9292 21.5716 43.4973 21.3584 44.0203L21.3299 44.0893C21.1137 44.6059 20.84 45.0958 20.3661 45.4188C19.7522 45.8371 19.0139 45.7859 18.31 45.8427C17.0706 45.9429 16.0573 46.8466 15.5532 47.9525C15.2479 48.6221 15.1177 49.3729 15.0919 50.1051C15.0787 50.478 15.0768 50.8653 15.1262 51.2357C15.142 51.3541 15.2875 51.7855 15.3617 51.7751C15.5265 51.7521 15.6772 51.8386 15.7286 51.9712C16.1358 51.5754 16.5548 51.191 16.9872 50.8204C18.0651 49.8968 19.2261 49.0597 20.4488 48.3404C21.382 47.7914 22.3663 47.2475 23.3855 46.8362C23.3048 46.8345 23.2251 46.8507 23.148 46.891C23.1143 46.9087 23.0808 46.8661 23.1074 46.8379C23.4284 46.4981 23.813 46.4497 24.2007 46.5404C24.2834 46.5139 24.3662 46.4883 24.4493 46.4639C24.4906 46.4518 24.5112 46.5092 24.4775 46.5313L24.3823 46.5925V46.5925C24.8052 46.7351 25.2204 47.0152 25.5491 47.2363C26.4934 47.8713 27.3246 48.6475 28.1672 49.4092L28.3204 49.5473C29.062 50.2136 29.8226 50.861 30.6652 51.3956C31.1063 51.6753 31.5696 51.9341 32.0555 52.1266C32.4723 52.2918 33.1509 52.3958 33.3461 52.839C33.5197 53.0511 33.4472 53.3217 33.2439 53.4645C32.9012 53.844 32.2156 53.5988 31.8072 53.4407C31.3149 53.2502 30.8379 53.0211 30.383 52.7525C29.4999 52.2309 28.6856 51.5823 27.927 50.8923C27.1348 50.1717 26.3875 49.4062 25.617 48.663C25.2831 48.341 24.957 48.0114 24.6226 47.6898L24.4547 47.5298C24.284 47.3688 24.0409 47.1178 23.781 46.9659C23.2912 47.2598 22.7939 47.5416 22.3086 47.8431C21.6312 48.264 20.9736 48.7152 20.3263 49.1812C19.08 50.0785 17.899 51.0834 16.8026 52.1605C14.7918 54.1358 13.0787 56.3915 11.5821 58.7799L11.4684 58.9619C10.618 60.329 9.81376 61.7402 9.24353 63.2508C8.61609 64.913 8.31094 66.661 8.14518 68.4255C7.98065 70.1774 7.92516 71.9381 7.74129 73.6883C7.55272 75.4833 7.1812 77.2387 6.75862 78.9908L6.65783 79.4062C6.27546 80.9754 5.88079 82.5445 5.68424 84.1507C5.57931 85.0087 5.51619 85.8784 5.53046 86.7433C5.54479 87.6133 5.68065 88.464 5.79027 89.3248C5.83229 89.6545 5.50974 89.9298 5.22114 89.9735C4.88922 90.0236 4.60406 89.8106 4.50089 89.5003C4.17926 88.5332 4.12084 87.4642 4.13093 86.4491C4.14109 85.4186 4.27181 84.3949 4.45575 83.3821C4.8175 81.39 5.37576 79.4391 5.84277 77.4709C6.25435 75.7361 6.53058 73.9982 6.67948 72.221C6.83404 70.3772 6.92659 68.5271 7.20856 66.6966C7.48687 64.8894 8.01055 63.1633 8.80029 61.5154C9.51937 60.0151 10.4157 58.6029 11.3555 57.2341C12.4967 55.572 13.7501 53.9903 15.1511 52.5492C15.0252 52.5437 14.896 52.5028 14.7773 52.4284C14.4143 52.2005 14.2452 51.7548 14.1932 51.3478C14.0716 50.3958 14.1009 49.402 14.3443 48.4712C14.7368 46.9697 15.7556 45.6355 17.2322 45.0943C17.6123 44.955 18.0163 44.9041 18.4191 44.8941C18.8013 44.8845 19.2187 44.9346 19.5875 44.8128C20.1745 44.6186 20.4261 43.923 20.6465 43.3957L20.6567 43.3715C20.9393 42.6996 21.2785 42.1237 21.8906 41.7042C22.5437 41.2564 23.362 41.0528 24.1325 40.9214V40.9214ZM40.8391 43.5787C41.3674 43.3942 42.028 43.5616 42.5447 43.7227C43.1204 43.9023 43.6523 44.2329 44.1084 44.6257C44.5895 45.0399 44.9872 45.5513 45.2681 46.1226L45.295 46.1776C45.5515 46.7076 45.8438 47.4352 45.7144 48.0174C45.7107 48.0339 45.7064 48.0498 45.7016 48.0652C46.75 48.5845 47.7181 49.2348 48.5612 50.0591C49.5429 51.0188 50.3741 52.111 51.0776 53.2908C53.8714 57.977 54.3631 63.605 54.6931 68.9492L54.7754 70.3043C54.9545 73.2303 55.1642 76.1494 55.7089 79.035L55.7486 79.2433C56.3308 82.2646 57.1642 85.309 57.0798 88.4083C57.0545 89.3369 55.6905 89.3306 55.6509 88.4083C55.502 84.9368 54.6968 81.585 54.1516 78.1677C53.1923 72.1556 53.6729 65.9574 52.3136 60.0055C51.7802 57.6697 50.9538 55.404 49.7738 53.3191C49.1909 52.2891 48.524 51.2938 47.7428 50.4052C47.0707 49.6407 46.3721 48.9048 45.5867 48.2621C45.3356 48.5151 44.8342 48.3861 44.7031 48.0174C44.6131 47.764 44.6394 47.4677 44.5816 47.2022C44.528 46.9559 44.4541 46.7116 44.3556 46.4796C44.1593 46.0173 43.8711 45.5733 43.5385 45.1991C43.1791 44.7946 42.7661 44.4586 42.304 44.1811C41.8387 43.9017 41.3298 43.8183 40.8391 43.6142C40.8225 43.6073 40.821 43.585 40.8391 43.5787ZM42.8919 75.7095C42.8926 75.6852 42.9212 75.6736 42.9388 75.69C43.1241 75.8615 43.236 76.1076 43.3723 76.3186C43.5296 76.5618 43.6947 76.8001 43.8678 77.0322C44.2147 77.4972 44.6009 77.9355 44.9901 78.365C45.3521 78.7643 45.738 79.1469 46.1382 79.5074C46.5719 79.8982 47.0579 80.2468 47.4519 80.6794C48.274 81.5822 48.4068 82.8213 48.5802 83.9848L48.5992 84.1106C48.705 84.8011 48.7998 85.4934 48.8852 86.1866C48.9268 86.5239 48.9682 86.8614 49.0021 87.1995L49.0124 87.3066C49.0426 87.6376 49.0508 87.9734 48.8619 88.2626C48.6596 88.572 48.1998 88.6805 47.9265 88.3838C47.4568 87.8741 47.5449 86.9688 47.4838 86.3132C47.4333 85.771 47.376 85.2295 47.3119 84.6888L47.2793 84.4185C47.2038 83.8034 47.1424 83.1761 47.0026 82.5717C46.8793 82.0394 46.6443 81.6377 46.2589 81.2521C45.8705 80.8637 45.467 80.5011 45.1086 80.0828C44.7284 79.6391 44.3855 79.1634 44.0765 78.6669C43.8122 78.2422 43.6004 77.7801 43.4063 77.3185L43.3741 77.2416C43.1865 76.7914 42.8772 76.2054 42.8919 75.7095ZM49.6731 56.3742C49.6772 56.3114 49.7694 56.3104 49.7708 56.3742C49.7824 56.9142 49.7936 57.4542 49.8048 57.9942C49.8944 62.3458 49.8391 66.7077 50.2731 71.0443C50.4777 73.089 50.8546 75.1037 51.2907 77.1099C51.5138 78.1365 51.7479 79.1607 51.9703 80.1874C52.1871 81.188 52.4195 82.1935 52.5915 83.2034C52.7605 84.196 52.9118 85.1963 52.9797 86.2017L52.9881 86.3328C53.0173 86.8198 53.1569 87.5361 52.8904 87.9677C52.6016 88.4354 52.0487 88.4438 51.7392 87.9974C51.4487 87.5783 51.5209 86.8328 51.4696 86.3328C51.4174 85.8234 51.3622 85.3136 51.2996 84.8054C51.1773 83.8141 51.0162 82.825 50.8487 81.8404C50.4998 79.79 49.9937 77.7654 49.6202 75.7182C49.2373 73.6206 48.9652 71.5079 48.9537 69.3721C48.9423 67.2182 49.1689 65.0685 49.2833 62.9193C49.3995 60.7365 49.5316 58.5554 49.6731 56.3742ZM29.2419 42.8392C29.3581 42.4458 29.7679 42.1999 30.1677 42.3104C30.5341 42.4117 30.8365 42.8591 30.6933 43.2419C30.537 43.6596 30.2638 44.0157 30.0335 44.3954C29.8208 44.7462 29.5105 45.0224 29.2938 45.367L29.5326 45.626C29.652 45.7552 29.7719 45.8837 29.893 46.0099L30.3095 46.444C30.6339 46.7813 30.9603 47.1168 31.2959 47.4425C32.2828 48.4003 33.2854 49.3266 34.3906 50.1468C34.6422 50.3335 34.8958 50.5191 35.1565 50.6929L35.2537 50.7577C35.4325 50.8755 35.632 50.9913 35.848 50.9713C36.373 50.9228 36.8473 50.3619 37.208 50.0128L37.2269 49.9946C38.1209 49.1388 38.9487 48.2031 39.6724 47.197C39.833 46.9735 39.9887 46.7461 40.1402 46.5161C39.7903 46.1049 39.8738 45.3022 39.8545 44.8035C39.8409 44.4528 39.8399 44.102 39.838 43.7511L39.837 43.6803C39.8328 43.4532 39.8226 43.2354 39.9691 43.0485C39.9776 43.0376 39.9953 43.038 40.0062 43.0437C40.2068 43.1495 40.2687 43.3266 40.3543 43.5253L40.3632 43.5459C40.4674 43.7844 40.5672 44.0251 40.6682 44.265C40.7739 44.5161 40.8708 44.7709 40.969 45.025C41.0148 45.1433 41.0584 45.2619 41.1011 45.3813C41.1271 45.4575 41.154 45.5333 41.1816 45.609L41.1881 45.6148C41.2246 45.646 41.2555 45.6789 41.2821 45.7128C41.3941 45.7692 41.4831 45.8719 41.5248 46.0227C41.6157 46.3511 41.4276 46.6189 41.2599 46.8795C40.5786 47.9385 39.802 48.9477 38.9387 49.8631C38.5099 50.3179 38.0588 50.7523 37.5892 51.1643L37.5071 51.2358C37.0852 51.6006 36.6272 51.9461 36.0638 52.0314C35.4045 52.1313 34.8679 51.8014 34.3632 51.4213L34.3128 51.3832C33.8344 51.0188 33.3655 50.6415 32.9113 50.247C31.9852 49.4425 31.1041 48.5787 30.3222 47.631C29.5615 46.7092 28.8097 45.6785 28.3409 44.5693C28.3123 44.5017 28.3874 44.431 28.4463 44.4875C28.6753 44.7068 28.8957 44.9381 29.1134 45.1723C29.1195 44.8275 29.0562 44.4798 29.0914 44.1329C29.1343 43.7111 29.122 43.2453 29.2419 42.8392Z" fill="black"/>
<path fill-rule="evenodd" clip-rule="evenodd" d="M49.3047 33.4166C49.7401 30.2541 48.8103 27.202 47.6057 24.3117C47.5396 24.1356 47.4347 23.9832 47.2998 23.8748C43.9004 16.9787 38.9054 16.3543 31.937 16.8292C31.7311 16.8246 31.7189 16.8283 31.5626 16.7579C31.5367 13.9565 28.3579 12.4726 25.9389 13.3969C15.2105 18.4148 18.5839 32.5416 20.7188 41.7644C21.4805 45.3346 22.2423 48.9045 23.0041 52.4746C23.0297 52.594 23.0836 52.6972 23.1553 52.7842C23.0447 52.8265 22.934 52.8661 22.8254 52.9033C22.5775 52.9882 22.676 53.3601 22.934 53.2998C23.1868 53.2408 23.4304 53.1616 23.6715 53.0754C24.0472 53.1574 24.3623 52.9103 24.6573 52.7132C28.1117 51.3383 29.5619 46.8197 30.448 43.4909C34.0504 46.0491 39.8066 47.965 43.9255 45.6647C47.7849 43.3254 49.1748 38.4457 48.9006 34.1388C49.1823 34.0083 49.2959 33.7239 49.3033 33.4275H49.305C49.3049 33.4238 49.3047 33.4202 49.3047 33.4166V33.4166Z" fill="white"/>
<path fill-rule="evenodd" clip-rule="evenodd" d="M24.9496 13.6603C25.7461 13.141 26.7683 12.9477 27.7066 12.9856C28.2071 13.0057 28.6743 13.1313 29.1357 13.3199C29.5633 13.4948 29.9404 13.746 30.3568 13.9374C30.3821 13.949 30.3629 13.9848 30.339 13.9799C29.8459 13.8797 29.267 13.9402 28.767 14.0119L28.7173 14.0191C28.2259 14.091 27.7259 14.1281 27.2415 14.2421C26.3493 14.452 25.5194 14.9093 25.0297 15.7049C24.3902 16.7438 24.2263 18.0887 24.2947 19.2874C24.3293 19.8939 24.4481 20.4906 24.6331 21.0688C24.7442 21.4158 25.0022 21.7649 25.1227 22.1291C25.2145 21.9567 25.3091 21.7861 25.4072 21.6175C24.9605 21.4056 24.8352 20.8167 24.8121 20.2853C24.7433 20.2184 24.699 20.1215 24.6975 20.0326C24.6936 19.7935 24.7495 19.5771 24.8445 19.3791C24.8988 18.8182 25.0138 18.2591 25.2117 17.7335C25.9886 15.6701 28.0382 13.8103 30.3624 13.994C31.0012 14.0445 31.6228 14.3176 31.9531 14.898C32.2184 15.364 32.2202 15.9262 32.0372 16.422C31.9829 16.5691 31.9123 16.702 31.8294 16.8232C32.0805 16.7591 32.3321 16.6976 32.5832 16.6367C33.4545 16.4253 34.3303 16.2597 35.2224 16.1676C36.4373 16.0422 37.6773 16.2319 38.7906 16.7199C39.096 16.799 39.3998 16.8839 39.7018 16.9745C41.0309 17.3734 42.3946 17.8944 43.4681 18.8048C43.962 19.2237 44.3155 19.711 44.6024 20.2461C45.6771 21.2104 46.7047 22.3036 47.4301 23.5541C48.9246 26.1306 49.2816 29.3176 49.343 32.2467C49.3995 34.9374 49.1646 37.6558 48.6636 40.2996C48.4361 41.4994 48.0685 42.6145 47.3247 43.5985C46.4964 44.6943 45.3916 45.5576 44.152 46.1369C41.6283 47.3162 38.5047 47.4878 36.0516 46.0267C35.3138 45.5873 35.9781 44.4418 36.7234 44.8699C39.1452 46.2608 42.236 45.9431 44.5662 44.4685C45.5506 43.8456 46.3989 42.9937 46.9379 41.9506C47.3314 41.1887 47.5003 40.315 47.6465 39.4643L47.7242 39.0092C48.1757 36.3932 48.3798 33.7099 48.2712 31.056C48.1629 28.4087 47.7457 25.5413 46.2558 23.2907C45.47 22.1036 44.4679 21.0636 43.4153 20.1154C43.3414 20.0487 43.2673 19.9824 43.1931 19.9162C42.7817 19.6674 42.3553 19.4501 41.9358 19.2647L41.8465 19.2259C41.6052 19.1223 41.2677 18.9886 40.9545 18.8816C40.5069 18.7288 40.0521 18.5929 39.5954 18.4705C39.356 18.4064 39.1154 18.3475 38.8743 18.2913C38.9583 18.3689 39.0419 18.4472 39.124 18.5275C39.513 18.9079 39.8216 19.3599 40.1904 19.7588C40.232 19.8038 40.1795 19.8695 40.1265 19.8421C39.5656 19.5524 38.9437 19.365 38.3581 19.1303C37.8045 18.9085 37.2664 18.6531 36.7226 18.4083C36.5863 18.3469 36.4505 18.2813 36.3151 18.2164C35.7803 18.2219 35.2454 18.2346 34.7118 18.2652C35.3569 18.7274 35.9461 19.2736 36.4341 19.8726C36.4744 19.922 36.4378 20.001 36.37 19.9835C35.3484 19.7202 34.3769 19.3333 33.4059 18.9278L32.9413 18.7331V18.7331C32.5998 18.7157 32.2579 18.7076 31.9158 18.7127L31.7501 18.7155C31.391 18.7224 31.0327 18.7367 30.6768 18.7914C30.5921 18.8044 30.5092 18.8167 30.4268 18.828C29.926 19.0337 29.4441 19.2818 29.0105 19.6087L29.1235 19.602V19.602C29.8091 19.5627 30.5081 19.6221 31.172 19.8003C32.4621 20.1466 33.5629 20.9804 34.3639 22.0437C34.3879 22.0755 34.3413 22.1198 34.3099 22.0982C33.3022 21.4038 32.1333 21.054 30.9358 20.8641C30.357 20.7722 29.7608 20.7406 29.1765 20.7863C28.6926 20.8242 28.1921 20.9957 27.7106 20.9125C27.5794 21.0769 27.4534 21.2464 27.3321 21.4196C27.3958 21.4155 27.4598 21.4117 27.5243 21.4087C28.2157 21.376 28.9198 21.4206 29.5948 21.5808C30.9432 21.9009 32.0699 22.7156 33.1006 23.6101C33.121 23.6278 33.0947 23.6593 33.0727 23.6466C31.9548 22.9973 30.6556 22.8032 29.3894 22.6861C28.7517 22.6271 28.1069 22.6003 27.4678 22.6515C27.175 22.6749 26.8855 22.7236 26.5936 22.7538C26.57 22.7562 26.5455 22.7569 26.5211 22.758C26.3096 23.1596 26.1177 23.5683 25.9447 23.9759C26.4728 23.8333 27.0427 23.7584 27.588 23.7953C28.6956 23.8704 29.7942 24.3815 30.6784 25.0353C30.7061 25.0558 30.6906 25.1102 30.653 25.0959C29.6906 24.73 28.7366 24.727 27.7322 24.8682C27.2614 24.9344 26.7953 25.0243 26.3403 25.1652C26.1116 25.2361 25.8855 25.3134 25.6685 25.4152C25.5699 25.4613 25.474 25.5151 25.377 25.5658C25.2994 25.831 25.23 26.0986 25.1674 26.3679C26.8091 26.461 28.3557 27.2409 29.7017 28.136C29.7342 28.1577 29.7139 28.2179 29.6737 28.2027C28.8702 27.8975 27.9962 27.7565 27.1439 27.6743C26.3987 27.6025 25.6674 27.6416 24.9265 27.6625C24.8868 27.9459 24.8546 28.23 24.8314 28.5148C24.9505 28.5484 25.0674 28.5846 25.1798 28.6186C25.5495 28.7304 25.9184 28.8809 26.2633 29.0554C26.964 29.4097 27.5317 29.8887 28.1029 30.4212C28.1327 30.449 28.1017 30.5097 28.0612 30.4933C27.3982 30.2235 26.6737 30.0507 25.9758 29.8979C25.6145 29.8188 25.2532 29.7458 24.8894 29.6788C24.8542 29.6723 24.8184 29.6668 24.7827 29.6614C24.7793 30.3106 24.8158 30.96 24.8962 31.6041L24.9118 31.7248C24.9554 32.0508 24.9197 32.3661 24.7053 32.5913C25.0019 32.3929 25.3413 32.2554 25.7174 32.2027C26.7078 32.064 27.625 32.4623 28.2482 33.2327C28.2774 33.2687 28.2324 33.3159 28.197 33.2842C27.5921 32.7425 26.66 32.6467 25.9088 32.9017C25.2134 33.1378 24.6906 33.7014 24.4811 34.4067C24.2584 35.1562 24.3604 35.9836 24.7664 36.6517C24.9687 36.9846 25.2609 37.2822 25.6266 37.4285C25.6717 37.4466 25.7177 37.4617 25.7641 37.4748C25.9848 37.3936 26.2223 37.4304 26.4493 37.5333L26.4787 37.5472V37.5472C26.6235 37.5464 26.7677 37.5419 26.9078 37.5432C27.1804 37.5458 27.3115 37.8372 27.1971 38.054C27.262 38.1736 27.3095 38.308 27.3665 38.4253C27.4695 38.6368 27.5773 38.847 27.6857 39.0558C27.839 39.2328 27.9854 39.4161 28.0848 39.6297C28.1256 39.7174 28.1641 39.8123 28.1936 39.9075C28.2788 40.0365 28.3654 40.1648 28.4541 40.2924C28.7409 40.7047 29.0429 41.0953 29.3778 41.4696C29.5791 41.6946 29.8107 41.8954 30.0239 42.111C30.0885 42.1197 30.1518 42.164 30.1717 42.2276L30.1892 42.2885V42.2885C30.2579 42.3664 30.3236 42.4467 30.3828 42.5321C30.5141 42.7216 30.4781 42.9139 30.3627 43.0525C30.5454 44.1997 30.421 45.4202 30.1766 46.5326C30.0186 47.2514 29.8341 47.9696 29.5864 48.6629C29.4606 49.0154 29.3081 49.354 29.0974 49.6636C28.982 49.8332 28.8315 50.0308 28.6628 50.1922C28.6372 50.3801 28.6039 50.5665 28.5561 50.7492C27.9903 52.9138 25.6738 53.5728 23.7342 53.8492C23.3599 53.9025 22.9894 53.8115 22.7855 53.4606C22.7384 53.3795 22.7067 53.2922 22.6897 53.2024C22.6052 53.1798 22.524 53.1399 22.4511 53.0827C22.4389 53.2183 22.4249 53.3544 22.4071 53.492C22.3627 53.836 21.9014 53.9394 21.7858 53.5766C21.2979 52.0456 21.0328 50.4312 20.6984 48.8579C20.3648 47.2879 19.9922 45.7263 19.6474 44.1587L19.2109 42.1803C18.1457 37.3359 17.148 32.4296 17.3929 27.4472C17.5266 24.7274 18.0224 22.0148 19.0836 19.5014C19.9676 17.4077 21.4596 15.0555 23.8698 14.6274C23.8863 14.6245 23.9011 14.6262 23.9149 14.6298C24.2011 14.2552 24.5431 13.9253 24.9496 13.6603ZM26.4039 39.9936C26.5982 40.6425 26.737 41.3078 26.8125 41.9867C26.9382 43.1183 26.8759 44.2775 26.8213 45.4121C26.771 46.4545 26.6517 47.5059 26.4487 48.5294C26.2538 49.5122 25.9483 50.4758 25.4941 51.3698C25.4207 51.5144 25.3418 51.6552 25.2588 51.7933C25.51 51.709 25.7367 51.611 25.9729 51.475C26.2701 51.3038 26.5422 51.0831 26.691 50.8502C26.9298 50.4768 27.0099 50.0619 27.0449 49.6167C27.1347 48.4719 27.1762 47.3237 27.2335 46.177L27.2462 45.9273C27.3389 44.1356 27.4603 42.2981 27.2789 40.5045C27.0237 40.4371 26.7934 40.3046 26.581 40.1383C26.5223 40.0925 26.4631 40.0439 26.4039 39.9936ZM24.4629 37.8239C24.5165 38.3689 24.5678 38.914 24.6143 39.4596C24.7791 41.3959 24.8809 43.3431 24.7872 45.2862C24.7385 46.298 24.6405 47.3128 24.4711 48.3118C24.3947 48.762 24.3024 49.2122 24.1993 49.6576L24.1645 49.8059C24.0599 50.2471 23.9932 50.7985 23.658 51.1193L23.6606 51.1859V51.1859C23.8958 50.8265 24.1134 50.4224 24.2693 50.0463C24.9637 48.3704 25.0905 46.546 25.216 44.759C25.2933 43.6578 25.3506 42.555 25.4401 41.4547L25.4835 40.9251C25.5334 40.3089 25.5763 39.6972 25.5705 39.0814C25.4367 38.8807 25.328 38.6697 25.2606 38.4531C25.2497 38.4182 25.2423 38.383 25.2371 38.3477C24.9542 38.2128 24.6879 38.0287 24.4629 37.8239ZM28.2637 41.6586C28.4033 42.1258 28.5171 42.599 28.5983 43.0742C28.7274 43.8307 28.805 44.5918 28.8391 45.3555L28.9103 45.0857C29.0898 44.4109 29.2805 43.7351 29.5169 43.0802C29.143 42.8167 28.8306 42.403 28.5589 42.0572C28.4573 41.928 28.3588 41.7947 28.2637 41.6586ZM22.9098 20.8778C22.7661 21.3446 22.6405 21.8167 22.5108 22.2873C22.2059 23.3927 22.0079 24.5285 21.8706 25.6664C21.3225 30.2095 21.779 34.771 22.376 39.2845C22.6233 41.1546 22.8922 43.0219 23.1231 44.8942C23.1292 44.7104 23.1343 44.5267 23.1376 44.3432C23.2078 40.3691 22.5432 36.4507 22.2771 32.4971L22.2611 32.2562C22.1405 30.4077 22.0667 28.5246 22.285 26.6828C22.3973 25.7348 22.5953 24.8071 22.8586 23.8911L23.0154 23.353C23.1214 22.9912 23.234 22.6198 23.3677 22.2596C23.3498 22.2251 23.3328 22.1903 23.317 22.1554C23.1321 21.7462 23.0034 21.3161 22.9098 20.8778ZM23.3728 15.5224C21.9933 17.3125 20.8357 19.2141 20.1354 21.4012C18.5325 26.4069 18.8903 31.7596 19.8192 36.8619C20.2569 39.266 20.8213 41.6421 21.3363 44.0294C20.785 39.7423 20.0741 35.4646 19.961 31.1363C19.8992 28.7739 20.0206 26.4006 20.4529 24.0747L20.4785 23.938C20.6638 22.955 20.8933 21.9136 21.3632 21.0303C21.6184 20.5506 21.9 20.103 22.2341 19.6746C22.3749 19.4939 22.5331 19.349 22.7008 19.2165C22.6516 17.9825 22.8371 16.6443 23.3728 15.5224ZM25.6235 34.5953C26.3098 34.6224 26.9954 34.815 27.5359 35.2639C27.9587 35.6151 27.3558 36.2085 26.9364 35.8673C26.4804 35.4963 26.0714 35.0748 25.5852 34.7374C25.5273 34.6971 25.5432 34.5921 25.6235 34.5953ZM24.4849 32.7548C24.3323 32.834 24.1807 32.8499 24.0079 32.8072C24.0015 32.8057 23.9955 32.8039 23.9895 32.802L23.9542 32.7904C23.9693 32.9551 23.9852 33.1198 24.0009 33.2845C24.1404 33.0869 24.3021 32.9079 24.4849 32.7548ZM23.8018 22.8157C23.7411 23.3264 23.7015 23.8397 23.6804 24.3537C23.6599 24.8545 23.6514 25.3568 23.649 25.8593L23.6484 26.0747L23.6493 26.0706C23.8853 25.0574 24.219 24.0602 24.6453 23.106C24.5719 23.1183 24.4974 23.1163 24.424 23.1074C24.2561 23.087 24.0952 23.0121 23.9511 22.9244C23.8986 22.8924 23.8494 22.8551 23.8018 22.8157ZM30.8022 16.8953C30.5089 17.0287 30.2257 17.1821 29.9313 17.3125C29.3475 17.5711 28.7764 17.8718 28.2361 18.2132C27.6894 18.5586 27.1627 18.9223 26.6784 19.3532C26.6216 19.4037 26.5654 19.4547 26.5093 19.5058C26.4979 19.6172 26.4897 19.729 26.486 19.8418C26.484 19.9024 26.4839 19.9658 26.4847 20.031C27.3986 18.8915 28.5036 17.9924 29.9055 17.4269C30.1485 17.3288 30.3955 17.2415 30.6447 17.1608C30.704 17.0778 30.7573 16.9898 30.8022 16.8953ZM30.7762 15.8022C30.6132 15.5845 30.1446 15.6022 29.8492 15.6508C29.3715 15.7293 28.9508 15.8974 28.5413 16.1407C28.0574 16.4282 27.6399 16.8178 27.3133 17.2759C27.474 17.1847 27.6378 17.0986 27.805 17.0186L27.9196 16.9642C28.553 16.6653 29.239 16.3812 29.9318 16.2886C30.2523 16.2457 30.597 16.1837 30.9208 16.2186C30.9049 16.0602 30.8581 15.9117 30.7762 15.8022Z" fill="black"/>
<path fill-rule="evenodd" clip-rule="evenodd" d="M40.5918 40.0713C40.1193 39.8773 39.6977 39.5536 39.3895 39.1402C39.2823 38.9965 39.2545 38.8448 39.277 38.706C39.3023 38.5499 39.394 38.4084 39.5192 38.3135C39.6447 38.2184 39.8016 38.1714 39.9534 38.1954C40.0853 38.2161 40.2166 38.2888 40.3205 38.4396L40.3422 38.4697C40.5254 38.7192 40.7642 38.9239 41.0363 39.0559C41.2985 39.1831 41.5918 39.2424 41.8953 39.2079C42.4734 39.1422 42.8718 38.8276 43.2953 38.4003C43.3478 38.3463 43.4003 38.2907 43.4531 38.2342C43.4864 38.1829 43.5327 38.15 43.584 38.1327C43.641 38.1135 43.7055 38.1146 43.7646 38.1354C43.8216 38.1554 43.8726 38.1933 43.9067 38.2438C43.9392 38.2918 43.9576 38.351 43.9516 38.4192C43.9128 38.862 43.6828 39.2572 43.3561 39.5675C42.9932 39.9121 42.5122 40.1505 42.0594 40.2342C41.5605 40.3263 41.0521 40.2603 40.5918 40.0713V40.0713ZM42.2948 33.2401C42.8255 33.5648 43.6343 34.322 43.0633 35.1271C42.3912 35.8369 41.4235 35.023 40.9466 34.655C40.5044 34.3697 40.0076 35.1034 40.4179 35.4365C43.8637 38.0042 45.2621 33.325 42.5632 32.8583C42.2661 32.8069 42.1557 33.1397 42.2948 33.2401ZM36.1198 30.2532C36.1784 29.5205 37.2871 29.3542 37.3973 30.0792C37.4961 30.7286 37.3798 31.3252 37.0892 31.9099C36.8115 32.4685 36.1135 32.2079 36.0607 31.6992C35.9899 31.0174 36.0833 30.7089 36.1198 30.2532ZM44.559 29.9288C44.7135 29.7251 44.9367 29.586 45.2041 29.6646C46.0395 29.9103 45.7932 31.104 45.4999 31.685C45.3404 32.0005 44.8251 32.0806 44.5923 31.8027C44.2127 31.3497 44.0309 30.4449 44.5135 29.9987C44.5266 29.9756 44.5411 29.9523 44.559 29.9288ZM37.0774 27.0473L37.2094 27.024C37.6176 26.953 38.1252 26.8847 38.414 27.215C38.5671 27.3902 38.6199 27.7158 38.414 27.8834C38.0519 28.1784 37.6515 28.0641 37.2175 28.0891C36.8599 28.1097 36.5162 28.1693 36.1717 28.2684C35.4159 28.4858 34.8001 28.8827 34.1547 29.3185C34.07 29.3757 33.9835 29.2666 34.0239 29.1869C34.3965 28.4524 35.1186 27.849 35.8419 27.4812C36.2279 27.2848 36.6504 27.122 37.0774 27.0473ZM43.7974 26.7182L43.8984 26.739C44.9976 26.9703 46.4256 27.4322 46.9461 28.5188C46.9659 28.6725 46.945 28.7054 46.9279 28.7269L46.9222 28.7341C46.9082 28.7524 46.897 28.7778 46.8308 28.7987C46.8125 28.7943 46.7939 28.7896 46.7752 28.7847C46.5366 28.7217 46.3478 28.635 46.1651 28.5451L45.9669 28.4468C45.7371 28.3334 45.5051 28.2241 45.2594 28.1434C44.7349 27.9712 44.1954 27.8499 43.6475 27.7851C43.5288 27.7711 43.4144 27.7307 43.3242 27.6616C43.2386 27.596 43.1732 27.5051 43.1433 27.3844C43.1047 27.2281 43.1158 27.1098 43.1991 26.9688C43.2618 26.8629 43.3514 26.7895 43.4543 26.7474C43.5592 26.7044 43.6787 26.6943 43.7974 26.7182Z" fill="black"/>
</g>
<defs>
<clipPath id="clip0_240_6390">
<rect width="88" height="78" fill="white" transform="translate(4 10)"/>
</clipPath>
</defs>
</svg>
