<svg width="74" height="88" viewBox="0 0 74 88" fill="none" xmlns="http://www.w3.org/2000/svg">
<g clip-path="url(#clip0_240_6799)">
<path fill-rule="evenodd" clip-rule="evenodd" d="M51.3083 86.0081C52.4894 85.9505 52.0141 83.8589 51.9297 83.0909C50.9948 80.2855 51.2144 77.2249 50.8468 74.2847C50.6177 71.5397 50.3235 68.8034 50.076 66.0604C49.5898 60.4927 46.0986 49.1586 42.1144 47.3357C41.6126 45.1057 39.5396 43.0239 36.9169 43.0239C35.1281 40.8797 32.9751 39.3706 30.2135 39.6754C29.0723 39.7279 27.9656 40.9537 26.8721 41.1904C26.2598 41.2758 20.8263 41.0558 19.7378 41.7104C18.9796 42.1046 18.2953 42.8331 18.5182 43.7606C18.8738 44.8842 17.7685 43.6684 15.4627 44.8676C10.7608 47.7273 13.5705 51.5529 13.695 51.6715C10.7608 55.8054 8.19622 59.1596 7.00964 64.2125C6.24061 67.9644 6.32717 71.8372 5.68284 75.6078C5.45533 76.915 5.1063 78.1781 4.72863 79.4474C4.31931 81.1092 4.12028 85.2511 3.89467 85.288C3.4837 85.3912 4.13218 86.246 4.56765 86.2465C16.641 88.2748 28.9046 86.3305 41.0428 86.0129C44.4635 85.8925 47.8879 85.8646 51.3083 86.0081Z" fill="white"/>
<path fill-rule="evenodd" clip-rule="evenodd" d="M33.0097 52.0364C33.0153 51.9804 33.0898 51.9805 33.0956 52.0364L33.1808 52.8696C33.2845 53.8874 33.3843 54.903 33.4567 55.9253C33.547 57.2004 33.6073 58.475 33.6364 59.753C33.7378 64.2038 33.758 68.6566 33.7665 73.1079C34.361 73.0662 34.9556 73.0264 35.5504 72.9875C35.954 72.9611 36.3576 72.9357 36.7613 72.9108L37.7905 72.8474L38.2142 72.821C38.5006 72.8033 38.8259 72.7304 39.0261 72.987C39.1062 73.0902 39.1465 73.2235 39.0717 73.3459C38.8994 73.6275 38.6347 73.6174 38.3353 73.6294C38.0528 73.6414 37.7703 73.6524 37.4878 73.6634C36.8824 73.6874 36.2771 73.71 35.6716 73.7268C35.0361 73.745 34.4009 73.7599 33.7657 73.7704C33.7592 75.6499 33.6825 77.5271 33.5994 79.4042L33.5619 80.249C33.4603 82.5335 33.351 84.8198 33.1957 87.1013C33.183 87.288 32.9221 87.2875 32.9094 87.1013C32.7346 84.532 32.6192 81.9573 32.5049 79.3846C32.4219 77.5194 32.3736 75.6533 32.3506 73.7872C32.2666 73.7877 32.1827 73.7891 32.0988 73.7891C29.7145 73.7997 27.3309 73.8102 24.9466 73.7877C24.9506 73.7925 24.9545 73.7973 24.9571 73.8035C25.1296 74.2161 25.1461 74.7423 25.1419 75.1851C25.137 75.6926 25.0695 76.1944 24.9541 76.6881C24.5404 78.4568 23.4734 80.0408 22.2581 81.3505L22.2184 81.3932C21.9317 81.6997 21.6029 82.0077 21.4269 82.3987C21.2471 82.7973 21.1847 83.2641 21.096 83.6929L21.0857 83.7419L20.7387 85.3643C20.6286 85.88 20.5973 86.6317 20.1944 87.0035C19.8186 87.3503 19.3207 87.169 19.1438 86.7224C19.0057 86.3736 19.1432 85.9908 19.2251 85.6425L19.866 82.9139C19.9713 82.4692 20.0864 82.0211 20.3137 81.6215C20.5465 81.2123 20.8878 80.9154 21.2361 80.6117C21.8956 80.037 22.501 79.3788 23.013 78.6659C23.5249 77.9536 23.9623 77.1683 24.269 76.3422C24.4226 75.9292 24.5485 75.4993 24.6353 75.0666C24.7178 74.6555 24.7171 74.23 24.8054 73.8237C24.8114 73.7954 24.8348 73.7762 24.8616 73.768C24.8553 73.7498 24.865 73.7253 24.89 73.7234L26.84 73.5967C28.5732 73.4835 30.3065 73.3674 32.0382 73.2346L32.3442 73.212C32.3205 70.7223 32.3406 68.232 32.385 65.7413C32.4257 63.4574 32.4266 61.1725 32.4937 58.889C32.527 57.7554 32.5989 56.6247 32.679 55.4936C32.7608 54.3367 32.8918 53.1897 33.0097 52.0364ZM14.7008 65.2798C14.68 65.1532 14.8375 65.0745 14.9102 65.1906C15.7405 66.5156 16.1408 67.9552 16.3095 69.5062C16.4586 70.8753 16.4147 72.2636 16.3405 73.6361C16.2613 75.0997 16.1689 76.5633 16.0755 78.026L15.932 80.2697L15.5718 85.8939C15.5461 86.2964 15.4559 86.6619 15.1138 86.849C15.0705 86.8855 15.0254 86.9186 14.9728 86.9469C14.788 87.0471 14.5429 86.9963 14.436 86.8044L14.4789 86.8332C14.5162 86.8567 14.4743 86.8236 14.3531 86.7334L14.2503 86.5986C14.1756 86.4849 14.1279 86.3731 14.1087 86.2378C14.0789 86.0277 14.1175 85.7975 14.1311 85.5864L14.3671 81.8983C14.5507 79.0315 14.7651 76.1652 14.9267 73.2964C15.0019 71.9595 15.0546 70.6215 15.019 69.2821C14.9834 67.95 14.9164 66.5957 14.7008 65.2798ZM21.8836 40.5916L21.9297 40.5838C23.5788 40.3064 25.3722 40.3583 26.8794 41.1634C26.8918 41.17 26.8862 41.191 26.8722 41.1903L26.387 41.1707C24.8512 41.1098 23.3202 41.0738 21.8101 41.4392L21.6555 41.4769C21.1117 41.6112 20.5438 41.7756 20.107 42.1394C19.6895 42.4871 19.4816 43.0234 19.2817 43.5171L19.2549 43.5823C19.0521 44.0699 18.7954 44.5324 18.3509 44.8374C17.7751 45.2323 17.0826 45.1839 16.4224 45.2375C15.2599 45.3321 14.3095 46.1853 13.8366 47.2292C13.5503 47.8614 13.4282 48.5701 13.404 49.2615C13.3916 49.6134 13.3898 49.9791 13.4361 50.3287C13.4509 50.4405 13.5874 50.8478 13.657 50.838C13.8116 50.8163 13.9529 50.8979 14.0012 51.0231C14.3831 50.6494 14.7761 50.2865 15.1817 49.9367C16.1927 49.0648 17.2816 48.2745 18.4285 47.5955C19.3038 47.0772 20.227 46.5637 21.183 46.1755C21.1072 46.1739 21.0325 46.1891 20.9602 46.2271C20.9286 46.2439 20.8972 46.2037 20.9222 46.1771C21.2233 45.8562 21.584 45.8106 21.9476 45.8961C22.0252 45.8711 22.1028 45.847 22.1808 45.824C22.2196 45.8126 22.2389 45.8667 22.2072 45.8876L22.1179 45.9454C22.5146 46.08 22.904 46.3444 23.2124 46.5532C24.0981 47.1526 24.8777 47.8854 25.668 48.6045L25.8117 48.7348C26.5073 49.3638 27.2206 49.9751 28.011 50.4797C28.4247 50.7438 28.8593 50.9881 29.3151 51.1698C29.706 51.3258 30.3425 51.424 30.5256 51.8424C30.6884 52.0426 30.6204 52.2981 30.4298 52.4328C30.1083 52.7911 29.4652 52.5596 29.0822 52.4104C28.6204 52.2305 28.173 52.0143 27.7464 51.7607C26.918 51.2682 26.1542 50.6559 25.4427 50.0046C24.6997 49.3243 23.9988 48.6017 23.276 47.9C22.9629 47.596 22.657 47.2848 22.3434 46.9813L22.1858 46.8302C22.0258 46.6782 21.7977 46.4412 21.5539 46.2979C21.0945 46.5753 20.6281 46.8413 20.1729 47.126C19.5375 47.5233 18.9207 47.9492 18.3136 48.3892C17.1446 49.2363 16.0369 50.1849 15.0085 51.2018C13.1225 53.0666 11.5156 55.1961 10.1119 57.4508L10.0053 57.6226C9.20761 58.913 8.45331 60.2457 7.91842 61.6714C7.32994 63.2406 7.04372 64.8908 6.88824 66.5569C6.73392 68.2105 6.68187 69.8727 6.50941 71.5248C6.33254 73.2197 5.98407 74.8766 5.5877 76.5307L5.49317 76.9231C5.13452 78.4045 4.76434 79.8859 4.57999 81.4018C4.48157 82.212 4.42237 83.0328 4.43575 83.8493C4.44919 84.6706 4.57662 85.4737 4.67944 86.2863C4.71885 86.5976 4.41632 86.8576 4.14562 86.8989C3.83429 86.9464 3.56683 86.7449 3.47006 86.4523C3.16838 85.5394 3.11358 84.53 3.12305 83.5716C3.13258 82.5987 3.2552 81.6325 3.42772 80.6765C3.76703 78.7955 4.29065 76.9538 4.72869 75.0959C5.11473 73.4581 5.37382 71.8175 5.51348 70.1399C5.65845 68.399 5.74526 66.6528 6.00973 64.9244C6.27078 63.2185 6.76196 61.5889 7.50271 60.0331C8.17716 58.617 9.01793 57.2839 9.89935 55.9915C10.9697 54.4224 12.1454 52.9292 13.4595 51.5688C13.3414 51.5636 13.2202 51.525 13.1089 51.4547C12.7684 51.2396 12.6098 50.8188 12.561 50.4346C12.4469 49.5359 12.4745 48.5976 12.7027 47.7189C13.0709 46.3015 14.0265 45.042 15.4115 44.531C15.768 44.3995 16.1469 44.3514 16.5247 44.342C16.8832 44.333 17.2747 44.3803 17.6206 44.2652C18.1712 44.0819 18.4072 43.4253 18.614 42.9275L18.6235 42.9047C18.8886 42.2703 19.2068 41.7267 19.7809 41.3306C20.3934 40.9079 21.1609 40.7157 21.8836 40.5916ZM37.5537 43.1002C38.0493 42.9261 38.6689 43.0841 39.1535 43.2361C39.6934 43.4057 40.1924 43.7179 40.6202 44.0886C41.0714 44.4796 41.4444 44.9624 41.7079 45.5018L41.7331 45.5538C41.9738 46.0541 42.2479 46.7409 42.1265 47.2905C42.123 47.3061 42.119 47.3212 42.1145 47.3357C43.0978 47.8259 44.0059 48.4399 44.7967 49.218C45.7174 50.124 46.4971 51.155 47.1569 52.2689C49.7774 56.6929 50.2386 62.0058 50.5481 67.051L50.6254 68.3304C50.7933 71.0926 50.9902 73.8481 51.501 76.5725L51.538 76.7691C52.0844 79.6215 52.8661 82.4956 52.7869 85.4214C52.7632 86.2978 51.4834 86.2921 51.4465 85.4214C51.307 82.1439 50.5514 78.9797 50.0402 75.7536C49.1404 70.078 49.5913 64.2269 48.3163 58.6079C47.8159 56.4026 47.0408 54.2638 45.934 52.2956C45.3873 51.3232 44.7618 50.3836 44.0291 49.5448C43.3986 48.823 42.7434 48.1283 42.0067 47.5215C41.7713 47.7603 41.3009 47.6387 41.178 47.2905C41.0936 47.0513 41.1182 46.7716 41.064 46.521C41.0137 46.2884 40.9443 46.0579 40.852 45.8388C40.6679 45.4024 40.3976 44.9832 40.0856 44.63C39.7486 44.2481 39.3612 43.9309 38.9277 43.6689C38.4912 43.4052 38.0139 43.3264 37.5537 43.1337C37.5381 43.1272 37.5367 43.1062 37.5537 43.1002ZM39.4791 73.4332C39.4798 73.4101 39.5066 73.3991 39.5231 73.4145C39.6969 73.5766 39.8019 73.8088 39.9297 74.0079C40.0773 74.2377 40.2321 74.4626 40.3945 74.6819C40.7199 75.1208 41.0821 75.5343 41.4472 75.9402C41.7867 76.3168 42.1486 76.678 42.5241 77.0186C42.9308 77.3875 43.3866 77.7166 43.7562 78.1248C44.5273 78.9773 44.6519 80.1468 44.8145 81.2454L44.8324 81.3639C44.9316 82.0158 45.0205 82.6692 45.1006 83.324C45.1396 83.6421 45.1785 83.9611 45.2102 84.2801L45.2199 84.3813C45.2482 84.6936 45.2559 85.0107 45.0787 85.2837C44.889 85.5758 44.4577 85.678 44.2013 85.3983C43.7608 84.9172 43.8434 84.0623 43.7861 83.4435C43.7388 82.9316 43.685 82.4202 43.6249 81.9098L43.5943 81.6546C43.5234 81.0741 43.4659 80.4817 43.3348 79.9113C43.2191 79.4086 42.9987 79.0296 42.6372 78.6655C42.273 78.299 41.8945 77.9564 41.5583 77.5616C41.2017 77.1428 40.88 76.6938 40.5902 76.2251C40.3423 75.8241 40.1437 75.388 39.9616 74.952L39.9314 74.8795C39.7555 74.4545 39.4653 73.9014 39.4791 73.4332ZM45.8396 55.1798C45.8434 55.1203 45.9299 55.1194 45.9312 55.1798C45.9421 55.6893 45.9526 56.1992 45.9631 56.7092C46.0471 60.817 45.9953 64.9349 46.4023 69.0289C46.5943 70.9592 46.9478 72.8613 47.3568 74.7553C47.5661 75.7243 47.7856 76.6909 47.9943 77.6605C48.1976 78.605 48.4156 79.5544 48.5769 80.5076C48.7354 81.445 48.8773 82.3891 48.9411 83.3379L48.9489 83.4617C48.9764 83.9218 49.1073 84.5977 48.8573 85.0054C48.5864 85.4468 48.0678 85.4549 47.7775 85.0333C47.505 84.6375 47.5728 83.9338 47.5246 83.4617C47.4757 82.981 47.4239 82.4999 47.3652 82.0202C47.2505 81.0842 47.0994 80.1502 46.9423 79.221C46.615 77.2853 46.1403 75.3741 45.79 73.4413C45.4308 71.461 45.1756 69.4664 45.1649 67.4501C45.1541 65.417 45.3667 63.3873 45.474 61.3586C45.583 59.2977 45.7069 57.2388 45.8396 55.1798ZM26.6761 42.4021C26.785 42.0308 27.1694 41.7986 27.5444 41.9029C27.888 41.9985 28.1717 42.4209 28.0374 42.7822C27.8908 43.1766 27.6345 43.5128 27.4185 43.8712C27.219 44.2024 26.9279 44.4631 26.7247 44.7884L26.9487 45.033C27.0608 45.1549 27.1731 45.2762 27.2868 45.3954L27.6774 45.8051C27.9816 46.1236 28.2878 46.4404 28.6026 46.7478C29.5283 47.652 30.4686 48.5265 31.5053 49.3008C31.7413 49.477 31.9791 49.6522 32.2236 49.8163L32.3148 49.8775C32.4825 49.9887 32.6697 50.098 32.8723 50.0792C33.3647 50.0334 33.8096 49.5038 34.1479 49.1743L34.1656 49.1571C35.0041 48.3492 35.7805 47.4658 36.4594 46.5161C36.6101 46.3051 36.756 46.0904 36.8981 45.8733C36.5699 45.4851 36.6483 44.7273 36.6302 44.2565C36.6174 43.9254 36.6165 43.5943 36.6147 43.263L36.6138 43.1962C36.6098 42.9817 36.6003 42.7761 36.7377 42.5996C36.7457 42.5894 36.7623 42.5898 36.7725 42.5951C36.9607 42.695 37.0186 42.8622 37.099 43.0498L37.1074 43.0693C37.2051 43.2944 37.2987 43.5217 37.3934 43.7481C37.4925 43.9852 37.5834 44.2257 37.6756 44.4656C37.7185 44.5772 37.7594 44.6893 37.7994 44.8019C37.8238 44.8739 37.849 44.9455 37.8749 45.0169L37.881 45.0224C37.9152 45.0518 37.9443 45.0829 37.9692 45.1149C38.0743 45.1681 38.1577 45.2651 38.1969 45.4075C38.2821 45.7175 38.1057 45.9703 37.9484 46.2163C37.3094 47.2161 36.5809 48.1688 35.7712 49.033C35.369 49.4623 34.9459 49.8724 34.5054 50.2614L34.4284 50.3289C34.0327 50.6732 33.6031 50.9994 33.0747 51.08C32.4563 51.1742 31.953 50.8628 31.4796 50.504L31.4323 50.468C30.9836 50.124 30.5438 49.7679 30.1178 49.3954C29.2491 48.6359 28.4227 47.8204 27.6893 46.9258C26.9758 46.0556 26.2706 45.0825 25.8309 44.0354C25.8041 43.9716 25.8746 43.9049 25.9298 43.9581C26.1446 44.1652 26.3513 44.3835 26.5555 44.6046C26.5612 44.2792 26.5019 43.9509 26.5349 43.6234C26.5751 43.2253 26.5635 42.7854 26.6761 42.4021Z" fill="black"/>
<path fill-rule="evenodd" clip-rule="evenodd" d="M33.04 11.0332C36.1475 11.0332 39.8759 12.5568 40.1929 12.5873L40.2015 12.5878C40.3683 12.5878 41.0199 13.0899 42.1565 14.0942L40.9255 16.5227L41.0251 16.6189C41.5018 17.0812 41.9088 17.5025 42.2301 17.8347C44.8531 20.5468 45.3245 31.1951 44.7064 34.9086C44.0882 38.622 42.9433 42.2557 37.6129 42.2557C32.2825 42.2557 26.3522 39.0141 25.4387 38.0047C24.8297 37.3317 24.1456 37.0093 23.3865 37.0374C23.3553 36.9976 23.3244 36.9579 23.2937 36.9183L23.182 36.9023C22.1313 36.7484 21.3785 36.5413 20.9236 36.2809C20.0349 35.7725 19.0582 33.0993 19.0582 32.5105C19.0582 31.9275 17.5998 27.6867 17.5706 27.2379L17.5702 27.2255C17.5702 26.8503 15.6648 25.1257 15.6648 24.578C15.6648 24.0303 15.2808 24.0635 15.6648 22.1335L15.7764 21.5665C16.1851 19.5116 16.985 16.109 20.0349 14.6305C23.3865 13.0057 29.9011 11.0332 33.04 11.0332Z" fill="white"/>
<path fill-rule="evenodd" clip-rule="evenodd" d="M19.5176 14.5541C21.1892 12.7597 30.6787 9.98421 35.4798 10.5725L35.6238 10.5914C36.0069 10.6405 36.3845 10.715 36.7571 10.816C37.9617 11.1006 39.2058 11.5314 40.2011 12.251C41.032 12.8397 43.653 13.801 42.8805 15.3411C43.167 15.8899 43.2739 16.568 43.0802 17.1086C43.0559 17.2954 42.999 17.4674 42.9262 17.6457C43.5381 18.559 44.0227 19.5919 44.4149 20.5744C45.1003 23.0468 45.5268 25.6199 45.5893 28.1425C45.7971 32.9351 45.2775 38.6598 41.1504 41.7589C38.6572 43.7228 34.7517 43.7887 31.95 41.3539C31.791 41.1636 31.0432 40.65 31.2927 40.5599C31.367 40.6392 31.4433 40.7165 31.5211 40.7923C31.5176 40.7838 31.5169 40.7754 31.5183 40.7663L31.4452 40.6993C31.3075 40.5705 31.1292 40.3836 31.3323 40.4202C31.3413 40.4307 31.351 40.4398 31.3607 40.4504C31.4037 40.4765 31.4362 40.4991 31.4615 40.5191L31.4745 40.5296L31.4705 40.5254C31.3535 40.3992 31.2833 40.2704 31.4583 40.3526L31.4815 40.3641C31.5593 40.4469 31.6383 40.5262 31.7188 40.6034C31.7175 40.5943 31.7188 40.5852 31.7238 40.5753L31.6487 40.502C31.5754 40.4294 31.5866 40.4291 31.6224 40.3703C31.4667 40.1496 31.7574 40.2807 31.7778 40.3668C31.9597 40.3233 32.1195 40.6687 32.2366 40.7108C37.3727 44.7044 44.8262 41.1609 44.7055 30.0326L44.7037 29.8149C44.6684 26.2565 44.3723 22.5993 42.9171 19.3782C42.7755 19.0679 42.6173 18.766 42.4431 18.474C42.323 18.255 42.1946 18.0416 42.0565 17.8338C41.6698 17.8022 41.2881 17.7306 40.912 17.6197C40.7828 17.5867 40.6551 17.5502 40.5274 17.5074C38.6618 17.6103 36.8376 17.7222 34.9667 17.8284L34.3824 17.8652C32.7975 17.9682 31.1585 18.1333 29.8795 19.1247C28.6246 20.0274 28.6189 21.8072 27.5447 22.7983C26.0129 23.8497 26.0017 24.7979 25.7067 26.3475C25.7286 27.5156 26.5294 29.2128 25.0599 29.7044C25.3078 30.0619 24.9622 29.8901 24.935 29.7647C24.9322 29.7655 24.9294 29.7662 24.9273 29.7662C25.1483 30.1815 24.8235 29.92 24.7948 29.7865C24.7774 29.7816 24.7601 29.769 24.7427 29.7514C24.9653 30.1153 24.6055 29.8605 24.6268 29.7942C24.1967 29.1256 23.3115 29.0218 22.6875 29.199C22.6798 29.2228 22.6521 29.2249 22.6348 29.2123C19.9816 29.7938 20.6661 35.3491 23.3851 34.812C23.5015 34.788 23.4987 34.8445 23.5218 34.85C23.459 34.6832 23.6361 34.751 23.6342 34.7861L23.645 34.7855C23.6536 34.7848 23.6501 34.7838 23.6564 34.7861C23.5957 34.445 23.9374 34.9391 23.9105 34.9594C23.9209 34.9532 23.9327 34.9496 23.9431 34.9482L23.9314 34.9158C23.8746 34.763 23.8795 34.8266 23.8799 34.739C23.8373 34.6309 23.8342 34.6782 23.8442 34.6077C23.9939 34.4903 24.0382 34.8464 24.0881 34.8724C24.0025 34.7517 24.0706 34.653 24.1514 34.7186C24.7637 36.0213 25.5548 37.2454 26.5771 38.2096C26.6889 38.2988 26.8021 38.3866 26.9193 38.4694C27.3541 38.8525 28.0212 39.0988 28.4282 39.4381C28.4282 39.4438 28.4255 39.4508 28.4213 39.4578L28.4307 39.4663L28.4401 39.4753L28.5817 39.5441C28.6233 39.5799 28.6608 39.6199 28.694 39.6641C28.7295 39.7056 28.7607 39.7512 28.7871 39.7997C28.8003 39.8586 28.7711 39.8832 28.7156 39.8579C28.6913 39.8495 28.667 39.8397 28.6427 39.8305C28.6441 39.8326 28.6448 39.8341 28.6462 39.8354C28.6542 39.8476 28.7081 39.974 28.646 39.9535L28.6386 39.9506C28.6045 39.9379 28.5706 39.9239 28.5373 39.9106C28.5768 39.9604 28.6128 40.0144 28.6448 40.0601C28.6788 40.0959 28.6996 40.138 28.708 40.1857C28.7065 40.2124 28.692 40.2236 28.6657 40.2201C28.6254 40.2068 28.5858 40.1927 28.5462 40.178L28.5575 40.1997C28.5855 40.2554 28.6253 40.3489 28.5546 40.3177C28.4941 40.2988 28.4359 40.277 28.3776 40.2531C28.3727 40.263 28.363 40.2665 28.3436 40.2573C28.1583 40.1906 27.9792 40.1092 27.8078 40.013C27.6572 39.9021 27.5051 39.7933 27.3538 39.6831C27.2115 39.5968 27.074 39.5006 26.9429 39.3925C26.0652 38.8191 25.2968 38.0907 24.6872 37.2795C23.6677 38.1725 21.6292 37.3194 20.3683 36.6204C19.253 35.9956 18.8146 34.8404 18.7013 33.5949C18.4656 31.9182 17.1108 31.3442 17.2051 27.6651C17.203 27.6658 17.2008 27.6658 17.198 27.6658C17.1488 27.6511 17.1009 27.6314 17.0558 27.6061C17.0093 27.5837 16.9656 27.557 16.9245 27.5247L16.8739 27.4538C16.8476 27.4391 16.824 27.4236 16.806 27.4082L16.7966 27.4204C16.767 27.4566 16.7869 27.4022 16.7886 27.3913L16.7006 27.2703C16.4919 26.9821 16.2629 26.6587 16.0764 26.4001L16.0705 26.4106C16.0663 26.4186 16.0641 26.4243 16.0661 26.4268C15.6222 25.7818 15.2048 25.0028 15.0888 24.2485C14.9519 23.6676 15.0054 23.0689 15.1248 22.5308C15.637 20.6463 17.3147 16.3819 19.5176 14.5541ZM31.5632 40.6156L31.5354 40.5905L31.5598 40.6215C31.5726 40.6375 31.5858 40.6519 31.6072 40.6666C31.6057 40.6617 31.6057 40.6568 31.6064 40.6512C31.5922 40.6402 31.5777 40.6282 31.5632 40.6156ZM35.4585 11.5194C32.2028 11.2363 29.0005 11.9618 25.8937 12.8399L25.6793 12.9022C23.9127 13.412 22.0448 13.8708 20.5519 14.962C18.4661 16.5777 17.389 19.1481 16.4491 21.5213C15.6284 23.2846 16.048 25.2728 17.2848 26.504C17.4135 25.2806 17.6329 24.0929 17.9757 22.9147C18.0473 22.7307 17.9932 22.6704 18.1474 22.6463C18.3803 25.8213 17.2331 28.167 19.5034 31.9298C20.4885 33.7053 19.3482 35.0044 22.13 35.9386L22.2053 35.9678C22.7849 36.1889 23.4178 36.3635 23.9854 36.2399L23.9345 36.1562C23.8827 36.07 23.867 36.0282 23.9424 35.9914C23.9404 35.9871 23.9376 35.983 23.9347 35.978C23.8737 35.8615 23.8147 35.7436 23.7584 35.6242C23.7356 35.632 23.7127 35.6376 23.689 35.6439C23.7044 35.6727 23.7064 35.7015 23.6634 35.7113C23.5105 35.7644 23.3534 35.7856 23.1927 35.7757L23.1581 35.773C22.9765 35.7618 22.8621 35.7283 22.7597 35.6972C22.7258 35.6916 22.6917 35.686 22.6584 35.679C22.329 35.6051 21.9804 35.4173 21.7547 35.2311C19.1826 33.7536 19.4484 28.7239 22.6188 28.2484C22.6839 25.0817 24.1732 19.739 26.6448 16.7214C28.8789 13.9456 34.978 12.7426 39.2213 13.1668C39.2832 13.1875 39.345 13.2084 39.4069 13.2295C40.0615 13.2884 40.6854 13.5834 41.3406 13.7204C40.8702 13.3638 40.3366 13.1263 39.7869 12.9245C38.6918 12.2471 37.4364 11.8805 36.2235 11.6219C35.9722 11.5594 35.7175 11.5251 35.4585 11.5194ZM22.4738 30.7924C22.6442 30.6988 22.6247 30.7892 22.6639 30.763C23.8901 30.6618 25.2122 31.7476 25.8976 32.6527C25.8435 32.7096 25.6971 32.5411 25.6714 32.5144C25.6679 32.5179 25.6637 32.5207 25.6595 32.5222L25.6787 32.5494C25.9565 32.9526 25.4057 32.4781 25.3542 32.3804C25.3451 32.3853 25.3361 32.3881 25.3257 32.386C25.3694 32.4293 25.5027 32.5422 25.5256 32.6225L25.5609 32.6523C25.8943 32.941 25.8666 33.1581 25.4882 32.7482C25.4971 32.7672 25.5006 32.7847 25.4944 32.7987L25.5074 32.8075C25.6935 32.939 25.8465 33.3056 25.4576 32.9293C25.498 33.2042 25.0721 32.6728 25.0585 32.6766C24.3215 32.0915 23.2365 31.5224 22.312 31.446L22.2802 31.4423C22.1106 31.4203 22.0304 31.3694 22.0899 31.2571C21.881 31.2069 21.9299 31.1029 22.0288 31.1062C21.8815 31.0082 22.0141 30.9145 22.0996 30.9511C22.0408 30.7865 22.2766 30.8962 22.2981 30.8732C22.4205 30.6823 22.4535 30.8415 22.4738 30.7924ZM19.9036 20.5891C20.4925 20.3709 22.2321 21.0241 22.0929 21.889C22.01 22.0876 21.737 22.2014 21.5451 22.0893L21.2946 21.9192C20.8587 21.6239 20.4655 21.365 19.9975 21.1075C19.7428 20.9797 19.6332 20.7083 19.9036 20.5891ZM23.2542 19.3037L23.0268 19.154C21.7994 18.3415 20.0642 17.1105 23.1414 18.3842C23.4922 18.5363 23.9582 18.6263 24.1495 18.964C24.4501 19.5866 23.659 19.6285 23.2542 19.3037ZM23.3922 15.6583C23.2937 15.2803 24.5192 15.7239 24.876 15.8408L24.9303 15.8616C25.2773 15.9924 25.6751 16.1137 25.8827 16.4166C26.1259 16.8351 25.6337 16.9218 25.3288 16.7328C24.7036 16.3196 24.0182 16.0079 23.3922 15.6583ZM26.5086 13.8974C25.8188 13.1355 27.6649 13.8654 27.9415 14.068L27.9493 14.074C28.1557 14.2209 28.1138 14.5373 27.92 14.6303C27.3684 14.6409 26.9625 14.1759 26.5086 13.8974ZM29.6476 13.0627C28.551 12.2656 29.9955 12.6447 30.4973 12.9571C30.8393 13.2621 30.487 13.777 29.6476 13.0627Z" fill="black"/>
<path fill-rule="evenodd" clip-rule="evenodd" d="M37.0653 36.9472C36.6618 36.7804 36.3016 36.502 36.0383 36.1464C35.9468 36.0228 35.9231 35.8922 35.9423 35.7729C35.9638 35.6386 36.0422 35.5169 36.1491 35.4353C36.2563 35.3534 36.3904 35.313 36.52 35.3336C36.6327 35.3515 36.7449 35.414 36.8336 35.5437L36.8521 35.5696C37.0087 35.7842 37.2126 35.9603 37.445 36.0738C37.6691 36.1832 37.9196 36.2343 38.1788 36.2046C38.6726 36.1481 39.0129 35.8774 39.3747 35.5099C39.4195 35.4635 39.4644 35.4156 39.5094 35.367C39.538 35.3229 39.5775 35.2946 39.6213 35.2797C39.67 35.2632 39.7251 35.2642 39.7756 35.282C39.8242 35.2992 39.8678 35.3318 39.897 35.3753C39.9247 35.4165 39.9404 35.4675 39.9353 35.5262C39.9022 35.9071 39.7057 36.247 39.4266 36.5139C39.1167 36.8103 38.7058 37.0155 38.319 37.0874C37.8928 37.1666 37.4586 37.1098 37.0653 36.9472ZM38.52 31.0712C38.9734 31.3505 39.6643 32.0018 39.1765 32.6943C38.6024 33.3049 37.7758 32.6048 37.3684 32.2882C36.9907 32.0428 36.5664 32.6739 36.9168 32.9604C39.8603 35.1692 41.0548 31.1442 38.7494 30.7427C38.4955 30.6985 38.4013 30.9848 38.52 31.0712ZM33.2454 28.5018C33.2954 27.8716 34.2425 27.7285 34.3367 28.3521C34.421 28.9108 34.3217 29.4239 34.0734 29.9269C33.8362 30.4074 33.2399 30.1833 33.1949 29.7457C33.1344 29.1592 33.2142 28.8939 33.2454 28.5018ZM40.4541 28.2228C40.5861 28.0475 40.7768 27.9279 41.0052 27.9955C41.7188 28.2069 41.5084 29.2337 41.2578 29.7335C41.1216 30.0049 40.6815 30.0737 40.4826 29.8347C40.1584 29.445 40.0031 28.6668 40.4152 28.2829C40.4264 28.263 40.4389 28.243 40.4541 28.2228ZM34.0634 25.7441L34.1761 25.7242C34.5248 25.663 34.9584 25.6043 35.205 25.8884C35.3359 26.0391 35.3809 26.3192 35.205 26.4634C34.8957 26.7171 34.5537 26.6188 34.183 26.6403C33.8775 26.6581 33.5839 26.7093 33.2897 26.7946C32.6441 26.9816 32.1181 27.323 31.5668 27.6978C31.4944 27.747 31.4205 27.6532 31.455 27.5846C31.7733 26.9528 32.3901 26.4338 33.008 26.1173C33.3377 25.9485 33.6986 25.8084 34.0634 25.7441ZM39.8036 25.4611L39.8899 25.479C40.8288 25.6779 42.0486 26.0753 42.4932 27.01C42.5102 27.1421 42.4922 27.1704 42.4777 27.1889L42.4728 27.1951C42.4608 27.2109 42.4513 27.2327 42.3948 27.2507C42.3791 27.2469 42.3632 27.2429 42.3472 27.2386C42.1434 27.1845 41.9822 27.1099 41.8261 27.0325L41.6568 26.948C41.4604 26.8504 41.2624 26.7564 41.0524 26.687C40.6044 26.5389 40.1435 26.4345 39.6756 26.3788C39.5741 26.3667 39.4764 26.3321 39.3994 26.2726C39.3262 26.2162 39.2703 26.138 39.2449 26.0341C39.2119 25.8997 39.2213 25.7979 39.2925 25.6766C39.346 25.5856 39.4226 25.5224 39.5105 25.4862C39.6001 25.4492 39.7022 25.4405 39.8036 25.4611Z" fill="black"/>
<mask id="mask0_240_6799" style="mask-type:alpha" maskUnits="userSpaceOnUse" x="31" y="44" width="49" height="45">
<path d="M33.8102 44.2387L79.5547 47.3247L76.8514 88.315L31.1068 85.2289L33.8102 44.2387Z" fill="#D9D9D9"/>
</mask>
<g mask="url(#mask0_240_6799)">
<path d="M50.1706 60.8159C48.1074 52.8106 50.3455 51.7754 50.3455 51.7754L53.9129 59.8319C52.8698 59.9648 51.2263 60.1596 50.1836 60.8643L50.1706 60.8159Z" fill="white"/>
<path d="M-14.187 98.5562C-14.1673 96.16 -12.7736 93.9029 -10.8315 92.5338C-8.88927 91.1646 -6.44641 90.6964 -4.05083 90.813C0.957762 91.0898 5.65573 94.208 7.90723 98.7303C8.57355 100.053 9.02695 101.539 9.96704 102.735C10.5241 103.464 11.3681 104.114 12.2508 104.337C13.1759 103.197 15.2177 101.437 19.7986 99.7535C27.3392 97.0426 39.8382 91.7643 43.4594 86.3439C47.0937 80.972 46.1836 69.0611 46.1836 69.0611C46.1836 69.0611 41.5593 60.5173 39.937 54.521C39.937 54.521 46.3219 57.7958 49.1336 61.5395C49.3072 61.2316 49.5417 60.9586 49.8981 60.7562C50.9538 60.0999 52.584 59.8567 53.6275 59.7238C55.8705 59.4671 58.245 60.2654 58.5201 61.8523L65.9047 59.7046C65.9047 59.7046 65.6656 59.7708 65.6571 59.9291C65.6353 60.039 65.7093 60.1224 65.7354 60.2193C66.0014 60.8214 66.5886 61.2824 67.2541 61.4623C67.8717 61.6551 68.6016 61.505 69.1229 61.1529C69.0205 63.0526 68.171 65.9904 64.791 69.2645C58.8445 75.0168 60.9277 76.2593 60.9277 76.2593C60.9277 76.2593 68.8782 90.068 66.9776 99.3784C65.077 108.688 63.923 111.451 64.3413 112.998C64.7602 114.546 71.0429 130.739 71.0429 130.739C71.0429 130.739 75.9033 130.277 74.3997 131.369C72.8833 132.412 69.6665 132.679 69.6665 132.679L56.3671 111.827C56.3671 111.827 50.3229 125.766 50.9026 127.529C51.4822 129.292 52.4332 133.187 52.4332 133.187C52.4332 133.187 55.7676 132.784 54.6074 133.625C53.4473 134.465 50.4218 134.679 50.4218 134.679L47.9882 125.685L47.6273 110.295L38.6766 111.213L30.7691 111.998C30.7691 111.998 32.1889 125.224 21.7936 129.92C21.6981 129.946 21.6502 129.96 21.5546 129.986C10.9288 134.59 11.5344 146.325 11.5344 146.325C11.5344 146.325 15.1036 146.221 14.5701 147.668L10.1187 148.121C10.1187 148.121 4.00279 134.064 14.5043 126.531C14.5043 126.531 15.3464 124.895 15.3012 122.829C15.2735 121.017 12.3634 108.932 11.6393 106.066C8.6207 104.406 6.04003 101.327 2.58355 101.088C0.318324 100.883 -1.84578 102.002 -3.94046 102.997C-6.00036 103.931 -8.38645 104.799 -10.5304 104.093C-12.783 103.365 -14.3154 100.931 -14.2479 98.5211L-14.187 98.5562Z" fill="white"/>
<path d="M50.2806 60.6192C48.1696 52.6271 50.4557 51.5786 50.4557 51.5786L54.023 59.6353C52.9795 59.7682 51.3365 59.963 50.2937 60.6677L50.2806 60.6192Z" stroke="black" stroke-linecap="round" stroke-linejoin="round"/>
<path d="M-13.8657 98.3844C-13.846 95.9877 -12.4523 93.7311 -10.5102 92.362C-8.56798 90.9929 -6.12512 90.5247 -3.72954 90.6413C1.27905 90.9181 5.97703 94.0358 8.22853 98.5586C8.89484 99.8816 9.34824 101.367 10.2883 102.562C10.8454 103.292 11.6894 103.942 12.5721 104.166C13.4972 103.026 15.539 101.265 20.1199 99.5813C27.6605 96.8709 40.1595 91.5921 43.7807 86.1717C47.415 80.7998 46.5049 68.8893 46.5049 68.8893C46.5049 68.8893 41.8806 60.3455 40.2583 54.3491C40.2583 54.3491 46.6432 57.6236 49.4548 61.3678C49.6285 61.0598 49.863 60.7869 50.2193 60.5844C51.2753 59.9282 52.9055 59.685 53.9486 59.5521C56.1916 59.2949 58.566 60.0932 58.8416 61.6806L66.2262 59.5329C66.2262 59.5329 65.9872 59.5986 65.9786 59.7569C65.9568 59.8672 66.0308 59.9507 66.0569 60.0471C66.3225 60.6492 66.9097 61.1107 67.5752 61.2901C68.1927 61.4834 68.9232 61.3333 69.4444 60.9807C69.3415 62.8804 68.492 65.8186 65.1125 69.0927C59.1656 74.8451 61.2492 76.0875 61.2492 76.0875C61.2492 76.0875 69.1992 89.8963 67.2986 99.2062C65.3981 108.517 64.2441 111.279 64.6629 112.826C65.0812 114.373 71.3645 130.567 71.3645 130.567C71.3645 130.567 76.2243 130.105 74.7212 131.197C73.2048 132.241 69.988 132.507 69.988 132.507L56.6882 111.655C56.6882 111.655 50.644 125.594 51.2241 127.357C51.8037 129.12 52.7547 133.015 52.7547 133.015C52.7547 133.015 56.0887 132.611 54.929 133.452C53.7688 134.293 50.7431 134.507 50.7431 134.507L48.3095 125.513L47.9486 110.124L38.9978 111.041L31.0904 111.827C31.0904 111.827 32.5102 125.052 22.1149 129.748C22.0193 129.774 21.9715 129.788 21.8759 129.814C11.2501 134.418 11.8557 146.153 11.8557 146.153C11.8557 146.153 15.4249 146.049 14.8914 147.496L10.44 147.949C10.44 147.949 4.32408 133.892 14.8256 126.36C14.8256 126.36 15.6676 124.723 15.6224 122.657C15.5948 120.845 12.6847 108.76 11.9606 105.894C8.94199 104.235 6.36131 101.154 2.90483 100.915C0.639604 100.711 -1.52451 101.83 -3.61917 102.825C-5.67907 103.759 -8.06516 104.627 -10.2091 103.921C-12.4617 103.194 -13.9941 100.759 -13.9266 98.3494L-13.8657 98.3844Z" stroke="black" stroke-linecap="round" stroke-linejoin="round"/>
<path d="M66.0523 59.8401C66.0523 59.8401 66.2174 59.6904 66.2999 59.6161C67.2168 59.2059 68.2209 58.9281 69.225 58.6504C69.5646 59.3359 69.6306 60.1495 69.5139 60.8576L69.5528 61.0025L69.5054 61.0159C68.9362 61.381 68.2404 61.4697 67.6361 61.3253C66.9706 61.1454 66.4313 60.671 66.1178 60.0819C66.0917 59.9854 66.0651 59.8885 66.0391 59.7921L66.0523 59.8401Z" fill="#A5A4A4" stroke="black" stroke-linecap="round" stroke-linejoin="round"/>
<path d="M53.6697 63.2671C54.0221 63.4297 54.1616 63.7549 54.3489 64.0668C54.4011 64.2606 54.4665 64.5023 54.2536 64.665C54.2536 64.665 54.1711 64.7398 54.1364 64.8017C53.9714 64.9509 53.6583 64.9336 53.4971 64.7187C53.4582 64.5733 53.3709 64.4414 53.3794 64.2831C53.3533 64.1867 53.4226 64.0634 53.4444 63.9535C53.405 63.8082 53.3657 63.6633 53.3268 63.5184C53.2741 63.3246 53.4525 63.2234 53.6223 63.2805L53.6697 63.2671Z" fill="black"/>
<path d="M65.1385 69.1895C65.1385 69.1895 58.7903 73.0776 55.7148 71.0181" stroke="black" stroke-linecap="round" stroke-linejoin="round"/>
<path d="M62.6209 78.3064C62.6209 78.3064 50.2022 80.6522 45.9562 77.3052L45.8408 79.7282C45.8408 79.7282 54.1696 83.3482 63.1398 80.0338L62.6688 78.2934L62.6209 78.3064Z" fill="#E5B3B3"/>
<path d="M62.5157 77.9201C62.5157 77.9201 50.0967 80.2655 45.8507 76.9189L45.7354 79.3415C45.7354 79.3415 54.0639 82.962 63.0342 79.6476L62.5632 77.9067L62.5157 77.9201Z" stroke="black" stroke-linecap="round" stroke-linejoin="round"/>
</g>
</g>
<defs>
<clipPath id="clip0_240_6799">
<rect width="68" height="78" fill="white" transform="translate(3 10)"/>
</clipPath>
</defs>
</svg>
