<svg width="96" height="88" viewBox="0 0 96 88" fill="none" xmlns="http://www.w3.org/2000/svg">
<g clip-path="url(#clip0_240_6721)">
<path fill-rule="evenodd" clip-rule="evenodd" d="M42.5365 55.819C43.4878 51.5728 46.8612 48.2778 51.3983 46.6364C52.061 46.4785 52.1307 46.1988 52.8976 45.744C53.0855 45.6855 54.3925 45.2266 54.5012 45.2544C55.0241 45.1145 55.2584 45.2281 55.6864 44.8697C56.2791 43.9253 56.4534 42.2815 57.2552 41.1623C59.708 36.7015 65.5842 37.9253 66.4041 42.8567C66.9764 43.208 67.7852 43.5175 68.4078 43.8006C69.0487 44.0921 69.6128 44.7982 70.2736 45.0506C70.8631 45.2759 71.8347 45.1163 72.4288 45.3127C75.1614 46.2158 77.4753 47.3554 79.2897 49.6643C79.6722 50.1513 80.1031 50.75 80.451 51.242C82.2446 53.1875 83.4903 55.3681 84.6379 57.7079C87.8481 64.5745 88.7215 72.1781 89.5048 79.5766C89.487 80.8713 90.3985 84.461 89.0501 85.0816C89.1309 85.1602 89.1014 85.3184 88.9519 85.3169C85.5331 85.2847 82.122 85.5731 78.7561 86.1334C77.132 86.4039 75.5164 86.7749 73.8622 86.8357C70.4287 86.8132 67.0069 86.2712 63.5775 86.7841C59.4547 86.7841 54.4444 86.6713 49.8579 86.505C45.5714 86.3498 41.2619 86.7004 37.0285 86.0135C36.6934 85.9635 36.5298 85.5787 36.6 85.3026C37.0967 83.597 37.3405 81.842 37.6192 80.0966C37.5637 78.9774 37.663 77.8087 38.1025 76.7656C39.2509 69.7264 40.7235 62.7332 42.5365 55.819Z" fill="white"/>
<path fill-rule="evenodd" clip-rule="evenodd" d="M43.9207 65.072C44.0112 65.4859 44.1379 65.8998 44.3065 66.2917C44.4689 66.6699 44.7136 67.0093 44.8821 67.3828C44.9047 67.4334 44.9417 67.4716 44.9863 67.5007L44.9724 67.6023L44.9595 67.7038C44.8755 68.3902 44.781 69.0746 44.6991 69.7605L44.6593 70.104C44.4984 71.5365 44.2442 72.9624 44.0468 74.3914C43.8535 75.7907 43.6568 77.1896 43.4465 78.5869C43.2293 80.0276 43.0079 81.4663 42.7496 82.9008C42.6405 83.5071 42.5267 84.1124 42.4081 84.7171L42.3165 85.18C41.3736 85.3939 41.1159 86.6325 42.076 87.0897C42.5117 87.2964 43.0716 87.2464 43.4307 86.9218C43.8039 86.5835 43.8195 85.9731 43.906 85.5148L43.9895 85.0887C44.6138 81.8858 45.1558 78.6461 45.4091 75.3978C45.4742 74.5593 45.529 73.7198 45.5647 72.8797C45.5985 72.0897 45.5824 71.2997 45.5953 70.5092L45.5996 70.2938C45.6194 69.4513 45.603 68.6097 45.5797 67.7671C45.577 67.6645 45.5722 67.562 45.5667 67.4584C45.5982 67.4237 45.6209 67.3823 45.6304 67.3425L45.6428 67.2894C45.6736 67.1532 45.6387 66.9934 45.5276 66.896C45.4797 66.3223 45.4166 65.7487 45.3995 65.1751C45.3981 65.1281 45.3262 65.1297 45.322 65.1751C45.2816 65.6635 45.2008 66.1529 45.1199 66.6418C44.5998 66.2478 44.2154 65.5982 43.9885 65.0547C43.9721 65.0154 43.911 65.0296 43.9207 65.072ZM56.281 43.4204C56.1946 43.7922 56.024 44.1262 55.7951 44.4367C55.6861 44.5852 55.5621 44.7234 55.4134 44.839C55.2859 44.9377 55.1406 45.0023 55.005 45.0883C54.8076 45.0591 54.6014 45.1295 54.4629 45.2664C53.8634 48.1153 53.1644 49.5825 52.6911 52.4521L52.4837 53.7193L52.2884 54.9089C51.9643 56.8912 51.6508 58.8729 51.4148 60.8698C51.1002 63.5349 50.8358 66.2065 50.6425 68.8822C50.4486 71.5768 50.3293 74.273 50.2443 76.9727C50.2231 77.6535 50.2005 78.3333 50.1786 79.0141L50.0322 78.2001C49.8861 77.3866 49.7429 76.5721 49.6201 75.7545C49.1795 72.8287 48.8272 69.8825 48.6552 66.9317C48.4976 64.2315 48.5503 61.4777 49.2795 58.8468C49.4632 58.1849 49.6879 57.5337 49.9592 56.8989C50.2224 56.2813 50.5814 55.7094 50.8645 55.1012C51.1935 54.3936 51.2922 53.7259 51.1228 52.964C50.9748 52.3002 50.7151 51.6758 50.6685 50.9927C50.5814 49.7245 51.0194 48.4964 51.6382 47.3865C51.8013 47.094 51.9119 46.8733 52.0914 46.5872C52.3046 46.3021 52.4111 46.2664 52.8956 45.7867C52.9298 45.7441 52.8573 45.697 52.8202 45.7318C52.3046 46.1239 51.9217 46.1916 51.9217 46.1916C51.9217 46.1916 51.6334 46.2074 51.399 46.5077C48.8279 46.9125 46.6186 48.4215 45.1083 50.4141C43.3945 52.6754 42.5276 55.397 41.8861 58.0772C41.1728 61.0556 40.5711 64.0615 39.9304 67.0547C39.2671 70.1525 38.6072 73.2497 37.9397 76.3465C37.6081 77.8836 37.2763 79.4213 36.9454 80.9595C36.7775 81.7383 36.6014 82.515 36.4171 83.2907C36.3225 83.6888 36.221 84.0858 36.1333 84.4849C36.0347 84.9351 36.1265 85.2229 36.4499 85.5536C36.5692 85.6761 36.7577 85.674 36.9057 85.6087L36.9519 85.5883L36.9966 85.5679C37.1798 85.4832 37.3234 85.3954 37.4373 85.2066C37.5628 84.9994 37.5827 84.7697 37.6258 84.539C37.7054 84.1149 37.7841 83.6908 37.8636 83.2657C37.9824 82.6303 38.1115 81.997 38.243 81.3637L38.9025 78.198C39.0783 77.3539 39.2544 76.5103 39.4316 75.6667C40.0641 72.6501 40.6973 69.634 41.3303 66.6178C41.9383 63.7216 42.4762 60.806 43.1683 57.9267L43.2076 57.7644L43.2476 57.6026C43.8665 55.1205 44.7311 52.7195 46.3 50.6162C47.5074 48.9988 49.1842 47.5544 51.1592 46.8234C51.02 47.012 50.8864 47.2044 50.7589 47.4007C49.9585 48.6327 49.3741 50.0952 49.5112 51.5622C49.5782 52.2789 49.8674 52.9834 49.8401 53.7059C49.8147 54.3477 49.3932 54.9114 49.102 55.4699C48.4408 56.7356 47.9624 58.0803 47.654 59.4603C47.0352 62.2309 47.0373 65.0817 47.2504 67.8942C47.4821 70.9517 47.9219 74.0086 48.4229 77.036C48.6798 78.5889 49.0218 80.1292 49.2836 81.6791C49.4131 82.4436 49.5892 83.2065 49.7435 83.9669L49.8169 84.3303C49.8581 84.5319 49.9007 84.733 49.9501 84.932L49.9805 85.0509V85.0723C49.9818 85.2188 50.0244 85.3403 50.0929 85.4372C50.1868 85.7205 50.3033 85.9971 50.4581 86.2625C50.5376 86.3982 50.6528 86.4742 50.7782 86.5018C50.9043 86.7738 51.19 86.9831 51.5312 86.9815L56.0191 86.9657C58.6258 86.956 61.2328 86.9397 63.8392 86.9259C64.4974 86.9228 65.1541 86.9111 65.8113 86.8953C66.4278 86.8789 67.0184 86.8095 67.6272 86.7371C68.3155 86.6554 68.6883 86.1966 68.5856 85.549C68.5627 85.4061 68.5383 85.2642 68.5149 85.1223C68.6517 85.1647 68.815 85.1448 68.9254 85.0432L69.0286 84.9478C69.1721 84.8141 69.3002 84.6829 69.3913 84.5048C69.4854 84.3216 69.5612 84.1277 69.6441 83.9404C69.8232 83.5377 69.9971 83.1335 70.1665 82.7273C70.5058 81.9148 70.8446 81.0993 71.1599 80.2787C71.7841 78.6532 72.3365 77.0038 72.8172 75.3355C73.6738 72.3587 74.2933 69.3247 74.6835 66.2631L74.7771 65.5339L74.804 65.318C74.9526 64.1319 75.0772 62.927 75.0182 61.743C74.9816 61.0015 74.86 60.2544 74.566 59.5623C74.2944 58.9239 73.8757 58.3773 73.4774 57.8068L73.4322 57.7409L73.3864 57.6736C73.0379 57.1551 72.7612 56.6131 72.747 55.9833C72.7333 55.3444 72.9306 54.7226 73.1514 54.1244L73.2063 53.9769L73.2434 53.8792C73.7135 52.643 74.2481 51.4242 74.0716 50.0791C73.8111 48.0981 72.5369 46.5012 70.9331 45.2699C72.3594 45.5359 73.7709 46.0615 75.0167 46.7279C76.4882 47.5156 77.8128 48.5552 78.9548 49.7284C81.1136 51.9457 82.6548 54.606 83.9163 57.3526C85.2368 60.2273 86.216 63.2394 86.9541 66.2912C87.6962 69.3599 88.1932 72.4781 88.5325 75.6085C88.7014 77.1666 88.8346 78.7283 88.9445 80.2909C89.001 81.0917 89.0432 81.8934 89.1093 82.6931C89.1749 83.4918 89.2044 84.3027 89.4115 85.08C89.5081 85.4423 90.1597 85.4791 90.2294 85.08C90.3846 84.1889 90.3413 83.2673 90.2981 82.365L90.294 82.2828C90.2513 81.3841 90.1958 80.4859 90.1302 79.5877C89.9959 77.752 89.8164 75.9188 89.5819 74.0918C88.7604 67.6773 87.2451 61.2965 84.2734 55.4415C82.8741 52.6838 81.078 50.0041 78.5794 48.0128C77.3896 47.0655 76.0488 46.3094 74.6036 45.7619C73.3111 45.2718 71.9982 45.04 70.6248 45.0407C69.9361 44.5435 69.1965 44.1102 68.4579 43.7402C68.4136 43.7177 68.3668 43.7719 68.404 43.8068C68.4233 43.8242 68.4416 43.8422 68.4609 43.859C68.377 43.8642 68.2911 43.901 68.2132 43.9779C67.9421 44.2458 67.7132 44.5809 67.5082 44.9289C67.1964 45.2957 66.8993 45.6747 66.588 46.0376C66.09 46.6187 65.5798 47.1914 65.0641 47.7596C64.1973 48.7146 63.3025 49.6514 62.3691 50.5506L62.213 50.7001C61.7292 51.1618 61.2394 51.7145 60.6671 52.0799L60.6366 52.0991C60.3955 52.2473 60.2241 52.2742 60.0186 52.0529C59.8314 51.8515 59.6752 51.6177 59.5155 51.3956L59.4784 51.3446C58.6609 50.2256 57.903 49.0653 57.2168 47.8707C57.2168 47.8707 56.9579 47.5851 56.5318 47.219L56.2476 46.9079C55.9634 46.5872 55.9746 46.6101 55.8478 46.2937C55.8184 46.2195 55.7896 46.1452 55.7615 46.0716C56.1932 45.8049 56.5276 45.2277 56.6489 44.7757C56.7749 44.3063 56.7112 43.8245 56.4865 43.3952C56.4441 43.3145 56.3015 43.3345 56.281 43.4204ZM77.5239 61.3276C77.5839 63.1123 77.62 64.899 77.709 66.6826L77.7401 67.2915C77.6007 67.4374 77.5193 67.6059 77.5844 67.837C77.6099 67.9253 77.6846 68.0054 77.7777 68.035L77.8067 68.601C77.939 71.1481 78.0941 73.6897 78.3774 76.2301C78.7315 79.4096 79.1415 82.5839 79.5504 85.7577C79.6084 86.2068 79.9406 86.5636 80.4564 86.4977C80.9783 86.4309 81.1904 86.0027 81.1217 85.5567C80.8526 83.8062 80.5932 82.0547 80.3663 80.2981L80.1084 78.297C79.7844 75.7958 79.4528 73.2952 79.0708 70.8021C78.911 69.76 78.7452 68.7184 78.5789 67.6768L78.6369 67.6059C78.8749 67.3144 79.1206 67.0297 79.3643 66.7434C79.8312 66.1907 80.2926 65.6421 80.7209 65.0638C80.7422 65.0347 80.699 64.9919 80.668 65.0138C80.0677 65.4318 79.4996 65.8783 78.9283 66.3325L78.4278 66.7316C78.1399 64.9317 77.855 63.1317 77.6007 61.3276C77.5946 61.2827 77.5229 61.2791 77.5239 61.3276ZM68.8892 44.2478C69.2504 44.5686 69.6197 44.8825 69.9834 45.2014L70.1167 45.3189L70.2494 45.4368C70.8888 46.0083 71.5018 46.6032 72.0125 47.2864C72.9499 48.541 73.5085 50.0706 73.1183 51.6022C72.7948 52.8709 72.0527 54.021 71.8533 55.3214C71.7536 55.9729 71.8019 56.6279 72.0623 57.2428C72.3284 57.8706 72.7531 58.4085 73.1351 58.9749C73.9642 60.2054 74.0772 61.5563 73.9947 62.9821C73.9088 64.4708 73.7272 65.9605 73.5029 67.4359C73.0491 70.4255 72.3655 73.384 71.4601 76.2812C71.0073 77.7321 70.4722 79.1518 69.9396 80.5777C69.6746 81.2871 69.3654 81.9802 69.0469 82.6696C68.8791 83.0325 68.7066 83.3938 68.5322 83.7536C68.5962 83.2453 68.5962 82.7227 68.6278 82.217C68.6731 81.4928 68.731 80.7696 68.7834 80.0455C68.8913 78.5767 68.9869 77.1064 69.0729 75.6361C69.376 70.3933 69.5999 65.1455 69.5831 59.8941C69.5749 57.2684 69.518 54.6422 69.3984 52.0187C69.342 50.7832 69.2331 49.549 69.1349 48.3153L69.1136 48.0509C69.0266 46.9436 68.9228 45.8336 68.7438 44.7359C68.7967 44.6234 68.843 44.5094 68.877 44.3925L68.8892 44.3485L68.8801 44.3498C68.8882 44.3155 68.8913 44.2814 68.8892 44.2478ZM65.7655 39.7357C65.7579 39.7053 65.7121 39.7079 65.704 39.7357C65.5005 40.3814 65.5722 41.0916 65.7477 41.7412C65.8423 42.0931 65.9766 42.4347 66.1389 42.7639L66.1958 42.8792C66.3352 43.1597 66.4919 43.4486 66.7625 43.6234C66.8759 43.6963 67.0779 43.7009 67.1908 43.6234L67.2488 43.5821C67.2579 43.5752 67.2676 43.568 67.2768 43.5607C67.3821 43.4775 67.4345 43.2934 67.3856 43.172C67.26 42.8589 66.9756 42.629 66.7793 42.3501C66.6048 42.1021 66.4507 41.8406 66.323 41.5688C66.0468 40.9806 65.9227 40.3562 65.7655 39.7357Z" fill="black"/>
<path fill-rule="evenodd" clip-rule="evenodd" d="M47.9521 27.8773C48.1125 26.4624 47.905 23.5052 47.8911 23.3255C47.8031 22.1897 48.3332 17.7045 49.3353 18.1178C51.0161 16.7818 53.2549 16.4868 55.3484 16.3459C59.6966 16.0531 64.3224 16.7252 67.6801 19.6633C69.3409 21.1891 70.9575 23.4084 70.8278 25.719C72.336 27.9093 74.4632 30.9138 72.5832 33.4744C71.9443 34.2924 70.929 34.5971 70.1263 35.2167C68.5118 36.5242 67.4985 38.4005 65.8688 39.7003C61.5507 43.596 54.2187 44.4098 49.9763 39.9787C46.6957 36.7695 47.2261 31.9685 47.8031 27.8773C48.1911 25.1267 47.6393 30.6375 47.9521 27.8773Z" fill="white"/>
<path fill-rule="evenodd" clip-rule="evenodd" d="M61.1568 10.3459C59.994 10.1103 58.8002 9.96369 57.6124 10.0078L57.5209 10.0114C56.6272 10.0473 55.4956 10.1266 54.7161 10.6482C54.6713 10.6031 54.5991 10.5799 54.5337 10.6112C53.6074 11.0551 52.5885 11.3761 51.6132 11.6951C50.6423 12.0124 49.635 12.2219 48.6174 12.3064C48.2346 12.3382 47.9069 12.7533 48.1494 13.1255C48.2071 13.2142 48.2632 13.3039 48.3192 13.3937C48.2256 13.3839 48.132 13.3738 48.0384 13.3643C47.7305 13.3332 47.4229 13.6631 47.4412 13.9641C47.4526 14.1534 47.4729 14.3405 47.503 14.5253C47.3858 14.5229 47.2692 14.5405 47.1565 14.5883C46.5861 14.8301 46.6259 15.5122 46.6685 16.0312C46.7277 16.7513 46.996 17.5141 47.4941 18.0532C47.1222 18.441 46.8589 18.9042 46.7019 19.4542C46.5879 19.8559 46.5245 20.2837 46.5558 20.7018L46.5658 20.827C46.6045 21.2808 46.6814 21.7832 47.0065 22.1096C47.1734 22.2779 47.379 22.3392 47.575 22.3198C47.4565 23.3655 47.3805 24.4171 47.309 25.4651L47.2755 25.9659C47.116 28.3879 46.9961 30.8257 47.0274 33.2517C47.0565 35.5188 47.5027 37.7194 48.8877 39.5602C50.149 41.2365 51.9601 42.4721 54.0088 42.9419C55.1129 43.1955 56.2401 43.2134 57.3576 43.0518C57.8993 42.9733 58.4446 42.8529 58.9589 42.6629C59.5276 42.4519 59.9365 42.1415 60.3196 41.6763C60.5007 41.4556 60.4137 40.9859 60.053 41.03C59.5077 41.0964 59.0097 41.1764 58.4868 41.3384L58.4121 41.3621C57.8912 41.5297 57.3515 41.6546 56.8071 41.7077C55.6918 41.8161 54.5594 41.7069 53.491 41.3674C51.7515 40.8138 50.2533 39.5804 49.293 38.0306C48.1531 36.1935 48.0242 34.1081 48.0407 31.9958C48.0583 29.6779 48.1334 27.3586 48.256 25.0431L48.2768 24.6573C48.3416 23.4657 48.4043 22.2734 48.4593 21.0811C48.4764 20.7071 48.5025 20.3301 48.5495 19.9568C48.9793 19.704 49.3645 19.3555 49.6156 18.9254C50.1199 19.1348 50.6503 19.2859 51.1384 19.4063C52.2689 19.6855 53.4425 19.7533 54.5932 19.5785C54.9035 19.7072 55.2201 19.8203 55.5415 19.9178C55.6284 19.9564 55.7152 19.9944 55.802 20.0317C56.5769 20.3645 57.3627 20.6465 58.1806 20.853L58.3815 20.9033C58.8124 21.0098 59.2798 21.1147 59.7377 21.1477C59.8129 21.1768 59.8943 21.2015 59.9828 21.2232C60.3999 21.3249 60.8333 21.3571 61.2606 21.3212C61.6772 21.286 61.9783 20.8634 61.7489 20.4677C61.5811 20.179 61.4117 19.8911 61.2413 19.6038C61.8349 19.8521 62.4483 20.0586 63.0664 20.2336C63.691 20.4101 64.3243 20.559 64.9581 20.6959C65.2969 20.7684 65.6377 20.8327 65.976 20.9053C66.2181 20.9569 66.5894 20.9839 66.7873 21.1439C67.0055 21.3197 67.0671 21.7296 67.15 21.9824C67.2588 22.3108 67.3606 22.6406 67.4536 22.9742C67.6393 23.64 67.7914 24.3154 67.9089 24.9975C68.0269 25.6805 68.1058 26.3701 68.1495 27.062C68.1938 27.7532 68.1744 28.4488 68.2451 29.1369C68.2833 29.502 68.6734 29.6897 68.9618 29.4347C68.9954 29.4047 69.0295 29.3745 69.0636 29.3439L69.1134 29.2978C69.3601 29.0734 69.5997 28.8355 69.7971 28.5678C69.8327 28.5184 69.8668 28.4668 69.8988 28.4144C69.9039 28.4144 69.9085 28.4129 69.9136 28.4091L69.9685 28.3678C70.5713 27.9175 71.5779 27.3305 72.1654 28.0785C72.3526 28.3169 72.4483 28.6203 72.5276 28.9131L72.6675 29.437C72.7575 29.779 72.8425 30.1229 72.8923 30.4729C73.0047 31.2567 72.9483 32.1604 72.4111 32.7886C72.1965 33.04 71.9009 33.2195 71.5708 33.2666C71.3867 33.292 71.2051 33.2606 71.0225 33.2374C70.8368 33.2143 70.6583 33.2517 70.4726 33.2337C70.1776 33.2045 70.0489 33.5591 70.1587 33.782C70.2183 33.9017 70.2885 34.0049 70.3683 34.0924C70.3042 34.1477 70.2432 34.2076 70.1842 34.2704C70.0097 34.3265 69.8535 34.447 69.7365 34.6063C69.6419 34.7349 69.5926 34.8748 69.5845 35.0222C69.5743 35.0588 69.5651 35.0962 69.557 35.1343L69.3973 35.3948C69.3622 35.4519 69.3271 35.5084 69.292 35.5637C68.885 36.207 68.4333 36.7515 67.8723 37.2647C67.3326 37.7583 66.7461 38.2004 66.2389 38.73L66.1789 38.7928C65.7059 39.2933 65.2074 39.8992 65.3925 40.6268C65.4398 40.8138 65.7003 40.9485 65.8702 40.8221C66.416 40.4152 66.6912 39.7704 67.1545 39.2767C67.6312 38.7681 68.1592 38.3111 68.6378 37.8039C69.09 37.3252 69.4466 36.7829 69.7157 36.186C69.823 36.305 69.9792 36.3895 70.1964 36.4224C70.5687 36.4785 70.9162 36.2593 71.0784 35.9355C71.1827 35.9818 71.289 36.0237 71.3963 36.0566C71.961 36.2301 72.3165 35.5996 72.1034 35.1336C71.9894 34.8838 71.847 34.6669 71.6705 34.4844C72.2224 34.4081 72.7845 34.1216 73.1472 33.764C74.0577 32.8657 74.1828 31.5156 73.9778 30.3151C73.869 29.6785 73.6813 29.0345 73.4376 28.4368C73.3954 28.3328 73.3496 28.2282 73.2998 28.1249C73.3272 28.1242 73.3557 28.1122 73.3735 28.089C73.5383 27.8631 73.7388 27.6784 73.8608 27.4256C73.9732 27.1937 74.0984 26.9588 74.1874 26.7172C74.3695 26.2228 74.459 25.6648 74.5185 25.1419C74.6416 24.0716 74.5938 23.0079 74.4305 21.9443C74.1528 20.1327 73.4819 18.3989 72.493 16.8777C72.5469 16.8493 72.5983 16.815 72.6466 16.7744L72.6705 16.7537L72.7092 16.7187C72.991 16.4623 72.9666 15.9819 72.7092 15.7223L72.6273 15.6403C72.5246 15.5375 72.4355 15.456 72.2692 15.3441C72.2443 15.3275 72.2194 15.312 72.1939 15.2975C72.2809 15.1357 72.3114 14.9467 72.2504 14.738C72.0393 14.0113 70.9975 14.037 70.3373 14.3539C69.6068 13.6995 68.797 13.1314 67.9196 12.6714C65.829 11.5764 63.4652 10.8127 61.1568 10.3459ZM71.9635 29.487C71.5728 29.3591 71.0545 29.6276 70.7035 29.7892C70.259 29.9942 69.8805 30.2971 69.5138 30.6172C69.3311 30.7773 69.2986 31.0391 69.3439 31.2628C69.3484 31.2852 69.353 31.3084 69.3581 31.3316C69.4064 31.5702 69.6719 31.7579 69.9064 31.7512C70.3973 31.7377 70.6313 31.3121 70.909 30.9516C70.9421 31.0099 70.9828 31.0638 71.0337 31.1042L71.0677 31.1311C71.1832 31.2193 71.3104 31.2898 71.4625 31.2829C71.5708 31.2777 71.6741 31.25 71.7697 31.1999C72.0083 31.0735 72.113 30.7639 72.0484 30.5118C72.0083 30.3532 71.9157 30.229 71.7951 30.143L71.8399 30.1121C71.936 30.0448 72.024 29.974 72.0922 29.8693L72.108 29.8446H72.1019C72.1766 29.7159 72.1278 29.5409 71.9635 29.487Z" fill="black"/>
<path fill-rule="evenodd" clip-rule="evenodd" d="M54.3699 38.036C54.9204 38.1928 55.5114 38.2068 56.0725 38.0449C56.5816 37.8981 57.1042 37.5749 57.4786 37.1473C57.8118 36.7674 58.0269 36.3058 58.0188 35.813C58.0178 35.7567 57.9969 35.7098 57.9659 35.6733C57.9318 35.634 57.8845 35.6071 57.8336 35.5954C57.7818 35.5834 57.7263 35.5876 57.6795 35.6086C57.6368 35.6276 57.6007 35.6598 57.5778 35.707C57.5203 35.7813 57.4628 35.8546 57.4053 35.9258C56.9425 36.4877 56.4941 36.9076 55.7981 37.0582C55.4204 37.14 55.0432 37.1037 54.6971 36.979C54.3267 36.8455 53.9918 36.6108 53.7293 36.3104C53.6108 36.1747 53.4707 36.1193 53.3339 36.1184C53.1787 36.1173 53.0253 36.1882 52.9098 36.3015C52.7962 36.4128 52.7202 36.5641 52.7133 36.7224C52.7073 36.8613 52.7534 37.0065 52.876 37.1359C53.2799 37.5623 53.8035 37.8747 54.3699 38.036ZM54.3869 30.9983C53.8226 31.3356 52.9627 32.1219 53.5698 32.958C54.2844 33.6951 55.3133 32.8499 55.8203 32.4677C56.2904 32.1714 56.8186 32.9333 56.3825 33.2792C52.7188 35.9458 51.232 31.0865 54.1015 30.6019C54.4174 30.5484 54.5348 30.894 54.3869 30.9983ZM59.6659 29.5145C59.8475 29.4005 60.0606 29.3613 60.2971 29.4671C60.4818 29.5497 60.8063 29.8251 61.0316 30.1871C61.1858 30.4348 61.2951 30.7254 61.2727 31.028C61.2672 31.0983 61.2936 31.1501 61.3353 31.1884C61.3684 31.2187 61.4157 31.241 61.4716 31.2479C61.5189 31.2538 61.5724 31.2485 61.6151 31.2352C61.6975 31.2101 61.7407 31.1577 61.757 31.115C61.9152 30.7027 61.847 30.2426 61.67 29.8275C61.4309 29.2673 60.9976 28.798 60.7132 28.6467C60.2269 28.3877 59.6531 28.3758 59.1663 28.6396C58.7513 28.8642 58.4924 29.2267 58.2345 29.5963C58.1795 29.6749 58.1251 29.7528 58.0692 29.8294C57.9562 29.983 57.945 30.1352 57.9888 30.2657C58.0371 30.4104 58.1602 30.5324 58.3143 30.5963C58.4568 30.6553 58.6221 30.6637 58.7686 30.603C58.8922 30.5517 59.0056 30.4519 59.0773 30.2824C59.1984 29.9969 59.3998 29.682 59.6659 29.5145ZM50.454 30.1496C50.5782 30.2132 50.6754 30.2324 50.8132 30.1918C50.8894 30.1693 50.9647 30.1262 51.0237 30.0682C51.0821 30.0108 51.1243 29.9393 51.1407 29.8601C51.181 29.6645 51.2898 29.4814 51.445 29.362C51.5776 29.26 51.7449 29.2059 51.9305 29.2364C52.1309 29.2693 52.3217 29.3956 52.4531 29.5445C52.4971 29.5943 52.5315 29.6509 52.5662 29.7071C52.6309 29.8123 52.6938 29.9099 52.7832 29.9871C52.817 30.0165 52.8681 30.0369 52.9175 30.0369C52.9376 30.0369 52.9579 30.0336 52.9774 30.0277C53.1767 29.831 53.2151 29.6817 53.2087 29.5337C53.2019 29.3785 53.1396 29.2213 53.0391 29.0747C52.8031 28.7307 52.355 28.4487 52.0527 28.3848C51.6387 28.2973 51.2275 28.4023 50.8977 28.6297C50.5585 28.8636 50.3072 29.2268 50.2288 29.6361C50.2099 29.7347 50.218 29.8411 50.2562 29.9333C50.2934 30.0235 50.3585 30.1007 50.454 30.1496ZM58.7528 25.8471C59.0015 26.0851 59.2956 26.122 59.5931 26.1548C59.7584 26.1732 59.8902 26.188 60.0199 26.2168C60.377 26.296 60.73 26.4153 61.052 26.5871C61.3882 26.7667 61.755 26.9834 62.019 27.2608C62.0815 27.3269 62.1405 27.3962 62.2 27.4656C62.254 27.529 62.3059 27.5899 62.3608 27.6487C62.4239 27.7162 62.4834 27.787 62.5429 27.8575C62.5795 27.9171 62.5871 27.9317 62.5943 27.947C62.6055 27.9699 62.6187 27.9955 62.6334 28.023C62.6538 28.0607 62.6772 28.1019 62.7021 28.1393C62.7433 28.2077 62.7657 28.2265 62.785 28.2349C62.8166 28.2489 62.8471 28.2557 62.8761 28.252C62.9035 28.2485 62.9295 28.2355 62.9554 28.2143C63.0826 28.1084 63.1202 27.9344 63.1167 27.7499C63.1106 27.4697 63.0058 27.1596 62.9086 26.969C62.6833 26.526 62.371 26.0654 61.9956 25.7348C61.5668 25.3574 61.0978 25.0717 60.5591 24.8748C60.2244 24.7524 59.8368 24.6401 59.4721 24.6543C59.2096 24.6645 58.9588 24.7412 58.7518 24.9328C58.6246 25.0504 58.5636 25.2176 58.5636 25.3848C58.5636 25.5553 58.6272 25.7268 58.7528 25.8471ZM49.9486 28.0266C49.9644 28.052 49.9863 28.0696 50.0106 28.0801C50.0362 28.0912 50.0646 28.0943 50.092 28.0898C50.1192 28.0853 50.1451 28.0732 50.1656 28.0546C50.1853 28.0369 50.2002 28.0133 50.2069 27.9845C50.3719 27.2722 50.6922 26.7422 51.3759 26.4004C51.7123 26.2323 52.099 26.1255 52.4652 26.0403C52.5715 26.0156 52.6839 25.9995 52.7972 25.9833C53.152 25.9324 53.5093 25.874 53.7407 25.5921C53.8801 25.4222 53.9386 25.205 53.9055 25.0064C53.8743 24.8193 53.7632 24.6478 53.5611 24.5451C53.0579 24.2893 52.4327 24.5403 51.9246 24.754C51.8869 24.7699 51.8499 24.7855 51.8137 24.8005C51.3168 25.0067 50.8637 25.2788 50.4912 25.6681C50.1956 25.9768 49.9217 26.4333 49.8114 26.9029C49.7197 27.2936 49.7412 27.6924 49.9486 28.0266Z" fill="black"/>
<path fill-rule="evenodd" clip-rule="evenodd" d="M26.4282 86.8631C22.0523 86.8631 17.7425 86.8462 13.5299 86.4206L13.9589 83.3774L14.6909 79.95C14.0544 79.8703 12.9149 80.6404 12.2856 80.5797C10.2288 80.9992 9.46189 81.1044 7.75373 80.5797C7.26569 80.37 7.19596 80.1949 7.02166 79.95C6.49745 78.3761 6.08437 77.014 6.4639 73.5845C6.4639 73.5845 6.76018 71.0312 6.98811 69.8421C7.43056 67.5338 7.50971 66.0298 8.31149 63.0571C9.21787 58.0904 13.5754 50.8857 17.046 49.5647L17.0578 49.5641L17.1361 49.5587C18.6831 49.4524 20.2827 49.3424 21.7117 48.629L21.8782 48.5459L21.8881 48.3596C21.9001 48.1348 22.1761 47.8675 22.3978 47.6527C22.4741 47.5788 22.5461 47.5089 22.6109 47.439L22.6244 47.4243L22.6361 47.4082C22.9705 46.9421 23.3633 46.6639 23.6867 46.6639C24.1579 46.6639 24.3862 47.2569 24.4803 47.6104L24.6287 48.1677L25.0216 47.7464C25.9448 46.7567 26.3864 45.6682 26.3369 44.5076L26.3704 44.4971L26.3274 44.2198C26.2463 43.7386 26.3002 43.3816 26.4879 43.1589C26.7075 42.8983 27.1383 42.7715 27.8048 42.7715C28.2451 42.7715 28.7243 42.8272 29.1471 42.8763C29.2854 42.8924 29.4186 42.9078 29.5445 42.9208C30.3908 43.0102 31.2561 43.1711 32.0928 43.3267L32.2103 43.3485L32.1308 43.5655L32.3341 43.7065C32.605 43.8943 32.8067 44.2711 32.8876 44.7402L32.8912 44.7614L32.8977 44.7819C33.018 45.1644 33.0636 45.5915 33.112 46.0438C33.1932 46.8046 33.2772 47.5913 33.7313 48.2686L34.0042 48.6754L34.2657 48.2612C34.3933 48.059 34.5644 47.9608 34.7887 47.9608C35.3939 47.9608 36.1329 48.6319 36.2643 49.1521L36.3064 49.3192L36.4687 49.3758C37.583 49.765 38.5011 50.049 39.3112 50.2996C41.3452 50.9287 42.366 51.2445 43.0211 52.1701C43.6951 53.1222 44.0361 54.7841 44.6034 58.0904C45.2242 61.6736 45.1937 67.3241 45.1937 69.4573C45.5424 71.9059 47.5294 74.5291 46.9019 80.3348C46.8369 80.4021 45.8212 83.9373 44.3222 86.4206C43.9096 86.4568 43.9704 86.8304 43.5622 86.8631C42.8828 86.9166 42.1802 86.9718 41.4938 87.0442L41.3415 87.06L41.3077 87.1126C41.2451 87.1182 41.1833 87.1244 41.1226 87.1305C41.0258 87.1402 40.9325 87.1494 40.8413 87.155L40.8137 87.0993L40.5922 87.1244C34.7947 87.1305 31.7181 86.8631 26.4282 86.8631Z" fill="white"/>
<path fill-rule="evenodd" clip-rule="evenodd" d="M30.0914 52.7922C30.3532 52.4948 30.8156 52.5375 31.1378 52.7169C31.4286 52.441 31.7204 52.1668 32.0121 51.8927C32.7658 51.1843 33.5186 50.4769 34.25 49.7441C32.6728 48.7435 32.5411 46.6833 32.8569 45.0071L32.8665 44.9564C32.8904 44.8125 33.0903 44.8647 33.1016 44.9883L33.1087 45.0679C33.1212 45.2112 33.1321 45.3561 33.1431 45.5017C33.2159 46.4636 33.2913 47.4602 33.8163 48.2876C34.5039 47.1982 36.152 48.313 36.3938 49.2712C37.5027 49.6584 38.4354 49.9469 39.2254 50.1913V50.1913C43.3599 51.4701 43.5897 51.5412 44.7381 58.234C44.9971 60.6637 45.1998 62.6939 45.3249 64.1545C45.3544 64.4326 45.3803 64.7194 45.4021 65.0154C45.6531 68.4291 45.5067 70.3316 45.4021 70.9262L44.67 69.6672C44.67 69.6672 44.9838 65.7146 43.9728 58.7545C43.984 58.7734 43.9955 58.7933 44.0075 58.8147C43.9985 58.7571 43.9895 58.6989 43.9805 58.6402C43.7625 57.2296 43.5176 55.6146 43.2441 53.7807C43.0924 53.2271 42.8763 52.6794 42.4943 52.2427C41.6596 51.3317 40.5036 51.0028 39.3439 50.6728C38.2916 50.3734 37.2364 50.0732 36.4156 49.3365C36.5827 49.8526 36.5961 50.423 36.5633 50.962C36.4769 52.2759 36.4063 53.5908 36.3356 54.9058C36.2517 56.4661 36.1678 58.0263 36.0578 59.5848C36.0343 59.9074 35.6451 60.0135 35.4629 59.7466C34.9652 59.0179 34.463 58.2932 33.9609 57.5685H33.9608H33.9607L33.9606 57.568H33.9605H33.9604C33.006 56.1906 32.0518 54.8134 31.1296 53.4117C30.9029 53.5196 30.6609 53.5688 30.4012 53.5171C30.4012 53.5171 27.4517 57.2158 25.4066 59.8211C25.3005 59.9564 25.0987 59.8972 25.0144 59.7721L25.0091 59.7635L25.0441 59.8574C24.9776 59.8364 24.9176 59.7997 24.8578 59.7635H24.8577C24.8408 59.7533 24.8239 59.7431 24.8068 59.7334C24.2952 58.4728 23.9131 57.1689 23.531 55.8649C23.3805 55.3511 23.23 54.8375 23.0717 54.3266C22.9111 53.7183 22.7231 53.114 22.5349 52.5092C22.1747 51.3519 21.814 50.1927 21.6443 49L21.6326 48.9951L21.3896 48.5401C21.4084 48.1897 21.7266 47.8814 21.9962 47.6201C22.069 47.5495 22.1383 47.4824 22.1972 47.4188C23.0499 46.2303 24.1948 46.1708 24.6087 47.7255C24.6087 47.7255 25.7871 50.2397 30.0914 52.7922ZM32.0632 60.7326C32.0568 59.9319 30.9596 60.0595 31.1404 60.8265C31.0139 61.121 31.0674 61.4813 31.3163 61.7472C31.4655 61.9064 31.6986 61.7722 31.715 61.5813C31.7458 61.4649 31.8129 61.3598 31.8803 61.2547C31.9821 61.0955 32.0845 60.9352 32.0632 60.7326ZM30.8053 57.7583C30.9171 56.8606 31.93 57.2393 31.5723 57.3888C31.5651 57.3965 31.5575 57.4042 31.5496 57.4118C31.9587 57.4516 31.93 57.9334 31.8845 58.2416C31.724 58.9316 30.6841 58.3039 30.8053 57.7583Z" fill="black"/>
<path d="M40.9831 66.5804C40.9831 66.5804 42.6805 63.1743 40.6643 60.6946C40.5092 60.4879 40.4558 59.9924 40.9831 60.3424C41.6423 60.7798 42.1649 62.2088 42.2627 62.7492C42.5729 64.463 42.1604 66.1221 42.1604 66.1221C42.1604 66.3033 42.3644 66.4839 42.575 66.6533C42.8578 66.8805 45.946 69.4245 47.148 73.9467C48.2335 78.0299 47.0701 82.1882 46.6824 83.2456C46.2946 84.303 44.7049 86.965 44.007 87.2569C43.309 87.5483 42.8438 86.9002 43.309 86.4546C43.309 86.4546 44.7164 84.8762 46.0599 80.6199C48.27 73.6185 43.2838 68.1242 40.9831 66.5804Z" fill="black"/>
<path fill-rule="evenodd" clip-rule="evenodd" d="M41.6269 26.5082C41.7029 25.8 41.3503 23.6054 41.3702 23.9886C40.0454 21.9392 37.4599 21.1332 35.2292 20.4566C30.4937 18.8882 26.7959 20.7824 23.4687 24.1395C21.5044 25.9804 19.6353 28.0367 18.6492 30.5851C16.7094 35.4465 19.6171 40.9898 24.039 43.3121C24.3958 43.5059 24.7846 43.6898 25.1245 43.9239C26.9524 44.9835 29.0989 45.35 31.1358 45.8111C34.9465 46.685 39.7323 46.2686 41.978 42.6286C43.5012 40.0454 43.0965 36.9138 42.9773 34.0469C42.7982 31.5351 42.01 29.0017 41.6269 26.5082Z" fill="white"/>
<path fill-rule="evenodd" clip-rule="evenodd" d="M21.3841 19.034C23.8529 16.7185 27.5019 15.5962 30.8382 15.7925C32.6451 15.8988 34.3866 16.3531 36.0196 17.1335C36.5303 17.3775 37.028 17.6632 37.4869 17.9997C37.7964 18.1446 38.0991 18.3014 38.3923 18.4719C39.8606 19.3253 40.9956 20.6179 41.7221 22.1512C42.0689 22.8831 42.48 24.9125 42.6349 25.7077L42.6599 25.8386C42.739 26.2376 42.8953 26.7633 42.6975 27.1367C42.5665 27.3842 42.2918 27.5403 42.0317 27.5193C42.0882 27.7487 42.1558 27.9781 42.1991 28.209L42.3315 28.8163C42.351 28.9212 42.3664 29.0473 42.4012 29.166C42.4974 29.4934 42.5393 29.7758 42.5393 29.7758C42.7143 31.0882 42.8725 32.4032 43.012 33.7204C43.1119 34.6624 43.2056 35.6054 43.2965 36.5481L43.3508 37.1137C43.4442 38.0873 43.5175 39.0695 43.4539 40.0474C43.3584 41.5143 42.9086 42.8527 42.0358 43.9414C42.119 44.1421 42.147 44.368 42.2096 44.6176C42.2963 44.9628 42.4092 45.3009 42.5293 45.636C42.5855 45.7678 42.6419 45.8995 42.6975 46.0316L42.844 46.3814L42.9583 46.6108C43.0822 46.8603 43.2019 47.1135 43.278 47.3717C43.7712 47.6359 44.174 48.067 44.1937 48.6576C44.2112 49.1913 43.9351 49.7564 43.4686 50.0285C43.0084 50.2973 42.5346 50.1915 42.0939 49.9862C41.7097 50.0985 41.2984 50.1127 40.9178 49.9928C40.6247 50.2589 40.2468 50.4427 39.8278 50.4923C39.1962 50.5675 38.5966 50.3901 38.0171 50.1569L37.9768 50.1405C37.9586 50.1334 37.9405 50.1257 37.9231 50.1181C37.2565 50.0859 36.5928 49.8215 36.12 49.3529C35.966 49.2011 35.8328 49.0276 35.7255 48.8331C35.3356 48.1258 35.2751 47.2578 35.6585 46.5562C35.5762 46.5598 35.4933 46.5632 35.411 46.5653C34.314 46.5967 33.2151 46.5406 32.1208 46.4682L31.8628 46.4506C31.1547 46.3995 30.1105 46.2791 30.0906 45.3986C30.0878 45.2859 30.2036 45.2013 30.3095 45.2314C30.7118 45.3453 31.1072 45.5245 31.5241 45.5888C32.0693 45.6735 32.634 45.6826 33.1848 45.7134L33.3432 45.7222C34.454 45.7832 35.6046 45.8203 36.6974 45.5993C37.5131 45.435 38.363 45.1355 39.1104 44.7647C39.8278 44.4081 40.4797 43.9415 41.0054 43.3322C42.1635 41.992 42.3169 40.1012 42.2604 38.4057C42.192 36.3805 41.9549 34.3583 41.8212 32.336L41.7606 31.4276C41.7107 30.67 41.6693 30.3786 41.6504 29.6207C41.6364 29.0674 41.5994 29.4808 41.6692 28.6414C41.6692 28.6414 41.8363 28.0506 41.3205 27.3473C41.1783 27.1535 40.8653 26.7807 40.6931 26.6128C40.3263 26.2561 39.8215 25.3187 38.9152 24.6542C37.9998 24.129 37.1924 23.5736 36.1815 23.2854C34.6336 22.8447 32.6465 22.9447 31.0756 22.5907C30.6427 23.1965 30.6881 23.4651 30.0258 24.5842C28.9102 26.8926 27.8254 28.3655 25.9861 29.7758C25.6117 30.0633 25.2324 30.3466 24.8476 30.6215C24.2082 31.1946 23.8869 31.4756 23.367 32.2422L23.1437 32.5704L23.1402 32.5767C23.1095 32.6236 23.0801 32.6704 23.0509 32.7173C22.9889 32.8166 22.8835 32.8734 22.7092 32.9433C22.4685 33.0211 22.3798 33.0133 22.256 33.0133C22.0817 33.0482 22.1048 33.0558 21.9898 33.1888C21.6189 33.6182 21.0318 33.0586 20.6051 32.9097C20.1429 33.0509 19.7573 33.6029 19.5656 34.0246C19.2895 34.6325 19.1787 35.3655 19.3034 36.0238C19.4177 36.6253 19.7259 37.1452 20.2384 37.4711C20.2565 37.4822 20.276 37.4942 20.2949 37.5046C20.2956 37.5061 20.2956 37.5061 20.2963 37.5053C20.3137 37.5165 20.3318 37.5271 20.35 37.5369C20.5905 37.6698 20.8547 37.7481 21.1287 37.7669C21.2855 37.7782 21.4495 37.7697 21.6063 37.7887C21.7674 37.8075 21.8998 37.8817 22.0546 37.9209C22.2254 37.9649 22.3356 38.1951 22.2282 38.3496C22.1752 38.4259 22.1251 38.4987 22.0713 38.5638C22.2478 38.7722 22.4011 39.0023 22.5399 39.2212C22.7295 39.5213 22.8975 39.8396 23.0509 40.1642C23.1925 40.351 23.3277 40.5412 23.4588 40.7357C24.2014 41.8395 24.7695 43.0692 25.1188 44.3542C25.4647 45.6251 25.6808 47.0528 25.3608 48.3504C25.0659 49.5438 24.2048 50.5322 22.9303 50.5959C22.6644 50.609 22.4027 50.5792 22.1568 50.5114C21.6164 50.8463 20.9468 51.0147 20.3476 51.0344C19.8628 51.0503 19.332 50.9479 18.9361 50.6538C18.4664 50.8589 17.9568 50.9753 17.5138 51.0018C17.018 51.0314 16.4991 50.8959 16.095 50.6274C15.7104 50.9579 15.2954 51.2369 14.8239 51.4283C14.013 51.757 13.0481 51.7164 12.3056 51.2247C11.5617 50.7323 11.1831 49.8481 11.4104 48.9709C11.6195 48.1623 12.277 47.5691 12.8947 47.0584L13.0167 46.9581C13.6278 46.4577 14.2449 45.9734 14.6371 45.2684C15.0533 44.5207 15.2052 43.6519 15.2464 42.8055C15.3356 40.9421 14.9578 39.0953 14.8427 37.2417C14.7242 35.3271 14.7904 33.407 15.0505 31.5064C15.556 27.8145 16.8862 24.1953 19.293 21.3174C19.6412 20.901 20.0139 20.5041 20.4067 20.1279C20.7069 19.734 21.0314 19.3647 21.3841 19.034ZM53.3941 40.1138C53.4074 40.1145 53.4199 40.1152 53.4318 40.1201C53.4397 40.1235 53.4464 40.1288 53.4526 40.1347L53.5113 40.1935C53.5322 40.2146 53.5308 40.2467 53.5113 40.2677C53.4941 40.2868 53.4632 40.2873 53.4431 40.2726L53.4374 40.2677L53.3766 40.2067C53.37 40.1995 53.3643 40.1917 53.3614 40.1816C53.3586 40.1719 53.3586 40.1607 53.3579 40.1502C53.3572 40.1313 53.3753 40.1138 53.3941 40.1138ZM20.6826 34.3989C21.2418 34.2289 21.9124 34.6333 22.2457 35.06C22.4131 35.274 22.4605 35.5671 22.2457 35.7776C22.0631 35.9567 21.7061 35.9895 21.5297 35.7776C21.3296 35.5363 21.1664 35.2019 20.8806 35.0473C20.5703 34.8794 20.1548 34.9214 20.0816 35.3306C20.069 35.3999 19.97 35.3767 19.9659 35.3146C19.9387 34.9004 20.3005 34.5142 20.6826 34.3989Z" fill="black"/>
<path fill-rule="evenodd" clip-rule="evenodd" d="M35.0904 42.3463C34.6217 42.1545 34.2035 41.8345 33.8977 41.4258C33.7915 41.2836 33.7639 41.1336 33.7862 40.9963C33.8113 40.842 33.9023 40.7021 34.0264 40.6083C34.1509 40.5142 34.3066 40.4678 34.4571 40.4915C34.588 40.512 34.7182 40.5839 34.8212 40.7329L34.8427 40.7627C35.0245 41.0095 35.2614 41.2119 35.5313 41.3424C35.7914 41.4681 36.0823 41.5268 36.3834 41.4927C36.9567 41.4277 37.3519 41.1166 37.772 40.6941C37.8241 40.6407 37.8761 40.5857 37.9285 40.5298C37.9615 40.4792 38.0074 40.4466 38.0583 40.4295C38.1149 40.4105 38.1789 40.4116 38.2375 40.4322C38.2941 40.4519 38.3446 40.4894 38.3785 40.5393C38.4106 40.5868 38.4289 40.6454 38.423 40.7128C38.3846 41.1506 38.1564 41.5413 37.8323 41.8482C37.4724 42.1889 36.9953 42.4247 36.5461 42.5074C36.0512 42.5984 35.5469 42.5332 35.0904 42.3463ZM36.7796 35.592C37.306 35.913 38.1082 36.6617 37.5418 37.4577C36.8752 38.1596 35.9153 37.3549 35.4423 36.9909C35.0037 36.7088 34.5109 37.4343 34.9178 37.7636C38.3358 40.3025 39.7229 35.6759 37.0458 35.2145C36.7511 35.1636 36.6416 35.4926 36.7796 35.592ZM30.6545 32.6386C30.7127 31.9142 31.8124 31.7497 31.9217 32.4665C32.0197 33.1086 31.9044 33.6986 31.6161 34.2767C31.3406 34.829 30.6483 34.5713 30.5959 34.0684C30.5257 33.3942 30.6183 33.0893 30.6545 32.6386ZM39.0254 32.3179C39.1787 32.1164 39.4001 31.9789 39.6653 32.0566C40.494 32.2995 40.2497 33.4798 39.9587 34.0543C39.8006 34.3663 39.2895 34.4454 39.0585 34.1707C38.682 33.7228 38.5017 32.8282 38.9803 32.3869C38.9933 32.3641 39.0077 32.3411 39.0254 32.3179ZM31.6044 29.4687L31.7353 29.4458C32.1402 29.3755 32.6437 29.308 32.9302 29.6346C33.0821 29.8078 33.1344 30.1297 32.9302 30.2955C32.5709 30.5872 32.1738 30.4742 31.7434 30.4989C31.3886 30.5193 31.0477 30.5782 30.706 30.6761C29.9564 30.8911 29.3455 31.2836 28.7053 31.7144C28.6213 31.7709 28.5355 31.6632 28.5756 31.5843C28.9452 30.858 29.6614 30.2614 30.3789 29.8978C30.7618 29.7036 31.1808 29.5426 31.6044 29.4687ZM38.2701 29.1434L38.3703 29.164C39.4605 29.3926 40.877 29.8493 41.3932 30.9237C41.4129 31.0756 41.3921 31.1082 41.3752 31.1295L41.3696 31.1366C41.3557 31.1547 41.3445 31.1798 41.2789 31.2005C41.2607 31.1961 41.2423 31.1915 41.2237 31.1866C40.9871 31.1244 40.7998 31.0386 40.6186 30.9497L40.422 30.8526C40.194 30.7404 39.964 30.6323 39.7202 30.5525C39.1999 30.3822 38.6648 30.2623 38.1213 30.1983C38.0036 30.1844 37.8901 30.1445 37.8007 30.0762C37.7157 30.0113 37.6509 29.9215 37.6212 29.8021C37.5829 29.6476 37.5939 29.5305 37.6766 29.3912C37.7387 29.2864 37.8276 29.2139 37.9297 29.1722C38.0338 29.1298 38.1523 29.1197 38.2701 29.1434Z" fill="black"/>
<path fill-rule="evenodd" clip-rule="evenodd" d="M19.6211 49.868L19.5106 49.8954C18.4976 50.1469 17.4899 50.4391 16.5395 50.8771C15.7015 51.2633 14.8773 51.7245 14.1947 52.3528C13.4702 53.0198 12.9062 53.8715 12.39 54.7044C11.2355 56.5679 10.4237 58.6097 9.70911 60.6761C8.96587 62.8257 8.92612 62.6833 8.42424 64.9018C8.16899 66.0306 7.96168 67.1667 7.7913 68.3114C7.70928 68.8625 7.63643 69.4147 7.57244 69.9684C7.50414 70.5594 7.48845 71.1677 7.30762 71.7363C7.2301 71.9797 7.04706 72.0808 6.86385 72.0721L6.82663 72.539C6.77729 73.1611 6.73128 73.7838 6.71574 74.41C6.68997 75.4511 6.70165 76.4891 6.77633 77.5281L6.78691 77.67C6.84559 78.4284 6.97671 79.2802 7.54526 79.8354C8.13405 80.4106 9.03951 80.5912 9.83309 80.6014C11.6814 80.6259 13.4606 79.7502 15.0962 78.9816C16.7807 78.1901 18.3842 77.7022 19.9834 76.7494C20.7978 76.2645 21.6034 75.7634 22.3988 75.2474C22.7891 74.9938 23.1766 74.7366 23.5612 74.4748C23.7815 74.3247 23.9903 74.1604 24.2146 74.0277C24.1047 73.9251 24.0556 73.7639 24.1477 73.623C23.4993 73.0586 23.2295 72.0512 23.1979 71.2361C23.1724 70.5783 23.269 69.9225 23.3452 69.2708C23.3836 68.9421 23.4311 68.6145 23.4804 68.2874C23.4999 68.1577 23.5147 68.02 23.5375 67.8832C21.7868 68.8482 19.9871 69.7071 18.1746 70.0802C17.2276 70.4716 16.2685 70.8233 15.2963 71.1458L15.0992 71.2111C14.1779 71.5133 13.2346 71.799 12.2822 71.972C12.2313 71.9812 12.1899 71.9057 12.2443 71.8817C13.1724 71.4709 14.1327 71.1244 15.0748 70.7462L15.2296 70.6829C15.2118 70.6819 15.1934 70.6799 15.1742 70.6753C14.6217 70.5416 14.0735 70.3354 13.5316 70.1619C13.0287 70.0006 12.4636 69.8995 11.9935 69.6566C11.9574 69.6377 11.9776 69.5872 12.0128 69.5847C12.5412 69.5479 13.1147 69.7026 13.6328 69.7934L13.8274 69.8276C14.1534 69.8853 14.4866 69.947 14.8111 70.0282C14.8228 69.9189 14.8835 69.8097 14.9699 69.7454C15.9205 69.0396 15.824 67.6132 15.9256 66.5619L16.001 65.7811C16.1336 64.4149 16.2739 63.0487 16.4871 61.6927C16.4985 61.6203 16.6102 61.6412 16.6106 61.7096C16.6216 63.3906 16.4951 65.0635 16.4317 66.7421L16.4219 67.0176C16.3868 68.0531 16.3593 69.1284 15.709 69.9251C15.7999 69.872 15.9228 69.872 15.9965 69.9598C16.087 70.068 16.1393 70.1889 16.1377 70.3083C16.7253 70.0613 17.3104 69.8077 17.8927 69.5489C19.7298 69.1075 21.5626 68.1766 23.3469 67.1697C23.5389 67.061 23.7214 67.1462 23.8164 67.2891L23.83 67.2871C23.8323 67.2871 23.8347 67.2866 23.8371 67.2866L23.8507 67.2861C23.8512 67.2861 23.8517 67.2861 23.8522 67.2861C24.3941 69.2708 22.9358 71.9782 25.1514 73.9073C25.275 74.0241 25.3274 74.2084 25.2187 74.3814C24.9152 74.8647 24.3923 75.1392 23.9229 75.4485L23.8924 75.4684C23.4307 75.7756 22.9649 76.0762 22.4954 76.3712C21.5408 76.9709 20.5662 77.5368 19.5779 78.0783C17.9884 78.9495 16.3996 79.3807 14.7465 80.1258C14.8457 80.6152 14.0346 85.4727 14.1091 85.9657L14.1206 86.0361C14.1524 86.2188 14.1094 86.3719 13.9838 86.4913L13.9705 86.5035L13.9707 86.502L13.9589 86.5127L13.955 86.5158L13.9563 86.5148C13.9418 86.528 13.9269 86.5408 13.9117 86.551L13.8922 86.5638C13.7713 86.6373 13.6155 86.6368 13.4916 86.5714L13.4775 86.5638L13.4537 86.55C13.29 86.4556 13.1772 86.2218 13.245 86.0361C13.4119 85.5793 14.2499 80.7392 14.404 80.2794L14.2817 80.334L14.1206 80.4044C12.3778 81.1603 10.4419 81.7967 8.543 81.2812C7.70398 81.0536 6.91978 80.5718 6.49998 79.7869C6.08688 79.0143 6.0285 78.1171 6.00656 77.2582C5.9795 76.1972 6.03619 75.1204 6.17566 74.0691C6.26928 73.3632 6.3825 72.6437 6.55714 71.9455C6.46731 71.8659 6.40128 71.7521 6.38384 71.6107C6.30142 70.9432 6.44567 70.2496 6.53398 69.5862C6.62026 68.9381 6.71557 68.2915 6.82336 67.6464C7.041 66.3445 7.29385 65.0452 7.58825 63.7581C8.11217 61.4677 8.2221 61.5524 9.05506 59.3569L9.128 59.1655C9.8977 57.1583 10.7889 55.1942 12.0299 53.431C12.6235 52.5874 13.251 51.8226 14.0898 51.2147C14.8756 50.6452 15.762 50.2351 16.6767 49.9217C17.5925 49.608 18.5337 49.3978 19.4915 49.2671C20.4643 49.1343 21.4911 49.0528 22.3986 48.6527C22.5637 48.2993 22.9137 49.2671 19.6211 49.868Z" fill="black"/>
<path d="M29.821 58.3006C29.821 57.1534 29.333 55.7006 29.089 55.1177H28.6357C28.7868 55.7589 29.2501 57.2233 29.2981 57.601C29.5072 59.2448 29.2632 61.2035 29.089 61.798C28.9146 62.3926 29.089 63.1622 29.577 63.4066C30.065 63.6516 31.2851 63.6868 32.1218 63.5817C32.7911 63.4975 32.6099 63.0336 32.4355 62.8121C31.6686 62.9172 30.072 63.0642 29.821 62.8121C29.5073 62.4972 29.821 59.7342 29.821 58.3006Z" fill="black"/>
<path d="M27.0269 67.1601C25.7795 68.1323 24.8267 68.4855 23.5105 68.882C23.3362 70.1227 25.361 68.9622 27.2754 67.7087C29.4665 66.2742 30.1707 66.5778 30.3718 66.6284C30.5731 66.6794 28.4796 68.0211 28.0772 68.2742C27.6748 68.5273 27.1527 69.0846 27.7311 69.2112C28.3095 69.3378 28.2863 69.5909 30.0952 68.4778C32.044 67.279 32.7918 67.3372 33.4457 67.1601C34.0996 66.983 33.6798 67.522 31.6678 68.4079C31.063 68.6743 30.5082 69.1403 30.9357 69.3173C31.3633 69.4949 34.8234 68.0211 35.4019 68.0211C35.9803 68.0211 33.8454 69.1535 32.7136 69.4572C31.5819 69.7613 31.3404 69.8945 31.2147 70.2492C31.0889 70.6034 32.646 70.6958 33.7246 70.3666C34.7693 70.0482 34.8957 70.3232 34.3172 70.5764C33.7388 70.83 30.7941 71.2158 30.5174 71.2413C30.2408 71.2663 29.9168 71.2965 29.7157 71.6256C29.5547 71.889 29.9359 72.0635 30.0952 72.0722C32.9372 71.9961 32.6414 72.2023 32.7136 72.3253C32.8366 72.5351 32.3302 72.781 29.367 73.0597C25.549 73.419 24.3268 72.6315 23.7986 72.5049C23.3761 72.4039 23.7651 72.8913 23.7986 73.0597C29.367 74.529 32.7108 73.1357 33.2893 72.781C33.8677 72.4269 33.5659 71.7175 32.8366 71.7175H30.6234C31.5036 71.7175 34.597 70.9076 34.9491 70.6544C35.3012 70.4013 35.4019 69.844 34.597 69.8945C33.7923 69.9456 31.3276 70.3253 32.1575 70.1227C32.9875 69.9201 35.5779 68.882 35.9552 68.2742C36.3324 67.6664 35.9049 67.1601 35.1755 67.4643C34.4462 67.7679 31.0667 69.0086 32.0979 68.6034C33.129 68.1982 34.9491 67.0524 34.7228 66.7549C34.5994 66.5931 34.7228 66.4257 33.1635 66.7549C31.9161 67.0183 29.4581 68.2829 28.385 68.882C28.779 68.5023 29.557 67.6868 29.9192 67.4643C30.3718 67.1856 31.1012 66.6539 30.6234 66.2742C30.1455 65.8945 28.5862 65.945 27.0269 67.1601Z" fill="black"/>
</g>
<defs>
<clipPath id="clip0_240_6721">
<rect width="84" height="78" fill="white" transform="translate(6 10)"/>
</clipPath>
</defs>
</svg>
