<svg width="72" height="98" viewBox="0 0 72 98" fill="none" xmlns="http://www.w3.org/2000/svg">
<g clip-path="url(#clip0_194_8134)">
<path fill-rule="evenodd" clip-rule="evenodd" d="M39.291 44.385C42.5028 44.1494 46.9062 44.8015 47.8352 48.5529C48.1233 49.918 48.691 50.5172 49.6446 51.41C55.6981 59.3467 34.5775 60.6807 33.4918 52.9414C31.2045 53.7947 28.7146 53.9754 26.4259 54.838C25.1846 55.3077 24.059 56.0489 22.9804 56.8238C18.582 60.0239 14.2458 63.3153 9.86313 66.5384C11.5591 67.3384 14.7836 70.3928 13.4697 72.4454C13.1636 72.8452 12.7093 73.1208 12.3074 73.4131L12.0955 73.5681C11.6396 73.9028 10.8721 74.4732 10.4477 74.7832L10.3694 74.8416C10.3387 74.8643 10.3041 74.8899 10.2728 74.9128C13.3334 79.4965 16.9153 83.7258 20.8885 87.5019C21.2269 87.8241 21.0883 88.5444 20.5986 88.6283L20.0153 88.716C18.1317 88.997 16.2124 89.2499 14.3143 89.0973C12.4656 88.8913 11.3516 87.2151 10.0879 86.0008C7.5643 83.3585 5.21512 80.54 3.0754 77.5625L3.03085 77.4997C2.3649 76.5674 1.48097 75.6147 1.41628 74.411C1.2983 74.0491 1.60879 73.5305 1.90713 73.2838L2.00898 73.1332C3.6091 70.7758 5.42005 68.5024 7.68892 66.7953C7.68048 66.5409 7.79529 66.2735 8.02264 66.1049L17.5048 59.0757V59.0757C19.9514 57.351 22.2254 55.3241 24.8772 53.9314C27.5889 52.594 30.6489 52.5414 33.4278 51.4252C33.4867 50.6208 35.1378 50.4154 35.0856 50.5396C36.8277 49.4625 37.7245 48.181 38.0011 47.0031C38.2777 45.8252 37.934 44.7511 39.291 44.385ZM62.7396 69.6215C65.6717 65.1023 68.4664 70.1024 69.6871 73.116C71.1293 77.2401 68.1426 82.3132 66.2133 85.8685C65.5026 86.8559 64.568 88.9384 63.3154 89.0894C60.1596 89.0762 56.9994 88.8486 53.8418 88.7808C51.8028 88.2626 54.6635 85.124 56.6396 86.2704C57.2383 86.4999 57.5374 87.1962 58.1212 87.4195C58.3339 87.466 58.3486 87.3689 58.4351 87.1519L58.4474 87.1215C58.6016 86.7461 58.7512 86.3686 58.9031 85.9921C60.1887 82.7491 61.5478 79.5346 62.8992 76.3215C63.1879 75.6239 62.783 75.0491 62.2567 74.6339C61.8537 74.2941 60.1212 73.4645 61.7535 73.8297C61.1249 72.3352 61.8802 70.8182 62.7396 69.6215ZM55.4602 63.4352C55.7425 63.3991 56.1051 63.6905 56.1485 63.9728C56.5086 66.313 56.1074 68.6267 55.6265 70.9159L55.5379 71.3351C55.3605 72.1701 55.1623 73.0214 54.7198 73.7532C54.2683 74.5001 53.5853 75.063 52.8011 75.4052C50.2855 76.4321 47.157 75.4165 45.3065 73.4967C44.1226 71.8356 45.1634 69.7488 45.362 67.9282C45.1742 67.4377 45.105 66.8702 44.9964 66.3644L44.9832 66.304L44.5613 64.4172C44.4682 64.001 44.7643 63.4315 45.2508 63.4886C48.6432 63.8872 52.072 63.8693 55.4602 63.4352Z" fill="white"/>
<path fill-rule="evenodd" clip-rule="evenodd" d="M67.3072 69.0303C67.297 68.9838 67.3515 68.9482 67.3868 68.9832C67.9836 69.5724 68.405 70.3254 68.8677 71.0232C69.3083 71.6878 69.7878 72.3268 70.1164 73.0602C70.4217 73.742 70.6186 74.4336 70.6773 75.1829C70.7359 75.9268 70.6599 76.6724 70.5318 77.4051C70.2798 78.8485 69.7411 80.2153 69.1497 81.5429C68.5747 82.8334 67.925 84.0873 67.2389 85.3183L66.993 85.7578C66.693 86.2929 66.3898 86.827 66.0651 87.3454C65.6611 87.9904 65.2923 88.6563 64.7596 89.1947C64.3813 89.5779 63.6684 89.1947 63.8408 88.6471C63.9156 88.4086 63.9742 88.1841 64.0904 87.9628C64.1784 87.7941 64.2777 87.6304 64.3711 87.4643C64.5579 87.132 64.7428 86.7984 64.9296 86.4661C65.3217 85.7677 65.7347 85.0821 66.1232 84.3813C66.7972 83.166 67.4335 81.9279 67.9962 80.6538L68.0624 80.5034C68.5801 79.3235 69.0708 78.1014 69.2981 76.825C69.5376 75.4804 69.3233 74.213 68.857 72.9491C68.6157 72.2955 68.3446 71.6566 68.0626 71.0201L68.0084 70.8985C67.7362 70.291 67.4475 69.6868 67.3072 69.0303ZM38.3264 45.7713C38.3318 45.7474 38.3713 45.7456 38.3749 45.7713C38.5425 46.9131 38.1696 48.121 37.562 49.0708C37.2304 49.5896 36.8215 50.0581 36.3397 50.4345L36.3021 50.4636C35.8099 50.8405 35.1448 51.2046 34.5337 50.9601C34.5146 50.9526 34.4966 50.9441 34.4798 50.9343C34.5487 51.0434 34.6121 51.1581 34.6768 51.2728C34.8689 51.6143 35.0413 51.9681 35.2287 52.3127C35.5639 52.9289 35.9631 53.4802 36.4678 53.9628C38.4856 55.892 41.3189 56.3506 43.9797 56.3286L44.1677 56.3268C45.3365 56.3183 46.8651 56.3795 47.7674 55.5129C48.2522 55.0475 48.5192 54.3859 48.7604 53.7647C48.9975 53.1558 49.1597 52.5273 49.3566 51.908C48.9454 51.6193 48.5683 51.2667 48.272 50.8546C47.9631 50.4253 47.7297 49.9422 47.595 49.4265L47.5751 49.3494C47.471 48.9382 47.3662 48.3942 47.5339 48.0057C47.5531 47.961 47.6249 47.9641 47.6453 48.0057C47.7356 48.1915 47.753 48.4012 47.8087 48.5999C47.8733 48.8311 47.9464 49.061 48.0427 49.2799C48.2289 49.7042 48.4749 50.1077 48.77 50.4609C49.0136 50.7533 49.2776 51.022 49.5793 51.2476C49.7571 50.9331 50.1695 50.8907 50.5149 50.9944C50.9779 51.1329 51.4345 51.3108 51.8809 51.4987L51.9701 51.5364C52.4112 51.7241 52.9099 51.8964 53.3229 52.1521C53.5737 52.2747 53.8143 52.3979 54.0406 52.5071C55.168 53.0496 56.2788 53.6253 57.3845 54.2121L57.6214 54.338C58.0847 54.5851 58.5438 54.8347 58.9467 55.1793C59.3567 55.53 59.6752 56.0095 59.9745 56.459C60.6586 57.4867 61.3033 58.5438 61.9797 59.577C63.3457 61.6618 64.7117 63.7466 66.0855 65.8265C66.4177 66.33 66.7924 66.8211 67.0905 67.346C67.376 67.8476 67.3683 68.3626 67.3126 68.9224L67.3022 69.0253C67.1954 70.0522 67.0119 71.0384 66.4494 71.919C65.5641 73.3036 64.1694 74.1657 62.6939 74.7592C62.874 74.8966 63.0434 75.045 63.2583 75.1395C63.5888 75.2841 63.9413 75.359 64.2987 75.389C64.68 75.4203 65.1098 75.3228 65.4186 75.5883C65.5426 75.6943 65.5461 75.9494 65.4186 76.0555C65.1217 76.3038 64.7379 76.2326 64.376 76.191L64.3544 76.1886C64.0185 76.1506 63.6875 76.0868 63.3721 75.9605C63.2942 75.9291 63.217 75.8943 63.1422 75.8556C63.1446 75.8624 63.1458 75.8704 63.1446 75.8789C63.0907 76.3014 62.9739 76.7008 62.8505 77.1045L62.7723 77.3604C62.613 77.8828 62.4526 78.404 62.2874 78.9252C61.973 79.9174 61.6306 80.9002 61.2869 81.8818L60.9903 82.7288C60.6856 83.5978 60.377 84.4655 60.0361 85.32C59.8254 85.8473 59.6135 86.3747 59.4022 86.9014C59.1957 87.4158 59.0239 87.9714 58.7677 88.4613C58.557 88.8648 57.9823 88.5759 58.0745 88.1615C58.1954 87.6176 58.4235 87.078 58.5977 86.5488C58.7749 86.0117 58.9485 85.4739 59.1286 84.9379C59.442 84.0069 59.7891 83.0883 60.1379 82.1706L60.4836 81.2608C60.8227 80.3695 61.1659 79.4789 61.5326 78.599L61.5727 78.5026C61.9537 77.5823 62.347 76.5474 63.0392 75.8342C63.0482 75.8244 63.0608 75.8194 63.0734 75.8182C62.9034 75.7238 62.7441 75.6091 62.6041 75.4736L62.5972 75.4666C62.5419 75.4065 62.3132 75.1106 62.2395 74.9334C62.1437 74.9684 62.048 75.0021 61.9522 75.0351C61.7852 75.0928 61.6469 75.0511 61.5494 74.9598L61.3635 75.0776C61.1648 75.2019 60.9512 75.3198 60.7317 75.3258C60.4551 75.3332 60.2378 75.1768 60.09 74.9463C59.9571 74.7403 59.8781 74.5177 59.7099 74.3331C59.5445 74.1517 59.3531 73.9986 59.1574 73.8524L58.9269 73.6806C58.504 73.3644 58.0941 73.0449 57.7537 72.6273C57.5825 72.4163 57.3532 72.1661 57.2491 71.9128C57.2287 71.8639 57.2161 71.8179 57.2138 71.7731C57.191 71.9313 57.1677 72.0901 57.1443 72.2483C56.8175 74.4748 56.5535 76.7165 56.4691 78.9681C56.4278 80.0785 56.4092 81.1903 56.4577 82.3013C56.4817 82.8563 56.5212 83.4106 56.5757 83.9637C56.6026 84.2408 56.6307 84.5174 56.6636 84.7933L56.6712 84.8572C56.6808 84.9418 56.687 85.0236 56.6798 85.1011C56.9432 85.2341 57.0946 85.5702 57.2 85.8326C57.2802 86.0325 57.2179 86.2269 57.0886 86.3673C57.2431 86.5114 57.3808 86.6806 57.4963 86.8744C57.5196 86.9137 57.4693 86.9443 57.4394 86.9198C57.2497 86.7653 57.0455 86.6383 56.8324 86.5408C56.7205 86.5844 56.5984 86.596 56.4859 86.5641C56.3637 86.5298 56.2584 86.4464 56.1824 86.3404C55.5772 86.2385 54.9481 86.363 54.4034 86.7512C54.2902 86.8321 54.1879 86.9235 54.0903 87.0227C54.0735 87.04 54.0562 87.062 54.0388 87.0835L54.1577 87.1303C54.2069 87.1494 54.2473 87.1644 54.2627 87.1675C54.3665 87.1892 54.4718 87.2008 54.5772 87.2101L54.735 87.2233C55.3414 87.2748 55.9459 87.292 56.5098 87.552C56.6283 87.6065 56.587 87.7936 56.4751 87.8248C56.0633 87.9392 55.6547 87.9304 55.2356 87.8998L55.1456 87.8929C54.7559 87.8622 54.3375 87.8641 53.9574 87.7537C54.0484 88.0087 53.9245 88.3417 53.5444 88.3939C52.4029 88.5496 51.2542 88.4761 50.1115 88.373C48.9574 88.2688 47.8039 88.1701 46.6468 88.1082C42.904 87.9065 39.1555 87.9452 35.4094 88L33.2924 88.0314C31.6042 88.0558 29.9156 88.0747 28.2274 88.0615L27.4372 88.0539C27.1033 88.0506 26.7691 88.0465 26.4355 88.0364L26.2354 88.0296C25.838 88.0149 25.3118 88.0762 24.9664 87.8352C24.6815 87.6366 24.618 87.2724 24.7898 86.9787C24.8395 86.894 24.9078 86.8186 24.979 86.745C25.1251 85.4666 25.2071 84.182 25.2909 82.898C25.5818 78.4047 25.4118 73.9345 24.7408 69.4866C22.9402 70.0501 21.1672 70.7571 19.4396 71.5156C18.5052 71.9258 17.5756 72.3513 16.6568 72.7977C15.8181 73.2055 14.9759 73.715 14.0798 73.9799C13.9984 74.054 13.8845 74.0892 13.7835 74.0563L13.7704 74.0517H13.7698C13.6776 74.0737 13.5752 74.0602 13.4747 73.9983C13.4543 73.9857 13.434 73.973 13.4136 73.9599L13.3831 73.9401C13.0676 73.7365 12.7504 73.4857 12.5271 73.1791C12.2559 73.4366 11.9644 73.6728 11.6777 73.9119C11.3664 74.1718 11.0564 74.4331 10.7487 74.6967C10.6266 74.8016 10.4919 74.9015 10.3841 75.0223L10.3685 75.0401C10.366 75.0429 10.3636 75.0458 10.3614 75.0487C10.8277 75.3577 11.2359 75.8268 11.6017 76.2346C11.9944 76.6722 12.3736 77.1238 12.7496 77.5771L13.1137 78.0168C15.688 81.1308 18.2887 84.3576 21.6215 86.6463C22.1483 87.0081 21.646 87.8892 21.1229 87.5195C20.1328 86.8211 19.196 86.0454 18.2963 85.2292C16.7196 83.7999 15.301 82.1965 13.9727 80.5256C13.3005 79.6799 12.648 78.8137 12.0087 77.9417L11.7917 77.6459C11.5026 77.2514 11.215 76.8557 10.9396 76.451L10.882 76.3662C10.6405 76.0092 10.3836 75.6081 10.2279 75.1971C10.168 75.259 10.1004 75.3111 10.0016 75.3504C9.83283 75.4178 9.62572 75.2762 9.58442 75.1075C9.48385 74.6986 9.83104 74.4551 10.1136 74.238C10.4566 73.9756 10.8061 73.7224 11.1563 73.4704L11.2814 73.3798C11.7193 73.0617 12.1595 72.7351 12.6366 72.4838C12.651 72.4641 12.6684 72.4457 12.6881 72.4298C12.7109 72.4114 12.733 72.3936 12.7558 72.3758C12.1859 71.4291 11.561 70.5191 10.8636 69.6594C10.3392 69.0126 9.78255 68.3951 9.19353 67.8101L8.92893 67.5477C8.52869 67.1517 8.11253 66.7501 7.66832 66.406L7.52926 66.5675C7.34358 66.7826 7.15605 66.9961 6.9578 67.1982C6.56751 67.5955 6.18262 68.0009 5.79952 68.4061C5.1633 69.0805 4.54864 69.7755 3.93592 70.4715L3.62963 70.8195C2.99153 71.5449 2.30794 72.2569 1.7279 73.0319L1.69893 73.0711C1.4457 73.419 1.26544 73.8041 1.38311 74.246C1.49665 74.6721 1.7666 75.0499 1.99927 75.4178L2.02241 75.4546C2.97237 76.9704 3.98998 78.4475 5.08001 79.861C7.26308 82.692 9.75322 85.3752 12.7246 87.3435C13.1365 87.6164 12.7516 88.2945 12.3391 88.0186C10.6038 86.8566 9.00977 85.4611 7.54322 83.9624C6.19699 82.5871 4.97706 81.0725 3.83375 79.5181C3.27646 78.7596 2.74251 77.9852 2.23072 77.1936C1.73449 76.4253 1.16044 75.6349 0.800682 74.7875C0.612141 74.3417 0.542689 73.8591 0.697126 73.3894C0.838756 72.9578 1.11885 72.5993 1.41024 72.2621L1.43758 72.2305C2.10741 71.4598 2.7892 70.6982 3.47699 69.944C4.16716 69.1873 4.88906 68.4576 5.62593 67.7494C6.20477 67.1921 6.80815 66.7008 7.45343 66.2459C7.39537 66.2036 7.3373 66.1631 7.27804 66.1239C7.09787 66.0037 7.05237 65.7468 7.2104 65.5837C7.64199 65.1372 8.13942 64.7491 8.60751 64.3427C9.04748 63.9606 9.48744 63.578 9.92741 63.1954C10.8229 62.4179 11.7184 61.6397 12.6139 60.8616C14.2223 59.4642 15.8217 58.0569 17.4248 56.6534C18.0932 56.0683 18.7679 55.4905 19.4408 54.911L20.6364 53.8803V53.8803L21.2211 53.3775C21.5207 53.1204 21.8267 52.8662 22.1674 52.6702C22.9691 52.2089 23.9328 52.0093 24.8161 51.7649L24.8748 51.7486C25.8655 51.4709 26.8616 51.2096 27.863 50.9766C28.8656 50.7436 29.8725 50.5314 30.8835 50.3394C31.7922 50.1666 32.7224 50.0182 33.649 49.9961C33.8789 49.9066 34.1674 49.8753 34.3936 49.971C34.487 50.0108 34.5846 50.0691 34.6714 50.1427C35.1245 49.9796 35.5717 49.9017 35.9949 49.6258C36.4175 49.3505 36.7916 48.9887 37.1065 48.5901C37.7571 47.7648 38.0977 46.7898 38.3264 45.7713ZM48.7425 73.7193C48.3833 73.6936 48.0601 73.8456 47.7392 74.0075C47.92 74.0878 48.1008 74.1675 48.2816 74.2466L49.4847 74.7728V74.7728C49.8822 74.9463 50.303 75.0971 50.6807 75.3111C50.7077 75.3264 50.7292 75.3448 50.7454 75.3663C51.138 75.1088 51.5535 74.8789 51.9515 74.6342C52.0425 74.5784 52.1341 74.5226 52.2257 74.4668C51.7516 74.6293 51.2655 74.7108 50.7508 74.5581C50.0642 74.3552 49.468 73.7714 48.7425 73.7193ZM49.7266 72.4856L49.662 72.4407C49.3137 72.1959 48.898 71.8813 48.4749 72.1011C48.2756 72.2048 48.1122 72.3722 47.9158 72.4838C47.7183 72.5966 47.501 72.683 47.2807 72.7352C46.915 72.8216 46.496 72.8345 46.1027 72.7511L46.1087 73.2956V73.2956C46.4062 73.4213 46.7019 73.5501 46.9976 73.6801C47.1896 73.6128 47.3743 73.5321 47.5686 73.4435L47.6997 73.3833C48.0739 73.2109 48.4516 73.0958 48.8652 73.1503C49.644 73.2527 50.2324 73.8456 50.977 74.0431C51.8899 74.286 52.7135 73.5881 53.5761 73.4158C53.7183 73.3871 53.8649 73.3703 54.0106 73.3677L54.0592 73.3674L54.0807 73.3545C54.2663 73.2429 54.544 73.1362 54.6733 72.9486C54.814 72.745 54.826 72.4041 54.8721 72.1649C54.8768 72.141 54.8816 72.1165 54.8858 72.0926C54.8044 72.0926 54.7218 72.0968 54.638 72.1128C54.3746 72.1625 54.1268 72.2581 53.8814 72.3649C53.4175 72.5665 52.9637 72.7965 52.4753 72.9308C51.997 73.0625 51.4972 73.1252 51.0046 73.0522C50.5239 72.981 50.1246 72.7591 49.7266 72.4856ZM49.8015 70.5712L49.7294 70.5236C49.5391 70.3993 49.321 70.2705 49.0879 70.3162C48.8796 70.3573 48.7006 70.5271 48.5192 70.632C48.1211 70.8619 47.6746 70.9876 47.2191 71.0195C46.8402 71.0459 46.4469 70.9987 46.0823 70.8834L46.0949 72.0889V72.0889C46.2284 72.1324 46.3667 72.1637 46.5121 72.1747C46.9539 72.2085 47.3849 72.0999 47.7554 71.8504L47.9428 71.7229C48.2636 71.507 48.5646 71.3357 48.9891 71.4144C49.4093 71.4929 49.7619 71.7688 50.1055 72.0092L50.1618 72.0479C50.5564 72.3148 50.9564 72.487 51.4403 72.4911C51.9629 72.4954 52.4795 72.3464 52.9661 72.1631C53.4492 71.9816 53.9083 71.7639 54.4249 71.6971C54.5829 71.6768 54.7757 71.6707 54.9571 71.7026C54.981 71.5658 55.0037 71.4298 55.0253 71.293C55.072 70.9993 55.1121 70.7062 55.1468 70.4125C54.2304 70.1598 53.384 70.9772 52.5328 71.2292C52.0389 71.3751 51.5014 71.3734 51.0075 71.2323C50.5506 71.1016 50.1914 70.8305 49.8015 70.5712ZM49.8038 68.541C49.608 68.5024 49.4147 68.595 49.2483 68.69C48.8239 68.9311 48.4576 69.2664 47.9769 69.3934C47.3585 69.5565 46.6821 69.416 46.068 69.1493C46.0704 69.5214 46.0734 69.8937 46.0764 70.2659C46.1919 70.3107 46.3104 70.3468 46.4313 70.3757C46.8611 70.4762 47.3166 70.4627 47.7398 70.3358C48.1714 70.2064 48.5024 69.8569 48.9352 69.7478C49.3778 69.6358 49.7949 69.8536 50.1516 70.1013L50.2589 70.1763C50.6666 70.4597 51.0619 70.7059 51.572 70.754C52.1114 70.8049 52.58 70.632 53.0619 70.4027L53.1741 70.3495C53.7842 70.0625 54.5761 69.7357 55.1851 70.0623C55.233 69.5988 55.2677 69.1353 55.2911 68.671C55.2073 68.6391 55.1205 68.6158 55.0205 68.6152C54.7817 68.6141 54.5309 68.6913 54.3082 68.7716C53.8215 68.9476 53.3684 69.21 52.8865 69.3983C52.4298 69.5773 51.924 69.6705 51.4367 69.5902C50.9854 69.516 50.6466 69.2744 50.3347 68.9433L50.2894 68.8943C50.1527 68.7453 50.0063 68.5813 49.8038 68.541ZM50.1611 66.8199C49.9355 66.6979 49.6607 66.5844 49.3997 66.62C49.1507 66.6536 48.9848 66.8266 48.8314 67.0116L48.7484 67.1129C48.4741 67.4453 48.2041 67.7248 47.7811 67.8616C47.343 68.0027 46.8785 67.9475 46.4708 67.7408C46.326 67.6673 46.1913 67.5759 46.056 67.4858L46.0632 68.4637V68.4637C46.3337 68.6017 46.6091 68.7262 46.9114 68.8016C47.4693 68.9408 47.9434 68.8378 48.4204 68.5226L48.4705 68.4892C48.8299 68.2475 49.1983 67.9597 49.6422 67.9328C50.0753 67.9062 50.4004 68.1522 50.6856 68.4533L50.719 68.4889C51.0788 68.8776 51.4421 69.0671 51.9773 69.0224C52.4961 68.9789 52.9816 68.7443 53.4569 68.5422L53.5001 68.5239C53.9347 68.3411 54.4357 68.1529 54.9128 68.2228C55.0271 68.2394 55.1749 68.2755 55.3066 68.3387C55.3258 67.8812 55.3348 67.4232 55.3366 66.9646C55.0654 66.7236 54.6434 66.6837 54.304 66.7824C53.7724 66.937 53.3373 67.3355 52.8297 67.552C52.3795 67.7439 51.9102 67.7868 51.4511 67.6053C50.977 67.4177 50.6053 67.0602 50.1611 66.8199ZM55.3066 64.8933C54.5123 64.9215 53.7353 65.4506 52.9769 65.6524C52.1297 65.8776 51.4383 65.5706 50.6835 65.2298L50.5861 65.1858C50.1989 65.0117 49.7828 64.8552 49.3536 64.9264C48.9352 64.9963 48.5653 65.2336 48.2055 65.4482L48.1366 65.4888C47.4812 65.871 46.8139 66.1326 46.0488 66.0674C46.053 66.3134 46.0512 66.5586 46.0518 66.799C46.1775 66.8726 46.2984 66.956 46.4134 67.032L46.4546 67.0588C46.8194 67.2924 47.1954 67.446 47.6303 67.3018C48.0505 67.162 48.248 66.7874 48.5366 66.4789C48.8017 66.1956 49.1477 66.0234 49.5356 66.0399C49.9528 66.057 50.3473 66.2453 50.6921 66.4752C51.0369 66.7052 51.3703 67.0025 51.7737 67.1179C52.6788 67.3753 53.454 66.3949 54.31 66.2422C54.6691 66.1779 55.0654 66.2594 55.3366 66.4813C55.3336 65.9528 55.3222 65.423 55.3066 64.8933ZM48.4695 64.6713C48.3576 64.6756 48.2456 64.6805 48.1337 64.6854C47.7195 64.7038 47.3053 64.7246 46.891 64.7485C46.6043 64.7644 46.2517 64.8546 45.9704 64.7651C45.9632 64.7945 45.9536 64.8228 45.9411 64.8503C45.9836 65.0674 46.0099 65.2918 46.0261 65.5187C46.2859 65.5475 46.5498 65.5377 46.806 65.4831C47.4208 65.3525 47.92 64.9552 48.4695 64.6713ZM55.2947 64.4892C53.7821 64.5959 52.2579 64.5592 50.7428 64.5927L50.561 64.5971C50.5538 64.5971 50.5466 64.5978 50.5395 64.5978C50.7132 64.6667 50.8856 64.7457 51.0574 64.8261L51.229 64.9067C51.6349 65.0981 52.0479 65.2544 52.5022 65.2207C52.9889 65.1845 53.4474 64.981 53.9023 64.8166C54.3363 64.6596 54.8361 64.5542 55.2989 64.6228C55.2977 64.5781 55.2965 64.5339 55.2947 64.4892Z" fill="black"/>
<path fill-rule="evenodd" clip-rule="evenodd" d="M42.7563 22.6519C46.1552 22.6519 51.1301 24.9768 51.5042 27.2136C51.9451 29.8497 52.9243 39.7619 52.3912 43.0056C51.8581 46.2492 49.7793 48.6459 45.1822 48.6459C40.5851 48.6459 37.1539 46.0778 36.366 45.1961C35.5782 44.3143 34.6235 41.5704 34.6235 41.5704C34.6235 41.5704 32.1066 41.1334 32.0949 39.0781C32.0833 37.0228 33.3593 36.3876 33.3593 36.3876C33.3593 36.3876 32.6706 27.8615 34.1181 25.7497C35.5656 23.638 39.3575 22.6519 42.7563 22.6519Z" fill="white"/>
<path fill-rule="evenodd" clip-rule="evenodd" d="M53.0174 33.5099C53.2035 35.5818 53.2735 37.6715 53.3095 39.7514C53.3442 41.7222 53.1748 43.7775 52.0788 45.4625C51.1205 46.9366 49.6611 48.0066 48.0359 48.5842C47.111 48.9135 46.0869 49.0355 45.11 49.0656C44.6054 49.0809 44.0996 49.0588 43.598 49.0055C43.5348 48.9987 43.4714 48.9929 43.408 48.9871C42.9831 48.9483 42.5617 48.9099 42.2523 48.5812C42.1547 48.4775 42.156 48.2648 42.3002 48.1973C42.575 48.0692 42.7611 48.0557 43.0622 48.098C43.3118 48.1329 43.5621 48.1605 43.8134 48.1783C44.3521 48.2169 44.8945 48.2182 45.4333 48.1758C46.4233 48.098 47.4361 47.8116 48.3352 47.3775C49.7449 46.6956 50.9559 45.5784 51.6095 44.1123C52.3589 42.4337 52.3212 40.4926 52.2862 38.6851L52.2847 38.6109C52.2458 36.6058 52.1734 34.6069 52.0034 32.6085C51.9389 31.8525 51.8471 31.1006 51.7553 30.3485C51.7295 30.1367 51.7036 29.925 51.6784 29.7131C51.6178 29.2005 51.5383 28.6903 51.4407 28.1838C51.4113 28.0309 51.3769 27.8792 51.3425 27.7277C51.3166 27.6137 51.2908 27.4997 51.2671 27.3855C51.227 27.3922 51.1863 27.3959 51.1444 27.3977C50.8941 27.4063 50.6206 27.3438 50.435 27.1617C50.3639 27.2113 50.2734 27.2426 50.1645 27.2481C49.4991 27.2818 48.8269 27.2668 48.1562 27.2518C47.7898 27.2436 47.4238 27.2355 47.0596 27.2352C46.0253 27.2346 44.9903 27.2352 43.9553 27.2383C43.7975 27.2388 43.6396 27.2394 43.4817 27.24C42.6052 27.2434 41.7271 27.2469 40.8516 27.223C40.6661 27.2179 40.4793 27.2146 40.2919 27.2113C39.5078 27.1974 38.7123 27.1833 37.9461 27.0378C37.627 28.1992 37.6383 29.4752 38.3034 30.5127C38.4913 30.8052 38.3387 31.1498 38.0939 31.3325C37.8437 31.519 37.3938 31.8049 37.0089 31.8343C36.994 31.8686 36.9789 31.9029 36.9638 31.9371C36.9413 31.9883 36.9187 32.0395 36.8969 32.0905C36.7132 32.5193 36.5477 32.9508 36.4319 33.4048C36.3722 33.6388 36.3208 33.8766 36.2776 34.1159C36.2811 34.1578 36.2848 34.1996 36.2892 34.2414C36.2892 34.2452 36.2896 34.2489 36.2901 34.2531L36.2904 34.2548C36.2928 34.2721 36.2958 34.2917 36.2975 34.3027C36.303 34.3322 36.3084 34.3616 36.3138 34.3911C36.3303 34.4818 36.3469 34.5724 36.3646 34.6627C36.4203 34.9539 36.4633 35.2476 36.4939 35.5425C36.5496 36.0822 36.5442 36.7836 36.0306 37.1031C35.7558 37.2742 35.4266 37.2564 35.1362 37.1417C34.9743 37.0776 34.8326 36.9916 34.6865 36.9028C34.6565 36.8846 34.6263 36.8663 34.5958 36.848C34.5485 36.8197 34.5003 36.7937 34.4522 36.7678C34.3919 36.7352 34.3316 36.7028 34.2737 36.6659C34.245 36.6475 34.2174 36.6254 34.1917 36.6021C33.9972 36.6444 33.8073 36.7235 33.7009 36.7775C33.4153 36.9228 33.1645 37.1331 32.9514 37.3747C32.4983 37.8892 32.3624 38.614 32.4259 39.2866C32.4851 39.9127 32.7252 40.6319 33.2082 41.0483C33.4183 41.2297 33.6805 41.3359 33.9577 41.3328C34.0941 41.3316 34.2198 41.3021 34.3515 41.2666C34.4077 41.2515 34.4696 41.2448 34.5314 41.2382C34.6126 41.2295 34.6936 41.2208 34.7616 41.193C34.9393 41.12 35.1584 41.3426 35.086 41.5253C35.0699 41.5659 35.0558 41.6051 35.0422 41.643C35.0099 41.7332 34.9802 41.8158 34.9321 41.8914C35.4278 42.7204 35.9707 43.5237 36.5483 44.2944C36.9146 44.7826 37.3264 45.2162 37.7401 45.6517C37.9147 45.8354 38.0896 46.0195 38.2615 46.2082C38.5171 46.489 38.6237 47.0421 38.161 47.1622C37.754 47.2688 37.4378 46.8866 37.1868 46.5832C37.1532 46.5426 37.1208 46.5034 37.0894 46.4669C35.9911 45.1872 35.1608 43.718 34.7723 42.0594C34.597 42.1869 34.3958 42.2562 34.1839 42.2863C33.7619 42.3458 33.3351 42.2605 32.9652 42.0416C31.5644 41.2132 31.2256 38.9745 31.8817 37.5716C32.0399 37.2338 32.2736 36.9322 32.5584 36.698C32.536 36.6541 32.5271 36.6026 32.5416 36.5472C32.5669 36.4503 32.5947 36.3545 32.6239 36.2591C32.592 36.2445 32.5687 36.2145 32.5731 36.1698C32.5954 35.9364 32.6172 35.703 32.639 35.4695L32.6509 35.3421C32.6482 35.2155 32.6445 35.089 32.6407 34.9625C32.6322 34.6721 32.6236 34.3815 32.6269 34.0893C32.6303 33.7785 32.6406 33.4678 32.651 33.1571C32.6629 32.7997 32.6748 32.4424 32.6761 32.0849C32.6799 30.927 32.7048 29.7697 32.7296 28.6124C32.7547 27.4396 32.7799 26.2668 32.7832 25.0934C32.7868 23.9535 32.7891 22.8118 32.7598 21.6725C32.7595 21.6644 32.7593 21.6565 32.7592 21.6486C32.7591 21.6415 32.7589 21.6344 32.7587 21.6271C32.755 21.4873 32.7463 21.3402 32.7374 21.1893C32.6884 20.3559 32.6324 19.4047 33.3692 18.9052C33.5123 18.8084 33.6907 18.8071 33.8463 18.8697C34.2941 18.5502 34.8555 18.3962 35.3925 18.3073C36.184 18.1764 36.9808 18.098 37.7781 18.0194C38.0113 17.9965 38.2445 17.9735 38.4776 17.9492C39.0151 17.8934 39.5808 17.872 40.1219 17.8843C40.4034 17.8906 40.6868 17.8802 40.9707 17.8698C41.2385 17.8599 41.5067 17.8501 41.7741 17.8543C42.3989 17.8647 43.0287 17.8886 43.656 17.9413C43.6706 17.9398 43.6854 17.9384 43.7001 17.937C43.715 17.9357 43.7299 17.9343 43.7446 17.9327C44.6949 17.8394 45.644 17.8888 46.5936 17.9381C46.8235 17.9501 47.0535 17.962 47.2835 17.972C48.4076 18.0204 49.5946 18.1394 50.6039 18.6906C50.7337 18.7613 50.8436 18.8418 50.9374 18.9314C51.0689 18.9504 51.1943 18.9886 51.3071 19.0528C51.632 18.9855 51.9947 19.1346 52.0716 19.5209C52.1835 20.0868 52.226 20.6576 52.159 21.2316C52.158 21.2389 52.1572 21.2463 52.1564 21.2539C52.1557 21.2605 52.155 21.2671 52.1542 21.2739C52.2899 21.8064 52.2808 22.388 52.1681 22.9131C52.2156 23.5767 52.2427 24.2422 52.2465 24.9066C52.2471 25.0071 52.2485 25.108 52.2499 25.2092C52.2549 25.5704 52.26 25.9343 52.2274 26.2923C52.1906 26.6952 52.0288 27.0139 51.7741 27.3199C51.7261 27.3776 51.645 27.3871 51.5775 27.3731C51.56 27.3695 51.5448 27.3646 51.531 27.3588C51.6567 27.6348 51.7609 27.9245 51.8627 28.2079C51.8853 28.2708 51.9078 28.3334 51.9304 28.3954C52.1279 28.9387 52.3195 29.4911 52.4553 30.054C52.7307 31.1889 52.912 32.3455 53.0174 33.5099ZM33.9422 38.6463C33.8854 38.6061 33.8281 38.5656 33.7661 38.5355C33.7583 38.5317 33.4303 38.4226 33.4937 38.5667C33.5153 38.6146 33.459 38.6679 33.4189 38.6256C33.3052 38.5073 33.3686 38.365 33.477 38.2595C33.6726 38.0688 33.9648 38.1129 34.2049 38.1584C34.5389 38.2215 34.8633 38.3711 35.1446 38.5631C35.4475 38.7697 35.8217 39.0561 35.8815 39.4479C35.936 39.8078 35.5864 40.2045 35.2267 39.9636C35.032 39.8329 34.8957 39.6387 34.7589 39.4438C34.6614 39.3049 34.5636 39.1656 34.4443 39.0487C34.3036 38.9114 34.1515 38.7906 33.9906 38.6801C33.9744 38.669 33.9584 38.6577 33.9422 38.6463Z" fill="black"/>
<path fill-rule="evenodd" clip-rule="evenodd" d="M46.56 44.2154C46.1576 44.0472 45.7986 43.7667 45.5361 43.4084C45.4448 43.2839 45.4212 43.1523 45.4403 43.032C45.4619 42.8967 45.54 42.7741 45.6465 42.6919C45.7534 42.6094 45.8871 42.5687 46.0164 42.5894C46.1287 42.6075 46.2405 42.6705 46.329 42.8011L46.3474 42.8272C46.5035 43.0435 46.7069 43.2209 46.9386 43.3353C47.1619 43.4455 47.4117 43.497 47.6701 43.4671C48.1624 43.4101 48.5017 43.1374 48.8623 42.7671C48.907 42.7203 48.9518 42.6721 48.9967 42.6231C49.0251 42.5787 49.0645 42.5501 49.1082 42.5351C49.1568 42.5185 49.2117 42.5195 49.262 42.5374C49.3106 42.5548 49.3539 42.5877 49.383 42.6314C49.4107 42.673 49.4264 42.7244 49.4213 42.7835C49.3883 43.1673 49.1924 43.5098 48.9141 43.7787C48.6051 44.0774 48.1955 44.2841 47.8098 44.3566C47.385 44.4364 46.952 44.3792 46.56 44.2154V44.2154ZM48.0103 38.2946C48.4623 38.576 49.151 39.2323 48.6648 39.9301C48.0924 40.5453 47.2683 39.8399 46.8622 39.5209C46.4856 39.2736 46.0625 39.9095 46.4119 40.1982C49.3464 42.4238 50.5373 38.3682 48.2389 37.9637C47.9858 37.9191 47.8918 38.2075 48.0103 38.2946ZM42.7516 35.7057C42.8015 35.0707 43.7457 34.9265 43.8396 35.5549C43.9237 36.1178 43.8247 36.6348 43.5772 37.1416C43.3407 37.6258 42.7462 37.3999 42.7013 36.959C42.641 36.3681 42.7205 36.1007 42.7516 35.7057ZM49.9385 35.4246C50.0701 35.248 50.2602 35.1274 50.4879 35.1955C51.1993 35.4085 50.9896 36.4431 50.7398 36.9467C50.604 37.2202 50.1652 37.2895 49.9669 37.0488C49.6436 36.6561 49.4888 35.8719 49.8998 35.4851C49.9109 35.4651 49.9233 35.4449 49.9385 35.4246ZM43.5671 32.927L43.6795 32.9069C44.0272 32.8453 44.4594 32.7861 44.7054 33.0724C44.8358 33.2242 44.8807 33.5064 44.7054 33.6518C44.397 33.9074 44.056 33.8084 43.6864 33.83C43.3819 33.8479 43.0892 33.8995 42.7958 33.9854C42.1522 34.1739 41.6278 34.5179 41.0781 34.8956C41.0059 34.9451 40.9323 34.8506 40.9667 34.7815C41.2841 34.1449 41.899 33.6219 42.5149 33.3031C42.8437 33.1329 43.2034 32.9918 43.5671 32.927ZM49.29 32.6418L49.376 32.6599C50.312 32.8603 51.5281 33.2607 51.9714 34.2025C51.9883 34.3356 51.9704 34.3642 51.9559 34.3828L51.9511 34.389C51.9391 34.405 51.9296 34.4269 51.8732 34.445C51.8576 34.4412 51.8418 34.4372 51.8259 34.4329C51.6227 34.3784 51.4619 34.3032 51.3063 34.2252L51.1376 34.1401C50.9418 34.0418 50.7443 33.947 50.535 33.8771C50.0883 33.7278 49.6289 33.6227 49.1623 33.5665C49.0612 33.5544 48.9638 33.5194 48.887 33.4595C48.814 33.4026 48.7583 33.3239 48.7329 33.2192C48.7 33.0838 48.7095 32.9812 48.7804 32.859C48.8338 32.7672 48.9101 32.7036 48.9978 32.6671C49.0871 32.6299 49.1889 32.6211 49.29 32.6418Z" fill="black"/>
</g>
<defs>
<clipPath id="clip0_194_8134">
<rect width="72" height="98" fill="white"/>
</clipPath>
</defs>
</svg>
