<svg width="60" height="88" viewBox="0 0 60 88" fill="none" xmlns="http://www.w3.org/2000/svg">
<g clip-path="url(#clip0_240_6358)">
<path fill-rule="evenodd" clip-rule="evenodd" d="M21.2279 55.2159C24.0077 54.6277 25.6565 54.6277 26.5894 53.7165C27.5223 52.8054 27.6915 51.2413 28.0786 50.0336C28.2918 49.3682 30.381 48.7638 32.4075 48.8584C34.059 48.9356 35.7234 49.6055 35.852 50.0336C36.1383 50.9872 36.5987 55.069 38.1129 55.6961C39.627 56.3233 42.8595 55.7515 43.7837 57.2492C44.7079 58.7468 47.7431 64.8517 47.7431 66.2742C47.7431 67.6967 18.0693 67.2617 18.0693 67.2617C18.0693 67.2617 18.4481 55.8041 21.2279 55.2159Z" fill="white"/>
<path fill-rule="evenodd" clip-rule="evenodd" d="M9.10933 88.3512C9.15177 88.3802 9.11826 88.3807 9.10933 88.3512ZM8.94461 88.2332C8.94741 88.2353 8.95076 88.2375 8.95411 88.2396C8.9206 88.237 8.89995 88.2042 8.94461 88.2332M52.8595 84.4618C52.673 83.6963 52.4871 82.9303 52.3006 82.1649C51.9114 80.5643 51.5217 78.9631 51.1325 77.362C50.3704 74.2305 49.6088 71.099 48.8466 67.9675C48.4597 66.376 48.0175 64.7968 47.6182 63.208C47.2687 61.8155 46.98 60.3897 46.3798 59.0718C45.7673 57.7265 44.6913 56.6022 43.2664 56.032C42.0665 55.5525 40.7169 55.2869 39.4103 55.2263C39.5745 55.0332 39.613 54.7473 39.3735 54.514C39.0765 54.2249 39.0161 53.7952 38.9369 53.4128C38.838 52.9348 38.6845 52.4226 38.3886 52.0203C38.2635 51.8502 38.0815 51.7708 37.867 51.8164C37.7353 51.8443 37.6057 51.877 37.4779 51.9141C37.4366 51.8744 37.3958 51.832 37.3601 51.7805C37.2791 51.6614 37.2266 51.4871 37.1105 51.3959C37.0317 51.3337 36.9423 51.3187 36.8503 51.3637C36.6029 51.4844 36.5823 51.8497 36.6352 52.0739C36.6459 52.1174 36.6587 52.1608 36.6744 52.2032C36.6576 52.2107 36.6403 52.2182 36.623 52.2257H36.6225C36.2997 52.1667 35.8877 52.2911 35.5727 52.3212C35.207 52.3561 34.8396 52.3791 34.4722 52.3904C33.7201 52.4134 32.9669 52.392 32.2181 52.3196C31.4884 52.2498 30.7636 52.1377 30.0428 52.0111C29.5938 51.9323 29.0466 51.8669 28.6524 51.6078C28.6463 51.4785 28.643 51.3487 28.6402 51.2194C28.6345 50.9947 28.6469 50.8182 28.5224 50.6208C28.5206 50.6187 28.5179 50.6181 28.5151 50.6192C28.361 50.6964 28.2504 50.8284 28.1694 50.985C28.0215 50.9469 27.8623 50.9523 27.7245 51.0075C27.5295 51.0853 27.3844 51.1749 27.2331 51.3187C27.0081 51.5316 26.9422 51.7805 26.8763 52.0664C26.8288 52.2713 26.7993 52.4177 26.7144 52.5551C26.696 52.5846 26.6764 52.6157 26.6552 52.6441C26.6474 52.6516 26.6329 52.6661 26.6082 52.6908C26.5837 52.7144 26.5592 52.7374 26.534 52.7605C26.5195 52.7744 26.448 52.8302 26.4592 52.8227C26.1498 53.0437 25.8701 53.1269 25.4882 53.2325C24.6663 53.46 23.8243 53.6085 23.0052 53.8499C22.1102 54.1138 21.2347 54.4346 20.3787 54.7988C17.0492 56.2155 14.0692 58.4581 12.0374 61.3788C9.67104 64.7807 8.8 68.9126 8.36839 72.9184C7.89602 77.3089 7.92896 81.7492 7.82566 86.1579C7.81282 86.7093 7.79998 87.2607 7.78714 87.8121C7.77429 88.3512 7.73968 88.9316 8.23773 89.2947C8.68163 89.6177 9.22212 89.5163 9.71347 89.3709C10.2394 89.2159 10.7749 89.0925 11.3171 89.004C12.34 88.8383 13.3953 88.8184 14.4271 88.915C14.9816 88.967 15.66 89.1644 16.1156 88.7471C16.2792 88.5969 16.3736 88.4065 16.4506 88.2064C16.5467 87.9596 16.6589 87.7177 16.7706 87.4753C16.8627 87.2757 16.9543 87.0751 17.0458 86.875C17.1944 87.4999 17.3429 88.1249 17.4914 88.7503C17.55 88.9965 17.8175 89.0153 17.9789 88.8957C18.2424 89.0314 18.5886 89.0287 18.8879 89.0619C19.3692 89.115 19.8543 89.1333 20.3379 89.1494C21.2855 89.1805 22.233 89.1977 23.1811 89.2095C25.1141 89.2331 27.0472 89.2245 28.9796 89.2164C32.8083 89.2003 36.6364 89.1252 40.4634 89.0298C41.541 89.0029 42.6187 88.9788 43.6963 88.9536C44.2346 88.9413 44.7733 88.9289 45.3122 88.9144C45.4736 88.9101 45.6366 88.8957 45.7896 88.8613H45.7901C45.8583 88.9187 45.942 88.9627 46.042 88.989C46.3998 89.0834 46.7555 88.8731 46.8627 88.5411C46.9125 88.3888 46.9471 88.2493 46.9347 88.1013C46.9532 87.9897 46.9716 87.8781 46.9901 87.7665C47.5875 88.1297 48.3044 88.2284 49.0119 88.1833C49.812 88.1324 50.6121 87.9918 51.4061 87.8872C52.1515 87.7891 53.3598 87.8207 53.3956 86.8316C53.4084 86.4695 53.2492 86.0635 53.1644 85.7148C53.0627 85.2969 52.9612 84.8796 52.8595 84.4618" fill="black"/>
<path fill-rule="evenodd" clip-rule="evenodd" d="M43.2507 36.6558C43.2247 35.251 43.196 33.8181 42.9787 32.427C42.7663 31.067 42.1818 29.8376 41.1775 28.85C39.0444 26.7523 35.9523 26.2399 33.074 25.7703L28.1531 24.9675C26.6518 24.7226 25.0501 24.3312 23.5333 24.6784C22.7859 24.8496 22.1511 25.2471 21.571 25.7175C21.0118 26.1709 20.4106 26.6578 20.0318 27.2677C19.6522 27.8786 19.5216 28.5926 19.3983 29.2835C19.2591 30.0624 19.151 30.8474 19.0742 31.6342C18.9202 33.2107 18.8992 34.7991 19.0109 36.3788C19.065 37.1451 19.151 37.9091 19.2609 38.6697C19.3154 39.0469 19.377 39.4232 19.4465 39.7981C19.467 39.9087 19.4826 40.0311 19.5036 40.1547C19.3484 40.579 19.2602 41.0184 19.2673 41.4559C19.2882 42.7447 20.4201 43.5561 21.5612 43.9917C22.2228 44.2443 22.9145 44.416 23.5646 44.6982C24.2484 44.995 24.7139 45.4761 25.1815 46.025C26.0732 47.0719 27.0795 48.0127 28.2286 48.7977C30.6649 50.4621 33.7506 51.2492 36.7066 50.6518C37.4158 50.5084 38.1313 50.2858 38.7689 49.9504C39.442 49.5962 39.9481 49.0831 40.3731 48.4764C41.1623 47.3501 41.7283 46.0818 42.1564 44.7912C42.5932 43.4747 42.9031 42.1558 43.0722 40.7831C43.2407 39.4148 43.2762 38.0326 43.2507 36.6558V36.6558Z" fill="white"/>
<path fill-rule="evenodd" clip-rule="evenodd" d="M27.5483 20.0743C29.5847 19.8051 32.3954 20.6801 33.4096 22.4443C38.2514 21.3473 44.3582 21.3113 48.3488 24.9633C52.5129 29.2953 47.2826 35.0071 43.8144 36.2949C44.0669 37.4742 43.6732 45.0297 40.8875 48.3998C38.6766 51.2553 33.5281 52.5731 31.1456 49.1625L31.1271 49.1343C30.8718 48.7404 31.0916 48.7531 31.3537 49.0461C33.6865 51.0178 36.8585 51.0514 39.3027 48.9706C43.8837 45.1674 43.4113 35.842 41.2315 30.4471C35.0245 29.792 28.3787 31.6 24.0915 36.0905L24.3814 37.7678C24.4308 38.0536 24.4869 38.3391 24.5297 38.6259C24.5571 38.8096 24.5602 38.9924 24.4278 39.1411C23.9904 39.6321 23.2533 38.8943 22.6468 38.6008C22.4678 38.5766 22.2884 38.5673 22.1125 38.5792C19.1986 38.9399 19.7728 44.3723 22.9753 43.4201C23.2443 43.259 23.4755 43.3081 23.5799 43.5419C24.3433 44.2139 24.8466 45.4124 26.1148 46.5667C26.5623 46.9997 26.9695 47.362 27.4728 47.7093C27.7685 47.9967 28.6605 48.2896 28.3778 48.7813C27.843 49.9002 24.6895 46.3857 24.1319 45.4138C22.385 46.0767 20.4491 45.8515 18.6388 45.6895C9.08842 45.2123 10.3634 35.537 18.1916 29.4285C19.6652 28.3859 21.2909 27.5354 22.9809 26.8809C23.2117 26.7916 23.1109 26.4275 22.8769 26.5181C21.7586 26.9512 20.6685 27.4667 19.6294 28.0634L19.6278 27.7067C19.6263 27.1059 19.6361 26.4803 19.7447 25.9314C19.799 25.551 19.8903 25.1447 20.0308 24.8391C20.2046 23.902 22.9264 20.6856 27.5483 20.0743ZM21.985 39.8264C22.1325 39.6917 22.4078 39.8522 22.5391 39.8482C22.8748 39.8924 23.1937 40.0286 23.4424 40.1968C23.6066 40.2853 23.7217 40.3683 23.8179 40.4447L23.8205 40.444C23.8198 40.444 23.8189 40.4447 23.8181 40.4448L23.8272 40.4507C23.9672 40.5463 24.4799 41.085 24.156 40.9401C24.1318 40.91 24.1071 40.881 24.0822 40.8526C24.0795 40.8565 24.0758 40.8603 24.0713 40.864L24.0895 40.8899C24.3648 41.2879 23.8895 40.8686 23.8164 40.7573C23.813 40.76 23.809 40.7618 23.8052 40.7637L23.9004 40.8751C23.9137 40.8909 23.9242 40.9035 23.9329 40.9142L23.953 40.9328C24.2712 41.2335 24.2812 41.5041 23.9114 41.0596C23.926 41.0805 23.9377 41.1027 23.9393 41.1224L23.9612 41.1493C24.2515 41.5088 24.0154 41.3811 23.8711 41.2276L23.859 41.2143L23.8615 41.2179C23.9957 41.4166 23.7294 41.2772 23.6824 41.1709L23.6804 41.1661C23.6291 41.1259 23.5975 41.0808 23.5867 41.0694L23.5847 41.0675C23.3351 40.8217 22.9732 40.6137 22.6658 40.5192C22.6213 40.511 22.5762 40.5045 22.5306 40.4998C22.3458 40.4602 22.1589 40.4331 21.9701 40.4184C21.947 40.4157 21.9236 40.3994 21.9061 40.3784C21.6205 40.3691 21.7087 40.2566 21.8272 40.2357L21.8292 40.2354L21.8057 40.2335C21.6225 40.2163 21.4973 40.1531 21.6826 40.1143L21.7061 40.1099C21.7032 40.1055 21.7007 40.1012 21.6982 40.0969C21.5395 40.0801 21.6431 39.9319 21.7312 39.9678C21.6941 39.8513 21.8635 39.9094 21.8846 39.8921C21.9007 39.875 21.9208 39.8598 21.9323 39.859C21.9833 39.8243 21.9586 39.8275 21.985 39.8264ZM22.956 37.941L22.9188 37.9619C22.8887 37.9787 22.8578 37.99 22.8267 37.9965C22.8705 38.0145 22.9139 38.0339 22.9567 38.0546C22.956 38.0293 22.9555 38.004 22.9555 37.9788L22.956 37.941Z" fill="black"/>
<path fill-rule="evenodd" clip-rule="evenodd" d="M43.2014 31.0358C41.2403 28.4418 37.6296 27.6958 34.4984 28.3267C28.3768 29.3991 22.5283 33.8876 21.4467 39.9919C19.7592 43.6849 20.8368 49.5016 25.7445 49.9362C26.4432 49.9741 27.1352 49.8195 27.8352 49.903C32.1071 50.5588 37.1551 53.3661 40.9366 50.0554C41.1261 50.1859 41.3758 50.249 41.5883 50.17C43.1979 49.5722 43.2735 47.8429 43.4107 46.4214C43.588 44.5846 43.7542 42.7468 43.9093 40.9083C43.9646 37.7376 45.2723 33.7755 43.2014 31.0358V31.0358Z" fill="white"/>
<path fill-rule="evenodd" clip-rule="evenodd" d="M31.3332 24.4255C33.9105 24.2938 38.6593 25.4283 40.9078 26.7584C44.5713 28.9255 44.8552 33.2485 44.7058 33.996C44.6491 34.2813 44.4677 34.5453 44.1838 34.4576C44.4246 36.4215 44.4057 37.5441 44.4461 39.5194L44.4739 40.8382C44.492 41.7174 44.5075 42.5967 44.5114 43.4762C44.604 43.443 44.6954 43.4837 44.7293 43.5691C44.7378 43.5898 44.7084 43.6011 44.6941 43.5892C44.531 43.4524 44.6471 43.764 44.7032 43.8274C44.7809 43.9146 44.91 43.9968 45.0007 44.0714L45.2471 44.2763V44.2763L45.4934 44.4809C45.8116 44.7447 46.1193 45.0091 46.4162 45.2933L46.4969 45.3713C47.0378 45.8993 47.7157 46.4103 48.0524 47.0933C48.3741 47.7454 48.2749 48.4847 47.7405 49.0046C47.5461 49.1933 47.319 49.3376 47.0724 49.4467C47.5115 50.1416 47.5754 51.0602 47.1174 51.775C46.6587 52.4925 45.7765 52.8681 44.927 52.8104C44.9009 52.9126 44.8605 53.0123 44.807 53.107C44.4701 53.7019 43.8 53.7792 43.1646 53.7473L43.1399 53.746C41.7096 53.667 40.3335 53.3228 39.0808 52.6537C38.6462 52.6819 38.2586 52.3388 38.1738 51.9625C37.9455 51.9545 37.7158 51.9362 37.4815 51.9105C36.7866 51.8334 36.0741 51.6898 35.4615 51.3506C35.3675 51.2985 35.4112 51.1612 35.5156 51.1586C36.262 51.1423 37.0091 51.1919 37.7543 51.1142C38.4381 51.0432 39.1669 50.8621 39.8044 50.6156C40.9501 50.1717 41.9328 49.4185 42.475 48.375C43.1771 47.0243 43.1131 45.4021 43.1895 43.9347C43.274 42.3104 43.3781 40.6877 43.4894 39.0651L43.5434 38.2873C43.6515 36.7713 43.741 35.9602 44.0148 34.3867C43.1895 34.4576 39.7607 33.2715 38.6945 31.3315C36.6708 35.4586 26.418 33.7696 25.9633 40.1233C25.9594 40.1771 25.8706 40.1621 25.8674 40.1107L25.8589 39.9659C25.8548 39.8943 25.8511 39.8239 25.8486 39.754L25.8465 39.6843L25.6853 39.6862C25.6853 39.7056 25.6566 39.7125 25.6494 39.6918C25.4974 39.2773 24.7731 39.4108 24.458 39.5093C24.1742 39.5983 23.9066 39.735 23.6665 39.9038C23.1843 40.2424 22.8105 40.6983 22.6865 41.2683C22.451 42.3507 23.168 43.4531 24.12 43.9754C24.7203 44.3047 25.378 44.5172 25.9535 44.8904C26.4618 45.2196 26.9355 45.6052 27.3459 46.0436C28.9719 47.78 29.9284 50.4137 29.1591 52.7057C29.1004 52.8807 28.9451 53.0806 28.7396 53.1089C28.3996 53.156 28.0597 53.1083 27.8692 52.7973C27.7948 52.6756 27.7596 52.537 27.7674 52.4003C27.6356 52.8354 27.2082 53.2657 26.8141 53.4275C26.2771 53.6482 25.6723 53.5823 25.1986 53.2976L25.1387 53.3402C24.3683 53.8851 23.5078 54.3818 22.5208 54.2816C21.8057 54.2088 21.1036 53.8589 20.7082 53.3071C20.1823 53.5911 19.6205 53.8175 19.0411 53.9717L18.9794 53.988C18.1823 54.1966 17.1654 54.3878 16.4214 53.9642C15.7069 53.5572 15.4694 52.6686 15.6371 51.9268C15.6573 51.8384 15.6828 51.7525 15.7141 51.6691C15.1764 51.6967 14.6394 51.6472 14.1292 51.4954C13.6079 51.3405 13.1107 51.0426 12.8608 50.5598C12.5789 50.0136 12.6539 49.3928 12.864 48.8366C13.2001 47.9442 13.7403 47.1503 14.413 46.4587C15.0599 45.793 15.8403 45.2283 16.6512 44.7575L16.788 44.6789C17.518 44.2605 18.3984 43.7701 19.261 43.8024C19.2584 43.7917 19.2564 43.7816 19.2551 43.771C19.1246 42.8473 19.1396 41.9054 19.1089 40.9742C19.0809 40.1176 19.0489 39.261 19.028 38.4038C18.9941 36.9464 19.0052 35.4828 19.2029 34.0355C19.3784 32.7513 19.6942 31.4989 20.2704 30.3231C20.8752 29.0878 21.7861 28.0337 22.911 27.2047C25.2716 25.4645 28.3898 24.576 31.3332 24.4255ZM23.3148 41.543C23.5719 41.077 24.1572 40.9303 24.6707 41.0143C25.3904 41.1322 25.8797 41.7368 26.2999 42.2566C26.741 42.8015 25.821 43.3151 25.5842 42.7872L25.5281 42.6624C25.338 42.2437 25.1134 41.8022 24.7255 41.5292C24.3131 41.2394 23.7311 41.1968 23.367 41.5818C23.3409 41.6101 23.2972 41.5737 23.3148 41.543Z" fill="black"/>
<path fill-rule="evenodd" clip-rule="evenodd" d="M37.8088 48.1107C37.353 48.2377 36.8639 48.249 36.3994 48.1179C35.978 47.999 35.5454 47.7373 35.2353 47.391C34.9599 47.0834 34.7815 46.7095 34.7885 46.3104C34.7893 46.2649 34.8062 46.2268 34.8323 46.1973C34.8603 46.1655 34.8995 46.1437 34.9415 46.1342C34.9847 46.1245 35.0303 46.1279 35.0692 46.1449C35.1044 46.1603 35.1345 46.1864 35.1534 46.2245C35.201 46.2847 35.2485 46.3441 35.2962 46.4017C35.6793 46.8568 36.0504 47.1969 36.6266 47.3188C36.9392 47.385 37.2514 47.3557 37.5379 47.2547C37.8446 47.1466 38.1218 46.9565 38.339 46.7133C38.4372 46.6033 38.5531 46.5585 38.6664 46.5577C38.7948 46.5569 38.9218 46.6143 39.0174 46.706C39.1114 46.7962 39.1743 46.9187 39.18 47.0469C39.185 47.1594 39.1469 47.2769 39.0454 47.3818C38.711 47.7271 38.2776 47.9801 37.8088 48.1107ZM37.7947 42.4113C38.2618 42.6844 38.9736 43.3212 38.4711 43.9983C37.8795 44.5952 37.0279 43.9108 36.6082 43.6012C36.219 43.3613 35.7818 43.9783 36.1428 44.2585C39.1755 46.418 40.4062 42.4827 38.031 42.0902C37.7694 42.047 37.6723 42.3268 37.7947 42.4113ZM33.4248 41.2096C33.2747 41.1173 33.0981 41.0856 32.9023 41.1712C32.7494 41.2381 32.4811 41.4612 32.2944 41.7543C32.1666 41.9549 32.0761 42.1902 32.0949 42.4353C32.0993 42.4923 32.0774 42.5342 32.0429 42.5653C32.0157 42.5898 31.9763 42.6078 31.9301 42.6134C31.8909 42.6182 31.847 42.6139 31.8112 42.6032C31.7433 42.5828 31.7073 42.5404 31.6938 42.5058C31.5631 42.1719 31.6194 41.7992 31.7659 41.4631C31.9636 41.0094 32.3227 40.6294 32.558 40.5069C32.9605 40.2971 33.4355 40.2875 33.8386 40.5011C34.1818 40.683 34.3964 40.9766 34.6098 41.2759C34.6552 41.3395 34.7002 41.4026 34.7467 41.4647C34.84 41.589 34.8493 41.7123 34.8131 41.818C34.7731 41.9351 34.6711 42.034 34.5435 42.0857C34.4256 42.1335 34.2888 42.1403 34.1677 42.0911C34.0654 42.0496 33.9715 41.9687 33.9121 41.8315C33.812 41.6003 33.6453 41.3452 33.4248 41.2096V41.2096ZM41.0502 41.7239C40.9474 41.7755 40.867 41.791 40.7529 41.7581C40.6898 41.7399 40.6275 41.705 40.5787 41.658C40.5303 41.6115 40.4954 41.5537 40.4818 41.4895C40.4485 41.3311 40.3584 41.1828 40.2299 41.0861C40.1202 41.0035 39.9817 40.9597 39.828 40.9844C39.6622 41.0111 39.5042 41.1133 39.3954 41.2339C39.359 41.2743 39.3305 41.3201 39.3019 41.3656C39.2482 41.4507 39.1961 41.5299 39.1222 41.5924C39.0942 41.6162 39.0519 41.6326 39.011 41.6326C38.9944 41.6326 38.9775 41.63 38.9615 41.6252C38.7964 41.4659 38.7647 41.345 38.77 41.2252C38.7756 41.0995 38.8271 40.9722 38.9104 40.8534C39.1057 40.5749 39.4766 40.3465 39.7269 40.2947C40.0696 40.2239 40.41 40.3089 40.6829 40.493C40.9637 40.6825 41.1718 40.9766 41.2367 41.3081C41.2523 41.3879 41.2456 41.4741 41.214 41.5488C41.1831 41.6218 41.1293 41.6843 41.0502 41.7239ZM34.1807 38.2396C33.975 38.4324 33.7316 38.4622 33.4853 38.4888C33.3485 38.5037 33.2392 38.5157 33.1317 38.539C32.8362 38.6032 32.5442 38.6998 32.2777 38.8389C31.9992 38.9844 31.6956 39.1598 31.4772 39.3845C31.4253 39.438 31.3764 39.4941 31.3273 39.5504C31.2826 39.6016 31.2396 39.651 31.1942 39.6986C31.1421 39.7533 31.0926 39.8106 31.0434 39.8677C31.0129 39.916 31.0069 39.9278 31.0008 39.9402C30.9916 39.9587 30.9808 39.9795 30.9686 40.0018C30.9518 40.0323 30.9321 40.0657 30.9116 40.096C30.8773 40.1513 30.8589 40.1665 30.843 40.1734C30.8167 40.1846 30.7917 40.1902 30.7674 40.1872C30.7447 40.1844 30.7233 40.1739 30.7021 40.1567C30.5965 40.0709 30.5654 39.93 30.5686 39.7805C30.5734 39.5537 30.6604 39.3025 30.7406 39.1481C30.9271 38.7894 31.1857 38.4164 31.4967 38.1487C31.8515 37.843 32.2397 37.6116 32.6856 37.4522C32.9627 37.3531 33.2835 37.2621 33.5854 37.2736C33.8027 37.2819 34.0102 37.344 34.1815 37.4991C34.2867 37.5944 34.3372 37.7298 34.3372 37.8652C34.3372 38.0033 34.2847 38.1422 34.1807 38.2396ZM41.4686 40.0046C41.4555 40.0253 41.4374 40.0395 41.4172 40.048C41.3961 40.0569 41.3725 40.0595 41.3499 40.0559C41.3274 40.0522 41.306 40.0424 41.289 40.0274C41.2727 40.013 41.2603 39.9939 41.2548 39.9705C41.1182 39.3937 40.853 38.9645 40.2871 38.6877C40.0087 38.5516 39.6885 38.465 39.3855 38.3961C39.2974 38.376 39.2043 38.363 39.1106 38.3499C38.8169 38.3086 38.5211 38.2614 38.3296 38.0331C38.2142 37.8955 38.1658 37.7196 38.1932 37.5587C38.219 37.4073 38.311 37.2684 38.4783 37.1852C38.8948 36.978 39.4123 37.1813 39.8329 37.3544C39.8641 37.3672 39.8947 37.3798 39.9247 37.392C40.336 37.559 40.7111 37.7794 41.0195 38.0946C41.2642 38.3447 41.4908 38.7143 41.5821 39.0946C41.6581 39.411 41.6402 39.734 41.4686 40.0046Z" fill="black"/>
<path d="M41.0016 65.4842L42.2025 65.1562C42.2496 65.1433 42.2772 65.0959 42.2637 65.0508L42.2147 64.8867C42.2013 64.8416 42.1517 64.8152 42.1045 64.8281L40.9036 65.156C40.8564 65.1689 40.8288 65.2164 40.8423 65.2615L40.8913 65.4256C40.9048 65.4707 40.9544 65.4971 41.0016 65.4842ZM40.8056 64.8279L42.0065 64.4999C42.0537 64.487 42.0813 64.4396 42.0678 64.3944L42.0188 64.2304C42.0053 64.1852 41.9557 64.1589 41.9085 64.1717L40.7076 64.4997C40.6605 64.5126 40.6329 64.5601 40.6463 64.6052L40.6953 64.7693C40.7088 64.8144 40.7584 64.8408 40.8056 64.8279ZM41.1975 66.1405L42.3984 65.8126C42.4456 65.7997 42.4732 65.7522 42.4597 65.7071L42.4107 65.543C42.3972 65.4979 42.3476 65.4715 42.3004 65.4844L41.0995 65.8124C41.0524 65.8253 41.0248 65.8727 41.0383 65.9178L41.0872 66.0819C41.1007 66.127 41.1503 66.1534 41.1975 66.1405ZM39.2982 66.3043C39.7721 66.1749 40.0464 65.7029 39.911 65.2497C39.7757 64.7964 39.2822 64.5341 38.8083 64.6635C38.3344 64.793 38.0601 65.2649 38.1955 65.7182C38.3308 66.1715 38.8243 66.4338 39.2982 66.3043ZM38.9063 64.9917C39.1904 64.9141 39.4868 65.0716 39.5679 65.3434C39.6491 65.6151 39.4844 65.8986 39.2002 65.9762C38.9161 66.0538 38.6197 65.8962 38.5386 65.6245C38.4575 65.3527 38.6222 65.0693 38.9063 64.9917ZM41.7496 62.0856L36.946 63.3975C36.5675 63.5009 36.3476 63.8793 36.4557 64.2413L37.4355 67.5229C37.5436 67.8849 37.9392 68.0952 38.3177 67.9918L43.1212 66.6799C43.4997 66.5765 43.7196 66.1982 43.6115 65.8362L42.6317 62.5546C42.5236 62.1925 42.128 61.9823 41.7496 62.0856ZM40.4499 67.0545L38.7344 67.5231L38.6881 67.3682C38.6667 67.2964 38.6684 67.2206 38.6924 67.1497C38.7271 67.0481 38.8214 66.968 38.9447 66.9344C39.0777 66.898 39.1892 66.9452 39.468 66.8691C39.7457 66.7932 39.8143 66.6969 39.9483 66.6603C40.0716 66.6266 40.1963 66.648 40.2815 66.7157C40.3411 66.7637 40.3844 66.8273 40.4058 66.8991L40.4521 67.054L40.4499 67.0545ZM43.2684 65.9299C43.3223 66.1104 43.212 66.3002 43.0232 66.3517L40.793 66.9608L40.7468 66.806C40.7042 66.6634 40.6197 66.5435 40.5097 66.4548C40.3252 66.3067 40.0752 66.2696 39.849 66.3314C39.6399 66.3885 39.6088 66.4746 39.3686 66.5402C39.1284 66.6058 39.0545 66.5484 38.8454 66.6055C38.6181 66.6675 38.426 66.8243 38.3524 67.044C38.308 67.1748 38.3024 67.3194 38.345 67.4619L38.3912 67.6168L38.2197 67.6636C38.031 67.7152 37.8325 67.6097 37.7786 67.4292L36.9948 64.8039L42.4846 63.3046L43.2684 65.9299ZM42.3866 62.9764L36.8968 64.4757L36.7988 64.1476C36.7449 63.9671 36.8553 63.7772 37.044 63.7257L41.8475 62.4138C42.0362 62.3623 42.2347 62.4678 42.2886 62.6483L42.3866 62.9764Z" fill="white"/>
</g>
<defs>
<clipPath id="clip0_240_6358">
<rect width="46.6667" height="70" fill="white" transform="translate(7 18)"/>
</clipPath>
</defs>
</svg>
