<svg width="72" height="98" viewBox="0 0 72 98" fill="none" xmlns="http://www.w3.org/2000/svg">
<path fill-rule="evenodd" clip-rule="evenodd" d="M27.3296 54.1044C30.1292 53.4873 31.7898 53.4873 32.7293 52.5313C33.6689 51.5753 33.8394 49.9344 34.2292 48.6673C34.4439 47.9692 36.548 47.3351 38.589 47.4344C40.2523 47.5153 41.9286 48.2181 42.0581 48.6673C42.3464 49.6678 42.8102 53.9503 44.3351 54.6083C45.8601 55.2662 49.1157 54.6664 50.0465 56.2376C50.9773 57.8089 54.0342 64.214 54.0342 65.7064C54.0342 67.1989 24.1484 66.7425 24.1484 66.7425C24.1484 66.7425 24.53 54.7215 27.3296 54.1044Z" fill="white"/>
<path fill-rule="evenodd" clip-rule="evenodd" d="M15.1247 88.8688C15.1674 88.8992 15.1337 88.8998 15.1247 88.8688ZM14.9588 88.745C14.9616 88.7473 14.965 88.7495 14.9683 88.7518C14.9346 88.749 14.9138 88.7146 14.9588 88.745M59.1874 84.7881C58.9996 83.9851 58.8123 83.1814 58.6245 82.3783C58.2325 80.699 57.84 79.0191 57.4481 77.3393C56.6804 74.0538 55.9134 70.7683 55.1458 67.4828C54.7561 65.8131 54.3107 64.1563 53.9086 62.4893C53.5566 61.0284 53.2659 59.5325 52.6614 58.1498C52.0445 56.7383 50.9608 55.5588 49.5257 54.9605C48.3172 54.4574 46.958 54.1788 45.6421 54.1152C45.8075 53.9126 45.8463 53.6127 45.605 53.3679C45.3059 53.0645 45.2451 52.6138 45.1653 52.2125C45.0657 51.7111 44.9111 51.1736 44.613 50.7515C44.4871 50.5731 44.3037 50.4898 44.0878 50.5377C43.9551 50.5669 43.8246 50.6013 43.6958 50.6401C43.6542 50.5985 43.6132 50.554 43.5772 50.5C43.4957 50.375 43.4428 50.1921 43.3258 50.0965C43.2465 50.0312 43.1565 50.0154 43.0638 50.0627C42.8146 50.1893 42.7938 50.5726 42.8472 50.8078C42.858 50.8534 42.8708 50.899 42.8866 50.9434C42.8698 50.9513 42.8523 50.9592 42.8349 50.9671H42.8343C42.5093 50.9052 42.0943 51.0357 41.7771 51.0673C41.4087 51.1038 41.0388 51.128 40.6687 51.1399C39.9113 51.164 39.1526 51.1415 38.3985 51.0656C37.6636 50.9924 36.9336 50.8748 36.2076 50.742C35.7555 50.6592 35.2044 50.5906 34.8074 50.3188C34.8011 50.1831 34.7978 50.0469 34.795 49.9113C34.7893 49.6755 34.8018 49.4904 34.6764 49.2833C34.6746 49.281 34.6719 49.2804 34.6691 49.2816C34.5138 49.3626 34.4025 49.5011 34.3209 49.6654C34.1719 49.6254 34.0116 49.6311 33.8728 49.689C33.6765 49.7706 33.5303 49.8646 33.3779 50.0154C33.1513 50.2388 33.0849 50.5 33.0186 50.7999C32.9708 51.0149 32.941 51.1686 32.8555 51.3126C32.8369 51.3436 32.8172 51.3762 32.7959 51.406C32.788 51.4139 32.7734 51.4291 32.7486 51.455C32.7239 51.4798 32.6992 51.504 32.6738 51.5282C32.6592 51.5428 32.5872 51.6013 32.5984 51.5934C32.2869 51.8253 32.0052 51.9125 31.6206 52.0234C30.7928 52.262 29.9448 52.4179 29.1198 52.6712C28.2184 52.948 27.3366 53.2846 26.4745 53.6667C23.1213 55.153 20.12 57.506 18.0736 60.5703C15.6904 64.1394 14.8131 68.4744 14.3784 72.6772C13.9027 77.2835 13.9359 81.9422 13.8318 86.5676C13.8189 87.1462 13.806 87.7247 13.793 88.3032C13.7801 88.8688 13.7452 89.4777 14.2469 89.8587C14.6939 90.1975 15.2383 90.0912 15.7331 89.9387C16.2629 89.776 16.8022 89.6466 17.3482 89.5537C18.3784 89.3798 19.4413 89.359 20.4805 89.4603C21.0389 89.5149 21.7221 89.722 22.181 89.2842C22.3458 89.1266 22.4408 88.9268 22.5184 88.7169C22.6151 88.458 22.7282 88.2042 22.8406 87.9498C22.9334 87.7405 23.0257 87.53 23.1179 87.3201C23.2675 87.9757 23.417 88.6313 23.5666 89.2875C23.6257 89.5458 23.895 89.5655 24.0576 89.44C24.323 89.5824 24.6716 89.5796 24.9731 89.6145C25.4578 89.6702 25.9464 89.6893 26.4335 89.7062C27.3878 89.7389 28.3421 89.7569 29.297 89.7693C31.2438 89.794 33.1906 89.785 35.1369 89.7766C38.9929 89.7597 42.8484 89.6809 46.7027 89.5807C47.7881 89.5526 48.8734 89.5273 49.9587 89.5008C50.5008 89.4879 51.0434 89.4749 51.5861 89.4597C51.7487 89.4552 51.9128 89.44 52.0669 89.404H52.0675C52.1361 89.4642 52.2205 89.5104 52.3211 89.538C52.6815 89.637 53.0398 89.4164 53.1477 89.068C53.1978 88.9082 53.2327 88.7619 53.2203 88.6066C53.2389 88.4895 53.2574 88.3725 53.276 88.2554C53.8777 88.6364 54.5998 88.7399 55.3123 88.6927C56.1181 88.6392 56.9239 88.4918 57.7236 88.382C58.4743 88.279 59.6913 88.3122 59.7272 87.2745C59.7402 86.8946 59.5799 86.4686 59.4944 86.1028C59.392 85.6644 59.2897 85.2265 59.1874 84.7881" fill="black"/>
<path fill-rule="evenodd" clip-rule="evenodd" d="M49.5093 34.6316C49.4831 33.1577 49.4542 31.6544 49.2354 30.1949C49.0214 28.768 48.4328 27.4782 47.4213 26.442C45.2729 24.2411 42.1587 23.7035 39.2599 23.2109L34.3038 22.3686C32.7918 22.1116 31.1787 21.701 29.6511 22.0653C28.8983 22.2449 28.259 22.662 27.6748 23.1555C27.1116 23.6312 26.5061 24.142 26.1245 24.7819C25.7422 25.4228 25.6108 26.172 25.4865 26.8968C25.3463 27.714 25.2374 28.5376 25.1601 29.3631C25.0051 31.0171 24.9839 32.6836 25.0963 34.341C25.1508 35.1449 25.2375 35.9465 25.3482 36.7446C25.403 37.1403 25.4651 37.535 25.5351 37.9284C25.5558 38.0444 25.5715 38.1728 25.5926 38.3026C25.4363 38.7477 25.3474 39.2087 25.3546 39.6677C25.3757 41.0199 26.5156 41.8712 27.6649 42.3282C28.3312 42.5932 29.0278 42.7733 29.6825 43.0694C30.3713 43.3808 30.8401 43.8856 31.311 44.4615C32.2091 45.5598 33.2226 46.5469 34.3799 47.3705C36.8336 49.1167 39.9413 49.9426 42.9185 49.3157C43.6328 49.1653 44.3534 48.9317 44.9955 48.5798C45.6734 48.2083 46.1831 47.6699 46.6112 47.0334C47.406 45.8517 47.976 44.5211 48.4072 43.167C48.8471 41.7858 49.1593 40.4021 49.3295 38.9618C49.4992 37.5262 49.535 36.0761 49.5093 34.6316Z" fill="white"/>
<path fill-rule="evenodd" clip-rule="evenodd" d="M33.6943 17.2346C35.7453 16.9522 38.576 17.8702 39.5974 19.7211C44.4738 18.5702 50.6242 18.5325 54.6434 22.364C58.8372 26.909 53.5695 32.9017 50.0766 34.2527C50.3309 35.4901 49.9344 43.417 47.1287 46.9528C44.9021 49.9487 39.7168 51.3313 37.3173 47.753L37.2986 47.7235C37.0416 47.3102 37.2629 47.3235 37.5268 47.6309C39.8764 49.6995 43.0709 49.7348 45.5327 47.5517C50.1463 43.5615 49.6706 33.7776 47.4753 28.1175C41.2239 27.4301 34.5306 29.3271 30.2128 34.0383L30.5048 35.7981C30.5545 36.0979 30.6111 36.3975 30.6542 36.6984C30.6818 36.8911 30.6849 37.0828 30.5515 37.2389C30.111 37.754 29.3686 36.9799 28.7578 36.672C28.5775 36.6466 28.3968 36.6368 28.2197 36.6493C25.285 37.0278 25.8632 42.7273 29.0886 41.7283C29.3596 41.5592 29.5924 41.6108 29.6976 41.8561C30.4664 42.5611 30.9733 43.8185 32.2506 45.0296C32.7012 45.4839 33.1114 45.864 33.6183 46.2284C33.916 46.5299 34.8145 46.8372 34.5297 47.3531C33.9911 48.527 30.815 44.8397 30.2535 43.82C28.4941 44.5155 26.5444 44.2793 24.7212 44.1093C15.1026 43.6086 16.3866 33.4576 24.2707 27.0488C25.7548 25.9549 27.3922 25.0626 29.0943 24.3759C29.3267 24.2822 29.2251 23.9002 28.9895 23.9952C27.8633 24.4497 26.7654 24.9905 25.7188 25.6165L25.7172 25.2423C25.7157 24.6119 25.7256 23.9556 25.8349 23.3797C25.8896 22.9806 25.9816 22.5543 26.1231 22.2337C26.2981 21.2505 29.0394 17.8759 33.6943 17.2346ZM28.0913 37.9578C28.2398 37.8166 28.517 37.985 28.6493 37.9808C28.9874 38.0271 29.3086 38.1701 29.5591 38.3465C29.7245 38.4393 29.8404 38.5264 29.9373 38.6066L29.9399 38.6058C29.9392 38.6058 29.9383 38.6066 29.9375 38.6068L29.9466 38.6129C30.0876 38.7132 30.6039 39.2783 30.2777 39.1264C30.2534 39.0947 30.2285 39.0643 30.2034 39.0345C30.2007 39.0386 30.197 39.0426 30.1925 39.0465L30.2108 39.0737C30.4881 39.4913 30.0094 39.0514 29.9358 38.9345C29.9323 38.9374 29.9283 38.9393 29.9245 38.9413L30.0204 39.0582C30.0338 39.0748 30.0443 39.088 30.0531 39.0992L30.0733 39.1187C30.3938 39.4342 30.4038 39.7181 30.0314 39.2517C30.0461 39.2737 30.0579 39.297 30.0595 39.3176L30.0816 39.3458C30.374 39.723 30.1361 39.5891 29.9908 39.4279L29.9787 39.4141L29.9812 39.4178C30.1163 39.6263 29.8481 39.48 29.8007 39.3685L29.7987 39.3635C29.7471 39.3213 29.7153 39.274 29.7044 39.262L29.7024 39.26C29.451 39.0021 29.0865 38.7839 28.7769 38.6847C28.7321 38.6762 28.6867 38.6693 28.6408 38.6644C28.4546 38.6229 28.2664 38.5944 28.0762 38.579C28.053 38.5762 28.0294 38.5591 28.0118 38.537C27.7242 38.5273 27.813 38.4093 27.9323 38.3874L27.9344 38.387L27.9107 38.385C27.7261 38.367 27.6001 38.3007 27.7867 38.26L27.8104 38.2553C27.8075 38.2508 27.8049 38.2462 27.8024 38.2417C27.6426 38.2241 27.7469 38.0686 27.8356 38.1062C27.7983 37.984 27.9689 38.045 27.9902 38.0269C28.0064 38.0088 28.0266 37.9929 28.0382 37.9921C28.0896 37.9557 28.0647 37.959 28.0913 37.9578ZM29.0691 35.9798L29.0317 36.0017C29.0014 36.0194 28.9702 36.0312 28.939 36.0381C28.9831 36.0569 29.0268 36.0772 29.0699 36.0989C29.0692 36.0724 29.0687 36.0459 29.0687 36.0194L29.0691 35.9798Z" fill="black"/>
<path fill-rule="evenodd" clip-rule="evenodd" d="M49.4598 28.7353C47.4847 26.0137 43.8482 25.2311 40.6946 25.893C34.5293 27.0182 28.639 31.7273 27.5496 38.1318C25.8501 42.0063 26.9354 48.1091 31.8781 48.565C32.5818 48.6047 33.2789 48.4426 33.9838 48.5301C38.2862 49.2182 43.3703 52.1636 47.1788 48.6901C47.3697 48.827 47.6211 48.8932 47.8352 48.8103C49.4562 48.1832 49.5324 46.3688 49.6706 44.8774C49.8491 42.9503 50.0165 41.0221 50.1727 39.0932C50.2285 35.7666 51.5455 31.6097 49.4598 28.7353Z" fill="white"/>
<path fill-rule="evenodd" clip-rule="evenodd" d="M37.5065 21.8005C40.1022 21.6623 44.885 22.8526 47.1495 24.2481C50.8391 26.5218 51.1251 31.0574 50.9746 31.8416C50.9175 32.1409 50.7348 32.4179 50.4489 32.3258C50.6914 34.3864 50.6724 35.5641 50.7131 37.6365L50.7411 39.0202C50.7592 39.9426 50.7749 40.8651 50.7788 41.7879C50.8721 41.7531 50.9641 41.7958 50.9983 41.8854C51.0068 41.9071 50.9773 41.9189 50.9628 41.9064C50.7985 41.7629 50.9155 42.0899 50.972 42.1564C51.0502 42.2479 51.1803 42.3341 51.2717 42.4124L51.5197 42.6274L51.7678 42.842C52.0883 43.1188 52.3983 43.3962 52.6972 43.6944L52.7785 43.7762C53.3233 44.3302 54.006 44.8663 54.3451 45.5829C54.6691 46.267 54.5692 47.0427 54.031 47.5881C53.8352 47.7862 53.6065 47.9376 53.3581 48.052C53.8004 48.781 53.8648 49.7449 53.4034 50.4948C52.9415 51.2475 52.053 51.6416 51.1974 51.5811C51.1711 51.6883 51.1304 51.7929 51.0765 51.8922C50.7372 52.5164 50.0624 52.5975 49.4224 52.5641L49.3975 52.5627C47.957 52.4797 46.5711 52.1186 45.3094 51.4166C44.8718 51.4462 44.4814 51.0863 44.396 50.6915C44.166 50.683 43.9347 50.6639 43.6988 50.6369C42.9989 50.5561 42.2813 50.4054 41.6642 50.0495C41.5696 49.9949 41.6136 49.8508 41.7188 49.8481C42.4706 49.831 43.223 49.883 43.9734 49.8014C44.6621 49.727 45.3962 49.5369 46.0382 49.2784C47.1921 48.8126 48.1818 48.0224 48.7279 46.9276C49.435 45.5104 49.3706 43.8085 49.4474 42.2689C49.5326 40.5648 49.6375 38.8623 49.7496 37.1599L49.804 36.3439C49.9128 34.7533 50.0029 33.9024 50.2787 32.2515C49.4474 32.3258 45.9942 31.0815 44.9204 29.0461C42.8822 33.3761 32.5562 31.604 32.0982 38.2701C32.0943 38.3267 32.0049 38.3109 32.0016 38.2569L31.9931 38.105C31.989 38.0299 31.9852 37.956 31.9827 37.8827L31.9806 37.8096L31.8183 37.8116C31.8183 37.8319 31.7894 37.8392 31.7821 37.8175C31.629 37.3825 30.8996 37.5227 30.5822 37.626C30.2963 37.7194 30.0269 37.8628 29.7851 38.0399C29.2994 38.3951 28.9229 38.8734 28.798 39.4714C28.5608 40.607 29.283 41.7637 30.2418 42.3117C30.8464 42.6571 31.5088 42.8801 32.0884 43.2716C32.6003 43.617 33.0774 44.0216 33.4907 44.4815C35.1283 46.3033 36.0917 49.0665 35.3169 51.4712C35.2578 51.6548 35.1014 51.8646 34.8944 51.8943C34.552 51.9436 34.2096 51.8936 34.0177 51.5673C33.9428 51.4396 33.9073 51.2942 33.9152 51.1508C33.7825 51.6073 33.352 52.0587 32.9551 52.2285C32.4143 52.4601 31.8051 52.3909 31.328 52.0922L31.2678 52.1369C30.4919 52.7086 29.6252 53.2297 28.6311 53.1246C27.9109 53.0483 27.2038 52.6811 26.8056 52.1022C26.2759 52.4002 25.7101 52.6376 25.1266 52.7995L25.0645 52.8166C24.2616 53.0354 23.2375 53.2361 22.4882 52.7916C21.7686 52.3646 21.5294 51.4323 21.6983 50.654C21.7186 50.5613 21.7443 50.4712 21.7758 50.3837C21.2343 50.4126 20.6935 50.3607 20.1796 50.2014C19.6546 50.0389 19.1538 49.7264 18.9021 49.2198C18.6182 48.6467 18.6938 47.9954 18.9054 47.4119C19.2438 46.4756 19.788 45.6427 20.4655 44.9171C21.117 44.2187 21.9029 43.6262 22.7197 43.1323L22.8574 43.0498C23.5926 42.6107 24.4793 42.0963 25.348 42.1301C25.3454 42.1189 25.3434 42.1083 25.3421 42.0972C25.2107 41.1281 25.2258 40.1399 25.1949 39.1629C25.1667 38.2642 25.1345 37.3655 25.1134 36.4661C25.0793 34.937 25.0904 33.4015 25.2896 31.8831C25.4663 30.5357 25.7844 29.2217 26.3646 27.9881C26.9738 26.6921 27.8912 25.5861 29.0241 24.7164C31.4016 22.8907 34.5421 21.9584 37.5065 21.8005ZM29.4309 39.7596C29.6898 39.2708 30.2792 39.1168 30.7964 39.205C31.5212 39.3287 32.0141 39.963 32.4373 40.5084C32.8815 41.0801 31.9549 41.6189 31.7164 41.065L31.6599 40.9341C31.4684 40.4948 31.2423 40.0316 30.8516 39.7451C30.4363 39.4412 29.8501 39.3965 29.4834 39.8004C29.4571 39.83 29.4131 39.7919 29.4309 39.7596Z" fill="black"/>
<path fill-rule="evenodd" clip-rule="evenodd" d="M44.0275 46.65C43.5685 46.7832 43.0758 46.7951 42.608 46.6576C42.1837 46.5328 41.748 46.2582 41.4357 45.8949C41.1582 45.5721 40.9786 45.1799 40.9856 44.7612C40.9864 44.7134 41.0035 44.6735 41.0297 44.6425C41.058 44.6092 41.0975 44.5863 41.1398 44.5763C41.1832 44.5661 41.2292 44.5697 41.2684 44.5875C41.3038 44.6037 41.3342 44.6311 41.3531 44.6711C41.4011 44.7343 41.4489 44.7965 41.4969 44.857C41.8828 45.3344 42.2566 45.6912 42.8369 45.8192C43.1517 45.8887 43.4662 45.8579 43.7547 45.7519C44.0635 45.6385 44.3427 45.4391 44.5615 45.1839C44.6604 45.0685 44.7771 45.0215 44.8912 45.0207C45.0206 45.0198 45.1484 45.08 45.2447 45.1762C45.3394 45.2708 45.4028 45.3994 45.4085 45.5339C45.4136 45.6519 45.3751 45.7752 45.2729 45.8852C44.9361 46.2475 44.4997 46.513 44.0275 46.65ZM44.0133 40.6704C44.4838 40.9569 45.2006 41.625 44.6945 42.3354C44.0987 42.9617 43.241 42.2436 42.8183 41.9188C42.4264 41.6671 41.986 42.3144 42.3496 42.6084C45.404 44.874 46.6435 40.7453 44.2513 40.3335C43.9879 40.2881 43.89 40.5817 44.0133 40.6704ZM39.6122 39.4096C39.461 39.3127 39.2831 39.2795 39.086 39.3693C38.9319 39.4395 38.6617 39.6735 38.4737 39.9811C38.345 40.1916 38.2538 40.4384 38.2728 40.6956C38.2772 40.7553 38.2552 40.7993 38.2205 40.8319C38.193 40.8576 38.1534 40.8765 38.1068 40.8824C38.0673 40.8874 38.0231 40.8829 37.9871 40.8717C37.9187 40.8503 37.8825 40.8058 37.8688 40.7695C37.7372 40.4192 37.7939 40.0282 37.9415 39.6755C38.1406 39.1995 38.5022 38.8008 38.7392 38.6723C39.1446 38.4522 39.6229 38.4421 40.029 38.6663C40.3746 38.8571 40.5907 39.1651 40.8056 39.4791C40.8513 39.5458 40.8967 39.6121 40.9436 39.6772C41.0375 39.8076 41.0468 39.937 41.0105 40.0479C40.9702 40.1708 40.8674 40.2745 40.7389 40.3288C40.6202 40.3789 40.4823 40.386 40.3604 40.3345C40.2573 40.2909 40.1628 40.206 40.1029 40.062C40.0022 39.8195 39.8343 39.5519 39.6122 39.4096ZM47.2921 39.9492C47.1885 40.0033 47.1075 40.0196 46.9926 39.9851C46.9291 39.966 46.8663 39.9293 46.8172 39.8801C46.7684 39.8313 46.7333 39.7706 46.7196 39.7032C46.686 39.537 46.5953 39.3815 46.4659 39.2801C46.3554 39.1934 46.2159 39.1474 46.0611 39.1733C45.8941 39.2013 45.735 39.3086 45.6254 39.4351C45.5888 39.4774 45.5601 39.5255 45.5312 39.5733C45.4772 39.6626 45.4248 39.7456 45.3503 39.8112C45.3221 39.8361 45.2795 39.8534 45.2383 39.8534C45.2216 39.8534 45.2046 39.8507 45.1884 39.8456C45.0222 39.6785 44.9902 39.5517 44.9956 39.4259C45.0012 39.294 45.0531 39.1605 45.137 39.0359C45.3337 38.7436 45.7072 38.504 45.9593 38.4497C46.3045 38.3754 46.6473 38.4646 46.9221 38.6578C47.205 38.8566 47.4145 39.1651 47.4798 39.5129C47.4956 39.5967 47.4889 39.6871 47.4571 39.7655C47.4259 39.8421 47.3717 39.9077 47.2921 39.9492ZM40.3735 36.2936C40.1664 36.4958 39.9212 36.5271 39.6731 36.555C39.5353 36.5706 39.4253 36.5832 39.317 36.6077C39.0194 36.675 38.7253 36.7764 38.4569 36.9223C38.1764 37.0749 37.8707 37.259 37.6507 37.4948C37.5984 37.5509 37.5491 37.6098 37.4998 37.6688C37.4547 37.7226 37.4114 37.7744 37.3657 37.8243C37.3132 37.8817 37.2633 37.9418 37.2138 38.0017C37.1831 38.0523 37.1771 38.0648 37.1709 38.0777C37.1616 38.0972 37.1508 38.119 37.1384 38.1424C37.1215 38.1744 37.1017 38.2094 37.081 38.2412C37.0465 38.2992 37.028 38.3152 37.012 38.3224C36.9854 38.3342 36.9603 38.3401 36.9359 38.3369C36.913 38.3339 36.8914 38.3229 36.8701 38.3049C36.7637 38.2149 36.7324 38.0671 36.7356 37.9103C36.7405 37.6723 36.8281 37.4087 36.9088 37.2467C37.0966 36.8704 37.3571 36.4791 37.6703 36.1981C38.0277 35.8775 38.4186 35.6347 38.8677 35.4674C39.1468 35.3634 39.4699 35.268 39.774 35.28C39.9928 35.2887 40.2018 35.3539 40.3743 35.5167C40.4802 35.6166 40.5311 35.7587 40.5311 35.9008C40.5311 36.0456 40.4783 36.1913 40.3735 36.2936ZM47.7134 38.1454C47.7002 38.167 47.682 38.1819 47.6617 38.1909C47.6404 38.2002 47.6167 38.203 47.5939 38.1991C47.5712 38.1953 47.5497 38.185 47.5326 38.1692C47.5162 38.1541 47.5037 38.1341 47.4981 38.1096C47.3606 37.5044 47.0935 37.0541 46.5235 36.7637C46.2431 36.6208 45.9207 36.5301 45.6154 36.4577C45.5268 36.4367 45.433 36.4231 45.3386 36.4093C45.0428 36.366 44.7449 36.3164 44.552 36.0769C44.4359 35.9325 44.3871 35.748 44.4147 35.5792C44.4406 35.4203 44.5333 35.2746 44.7018 35.1873C45.1212 34.97 45.6425 35.1832 46.0661 35.3648C46.0975 35.3783 46.1284 35.3915 46.1585 35.4043C46.5728 35.5795 46.9506 35.8107 47.2611 36.1414C47.5075 36.4038 47.7359 36.7916 47.8278 37.1906C47.9043 37.5226 47.8863 37.8614 47.7134 38.1454Z" fill="black"/>
<path d="M47.2444 64.8774L48.4539 64.5333C48.5014 64.5198 48.5292 64.47 48.5156 64.4226L48.4663 64.2505C48.4527 64.2031 48.4027 64.1755 48.3552 64.189L47.1457 64.5331C47.0982 64.5466 47.0704 64.5964 47.084 64.6437L47.1334 64.8159C47.1469 64.8632 47.1969 64.8909 47.2444 64.8774ZM47.0471 64.1888L48.2565 63.8447C48.304 63.8312 48.3318 63.7814 48.3183 63.734L48.2689 63.5619C48.2553 63.5146 48.2054 63.4869 48.1579 63.5004L46.9484 63.8445C46.9009 63.858 46.8731 63.9078 46.8867 63.9552L46.936 64.1273C46.9496 64.1746 46.9995 64.2023 47.0471 64.1888ZM47.4418 65.566L48.6512 65.2219C48.6988 65.2084 48.7265 65.1586 48.713 65.1112L48.6636 64.9391C48.6501 64.8917 48.6001 64.8641 48.5526 64.8776L47.3431 65.2217C47.2956 65.2352 47.2678 65.285 47.2814 65.3323L47.3307 65.5045C47.3443 65.5518 47.3943 65.5795 47.4418 65.566ZM45.5289 65.7378C46.0062 65.602 46.2824 65.1069 46.1461 64.6313C46.0098 64.1558 45.5128 63.8806 45.0355 64.0164C44.5582 64.1522 44.282 64.6473 44.4183 65.1229C44.5546 65.5984 45.0516 65.8736 45.5289 65.7378ZM45.1342 64.3607C45.4204 64.2792 45.7188 64.4445 45.8005 64.7296C45.8823 65.0147 45.7164 65.3121 45.4302 65.3935C45.144 65.475 44.8456 65.3097 44.7639 65.0246C44.6821 64.7395 44.848 64.4421 45.1342 64.3607ZM47.9977 61.3117L43.1599 62.6881C42.7787 62.7966 42.5573 63.1936 42.6661 63.5734L43.6529 67.0163C43.7617 67.3961 44.1601 67.6167 44.5413 67.5083L49.3792 66.1319C49.7604 66.0234 49.9818 65.6265 49.873 65.2467L48.8862 61.8037C48.7774 61.4239 48.3789 61.2033 47.9977 61.3117ZM46.6888 66.5249L44.961 67.0165L44.9144 66.8541C44.8929 66.7787 44.8946 66.6991 44.9188 66.6247C44.9537 66.5182 45.0487 66.4342 45.1729 66.3988C45.3068 66.3607 45.4191 66.4103 45.6999 66.3304C45.9796 66.2508 46.0487 66.1497 46.1837 66.1113C46.3079 66.0759 46.4334 66.0984 46.5192 66.1694C46.5792 66.2198 46.6228 66.2866 46.6444 66.3619L46.691 66.5243L46.6888 66.5249ZM49.5274 65.345C49.5817 65.5343 49.4706 65.7335 49.2805 65.7876L47.0344 66.4266L46.9878 66.2642C46.945 66.1146 46.8598 65.9887 46.7491 65.8957C46.5632 65.7403 46.3115 65.7014 46.0836 65.7662C45.873 65.8261 45.8417 65.9165 45.5998 65.9853C45.3579 66.0541 45.2834 65.9939 45.0728 66.0538C44.8439 66.1189 44.6504 66.2833 44.5764 66.5139C44.5316 66.6511 44.526 66.8028 44.5689 66.9524L44.6154 67.1148L44.4427 67.164C44.2526 67.2181 44.0527 67.1074 43.9984 66.918L43.209 64.1636L48.738 62.5906L49.5274 65.345ZM48.6393 62.2463L43.1103 63.8193L43.0117 63.475C42.9574 63.2857 43.0685 63.0865 43.2586 63.0324L48.0964 61.656C48.2865 61.602 48.4864 61.7126 48.5407 61.902L48.6393 62.2463Z" fill="white"/>
</svg>
