<svg width="96" height="88" viewBox="0 0 96 88" fill="none" xmlns="http://www.w3.org/2000/svg">
<g clip-path="url(#clip0_240_6906)">
<g clip-path="url(#clip1_240_6906)">
<path d="M65.663 75.3705C64.677 78.227 61.3908 82.6153 61.0918 82.7333C62.1375 81.2902 62.3166 68.3024 62.3763 67.419C62.4241 66.7118 63.3324 65.9072 63.7806 65.593C64.8063 64.2774 67.0872 61.6836 67.4255 61.2342C67.9381 60.5528 68.8213 59.5997 68.9805 59.168C68.9805 59.168 68.6014 57.7398 69.5016 57.1625C70.1815 56.726 90.9171 56.7327 87.3163 58.1653C82.6731 60.9348 87.8138 60.1469 87.8138 60.1469C86.977 61.2777 83.8543 61.7676 82.6494 61.866C74.5831 61.8068 74.775 62.7069 72.8627 63.6786C70.9505 64.6504 66.6484 72.5136 65.663 75.3705Z" fill="white"/>
<path fill-rule="evenodd" clip-rule="evenodd" d="M32.4416 35.5923C34.3368 34.1375 39.0949 33.4833 41.1176 34.8841C43.1155 36.2907 43.3333 38.5654 44.2643 40.658C45.1427 40.2405 46.5932 40.8385 46.8479 41.6601C47.1638 42.0476 47.178 43.1363 47.3958 43.6573C56.873 45.178 58.7194 52.4792 59.8603 60.9352C60.5781 63.9249 61.3039 65.8073 61.0447 68.3605C60.0735 70.1273 58.3621 77.9604 57.0886 83.7364C56.6171 85.8738 56.3518 86.6029 54.7907 87.652C53.8194 88.4638 53.3219 89.0459 52.5738 89.0459L52.2383 89.0507C43.2774 93.2389 30.5561 93.7642 15.4894 88.7742C15.0392 88.7746 14.8608 88.4595 14.9209 88.0579C15.0419 87.2495 15.3722 86.7896 15.4894 85.9807C12.5541 86.7624 8.6938 87.3388 5.76678 86.443C5.56202 86.2324 6.24387 86.3465 6.35205 86.3145C3.65827 84.4589 4.46274 80.55 4.70136 77.7346C6.18514 68.0874 6.70821 57.4131 12.441 49.1811C14.9211 45.8215 18.5572 43.1616 22.7353 42.5631L22.8512 42.5471C24.0729 42.3829 25.4344 42.3301 26.5025 41.6601C27.7039 40.6933 28.2158 38.9071 29.4797 38.8903C29.897 38.8848 30.4647 39.417 31.0756 39.7783C31.1213 38.9835 31.5462 38.3127 31.64 37.6963L31.6477 37.6436C31.7455 36.925 31.6115 36.2786 32.4416 35.5923Z" fill="white"/>
<path fill-rule="evenodd" clip-rule="evenodd" d="M56.4099 63.5122C56.4454 63.4573 56.5307 63.4917 56.5151 63.5566C56.0986 65.2757 55.7082 66.9981 55.4528 68.7496C54.9923 71.9112 55.0771 75.1139 55.1145 78.2989L55.1164 78.4636C55.1359 80.1793 55.1629 81.8945 55.2193 83.6098C55.2477 84.4765 55.3036 85.3513 55.2733 86.2184C55.2567 86.6888 55.179 87.1357 55.1349 87.6003C55.0965 88.0067 55.0364 87.8654 55.0037 88.0311C54.872 88.329 54.6204 88.2899 54.5934 88.0311L54.5588 87.6958C54.5142 87.2718 54.5583 87.6443 54.4204 87.2384C54.2546 86.7504 54.175 86.2709 54.1177 85.7581C54.0296 84.9731 53.9902 84.1799 53.9566 83.3887L53.9334 82.8419C53.7912 79.5366 53.7965 76.2164 54.0262 72.9144L54.0428 72.679C54.2702 69.558 54.6654 66.1858 56.4099 63.5122Z" fill="black"/>
<path fill-rule="evenodd" clip-rule="evenodd" d="M9.12576 75.6604L9.24914 75.5401C9.62789 75.1667 10.1065 74.5913 10.6664 74.6271C10.8896 74.6409 11.0319 74.8281 10.9856 75.0492C10.8868 75.5229 10.4078 75.7683 10.0629 76.0572C9.68517 76.3738 9.32916 76.7119 8.97386 77.0538C8.65864 77.3565 8.35548 77.6679 8.0596 77.9893L7.94897 78.1101C7.84291 78.2266 7.08765 78.9151 7.16932 79.0942L7.17376 79.1019C7.19649 79.1362 7.15864 79.183 7.12094 79.1711C6.79479 79.0675 6.81514 78.7857 6.93844 78.5002C7.17537 77.9515 7.59027 77.4439 7.95258 76.9755C8.31391 76.5085 8.705 76.073 9.12576 75.6604Z" fill="black"/>
<path fill-rule="evenodd" clip-rule="evenodd" d="M16.4559 73.623C16.4494 73.6331 16.4422 73.6426 16.4346 73.6522L16.4229 73.6655L16.4836 73.6407L16.4559 73.623Z" fill="black"/>
<path fill-rule="evenodd" clip-rule="evenodd" d="M35.1855 64.8697L35.1968 64.8702C35.5157 64.9069 35.7347 65.1672 35.8128 65.4761C35.9261 65.9245 35.8705 66.3304 36.1431 66.7353C36.4236 67.1522 36.596 67.4855 36.6368 68.0002C36.6535 68.2118 36.6458 68.4228 36.6926 68.6301L36.7265 68.7757C36.7625 68.9304 36.7919 69.0794 36.7741 69.2456C36.7577 69.3974 36.6844 69.5154 36.5336 69.5641C36.042 69.7226 35.6624 69.3573 35.5354 68.8956C35.4257 68.4969 35.5722 68.0213 35.4174 67.6469C35.3317 67.4392 35.1735 67.2654 35.0842 67.0562C34.9956 66.8494 34.9512 66.6326 34.9369 66.4077C34.91 65.9813 35.2838 65.4699 35.0752 65.0836C35.0308 65.0015 35.0811 64.8668 35.1855 64.8697Z" fill="black"/>
<path fill-rule="evenodd" clip-rule="evenodd" d="M31.5459 36.3306C31.5002 35.7383 32.4147 35.7432 32.46 36.3306C32.5588 37.613 32.2725 38.8833 31.6563 40.0076C31.6517 40.0158 31.6468 40.0231 31.642 40.0308C32.0274 40.233 32.4172 40.4269 32.8157 40.6003C33.3254 40.8221 33.8447 41.0241 34.3733 41.1954C34.8515 41.3505 35.4406 41.4118 35.8426 41.7345C36.6903 42.415 36.3718 43.8271 36.2087 44.7424L36.1833 44.8869C36.1021 45.358 36.0434 45.8412 36.2404 46.2933C36.4508 46.7761 36.8762 47.1343 37.2556 47.4798L37.3323 47.5498C37.6685 47.8586 38.0527 48.2338 38.2993 48.6523C38.5244 48.1832 38.8313 47.7997 39.1557 47.3681C39.3872 47.0601 39.2224 46.9585 39.0561 46.6576C38.896 46.368 38.8179 46.0593 38.868 45.7289C38.9603 45.1187 39.4441 44.678 39.9256 44.3468C40.4943 43.9559 41.129 43.6663 41.7169 43.3026C42.9249 42.5554 44.1013 41.7011 45.1613 40.7524C45.1905 40.7261 45.2412 40.7605 45.2177 40.7963C44.3805 42.0801 43.3987 43.1893 42.1922 44.1309C41.703 44.5127 41.1891 44.8294 40.6717 45.1623L40.523 45.2585C40.3152 45.3942 40.0561 45.5755 39.9622 45.8064C39.8677 46.0387 40.0692 46.2141 40.1777 46.4065C40.5222 47.0175 40.356 47.5876 39.9476 48.1057L39.9285 48.1296C39.5227 48.6337 39.2151 49.1026 39.068 49.7467C38.752 51.1302 39.1922 52.5714 39.6531 53.8703L39.6713 53.9215C39.9206 54.6216 40.1855 55.3164 40.4021 56.0279L40.4617 56.2247C40.6579 56.8789 40.8187 57.5245 40.5985 58.1973C40.5236 58.4265 40.214 58.4804 40.0854 58.2651C39.6317 57.5054 39.5187 56.5914 39.2342 55.7562C38.9571 54.9425 38.6389 54.1433 38.3711 53.3261C38.0264 52.2739 37.7957 51.1413 37.9209 50.0377C37.9172 50.0312 37.9132 50.0252 37.9101 50.0184L37.8223 49.8249C37.5831 49.301 37.352 48.8434 36.9168 48.4258C36.4629 47.9901 35.9702 47.6045 35.613 47.0771C34.8372 45.9316 35.317 44.6573 35.4107 43.4047L35.4214 43.2511C35.4385 42.9911 35.4478 42.6377 35.2793 42.4577C35.0897 42.255 34.6452 42.2034 34.3937 42.1136C33.7437 41.8818 33.1031 41.6116 32.4931 41.2872C31.9123 40.9784 31.3498 40.6372 30.826 40.2375L30.5605 40.0362C30.1417 39.7176 29.7073 39.3697 29.4266 38.9361C29.3942 38.8861 29.4493 38.8056 29.5079 38.8295C29.9765 39.0212 30.4048 39.3262 30.8432 39.5915C30.85 39.5753 30.8579 39.559 30.8669 39.5425C31.4094 38.5528 31.6326 37.4563 31.5459 36.3306Z" fill="black"/>
<path fill-rule="evenodd" clip-rule="evenodd" d="M46.5159 43.1115C46.7026 42.5954 47.5536 42.6353 47.5197 43.2485C47.4937 43.7197 47.2952 44.1449 47.1138 44.5727L47.0944 44.6186C46.9071 45.0643 46.6908 45.4828 46.4318 45.8912C45.9372 46.6722 45.3577 47.3969 44.7389 48.0808C44.1777 48.7009 43.4413 49.0801 42.5927 49.017C42.2351 48.9905 41.8743 48.8988 41.5609 48.7188C41.1888 48.5048 40.7846 47.8625 40.3098 48.0181C40.2639 48.0331 40.2211 47.9654 40.2608 47.9332C40.8089 47.4883 41.431 48.1782 41.9558 48.3444C42.7465 48.5948 43.5579 48.3179 44.0669 47.6735C44.5983 47.0008 45.0873 46.2475 45.5339 45.515C45.7607 45.143 45.9676 44.7569 46.1464 44.3591C46.3267 43.9575 46.3677 43.521 46.5159 43.1115Z" fill="black"/>
<path fill-rule="evenodd" clip-rule="evenodd" d="M45.242 39.9353C45.219 39.864 45.3069 39.7963 45.369 39.837C45.7291 40.0733 46.0412 40.3856 46.3734 40.6594C46.742 40.963 47.1133 41.2606 47.4904 41.5535C48.04 41.9806 47.4025 42.767 46.9187 42.3004C46.2566 41.6621 45.5314 40.8275 45.242 39.9353Z" fill="black"/>
<path fill-rule="evenodd" clip-rule="evenodd" d="M43.2639 37.4368C43.4103 36.868 44.2756 37.1025 44.1495 37.6646L44.1454 37.6818C43.9065 38.6102 44.2467 39.5555 44.9729 40.1574L44.9997 40.1793C45.4591 40.5499 44.8082 41.1979 44.3533 40.8308C43.3602 40.0296 42.9471 38.6686 43.2639 37.4368Z" fill="black"/>
<path d="M17.8935 62.9202C21.943 56.215 19.8985 46.6987 18.4851 43.2424L19.8656 42.8449L21.3119 42.5136L25.1248 41.8179L37.4837 60.7671L36.1032 62.2245C34.394 62.6485 32.6519 65.25 31.9945 66.4982C31.3371 67.6242 29.3649 69.347 28.5432 69.4793C27.8858 69.5853 27.2175 69.5237 26.9655 69.4793L16.743 74.1503L16.1514 73.3223C16.2171 73.0573 16.4603 72.2623 16.9074 71.2022C17.3544 70.1421 17.751 65.239 17.8935 62.9202Z" fill="black"/>
<path d="M14.9688 88.7925L15.3599 85.6729C19.5321 83.5604 28.0201 79.0064 28.5938 77.6932C29.1675 76.3796 30.028 76.095 30.3866 76.1169C36.0257 75.2302 37.7206 73.7198 38.2096 73.3254C38.6985 72.9315 39.4156 71.4536 40.8498 71.0926C42.284 70.7311 42.5122 69.746 43.0337 68.8268C43.5553 67.9071 43.3597 65.7072 43.3271 64.8858C43.2945 64.065 42.0559 63.0799 42.0559 62.5546C42.0559 62.0294 42.3166 61.208 42.5122 60.7482C42.6687 60.3805 42.2732 59.9823 42.0559 59.829C45.0025 55.1264 46.8257 47.0767 47.369 43.6396C48.6207 43.8235 50.9763 45.0736 51.9975 45.6756C53.8557 52.2105 55.3548 65.2144 54.8336 67.4477C54.312 69.6806 54.8336 72.5705 54.475 76.1169C54.1879 78.9538 54.5944 85.3773 54.8336 88.2343C50.3678 91.3539 40.5564 92.8972 39.9372 92.9631C39.3178 93.0285 32.1793 93.1598 24.8127 91.7808C18.9194 90.6773 15.7945 89.3288 14.9688 88.7925Z" fill="black"/>
<path fill-rule="evenodd" clip-rule="evenodd" d="M39.4793 74.2581C39.5261 74.1531 39.69 74.1646 39.7403 74.2581C39.9377 74.6254 39.9596 75.0938 39.9969 75.5083L40.0008 75.5508C40.0483 76.0565 40.0903 76.5636 40.116 77.0707C40.1648 78.0334 40.1881 78.9951 40.1851 79.9592C40.182 80.9467 40.1623 81.9337 40.1095 82.9197L40.0952 83.1843C40.0469 84.0414 39.9661 84.9974 39.562 85.7471C39.4151 86.0193 39.0156 85.9395 38.9306 85.664C38.6519 84.7615 38.795 83.6924 38.8665 82.7684L38.922 82.0473C38.9769 81.3263 39.0294 80.6048 39.0709 79.8832C39.1279 78.8953 39.1749 77.9068 39.2201 76.9188C39.2348 76.598 39.2507 76.2771 39.2675 75.9562L39.2933 75.4748C39.3153 75.0723 39.3135 74.6301 39.4793 74.2581Z" fill="white"/>
<path fill-rule="evenodd" clip-rule="evenodd" d="M29.0863 63.3086C29.3713 63.2504 29.6947 63.1167 29.9758 63.2279C30.1203 63.2852 30.1917 63.4629 30.0696 63.5861C29.8576 63.8 29.5496 63.8119 29.2641 63.8626L29.239 63.8673C28.9014 63.9304 28.5633 63.99 28.2246 64.0464C27.5875 64.1529 26.949 64.247 26.3081 64.3267C25.65 64.4088 24.9899 64.4819 24.329 64.5368L24.0731 64.5578C23.5148 64.6032 22.9338 64.6371 22.386 64.5506C22.3064 64.5382 22.3193 64.4212 22.386 64.4007C22.9862 64.2178 23.6445 64.1686 24.265 64.0913C24.9246 64.0087 25.5831 63.9218 26.2399 63.8181C26.8957 63.715 27.5505 63.6042 28.203 63.482C28.4979 63.4266 28.7923 63.3688 29.0863 63.3086Z" fill="white"/>
<path fill-rule="evenodd" clip-rule="evenodd" d="M47.2739 18.4772C47.0201 16.9295 47.8532 16.6084 47.2739 15.1372C45.9866 12.4112 42.4784 12.5287 39.9041 12.3191C37.0327 12.2082 34.1265 12.5902 31.4795 13.7501C30.8472 14.0271 30.239 14.3529 29.6561 14.7231C29.1519 15.0432 29.2213 15.6518 29.5391 15.9838C27.2471 19.2549 28.558 23.6458 26.7292 27.0891C26.3913 27.7046 25.9446 28.2565 25.6509 28.8969C25.2045 29.8704 25.1759 31.2652 26.1882 31.9117C27.6139 32.6829 28.4094 31.1559 29.11 33.3695C32.6085 41.0876 39.6425 41.5223 46.3201 37.4983C46.8977 37.1745 47.4874 36.8084 47.9236 36.2996C48.9139 35.1764 48.7972 33.5971 48.8191 32.1945C48.8313 31.3726 48.8334 30.5506 48.8254 29.7285C48.7943 26.3987 47.6993 21.7796 47.2739 18.4772Z" fill="white"/>
<path fill-rule="evenodd" clip-rule="evenodd" d="M33.0508 9.22053C37.0826 7.37731 41.6555 6.67831 46.0535 7.1368C48.2242 7.36274 50.3664 7.84749 52.4048 8.63491L52.5839 8.70451C53.0871 8.89972 53.6296 9.09349 54.0119 9.49085C54.4568 9.95265 54.5819 10.651 54.2635 11.2214C54.0167 11.6647 53.5722 11.9826 53.098 12.1523C53.2652 12.2901 53.4235 12.4439 53.5722 12.6155C53.8224 12.903 53.8418 13.3131 53.5722 13.5967C53.053 14.1433 52.3787 14.5388 51.6529 14.7283C51.7349 15.1252 51.6908 15.5645 51.516 15.96C51.0139 17.0955 49.6005 17.2307 48.5127 17.1634L48.4799 17.1613L48.4194 17.8589C48.3872 18.2306 48.1663 18.5188 47.7916 18.5758C47.7784 18.5778 47.7652 18.5791 47.7522 18.5804C48.3451 20.7417 48.7034 22.9698 49.0341 25.1848C49.2068 26.341 49.3615 27.4999 49.5095 28.6595L49.5587 29.0461C49.7165 30.2963 49.9136 31.5592 49.982 32.8187C50.0432 33.9616 49.8269 35.0528 49.1281 35.9751C48.5009 36.802 47.6456 37.4214 46.726 37.8813C44.648 38.9207 42.4608 39.6947 40.1625 40.0538L40.0093 40.0776C39.1221 40.214 38.2081 40.329 37.3305 40.0816C36.5594 39.8643 35.7508 39.3037 35.925 38.4033C35.9835 38.0992 36.4056 38.086 36.5502 38.3212L36.5836 38.3751C36.757 38.6524 36.9471 38.9102 37.2497 39.0532C37.604 39.2216 38.0148 39.2686 38.4021 39.2733C39.4835 39.2859 40.6096 39.0142 41.6509 38.7419C43.5955 38.2332 45.5926 37.4036 47.1855 36.1467C47.8633 35.6127 48.4076 34.9448 48.5995 34.0855C48.8369 33.0261 48.6186 31.8679 48.5108 30.8032C48.2889 28.6062 48.0249 26.4133 47.7463 24.2228L47.6904 23.7848C47.4557 21.9535 47.2092 20.1215 47.0922 18.2796C47.0435 18.2127 47.0106 18.1365 46.9975 18.053L46.9791 17.9331C46.9633 17.8304 46.9607 17.7363 46.9718 17.6496C46.9725 17.3169 46.9817 16.9863 47.0008 16.6537C47.004 16.5941 47.0067 16.5345 47.0086 16.4755C46.6655 16.5517 46.3197 16.6133 45.9726 16.6656C43.5324 17.036 41.054 17.1288 38.594 16.9446C37.3666 16.8524 36.1486 16.6941 34.9343 16.496C34.3163 16.3953 33.7004 16.284 33.0864 16.1594C32.6426 16.07 32.2081 15.9488 31.7716 15.8348C31.3213 16.4954 31.078 17.3083 31.1254 18.1067C31.1786 19.0177 31.7808 19.8439 31.6118 20.7748C31.4533 21.646 30.7127 21.9161 29.9815 22.1319L29.6706 22.2224C29.4314 22.2928 29.2576 22.3607 29.2143 22.6505C29.14 23.1481 29.2314 23.7079 29.2505 24.2081C29.2735 24.7998 29.3037 25.3915 29.3176 25.9832C29.3248 26.2892 29.3365 26.5967 29.3359 26.9027C29.3353 27.1201 29.3031 27.2685 29.2196 27.4089C29.284 27.4904 29.3418 27.5786 29.3931 27.672C29.4096 27.7024 29.3688 27.7349 29.3446 27.7097C29.2794 27.6415 29.2103 27.5799 29.1374 27.5248C29.1006 27.5706 29.0579 27.617 29.0078 27.6667L29.0039 27.6614C28.8475 27.8184 28.599 27.8337 28.405 27.6667L28.3541 27.6222C28.2121 27.4968 28.1145 27.3923 28.0751 27.185C28.0731 27.1744 28.071 27.1638 28.0698 27.1532C27.7089 27.1406 27.3421 27.2267 27.0173 27.4076C26.5026 27.6945 26.1403 28.1033 25.9261 28.6082C26.0115 28.7089 26.1114 28.799 26.2278 28.8745C26.2442 28.8858 26.2297 28.9103 26.212 28.9017C26.093 28.8454 25.9865 28.7758 25.8912 28.6943C25.8143 28.8931 25.7604 29.1064 25.7275 29.3323C25.6118 30.1301 25.8182 31.1047 26.5335 31.5592C26.8431 31.7559 27.1968 31.8626 27.5636 31.864C27.7424 31.8645 27.8969 31.8342 28.0705 31.7911C28.1881 31.7619 28.3051 31.7195 28.4281 31.7195C28.5333 31.7195 28.6305 31.746 28.7206 31.799L28.6957 31.8012C28.635 31.807 28.6466 31.8096 28.7311 31.8096C28.9941 31.8209 29.1446 32.0899 29.0237 32.3238L29.0078 32.3599C29.0045 32.3672 29.0016 32.3732 28.9994 32.378L28.9899 32.4401C28.9889 32.4459 28.9879 32.452 28.9868 32.4583L28.9832 32.4708C28.9826 32.4728 28.9818 32.4748 28.981 32.4768L29.3753 33.083C29.8589 33.8244 30.3532 34.563 30.9157 35.2403C31.3101 35.7154 31.7282 36.1811 32.17 36.6125C32.567 37.0001 33.043 37.1869 33.4926 37.4917C33.7326 37.6534 33.8029 37.9919 33.5847 38.2099C32.9444 38.8506 32.0378 38.3417 31.5126 37.821C31.0156 37.3274 30.5863 36.7337 30.2162 36.1394C29.5595 35.0826 29.0368 33.9589 28.808 32.7392C28.7128 32.8273 28.5911 32.8823 28.4682 32.9254C28.2217 33.0115 27.9501 33.0473 27.6898 33.0565C27.1909 33.0731 26.6913 32.9512 26.2423 32.7352C24.4154 31.8573 24.1471 29.2283 25.2641 27.6779C25.1134 27.2378 25.0293 26.7602 24.9379 26.3529L24.8963 26.1708C24.4344 24.1373 24.1244 21.9962 24.9433 20.0036C25.0484 19.7465 25.1667 19.496 25.3068 19.2562C25.4192 19.0634 25.6125 18.858 25.6657 18.6387C25.784 18.1571 25.0537 17.6508 24.8407 17.2685C24.5902 16.82 24.5547 16.2907 24.8959 15.8805C24.9393 15.8288 24.9866 15.781 25.0379 15.7394C24.7145 15.1484 24.6993 14.405 25.1253 13.822C25.4054 13.4377 25.8327 13.1687 26.2994 13.0872C26.5848 13.0375 26.9279 13.056 27.2415 13.1448C28.9585 11.5381 30.9176 10.1958 33.0508 9.22053ZM26.4572 29.3244C26.9155 28.9169 27.4217 28.7036 28.0462 28.7573C28.674 28.8115 29.43 29.0733 29.7987 29.6159C30.09 30.0446 29.4964 30.6734 29.0691 30.3513C28.6799 30.0579 28.4201 29.7266 27.9371 29.5689C27.5031 29.4277 26.966 29.337 26.5117 29.4178C26.4618 29.4264 26.4119 29.3641 26.4572 29.3244Z" fill="black"/>
<path fill-rule="evenodd" clip-rule="evenodd" d="M47.6559 43.581C47.5355 43.5521 47.4974 43.7178 47.6061 43.7629C50.3292 44.8934 53.1171 46.0619 55.0644 48.3823C56.9833 50.6687 57.9266 53.6847 58.5667 56.5641L58.6051 56.7403C59.2589 59.7328 59.8374 62.7469 60.405 65.7586L60.6452 67.0345C60.649 67.1004 60.6528 67.1658 60.6561 67.2307C60.7452 68.8872 60.5941 69.5491 60.4315 70.2577C60.2875 70.8875 60.135 71.5551 60.135 72.9924C60.135 74.701 59.9559 75.782 59.7981 76.7342C59.674 77.4834 59.5631 78.1534 59.5631 78.9871C59.5631 82.7404 58.3066 83.8654 57.6523 84.4518C57.2893 84.7765 57.1117 84.936 57.4357 85.2855C58.1621 86.0696 60.1127 84.9632 60.135 84.5234C60.7225 82.5727 61.1565 75.4463 61.3782 70.7524C62.9578 78.2169 63.7912 78.3415 61.9614 68.1829L61.8278 67.5364C61.6989 66.9161 61.5724 66.2958 61.4478 65.6755C61.3763 65.2219 61.2744 64.6565 61.1721 64.0897C61.0456 63.3911 60.9191 62.691 60.8504 62.1987C60.7968 62.0903 60.7485 61.9991 60.7045 61.9251C60.3889 60.3188 60.0724 58.7124 59.7427 57.1084C59.0997 53.984 58.2853 50.8565 56.3261 48.2831C55.3184 46.9592 54.0495 45.8825 52.5514 45.1614C51.0541 44.4407 49.479 44.021 47.8748 43.6337L47.6559 43.581Z" fill="black"/>
<path fill-rule="evenodd" clip-rule="evenodd" d="M62.8159 67.888C62.995 69.3444 63.0173 72.0299 62.9642 73.334C62.9353 74.034 63.1722 75.1166 63.4304 76.2955C63.5489 76.8375 63.6721 77.3995 63.7758 77.9544C63.9701 77.5471 64.1606 77.1379 64.351 76.7291C64.6353 76.1189 64.9191 75.5086 65.2157 74.905L65.6227 74.0761C66.1666 72.9711 66.7134 71.868 67.2776 70.7745C67.9921 69.3907 68.7592 68.0308 69.6087 66.7276L69.6987 66.5901C70.5283 65.3338 71.4835 64.1113 72.7092 63.2284C74.9152 61.6383 77.6296 61.5046 80.2449 61.4516L81.0679 61.4358C82.1737 61.4134 83.2843 61.3761 84.3769 61.2028C85.007 61.1035 85.6286 60.9554 86.2232 60.721C86.4601 60.6284 86.6928 60.5228 86.9197 60.4054C86.2976 60.5152 85.6708 60.5916 85.0364 60.635C84.726 60.6565 84.4204 60.6642 84.1167 60.6594C83.335 60.6489 82.5679 60.5586 81.7805 60.4273C81.7137 60.4154 81.7037 60.307 81.7771 60.3017C82.34 60.2654 82.9062 60.2043 83.471 60.1327L83.6406 60.1107C83.6538 60.0186 83.7007 59.925 83.786 59.8405C83.9926 59.6385 84.2992 59.521 84.5953 59.4074C84.7455 59.3496 84.8933 59.2927 85.0236 59.2269C85.4287 59.0215 85.8248 58.7947 86.2057 58.5474C86.5539 58.3215 86.8913 58.0784 87.2187 57.822C86.915 57.9237 86.6151 58.0398 86.3151 58.1558C85.7878 58.3597 85.26 58.5641 84.7095 58.6906C84.0225 58.8501 83.3122 58.9289 82.6068 58.9055L82.5632 58.9041L82.5196 58.9021C82.3054 58.8936 82.0917 58.8783 81.8785 58.8635C81.3578 58.8267 80.8381 58.7904 80.3155 58.8453C80.2331 58.8544 80.2203 58.7427 80.2956 58.7202C80.8822 58.5488 81.4744 58.5082 82.0742 58.4676C82.1462 58.4624 82.2187 58.4576 82.2907 58.4523C82.3106 58.4017 82.3519 58.3597 82.4177 58.3368L82.5959 58.2747C83.1256 58.088 83.6221 57.8955 84.084 57.5479C84.492 57.2409 84.845 56.8675 85.1264 56.441C84.5247 56.5046 83.9457 56.7753 83.3767 57.0418C83.0507 57.1941 82.7281 57.3455 82.4063 57.4553C81.4431 57.7838 80.4401 57.9848 79.4257 58.0484L79.3106 58.055C77.4168 58.1567 75.1862 57.8636 73.6293 56.7008C73.58 56.6631 73.626 56.5958 73.68 56.6106C73.9558 56.6889 74.2291 56.772 74.5025 56.8551C74.6883 56.9114 74.8735 56.9677 75.0592 57.0227C74.9773 56.9276 74.9536 56.772 75.0725 56.6626C75.5468 56.2252 75.941 55.7085 76.221 55.1255L76.2745 55.0119C76.2807 54.9994 76.2868 54.9865 76.293 54.9736C76.4228 54.7032 76.6114 54.3106 76.4778 54.0501C76.3437 53.7899 75.9604 53.78 75.7225 53.8567C75.4155 53.9564 75.1554 54.1859 74.8991 54.4123C74.7418 54.5514 74.5854 54.6894 74.4201 54.7951C73.9477 55.0992 73.4261 55.305 72.8954 55.4817L72.7836 55.5185C72.6386 55.5653 72.4927 55.6107 72.3463 55.6555C71.566 55.8967 70.7771 56.1402 70.1337 56.6626C69.7229 56.9959 69.3529 57.429 69.188 57.9423C69.1126 58.1782 69.0847 58.4265 69.1221 58.6725C69.1325 58.7379 69.1548 58.7995 69.1761 58.8601C69.2183 58.9771 69.2581 59.0889 69.2041 59.2097C69.1193 59.3959 68.926 59.6165 68.7649 59.8003C68.7218 59.8495 68.681 59.8958 68.645 59.9383C68.5441 60.0577 68.4517 60.1761 68.3588 60.2946C68.2707 60.4073 68.1821 60.52 68.0864 60.6341C67.8685 60.8943 67.6794 61.1622 67.4757 61.4511C67.3127 61.6817 67.1402 61.9262 66.936 62.1913C66.3476 63.1797 65.9785 63.6701 65.5289 64.2684C65.3758 64.4719 65.2133 64.6882 65.0295 64.9408C64.903 65.0969 64.7831 65.2784 64.6637 65.4593C64.5467 65.637 64.4297 65.8146 64.3065 65.9679L63.8791 66.5901L63.682 66.8355L63.1642 67.4534C63.1694 67.4964 63.1637 67.5403 63.1462 67.5771C63.0817 67.7118 62.9799 67.7972 62.859 67.8536L62.8372 67.8631C62.8306 67.8717 62.8235 67.8799 62.8159 67.888ZM64.0217 79.8019C64.0601 80.489 64.0108 81.1027 63.8128 81.5711C62.9903 83.5174 58.5589 86.1008 57.699 86.1757C57.5293 86.1905 57.3441 86.2512 57.1622 86.3109C56.423 86.5535 55.7318 86.7803 56.2856 83.8565C56.4467 83.006 57.3498 79.5593 58.1372 76.5567C58.7143 74.3544 59.2293 72.3904 59.3425 71.8647C59.3814 71.6847 59.4207 71.4922 59.4615 71.2926C59.7656 69.8033 60.1494 67.9224 61.0188 67.9224C61.2354 67.5384 61.8181 67.1029 62.2313 66.9506C64.0445 64.6877 67.0507 60.9378 68.7203 58.9762C68.4744 57.9915 68.971 57.0709 69.7101 56.4157C70.4251 55.7826 71.3158 55.5037 72.2046 55.2253C72.334 55.1847 72.4633 55.1441 72.5917 55.1026L72.7248 55.0591C73.2133 54.8982 73.7028 54.7156 74.1401 54.4411C74.331 54.3208 74.5035 54.1741 74.6759 54.0275C74.8834 53.8509 75.091 53.6744 75.3302 53.5442C75.968 53.1967 77.0307 53.4066 76.9572 54.3152C76.9156 54.8142 76.6431 55.3356 76.3991 55.7601C76.1229 56.2405 75.7756 56.665 75.3767 57.0456C75.3582 57.0637 75.3388 57.0771 75.3193 57.0871L75.3047 57.0943C75.7822 57.2304 76.265 57.3517 76.762 57.4309C77.7651 57.5918 78.7922 57.6324 79.8029 57.5302C80.8376 57.4257 81.8563 57.1807 82.8204 56.7868C83.0142 56.708 83.2052 56.622 83.3961 56.5361C84.0177 56.2558 84.6355 55.9774 85.3216 55.9549C85.404 55.9516 85.487 55.953 85.5722 55.9578C85.7139 55.9659 85.8357 56.1488 85.7646 56.283C85.7257 56.3565 85.685 56.4296 85.6409 56.5026C85.2605 57.1449 84.7194 57.7489 84.0803 58.1811L84.031 58.214C84.2447 58.1658 84.4565 58.108 84.6659 58.0402C85.1103 57.896 85.5448 57.715 85.9792 57.5336C86.7482 57.2132 87.5172 56.8928 88.343 56.7772C88.4046 56.7681 88.4662 56.761 88.5278 56.7543C88.9257 56.7142 89.0835 57.163 88.8225 57.4285C88.7803 57.4715 88.7386 57.514 88.695 57.556C88.0559 58.194 87.3646 58.7746 86.6174 59.2822C86.3616 59.4561 86.0991 59.6222 85.8328 59.7798C86.6283 59.6323 87.4181 59.4398 88.1942 59.2159C88.5026 59.1275 88.6983 59.4541 88.7021 59.7053C88.714 60.5348 87.7612 61.0285 87.122 61.3599L87.095 61.3737C86.4544 61.7066 85.7646 61.9367 85.0657 62.1043C83.7216 62.4286 82.3414 62.4883 80.9655 62.526L80.2975 62.5437C77.6528 62.6153 74.8844 62.7456 72.7883 64.5759C71.6133 65.6012 70.7463 66.9425 69.9418 68.2681C69.1382 69.5917 68.41 70.9617 67.7093 72.3427C67.2009 73.344 66.7261 74.3626 66.2519 75.3811C66.0491 75.8166 65.8463 76.2521 65.6407 76.6861C65.1418 77.74 64.586 78.7762 64.0217 79.8019Z" fill="black"/>
<path d="M61.8809 68.6547L61.8876 68.6514C61.8876 70.5285 61.6748 74.4923 61.8876 75.1985C62.1534 76.0819 63.0739 78.5956 62.7636 80.1045C62.4533 81.6134 57.0231 86.0214 57.6988 82.7638C58.7198 77.8416 60.6557 69.9545 60.7888 69.5128C60.8945 69.1618 61.5678 68.8156 61.8809 68.6547Z" fill="white"/>
<path d="M38.456 73.0023L34.1208 63.5437C33.3586 61.7989 31.5293 57.859 30.3097 56.0535C28.7853 53.7968 28.6899 52.0204 29.5475 49.2836C30.4051 46.5468 29.8333 46.2107 29.5475 44.8664C29.2617 43.522 26.2603 39.3928 25.9745 38.6246C25.6886 37.8564 26.1174 37.4243 27.0225 36.8001C27.7467 36.3008 28.4358 36.5921 28.6899 36.8001C30.0873 38.9607 33.0727 43.5508 33.835 44.6263C34.7878 45.9707 36.5981 46.0187 38.2654 46.9309C39.5993 47.6607 43.204 53.9889 44.8397 57.062C47.0152 61.1108 51.4235 69.4974 51.6523 70.6496C51.938 72.0898 50.604 74.0103 48.5079 75.6907C46.4118 77.3715 42.6006 77.4675 41.886 77.2756C41.3144 77.1218 39.3611 74.3627 38.456 73.0023Z" fill="white"/>
<path fill-rule="evenodd" clip-rule="evenodd" d="M34.2662 63.9232L28.8829 54.4167C28.5018 53.1204 28.054 50.0955 29.3117 48.3671C30.5694 46.6386 27.549 41.5652 25.8816 39.2445C25.4846 38.7804 24.9288 37.6889 25.8816 37.0359C26.8344 36.3829 27.2632 36.1236 27.3586 36.0757C27.6761 35.8356 28.4829 35.6339 29.1689 36.7478C29.2888 36.9425 29.4609 37.2368 29.6733 37.6C30.9798 39.8339 33.8115 44.6757 35.4096 45.0061C35.5583 45.0368 35.7048 45.0654 35.8498 45.0937C37.5164 45.4188 38.975 45.7033 41.0787 48.7511C42.9081 51.4015 49.5903 64.4833 52.7029 70.6934C52.7186 71.7176 52.1216 74.2078 49.6062 75.9746C46.462 78.1831 43.0796 78.7113 41.3646 77.751L38.3633 72.9501C38.5697 72.7419 39.1255 72.4315 39.6972 72.8536C40.0059 73.0819 40.3768 73.6955 40.7677 74.342C41.2817 75.192 41.8303 76.0993 42.3174 76.2626C43.1748 76.551 47.6529 75.4947 49.2727 73.9104C50.8925 72.3255 51.3689 71.1733 50.6542 69.5889C50.0826 68.3215 47.9706 64.3233 46.986 62.483C46.0491 63.6515 43.6703 66.1322 41.6504 66.708L34.2662 55.3289C35.8066 54.5768 39.1636 52.7651 40.2689 51.5359C39.8242 50.4476 38.611 48.0886 37.3152 47.3588C36.7906 47.0633 36.3959 46.9189 36.0486 46.7919C35.3236 46.5267 34.8052 46.3371 33.7423 45.0061C33.5769 44.799 33.43 44.6127 33.2983 44.4457C32.1781 43.0248 32.1602 43.0021 31.265 43.5177C31.1884 43.5618 31.1141 43.6042 31.0423 43.6452C30.1751 44.1399 29.6671 44.4297 29.9311 45.0061C30.217 45.6303 31.0269 47.4548 30.1693 49.2313C29.3117 51.0078 29.3594 53.0243 29.9311 54.4167C30.3884 55.5304 33.774 61.2185 35.4096 63.9232C35.3619 64.1954 35.0665 64.5764 34.2662 63.9232ZM26.5487 37.9001L27.7873 37.0839C27.9779 36.9559 28.4638 36.8823 28.883 37.6121C29.3023 38.3418 30.1375 39.6126 30.5027 40.1568C30.5822 40.3488 30.6456 40.8001 30.2646 41.069C29.8835 41.3379 29.3435 41.6612 29.1212 41.7892C28.9148 41.9493 28.3875 42.0869 27.9302 41.3571C27.4729 40.6273 26.8186 39.5166 26.5487 39.0525C26.374 38.7834 26.1294 38.1764 26.5487 37.9001Z" fill="black"/>
<path fill-rule="evenodd" clip-rule="evenodd" d="M22.6945 43.1694L22.5491 43.2057C21.2157 43.5385 19.8894 43.925 18.6384 44.5046C17.5354 45.0154 16.4505 45.6255 15.5521 46.4569C14.5984 47.3392 13.8561 48.466 13.1767 49.5681C11.657 52.0335 10.5886 54.7346 9.648 57.4685C8.66973 60.3121 7.85145 63.2125 7.19086 66.1478C6.85489 67.6405 6.58203 69.1442 6.35776 70.6584C6.24982 71.3876 6.15392 72.1182 6.0697 72.8507C5.97979 73.6328 5.95914 74.4374 5.72114 75.189C5.6191 75.5114 5.37818 75.6451 5.13702 75.6341L5.08804 76.2515C5.02309 77.0747 4.96254 77.8984 4.94209 78.7264C4.90816 80.1041 4.92354 81.4779 5.02183 82.8522L5.03575 83.0398C5.11299 84.0426 5.28558 85.17 6.03392 85.9044C6.8089 86.6656 8.0007 86.9043 9.04524 86.9182C11.4781 86.9502 13.8199 85.7912 15.9727 84.7751C18.1898 83.7279 20.3464 82.5661 22.4513 81.3055C23.5233 80.6637 24.5836 80.0004 25.6305 79.3181C26.1442 78.9829 26.6543 78.6424 27.1605 78.2962C27.4505 78.098 27.7253 77.8803 28.0205 77.7046C27.8759 77.569 27.8113 77.3555 27.9325 77.1688C27.0791 76.4224 26.7239 75.0897 26.6824 74.0115C26.6488 73.1415 26.7759 72.2733 26.8762 71.4114C26.9268 70.9769 26.9893 70.5428 27.0541 70.1097C27.0798 69.9388 27.0993 69.7559 27.1293 69.5754C24.825 70.8523 22.4562 71.9887 20.0246 72.9987C18.7782 73.5163 17.5158 73.9819 16.2361 74.4083L15.9766 74.4942C14.7641 74.8944 13.5224 75.2726 12.2688 75.5013C12.2018 75.5137 12.1474 75.4139 12.2189 75.3819C13.4406 74.8385 14.7046 74.3801 15.9446 73.8797L16.1484 73.7961C16.1249 73.7947 16.1007 73.7914 16.0753 73.7856C15.3481 73.6085 14.6266 73.3358 13.9133 73.1061C13.2513 72.8932 12.5076 72.7594 11.8889 72.4376C11.8413 72.4133 11.8679 72.3464 11.9143 72.3431C12.6097 72.2944 13.3647 72.4987 14.0465 72.6191L14.3027 72.6644C14.7318 72.7403 15.1704 72.8225 15.5974 72.9294C15.6128 72.7852 15.6928 72.6405 15.8065 72.5555C17.0577 71.6215 16.9306 69.7349 17.0645 68.3439L17.1637 67.311C17.3382 65.5032 17.5229 63.6963 17.8034 61.9022C17.8184 61.8063 17.9654 61.8335 17.9661 61.9242C17.9805 64.148 17.814 66.3617 17.7305 68.5822L17.7176 68.9465C17.6714 70.3165 17.6353 71.739 16.7793 72.7933C16.8989 72.7227 17.0608 72.7227 17.1577 72.8392C17.2769 72.982 17.3457 73.1424 17.3435 73.3C18.1171 72.9734 18.8872 72.6377 19.6536 72.2953C22.1176 71.1951 24.5299 69.9636 26.8784 68.6314C27.1311 68.4881 27.3714 68.6008 27.4964 68.7899L27.5144 68.787C27.5174 68.7865 27.5205 68.7865 27.5236 68.7861L27.5415 68.7856C27.5422 68.7856 27.5429 68.7856 27.5435 68.7856C27.8741 68.6022 28.3245 68.7331 28.6082 69C28.6165 69.0081 28.6237 69.0167 28.6311 69.0253C28.9903 68.8625 29.3256 68.6433 29.63 68.3654C30.2528 67.7962 30.7803 67.0923 31.2402 66.387C32.0871 65.0877 32.8065 63.6428 33.9506 62.5727C34.8801 61.7036 34.844 61.4968 36.053 61.1568C36.5638 61.0136 37.3198 60.899 37.6485 60.7662C38.3388 60.6354 39.029 60.5346 39.6865 60.4683C40.3439 60.4019 40.1475 60.4291 40.8698 60.6669C41.6258 61.0313 42.3489 61.5284 42.633 62.9891C43.0891 63.383 44.2943 64.8934 43.6754 66.2065C43.4242 67.6649 44.0989 67.5851 42.633 70.4416C42.2421 71.0652 41.0607 71.4797 40.876 71.5528C40.5376 71.686 40.2509 71.9009 39.9917 72.154C39.4444 72.6883 39.0198 73.3372 38.4471 73.8472C37.9287 74.309 37.338 74.6676 36.7044 74.9436C35.3914 75.5156 33.9829 75.7444 32.5941 76.0471L32.4972 76.0686C31.4516 76.2997 30.3845 76.5838 29.4616 77.1325C29.4436 77.2939 29.3706 77.4458 29.2535 77.5456C29.4163 77.6998 29.4853 77.9438 29.3422 78.1725C28.9427 78.8119 28.2545 79.1753 27.6367 79.5841L27.5965 79.6108C26.9887 80.0172 26.3757 80.4149 25.7576 80.8051C24.5012 81.5982 23.2184 82.3474 21.9176 83.0637C19.8254 84.2159 17.6883 85.3027 15.5124 86.2888C15.643 86.9363 15.5953 87.6044 15.6935 88.2562L15.7085 88.3493C15.7505 88.5914 15.6938 88.7938 15.5284 88.9519L15.511 88.9677L15.5113 88.9657L15.4957 88.9801L15.4906 88.9844L15.4923 88.9829C15.4732 89.0006 15.4536 89.0168 15.4335 89.0312L15.408 89.0474C15.2488 89.1453 15.0437 89.1439 14.8807 89.0579L14.8621 89.0474L14.8307 89.0293C14.6153 88.9046 14.4667 88.5952 14.5561 88.3493C14.7758 87.7447 14.8587 87.1001 15.0616 86.4918L14.9007 86.5643L14.6885 86.6575C12.3946 87.6574 9.84657 88.4992 7.34718 87.8178C6.24283 87.5165 5.21065 86.879 4.65809 85.8404C4.11436 84.8185 4.03751 83.6315 4.00864 82.4945C3.97301 81.0916 4.04764 79.6667 4.23121 78.2757C4.35444 77.3417 4.50346 76.3905 4.73333 75.466C4.61509 75.3609 4.52819 75.21 4.50523 75.0233C4.39674 74.1404 4.58661 73.2231 4.70285 72.345C4.8164 71.4874 4.94185 70.6317 5.08374 69.7788C5.37019 68.0559 5.70302 66.3369 6.09051 64.6346C6.78011 61.6043 7.69076 58.6279 8.78712 55.7232L8.88315 55.4702C9.89622 52.8147 11.0692 50.2159 12.7026 47.8833C13.484 46.7672 14.3099 45.7554 15.414 44.9512C16.4483 44.1977 17.615 43.6552 18.819 43.2405C20.0243 42.8255 21.2632 42.5474 22.524 42.3744C23.8043 42.1987 25.1558 42.091 26.3503 41.5616C26.9659 41.0223 31.1403 41.8174 22.6945 43.1694Z" fill="black"/>
<path fill-rule="evenodd" clip-rule="evenodd" d="M41.6016 61.8961C41.3494 61.2954 40.4203 61.3078 39.8928 61.3436C38.5646 61.4343 37.1275 61.7729 35.9457 62.3989C34.7205 63.0478 33.8951 64.0874 33.1567 65.2368L33.1221 65.2907C32.4023 66.4186 31.7091 67.7537 30.582 68.5292C30.008 68.9241 29.3377 69.2851 28.6411 69.4413C28.5933 69.5258 28.5158 69.5931 28.4142 69.6174L28.3671 69.6284C28.1687 69.6724 27.8605 69.7216 27.5943 69.6919C27.5961 69.8233 27.5947 69.9536 27.598 70.0783C27.6073 70.4345 27.6114 70.7926 27.6114 71.1488C27.6115 71.8961 27.5717 72.6449 27.6026 73.3922C27.63 74.0531 27.7226 74.7436 28.0373 75.3342C28.2682 75.7678 28.573 76.0543 28.9408 76.3284C29.8457 75.7726 30.8689 75.4336 31.9073 75.179C33.1633 74.8706 34.4492 74.6652 35.6766 74.2474C36.2672 74.0459 36.8352 73.7828 37.3497 73.4256C37.8959 73.046 38.313 72.5322 38.7421 72.0298L38.8092 71.952C39.2472 71.4454 39.7251 70.9607 40.3441 70.6866C40.8772 70.4498 41.5798 70.4077 42.0459 70.042C42.2896 69.8505 42.31 69.5726 42.3356 69.288C42.0371 69.3309 41.7211 69.2622 41.4236 69.2268L41.2695 69.2087C40.9882 69.1748 40.7133 69.138 40.4364 69.0659C40.3849 69.0526 40.3849 68.9742 40.4364 68.9609C40.7637 68.8759 41.088 68.8396 41.4236 68.7999L41.5025 68.7899C41.806 68.7498 42.1252 68.6892 42.4229 68.7565C42.4764 68.5516 42.5535 68.3559 42.6618 68.1601C42.8137 67.8846 43.1013 67.5723 43.1401 67.2509C43.1517 67.1549 43.1295 67.0417 43.0846 66.9568L43.0691 66.9276C43.0503 66.8937 43.0279 66.8593 42.9951 66.8379C42.9915 66.8421 42.9839 66.8469 42.9672 66.8522C42.738 66.9252 42.5381 66.8121 42.432 66.6378C41.9816 66.6941 41.49 66.675 41.0675 66.6941L40.6404 66.7147C40.1841 66.7357 39.707 66.7452 39.2781 66.6521C39.2182 66.6392 39.2001 66.5389 39.2601 66.5127C39.7873 66.2854 40.4269 66.2133 40.9913 66.1259C41.3065 66.0767 41.6241 66.0399 41.9402 65.997C42.1508 65.9683 42.3742 65.921 42.5923 65.9096C43.1392 65.2234 42.8445 64.1409 42.0834 63.8453C41.8062 63.968 41.5569 63.8964 41.254 63.8701C40.9517 63.8443 40.6486 63.8267 40.345 63.8276C39.7367 63.8305 39.0921 63.9919 38.4897 63.9222C38.3917 63.9112 38.3007 63.7794 38.3981 63.6992C38.8592 63.32 39.5201 63.1963 40.1054 63.1156L40.2267 63.0994C40.4229 63.0731 40.6615 63.0354 40.9091 63.013C40.965 62.9027 41.0655 62.8196 41.2163 62.7991C41.2612 62.7928 41.3062 62.789 41.3512 62.7852L41.3505 62.7809C41.7185 62.7628 41.7025 62.1367 41.6016 61.8961Z" fill="white"/>
<path d="M76.9453 24.6413C71.8847 22.8266 68.7534 25.3208 67.8201 26.7947C67.5941 27.635 67.6623 27.3829 69.0619 28.667C70.4619 29.9512 74.4745 35.331 73.0493 41.3004C71.6237 47.2699 70.163 45.8789 68.6573 51.6461C67.152 57.4131 74.0372 61.0971 82.2495 59.0099C90.4617 56.9232 91.7808 50.5186 90.5712 47.5277C89.3616 44.5367 84.861 44.3 80.4495 40.5701C76.038 36.8402 76.3043 28.5249 76.9226 26.8899C77.4172 25.5819 77.1439 24.8458 76.9453 24.6413Z" fill="white"/>
<path fill-rule="evenodd" clip-rule="evenodd" d="M68.3513 25.3166C69.6921 24.4349 73.1594 22.8772 76.3035 23.6996C78.3517 24.2354 78.0077 25.3457 77.5742 26.7458C77.406 27.2889 77.2245 27.8757 77.1639 28.4894C76.981 30.3336 76.9843 36.6478 81.1873 40.3209C83.4862 42.3296 85.2117 43.0354 86.7511 43.6652C88.027 44.187 89.1755 44.6566 90.4164 45.772C93.1554 48.2335 91.6496 54.0007 87.8598 57.1146C84.0694 60.2289 75.5018 62.8051 69.4548 57.5013C68.3508 56.4479 66.6902 53.3371 68.8805 49.3172C69.1823 48.7629 69.4756 48.2375 69.7566 47.7339C72.0227 43.6722 73.4962 41.0311 72.4264 36.125C71.5883 32.281 70.5317 31.0289 69.9873 30.3838C69.7509 30.1034 69.6111 29.9377 69.6277 29.7238C69.6836 29.0174 70.1612 29.238 70.6658 29.6914C71.1704 30.1449 73.2205 33.7778 73.6251 36.9934C74.024 40.1691 73.925 42.036 72.7818 44.7904C72.316 45.9128 71.5632 47.054 70.9107 48.0424C69.9622 49.4798 69.2264 50.5943 69.8982 50.8578C70.8051 51.2136 81.3749 54.2168 86.5464 55.6739C87.7233 54.9581 90.107 52.9482 90.2273 50.636C90.378 47.7458 89.7545 46.403 86.563 45.1257L86.5474 45.1195C83.3611 43.8443 80.135 42.5532 78.1427 38.4974C76.1471 34.4351 75.416 29.9964 75.8965 27.3767C76.0566 26.5034 76.2575 25.9419 76.3911 25.5676C76.5091 25.2382 76.5749 25.0537 76.5157 24.9294C76.4409 24.7709 76.1632 24.7099 75.5321 24.5713C73.8421 24.2 70.5364 25.0113 68.9099 26.2356C67.3634 27.3995 72.5467 26.6876 73.3607 26.3235C73.8615 26.0995 74.5542 26.3788 74.1458 26.8987C73.8558 27.2678 71.0496 28.2631 68.7194 27.9426C66.3893 27.622 66.8612 26.5331 68.3513 25.3166ZM72.723 32.1924C73.1807 33.2644 74.0951 36.0756 74.0937 38.7449C74.0927 40.5436 73.9515 41.7013 73.8663 42.4055C73.7928 43.0075 73.7601 43.278 73.8895 43.3341C74.17 43.4558 74.7707 42.7179 74.9058 39.5529C75.0403 36.3879 73.8179 32.4463 73.4342 31.7102C73.0504 30.974 72.1682 31.0939 72.723 32.1924ZM71.0382 53.3798C71.4362 54.2852 72.9272 56.2407 75.707 56.819C79.1813 57.5424 80.7656 57.975 79.1258 58.2486C77.486 58.5227 73.8151 58.1966 71.4547 55.6581C69.0942 53.1197 70.3095 52.2622 71.0382 53.3798Z" fill="black"/>
<path fill-rule="evenodd" clip-rule="evenodd" d="M42.8719 34.1868C42.6415 34.4902 42.2243 34.7227 41.757 34.8338C41.3116 34.9397 40.8195 34.9354 40.3948 34.7724L40.3583 34.7578C40.0408 34.625 39.736 34.3568 39.6203 34.0769C39.5742 33.9657 39.5587 33.8526 39.5902 33.7471C39.6185 33.6521 39.6849 33.5647 39.7955 33.4897C39.8302 33.4661 39.8769 33.4644 39.9213 33.4723C39.9763 33.482 40.0306 33.508 40.0633 33.5431C40.245 33.7376 40.5087 33.9273 40.8207 33.9241C41.0614 33.9216 41.258 33.8259 41.4487 33.7177L41.5827 33.6404C41.7119 33.5661 41.843 33.4964 41.9914 33.4645C42.2568 33.4074 42.5789 33.5117 42.7751 33.6838C42.8607 33.7589 42.9228 33.8471 42.9397 33.9421C42.9539 34.0219 42.934 34.1052 42.8719 34.1868ZM41.4916 28.8804C42.0189 29.2032 42.8224 29.9559 42.2552 30.7562C41.5874 31.4618 40.6259 30.6527 40.1522 30.2869C39.7129 30.0033 39.2193 30.7326 39.6269 31.0637C43.0504 33.6162 44.4397 28.9648 41.7583 28.5009C41.4631 28.4497 41.3534 28.7805 41.4916 28.8804ZM35.5424 23.9192L35.6939 23.8773L35.8483 23.8354L35.9528 23.8076C36.6703 23.6184 37.4617 23.452 38.1733 23.5333C38.4328 23.563 38.6434 23.71 38.6802 23.9838C38.7111 24.2148 38.5628 24.5128 38.3105 24.5539C37.4748 24.69 36.6192 24.6459 35.7797 24.7862C35.3616 24.8561 34.9468 24.9428 34.5302 25.0209C34.2136 25.0804 33.8863 25.1013 33.5669 25.1494L33.6403 25.1597C33.666 25.1632 33.6596 25.2067 33.6342 25.205C33.5289 25.1944 33.4235 25.1927 33.3179 25.2002L33.2726 25.2039C33.2037 25.2137 33.1631 25.1309 33.2245 25.0888C33.6137 24.8229 33.9439 24.5347 34.3797 24.3387C34.7566 24.1692 35.1445 24.0295 35.5424 23.9192ZM42.0746 23.5114C42.6262 22.9498 43.7994 23.1656 44.4557 23.4225C44.8303 23.5692 45.1865 23.7547 45.4832 24.0321L45.5121 24.0594L45.5566 24.1025C45.7569 24.2999 45.9802 24.5716 45.9484 24.8562C45.9436 24.8996 45.9201 24.9492 45.8714 24.9579C45.6086 25.0048 45.3504 24.8652 45.1076 24.7811L44.9469 24.7256C44.7055 24.6428 44.4625 24.5636 44.2136 24.5065C43.9041 24.4356 43.5884 24.3946 43.2706 24.3987C42.9495 24.4029 42.6045 24.4942 42.2986 24.3658C41.9574 24.2227 41.7805 23.8108 42.0746 23.5114ZM36.6243 28.0409C36.4836 28.1857 36.2976 28.2673 36.0597 28.2187C35.8738 28.1808 35.5198 27.9925 35.237 27.7026C35.0436 27.5043 34.8818 27.2565 34.8379 26.9694C34.8276 26.9027 34.7925 26.8599 34.7464 26.833C34.71 26.8118 34.6619 26.8011 34.6096 26.8064C34.5652 26.8109 34.518 26.8271 34.4815 26.8486C34.4122 26.8895 34.3838 26.9475 34.3781 26.9908C34.3224 27.4088 34.4828 27.8236 34.7327 28.1732C35.0699 28.6452 35.5652 28.991 35.8563 29.072C36.3545 29.2105 36.8795 29.1002 37.2665 28.751C37.576 28.4718 37.7347 28.1081 37.8818 27.7341L37.9102 27.6616C37.9433 27.5767 37.9761 27.4924 38.011 27.4091C38.0808 27.2421 38.0584 27.0977 37.9907 26.9852C37.9158 26.8605 37.7775 26.7728 37.6235 26.7458C37.4812 26.7209 37.3289 26.7482 37.2086 26.8357C37.1071 26.9096 37.0251 27.0268 36.9961 27.2001C36.9487 27.4819 36.8389 27.8052 36.6454 28.0185L36.6243 28.0409ZM45.1667 26.4101C45.0506 26.3492 44.9598 26.3308 44.831 26.3697C44.7598 26.3912 44.6895 26.4325 44.6344 26.488C44.5797 26.543 44.5404 26.6113 44.5251 26.6872C44.4874 26.8745 44.3857 27.0497 44.2407 27.1639C44.1168 27.2616 43.9604 27.3133 43.7869 27.2842C43.5997 27.2527 43.4214 27.1318 43.2986 26.9892C43.2644 26.9495 43.2363 26.9053 43.2092 26.8605L43.193 26.8336C43.1325 26.733 43.0736 26.6395 42.9902 26.5655C42.9586 26.5375 42.9109 26.518 42.8647 26.518C42.8459 26.518 42.8269 26.521 42.8087 26.5268C42.6224 26.7151 42.5866 26.8579 42.5926 26.9996C42.5989 27.1482 42.6571 27.2986 42.7511 27.439C42.9716 27.7683 43.3903 28.0382 43.6728 28.0994C44.0597 28.1831 44.4439 28.0826 44.752 27.865C45.069 27.6411 45.3039 27.2934 45.3771 26.9016C45.3948 26.8072 45.3873 26.7054 45.3516 26.6171C45.3167 26.5308 45.2559 26.4569 45.1667 26.4101Z" fill="black"/>
</g>
</g>
<defs>
<clipPath id="clip0_240_6906">
<rect width="96" height="88" fill="white"/>
</clipPath>
<clipPath id="clip1_240_6906">
<rect width="88" height="86" fill="white" transform="translate(4 7)"/>
</clipPath>
</defs>
</svg>
