<svg width="72" height="98" viewBox="0 0 72 98" fill="none" xmlns="http://www.w3.org/2000/svg">
<path fill-rule="evenodd" clip-rule="evenodd" d="M57.4675 89.0255C58.5543 88.973 58.1171 87.07 58.0391 86.3711C57.1787 83.8186 57.381 81.0338 57.0426 78.3583C56.8317 75.8608 56.5608 73.371 56.333 70.8753C55.8855 65.8094 52.6718 55.4965 49.0045 53.838C48.5425 51.8089 46.6344 49.9147 44.2202 49.9147C42.5737 47.9637 40.5918 46.5906 38.0498 46.8679C36.9994 46.9157 35.9806 48.031 34.9741 48.2463C34.4105 48.3241 29.409 48.1239 28.4071 48.7195C27.7092 49.0782 27.0792 49.7411 27.2844 50.5849C27.6118 51.6073 26.5944 50.5011 24.4719 51.5923C20.1439 54.1943 22.7301 57.6752 22.8447 57.783C20.1439 61.5446 17.7832 64.5963 16.691 69.1941C15.9831 72.6076 16.0628 76.1314 15.4697 79.5624C15.2603 80.752 14.939 81.901 14.5914 83.0563C14.2146 84.5682 14.0314 88.3366 13.8237 88.3703C13.4454 88.4643 14.0423 89.2419 14.4432 89.2425C25.5565 91.0878 36.845 89.3189 48.018 89.0299C51.1668 88.9203 54.3189 88.895 57.4675 89.0255Z" fill="white"/>
<path fill-rule="evenodd" clip-rule="evenodd" d="M40.6234 58.1151C40.6286 58.0642 40.6972 58.0643 40.7025 58.1151L40.7809 58.8733C40.8764 59.7994 40.9683 60.7236 41.0349 61.6539C41.118 62.814 41.1736 63.9738 41.2003 65.1365C41.2937 69.186 41.3122 73.2376 41.3201 77.2881C41.8673 77.2502 42.4146 77.2136 42.9622 77.1783C43.3336 77.1543 43.7052 77.1312 44.0767 77.1085L45.0241 77.051V77.051L45.4142 77.0271C45.6777 77.0107 45.9772 76.9443 46.1615 77.178C46.2352 77.2716 46.2722 77.3932 46.2035 77.5043C46.0448 77.7604 45.8012 77.7515 45.5256 77.7626C45.2655 77.7731 45.0055 77.7834 44.7455 77.7934C44.1882 77.8151 43.6311 77.8355 43.0737 77.8512C42.4887 77.8676 41.904 77.881 41.3193 77.8909C41.3134 79.6009 41.2427 81.3087 41.1663 83.0168L41.1317 83.7854C41.0382 85.8641 40.9376 87.9445 40.7947 90.0204C40.7829 90.1903 40.5428 90.19 40.5311 90.0204C40.3702 87.6826 40.264 85.3399 40.1587 82.999C40.0824 81.3017 40.0379 79.604 40.0168 77.9061C39.9395 77.9066 39.8622 77.9076 39.7849 77.9079C37.5903 77.9175 35.3962 77.9271 33.2015 77.9065C33.2051 77.9108 33.2087 77.9151 33.2112 77.9209C33.37 78.2962 33.3851 78.7751 33.3812 79.1779C33.3768 79.6398 33.3146 80.0961 33.2084 80.5453C32.8276 82.1546 31.8454 83.596 30.7267 84.7877L30.6902 84.8264C30.4264 85.1055 30.1237 85.3859 29.9616 85.7414C29.7962 86.1044 29.7387 86.5289 29.6571 86.9189L29.6475 86.9638L29.3282 88.4401C29.2268 88.909 29.198 89.5929 28.8272 89.9312C28.4812 90.2469 28.0229 90.082 27.8601 89.6756C27.7329 89.3584 27.8596 89.01 27.9349 88.6929L28.5249 86.2105C28.6218 85.8056 28.7277 85.3982 28.9369 85.0345C29.1512 84.662 29.4654 84.392 29.786 84.1157C30.3931 83.5925 30.9504 82.9936 31.4217 82.3451C31.8928 81.6968 32.2954 80.9823 32.5778 80.2309C32.7192 79.8547 32.835 79.4639 32.9149 79.07C32.9909 78.6962 32.9902 78.309 33.0715 77.9392C33.077 77.9136 33.0986 77.8961 33.1233 77.8883C33.1174 77.8718 33.1264 77.8496 33.1494 77.8481L34.9443 77.7326C36.5398 77.6296 38.1352 77.5239 39.7292 77.4032L40.0109 77.3828V77.3828C39.989 75.1174 40.0076 72.8515 40.0485 70.5851C40.0859 68.5069 40.0867 66.4281 40.1484 64.3501C40.1792 63.3188 40.2453 62.2899 40.319 61.2607C40.3944 60.2082 40.515 59.1645 40.6234 58.1151ZM23.7703 70.1653C23.7512 70.0499 23.8962 69.9784 23.9631 70.0839C24.7274 71.2898 25.0959 72.5997 25.2512 74.0108C25.3884 75.2563 25.348 76.5197 25.2796 77.7684C25.2068 79.1003 25.1217 80.4318 25.0358 81.763L24.9037 83.8043V83.8043L24.5722 88.9217C24.5484 89.2878 24.4654 89.6206 24.1506 89.7908C24.1107 89.8241 24.0691 89.854 24.0207 89.8799C23.8506 89.9709 23.625 89.925 23.5266 89.7502L23.5661 89.7762C23.6004 89.7978 23.5619 89.7676 23.4503 89.6856L23.3557 89.563V89.563C23.2869 89.4595 23.243 89.3578 23.2253 89.2348C23.1979 89.0437 23.2334 88.8341 23.2459 88.642L23.4632 85.2863V85.2863C23.6322 82.6776 23.8295 80.0696 23.9783 77.4595C24.0475 76.243 24.0961 75.0254 24.0632 73.8068C24.0305 72.5949 23.9688 71.3625 23.7703 70.1653ZM30.382 47.7017L30.4244 47.6946C31.9425 47.4422 33.5932 47.4894 34.9806 48.2219C34.9921 48.2279 34.9868 48.247 34.9739 48.2465L34.5274 48.2286C33.1137 48.1732 31.7044 48.1404 30.3144 48.4729L30.1721 48.5072C29.6715 48.6294 29.1488 48.779 28.7467 49.11C28.3624 49.4263 28.171 49.9143 27.987 50.3636L27.9624 50.4229C27.7757 50.8666 27.5394 51.2874 27.1302 51.5649C26.6002 51.9242 25.9628 51.8802 25.3551 51.929C24.285 52.015 23.4102 52.7913 22.9749 53.7412C22.7114 54.3164 22.5989 54.9613 22.5767 55.5903C22.5653 55.9105 22.5636 56.2433 22.6062 56.5614C22.6199 56.6631 22.7455 57.0337 22.8095 57.0248C22.9519 57.005 23.082 57.0793 23.1264 57.1932C23.4779 56.8532 23.8396 56.523 24.213 56.2047C25.1436 55.4113 26.146 54.6923 27.2016 54.0745C28.0073 53.6029 28.8571 53.1356 29.7371 52.7824C29.6674 52.7809 29.5986 52.7948 29.5321 52.8294C29.503 52.8447 29.474 52.8081 29.497 52.7839C29.7742 52.4919 30.1062 52.4504 30.4409 52.5282C30.5123 52.5055 30.5838 52.4835 30.6556 52.4626C30.6913 52.4522 30.7091 52.5014 30.6799 52.5205L30.5977 52.573V52.573C30.9628 52.6955 31.3213 52.9361 31.6052 53.1261C32.4204 53.6715 33.1381 54.3382 33.8655 54.9925L33.9978 55.1111C34.6381 55.6835 35.2947 56.2396 36.0222 56.6987C36.403 56.939 36.803 57.1613 37.2226 57.3267C37.5825 57.4686 38.1684 57.5579 38.3369 57.9386C38.4867 58.1208 38.4241 58.3533 38.2487 58.4759C37.9528 58.8019 37.3608 58.5913 37.0082 58.4555C36.5832 58.2918 36.1714 58.0951 35.7786 57.8643C35.0161 57.4162 34.3131 56.8591 33.6582 56.2665C32.9742 55.6475 32.329 54.9899 31.6637 54.3515C31.3755 54.0749 31.0939 53.7918 30.8052 53.5156L30.6602 53.3781C30.5129 53.2398 30.303 53.0242 30.0785 52.8937C29.6557 53.1462 29.2264 53.3883 28.8074 53.6473C28.2225 54.0088 27.6548 54.3963 27.0959 54.7967C26.0199 55.5674 25.0002 56.4306 24.0536 57.3558C22.3175 59.0525 20.8385 60.9901 19.5463 63.0417L19.4482 63.1981C18.714 64.3723 18.0196 65.5845 17.5273 66.882C16.9856 68.3099 16.7221 69.8114 16.579 71.327C16.437 72.8318 16.3891 74.3442 16.2303 75.8476C16.0675 77.3895 15.7467 78.8973 15.3819 80.4023L15.2949 80.7592C14.9647 82.107 14.624 83.4549 14.4543 84.8346C14.3637 85.5716 14.3092 86.3186 14.3215 87.0616C14.3339 87.8088 14.4512 88.5396 14.5458 89.279C14.5821 89.5622 14.3036 89.7986 14.0545 89.8362C13.7679 89.8792 13.5217 89.6962 13.4326 89.4298C13.1549 88.5991 13.1045 87.6808 13.1132 86.8089C13.122 85.9237 13.2348 85.0443 13.3937 84.1743C13.706 82.4632 14.188 80.7874 14.5912 79.0968C14.9465 77.6066 15.185 76.1139 15.3136 74.5873C15.447 73.0035 15.5269 71.4143 15.7704 69.8419C16.0106 68.2896 16.4628 66.8069 17.1446 65.3914C17.7655 64.1027 18.5394 62.8897 19.3507 61.7139C20.336 60.2862 21.4181 58.9276 22.6277 57.6897C22.5191 57.685 22.4075 57.6498 22.3051 57.5859C21.9916 57.3902 21.8456 57.0073 21.8007 56.6578C21.6957 55.84 21.7211 54.9863 21.9312 54.1868C22.2701 52.897 23.1497 51.751 24.4245 51.2861C24.7527 51.1664 25.1015 51.1227 25.4493 51.1141C25.7792 51.1059 26.1396 51.149 26.458 51.0443C26.9649 50.8775 27.1821 50.28 27.3724 49.8271L27.3811 49.8063C27.6251 49.2291 27.918 48.7344 28.4465 48.3741C29.0104 47.9895 29.7168 47.8146 30.382 47.7017V47.7017ZM44.8061 49.9842C45.2623 49.8258 45.8326 49.9696 46.2787 50.1079C46.7757 50.2622 47.235 50.5462 47.6288 50.8836C48.0442 51.2394 48.3875 51.6787 48.63 52.1694L48.6532 52.2167C48.8747 52.6719 49.127 53.2969 49.0153 53.797C49.0121 53.8112 49.0085 53.8248 49.0043 53.8381C49.9094 54.2841 50.7453 54.8427 51.4732 55.5507C52.3208 56.3751 53.0384 57.3132 53.6458 58.3267C56.0579 62.352 56.4824 67.1864 56.7673 71.7769L56.8384 72.9408C56.993 75.4542 57.1741 77.9616 57.6443 80.4403L57.6786 80.6193C58.1813 83.2145 58.9008 85.8295 58.828 88.4917C58.8061 89.2894 57.6284 89.284 57.5943 88.4917C57.4657 85.5098 56.7706 82.6307 56.2998 79.6953C55.4715 74.5311 55.8865 69.207 54.7129 64.0944C54.2524 62.0881 53.5389 60.1419 52.5201 58.351C52.0169 57.4662 51.4411 56.6113 50.7666 55.8481C50.1863 55.1913 49.5832 54.5593 48.9051 54.0072C48.6883 54.2245 48.2554 54.1137 48.1422 53.797C48.0645 53.5793 48.0872 53.3248 48.0373 53.0968C47.991 52.8852 47.9272 52.6754 47.8422 52.4761C47.6727 52.0789 47.4239 51.6976 47.1367 51.3761C46.8265 51.0287 46.4699 50.74 46.0709 50.5017C45.6691 50.2617 45.2298 50.1901 44.8061 50.0147C44.7918 50.0088 44.7905 49.9897 44.8061 49.9842ZM46.5784 77.5838C46.5791 77.5629 46.6038 77.553 46.619 77.567C46.7789 77.7143 46.8756 77.9257 46.9933 78.107C47.129 78.3159 47.2716 78.5206 47.421 78.72C47.7205 79.1194 48.054 79.4959 48.39 79.8648C48.7026 80.2078 49.0357 80.5364 49.3813 80.8461C49.7557 81.1818 50.1753 81.4812 50.5154 81.8528C51.2252 82.6283 51.3399 83.6927 51.4896 84.692L51.506 84.8001C51.5974 85.3932 51.6792 85.9879 51.753 86.5834C51.7889 86.8731 51.8246 87.163 51.8539 87.4534L51.8628 87.5454C51.8889 87.8297 51.8959 88.1182 51.7328 88.3666C51.5582 88.6323 51.1612 88.7255 50.9252 88.4707C50.5197 88.0329 50.5957 87.2553 50.543 86.6921C50.4994 86.2264 50.45 85.7612 50.3946 85.2968L50.3664 85.0646C50.3012 84.5363 50.2482 83.9974 50.1275 83.4782C50.0211 83.021 49.8182 82.6759 49.4854 82.3447C49.1501 82.0111 48.8018 81.6996 48.4923 81.3403C48.1641 80.9592 47.868 80.5506 47.6012 80.1241C47.373 79.7593 47.1901 79.3624 47.0226 78.9659L46.9948 78.8998C46.8328 78.5132 46.5658 78.0098 46.5784 77.5838ZM52.4331 60.9752C52.4367 60.9213 52.5163 60.9205 52.5175 60.9752C52.5276 61.4391 52.5372 61.9029 52.5469 62.3668C52.6242 66.1047 52.5765 69.8514 52.9512 73.5765C53.1279 75.3329 53.4532 77.0634 53.8297 78.7867C54.0224 79.6685 54.2245 80.5482 54.4165 81.4302C54.6037 82.2897 54.8044 83.1534 54.9529 84.0209C55.0987 84.8735 55.2294 85.7327 55.288 86.5963L55.2953 86.7089C55.3205 87.1272 55.441 87.7425 55.2109 88.1133C54.9616 88.515 54.4842 88.5222 54.217 88.1388C53.9662 87.7788 54.0285 87.1384 53.9842 86.7089C53.9392 86.2714 53.8915 85.8335 53.8374 85.3969C53.7319 84.5454 53.5928 83.6958 53.4482 82.8501C53.1469 81.0888 52.71 79.3497 52.3875 77.5913C52.0569 75.7894 51.822 73.9747 51.8121 72.1402C51.8022 70.29 51.9979 68.4435 52.0966 66.5974C52.197 64.7224 52.311 62.8488 52.4331 60.9752ZM34.7934 49.3491C34.8937 49.0111 35.2475 48.7999 35.5927 48.8948C35.909 48.9818 36.1702 49.3661 36.0465 49.6949C35.9115 50.0537 35.6757 50.3597 35.4768 50.6858C35.2932 50.9871 35.0253 51.2244 34.8382 51.5203L35.0444 51.7428C35.1475 51.8538 35.251 51.9641 35.3555 52.0726L35.7151 52.4454C35.9952 52.7352 36.277 53.0234 36.5668 53.3032C37.4189 54.1259 38.2844 54.9216 39.2387 55.6261C39.4559 55.7864 39.6748 55.9458 39.8999 56.0951L39.9838 56.1508C40.1382 56.252 40.3105 56.3515 40.497 56.3343C40.9502 56.2927 41.3597 55.8108 41.6712 55.511L41.6875 55.4953C42.4593 54.7602 43.174 53.9565 43.7988 53.0923C43.9375 52.9003 44.0719 52.705 44.2027 52.5074C43.9006 52.1542 43.9727 51.4647 43.9561 51.0363C43.9443 50.7351 43.9434 50.4338 43.9418 50.1324L43.941 50.0716C43.9373 49.8765 43.9285 49.6893 44.055 49.5288C44.0624 49.5195 44.0776 49.5198 44.087 49.5247C44.2602 49.6156 44.3136 49.7677 44.3876 49.9384L44.3953 49.9561C44.4853 50.161 44.5714 50.3677 44.6586 50.5737C44.7498 50.7895 44.8335 51.0083 44.9183 51.2266C44.9578 51.3282 44.9955 51.4301 45.0323 51.5326C45.0547 51.5981 45.078 51.6632 45.1018 51.7282L45.1074 51.7332C45.1389 51.76 45.1656 51.7882 45.1886 51.8174C45.2853 51.8658 45.3621 51.954 45.3982 52.0836C45.4766 52.3657 45.3143 52.5957 45.1695 52.8196C44.5812 53.7292 43.9107 54.5961 43.1654 55.3824C42.7951 55.7731 42.4057 56.1462 42.0002 56.5001L41.9294 56.5615C41.5651 56.8749 41.1697 57.1717 40.6833 57.2449C40.114 57.3307 39.6508 57.0473 39.215 56.7209L39.1715 56.6881C38.7584 56.3751 38.3536 56.0511 37.9615 55.7121C37.1619 55.0211 36.4012 54.2791 35.7261 53.4651C35.0694 52.6733 34.4203 51.7879 34.0155 50.8352C33.9908 50.7771 34.0557 50.7164 34.1065 50.7649C34.3042 50.9533 34.4945 51.1519 34.6825 51.3531C34.6877 51.0569 34.6331 50.7583 34.6635 50.4603C34.7005 50.098 34.6898 49.6978 34.7934 49.3491Z" fill="black"/>
<path fill-rule="evenodd" clip-rule="evenodd" d="M52.1157 41.2551C52.4916 38.5385 51.6888 35.9169 50.6488 33.4342C50.5917 33.283 50.5011 33.152 50.3847 33.0589C47.4497 27.1354 43.1372 26.599 37.1208 27.0069C36.9431 27.0029 36.9325 27.0061 36.7975 26.9456C36.7752 24.5393 34.0307 23.2647 31.9422 24.0586C22.6796 28.3689 25.5921 40.5035 27.4353 48.4256C28.0929 51.4923 28.7507 54.5588 29.4084 57.6254C29.4305 57.728 29.4771 57.8166 29.539 57.8914C29.4434 57.9276 29.3479 57.9617 29.2541 57.9936C29.0401 58.0666 29.1251 58.386 29.3479 58.3342C29.5661 58.2835 29.7765 58.2155 29.9846 58.1414C30.309 58.2119 30.581 57.9997 30.8357 57.8304C33.8182 56.6494 35.0702 52.768 35.8353 49.9087C38.9455 52.1061 43.9152 53.7518 47.4714 51.7758C50.8035 49.7665 52.0035 45.5749 51.7668 41.8754C52.01 41.7634 52.1081 41.5191 52.1145 41.2644H52.1159C52.1159 41.2613 52.1157 41.2582 52.1157 41.2551V41.2551Z" fill="white"/>
<path fill-rule="evenodd" clip-rule="evenodd" d="M31.0878 24.2849C31.7755 23.8389 32.658 23.6729 33.4682 23.7054C33.9003 23.7227 34.3037 23.8305 34.702 23.9926C35.0712 24.1428 35.3967 24.3586 35.7562 24.523C35.7781 24.533 35.7616 24.5637 35.7409 24.5595C35.3152 24.4734 34.8154 24.5254 34.3837 24.587L34.3408 24.5932C33.9165 24.6549 33.4848 24.6868 33.0666 24.7847C32.2963 24.965 31.5798 25.3578 31.157 26.0412C30.6049 26.9336 30.4634 28.0889 30.5224 29.1185C30.5523 29.6395 30.6548 30.152 30.8146 30.6487C30.9105 30.9467 31.1332 31.2466 31.2373 31.5594C31.3165 31.4114 31.3982 31.2648 31.4829 31.12C31.0972 30.938 30.9891 30.4322 30.9691 29.9757C30.9097 29.9182 30.8715 29.835 30.8702 29.7586C30.8668 29.5533 30.9151 29.3674 30.9971 29.1973C31.044 28.7155 31.1432 28.2352 31.3141 27.7837C31.9849 26.0113 33.7544 24.4138 35.7611 24.5716C36.3127 24.615 36.8493 24.8495 37.1345 25.3481C37.3636 25.7484 37.3651 26.2313 37.2071 26.6571C37.1602 26.7835 37.0993 26.8977 37.0277 27.0018C37.2445 26.9467 37.4617 26.8939 37.6785 26.8416C38.4308 26.66 39.1869 26.5177 39.9571 26.4386C41.0061 26.3309 42.0766 26.4939 43.0378 26.9131C43.3014 26.981 43.5638 27.0539 43.8246 27.1318C44.9721 27.4744 46.1494 27.9219 47.0762 28.704C47.5027 29.0638 47.8079 29.4823 48.0556 29.942C48.9834 30.7703 49.8706 31.7093 50.4969 32.7835C51.7873 34.9966 52.0955 37.7342 52.1485 40.2502C52.1972 42.5615 51.9945 44.8964 51.5619 47.1674C51.3655 48.1981 51.0481 49.1559 50.4059 50.0011C49.6908 50.9424 48.737 51.6839 47.6667 52.1815C45.4878 53.1945 42.791 53.3419 40.673 52.0868C40.036 51.7094 40.6096 50.7255 41.2531 51.0932C43.344 52.288 46.0125 52.0151 48.0243 50.7484C48.8742 50.2133 49.6067 49.4816 50.0719 48.5856C50.4117 47.9311 50.5575 47.1806 50.6838 46.4499L50.7509 46.059C51.1407 43.8119 51.3169 41.507 51.2232 39.2274C51.1296 36.9534 50.7694 34.4905 49.4831 32.5572C48.8046 31.5375 47.9394 30.6442 47.0307 29.8297C46.9668 29.7725 46.9029 29.7154 46.8388 29.6586C46.4836 29.4449 46.1155 29.2583 45.7533 29.099L45.6762 29.0656C45.4678 28.9767 45.1765 28.8618 44.9061 28.7699C44.5197 28.6386 44.127 28.522 43.7326 28.4168C43.5259 28.3617 43.3183 28.3111 43.11 28.2628C43.1826 28.3295 43.2548 28.3968 43.3257 28.4657C43.6615 28.7925 43.9279 29.1808 44.2463 29.5234C44.2823 29.5621 44.2369 29.6185 44.1912 29.5949C43.707 29.3462 43.17 29.1851 42.6644 28.9836C42.1864 28.793 41.7219 28.5736 41.2523 28.3633C41.1347 28.3106 41.0175 28.2543 40.9005 28.1985C40.4388 28.2033 39.977 28.2142 39.5163 28.2405C40.0733 28.6375 40.5819 29.1067 41.0033 29.6212C41.038 29.6636 41.0064 29.7314 40.9479 29.7164C40.0659 29.4903 39.2271 29.1579 38.3888 28.8096L37.9877 28.6424V28.6424C37.6928 28.6274 37.3976 28.6205 37.1023 28.6248L36.9592 28.6272C36.6492 28.6331 36.3398 28.6454 36.0325 28.6925C35.9595 28.7036 35.8879 28.7142 35.8167 28.7239C35.3843 28.9006 34.9683 29.1137 34.5939 29.3945L34.6914 29.3887V29.3887C35.2834 29.355 35.8869 29.406 36.4601 29.559C37.574 29.8565 38.5244 30.5728 39.2159 31.4861C39.2366 31.5134 39.1964 31.5515 39.1693 31.5329C38.2992 30.9364 37.2901 30.636 36.2562 30.4728C35.7564 30.3939 35.2417 30.3667 34.7372 30.406C34.3194 30.4385 33.8873 30.5859 33.4716 30.5144C33.3583 30.6557 33.2495 30.8012 33.1448 30.95C33.1998 30.9464 33.2551 30.9432 33.3108 30.9406C33.9077 30.9125 34.5156 30.9509 35.0984 31.0885C36.2625 31.3634 37.2353 32.0632 38.1252 32.8315C38.1428 32.8467 38.1201 32.8738 38.1011 32.8629C37.136 32.3052 36.0143 32.1385 34.921 32.0378C34.3705 31.9872 33.8137 31.9642 33.262 32.0082C33.0092 32.0283 32.7593 32.0701 32.5072 32.096C32.4868 32.0981 32.4657 32.0987 32.4447 32.0996C32.262 32.4446 32.0964 32.7957 31.947 33.1458C32.403 33.0233 32.8949 32.959 33.3658 32.9907C34.322 33.0552 35.2706 33.4942 36.0339 34.0558C36.0578 34.0734 36.0445 34.1201 36.012 34.1079C35.1811 33.7935 34.3574 33.791 33.4903 33.9123C33.0837 33.9691 32.6813 34.0463 32.2886 34.1674C32.0911 34.2283 31.8959 34.2947 31.7085 34.3821C31.6234 34.4217 31.5406 34.4679 31.4568 34.5115C31.3898 34.7393 31.3299 34.9691 31.2759 35.2004C32.6933 35.2805 34.0286 35.9504 35.1906 36.7192C35.2187 36.7378 35.2012 36.7896 35.1665 36.7765C34.4728 36.5144 33.7182 36.3932 32.9823 36.3226C32.3389 36.261 31.7076 36.2945 31.0679 36.3125C31.0336 36.5559 31.0059 36.8 30.9858 37.0446C31.0886 37.0734 31.1895 37.1046 31.2866 37.1338C31.6057 37.2298 31.9243 37.3591 32.2221 37.5089C32.827 37.8133 33.3171 38.2248 33.8103 38.6822C33.8361 38.7061 33.8092 38.7582 33.7743 38.744C33.2019 38.5123 32.5764 38.3639 31.9738 38.2326C31.6619 38.1647 31.3499 38.102 31.0359 38.0444C31.0055 38.0388 30.9746 38.0341 30.9438 38.0295C30.9408 38.5872 30.9723 39.145 31.0417 39.6982L31.0552 39.8019C31.0928 40.0819 31.062 40.3528 30.8769 40.5462C31.133 40.3757 31.426 40.2577 31.7507 40.2124C32.6058 40.0932 33.3977 40.4354 33.9358 41.0971C33.961 41.1281 33.9221 41.1686 33.8915 41.1414C33.3693 40.6761 32.5646 40.5938 31.916 40.8128C31.3156 41.0156 30.8642 41.4998 30.6833 42.1056C30.4911 42.7494 30.5791 43.4601 30.9297 44.034C31.1043 44.3199 31.3566 44.5755 31.6723 44.7013C31.7113 44.7168 31.751 44.7298 31.7911 44.741C31.9816 44.6712 32.1867 44.7028 32.3826 44.7913L32.4081 44.8032V44.8032C32.5331 44.8025 32.6575 44.7987 32.7785 44.7998C33.0139 44.802 33.1271 45.0523 33.0283 45.2385C33.0843 45.3413 33.1253 45.4567 33.1745 45.5574C33.2634 45.7391 33.3565 45.9197 33.4501 46.0991C33.5825 46.2511 33.7089 46.4085 33.7947 46.592C33.8299 46.6673 33.8631 46.7489 33.8886 46.8306C33.9622 46.9414 34.0369 47.0516 34.1135 47.1612C34.3611 47.5154 34.6219 47.8509 34.9111 48.1724C35.0849 48.3657 35.2848 48.5382 35.4688 48.7234C35.5246 48.7308 35.5793 48.7689 35.5965 48.8236L35.6116 48.8759V48.8759C35.6708 48.9428 35.7276 49.0117 35.7787 49.0851C35.892 49.2479 35.861 49.4131 35.7614 49.5321C35.9191 50.5175 35.8117 51.5659 35.6007 52.5215C35.4643 53.1389 35.305 53.7557 35.0912 54.3513C34.9825 54.6541 34.8509 54.9449 34.669 55.2108C34.5693 55.3566 34.4394 55.5263 34.2938 55.665C34.2716 55.8264 34.2428 55.9864 34.2016 56.1433C33.7131 58.0027 31.7131 58.5687 30.0385 58.8062C29.7153 58.852 29.3954 58.7738 29.2194 58.4724C29.1787 58.4028 29.1514 58.3277 29.1367 58.2506C29.0638 58.2312 28.9936 58.1969 28.9307 58.1478C28.9202 58.2643 28.9081 58.3812 28.8927 58.4994C28.8544 58.7949 28.4561 58.8837 28.3563 58.5721C27.935 57.2569 27.7062 55.8702 27.4175 54.5188C27.1294 53.1702 26.8077 51.8288 26.5101 50.4823L26.1332 48.7829C25.2135 44.6217 24.3521 40.4073 24.5635 36.1275C24.679 33.7913 25.107 31.4612 26.0233 29.3023C26.7865 27.5039 28.0747 25.4834 30.1555 25.1157C30.1698 25.1132 30.1826 25.1147 30.1945 25.1177C30.4416 24.7959 30.7368 24.5126 31.0878 24.2849ZM32.3434 46.9045C32.5112 47.462 32.631 48.0334 32.6962 48.6166C32.8048 49.5886 32.7509 50.5843 32.7038 51.5589C32.6604 52.4543 32.5574 53.3574 32.3821 54.2367C32.2138 55.0808 31.9501 55.9085 31.558 56.6765C31.4946 56.8007 31.4264 56.9216 31.3548 57.0402C31.5716 56.9678 31.7674 56.8836 31.9713 56.7668C32.2279 56.6198 32.4628 56.4302 32.5913 56.2302C32.7975 55.9094 32.8667 55.553 32.8968 55.1706C32.9744 54.1872 33.0103 53.201 33.0597 52.216L33.0707 52.0015C33.1507 50.4625 33.2555 48.8841 33.0989 47.3435C32.8786 47.2855 32.6798 47.1717 32.4963 47.0289C32.4457 46.9895 32.3946 46.9478 32.3434 46.9045ZM30.6676 45.0409C30.7139 45.5091 30.7582 45.9773 30.7983 46.4459C30.9406 48.1092 31.0285 49.7817 30.9477 51.4508C30.9055 52.3199 30.8209 53.1916 30.6747 54.0497C30.6088 54.4364 30.5291 54.8231 30.4401 55.2057L30.41 55.3331C30.3197 55.7121 30.2621 56.1857 29.9727 56.4613L29.9749 56.5185V56.5185C30.178 56.2098 30.3659 55.8627 30.5005 55.5396C31.1 54.1 31.2095 52.5329 31.3178 50.998C31.3846 50.052 31.4341 49.1048 31.5113 48.1596L31.5488 47.7047C31.5919 47.1754 31.6289 46.6499 31.6239 46.1211C31.5084 45.9487 31.4146 45.7674 31.3563 45.5813C31.347 45.5513 31.3405 45.5211 31.336 45.4908C31.0918 45.3749 30.8619 45.2168 30.6676 45.0409ZM33.9492 48.3347C34.0696 48.7361 34.168 49.1426 34.238 49.5508C34.3495 50.2005 34.4165 50.8543 34.4459 51.5103L34.5074 51.2786C34.6624 50.6989 34.827 50.1184 35.0311 49.5559C34.7083 49.3296 34.4386 48.9742 34.204 48.6772C34.1163 48.5662 34.0313 48.4517 33.9492 48.3347ZM29.3267 30.4846C29.2027 30.8856 29.0942 31.2911 28.9822 31.6953C28.719 32.6449 28.5481 33.6204 28.4295 34.5978C27.9563 38.5003 28.3504 42.4185 28.8658 46.2955C29.0794 47.9018 29.3116 49.5058 29.5109 51.1141C29.5161 50.9562 29.5206 50.7984 29.5234 50.6408C29.584 47.2272 29.0102 43.8613 28.7804 40.4653L28.7666 40.2584C28.6625 38.6705 28.5988 37.053 28.7873 35.471C28.8843 34.6567 29.0551 33.8598 29.2825 33.0729L29.4179 32.6107C29.5094 32.3 29.6066 31.9809 29.722 31.6715C29.7066 31.6419 29.6919 31.612 29.6783 31.582C29.5186 31.2305 29.4075 30.8611 29.3267 30.4846ZM29.7265 25.8845C28.5354 27.4221 27.536 29.0555 26.9313 30.9342C25.5474 35.234 25.8564 39.8318 26.6584 44.2146C27.0363 46.2796 27.5236 48.3206 27.9682 50.3713C27.4923 46.6888 26.8785 43.0143 26.7808 39.2964C26.7274 37.2672 26.8322 35.2285 27.2055 33.2307L27.2276 33.1132C27.3876 32.2689 27.5858 31.3743 27.9915 30.6156C28.2117 30.2035 28.4549 29.8191 28.7433 29.451C28.8649 29.2958 29.0015 29.1714 29.1463 29.0576C29.1038 27.9976 29.2639 26.8481 29.7265 25.8845ZM31.6696 42.2675C32.2622 42.2909 32.8542 42.4563 33.3208 42.8419C33.6858 43.1435 33.1652 43.6533 32.8032 43.3602C32.4095 43.0415 32.0563 42.6795 31.6366 42.3896C31.5866 42.3551 31.6003 42.2648 31.6696 42.2675ZM30.6866 40.6866C30.5549 40.7546 30.424 40.7684 30.2748 40.7317C30.2693 40.7303 30.2641 40.7288 30.2589 40.7272L30.2284 40.7173C30.2415 40.8587 30.2552 41.0002 30.2688 41.1417C30.3892 40.9719 30.5288 40.8181 30.6866 40.6866ZM30.0968 32.1492C30.0444 32.5879 30.0102 33.0288 29.992 33.4703C29.9743 33.9005 29.967 34.332 29.965 34.7636L29.9644 34.9486L29.9652 34.9451C30.1689 34.0748 30.4571 33.2182 30.8251 32.3986C30.7617 32.4091 30.6974 32.4074 30.634 32.3998C30.4891 32.3822 30.3501 32.3179 30.2258 32.2426C30.1805 32.2151 30.1379 32.1831 30.0968 32.1492ZM36.1409 27.0637C35.8876 27.1784 35.6431 27.3101 35.3889 27.4221C34.8849 27.6443 34.3918 27.9025 33.9253 28.1957C33.4533 28.4925 32.9986 28.8049 32.5804 29.175C32.5314 29.2184 32.4829 29.2622 32.4344 29.3061C32.4246 29.4018 32.4175 29.4978 32.4143 29.5947C32.4126 29.6468 32.4125 29.7012 32.4132 29.7572C33.2023 28.7784 34.1563 28.0061 35.3666 27.5204C35.5764 27.4361 35.7897 27.3611 36.0049 27.2918C36.0561 27.2205 36.102 27.1449 36.1409 27.0637ZM36.1183 26.1248C35.9776 25.9378 35.5731 25.953 35.318 25.9947C34.9056 26.0622 34.5423 26.2065 34.1888 26.4156C33.771 26.6626 33.4106 26.9971 33.1286 27.3907C33.2674 27.3123 33.4088 27.2383 33.5531 27.1697L33.6521 27.1229C34.1989 26.8662 34.7912 26.6222 35.3893 26.5426C35.6661 26.5058 35.9637 26.4525 36.2432 26.4825C36.2295 26.3464 36.189 26.2188 36.1183 26.1248Z" fill="black"/>
<path fill-rule="evenodd" clip-rule="evenodd" d="M44.5925 46.9713C44.1845 46.8046 43.8205 46.5267 43.5544 46.1715C43.4619 46.0481 43.4379 45.9177 43.4573 45.7985C43.4791 45.6644 43.5584 45.5429 43.6664 45.4614C43.7747 45.3797 43.9103 45.3394 44.0413 45.3599C44.1552 45.3778 44.2685 45.4402 44.3582 45.5697L44.377 45.5956C44.5352 45.8099 44.7413 45.9857 44.9763 46.0991C45.2027 46.2083 45.4559 46.2593 45.7179 46.2297C46.217 46.1732 46.561 45.903 46.9266 45.5359C46.9719 45.4896 47.0173 45.4418 47.0628 45.3932C47.0916 45.3492 47.1315 45.3209 47.1759 45.3061C47.2251 45.2896 47.2808 45.2905 47.3318 45.3084C47.381 45.3256 47.425 45.3581 47.4545 45.4015C47.4825 45.4427 47.4984 45.4936 47.4933 45.5522C47.4598 45.9325 47.2612 46.272 46.9791 46.5385C46.6658 46.8346 46.2505 47.0394 45.8596 47.1112C45.4288 47.1903 44.9899 47.1336 44.5925 46.9713V46.9713ZM46.0628 41.1035C46.521 41.3824 47.2193 42.0328 46.7263 42.7243C46.146 43.3341 45.3105 42.635 44.8988 42.3188C44.517 42.0738 44.0881 42.704 44.4423 42.9901C47.4174 45.1957 48.6247 41.1764 46.2945 40.7755C46.038 40.7314 45.9427 41.0172 46.0628 41.1035ZM40.7314 38.5378C40.7821 37.9085 41.7392 37.7655 41.8345 38.3883C41.9197 38.9462 41.8194 39.4586 41.5684 39.9609C41.3286 40.4407 40.726 40.2168 40.6804 39.7799C40.6193 39.1942 40.6999 38.9293 40.7314 38.5378ZM48.0176 38.2592C48.1511 38.0842 48.3438 37.9647 48.5746 38.0322C49.2959 38.2433 49.0833 39.2686 48.83 39.7677C48.6923 40.0387 48.2474 40.1075 48.0464 39.8688C47.7187 39.4797 47.5618 38.7025 47.9784 38.3192C47.9896 38.2993 48.0022 38.2794 48.0176 38.2592ZM41.5583 35.784L41.6722 35.764C42.0246 35.703 42.4629 35.6443 42.7122 35.9281C42.8444 36.0786 42.89 36.3582 42.7122 36.5022C42.3995 36.7556 42.0539 36.6574 41.6792 36.6789C41.3704 36.6966 41.0737 36.7478 40.7763 36.8329C40.1238 37.0197 39.5921 37.3606 39.0348 37.7349C38.9617 37.784 38.887 37.6904 38.9219 37.6219C39.2436 36.9909 39.8671 36.4726 40.4915 36.1567C40.8248 35.9881 41.1895 35.8482 41.5583 35.784ZM47.3601 35.5014L47.4473 35.5192C48.3963 35.7179 49.6292 36.1146 50.0786 37.048C50.0957 37.18 50.0776 37.2083 50.0629 37.2268L50.058 37.2329C50.0459 37.2487 50.0362 37.2705 49.9791 37.2884C49.9633 37.2846 49.9472 37.2806 49.9311 37.2764C49.7251 37.2223 49.5621 37.1479 49.4043 37.0706L49.2332 36.9862C49.0348 36.8887 48.8345 36.7948 48.6223 36.7255C48.1695 36.5776 47.7037 36.4734 47.2307 36.4178C47.1282 36.4057 47.0295 36.3711 46.9516 36.3117C46.8776 36.2553 46.8212 36.1773 46.7954 36.0736C46.762 35.9393 46.7716 35.8377 46.8436 35.7166C46.8976 35.6256 46.975 35.5626 47.0639 35.5264C47.1545 35.4895 47.2576 35.4808 47.3601 35.5014Z" fill="black"/>
</svg>
