<svg width="60" height="88" viewBox="0 0 60 88" fill="none" xmlns="http://www.w3.org/2000/svg">
<g clip-path="url(#clip0_240_6183)">
<path fill-rule="evenodd" clip-rule="evenodd" d="M52.6896 88.8369C53.8551 88.7797 53.3863 86.7089 53.3027 85.9484C52.3799 83.1706 52.5968 80.1401 52.2339 77.2286C52.0078 74.5106 51.7173 71.8012 51.4729 69.0853C50.9929 63.5724 47.5464 52.3496 43.6133 50.5447C43.1179 48.3366 41.0715 46.2753 38.4824 46.2753C36.7165 44.1522 34.5911 42.6579 31.8649 42.9596C30.7383 43.0117 29.6457 44.2254 28.5662 44.4597C27.9618 44.5444 22.5979 44.3265 21.5234 44.9747C20.7749 45.365 20.0993 46.0863 20.3194 47.0047C20.6705 48.1172 19.5793 46.9134 17.303 48.1009C12.6614 50.9324 15.4351 54.7205 15.558 54.8378C12.6614 58.9313 10.1297 62.2523 8.95828 67.2557C8.19911 70.9704 8.28456 74.8051 7.64848 78.5388C7.42389 79.8335 7.07934 81.0838 6.7065 82.341C6.30243 83.9864 6.10595 88.0872 5.88322 88.1239C5.47752 88.2262 6.1177 89.0724 6.54759 89.073C18.4662 91.0811 30.5727 89.1562 42.5554 88.8417C45.9323 88.7224 49.3128 88.6949 52.6896 88.8369Z" fill="white"/>
<path fill-rule="evenodd" clip-rule="evenodd" d="M34.6258 55.1991C34.6313 55.1437 34.7049 55.1438 34.7106 55.1991L34.7947 56.0242C34.8971 57.0319 34.9956 58.0377 35.0671 59.0501C35.1562 60.3126 35.2158 61.5747 35.2445 62.84C35.3446 67.2468 35.3645 71.6559 35.3729 76.0637C35.9598 76.0225 36.5467 75.9827 37.134 75.9442C37.5324 75.9181 37.9308 75.893 38.3293 75.8683L39.3454 75.8058V75.8058L39.7637 75.7797C40.0463 75.7619 40.3675 75.6896 40.5651 75.944C40.6442 76.0458 40.6839 76.1781 40.6102 76.299C40.44 76.5778 40.1787 76.568 39.8831 76.5801C39.6043 76.5915 39.3254 76.6028 39.0465 76.6137C38.4489 76.6372 37.8514 76.6595 37.2536 76.6765C36.6262 76.6944 35.9992 76.7089 35.3721 76.7198C35.3657 78.5806 35.2899 80.4391 35.208 82.2979L35.1709 83.1343C35.0706 85.3964 34.9627 87.6604 34.8095 89.9194C34.7969 90.1043 34.5393 90.104 34.5268 89.9194C34.3542 87.3754 34.2403 84.8259 34.1274 82.2785C34.0455 80.4315 33.9979 78.584 33.9752 76.7362C33.8923 76.7368 33.8094 76.738 33.7265 76.7383C31.3728 76.7487 29.0197 76.7591 26.666 76.7367C26.6699 76.7414 26.6738 76.7461 26.6764 76.7524C26.8467 77.1608 26.8629 77.6819 26.8588 78.1203C26.854 78.6229 26.7874 79.1195 26.6734 79.6084C26.265 81.3596 25.2117 82.9282 24.0119 84.225L23.9728 84.2672C23.6898 84.5709 23.3652 84.876 23.1914 85.2629C23.0139 85.6579 22.9523 86.1199 22.8647 86.5443L22.8545 86.5931L22.5121 88.1997C22.4033 88.71 22.3724 89.4542 21.9747 89.8224C21.6037 90.1659 21.1122 89.9865 20.9376 89.5442C20.8012 89.199 20.937 88.8199 21.0178 88.4749L21.6505 85.7734C21.7545 85.3328 21.8681 84.8894 22.0924 84.4936C22.3223 84.0883 22.6592 83.7944 23.0031 83.4937C23.6541 82.9244 24.2518 82.2726 24.7572 81.5669C25.2625 80.8615 25.6943 80.0838 25.9971 79.2662C26.1487 78.8568 26.273 78.4316 26.3587 78.0029C26.4402 77.5961 26.4394 77.1747 26.5266 76.7723C26.5326 76.7444 26.5557 76.7254 26.5821 76.7169C26.5759 76.699 26.5854 76.6747 26.6102 76.6731L28.5351 76.5475C30.2462 76.4354 31.9572 76.3204 33.6668 76.189L33.9689 76.1668V76.1668C33.9454 73.7015 33.9653 71.2356 34.0092 68.7694C34.0493 66.5078 34.0502 64.2455 34.1164 61.9842C34.1493 60.8619 34.2203 59.7422 34.2993 58.6223C34.3801 57.4768 34.5095 56.3411 34.6258 55.1991ZM16.5514 68.3125C16.5309 68.1869 16.6864 68.1091 16.7582 68.2239C17.5778 69.5362 17.973 70.9616 18.1396 72.4973C18.2868 73.8527 18.2434 75.2276 18.1701 76.5865C18.092 78.0358 18.0008 79.4849 17.9086 80.9334L17.7669 83.1549V83.1549L17.4114 88.7238C17.3859 89.1222 17.2969 89.4844 16.9592 89.6696C16.9165 89.7059 16.8719 89.7384 16.82 89.7666C16.6375 89.8656 16.3956 89.8156 16.2901 89.6254L16.3324 89.6537C16.3692 89.6772 16.3279 89.6443 16.2083 89.5551L16.1068 89.4217V89.4217C16.033 89.3091 15.9859 89.1984 15.967 89.0645C15.9375 88.8566 15.9756 88.6284 15.989 88.4194L16.2221 84.7677V84.7677C16.4033 81.9288 16.6149 79.0907 16.7744 76.2503C16.8487 74.9265 16.9008 73.6014 16.8656 72.2753C16.8305 70.9565 16.7643 69.6154 16.5514 68.3125ZM23.6423 43.8669L23.6877 43.8591C25.3158 43.5844 27.0861 43.6358 28.574 44.433C28.5863 44.4396 28.5807 44.4603 28.5669 44.4597L28.088 44.4403C26.5719 44.38 25.0605 44.3443 23.5697 44.7061L23.4171 44.7434C22.8803 44.8764 22.3196 45.0393 21.8884 45.3994C21.4762 45.7437 21.271 46.2747 21.0737 46.7636L21.0473 46.8282C20.8471 47.311 20.5936 47.769 20.1548 48.0709C19.5864 48.4619 18.9028 48.414 18.251 48.4671C17.1034 48.5608 16.1652 49.4055 15.6984 50.4393C15.4157 51.0652 15.2952 51.767 15.2713 52.4515C15.259 52.8 15.2573 53.1621 15.303 53.5083C15.3176 53.619 15.4523 54.0222 15.521 54.0126C15.6737 53.9911 15.8132 54.0719 15.8608 54.1958C16.2379 53.8258 16.6258 53.4665 17.0262 53.1201C18.0242 52.2568 19.0993 51.4743 20.2314 50.8019C21.0955 50.2887 22.0069 49.7803 22.9506 49.3959C22.8759 49.3943 22.8021 49.4093 22.7307 49.447C22.6995 49.4636 22.6684 49.4238 22.6931 49.3975C22.9904 49.0798 23.3465 49.0346 23.7054 49.1193C23.782 49.0945 23.8587 49.0706 23.9356 49.0479C23.9739 49.0365 23.993 49.0901 23.9617 49.1108L23.8736 49.168V49.168C24.2651 49.3013 24.6496 49.5632 24.954 49.7698C25.8284 50.3634 26.598 51.089 27.3782 51.801L27.52 51.9301C28.2067 52.5529 28.9109 53.1581 29.6912 53.6577C30.0996 53.9193 30.5286 54.1612 30.9785 54.3411C31.3644 54.4955 31.9928 54.5927 32.1736 55.007C32.3342 55.2053 32.2671 55.4583 32.0789 55.5917C31.7616 55.9464 31.1268 55.7173 30.7486 55.5695C30.2927 55.3914 29.8511 55.1773 29.4299 54.9262C28.6122 54.4385 27.8582 53.8323 27.1558 53.1873C26.4222 52.5137 25.7303 51.7982 25.0168 51.1034C24.7077 50.8024 24.4057 50.4943 24.0961 50.1938L23.9406 50.0442C23.7826 49.8936 23.5575 49.659 23.3168 49.517C22.8633 49.7918 22.4028 50.0552 21.9535 50.337C21.3262 50.7304 20.7174 51.1522 20.118 51.5879C18.964 52.4266 17.8705 53.3659 16.8553 54.3728C14.9934 56.2192 13.4071 58.3277 12.0214 60.5604L11.9161 60.7305C11.1287 62.0084 10.384 63.3275 9.85601 64.7395C9.27505 66.2934 8.9925 67.9273 8.83901 69.5767C8.68667 71.2143 8.63529 72.8601 8.46503 74.4961C8.29043 76.1741 7.94643 77.815 7.55514 79.4528L7.46182 79.8411C7.10776 81.3079 6.74233 82.7747 6.56033 84.2761C6.46317 85.0781 6.40473 85.891 6.41794 86.6995C6.43121 87.5127 6.55701 88.3079 6.65851 89.1126C6.69741 89.4208 6.39876 89.6781 6.13153 89.719C5.82419 89.7658 5.56015 89.5667 5.46462 89.2767C5.16681 88.3727 5.11272 87.3734 5.12206 86.4245C5.13147 85.4613 5.25251 84.5043 5.42283 83.5576C5.75779 81.6954 6.2747 79.8718 6.70712 78.032C7.08822 76.4104 7.34399 74.7859 7.48186 73.1246C7.62498 71.4011 7.71068 69.6717 7.97176 67.9606C8.22946 66.2713 8.71435 64.6578 9.44561 63.1174C10.1114 61.715 10.9414 60.3949 11.8116 59.1154C12.8682 57.5617 14.0288 56.0832 15.326 54.7361C15.2095 54.731 15.0899 54.6928 14.98 54.6232C14.6438 54.4102 14.4873 53.9936 14.4391 53.6131C14.3265 52.7232 14.3537 51.7942 14.579 50.9241C14.9425 49.5206 15.8858 48.2735 17.2531 47.7675C17.605 47.6373 17.9791 47.5898 18.352 47.5804C18.7059 47.5715 19.0924 47.6183 19.4339 47.5044C19.9775 47.3229 20.2104 46.6727 20.4145 46.1798L20.4239 46.1572C20.6856 45.5291 20.9997 44.9908 21.5665 44.5986C22.1712 44.1801 22.9288 43.9898 23.6423 43.8669V43.8669ZM39.1116 46.3508C39.6008 46.1784 40.2124 46.3349 40.6909 46.4854C41.2239 46.6533 41.7165 46.9624 42.1387 47.3295C42.5842 47.7167 42.9524 48.1947 43.2126 48.7288L43.2374 48.7802C43.475 49.2756 43.7456 49.9557 43.6258 50.5C43.6224 50.5154 43.6184 50.5303 43.614 50.5447C44.5847 51.03 45.4811 51.638 46.2618 52.4085C47.1707 53.3056 47.9404 54.3265 48.5918 55.4294C51.1787 59.8098 51.634 65.0707 51.9395 70.0663L52.0157 71.3329C52.1816 74.0681 52.3758 76.7967 52.8801 79.4941L52.9169 79.6888C53.456 82.513 54.2276 85.3587 54.1495 88.2559C54.126 89.1239 52.863 89.1181 52.8264 88.2559C52.6885 85.0108 51.943 81.8777 51.4381 78.6834C50.5498 73.0635 50.9949 67.2696 49.7363 61.706C49.2423 59.5226 48.4772 57.4047 47.3845 55.4558C46.8448 54.493 46.2273 53.5626 45.504 52.732C44.8816 52.0173 44.2348 51.3295 43.5075 50.7287C43.2751 50.9652 42.8108 50.8447 42.6894 50.5C42.6061 50.2631 42.6304 49.9861 42.5769 49.738C42.5273 49.5077 42.4588 49.2794 42.3676 49.0625C42.1858 48.6303 41.919 48.2153 41.611 47.8655C41.2783 47.4874 40.8959 47.1733 40.468 46.9139C40.0371 46.6528 39.5659 46.5748 39.1116 46.384C39.0962 46.3776 39.0948 46.3567 39.1116 46.3508ZM41.0123 76.3856C41.013 76.3628 41.0395 76.352 41.0558 76.3673C41.2273 76.5276 41.331 76.7577 41.4572 76.9548C41.6028 77.1822 41.7557 77.405 41.916 77.6219C42.2372 78.0566 42.5948 78.4663 42.9552 78.8678C43.2904 79.2411 43.6476 79.5986 44.0183 79.9357C44.4198 80.301 44.8698 80.6268 45.2346 81.0312C45.9958 81.8751 46.1188 83.0334 46.2794 84.1209L46.297 84.2386C46.3949 84.884 46.4827 85.5311 46.5618 86.1792C46.6003 86.4944 46.6386 86.8099 46.67 87.126L46.6796 87.2261C46.7075 87.5355 46.7151 87.8494 46.5402 88.1197C46.3529 88.4089 45.9272 88.5103 45.6741 88.233C45.2392 87.7566 45.3207 86.9103 45.2641 86.2975C45.2174 85.7907 45.1644 85.2845 45.105 84.7791L45.0748 84.5264C45.0049 83.9514 44.948 83.365 44.8186 82.8C44.7044 82.3025 44.4869 81.927 44.1299 81.5665C43.7704 81.2034 43.3968 80.8645 43.0649 80.4735C42.7128 80.0588 42.3953 79.6141 42.1092 79.15C41.8645 78.753 41.6683 78.321 41.4886 77.8896L41.4588 77.8177C41.2851 77.3969 40.9987 76.8491 41.0123 76.3856ZM47.2913 58.3116C47.2951 58.2529 47.3805 58.252 47.3817 58.3116C47.3925 58.8163 47.4029 59.3211 47.4132 59.8259C47.4962 63.8936 47.4451 67.9709 47.8468 72.0247C48.0363 73.936 48.3853 75.8192 48.7891 77.6946C48.9957 78.6542 49.2124 79.6115 49.4184 80.5713C49.6191 81.5066 49.8344 82.4465 49.9936 83.3906C50.15 84.3184 50.2901 85.2534 50.353 86.1932L50.3608 86.3158C50.3879 86.771 50.5171 87.4406 50.2703 87.8441C50.0029 88.2812 49.491 88.2891 49.2044 87.8718C48.9354 87.48 49.0023 86.7831 48.9547 86.3158C48.9064 85.8396 48.8553 85.3631 48.7973 84.888C48.6841 83.9614 48.535 83.0368 48.3799 82.1165C48.0568 80.1998 47.5882 78.3073 47.2423 76.3937C46.8878 74.4329 46.6358 72.458 46.6252 70.4616C46.6147 68.4482 46.8245 66.4387 46.9304 64.4298C47.038 62.3894 47.1603 60.3505 47.2913 58.3116ZM28.3733 45.6596C28.4808 45.2919 28.8603 45.062 29.2305 45.1652C29.5697 45.2599 29.8498 45.6782 29.7172 46.036C29.5724 46.4264 29.3195 46.7594 29.1063 47.1142C28.9093 47.4422 28.622 47.7004 28.4213 48.0225L28.6424 48.2646C28.7531 48.3854 28.864 48.5054 28.9762 48.6234L29.3618 49.0292C29.6622 49.3445 29.9644 49.6582 30.2752 49.9626C31.189 50.8579 32.1173 51.7238 33.1407 52.4905C33.3736 52.6649 33.6084 52.8384 33.8498 53.0009L33.9398 53.0615C34.1054 53.1716 34.2901 53.2798 34.4902 53.2612C34.9762 53.2158 35.4154 52.6915 35.7494 52.3652L35.7669 52.3482C36.5947 51.5482 37.3611 50.6735 38.0312 49.7331C38.18 49.5241 38.3241 49.3116 38.4644 49.0966C38.1404 48.7122 38.2178 47.9619 38.1999 47.4957C38.1873 47.1679 38.1864 46.84 38.1846 46.512L38.1837 46.4459C38.1798 46.2335 38.1704 46.0299 38.306 45.8552C38.3139 45.8451 38.3303 45.8454 38.3403 45.8507C38.5261 45.9496 38.5834 46.1152 38.6627 46.3009L38.671 46.3202C38.7674 46.5431 38.8598 46.7681 38.9533 46.9923C39.0512 47.2271 39.1409 47.4652 39.2319 47.7028C39.2742 47.8133 39.3146 47.9243 39.3541 48.0358C39.3782 48.1071 39.4031 48.1779 39.4287 48.2487L39.4347 48.2541C39.4685 48.2832 39.4971 48.314 39.5218 48.3457C39.6255 48.3984 39.7079 48.4944 39.7465 48.6354C39.8306 48.9424 39.6565 49.1927 39.5012 49.4363C38.8704 50.4262 38.1513 51.3696 37.3519 52.2253C36.9548 52.6504 36.5372 53.0564 36.1024 53.4416L36.0263 53.5085C35.6357 53.8494 35.2116 54.1724 34.69 54.2522C34.0795 54.3455 33.5826 54.0371 33.1153 53.6818L33.0687 53.6462C32.6256 53.3055 32.1915 52.9529 31.7709 52.5841C30.9134 51.8321 30.0976 51.0246 29.3735 50.1388C28.6693 49.2771 27.9731 48.3136 27.539 47.2768C27.5125 47.2137 27.5821 47.1476 27.6366 47.2003C27.8487 47.4053 28.0527 47.6215 28.2543 47.8405C28.2599 47.5182 28.2014 47.1931 28.2339 46.8688C28.2737 46.4746 28.2622 46.0391 28.3733 45.6596Z" fill="black"/>
<path fill-rule="evenodd" clip-rule="evenodd" d="M46.9505 36.8515C47.3536 33.8953 46.4927 31.0423 45.3773 28.3405C45.3161 28.176 45.2189 28.0335 45.094 27.9322C41.9464 21.486 37.3213 20.9022 30.869 21.3462C30.6784 21.3419 30.6671 21.3453 30.5223 21.2795C30.4984 18.6609 27.555 17.2738 25.3151 18.1378C15.3813 22.8283 18.5049 36.0336 20.4817 44.6547C21.1869 47.992 21.8924 51.329 22.5977 54.6662C22.6214 54.7778 22.6714 54.8743 22.7377 54.9556C22.6353 54.9951 22.5328 55.0321 22.4322 55.0669C22.2028 55.1463 22.2939 55.4939 22.5328 55.4376C22.7669 55.3824 22.9925 55.3084 23.2156 55.2278C23.5636 55.3045 23.8553 55.0735 24.1284 54.8892C27.327 53.6041 28.6698 49.3802 29.4903 46.2686C32.8259 48.6599 38.1558 50.4508 41.9696 48.3005C45.5432 46.1139 46.8302 41.5525 46.5763 37.5266C46.8371 37.4046 46.9423 37.1388 46.9492 36.8616H46.9507C46.9507 36.8582 46.9505 36.8549 46.9505 36.8515V36.8515Z" fill="white"/>
<path fill-rule="evenodd" clip-rule="evenodd" d="M24.3979 18.384C25.1354 17.8986 26.0819 17.7179 26.9508 17.7533C27.4141 17.7722 27.8468 17.8895 28.274 18.0659C28.6699 18.2293 29.019 18.4642 29.4046 18.6431C29.428 18.654 29.4103 18.6873 29.3882 18.6828C28.9316 18.5892 28.3956 18.6457 27.9326 18.7128L27.8866 18.7195C27.4316 18.7866 26.9686 18.8213 26.5201 18.9279C25.6939 19.1241 24.9255 19.5516 24.472 20.2952C23.88 21.2664 23.7282 22.5236 23.7915 23.6441C23.8236 24.211 23.9335 24.7688 24.1048 25.3093C24.2077 25.6336 24.4466 25.96 24.5582 26.3003C24.6432 26.1393 24.7308 25.9797 24.8216 25.8222C24.408 25.6241 24.292 25.0736 24.2706 24.5769C24.2069 24.5143 24.1659 24.4238 24.1645 24.3406C24.1609 24.1172 24.2126 23.9149 24.3006 23.7298C24.3509 23.2055 24.4573 22.6828 24.6406 22.1915C25.36 20.2627 27.2578 18.5243 29.4099 18.696C30.0014 18.7432 30.5769 18.9984 30.8827 19.541C31.1284 19.9766 31.13 20.5022 30.9606 20.9655C30.9103 21.1031 30.845 21.2273 30.7682 21.3406C31.0007 21.2807 31.2336 21.2232 31.4662 21.1662C32.273 20.9686 33.0838 20.8138 33.9099 20.7277C35.0348 20.6106 36.183 20.7878 37.2138 21.2441C37.4966 21.3179 37.7779 21.3973 38.0576 21.4821C39.2883 21.8549 40.5509 22.3419 41.5449 23.1929C42.0022 23.5845 42.3295 24.04 42.5952 24.5402C43.5903 25.4416 44.5418 26.4635 45.2135 27.6324C46.5973 30.0408 46.9278 33.0199 46.9847 35.7579C47.037 38.2731 46.8195 40.8141 46.3556 43.2855C46.145 44.4071 45.8046 45.4494 45.1158 46.3692C44.3489 47.3935 43.326 48.2005 42.1782 48.742C39.8413 49.8444 36.9491 50.0047 34.6777 48.6389C33.9945 48.2282 34.6097 47.1575 35.2997 47.5576C37.5422 48.8578 40.404 48.5608 42.5617 47.1824C43.4732 46.6001 44.2587 45.8039 44.7577 44.8288C45.1221 44.1165 45.2785 43.2998 45.4139 42.5046L45.4858 42.0793C45.9039 39.6339 46.0929 37.1256 45.9923 34.6449C45.892 32.1703 45.5057 29.49 44.1262 27.3862C43.3985 26.2765 42.4706 25.3044 41.496 24.418C41.4276 24.3557 41.359 24.2937 41.2903 24.2319C40.9094 23.9993 40.5146 23.7962 40.1261 23.6229L40.0434 23.5865C39.82 23.4898 39.5075 23.3647 39.2175 23.2648C38.8031 23.1219 38.3819 22.9949 37.959 22.8805C37.7373 22.8205 37.5146 22.7655 37.2913 22.7129C37.3691 22.7854 37.4465 22.8587 37.5225 22.9337C37.8827 23.2893 38.1684 23.7119 38.5099 24.0847C38.5485 24.1268 38.4998 24.1881 38.4508 24.1625C37.9315 23.8918 37.3556 23.7166 36.8134 23.4972C36.3007 23.2898 35.8025 23.0511 35.299 22.8223C35.1728 22.7649 35.0471 22.7036 34.9217 22.6429C34.4264 22.6481 33.9312 22.6599 33.4371 22.6886C34.0345 23.1206 34.58 23.6312 35.0319 24.1911C35.0691 24.2372 35.0352 24.3111 34.9725 24.2947C34.0266 24.0486 33.127 23.6869 32.2279 23.3079L31.7977 23.126V23.126C31.4815 23.1097 31.1649 23.1021 30.8482 23.1068L30.6947 23.1094C30.3623 23.1159 30.0304 23.1293 29.7009 23.1804C29.6226 23.1925 29.5458 23.2041 29.4695 23.2146C29.0058 23.4069 28.5596 23.6388 28.1581 23.9444L28.2626 23.9381V23.9381C28.8975 23.9014 29.5447 23.957 30.1595 24.1235C31.354 24.4472 32.3733 25.2267 33.115 26.2205C33.1372 26.2503 33.0941 26.2917 33.065 26.2714C32.1319 25.6224 31.0496 25.2954 29.9408 25.1179C29.4048 25.032 28.8528 25.0024 28.3117 25.0452C27.8637 25.0806 27.4002 25.2409 26.9545 25.1631C26.833 25.3169 26.7163 25.4752 26.6039 25.6371C26.663 25.6333 26.7222 25.6298 26.7819 25.6269C27.4221 25.5964 28.074 25.6381 28.6991 25.7878C29.9476 26.0871 30.9909 26.8486 31.9453 27.6847C31.9641 27.7013 31.9398 27.7307 31.9194 27.7188C30.8843 27.1119 29.6813 26.9305 28.5089 26.821C27.9184 26.7658 27.3213 26.7408 26.7296 26.7887C26.4585 26.8106 26.1904 26.856 25.9202 26.8843C25.8983 26.8866 25.8756 26.8872 25.8531 26.8882C25.6572 27.2636 25.4795 27.6457 25.3193 28.0267C25.8083 27.8934 26.336 27.8234 26.8409 27.8579C27.8665 27.9281 28.8837 28.4059 29.7024 29.017C29.7281 29.0361 29.7137 29.087 29.6789 29.0737C28.7878 28.7316 27.9044 28.7288 26.9744 28.8608C26.5385 28.9227 26.1069 29.0067 25.6857 29.1384C25.4739 29.2047 25.2645 29.2769 25.0635 29.3721C24.9723 29.4152 24.8834 29.4655 24.7936 29.5129C24.7218 29.7608 24.6575 30.0109 24.5996 30.2626C26.1197 30.3497 27.5517 31.0787 28.798 31.9154C28.8282 31.9357 28.8093 31.992 28.7721 31.9777C28.0281 31.6925 27.2188 31.5606 26.4297 31.4838C25.7397 31.4167 25.0626 31.4532 24.3765 31.4728C24.3397 31.7377 24.31 32.0033 24.2884 32.2695C24.3988 32.3009 24.507 32.3347 24.6111 32.3666C24.9533 32.471 25.295 32.6117 25.6143 32.7748C26.2631 33.106 26.7888 33.5538 27.3177 34.0516C27.3453 34.0776 27.3165 34.1343 27.2791 34.1189C26.6652 33.8667 25.9944 33.7052 25.3481 33.5623C25.0136 33.4884 24.679 33.4201 24.3422 33.3575C24.3096 33.3514 24.2765 33.3463 24.2434 33.3413C24.2402 33.9482 24.274 34.5552 24.3485 35.1573L24.3629 35.2701C24.4033 35.5748 24.3703 35.8696 24.1717 36.08C24.4463 35.8945 24.7606 35.7661 25.1088 35.7168C26.0259 35.5871 26.8751 35.9594 27.4522 36.6796C27.4792 36.7132 27.4376 36.7574 27.4048 36.7278C26.8447 36.2214 25.9817 36.1318 25.2861 36.3702C24.6422 36.5909 24.1581 37.1178 23.9641 37.777C23.7579 38.4776 23.8523 39.2511 24.2283 39.8756C24.4156 40.1867 24.6862 40.4649 25.0247 40.6017C25.0665 40.6186 25.1091 40.6327 25.1521 40.645C25.3565 40.569 25.5764 40.6034 25.7865 40.6997L25.8138 40.7127V40.7127C25.9479 40.7119 26.0814 40.7077 26.2111 40.7089C26.4635 40.7114 26.5849 40.9837 26.479 41.1864C26.539 41.2982 26.583 41.4238 26.6358 41.5334C26.7312 41.7312 26.831 41.9276 26.9314 42.1228C27.0733 42.2883 27.2089 42.4596 27.3009 42.6593C27.3387 42.7412 27.3743 42.83 27.4017 42.919C27.4805 43.0395 27.5607 43.1594 27.6429 43.2787C27.9084 43.6641 28.1881 44.0293 28.4982 44.3791C28.6846 44.5894 28.899 44.7772 29.0964 44.9788C29.1562 44.9868 29.2148 45.0282 29.2333 45.0877L29.2494 45.1447V45.1447C29.313 45.2175 29.3739 45.2925 29.4287 45.3724C29.5503 45.5495 29.5169 45.7293 29.4101 45.8588C29.5793 46.9312 29.4641 48.0721 29.2378 49.1119C29.0915 49.7838 28.9206 50.4551 28.6914 51.1032C28.5748 51.4327 28.4336 51.7492 28.2386 52.0386C28.1316 52.1972 27.9924 52.3819 27.8362 52.5328C27.8124 52.7084 27.7815 52.8826 27.7374 53.0533C27.2134 55.0767 25.0685 55.6927 23.2726 55.9512C22.9259 56.001 22.5829 55.9159 22.3941 55.5879C22.3505 55.5121 22.3212 55.4305 22.3054 55.3465C22.2272 55.3254 22.1519 55.2882 22.0845 55.2347C22.0732 55.3614 22.0602 55.4887 22.0437 55.6173C22.0026 55.9388 21.5755 56.0355 21.4684 55.6964C21.0166 54.2652 20.7712 52.7562 20.4616 51.2855C20.1526 49.8179 19.8076 48.3582 19.4884 46.8928L19.0842 45.0435C18.0979 40.5151 17.1741 35.9289 17.4008 31.2715C17.5246 28.7292 17.9837 26.1935 18.9664 23.8441C19.7849 21.887 21.1664 19.6882 23.398 19.2881C23.4134 19.2854 23.4271 19.287 23.4398 19.2903C23.7048 18.9401 24.0215 18.6317 24.3979 18.384ZM25.7445 42.9994C25.9245 43.606 26.0529 44.2279 26.1228 44.8626C26.2393 45.9203 26.1815 47.0039 26.131 48.0645C26.0844 49.0388 25.974 50.0217 25.786 50.9784C25.6055 51.8971 25.3226 52.7978 24.9021 53.6335C24.8341 53.7687 24.761 53.9003 24.6842 54.0294C24.9168 53.9506 25.1267 53.8589 25.3454 53.7318C25.6206 53.5718 25.8725 53.3655 26.0103 53.1478C26.2315 52.7987 26.3056 52.4109 26.338 51.9948C26.4212 50.9247 26.4596 49.8514 26.5127 48.7795L26.5244 48.5461C26.6102 46.8712 26.7227 45.1537 26.5547 43.4771C26.3184 43.414 26.1052 43.2901 25.9084 43.1347C25.8542 43.0919 25.7994 43.0465 25.7445 42.9994ZM23.9472 40.9713C23.9969 41.4808 24.0444 41.9903 24.0874 42.5003C24.24 44.3103 24.3343 46.1304 24.2476 47.9468C24.2024 48.8926 24.1117 49.8411 23.9548 50.775C23.8841 51.1959 23.7987 51.6167 23.7032 52.033L23.671 52.1716C23.5741 52.584 23.5123 53.0994 23.202 53.3993L23.2043 53.4616V53.4616C23.4222 53.1256 23.6237 52.748 23.768 52.3963C24.4109 50.8298 24.5284 49.1244 24.6446 47.454C24.7162 46.4246 24.7692 45.3938 24.8521 44.3652L24.8923 43.8702C24.9385 43.2941 24.9782 42.7223 24.9728 42.1468C24.8489 41.9592 24.7483 41.7619 24.6858 41.5594C24.6758 41.5268 24.6689 41.4939 24.6641 41.4609C24.4022 41.3348 24.1556 41.1627 23.9472 40.9713ZM27.4666 44.5558C27.5958 44.9926 27.7012 45.4349 27.7763 45.8791C27.896 46.5862 27.9678 47.2977 27.9993 48.0116L28.0653 47.7593C28.2315 47.1285 28.4081 46.4968 28.6269 45.8847C28.2807 45.6384 27.9915 45.2517 27.7399 44.9284C27.6458 44.8077 27.5547 44.683 27.4666 44.5558ZM22.5092 25.1307C22.3762 25.567 22.2599 26.0083 22.1397 26.4482C21.8574 27.4816 21.6741 28.5432 21.5469 29.6069C21.0395 33.8536 21.4621 38.1176 22.0149 42.3366C22.2439 44.0847 22.4929 45.8302 22.7067 47.5803C22.7123 47.4086 22.7171 47.2368 22.7201 47.0653C22.7851 43.3505 22.1697 39.6877 21.9233 35.992L21.9085 35.7668C21.7968 34.0389 21.7285 32.2787 21.9307 30.557C22.0347 29.6709 22.2179 28.8037 22.4618 27.9474L22.607 27.4444C22.7051 27.1062 22.8094 26.7591 22.9331 26.4224C22.9166 26.3901 22.9009 26.3576 22.8862 26.3249C22.715 25.9424 22.5958 25.5404 22.5092 25.1307ZM22.9379 20.1247C21.6606 21.798 20.5887 23.5755 19.9402 25.62C18.456 30.2991 18.7874 35.3026 19.6475 40.0721C20.0527 42.3193 20.5754 44.5404 21.0522 46.772C20.5418 42.7646 19.8835 38.7659 19.7787 34.7199C19.7215 32.5117 19.8339 30.2932 20.2343 28.1191L20.258 27.9912C20.4295 27.0724 20.6421 26.0989 21.0772 25.2732C21.3134 24.8248 21.5742 24.4064 21.8835 24.006C22.0139 23.8371 22.1603 23.7016 22.3157 23.5778C22.2701 22.4242 22.4418 21.1734 22.9379 20.1247ZM25.0219 37.9533C25.6573 37.9787 26.2922 38.1587 26.7927 38.5783C27.1841 38.9065 26.6259 39.4612 26.2376 39.1423C25.8153 38.7955 25.4366 38.4016 24.9865 38.0861C24.9328 38.0485 24.9475 37.9503 25.0219 37.9533ZM23.9676 36.2329C23.8264 36.3069 23.686 36.3218 23.5259 36.2819C23.5201 36.2804 23.5144 36.2788 23.5089 36.277L23.4762 36.2662C23.4902 36.4202 23.5049 36.5741 23.5195 36.7281C23.6486 36.5433 23.7984 36.376 23.9676 36.2329ZM23.3351 26.9421C23.2789 27.4196 23.2422 27.8994 23.2227 28.3799C23.2037 28.848 23.1958 29.3175 23.1937 29.7873L23.1931 29.9886L23.1939 29.9847C23.4124 29.0376 23.7214 28.1055 24.1161 27.2135C24.0482 27.225 23.9792 27.2232 23.9112 27.2149C23.7558 27.1958 23.6068 27.1257 23.4734 27.0438C23.4248 27.0139 23.3792 26.979 23.3351 26.9421ZM29.8171 21.408C29.5455 21.5327 29.2832 21.6761 29.0106 21.798C28.4701 22.0398 27.9413 22.3208 27.441 22.6399C26.9348 22.9628 26.4471 23.3028 25.9986 23.7055C25.9461 23.7527 25.8941 23.8005 25.8421 23.8482C25.8316 23.9523 25.824 24.0569 25.8205 24.1623C25.8186 24.219 25.8186 24.2782 25.8193 24.3391C26.6656 23.274 27.6887 22.4336 28.9868 21.9049C29.2118 21.8133 29.4405 21.7317 29.6712 21.6561C29.7262 21.5786 29.7754 21.4964 29.8171 21.408ZM29.793 20.3862C29.642 20.1827 29.2082 20.1993 28.9346 20.2447C28.4923 20.3181 28.1027 20.4752 27.7236 20.7027C27.2755 20.9714 26.889 21.3355 26.5865 21.7638C26.7354 21.6785 26.887 21.598 27.0419 21.5233L27.148 21.4724C27.7344 21.193 28.3697 20.9275 29.0111 20.8409C29.3079 20.8008 29.6271 20.7428 29.9269 20.7755C29.9121 20.6274 29.8688 20.4885 29.793 20.3862Z" fill="black"/>
<path fill-rule="evenodd" clip-rule="evenodd" d="M38.882 43.0724C38.4445 42.891 38.0541 42.5885 37.7687 42.2021C37.6695 42.0678 37.6437 41.9259 37.6645 41.7961C37.688 41.6502 37.7729 41.518 37.8888 41.4293C38.005 41.3404 38.1503 41.2965 38.2909 41.3188C38.413 41.3383 38.5345 41.4062 38.6307 41.5471L38.6508 41.5753C38.8205 41.8085 39.0416 41.9999 39.2935 42.1232C39.5364 42.2421 39.8079 42.2976 40.089 42.2654C40.6242 42.2039 40.9931 41.9098 41.3852 41.5104C41.4338 41.46 41.4825 41.408 41.5313 41.3551C41.5622 41.3072 41.605 41.2764 41.6526 41.2603C41.7054 41.2423 41.7651 41.2434 41.8198 41.2628C41.8726 41.2815 41.9197 41.3169 41.9514 41.3641C41.9814 41.409 41.9985 41.4644 41.9929 41.5281C41.957 41.942 41.7441 42.3114 41.4415 42.6015C41.1056 42.9236 40.6602 43.1465 40.2409 43.2247C39.7789 43.3108 39.3082 43.2491 38.882 43.0724V43.0724ZM40.4588 36.6869C40.9503 36.9904 41.6991 37.6982 41.1704 38.4507C40.5481 39.1143 39.652 38.3535 39.2105 38.0094C38.8011 37.7428 38.341 38.4286 38.7209 38.7399C41.9115 41.1402 43.2064 36.7662 40.7074 36.33C40.4322 36.2819 40.33 36.593 40.4588 36.6869ZM34.7411 33.8948C34.7954 33.2099 35.822 33.0544 35.9241 33.7321C36.0155 34.3392 35.9079 34.8969 35.6388 35.4434C35.3816 35.9656 34.7353 35.722 34.6864 35.2465C34.6209 34.6092 34.7074 34.3208 34.7411 33.8948ZM42.5553 33.5916C42.6984 33.4011 42.9051 33.2711 43.1526 33.3446C43.9262 33.5743 43.6982 34.6901 43.4265 35.2332C43.2789 35.5282 42.8018 35.603 42.5862 35.3433C42.2347 34.9198 42.0664 34.074 42.5132 33.6569C42.5253 33.6353 42.5388 33.6136 42.5553 33.5916ZM35.6279 30.898L35.7501 30.8763C36.128 30.8099 36.598 30.7461 36.8654 31.0548C37.0073 31.2186 37.0561 31.5229 36.8654 31.6796C36.5301 31.9554 36.1594 31.8485 35.7576 31.8719C35.4264 31.8912 35.1082 31.9469 34.7892 32.0395C34.0894 32.2427 33.5192 32.6137 32.9216 33.0211C32.8431 33.0745 32.7631 32.9726 32.8005 32.8981C33.1455 32.2115 33.8141 31.6474 34.4838 31.3036C34.8413 31.1201 35.2324 30.9679 35.6279 30.898ZM41.8502 30.5905L41.9437 30.6099C42.9614 30.8261 44.2837 31.2578 44.7656 32.2736C44.784 32.4172 44.7646 32.448 44.7488 32.4681L44.7436 32.4748C44.7306 32.492 44.7202 32.5156 44.6589 32.5352C44.6419 32.5311 44.6247 32.5267 44.6074 32.5221C44.3865 32.4633 44.2117 32.3822 44.0425 32.2981L43.859 32.2063C43.6462 32.1002 43.4314 31.9981 43.2038 31.9226C42.7182 31.7617 42.2186 31.6483 41.7114 31.5877C41.6014 31.5746 41.4955 31.5369 41.412 31.4723C41.3327 31.411 41.2721 31.326 41.2445 31.2132C41.2087 31.0671 41.219 30.9565 41.2962 30.8247C41.3542 30.7257 41.4372 30.6571 41.5325 30.6177C41.6296 30.5775 41.7402 30.5681 41.8502 30.5905Z" fill="black"/>
</g>
<defs>
<clipPath id="clip0_240_6183">
<rect width="49.3333" height="74" fill="white" transform="translate(5 14)"/>
</clipPath>
</defs>
</svg>
