<svg width="60" height="88" viewBox="0 0 60 88" fill="none" xmlns="http://www.w3.org/2000/svg">
<g clip-path="url(#clip0_240_6182)">
<path fill-rule="evenodd" clip-rule="evenodd" d="M50.5997 69.173C50.1562 67.8679 50.6845 66.3605 50.3392 64.9535C50.2209 64.397 49.996 62.3295 49.7702 61.1205C49.6438 60.4442 50.3996 60.2342 50.5157 59.9643C51.3331 57.5395 45.3705 51.8352 45.0066 51.625C44.4612 51.3231 43.9786 51.0633 43.4456 50.7549C41.891 50.232 40.0269 48.7771 38.6175 49.7116C36.1756 46.2305 37.1417 41.9416 35.8166 41.4319C34.4916 40.9221 30.5787 39.8919 28.3417 41.2075C27.0008 42.1575 27.0997 43.7931 26.4879 45.1419C26.1288 45.7769 25.9523 46.6967 25.5343 47.1108C24.1139 48.5178 22.3426 48.7604 20.3624 48.9992C20.2116 49.0174 20.0529 48.6246 19.9064 48.6731C16.5661 49.7787 12.6793 50.1013 8.89642 56.2921C8.36217 57.1775 6.92094 58.598 7.40286 59.6211C4.2276 66.6921 1.10326 82.6074 9.81585 86.5765C10.0943 86.7471 11.9837 85.8323 12.2915 85.8408C12.8047 85.8549 11.8214 87.0481 12.2915 86.8355C15.7428 87.0863 34.7332 86.4393 42.0125 87.0863C47.0183 87.0504 50.1888 87.8909 51.3447 87.0504C50.8826 85.9811 50.904 84.8356 51.0501 83.7051C52.1139 82.947 50.7988 77.6043 50.9101 76.0399C51.9059 74.8967 51.113 70.6092 50.5997 69.173Z" fill="white"/>
<path fill-rule="evenodd" clip-rule="evenodd" d="M49.013 61.3473C48.5355 62.0124 48.0968 62.6971 47.7002 63.4094C47.4957 63.7767 47.3049 64.1514 47.1332 64.5337C47.0975 63.7071 47.0896 62.8707 46.9887 62.0523C46.9815 61.9932 46.8786 61.9645 46.8678 62.0365C46.7564 62.7787 46.738 63.54 46.6959 64.2901C46.6474 64.2759 46.5938 64.2677 46.5348 64.2677C45.9616 64.2677 45.3971 64.3127 44.8261 64.357C44.5702 64.3768 44.3024 64.392 44.0414 64.4311C44.2515 64.2089 44.4472 63.9742 44.6278 63.7293C44.812 63.4796 45.0226 63.0894 44.7016 62.8495C44.347 62.5845 43.6517 62.9311 43.3087 63.0658C43.1351 63.134 42.9648 63.2083 42.7972 63.2873C42.5855 62.7193 41.9367 62.6441 41.3805 62.7225C40.984 62.7784 40.599 62.9083 40.2126 63.0072C39.7219 63.1328 39.2292 63.2509 38.7347 63.3618C37.8441 63.5614 36.9475 63.7359 36.0466 63.8871C36.0228 63.8606 35.9898 63.8397 35.9457 63.8292C35.6372 63.7554 35.2969 63.8119 34.9804 63.8175C34.6551 63.8233 34.3298 63.8228 34.0045 63.8164C33.4233 63.8051 32.8428 63.8004 32.2618 63.7908C32.0966 63.6949 31.8872 63.5573 31.8359 63.3768C31.7719 63.1516 31.9718 62.9022 32.0646 62.7105C32.421 61.9743 32.5457 61.1505 32.4058 60.3488C32.3809 60.2059 32.3296 60.0496 32.2554 59.9032C32.892 59.9685 33.5203 60.0127 34.1604 60.0327C35.4384 60.0726 36.7164 60.1143 37.995 60.1234C40.5516 60.1416 43.1082 60.1417 45.6648 60.1238C47.1103 60.1137 48.5526 60.101 49.9963 60.0303C49.8786 60.1731 49.7642 60.319 49.6525 60.4672C49.6294 60.4606 49.5992 60.4725 49.6028 60.4999C49.6039 60.5095 49.6051 60.519 49.6063 60.5286C49.4024 60.8012 49.2062 61.0782 49.013 61.3473M46.1703 86.66C45.5762 86.6419 44.9822 86.6237 44.3881 86.6056C43.2219 86.5701 42.0558 86.5345 40.8897 86.499C38.5795 86.4286 36.2694 86.3607 33.9588 86.2996C31.6539 86.2387 29.3478 86.1743 27.0422 86.2432C24.7313 86.3122 22.4263 86.4908 20.1198 86.6342C18.8375 86.7138 17.5543 86.7828 16.2696 86.8158C15.0461 86.8472 13.8117 86.7997 12.5901 86.8833C12.5491 86.594 12.5793 86.3056 12.5748 86.0176C12.9755 85.7959 13.3688 85.5603 13.7575 85.3288C15.1747 84.4847 16.5142 83.5297 17.7778 82.4858C17.972 82.3253 18.1624 82.1614 18.3509 81.9958C18.2197 82.2704 18.3247 82.6243 18.7008 82.7406C19.1594 82.8823 19.6289 82.832 20.1051 82.8212C20.5888 82.8104 21.0724 82.8 21.5561 82.7902C22.5014 82.771 23.4468 82.7538 24.3922 82.7386C26.2391 82.709 28.086 82.6871 29.933 82.6728C33.649 82.644 37.3624 82.6925 41.0778 82.7567C42.1226 82.7748 43.1663 82.7972 44.211 82.7745C44.7337 82.7632 45.2586 82.7596 45.7807 82.7327C46.199 82.711 46.6198 82.6543 47.038 82.6034C47.0908 83.301 47.1459 83.9983 47.2073 84.6953C47.248 85.1555 47.2898 85.6156 47.331 86.0758C47.3479 86.2656 47.3492 86.4594 47.3771 86.6397C46.9756 86.6608 46.5765 86.6723 46.1703 86.66M46.5789 66.9623C46.5643 67.4962 46.5565 68.0305 46.5525 68.5649C46.5043 68.5384 46.45 68.5191 46.3888 68.5102C45.739 68.4152 45.0438 68.4872 44.3864 68.4979C43.751 68.508 43.1134 68.5046 42.4786 68.5333C41.8425 68.5621 41.2067 68.5964 40.5708 68.628C40.2724 68.6429 39.9773 68.6557 39.6812 68.6943C39.4784 68.7208 39.219 68.7189 39.0023 68.7742C39.9114 67.931 40.8155 67.0829 41.7222 66.2374C41.7493 66.212 41.769 66.1852 41.7827 66.1578C42.3873 65.8051 42.9675 65.4081 43.493 64.9534C43.9098 65.1073 44.3842 65.1267 44.8261 65.161C45.3973 65.2054 45.9614 65.2503 46.5348 65.2503C46.5735 65.2503 46.6098 65.2467 46.6439 65.2403C46.6159 65.814 46.5946 66.3877 46.5789 66.9623M22.9743 77.335C24.3622 77.7595 25.8659 77.7548 27.3098 77.8398C28.849 77.9304 30.386 78.0057 31.927 78.0632C35.0049 78.1777 38.0807 78.3333 41.158 78.4572C42.9158 78.5279 44.6732 78.6058 46.4302 78.6906C46.5549 78.6965 46.6737 78.6659 46.7786 78.6099C46.8376 79.7179 46.9067 80.8256 46.9872 81.9325C46.9972 82.0709 47.0083 82.2092 47.0186 82.3477C46.1916 82.2483 45.3709 82.1532 44.5378 82.0859C43.6022 82.0102 42.6671 81.9464 41.7302 81.8869C39.9045 81.771 38.0759 81.6158 36.2469 81.5592C32.5184 81.4438 28.7817 81.4831 25.0518 81.5085C23.9965 81.5156 22.9412 81.5254 21.8859 81.5376C21.3582 81.5438 20.8306 81.5505 20.303 81.5578C19.7727 81.5653 19.2029 81.5125 18.7008 81.6897C18.696 81.6914 18.692 81.6938 18.6873 81.6955C20.202 80.3211 21.559 78.8022 22.9743 77.335M27.8532 72.9409C30.1727 73.3453 32.5286 73.3176 34.8797 73.3577C37.2854 73.3987 39.6944 73.3715 42.1005 73.3763C43.4673 73.379 44.8458 73.4365 46.2077 73.3201C46.3687 73.3063 46.4934 73.2478 46.5823 73.1649C46.6071 74.5521 46.6526 75.9387 46.7153 77.3247C46.6269 77.2887 46.5304 77.2669 46.4302 77.2612C43.3557 77.088 40.2809 76.9308 37.2026 76.8348C34.1267 76.7389 31.047 76.625 27.9694 76.6607C26.4676 76.6781 24.8794 76.5861 23.3982 76.8995C23.9611 76.3267 24.5361 75.7645 25.1375 75.2262C26.0144 74.4415 26.9501 73.7064 27.8532 72.9409M29.6253 71.3081C29.6285 71.3047 29.63 71.301 29.6323 71.2975C29.6407 71.3034 29.6509 71.3075 29.6643 71.3072C31.8355 71.2603 34.2713 71.9163 36.3021 70.9095C37.2087 70.4602 37.9594 69.7499 38.6882 69.0672C38.6886 69.0722 38.6891 69.0773 38.6895 69.0824C38.6943 69.1377 38.7187 69.2044 38.7774 69.229C39.0169 69.3296 39.2974 69.3362 39.5546 69.372C39.8504 69.4133 40.1409 69.4375 40.4392 69.4546C41.0971 69.4924 41.7548 69.5324 42.4129 69.5681C43.0694 69.6036 43.729 69.6066 44.3864 69.6223C45.0456 69.6379 45.7362 69.7144 46.3888 69.6243C46.4487 69.616 46.5019 69.598 46.5492 69.573C46.5502 70.3814 46.5579 71.1897 46.5658 71.9975C46.5671 72.1292 46.5698 72.2608 46.5714 72.3924C46.4833 72.3152 46.3622 72.2611 46.2077 72.2481C44.9977 72.146 43.7784 72.1914 42.5642 72.1953C41.3718 72.1991 40.1793 72.2029 38.9869 72.2067C36.5792 72.2144 34.1734 72.2369 31.7661 72.2808C30.5955 72.3021 29.4299 72.3965 28.2764 72.5778C28.7434 72.1704 29.1975 71.7509 29.6253 71.3081M10.7598 86.0056C10.3153 86.1358 9.87405 86.0793 9.42868 86.1685C9.40129 86.1739 9.37601 86.1841 9.35286 86.1975C8.01916 85.6518 7.13016 84.5568 6.52175 83.3297C5.88043 82.0363 5.43839 80.6536 5.14227 79.252C4.53174 76.3624 4.53068 73.3663 4.84669 70.443C5.1572 67.571 5.77198 64.7146 6.64931 61.9526C7.25168 60.0561 8.01936 58.1401 9.08527 56.4109C10.3161 57.2007 11.2706 58.3378 12.1699 59.4492C13.2444 60.7774 14.2127 62.183 15.0795 63.6434C14.9899 63.8936 14.976 64.2074 14.933 64.431C14.8501 64.8622 14.7753 65.2989 14.7165 65.7337C14.5908 66.6633 14.4702 67.5934 14.3417 68.5226C14.0876 70.36 13.7841 72.1924 13.449 74.0177C13.4218 74.1657 13.4652 74.2907 13.545 74.3846C12.8802 74.7201 12.2241 75.0706 11.5849 75.4504C10.1794 76.2856 8.86597 77.2585 7.83475 78.5063C7.80795 78.5387 7.84994 78.582 7.88311 78.5526C10.0945 76.5958 12.8419 75.3672 15.5394 74.1531C16.9179 73.5326 18.2896 72.9021 19.6121 72.1766C20.9952 71.4181 22.3142 70.5609 23.5784 69.6319C25.0219 68.5712 26.3808 67.4114 27.6546 66.1672C27.8046 66.0206 27.7683 65.837 27.6554 65.721C27.6935 65.7097 27.7243 65.6779 27.7263 65.6249C27.7568 64.8124 28.0116 64.1201 28.5105 63.4625C28.9732 62.8524 29.563 62.3496 30.095 61.7975C30.3314 61.5522 30.5573 61.2966 30.759 61.024C30.9667 60.7434 31.0932 60.4336 31.274 60.1405C31.4851 59.7979 31.6648 59.9729 31.7626 60.283C31.8736 60.6346 31.8667 61.0462 31.8221 61.4076C31.7749 61.79 31.6533 62.1628 31.4782 62.5084C31.3137 62.8331 31.1241 63.1634 31.2348 63.5355C31.4167 64.1471 32.1968 64.5012 32.7878 64.639C33.4458 64.7923 34.1342 64.7625 34.8005 64.683C35.635 64.5833 36.4655 64.4375 37.2903 64.2823C38.2456 64.1027 39.1952 63.8955 40.1374 63.6612C40.5803 63.5511 41.0201 63.4064 41.4673 63.3152C41.6268 63.2828 41.9219 63.234 42.1093 63.3136C39.7004 64.6888 37.0742 65.6049 34.4069 66.4032C34.0755 66.5023 34.2114 66.9816 34.5505 66.9022C37.4161 66.2313 40.112 64.986 42.6777 63.6221C42.717 63.6011 42.7503 63.5688 42.7748 63.5306C43.0329 63.4436 43.2953 63.3681 43.5629 63.3057C43.6825 63.2779 44.2977 63.0835 44.3745 63.1582C44.4835 63.264 44.1064 63.6075 44.0122 63.7074C43.3417 64.4186 42.5442 64.9992 41.6809 65.4791C40.8053 65.9659 39.8735 66.3539 38.9374 66.7202C37.8888 67.1304 36.7805 67.4529 35.7612 67.9244C35.3563 68.1118 35.6404 68.7481 36.067 68.6191C36.6168 68.4527 37.1509 68.2082 37.6852 68.0005C38.139 67.8241 38.593 67.6478 39.0442 67.4654C39.3589 67.3383 39.6714 67.2068 39.9808 67.0695C39.5173 67.4872 39.0537 67.905 38.5902 68.3229C37.7875 69.0466 37.0249 69.871 36.0437 70.3785C35.0743 70.88 33.9684 70.9383 32.8893 70.9275C32.3476 70.922 31.8082 70.9056 31.2665 70.9265C30.6964 70.9485 30.19 71.0324 29.6497 71.2042C29.6398 71.2074 29.6326 71.2131 29.6265 71.2196C29.6076 71.1976 29.5755 71.1865 29.5424 71.2052C28.0743 72.0365 26.736 73.1149 25.4489 74.1808C24.1224 75.2793 22.8742 76.4475 21.6849 77.6814C20.5465 78.8624 19.4173 80.048 18.1785 81.1347C16.9691 82.1957 15.6766 83.1591 14.327 84.0507C13.5916 84.5366 12.838 85.0044 12.0583 85.4227C11.6417 85.6462 11.2186 85.8713 10.7598 86.0056M10.8832 54.0271C11.409 53.4616 11.9749 52.9373 12.5737 52.4524C12.8379 52.5273 13.1152 52.5483 13.3947 52.551C13.8212 52.5551 14.2485 52.5721 14.675 52.5679C15.4961 52.5598 16.317 52.535 17.1383 52.5307C18.8177 52.522 20.4976 52.5215 22.1769 52.5355C22.397 52.5373 22.5557 52.4473 22.6537 52.3164C22.9936 52.6855 23.344 53.046 23.6973 53.4009C24.2713 53.9774 24.8832 54.5275 25.5346 55.0288C25.4078 55.0296 25.281 55.0307 25.1549 55.0299C24.574 55.0261 23.9931 55.0226 23.4123 55.0196C22.2466 55.0135 21.0809 55.0089 19.9152 55.0059C17.5978 55.0001 15.2731 55.0186 12.9587 55.1322C12.3163 55.1637 11.6689 55.1765 11.0288 55.2365C10.6816 55.269 10.3348 55.3069 9.98794 55.3423C9.91696 55.3495 9.84891 55.3586 9.78211 55.3688C10.1218 54.9014 10.4877 54.4526 10.8832 54.0271M20.1648 48.986C20.1492 48.9961 20.1323 49.0052 20.1173 49.0161C20.0832 49.0406 20.0886 49.0849 20.1288 49.0998C20.1822 49.1198 20.2384 49.1349 20.2962 49.1469C20.4719 49.3909 20.6091 49.6925 20.705 49.8453C20.9803 50.2845 21.297 50.7029 21.6191 51.1114C21.6838 51.1934 21.7498 51.2745 21.8161 51.3554C20.2562 51.3519 18.6972 51.3595 17.1383 51.416C16.3176 51.4458 15.494 51.4707 14.675 51.5297C14.3382 51.554 14.0017 51.5947 13.6659 51.635C15.4132 50.4254 17.3781 49.5018 19.4137 48.8161C19.4109 48.8191 19.408 48.8214 19.4053 48.8243C19.3604 48.872 19.4273 48.9337 19.4778 48.8938C19.7426 48.6841 19.9725 48.7825 20.1648 48.986M28.0463 63.2027C28.002 63.2671 27.9584 63.3334 27.9159 63.4015C27.8136 63.3038 27.6708 63.2385 27.4867 63.2331C25.4433 63.172 23.4009 63.1187 21.3563 63.1173C20.3481 63.1167 19.3306 63.0842 18.3236 63.1319C17.818 63.156 17.3125 63.1845 16.8071 63.212C16.4537 63.2312 16.0784 63.2551 15.7333 63.353C14.938 62.0209 14.0552 60.7402 13.0911 59.5156C15.2785 59.7725 17.5034 59.7452 19.7032 59.8165C22.1956 59.8974 24.6893 59.9148 27.1825 59.9713C27.8664 59.9868 28.5503 60.0038 29.2341 60.0221C29.587 60.0316 29.94 60.0414 30.2929 60.0516C30.4032 60.0548 30.5174 60.0577 30.6317 60.0548C30.6231 60.0719 30.6143 60.089 30.6057 60.1059C30.4133 60.4866 30.1713 60.8369 29.8893 61.162C29.2898 61.8533 28.5657 62.4488 28.0463 63.2027M25.3656 67.3061C25.2899 67.1046 25.1055 66.9496 24.8117 66.9625C23.1374 67.0353 21.4601 67.0858 19.7877 67.1913C18.9731 67.2427 18.1551 67.2773 17.3418 67.3456C16.9223 67.3808 16.5036 67.4463 16.0859 67.4984C15.7995 67.5342 15.4997 67.5757 15.225 67.6731C15.2782 67.11 15.3252 66.5464 15.366 65.9819C15.3987 65.5285 15.4087 65.0709 15.4061 64.6163C15.4049 64.3863 15.3967 64.1548 15.3851 63.9248C15.4098 63.9296 15.4345 63.9319 15.4588 63.9291C15.5017 63.924 15.5417 63.9191 15.5788 63.9096C15.9637 64.0539 16.3994 64.0857 16.8071 64.1136C17.2907 64.1466 17.7741 64.1817 18.2577 64.2147C19.2866 64.2851 20.3252 64.2805 21.3563 64.3127C23.3862 64.376 25.4165 64.4129 27.4467 64.4649C27.3525 64.852 27.3492 65.2494 27.5 65.6242C27.395 65.5908 27.2741 65.6063 27.1709 65.704C26.5861 66.2572 25.9838 66.7908 25.3656 67.3061M19.4596 71.4216C19.4183 71.3122 19.3403 71.2116 19.248 71.1434C18.893 70.8815 18.2449 71.0323 17.8188 71.0522C17.3143 71.0759 16.8098 71.0995 16.3053 71.1232C16.1522 71.1303 15.3708 71.1685 14.7969 71.2856C14.9155 70.4279 15.0231 69.5689 15.1192 68.7083C15.1394 68.5276 15.1581 68.3469 15.1766 68.1661C15.447 68.2494 15.7409 68.28 16.0197 68.2927C16.4376 68.3117 16.8574 68.344 17.2757 68.3503C18.1115 68.3629 18.9519 68.3234 19.7877 68.31C21.293 68.2861 22.7984 68.2173 24.303 68.1604C22.7924 69.3347 21.1962 70.4061 19.5312 71.3807C19.5075 71.3946 19.4834 71.4078 19.4596 71.4216M14.7054 71.9306C14.8325 71.9468 14.9586 71.952 15.0551 71.9614C15.5393 72.0082 16.016 72.0506 16.5027 72.0574C16.9853 72.0642 17.4678 72.0709 17.9504 72.0777C18.053 72.079 18.1556 72.0806 18.2582 72.082C16.9875 72.7467 15.6778 73.342 14.3867 73.9689C14.5004 73.2905 14.6066 72.611 14.7054 71.9306M28.5514 56.7948C31.4473 57.9732 35.1616 58.0802 37.6502 56.1226C37.8975 56.1874 38.171 56.2089 38.3894 56.2299C38.88 56.2771 39.3661 56.3205 39.8591 56.3353C40.8199 56.364 41.7816 56.407 42.7429 56.4183C44.6874 56.4413 46.6321 56.4521 48.5768 56.4687C48.7423 56.4701 48.8747 56.4218 48.9751 56.3443C49.172 56.664 49.3553 56.9918 49.5225 57.3279C49.7664 57.8181 49.9731 58.3247 50.1428 58.8427C50.1065 58.8367 50.0687 58.8325 50.0282 58.8318C47.4726 58.7895 44.915 58.8599 42.3589 58.8701C39.8022 58.8803 37.2459 58.8698 34.6892 58.8873C33.9817 58.8921 33.2795 58.8923 32.5737 58.9425C32.2064 58.9687 31.8348 58.9801 31.471 59.0369C31.4303 59.0432 31.3889 59.0488 31.3472 59.0544C30.8597 58.7815 30.2546 58.8385 29.6974 58.8285C29.0576 58.8169 28.4179 58.8066 27.7781 58.7976C26.5207 58.7797 25.2632 58.7667 24.0056 58.7584C21.5098 58.742 19.0201 58.8031 16.5259 58.8864C15.2849 58.9277 14.0487 58.998 12.8237 59.1809C12.7414 59.079 12.66 58.9765 12.5767 58.8754C11.7087 57.8219 10.6797 56.4732 9.25144 56.1467C9.30623 56.0612 9.36182 55.9762 9.41827 55.8918C10.4078 56.1417 11.4995 56.129 12.5105 56.1814C13.676 56.2417 14.8389 56.2834 16.0057 56.3108C18.3251 56.3654 20.644 56.3996 22.9638 56.4333C23.6076 56.4427 24.2515 56.4526 24.8953 56.4629C25.2425 56.4684 25.5899 56.4748 25.9372 56.4799C26.1312 56.4828 26.3047 56.4822 26.4895 56.4206C26.6608 56.3635 26.8276 56.2778 26.9932 56.2068C27.051 56.182 27.098 56.1454 27.1363 56.1021C27.5909 56.3622 28.0621 56.5956 28.5514 56.7948M39.8672 52.876C40.2314 52.9729 40.6073 52.9889 40.9924 53.0168C41.4979 53.0534 42.0021 53.0596 42.5089 53.0627C43.3169 53.0676 44.1251 53.0623 44.9329 53.041C45.2799 53.0318 45.4826 52.8094 45.5427 52.5547C45.5511 52.5612 45.5597 52.5675 45.5681 52.5741C46.5512 53.3498 47.442 54.237 48.1969 55.219C46.3789 55.2245 44.5608 55.2257 42.7429 55.2373C41.7818 55.2436 40.8199 55.2814 39.8591 55.3051C39.3877 55.3166 38.9232 55.354 38.4539 55.3967C38.4446 55.3976 38.4348 55.3984 38.4253 55.3992C38.475 55.3443 38.5244 55.2885 38.5726 55.2312C39.1337 54.5654 39.5951 53.7451 39.8672 52.876M51.687 87.8271C51.8474 87.4044 51.7851 86.9512 51.776 86.5068C51.7667 86.0508 51.7616 85.595 51.76 85.139C51.7569 84.2475 51.7506 83.3562 51.7403 82.4647C51.7195 80.6614 51.6977 78.8566 51.6236 77.0544C51.4771 73.4915 51.195 69.9373 50.7345 66.3984C50.5107 64.6779 50.2329 62.9613 49.856 61.2651C49.8613 61.2583 49.8664 61.2513 49.8717 61.2445C50.2471 60.7641 50.674 60.3201 51.0429 59.8364C51.0756 59.7935 51.0892 59.7385 51.0889 59.6829C51.1024 59.6766 51.1159 59.67 51.1296 59.6625C51.4356 59.4957 51.1593 59.0409 50.8534 59.21C50.8887 59.1905 50.3807 57.942 50.3269 57.8163C50.1336 57.3647 49.9161 56.9232 49.6709 56.4953C49.523 56.2372 49.3647 55.9845 49.1988 55.7365C49.1699 55.5512 49.0654 55.3795 48.8859 55.2877C48.5709 54.8556 48.2307 54.4402 47.8681 54.0445C46.3835 52.4246 44.5291 51.117 42.5032 50.1855C42.2105 50.051 41.9091 49.9388 41.6087 49.8213C41.289 49.6961 40.9925 49.5325 40.6774 49.401C40.1647 49.1873 39.6585 49.1995 39.1549 49.4259C39.1118 49.4452 39.1427 49.5086 39.1865 49.4977C39.5107 49.4168 39.8428 49.4032 40.1679 49.4911C40.4863 49.5772 40.7284 49.7676 41.0067 49.9264C41.5022 50.2094 42.0561 50.3939 42.564 50.658C43.2357 51.0075 43.892 51.3913 44.5199 51.8126C43.8693 51.8455 43.2183 51.8694 42.5672 51.8859C42.0835 51.8982 41.6001 51.9003 41.1171 51.9272C40.7734 51.9464 40.4159 51.941 40.0723 51.9941C40.1552 51.4488 40.1553 50.8985 40.0518 50.3672C40.0518 50.3671 40.0517 50.3669 40.0517 50.3667C40.0267 50.2387 39.9964 50.1116 39.9591 49.986C39.8797 49.7188 39.6253 49.6787 39.4407 49.7798C39.4223 49.7669 39.4039 49.7542 39.3862 49.7404C39.165 49.5684 38.9658 49.3626 38.7926 49.1463C38.4329 48.6968 38.1422 48.1766 37.922 47.6522C37.699 47.1211 37.541 46.5654 37.3862 46.0134C37.3086 45.7366 37.2246 45.4613 37.1456 45.1847C37.0769 44.9442 37.0268 44.6786 36.9006 44.4595C36.8769 44.4185 36.8057 44.4262 36.7943 44.4729C36.7275 44.7473 36.7628 45.0603 36.7751 45.3401C36.7886 45.6507 36.8073 45.9584 36.8505 46.2666C36.9399 46.9062 37.0843 47.5349 37.3156 48.1422C37.5373 48.7246 37.83 49.2681 38.2275 49.7587C38.4915 50.0847 38.8666 50.5161 39.301 50.6919C39.3578 51.3038 39.3513 51.9163 39.2004 52.5221C39.003 53.315 38.6249 54.0687 38.1056 54.7145C37.0165 56.0684 35.3316 56.8335 33.5738 56.9911C31.7552 57.1542 29.8942 56.7647 28.2601 55.9988C26.4425 55.1468 24.9346 53.8323 23.5803 52.4135C22.7995 51.5957 21.99 50.791 21.2664 49.9257C21.1382 49.7724 20.933 49.4611 20.6895 49.1806C20.9373 49.1784 21.1916 49.1429 21.4109 49.116C21.8646 49.0602 22.308 48.9739 22.7514 48.8659C23.5804 48.664 24.4545 48.3831 25.1789 47.9387C26.7116 46.9984 27.31 45.8056 27.5143 44.1622C27.5789 43.6427 26.6409 43.5166 26.5536 44.0377C26.4194 44.8387 26.2163 45.2285 25.9493 45.998C25.6925 46.7376 25.3206 47.0131 24.6097 47.4208C23.9423 47.8036 23.1839 48.026 22.4486 48.2557C22.0412 48.383 21.629 48.4992 21.2181 48.6162C20.9565 48.6907 20.646 48.7557 20.3807 48.8707C20.2423 48.7544 20.0978 48.6667 19.9524 48.6334C19.9631 48.6162 19.9493 48.5895 19.9225 48.5946C19.8797 48.6028 19.8372 48.6118 19.7944 48.6202C19.7515 48.6232 19.7088 48.6313 19.6661 48.646C17.1053 49.1771 14.646 50.308 12.5606 51.8487C12.4555 51.8906 12.3538 51.9422 12.257 52.0073C12.2072 52.0408 12.1742 52.0939 12.1647 52.149C11.8512 52.3941 11.547 52.6484 11.2531 52.9117C8.88588 55.032 7.38601 57.8525 6.33601 60.7536C5.30167 63.6116 4.60152 66.6087 4.21652 69.6094C3.82403 72.6682 3.77879 75.7904 4.34806 78.8319C4.65373 80.465 5.14857 82.0699 5.87897 83.5762C6.53488 84.929 7.60252 86.4702 9.27943 86.6349C9.28481 86.64 9.28985 86.6454 9.29588 86.6503C9.95385 87.1691 10.9335 86.8108 11.6213 86.5008C11.7304 86.4516 11.8386 86.3999 11.9463 86.3469C11.8894 86.5568 11.8637 86.7764 11.8518 86.9823C11.8271 87.4099 12.4567 87.4342 12.5759 87.0793C13.5964 87.2511 14.6503 87.2536 15.6825 87.2481C16.8358 87.242 17.9888 87.2038 19.1408 87.1518C21.4265 87.0486 23.7095 86.8908 25.9968 86.819C30.628 86.6738 35.272 86.9841 39.8995 87.1404C41.1977 87.1843 42.4958 87.2281 43.794 87.272C45.1203 87.3168 46.4453 87.3253 47.761 87.4971C48.2448 87.5603 48.4301 87.1062 48.2937 86.8234C48.3277 86.6334 48.2938 86.4251 48.2752 86.2013C48.2404 85.7831 48.2076 85.3648 48.1768 84.9463C48.1167 84.1303 48.0586 83.3141 48.0036 82.4978C47.892 80.8437 47.796 79.1883 47.7026 77.5332C47.517 74.2423 47.3748 70.9489 47.2703 67.6547C47.2447 66.8517 47.2114 66.0485 47.1694 65.2461C47.2195 65.1701 47.2694 65.0939 47.3177 65.0169C47.4785 64.76 47.6362 64.5015 47.799 64.2459C48.1257 63.7333 48.4544 63.2242 48.7979 62.7218C49.0945 62.2879 49.4005 61.8607 49.7202 61.4423C50.1172 64.6524 50.47 67.8658 50.632 71.0965C50.8104 74.6548 50.905 78.2186 50.9565 81.7805C50.9709 82.7756 50.9806 83.7708 50.9916 84.7659C50.9974 85.2841 51.0032 85.802 50.9987 86.3202C50.9944 86.8158 50.9162 87.358 51.0998 87.8271C51.2069 88.1006 51.5813 88.1054 51.687 87.8271Z" fill="black"/>
<path fill-rule="evenodd" clip-rule="evenodd" d="M43.9476 31.2137C43.6927 27.2843 42.3354 22.8294 38.3406 20.9001C29.5339 17.5799 17.955 25.9411 17.3419 34.4827C17.1282 37.4065 18.8564 40.6015 22.0144 41.4144C22.7165 42.2882 23.7783 42.8219 24.8264 43.2851C37.3094 49.369 45.3728 44.4234 43.9476 31.2137V31.2137Z" fill="white"/>
<path fill-rule="evenodd" clip-rule="evenodd" d="M46.7916 28.7694C46.3504 27.6184 45.8844 26.4763 45.3942 25.343C44.9167 24.24 44.4855 23.1132 43.8925 22.0624C40.3513 15.7869 33.9117 15.7869 30.5829 16.6069C28.8567 15.9082 25.6234 16.1053 23.8259 16.7358C20.9159 17.7565 17.3687 21.7715 16.1559 23.5755C13.4782 27.5584 11.8071 32.8596 13.5858 37.462C13.8182 38.0636 14.1147 38.6207 14.4485 39.1576C14.2383 39.4253 13.9962 39.6789 13.7281 39.928C12.9314 40.6685 12.1346 41.3846 11.4463 42.2198C10.7624 43.0499 10.1953 43.9325 9.77322 44.9057C8.97728 46.7409 8.93895 48.819 9.99124 50.5702C10.9067 52.0939 12.5286 53.2286 14.3557 53.3368C14.4495 53.349 14.5435 53.3603 14.6378 53.3692C14.8799 53.7438 15.1752 54.0887 15.5121 54.3894C16.5443 55.3117 19.0049 55.7849 20.4084 55.8152C20.4803 55.8695 20.5529 55.9238 20.6256 55.9775C21.4843 56.6124 22.3854 57.253 23.3713 57.7047C24.0391 58.011 24.9146 58.2669 25.6113 58.0458C25.9274 58.2442 26.4458 58.2025 26.7592 58.0401C27.2743 57.7735 27.6933 57.2934 27.9482 56.8019C28.5662 55.6086 28.4175 54.3029 28.2588 53.028C28.084 51.6199 27.9159 50.2112 27.7451 48.8031C27.6112 47.702 27.4714 46.5826 27.115 45.522C26.9307 44.9724 26.6893 44.4442 26.3772 43.9477C26.3853 43.906 26.384 43.8643 26.3712 43.8252C26.269 43.5131 26.0578 43.3495 25.8077 43.1372C25.7754 43.1101 25.7431 43.0823 25.7115 43.0538C25.5864 42.9199 25.4526 42.7955 25.3094 42.69C25.2542 42.6375 25.1997 42.5845 25.1453 42.5314C24.6927 42.086 24.265 41.6179 23.8851 41.1164C23.5165 40.6299 23.1837 40.122 22.8669 39.6046C22.5448 39.0784 22.3316 38.4979 22.0102 37.9754C21.9826 37.9306 21.9127 37.9217 21.8737 37.959C21.7742 38.0557 21.7103 38.1631 21.7224 38.2761L21.6726 38.2831C21.6538 38.1125 21.4863 37.9736 21.259 38.0108C20.9188 38.0664 20.639 38.0873 20.3445 37.9811C20.3963 37.6583 20.444 37.3349 20.4911 37.0108C20.5771 36.4145 20.6572 35.8162 20.7258 35.218C20.8919 35.2553 21.0566 35.309 21.218 35.3772C21.448 35.4738 21.6652 35.604 21.8508 35.7638C22.0337 35.9217 22.1602 36.1346 22.3834 36.2445C22.6403 36.3702 22.9503 36.1624 22.875 35.8895C22.7223 35.338 21.8582 35.0222 21.3236 34.9179C21.14 34.8819 20.9524 34.8668 20.7648 34.8705C20.8071 34.4865 20.8448 34.1024 20.8757 33.7177C20.8905 33.5357 20.904 33.3538 20.9167 33.1712C21.3323 33.0531 21.7775 33.0177 22.2099 33.0733C22.3525 33.1801 22.495 33.2856 22.6329 33.3923C23.0707 33.7322 23.5065 34.0739 23.9368 34.422C23.9758 34.453 24.0142 34.4839 24.0532 34.5155C24.3087 34.7221 24.6275 34.5174 24.5844 34.2249C24.2334 31.8282 25.7962 29.9217 27.626 28.4447C29.6515 26.8092 33.334 26.6187 35.7428 23.7858C36.8522 23.9979 39.3291 24.6279 40.3513 26.1579C41.7823 28.3019 41.5954 30.223 41.7043 32.6551C41.8133 35.0891 42.0903 37.628 41.5019 40.0279C40.9592 42.2408 39.4899 44.1315 37.2102 45.0008C37.1537 45.0223 37.0965 45.0431 37.0393 45.0633C35.8605 45.4809 34.5741 45.599 33.334 45.3792C31.9615 45.1353 30.8156 44.5453 29.6737 43.8195C29.6078 43.7784 29.5117 43.8631 29.5614 43.925C31.0664 45.7987 34.0226 46.4247 36.3675 45.9301C36.4772 45.9067 36.5861 45.8814 36.6944 45.8536C36.1698 47.2706 36.2754 48.8259 36.9587 50.2055C37.3695 51.0356 37.9963 51.7539 38.7595 52.3205C39.6008 52.9447 40.6445 53.4488 41.2282 54.325C41.7628 55.1279 41.6041 56.03 40.6889 56.4937C40.4582 56.6112 40.3694 56.9908 40.5981 57.1576C40.6855 57.2208 40.7729 57.2852 40.8624 57.3484C41.3748 57.7116 42.7823 58.3939 43.0103 58.4191C45.0344 58.6447 46.3955 57.2486 47.2677 55.6017C48.2919 53.6686 48.0256 51.3129 46.8972 49.4721C45.992 47.9951 44.2093 46.5397 44.9181 44.6704C45.1709 44.0027 45.6881 43.4335 46.1904 42.9193C46.7633 42.3337 47.3793 41.7853 47.9287 41.1789C48.4748 40.5769 48.959 39.9218 49.2293 39.1662C49.6241 38.062 49.4277 36.868 49.1311 35.7657C48.4956 33.3993 47.6705 31.0644 46.7916 28.7694Z" fill="black"/>
<path fill-rule="evenodd" clip-rule="evenodd" d="M37.5317 40.7987C37.318 41.0756 36.9312 41.2877 36.498 41.3891C36.0851 41.4858 35.6289 41.4819 35.2351 41.3331L35.2013 41.3198C34.9069 41.1986 34.6243 40.9538 34.517 40.6984C34.4744 40.5969 34.4599 40.4937 34.4891 40.3974C34.5154 40.3107 34.577 40.231 34.6795 40.1625C34.7117 40.141 34.7549 40.1394 34.7961 40.1466C34.8471 40.1555 34.8974 40.1792 34.9278 40.2112C35.0963 40.3888 35.3407 40.5619 35.6299 40.5589C35.8531 40.5567 36.0354 40.4693 36.2122 40.3706L36.3364 40.3001C36.4562 40.2323 36.5778 40.1686 36.7153 40.1395C36.9614 40.0874 37.26 40.1826 37.4419 40.3397C37.5212 40.4082 37.5788 40.4887 37.5945 40.5754C37.6077 40.6482 37.5892 40.7242 37.5317 40.7987ZM36.2519 35.956C36.7408 36.2506 37.4858 36.9375 36.9598 37.6678C36.3407 38.3118 35.4494 37.5735 35.0102 37.2395C34.6029 36.9808 34.1453 37.6463 34.5232 37.9485C37.6971 40.2779 38.9851 36.033 36.4992 35.6096C36.2255 35.563 36.1239 35.8649 36.2519 35.956ZM30.7364 31.4284L30.8769 31.3902L31.0201 31.3519L31.1169 31.3265C31.7822 31.1539 32.5159 31.002 33.1755 31.0762C33.4161 31.1032 33.6114 31.2374 33.6454 31.4873C33.6741 31.6981 33.5367 31.9701 33.3028 32.0076C32.528 32.1319 31.7348 32.0916 30.9565 32.2197C30.5689 32.2834 30.1842 32.3625 29.7981 32.4338C29.5045 32.4881 29.2011 32.5072 28.905 32.5511L28.973 32.5605C28.9969 32.5637 28.9909 32.6034 28.9674 32.6018C28.8698 32.5921 28.772 32.5906 28.6741 32.5974L28.6322 32.6008C28.5683 32.6097 28.5306 32.5341 28.5875 32.4958C28.9484 32.2531 29.2545 31.9901 29.6585 31.8112C30.0079 31.6565 30.3676 31.529 30.7364 31.4284ZM36.7924 31.0562C37.3039 30.5437 38.3915 30.7406 39 30.9751C39.3473 31.109 39.6775 31.2782 39.9525 31.5314L39.9793 31.5563L40.0206 31.5957C40.2063 31.7759 40.4133 32.0238 40.3838 32.2835C40.3793 32.3231 40.3576 32.3684 40.3125 32.3763C40.0688 32.4191 39.8294 32.2917 39.6044 32.215L39.4553 32.1643C39.2315 32.0887 39.0063 32.0165 38.7755 31.9644C38.4886 31.8997 38.1959 31.8623 37.9013 31.866C37.6036 31.8698 37.2837 31.9531 37.0001 31.8359C36.6838 31.7053 36.5198 31.3295 36.7924 31.0562ZM31.7395 35.1899C31.609 35.322 31.4366 35.3965 31.2161 35.3522C31.0437 35.3176 30.7155 35.1458 30.4534 34.8812C30.274 34.7002 30.1241 34.474 30.0833 34.212C30.0738 34.1511 30.0412 34.1121 29.9985 34.0876C29.9647 34.0682 29.9202 34.0584 29.8717 34.0633C29.8305 34.0674 29.7867 34.0822 29.7529 34.1018C29.6887 34.1391 29.6624 34.192 29.657 34.2316C29.6054 34.613 29.7541 34.9915 29.9858 35.3107C30.2985 35.7413 30.7576 36.057 31.0275 36.1308C31.4894 36.2573 31.9761 36.1566 32.3349 35.838C32.6218 35.5832 32.7689 35.2512 32.9053 34.9099L32.9316 34.8437C32.9623 34.7663 32.9928 34.6894 33.0251 34.6133C33.0897 34.4609 33.069 34.3291 33.0063 34.2264C32.9368 34.1127 32.8086 34.0326 32.6659 34.008C32.5339 33.9852 32.3927 34.0101 32.2812 34.09C32.1871 34.1575 32.1111 34.2644 32.0841 34.4226C32.0403 34.6797 31.9385 34.9748 31.759 35.1694L31.7395 35.1899ZM39.6591 33.7016C39.5515 33.646 39.4673 33.6292 39.3479 33.6647C39.2819 33.6844 39.2167 33.722 39.1656 33.7727C39.115 33.8228 39.0784 33.8853 39.0642 33.9545C39.0293 34.1254 38.935 34.2853 38.8006 34.3896C38.6858 34.4787 38.5408 34.5259 38.3799 34.4993C38.2064 34.4706 38.0411 34.3602 37.9272 34.2301C37.8955 34.1939 37.8695 34.1535 37.8443 34.1126L37.8293 34.0881C37.7732 33.9963 37.7187 33.9109 37.6413 33.8435C37.612 33.8178 37.5678 33.8001 37.525 33.8001C37.5076 33.8001 37.4899 33.8029 37.4731 33.8081C37.3003 33.9799 37.2671 34.1103 37.2727 34.2396C37.2785 34.3752 37.3325 34.5125 37.4196 34.6406C37.624 34.9411 38.0122 35.1874 38.2741 35.2432C38.6328 35.3197 38.9891 35.2279 39.2747 35.0293C39.5686 34.825 39.7863 34.5077 39.8542 34.1502C39.8706 34.064 39.8636 33.9711 39.8305 33.8905C39.7982 33.8117 39.7419 33.7443 39.6591 33.7016Z" fill="black"/>
</g>
<defs>
<clipPath id="clip0_240_6182">
<rect width="48" height="72" fill="white" transform="translate(4 16)"/>
</clipPath>
</defs>
</svg>
