<svg width="72" height="98" viewBox="0 0 72 98" fill="none" xmlns="http://www.w3.org/2000/svg">
<path fill-rule="evenodd" clip-rule="evenodd" d="M57.6584 69.4909C57.2333 68.222 57.7396 66.7565 57.4087 65.3886C57.2953 64.8476 57.0798 62.8374 56.8634 61.662C56.7423 61.0045 57.4666 60.8004 57.5778 60.538C58.3611 58.1805 52.647 52.6346 52.2982 52.4303C51.7756 52.1368 51.3131 51.8842 50.8024 51.5844C49.3125 51.076 47.526 49.6616 46.1754 50.57C43.8353 47.1857 44.7611 43.0159 43.4912 42.5203C42.2214 42.0247 38.4716 41.0231 36.3278 42.3022C35.0428 43.2258 35.1375 44.816 34.5512 46.1273C34.207 46.7446 34.0379 47.6389 33.6373 48.0415C32.2761 49.4094 30.5786 49.6453 28.6809 49.8775C28.5364 49.8952 28.3843 49.5132 28.2439 49.5604C25.0428 50.6353 21.3179 50.949 17.6927 56.9678C17.1807 57.8286 15.7995 59.2096 16.2614 60.2044C13.2184 67.0789 10.2242 82.5521 18.5738 86.411C18.8407 86.5768 20.6513 85.6874 20.9463 85.6957C21.4381 85.7094 20.4958 86.8695 20.9463 86.6628C24.2538 86.9066 42.453 86.2776 49.429 86.9066C54.2261 86.8717 57.2646 87.6889 58.3723 86.8717C57.9294 85.8321 57.95 84.7184 58.09 83.6193C59.1094 82.8823 57.8492 77.688 57.9558 76.167C58.9101 75.0556 58.1503 70.8872 57.6584 69.4909Z" fill="white"/>
<path fill-rule="evenodd" clip-rule="evenodd" d="M56.1371 61.8826C55.6795 62.5292 55.259 63.1949 54.879 63.8874C54.683 64.2445 54.5002 64.6088 54.3356 64.9805C54.3014 64.1769 54.2939 63.3637 54.1972 62.568C54.1903 62.5106 54.0917 62.4826 54.0813 62.5527C53.9745 63.2742 53.9569 64.0144 53.9165 64.7437C53.8701 64.7299 53.8187 64.7219 53.7621 64.7219C53.2129 64.7219 52.6719 64.7656 52.1246 64.8087C51.8794 64.828 51.6228 64.8428 51.3727 64.8807C51.574 64.6647 51.7615 64.4365 51.9346 64.1985C52.1111 63.9557 52.3129 63.5763 52.0053 63.3431C51.6655 63.0855 50.9992 63.4224 50.6705 63.5534C50.5041 63.6197 50.3409 63.6919 50.1803 63.7687C49.9774 63.2165 49.3557 63.1434 48.8226 63.2196C48.4426 63.274 48.0737 63.4003 47.7033 63.4964C47.2331 63.6185 46.7609 63.7334 46.287 63.8412C45.4336 64.0352 44.5743 64.2049 43.711 64.3519C43.6882 64.3261 43.6565 64.3058 43.6142 64.2956C43.3186 64.2238 42.9925 64.2788 42.6892 64.2842C42.3775 64.2898 42.0657 64.2894 41.7539 64.2831C41.197 64.2721 40.6406 64.2676 40.0838 64.2582C39.9255 64.165 39.7248 64.0312 39.6757 63.8558C39.6144 63.6368 39.806 63.3943 39.8949 63.2079C40.2365 62.4922 40.3559 61.6913 40.2219 60.9119C40.198 60.7729 40.1488 60.621 40.0777 60.4786C40.6878 60.5421 41.2899 60.5851 41.9033 60.6046C43.1281 60.6433 44.3528 60.6839 45.5782 60.6927C48.0283 60.7104 50.4784 60.7105 52.9284 60.6931C54.3137 60.6833 55.6958 60.6709 57.0794 60.6022C56.9667 60.741 56.857 60.8829 56.7499 61.0269C56.7278 61.0205 56.6989 61.0321 56.7023 61.0587C56.7034 61.0681 56.7045 61.0773 56.7056 61.0866C56.5103 61.3517 56.3223 61.621 56.1371 61.8826M53.4129 86.4922C52.8435 86.4746 52.2742 86.4569 51.7049 86.4393C50.5873 86.4048 49.4698 86.3702 48.3523 86.3357C46.1383 86.2672 43.9244 86.2011 41.7102 86.1418C39.5013 86.0826 37.2913 86.02 35.0817 86.0869C32.8671 86.1541 30.6582 86.3277 28.4478 86.4671C27.2189 86.5445 25.9892 86.6115 24.758 86.6437C23.5855 86.6742 22.4026 86.628 21.2319 86.7092C21.1925 86.428 21.2214 86.1477 21.2172 85.8676C21.6012 85.6521 21.9781 85.423 22.3506 85.198C23.7087 84.3773 24.9924 83.4488 26.2033 82.4339C26.3895 82.2779 26.572 82.1186 26.7526 81.9576C26.6269 82.2245 26.7275 82.5686 27.0879 82.6816C27.5273 82.8194 27.9773 82.7705 28.4337 82.76C28.8972 82.7495 29.3607 82.7394 29.8242 82.7299C30.7302 82.7112 31.6362 82.6945 32.5422 82.6797C34.3121 82.651 36.082 82.6296 37.8521 82.6157C41.4133 82.5878 44.972 82.6349 48.5326 82.6973C49.5338 82.7149 50.534 82.7367 51.5352 82.7146C52.0361 82.7036 52.5391 82.7001 53.0395 82.6739C53.4403 82.6529 53.8436 82.5978 54.2444 82.5482C54.295 83.2264 54.3478 83.9044 54.4066 84.582C54.4456 85.0294 54.4857 85.4768 54.5252 85.9242C54.5414 86.1087 54.5426 86.2971 54.5694 86.4725C54.1846 86.493 53.8022 86.5041 53.4129 86.4922M53.8044 67.3416C53.7904 67.8607 53.783 68.3802 53.7792 68.8997C53.7329 68.8739 53.6809 68.8552 53.6222 68.8465C52.9995 68.7542 52.3333 68.8242 51.7033 68.8345C51.0943 68.8444 50.4833 68.8411 49.875 68.869C49.2654 68.897 48.6561 68.9304 48.0466 68.961C47.7607 68.9755 47.4779 68.9879 47.1942 69.0256C46.9998 69.0513 46.7511 69.0495 46.5435 69.1032C47.4147 68.2834 48.2812 67.4589 49.1501 66.6368C49.1761 66.6121 49.1949 66.5861 49.208 66.5595C49.7874 66.2166 50.3435 65.8306 50.8471 65.3885C51.2465 65.5381 51.7012 65.557 52.1246 65.5904C52.672 65.6335 53.2127 65.6772 53.7621 65.6772C53.7992 65.6772 53.834 65.6737 53.8667 65.6674C53.8399 66.2252 53.8195 66.783 53.8044 67.3416M31.1833 77.4263C32.5134 77.8389 33.9544 77.8343 35.3382 77.9169C36.8133 78.0051 38.2862 78.0783 39.7631 78.1342C42.7126 78.2455 45.6603 78.3968 48.6094 78.5172C50.2939 78.5859 51.9781 78.6617 53.6619 78.7441C53.7814 78.7499 53.8953 78.7201 53.9958 78.6657C54.0523 79.743 54.1185 80.8198 54.1957 81.896C54.2053 82.0306 54.2159 82.165 54.2258 82.2997C53.4333 82.2031 52.6468 82.1106 51.8483 82.0451C50.9518 81.9715 50.0556 81.9095 49.1578 81.8516C47.4081 81.739 45.6557 81.5881 43.9029 81.5331C40.3298 81.4209 36.7488 81.459 33.1743 81.4837C32.1629 81.4907 31.1516 81.5002 30.1403 81.5121C29.6346 81.5181 29.129 81.5246 28.6234 81.5317C28.1152 81.539 27.5691 81.4876 27.0879 81.6599C27.0833 81.6615 27.0794 81.664 27.0749 81.6656C28.5265 80.3294 29.827 78.8526 31.1833 77.4263M35.859 73.1542C38.0818 73.5474 40.3395 73.5204 42.5927 73.5593C44.8981 73.5992 47.2067 73.5728 49.5126 73.5774C50.8225 73.5801 52.1436 73.636 53.4487 73.5228C53.6029 73.5094 53.7224 73.4526 53.8077 73.372C53.8315 74.7206 53.875 76.0687 53.9351 77.4162C53.8504 77.3812 53.758 77.36 53.6619 77.3545C50.7155 77.1861 47.7688 77.0333 44.8187 76.9399C41.871 76.8466 38.9197 76.7359 35.9704 76.7706C34.5311 76.7875 33.0091 76.6981 31.5896 77.0028C32.129 76.4459 32.6801 75.8993 33.2564 75.376C34.0968 74.613 34.9935 73.8984 35.859 73.1542M37.5572 71.5667C37.5602 71.5634 37.5617 71.5598 37.5639 71.5564C37.5719 71.5621 37.5817 71.5661 37.5946 71.5658C39.6753 71.5203 42.0097 72.158 43.9558 71.1792C44.8246 70.7423 45.5441 70.0518 46.2425 69.388C46.2429 69.3929 46.2433 69.3979 46.2437 69.4028C46.2483 69.4566 46.2718 69.5215 46.328 69.5453C46.5575 69.6432 46.8263 69.6496 47.0728 69.6844C47.3563 69.7246 47.6346 69.748 47.9206 69.7647C48.551 69.8015 49.1813 69.8404 49.812 69.875C50.4412 69.9096 51.0732 69.9124 51.7033 69.9277C52.335 69.943 52.9969 70.0173 53.6222 69.9297C53.6796 69.9216 53.7306 69.9041 53.776 69.8798C53.7769 70.6657 53.7843 71.4516 53.7919 72.237C53.7931 72.365 53.7957 72.493 53.7972 72.6209C53.7128 72.5458 53.5968 72.4932 53.4487 72.4806C52.2891 72.3814 51.1206 72.4255 49.957 72.4293C48.8143 72.433 47.6715 72.4367 46.5288 72.4404C44.2214 72.4478 41.9158 72.4697 39.6088 72.5124C38.487 72.5331 37.37 72.6248 36.2645 72.8012C36.7121 72.405 37.1472 71.9972 37.5572 71.5667M19.4778 85.856C19.0518 85.9825 18.6289 85.9276 18.2021 86.0143C18.1759 86.0196 18.1516 86.0295 18.1295 86.0425C16.8513 85.512 15.9994 84.4474 15.4163 83.2544C14.8017 81.9969 14.3781 80.6526 14.0943 79.2899C13.5092 76.4806 13.5082 73.5677 13.811 70.7256C14.1086 67.9334 14.6978 65.1564 15.5386 62.4711C16.1158 60.6273 16.8515 58.7645 17.873 57.0833C19.0526 57.8511 19.9673 58.9567 20.8291 60.0372C21.8588 61.3286 22.7868 62.6951 23.6175 64.115C23.5316 64.3582 23.5183 64.6633 23.4771 64.8807C23.3977 65.2999 23.326 65.7244 23.2696 66.1472C23.1491 67.0509 23.0335 67.9552 22.9104 68.8586C22.6669 70.6449 22.3761 72.4264 22.0549 74.201C22.0289 74.3449 22.0705 74.4665 22.1469 74.5577C21.5098 74.8839 20.8811 75.2247 20.2685 75.594C18.9216 76.406 17.6629 77.3518 16.6746 78.5649C16.6489 78.5964 16.6892 78.6385 16.7209 78.61C18.8402 76.7075 21.4732 75.5131 24.0582 74.3327C25.3793 73.7294 26.6938 73.1164 27.9613 72.4111C29.2867 71.6737 30.5507 70.8403 31.7622 69.9371C33.1456 68.9058 34.4479 67.7783 35.6686 66.5687C35.8124 66.4261 35.7776 66.2476 35.6694 66.1348C35.7059 66.1238 35.7354 66.0929 35.7373 66.0414C35.7666 65.2514 36.0108 64.5784 36.4888 63.9391C36.9323 63.3459 37.4975 62.857 38.0073 62.3203C38.2339 62.0818 38.4504 61.8333 38.6437 61.5683C38.8428 61.2955 38.964 60.9943 39.1372 60.7093C39.3396 60.3762 39.5117 60.5464 39.6055 60.8479C39.7118 61.1897 39.7052 61.5898 39.6625 61.9412C39.6173 62.313 39.5008 62.6755 39.3329 63.0115C39.1753 63.3272 38.9935 63.6482 39.0996 64.01C39.274 64.6046 40.0216 64.9489 40.5879 65.0828C41.2185 65.2319 41.8782 65.2029 42.5168 65.1256C43.3165 65.0287 44.1124 64.8869 44.9029 64.7361C45.8183 64.5615 46.7284 64.36 47.6313 64.1323C48.0558 64.0252 48.4773 63.8845 48.9058 63.7959C49.0587 63.7643 49.3415 63.7169 49.5211 63.7942C47.2125 65.1312 44.6957 66.022 42.1395 66.7981C41.8219 66.8944 41.9522 67.3604 42.2772 67.2832C45.0234 66.6309 47.607 65.4202 50.0658 64.0942C50.1034 64.0738 50.1353 64.0424 50.1588 64.0052C50.4061 63.9207 50.6576 63.8472 50.9141 63.7867C51.0287 63.7596 51.6182 63.5706 51.6919 63.6432C51.7963 63.7461 51.435 64.08 51.3447 64.1771C50.7021 64.8686 49.9378 65.4331 49.1105 65.8997C48.2713 66.3729 47.3784 66.7502 46.4814 67.1062C45.4764 67.5051 44.4143 67.8186 43.4374 68.277C43.0494 68.4592 43.3217 69.0778 43.7305 68.9524C44.2574 68.7906 44.7693 68.5529 45.2813 68.3509C45.7162 68.1795 46.1512 68.0081 46.5837 67.8308C46.8852 67.7072 47.1847 67.5794 47.4812 67.4458C47.037 67.852 46.5927 68.2581 46.1486 68.6644C45.3794 69.368 44.6485 70.1695 43.7082 70.663C42.7792 71.1505 41.7193 71.2072 40.6853 71.1967C40.1661 71.1914 39.6492 71.1754 39.13 71.1957C38.5836 71.2171 38.0984 71.2987 37.5806 71.4657C37.5711 71.4688 37.5642 71.4744 37.5583 71.4807C37.5402 71.4592 37.5095 71.4485 37.4778 71.4667C36.0708 72.2749 34.7883 73.3234 33.5548 74.3596C32.2836 75.4276 31.0874 76.5633 29.9476 77.763C28.8567 78.9112 27.7745 80.0639 26.5874 81.1203C25.4283 82.1519 24.1897 83.0885 22.8963 83.9554C22.1916 84.4277 21.4694 84.8826 20.7222 85.2892C20.3229 85.5065 19.9174 85.7254 19.4778 85.856M19.5961 54.7658C20.0999 54.2159 20.6422 53.7063 21.2161 53.2348C21.4693 53.3076 21.7351 53.328 22.0029 53.3306C22.4116 53.3346 22.8212 53.3511 23.2298 53.3471C24.0168 53.3392 24.8034 53.3151 25.5905 53.3109C27.1999 53.3024 28.8098 53.302 30.4192 53.3156C30.6301 53.3174 30.7822 53.2298 30.8761 53.1026C31.2019 53.4614 31.5376 53.8119 31.8762 54.1569C32.4263 54.7175 33.0127 55.2523 33.637 55.7396C33.5154 55.7404 33.3939 55.7415 33.2731 55.7407C32.7164 55.737 32.1597 55.7336 31.6031 55.7307C30.4859 55.7247 29.3688 55.7203 28.2517 55.7174C26.0309 55.7117 23.8031 55.7297 21.585 55.8402C20.9694 55.8708 20.349 55.8832 19.7355 55.9415C19.4028 55.9731 19.0705 56.01 18.7381 56.0444C18.6701 56.0514 18.6048 56.0603 18.5408 56.0702C18.8664 55.6158 19.217 55.1794 19.5961 54.7658M28.4909 49.8646C28.4759 49.8745 28.4597 49.8833 28.4454 49.8939C28.4127 49.9177 28.4178 49.9608 28.4564 49.9753C28.5076 49.9948 28.5614 50.0095 28.6169 50.0211C28.7852 50.2583 28.9167 50.5515 29.0086 50.7001C29.2725 51.1271 29.5759 51.5339 29.8846 51.931C29.9466 52.0107 30.0099 52.0896 30.0734 52.1683C28.5785 52.1648 27.0845 52.1722 25.5905 52.2272C24.804 52.2561 24.0147 52.2804 23.2298 52.3377C22.9071 52.3613 22.5846 52.4009 22.2628 52.44C23.9373 51.2641 25.8203 50.3662 27.7711 49.6995C27.7684 49.7024 27.7657 49.7046 27.763 49.7075C27.72 49.7538 27.7842 49.8139 27.8325 49.7751C28.0863 49.5712 28.3066 49.6669 28.4909 49.8646M36.044 63.6865C36.0016 63.749 35.9598 63.8136 35.9191 63.8798C35.821 63.7848 35.6841 63.7213 35.5077 63.716C33.5494 63.6566 31.5921 63.6048 29.6328 63.6035C28.6665 63.6029 27.6915 63.5712 26.7264 63.6177C26.2418 63.641 25.7574 63.6688 25.2731 63.6955C24.9345 63.7141 24.5747 63.7374 24.244 63.8326C23.4819 62.5375 22.6359 61.2923 21.7119 60.1018C23.8082 60.3516 25.9404 60.325 28.0486 60.3943C30.4371 60.4729 32.8269 60.4899 35.2162 60.5448C35.8716 60.5599 36.527 60.5765 37.1823 60.5942C37.5205 60.6034 37.8588 60.613 38.197 60.6229C38.3027 60.626 38.4121 60.6288 38.5217 60.626C38.5134 60.6427 38.505 60.6593 38.4968 60.6757C38.3124 61.0458 38.0805 61.3864 37.8103 61.7025C37.2357 62.3746 36.5417 62.9535 36.044 63.6865M33.475 67.6759C33.4025 67.48 33.2257 67.3293 32.9442 67.3418C31.3397 67.4126 29.7322 67.4617 28.1295 67.5642C27.3488 67.6143 26.565 67.6479 25.7855 67.7143C25.3835 67.7485 24.9822 67.8122 24.5819 67.8629C24.3075 67.8976 24.0201 67.938 23.7569 68.0327C23.808 67.4852 23.853 66.9372 23.8921 66.3885C23.9234 65.9477 23.9329 65.5028 23.9305 65.0608C23.9293 64.8371 23.9215 64.6121 23.9104 64.3885C23.934 64.3931 23.9577 64.3954 23.981 64.3926C24.0221 64.3877 24.0604 64.383 24.096 64.3737C24.4649 64.514 24.8824 64.5449 25.2731 64.5721C25.7365 64.6041 26.1998 64.6383 26.6632 64.6704C27.6493 64.7388 28.6446 64.7343 29.6328 64.7656C31.5781 64.8272 33.5238 64.863 35.4694 64.9136C35.3792 65.2899 35.376 65.6763 35.5205 66.0407C35.4198 66.0082 35.304 66.0233 35.205 66.1182C34.6446 66.6561 34.0675 67.1749 33.475 67.6759M27.8151 71.6771C27.7755 71.5707 27.7008 71.4729 27.6123 71.4066C27.2721 71.1519 26.651 71.2985 26.2426 71.3179C25.7592 71.341 25.2756 71.3639 24.7922 71.3869C24.6455 71.3938 23.8966 71.431 23.3466 71.5448C23.4603 70.711 23.5634 69.8758 23.6556 69.0391C23.6749 68.8634 23.6928 68.6877 23.7106 68.512C23.9697 68.593 24.2513 68.6227 24.5185 68.635C24.919 68.6536 25.3214 68.685 25.7222 68.6911C26.5231 68.7033 27.3285 68.6649 28.1295 68.6519C29.5721 68.6286 31.0148 68.5617 32.4567 68.5065C31.009 69.6481 29.4793 70.6898 27.8837 71.6373C27.861 71.6508 27.8379 71.6637 27.8151 71.6771M23.259 72.1719C23.3808 72.1876 23.5017 72.1928 23.5941 72.2019C24.0582 72.2474 24.515 72.2886 24.9814 72.2952C25.4439 72.3018 25.9063 72.3083 26.3687 72.3149C26.4671 72.3162 26.5654 72.3177 26.6638 72.3191C25.446 72.9653 24.1909 73.5442 22.9535 74.1536C23.0625 73.494 23.1643 72.8334 23.259 72.1719M36.5281 57.4566C39.3033 58.6023 42.8628 58.7062 45.2478 56.803C45.4848 56.866 45.7469 56.8869 45.9561 56.9073C46.4263 56.9532 46.8921 56.9954 47.3646 57.0098C48.2854 57.0377 49.207 57.0795 50.1282 57.0906C51.9918 57.1129 53.8554 57.1234 55.719 57.1395C55.8776 57.1409 56.0045 57.094 56.1008 57.0185C56.2895 57.3294 56.4651 57.6481 56.6254 57.9748C56.8591 58.4515 57.0572 58.944 57.2199 59.4476C57.185 59.4417 57.1488 59.4377 57.11 59.437C54.6609 59.3958 52.2099 59.4643 49.7603 59.4742C47.3101 59.4842 44.8603 59.474 42.4102 59.4909C41.7321 59.4956 41.0591 59.4958 40.3828 59.5446C40.0308 59.5701 39.6746 59.5812 39.326 59.6364C39.287 59.6425 39.2474 59.6479 39.2074 59.6534C38.7402 59.3881 38.1603 59.4435 37.6263 59.4338C37.0132 59.4225 36.4001 59.4125 35.787 59.4037C34.582 59.3863 33.3768 59.3737 32.1717 59.3656C29.7799 59.3497 27.3939 59.4091 25.0036 59.49C23.8144 59.5302 22.6296 59.5986 21.4557 59.7764C21.3769 59.6773 21.2988 59.5777 21.2189 59.4793C20.3871 58.4551 19.401 57.1439 18.0323 56.8265C18.0848 56.7433 18.138 56.6607 18.1921 56.5786C19.1405 56.8216 20.1866 56.8093 21.1556 56.8602C22.2724 56.9188 23.3869 56.9593 24.5051 56.986C26.7278 57.0391 28.9501 57.0723 31.1733 57.1051C31.7903 57.1143 32.4073 57.1238 33.0243 57.1339C33.3571 57.1392 33.6899 57.1455 34.0228 57.1504C34.2087 57.1532 34.3749 57.1527 34.5521 57.0927C34.7162 57.0372 34.8761 56.9539 35.0348 56.8849C35.0902 56.8608 35.1352 56.8252 35.1719 56.7831C35.6076 57.036 36.0591 57.2629 36.5281 57.4566M47.3723 53.6467C47.7214 53.7408 48.0817 53.7564 48.4507 53.7835C48.9351 53.8191 49.4183 53.8251 49.904 53.8281C50.6783 53.8329 51.4529 53.8277 52.227 53.807C52.5595 53.7981 52.7538 53.5819 52.8114 53.3342C52.8194 53.3405 52.8277 53.3467 52.8357 53.3531C53.7779 54.1073 54.6316 54.9698 55.355 55.9246C53.6128 55.9299 51.8704 55.931 50.1282 55.9424C49.2072 55.9484 48.2854 55.9852 47.3646 56.0082C46.9129 56.0194 46.4677 56.0558 46.0179 56.0973C46.009 56.0982 45.9996 56.0989 45.9905 56.0997C46.0382 56.0463 46.0855 55.9921 46.1317 55.9364C46.6694 55.2891 47.1116 54.4915 47.3723 53.6467M58.6996 87.6268C58.8533 87.2159 58.7936 86.7753 58.7849 86.3432C58.776 85.8999 58.7711 85.4568 58.7696 85.0134C58.7666 84.1467 58.7606 83.2801 58.7507 82.4134C58.7308 80.6602 58.7099 78.9055 58.6389 77.1534C58.4986 73.6895 58.2282 70.234 57.7869 66.7934C57.5724 65.1207 57.3062 63.4518 56.9449 61.8027C56.95 61.7961 56.955 61.7893 56.96 61.7826C57.3198 61.3156 57.7289 60.8839 58.0824 60.4137C58.1137 60.372 58.1268 60.3185 58.1265 60.2644C58.1394 60.2583 58.1524 60.2519 58.1655 60.2446C58.4587 60.0824 58.1939 59.6403 57.9008 59.8046C57.9346 59.7857 57.4478 58.5719 57.3963 58.4497C57.211 58.0107 57.0026 57.5814 56.7676 57.1654C56.6259 56.9145 56.4741 56.6688 56.3152 56.4276C56.2874 56.2475 56.1873 56.0806 56.0153 55.9913C55.7134 55.5712 55.3874 55.1674 55.0399 54.7827C53.6171 53.2078 51.84 51.9364 49.8985 51.0309C49.618 50.9 49.3291 50.791 49.0413 50.6768C48.7349 50.555 48.4507 50.396 48.1488 50.2682C47.6574 50.0603 47.1724 50.0723 46.6897 50.2923C46.6485 50.3112 46.678 50.3728 46.72 50.3622C47.0307 50.2835 47.349 50.2703 47.6605 50.3557C47.9657 50.4395 48.1977 50.6245 48.4643 50.7789C48.9392 51.0541 49.4701 51.2334 49.9568 51.4902C50.6005 51.83 51.2295 52.2031 51.8312 52.6127C51.2078 52.6448 50.5839 52.6679 49.9598 52.684C49.4963 52.696 49.033 52.698 48.5702 52.7242C48.2408 52.7428 47.8982 52.7375 47.569 52.7892C47.6484 52.259 47.6485 51.7241 47.5493 51.2075C47.5493 51.2074 47.5492 51.2072 47.5492 51.207C47.5252 51.0825 47.4962 50.959 47.4604 50.8369C47.3844 50.5771 47.1406 50.5381 46.9636 50.6364C46.946 50.6239 46.9284 50.6116 46.9114 50.5982C46.6994 50.4309 46.5086 50.2308 46.3426 50.0205C45.9978 49.5836 45.7192 49.0777 45.5082 48.5679C45.2945 48.0516 45.1431 47.5114 44.9948 46.9746C44.9204 46.7055 44.8399 46.4378 44.7641 46.1689C44.6983 45.9352 44.6504 45.6769 44.5294 45.4639C44.5067 45.424 44.4384 45.4316 44.4275 45.4769C44.3635 45.7437 44.3973 46.048 44.4091 46.3201C44.4221 46.622 44.4399 46.9212 44.4813 47.2208C44.5671 47.8426 44.7054 48.4539 44.9271 49.0443C45.1396 49.6105 45.4201 50.1389 45.801 50.6159C46.054 50.9328 46.4135 51.3523 46.8298 51.5232C46.8842 52.1181 46.878 52.7136 46.7333 53.3025C46.5442 54.0734 46.1819 54.8062 45.6841 55.434C44.6404 56.7504 43.0258 57.4942 41.3412 57.6475C39.5984 57.806 37.8149 57.4273 36.2489 56.6826C34.507 55.8543 33.062 54.5763 31.7641 53.197C31.0159 52.4019 30.2401 51.6196 29.5466 50.7783C29.4238 50.6292 29.2271 50.3265 28.9938 50.0539C29.2312 50.0518 29.4749 50.0172 29.685 49.991C30.1198 49.9368 30.5448 49.8529 30.9697 49.7479C31.7641 49.5516 32.6019 49.2785 33.296 48.8465C34.7649 47.9323 35.3383 46.7726 35.5342 45.1749C35.5961 44.6698 34.6972 44.5472 34.6135 45.0538C34.4849 45.8326 34.2903 46.2115 34.0344 46.9597C33.7883 47.6787 33.4319 47.9466 32.7506 48.343C32.111 48.7151 31.3842 48.9313 30.6796 49.1547C30.2891 49.2785 29.894 49.3914 29.5003 49.5051C29.2496 49.5776 28.9521 49.6407 28.6978 49.7526C28.5651 49.6395 28.4267 49.5542 28.2874 49.5219C28.2976 49.5052 28.2843 49.4792 28.2587 49.4841C28.2177 49.4921 28.1769 49.5009 28.136 49.5091C28.0948 49.5119 28.0539 49.5198 28.013 49.5341C25.5588 50.0505 23.2021 51.15 21.2036 52.6478C21.1028 52.6886 21.0054 52.7387 20.9126 52.802C20.8649 52.8346 20.8332 52.8863 20.8241 52.9398C20.5237 53.1781 20.2322 53.4254 19.9505 53.6813C17.6819 55.7427 16.2446 58.4849 15.2383 61.3054C14.2471 64.084 13.5761 66.9978 13.2071 69.9152C12.831 72.889 12.7876 75.9245 13.3332 78.8815C13.6261 80.4693 14.1004 82.0296 14.8003 83.494C15.4289 84.8093 16.452 86.3076 18.0591 86.4678C18.0642 86.4728 18.0691 86.478 18.0749 86.4827C18.7054 86.9872 19.6442 86.6388 20.3034 86.3374C20.4079 86.2896 20.5116 86.2393 20.6148 86.1878C20.5603 86.3918 20.5357 86.6054 20.5243 86.8055C20.5006 87.2212 21.1039 87.2448 21.2182 86.8998C22.1962 87.0669 23.2061 87.0692 24.1953 87.0639C25.3006 87.058 26.4055 87.0208 27.5095 86.9703C29.7 86.8699 31.8879 86.7165 34.0799 86.6468C38.5182 86.5056 42.9686 86.8073 47.4034 86.9593C48.6474 87.0019 49.8915 87.0445 51.1355 87.0872C52.4066 87.1307 53.6764 87.139 54.9373 87.306C55.4009 87.3674 55.5785 86.926 55.4477 86.651C55.4803 86.4663 55.4479 86.2638 55.43 86.0462C55.3967 85.6396 55.3652 85.2329 55.3357 84.826C55.2781 84.0328 55.2225 83.2392 55.1697 82.4456C55.0628 80.8374 54.9708 79.2281 54.8813 77.6189C54.7034 74.4194 54.5672 71.2174 54.467 68.0148C54.4425 67.2341 54.4106 66.4532 54.3703 65.6731C54.4183 65.5992 54.4661 65.5252 54.5124 65.4502C54.6665 65.2005 54.8176 64.9492 54.9737 64.7006C55.2868 64.2024 55.6018 63.7074 55.9309 63.2189C56.2152 62.7971 56.5084 62.3817 56.8149 61.975C57.1953 65.0959 57.5334 68.22 57.6886 71.361C57.8596 74.8204 57.9503 78.2852 57.9996 81.7482C58.0134 82.7157 58.0227 83.6832 58.0333 84.6507C58.0388 85.1545 58.0444 85.658 58.0401 86.1619C58.036 86.6437 57.961 87.1708 58.137 87.6268C58.2396 87.8928 58.5984 87.8975 58.6996 87.6268Z" fill="black"/>
<path fill-rule="evenodd" clip-rule="evenodd" d="M51.2836 32.586C51.0393 28.7657 49.7386 24.4345 45.9102 22.5589C37.4705 19.3309 26.374 27.4598 25.7865 35.7642C25.5817 38.6068 27.2378 41.713 30.2643 42.5033C30.9371 43.3529 31.9547 43.8717 32.9591 44.322C44.922 50.2369 52.6494 45.4288 51.2836 32.586V32.586Z" fill="white"/>
<path fill-rule="evenodd" clip-rule="evenodd" d="M54.0089 30.2096C53.5862 29.0906 53.1396 27.9801 52.6698 26.8783C52.2122 25.806 51.7989 24.7104 51.2307 23.6889C47.837 17.5877 41.6657 17.5877 38.4756 18.3849C36.8213 17.7057 33.7227 17.8973 32.0001 18.5102C29.2114 19.5025 25.812 23.4061 24.6497 25.1599C22.0836 29.0322 20.4821 34.1862 22.1867 38.6608C22.4095 39.2456 22.6936 39.7872 23.0135 40.3092C22.812 40.5695 22.58 40.816 22.3231 41.0582C21.5596 41.7782 20.796 42.4744 20.1364 43.2864C19.4809 44.0933 18.9375 44.9515 18.533 45.8976C17.7702 47.6819 17.7335 49.7023 18.7419 51.4048C19.6193 52.8862 21.1735 53.9893 22.9246 54.0945C23.0145 54.1064 23.1045 54.1174 23.1949 54.126C23.4269 54.4902 23.7098 54.8256 24.0327 55.1179C25.022 56.0146 27.38 56.4746 28.725 56.5041C28.794 56.5569 28.8636 56.6097 28.9332 56.6619C29.7561 57.2792 30.6197 57.9019 31.5645 58.3411C32.2044 58.639 33.0435 58.8877 33.7112 58.6727C34.014 58.8656 34.5109 58.825 34.8112 58.6672C35.3049 58.408 35.7064 57.9413 35.9506 57.4634C36.5429 56.3033 36.4005 55.0338 36.2484 53.7944C36.0808 52.4254 35.9197 51.0558 35.756 49.6868C35.6278 48.6163 35.4937 47.528 35.1522 46.4968C34.9756 45.9625 34.7442 45.449 34.4452 44.9663C34.4529 44.9257 34.4516 44.8852 34.4394 44.8471C34.3414 44.5437 34.1391 44.3847 33.8993 44.1783C33.8684 44.1519 33.8375 44.1249 33.8072 44.0972C33.6873 43.967 33.5591 43.846 33.4218 43.7435C33.3689 43.6925 33.3167 43.6409 33.2645 43.5893C32.8308 43.1563 32.421 42.7012 32.0568 42.2136C31.7037 41.7406 31.3847 41.2468 31.0811 40.7438C30.7724 40.2322 30.5681 39.6678 30.2601 39.1599C30.2337 39.1163 30.1666 39.1077 30.1293 39.1439C30.0339 39.2379 29.9727 39.3423 29.9843 39.4522L29.9366 39.459C29.9185 39.2932 29.7581 39.1581 29.5402 39.1943C29.2141 39.2483 28.946 39.2686 28.6638 39.1654C28.7134 38.8516 28.7592 38.5371 28.8043 38.2221C28.8868 37.6423 28.9634 37.0607 29.0292 36.479C29.1884 36.5153 29.3463 36.5675 29.5009 36.6338C29.7213 36.7278 29.9295 36.8543 30.1074 37.0097C30.2826 37.1632 30.4038 37.3702 30.6178 37.4771C30.8639 37.5993 31.161 37.3972 31.0889 37.1319C30.9426 36.5957 30.1144 36.2886 29.6021 36.1873C29.4262 36.1523 29.2464 36.1376 29.0666 36.1412C29.1072 35.7678 29.1433 35.3944 29.1729 35.0204C29.1871 34.8435 29.2 34.6666 29.2122 34.4891C29.6105 34.3743 30.0371 34.3399 30.4515 34.3939C30.5881 34.4977 30.7247 34.6003 30.8569 34.7041C31.2764 35.0345 31.694 35.3668 32.1065 35.7052C32.1438 35.7353 32.1806 35.7654 32.218 35.7961C32.4628 35.9969 32.7683 35.7979 32.7271 35.5136C32.3907 33.1834 33.8884 31.3298 35.6419 29.8939C37.583 28.3038 41.1121 28.1186 43.4205 25.3644C44.4837 25.5706 46.8574 26.1831 47.837 27.6706C49.2084 29.7551 49.0292 31.6228 49.1336 33.9873C49.238 36.3537 49.5035 38.8221 48.9396 41.1553C48.4196 43.3068 47.0114 45.145 44.8267 45.9901C44.7726 46.011 44.7178 46.0312 44.663 46.0509C43.5333 46.4569 42.3005 46.5717 41.1121 46.358C39.7968 46.1209 38.6986 45.5473 37.6043 44.8416C37.5412 44.8017 37.449 44.884 37.4967 44.9442C38.939 46.7658 41.772 47.3744 44.0192 46.8935C44.1243 46.8708 44.2287 46.8462 44.3324 46.8192C43.8298 48.1968 43.9309 49.7089 44.5857 51.0503C44.9795 51.8573 45.5801 52.5556 46.3116 53.1065C47.1178 53.7133 48.118 54.2034 48.6774 55.0553C49.1897 55.8359 49.0376 56.7129 48.1605 57.1637C47.9394 57.2779 47.8544 57.6471 48.0735 57.8092C48.1573 57.8706 48.2411 57.9333 48.3268 57.9947C48.8178 58.3478 50.1667 59.0111 50.3852 59.0357C52.325 59.255 53.6293 57.8976 54.4652 56.2965C55.4467 54.4171 55.1915 52.1269 54.1101 50.3372C53.2427 48.9013 51.5342 47.4862 52.2135 45.6689C52.4558 45.0197 52.9514 44.4663 53.4328 43.9664C53.9819 43.3971 54.5722 42.864 55.0987 42.2744C55.622 41.6891 56.086 41.0522 56.3451 40.3176C56.7234 39.244 56.5352 38.0833 56.251 37.0115C55.642 34.7108 54.8512 32.4409 54.0089 30.2096Z" fill="black"/>
<path fill-rule="evenodd" clip-rule="evenodd" d="M45.1354 41.9044C44.9306 42.1736 44.5599 42.3798 44.1447 42.4784C43.7491 42.5724 43.3119 42.5686 42.9345 42.424L42.9021 42.411C42.62 42.2931 42.3492 42.0552 42.2463 41.8069C42.2054 41.7082 42.1916 41.6078 42.2196 41.5142C42.2448 41.43 42.3038 41.3524 42.4021 41.2858C42.4329 41.2649 42.4743 41.2634 42.5138 41.2704C42.5627 41.2791 42.6109 41.3021 42.64 41.3332C42.8014 41.5058 43.0357 41.6741 43.3129 41.6713C43.5268 41.6691 43.7015 41.5841 43.8709 41.4881L43.9899 41.4196C44.1047 41.3537 44.2212 41.2918 44.353 41.2635C44.5889 41.2128 44.875 41.3054 45.0493 41.4581C45.1253 41.5247 45.1806 41.603 45.1956 41.6873C45.2082 41.7581 45.1905 41.832 45.1354 41.9044ZM43.909 37.1962C44.3775 37.4826 45.0914 38.1505 44.5874 38.8605C43.9941 39.4865 43.1399 38.7687 42.7189 38.4441C42.3286 38.1925 41.8901 38.8396 42.2522 39.1334C45.2939 41.3981 46.5283 37.2711 44.1459 36.8595C43.8836 36.8141 43.7862 37.1076 43.909 37.1962ZM38.6233 32.7943L38.7579 32.7572L38.8951 32.72L38.9879 32.6953C39.6254 32.5275 40.3286 32.3798 40.9607 32.4519C41.1913 32.4782 41.3784 32.6087 41.4111 32.8516C41.4386 33.0566 41.3068 33.321 41.0827 33.3575C40.3402 33.4783 39.5801 33.4391 38.8342 33.5636C38.4627 33.6256 38.0941 33.7025 37.724 33.7719C37.4427 33.8246 37.1519 33.8432 36.8681 33.8859L36.9333 33.895C36.9562 33.8981 36.9505 33.9367 36.9279 33.9352C36.8344 33.9258 36.7407 33.9243 36.6469 33.9309L36.6067 33.9342C36.5454 33.9429 36.5093 33.8694 36.5639 33.8321C36.9097 33.5961 37.2031 33.3404 37.5903 33.1665C37.9251 33.0162 38.2698 32.8922 38.6233 32.7943ZM44.4269 32.4325C44.9171 31.9342 45.9594 32.1257 46.5425 32.3536C46.8753 32.4838 47.1918 32.6483 47.4553 32.8945L47.481 32.9187L47.5206 32.957C47.6985 33.1322 47.8969 33.3732 47.8687 33.6257C47.8644 33.6642 47.8435 33.7082 47.8003 33.716C47.5668 33.7576 47.3374 33.6337 47.1217 33.5591L46.9789 33.5098C46.7644 33.4363 46.5485 33.3661 46.3274 33.3154C46.0524 33.2525 45.7719 33.2162 45.4896 33.2198C45.2043 33.2235 44.8978 33.3045 44.6259 33.1906C44.3228 33.0636 44.1656 32.6982 44.4269 32.4325ZM39.5845 36.4514C39.4595 36.5798 39.2943 36.6523 39.0829 36.6092C38.9177 36.5755 38.6032 36.4085 38.352 36.1512C38.1801 35.9753 38.0364 35.7554 37.9973 35.5006C37.9883 35.4415 37.9571 35.4035 37.9161 35.3797C37.8837 35.3608 37.841 35.3513 37.7945 35.3561C37.7551 35.3601 37.7131 35.3744 37.6808 35.3935C37.6191 35.4298 37.594 35.4812 37.5888 35.5197C37.5394 35.8905 37.6819 36.2585 37.9039 36.5688C38.2035 36.9875 38.6436 37.2943 38.9022 37.3662C39.3449 37.4891 39.8113 37.3912 40.1551 37.0814C40.4301 36.8337 40.571 36.511 40.7018 36.1791L40.727 36.1148C40.7564 36.0395 40.7856 35.9648 40.8165 35.8908C40.8785 35.7426 40.8587 35.6145 40.7986 35.5147C40.732 35.4041 40.6091 35.3262 40.4723 35.3023C40.3458 35.2802 40.2105 35.3044 40.1037 35.382C40.0135 35.4477 39.9407 35.5516 39.9148 35.7054C39.8728 35.9554 39.7752 36.2422 39.6032 36.4315L39.5845 36.4514ZM47.1742 35.0044C47.071 34.9504 46.9904 34.9341 46.876 34.9685C46.8127 34.9876 46.7502 35.0243 46.7012 35.0735C46.6527 35.1223 46.6177 35.183 46.6041 35.2503C46.5706 35.4164 46.4802 35.5719 46.3515 35.6733C46.2414 35.7599 46.1024 35.8058 45.9483 35.7799C45.782 35.752 45.6235 35.6447 45.5144 35.5183C45.484 35.483 45.4591 35.4438 45.435 35.404L45.4206 35.3802C45.3668 35.2909 45.3146 35.2079 45.2404 35.1424C45.2123 35.1174 45.17 35.1001 45.1289 35.1001C45.1123 35.1001 45.0953 35.1029 45.0792 35.1079C44.9137 35.275 44.8819 35.4018 44.8872 35.5275C44.8928 35.6593 44.9445 35.7928 45.028 35.9173C45.2239 36.2095 45.5959 36.449 45.8469 36.5032C46.1906 36.5775 46.532 36.4884 46.8058 36.2953C47.0874 36.0966 47.2961 35.7881 47.3611 35.4405C47.3768 35.3568 47.3701 35.2664 47.3384 35.1881C47.3075 35.1115 47.2535 35.0459 47.1742 35.0044Z" fill="black"/>
</svg>
